<?xml version="1.0" encoding="utf-8"?>
<!-- Generator: Adobe Illustrator 26.0.3, SVG Export Plug-In . SVG Version: 6.00 Build 0)  -->
<svg version="1.1" id="Layer_1" xmlns="http://www.w3.org/2000/svg" xmlns:xlink="http://www.w3.org/1999/xlink" x="0px" y="0px"
	 viewBox="0 0 241 101" style="enable-background:new 0 0 241 101;" xml:space="preserve">
<style type="text/css">
	.st0{fill-rule:evenodd;clip-rule:evenodd;fill:#001F36;}
	.st1{opacity:0.8;fill-rule:evenodd;clip-rule:evenodd;fill:#001F36;enable-background:new    ;}
</style>
<desc>Created with Sketch.</desc>
<g id="Home" transform="translate(-370.000000, -49.000000)">
	<g id="BHS-Logo" transform="translate(370.000000, 49.000000)">
		<g id="Letters" transform="translate(94.000000, 32.000000)">
			<path id="Fill-6" class="st0" d="M5.7,20.9h24c2.3,0,4,0.3,5,0.8c0.8,0.5,1.3,1.1,1.5,2c0.2,1,0.4,2.2,0.4,3.6
				c0,1.5-0.3,2.7-0.8,3.5c-0.5,0.8-1.3,1.3-2.3,1.6c-1.1,0.3-2.5,0.4-4.2,0.4H5.7V20.9z M34.7,14.3c-0.5,0.7-1.1,1.2-2,1.5
				c-1,0.3-2.2,0.5-3.8,0.5H5.7V5.9h23.8c2.2,0,3.7,0.3,4.6,1c0.8,0.6,1.3,2,1.3,4C35.4,12.4,35.1,13.5,34.7,14.3z M38.8,18.8
				c-0.5-0.3-1.1-0.5-1.8-0.6c0.5-0.2,0.9-0.4,1.3-0.5c1-0.6,1.8-1.4,2.2-2.5c0.4-1.1,0.6-2.5,0.6-4.5c0-6.2-3.5-9.4-10.4-9.4H0.2
				v36.3h29.8c2.7,0,5-0.3,6.7-1c1.8-0.7,3.2-1.8,4-3.4c0.9-1.6,1.3-3.7,1.3-6.4c0-2.1-0.2-3.9-0.7-5.1C40.9,20.3,40,19.4,38.8,18.8
				z"/>
			<polygon id="Fill-8" class="st0" points="88.9,16.4 57.3,16.4 57.3,1.2 51.9,1.2 51.9,37.5 57.3,37.5 57.3,21.1 88.9,21.1 
				88.9,37.5 94.3,37.5 94.3,1.2 88.9,1.2 			"/>
			<path id="Fill-11" class="st0" d="M145.2,21.5c-0.7-1.4-1.7-2.5-3.2-3.2c-1.4-0.7-3.2-1.1-5.5-1.4c-1.9-0.2-4.4-0.3-7.4-0.3
				c-0.9,0-2.3,0-4.2,0c-1.8,0-3.2,0-4.1,0c-1.7,0-3,0-3.8-0.1c-1.5-0.1-2.7-0.2-3.6-0.5c-0.9-0.3-1.5-0.7-2-1.4
				c-0.5-0.7-0.7-1.7-0.7-3c0-2.4,0.6-3.8,2-4.4c1.2-0.5,3.1-0.9,5.5-1.1c2.4-0.2,4.9-0.3,7.2-0.3h1.5c2.6,0,4.9,0.1,6.8,0.2
				c1.9,0.1,3.4,0.4,4.4,0.9c1.2,0.6,1.8,2.1,1.8,4.6v0.6h5.4v-0.6c0-3.2-0.7-5.6-2.2-7.3c-1.5-1.6-3.8-2.6-7-2.9
				c-2.9-0.3-6.4-0.5-10.4-0.5c-7.2,0-12,0.5-14.8,1.5c-2.1,0.8-3.6,2.1-4.5,3.8c-0.8,1.7-1.3,3.8-1.3,6.2c0,1.6,0.3,3,0.8,4.1
				c0.5,1.1,1.3,2.1,2.3,2.7c1,0.6,2.1,1.1,3.4,1.4c1.2,0.3,2.7,0.5,4.4,0.6c1.4,0.1,4.6,0.2,9.5,0.3l8.1,0.1c1.9,0,3.4,0.2,4.4,0.4
				c0.9,0.2,1.6,0.7,2.1,1.4c0.5,0.7,0.8,1.9,0.8,3.5c0,1.8-0.4,3.1-1.2,3.9c-0.8,0.8-2.2,1.3-4.1,1.5c-2.9,0.4-6.3,0.6-9.9,0.6
				c-2.5,0-4.9-0.1-7-0.2c-2.1-0.1-3.9-0.4-5.2-0.7c-0.8-0.2-1.4-0.6-1.8-1c-0.4-0.5-0.6-1-0.7-1.6c-0.1-0.6-0.2-1.6-0.2-2.7v-1.3
				h-5.4v0.6c0,2,0.1,3.6,0.4,4.8c0.3,1.3,0.7,2.4,1.4,3.3c0.7,0.9,1.7,1.6,2.9,2.1c1.2,0.5,2.7,0.9,4.6,1.1
				c2.7,0.4,6.3,0.5,10.8,0.5h2.8c2.9,0,5.4-0.1,7.6-0.3c2.2-0.2,4.1-0.7,5.6-1.3c1.9-0.8,3.3-2,4-3.6c0.7-1.5,1.1-3.4,1.1-5.6
				C146.2,24.7,145.8,22.8,145.2,21.5"/>
		</g>
		<g id="Bird">
			<path id="Fill-13" class="st0" d="M111.4,0.9c-5.8-1.2-11.3-0.8-17.6,0l-39,16l-6.2,30.4c0,0,20.4-15.7,35.1-24.2
				c14.7-8.5,34.9-20.2,30.7-2.5C120.4,13.3,123.6,3.3,111.4,0.9"/>
			<path id="Fill-16" class="st0" d="M47,10.5c-0.2,1.3-1.2,2.7-3.1,3.7c-1.8,1-4.2,1.3-6.1,0.7c-1.9-0.7-2.9-1.9-2.9-1.9
				c-2,0-4,0.4-6.8,1.4c0,0,6.5-4,11.3-5.3c6.9-2,10.2,2.5,10.2,2.5C48.6,10.9,47.5,10.6,47,10.5 M68.5,3.2c-20,0.5-36,0.4-68.1-2.7
				c0,0,5.5,8.2,9,15.8c2.9,6.3,5.2,13.3,5.8,15.3L88.9,1.4C83.1,2.2,76.6,3,68.5,3.2"/>
		</g>
		<path id="Investment-of-your-f" class="st1" d="M32.9,98v-9.8H34V98H32.9z M36.7,98v-7.2h1.1V92c0.5-0.8,1.2-1.4,2.5-1.4
			c1.8,0,2.8,1.2,2.8,2.9V98H42v-4.2c0-1.3-0.7-2.2-2-2.2c-1.2,0-2.2,0.9-2.2,2.3V98H36.7z M47.8,98.1l-3.1-7.3h1.2l2.4,6l2.5-6h1.2
			l-3.2,7.3H47.8z M54.2,94.8c0.2,1.5,1.3,2.4,2.5,2.4c1,0,1.7-0.4,2.3-1l0.7,0.6c-0.7,0.8-1.6,1.4-3,1.4c-2,0-3.6-1.5-3.6-3.8
			c0-2.1,1.5-3.8,3.5-3.8c2.1,0,3.4,1.7,3.4,3.8c0,0.1,0,0.2,0,0.4H54.2z M54.2,94h4.7c-0.1-1.3-0.9-2.4-2.3-2.4
			C55.3,91.5,54.4,92.6,54.2,94z M64.2,98.1c-1,0-2.2-0.4-3-1.1l0.5-0.8c0.8,0.6,1.7,0.9,2.5,0.9c0.9,0,1.5-0.4,1.5-1.1v0
			c0-0.7-0.9-1-1.8-1.3c-1.1-0.3-2.4-0.7-2.4-2v0c0-1.2,1-2.1,2.5-2.1c0.9,0,1.9,0.3,2.6,0.8l-0.5,0.8c-0.7-0.4-1.4-0.7-2.1-0.7
			c-0.9,0-1.4,0.4-1.4,1.1v0c0,0.7,0.9,1,1.9,1.2c1.1,0.3,2.3,0.8,2.3,2.1v0C66.8,97.3,65.7,98.1,64.2,98.1z M71.2,98.1
			c-1.2,0-2-0.6-2-2v-4.4h-1v-1h1v-2.2h1.1v2.2h2.3v1h-2.3v4.2c0,0.9,0.5,1.2,1.2,1.2c0.4,0,0.7-0.1,1.1-0.3v0.9
			C72.2,98,71.8,98.1,71.2,98.1z M74.5,98v-7.2h1.1V92c0.5-0.7,1.1-1.4,2.3-1.4c1.2,0,1.9,0.6,2.3,1.4c0.5-0.8,1.3-1.4,2.5-1.4
			c1.7,0,2.7,1.1,2.7,2.9V98h-1.1v-4.2c0-1.4-0.7-2.2-1.9-2.2c-1.1,0-2,0.8-2,2.2V98h-1.1v-4.3c0-1.4-0.7-2.2-1.9-2.2
			c-1.1,0-2,1-2,2.3V98H74.5z M88.4,94.8c0.2,1.5,1.3,2.4,2.5,2.4c1,0,1.7-0.4,2.3-1l0.7,0.6c-0.7,0.8-1.6,1.4-3,1.4
			c-2,0-3.6-1.5-3.6-3.8c0-2.1,1.5-3.8,3.5-3.8c2.1,0,3.4,1.7,3.4,3.8c0,0.1,0,0.2,0,0.4H88.4z M88.4,94h4.7
			c-0.1-1.3-0.9-2.4-2.3-2.4C89.5,91.5,88.6,92.6,88.4,94z M96.1,98v-7.2h1.1V92c0.5-0.8,1.2-1.4,2.5-1.4c1.8,0,2.8,1.2,2.8,2.9V98
			h-1.1v-4.2c0-1.3-0.7-2.2-2-2.2c-1.2,0-2.2,0.9-2.2,2.3V98H96.1z M107.1,98.1c-1.2,0-2-0.6-2-2v-4.4h-1v-1h1v-2.2h1.1v2.2h2.3v1
			h-2.3v4.2c0,0.9,0.5,1.2,1.2,1.2c0.4,0,0.7-0.1,1-0.3v0.9C108.1,98,107.6,98.1,107.1,98.1z M117.9,98.2c-2.2,0-3.8-1.7-3.8-3.8v0
			c0-2,1.6-3.8,3.8-3.8c2.2,0,3.8,1.7,3.8,3.8v0C121.7,96.4,120.1,98.2,117.9,98.2z M117.9,97.2c1.6,0,2.7-1.3,2.7-2.8v0
			c0-1.6-1.2-2.8-2.7-2.8c-1.6,0-2.6,1.3-2.6,2.8v0C115.2,95.9,116.4,97.2,117.9,97.2z M124,98v-6.3h-1v-0.9h1v-0.6
			c0-0.8,0.2-1.5,0.6-1.9c0.4-0.4,0.9-0.6,1.6-0.6c0.5,0,0.8,0.1,1.2,0.2v0.9c-0.4-0.1-0.7-0.2-1.1-0.2c-0.8,0-1.3,0.5-1.3,1.5v0.6
			h2.3v0.9h-2.3V98H124z M134.1,100.3c-0.6,0-1-0.1-1.5-0.4l0.4-0.9c0.4,0.2,0.7,0.3,1.1,0.3c0.6,0,1.1-0.3,1.5-1.4l-3.3-7.2h1.2
			l2.6,6l2.3-6h1.1l-3,7.5C135.9,99.7,135.2,100.3,134.1,100.3z M144.5,98.2c-2.2,0-3.8-1.7-3.8-3.8v0c0-2,1.6-3.8,3.8-3.8
			c2.2,0,3.8,1.7,3.8,3.8v0C148.3,96.4,146.7,98.2,144.5,98.2z M144.6,97.2c1.6,0,2.7-1.3,2.7-2.8v0c0-1.6-1.2-2.8-2.7-2.8
			c-1.6,0-2.6,1.3-2.6,2.8v0C141.9,95.9,143,97.2,144.6,97.2z M152.9,98.2c-1.8,0-2.8-1.2-2.8-2.9v-4.5h1.1V95c0,1.3,0.7,2.2,2,2.2
			c1.2,0,2.2-0.9,2.2-2.3v-4.1h1.1V98h-1.1v-1.3C154.9,97.5,154.2,98.2,152.9,98.2z M158.9,98v-7.2h1.1v1.9c0.5-1.2,1.6-2.1,3-2v1.2
			h-0.1c-1.6,0-2.9,1.1-2.9,3.3V98H158.9z M169.2,98v-6.3h-1v-0.9h1v-0.6c0-0.8,0.2-1.5,0.6-1.9c0.4-0.4,0.9-0.6,1.6-0.6
			c0.5,0,0.8,0.1,1.2,0.2v0.9c-0.4-0.1-0.7-0.2-1-0.2c-0.8,0-1.3,0.5-1.3,1.5v0.6h2.3v0.9h-2.3V98H169.2z M176.6,98.2
			c-1.8,0-2.8-1.2-2.8-2.9v-4.5h1.1V95c0,1.3,0.7,2.2,2,2.2c1.2,0,2.2-0.9,2.2-2.3v-4.1h1.1V98H179v-1.3
			C178.5,97.5,177.8,98.2,176.6,98.2z M184.9,98.1c-1.2,0-2-0.6-2-2v-4.4h-1v-1h1v-2.2h1.1v2.2h2.3v1H184v4.2c0,0.9,0.5,1.2,1.2,1.2
			c0.4,0,0.7-0.1,1.1-0.3v0.9C185.9,98,185.5,98.1,184.9,98.1z M190.8,98.2c-1.8,0-2.8-1.2-2.8-2.9v-4.5h1.1V95c0,1.3,0.7,2.2,2,2.2
			c1.2,0,2.2-0.9,2.2-2.3v-4.1h1.1V98h-1.1v-1.3C192.8,97.5,192.1,98.2,190.8,98.2z M196.8,98v-7.2h1.1v1.9c0.5-1.2,1.6-2.1,3-2v1.2
			h-0.1c-1.6,0-2.9,1.1-2.9,3.3V98H196.8z M203.1,94.8c0.2,1.5,1.3,2.4,2.5,2.4c1,0,1.7-0.4,2.3-1l0.7,0.6c-0.7,0.8-1.6,1.4-3,1.4
			c-2,0-3.6-1.5-3.6-3.8c0-2.1,1.5-3.8,3.5-3.8c2.1,0,3.4,1.7,3.4,3.8c0,0.1,0,0.2,0,0.4H203.1z M203.1,94h4.7
			c-0.1-1.3-0.9-2.4-2.3-2.4C204.2,91.5,203.3,92.6,203.1,94z"/>
	</g>
</g>
</svg>
