<?xml version="1.0" encoding="utf-8"?>
<!-- Generator: Adobe Illustrator 24.2.1, SVG Export Plug-In . SVG Version: 6.00 Build 0)  -->
<svg version="1.1" id="Layer_1" xmlns="http://www.w3.org/2000/svg" xmlns:xlink="http://www.w3.org/1999/xlink" x="0px" y="0px"
	 viewBox="0 0 73.1 56" style="enable-background:new 0 0 73.1 56;" xml:space="preserve">
<style type="text/css">
	.st0{fill:#B3B3B3;}
	.st1{fill:#FFFFFF;stroke:#B3B3B3;stroke-width:0.11;stroke-miterlimit:3.86;}
	.st2{fill:#B3B3B3;stroke:#B3B3B3;stroke-width:6.000000e-02;stroke-miterlimit:3.86;}
</style>
<g id="Ebene_2">
	<g id="Ebene_1-2">
		<polygon class="st0" points="0,0 22.9,0 22.9,56 0,56 0,0 		"/>
		<path class="st1" d="M6,50.8c-0.2,0.8-0.3,1.7-0.3,2.5H2.4C2.3,51.2,2.5,49.1,3,47c0.9-3.7,2.8-7.1,5.3-9.9
			c0.8-1.1,1.9-2.1,3.1-2.8c1.3,0.8,2.4,1.9,3.3,3.1c2.4,2.8,4.2,6.1,5.1,9.6c0.5,2,0.7,4.1,0.7,6.2h-3.4c0-0.8-0.1-1.6-0.2-2.4H6z"
			/>
		<path class="st0" d="M6.7,47.4h9.5c-0.4-1.5-0.9-2.9-1.6-4.2c-0.8-1.5-1.9-2.9-3.2-4.1c-1.2,1.1-2.2,2.5-3,4
			C7.6,44.3,7.1,45.8,6.7,47.4L6.7,47.4z"/>
		<polygon class="st0" points="25,0 48.1,0 48.1,56 25,56 25,0 		"/>
		<path class="st1" d="M45.2,50.2c-1.9,2.3-4.8,3.7-7.8,3.7c-5.4,0-9.8-4.4-9.8-9.9c0-5.4,4.4-9.8,9.9-9.8c3,0,5.9,1.4,7.7,3.8
			l-2.7,2.1c-1.2-1.5-3.1-2.4-5-2.3c-3.5,0.1-6.2,3.1-6,6.5c0.1,3.3,2.8,5.9,6,6c1.9,0,3.7-0.8,5-2.2L45,50L45.2,50.2L45.2,50.2z"/>
		<polygon class="st0" points="50.1,0 73.1,0 73.1,56 50.1,56 50.1,0 		"/>
		<path class="st1" d="M51.8,44c0-5.4,4.3-9.7,9.7-9.7c5.4,0,9.8,4.3,9.9,9.7c-0.1,5.4-4.5,9.8-9.9,9.8C56.1,53.8,51.8,49.4,51.8,44
			z"/>
		<path class="st2" d="M55.3,44c0-3.5,2.8-6.3,6.3-6.3c3.5,0,6.3,2.8,6.3,6.3c0,3.5-2.8,6.3-6.3,6.3C58.1,50.3,55.3,47.5,55.3,44
			C55.3,44,55.3,44,55.3,44z"/>
	</g>
</g>
</svg>
