<svg xmlns="http://www.w3.org/2000/svg" viewBox="0 0 111.3 20.97"><defs><style>.cls-1{fill:#b3b4b4;}</style></defs><g id="Layer_2" data-name="Layer 2"><g id="Layer_1-2" data-name="Layer 1"><path class="cls-1" d="M110.15,17.16V10a4.46,4.46,0,0,0-.94-3A3.28,3.28,0,0,0,106.6,6a3.82,3.82,0,0,0-1.45.28,3.56,3.56,0,0,0-1.21.82,3.94,3.94,0,0,0-.82,1.33,5,5,0,0,0-.3,1.8v7h-1.16V10a4.28,4.28,0,0,0-.94-3A3.2,3.2,0,0,0,98.16,6a3.63,3.63,0,0,0-2.72,1.24,4.38,4.38,0,0,0-.82,1.37,4.83,4.83,0,0,0-.29,1.69v6.91H93.18v-12h1.15V7.31a6.82,6.82,0,0,1,.65-.9,4.39,4.39,0,0,1,.83-.78,3.7,3.7,0,0,1,1.09-.54,4.8,4.8,0,0,1,1.43-.2,4.6,4.6,0,0,1,1.42.21,4.33,4.33,0,0,1,1.14.56,4.23,4.23,0,0,1,.86.83,6,6,0,0,1,.62,1,6.5,6.5,0,0,1,.68-1,4.93,4.93,0,0,1,.93-.83,4.18,4.18,0,0,1,1.2-.58,5,5,0,0,1,1.51-.21,4.9,4.9,0,0,1,1.92.36,4.34,4.34,0,0,1,1.46,1A4.4,4.4,0,0,1,111,7.84a6.34,6.34,0,0,1,.32,2.05v7.27h-1.15m-22.24-2a5.59,5.59,0,0,1-.74.83,4.88,4.88,0,0,1-1,.73,5.81,5.81,0,0,1-2.85.72,6,6,0,0,1-1.67-.24,4.7,4.7,0,0,1-1.48-.7,3.68,3.68,0,0,1-1.07-1.18,3.22,3.22,0,0,1-.41-1.64v0A3.52,3.52,0,0,1,79.09,12a3.57,3.57,0,0,1,1.07-1.22A4.86,4.86,0,0,1,81.8,10a8.42,8.42,0,0,1,2.14-.26,15.19,15.19,0,0,1,2.19.14,17,17,0,0,1,1.78.38V9.73a3.42,3.42,0,0,0-1-2.73A4.27,4.27,0,0,0,84,6.09a7.22,7.22,0,0,0-2,.27,9.75,9.75,0,0,0-1.73.69l-.43-1a12.28,12.28,0,0,1,2-.77A8.31,8.31,0,0,1,84,5,5.32,5.32,0,0,1,87.7,6.16,4.41,4.41,0,0,1,89,9.68v7.48H87.91v-2m0-3.86c-.5-.12-1.09-.24-1.76-.36a13.38,13.38,0,0,0-2.31-.18,4.79,4.79,0,0,0-2.92.77,2.37,2.37,0,0,0-1,2v0a2.35,2.35,0,0,0,.29,1.16,2.67,2.67,0,0,0,.76.85,3.76,3.76,0,0,0,1.12.54,4.77,4.77,0,0,0,1.31.19,5.86,5.86,0,0,0,1.74-.27,4.86,4.86,0,0,0,1.45-.75,3.64,3.64,0,0,0,1-1.16,3,3,0,0,0,.37-1.5V11.3M67.06,13.19a5.22,5.22,0,0,0,1,1.65,5,5,0,0,0,1.57,1.1,4.71,4.71,0,0,0,1.92.4,4.48,4.48,0,0,0,2.27-.58,7.12,7.12,0,0,0,1.75-1.42l.8.7a8.56,8.56,0,0,1-2.08,1.72,5.49,5.49,0,0,1-2.81.68,5.76,5.76,0,0,1-2.41-.51,6,6,0,0,1-1.93-1.35,5.93,5.93,0,0,1-1.28-2,6.22,6.22,0,0,1-.46-2.4v-.05a6.2,6.2,0,0,1,.46-2.39,6.28,6.28,0,0,1,1.28-2,6.08,6.08,0,0,1,1.93-1.38,5.91,5.91,0,0,1,2.41-.5,6.08,6.08,0,0,1,1.54.18,5.76,5.76,0,0,1,1.28.49,6.85,6.85,0,0,1,1.07.71,10.51,10.51,0,0,1,.91.85L75.5,8a8.82,8.82,0,0,0-1.71-1.39A4.25,4.25,0,0,0,71.51,6a4.71,4.71,0,0,0-1.92.4,4.87,4.87,0,0,0-1.52,1.09,5,5,0,0,0-1,1.63,5.32,5.32,0,0,0-.37,2v0a5.28,5.28,0,0,0,.39,2M59.31,0h2.87V17.16H59.31V0M56.23,12H47.11a3.75,3.75,0,0,0,1.23,2.34,3.51,3.51,0,0,0,2.35.81,4.18,4.18,0,0,0,1.83-.37,6,6,0,0,0,1.53-1.11l1.67,1.48a7,7,0,0,1-2.13,1.7,6.42,6.42,0,0,1-3,.63,6.66,6.66,0,0,1-2.5-.47,6,6,0,0,1-2-1.32,6.11,6.11,0,0,1-1.35-2A6.79,6.79,0,0,1,44.27,11a7,7,0,0,1,.45-2.52A6.11,6.11,0,0,1,46,6.41,5.94,5.94,0,0,1,47.89,5a5.62,5.62,0,0,1,2.44-.52,5.89,5.89,0,0,1,2.6.54,5.47,5.47,0,0,1,1.86,1.46A6.31,6.31,0,0,1,55.9,8.63a8.62,8.62,0,0,1,.38,2.56v.37a2.85,2.85,0,0,1,0,.4M53.16,8.8a3.07,3.07,0,0,0-.63-1,3.17,3.17,0,0,0-1-.7,3,3,0,0,0-1.26-.25,2.86,2.86,0,0,0-2.17.9,4,4,0,0,0-1,2.36h6.37a4.89,4.89,0,0,0-.31-1.28M34.74,21a10.48,10.48,0,0,1-5.55-1.49l1.06-2.14a9.74,9.74,0,0,0,2.07,1,7.67,7.67,0,0,0,2.35.35,4,4,0,0,0,2.91-1,3.76,3.76,0,0,0,1-2.85v-1a6.78,6.78,0,0,1-1.81,1.66,4.74,4.74,0,0,1-2.56.64,5.86,5.86,0,0,1-2.12-.39,5.36,5.36,0,0,1-1.79-1.14,5.43,5.43,0,0,1-1.26-1.83,6.18,6.18,0,0,1-.47-2.47,6.22,6.22,0,0,1,.47-2.47,5.47,5.47,0,0,1,3.07-3,5.64,5.64,0,0,1,2.1-.4,4.88,4.88,0,0,1,2.6.63,7.27,7.27,0,0,1,1.75,1.5V4.75h2.84v9.87q0,3.28-1.74,4.82A7.22,7.22,0,0,1,34.74,21m3.58-12a3.22,3.22,0,0,0-.79-1.09,3.52,3.52,0,0,0-1.16-.68A3.9,3.9,0,0,0,35,6.91a3.64,3.64,0,0,0-1.38.25,3.43,3.43,0,0,0-1.12.68,3.18,3.18,0,0,0-.75,1.08,3.53,3.53,0,0,0-.27,1.4,3.37,3.37,0,0,0,.28,1.4,3.48,3.48,0,0,0,.75,1.08,3.08,3.08,0,0,0,1.12.7,3.7,3.7,0,0,0,1.37.25,3.9,3.9,0,0,0,1.4-.25,3.25,3.25,0,0,0,1.16-.7,3.35,3.35,0,0,0,.79-1.07,3.12,3.12,0,0,0,.3-1.39,3.3,3.3,0,0,0-.3-1.41M22.91,10.12a3.3,3.3,0,0,0-.68-2.24,2.47,2.47,0,0,0-1.95-.78,2.63,2.63,0,0,0-2,.81,3.16,3.16,0,0,0-.77,2.26v7H14.64V4.75h2.87v2a5.57,5.57,0,0,1,.67-.85,4.2,4.2,0,0,1,1.9-1.18,4.3,4.3,0,0,1,1.3-.18,4.12,4.12,0,0,1,3.25,1.29,5,5,0,0,1,1.15,3.48v7.9H22.91v-7M8.44,15.63A5.61,5.61,0,0,1,6.82,16.9a5.19,5.19,0,0,1-2.4.52,5.8,5.8,0,0,1-1.69-.25,4.24,4.24,0,0,1-1.4-.73,3.69,3.69,0,0,1-1-1.2A3.65,3.65,0,0,1,0,13.58v0a3.74,3.74,0,0,1,.38-1.76,3.33,3.33,0,0,1,1-1.25A4.63,4.63,0,0,1,3,9.79a7.58,7.58,0,0,1,2-.25,11.4,11.4,0,0,1,1.91.14,12.06,12.06,0,0,1,1.52.38V9.75a2.44,2.44,0,0,0-.79-2A3.37,3.37,0,0,0,5.41,7.1a7.69,7.69,0,0,0-1.89.21,13,13,0,0,0-1.66.56L1.08,5.59A13.71,13.71,0,0,1,3.2,4.84a10.34,10.34,0,0,1,2.6-.28A5.53,5.53,0,0,1,9.92,5.94,5.3,5.3,0,0,1,11.26,9.8v7.36H8.44V15.63m.07-3.74a7.1,7.1,0,0,0-1.28-.35,8.82,8.82,0,0,0-1.57-.14,3.61,3.61,0,0,0-2.09.52,1.67,1.67,0,0,0-.75,1.48v0a1.56,1.56,0,0,0,.69,1.37,3,3,0,0,0,1.71.47,4.17,4.17,0,0,0,1.3-.19,3.46,3.46,0,0,0,1.05-.53,2.35,2.35,0,0,0,.69-.82,2.25,2.25,0,0,0,.25-1.07v-.78"/></g></g></svg>