<svg xmlns="http://www.w3.org/2000/svg" viewBox="0 0 1181.39 486.4"><defs><style>.cls-1{fill:#b3b3b3;}.cls-2{fill:#fefefe;}</style></defs><g id="Layer_2" data-name="Layer 2"><g id="Layer_1-2" data-name="Layer 1"><path class="cls-1" d="M800.88,4.53A90.71,90.71,0,0,1,828.28,0a218.68,218.68,0,0,1,52.5,6.33c28.94,6.38,56.87,16.64,84.15,28.1A937.79,937.79,0,0,1,1127.16,125c13.81,9.82,27.6,19.72,40.45,30.78,5.65,5.38,11.34,11.34,13.38,19.11,1.48,7.76-1.16,16.39-7.27,21.54-5.81,5.72-14.72,7.25-22.47,5.52-7.68-1.06-14.36-5.2-21.15-8.63a592.55,592.55,0,0,0-88.37-35.64c-13.47-4.37-27.19-7.89-40.9-11.39-33.67-7.63-68-12.72-102.54-13.76a266.42,266.42,0,0,0-44.74,1.22c19.83,31.22,42.24,60.71,65.68,89.29,4.85,5.63,6.47,14,3.48,20.91-4.66,10-16.93,15.93-27.58,12.43-5-1.5-8.43-5.72-12-9.32-9.33-11-18.45-22.28-27-33.94-11.61-14.8-22.25-30.33-33-45.78-5.72-8.84-12.06-17.32-17-26.65-54.54,10.23-106.5,31.44-155.09,57.87-16.33,9.18-32.54,18.62-48,29.25-11,7.13-21.2,15.49-31.87,23.14-4.89,3.84-11.52,4.56-17.52,3.81-7.88-2.22-15.16-8.19-16.87-16.48-1.39-4.44-.62-9.24,1.14-13.46,2.12-4,5.43-7.22,8.87-10.11,28.76-23.86,60.32-44.23,93.34-61.67,66.06-34.29,138.4-58.32,213-63,17,0,34-.68,50.89.76a550.78,550.78,0,0,1,102,16.81c27.59,7.48,54.44,17.43,81,28-36.28-21.09-73.42-40.87-112.15-57.13a541.06,541.06,0,0,0-81.62-28c-18.7-4.44-37.86-7.69-57.14-6.92a48.92,48.92,0,0,0-9.84,1.75c-3.36.81-5.82,3.37-8.6,5.21-3.83,4.87-3.3,11.65-1.64,17.25a73,73,0,0,0,6.05,13,9,9,0,0,1,1,3.72c-14.54,1.08-28.88,4-43.08,7.16-5.11-10.34-10-21.15-10.85-32.79-.51-8.89-.74-18.1,2.43-26.56C776.1,19,787.76,8.89,800.88,4.53Z"/><path class="cls-1" d="M50.22,347.83a12.81,12.81,0,0,1,17.45,1.62c2.8,3.59,4.2,8,5.75,12.2q20.51,55,41,110.07c1.29,3.67,3.29,8.28.33,11.73-3.32,3.18-9.26,3.88-12.86.78-2.29-2.33-3.09-5.62-4.23-8.58-3.32-9.56-6.9-19-10.14-28.6-15.43-.24-30.85-.05-46.28-.11-4.31.07-8.65-.25-12.93.38-3.34,11.23-7.74,22.14-11.64,33.2C14.74,487,5.11,488.21,1.25,483c-2.52-3.49-.66-7.92.59-11.53q21.57-57.51,43-115C46.08,353.24,47.6,350.05,50.22,347.83Z"/><path class="cls-1" d="M381.79,345.68c3.46-1.19,7.81-.46,10,2.65,1.9,2,1.7,5,1.81,7.58q0,60.49,0,121c.16,3.43-1.32,7.3-4.69,8.68-3.46,1.22-7.9.93-10.43-2-1.9-2.05-2.14-5-2.18-7.65q0-60.51,0-121C376.22,351.17,377.84,346.78,381.79,345.68Z"/><path class="cls-1" d="M602.65,348.45c3.44-3.5,9-3.95,13.47-2.52s7.43,5.7,8.69,10.08c6.23,21.89,12.53,43.76,18.73,65.66q5.41,18,9.85,36.34c4.21-18.8,10.12-37.15,15.3-55.69,4.24-15,8.59-29.93,12.85-44.9,1-3.32,2.16-6.83,4.9-9.12,5-4.67,14-4.15,18.15,1.32,2.49,3.43,3.42,7.69,4,11.83,6.12,37.18,12.43,74.32,18.58,111.49.31,3.56,1.28,7.83-1.32,10.8-2.42,3-6.94,2.84-10.26,1.71-3.41-1.39-4.14-5.46-4.82-8.65-5.6-36.33-11.75-72.58-17-109-1.86,10.12-5,19.94-7.75,29.85-8.07,27.36-15.85,54.82-24,82.17-1.57,6.86-11,8.45-15.81,4.06-1.42-1.54-2-3.62-2.61-5.55-5.31-18.17-10.55-36.36-15.88-54.52-5.07-18.64-11.48-36.93-15.36-55.87-5.08,35.76-11.25,71.36-16.7,107.06-.58,3.72-1.2,8.15-4.78,10.23-3.53,1.51-8.66,1.6-11-2-2.15-3-1.38-6.87-1-10.24q9.56-57.15,19.06-114.29C598.79,355.05,599.87,351.16,602.65,348.45Z"/><path class="cls-1" d="M1013.59,345.5c5.47-2,11.69,2.5,11.25,8.37.1,40.33,0,80.67.06,121-.09,2.93.13,6.37-2.13,8.63-3.65,4.35-12,3.55-14.26-1.84a13.1,13.1,0,0,1-1-5.71q0-59.52,0-119.06C1007.18,352.41,1008.4,346.51,1013.59,345.5Z"/><path class="cls-1" d="M755.37,350.15c6.53-1.9,13.88,3.9,13.12,10.74,0,6.76-7.59,11.79-13.84,9.48-6-1.72-9.1-9.45-6-14.88C750,352.82,752.64,351.09,755.37,350.15Z"/><path class="cls-1" d="M796.85,356.63c.69-6.39,9.12-8.7,13.87-5.14,2.68,1.87,3.28,5.4,3.25,8.46,0,7.12-.05,14.24,0,21.36,3.93,0,8-.3,11.8,1.09,5.39,2.47,4.78,11.36-.72,13.37-3.65,1-7.47.47-11.19.68q.17,40.73,0,81.45c.26,6-6.17,9.89-11.59,8.05-3.79-1.17-5.86-5.21-5.64-9q0-40.23,0-80.46c-3.73-.31-7.6.25-11.2-1-4.81-2.55-5-10.89.07-13.25,3.57-1.19,7.4-1,11.12-1C796.76,373.08,796.32,364.83,796.85,356.63Z"/><path class="cls-1" d="M851.29,356.94c.45-6.92,10.29-9.48,14.68-4.63,2.41,2.57,2.43,6.28,2.36,9.59-.05,6.48,0,13,0,19.45,4.14,0,8.52-.4,12.45,1.22,4.28,2.75,4.24,10.33-.37,12.72-3.81,1.67-8.07.95-12.09,1.09-.15,26.87,0,53.74-.08,80.61a11,11,0,0,1-2.12,6.82c-3.9,3.75-11.5,3.32-14.08-1.77-1.37-3.19-.93-6.76-1-10.13,0-25.17.08-50.34,0-75.51-4.4-.24-9.5.89-13.08-2.38-2.69-2.91-2-7.33-.17-10.51,3.91-2.61,8.77-2.15,13.25-2.19C851.28,373.19,850.79,365,851.29,356.94Z"/><path class="cls-2" d="M58,364.09c7.51,22,15.58,43.86,23.31,65.81.35.77.72,2.34-.88,1.83H34.24C42,409.11,50.59,386.81,58,364.09Z"/><path class="cls-1" d="M132.54,388.1c-.14-8,11.8-10.75,15.73-4.24,2.44,4.51,1.06,9.95,1.53,14.87a39.46,39.46,0,0,1,13.87-15.3c4.2-2.56,9.54-4.16,14.33-2.38,5.15,2.16,5.84,9.88,1.86,13.44-2.57,2.63-6.32,3.28-9.64,4.48-6.21,2-12.28,5.4-16,11-3.39,5.3-4.41,11.74-4.44,17.94,0,16,0,32,0,48.07,0,3.05-.37,6.61-3.08,8.55-5.13,4.37-14.52.62-14.21-6.48Q132.35,433.06,132.54,388.1Z"/><path class="cls-1" d="M225.8,380.58c7.53-.66,15.31-.22,22.49,2.33,3.66,1.39,7.31,3.33,9.73,6.5,3,3.9.16,10.51-4.78,10.92-4,.33-7.56-1.94-11.24-3.15-8.8-3.19-19.42-2.36-26.89,3.58-7,5.31-10.66,13.82-12.26,22.23a57.87,57.87,0,0,0,1.27,25.94c2.28,7.46,6.77,14.49,13.51,18.65,6.29,3.75,14,4.2,21.08,3,4.37-.75,8.15-3.3,12.42-4.36,3.29-.85,7.66.95,8.1,4.65a8.17,8.17,0,0,1-3.49,8.44c-7.62,5.42-17.24,7.31-26.46,6.94-12.4-.32-25-5.63-32.78-15.48-9.15-11-12.35-25.76-11.88-39.77.29-13.8,4.79-28,14.68-38A43.27,43.27,0,0,1,225.8,380.58Z"/><path class="cls-1" d="M525.64,380.53c3.76-1,8.36.43,10,4.19,1.68,4.44.64,9.31.93,13.92,5.08-8.87,13.56-18.29,24.73-18.35,5.27-.24,9.23,5.19,7.76,10.18-1,4.73-5.92,6.52-9.95,7.88-7,2.06-14.31,5.49-18.23,12-3.51,5.5-4.25,12.19-4.29,18.57q0,23.53,0,47.05c-.12,2.31-.07,4.88-1.48,6.85-2.92,4.41-10.06,4.61-13.62.92-2-2.07-2.18-5.06-2.24-7.74q0-43,0-86.06C519,385.84,521.19,381.16,525.64,380.53Z"/><path class="cls-1" d="M755.64,380.45c3-.38,6.69-.28,8.73,2.37,2.12,2.14,2.33,5.29,2.34,8.14-.06,28.66,0,57.32,0,86,.15,3.44-1.35,7.17-4.7,8.57s-8,1.15-10.4-2c-2-2-2.18-5-2.24-7.67v-79a73.37,73.37,0,0,1,.27-9.95A7.9,7.9,0,0,1,755.64,380.45Z"/><path class="cls-1" d="M969.15,381.88a9.86,9.86,0,0,1,11.13.12,10.3,10.3,0,0,1,3,7.92c-.06,29,0,58,0,87,0,3.21-1.19,6.92-4.33,8.33-4.09,2.1-10.35.93-12.06-3.73-1.46-3.75-.74-7.85-.93-11.76-3.64,5.28-8.13,10-13.95,12.91-11.92,5.93-26.72,4.3-37.88-2.62-11.78-7.42-18.68-20.69-21-34.14-2-12.54-1.25-25.78,3.46-37.66,4.24-10.79,12.42-20.3,23.26-24.77,10-4.11,21.9-4.72,31.77.12a36,36,0,0,1,14.26,13.28C966.26,391.88,964.69,385.57,969.15,381.88Z"/><path class="cls-1" d="M283.34,392a44.13,44.13,0,0,1,33.89-11.53A40.89,40.89,0,0,1,345,394.22c9.15,10.22,13.68,24.18,13.23,37.81-.11,2.7-1.25,5.88-4,6.89-3.8,1.58-8,.88-12,1-19.25.08-38.51-.18-57.76.15.48,7.54,2.58,15.26,7.62,21.08a28.37,28.37,0,0,0,21.26,9.93c7.35.15,15-.92,21.37-4.81,3.81-2.08,7.25-5,11.45-6.28,3.29-.65,7.47,1.31,8,4.87,1.42,4.84-2.59,9-6.22,11.57-12,8.54-27.47,11.05-41.86,9.21a41.86,41.86,0,0,1-29.41-18.14c-8.4-12.37-10.76-28-9-42.69C269.17,412.57,274.41,400.62,283.34,392Z"/><path class="cls-1" d="M444.73,381.66c11.43-2.76,24.08-1.62,34.3,4.45,10.41,6.06,17.4,16.83,20.62,28.26a71.51,71.51,0,0,1-1.22,41.8c-3.61,9.67-9.91,18.66-18.9,24-10.78,6.52-24.34,7.8-36.35,4.29a42.48,42.48,0,0,1-26.45-23.05c-7-15-7.65-32.59-3.09-48.37C417.92,398.3,429.48,385.26,444.73,381.66Z"/><path class="cls-2" d="M291.91,405.51c9-12.16,29.12-13.82,39.83-3,6.33,6.37,9,15.51,9.34,24.3-18.85.28-37.7.08-56.55.1C285,419.31,287,411.49,291.91,405.51Z"/><path class="cls-2" d="M449.46,396.26a25.83,25.83,0,0,1,21.84,3.79c6.67,4.91,10.49,12.76,12.18,20.72a59.51,59.51,0,0,1-2.11,32.2c-2.53,6.24-6.81,12-12.9,15.18-9.72,5.5-23,3.29-30.54-4.91-6.12-6.49-8.7-15.48-9.51-24.17-.81-10.4.33-21.37,5.62-30.55A25.89,25.89,0,0,1,449.46,396.26Z"/><path class="cls-2" d="M931.45,396.14a25.05,25.05,0,0,1,24.1,6.54c6.14,5.81,8.87,14.24,10,22.41,1.34,10.92.25,22.51-5,32.33-2.84,4.88-6.92,9.23-12.13,11.56-9.44,4.31-21.61,2.37-28.76-5.31-6.9-7-9.53-17.11-10.15-26.7-.39-9.84.8-20.19,6-28.75A26.09,26.09,0,0,1,931.45,396.14Z"/></g></g></svg>