<svg xmlns="http://www.w3.org/2000/svg" viewBox="0 0 560 185"><path fill="#b3b3b3" d="M393.4 22c-3.1-7 0-14.9 7-18s14.9 0 18 7L477 143.4c3.1 7 0 14.9-7 18s-14.9 0-18-7L393.4 22zm59.3 0c-3.1-7 0-14.9 7-18s14.9 0 18 7l40.5 91.4c3.1 7 0 14.9-7 18s-14.9 0-18-7L452.7 22zm59.3 0c-3.1-7 0-14.9 7-18s14.9 0 18 7l19.5 44.3c3.1 7 0 14.9-7 18-7 3.1-14.9 0-18-7L512 22z"/><path fill="#b3b3b3" d="M102.4 93.4c-3.2 0-6 1.2-8.2 3-7.8 6.2-15.5 9.8-27 9.8-21.3 0-36-17.8-36-39.1v-.4c0-21.3 15.1-38.7 36-38.7 9.8 0 17.8 3.2 25.4 8.9 2 1.2 4.4 2.7 8.2 2.7 7.5 0 13.5-5.9 13.5-13.3 0-4.8-2.5-8.7-5.3-10.9C98.7 7.8 86.1 2.8 67.4 2.8c-38.2 0-64.8 29-64.8 64.3v.3c0 35.7 27.2 64 63.8 64 19.9 0 33-5.9 44.2-15.7 2.5-2.1 4.6-5.5 4.6-9.8 0-6.8-5.8-12.5-12.8-12.5m112.8-45.7c0 10.5-7.6 17.6-21 17.6h-27.7V29.6h27.2c13.3 0 21.5 6.1 21.5 17.8v.3zM196 4.9h-43.2c-7.6 0-13.7 6.1-13.7 13.7v98.1c0 7.6 6 13.7 13.7 13.7 7.6 0 13.7-6.1 13.7-13.7V89.5h21.8l26.7 33.8c3.2 4.1 7.3 7.1 13.5 7.1 6.6 0 13-5 13-12.6 0-4.3-1.8-7.1-4.4-10.5l-19-23.1C233.2 78 243 65.9 243 46.4V46c0-11.7-3.7-21.5-10.7-28.4C224 9.4 211.8 4.9 196 4.9m107 72.3l17.2-41 17.2 41H303zm77.6 34.5l-43.3-97.9C334.3 7 328.9 3 321.5 3h-1.6c-7.5 0-13 4.1-16 10.8l-43.3 97.9c-.9 2-1.6 3.9-1.6 5.9 0 7.1 5.5 12.8 12.6 12.8 5.7 0 10.3-3.2 12.6-8.5l8.7-20.4h54.7l8.3 19.5c2.5 5.7 6.8 9.4 13.1 9.4 7.3 0 13-5.9 13-13.1.1-1.9-.5-3.7-1.4-5.6"/></svg>
