<?xml version="1.0" encoding="utf-8"?>
<!-- Generator: Adobe Illustrator 24.2.1, SVG Export Plug-In . SVG Version: 6.00 Build 0)  -->
<svg version="1.1" id="Layer_1" xmlns="http://www.w3.org/2000/svg" xmlns:xlink="http://www.w3.org/1999/xlink" x="0px" y="0px"
	 viewBox="0 0 958.4 593.5" style="enable-background:new 0 0 958.4 593.5;" xml:space="preserve">
<style type="text/css">
	.st0{fill:#FFFFFF;}
	.st1{fill:#B3B3B3;}
</style>
<g id="Layer_2_1_">
	<g id="Layer_1-2">
		<path class="st0" d="M355.7,456.4c3.1,0.2,6.2,0.1,9.4-0.1c4.6-0.5,5.7,1.4,5.7,5.8c-0.1,40.5-0.1,81.1-0.1,121.6v5.5
			c15.1,0,29.5,0.1,43.8-0.1c1.3,0,3.4-1.2,3.7-2.2c0.6-2.2,0.2-4.7,0.2-7V456.3h27.8v-30.7h-27.8c0-4.9,0.2-9.6,0-14.2
			c-0.5-12.4,5.8-18.9,18.4-18.4c7.8,0.3,15.5,1.3,23.8,2c0-10.4-0.1-21.2,0.1-32.1c0.1-3.3-1.2-4.9-4.2-5.5
			c-3.7-0.8-7.4-1.9-11.2-2.4c-12.9-1.7-25.9-3.1-38.6,0.5c-21.1,5.8-35.8,24.9-36,46.7c-0.1,6.4-0.1,12.8,0,19.2
			c0.1,3.2-1,4.7-4.3,4.3c-1.2-0.1-2.5-0.1-3.7,0c-8.2,0-8.2,0-7,8c0.1,1.1,0.1,2.2,0,3.3L355.7,456.4z"/>
		<path class="st0" d="M579.9,471.8v-50.8c-11.3-1.2-22.1-2.4-33.3,1c-10.7,3.3-19.5,10-30.1,15.5v-15.2l-46.7,3.1v6.4
			c0,47.8,0,95.7,0,143.5c0,4.4-1,10.3,1.3,12.9c2,2.2,8.2,1,12.5,1c10.9,0.1,21.7,0,33,0v-5.5c0-33.2,0-66.4,0.1-99.6
			c0-2.3,0.7-5.4,2.2-6.6c9.4-8,21.6-12,33.9-11.4C561.8,466.6,570.5,469.8,579.9,471.8z"/>
		<path class="st1" d="M958.4,334.8c-0.9,5.2-1.9,10.4-2.8,15.6c-3.6,21.6-10.8,42-20.7,61.4c-1.9,3.8-4,7.6-6.4,11.1
			c-0.9,1.1-2.3,1.6-3.8,1.5c-9.4-1.5-18.8-2.9-28-5.1c-22.8-5.5-44.5-15-64-28c-19.8-13-37.3-29.2-51.8-47.9
			c-19.1-24.5-32.6-52.9-39.3-83.2c-1.3-5.8-3.7-5.9-8.5-6.1c-9.5-0.6-18.9-1.7-28.2-3.5c-11.4-2-22.6-4.5-33.7-7.7
			c-7.9-2.4-15.5-6-22.8-9.9c-9.8-5.1-19.8-10.1-28.6-16.7c-11-8.2-22.6-15.8-31.3-26.8c-2.2-2.8-5-5.2-7.5-7.8
			c-1.6-1.6-1.8-3.4-0.2-5.2c6.5-7.1,12.3-15,19.7-21c12.6-10.1,25.8-19.5,39.4-28.2c8.3-5.3,17.6-9.3,26.9-13
			c11.2-4.5,23-7.1,34.8-10c20-4.8,40.2-4.2,60.4-4.3c4.1,0,6.7-0.8,9.2-4.9c4-6.9,9.2-13.2,14.4-19.3s10.6-11.8,16.3-17.3
			c10.2-10,20.9-19.3,33.5-26.1c13.8-7.4,27.5-15.1,42-20.9c15.5-6.2,31.9-9.8,48.5-10.8c0.5,0,1-0.6,1.4-0.9h23.4
			c1.2,7.7,3.4,15.3,3.6,23c0.5,18.1,0.6,36.1-2.5,54.1c-3.2,18.6-8.8,36.7-16.7,53.8c-6.9,14.8-15.4,28.8-25.4,41.6
			c-0.7,0.9-0.4,3.1,0.3,4.2c6.1,9.1,12.7,18,18.6,27.2c13.8,21.6,21.9,45.4,26.7,70.5c1,5.5,1.9,11,2.8,16.5V334.8z M867.7,213.5
			c-24,17-50,29.1-78.6,35.5c1.2,2.7,1.8,4.9,3,6.9c7.4,11.5,15.4,22.3,26.1,31.1c12.4,10.2,25.9,18.3,41.5,22.7
			c1.4,0.4,4.3-0.4,4.8-1.5c6.9-14.1,10.8-29.4,11.5-45C876.9,246.4,874.2,230.1,867.7,213.5z M811.1,108.7
			c11,4.8,20.2,8.8,29.2,12.9c12.8,5.9,24.5,13.8,35.7,22.3c4.1,3.2,6.6,2.8,8.8-1.9c4.2-8.9,8.6-17.8,12.1-27
			c4.5-12,6-24.7,5.4-37.6c-0.1-2.5-0.9-3.9-3.5-3.6c-8.6,0.8-17.2,1-25.7,2.5c-15,2.7-29.1,8.1-41.6,17
			C824.9,98.2,818.4,103.2,811.1,108.7z M775.9,191.6c0.1,1.2,0.1,2.5,0,3.7c-0.6,4.4,0.9,6.4,5.6,5.8c5.8-0.8,11.6-1.3,17.4-1.9
			c16.9-1.6,32-8.2,46.4-16.8c3-1.8,1.7-3.2,0-5.1c-7.5-8.5-16.2-15.8-25.8-21.7c-8.6-5.2-17.2-10.2-27.1-12.9c-3.8-1-5,0.2-6.2,3.1
			C780,160.5,775.9,175.6,775.9,191.6z M737,191.3c0.6-2.3,1.1-3.9,1.4-5.5c1.3-7.4,2.2-14.8,3.8-22.1s4.1-14.4,6.1-21.6
			c0.7-2.7,1.1-5.2-3.2-3.8c-0.9,0.2-1.9,0.3-2.8,0.1c-9.3-1.2-17.6,2.9-26.2,5.2c-4.8,1.3-9.3,3.9-13.8,6
			c-4.4,2.1-8.6,4.4-13.2,6.8C702.8,172.2,717.6,184.7,737,191.3z"/>
		<path class="st1" d="M115.8,572.3c-8,4.6-15.8,8.7-23.1,13.3c-7.2,4.5-14.8,5.2-23.1,4.7c-9.5-0.4-18.8-2.7-27.4-6.6
			c-10-4.6-18.8-11.6-25.6-20.4C4.4,547.5-0.7,529.5,0.1,509.7c0.4-10.3,0.1-20.9,2.1-30.9c2.5-12.5,8.1-24.1,16.4-33.9
			c6.7-7.9,14.1-15.1,23.5-19.7c9-4.3,18.4-7.5,28.4-8.1c13.6-0.7,27.1,0.1,40.4,7.8v-71.5c14.8,0,28.7-0.1,42.6,0.1
			c1,0,2.3,1.6,2.8,2.7s0.1,2.5,0.1,3.7c0,57.7-0.1,115.3,0.1,173c0,12.1,4.9,22.1,16.2,27.8c3.6,1.8,2.8,3.5,0.4,5.5
			c-10.3,8.5-20.6,16.8-30.8,25.3c-2.8,2.3-5.2,1.7-7.9,0.4C125.6,588.1,118.9,582.2,115.8,572.3z M110.5,508.8h0.8
			c0-10.5,0.2-21-0.1-31.5c-0.1-3-0.8-6.6-2.6-8.9c-6.6-8.1-15.9-11.9-25.9-11.7c-16.8,0.3-28.6,8.8-33.1,25.8
			c-3.2,12.2-4.1,24.5-0.9,36.8c2.3,9,6.2,17.2,13.9,23.2c12.4,9.5,34.9,5.9,45.7-1.3c1.2-1.1,2-2.7,2-4.4
			C110.6,527.5,110.5,518.1,110.5,508.8z"/>
		<path class="st1" d="M328.5,536.3c0,13.9,0.2,26.6-0.2,39.4c0,1.8-2.4,4.3-4.2,5.3c-9.8,5.2-20.4,7.9-31.3,9.1
			c-9,1.1-18.2,2.1-27.2,1.8c-20.9-0.7-40.6-5.8-57-19.4c-12.6-10.2-21.5-24.5-25-40.3c-1.8-8.2-3.7-16.6-3.6-24.9
			c0.2-16.5,2.6-32.7,10.7-47.8c9.8-18.2,24.3-30.5,43.2-38c15.1-6,30.8-6.1,46.7-4.5c14.5,1.4,27,7.4,38,16.4
			c9.1,7.5,15.4,17.3,20.2,28c7.5,16.7,10.2,34.2,9.1,53H229.3c2.4,15.8,10.1,27,24.6,32.7c6.6,2.6,13.6,3.2,20.9,3.1
			c9.3-0.2,18.4-1.1,27.2-4c7.4-2.4,14.6-5.2,21.9-7.8C325.1,537.9,326.4,537.2,328.5,536.3z M301.4,482.9
			c-1.3-12.3-17.9-25.8-31.6-26.4c-23-1.1-34,8.7-39.2,26.4H301.4z"/>
		<path class="st1" d="M700.6,572.6c-6.8,3.9-13.8,7.2-20.1,11.6c-9.8,6.8-20.5,7.1-31.6,5.9c-9.1-1-17.9-3.8-25.8-8.5
			c-18.7-11-30.5-27.2-35.4-48.5c-2.7-11.9-3.2-23.9-2.7-35.9c0.9-19,6.3-36.5,18.6-51.6c10.9-13.4,24.2-22.9,41.3-26.6
			c20.5-4.4,39.9-2.4,57.6,9.7c2.8,1.9,4.8,2.6,8.2,1.1c6-2.7,12.5-4.7,18.8-6.8c4.6-1.6,9.6,0.9,11.2,5.5c0.3,0.9,0.5,1.8,0.5,2.7
			c0,33,0,66,0,99.1c-0.1,8.2,2.4,16.1,7,22.8c2.3,3.3,6.5,5.4,10.2,7.7c2.5,1.6,3.5,2.3,0.6,4.7c-10.4,8.5-20.7,17.3-30.9,26.1
			c-2.7,2.3-5.5,2.2-8.4,0.8C711.1,588.5,704.3,581.4,700.6,572.6z M696.3,505.2c0-9.6-0.1-19.3,0-29c0.1-4.5-0.5-8.1-5-10.4
			c-3.1-1.6-5.7-4.1-8.7-5.7c-13.2-6.8-28.5-3.7-38.7,6.4c-8.7,8.7-11.1,19.8-11.2,31.4c-0.1,7.4,0.6,14.7,1.9,22
			c2.3,12.5,9.2,21.8,21.5,26.3c11.6,4.2,22.7,1.5,33.5-2.6c3.5-1.3,7.2-3.3,6.8-9C695.8,524.9,696.3,515,696.3,505.2L696.3,505.2z"
			/>
		<path class="st1" d="M355.7,456.4v-19.6c0.1-1.1,0-2.2,0-3.3c-1.1-8-1.1-7.9,7-8c1.2-0.1,2.5-0.1,3.7,0c3.3,0.4,4.4-1.1,4.3-4.3
			c-0.2-6.4-0.1-12.8,0-19.2c0.2-21.9,14.9-40.9,36-46.7c12.7-3.6,25.7-2.2,38.6-0.5c3.8,0.5,7.4,1.6,11.2,2.4
			c3,0.6,4.2,2.3,4.2,5.5c-0.2,10.9-0.1,21.7-0.1,32.1c-8.2-0.7-16-1.8-23.8-2c-12.6-0.5-18.9,6.1-18.4,18.4c0.2,4.6,0,9.3,0,14.2
			h27.8v30.7h-27.7v123.6c0,2.4,0.4,4.8-0.2,7c-0.3,1-2.4,2.2-3.7,2.2c-14.4,0.2-28.7,0.1-43.8,0.1v-5.5c0-40.5-0.1-81.1,0.1-121.6
			c0-4.4-1-6.3-5.7-5.8C361.9,456.5,358.8,456.6,355.7,456.4z"/>
		<path class="st1" d="M579.9,471.8c-9.3-2.1-18.1-5.3-27.1-5.7c-12.3-0.6-24.5,3.4-33.9,11.4c-1.5,1.3-2.2,4.4-2.2,6.6
			c-0.1,33.2-0.1,66.4-0.1,99.6v5.5c-11.2,0-22.1,0.1-33,0c-4.3,0-10.4,1.2-12.5-1c-2.3-2.6-1.3-8.4-1.3-12.9
			c-0.1-47.8-0.1-95.7,0-143.5v-6.4l46.7-3.1v15.2c10.6-5.5,19.3-12.3,30.1-15.5c11.1-3.4,22-2.2,33.3-1L579.9,471.8z"/>
	</g>
</g>
</svg>
