<?xml version="1.0" encoding="utf-8"?>
<!-- Generator: Adobe Illustrator 24.2.1, SVG Export Plug-In . SVG Version: 6.00 Build 0)  -->
<svg version="1.1" id="Layer_1" xmlns="http://www.w3.org/2000/svg" xmlns:xlink="http://www.w3.org/1999/xlink" x="0px" y="0px"
	 viewBox="0 0 149 30" style="enable-background:new 0 0 149 30;" xml:space="preserve">
<style type="text/css">
	.st0{fill:#B3B3B3;}
	.st1{clip-path:url(#SVGID_2_);}
	.st2{clip-path:url(#SVGID_4_);}
</style>
<g>
	<g>
		<g>
			<path class="st0" d="M89,27.5c0-1.5,1.2-2.5,2.8-2.5c0.8,0,1.4,0.2,1.9,0.6L93.3,26c-0.3-0.3-0.8-0.5-1.5-0.5
				c-1.3,0-2.2,0.9-2.2,2c0,1.2,0.9,2,2.2,2c0.7,0,1.3-0.2,1.6-0.4v-1h-1.6v-0.5H94v1.7c-0.4,0.4-1.1,0.7-2.2,0.7
				C90.2,30,89,29,89,27.5"/>
		</g>
		<g>
			<path class="st0" d="M98.4,30l-0.9-1.4c-0.2,0-0.3,0-0.5,0h-0.6V30H96v-5h1c1.3,0,1.9,0.8,1.9,1.8c0,0.8-0.3,1.3-1,1.6l1,1.5
				H98.4z M97,28.2c1,0,1.4-0.6,1.4-1.4c0-0.8-0.4-1.4-1.4-1.4h-0.5v2.7L97,28.2z"/>
		</g>
		<g>
			<path class="st0" d="M103.5,25c1.4,0,2.5,1,2.5,2.5c0,1.5-1.1,2.5-2.5,2.5c-1.4,0-2.5-1-2.5-2.5C101,26,102.1,25,103.5,25z
				 M105.5,27.5c0-1.2-0.8-2-2-2c-1.1,0-2,0.9-2,2c0,1.2,0.8,2,2,2C104.6,29.5,105.5,28.7,105.5,27.5z"/>
		</g>
		<g>
			<path class="st0" d="M107,28.3V25h0.6v3.2c0,0.9,0.5,1.3,1.4,1.3c0.9,0,1.4-0.4,1.4-1.3V25h0.6v3.3c0,1.2-0.9,1.7-2,1.7
				C107.9,30,107,29.4,107,28.3"/>
		</g>
		<g>
			<path class="st0" d="M114.1,25c1.3,0,1.9,0.8,1.9,1.9c0,1.1-0.7,1.9-1.9,1.9h-0.6V30H113v-5H114.1z M114,28.3
				c1.1,0,1.4-0.6,1.4-1.4c0-0.8-0.4-1.4-1.4-1.4h-0.5v2.8H114z"/>
		</g>
		<g>
			<path class="st0" d="M67,27.5c0-1.5,1.2-2.5,2.8-2.5c1,0,1.7,0.3,2.2,0.9l-0.4,0.3c-0.3-0.5-0.9-0.8-1.7-0.8
				c-1.3,0-2.2,0.9-2.2,2c0,1.2,0.9,2,2.2,2c0.8,0,1.4-0.3,1.8-0.8L72,29c-0.5,0.6-1.3,1-2.2,1C68.2,30,67,29,67,27.5"/>
		</g>
		<g>
			<path class="st0" d="M72,27.5c0-1.5,1.2-2.5,2.8-2.5c1,0,1.7,0.3,2.1,0.9l-0.4,0.3c-0.3-0.5-0.9-0.8-1.7-0.8
				c-1.3,0-2.2,0.9-2.2,2c0,1.2,0.9,2,2.2,2c0.8,0,1.4-0.3,1.8-0.8L77,29c-0.5,0.6-1.3,1-2.2,1C73.2,30,72,29,72,27.5"/>
		</g>
		<g>
			<path class="st0" d="M80.1,25c1.3,0,1.9,0.8,1.9,1.9c0,1.1-0.7,1.9-1.9,1.9h-0.6V30H79v-5H80.1z M80,28.3c1.1,0,1.4-0.6,1.4-1.4
				c0-0.8-0.4-1.4-1.4-1.4h-0.5v2.8H80z"/>
		</g>
		<g>
			<path class="st0" d="M85,25l2,5h-0.5l-0.3-0.8h-2.4L83.5,30H83L85,25L85,25z M86,28.7l-0.8-2.2c-0.1-0.2-0.2-0.6-0.2-0.6
				s-0.1,0.4-0.2,0.6L84,28.7H86z"/>
		</g>
		<g>
			<g>
				<defs>
					<rect id="SVGID_1_" x="0.1" y="0.3" width="62.9" height="20.5"/>
				</defs>
				<clipPath id="SVGID_2_">
					<use xlink:href="#SVGID_1_"  style="overflow:visible;"/>
				</clipPath>
				<g class="st1">
					<path class="st0" d="M53.2,0.3l-9.4,20.5h4.6c0,0,4.5-10.9,4.7-11.7c0.2,0.7,2.2,5.6,2.2,5.6h-2.3l-1.6,3.9h5.6l0.9,2.2H63
						L53.2,0.3"/>
				</g>
			</g>
			<g>
				<defs>
					<rect id="SVGID_3_" x="0.1" y="0.3" width="62.9" height="20.5"/>
				</defs>
				<clipPath id="SVGID_4_">
					<use xlink:href="#SVGID_3_"  style="overflow:visible;"/>
				</clipPath>
				<g class="st2">
					<path class="st0" d="M0.1,20.8h4.7v-20H0.1V20.8z"/>
				</g>
			</g>
		</g>
		<g>
			<path class="st0" d="M10,21V1h13v4.1h-8.4v4.8h7.7V14h-7.7v7H10"/>
		</g>
		<g>
			<path class="st0" d="M33.6,16.1c-0.3,0-0.7,0.1-1,0.1h-1.1V21H27V1h5.6c5.6,0,8.9,2.8,8.9,7.6c0,2.9-1.2,4.9-3.5,6.1L42,21h-5.3
				L33.6,16.1z M32.5,12.1c3.1,0,4.3-1,4.3-3.5c0-2.5-1.3-3.5-4.3-3.5h-0.9v7H32.5z"/>
		</g>
		<g>
			<path class="st0" d="M80.6,21v-7.5c0-0.7,0-1.6,0.1-2.3c-0.4,0.6-1,1.3-1.5,1.9l-3.9,4.4h-0.6L70.8,13c-0.5-0.6-1.1-1.3-1.5-1.9
				c0,0.7,0.1,1.6,0.1,2.3V21H65V1h0.7l9.3,10.2L84.2,1H85v20H80.6"/>
		</g>
		<g>
			<path class="st0" d="M90,21h4V1h-4V21z"/>
		</g>
		<g>
			<path class="st0" d="M110.6,21l-3.2-5.3c-0.4-0.6-0.8-1.5-1.1-2.1c-0.2,0.6-0.6,1.5-1,2.1l-3.2,5.3H97l6.7-11l-5.6-9h5.4l2.1,3.5
				c0.3,0.6,0.7,1.4,1,2c0.2-0.6,0.6-1.4,0.9-2l2-3.5h5.1l-5.5,9.1L116,21H110.6"/>
		</g>
		<g>
			<path class="st0" d="M142.9,9c-2,0-3.8,1-4.9,2.6c1.7,0.3,3.1,1.9,3.1,3.7c0,1.7-1.1,3.1-2.7,3.6c1.1,1.3,2.8,2.1,4.6,2.1
				c3.3,0,6-2.7,6-6C149,11.7,146.3,9,142.9,9"/>
		</g>
		<g>
			<path class="st0" d="M131.3,15.5c0-5.2,5.7-9.5,12.7-9.5V1c-8.8,0-16,5.2-17.5,12H120v5h6.5c1.5,6.8,8.8,12,17.5,12v-5
				C137,25,131.3,20.7,131.3,15.5"/>
		</g>
	</g>
</g>
</svg>
