<svg xmlns="http://www.w3.org/2000/svg" viewBox="0 0 456.88 204.06"><defs><style>.cls-1{fill:#b3b3b3;}</style></defs><g id="Layer_2" data-name="Layer 2"><g id="svg14"><g id="g12"><path id="path10" class="cls-1" d="M442.72,11.19V7.75h2.35c1.64,0,2.58.63,2.58,1.72,0,.86-.55,1.72-2.35,1.72Zm8.3,7-1.41-2.51c-1.26-2.19-1.57-2.5-2.66-2.89,2.11-.32,3.36-1.65,3.36-3.53s-1.25-3.44-3.91-3.44h-6.26V18.24h2.58V13.15h.47a2.44,2.44,0,0,1,2,.63A11.76,11.76,0,0,1,447,16.2l1,2H451ZM444.91,2.35A9.63,9.63,0,1,1,445,21.6h0a9.63,9.63,0,0,1,0-19.25Zm0-2.35a12,12,0,1,0,0,24h0a12,12,0,0,0,0-23.95Zm-65.2,12.84A69.66,69.66,0,0,0,323.9,37.41a31.81,31.81,0,0,0-5.71-8.61c-9.94-11.19-25.83-16.43-47.2-16.43-20.82,0-38.2,6.49-50.25,16.75-6.26-10.18-21.29-16.91-39.29-16.91-23.48,0-49.16,3.37-64.42,27.87-.31-8.85-1.17-13.55-6.11-18.79-6-6.34-15.81-8.06-25.28-8.06a43.82,43.82,0,0,0-39.76,23C32.26,57.92-.77,129.46,0,164.14c.47,22.38,15.5,38.51,42.35,39.13,21,.55,37.49-5.09,48-15.65a54.41,54.41,0,0,0,40.86,16.2c19.17,0,38.35-5.79,49.7-18.32,9.63,11.74,24.66,18.63,44,18.55A79.37,79.37,0,0,0,287,173.53c8,21.68,28.18,30.29,50.25,30.29,48.37,0,69.66-33.27,87.35-85.86,3.91-11.82,9.31-31.63,10.18-48.22,1.4-27.63-10.26-56.9-55-56.9ZM57.93,145.12c25.05-4.39,31.31,4.69,30.53,13-2.35,25-25.36,30.68-45.4,30.21-14.4-.31-27.47-7-27.86-23.79C14.57,135.1,44.63,67,58.72,44.46c6.57-10.72,14.48-16,27.16-16,12.05,0,15,6.26,14.87,13.62-.47,19.65-32.33,79.6-42.82,103ZM139.42,122q-4.21,11.71-7.28,23.79A82.09,82.09,0,0,1,157,142.53c12,.32,19.72,5.25,19.72,15.19,0,24.11-26.61,31.15-45.16,31.23-20.27,0-38.12-11.59-38.12-33.74,0-26.06,14.09-65.51,27.4-91.73,16.2-32.33,32.87-36.55,61.44-36.55,12.52,0,27,5.32,27,17.22,0,16.43-13.93,22.69-27.71,23.48a180.22,180.22,0,0,1-20.42.31,115,115,0,0,0-9.48,19.49c25.6-3.6,36.4,2.19,32.1,17-5.87,20-23.17,21.29-44.38,17.54ZM265.28,59.72c-7,0-11.43,4.38-14.88,9.08-7.35,10.49-23.48,52.21-26,69.35-1.64,11.74,3.36,14.09,8.92,14.09,8.92,0,18.87-9.39,22.31-24.89,0,0-17-.39-12.29-15.42,4.54-14.56,13.15-17.69,27.4-18.32,28.1-1.17,25.28,19.57,23.09,30.69C286.49,160.22,261,189,224.81,189c-24.73,0-40.15-13.7-40.15-38.9,0-18,8.92-46.19,16-62.78,15-35.22,30.84-59.72,71-59.72,24.19,0,43.21,8.61,40.39,31.31-2,16.51-10.33,26.3-25.44,27.39-4.22.4-21.44,0-15.73-16.43,2-5.72,2.82-10.18-5.63-10.18ZM417.12,89.46c-4.22,21.14-13.77,46.18-24.18,64.81C376,184.8,355.45,189,337.44,188.79s-38.19-6.81-38.35-34.52c-.08-19.88,8.53-48,15.81-66.37,12.68-33.42,25.67-60.58,66.69-60.11,47.74.54,39.29,43.05,35.53,61.6ZM383,68.57c-.47,12.75-19.18,63.87-25.83,75.14-2.9,4.85-6.11,8.92-12,8.92-5.09,0-7.43-3.68-7.59-7.83-.31-11.5,20.82-69.27,28.1-78.66,3.13-5,6.73-5.79,10.88-5.71C382.61,60.43,383.15,64.81,383,68.57Z"/></g></g></g></svg>