<svg xmlns="http://www.w3.org/2000/svg" viewBox="0 0 117.72 25.13"><defs><style>.cls-1{fill:#b3b3b3;}</style></defs><title>microsoft</title><g id="Vrstva_2"><g id="Layer_1"><path d="M46.37 8.5v11.6h2.6V5.02h-3.6l-4.55 11.2-4.43-11.2h-3.74V20.1h2.43V8.5h.08l4.67 11.6h1.84l4.58-11.6h.1zM52.7 4.7a1.5 1.5 0 0 0-1.08.43 1.38 1.38 0 0 0-.45 1 1.34 1.34 0 0 0 .45 1 1.5 1.5 0 0 0 1.08.42 1.53 1.53 0 0 0 1.1-.42 1.35 1.35 0 0 0 .45-1 1.43 1.43 0 0 0-.44-1 1.54 1.54 0 0 0-1.1-.43M54 9.3h-2.6v10.8H54zM61.52 9a6.28 6.28 0 0 0-3.1.74 5 5 0 0 0-2 2.1 6.75 6.75 0 0 0-.7 3.1 5.75 5.75 0 0 0 .7 2.78 4.87 4.87 0 0 0 1.9 1.92 5.74 5.74 0 0 0 2.77.67 6.05 6.05 0 0 0 3.05-.7v-2.3l-.1.07a4.7 4.7 0 0 1-1.25.63 3.7 3.7 0 0 1-1.22.24 3.1 3.1 0 0 1-2.38-.93 3.58 3.58 0 0 1-.87-2.55 3.73 3.73 0 0 1 .9-2.64 3.1 3.1 0 0 1 2.4-1A4.06 4.06 0 0 1 64 12l.1.08V9.6a4.17 4.17 0 0 0-1.17-.4 7.15 7.15 0 0 0-1.4-.2" class="cls-1"/><path d="M68.6 11.17V9.3h-2.54v10.8h2.54v-5.53a3.83 3.83 0 0 1 .63-2.3 2 2 0 0 1 1.65-.86 3.24 3.24 0 0 1 .76.12 2.34 2.34 0 0 1 .6.24l.1.08V9.28a2.66 2.66 0 0 0-1-.15 2.63 2.63 0 0 0-1.7.6 3.56 3.56 0 0 0-1 1.46zM78.22 9A5.63 5.63 0 0 0 74 10.6a5.8 5.8 0 0 0-1.52 4.22 5.52 5.52 0 0 0 1.48 4 5.4 5.4 0 0 0 4 1.5 5.5 5.5 0 0 0 4.12-1.58 5.78 5.78 0 0 0 1.52-4.2 5.64 5.64 0 0 0-1.43-4.06 5.24 5.24 0 0 0-4-1.48m-.1 9.2a2.72 2.72 0 0 1-2.2-.9 3.9 3.9 0 0 1-.8-2.6 4.1 4.1 0 0 1 .8-2.67 2.7 2.7 0 0 1 2.17-.93 2.62 2.62 0 0 1 2.1.9 3.94 3.94 0 0 1 .86 2.67 4.24 4.24 0 0 1-.72 2.68 2.56 2.56 0 0 1-2.13.9M88.94 9A4.62 4.62 0 0 0 86 10a2.93 2.93 0 0 0-1.16 2.4 3.27 3.27 0 0 0 .25 1.33 2.65 2.65 0 0 0 .76 1 6.64 6.64 0 0 0 1.56.87 12.55 12.55 0 0 1 1.3.6 1.92 1.92 0 0 1 .57.47 1.1 1.1 0 0 1 .15.62c0 .7-.55 1.06-1.66 1.06a4.57 4.57 0 0 1-1.42-.25 5.43 5.43 0 0 1-1.44-.72l-.1-.08v2.47a6.1 6.1 0 0 0 1.36.42 6.74 6.74 0 0 0 1.45.16 5 5 0 0 0 3.15-.92A3 3 0 0 0 92 17a2.87 2.87 0 0 0-.63-1.86 5.4 5.4 0 0 0-2.14-1.36 5.85 5.85 0 0 1-1.55-.78 1.14 1.14 0 0 1-.3-.84.9.9 0 0 1 .4-.76 1.7 1.7 0 0 1 1.08-.3 4.2 4.2 0 0 1 1.3.2 4.28 4.28 0 0 1 1.14.5l.1.1V9.5a6.1 6.1 0 0 0-1.15-.3 6.83 6.83 0 0 0-1.3-.2M98.8 9a5.66 5.66 0 0 0-4.2 1.55 5.84 5.84 0 0 0-1.5 4.23 5.52 5.52 0 0 0 1.47 4 5.36 5.36 0 0 0 4 1.5 5.48 5.48 0 0 0 4.12-1.58 5.78 5.78 0 0 0 1.5-4.2 5.68 5.68 0 0 0-1.4-4.06 5.27 5.27 0 0 0-4-1.48m-.13 9.2a2.74 2.74 0 0 1-2.2-.9 3.9 3.9 0 0 1-.77-2.6 4.1 4.1 0 0 1 .78-2.67 2.7 2.7 0 0 1 2.17-.94 2.65 2.65 0 0 1 2.1.9 4 4 0 0 1 .78 2.63 4.24 4.24 0 0 1-.73 2.67 2.55 2.55 0 0 1-2.13.9" class="cls-1"/><path d="M117.72 11.37V9.3h-2.57V6.08h-.1l-2.4.74h-.05V9.3h-3.8V7.94a2.15 2.15 0 0 1 .4-1.44 1.48 1.48 0 0 1 1.2-.5 2.92 2.92 0 0 1 1.1.25l.1.05V4.14a4.34 4.34 0 0 0-1.43-.2 4.15 4.15 0 0 0-2 .5 3.46 3.46 0 0 0-1.4 1.37 4.2 4.2 0 0 0-.48 2v1.5h-1.8v2.07h1.8v8.72h2.56v-8.73h3.8v5.54c0 2.3 1.1 3.45 3.2 3.45a5.2 5.2 0 0 0 1.1-.12 2.9 2.9 0 0 0 .8-.25v-2.1l-.1.06a1.77 1.77 0 0 1-.52.22 1.83 1.83 0 0 1-.5.1 1.36 1.36 0 0 1-1.1-.4 2.15 2.15 0 0 1-.35-1.4v-5.1zM0 0h11.94v11.94H0zM13.2 0h11.93v11.94H13.2zM0 13.2h11.94v11.93H0zM13.2 13.2h11.93v11.93H13.2z" class="cls-1"/></g></g></svg>