<svg xmlns="http://www.w3.org/2000/svg" viewBox="0 0 258.25 31.19"><defs><style>.cls-1{font-size:24.15px;font-family:Montserrat-Black, Montserrat;font-weight:800;letter-spacing:0.4em;}.cls-1,.cls-3,.cls-4{fill:#b3b3b3;}.cls-2{letter-spacing:0.39em;}.cls-3{stroke:#b3b3b3;stroke-miterlimit:10;stroke-width:2px;}.cls-5{fill:#fff;}</style></defs><g id="Layer_2" data-name="Layer 2"><g id="Layer_1-2" data-name="Layer 1"><text class="cls-1" transform="translate(102.21 23.21)">RE<tspan class="cls-2" x="53.5" y="0">C</tspan><tspan x="79.54" y="0">ALL</tspan></text><line class="cls-3" x1="79.35" y1="6.25" x2="79.35" y2="23.73"/><g id="Layer_2-2" data-name="Layer 2"><g id="Layer_1-2-2" data-name="Layer 1-2"><path class="cls-4" d="M17.41,5.82C12.91,5.55,8.5,6.38,4.07,7c-1.77.26-3.58.2-4-1.87S1.29,2.29,3.07,2c13.67-2,27.36-3.24,41-.16,3.71.83,8.3,1.71,8.2,6.46-.09,4.41-4.59,5.09-8.08,6.09-1.84.53-3.74.87-6.3,1.45,4.51,2.88,8.4,5.33,11.77,8.47,1.45,1.25,3.14,2.61,1.54,4.61s-3.22.7-4.69-.57c-7.1-6.21-14.8-11.1-24.43-12.43-3-.41-3.34-2.55-1.19-4.57A72.23,72.23,0,0,1,26.8,6.84a1.94,1.94,0,0,1,2.7.26C33.17,11,37.24,9.32,41.3,8,33.33,7.1,25.56,4.44,17.41,5.82Z"/><path class="cls-5" d="M17.41,5.82A63.25,63.25,0,0,1,45.88,8,30.91,30.91,0,0,1,33,11c-1.63.08-3.27.45-3.24-2.24,0-1.66-1.72-1.72-3-1.89C23.8,5.06,20.47,6.66,17.41,5.82Z"/></g></g></g></g></svg>