<?xml version="1.0" encoding="utf-8"?>
<!-- Generator: Adobe Illustrator 24.2.1, SVG Export Plug-In . SVG Version: 6.00 Build 0)  -->
<svg version="1.1" id="Layer_1" xmlns="http://www.w3.org/2000/svg" xmlns:xlink="http://www.w3.org/1999/xlink" x="0px" y="0px"
	 viewBox="0 0 258.2 31.2" style="enable-background:new 0 0 258.2 31.2;" xml:space="preserve">
<style type="text/css">
	.st0{enable-background:new    ;}
	.st1{fill:#B3B3B3;}
	.st2{fill:none;}
	.st3{fill:none;stroke:#B3B3B3;stroke-width:2;stroke-miterlimit:10;}
	.st4{fill:#FFFFFF;}
</style>
<g id="Layer_2_1_">
	<g id="Layer_1-2">
		<g class="st0">
			<path class="st1" d="M113.6,23.2l-2.2-4.6h-2.7v4.6h-5V6.3h7.9c4.5,0,7.1,2.2,7.1,6c0,2.5-1,4.3-2.9,5.4l3.4,5.5H113.6z
				 M108.7,14.8h2.9c1.5,0,2.4-0.8,2.4-2.3c0-1.5-0.9-2.3-2.4-2.3h-2.9V14.8z"/>
			<path class="st1" d="M144.6,6.3v3.9h-8.8v2.7h8v3.9h-8v2.7h9.1v3.9h-14.1V6.3H144.6z"/>
		</g>
		<g class="st0">
			<path class="st1" d="M165.3,10.3c-2.3,0-4,1.9-4,4.3s1.7,4.4,4,4.4c1.3,0,2.9-0.8,4-2l2.9,3.1c-1.8,2-4.6,3.3-7.2,3.3
				c-5.1,0-8.9-3.7-8.9-8.7c0-4.9,3.9-8.6,9.1-8.6c2.6,0,5.3,1.2,7,3l-2.9,3.4C168.3,11.2,166.7,10.3,165.3,10.3z"/>
		</g>
		<g class="st0">
			<path class="st1" d="M194.6,20.5h-6.8l-1,2.7h-5.2l7.2-16.9h5.2l7,16.9h-5.4L194.6,20.5z M193.2,16.8l-2-5.5l-2.1,5.5H193.2z"/>
			<path class="st1" d="M216.8,6.3V19h7.1v4.2h-12.1V6.3H216.8z"/>
			<path class="st1" d="M240.4,6.3V19h7.1v4.2h-12.1V6.3H240.4z"/>
		</g>
		<rect x="101.8" y="8.5" class="st2" width="163.6" height="0"/>
		<line class="st3" x1="79.3" y1="6.2" x2="79.3" y2="23.7"/>
		<g id="Layer_2-2">
			<g id="Layer_1-2-2">
				<path class="st1" d="M17.4,5.8C12.9,5.6,8.5,6.4,4.1,7c-1.8,0.3-3.6,0.2-4-1.9s1.2-2.8,3-3.1c13.7-2,27.4-3.2,41-0.2
					c3.7,0.8,8.3,1.7,8.2,6.5c-0.1,4.4-4.6,5.1-8.1,6.1c-1.8,0.5-3.7,0.9-6.3,1.4c4.5,2.9,8.4,5.3,11.8,8.5c1.5,1.2,3.1,2.6,1.5,4.6
					s-3.2,0.7-4.7-0.6c-7.1-6.2-14.8-11.1-24.4-12.4c-3-0.4-3.3-2.6-1.2-4.6c1.9-1.6,3.9-3.1,5.9-4.5c0.8-0.7,2-0.5,2.7,0.3
					C33.2,11,37.2,9.3,41.3,8C33.3,7.1,25.6,4.4,17.4,5.8z"/>
				<path class="st4" d="M17.4,5.8C26.9,4.4,36.7,5.1,45.9,8c-4,1.9-8.4,2.9-12.9,3c-1.6,0.1-3.3,0.4-3.2-2.2c0-1.7-1.7-1.7-3-1.9
					C23.8,5.1,20.5,6.7,17.4,5.8z"/>
			</g>
		</g>
	</g>
</g>
</svg>
