<?xml version="1.0" encoding="utf-8"?>
<!-- Generator: Adobe Illustrator 24.2.1, SVG Export Plug-In . SVG Version: 6.00 Build 0)  -->
<svg version="1.1" id="Layer_1" xmlns="http://www.w3.org/2000/svg" xmlns:xlink="http://www.w3.org/1999/xlink" x="0px" y="0px"
	 viewBox="0 0 177 27" style="enable-background:new 0 0 177 27;" xml:space="preserve">
<style type="text/css">
	.st0{fill-rule:evenodd;clip-rule:evenodd;fill:#B3B3B3;}
</style>
<path class="st0" d="M81.5,22.9c0,2.4-0.7,3.1-3,3.1c-1.1,0-2.4,0-3.3-0.2V0.6h6.1l10.9,16.3c0,0-0.2-0.7-0.2-2V0.6h6.3v25.3
	c-0.9,0.2-2.6,0.2-4.1,0.2c-2.4,0-3.1-0.6-4.3-2.2c-0.9-1.7-8.5-13.1-8.5-13.1s0,0.6,0,2.4L81.5,22.9L81.5,22.9z"/>
<path class="st0" d="M8.5,0.6c-5.9,0.4-8,3.9-8,7.6c0,3.9,2.4,7.6,8.3,7.8c2,0,4.4,0,5.4,0c1.3,0,2.4,0.9,2.4,2.4
	c0,1.5-1.1,2.4-2.4,2.4c-0.9,0-9.4,0-9.4,0c-3.1,0-4.1,0.9-4.1,3.9v1.5c3,0.2,8.1,0.2,14.2,0.2c6.1-0.2,8.5-4.1,8.5-8.1
	s-2.6-8-8.5-8c-1.9-0.2-4.8,0-5.7,0c-1.1-0.2-2-0.9-2-2.4c0-1.3,0.9-2,2-2.2c0.9,0,8.5,0,8.5,0c3.1,0,4.1-0.7,4.1-3.7V0.6
	C19.9,0.6,13.1,0.4,8.5,0.6L8.5,0.6z"/>
<path class="st0" d="M109.8,0.6c-5.9,0.4-8,3.9-8,7.6c0,3.9,2.4,7.6,8.3,7.8c2,0,4.4,0,5.4,0c1.3,0,2.4,0.9,2.4,2.4
	c0,1.5-1.1,2.4-2.4,2.4c-0.9,0-9.4,0-9.4,0c-3.1,0-4.1,0.9-4.1,3.9v1.5c3,0.2,8.1,0.2,14.2,0.2c6.1-0.2,8.5-4.1,8.5-8.1
	s-2.6-8-8.5-8c-1.8-0.2-4.8,0-5.7,0c-1.1-0.2-2-0.9-2-2.4c0-1.3,0.9-2,2-2.2c0.9,0,8.5,0,8.5,0c3.1,0,4.1-0.7,4.1-3.7V0.6
	C121.3,0.6,114.5,0.4,109.8,0.6L109.8,0.6z"/>
<path class="st0" d="M74.5,25.9c-0.9,0.2-2.6,0.2-4.1,0.2c-2,0-3.5-0.2-4.1-2.2l-0.9-2.8H56l-0.9,2.8c-0.6,2-2,2.2-4.1,2.2
	c-2,0.2-3.7,0.2-5.7,0c-2,0-3-0.4-3.9-1.5l-8.3-9.4c-0.2-0.4-0.2-0.6-0.2-0.6v8.3c0,2.4-0.7,3.1-3,3.1c-1.3,0-3.1,0-4.1-0.2V0.6h7
	v11.7c0-0.4,0-0.6,0.2-0.7l8.5-10.9h8.1L39.2,13l8.7,9.4c0.2,0.2,0.4,0.6,0.4,0.6s0-0.4,0-0.6c0.2-0.2,8.7-21.8,8.7-21.8h7.4
	L74.5,25.9L74.5,25.9z M63.8,16.1l-3.1-10l-3.1,10c0,0,0.2-0.2,0.4-0.2h5.7C63.8,15.9,63.8,16.1,63.8,16.1L63.8,16.1z"/>
<path class="st0" d="M176.3,25.9c-0.7,0.2-2.6,0.2-4.1,0.2c-2,0-3.5-0.2-4.1-2.2l-0.9-2.8h-9.4l-0.9,2.8c-0.6,2-1.9,2.2-4.1,2.2
	c-2,0.2-3.7,0.2-5.6,0c-2.2,0-3.1-0.4-4.1-1.5l-8.1-9.4c-0.4-0.4-0.4-0.6-0.4-0.6v8.3c0,2.4-0.7,3.1-3,3.1c-1.1,0-3.1,0-3.9-0.2V0.6
	h6.8v11.7c0-0.4,0.2-0.6,0.4-0.7l8.3-10.9h8.1L140.9,13c0,0,8.7,9.4,8.9,9.4c0.2,0.2,0.2,0.6,0.2,0.6s0-0.4,0-0.6
	c0.2-0.2,8.9-21.8,8.9-21.8h7.2L176.3,25.9L176.3,25.9z M165.5,16.1l-3.1-10l-3.1,10c0,0,0.2-0.2,0.4-0.2h5.7
	C165.5,15.9,165.5,16.1,165.5,16.1L165.5,16.1z"/>
</svg>
