<svg xmlns="http://www.w3.org/2000/svg" viewBox="0 0 381.17 265.29"><defs><style>.cls-1,.cls-2{fill:#b3b3b3;}.cls-1{fill-rule:evenodd;}</style></defs><g id="Layer_2" data-name="Layer 2"><g id="Layer_1-2" data-name="Layer 1"><path class="cls-1" d="M271.59,21.29C249.31,4.84,223.61.15,196.66,0c-24.56-.08-47.95,4.37-69,17.79-31.34,20-41.77,54.69-24.73,85.7C118.8,132.39,142,154.26,171,170c15.52,8.45,31,8.63,46.6.21a168.61,168.61,0,0,0,72.57-74.89c13.89-27.9,6.6-55.5-18.56-74.07m1.27,76.1C257.6,126.78,235.2,149.22,204.72,163a36,36,0,0,1-31.3-.12c-28.31-13.19-50.48-33.3-65.32-60.75C97,81.68,100.73,59.79,116.86,42.48c13.42-14.4,30.62-21.53,49.59-24.76,8.11-1.38,16.38-1.79,22-2.36,26.92.85,50.33,4.56,70.22,20,20.59,16,26.25,38.87,14.24,62"/><path class="cls-1" d="M243.45,32.16c-13.78-7.09-28.58-10.29-43.91-11.11-22.32-1.19-44,1.41-63.55,13.27-16.72,10.13-27.2,24.44-28.6,48.14,1.38,4.24,2.77,12.11,6.33,18.83,12.39,23.48,31.4,40.54,54.28,53.66,14.88,8.53,29.32,7.78,43.86-.61,22.68-13.1,40.7-30.92,53.49-53.76a59.87,59.87,0,0,0,7-18.86c3.37-20.14-7.84-38.74-28.86-49.56m15.7,64.89a113.94,113.94,0,0,1-50,52.29c-9.93,5.29-19.81,5.24-29.71,0-20.6-10.88-36.68-26.48-47.58-47-9.91-18.66-5.64-39,10.43-53.43q19.49-17.55,53.63-17.5c18.34.15,35.78,3.42,50.77,14.92,16.84,12.91,21.71,31.64,12.5,50.73"/><path class="cls-1" d="M239.13,48c-27-15.35-55-15.72-82.5-2.11-19.24,9.53-32,32-19.26,55.6,10.14,18.72,25.07,32.79,43.75,43,9.63,5.24,19,4.42,28.33-.86a108.23,108.23,0,0,0,42.73-44c3.21-6,4.83-12.9,6-16.23,0-15.7-6.93-28.43-19.09-35.36m4.65,46.77c-7.92,17.51-20.8,30.59-37.78,39.56-6.69,3.54-13.64,4.3-20.67.92C168.42,127.11,155.16,115,147.05,98c-7.72-16.16-.29-34.42,17.09-43.49,9.94-5.19,20.61-7.31,28.16-7,17.67.13,30.91,2.65,42.24,11.7,11.63,9.29,15.3,22.09,9.24,35.52"/><path class="cls-1" d="M225.53,58.26a60.85,60.85,0,0,0-25-6.33c-12.69-.68-25,.8-36.12,7.56-9.51,5.76-15.46,13.92-16.26,27.42.78,2.42,1.58,6.89,3.6,10.73,7.05,13.37,17.85,23.09,30.85,30.56,8.46,4.86,16.67,4.43,24.93-.35A80,80,0,0,0,238,97.23a34.17,34.17,0,0,0,3.95-10.74c1.92-11.47-4.45-22.07-16.39-28.23m8.92,37A64.8,64.8,0,0,1,206,125a17,17,0,0,1-16.9,0,63.42,63.42,0,0,1-27-26.78C156.43,87.6,158.86,76,168,67.79q11.07-10,30.48-10c10.43.08,20.34,1.94,28.86,8.49,9.57,7.35,12.34,18,7.11,28.9"/><path class="cls-2" d="M59.4,206.77H25.09q-8.4,0-10.49,3.09c-.81,1.26-1.21,4.1-1.21,8.54a6.08,6.08,0,0,0,3.16,5.45c1.75,1,4.6,1.55,8.54,1.55h14.2q9.08,0,14.53,3.63a11.62,11.62,0,0,1,5.45,10.23v10.63a12,12,0,0,1-5.59,10.63q-5.58,3.69-15.27,3.7H.13v-9.83H34.44c5.7,0,9.24-1.11,10.63-3.36Q46,249.29,46,242q0-6.87-11.16-6.86H20.65q-8.8,0-14.46-3.37Q0,228,0,221.63V211.14q0-7.06,6.73-11.24,4.71-3,13.65-3h39Z"/><path class="cls-2" d="M141.34,247.26a20.12,20.12,0,0,1-.94,7,13.84,13.84,0,0,1-4.91,6,19.19,19.19,0,0,1-7.67,3.5,61.46,61.46,0,0,1-9.08.47H97.82a47.2,47.2,0,0,1-8.95-.61,18.57,18.57,0,0,1-7.74-3.36,15.12,15.12,0,0,1-5.11-6,21.67,21.67,0,0,1-.81-7V197H88.6v48.5q0,5.25,2.76,7.09c1.83,1.24,5.18,1.85,10,1.85h13.79q7.13,0,10-1.78c1.88-1.18,2.82-3.49,2.82-6.9V197h13.39Z"/><path class="cls-2" d="M221.53,264.22H204.84l-32.76-25.84c-1.12-.85-1.68-2.26-1.68-4.24q0-5.64,8.28-5.64l19.57-.14q9.76,0,9.76-6.73V213.9q0-7.07-11-7.07H169.33v57.39H155.94V197h44.94q20.51,0,20.51,14.33V223a11.89,11.89,0,0,1-5.31,10.09q-5.31,3.84-14,3.84H186.68Z"/><path class="cls-2" d="M300.31,247.26a20.08,20.08,0,0,1-.95,7,13.84,13.84,0,0,1-4.91,6,19.19,19.19,0,0,1-7.67,3.5,61.37,61.37,0,0,1-9.08.47H256.78a47.2,47.2,0,0,1-8.95-.61,18.47,18.47,0,0,1-7.73-3.36,15.08,15.08,0,0,1-5.12-6,22,22,0,0,1-.8-7V197h13.38v48.5q0,5.25,2.76,7.09c1.84,1.24,5.18,1.85,10,1.85h13.79q7.13,0,9.95-1.78c1.89-1.18,2.83-3.49,2.83-6.9V197h13.39Z"/><path class="cls-2" d="M381.17,256.14a8.15,8.15,0,0,1-2.76,6.33,11.47,11.47,0,0,1-8.14,2.82c-3.19,0-5.65-.71-7.4-2.15a29.57,29.57,0,0,1-4-5.45l-31.14-47.43v54.09H314.9V206.77q0-9.83,10.9-9.82,5,0,7.54,2.08a26.15,26.15,0,0,1,4.17,5.45l30.88,47.36V197.55h12.78Z"/><path class="cls-1" d="M219.22,68.38a42,42,0,0,0-17.53-4.54c-8.91-.49-17.55.58-25.36,5.42-6.67,4.13-10.86,10-11.42,19.65.55,1.72,1.11,4.93,2.53,7.68,4.95,9.58,12.53,16.54,21.66,21.9,5.94,3.48,11.71,3.17,17.51-.25A56.84,56.84,0,0,0,228,96.3a25,25,0,0,0,2.78-7.7c1.34-8.22-3.13-15.81-11.52-20.22"/></g></g></svg>