<?xml version="1.0" encoding="utf-8"?>
<!-- Generator: Adobe Illustrator 26.0.3, SVG Export Plug-In . SVG Version: 6.00 Build 0)  -->
<svg version="1.1" id="Layer_1" xmlns="http://www.w3.org/2000/svg" xmlns:xlink="http://www.w3.org/1999/xlink" x="0px" y="0px"
	 viewBox="0 0 192.5 40.3" style="enable-background:new 0 0 192.5 40.3;" xml:space="preserve">
<style type="text/css">
	.st0{clip-path:url(#SVGID_00000096029551872682424100000013832430507316031126_);}
	.st1{fill:#B3B3B3;}
</style>
<g id="Layer_2_00000131349359611270468200000007140990799840220583_">
	<g id="Layer_1-2">
		<g>
			<defs>
				<rect id="SVGID_1_" x="0" y="-0.7" width="199.5" height="43.1"/>
			</defs>
			<clipPath id="SVGID_00000176762747258646879450000006864698480756332693_">
				<use xlink:href="#SVGID_1_"  style="overflow:visible;"/>
			</clipPath>
			<g style="clip-path:url(#SVGID_00000176762747258646879450000006864698480756332693_);">
				<path class="st1" d="M14.8,15l1.6,11.4l5.2-8.7l-2.2,9.5l5.6-5.3L22,29l4.6-3.5c-2.2,5.9-4.1,9.2-11.9,11.9
					C7,34.7,5,31.4,2.9,25.5L7.6,29l-2.9-7l5.6,5.3L8,17.8l5.2,8.7L14.8,15z"/>
				<path class="st1" d="M6.6,11.1c-2.4,0-3.8-1.3-3.8-3.4V2.6h2v5C4.7,8.6,5.3,9.4,6.2,9.6c0.1,0,0.3,0,0.4,0C7.6,9.6,8.4,9,8.5,8
					c0-0.1,0-0.2,0-0.4V2.6h2v5.1C10.5,9.8,9,11.1,6.6,11.1"/>
				<path class="st1" d="M14,6h0.7c1,0,1.5-0.4,1.5-1S15.8,4,14.8,4H14V6z M14,9.6h0.8c0.8,0,1.7-0.2,1.7-1.1s-0.9-1.2-1.7-1.2H14
					V9.6z M14.9,11h-2.8V2.6h2.8c2,0,3.2,0.8,3.2,2.2c0,0.7-0.5,1.4-1.1,1.7c0.9,0.2,1.5,1.1,1.5,2C18.4,10.1,17.2,11,14.9,11"/>
				<path class="st1" d="M24,11.1c-2.3,0.2-4.3-1.5-4.5-3.7c0-0.2,0-0.4,0-0.6c-0.1-2.3,1.7-4.3,4-4.3c0.2,0,0.3,0,0.5,0
					c0.9,0,1.8,0.2,2.6,0.6h0.1l-0.3,1.7l-0.1-0.1C25.6,4.3,24.8,4,24,4c-1.4-0.1-2.5,1-2.6,2.3c0,0.1,0,0.3,0,0.4
					c-0.2,1.4,0.8,2.6,2.2,2.8c0.1,0,0.3,0,0.4,0c0.8,0,1.6-0.3,2.3-0.7l0.1-0.1l0.3,1.6h-0.1C25.8,10.9,24.9,11.1,24,11.1"/>
				<path class="st1" d="M0,0v21.9c0,9.2,5,15.8,14.8,18.4c9.8-2.6,14.8-9.3,14.8-18.5V0H0z M14.8,39.2C5.5,36.5,1.1,30.4,1.1,21.7
					V1.1h27.3v20.6C28.5,30.4,24,36.5,14.8,39.2"/>
				<path class="st1" d="M14.8,14c2.1,0,2.3,0.8,4,0.8s1.9-0.8,4-0.8s2.4,0.8,4,0.8v-1.9c-1.6,0-1.9-0.8-4-0.8s-2.4,0.8-4,0.8
					s-1.9-0.8-4-0.8s-2.3,0.8-4,0.8s-1.9-0.8-4-0.8s-2.3,0.8-4,0.8v1.9c1.7,0,1.9-0.8,4-0.8s2.3,0.8,4,0.8S12.7,14,14.8,14"/>
				<path class="st1" d="M16.1,17.4c0.9,0.4,1.8,0.6,2.7,0.7c1.6,0,1.9-0.8,4-0.8s2.4,0.8,4,0.8v-1.9c-1.6,0-1.9-0.8-4-0.8
					s-2.4,0.8-4,0.8c-1.3,0-1.8-0.5-3-0.7L16.1,17.4z"/>
				<path class="st1" d="M10.8,18.1c0.9-0.1,1.8-0.3,2.7-0.7l0.3-2c-1.2,0.2-1.6,0.7-3,0.7c-1.7,0-1.9-0.8-4-0.8s-2.3,0.8-4,0.8v1.9
					c1.7,0,1.9-0.8,4-0.8S9.1,18.1,10.8,18.1"/>
				<path class="st1" d="M16.6,20.9c0.5,0.2,1.1,0.4,1.7,0.5l1.1-1.9c-0.2,0-0.4,0-0.6,0c-0.9-0.1-1.7-0.3-2.5-0.6L16.6,20.9z"/>
				<path class="st1" d="M21.9,20.7c0.3,0,0.6-0.1,0.9-0.1c2.1,0,2.4,0.8,4,0.8v-1.9c-1.6,0-1.9-0.8-4-0.8h-0.5L21.9,20.7z"/>
				<path class="st1" d="M7.7,20.7l-0.5-2H6.8c-2.1,0-2.3,0.8-4,0.8v1.9c1.7,0,1.9-0.8,4-0.8C7.1,20.6,7.4,20.6,7.7,20.7"/>
				<path class="st1" d="M11.3,21.4c0.6-0.1,1.1-0.3,1.7-0.5l0.3-2c-0.8,0.4-1.6,0.6-2.5,0.6c-0.2,0-0.4,0-0.6,0L11.3,21.4z"/>
				<polygon class="st1" points="47.5,11 46,11 46,4.9 43.7,4.9 43.7,3.6 49.6,3.6 49.8,4.9 47.5,4.9 				"/>
				<polygon class="st1" points="58.6,11 57.2,11 57.2,7.8 54,7.8 54,11 52.6,11 52.6,3.6 54,3.6 54,6.5 57.2,6.5 57.2,3.6 
					58.6,3.6 				"/>
				<polygon class="st1" points="67.5,11 62.8,11 62.8,3.6 67.4,3.6 67.4,4.9 64.2,4.9 64.2,6.5 66.8,6.5 67,7.8 64.2,7.8 64.2,9.7 
					67.5,9.7 				"/>
				<path class="st1" d="M78.7,11.1c-1.5,0.1-2.9-1-3-2.5c0-0.2,0-0.3,0-0.5V3.6H77v4.4c0,1.2,0.6,1.8,1.6,1.8s1.6-0.6,1.6-1.8V3.6
					h1.5v4.4c0.1,1.6-1,2.9-2.5,3.1C79,11.2,78.8,11.2,78.7,11.1"/>
				<polygon class="st1" points="91.7,11 90.5,11 86.9,5.8 86.9,11 85.6,11 85.6,3.6 87,3.6 90.4,8.6 90.4,3.6 91.7,3.6 				"/>
				<rect x="95.8" y="3.6" class="st1" width="1.4" height="7.4"/>
				<polygon class="st1" points="104.3,11.1 103,11.1 100.1,3.8 101.6,3.5 103.7,9.2 105.7,3.6 107.2,3.6 				"/>
				<polygon class="st1" points="114.7,11 109.9,11 109.9,3.6 114.6,3.6 114.6,4.9 111.3,4.9 111.3,6.5 113.9,6.5 114.1,7.8 
					111.3,7.8 111.3,9.7 114.7,9.7 				"/>
				<path class="st1" d="M122.5,11.1l-2.1-2.9h-0.7V11h-1.4V3.6h2.3c1.8,0,2.8,0.9,2.8,2.3c0,0.9-0.6,1.8-1.5,2.1l2,2.8L122.5,11.1z
					 M119.7,7.1h0.9c0.9,0,1.4-0.4,1.4-1.1s-0.8-1-1.4-1h-0.9V7.1z"/>
				<path class="st1" d="M129.3,11.1c-0.9,0-1.7-0.2-2.5-0.6h-0.1l0.2-1.3l0.1,0.1c0.7,0.4,1.5,0.6,2.3,0.6c0.8,0,1.3-0.4,1.3-0.9
					s-0.3-0.8-1.4-1.1c-1.6-0.5-2.3-1-2.3-2.2c0-1.2,1.1-2.2,2.3-2.2c0.1,0,0.1,0,0.2,0c0.7,0,1.5,0.1,2.1,0.4h0.1l-0.2,1.3h-0.1
					c-0.6-0.3-1.2-0.5-1.9-0.5c-0.6,0-1.1,0.3-1.1,0.8s0.3,0.7,1.5,1.1c1.4,0.5,2.2,1,2.2,2.2S130.9,11.1,129.3,11.1"/>
				<rect x="135.6" y="3.6" class="st1" width="1.4" height="7.4"/>
				<polygon class="st1" points="143.5,11 142.1,11 142.1,4.9 139.8,4.9 139.8,3.6 145.7,3.6 145.9,4.9 143.5,4.9 				"/>
				<polygon class="st1" points="151.3,11 149.8,11 149.8,8.1 147.2,3.8 148.6,3.5 150.6,6.8 152.4,3.6 154,3.6 151.3,8.1 				"/>
				<path class="st1" d="M47.3,25.9c-2,0-3.6-1.6-3.6-3.6c0-0.1,0-0.2,0-0.2c-0.1-2,1.3-3.7,3.3-3.8c2-0.1,3.7,1.3,3.8,3.3
					c0,0.2,0,0.4,0,0.5c0.1,2-1.3,3.7-3.3,3.8C47.5,25.9,47.4,25.9,47.3,25.9 M47.3,19.5c-1.3,0-2.1,1-2.1,2.6s0.9,2.6,2.1,2.6
					s2.1-1,2.1-2.6S48.5,19.5,47.3,19.5"/>
				<polygon class="st1" points="55.6,25.8 54.2,25.8 54.2,18.4 58.7,18.4 58.7,19.7 55.6,19.7 55.6,21.4 58,21.4 58.2,22.7 
					55.6,22.7 				"/>
				<path class="st1" d="M69,25.8h-2.4v-7.4h2.4c1.6,0,2.5,0.7,2.5,1.9c0,0.7-0.3,1.3-0.9,1.6c0.8,0.2,1.3,0.9,1.2,1.7
					C71.8,25,70.8,25.8,69,25.8 M67.9,24.6H69c1,0,1.4-0.3,1.4-1s-0.5-1.1-1.4-1.1h-1.1L67.9,24.6z M67.9,21.3h0.9
					c0.8,0,1.2-0.3,1.2-0.9c0-0.3-0.1-0.8-1.2-0.8h-1L67.9,21.3z"/>
				<path class="st1" d="M79.5,25.9L77.4,23h-0.7v2.8h-1.4v-7.4h2.3c1.8,0,2.8,0.9,2.8,2.3c0,1-0.6,1.8-1.5,2.1l2.1,2.8L79.5,25.9z
					 M76.7,21.9h0.9c0.9,0,1.4-0.4,1.4-1.1s-0.8-1.1-1.4-1.1h-0.9V21.9z"/>
				<rect x="84.1" y="18.4" class="st1" width="1.4" height="7.4"/>
				<polygon class="st1" points="92.1,25.8 90.6,25.8 90.6,19.7 88.4,19.7 88.4,18.4 94.3,18.4 94.5,19.7 92.1,19.7 				"/>
				<rect x="97.1" y="18.4" class="st1" width="1.4" height="7.4"/>
				<path class="st1" d="M104.5,25.9c-0.9,0-1.7-0.2-2.5-0.6l0,0l0.2-1.3h0.1c0.7,0.4,1.5,0.6,2.3,0.6c0.8,0,1.3-0.4,1.3-0.9
					s-0.3-0.8-1.4-1.1c-1.5-0.5-2.3-1-2.3-2.2c0-1.2,1.1-2.2,2.3-2.2c0.1,0,0.1,0,0.2,0c0.7,0,1.5,0.1,2.1,0.4h0.1l-0.2,1.3h-0.1
					c-0.6-0.3-1.2-0.5-1.9-0.5c-0.6,0-1.1,0.3-1.1,0.8s0.3,0.7,1.5,1.1c1.4,0.5,2.2,1,2.2,2.2S106.2,25.8,104.5,25.9"/>
				<polygon class="st1" points="116.5,25.8 115,25.8 115,22.6 111.8,22.6 111.8,25.8 110.4,25.8 110.4,18.4 111.8,18.4 111.8,21.3 
					115,21.3 115,18.4 116.5,18.4 				"/>
				<path class="st1" d="M127.6,25.9c-1.9,0-3.5-1.5-3.6-3.4c0-0.1,0-0.3,0-0.4c0-2.3,1.4-3.9,3.6-3.9c0.8,0,1.5,0.2,2.1,0.6l0,0
					l-0.2,1.4l-0.1-0.1c-0.5-0.4-1.1-0.6-1.8-0.6c-1.3,0-2.1,1-2.1,2.6s0.8,2.6,2.2,2.6c0.7,0,1.4-0.2,1.9-0.7l0.1-0.1l0.2,1.3l0,0
					C129.2,25.7,128.4,25.9,127.6,25.9"/>
				<path class="st1" d="M136.1,25.9c-2,0-3.6-1.6-3.6-3.6c0-0.1,0-0.2,0-0.3c-0.1-2,1.3-3.7,3.3-3.8s3.7,1.3,3.8,3.3
					c0,0.2,0,0.4,0,0.5c0.1,2-1.3,3.7-3.3,3.8C136.2,25.9,136.2,25.9,136.1,25.9 M136.1,19.5c-1.3,0-2.1,1-2.1,2.6s0.9,2.6,2.1,2.6
					s2.1-1,2.1-2.6S137.3,19.5,136.1,19.5"/>
				<polygon class="st1" points="147.2,25.8 142.8,25.8 142.8,18.4 144.2,18.4 144.2,24.5 146.9,24.5 				"/>
				<path class="st1" d="M152.7,25.9c-1.5,0.1-2.9-1-3-2.5c0-0.2,0-0.3,0-0.5v-4.5h1.4v4.4c0,1.2,0.6,1.8,1.6,1.8s1.6-0.6,1.6-1.8
					v-4.5h1.4v4.5c0.1,1.6-1,2.9-2.6,3.1C153.1,25.9,152.9,25.9,152.7,25.9"/>
				<polygon class="st1" points="164.4,25.8 163,25.8 161,20.2 160.6,25.8 159.3,25.8 159.9,18.4 161.8,18.4 163.8,24.1 165.7,18.4 
					167.6,18.4 168.2,25.8 166.8,25.8 166.4,20.2 				"/>
				<path class="st1" d="M174.5,25.8h-2.4v-7.4h2.4c1.6,0,2.5,0.7,2.5,1.9c0,0.7-0.3,1.3-0.9,1.6c0.8,0.2,1.3,0.9,1.2,1.7
					C177.3,25,176.3,25.8,174.5,25.8 M173.5,24.6h1.1c1,0,1.4-0.3,1.4-1s-0.5-1.1-1.4-1.1h-1.1V24.6z M173.5,21.3h1
					c0.8,0,1.2-0.3,1.2-0.9c0-0.3-0.1-0.8-1.2-0.8h-1L173.5,21.3z"/>
				<rect x="180.9" y="18.4" class="st1" width="1.4" height="7.4"/>
				<path class="st1" d="M191.1,25.9l-0.7-2h-3.1l-0.7,1.8h-1.4l2.9-7.5h1.5l2.9,7.3L191.1,25.9z M187.7,22.7h2.1
					c-0.1-0.4-0.7-1.8-1.1-2.9L187.7,22.7z"/>
			</g>
		</g>
	</g>
</g>
</svg>
