<?xml version="1.0" encoding="utf-8"?>
<!-- Generator: Adobe Illustrator 24.2.1, SVG Export Plug-In . SVG Version: 6.00 Build 0)  -->
<svg version="1.1" id="Layer_1" xmlns="http://www.w3.org/2000/svg" xmlns:xlink="http://www.w3.org/1999/xlink" x="0px" y="0px"
	 viewBox="0 0 168 48" style="enable-background:new 0 0 168 48;" xml:space="preserve">
<style type="text/css">
	.st0{fill:#B3B3B3;}
</style>
<path class="st0" d="M0,24c0,1.2,0.1,2.4,0.3,3.6c3.2-1.7,6.1-3.9,8.7-6.5c5.7-5.7,9.3-12.9,10.6-20.7C8.5,2.5,0,12.2,0,24z"/>
<path class="st0" d="M24,48c9.8,0,18.3-5.9,22-14.4c-4.4-1.8-9.2-2.8-14.2-2.8c-9.4,0-18.3,3.5-25.1,9.8C11,45.2,17.2,48,24,48z"/>
<path class="st0" d="M47.5,19.1C45.8,11,40,4.3,32.3,1.5C33.7,9.8,39.6,16.6,47.5,19.1z"/>
<path class="st0" d="M28.9,0.5C27.3,0.2,25.7,0,24,0c-0.3,0-0.7,0-1,0c-1.2,8.8-5.2,17-11.6,23.4C8.3,26.5,4.8,29,1,31
	c0.8,2.6,2,5,3.5,7.1c7.5-6.8,17.1-10.5,27.3-10.5c5.3,0,10.5,1,15.3,3c0.6-2.1,0.9-4.3,0.9-6.5c0-0.4,0-0.9,0-1.3
	C37.7,20.1,30,11.2,28.9,0.5z"/>
<path class="st0" d="M167.9,30.6c0-0.2-0.1-0.4-0.2-0.5c-0.1-0.1-0.2-0.3-0.3-0.4c-0.1-0.1-0.3-0.2-0.4-0.3
	c-0.1-0.1-0.3-0.2-0.5-0.2c-0.4-0.1-0.8-0.1-1.1,0c-0.2,0-0.3,0.1-0.5,0.2c-0.1,0.1-0.3,0.2-0.4,0.3c-0.1,0.1-0.3,0.3-0.3,0.4
	c-0.1,0.1-0.2,0.3-0.2,0.5c-0.1,0.2-0.1,0.4-0.1,0.6c0,0.2,0,0.4,0.1,0.6c0,0.2,0.1,0.3,0.2,0.5c0.1,0.1,0.2,0.3,0.3,0.4
	c0.1,0.1,0.3,0.2,0.4,0.3c0.1,0.1,0.3,0.2,0.5,0.2c0.2,0,0.4,0.1,0.6,0.1c0.2,0,0.4,0,0.6-0.1c0.2,0,0.3-0.1,0.5-0.2
	c0.1-0.1,0.3-0.2,0.4-0.3c0.1-0.1,0.2-0.3,0.3-0.4c0.1-0.1,0.2-0.3,0.2-0.5c0-0.2,0.1-0.4,0.1-0.6C168,30.9,167.9,30.7,167.9,30.6z
	 M166.2,30.9c0,0-0.1,0-0.1,0.1c-0.1,0-0.1,0-0.3,0h-0.4v-0.6h0.4c0.1,0,0.2,0,0.2,0c0.1,0,0.1,0,0.1,0c0,0,0.1,0.1,0.1,0.1
	c0,0,0,0.1,0,0.2s0,0.1,0,0.2C166.2,30.8,166.2,30.8,166.2,30.9z M166.4,31.4c0,0,0-0.1-0.1-0.1c0.1-0.1,0.3-0.1,0.4-0.3
	c0.1-0.1,0.2-0.3,0.2-0.5c0-0.3-0.1-0.4-0.3-0.5c-0.2-0.1-0.4-0.1-0.8-0.1H165v2.5h0.4v-1.1h0.3c0,0,0.1,0,0.1,0s0,0,0,0l0.6,0.9
	c0,0.1,0.1,0.1,0.2,0.1h0.4c-0.1,0.2-0.3,0.2-0.5,0.3c-0.3,0.1-0.8,0.2-1.1,0.1c-0.1,0-0.3-0.1-0.4-0.2c-0.1-0.1-0.2-0.2-0.3-0.3
	c-0.1-0.1-0.2-0.2-0.3-0.4c-0.1-0.1-0.1-0.3-0.2-0.4c0-0.1-0.1-0.3-0.1-0.5c0-0.2,0-0.5,0.1-0.7c0.1-0.2,0.2-0.4,0.4-0.6
	c0.1-0.2,0.3-0.3,0.6-0.4c0.2-0.1,0.4-0.1,0.7-0.1c0.2,0,0.3,0,0.5,0.1c0.1,0,0.3,0.1,0.4,0.2c0.1,0.1,0.3,0.2,0.3,0.3
	c0.1,0.1,0.2,0.2,0.3,0.4c0.1,0.1,0.1,0.3,0.2,0.4c0,0.1,0.1,0.3,0.1,0.5c0,0.2,0,0.5-0.1,0.7c-0.1,0.2-0.2,0.4-0.4,0.6c0,0,0,0,0,0
	L166.4,31.4z"/>
<path class="st0" d="M75.3,16.2v7.6c0,1.5-0.1,2.3-0.3,3.3c-0.2,1-0.5,1.4-1.1,1.9c-0.8,0.7-2.5,1.1-5,1.1c-3.6,0-4.9-0.8-5.6-1.9
	c-0.3-0.5-0.5-1.5-0.6-2.6c0-0.5-0.1-1.1-0.1-1.8v-7.6c0-1-0.7-1.8-1.7-1.8H59v9.4c0,1.6,0.1,2.6,0.3,3.9c0.3,1.4,0.7,2.2,1.4,3.1
	c1.4,1.8,4.1,2.8,8.3,2.8c4.5,0,7.3-1.1,8.8-3.5c0.8-1.5,1.2-3.3,1.2-6.2v-9.4H77C76,14.4,75.3,15.2,75.3,16.2z"/>
<path class="st0" d="M106.8,16.2v17.1h1.9c1,0,1.9-0.9,1.9-1.9v-17h-1.9C107.7,14.4,106.8,15.2,106.8,16.2z"/>
<path class="st0" d="M99.2,16.2v12.4C96.7,25.8,87.4,15.4,87,15.1c-0.5-0.4-1.1-0.6-1.7-0.6h-1.2c-1,0-1.9,0.7-1.9,1.8v17.1h1.9
	c1,0,1.8-0.8,1.8-1.9V19.1c2.3,2.6,11.7,13.1,12.1,13.5c0.5,0.5,1.2,0.6,1.7,0.6h1.4c0.9-0.1,1.6-0.8,1.6-1.8v-17H101
	C100,14.4,99.2,15.2,99.2,16.2z"/>
<path class="st0" d="M137.5,28.2v-12c0-1-0.7-1.8-1.7-1.8h-1.9v14.2c0,2.5,2.1,4.6,4.6,4.6h10.6c1,0,1.7-0.8,1.7-1.8v-1.8h-11.6
	C138.3,29.7,137.5,29.1,137.5,28.2z"/>
<path class="st0" d="M114.6,18.9v13.9v0.5h1.8c1,0,1.8-0.9,1.8-1.9v-4.5c0-0.8,0.7-1.5,1.6-1.5h7.3c0.9,0,1.7-0.7,1.7-1.7V22h-9.7
	c-0.3,0-0.7,0.1-0.9,0.1v-2.8c0-0.9,0.7-1.6,1.6-1.6h10c1,0,1.8-0.8,1.8-1.8v-1.6h-12.4C116.6,14.4,114.6,16.3,114.6,18.9z"/>
<path class="st0" d="M165.2,14.4c-1,0-1.7,0.7-1.7,1.8v1.6c0,1.5-0.1,2.3-0.3,3.3c-0.2,1-0.5,1.4-1.1,1.9c-0.8,0.7-2.5,1.1-5,1.1
	c-3.6,0-4.9-0.8-5.6-1.9c-0.3-0.5-0.5-1.5-0.6-2.6c0-0.4,0-2.4,0-3.4c0-1-0.8-1.8-1.8-1.8h-1.9v3.3c0,1.6,0.1,2.6,0.3,3.9
	c0.3,1.4,0.7,2.2,1.4,3.1c1,1.3,2.7,2.2,5.1,2.5c0.7,0.1,1.2,0.8,1.2,1.5v4.4h1.9c1,0,1.8-0.8,1.8-1.8v-3c0-0.3,0-0.6-0.1-0.9
	c3.6-0.3,5.8-1.4,7.1-3.5c0.8-1.5,1.2-3.3,1.2-6.2v-3.3L165.2,14.4L165.2,14.4z"/>
</svg>
