<?xml version="1.0" encoding="utf-8"?>
<!-- Generator: Adobe Illustrator 24.2.1, SVG Export Plug-In . SVG Version: 6.00 Build 0)  -->
<svg version="1.1" id="Layer_1" xmlns="http://www.w3.org/2000/svg" xmlns:xlink="http://www.w3.org/1999/xlink" x="0px" y="0px"
	 viewBox="0 0 1179 591" style="enable-background:new 0 0 1179 591;" xml:space="preserve">
<style type="text/css">
	.st0{fill:#B3B3B3;}
</style>
<g transform="translate(0.000000,591.000000) scale(0.100000,-0.100000)">
	<path class="st0" d="M2440,5900c-8-5-58-10-110-10c-52-1-126-5-165-11c-38-5-88-12-110-16c-22-3-44-9-50-13c-5-4-34-10-63-14
		s-63-11-75-15c-12-5-49-17-82-26c-71-20-109-32-152-51c-17-8-36-14-41-14c-6,0-27-8-49-19c-21-10-92-45-158-77s-121-61-123-66
		c-2-4-8-8-13-8c-11,0-131-74-170-104c-15-12-39-30-55-41c-130-92-354-305-464-441c-64-79-101-135-106-162c-6-32-6-32,34-32
		c23,0,43-4,46-9s32-11,63-15c143-15,252-32,259-39c4-4,27-7,50-7s55-4,69-10c14-5,64-13,111-16c47-4,87-11,90-16c3-4,22-8,42-8
		s69-7,107-15c39-8,91-15,117-15s49-4,52-9s48-12,98-16c51-4,98-11,103-15c6-4,33-11,60-14c117-13,251-33,265-38c8-4,35-9,60-12
		s88-11,140-17s104-15,115-19c22-10,55-14,210-32c55-6,102-15,105-19s28-9,55-13c120-13,251-33,265-38c8-4,35-9,60-12
		c125-15,247-33,260-38c8-4,33-9,55-12c22-2,83-10,135-16s104-15,115-20s43-11,70-15c118-14,241-32,255-37c8-4,38-9,65-12
		c123-15,241-33,255-39c8-3,35-8,60-11c25-2,92-12,150-21s130-20,160-23c30-4-971-9-2225-12l-2280-5l-14-60c-7-33-17-69-21-80
		c-24-63-48-232-61-439c-16-246,15-631,61-751c4-11,16-57,26-102c10-46,22-83,26-83c5,0,8-9,8-19c0-45,168-430,192-439c4-2,8-8,8-14
		c0-21,151-245,229-341c134-165,317-336,486-458c120-87,351-219,383-219c6,0,12-3,12-8c0-9,74-42,95-42c8,0,15-4,15-10
		c0-5,9-10,19-10c11,0,22-4,25-9s22-12,42-16c20-3,45-11,55-16c11-5,27-13,38-18c10-5,39-12,65-16c25-4,46-11,46-15s15-10,33-14
		c17-3,66-12,107-19s82-16,90-20c40-16,279-35,445-35s405,19,445,35c8,4,49,13,90,20s90,16,108,19c18,4,35,10,38,15s14,9,24,9
		c22,0,106,26,132,40c10,6,23,10,29,10s27,7,47,16c21,9,46,19,57,24c29,11,156,69,180,83c11,6,45,24,75,39c59,31,92,50,100,58
		c10,10,45,31,63,36c9,4,17,10,17,14s16,15,35,26c19,10,35,21,35,24s14,14,32,24c32,19,57,38,87,66c10,8,46,40,81,71
		c93,81,156,144,225,224c33,39,63,72,68,73c4,2,7,10,7,17s4,15,8,17c12,5,92,113,92,125c0,20-37,41-85,47c-157,20-242,33-255,38
		c-8,4-37,9-65,12c-121,15-241,33-255,38c-8,4-37,9-65,13c-147,18-242,32-255,37c-8,4-35,9-60,11c-90,11-216,29-250,37
		c-19,5-84,15-145,24c-116,16-124,18-275,42c-52,8-117,17-145,20c-27,3-57,8-65,12c-8,3-60,12-115,19s-125,18-155,23s-100,16-155,25
		c-55,8-127,19-160,25s-103,17-155,24c-52,6-102,15-110,18c-8,4-35,9-60,12c-125,15-247,33-260,38c-8,4-35,9-60,12
		c-125,15-247,33-260,38c-8,4-33,9-55,12c-130,16-242,33-255,38c-8,4-37,9-65,12c-126,15-241,33-255,39c-8,3-33,8-55,10
		s961,5,2185,6c1767,1,2228,4,2242,14c10,8,18,33,21,72c5,71,26,192,37,220c5,11,11,47,14,80c2,33,10,110,17,170
		c17,161-6,614-33,641c-5,4-8,21-8,38s-7,56-15,86s-15,74-15,98c0,23-4,50-8,60c-5,9-24,62-42,117s-46,129-62,165
		c-45,100-136,278-148,290c-10,10-31,45-36,63c-4,9-9,17-13,17s-15,16-25,35c-11,19-23,35-28,35c-4,0-8,6-8,13s-11,24-25,39
		s-25,30-25,34s-11,17-25,30s-25,28-25,34c0,13-304,318-355,356c-22,16-42,31-45,34c-14,15-138,104-157,113c-13,6-23,14-23,19
		c0,4-5,8-10,8c-9,0-48,22-136,77c-20,13-195,99-229,113c-11,4-36,15-57,24c-20,9-41,16-47,16s-20,5-31,10c-49,24-58,28-90,34
		c-19,4-44,11-55,15c-48,19-97,32-145,38c-28,3-53,10-56,14c-3,5-23,9-45,9s-49,5-60,10c-11,6-90,15-177,21c-86,5-188,12-227,15
		C2486,5908,2448,5906,2440,5900z"/>
	<path class="st0" d="M6127,2333c-4-3-7-122-7-264c0-225,2-258,16-263c9-3,194-6,411-6h395l-16-22c-9-13-19-30-23-38s-11-19-15-25
		c-8-9-65-91-203-293c-28-40-54-80-60-89c-5-9-18-26-27-37c-10-11-18-23-18-26c0-4-8-17-17-28c-10-12-52-72-93-133
		c-103-152-227-330-246-354c-9-11-21-30-27-42c-5-13-14-23-19-23c-4,0-8-6-8-14s-3-16-7-18c-5-1-31-37-59-78l-52-76l-7-252l-8-252
		h1025h1025l14,28c7,15,24,41,36,58c13,17,23,34,23,38s8,19,19,34c10,15,56,89,102,164l84,138h267h266l7-62c3-35,8-138,11-231l5-167
		h425h425l-5,133c-3,72-10,321-15,552c-6,231-15,445-21,476c-5,30-10,148-10,262c0,126-4,208-10,212c-5,3-10,40-10,81v74h305h305
		V895V0h410h410v891.7V1790h319.2c234.9,0,322.2,3,331.2,12c18.1,18.1,17.1,512.9-2,528.9c-10,8-419.5,10-1537.6,9l-1514.7-3
		l-131.1-210.2c-73.1-115.1-136.1-215.2-141.2-221.2c-17-21-34-50.1-39-66.1c-4-10-9-18-13-18c-4,0-15-17-26-37c-11-21-22-40-25-43
		s-26-36-50.1-75.1c-40-64.1-71.1-113.1-197.2-307.3c-23-37-43-72.1-43-77.1c0-6-3-11-8-11c-4,0-16-17-27-37c-11-21-22-40-25-43
		c-3-3-32-48.1-65.1-100.1c-33-52.1-62.1-97.1-65.1-100.1c-7-7-29-42-37-60.1c-4-8-9-17-13-20c-7-6-196.2-303.3-225.2-355.4l-20-35
		h-317.3c-278.3,0-317.3,2-312.3,15c4,8,10,15,14,15s10,8,14,18c6,18,27,53.1,37,62.1c3,3,14,21,25,40c10,19,22,37,25,40
		s14,20,24,37c11,18,22,33,26,33s9,8,13,17c6,18,27,54.1,36,63.1c3,3,33,48.1,65.1,100.1c33,52.1,63.1,97.1,67.1,98.1c4,2,8,10,8,18
		s4,14,9,14s13,10,17,23c4,12,10,24,14,27s27,37,51.1,75.1c23,39,46.1,72.1,49.1,75.1c7,7,29,42,37,60.1c4,8,9,17,13,20
		c3,3,33,47.1,66.1,98.1c32,51.1,66.1,104.1,74.1,117.1c8,12,45,71.1,83.1,129.1l67.1,106.1V2074c0,222-2,255-16,260
		C7743,2342,6135,2342,6127,2333z M8966,1233l5-253h-180h-181l18,38c9,20,20,39,23,42s14,21,25,40c10,19,21,37,24,40s14,23,25,45
		s22,42,25,45s14,24,25,47c11,24,23,43,26,43s14,19,25,43c10,23,21,44,24,47c9,9,50,84,73,133l22,47l8-52
		C8958,1509,8964,1371,8966,1233z"/>
</g>
</svg>
