<?xml version="1.0" encoding="utf-8"?>
<!-- Generator: Adobe Illustrator 26.0.2, SVG Export Plug-In . SVG Version: 6.00 Build 0)  -->
<svg version="1.1" id="Vrstva_2_00000101071059933576483610000001445754569489655453_"
	 xmlns="http://www.w3.org/2000/svg" xmlns:xlink="http://www.w3.org/1999/xlink" x="0px" y="0px" viewBox="0 0 343.7 155.1"
	 style="enable-background:new 0 0 343.7 155.1;" xml:space="preserve">
<style type="text/css">
	.st0{opacity:0.2;fill:#E6E6E6;enable-background:new    ;}
	.st1{fill:#E07F00;}
</style>
<rect x="-22" y="-12.6" class="st0" width="389" height="182"/>
<path class="st1" d="M72.8,108.8c0-0.4,0.1-0.8,0.3-1.2c0.6-1.5,2.4-2.2,3.9-1.5c0.7,0.3,1.2,0.8,1.5,1.5c0.2,0.4,0.3,0.8,0.3,1.2
	c0.3,1.6-0.8,3.2-2.5,3.4c-1.6,0.3-3.2-0.8-3.4-2.5C72.7,109.5,72.7,109.2,72.8,108.8 M121.3,43.2c1.7,0,3,1.3,3,3
	c0,0.4-0.1,0.8-0.3,1.2c-0.7,1.5-2.5,2.2-4,1.5c-1.5-0.7-2.2-2.5-1.5-4C119.1,43.9,120.2,43.2,121.3,43.2 M78.4,100.8V87.6
	l43.8-14.9c1.1-0.4,1.8-1.4,1.8-2.6V54.3c4.4-1.5,6.7-6.2,5.2-10.6c-1.5-4.4-6.2-6.7-10.6-5.2s-6.7,6.2-5.2,10.6
	c0.8,2.5,2.8,4.4,5.2,5.2v13.9L74.9,83.1c-1.1,0.4-1.9,1.4-1.9,2.6v15.1c-4.4,1.5-6.7,6.2-5.2,10.6c1.5,4.4,6.2,6.7,10.6,5.2
	c4.4-1.5,6.7-6.2,5.2-10.6C82.8,103.6,80.9,101.7,78.4,100.8"/>
<path class="st1" d="M78.7,46.2c0,0.4-0.1,0.8-0.3,1.2c-0.6,1.5-2.4,2.2-3.9,1.5c-0.7-0.3-1.2-0.8-1.5-1.5c-0.2-0.4-0.3-0.8-0.3-1.2
	c-0.3-1.6,0.8-3.2,2.5-3.4c1.6-0.3,3.2,0.8,3.4,2.5C78.7,45.6,78.7,45.9,78.7,46.2 M98.5,58.3c1.7,0,3,1.3,3,3s-1.3,3-3,3h-0.3
	c-1.6-0.2-2.8-1.6-2.7-3.3c0.1-0.7,0.4-1.4,1-1.9C97.1,58.6,97.8,58.3,98.5,58.3 M73,54.3v14.8c0,0.9,0.4,1.7,1.1,2.2
	c0.5,0.3,1,0.5,1.6,0.5c0.3,0,0.6,0,0.9-0.1l15.3-5.2c1.6,2.1,4,3.3,6.6,3.3c4.7,0.1,8.6-3.7,8.6-8.3c0.1-4.7-3.7-8.6-8.3-8.6
	c-4.7-0.1-8.6,3.7-8.6,8.3c0,0,0,0.1,0,0.1l-11.7,4v-11c4.4-1.5,6.7-6.2,5.2-10.6c-1.5-4.4-6.2-6.7-10.6-5.2s-6.7,6.2-5.2,10.6
	C68.7,51.5,70.6,53.4,73,54.3"/>
<path class="st1" d="M118.4,108.8c0-0.4,0.1-0.8,0.3-1.2c0.6-1.5,2.4-2.2,3.9-1.5c0.7,0.3,1.2,0.8,1.5,1.5c0.2,0.4,0.3,0.8,0.3,1.2
	c0.3,1.6-0.8,3.2-2.5,3.4c-1.6,0.3-3.2-0.8-3.4-2.5C118.3,109.5,118.3,109.2,118.4,108.8 M98.5,97.5c-1.7,0-3-1.3-3-3s1.3-3,3-3h0.3
	c1.5,0.2,2.7,1.5,2.7,3c0,0.8-0.4,1.6-1,2.2C99.9,97.3,99.2,97.5,98.5,97.5 M124,100.8v-14c0-0.9-0.4-1.7-1.1-2.2
	c-0.7-0.5-1.6-0.7-2.4-0.4l-15.3,5.2c-1.5-2.1-4-3.4-6.6-3.4c-4.7-0.1-8.6,3.7-8.6,8.3c-0.1,4.7,3.7,8.6,8.3,8.6
	c4.7,0.1,8.6-3.7,8.6-8.3c0,0,0-0.1,0-0.1l11.7-4v10.2c-4.4,1.5-6.7,6.2-5.2,10.6c1.5,4.4,6.2,6.7,10.6,5.2
	c4.4-1.5,6.7-6.2,5.2-10.6C128.4,103.5,126.5,101.6,124,100.8"/>
<path class="st1" d="M155.3,54.5c0.3,0.3,0.5,0.7,0.4,1.1c0,0.4-0.2,0.8-0.4,1.1c-0.4,0.3-0.8,0.4-1.3,0.4h-6.6v4.8h4.7
	c0.5,0,0.9,0.1,1.3,0.4c0.3,0.3,0.5,0.7,0.4,1.1c0,0.4-0.1,0.8-0.4,1.1c-0.4,0.3-0.8,0.5-1.3,0.4h-4.7v6.4c0,0.4-0.2,0.7-0.5,0.9
	c-0.4,0.3-0.8,0.4-1.3,0.4c-0.5,0-1-0.1-1.4-0.4c-0.3-0.2-0.5-0.6-0.5-0.9V55.4c0-0.4,0.2-0.7,0.5-0.9c0.4-0.3,0.9-0.4,1.4-0.4h8.4
	C154.5,54,155,54.2,155.3,54.5z"/>
<path class="st1" d="M175.5,70.8c0.1,0.3,0,0.7-0.2,1c-0.3,0.4-0.7,0.6-1.2,0.7c-0.5,0.1-0.9,0.1-1.4-0.1c-0.4-0.1-0.6-0.4-0.8-0.8
	l-1.1-3.3h-6.8l-1.1,3.4c-0.2,0.3-0.4,0.6-0.8,0.8c-0.4,0.2-0.9,0.2-1.4,0.1c-0.5-0.1-0.9-0.3-1.2-0.7c-0.2-0.3-0.3-0.7-0.2-1
	l6-15.9c0.1-0.4,0.4-0.6,0.7-0.8c0.8-0.5,1.8-0.5,2.6,0c0.3,0.2,0.6,0.5,0.7,0.8L175.5,70.8z M165.1,65.5h4.8l-2.4-7.1L165.1,65.5z"
	/>
<path class="st1" d="M180.9,60.7c0-0.9,0.1-1.8,0.5-2.7c0.3-0.8,0.8-1.6,1.4-2.2c0.7-0.7,1.4-1.2,2.3-1.5c1-0.4,2.1-0.6,3.1-0.6
	c0.8,0,1.5,0.1,2.2,0.3c0.6,0.1,1.2,0.4,1.8,0.7c0.5,0.3,0.9,0.6,1.2,1c0.3,0.3,0.4,0.7,0.4,1.1c0,0.3-0.1,0.7-0.4,0.9
	c-0.2,0.2-0.6,0.3-0.9,0.3c-0.3,0-0.6,0-0.9-0.1c-0.3-0.1-0.6-0.3-0.9-0.5c-0.3-0.2-0.7-0.4-1.1-0.5c-0.5-0.2-1-0.2-1.5-0.2
	c-0.9,0-1.8,0.3-2.6,0.9c-0.8,0.7-1.2,1.8-1.1,2.8V66c-0.1,1.1,0.3,2.1,1.1,2.8c0.7,0.6,1.6,0.9,2.6,0.9c0.5,0,1,0,1.4-0.1
	c0.3-0.1,0.7-0.2,1-0.4l0.6-0.3c0.1-0.1,0.3-0.1,0.4-0.2c0.1,0,0.3-0.1,0.4-0.1c0.2,0,0.3,0,0.5,0c0.6-0.1,1.1,0.4,1.2,1
	c0,0.1,0,0.1,0,0.2c0,0.4-0.2,0.8-0.4,1.1c-0.3,0.4-0.7,0.8-1.2,1c-0.6,0.3-1.2,0.5-1.8,0.7c-0.7,0.2-1.5,0.3-2.2,0.3
	c-1.1,0-2.1-0.2-3.1-0.6c-0.9-0.3-1.6-0.8-2.3-1.5c-0.6-0.6-1.1-1.4-1.4-2.2c-0.3-0.9-0.5-1.8-0.5-2.7L180.9,60.7z"/>
<path class="st1" d="M211.4,54c0.5,0,1,0.1,1.4,0.4c0.3,0.3,0.5,0.7,0.4,1.1c0,0.4-0.2,0.8-0.4,1.1c-0.4,0.3-0.9,0.4-1.4,0.4h-4.1
	v14.2c0,0.4-0.2,0.7-0.5,0.9c-0.4,0.3-0.8,0.4-1.3,0.4c-0.5,0-1-0.1-1.4-0.4c-0.3-0.2-0.5-0.6-0.5-0.9V57.1H200
	c-0.5,0-0.9-0.1-1.3-0.4c-0.3-0.3-0.5-0.7-0.5-1.1c0-0.4,0.2-0.8,0.5-1.1c0.4-0.3,0.8-0.4,1.3-0.4H211.4z"/>
<path class="st1" d="M218.7,61.2c0-1,0.2-2,0.5-2.9c0.3-0.9,0.8-1.7,1.4-2.4c0.7-0.7,1.5-1.2,2.4-1.6c1.1-0.4,2.3-0.6,3.5-0.6
	c1.2,0,2.4,0.2,3.5,0.6c0.9,0.3,1.8,0.9,2.4,1.6c0.7,0.7,1.1,1.5,1.4,2.4c0.3,0.9,0.5,1.9,0.5,2.9v4c0,1-0.2,2-0.5,2.9
	c-0.3,0.9-0.8,1.7-1.4,2.4c-0.7,0.7-1.5,1.2-2.5,1.6c-1.1,0.4-2.3,0.6-3.5,0.6c-1.2,0-2.4-0.2-3.5-0.6c-0.9-0.3-1.7-0.9-2.4-1.6
	c-0.7-0.7-1.1-1.5-1.4-2.4c-0.3-0.9-0.5-1.9-0.5-2.9L218.7,61.2z M222.2,65.2c-0.1,1.2,0.3,2.5,1.1,3.3c1.9,1.3,4.4,1.3,6.2,0
	c0.8-0.9,1.2-2.1,1.1-3.3v-4c0.1-1.2-0.3-2.4-1.1-3.3c-1.9-1.3-4.4-1.3-6.2,0c-0.9,0.9-1.3,2.1-1.1,3.3V65.2z"/>
<path class="st1" d="M241.8,55.4c0-0.4,0.2-0.7,0.5-0.9c0.4-0.3,0.9-0.4,1.4-0.4h4.4c1.2,0,2.4,0.1,3.5,0.4c0.9,0.2,1.7,0.6,2.3,1.1
	c0.6,0.5,1,1.1,1.3,1.7c0.3,0.7,0.4,1.5,0.4,2.3v0.2c0,0.9-0.2,1.8-0.7,2.5c-0.7,0.8-1.6,1.4-2.6,1.7l3.4,6.5c0.2,0.3,0.3,0.7,0.1,1
	c-0.2,0.4-0.6,0.8-1,1c-0.4,0.2-0.9,0.3-1.3,0.2c-0.4-0.1-0.7-0.3-0.9-0.6l-3.5-6.9c-0.2,0-0.4,0-0.5,0h-3.2v6.2
	c0,0.4-0.2,0.7-0.5,0.9c-0.4,0.3-0.8,0.4-1.3,0.4c-0.5,0-1-0.1-1.4-0.5c-0.3-0.2-0.5-0.6-0.5-1L241.8,55.4z M245.4,56.9v5.5h2.6
	c1,0.1,2.1-0.1,3-0.7c0.6-0.4,0.9-1,0.9-1.7v-0.5c0-0.8-0.3-1.5-0.9-1.9c-0.9-0.5-2-0.8-3-0.7H245.4z"/>
<path class="st1" d="M266.6,65.5l-5.6-9.5c-0.2-0.3-0.3-0.7-0.2-1c0.1-0.4,0.4-0.8,0.8-1c0.4-0.3,0.9-0.4,1.4-0.3
	c0.4,0,0.7,0.2,1,0.5l4.5,8.1l4.5-8.1c0.3-0.3,0.6-0.5,1-0.5c0.5-0.1,1,0,1.4,0.3c0.4,0.2,0.7,0.6,0.8,1c0.1,0.3,0,0.7-0.2,1
	l-5.8,9.8v5.4c0,0.4-0.2,0.7-0.5,0.9c-0.4,0.3-0.8,0.4-1.3,0.4c-0.5,0-1-0.1-1.4-0.4c-0.3-0.2-0.5-0.6-0.5-0.9L266.6,65.5z"/>
<path class="st1" d="M143.7,84c0-0.4,0.2-0.7,0.5-0.9c0.4-0.3,0.9-0.4,1.4-0.4h4.4c1.2,0,2.4,0.1,3.5,0.4c0.9,0.2,1.6,0.6,2.3,1.1
	c0.6,0.5,1,1.1,1.3,1.8c0.3,0.7,0.4,1.5,0.4,2.3v0.2c0,0.9-0.2,1.8-0.7,2.5c-0.7,0.8-1.6,1.4-2.6,1.7l3.4,6.5c0.2,0.3,0.3,0.7,0.1,1
	c-0.2,0.4-0.6,0.8-1,1c-0.4,0.2-0.9,0.3-1.3,0.2c-0.4-0.1-0.7-0.3-0.9-0.6l-3.5-6.9c-0.2,0-0.4,0-0.5,0h-3.2v6.2
	c0,0.4-0.2,0.7-0.5,0.9c-0.4,0.3-0.8,0.4-1.3,0.4c-0.5,0-1-0.1-1.4-0.5c-0.3-0.2-0.5-0.6-0.5-1L143.7,84z M147.3,85.5V91h2.6
	c1,0.1,2.1-0.1,3-0.7c0.6-0.4,0.9-1,0.9-1.7v-0.5c0-0.8-0.3-1.5-0.9-1.9c-0.9-0.5-2-0.8-3-0.7L147.3,85.5z"/>
<path class="st1" d="M176.3,83.1c0.3,0.3,0.5,0.7,0.4,1.1c0,0.4-0.2,0.8-0.4,1.1c-0.4,0.3-0.8,0.4-1.3,0.4H168v4.5h4.6
	c0.5,0,1,0.1,1.4,0.4c0.3,0.3,0.5,0.7,0.4,1.1c0,0.4-0.1,0.8-0.4,1.1c-0.4,0.3-0.9,0.5-1.4,0.4H168V98h6.9c0.5,0,0.9,0.1,1.3,0.4
	c0.3,0.3,0.5,0.7,0.4,1.1c0,0.4-0.2,0.8-0.4,1.1c-0.4,0.3-0.8,0.5-1.3,0.4h-8.7c-0.5,0-1-0.1-1.4-0.4c-0.3-0.2-0.5-0.6-0.5-0.9V84
	c0-0.4,0.2-0.7,0.5-0.9c0.4-0.3,0.9-0.4,1.4-0.4h8.7C175.4,82.6,175.9,82.8,176.3,83.1z"/>
<path class="st1" d="M183.5,84c0-0.4,0.2-0.7,0.5-0.9c0.4-0.3,0.9-0.4,1.4-0.4h4.1c1.1,0,2.3,0.1,3.4,0.5c0.9,0.3,1.7,0.7,2.4,1.3
	c0.6,0.5,1.1,1.2,1.4,1.9c0.3,0.7,0.4,1.5,0.4,2.3V89c0,0.7-0.1,1.4-0.4,2.1c-0.3,0.7-0.7,1.3-1.3,1.8c-0.7,0.6-1.5,1-2.3,1.2
	c-1.1,0.3-2.3,0.5-3.5,0.5h-2.3v5.4c0,0.4-0.2,0.7-0.5,0.9c-0.4,0.3-0.8,0.4-1.3,0.4c-0.5,0-1-0.2-1.4-0.5c-0.3-0.2-0.5-0.6-0.5-1
	L183.5,84z M187.2,85.5v6.3h2.3c0.6,0,1.2-0.1,1.8-0.2c0.4-0.1,0.9-0.3,1.2-0.6c0.3-0.2,0.6-0.5,0.7-0.9c0.2-0.3,0.2-0.7,0.2-1v-0.7
	c0-0.8-0.3-1.6-0.9-2.1c-0.9-0.6-1.9-0.9-3-0.8L187.2,85.5z"/>
<path class="st1" d="M203.7,89.9c0-1,0.2-2,0.5-2.9c0.3-0.9,0.8-1.7,1.4-2.4c0.7-0.7,1.5-1.2,2.4-1.6c1.1-0.4,2.3-0.6,3.5-0.6
	c1.2,0,2.4,0.2,3.5,0.6c0.9,0.3,1.8,0.9,2.4,1.6c0.6,0.7,1.1,1.5,1.4,2.4c0.3,0.9,0.5,1.9,0.5,2.9v4c0,1-0.2,2-0.5,2.9
	c-0.3,0.9-0.8,1.7-1.4,2.4c-0.7,0.7-1.5,1.2-2.4,1.6c-1.1,0.4-2.3,0.6-3.5,0.6c-1.2,0-2.4-0.2-3.5-0.6c-0.9-0.3-1.7-0.9-2.4-1.6
	c-0.6-0.7-1.1-1.5-1.4-2.4c-0.3-0.9-0.5-1.9-0.5-2.9L203.7,89.9z M207.2,93.9c-0.1,1.2,0.3,2.4,1.1,3.3c1.9,1.3,4.4,1.3,6.2,0
	c0.8-0.9,1.2-2.1,1.1-3.3v-4c0.1-1.2-0.3-2.4-1.1-3.3c-1.9-1.3-4.4-1.3-6.2,0c-0.9,0.9-1.3,2.1-1.1,3.3V93.9z"/>
<path class="st1" d="M226.8,84c0-0.4,0.2-0.7,0.5-0.9c0.4-0.3,0.9-0.4,1.4-0.4h4.4c1.2,0,2.4,0.1,3.5,0.4c0.9,0.2,1.6,0.6,2.3,1.1
	c0.6,0.5,1,1.1,1.3,1.8c0.3,0.7,0.4,1.5,0.4,2.3v0.2c0,0.9-0.2,1.8-0.7,2.5c-0.7,0.8-1.6,1.4-2.6,1.7l3.4,6.5c0.2,0.3,0.3,0.7,0.1,1
	c-0.2,0.4-0.6,0.8-1,1c-0.4,0.2-0.9,0.3-1.3,0.2c-0.4-0.1-0.7-0.3-0.9-0.6l-3.5-6.9c-0.2,0-0.4,0-0.5,0h-3.2v6.2
	c0,0.4-0.2,0.7-0.5,0.9c-0.8,0.5-1.9,0.5-2.6-0.1c-0.3-0.2-0.5-0.6-0.5-1L226.8,84z M230.4,85.5V91h2.6c1,0.1,2.1-0.1,3-0.7
	c0.6-0.4,0.9-1,0.9-1.7v-0.5c0-0.8-0.3-1.5-0.9-1.9c-0.9-0.5-2-0.8-3-0.7L230.4,85.5z"/>
<path class="st1" d="M258.6,82.7c0.5,0,1,0.1,1.4,0.4c0.3,0.3,0.5,0.7,0.5,1.1c0,0.4-0.2,0.8-0.5,1.1c-0.4,0.3-0.9,0.5-1.4,0.4h-4.1
	V100c0,0.4-0.2,0.7-0.5,0.9c-0.4,0.3-0.8,0.4-1.3,0.4c-0.5,0-1-0.1-1.4-0.4c-0.3-0.2-0.5-0.6-0.5-0.9V85.7h-3.7
	c-0.5,0-0.9-0.1-1.3-0.4c-0.3-0.3-0.5-0.7-0.5-1.1c0-0.4,0.2-0.8,0.5-1.1c0.4-0.3,0.8-0.4,1.3-0.4H258.6z"/>
</svg>
