<?xml version="1.0" encoding="utf-8"?>
<!-- Generator: Adobe Illustrator 26.0.2, SVG Export Plug-In . SVG Version: 6.00 Build 0)  -->
<svg version="1.1" id="Vrstva_2_00000144298548202294383370000018415658866615739804_"
	 xmlns="http://www.w3.org/2000/svg" xmlns:xlink="http://www.w3.org/1999/xlink" x="0px" y="0px" viewBox="0 0 343.7 155.1"
	 style="enable-background:new 0 0 343.7 155.1;" xml:space="preserve">
<style type="text/css">
	.st0{opacity:0.2;fill:#E6E6E6;enable-background:new    ;}
	.st1{fill:#2B7036;}
</style>
<rect x="-22" y="-12.6" class="st0" width="389" height="182"/>
<path class="st1" d="M62.1,108.8c0-0.4,0.1-0.8,0.3-1.2c0.6-1.5,2.4-2.2,3.8-1.5c0.7,0.3,1.2,0.9,1.5,1.5c0.2,0.4,0.3,0.8,0.3,1.2
	c0.3,1.6-0.8,3.2-2.4,3.5c-1.6,0.3-3.2-0.8-3.5-2.4C62,109.5,62,109.2,62.1,108.8 M110.6,43.2c1.7,0,3,1.3,3,3s-1.3,3-3,3
	c-1.2,0-2.2-0.7-2.7-1.8c-0.2-0.4-0.3-0.8-0.3-1.2C107.7,44.6,109,43.2,110.6,43.2 M67.7,100.8V87.6l43.8-14.9
	c1.1-0.4,1.8-1.4,1.8-2.6V54.3c4.4-1.5,6.7-6.2,5.2-10.6c-1.5-4.4-6.2-6.7-10.6-5.2s-6.7,6.2-5.2,10.6c0.8,2.4,2.8,4.4,5.2,5.2v13.9
	L64.2,83.1c-1.1,0.4-1.8,1.4-1.8,2.6v15.1c-4.4,1.5-6.7,6.2-5.2,10.6s6.2,6.7,10.6,5.2c4.4-1.5,6.7-6.2,5.2-10.6
	C72.1,103.6,70.2,101.7,67.7,100.8"/>
<path class="st1" d="M68,46.2c0,1.7-1.3,3-3,3s-3-1.3-3-3s1.3-3,3-3c1.6,0,3,1.3,3,2.9C68,46.2,68,46.2,68,46.2 M87.8,58.3
	c1.7,0,3,1.3,3,3s-1.3,3-3,3h-0.3c-1.6-0.2-2.8-1.6-2.7-3.3c0.1-0.7,0.4-1.4,1-1.9C86.4,58.6,87.1,58.3,87.8,58.3 M62.3,54.3v14.7
	c0,0.9,0.4,1.7,1.1,2.2c0.5,0.3,1,0.5,1.6,0.5c0.3,0,0.6,0,0.8-0.1l15.3-5.2c1.6,2.1,4,3.3,6.6,3.3c4.7,0.1,8.5-3.7,8.6-8.4
	c0.1-4.7-3.7-8.5-8.4-8.6c-4.7-0.1-8.5,3.7-8.6,8.4c0,0,0,0.1,0,0.1l-11.7,4v-11c4.4-1.5,6.7-6.2,5.2-10.6
	c-1.5-4.4-6.2-6.7-10.6-5.2s-6.7,6.2-5.2,10.6C57.9,51.5,59.9,53.4,62.3,54.3"/>
<path class="st1" d="M107.7,108.8c0-0.4,0.1-0.8,0.3-1.2c0.6-1.5,2.4-2.2,3.8-1.5c0.7,0.3,1.2,0.9,1.5,1.5c0.2,0.4,0.3,0.8,0.3,1.2
	c0.3,1.6-0.8,3.2-2.4,3.5c-1.6,0.3-3.2-0.8-3.5-2.4C107.6,109.5,107.6,109.2,107.7,108.8 M87.8,97.5c-1.7,0-3-1.3-3-3s1.3-3,3-3h0.3
	c1.5,0.2,2.7,1.5,2.7,3c0,0.8-0.4,1.6-1,2.2C89.2,97.2,88.5,97.5,87.8,97.5 M113.3,100.8v-14c0-0.9-0.4-1.7-1.1-2.2
	c-0.7-0.5-1.6-0.7-2.4-0.4l-15.3,5.2c-1.5-2.1-4-3.4-6.6-3.4c-4.7-0.1-8.6,3.7-8.6,8.3c-0.1,4.7,3.7,8.6,8.3,8.6
	c4.7,0.1,8.6-3.7,8.6-8.3c0,0,0-0.1,0-0.1l11.8-4v10.2c-4.4,1.5-6.7,6.2-5.2,10.6c1.5,4.4,6.2,6.7,10.6,5.2
	c4.4-1.5,6.7-6.2,5.2-10.6C117.7,103.5,115.8,101.6,113.3,100.8"/>
<path class="st1" d="M144.6,54.5c0.3,0.3,0.5,0.7,0.4,1.1c0,0.4-0.2,0.8-0.4,1.1c-0.4,0.3-0.8,0.4-1.3,0.4h-6.6v4.8h4.7
	c0.5,0,0.9,0.1,1.3,0.4c0.3,0.3,0.5,0.7,0.4,1.1c0,0.4-0.1,0.8-0.4,1.1c-0.4,0.3-0.8,0.5-1.3,0.4h-4.7v6.4c0,0.4-0.2,0.7-0.5,0.9
	c-0.4,0.3-0.8,0.4-1.3,0.4c-0.5,0-1-0.1-1.4-0.4c-0.3-0.2-0.5-0.6-0.5-0.9V55.4c0-0.4,0.2-0.7,0.5-0.9c0.4-0.3,0.9-0.4,1.4-0.4h8.4
	C143.8,54,144.3,54.2,144.6,54.5z"/>
<path class="st1" d="M150.5,61.2c0-1,0.2-2,0.5-2.9c0.3-0.9,0.8-1.7,1.4-2.4c0.7-0.7,1.5-1.2,2.4-1.6c1.1-0.4,2.3-0.6,3.5-0.6
	c1.2,0,2.4,0.2,3.5,0.6c0.9,0.3,1.8,0.9,2.4,1.6c0.7,0.7,1.1,1.5,1.4,2.4c0.3,0.9,0.5,1.9,0.5,2.9v4c0,1-0.2,2-0.5,2.9
	c-0.3,0.9-0.8,1.7-1.4,2.4c-0.7,0.7-1.5,1.2-2.4,1.6c-1.1,0.4-2.3,0.6-3.5,0.6c-1.2,0-2.4-0.2-3.5-0.6c-0.9-0.3-1.7-0.9-2.4-1.6
	c-0.6-0.7-1.1-1.5-1.4-2.3c-0.3-0.9-0.5-1.9-0.5-2.9L150.5,61.2z M154.1,65.2c-0.1,1.2,0.3,2.4,1.1,3.3c1.9,1.3,4.4,1.3,6.2,0
	c0.8-0.9,1.2-2.1,1.1-3.3v-4c0.1-1.2-0.3-2.4-1.1-3.3c-1.9-1.3-4.4-1.3-6.2,0c-0.9,0.9-1.3,2.1-1.1,3.3V65.2z"/>
<path class="st1" d="M173.6,55.4c0-0.4,0.2-0.7,0.5-0.9c0.4-0.3,0.9-0.4,1.4-0.4h4.4c1.2,0,2.4,0.1,3.5,0.4c0.9,0.2,1.7,0.6,2.3,1.1
	c0.6,0.5,1,1.1,1.2,1.7c0.3,0.7,0.4,1.5,0.4,2.3v0.2c0,0.9-0.2,1.8-0.7,2.5c-0.6,0.8-1.5,1.4-2.5,1.7l3.4,6.5c0.2,0.3,0.3,0.7,0.1,1
	c-0.2,0.4-0.6,0.8-1,1c-0.4,0.2-0.9,0.3-1.3,0.2c-0.4-0.1-0.7-0.3-0.9-0.6l-3.4-6.9c-0.2,0-0.4,0-0.5,0h-3.2v6.2
	c0,0.4-0.2,0.7-0.5,0.9c-0.4,0.3-0.8,0.4-1.3,0.4c-0.5,0-1-0.1-1.4-0.5c-0.3-0.2-0.5-0.6-0.5-1L173.6,55.4z M177.3,56.9v5.5h2.6
	c1,0.1,2.1-0.1,3-0.7c0.6-0.4,0.9-1,0.9-1.7v-0.5c0-0.8-0.3-1.5-0.9-1.9c-0.9-0.5-2-0.8-3-0.7H177.3z"/>
<path class="st1" d="M206.2,54.5c0.3,0.3,0.5,0.7,0.4,1.1c0,0.4-0.2,0.8-0.4,1.1c-0.4,0.3-0.8,0.4-1.3,0.4h-6.9v4.5h4.7
	c0.5,0,1,0.1,1.4,0.4c0.3,0.3,0.5,0.7,0.4,1.1c0,0.4-0.2,0.8-0.4,1.1c-0.4,0.3-0.9,0.5-1.4,0.4h-4.7v4.7h6.9c0.5,0,0.9,0.1,1.3,0.4
	c0.3,0.3,0.5,0.7,0.4,1.1c0,0.4-0.1,0.8-0.4,1.1c-0.4,0.3-0.8,0.5-1.3,0.4h-8.7c-0.5,0-1-0.1-1.4-0.4c-0.3-0.2-0.5-0.6-0.5-0.9V55.4
	c0-0.4,0.2-0.7,0.5-0.9c0.4-0.3,0.9-0.4,1.4-0.4h8.7C205.4,54,205.8,54.2,206.2,54.5z"/>
<path class="st1" d="M219.5,72.7c-0.4,0-0.8,0-1.1-0.1c-0.5-0.1-1-0.2-1.4-0.3c-0.5-0.1-1-0.3-1.5-0.5c-0.5-0.2-0.9-0.4-1.3-0.7
	c-0.4-0.2-0.7-0.5-1-0.9c-0.2-0.3-0.4-0.7-0.4-1.1c0-0.9,0.5-1.3,1.6-1.3c0.3,0,0.6,0.1,0.9,0.3c0.3,0.2,0.5,0.3,0.8,0.5
	c0.4,0.4,0.9,0.6,1.5,0.8c0.6,0.2,1.3,0.4,2,0.4c0.7,0,1.4-0.1,2-0.5c0.5-0.4,0.8-1,0.7-1.6c0-0.6-0.2-1.1-0.7-1.5
	c-0.5-0.4-1.1-0.8-1.7-1c-0.7-0.3-1.4-0.6-2.2-0.9c-0.8-0.3-1.5-0.6-2.2-1.1c-0.7-0.4-1.2-1-1.7-1.6c-0.5-0.7-0.7-1.6-0.7-2.5
	c0-0.7,0.2-1.5,0.5-2.2c0.3-0.6,0.7-1.2,1.2-1.7c0.6-0.5,1.3-0.9,2-1.1c0.9-0.3,1.8-0.4,2.7-0.4c0.9,0,1.8,0.1,2.7,0.4
	c0.7,0.2,1.3,0.5,1.9,0.9c0.5,0.3,0.9,0.6,1.2,1.1c0.2,0.3,0.4,0.6,0.4,0.9c0,0.4-0.1,0.8-0.4,1.1c-0.3,0.3-0.8,0.5-1.2,0.4
	c-0.3,0-0.6-0.1-0.9-0.2c-0.3-0.1-0.5-0.3-0.7-0.5c-0.4-0.3-0.7-0.5-1.1-0.7c-0.7-0.3-1.4-0.4-2.1-0.4c-0.7,0-1.3,0.2-1.8,0.6
	c-0.5,0.4-0.8,1-0.7,1.6c0,0.6,0.2,1.1,0.7,1.5c0.5,0.4,1.1,0.7,1.7,1c0.7,0.3,1.4,0.6,2.2,0.9c0.8,0.3,1.5,0.6,2.2,1.1
	c0.7,0.4,1.2,0.9,1.7,1.6c0.5,0.8,0.7,1.6,0.7,2.5c0.1,1.5-0.6,2.9-1.7,3.8C222.8,72.3,221.2,72.8,219.5,72.7z"/>
<path class="st1" d="M244.8,54c0.5,0,1,0.1,1.4,0.4c0.3,0.3,0.5,0.7,0.4,1.1c0,0.4-0.2,0.8-0.4,1.1c-0.4,0.3-0.9,0.4-1.4,0.4h-4.1
	v14.2c0,0.4-0.2,0.7-0.5,0.9c-0.4,0.3-0.8,0.4-1.3,0.4c-0.5,0-1-0.1-1.4-0.4c-0.3-0.2-0.5-0.6-0.5-0.9V57.1h-3.7
	c-0.5,0-0.9-0.1-1.3-0.4c-0.3-0.3-0.5-0.7-0.5-1.1c0-0.4,0.2-0.9,0.5-1.1c0.4-0.3,0.8-0.4,1.3-0.4H244.8z"/>
<path class="st1" d="M252.5,55.4c0-0.4,0.2-0.7,0.5-0.9c0.4-0.3,0.9-0.4,1.4-0.4h4.4c1.2,0,2.4,0.1,3.5,0.4c0.9,0.2,1.7,0.6,2.4,1.1
	c0.6,0.5,1,1.1,1.3,1.7c0.3,0.7,0.4,1.5,0.4,2.3v0.2c0,0.9-0.2,1.8-0.7,2.5c-0.7,0.8-1.5,1.4-2.5,1.7l3.4,6.5c0.2,0.3,0.3,0.7,0.1,1
	c-0.2,0.4-0.6,0.8-1,1c-0.4,0.2-0.9,0.3-1.3,0.2c-0.4-0.1-0.7-0.3-0.9-0.6l-3.5-6.9c-0.2,0-0.4,0-0.5,0h-3.2v6.2
	c0,0.4-0.2,0.7-0.5,0.9c-0.4,0.3-0.8,0.4-1.3,0.4c-0.5,0-1-0.1-1.4-0.5c-0.3-0.2-0.5-0.6-0.5-1L252.5,55.4z M256.1,56.9v5.5h2.6
	c1,0.1,2.1-0.1,3-0.7c0.6-0.4,0.9-1,0.9-1.7v-0.5c0-0.8-0.3-1.5-0.9-1.9c-0.9-0.5-2-0.8-3-0.7H256.1z"/>
<path class="st1" d="M277.4,65.5l-5.6-9.5c-0.2-0.3-0.3-0.7-0.2-1c0.1-0.4,0.4-0.8,0.8-1c0.4-0.3,0.9-0.4,1.4-0.3
	c0.4,0,0.7,0.2,1,0.5l4.5,8.1l4.5-8.1c0.3-0.3,0.6-0.5,1-0.5c0.5-0.1,1,0,1.4,0.3c0.4,0.2,0.7,0.6,0.8,1c0.1,0.3,0,0.7-0.2,1
	l-5.7,9.8v5.4c0,0.4-0.2,0.7-0.5,0.9c-0.4,0.3-0.8,0.4-1.2,0.4c-0.5,0-1-0.1-1.4-0.4c-0.3-0.2-0.5-0.6-0.5-0.9L277.4,65.5z"/>
<path class="st1" d="M133,84c0-0.4,0.2-0.7,0.5-0.9c0.4-0.3,0.9-0.4,1.4-0.4h4.4c1.2,0,2.4,0.1,3.5,0.4c0.9,0.2,1.7,0.6,2.4,1.1
	c0.6,0.5,1,1.1,1.3,1.8c0.3,0.7,0.4,1.5,0.4,2.3v0.2c0,0.9-0.2,1.8-0.7,2.5c-0.7,0.8-1.6,1.4-2.6,1.7l3.4,6.5c0.2,0.3,0.3,0.7,0.1,1
	c-0.2,0.4-0.6,0.8-1,1c-0.4,0.2-0.9,0.3-1.3,0.2c-0.4-0.1-0.7-0.3-0.9-0.6l-3.5-6.9c-0.2,0-0.3,0-0.5,0h-3.2v6.2
	c0,0.4-0.2,0.7-0.5,0.9c-0.8,0.5-1.9,0.5-2.6-0.1c-0.3-0.2-0.5-0.6-0.5-1L133,84z M136.6,85.5V91h2.6c1,0.1,2.1-0.1,3-0.7
	c0.6-0.4,0.9-1,0.9-1.7v-0.5c0-0.8-0.3-1.5-0.9-1.9c-0.9-0.5-2-0.8-3-0.7L136.6,85.5z"/>
<path class="st1" d="M165.6,83.1c0.3,0.3,0.5,0.7,0.4,1.1c0,0.4-0.2,0.8-0.4,1.1c-0.4,0.3-0.8,0.4-1.3,0.4h-6.9v4.5h4.6
	c0.5,0,1,0.1,1.4,0.4c0.3,0.3,0.5,0.7,0.4,1.1c0,0.4-0.1,0.8-0.4,1.1c-0.4,0.3-0.9,0.5-1.4,0.4h-4.6V98h6.9c0.5,0,0.9,0.1,1.3,0.4
	c0.3,0.3,0.5,0.7,0.4,1.1c0,0.4-0.1,0.8-0.4,1.1c-0.4,0.3-0.8,0.5-1.3,0.4h-8.7c-0.5,0-1-0.1-1.4-0.4c-0.3-0.2-0.5-0.6-0.5-0.9V84
	c0-0.4,0.2-0.7,0.5-0.9c0.4-0.3,0.9-0.4,1.4-0.4h8.7C164.7,82.6,165.2,82.8,165.6,83.1z"/>
<path class="st1" d="M172.8,84c0-0.4,0.2-0.7,0.5-0.9c0.4-0.3,0.9-0.4,1.4-0.4h4.1c1.1,0,2.3,0.1,3.4,0.5c0.9,0.3,1.7,0.7,2.4,1.3
	c0.6,0.5,1.1,1.2,1.4,1.9c0.3,0.7,0.4,1.5,0.4,2.3V89c0,0.7-0.1,1.4-0.4,2.1c-0.3,0.7-0.7,1.3-1.3,1.8c-0.7,0.6-1.5,1-2.3,1.2
	c-1.1,0.3-2.3,0.5-3.5,0.5h-2.3v5.4c0,0.4-0.2,0.7-0.5,0.9c-0.8,0.6-1.9,0.6-2.6-0.1c-0.3-0.2-0.5-0.6-0.5-1L172.8,84z M176.5,85.5
	v6.3h2.3c0.6,0,1.2-0.1,1.8-0.2c0.4-0.1,0.9-0.3,1.2-0.6c0.3-0.2,0.5-0.5,0.7-0.9c0.2-0.3,0.2-0.7,0.2-1v-0.7c0-0.8-0.3-1.6-0.9-2.1
	c-0.9-0.6-1.9-0.9-3-0.8L176.5,85.5z"/>
<path class="st1" d="M193,89.9c0-1,0.1-2,0.5-2.9c0.3-0.9,0.8-1.7,1.4-2.4c0.7-0.7,1.5-1.2,2.4-1.6c1.1-0.4,2.3-0.6,3.5-0.6
	c1.2,0,2.4,0.2,3.5,0.6c0.9,0.3,1.8,0.9,2.4,1.6c0.6,0.7,1.1,1.5,1.4,2.4c0.3,0.9,0.5,1.9,0.5,2.9v4c0,1-0.2,2-0.5,2.9
	c-0.3,0.9-0.8,1.7-1.4,2.4c-0.7,0.7-1.5,1.2-2.4,1.6c-1.1,0.4-2.3,0.6-3.5,0.6c-1.2,0-2.4-0.2-3.5-0.6c-0.9-0.3-1.8-0.9-2.4-1.6
	c-0.6-0.7-1.1-1.5-1.4-2.4c-0.3-0.9-0.5-1.9-0.5-2.9L193,89.9z M196.6,93.9c-0.1,1.2,0.3,2.4,1.1,3.3c0.9,0.7,2,1.1,3.1,1
	c1.1,0.1,2.2-0.3,3.1-1c0.8-0.9,1.2-2.1,1-3.3v-4c0.1-1.2-0.3-2.4-1.1-3.3c-0.9-0.7-2-1.1-3.1-1c-1.1-0.1-2.2,0.3-3.1,1
	c-0.8,0.9-1.3,2.1-1.1,3.3L196.6,93.9z"/>
<path class="st1" d="M216.1,84c0-0.4,0.2-0.7,0.5-0.9c0.4-0.3,0.9-0.4,1.4-0.4h4.4c1.2,0,2.4,0.1,3.5,0.4c0.9,0.2,1.6,0.6,2.3,1.1
	c0.6,0.5,1,1.1,1.3,1.8c0.3,0.7,0.4,1.5,0.4,2.3v0.2c0,0.9-0.2,1.8-0.7,2.5c-0.7,0.8-1.6,1.4-2.6,1.7l3.4,6.5c0.2,0.3,0.3,0.7,0.1,1
	c-0.2,0.4-0.6,0.8-1,1c-0.4,0.2-0.9,0.3-1.3,0.2c-0.4-0.1-0.7-0.3-0.9-0.6l-3.5-6.9c-0.2,0-0.4,0-0.5,0h-3.2v6.2
	c0,0.4-0.2,0.7-0.5,0.9c-0.4,0.3-0.8,0.4-1.3,0.4c-0.5,0-1-0.1-1.4-0.5c-0.3-0.2-0.5-0.6-0.5-1L216.1,84z M219.7,85.5V91h2.6
	c1,0.1,2.1-0.1,3-0.7c0.6-0.4,0.9-1,0.9-1.7v-0.5c0-0.8-0.3-1.5-0.9-1.9c-0.9-0.5-2-0.8-3-0.7L219.7,85.5z"/>
<path class="st1" d="M247.9,82.7c0.5,0,1,0.1,1.4,0.4c0.3,0.3,0.5,0.7,0.4,1.1c0,0.4-0.2,0.8-0.4,1.1c-0.4,0.3-0.9,0.5-1.4,0.4h-4.1
	V100c0,0.4-0.2,0.7-0.5,0.9c-0.4,0.3-0.8,0.4-1.3,0.4c-0.5,0-1-0.1-1.4-0.4c-0.3-0.2-0.5-0.6-0.5-0.9V85.7h-3.7
	c-0.5,0-0.9-0.1-1.3-0.4c-0.3-0.3-0.5-0.7-0.5-1.1c0-0.4,0.2-0.8,0.5-1.1c0.4-0.3,0.8-0.4,1.3-0.4H247.9z"/>
</svg>
