<?xml version="1.0" encoding="utf-8"?>
<!-- Generator: Adobe Illustrator 26.0.2, SVG Export Plug-In . SVG Version: 6.00 Build 0)  -->
<svg version="1.1" id="Vrstva_2_00000183225447505875907020000015202529324392994698_"
	 xmlns="http://www.w3.org/2000/svg" xmlns:xlink="http://www.w3.org/1999/xlink" x="0px" y="0px" viewBox="0 0 343.7 155.1"
	 style="enable-background:new 0 0 343.7 155.1;" xml:space="preserve">
<style type="text/css">
	.st0{opacity:0.2;fill:#E6E6E6;enable-background:new    ;}
	.st1{fill:#E30427;}
</style>
<rect x="-22" y="-12.6" class="st0" width="389" height="182"/>
<path d="M48.2,108.8c0-0.4,0.1-0.8,0.3-1.2c0.6-1.5,2.4-2.2,3.9-1.5c0.7,0.3,1.2,0.8,1.5,1.5c0.2,0.4,0.3,0.8,0.3,1.2
	c0.3,1.6-0.8,3.2-2.5,3.4c-1.6,0.3-3.2-0.8-3.4-2.5C48.2,109.5,48.2,109.2,48.2,108.8 M96.8,43.2c1.7,0,3,1.3,3,3s-1.3,3-3,3
	c-1.2,0-2.2-0.7-2.7-1.8c-0.2-0.4-0.3-0.8-0.3-1.2C93.8,44.6,95.2,43.2,96.8,43.2 M53.9,100.8V87.6l43.8-14.9
	c1.1-0.4,1.8-1.4,1.8-2.6V54.3c4.4-1.5,6.7-6.2,5.2-10.6c-1.5-4.4-6.2-6.7-10.6-5.2s-6.7,6.2-5.2,10.6c0.8,2.5,2.8,4.4,5.2,5.2v13.9
	L50.3,83.1c-1.1,0.4-1.8,1.4-1.8,2.6v15.1c-4.4,1.5-6.7,6.2-5.2,10.6c1.5,4.4,6.2,6.7,10.6,5.2c4.4-1.5,6.7-6.2,5.2-10.6
	C58.3,103.6,56.4,101.7,53.9,100.8"/>
<path d="M54.2,46.2c-0.1,1.7-1.5,2.9-3.1,2.8c-1.1-0.1-2-0.7-2.5-1.6c-0.2-0.4-0.3-0.8-0.3-1.2c-0.3-1.6,0.8-3.2,2.5-3.4
	c1.6-0.3,3.2,0.8,3.4,2.5C54.2,45.6,54.2,45.9,54.2,46.2 M74,58.3c1.7,0,3,1.3,3,3s-1.3,3-3,3h-0.3c-1.6-0.2-2.8-1.6-2.7-3.3
	c0.1-0.7,0.4-1.4,1-1.9C72.5,58.6,73.3,58.3,74,58.3 M48.5,54.3v14.8c0,0.9,0.4,1.7,1.1,2.2c0.5,0.3,1,0.5,1.6,0.5
	c0.3,0,0.6,0,0.9-0.1l15.3-5.2c1.6,2.1,4,3.3,6.6,3.3c4.7,0.1,8.5-3.7,8.6-8.4c0.1-4.7-3.7-8.5-8.4-8.6c-4.7-0.1-8.5,3.7-8.6,8.4
	c0,0,0,0.1,0,0.1l-11.7,4v-11c4.4-1.5,6.7-6.2,5.2-10.6s-6.2-6.7-10.6-5.2s-6.7,6.2-5.2,10.6C44.1,51.5,46.1,53.4,48.5,54.3"/>
<path d="M93.8,108.8c0-0.4,0.1-0.8,0.3-1.2c0.6-1.5,2.4-2.2,3.9-1.5c0.7,0.3,1.2,0.8,1.5,1.5c0.2,0.4,0.3,0.8,0.3,1.2
	c0.3,1.6-0.8,3.2-2.5,3.4c-1.6,0.3-3.2-0.8-3.4-2.5C93.8,109.5,93.8,109.2,93.8,108.8 M74,97.5c-1.7,0-3-1.3-3-3s1.3-3,3-3h0.3
	c1.5,0.2,2.7,1.5,2.7,3c0,0.8-0.4,1.6-1,2.2C75.4,97.2,74.7,97.5,74,97.5 M99.4,100.8v-14c0-0.9-0.4-1.7-1.1-2.2
	c-0.7-0.5-1.6-0.7-2.4-0.4l-15.3,5.2c-1.5-2.1-4-3.4-6.6-3.4c-4.7-0.1-8.6,3.7-8.6,8.3c-0.1,4.7,3.7,8.6,8.3,8.6
	c4.7,0.1,8.6-3.7,8.6-8.3c0,0,0-0.1,0-0.1l11.7-4v10.2c-4.4,1.5-6.7,6.2-5.2,10.6c1.5,4.4,6.2,6.7,10.6,5.2
	c4.4-1.5,6.7-6.2,5.2-10.6C103.9,103.5,101.9,101.6,99.4,100.8"/>
<path d="M130.6,64.9h-7.7v6.4c0,0.4-0.2,0.7-0.5,0.9c-0.4,0.3-0.8,0.4-1.3,0.4c-0.5,0-1-0.1-1.3-0.4c-0.3-0.2-0.5-0.6-0.5-0.9V55.1
	c0-0.4,0.2-0.7,0.5-0.9c0.4-0.3,0.9-0.4,1.3-0.4c0.5,0,0.9,0.1,1.3,0.4c0.3,0.2,0.5,0.6,0.5,0.9v6.8h7.7v-6.8c0-0.4,0.2-0.7,0.5-0.9
	c0.4-0.3,0.9-0.4,1.4-0.4c0.5,0,0.9,0.1,1.3,0.4c0.3,0.2,0.5,0.6,0.5,0.9v16.2c0,0.4-0.2,0.7-0.5,0.9c-0.4,0.3-0.8,0.4-1.3,0.4
	c-0.5,0-1-0.1-1.4-0.4c-0.3-0.2-0.5-0.6-0.5-0.9V64.9z"/>
<path d="M156.8,70.8c0.1,0.3,0,0.7-0.2,1c-0.3,0.4-0.7,0.7-1.2,0.7c-0.5,0.1-1,0.1-1.4-0.1c-0.4-0.1-0.6-0.4-0.8-0.8l-1.1-3.3h-6.8
	l-1.1,3.3c-0.1,0.4-0.4,0.6-0.8,0.8c-0.4,0.2-0.9,0.2-1.4,0.1c-0.5-0.1-0.9-0.3-1.2-0.7c-0.2-0.3-0.3-0.7-0.2-1l6.1-15.8
	c0.1-0.4,0.4-0.7,0.7-0.8c0.4-0.2,0.9-0.4,1.3-0.4c0.5,0,0.9,0.1,1.3,0.4c0.3,0.2,0.6,0.5,0.7,0.8L156.8,70.8z M146.4,65.5h4.9
	l-2.4-7.1L146.4,65.5z"/>
<path d="M163.3,55.4c0-0.4,0.2-0.7,0.5-0.9c0.4-0.3,0.9-0.4,1.4-0.4h4.4c1.2,0,2.4,0.1,3.5,0.4c0.9,0.2,1.7,0.6,2.4,1.1
	c0.6,0.5,1,1.1,1.3,1.8c0.3,0.7,0.4,1.5,0.4,2.3v0.2c0,0.9-0.2,1.8-0.7,2.5c-0.7,0.8-1.6,1.4-2.6,1.7l3.4,6.5c0.2,0.3,0.3,0.7,0.1,1
	c-0.2,0.4-0.6,0.8-1,1c-0.4,0.2-0.9,0.3-1.3,0.2c-0.4-0.1-0.7-0.3-0.9-0.6l-3.5-6.9c-0.2,0-0.3,0-0.5,0H167v6.2
	c0,0.4-0.2,0.7-0.5,0.9c-0.8,0.5-1.9,0.5-2.6-0.1c-0.3-0.2-0.5-0.6-0.5-1L163.3,55.4z M167,56.9v5.5h2.6c1,0.1,2.1-0.1,3-0.7
	c0.6-0.4,0.9-1,0.9-1.7v-0.5c0-0.8-0.3-1.5-0.9-1.9c-0.9-0.5-2-0.8-3-0.7H167z"/>
<path d="M184,55.4c0-0.4,0.2-0.7,0.5-0.9c0.4-0.3,0.9-0.4,1.4-0.4h4c1.2,0,2.5,0.2,3.7,0.6c1,0.4,1.8,0.9,2.6,1.7
	c0.7,0.7,1.2,1.5,1.5,2.5c0.3,1,0.5,2,0.5,3V65c0,1-0.2,2-0.5,2.9c-0.3,0.9-0.8,1.7-1.5,2.3c-0.7,0.7-1.6,1.2-2.6,1.6
	c-1.2,0.4-2.4,0.6-3.7,0.6h-4c-0.5,0-1-0.1-1.4-0.4c-0.3-0.2-0.5-0.6-0.5-1V55.4z M187.6,57.1v12.3h2.2c1.2,0.1,2.4-0.3,3.4-1
	c0.8-0.8,1.3-1.9,1.2-3v-3.8c0.1-1.2-0.4-2.4-1.2-3.3c-0.9-0.8-2.1-1.2-3.4-1.2H187.6z"/>
<path d="M212,71.5c-0.1,0.4-0.4,0.7-0.7,0.8c-0.8,0.5-1.8,0.5-2.6,0c-0.3-0.2-0.6-0.5-0.7-0.8l-3.7-15.9c-0.1-0.3,0-0.7,0.2-1
	c0.3-0.4,0.7-0.6,1.2-0.7c0.5-0.1,0.9-0.1,1.4,0.1c0.4,0.1,0.6,0.4,0.8,0.8l2.3,13l3.4-12.5c0.2-0.9,1-1.4,1.9-1.4
	c0.5,0,0.9,0.1,1.3,0.4c0.3,0.3,0.5,0.6,0.7,1l3.4,12.5l2.3-13c0.1-0.4,0.4-0.6,0.8-0.8c0.4-0.2,0.9-0.2,1.4-0.1
	c0.5,0.1,0.9,0.3,1.2,0.7c0.2,0.3,0.3,0.7,0.2,1l-3.7,15.9c-0.1,0.4-0.4,0.7-0.7,0.8c-0.8,0.5-1.8,0.5-2.6,0
	c-0.3-0.2-0.6-0.5-0.7-0.8l-3.5-11.8L212,71.5z"/>
<path d="M246.8,70.8c0.1,0.3,0,0.7-0.2,1c-0.3,0.4-0.7,0.7-1.2,0.7c-0.5,0.1-0.9,0.1-1.4-0.1c-0.4-0.1-0.6-0.4-0.8-0.8l-1.1-3.3
	h-6.8l-1.2,3.4c-0.2,0.4-0.4,0.6-0.8,0.8c-0.4,0.2-0.9,0.2-1.4,0.1c-0.5-0.1-0.9-0.3-1.2-0.7c-0.2-0.3-0.3-0.7-0.2-1l6.1-15.9
	c0.1-0.4,0.4-0.6,0.7-0.8c0.8-0.5,1.8-0.5,2.6,0c0.3,0.2,0.6,0.5,0.7,0.8L246.8,70.8z M236.4,65.5h4.8l-2.4-7.1L236.4,65.5z"/>
<path d="M253.4,55.4c0-0.4,0.2-0.7,0.5-0.9c0.4-0.3,0.9-0.4,1.4-0.4h4.4c1.2,0,2.4,0.1,3.5,0.4c0.9,0.2,1.6,0.6,2.3,1.1
	c0.6,0.5,1,1.1,1.3,1.8c0.3,0.7,0.4,1.5,0.4,2.3v0.2c0,0.9-0.2,1.8-0.7,2.5c-0.7,0.8-1.6,1.4-2.6,1.7l3.4,6.5c0.2,0.3,0.3,0.7,0.1,1
	c-0.2,0.4-0.6,0.8-1,1c-0.4,0.2-0.9,0.3-1.3,0.2c-0.4-0.1-0.7-0.3-0.9-0.6l-3.5-6.9c-0.2,0-0.4,0-0.5,0H257v6.2
	c0,0.4-0.2,0.7-0.5,0.9c-0.4,0.3-0.8,0.4-1.3,0.4c-0.5,0-1-0.1-1.4-0.5c-0.3-0.2-0.5-0.6-0.5-1L253.4,55.4z M257,56.9v5.5h2.6
	c1,0.1,2.1-0.1,3-0.7c0.6-0.4,0.9-1,0.9-1.7v-0.5c0-0.8-0.3-1.5-0.9-1.9c-0.9-0.5-2-0.8-3-0.7H257z"/>
<path d="M274,55.1c0-0.4,0.2-0.7,0.5-0.9c0.4-0.3,0.9-0.4,1.4-0.4c0.5,0,0.9,0.1,1.3,0.4c0.3,0.2,0.5,0.6,0.5,0.9v16.2
	c0,0.4-0.2,0.7-0.5,0.9c-0.4,0.3-0.8,0.4-1.3,0.4c-0.5,0-1-0.1-1.4-0.4c-0.3-0.2-0.5-0.6-0.5-0.9V55.1z"/>
<path d="M285.1,61.2c0-1,0.2-2,0.5-2.9c0.3-0.9,0.8-1.7,1.4-2.4c0.7-0.7,1.5-1.2,2.4-1.6c1.1-0.4,2.3-0.6,3.5-0.6
	c1.2,0,2.4,0.2,3.5,0.6c0.9,0.3,1.8,0.9,2.5,1.6c0.6,0.7,1.1,1.5,1.4,2.4c0.3,0.9,0.5,1.9,0.5,2.9v4c0,1-0.2,2-0.5,2.9
	c-0.3,0.9-0.8,1.7-1.4,2.4c-0.7,0.7-1.5,1.2-2.5,1.6c-1.1,0.4-2.3,0.6-3.5,0.6c-1.2,0-2.4-0.2-3.5-0.6c-0.9-0.3-1.7-0.9-2.4-1.6
	c-0.6-0.7-1.1-1.5-1.4-2.4c-0.3-0.9-0.5-1.9-0.5-2.9V61.2z M288.7,65.2c-0.1,1.2,0.3,2.4,1.1,3.3c1.9,1.3,4.4,1.3,6.2,0
	c0.8-0.9,1.2-2.1,1.1-3.3v-4c0.1-1.2-0.3-2.4-1.1-3.3c-1.9-1.3-4.4-1.3-6.2,0c-0.9,0.9-1.3,2.1-1.1,3.3V65.2z"/>
<path class="st1" d="M118.9,89.4c0-0.9,0.2-1.8,0.5-2.7c0.3-0.8,0.8-1.6,1.4-2.2c0.7-0.6,1.4-1.1,2.3-1.5c1-0.4,2.1-0.6,3.1-0.6
	c0.8,0,1.5,0.1,2.2,0.3c0.6,0.1,1.2,0.4,1.8,0.7c0.5,0.3,0.9,0.6,1.2,1c0.3,0.3,0.4,0.7,0.4,1.2c0,0.3-0.1,0.7-0.4,0.9
	c-0.2,0.2-0.5,0.3-0.9,0.3c-0.3,0-0.6,0-0.9-0.1c-0.3-0.1-0.6-0.3-0.9-0.4c-0.3-0.2-0.7-0.4-1.1-0.5c-0.5-0.1-1-0.2-1.5-0.2
	c-0.9,0-1.8,0.3-2.6,0.9c-0.8,0.7-1.2,1.8-1.1,2.8v5.4c-0.1,1.1,0.3,2.1,1.1,2.8c0.7,0.6,1.6,0.9,2.6,0.9c0.5,0,1,0,1.4-0.1
	c0.3-0.1,0.7-0.2,1-0.4c0.2-0.1,0.4-0.2,0.6-0.3c0.1-0.1,0.3-0.1,0.4-0.2c0.1-0.1,0.3-0.1,0.4-0.1c0.2,0,0.3,0,0.5,0
	c0.6-0.1,1.1,0.4,1.2,1c0,0.1,0,0.1,0,0.2c0,0.4-0.2,0.8-0.4,1.2c-0.3,0.4-0.7,0.8-1.2,1c-0.6,0.3-1.2,0.5-1.8,0.7
	c-0.7,0.2-1.5,0.3-2.2,0.3c-1.1,0-2.1-0.2-3.1-0.6c-0.9-0.3-1.6-0.8-2.3-1.5c-0.6-0.6-1.1-1.4-1.4-2.2c-0.3-0.9-0.5-1.8-0.5-2.7
	L118.9,89.4z"/>
<path class="st1" d="M149.8,93.6h-7.7v6.4c0,0.4-0.2,0.7-0.5,0.9c-0.4,0.3-0.8,0.4-1.3,0.4c-0.5,0-1-0.1-1.4-0.4
	c-0.3-0.2-0.5-0.6-0.5-0.9V83.8c0-0.4,0.2-0.7,0.5-0.9c0.4-0.3,0.9-0.4,1.4-0.4c0.5,0,0.9,0.1,1.3,0.4c0.3,0.2,0.5,0.6,0.5,0.9v6.8
	h7.7v-6.8c0-0.4,0.2-0.7,0.5-0.9c0.4-0.3,0.9-0.4,1.4-0.4c0.5,0,0.9,0.1,1.3,0.4c0.3,0.2,0.5,0.6,0.5,0.9V100c0,0.4-0.2,0.7-0.5,0.9
	c-0.4,0.3-0.8,0.4-1.3,0.4c-0.5,0-1-0.1-1.4-0.4c-0.3-0.2-0.5-0.6-0.5-0.9V93.6z"/>
<path class="st1" d="M173.1,83.1c0.3,0.3,0.5,0.7,0.4,1.1c0,0.4-0.1,0.8-0.4,1.1c-0.4,0.3-0.8,0.5-1.3,0.4h-7v4.5h4.6
	c0.5,0,1,0.1,1.4,0.4c0.3,0.3,0.5,0.7,0.4,1.1c0,0.4-0.1,0.8-0.4,1.1c-0.4,0.3-0.9,0.5-1.4,0.4h-4.6V98h7c0.5,0,0.9,0.1,1.3,0.4
	c0.3,0.3,0.5,0.7,0.4,1.1c0,0.4-0.2,0.8-0.4,1.1c-0.4,0.3-0.8,0.4-1.3,0.4H163c-0.5,0-1-0.1-1.4-0.4c-0.3-0.2-0.5-0.6-0.5-0.9V84
	c0-0.4,0.2-0.7,0.5-0.9c0.4-0.3,0.9-0.4,1.4-0.4h8.7C172.2,82.7,172.7,82.8,173.1,83.1z"/>
<path class="st1" d="M186.3,101.3c-0.4,0-0.8,0-1.1-0.1c-0.5-0.1-1-0.2-1.4-0.3c-0.5-0.1-1-0.3-1.5-0.5c-0.5-0.2-0.9-0.4-1.3-0.7
	c-0.4-0.2-0.7-0.5-1-0.9c-0.2-0.3-0.4-0.7-0.4-1.1c0-0.9,0.5-1.3,1.6-1.3c0.3,0,0.6,0.1,0.9,0.3c0.3,0.2,0.5,0.3,0.8,0.5
	c0.4,0.4,0.9,0.6,1.5,0.8c0.6,0.2,1.3,0.4,2,0.4c0.7,0,1.4-0.1,2-0.5c0.5-0.4,0.8-1,0.7-1.6c0-0.6-0.2-1.1-0.7-1.5
	c-0.5-0.4-1.1-0.8-1.7-1c-0.7-0.3-1.4-0.6-2.2-0.9c-0.8-0.3-1.5-0.6-2.2-1.1c-0.7-0.4-1.2-1-1.7-1.6c-0.5-0.7-0.7-1.6-0.7-2.4
	c0-0.7,0.1-1.5,0.4-2.2c0.3-0.6,0.7-1.2,1.2-1.7c0.6-0.5,1.3-0.9,2-1.1c0.9-0.3,1.8-0.4,2.7-0.4c0.9,0,1.8,0.1,2.7,0.4
	c0.7,0.2,1.4,0.5,2,0.9c0.5,0.3,0.9,0.6,1.2,1.1c0.2,0.3,0.4,0.6,0.4,0.9c0,0.4-0.1,0.8-0.4,1.1c-0.3,0.3-0.8,0.5-1.2,0.4
	c-0.3,0-0.6-0.1-0.9-0.2c-0.3-0.1-0.5-0.3-0.7-0.5c-0.4-0.3-0.7-0.5-1.1-0.7c-0.7-0.3-1.4-0.4-2.1-0.4c-0.7,0-1.3,0.2-1.8,0.6
	c-0.5,0.4-0.8,1-0.7,1.6c0,0.6,0.2,1.1,0.7,1.5c0.5,0.4,1.1,0.7,1.7,1c0.7,0.3,1.4,0.6,2.2,0.9c0.8,0.3,1.5,0.6,2.2,1
	c0.7,0.4,1.2,1,1.7,1.6c0.5,0.8,0.7,1.6,0.7,2.5c0.1,1.5-0.6,2.9-1.7,3.8C189.7,100.9,188,101.4,186.3,101.3z"/>
<path class="st1" d="M211.6,82.7c0.5,0,1,0.1,1.4,0.4c0.3,0.3,0.5,0.7,0.4,1.1c0,0.4-0.1,0.8-0.4,1.1c-0.4,0.3-0.9,0.5-1.4,0.4h-4.1
	V100c0,0.4-0.2,0.7-0.5,0.9c-0.4,0.3-0.8,0.4-1.3,0.4c-0.5,0-1-0.1-1.4-0.4c-0.3-0.2-0.5-0.6-0.5-0.9V85.7h-3.7
	c-0.5,0-0.9-0.1-1.3-0.4c-0.3-0.3-0.5-0.7-0.5-1.1c0-0.4,0.2-0.8,0.5-1.1c0.4-0.3,0.8-0.4,1.3-0.4L211.6,82.7z"/>
<path class="st1" d="M231.3,83.1c0.3,0.3,0.5,0.7,0.4,1.1c0,0.4-0.1,0.8-0.4,1.1c-0.4,0.3-0.8,0.5-1.3,0.4h-7v4.5h4.7
	c0.5,0,1,0.1,1.4,0.4c0.3,0.3,0.5,0.7,0.4,1.1c0,0.4-0.1,0.8-0.4,1.1c-0.4,0.3-0.9,0.5-1.4,0.4H223V98h7c0.5,0,0.9,0.1,1.3,0.4
	c0.3,0.3,0.5,0.7,0.4,1.1c0,0.4-0.1,0.8-0.4,1.1c-0.4,0.3-0.8,0.4-1.3,0.4h-8.7c-0.5,0-1-0.1-1.4-0.4c-0.3-0.2-0.5-0.6-0.5-0.9V84
	c0-0.4,0.2-0.7,0.5-0.9c0.4-0.3,0.9-0.4,1.4-0.4h8.7C230.5,82.7,230.9,82.8,231.3,83.1z"/>
<path class="st1" d="M238.6,84c0-0.4,0.2-0.7,0.5-0.9c0.4-0.3,0.9-0.4,1.4-0.4h4.4c1.2,0,2.4,0.1,3.5,0.4c0.8,0.2,1.6,0.6,2.3,1.1
	c0.6,0.5,1,1.1,1.3,1.8c0.3,0.7,0.4,1.5,0.4,2.3v0.2c0,0.9-0.2,1.8-0.7,2.5c-0.7,0.8-1.6,1.4-2.6,1.7l3.4,6.5c0.2,0.3,0.3,0.7,0.1,1
	c-0.2,0.4-0.6,0.8-1,1c-0.4,0.2-0.9,0.3-1.3,0.2c-0.4-0.1-0.7-0.3-0.9-0.6l-3.5-6.9c-0.2,0-0.4,0-0.5,0h-3.2v6.1
	c0,0.4-0.2,0.7-0.5,0.9c-0.4,0.3-0.8,0.4-1.3,0.4c-0.5,0-1-0.1-1.4-0.5c-0.3-0.2-0.5-0.6-0.5-1L238.6,84z M242.2,85.6v5.5h2.6
	c1,0.1,2.1-0.1,3-0.7c0.6-0.4,0.9-1,0.9-1.7v-0.5c0-0.8-0.3-1.5-0.9-1.9c-0.9-0.5-2-0.8-3-0.7H242.2z"/>
</svg>
