<?xml version="1.0" encoding="utf-8"?>
<!-- Generator: Adobe Illustrator 26.0.2, SVG Export Plug-In . SVG Version: 6.00 Build 0)  -->
<svg version="1.1" id="Vrstva_2_00000023963899418117855820000010635590333103309993_"
	 xmlns="http://www.w3.org/2000/svg" xmlns:xlink="http://www.w3.org/1999/xlink" x="0px" y="0px" viewBox="0 0 343.7 155.1"
	 style="enable-background:new 0 0 343.7 155.1;" xml:space="preserve">
<style type="text/css">
	.st0{opacity:0.2;fill:#E6E6E6;enable-background:new    ;}
	.st1{fill:#2B7036;}
</style>
<rect x="-22" y="-12.6" class="st0" width="389" height="182"/>
<path class="st1" d="M66.9,108.8c0-0.4,0.1-0.8,0.3-1.2c0.6-1.5,2.4-2.2,3.8-1.5c0.7,0.3,1.2,0.9,1.5,1.5c0.2,0.4,0.3,0.8,0.3,1.2
	c0.3,1.6-0.8,3.2-2.4,3.5c-1.6,0.3-3.2-0.8-3.5-2.4C66.8,109.5,66.8,109.2,66.9,108.8 M115.4,43.2c1.6,0,3,1.4,2.9,3
	c0,1.6-1.3,3-2.9,3c-1.2,0-2.2-0.7-2.7-1.8c-0.2-0.4-0.3-0.8-0.3-1.2C112.5,44.6,113.8,43.2,115.4,43.2 M72.6,100.8V87.6l43.8-14.9
	c1.1-0.4,1.8-1.4,1.8-2.6V54.3c4.4-1.5,6.7-6.2,5.2-10.6c-1.5-4.4-6.2-6.7-10.6-5.2s-6.7,6.2-5.2,10.6c0.8,2.4,2.8,4.4,5.2,5.2v13.9
	L69,83.1c-1.1,0.4-1.8,1.4-1.8,2.6v15.1c-4.4,1.5-6.7,6.2-5.2,10.6s6.2,6.7,10.6,5.2c4.4-1.5,6.7-6.2,5.2-10.6
	C76.9,103.6,75,101.7,72.6,100.8"/>
<path class="st1" d="M72.8,46.2c0,1.7-1.3,3-3,3s-3-1.3-3-3s1.3-3,3-3c1.6,0,3,1.3,3,2.9C72.8,46.2,72.8,46.2,72.8,46.2 M92.6,58.3
	c1.7,0,3,1.3,3,3s-1.3,3-3,3h-0.3c-1.6-0.2-2.8-1.6-2.7-3.3c0.1-0.7,0.4-1.4,1-1.9C91.2,58.6,91.9,58.3,92.6,58.3 M67.1,54.3v14.7
	c0,0.9,0.4,1.7,1.1,2.2c0.5,0.3,1,0.5,1.6,0.5c0.3,0,0.6,0,0.9-0.1L86,66.5c1.6,2.1,4,3.3,6.6,3.3c4.7,0.1,8.5-3.7,8.6-8.4
	c0.1-4.7-3.7-8.5-8.4-8.6c-4.7-0.1-8.5,3.7-8.6,8.4c0,0,0,0.1,0,0.1l-11.7,4v-11c4.4-1.5,6.7-6.2,5.2-10.6
	c-1.5-4.4-6.2-6.7-10.6-5.2s-6.7,6.2-5.2,10.6C62.8,51.5,64.7,53.4,67.1,54.3"/>
<path class="st1" d="M112.5,108.8c0-0.4,0.1-0.8,0.3-1.2c0.6-1.5,2.4-2.2,3.8-1.5c0.7,0.3,1.2,0.9,1.5,1.5c0.2,0.4,0.3,0.8,0.3,1.2
	c0.3,1.6-0.8,3.2-2.4,3.5c-1.6,0.3-3.2-0.8-3.5-2.4C112.4,109.5,112.4,109.2,112.5,108.8 M92.6,97.5c-1.7,0-3-1.3-3-3s1.3-3,3-3h0.3
	c1.5,0.2,2.7,1.5,2.7,3c0,0.8-0.4,1.6-1,2.2C94,97.2,93.3,97.5,92.6,97.5 M118.1,100.8v-14c0-0.9-0.4-1.7-1.1-2.3
	c-0.7-0.5-1.6-0.7-2.4-0.4l-15.3,5.2c-1.6-2.1-4-3.4-6.6-3.4c-4.7-0.1-8.5,3.7-8.6,8.4c-0.1,4.7,3.7,8.5,8.4,8.6s8.5-3.7,8.6-8.4
	c0,0,0,0,0,0l11.7-4v10.2c-4.4,1.5-6.7,6.2-5.2,10.6c1.5,4.4,6.2,6.7,10.6,5.2c4.4-1.5,6.7-6.2,5.2-10.6
	C122.5,103.6,120.6,101.7,118.1,100.8"/>
<path class="st1" d="M137.9,55.3c0-0.4,0.2-0.7,0.5-0.9c0.4-0.3,0.9-0.5,1.4-0.4c0.5,0,0.9,0.1,1.3,0.4c0.3,0.2,0.5,0.6,0.5,0.9
	v14.2h6.6c0.5,0,0.9,0.1,1.3,0.4c0.3,0.3,0.5,0.7,0.4,1.1c0,0.4-0.2,0.8-0.4,1.1c-0.4,0.3-0.8,0.4-1.3,0.4h-8.6
	c-0.5,0-0.9-0.2-1.2-0.5c-0.3-0.2-0.4-0.5-0.4-0.9V55.3z"/>
<path class="st1" d="M167.5,54.7c0.3,0.3,0.5,0.7,0.4,1.1c0,0.4-0.2,0.8-0.4,1.1c-0.4,0.3-0.8,0.5-1.3,0.4h-6.9v4.5h4.6
	c0.5,0,1,0.1,1.4,0.4c0.3,0.3,0.5,0.7,0.4,1.1c0,0.4-0.1,0.8-0.4,1.1c-0.4,0.3-0.9,0.5-1.4,0.4h-4.6v4.7h6.9c0.5,0,0.9,0.1,1.3,0.4
	c0.3,0.3,0.5,0.7,0.4,1.1c0,0.4-0.2,0.8-0.4,1.1c-0.4,0.3-0.8,0.4-1.3,0.4h-8.7c-0.5,0-1-0.1-1.4-0.4c-0.3-0.2-0.5-0.6-0.5-0.9V55.6
	c0-0.4,0.2-0.7,0.5-0.9c0.4-0.3,0.9-0.4,1.4-0.4h8.7C166.7,54.3,167.2,54.4,167.5,54.7z"/>
<path class="st1" d="M180.8,72.9c-0.4,0-0.8,0-1.1-0.1c-0.5-0.1-1-0.2-1.4-0.3c-0.5-0.1-1-0.3-1.5-0.5c-0.5-0.2-0.9-0.4-1.3-0.7
	c-0.4-0.2-0.7-0.5-1-0.9c-0.2-0.3-0.4-0.7-0.4-1.1c0-0.9,0.5-1.3,1.6-1.3c0.3,0,0.6,0.1,0.9,0.3c0.3,0.2,0.5,0.3,0.8,0.5
	c0.4,0.4,0.9,0.6,1.5,0.8c0.7,0.2,1.4,0.4,2.1,0.4c0.7,0,1.4-0.1,1.9-0.5c0.5-0.4,0.8-1,0.7-1.6c0-0.6-0.2-1.1-0.7-1.5
	c-0.5-0.4-1.1-0.8-1.7-1c-0.7-0.3-1.4-0.6-2.2-0.9c-0.8-0.3-1.5-0.6-2.2-1.1c-0.7-0.4-1.2-1-1.7-1.6c-0.5-0.7-0.7-1.6-0.7-2.5
	c0-0.7,0.1-1.5,0.4-2.2c0.3-0.6,0.7-1.2,1.2-1.7c0.6-0.5,1.3-0.9,2-1.1c0.9-0.3,1.8-0.4,2.7-0.4c0.9,0,1.8,0.1,2.7,0.4
	c0.7,0.2,1.3,0.5,1.9,0.9c0.5,0.3,0.9,0.6,1.2,1.1c0.2,0.3,0.4,0.6,0.4,0.9c0,0.4-0.1,0.8-0.4,1.1c-0.3,0.3-0.8,0.5-1.2,0.4
	c-0.3,0-0.6-0.1-0.9-0.2c-0.3-0.1-0.5-0.3-0.7-0.5c-0.4-0.3-0.7-0.5-1.1-0.7c-0.7-0.3-1.4-0.4-2.1-0.4c-0.7,0-1.3,0.2-1.8,0.6
	c-0.5,0.4-0.8,1-0.7,1.6c0,0.6,0.2,1.1,0.7,1.5c0.5,0.4,1.1,0.7,1.7,1c0.7,0.3,1.4,0.6,2.2,0.9c0.8,0.3,1.5,0.6,2.2,1.1
	c0.7,0.4,1.2,1,1.7,1.6c0.5,0.8,0.7,1.6,0.7,2.5c0.1,1.5-0.6,2.9-1.7,3.8C184.1,72.6,182.5,73,180.8,72.9z"/>
<path class="st1" d="M194.2,55.3c0-0.4,0.2-0.7,0.5-0.9c0.4-0.3,0.9-0.4,1.4-0.4c0.4,0,0.8,0.1,1.1,0.3c0.3,0.2,0.5,0.4,0.6,0.8
	l8.4,11.3v-11c0-0.4,0.2-0.7,0.5-0.9c0.4-0.3,0.9-0.4,1.3-0.4c0.5,0,0.9,0.1,1.3,0.4c0.3,0.2,0.5,0.6,0.5,0.9v16.2
	c0,0.4-0.2,0.7-0.5,0.9c-0.4,0.3-0.8,0.4-1.3,0.4c-0.4,0-0.8-0.1-1.1-0.2c-0.3-0.1-0.5-0.4-0.6-0.7l-0.1-0.1l-8.3-11.1v10.8
	c0,0.4-0.2,0.7-0.5,0.9c-0.4,0.3-0.8,0.4-1.3,0.4c-0.5,0-1-0.1-1.4-0.4c-0.3-0.2-0.5-0.6-0.5-0.9L194.2,55.3z"/>
<path class="st1" d="M217.5,55.3c0-0.4,0.2-0.7,0.5-0.9c0.4-0.3,0.9-0.4,1.4-0.4c0.5,0,0.9,0.1,1.3,0.4c0.3,0.2,0.5,0.6,0.5,0.9
	v16.2c0,0.4-0.2,0.7-0.5,0.9c-0.4,0.3-0.8,0.4-1.3,0.4c-0.5,0-1-0.1-1.4-0.4c-0.3-0.2-0.5-0.6-0.5-0.9V55.3z"/>
<path class="st1" d="M228.5,61c0-0.9,0.2-1.8,0.5-2.7c0.3-0.8,0.8-1.6,1.4-2.2c0.7-0.7,1.4-1.2,2.3-1.5c1-0.4,2.1-0.6,3.1-0.6
	c0.8,0,1.5,0.1,2.2,0.3c0.6,0.1,1.2,0.4,1.8,0.7c0.5,0.3,0.9,0.6,1.2,1c0.3,0.3,0.4,0.7,0.4,1.2c0,0.3-0.1,0.7-0.4,0.9
	c-0.2,0.2-0.6,0.3-0.9,0.3c-0.3,0-0.6,0-0.9-0.1c-0.3-0.1-0.6-0.3-0.9-0.4c-0.3-0.2-0.7-0.4-1.1-0.5c-0.5-0.1-1-0.2-1.5-0.2
	c-0.9,0-1.8,0.3-2.6,0.9c-0.8,0.7-1.2,1.8-1.1,2.8v5.4c-0.1,1,0.3,2,1.1,2.8c0.7,0.6,1.6,0.9,2.6,0.9c0.5,0,1,0,1.4-0.1
	c0.3-0.1,0.7-0.2,1-0.4c0.2-0.1,0.4-0.2,0.6-0.3c0.1-0.1,0.3-0.1,0.4-0.2c0.1-0.1,0.3-0.1,0.4-0.1c0.2,0,0.3,0,0.5,0
	c0.6-0.1,1.1,0.3,1.2,0.9c0,0.1,0,0.1,0,0.2c0,0.4-0.2,0.8-0.4,1.1c-0.3,0.4-0.7,0.8-1.2,1c-0.6,0.3-1.2,0.5-1.8,0.7
	c-0.7,0.2-1.5,0.3-2.2,0.3c-1.1,0-2.1-0.2-3.1-0.6c-0.9-0.3-1.6-0.8-2.3-1.5c-0.6-0.6-1.1-1.4-1.4-2.2c-0.3-0.9-0.5-1.8-0.5-2.7V61z
	"/>
<path class="st1" d="M248.1,55.3c0-0.4,0.2-0.7,0.5-0.9c0.4-0.3,0.9-0.4,1.4-0.4c0.5,0,0.9,0.1,1.3,0.4c0.3,0.2,0.5,0.6,0.5,0.9v6.9
	h1l6-7.8c0.1-0.1,0.3-0.3,0.5-0.3c0.2-0.1,0.4-0.1,0.6-0.1c0.2,0,0.5,0,0.7,0.1c0.2,0.1,0.5,0.2,0.7,0.3c0.4,0.3,0.6,0.7,0.5,1.2
	c0,0.4-0.2,0.7-0.5,1l-5.6,6.8l6.3,7c0.3,0.3,0.4,0.6,0.3,1c-0.1,0.4-0.3,0.8-0.7,1.1c-0.4,0.3-0.8,0.4-1.3,0.4
	c-0.4,0-0.8-0.2-1-0.4l-6.4-7.3h-1.1v6.4c0,0.4-0.2,0.7-0.5,0.9c-0.4,0.3-0.8,0.4-1.3,0.4c-0.5,0-1-0.1-1.4-0.4
	c-0.3-0.2-0.5-0.6-0.5-0.9L248.1,55.3z"/>
<path class="st1" d="M272.5,65.8l-5.6-9.5c-0.2-0.3-0.3-0.7-0.2-1c0.1-0.4,0.4-0.8,0.8-1c0.4-0.3,0.9-0.4,1.4-0.3
	c0.4,0,0.7,0.2,1,0.5l4.5,8.1l4.5-8.1c0.3-0.3,0.6-0.5,1-0.5c0.5-0.1,1,0,1.4,0.3c0.4,0.2,0.7,0.6,0.8,1c0.1,0.3,0,0.7-0.2,1
	l-5.8,9.8v5.4c0,0.4-0.2,0.7-0.5,0.9c-0.4,0.3-0.8,0.4-1.2,0.4c-0.5,0-1-0.1-1.4-0.4c-0.3-0.2-0.5-0.6-0.5-0.9L272.5,65.8z
	 M274.7,52c-0.3,0.1-0.6,0.1-0.9-0.1c-0.3-0.1-0.6-0.4-0.7-0.7c-0.2-0.3-0.2-0.6-0.1-0.9c0.1-0.3,0.3-0.5,0.5-0.6l4.4-2.1
	c0.4-0.2,0.8-0.2,1.2,0c0.4,0.2,0.6,0.5,0.8,0.8c0.2,0.3,0.2,0.7,0.1,1.1c-0.1,0.4-0.4,0.7-0.8,0.8L274.7,52z"/>
<path class="st1" d="M137.8,84.3c0-0.4,0.2-0.7,0.5-0.9c0.4-0.3,0.9-0.4,1.4-0.4h4.4c1.2,0,2.4,0.1,3.5,0.4c0.9,0.2,1.6,0.6,2.3,1.1
	c0.6,0.5,1,1.1,1.3,1.7c0.3,0.7,0.4,1.5,0.4,2.3v0.2c0,0.9-0.2,1.8-0.7,2.5c-0.7,0.8-1.6,1.4-2.6,1.7l3.4,6.5c0.2,0.3,0.3,0.7,0.1,1
	c-0.2,0.4-0.6,0.8-1,1c-0.4,0.2-0.9,0.3-1.3,0.2c-0.4-0.1-0.7-0.3-0.9-0.6l-3.5-6.9c-0.2,0-0.3,0-0.5,0h-3.2v6.2
	c0,0.4-0.2,0.7-0.5,0.9c-0.4,0.3-0.8,0.4-1.3,0.4c-0.5,0-1-0.1-1.4-0.5c-0.3-0.2-0.5-0.6-0.5-1L137.8,84.3z M141.4,85.8v5.5h2.6
	c1,0.1,2.1-0.1,3-0.7c0.6-0.3,1-1,1-1.7v-0.6c0-0.8-0.3-1.5-0.9-1.9c-0.9-0.5-2-0.8-3-0.7L141.4,85.8z"/>
<path class="st1" d="M170.4,83.3c0.3,0.3,0.5,0.7,0.4,1.1c0,0.4-0.1,0.8-0.4,1.1c-0.4,0.3-0.9,0.5-1.4,0.5h-6.9v4.5h4.6
	c0.5,0,1,0.1,1.4,0.4c0.3,0.3,0.5,0.7,0.4,1.1c0,0.4-0.2,0.8-0.4,1.1c-0.4,0.3-0.9,0.4-1.4,0.4h-4.6v4.7h6.9c0.5,0,0.9,0.1,1.3,0.4
	c0.3,0.3,0.5,0.7,0.4,1.1c0,0.4-0.2,0.8-0.4,1.1c-0.4,0.3-0.8,0.5-1.3,0.4h-8.7c-0.5,0-1-0.1-1.4-0.4c-0.3-0.2-0.5-0.6-0.5-0.9V84.3
	c0-0.4,0.2-0.7,0.5-0.9c0.4-0.3,0.9-0.4,1.4-0.4h8.7C169.5,82.9,170,83,170.4,83.3z"/>
<path class="st1" d="M177.6,84.3c0-0.4,0.2-0.7,0.5-0.9c0.4-0.3,0.9-0.4,1.4-0.4h4.1c1.1,0,2.3,0.1,3.4,0.5c0.9,0.3,1.7,0.7,2.4,1.3
	c0.6,0.5,1.1,1.2,1.4,1.9c0.3,0.7,0.4,1.5,0.4,2.3v0.3c0,0.7-0.1,1.4-0.4,2.1c-0.3,0.7-0.7,1.3-1.3,1.8c-0.7,0.6-1.5,1-2.3,1.2
	c-1.1,0.3-2.3,0.5-3.5,0.5h-2.3v5.4c0,0.4-0.2,0.7-0.5,0.9c-0.4,0.3-0.8,0.4-1.3,0.4c-0.5,0-1-0.2-1.4-0.5c-0.3-0.2-0.5-0.6-0.5-1
	L177.6,84.3z M181.3,85.8v6.3h2.3c0.6,0,1.2-0.1,1.8-0.2c0.4-0.1,0.9-0.3,1.2-0.6c0.3-0.2,0.5-0.5,0.7-0.9c0.2-0.3,0.2-0.7,0.2-1
	v-0.7c0-0.8-0.3-1.6-0.9-2.1c-0.9-0.6-1.9-0.9-3-0.8L181.3,85.8z"/>
<path class="st1" d="M197.8,90.1c0-1,0.1-2,0.5-2.9c0.3-0.9,0.8-1.7,1.4-2.4c0.7-0.7,1.5-1.2,2.4-1.6c1.1-0.4,2.3-0.6,3.5-0.6
	c1.2,0,2.4,0.2,3.5,0.6c0.9,0.3,1.8,0.9,2.4,1.6c0.6,0.7,1.1,1.5,1.4,2.4c0.3,0.9,0.5,1.9,0.5,2.9v4c0,1-0.2,2-0.5,2.9
	c-0.3,0.9-0.8,1.7-1.4,2.4c-0.7,0.7-1.5,1.2-2.4,1.6c-1.1,0.4-2.3,0.6-3.5,0.6c-1.2,0-2.4-0.2-3.5-0.6c-0.9-0.3-1.8-0.9-2.4-1.6
	c-0.6-0.7-1.1-1.5-1.4-2.4c-0.3-0.9-0.5-1.9-0.5-2.9V90.1z M201.4,94.1c-0.1,1.2,0.3,2.4,1.1,3.3c0.9,0.7,2,1.1,3.1,1
	c1.1,0.1,2.2-0.3,3.1-1c0.8-0.9,1.2-2.1,1.1-3.3v-4c0.1-1.2-0.3-2.4-1.1-3.3c-0.9-0.7-2-1.1-3.1-1c-1.1-0.1-2.2,0.3-3.1,1
	c-0.8,0.9-1.3,2.1-1.1,3.3V94.1z"/>
<path class="st1" d="M220.9,84.3c0-0.4,0.2-0.7,0.5-0.9c0.4-0.3,0.9-0.4,1.4-0.4h4.4c1.2,0,2.4,0.1,3.5,0.4c0.9,0.2,1.7,0.6,2.4,1.1
	c0.6,0.5,1,1.1,1.3,1.7c0.3,0.7,0.4,1.5,0.4,2.3v0.2c0,0.9-0.2,1.8-0.7,2.5c-0.7,0.8-1.6,1.4-2.6,1.7l3.4,6.5c0.2,0.3,0.3,0.7,0.1,1
	c-0.2,0.4-0.6,0.8-1,1c-0.4,0.2-0.9,0.3-1.3,0.2c-0.4-0.1-0.7-0.3-0.9-0.6l-3.5-6.9c-0.2,0-0.4,0-0.5,0h-3.2v6.2
	c0,0.4-0.2,0.7-0.5,0.9c-0.4,0.3-0.8,0.4-1.3,0.4c-0.5,0-1-0.1-1.4-0.5c-0.3-0.2-0.5-0.6-0.5-1L220.9,84.3z M224.5,85.8v5.5h2.6
	c1,0.1,2.1-0.1,3-0.7c0.6-0.4,0.9-1,0.9-1.7v-0.6c0-0.8-0.3-1.5-0.9-1.9c-0.9-0.5-2-0.8-3-0.7L224.5,85.8z"/>
<path class="st1" d="M252.7,82.9c0.5,0,1,0.1,1.4,0.4c0.3,0.3,0.5,0.7,0.4,1.1c0,0.4-0.1,0.8-0.4,1.1c-0.4,0.3-0.9,0.5-1.4,0.4h-4.1
	v14.2c0,0.4-0.2,0.7-0.5,0.9c-0.4,0.3-0.8,0.4-1.3,0.4c-0.5,0-1-0.1-1.4-0.4c-0.3-0.2-0.5-0.6-0.5-0.9V86h-3.7
	c-0.5,0-0.9-0.1-1.3-0.4c-0.3-0.3-0.5-0.7-0.5-1.1c0-0.4,0.2-0.8,0.5-1.1c0.4-0.3,0.8-0.4,1.3-0.4L252.7,82.9z"/>
</svg>
