<?xml version="1.0" encoding="utf-8"?>
<!-- Generator: Adobe Illustrator 23.0.4, SVG Export Plug-In . SVG Version: 6.00 Build 0)  -->
<svg version="1.1" id="Layer_1" xmlns="http://www.w3.org/2000/svg" xmlns:xlink="http://www.w3.org/1999/xlink" x="0px" y="0px"
	 viewBox="0 0 343.7 155.1" style="enable-background:new 0 0 343.7 155.1;" xml:space="preserve">
<style type="text/css">
	.st0{opacity:0.2;fill:#E6E6E6;enable-background:new    ;}
	.st1{fill:#6B6A6A;}
	.st2{fill:#E30427;}
</style>
<title>pos</title>
<rect x="-21" y="-14" class="st0" width="389" height="182"/>
<path class="st1" d="M54.1,99.7c0-1.2,1-2.3,2.2-2.3c0.9,0,1.7,0.5,2,1.3c0.1,0.3,0.2,0.6,0.2,0.9c0,1.2-1,2.2-2.2,2.2
	S54,100.9,54.1,99.7 M91,49.9c1.3,0,2.3,1,2.2,2.3c0,0,0,0,0,0c0,0.3-0.1,0.6-0.2,0.9c-0.5,1.1-1.9,1.6-3,1.1s-1.6-1.9-1.1-3
	C89.3,50.4,90.2,49.8,91,49.9 M58.4,93.6v-10l33.2-11.3c0.8-0.3,1.4-1.1,1.4-2v-12c3.3-1.1,5.1-4.7,4-8.1c-1.1-3.3-4.7-5.1-8.1-4
	s-5.1,4.7-4,8.1c0.6,1.9,2.1,3.3,4,4v10.6L55.7,80.1c-0.9,0.3-1.4,1.1-1.4,2v11.5c-3.3,1.1-5.1,4.7-4,8.1s4.7,5.1,8.1,4
	c3.3-1.1,5.1-4.7,4-8.1C61.7,95.7,60.3,94.3,58.4,93.6"/>
<path class="st2" d="M58.6,52.2c0,0.3-0.1,0.6-0.2,0.9c-0.5,1.2-1.9,1.7-3,1.2c-1.2-0.5-1.7-1.9-1.2-3c0.5-1.2,1.9-1.7,3-1.2
	C58.1,50.4,58.6,51.2,58.6,52.2 M73.7,61.3c1.3,0,2.3,1,2.3,2.3c0,1.3-1,2.3-2.3,2.3h-0.2c-1.3-0.1-2.2-1.2-2.1-2.5
	c0.1-0.6,0.3-1.1,0.8-1.5C72.5,61.5,73.1,61.3,73.7,61.3 M54.3,58.2v11.2c0,0.7,0.3,1.3,0.8,1.7c0.3,0.3,0.8,0.4,1.2,0.4
	c0.2,0,0.4,0,0.7-0.1l11.6-4c1.2,1.6,3,2.5,5,2.5c3.6,0.1,6.5-2.8,6.6-6.3c0.1-3.6-2.8-6.5-6.3-6.6c-3.6-0.1-6.5,2.8-6.6,6.3
	c0,0,0,0.1,0,0.1l-8.9,3v-8.3c3.3-1.1,5.1-4.7,4-8.1c-1.1-3.3-4.7-5.1-8.1-4s-5.1,4.7-4,8.1C50.9,56.1,52.4,57.6,54.3,58.2"/>
<path class="st2" d="M88.7,99.7c0-0.3,0.1-0.6,0.2-0.9c0.5-1.1,1.8-1.7,2.9-1.2c0.5,0.2,0.9,0.6,1.2,1.2c0.1,0.3,0.2,0.6,0.2,0.9
	c0,1.2-1,2.2-2.2,2.2S88.7,100.9,88.7,99.7 M73.7,91.1c-1.3-0.1-2.2-1.2-2.1-2.4c0.1-1.1,1-2.1,2.1-2.1h0.2c1.3,0.1,2.2,1.3,2.1,2.5
	c-0.1,0.6-0.3,1.1-0.8,1.5C74.8,90.9,74.2,91.1,73.7,91.1 M93,93.6V82.9c0-0.7-0.3-1.3-0.8-1.7c-0.5-0.4-1.2-0.5-1.8-0.2l-11.6,4
	c-1.2-1.6-3-2.5-5-2.5c-3.6-0.1-6.5,2.7-6.6,6.3c-0.1,3.6,2.7,6.5,6.3,6.6c3.6,0.1,6.5-2.7,6.6-6.3c0-0.1,0-0.1,0-0.2l8.9-3v7.8
	c-3.3,1.1-5.1,4.7-4,8.1c1.1,3.3,4.7,5.1,8.1,4c3.3-1.1,5.1-4.7,4-8.1C96.3,95.7,94.9,94.3,93,93.6"/>
<path class="st2" d="M127.8,57.8c-0.5,0-1,0.1-1.4,0.5c-0.3,0.3-0.5,0.7-0.5,1.1v6.2h-7.3v-6.2c0-0.4-0.2-0.8-0.5-1.1
	c-0.4-0.3-0.8-0.5-1.3-0.5c-0.5,0-1,0.1-1.4,0.5c-0.3,0.3-0.5,0.7-0.5,1.1V75c0,0.4,0.2,0.8,0.5,1.1c0.4,0.3,0.9,0.5,1.4,0.5
	c0.5,0,1-0.2,1.3-0.5c0.3-0.3,0.5-0.7,0.5-1.1v-5.9h7.3V75c0,0.4,0.2,0.8,0.5,1.1c0.4,0.3,0.9,0.5,1.4,0.5c0.5,0,1-0.2,1.3-0.5
	c0.3-0.3,0.5-0.7,0.5-1.1V59.4c0-0.4-0.2-0.8-0.5-1.1C128.8,57.9,128.3,57.8,127.8,57.8"/>
<path class="st2" d="M169.2,63.7v0.5c0,0.5-0.2,1.1-0.7,1.4c-0.7,0.4-1.6,0.6-2.5,0.6h-3.2v-4.7h3.2c0.9-0.1,1.7,0.1,2.4,0.6
	C168.9,62.4,169.2,63,169.2,63.7 M170.1,68.1c0.8-0.3,1.6-0.9,2.1-1.6c0.5-0.8,0.7-1.7,0.7-2.6v-0.2c0-0.8-0.1-1.6-0.4-2.3
	c-0.2-0.7-0.7-1.3-1.2-1.8c-0.6-0.5-1.4-0.9-2.2-1.2c-1-0.3-2.1-0.4-3.2-0.4h-5c-0.5,0-1,0.1-1.4,0.5c-0.3,0.3-0.5,0.7-0.6,1.1v15.2
	c0,0.4,0.2,0.9,0.5,1.2c0.4,0.4,0.9,0.6,1.4,0.5c0.5,0,1-0.1,1.3-0.4c0.3-0.3,0.5-0.7,0.5-1.1v-5.7h4l3,6.4c0.2,0.4,0.6,0.6,1,0.7
	c0.2,0,0.3,0.1,0.5,0.1c0.3,0,0.6-0.1,0.9-0.2c0.4-0.2,0.8-0.6,1-1.1c0.2-0.4,0.1-0.9-0.2-1.2L170.1,68.1z"/>
<path class="st2" d="M190.3,65.6v3.6c0.1,1-0.3,2-1,2.7c-0.8,0.6-1.7,1-2.7,0.9h-2.9V61.6h2.9c1-0.1,2,0.3,2.7,1
	C190,63.4,190.4,64.4,190.3,65.6 M192.3,60.3c-0.6-0.7-1.4-1.3-2.3-1.7c-1.1-0.4-2.2-0.6-3.3-0.6H182c-0.5,0-1,0.1-1.4,0.5
	c-0.3,0.3-0.5,0.7-0.5,1.1v15c0,0.4,0.2,0.8,0.5,1.1c0.4,0.3,0.9,0.5,1.4,0.5h4.7c1.1,0,2.3-0.2,3.3-0.6c0.9-0.3,1.7-0.9,2.3-1.6
	c0.6-0.7,1.1-1.5,1.4-2.4c0.3-0.9,0.4-1.9,0.4-2.9v-3c0-1-0.1-2-0.4-3C193.4,61.9,192.9,61.1,192.3,60.3"/>
<path class="st2" d="M239.7,69.1h-4.1l2-6L239.7,69.1z M240.2,59.1c0,0-0.5-1.3-2.6-1.3s-2.6,1.3-2.6,1.3l-5.3,15.3
	c-0.1,0.4,0,0.9,0.2,1.2c0.3,0.4,0.7,0.7,1.2,0.8c0.2,0,0.4,0.1,0.5,0.1c0.3,0,0.6-0.1,0.9-0.2c0.4-0.2,0.7-0.5,0.8-0.9l1-3h6.4l1,3
	c0.1,0.4,0.4,0.8,0.8,0.9c0.4,0.2,0.9,0.3,1.4,0.1c0.5-0.1,0.9-0.4,1.2-0.8c0.2-0.4,0.3-0.8,0.2-1.2L240.2,59.1z"/>
<path class="st2" d="M262.4,63.7v0.5c0,0.5-0.2,1.1-0.7,1.4c-0.7,0.5-1.6,0.7-2.5,0.6h-3.2v-4.7h3.2c0.9-0.1,1.7,0.1,2.5,0.6
	C262.2,62.4,262.4,63,262.4,63.7 M263.4,68.1c0.8-0.3,1.6-0.9,2.1-1.6c0.5-0.8,0.7-1.7,0.7-2.6v-0.2c0-0.8-0.1-1.6-0.4-2.3
	c-0.2-0.7-0.7-1.3-1.2-1.8c-0.6-0.5-1.4-0.9-2.2-1.2c-1.4-0.3-2.9-0.4-4.4-0.4h-3.8c-0.5,0-1,0.1-1.4,0.5c-0.3,0.3-0.5,0.7-0.6,1.1
	v15.2c0,0.4,0.2,0.9,0.5,1.2c0.8,0.7,1.9,0.7,2.7,0.1c0.3-0.3,0.5-0.7,0.5-1.1v-5.7h4l3,6.4c0.2,0.4,0.6,0.6,1,0.7
	c0.2,0,0.3,0.1,0.5,0.1c0.3,0,0.6-0.1,0.9-0.2c0.4-0.2,0.8-0.6,1-1.1c0.2-0.4,0.2-0.9-0.1-1.2L263.4,68.1z"/>
<path class="st2" d="M275.2,57.8c-0.5,0-1,0.1-1.4,0.5c-0.3,0.3-0.5,0.7-0.5,1.1v15.6c0,0.4,0.2,0.8,0.5,1.1
	c0.4,0.3,0.9,0.5,1.4,0.5c0.5,0,1-0.2,1.3-0.5c0.3-0.3,0.5-0.7,0.5-1.1V59.4c0-0.4-0.2-0.8-0.5-1.1
	C276.1,57.9,275.6,57.8,275.2,57.8"/>
<path class="st2" d="M291.5,73c-1.1,0-2.2-0.3-3.1-0.9c-0.7-0.8-1-1.9-0.9-3v-3.9c-0.1-1.1,0.2-2.2,0.9-3c1.9-1.2,4.3-1.2,6.2,0
	c0.7,0.8,1,1.9,0.9,3v3.9c0.1,1.1-0.2,2.2-0.9,3C293.7,72.7,292.6,73.1,291.5,73 M298.8,62.3c-0.3-0.9-0.7-1.7-1.3-2.3
	c-0.6-0.7-1.4-1.2-2.2-1.6c-2.5-0.8-5.1-0.8-7.5,0c-0.9,0.4-1.6,0.9-2.2,1.6c-0.6,0.7-1,1.5-1.3,2.4c-0.3,0.9-0.4,1.9-0.4,2.9v3.8
	c0,1,0.1,2,0.4,2.9c0.3,0.9,0.7,1.7,1.3,2.4c0.6,0.7,1.4,1.3,2.2,1.6c2.5,0.8,5.1,0.8,7.5,0c0.9-0.4,1.6-0.9,2.2-1.6
	c0.6-0.7,1.1-1.5,1.3-2.4c0.3-0.9,0.4-1.9,0.4-2.9v-3.8C299.3,64.3,299.1,63.3,298.8,62.3"/>
<path class="st2" d="M224.8,58.8c-0.2-0.5-0.6-0.8-1.1-1c-0.5-0.2-1-0.1-1.4,0.1c-0.4,0.2-0.8,0.6-0.9,1.1L218,69l-3.4-10
	c-0.3-0.7-1-1.3-1.8-1.3c-0.8,0-1.6,0.5-1.8,1.3l-3.4,10l-3.4-10c-0.2-0.5-0.5-0.9-1-1.1c-0.4-0.2-1-0.3-1.4-0.1
	c-1,0.4-1.5,1.4-1.1,2.4l5.2,15c0.2,0.8,0.9,1.3,1.8,1.3c0.8,0,1.5-0.5,1.8-1.3l3.4-10l3.4,9.9c0.2,0.8,1,1.4,1.9,1.3
	c0.8,0,1.5-0.5,1.7-1.2l5.2-15C225.1,59.8,225.1,59.3,224.8,58.8"/>
<path class="st2" d="M146.5,69.1h-4.1l2-6L146.5,69.1z M147,59.1c0,0-0.5-1.3-2.6-1.3s-2.6,1.3-2.6,1.3l-5.3,15.3
	c-0.1,0.4,0,0.9,0.2,1.2c0.3,0.4,0.7,0.7,1.2,0.8c0.2,0,0.4,0.1,0.5,0.1c0.3,0,0.6-0.1,0.8-0.2c0.4-0.2,0.7-0.5,0.8-0.9l1.1-3h6.4
	l1,3c0.1,0.4,0.4,0.8,0.8,0.9c0.4,0.2,0.9,0.3,1.4,0.1c0.5-0.1,0.9-0.4,1.2-0.8c0.2-0.4,0.3-0.8,0.2-1.2L147,59.1z"/>
<path class="st1" d="M146.9,83.8c0-0.2,0.1-0.3,0.2-0.4c0.2-0.1,0.3-0.2,0.5-0.2c0.2,0,0.4,0.1,0.5,0.2c0.1,0.1,0.2,0.2,0.2,0.4v7
	c0,0.2-0.1,0.3-0.2,0.4c-0.1,0.1-0.3,0.2-0.5,0.2c-0.2,0-0.4-0.1-0.5-0.2c-0.1-0.1-0.2-0.2-0.2-0.4V83.8z"/>
<path class="st1" d="M150.8,83.8c0-0.2,0.1-0.3,0.2-0.4c0.2-0.1,0.4-0.2,0.6-0.2c0.2,0,0.3,0,0.5,0.1c0.1,0.1,0.2,0.2,0.2,0.3
	l3.4,4.9v-4.8c0-0.2,0.1-0.3,0.2-0.4c0.2-0.1,0.3-0.2,0.5-0.2c0.2,0,0.4,0.1,0.5,0.2c0.1,0.1,0.2,0.3,0.2,0.4v7
	c0,0.2-0.1,0.3-0.2,0.4c-0.1,0.1-0.3,0.2-0.5,0.2c-0.2,0-0.3,0-0.4-0.1c-0.1-0.1-0.2-0.2-0.2-0.3V91l-3.3-4.8v4.7
	c0,0.2-0.1,0.3-0.2,0.4c-0.1,0.1-0.3,0.2-0.5,0.2c-0.2,0-0.4-0.1-0.6-0.2c-0.1-0.1-0.2-0.2-0.2-0.4L150.8,83.8z"/>
<path class="st1" d="M159.6,84c0-0.2,0.1-0.3,0.2-0.4c0.2-0.1,0.3-0.2,0.5-0.2h1.6c0.5,0,1,0.1,1.5,0.3c0.8,0.3,1.4,0.9,1.6,1.7
	c0.1,0.4,0.2,0.9,0.2,1.3v1.4c0,0.4-0.1,0.8-0.2,1.2c-0.1,0.4-0.3,0.7-0.6,1c-0.3,0.3-0.6,0.5-1,0.7c-0.5,0.2-1,0.3-1.5,0.2h-1.6
	c-0.2,0-0.4-0.1-0.5-0.2c-0.1-0.1-0.2-0.2-0.2-0.4L159.6,84z M161,84.7V90h0.9c0.5,0,1-0.1,1.3-0.4c0.3-0.3,0.5-0.8,0.5-1.3v-1.6
	c0-0.5-0.1-1-0.5-1.4c-0.4-0.4-0.8-0.5-1.3-0.5L161,84.7z"/>
<path class="st1" d="M170.6,91.5c-0.5,0-1-0.1-1.4-0.2c-0.4-0.1-0.7-0.3-1-0.6c-0.2-0.3-0.4-0.6-0.6-0.9c-0.1-0.4-0.2-0.7-0.2-1.1
	v-4.7c0-0.2,0.1-0.3,0.2-0.4c0.2-0.1,0.3-0.2,0.5-0.2c0.2,0,0.4,0.1,0.5,0.2c0.1,0.1,0.2,0.3,0.2,0.4v4.7c0,1.1,0.5,1.6,1.6,1.6
	c0.8,0.1,1.5-0.4,1.6-1.2c0-0.1,0-0.3,0-0.4v-4.7c0-0.2,0.1-0.3,0.2-0.4c0.1-0.1,0.3-0.2,0.5-0.2c0.2,0,0.4,0.1,0.5,0.2
	c0.1,0.1,0.2,0.2,0.2,0.4v4.7c0,0.4-0.1,0.8-0.2,1.1c-0.1,0.3-0.3,0.7-0.6,0.9c-0.3,0.3-0.6,0.5-1,0.6
	C171.5,91.4,171.1,91.5,170.6,91.5z"/>
<path class="st1" d="M178.6,91.5c-0.2,0-0.3,0-0.5,0c-0.2,0-0.4-0.1-0.6-0.1c-0.2-0.1-0.4-0.1-0.6-0.2c-0.2-0.1-0.4-0.2-0.5-0.3
	c-0.2-0.1-0.3-0.2-0.4-0.4c-0.1-0.1-0.2-0.3-0.1-0.5c0-0.4,0.2-0.6,0.6-0.6c0.1,0,0.3,0,0.4,0.1c0.1,0.1,0.2,0.1,0.3,0.2
	c0.2,0.2,0.4,0.3,0.6,0.4c0.3,0.1,0.5,0.2,0.8,0.2c0.3,0,0.5-0.1,0.8-0.2c0.2-0.2,0.3-0.4,0.3-0.7c0-0.2-0.1-0.5-0.3-0.7
	c-0.2-0.2-0.4-0.3-0.7-0.4l-0.9-0.4c-0.3-0.1-0.6-0.3-0.9-0.5c-0.3-0.2-0.5-0.4-0.7-0.7c-0.2-0.3-0.3-0.7-0.3-1.1
	c0-0.3,0.1-0.6,0.2-0.9c0.1-0.3,0.3-0.5,0.5-0.7c0.2-0.2,0.5-0.4,0.8-0.5c0.3-0.1,0.7-0.2,1.1-0.2c0.4,0,0.7,0,1.1,0.2
	c0.3,0.1,0.5,0.2,0.8,0.4c0.2,0.1,0.3,0.3,0.5,0.5c0.1,0.1,0.1,0.3,0.2,0.4c0,0.2,0,0.3-0.1,0.5c-0.1,0.1-0.3,0.2-0.5,0.2
	c-0.1,0-0.2,0-0.4-0.1c-0.1-0.1-0.2-0.1-0.3-0.2c-0.1-0.1-0.3-0.2-0.5-0.3c-0.3-0.1-0.5-0.2-0.8-0.2c-0.3,0-0.5,0.1-0.7,0.2
	c-0.2,0.2-0.3,0.4-0.3,0.7c0,0.2,0.1,0.5,0.3,0.6c0.2,0.2,0.4,0.3,0.7,0.4c0.3,0.1,0.6,0.2,0.9,0.4c0.3,0.1,0.6,0.3,0.9,0.5
	c0.3,0.2,0.5,0.4,0.7,0.7c0.5,0.9,0.3,2-0.4,2.8C180,91.3,179.3,91.5,178.6,91.5z"/>
<path class="st1" d="M188.1,83.4c0.2,0,0.4,0,0.6,0.2c0.1,0.1,0.2,0.3,0.2,0.5c0,0.2-0.1,0.3-0.2,0.5c-0.2,0.1-0.3,0.2-0.6,0.2h-1.6
	v6.2c0,0.2-0.1,0.3-0.2,0.4c-0.1,0.1-0.3,0.2-0.5,0.2c-0.2,0-0.4-0.1-0.6-0.2c-0.1-0.1-0.2-0.2-0.2-0.4v-6.2h-1.5
	c-0.2,0-0.4-0.1-0.5-0.2c-0.1-0.1-0.2-0.3-0.2-0.5c0-0.2,0.1-0.4,0.2-0.5c0.1-0.1,0.3-0.2,0.5-0.2H188.1z"/>
<path class="st1" d="M190.6,84c0-0.2,0.1-0.3,0.2-0.4c0.2-0.1,0.3-0.2,0.5-0.2h1.8c0.5,0,1,0,1.4,0.2c0.3,0.1,0.7,0.3,0.9,0.5
	c0.2,0.2,0.4,0.5,0.5,0.8c0.1,0.3,0.2,0.7,0.2,1v0.1c0.1,0.8-0.5,1.6-1.3,1.8l1.4,2.8c0.1,0.1,0.1,0.3,0,0.4
	c-0.1,0.2-0.2,0.3-0.4,0.4c-0.2,0.1-0.4,0.1-0.5,0.1c-0.2,0-0.3-0.1-0.4-0.2l-1.4-3H192v2.7c0,0.2-0.1,0.3-0.2,0.4
	c-0.1,0.1-0.3,0.2-0.5,0.2c-0.2,0-0.4-0.1-0.5-0.2c-0.1-0.1-0.2-0.3-0.2-0.4L190.6,84z M192.1,84.7V87h1.1c0.4,0,0.8-0.1,1.2-0.3
	c0.2-0.2,0.4-0.4,0.4-0.7v-0.2c0-0.3-0.1-0.6-0.4-0.8c-0.4-0.2-0.8-0.3-1.2-0.3L192.1,84.7z"/>
<path class="st1" d="M198.3,83.8c0-0.2,0.1-0.3,0.2-0.4c0.2-0.1,0.3-0.2,0.5-0.2c0.2,0,0.4,0.1,0.5,0.2c0.1,0.1,0.2,0.2,0.2,0.4v7
	c0,0.2-0.1,0.3-0.2,0.4c-0.1,0.1-0.3,0.2-0.5,0.2c-0.2,0-0.4-0.1-0.5-0.2c-0.1-0.1-0.2-0.2-0.2-0.4V83.8z"/>
<path class="st1" d="M208.2,90.6c0,0.1,0,0.3-0.1,0.4c-0.1,0.2-0.3,0.3-0.5,0.3c-0.2,0.1-0.4,0-0.6-0.1c-0.1-0.1-0.3-0.2-0.3-0.3
	l-0.4-1.4h-2.7l-0.5,1.4c-0.1,0.1-0.2,0.3-0.3,0.3c-0.2,0.1-0.4,0.1-0.5,0c-0.2,0-0.4-0.1-0.5-0.3c-0.1-0.1-0.1-0.3-0.1-0.4l2.4-6.9
	c0.1-0.1,0.2-0.3,0.3-0.4c0.3-0.2,0.7-0.2,1.1,0c0.1,0.1,0.2,0.2,0.3,0.4L208.2,90.6z M204,88.4h1.9l-1-3.1L204,88.4z"/>
<path class="st1" d="M210.2,83.8c0-0.2,0.1-0.3,0.2-0.4c0.2-0.1,0.4-0.2,0.6-0.2c0.2,0,0.4,0.1,0.5,0.2c0.1,0.1,0.2,0.3,0.2,0.4V90
	h2.6c0.2,0,0.4,0.1,0.5,0.2c0.1,0.1,0.2,0.3,0.2,0.5c0,0.2-0.1,0.3-0.2,0.5c-0.1,0.1-0.3,0.2-0.5,0.2h-3.4c-0.2,0-0.4-0.1-0.5-0.2
	c-0.1-0.1-0.2-0.2-0.2-0.4V83.8z"/>
<path class="st1" d="M220.5,83.8c0-0.2,0.1-0.3,0.2-0.4c0.2-0.1,0.4-0.2,0.6-0.2c0.2,0,0.4,0.1,0.5,0.2c0.1,0.1,0.2,0.3,0.2,0.4v7
	c0,0.2-0.1,0.3-0.2,0.4c-0.1,0.1-0.3,0.2-0.5,0.2c-0.2,0-0.4-0.1-0.6-0.2c-0.1-0.1-0.2-0.3-0.2-0.4V83.8z"/>
<path class="st1" d="M224.3,86.5c0-0.4,0.1-0.9,0.2-1.3c0.1-0.4,0.3-0.7,0.6-1c0.3-0.3,0.6-0.5,1-0.7c0.9-0.3,1.9-0.3,2.8,0
	c0.8,0.3,1.3,0.9,1.6,1.7c0.1,0.4,0.2,0.8,0.2,1.3v1.7c0,0.4-0.1,0.9-0.2,1.3c-0.2,0.8-0.8,1.4-1.6,1.7c-0.9,0.3-1.9,0.3-2.8,0
	c-0.4-0.1-0.7-0.4-1-0.7c-0.3-0.3-0.4-0.6-0.6-1c-0.1-0.4-0.2-0.8-0.2-1.3V86.5z M225.8,88.2c0,0.5,0.1,1,0.5,1.4
	c0.3,0.3,0.8,0.4,1.2,0.4c0.5,0,0.9-0.1,1.2-0.4c0.3-0.4,0.5-0.9,0.4-1.4v-1.8c0.1-0.5-0.1-1-0.4-1.4c-0.3-0.3-0.8-0.5-1.2-0.4
	c-0.5,0-0.9,0.1-1.2,0.4c-0.3,0.4-0.5,0.9-0.5,1.4V88.2z"/>
<path class="st1" d="M237.2,83.4c0.2,0,0.4,0,0.5,0.2c0.1,0.1,0.2,0.3,0.2,0.4c0,0.2-0.1,0.3-0.2,0.5c-0.1,0.1-0.3,0.2-0.5,0.2h-1.6
	v6.2c0,0.2-0.1,0.3-0.2,0.4c-0.1,0.1-0.3,0.2-0.5,0.2c-0.2,0-0.4-0.1-0.6-0.2c-0.1-0.1-0.2-0.2-0.2-0.4v-6.2h-1.5
	c-0.2,0-0.4-0.1-0.5-0.2c-0.1-0.1-0.2-0.3-0.2-0.5c0-0.2,0.1-0.4,0.2-0.5c0.1-0.1,0.3-0.2,0.5-0.2L237.2,83.4z"/>
<path class="st1" d="M243.5,83.8c0-0.2,0.1-0.3,0.2-0.4c0.2-0.1,0.3-0.2,0.5-0.2c0.2,0,0.4,0.1,0.5,0.2c0.1,0.1,0.2,0.2,0.2,0.4v3
	h0.4l2.4-3.4c0.1-0.1,0.1-0.1,0.2-0.1c0.1,0,0.2-0.1,0.3-0.1c0.1,0,0.2,0,0.3,0c0.1,0,0.2,0.1,0.3,0.1c0.2,0.1,0.2,0.3,0.2,0.5
	c0,0.2-0.1,0.3-0.2,0.4l-2.2,3l2.5,3c0.1,0.1,0.2,0.3,0.1,0.4c0,0.2-0.1,0.4-0.3,0.5c-0.1,0.1-0.3,0.2-0.5,0.2
	c-0.2,0-0.3-0.1-0.4-0.2l-2.6-3.2H245v2.8c0,0.2-0.1,0.3-0.2,0.4c-0.1,0.1-0.3,0.2-0.5,0.2c-0.2,0-0.4-0.1-0.5-0.2
	c-0.1-0.1-0.2-0.2-0.2-0.4L243.5,83.8z"/>
<path class="st1" d="M251,83.8c0-0.2,0.1-0.3,0.2-0.4c0.2-0.1,0.4-0.2,0.6-0.2c0.2,0,0.4,0.1,0.5,0.2c0.1,0.1,0.2,0.3,0.2,0.4v7
	c0,0.2-0.1,0.3-0.2,0.4c-0.1,0.1-0.3,0.2-0.5,0.2c-0.2,0-0.4-0.1-0.6-0.2c-0.1-0.1-0.2-0.3-0.2-0.4V83.8z"/>
<path class="st1" d="M259.5,83.4c0.2,0,0.4,0,0.5,0.2c0.1,0.1,0.2,0.3,0.2,0.5c0,0.2-0.1,0.3-0.2,0.5c-0.1,0.1-0.3,0.2-0.5,0.2h-1.6
	v6.2c0,0.2-0.1,0.3-0.2,0.4c-0.1,0.1-0.3,0.2-0.5,0.2c-0.2,0-0.4-0.1-0.5-0.2c-0.1-0.1-0.2-0.2-0.2-0.4v-6.2H255
	c-0.2,0-0.4-0.1-0.5-0.2c-0.1-0.1-0.2-0.3-0.2-0.5c0-0.2,0.1-0.4,0.2-0.5c0.1-0.1,0.3-0.2,0.5-0.2H259.5z"/>
<path class="st1" d="M264.3,91.5c-0.2,0-0.3,0-0.5,0c-0.2,0-0.4-0.1-0.6-0.1c-0.2-0.1-0.4-0.1-0.6-0.2c-0.2-0.1-0.4-0.2-0.5-0.3
	c-0.2-0.1-0.3-0.2-0.4-0.4c-0.1-0.1-0.2-0.3-0.1-0.5c0-0.4,0.2-0.6,0.6-0.6c0.1,0,0.3,0,0.4,0.1c0.1,0.1,0.2,0.1,0.3,0.2
	c0.2,0.2,0.4,0.3,0.6,0.4c0.3,0.1,0.5,0.2,0.8,0.2c0.3,0,0.5-0.1,0.8-0.2c0.2-0.2,0.3-0.4,0.3-0.7c0-0.2-0.1-0.5-0.3-0.7
	c-0.2-0.2-0.4-0.3-0.7-0.4c-0.3-0.1-0.6-0.3-0.9-0.4c-0.3-0.1-0.6-0.3-0.9-0.5c-0.3-0.2-0.5-0.4-0.7-0.7c-0.2-0.3-0.3-0.7-0.3-1.1
	c0-0.3,0.1-0.6,0.2-0.9c0.2-0.6,0.7-1,1.3-1.2c0.3-0.1,0.7-0.2,1.1-0.2c0.4,0,0.7,0,1.1,0.2c0.3,0.1,0.5,0.2,0.8,0.4
	c0.2,0.1,0.3,0.3,0.5,0.5c0.1,0.1,0.1,0.3,0.2,0.4c0,0.2,0,0.3-0.1,0.5c-0.1,0.1-0.3,0.2-0.5,0.2c-0.1,0-0.2,0-0.4-0.1
	c-0.1-0.1-0.2-0.1-0.3-0.2c-0.1-0.1-0.3-0.2-0.5-0.3c-0.3-0.1-0.5-0.2-0.8-0.2c-0.3,0-0.5,0.1-0.7,0.2c-0.2,0.2-0.3,0.4-0.3,0.7
	c0,0.2,0.1,0.5,0.3,0.6c0.2,0.2,0.4,0.3,0.7,0.4c0.3,0.1,0.6,0.2,0.9,0.4c0.3,0.1,0.6,0.3,0.9,0.5c0.3,0.2,0.5,0.4,0.7,0.7
	c0.2,0.3,0.3,0.7,0.3,1.1c0,0.6-0.2,1.2-0.7,1.7C265.7,91.3,265,91.5,264.3,91.5z"/>
</svg>
