<?xml version="1.0" encoding="utf-8"?>
<!-- Generator: Adobe Illustrator 23.0.4, SVG Export Plug-In . SVG Version: 6.00 Build 0)  -->
<svg version="1.1" id="Layer_1" xmlns="http://www.w3.org/2000/svg" xmlns:xlink="http://www.w3.org/1999/xlink" x="0px" y="0px"
	 viewBox="0 0 343.7 155.1" style="enable-background:new 0 0 343.7 155.1;" xml:space="preserve">
<style type="text/css">
	.st0{fill:#252532;}
	.st1{fill:#FFFFFF;}
	.st2{fill:#E30427;}
</style>
<title>neg</title>
<rect x="-23" y="-14" class="st0" width="389" height="182"/>
<g>
	<path class="st1" d="M51.2,102.1c0-0.3,0.1-0.6,0.2-0.9c0.3-0.8,1.1-1.3,2-1.3c0.9,0,1.7,0.5,2.1,1.3c0.1,0.3,0.2,0.6,0.2,0.9
		c0.1,1.2-0.9,2.3-2.1,2.4c-1.2,0.1-2.3-0.9-2.4-2.1C51.1,102.3,51.1,102.2,51.2,102.1 M88,52.3c1.2,0,2.3,1,2.2,2.3c0,0,0,0,0,0
		c0,1.2-1,2.3-2.2,2.3c-0.9,0-1.6-0.6-2-1.4c-0.1-0.3-0.2-0.6-0.2-0.9C85.8,53.3,86.8,52.3,88,52.3 M55.5,96V86l33.2-11.3
		c0.8-0.3,1.4-1.1,1.4-2V60.6c3.3-1.1,5.1-4.7,3.9-8c-1.1-3.3-4.7-5.1-8-3.9s-5.1,4.7-3.9,8c0.6,1.9,2.1,3.3,3.9,3.9v10.6L52.8,82.5
		c-0.8,0.3-1.4,1.1-1.4,2V96c-3.3,1.1-5.1,4.7-3.9,8s4.7,5.1,8,3.9c3.3-1.1,5.1-4.7,3.9-8C58.8,98.1,57.3,96.6,55.5,96"/>
	<path class="st2" d="M55.7,54.5c0,1.2-1,2.3-2.2,2.3c-0.9,0-1.7-0.5-2.1-1.3c-0.1-0.3-0.2-0.6-0.2-0.9c-0.1-1.2,0.9-2.3,2.1-2.4
		s2.3,0.9,2.4,2.1C55.7,54.3,55.7,54.4,55.7,54.5 M70.7,63.7c1.3,0,2.3,1,2.3,2.3s-1,2.3-2.3,2.3h-0.2c-1.1-0.1-2-1.1-2-2.3
		c0-0.6,0.3-1.2,0.7-1.7C69.6,63.9,70.2,63.7,70.7,63.7 M51.3,60.6v11.2c0,0.7,0.3,1.3,0.9,1.7c0.3,0.3,0.8,0.4,1.2,0.4
		c0.2,0,0.4,0,0.7-0.1l11.6-4c1.2,1.6,3,2.5,5,2.5c3.6,0.1,6.5-2.8,6.5-6.3c0.1-3.6-2.8-6.5-6.3-6.5c-3.6-0.1-6.5,2.8-6.5,6.3
		c0,0,0,0,0,0.1l-8.9,3v-8.3c3.3-1.1,5.1-4.7,3.9-8c-1.1-3.3-4.7-5.1-8-3.9s-5.1,4.7-3.9,8C48,58.5,49.5,60,51.3,60.6"/>
	<path class="st2" d="M85.8,102.1c0-0.3,0.1-0.6,0.2-0.9c0.3-0.8,1.1-1.3,2-1.3c0.9,0,1.7,0.5,2.1,1.3c0.1,0.3,0.2,0.6,0.2,0.9
		c0.1,1.2-0.9,2.3-2.1,2.4c-1.2,0.1-2.3-0.9-2.4-2.1C85.7,102.3,85.7,102.2,85.8,102.1 M70.7,93.5c-1.3,0-2.3-1-2.3-2.3
		c0-1.3,1-2.3,2.3-2.3h0.2c1.1,0.1,2,1.1,2,2.3c0,0.6-0.3,1.2-0.7,1.7C71.8,93.3,71.3,93.5,70.7,93.5 M90.1,96V85.3
		c0-0.7-0.3-1.3-0.9-1.7c-0.5-0.4-1.2-0.5-1.8-0.3l-11.6,4c-1.2-1.6-3-2.5-5-2.5c-3.6-0.1-6.5,2.8-6.5,6.3c-0.1,3.6,2.8,6.5,6.3,6.5
		c3.6,0.1,6.5-2.8,6.5-6.3c0,0,0,0,0-0.1l8.9-3V96c-3.3,1.1-5.1,4.7-3.9,8c1.1,3.3,4.7,5.1,8,3.9c3.3-1.1,5.1-4.7,3.9-8
		C93.4,98.1,92,96.6,90.1,96"/>
	<path class="st2" d="M124.9,60.2c-0.5,0-1,0.1-1.4,0.5c-0.3,0.3-0.5,0.7-0.5,1.1V68h-7.3v-6.2c0-0.4-0.2-0.8-0.5-1.1
		c-0.4-0.3-0.8-0.5-1.3-0.5c-0.5,0-1,0.2-1.4,0.5c-0.3,0.3-0.5,0.7-0.6,1.1v15.6c0,0.4,0.2,0.8,0.6,1.1c0.4,0.3,0.9,0.5,1.4,0.5
		c0.5,0,1-0.2,1.3-0.5c0.3-0.3,0.5-0.7,0.5-1.1v-5.9h7.3v5.9c0,0.4,0.2,0.8,0.5,1.1c0.4,0.3,0.9,0.5,1.4,0.5c0.5,0,0.9-0.2,1.3-0.5
		c0.3-0.3,0.5-0.7,0.5-1.1V61.8c0-0.4-0.2-0.8-0.5-1.1C125.9,60.3,125.4,60.2,124.9,60.2"/>
	<path class="st2" d="M166.2,66v0.5c0,0.5-0.2,1.1-0.7,1.4c-0.7,0.4-1.6,0.6-2.5,0.6h-3.2v-4.7h3.2c0.9-0.1,1.7,0.1,2.5,0.6
		C166,64.8,166.3,65.4,166.2,66 M167.2,70.5c0.8-0.3,1.6-0.9,2.1-1.6c0.5-0.8,0.7-1.7,0.7-2.6v-0.2c0-0.8-0.1-1.6-0.4-2.3
		c-0.2-0.7-0.7-1.3-1.2-1.8c-0.6-0.5-1.4-0.9-2.2-1.2c-1-0.3-2.1-0.4-3.2-0.4h-5c-0.5,0-1,0.1-1.4,0.5c-0.3,0.3-0.5,0.7-0.6,1.1
		v15.2c0,0.4,0.2,0.9,0.5,1.2c0.8,0.7,1.9,0.7,2.7,0.1c0.3-0.3,0.5-0.7,0.5-1.1v-5.7h4l3,6.4c0.2,0.4,0.6,0.6,1,0.7
		c0.1,0,0.3,0.1,0.4,0.1c0.3,0,0.6-0.1,0.9-0.2c0.4-0.2,0.8-0.6,1-1.1c0.2-0.4,0.1-0.9-0.1-1.2L167.2,70.5z"/>
	<path class="st2" d="M187.4,67.9v3.6c0.1,1-0.3,2-1,2.7c-0.8,0.6-1.7,1-2.7,0.9h-2.8V64h2.8c1-0.1,2,0.3,2.7,1
		C187.1,65.8,187.4,66.9,187.4,67.9 M189.4,62.7c-0.7-0.7-1.5-1.3-2.4-1.7c-1.1-0.4-2.2-0.6-3.3-0.6H179c-0.5,0-1,0.1-1.4,0.5
		c-0.3,0.3-0.5,0.7-0.5,1.1v15c0,0.4,0.2,0.8,0.5,1.1c0.4,0.3,0.9,0.5,1.4,0.5h4.7c1.1,0,2.3-0.2,3.3-0.5c0.9-0.4,1.7-0.9,2.4-1.6
		c0.6-0.7,1.1-1.5,1.4-2.4c0.3-0.9,0.4-1.9,0.4-2.9v-3.1c0-1-0.1-2-0.4-3C190.4,64.3,190,63.4,189.4,62.7"/>
	<path class="st2" d="M236.8,71.5h-4.1l2-6L236.8,71.5z M237.3,61.5c0,0-0.5-1.3-2.6-1.3s-2.6,1.3-2.6,1.3l-5.3,15.3
		c-0.1,0.4,0,0.8,0.2,1.2c0.3,0.4,0.7,0.7,1.2,0.8c0.2,0,0.4,0.1,0.5,0.1c0.3,0,0.6-0.1,0.8-0.2c0.4-0.2,0.7-0.5,0.8-0.9l1-3h6.4
		l1,3c0.1,0.4,0.4,0.7,0.8,0.9c0.4,0.2,0.9,0.3,1.4,0.1c0.5-0.1,0.9-0.4,1.2-0.8c0.2-0.4,0.3-0.8,0.2-1.2L237.3,61.5z"/>
	<path class="st2" d="M259.5,66v0.5c0,0.6-0.2,1.1-0.7,1.4c-0.7,0.4-1.6,0.6-2.5,0.6h-3.2v-4.7h3.2c0.9-0.1,1.7,0.1,2.5,0.6
		C259.3,64.8,259.5,65.4,259.5,66 M260.5,70.5c0.8-0.3,1.6-0.9,2.1-1.6c0.5-0.8,0.7-1.7,0.7-2.6v-0.2c0-0.8-0.1-1.6-0.4-2.3
		c-0.2-0.7-0.7-1.3-1.2-1.8c-0.6-0.5-1.4-0.9-2.2-1.2c-1.4-0.3-2.9-0.4-4.4-0.4h-3.8c-0.5,0-1,0.1-1.4,0.5c-0.3,0.3-0.5,0.7-0.5,1.1
		v15.3c0,0.4,0.2,0.9,0.5,1.2c0.4,0.4,0.9,0.5,1.4,0.5c0.5,0,0.9-0.1,1.3-0.4c0.3-0.3,0.5-0.7,0.5-1.1v-5.7h4l3,6.4
		c0.2,0.4,0.6,0.6,1,0.7c0.1,0,0.3,0.1,0.5,0.1c0.3,0,0.6-0.1,0.9-0.2c0.4-0.2,0.8-0.6,1-1.1c0.2-0.4,0.1-0.9-0.1-1.2L260.5,70.5z"
		/>
	<path class="st2" d="M272.2,60.2c-0.5,0-1,0.1-1.4,0.5c-0.3,0.3-0.5,0.7-0.5,1.1v15.6c0,0.4,0.2,0.8,0.5,1.1
		c0.4,0.3,0.9,0.5,1.4,0.5c0.5,0,0.9-0.2,1.3-0.5c0.3-0.3,0.5-0.7,0.5-1.1V61.8c0-0.4-0.2-0.8-0.5-1.1
		C273.2,60.3,272.7,60.2,272.2,60.2"/>
	<path class="st2" d="M288.5,75.4c-1.1,0-2.2-0.3-3.1-0.9c-0.7-0.8-1-1.9-0.9-3v-3.9c-0.1-1.1,0.2-2.2,0.9-3c1.9-1.2,4.3-1.2,6.2,0
		c0.7,0.8,1,1.9,0.9,3v3.9c0.1,1.1-0.2,2.2-0.9,3C290.8,75.1,289.7,75.4,288.5,75.4 M295.9,64.7c-0.3-0.9-0.7-1.7-1.3-2.4
		c-0.6-0.7-1.4-1.2-2.2-1.6c-1.2-0.4-2.5-0.6-3.8-0.6c-1.3,0-2.5,0.2-3.8,0.6c-0.9,0.4-1.6,0.9-2.2,1.6c-0.6,0.7-1,1.5-1.3,2.4
		c-0.3,0.9-0.4,1.9-0.4,2.9v3.9c0,1,0.1,2,0.4,2.9c0.3,0.9,0.7,1.7,1.3,2.4c0.6,0.7,1.4,1.2,2.2,1.6c1.2,0.4,2.5,0.6,3.8,0.6
		c1.3,0,2.6-0.2,3.8-0.6c0.9-0.4,1.6-0.9,2.2-1.6c0.6-0.7,1.1-1.5,1.3-2.4c0.3-0.9,0.4-1.9,0.4-2.9v-3.9
		C296.3,66.6,296.2,65.7,295.9,64.7"/>
	<path class="st2" d="M221.9,61.2c-0.4-0.9-1.5-1.3-2.4-0.9c-0.5,0.2-0.8,0.6-1,1.1l-3.4,10l-3.4-10c-0.3-0.7-1-1.2-1.8-1.3
		c-0.8,0-1.5,0.5-1.8,1.3l-3.4,10l-3.4-10c-0.2-0.5-0.5-0.9-1-1.1c-0.4-0.2-1-0.3-1.4-0.1c-1,0.4-1.5,1.4-1.1,2.4l5.2,15
		c0.2,0.8,1,1.3,1.8,1.3c0.8,0,1.5-0.5,1.8-1.3l3.4-10l3.4,9.9c0.3,1,1.4,1.5,2.3,1.2c0.6-0.2,1-0.6,1.2-1.2l5.2-15
		C222.1,62.2,222.1,61.7,221.9,61.2"/>
	<path class="st2" d="M143.6,71.5h-4.1l2.1-6L143.6,71.5z M144.1,61.5c0,0-0.5-1.3-2.6-1.3s-2.6,1.3-2.6,1.3l-5.3,15.3
		c-0.1,0.4,0,0.9,0.2,1.2c0.3,0.4,0.7,0.7,1.2,0.8c0.2,0.1,0.4,0.1,0.5,0.1c0.3,0,0.6-0.1,0.8-0.2c0.4-0.2,0.7-0.5,0.8-0.9l1.1-3
		h6.4l1,3c0.1,0.4,0.4,0.7,0.8,0.9c0.4,0.2,0.9,0.3,1.4,0.1c0.5-0.1,0.9-0.4,1.2-0.8c0.2-0.4,0.3-0.8,0.2-1.2L144.1,61.5z"/>
	<path class="st1" d="M144,86.2c0-0.2,0.1-0.3,0.2-0.4c0.2-0.1,0.4-0.2,0.6-0.2c0.2,0,0.4,0.1,0.5,0.2c0.1,0.1,0.2,0.3,0.2,0.4v7
		c0,0.2-0.1,0.3-0.2,0.4c-0.1,0.1-0.3,0.2-0.5,0.2c-0.2,0-0.4-0.1-0.6-0.2c-0.1-0.1-0.2-0.2-0.2-0.4V86.2z"/>
	<path class="st1" d="M147.9,86.2c0-0.2,0.1-0.3,0.2-0.4c0.2-0.1,0.3-0.2,0.5-0.2c0.2,0,0.3,0,0.5,0.2c0.1,0.1,0.2,0.2,0.2,0.3
		l3.3,4.9v-4.8c0-0.2,0.1-0.3,0.2-0.4c0.2-0.1,0.4-0.2,0.6-0.2c0.2,0,0.4,0.1,0.5,0.2c0.1,0.1,0.2,0.3,0.2,0.4v7
		c0,0.2-0.1,0.3-0.2,0.4c-0.1,0.1-0.3,0.2-0.5,0.2c-0.2,0-0.3,0-0.4-0.1c-0.1-0.1-0.2-0.2-0.3-0.3v-0.1l-3.3-4.8v4.7
		c0,0.2-0.1,0.3-0.2,0.4c-0.1,0.1-0.3,0.2-0.5,0.2c-0.2,0-0.4-0.1-0.5-0.2c-0.1-0.1-0.2-0.2-0.2-0.4L147.9,86.2z"/>
	<path class="st1" d="M156.6,86.3c0-0.2,0.1-0.3,0.2-0.4c0.2-0.1,0.4-0.2,0.6-0.2h1.6c0.5,0,1,0.1,1.5,0.3c0.4,0.2,0.7,0.4,1,0.7
		c0.3,0.3,0.5,0.7,0.6,1.1c0.1,0.4,0.2,0.9,0.2,1.3v1.4c0,0.4-0.1,0.9-0.2,1.3c-0.1,0.4-0.3,0.7-0.6,1c-0.3,0.3-0.6,0.5-1,0.7
		c-0.5,0.2-1,0.3-1.5,0.2h-1.6c-0.2,0-0.4-0.1-0.6-0.2c-0.1-0.1-0.2-0.3-0.2-0.4L156.6,86.3z M158.1,87.1v5.3h0.9
		c0.5,0,1-0.1,1.4-0.4c0.3-0.3,0.5-0.8,0.5-1.3V89c0-0.5-0.1-1-0.5-1.4c-0.4-0.4-0.8-0.5-1.4-0.5H158.1z"/>
	<path class="st1" d="M167.7,93.8c-0.5,0-1-0.1-1.4-0.2c-0.4-0.1-0.7-0.4-1-0.6c-0.3-0.3-0.4-0.6-0.6-0.9c-0.1-0.4-0.2-0.7-0.2-1.1
		v-4.7c0-0.2,0.1-0.3,0.2-0.4c0.2-0.1,0.3-0.2,0.5-0.2c0.2,0,0.4,0.1,0.5,0.2c0.1,0.1,0.2,0.3,0.2,0.4v4.7c0.1,0.9,0.9,1.6,1.8,1.5
		c0.8-0.1,1.4-0.7,1.5-1.5v-4.7c0-0.2,0.1-0.3,0.2-0.4c0.1-0.1,0.3-0.2,0.5-0.2c0.2,0,0.4,0.1,0.5,0.2c0.1,0.1,0.2,0.2,0.2,0.4v4.7
		c0,0.4-0.1,0.8-0.2,1.1c-0.1,0.4-0.3,0.7-0.5,1c-0.3,0.3-0.6,0.5-0.9,0.6C168.6,93.8,168.1,93.8,167.7,93.8z"/>
	<path class="st1" d="M175.7,93.8c-0.2,0-0.3,0-0.5,0c-0.2,0-0.4-0.1-0.6-0.1c-0.2-0.1-0.4-0.1-0.6-0.2c-0.2-0.1-0.4-0.2-0.5-0.3
		c-0.1-0.1-0.3-0.2-0.4-0.4c-0.1-0.1-0.2-0.3-0.1-0.5c0-0.4,0.2-0.6,0.6-0.6c0.1,0,0.3,0,0.4,0.1c0.1,0.1,0.2,0.1,0.3,0.2
		c0.2,0.2,0.4,0.3,0.6,0.3c0.3,0.1,0.5,0.2,0.8,0.2c0.3,0,0.6-0.1,0.8-0.2c0.2-0.2,0.3-0.4,0.3-0.7c0-0.2-0.1-0.5-0.3-0.7
		c-0.2-0.2-0.4-0.3-0.7-0.5c-0.3-0.1-0.6-0.3-0.9-0.4c-0.3-0.1-0.6-0.3-0.9-0.5c-0.3-0.2-0.5-0.4-0.7-0.7c-0.2-0.3-0.3-0.7-0.3-1.1
		c0-0.3,0-0.7,0.2-1c0.1-0.3,0.3-0.5,0.5-0.7c0.2-0.2,0.5-0.4,0.8-0.5c0.3-0.1,0.7-0.2,1.1-0.2c0.4,0,0.7,0.1,1.1,0.2
		c0.3,0.1,0.5,0.2,0.8,0.4c0.2,0.1,0.4,0.3,0.5,0.5c0.1,0.1,0.1,0.3,0.2,0.4c0,0.2,0,0.3-0.1,0.5c-0.1,0.1-0.3,0.2-0.5,0.2
		c-0.1,0-0.3,0-0.4-0.1c-0.1-0.1-0.2-0.1-0.3-0.2c-0.1-0.1-0.3-0.2-0.5-0.3c-0.3-0.1-0.5-0.2-0.8-0.2c-0.3,0-0.5,0.1-0.7,0.2
		c-0.2,0.2-0.3,0.4-0.3,0.7c0,0.2,0.1,0.5,0.3,0.6c0.2,0.2,0.4,0.3,0.7,0.4l0.9,0.4c0.3,0.1,0.6,0.3,0.9,0.5
		c0.3,0.2,0.5,0.4,0.7,0.7c0.2,0.3,0.3,0.7,0.3,1.1c0,0.6-0.2,1.2-0.7,1.7C177,93.7,176.4,93.9,175.7,93.8z"/>
	<path class="st1" d="M185.2,85.8c0.2,0,0.4,0,0.5,0.2c0.1,0.1,0.2,0.3,0.2,0.5c0,0.2-0.1,0.3-0.2,0.5c-0.1,0.1-0.3,0.2-0.5,0.2
		h-1.6v6.2c0,0.2-0.1,0.3-0.2,0.4c-0.1,0.1-0.3,0.2-0.5,0.2c-0.2,0-0.4-0.1-0.5-0.2c-0.1-0.1-0.2-0.2-0.2-0.4v-6.2h-1.5
		c-0.2,0-0.4-0.1-0.5-0.2c-0.1-0.1-0.2-0.3-0.2-0.5c0-0.2,0.1-0.4,0.2-0.5c0.1-0.1,0.3-0.2,0.5-0.2H185.2z"/>
	<path class="st1" d="M187.7,86.3c0-0.2,0.1-0.3,0.2-0.4c0.2-0.1,0.3-0.2,0.5-0.2h1.8c0.5,0,1,0,1.4,0.2c0.3,0.1,0.7,0.3,0.9,0.5
		c0.2,0.2,0.4,0.5,0.5,0.8c0.1,0.3,0.2,0.7,0.2,1v0.1c0.1,0.8-0.5,1.6-1.3,1.8l1.4,2.8c0.1,0.1,0.1,0.3,0,0.4
		c-0.1,0.2-0.2,0.3-0.4,0.4c-0.2,0.1-0.4,0.1-0.5,0.1c-0.2,0-0.3-0.1-0.4-0.3l-1.4-3h-0.2h-1.3v2.7c0,0.2-0.1,0.3-0.2,0.4
		c-0.1,0.1-0.3,0.2-0.5,0.2c-0.2,0-0.4-0.1-0.5-0.2c-0.1-0.1-0.2-0.3-0.2-0.4L187.7,86.3z M189.1,87v2.4h1c0.4,0,0.8-0.1,1.2-0.3
		c0.2-0.2,0.4-0.4,0.4-0.7v-0.2c0-0.3-0.1-0.6-0.4-0.8c-0.4-0.2-0.8-0.4-1.2-0.3L189.1,87z"/>
	<path class="st1" d="M195.3,86.2c0-0.2,0.1-0.3,0.2-0.4c0.2-0.1,0.4-0.2,0.6-0.2c0.2,0,0.4,0.1,0.5,0.2c0.1,0.1,0.2,0.3,0.2,0.4v7
		c0,0.2-0.1,0.3-0.2,0.4c-0.1,0.1-0.3,0.2-0.5,0.2c-0.2,0-0.4-0.1-0.6-0.2c-0.1-0.1-0.2-0.2-0.2-0.4V86.2z"/>
	<path class="st1" d="M205.2,93c0,0.2,0,0.3-0.1,0.4c-0.1,0.2-0.3,0.3-0.5,0.3c-0.2,0.1-0.4,0.1-0.6,0c-0.1-0.1-0.3-0.2-0.3-0.3
		l-0.4-1.4h-2.7l-0.5,1.4c-0.1,0.2-0.2,0.3-0.3,0.3c-0.2,0.1-0.4,0.1-0.5,0c-0.2,0-0.4-0.2-0.5-0.3c-0.1-0.1-0.1-0.3-0.1-0.4
		l2.4-6.9c0-0.2,0.1-0.3,0.3-0.4c0.3-0.2,0.7-0.2,1,0c0.1,0.1,0.2,0.2,0.3,0.4L205.2,93z M201.1,90.7h1.9l-1-3.1L201.1,90.7z"/>
	<path class="st1" d="M207.3,86.2c0-0.2,0.1-0.3,0.2-0.4c0.2-0.1,0.4-0.2,0.6-0.2c0.2,0,0.4,0.1,0.5,0.2c0.1,0.1,0.2,0.3,0.2,0.4
		v6.2h2.6c0.2,0,0.4,0.1,0.5,0.2c0.1,0.1,0.2,0.3,0.2,0.5c0,0.2-0.1,0.3-0.2,0.5c-0.1,0.1-0.3,0.2-0.5,0.2h-3.4
		c-0.2,0-0.4-0.1-0.5-0.2c-0.1-0.1-0.2-0.2-0.2-0.4L207.3,86.2z"/>
	<path class="st1" d="M217.6,86.2c0-0.2,0.1-0.3,0.2-0.4c0.2-0.1,0.4-0.2,0.6-0.2c0.2,0,0.4,0.1,0.5,0.2c0.1,0.1,0.2,0.3,0.2,0.4v7
		c0,0.2-0.1,0.3-0.2,0.4c-0.1,0.1-0.3,0.2-0.5,0.2c-0.2,0-0.4-0.1-0.6-0.2c-0.1-0.1-0.2-0.2-0.2-0.4V86.2z"/>
	<path class="st1" d="M221.4,88.9c0-0.4,0.1-0.9,0.2-1.3c0.1-0.4,0.3-0.7,0.6-1c0.3-0.3,0.6-0.5,1-0.7c0.9-0.3,1.9-0.3,2.8,0
		c0.4,0.2,0.7,0.4,1,0.7c0.3,0.3,0.5,0.6,0.6,1c0.1,0.4,0.2,0.8,0.2,1.3v1.7c0,0.4-0.1,0.9-0.2,1.3c-0.1,0.4-0.3,0.7-0.6,1
		c-0.3,0.3-0.6,0.5-1,0.7c-0.9,0.3-1.9,0.3-2.8,0c-0.4-0.1-0.7-0.4-1-0.7c-0.3-0.3-0.5-0.6-0.6-1c-0.1-0.4-0.2-0.8-0.2-1.3V88.9z
		 M222.8,90.6c-0.1,0.5,0.1,1.1,0.5,1.4c0.7,0.6,1.8,0.6,2.5,0c0.3-0.4,0.5-0.9,0.4-1.4v-1.8c0-0.5-0.1-1-0.4-1.4
		c-0.7-0.6-1.8-0.6-2.5,0c-0.3,0.4-0.5,0.9-0.5,1.4V90.6z"/>
	<path class="st1" d="M234.3,85.8c0.2,0,0.4,0,0.5,0.2c0.1,0.1,0.2,0.3,0.2,0.5c0,0.2-0.1,0.3-0.2,0.5c-0.1,0.1-0.3,0.2-0.5,0.2
		h-1.6v6.2c0,0.2-0.1,0.3-0.2,0.4c-0.1,0.1-0.3,0.2-0.5,0.2c-0.2,0-0.4-0.1-0.5-0.2c-0.1-0.1-0.2-0.2-0.2-0.4v-6.2h-1.5
		c-0.2,0-0.4-0.1-0.5-0.2c-0.1-0.1-0.2-0.3-0.2-0.5c0-0.2,0.1-0.4,0.2-0.5c0.1-0.1,0.3-0.2,0.5-0.2H234.3z"/>
	<path class="st1" d="M240.6,86.2c0-0.2,0.1-0.3,0.2-0.4c0.2-0.1,0.4-0.2,0.6-0.2c0.2,0,0.4,0.1,0.5,0.2c0.1,0.1,0.2,0.3,0.2,0.4v3
		h0.4l2.4-3.4c0.1-0.1,0.1-0.1,0.2-0.2c0.1,0,0.2-0.1,0.3-0.1c0.1,0,0.2,0,0.3,0c0.1,0,0.2,0.1,0.3,0.1c0.1,0.1,0.2,0.3,0.2,0.5
		c0,0.2-0.1,0.3-0.2,0.5l-2.2,3l2.5,3c0.1,0.1,0.2,0.3,0.1,0.4c-0.1,0.4-0.4,0.7-0.8,0.7c-0.2,0-0.3-0.1-0.4-0.2l-2.6-3.2H242v2.8
		c0,0.2-0.1,0.3-0.2,0.4c-0.1,0.1-0.3,0.2-0.5,0.2c-0.2,0-0.4-0.1-0.6-0.2c-0.1-0.1-0.2-0.2-0.2-0.4V86.2z"/>
	<path class="st1" d="M248,86.2c0-0.2,0.1-0.3,0.2-0.4c0.2-0.1,0.4-0.2,0.6-0.2c0.2,0,0.4,0.1,0.5,0.2c0.1,0.1,0.2,0.3,0.2,0.4v7
		c0,0.2-0.1,0.3-0.2,0.4c-0.1,0.1-0.3,0.2-0.5,0.2c-0.2,0-0.4-0.1-0.6-0.2c-0.1-0.1-0.2-0.2-0.2-0.4V86.2z"/>
	<path class="st1" d="M256.6,85.8c0.2,0,0.4,0,0.5,0.2c0.1,0.1,0.2,0.3,0.2,0.5c0,0.2-0.1,0.3-0.2,0.5c-0.2,0.1-0.3,0.2-0.5,0.2
		h-1.6v6.2c0,0.2-0.1,0.3-0.2,0.4c-0.1,0.1-0.3,0.2-0.5,0.2c-0.2,0-0.4-0.1-0.6-0.2c-0.1-0.1-0.2-0.2-0.2-0.4v-6.2H252
		c-0.2,0-0.4-0.1-0.5-0.2c-0.1-0.1-0.2-0.3-0.2-0.5c0-0.2,0.1-0.4,0.2-0.5c0.1-0.1,0.3-0.2,0.5-0.2H256.6z"/>
	<path class="st1" d="M261.4,93.8c-0.2,0-0.3,0-0.5,0c-0.2,0-0.4-0.1-0.6-0.1c-0.2-0.1-0.4-0.1-0.6-0.2c-0.2-0.1-0.4-0.2-0.5-0.3
		c-0.1-0.1-0.3-0.2-0.4-0.4c-0.1-0.1-0.2-0.3-0.1-0.5c0-0.4,0.2-0.6,0.6-0.6c0.1,0,0.3,0,0.4,0.1c0.1,0.1,0.2,0.1,0.3,0.2
		c0.2,0.2,0.4,0.3,0.6,0.3c0.3,0.1,0.5,0.2,0.8,0.2c0.3,0,0.6-0.1,0.8-0.2c0.2-0.2,0.3-0.4,0.3-0.7c0-0.2-0.1-0.5-0.3-0.7
		c-0.2-0.2-0.4-0.3-0.7-0.5c-0.3-0.1-0.6-0.3-0.9-0.4c-0.3-0.1-0.6-0.3-0.9-0.5c-0.3-0.2-0.5-0.4-0.7-0.7c-0.2-0.3-0.3-0.7-0.3-1.1
		c0-0.3,0-0.7,0.2-1c0.1-0.3,0.3-0.5,0.5-0.7c0.2-0.2,0.5-0.4,0.8-0.5c0.3-0.1,0.7-0.2,1.1-0.2c0.4,0,0.7,0,1.1,0.2
		c0.3,0.1,0.5,0.2,0.8,0.4c0.2,0.1,0.4,0.3,0.5,0.5c0.1,0.1,0.1,0.3,0.2,0.4c0,0.2,0,0.3-0.1,0.5c-0.1,0.1-0.3,0.2-0.5,0.2
		c-0.1,0-0.3,0-0.4-0.1c-0.1-0.1-0.2-0.1-0.3-0.2c-0.1-0.1-0.3-0.2-0.5-0.3c-0.3-0.1-0.5-0.2-0.8-0.2c-0.3,0-0.5,0.1-0.7,0.2
		c-0.2,0.2-0.3,0.4-0.3,0.7c0,0.2,0.1,0.5,0.3,0.6c0.2,0.2,0.4,0.3,0.7,0.4l0.9,0.4c0.3,0.1,0.6,0.3,0.9,0.5
		c0.3,0.2,0.5,0.4,0.7,0.7c0.2,0.3,0.3,0.7,0.3,1.1c0,0.6-0.2,1.2-0.7,1.7C262.8,93.7,262.1,93.9,261.4,93.8z"/>
</g>
</svg>
