<svg xmlns="http://www.w3.org/2000/svg" width="389" height="182" viewBox="0 0 389 182"><defs><style>.cls-1{fill:#252532;}.cls-2{fill:#fff;}.cls-3{fill:#e30427;}</style></defs><title>logo-negative</title><g id="Layer_2" data-name="Layer 2"><g id="Layer_1-2" data-name="Layer 1"><rect class="cls-1" width="389" height="182"/><path class="cls-2" d="M74.1,114.77a2.25,2.25,0,1,1,2.25,2.28,2.25,2.25,0,0,1-2.25-2.28M111,65a2.27,2.27,0,0,1,2.25,2.28,2.22,2.22,0,0,1-.2.93,2.23,2.23,0,0,1-4.1,0,2.22,2.22,0,0,1-.2-.93A2.27,2.27,0,0,1,111,65M78.4,108.68v-10l33.23-11.3a2.07,2.07,0,0,0,1.4-2V73.32a6.35,6.35,0,1,0-4.1,0V83.9L75.7,95.2a2.08,2.08,0,0,0-1.4,2v11.5a6.35,6.35,0,1,0,4.1,0"/><path class="cls-3" d="M78.6,67.23a2.22,2.22,0,0,1-.2.93,2.23,2.23,0,0,1-4.1,0,2.22,2.22,0,0,1-.2-.93,2.25,2.25,0,1,1,4.5,0m15.06,9.16a2.28,2.28,0,0,1,0,4.56h-.21a2.26,2.26,0,0,1-2-2.27A2.29,2.29,0,0,1,92.15,77a2.22,2.22,0,0,1,1.51-.6M74.3,73.32V84.56a2.1,2.1,0,0,0,.85,1.69,2,2,0,0,0,1.85.29l11.63-4a6.29,6.29,0,0,0,5,2.54,6.45,6.45,0,1,0-6.34-6.48l-8.92,3V73.32a6.35,6.35,0,1,0-4.1,0"/><path class="cls-3" d="M108.73,114.77a2.25,2.25,0,1,1,2.25,2.28,2.25,2.25,0,0,1-2.25-2.28m-15.06-8.59a2.28,2.28,0,0,1,0-4.56h.21a2.29,2.29,0,0,1,1.3,4,2.22,2.22,0,0,1-1.51.6m19.36,2.5V98a2.1,2.1,0,0,0-.85-1.69,2,2,0,0,0-1.85-.29L98.7,100a6.29,6.29,0,0,0-5-2.54,6.45,6.45,0,1,0,6.34,6.49l8.92-3v7.78a6.35,6.35,0,1,0,4.1,0"/><path class="cls-3" d="M147.59,81.63a2,2,0,0,0-1.39.47,1.51,1.51,0,0,0-.53,1.12v6.2h-7.33v-6.2a1.48,1.48,0,0,0-.51-1.11,1.85,1.85,0,0,0-1.32-.48,2,2,0,0,0-1.38.47,1.48,1.48,0,0,0-.55,1.12V98.81a1.48,1.48,0,0,0,.55,1.11,2,2,0,0,0,1.38.48,1.89,1.89,0,0,0,1.32-.48,1.51,1.51,0,0,0,.51-1.11V92.94h7.33v5.87a1.49,1.49,0,0,0,.53,1.11,2,2,0,0,0,1.39.48,1.87,1.87,0,0,0,1.31-.48,1.49,1.49,0,0,0,.53-1.11V83.22a1.48,1.48,0,0,0-.54-1.12,1.87,1.87,0,0,0-1.3-.47"/><path class="cls-3" d="M188.92,87.49V88a1.68,1.68,0,0,1-.69,1.39,4.08,4.08,0,0,1-2.47.57h-3.17V85.25h3.17a3.88,3.88,0,0,1,2.46.61,2,2,0,0,1,.7,1.63m1,4.42a4.49,4.49,0,0,0,2.08-1.6,4.76,4.76,0,0,0,.68-2.57v-.2a6.63,6.63,0,0,0-.37-2.29,4.46,4.46,0,0,0-1.2-1.8,5.69,5.69,0,0,0-2.16-1.15,11.33,11.33,0,0,0-3.18-.39h-5a2,2,0,0,0-1.38.47,1.46,1.46,0,0,0-.54,1.11V98.72a1.6,1.6,0,0,0,.53,1.15,1.91,1.91,0,0,0,1.39.53,1.88,1.88,0,0,0,1.31-.45,1.39,1.39,0,0,0,.52-1.09V93.21h4l3,6.45a1.54,1.54,0,0,0,1,.7,1.73,1.73,0,0,0,.45.05,2,2,0,0,0,.94-.24,2.25,2.25,0,0,0,1-1.1,1.22,1.22,0,0,0-.1-1.21Z"/><path class="cls-3" d="M210.05,89.39V93a3.51,3.51,0,0,1-1,2.68,3.9,3.9,0,0,1-2.73.91h-2.85V85.42h2.85a3.56,3.56,0,0,1,2.72,1,4.2,4.2,0,0,1,1,2.94m2-5.2a6.52,6.52,0,0,0-2.34-1.67,8.25,8.25,0,0,0-3.31-.61h-4.68a2,2,0,0,0-1.4.47,1.51,1.51,0,0,0-.52,1.11v15a1.53,1.53,0,0,0,.52,1.12,2,2,0,0,0,1.4.47h4.68a8.82,8.82,0,0,0,3.31-.57A6.43,6.43,0,0,0,212,98a6.5,6.5,0,0,0,1.37-2.37,9.53,9.53,0,0,0,.43-2.87V89.66a10.44,10.44,0,0,0-.43-3A6.75,6.75,0,0,0,212,84.19"/><path class="cls-3" d="M259.46,93h-4.13l2-6ZM260,83s-.48-1.29-2.57-1.29S254.8,83,254.8,83l-5.32,15.28a1.49,1.49,0,0,0,.21,1.21,1.9,1.9,0,0,0,1.22.83,2.14,2.14,0,0,0,.54.08,1.74,1.74,0,0,0,.84-.21,1.64,1.64,0,0,0,.84-.92l1.05-3h6.43l1,3a1.56,1.56,0,0,0,.81.93,2,2,0,0,0,1.41.13,1.87,1.87,0,0,0,1.21-.84,1.52,1.52,0,0,0,.19-1.23Z"/><path class="cls-3" d="M282.15,87.49V88a1.68,1.68,0,0,1-.69,1.39A4.06,4.06,0,0,1,279,90h-3.17V85.25H279a3.85,3.85,0,0,1,2.45.61,2,2,0,0,1,.7,1.63m1,4.42a4.39,4.39,0,0,0,2.08-1.6,4.67,4.67,0,0,0,.68-2.57v-.2a6.92,6.92,0,0,0-.36-2.29,4.59,4.59,0,0,0-1.21-1.8,5.69,5.69,0,0,0-2.16-1.15,21.86,21.86,0,0,0-4.36-.39H274a2,2,0,0,0-1.37.47,1.44,1.44,0,0,0-.55,1.11V98.72a1.58,1.58,0,0,0,.54,1.15,1.89,1.89,0,0,0,1.38.53,1.92,1.92,0,0,0,1.32-.45,1.42,1.42,0,0,0,.52-1.09V93.21h4l3,6.45a1.57,1.57,0,0,0,1,.7,1.75,1.75,0,0,0,.46.05,2,2,0,0,0,.93-.24,2.2,2.2,0,0,0,1-1.1,1.22,1.22,0,0,0-.1-1.21Z"/><path class="cls-3" d="M294.9,81.63a2,2,0,0,0-1.39.47,1.51,1.51,0,0,0-.53,1.12V98.78a1.49,1.49,0,0,0,.53,1.11,2,2,0,0,0,1.39.48,1.87,1.87,0,0,0,1.31-.48,1.49,1.49,0,0,0,.53-1.11V83.22a1.51,1.51,0,0,0-.53-1.12,1.9,1.9,0,0,0-1.31-.47"/><path class="cls-3" d="M311.23,96.83a5.22,5.22,0,0,1-3.11-.87,4,4,0,0,1-.91-3V89.08a4.06,4.06,0,0,1,.91-3,6,6,0,0,1,6.24,0,4.14,4.14,0,0,1,.88,3V93a4.14,4.14,0,0,1-.88,3,5.18,5.18,0,0,1-3.13.87m7.35-10.66a6.44,6.44,0,0,0-1.32-2.38A6.37,6.37,0,0,0,315,82.2a12.75,12.75,0,0,0-7.54,0,6.12,6.12,0,0,0-2.23,1.59,6.42,6.42,0,0,0-1.31,2.38,9.8,9.8,0,0,0-.42,2.91v3.86a9.7,9.7,0,0,0,.42,2.91,6.42,6.42,0,0,0,1.31,2.38,6,6,0,0,0,2.23,1.59,12.54,12.54,0,0,0,7.54,0,6.25,6.25,0,0,0,2.25-1.59,6.44,6.44,0,0,0,1.32-2.38,9.7,9.7,0,0,0,.42-2.91V89.08a9.8,9.8,0,0,0-.42-2.91"/><path class="cls-3" d="M244.57,82.68a1.81,1.81,0,0,0-2.48-.89,1.8,1.8,0,0,0-.94,1.08l-3.44,9.95-3.42-10a1.91,1.91,0,0,0-1.77-1.25,1.83,1.83,0,0,0-1.74,1.26l-3.45,10-3.44-10a1.91,1.91,0,0,0-1-1.07,1.87,1.87,0,0,0-2.54,2.32l5.18,15a1.86,1.86,0,0,0,1.75,1.29,1.88,1.88,0,0,0,1.76-1.27l3.44-10L236,99.11a1.83,1.83,0,0,0,1.76,1.27,1.8,1.8,0,0,0,1.74-1.24l5.2-15a1.82,1.82,0,0,0-.08-1.43"/><path class="cls-3" d="M166.23,92.93H162.1l2-6Zm.49-10s-.48-1.28-2.58-1.28S161.57,83,161.57,83l-5.32,15.27a1.42,1.42,0,0,0,.21,1.21,1.89,1.89,0,0,0,1.22.84,2,2,0,0,0,.54.07,1.86,1.86,0,0,0,.84-.2,1.67,1.67,0,0,0,.84-.92l1-3h6.43l1,3a1.47,1.47,0,0,0,.81.93,2,2,0,0,0,1.41.13,1.89,1.89,0,0,0,1.21-.84A1.54,1.54,0,0,0,172,98.2Z"/></g></g></svg>