<svg xmlns="http://www.w3.org/2000/svg" width="389" height="182" viewBox="0 0 389 182"><defs><style>.cls-1{fill:#e6e6e6;opacity:0.2;}.cls-2{fill:#1a1a1a;}</style></defs><title>logo-bw-positive</title><g id="Layer_2" data-name="Layer 2"><g id="Layer_1-2" data-name="Layer 1"><rect class="cls-1" width="389" height="182"/><path class="cls-2" d="M75.13,115.77a2.41,2.41,0,0,1,.19-.93,2.3,2.3,0,1,1-.19.93M112,66a2.27,2.27,0,0,1,2.25,2.28A2.29,2.29,0,0,1,112,70.51a2.25,2.25,0,0,1-2-1.35,2.38,2.38,0,0,1-.19-.93A2.26,2.26,0,0,1,112,66M79.42,109.68v-10l33.24-11.3a2.07,2.07,0,0,0,1.39-2V74.32a6.34,6.34,0,1,0-4.1,0V84.9L76.72,96.2a2.1,2.1,0,0,0-1.4,2v11.5a6.35,6.35,0,1,0,4.1,0"/><path class="cls-2" d="M79.62,68.23a2.29,2.29,0,0,1-2.25,2.28,2.24,2.24,0,0,1-2.05-1.35,2.38,2.38,0,0,1-.19-.93,2.25,2.25,0,1,1,4.49,0m15.07,9.16a2.28,2.28,0,0,1,0,4.56h-.22a2.26,2.26,0,0,1-2-2.27A2.29,2.29,0,0,1,93.17,78a2.23,2.23,0,0,1,1.52-.6M75.32,74.32V85.56a2.08,2.08,0,0,0,.86,1.69,2,2,0,0,0,1.19.4,2.17,2.17,0,0,0,.66-.11l11.62-4a6.31,6.31,0,0,0,5,2.54,6.45,6.45,0,1,0-6.35-6.48l-8.92,3V74.32a6.34,6.34,0,1,0-4.1,0"/><path class="cls-2" d="M109.76,115.77a2.41,2.41,0,0,1,.19-.93,2.3,2.3,0,1,1-.19.93m-15.07-8.59a2.28,2.28,0,0,1,0-4.56h.22a2.26,2.26,0,0,1,2,2.27,2.32,2.32,0,0,1-.73,1.68,2.23,2.23,0,0,1-1.52.6m19.36,2.5V99a2.08,2.08,0,0,0-.85-1.69,2,2,0,0,0-1.85-.29l-11.63,4a6.29,6.29,0,0,0-5-2.54,6.45,6.45,0,1,0,6.35,6.49l8.91-3v7.78a6.35,6.35,0,1,0,4.1,0"/><path class="cls-2" d="M148.61,82.63a2,2,0,0,0-1.39.47,1.51,1.51,0,0,0-.53,1.12v6.2h-7.32v-6.2a1.46,1.46,0,0,0-.52-1.11,1.83,1.83,0,0,0-1.32-.48,2,2,0,0,0-1.37.47,1.45,1.45,0,0,0-.55,1.12V99.81a1.44,1.44,0,0,0,.55,1.11,2,2,0,0,0,1.37.48,1.88,1.88,0,0,0,1.32-.48,1.49,1.49,0,0,0,.52-1.11V93.94h7.32v5.87a1.49,1.49,0,0,0,.53,1.11,2,2,0,0,0,1.39.48,1.86,1.86,0,0,0,1.31-.48,1.49,1.49,0,0,0,.53-1.11V84.22a1.51,1.51,0,0,0-.53-1.12,1.9,1.9,0,0,0-1.31-.47"/><path class="cls-2" d="M189.94,88.49V89a1.68,1.68,0,0,1-.69,1.39,4.06,4.06,0,0,1-2.46.57h-3.17V86.25h3.17a3.9,3.9,0,0,1,2.46.61,2,2,0,0,1,.69,1.63m1,4.42a4.39,4.39,0,0,0,2.08-1.6,4.68,4.68,0,0,0,.69-2.57v-.2a6.87,6.87,0,0,0-.37-2.29,4.48,4.48,0,0,0-1.21-1.8A5.61,5.61,0,0,0,190,83.3a11.25,11.25,0,0,0-3.17-.39h-5a2,2,0,0,0-1.37.47,1.48,1.48,0,0,0-.55,1.11V99.72a1.58,1.58,0,0,0,.54,1.15,1.89,1.89,0,0,0,1.38.53,1.92,1.92,0,0,0,1.32-.45,1.42,1.42,0,0,0,.52-1.09V94.21h4l3,6.45a1.57,1.57,0,0,0,1,.7,1.75,1.75,0,0,0,.46.05,2,2,0,0,0,.93-.24,2.27,2.27,0,0,0,1-1.1,1.25,1.25,0,0,0-.11-1.21Z"/><path class="cls-2" d="M211.08,90.39V94a3.51,3.51,0,0,1-1,2.68,3.88,3.88,0,0,1-2.73.91h-2.84V86.42h2.84a3.54,3.54,0,0,1,2.72,1,4.16,4.16,0,0,1,1,2.94m2-5.2a6.7,6.7,0,0,0-2.34-1.67,8.3,8.3,0,0,0-3.32-.61H202.7a2,2,0,0,0-1.39.47,1.49,1.49,0,0,0-.53,1.11v15a1.51,1.51,0,0,0,.53,1.12,2,2,0,0,0,1.39.47h4.68a8.82,8.82,0,0,0,3.31-.57A6.35,6.35,0,0,0,213,99a6.5,6.5,0,0,0,1.37-2.37,9.23,9.23,0,0,0,.43-2.87V90.66a10.1,10.1,0,0,0-.43-3A6.73,6.73,0,0,0,213,85.19"/><path class="cls-2" d="M260.49,94h-4.14l2-6ZM261,84s-.49-1.29-2.58-1.29S255.83,84,255.83,84L250.5,99.26a1.49,1.49,0,0,0,.21,1.21,1.9,1.9,0,0,0,1.22.83,2.15,2.15,0,0,0,.55.08,1.77,1.77,0,0,0,.84-.21,1.64,1.64,0,0,0,.84-.92l1-3h6.43l1,3a1.59,1.59,0,0,0,.81.93,2,2,0,0,0,1.42.13,1.89,1.89,0,0,0,1.21-.84,1.51,1.51,0,0,0,.18-1.23Z"/><path class="cls-2" d="M283.17,88.49V89a1.66,1.66,0,0,1-.69,1.39A4,4,0,0,1,280,91h-3.17V86.25H280a3.9,3.9,0,0,1,2.46.61,2,2,0,0,1,.69,1.63m1,4.42a4.47,4.47,0,0,0,2.09-1.6,4.76,4.76,0,0,0,.68-2.57v-.2a6.67,6.67,0,0,0-.37-2.29,4.56,4.56,0,0,0-1.2-1.8,5.76,5.76,0,0,0-2.16-1.15,22,22,0,0,0-4.36-.39H275a2,2,0,0,0-1.37.47,1.48,1.48,0,0,0-.55,1.11V99.72a1.58,1.58,0,0,0,.54,1.15,2.11,2.11,0,0,0,2.7.08,1.39,1.39,0,0,0,.52-1.09V94.21h4l3,6.45a1.6,1.6,0,0,0,1,.7,1.8,1.8,0,0,0,.46.05,2,2,0,0,0,.94-.24,2.25,2.25,0,0,0,1-1.1,1.2,1.2,0,0,0-.11-1.21Z"/><path class="cls-2" d="M295.92,82.63a2,2,0,0,0-1.38.47,1.47,1.47,0,0,0-.53,1.12V99.78a1.45,1.45,0,0,0,.53,1.11,2,2,0,0,0,1.38.48,1.84,1.84,0,0,0,1.31-.48,1.45,1.45,0,0,0,.53-1.11V84.22a1.47,1.47,0,0,0-.53-1.12,1.88,1.88,0,0,0-1.31-.47"/><path class="cls-2" d="M312.25,97.83a5.17,5.17,0,0,1-3.1-.87,4,4,0,0,1-.91-3V90.08a4,4,0,0,1,.91-3,6,6,0,0,1,6.23,0,4.09,4.09,0,0,1,.89,3V94a4.09,4.09,0,0,1-.89,3,5.18,5.18,0,0,1-3.13.87m7.35-10.66a6.15,6.15,0,0,0-3.57-4,12.75,12.75,0,0,0-7.54,0,6.29,6.29,0,0,0-2.23,1.59A6.72,6.72,0,0,0,305,87.17a9.8,9.8,0,0,0-.42,2.91v3.86a9.7,9.7,0,0,0,.42,2.91,6.72,6.72,0,0,0,1.31,2.38,6.17,6.17,0,0,0,2.23,1.59,12.54,12.54,0,0,0,7.54,0,6.16,6.16,0,0,0,2.25-1.59,6.3,6.3,0,0,0,1.32-2.38,9.7,9.7,0,0,0,.42-2.91V90.08a9.8,9.8,0,0,0-.42-2.91"/><path class="cls-2" d="M245.6,83.68a1.86,1.86,0,0,0-1.06-1,1.86,1.86,0,0,0-2.37,1.17l-3.44,9.95-3.42-10a1.9,1.9,0,0,0-1.77-1.25,1.84,1.84,0,0,0-1.74,1.26l-3.45,10-3.44-10a1.85,1.85,0,0,0-.95-1.07,1.8,1.8,0,0,0-1.42-.08,1.91,1.91,0,0,0-1.13,2.4l5.18,15a1.84,1.84,0,0,0,3.51,0l3.44-10,3.44,9.94a1.85,1.85,0,0,0,3.5,0l5.2-15a1.87,1.87,0,0,0-.08-1.43"/><path class="cls-2" d="M167.25,93.93h-4.13l2-6Zm.49-10s-.48-1.28-2.57-1.28S162.59,84,162.59,84l-5.32,15.27a1.49,1.49,0,0,0,.21,1.21,1.94,1.94,0,0,0,1.22.84,2.11,2.11,0,0,0,.54.07,1.83,1.83,0,0,0,.84-.2,1.6,1.6,0,0,0,.84-.92l1.05-3h6.43l1,3a1.5,1.5,0,0,0,.81.93,2,2,0,0,0,1.42.13,1.87,1.87,0,0,0,1.2-.84,1.5,1.5,0,0,0,.19-1.22Z"/></g></g></svg>