<?xml version="1.0" encoding="utf-8"?>
<!-- Generator: Adobe Illustrator 26.0.3, SVG Export Plug-In . SVG Version: 6.00 Build 0)  -->
<svg version="1.1" id="Layer_1" xmlns="http://www.w3.org/2000/svg" xmlns:xlink="http://www.w3.org/1999/xlink" x="0px" y="0px"
	 viewBox="0 0 389 182" style="enable-background:new 0 0 389 182;" xml:space="preserve">
<style type="text/css">
	.st0{opacity:0.2;fill:#E6E6E6;enable-background:new    ;}
	.st1{fill:#6B6A6A;}
	.st2{fill:#E30427;}
</style>
<g id="Layer_2_00000016793539184719770390000011885323471834322103_">
	<g id="Layer_1-2">
		<rect class="st0" width="389" height="182"/>
		<g id="Vrstva_2">
			<g id="Layer_1_00000137109967058939730080000005512206186829468067_">
				<path class="st1" d="M75.1,115c0-1.2,1-2.3,2.2-2.3c0.9,0,1.7,0.5,2.1,1.3c0.1,0.3,0.2,0.6,0.2,0.9c0,1.2-1,2.2-2.2,2.2
					C76.1,117.2,75.1,116.2,75.1,115L75.1,115 M112,65.1c1.3,0,2.3,1,2.2,2.3c0,0,0,0,0,0c0,1.2-1,2.2-2.2,2.2c-1.2,0-2.2-1-2.2-2.2
					C109.7,66.2,110.7,65.1,112,65.1C112,65.1,112,65.1,112,65.1 M79.4,108.9v-10l33.2-11.3c0.8-0.3,1.4-1.1,1.4-2V73.5
					c3.3-1.1,5.1-4.7,4-8.1c-1.1-3.3-4.7-5.1-8.1-4c-3.3,1.1-5.1,4.7-4,8.1c0.6,1.9,2.1,3.3,4,4v10.6L76.7,95.4
					c-0.9,0.3-1.4,1.1-1.4,2v11.5c-3.4,1.2-5.1,4.9-3.9,8.2c0.9,2.5,3.3,4.3,6,4.3c3.6-0.1,6.4-3,6.3-6.6
					C83.6,112.2,81.9,109.8,79.4,108.9"/>
				<path class="st2" d="M79.6,67.4c0,1.2-1,2.2-2.2,2.2c-1.2,0-2.2-1-2.2-2.2s1-2.2,2.2-2.2C78.6,65.2,79.6,66.2,79.6,67.4
					 M94.6,76.6c1.3,0,2.3,1,2.3,2.3s-1,2.3-2.3,2.3h-0.2c-1.3-0.1-2.2-1.3-2-2.5c0.1-0.5,0.3-1,0.7-1.4
					C93.5,76.8,94.1,76.6,94.6,76.6 M75.3,73.5v11.2c0,0.7,0.3,1.3,0.8,1.7c0.3,0.3,0.8,0.4,1.2,0.4c0.2,0,0.4,0,0.7-0.1l11.6-4
					c1.2,1.6,3,2.5,5,2.5c3.6,0.1,6.5-2.8,6.6-6.3c0.1-3.6-2.8-6.5-6.3-6.6c-3.6-0.1-6.5,2.8-6.6,6.3c0,0,0,0.1,0,0.1l-8.9,3v-8.3
					c3.4-1.2,5.1-4.9,3.9-8.3C82.4,62.7,80,61,77.3,61c-3.6,0.1-6.4,3.1-6.3,6.6C71.1,70.3,72.8,72.6,75.3,73.5"/>
				<path class="st2" d="M109.7,115c0-0.3,0.1-0.6,0.2-0.9c0.5-1.1,1.8-1.7,2.9-1.2c0.5,0.2,0.9,0.6,1.2,1.2
					c0.1,0.3,0.2,0.6,0.2,0.9c0,1.2-1,2.2-2.2,2.2C110.7,117.2,109.7,116.2,109.7,115 M94.7,106.4c-1.3,0-2.3-1-2.3-2.3
					c0-1.3,1-2.3,2.3-2.3h0.2c1.1,0.1,2,1.1,2,2.3c0,0.6-0.3,1.2-0.7,1.7C95.7,106.2,95.2,106.4,94.7,106.4 M114,108.9V98.2
					c0-0.7-0.3-1.3-0.8-1.7c-0.5-0.4-1.2-0.5-1.8-0.3l-11.6,4c-1.2-1.6-3-2.5-5-2.5c-3.6-0.1-6.5,2.8-6.6,6.3
					c-0.1,3.6,2.8,6.5,6.3,6.6c3.6,0.1,6.5-2.8,6.6-6.3c0,0,0-0.1,0-0.1l8.9-3v7.8c-3.3,1.1-5.1,4.7-4,8.1c1.1,3.3,4.7,5.1,8.1,4
					c3.3-1.1,5.1-4.7,4-8.1C117.3,111,115.9,109.5,114,108.9"/>
				<path class="st2" d="M148.8,74.4c-0.5,0-1,0.1-1.4,0.5c-0.3,0.3-0.5,0.7-0.5,1.1v6.2h-7.3V76c0-0.4-0.2-0.8-0.5-1.1
					c-0.4-0.3-0.8-0.5-1.3-0.5c-0.5,0-1,0.1-1.4,0.5c-0.3,0.3-0.5,0.7-0.5,1.1v15.6c0,0.4,0.2,0.8,0.5,1.1c0.4,0.3,0.9,0.5,1.4,0.5
					c0.5,0,1-0.2,1.3-0.5c0.3-0.3,0.5-0.7,0.5-1.1v-5.9h7.3v5.9c0,0.4,0.2,0.8,0.5,1.1c0.4,0.3,0.9,0.5,1.4,0.5c0.5,0,1-0.2,1.3-0.5
					c0.3-0.3,0.5-0.7,0.5-1.1V76c0-0.4-0.2-0.8-0.5-1.1C149.8,74.5,149.3,74.4,148.8,74.4"/>
				<path class="st2" d="M190.1,80.2v0.5c0,0.5-0.2,1.1-0.7,1.4c-0.7,0.4-1.6,0.6-2.5,0.6h-3.2V78h3.2c0.9-0.1,1.7,0.1,2.5,0.6
					C189.9,79,190.2,79.6,190.1,80.2 M191.1,84.6c0.8-0.3,1.6-0.9,2.1-1.6c0.5-0.8,0.7-1.7,0.7-2.6v-0.2c0-0.8-0.1-1.6-0.4-2.3
					c-0.2-0.7-0.7-1.3-1.2-1.8c-0.6-0.5-1.4-0.9-2.2-1.2c-1-0.3-2.1-0.4-3.2-0.4h-5c-0.5,0-1,0.1-1.4,0.5c-0.3,0.3-0.5,0.7-0.6,1.1
					v15.2c0,0.4,0.2,0.9,0.5,1.2c0.8,0.7,1.9,0.7,2.7,0.1c0.3-0.3,0.5-0.7,0.5-1.1V86h4l3,6.4c0.2,0.4,0.6,0.6,1,0.7
					c0.2,0,0.3,0.1,0.5,0.1c0.3,0,0.6-0.1,0.9-0.2c0.4-0.2,0.8-0.6,1-1.1c0.2-0.4,0.1-0.9-0.1-1.2L191.1,84.6z"/>
				<path class="st2" d="M211.3,82.1v3.6c0.1,1-0.3,2-1,2.7c-0.8,0.6-1.7,1-2.7,0.9h-2.9V78.2h2.9c1-0.1,2,0.3,2.7,1
					C211,80,211.3,81,211.3,82.1 M213.3,76.9c-0.6-0.7-1.4-1.3-2.3-1.7c-1.1-0.4-2.2-0.6-3.3-0.6h-4.7c-0.5,0-1,0.1-1.4,0.5
					c-0.3,0.3-0.5,0.7-0.5,1.1v15c0,0.4,0.2,0.8,0.5,1.1c0.4,0.3,0.9,0.5,1.4,0.5h4.7c1.1,0,2.3-0.2,3.3-0.6
					c0.9-0.3,1.7-0.9,2.3-1.6c0.6-0.7,1.1-1.5,1.4-2.4c0.3-0.9,0.4-1.9,0.4-2.9v-3c0-1-0.1-2-0.4-3
					C214.3,78.5,213.9,77.7,213.3,76.9"/>
				<path class="st2" d="M260.7,85.7h-4.1l2.1-6L260.7,85.7z M261.2,75.7c0,0-0.5-1.3-2.6-1.3c-2.1,0-2.6,1.3-2.6,1.3L250.7,91
					c-0.1,0.4,0,0.9,0.2,1.2c0.3,0.4,0.7,0.7,1.2,0.8c0.2,0,0.4,0.1,0.5,0.1c0.3,0,0.6-0.1,0.9-0.2c0.4-0.2,0.7-0.5,0.8-0.9l1-3h6.4
					l1,3c0.1,0.4,0.4,0.8,0.8,0.9c0.4,0.2,0.9,0.3,1.4,0.1c0.5-0.1,0.9-0.4,1.2-0.8c0.3-0.3,0.4-0.8,0.3-1.2L261.2,75.7z"/>
				<path class="st2" d="M283.4,80.2v0.5c0,0.5-0.2,1.1-0.7,1.4c-0.7,0.5-1.6,0.7-2.5,0.6H277V78h3.2c0.9-0.1,1.7,0.1,2.5,0.6
					C283.2,79,283.4,79.6,283.4,80.2 M284.4,84.6c0.8-0.3,1.6-0.9,2.1-1.6c0.5-0.8,0.7-1.7,0.7-2.6v-0.2c0-0.8-0.1-1.6-0.4-2.3
					c-0.2-0.7-0.7-1.3-1.2-1.8c-0.6-0.5-1.4-0.9-2.2-1.2c-1.4-0.3-2.9-0.4-4.4-0.4h-3.8c-0.5,0-1,0.1-1.4,0.5
					c-0.3,0.3-0.5,0.7-0.6,1.1v15.2c0,0.4,0.2,0.9,0.5,1.2c0.8,0.7,1.9,0.7,2.7,0.1c0.3-0.3,0.5-0.7,0.5-1.1V86h4l3,6.4
					c0.2,0.4,0.6,0.6,1,0.7c0.2,0,0.3,0.1,0.5,0.1c0.3,0,0.7-0.1,0.9-0.2c0.4-0.2,0.8-0.6,1-1.1c0.2-0.4,0.1-0.9-0.1-1.2L284.4,84.6
					z"/>
				<path class="st2" d="M296.1,74.4c-0.5,0-1,0.1-1.4,0.5c-0.3,0.3-0.5,0.7-0.5,1.1v15.6c0,0.4,0.2,0.8,0.5,1.1
					c0.4,0.3,0.9,0.5,1.4,0.5c0.5,0,1-0.2,1.3-0.5c0.3-0.3,0.5-0.7,0.5-1.1V76c0-0.4-0.2-0.8-0.5-1.1
					C297.1,74.5,296.6,74.4,296.1,74.4"/>
				<path class="st2" d="M312.4,89.6c-1.1,0-2.2-0.3-3.1-0.9c-0.7-0.8-1-1.9-0.9-3v-3.9c-0.1-1.1,0.2-2.2,0.9-3
					c0.9-0.6,2-0.9,3.1-0.9c1.1-0.1,2.2,0.2,3.1,0.9c0.7,0.8,1,1.9,0.9,3v3.9c0.1,1.1-0.2,2.2-0.9,3
					C314.7,89.3,313.6,89.6,312.4,89.6 M319.8,79c-0.5-1.8-1.8-3.3-3.6-4c-2.5-0.8-5.1-0.8-7.5,0c-0.9,0.4-1.6,0.9-2.2,1.6
					c-0.6,0.7-1,1.5-1.3,2.4c-0.3,0.9-0.4,1.9-0.4,2.9v3.8c0,1,0.1,2,0.4,2.9c0.3,0.9,0.7,1.7,1.3,2.3c0.6,0.7,1.4,1.2,2.2,1.6
					c2.5,0.8,5.1,0.8,7.5,0c1.7-0.7,3.1-2.2,3.6-4c0.3-0.9,0.4-1.9,0.4-2.9v-3.8C320.2,80.9,320.1,79.9,319.8,79"/>
				<path class="st2" d="M245.8,75.4c-0.4-0.9-1.5-1.3-2.5-0.9c0,0,0,0,0,0c-0.4,0.2-0.8,0.6-0.9,1.1l-3.4,10l-3.4-10
					c-0.3-0.7-1-1.3-1.8-1.3c-0.8,0-1.5,0.5-1.7,1.2l-3.4,10l-3.4-10c-0.2-0.5-0.5-0.9-1-1.1c-0.4-0.2-0.9-0.3-1.4-0.1
					c-1,0.4-1.5,1.4-1.1,2.4l5.2,15c0.3,1,1.3,1.5,2.3,1.2c0.6-0.2,1-0.6,1.2-1.2l3.4-10l3.4,9.9c0.3,1,1.4,1.5,2.3,1.2
					c0.6-0.2,1-0.6,1.2-1.2l5.2-15C246,76.3,246,75.8,245.8,75.4"/>
				<path class="st2" d="M167.4,85.7h-4.1l2-6L167.4,85.7z M167.9,75.7c0,0-0.5-1.3-2.6-1.3s-2.6,1.3-2.6,1.3L157.5,91
					c-0.1,0.4,0,0.9,0.2,1.2c0.3,0.4,0.7,0.7,1.2,0.8c0.2,0,0.4,0.1,0.5,0.1c0.3,0,0.6-0.1,0.8-0.2c0.4-0.2,0.7-0.5,0.8-0.9l1.1-3
					h6.4l1,3c0.1,0.4,0.4,0.8,0.8,0.9c0.4,0.2,0.9,0.3,1.4,0.1c0.5-0.1,0.9-0.4,1.2-0.8c0.2-0.4,0.3-0.8,0.2-1.2L167.9,75.7z"/>
				<path class="st1" d="M177.7,100.4c0-0.2,0.1-0.3,0.2-0.4c0.2-0.1,0.3-0.2,0.6-0.2c0.2,0,0.4,0.1,0.5,0.2
					c0.1,0.1,0.2,0.2,0.2,0.4v7.1c0,0.2-0.1,0.3-0.2,0.4c-0.1,0.1-0.3,0.2-0.5,0.2c-0.2,0-0.4-0.1-0.6-0.2c-0.1-0.1-0.2-0.3-0.2-0.4
					V100.4z"/>
				<path class="st1" d="M181.5,103c0-0.4,0.1-0.9,0.2-1.3c0.1-0.4,0.3-0.7,0.6-1c0.3-0.3,0.6-0.5,1-0.7c0.4-0.2,0.9-0.3,1.4-0.2
					c0.5,0,1,0.1,1.4,0.2c0.4,0.2,0.7,0.4,1,0.7c0.3,0.3,0.5,0.6,0.6,1c0.1,0.4,0.2,0.8,0.2,1.3v1.8c0,0.4-0.1,0.9-0.2,1.3
					c-0.1,0.4-0.3,0.7-0.6,1c-0.3,0.3-0.6,0.5-1,0.7c-0.4,0.2-0.9,0.3-1.4,0.2c-0.5,0-1-0.1-1.4-0.2c-0.4-0.1-0.7-0.4-1-0.7
					c-0.3-0.3-0.5-0.6-0.6-1c-0.1-0.4-0.2-0.8-0.2-1.3V103z M182.9,104.8c-0.1,0.5,0.1,1.1,0.5,1.5c0.7,0.6,1.8,0.6,2.5,0
					c0.3-0.4,0.5-0.9,0.4-1.5V103c0.1-0.5-0.1-1-0.4-1.5c-0.7-0.6-1.8-0.6-2.5,0c-0.3,0.4-0.5,0.9-0.5,1.5V104.8z"/>
				<path class="st1" d="M194.5,100c0.2,0,0.4,0,0.5,0.2c0.1,0.1,0.2,0.3,0.2,0.5c0,0.2-0.1,0.3-0.2,0.5c-0.1,0.1-0.3,0.2-0.5,0.2
					h-1.6v6.2c0,0.2-0.1,0.3-0.2,0.4c-0.1,0.1-0.3,0.2-0.5,0.2c-0.2,0-0.4-0.1-0.6-0.2c-0.1-0.1-0.2-0.3-0.2-0.4v-6.2h-1.5
					c-0.2,0-0.4-0.1-0.5-0.2c-0.1-0.1-0.2-0.3-0.2-0.5c0-0.2,0.1-0.4,0.2-0.5c0.1-0.1,0.3-0.2,0.5-0.2H194.5z"/>
				<path class="st1" d="M200.8,100.4c0-0.2,0.1-0.3,0.2-0.4c0.2-0.1,0.3-0.2,0.6-0.2c0.2,0,0.3,0.1,0.5,0.2
					c0.1,0.1,0.2,0.2,0.2,0.4v7c0,0.2-0.1,0.3-0.2,0.4c-0.1,0.1-0.3,0.2-0.5,0.2c-0.2,0-0.4-0.1-0.6-0.2c-0.1-0.1-0.2-0.3-0.2-0.4
					L200.8,100.4z"/>
				<path class="st1" d="M204.7,100.4c0-0.2,0.1-0.3,0.2-0.4c0.1-0.1,0.3-0.2,0.5-0.2c0.2,0,0.3,0,0.5,0.2c0.1,0.1,0.2,0.2,0.2,0.3
					l3.4,4.9v-4.8c0-0.2,0.1-0.3,0.2-0.4c0.2-0.1,0.3-0.2,0.6-0.2c0.2,0,0.4,0.1,0.5,0.2c0.1,0.1,0.2,0.2,0.2,0.4v7.1
					c0,0.2-0.1,0.3-0.2,0.4c-0.1,0.1-0.3,0.2-0.5,0.2c-0.2,0-0.3,0-0.5-0.1c-0.1-0.1-0.2-0.2-0.2-0.3v-0.1l-3.3-4.8v4.7
					c0,0.2-0.1,0.3-0.2,0.4c-0.1,0.1-0.3,0.2-0.5,0.2c-0.2,0-0.4-0.1-0.5-0.2c-0.1-0.1-0.2-0.2-0.2-0.4L204.7,100.4z"/>
				<path class="st1" d="M213.5,100.4c0-0.2,0.1-0.3,0.2-0.4c0.1-0.1,0.3-0.2,0.5-0.2c0.2,0,0.3,0,0.5,0.2c0.1,0.1,0.2,0.2,0.2,0.3
					l3.4,4.9v-4.8c0-0.2,0.1-0.3,0.2-0.4c0.1-0.1,0.3-0.2,0.6-0.2c0.2,0,0.4,0.1,0.5,0.2c0.1,0.1,0.2,0.2,0.2,0.4v7.1
					c0,0.2-0.1,0.3-0.2,0.4c-0.1,0.1-0.3,0.2-0.5,0.2c-0.2,0-0.3,0-0.5-0.1c-0.1-0.1-0.2-0.2-0.2-0.3v-0.1l-3.4-4.8v4.7
					c0,0.2-0.1,0.3-0.2,0.4c-0.1,0.1-0.3,0.2-0.5,0.2c-0.2,0-0.4-0.1-0.5-0.2c-0.1-0.1-0.2-0.2-0.2-0.4L213.5,100.4z"/>
				<path class="st1" d="M222.2,103c0-0.4,0.1-0.9,0.2-1.3c0.1-0.4,0.3-0.7,0.6-1c0.3-0.3,0.6-0.5,1-0.7c0.4-0.2,0.9-0.3,1.4-0.2
					c0.5,0,1,0.1,1.4,0.2c0.4,0.2,0.7,0.4,1,0.7c0.3,0.3,0.5,0.6,0.6,1c0.1,0.4,0.2,0.8,0.2,1.3v1.8c0,0.4-0.1,0.9-0.2,1.3
					c-0.1,0.4-0.3,0.7-0.6,1c-0.3,0.3-0.6,0.5-1,0.7c-0.5,0.2-0.9,0.3-1.4,0.2c-0.5,0-1-0.1-1.4-0.2c-0.4-0.1-0.7-0.4-1-0.7
					c-0.3-0.3-0.5-0.6-0.6-1c-0.1-0.4-0.2-0.8-0.2-1.3V103z M223.6,104.8c-0.1,0.5,0.1,1.1,0.5,1.5c0.7,0.6,1.8,0.6,2.5,0
					c0.3-0.4,0.5-0.9,0.4-1.5V103c0.1-0.5-0.1-1-0.4-1.5c-0.7-0.6-1.8-0.6-2.5,0c-0.3,0.4-0.5,0.9-0.5,1.5V104.8z"/>
				<path class="st1" d="M234.1,107.5c0,0.2-0.1,0.3-0.3,0.4c-0.3,0.2-0.7,0.2-1.1,0c-0.1-0.1-0.2-0.2-0.3-0.4l-2.4-6.9
					c0-0.2,0-0.3,0.1-0.4c0.1-0.2,0.3-0.3,0.5-0.3c0.2-0.1,0.4-0.1,0.5,0c0.1,0.1,0.3,0.2,0.3,0.3l1.8,5.8l1.8-5.7
					c0-0.2,0.2-0.3,0.3-0.3c0.4-0.1,0.8,0,1,0.3c0.1,0.1,0.1,0.3,0.1,0.4L234.1,107.5z"/>
				<path class="st1" d="M243.8,107.2c0,0.2,0,0.3-0.1,0.4c-0.1,0.2-0.3,0.3-0.5,0.3c-0.2,0.1-0.4,0.1-0.6,0
					c-0.1-0.1-0.3-0.2-0.3-0.3l-0.4-1.4h-2.7l-0.5,1.5c-0.1,0.1-0.2,0.3-0.3,0.3c-0.4,0.1-0.8,0-1-0.3c-0.1-0.1-0.1-0.3-0.1-0.5
					l2.4-6.9c0-0.2,0.1-0.3,0.3-0.4c0.2-0.1,0.3-0.2,0.5-0.2c0.2,0,0.4,0.1,0.5,0.2c0.1,0.1,0.2,0.2,0.3,0.4L243.8,107.2z
					 M239.6,105h1.9l-1-3.1L239.6,105z"/>
				<path class="st1" d="M249.6,100c0.2,0,0.4,0,0.6,0.2c0.1,0.1,0.2,0.3,0.2,0.5c0,0.2-0.1,0.3-0.2,0.5c-0.2,0.1-0.3,0.2-0.6,0.2
					H248v6.2c0,0.2-0.1,0.3-0.2,0.4c-0.1,0.1-0.3,0.2-0.5,0.2c-0.2,0-0.4-0.1-0.6-0.2c-0.1-0.1-0.2-0.3-0.2-0.4v-6.2h-1.4
					c-0.2,0-0.4-0.1-0.5-0.2c-0.1-0.1-0.2-0.3-0.2-0.5c0-0.2,0.1-0.4,0.2-0.5c0.1-0.1,0.3-0.2,0.5-0.2H249.6z"/>
				<path class="st1" d="M252.1,100.4c0-0.2,0.1-0.3,0.2-0.4c0.1-0.1,0.3-0.2,0.6-0.2c0.2,0,0.4,0.1,0.5,0.2
					c0.1,0.1,0.2,0.2,0.2,0.4v7.1c0,0.2-0.1,0.3-0.2,0.4c-0.1,0.1-0.3,0.2-0.5,0.2c-0.2,0-0.4-0.1-0.6-0.2c-0.1-0.1-0.2-0.2-0.2-0.4
					V100.4z"/>
				<path class="st1" d="M256,103c0-0.4,0.1-0.9,0.2-1.3c0.2-0.8,0.8-1.4,1.6-1.7c0.4-0.2,0.9-0.3,1.4-0.2c0.5,0,1,0.1,1.4,0.2
					c0.4,0.2,0.7,0.4,1,0.7c0.3,0.3,0.5,0.6,0.6,1c0.1,0.4,0.2,0.8,0.2,1.3v1.8c0,0.4-0.1,0.9-0.2,1.3c-0.1,0.4-0.3,0.7-0.6,1
					c-0.3,0.3-0.6,0.5-1,0.7c-0.5,0.2-0.9,0.3-1.4,0.2c-0.5,0-1-0.1-1.4-0.2c-0.4-0.1-0.7-0.4-1-0.7c-0.3-0.3-0.5-0.6-0.6-1
					c-0.1-0.4-0.2-0.8-0.2-1.3L256,103z M257.4,104.8c-0.1,0.5,0.1,1.1,0.5,1.5c0.3,0.3,0.8,0.5,1.2,0.4c0.5,0,0.9-0.1,1.3-0.4
					c0.3-0.4,0.5-0.9,0.5-1.5V103c0.1-0.5-0.1-1-0.5-1.5c-0.3-0.3-0.8-0.5-1.3-0.4c-0.5,0-0.9,0.1-1.2,0.4c-0.4,0.4-0.5,0.9-0.5,1.5
					V104.8z"/>
				<path class="st1" d="M264.6,100.4c0-0.2,0.1-0.3,0.2-0.4c0.1-0.1,0.3-0.2,0.5-0.2c0.2,0,0.3,0,0.5,0.2c0.1,0.1,0.2,0.2,0.2,0.3
					l3.4,4.9v-4.8c0-0.2,0.1-0.3,0.2-0.4c0.1-0.1,0.3-0.2,0.5-0.2c0.2,0,0.4,0.1,0.5,0.2c0.1,0.1,0.2,0.2,0.2,0.4v7.1
					c0,0.2-0.1,0.3-0.2,0.4c-0.1,0.1-0.3,0.2-0.5,0.2c-0.2,0-0.3,0-0.5-0.1c-0.1-0.1-0.2-0.2-0.2-0.3v-0.1l-3.4-4.8v4.7
					c0,0.2-0.1,0.3-0.2,0.4c-0.1,0.1-0.3,0.2-0.5,0.2c-0.2,0-0.4-0.1-0.5-0.2c-0.1-0.1-0.2-0.2-0.2-0.4L264.6,100.4z"/>
				<path class="st1" d="M275.8,108c-0.2,0-0.3,0-0.5,0c-0.2,0-0.4-0.1-0.6-0.1c-0.2-0.1-0.4-0.1-0.6-0.2c-0.2-0.1-0.4-0.2-0.5-0.3
					c-0.2-0.1-0.3-0.2-0.4-0.4c-0.1-0.1-0.2-0.3-0.1-0.5c0-0.4,0.2-0.6,0.6-0.6c0.1,0,0.3,0,0.4,0.1c0.1,0.1,0.2,0.1,0.3,0.2
					c0.2,0.2,0.4,0.3,0.6,0.3c0.3,0.1,0.5,0.2,0.8,0.2c0.3,0,0.6-0.1,0.8-0.2c0.2-0.2,0.3-0.4,0.3-0.7c0-0.2-0.1-0.5-0.3-0.7
					c-0.2-0.2-0.4-0.3-0.7-0.4c-0.3-0.1-0.6-0.3-0.9-0.4c-0.3-0.1-0.6-0.3-0.9-0.5c-0.3-0.2-0.5-0.4-0.7-0.7
					c-0.2-0.3-0.3-0.7-0.3-1.1c0-0.3,0.1-0.6,0.2-0.9c0.1-0.3,0.3-0.5,0.5-0.7c0.2-0.2,0.5-0.4,0.8-0.5c0.3-0.1,0.7-0.2,1.1-0.2
					c0.4,0,0.7,0.1,1.1,0.2c0.3,0.1,0.5,0.2,0.8,0.4c0.2,0.1,0.3,0.3,0.5,0.5c0.1,0.1,0.1,0.3,0.2,0.4c0,0.2,0,0.3-0.1,0.5
					c-0.1,0.1-0.3,0.2-0.5,0.2c-0.1,0-0.2,0-0.4-0.1l-0.3-0.2c-0.1-0.1-0.3-0.2-0.5-0.3c-0.3-0.1-0.5-0.2-0.8-0.2
					c-0.3,0-0.5,0.1-0.7,0.2c-0.2,0.2-0.3,0.4-0.3,0.7c0,0.2,0.1,0.5,0.3,0.6c0.2,0.2,0.4,0.3,0.7,0.4c0.3,0.1,0.6,0.2,0.9,0.4
					c0.3,0.1,0.6,0.3,0.9,0.5c0.3,0.2,0.5,0.4,0.7,0.7c0.2,0.3,0.3,0.7,0.3,1.1c0,0.6-0.2,1.2-0.7,1.7
					C277.1,107.9,276.5,108.1,275.8,108z"/>
			</g>
		</g>
	</g>
</g>
</svg>
