<?xml version="1.0" encoding="utf-8"?>
<!-- Generator: Adobe Illustrator 26.0.3, SVG Export Plug-In . SVG Version: 6.00 Build 0)  -->
<svg version="1.1" id="Vrstva_1" xmlns="http://www.w3.org/2000/svg" xmlns:xlink="http://www.w3.org/1999/xlink" x="0px" y="0px"
	 viewBox="0 0 389 182" style="enable-background:new 0 0 389 182;" xml:space="preserve">
<style type="text/css">
	.st0{opacity:0.2;fill:#E6E6E6;enable-background:new    ;}
</style>
<g id="Layer_2_00000052104868212809751240000002312128735168709795_">
	<g id="Layer_1-2">
		<rect class="st0" width="389" height="182"/>
		<g id="Vrstva_2">
			<g id="Layer_1_00000134953299433035887190000016665547071767818634_">
				<path d="M75.1,116c0-1.2,1-2.3,2.2-2.3c0.9,0,1.7,0.5,2,1.3c0.1,0.3,0.2,0.6,0.2,0.9c0,1.2-1,2.2-2.2,2.2
					C76.1,118.3,75.1,117.3,75.1,116L75.1,116 M112,66.2c1.3,0,2.3,1,2.2,2.3c0,0,0,0,0,0c0,1.2-1,2.2-2.2,2.2c-1.2,0-2.2-1-2.2-2.2
					C109.7,67.2,110.7,66.2,112,66.2C112,66.2,112,66.2,112,66.2 M79.4,109.9v-10l33.2-11.3c0.8-0.3,1.4-1.1,1.4-2V74.6
					c3.3-1.1,5.1-4.7,4-8.1c-1.1-3.3-4.7-5.1-8.1-4c-3.3,1.1-5.1,4.7-4,8.1c0.6,1.9,2.1,3.3,4,4v10.6L76.7,96.4
					c-0.9,0.3-1.4,1.1-1.4,2v11.5c-3.4,1.2-5.1,4.9-3.9,8.2c0.9,2.5,3.3,4.3,6,4.3c3.6-0.1,6.4-3,6.3-6.6
					C83.6,113.2,81.9,110.8,79.4,109.9"/>
				<path d="M79.6,68.5c0,1.2-1,2.2-2.2,2.2c-1.2,0-2.2-1-2.2-2.2c0-1.2,1-2.2,2.2-2.2C78.6,66.2,79.6,67.2,79.6,68.5 M94.6,77.6
					c1.3,0,2.3,1,2.3,2.3s-1,2.3-2.3,2.3h-0.2c-1.3-0.1-2.2-1.3-2-2.5c0.1-0.5,0.3-1,0.7-1.4C93.5,77.9,94.1,77.6,94.6,77.6
					 M75.3,74.6v11.2c0,0.7,0.3,1.3,0.8,1.7c0.3,0.3,0.8,0.4,1.2,0.4c0.2,0,0.4,0,0.6-0.1l11.6-3.9c1.2,1.6,3,2.5,5,2.5
					c3.6,0.1,6.5-2.8,6.6-6.3c0.1-3.6-2.8-6.5-6.3-6.6c-3.6-0.1-6.5,2.8-6.6,6.3c0,0,0,0.1,0,0.1l-8.9,3v-8.3
					c3.4-1.2,5.1-4.9,3.9-8.3c-0.9-2.5-3.3-4.2-5.9-4.3c-3.6,0.1-6.4,3.1-6.3,6.6C71.1,71.3,72.8,73.7,75.3,74.6"/>
				<path d="M109.7,116c0-0.3,0.1-0.6,0.2-0.9c0.5-1.1,1.8-1.7,2.9-1.2c0.5,0.2,0.9,0.6,1.2,1.2c0.1,0.3,0.2,0.6,0.2,0.9
					c0,1.2-1,2.2-2.2,2.2C110.7,118.3,109.7,117.3,109.7,116 M94.6,107.4c-1.3,0-2.3-1-2.3-2.3s1-2.3,2.3-2.3h0.2
					c1.1,0.1,2,1.1,2,2.3c0,0.6-0.3,1.2-0.7,1.7C95.7,107.2,95.2,107.4,94.6,107.4 M114,109.9V99.3c0-0.7-0.3-1.3-0.8-1.7
					c-0.5-0.4-1.2-0.5-1.8-0.3l-11.6,4c-1.2-1.6-3-2.5-5-2.5c-3.6-0.1-6.5,2.8-6.6,6.3c-0.1,3.6,2.8,6.5,6.3,6.6
					c3.6,0.1,6.5-2.8,6.6-6.3c0,0,0-0.1,0-0.1l8.9-3v7.8c-3.3,1.1-5.1,4.7-4,8.1c1.1,3.3,4.7,5.1,8.1,4c3.3-1.1,5.1-4.7,4-8.1
					C117.3,112,115.9,110.6,114,109.9"/>
				<path d="M148.8,75.4c-0.5,0-1,0.1-1.4,0.5c-0.3,0.3-0.5,0.7-0.5,1.1v6.2h-7.3V77c0-0.4-0.2-0.8-0.5-1.1
					c-0.4-0.3-0.8-0.5-1.3-0.5c-0.5,0-1,0.1-1.4,0.5c-0.3,0.3-0.5,0.7-0.5,1.1v15.6c0,0.4,0.2,0.8,0.5,1.1c0.4,0.3,0.9,0.5,1.4,0.5
					c0.5,0,1-0.2,1.3-0.5c0.3-0.3,0.5-0.7,0.5-1.1v-5.9h7.3v5.9c0,0.4,0.2,0.8,0.5,1.1c0.4,0.3,0.9,0.5,1.4,0.5
					c0.5,0,0.9-0.2,1.3-0.5c0.3-0.3,0.5-0.7,0.5-1.1V77c0-0.4-0.2-0.8-0.5-1.1C149.7,75.6,149.3,75.4,148.8,75.4"/>
				<path d="M190.1,81.3v0.5c0,0.5-0.2,1.1-0.7,1.4c-0.7,0.4-1.6,0.6-2.5,0.6h-3.2V79h3.2c0.9-0.1,1.7,0.1,2.5,0.6
					C189.9,80,190.2,80.6,190.1,81.3 M191.1,85.7c0.8-0.3,1.6-0.9,2.1-1.6c0.5-0.8,0.7-1.7,0.7-2.6v-0.2c0-0.8-0.1-1.6-0.4-2.3
					c-0.2-0.7-0.7-1.3-1.2-1.8c-0.6-0.5-1.4-0.9-2.2-1.1c-1-0.3-2.1-0.4-3.2-0.4h-5c-0.5,0-1,0.1-1.4,0.5c-0.3,0.3-0.5,0.7-0.6,1.1
					v15.2c0,0.4,0.2,0.9,0.5,1.2c0.4,0.4,0.9,0.5,1.4,0.5c0.5,0,0.9-0.1,1.3-0.4c0.3-0.3,0.5-0.7,0.5-1.1V87h4l3,6.4
					c0.2,0.4,0.6,0.6,1,0.7c0.2,0,0.3,0.1,0.5,0.1c0.3,0,0.6-0.1,0.9-0.2c0.4-0.2,0.8-0.6,1-1.1c0.2-0.4,0.1-0.9-0.1-1.2L191.1,85.7
					z"/>
				<path d="M211.3,83.2v3.6c0.1,1-0.3,2-1,2.7c-0.8,0.6-1.7,1-2.7,0.9h-2.9V79.2h2.9c1-0.1,2,0.3,2.7,1
					C211,81,211.3,82.1,211.3,83.2 M213.3,77.9c-0.6-0.7-1.4-1.3-2.3-1.7c-1.1-0.4-2.2-0.6-3.3-0.6h-4.7c-0.5,0-1,0.1-1.4,0.5
					c-0.3,0.3-0.5,0.7-0.5,1.1v15c0,0.4,0.2,0.8,0.5,1.1c0.4,0.3,0.9,0.5,1.4,0.5h4.7c1.1,0,2.3-0.2,3.3-0.6
					c0.9-0.4,1.7-0.9,2.3-1.6c0.6-0.7,1.1-1.5,1.4-2.4c0.3-0.9,0.4-1.9,0.4-2.9v-3c0-1-0.1-2-0.4-3
					C214.3,79.6,213.9,78.7,213.3,77.9"/>
				<path d="M260.7,86.7h-4.1l2-6L260.7,86.7z M261.2,76.7c0,0-0.5-1.3-2.6-1.3c-2.1,0-2.6,1.3-2.6,1.3L250.7,92
					c-0.1,0.4,0,0.9,0.2,1.2c0.3,0.4,0.7,0.7,1.2,0.8c0.2,0,0.4,0.1,0.5,0.1c0.3,0,0.6-0.1,0.9-0.2c0.4-0.2,0.7-0.5,0.8-0.9l1-3h6.4
					l1,3c0.1,0.4,0.4,0.7,0.8,0.9c0.4,0.2,0.9,0.3,1.4,0.1c0.5-0.1,0.9-0.4,1.2-0.8c0.3-0.3,0.4-0.8,0.3-1.2L261.2,76.7z"/>
				<path d="M283.4,81.3v0.5c0,0.5-0.2,1.1-0.7,1.4c-0.7,0.5-1.6,0.7-2.5,0.6H277V79h3.2c0.9-0.1,1.7,0.1,2.5,0.6
					C283.1,80,283.4,80.6,283.4,81.3 M284.4,85.7c0.8-0.3,1.6-0.9,2.1-1.6c0.5-0.8,0.7-1.7,0.7-2.6v-0.2c0-0.8-0.1-1.6-0.4-2.3
					c-0.2-0.7-0.7-1.3-1.2-1.8c-0.6-0.5-1.4-0.9-2.2-1.1c-1.4-0.3-2.9-0.4-4.4-0.4h-3.8c-0.5,0-1,0.1-1.4,0.5
					c-0.3,0.3-0.5,0.7-0.5,1.1v15.2c0,0.4,0.2,0.9,0.5,1.2c0.4,0.4,0.9,0.5,1.4,0.5c0.5,0,0.9-0.1,1.3-0.4c0.3-0.3,0.5-0.7,0.5-1.1
					V87h4l3,6.4c0.2,0.4,0.6,0.6,1,0.7c0.2,0,0.3,0.1,0.5,0.1c0.3,0,0.6-0.1,0.9-0.2c0.4-0.2,0.8-0.6,1-1.1c0.2-0.4,0.1-0.9-0.1-1.2
					L284.4,85.7z"/>
				<path d="M296.1,75.4c-0.5,0-1,0.1-1.4,0.5c-0.3,0.3-0.5,0.7-0.5,1.1v15.6c0,0.4,0.2,0.8,0.5,1.1c0.4,0.3,0.9,0.5,1.4,0.5
					c0.5,0,1-0.2,1.3-0.5c0.3-0.3,0.5-0.7,0.5-1.1V77c0-0.4-0.2-0.8-0.5-1.1C297.1,75.6,296.6,75.4,296.1,75.4"/>
				<path d="M312.4,90.6c-1.1,0-2.2-0.3-3.1-0.9c-0.7-0.8-1-1.9-0.9-3v-3.9c-0.1-1.1,0.2-2.2,0.9-3c1.9-1.2,4.3-1.2,6.2,0
					c0.7,0.8,1,1.9,0.9,3v3.9c0.1,1.1-0.2,2.2-0.9,3C314.6,90.4,313.5,90.7,312.4,90.6 M319.8,80c-0.5-1.8-1.8-3.3-3.6-4
					c-2.5-0.8-5.1-0.8-7.5,0c-0.9,0.4-1.6,0.9-2.2,1.6c-0.6,0.7-1,1.5-1.3,2.4c-0.3,0.9-0.4,1.9-0.4,2.9v3.9c0,1,0.1,2,0.4,2.9
					c0.3,0.9,0.7,1.7,1.3,2.4c0.6,0.7,1.4,1.2,2.2,1.6c2.5,0.8,5.1,0.8,7.5,0c1.7-0.7,3.1-2.2,3.6-4c0.3-0.9,0.4-1.9,0.4-2.9v-3.8
					C320.2,81.9,320.1,80.9,319.8,80"/>
				<path d="M245.8,76.5c-0.2-0.5-0.6-0.8-1.1-1c-0.5-0.2-1-0.1-1.4,0.1c-0.4,0.2-0.8,0.6-0.9,1.1l-3.4,10l-3.4-10
					c-0.3-0.7-1-1.2-1.8-1.3c-0.8,0-1.5,0.5-1.8,1.3l-3.4,10l-3.4-10c-0.2-0.5-0.5-0.9-1-1.1c-0.4-0.2-1-0.2-1.4-0.1
					c-0.5,0.2-0.9,0.5-1.1,1c-0.2,0.4-0.2,1-0.1,1.4l5.2,15c0.3,1,1.3,1.5,2.3,1.2c0.6-0.2,1-0.6,1.2-1.2l3.4-10l3.4,9.9
					c0.3,1,1.4,1.5,2.4,1.2c0.5-0.2,1-0.6,1.1-1.2l5.2-15C246,77.4,246,76.9,245.8,76.5"/>
				<path d="M167.4,86.7h-4.1l2-6L167.4,86.7z M167.9,76.7c0,0-0.5-1.3-2.6-1.3s-2.6,1.3-2.6,1.3L157.5,92c-0.1,0.4,0,0.9,0.2,1.2
					c0.3,0.4,0.7,0.7,1.2,0.8c0.2,0,0.4,0.1,0.5,0.1c0.3,0,0.6-0.1,0.8-0.2c0.4-0.2,0.7-0.5,0.8-0.9l1.1-3h6.4l1,3
					c0.1,0.4,0.4,0.7,0.8,0.9c0.4,0.2,0.9,0.3,1.4,0.1c0.5-0.1,0.9-0.4,1.2-0.8c0.2-0.4,0.3-0.8,0.2-1.2L167.9,76.7z"/>
				<path d="M177.6,101.4c0-0.2,0.1-0.3,0.2-0.4c0.2-0.1,0.4-0.2,0.6-0.2c0.2,0,0.4,0.1,0.5,0.2c0.1,0.1,0.2,0.3,0.2,0.4v7
					c0,0.2-0.1,0.3-0.2,0.4c-0.1,0.1-0.3,0.2-0.5,0.2c-0.2,0-0.4-0.1-0.6-0.2c-0.1-0.1-0.2-0.2-0.2-0.4V101.4z"/>
				<path d="M181.5,104.1c0-0.4,0.1-0.9,0.2-1.3c0.2-0.8,0.8-1.4,1.6-1.7c0.4-0.2,0.9-0.3,1.4-0.2c0.5,0,1,0.1,1.4,0.2
					c0.4,0.1,0.7,0.4,1,0.7c0.3,0.3,0.5,0.6,0.6,1c0.1,0.4,0.2,0.8,0.2,1.3v1.8c0,0.4-0.1,0.9-0.2,1.3c-0.1,0.4-0.3,0.7-0.6,1
					c-0.3,0.3-0.6,0.5-1,0.7c-0.4,0.2-0.9,0.3-1.4,0.2c-0.5,0-1-0.1-1.4-0.2c-0.4-0.2-0.7-0.4-1-0.7c-0.3-0.3-0.5-0.6-0.6-1
					c-0.1-0.4-0.2-0.8-0.2-1.3L181.5,104.1z M182.9,105.9c-0.1,0.5,0.1,1.1,0.5,1.5c0.7,0.6,1.8,0.6,2.5,0c0.3-0.4,0.5-0.9,0.4-1.5
					v-1.8c0-0.5-0.1-1-0.4-1.4c-0.7-0.6-1.8-0.6-2.5,0c-0.3,0.4-0.5,0.9-0.5,1.4V105.9z"/>
				<path d="M194.4,101c0.2,0,0.4,0.1,0.5,0.2c0.1,0.1,0.2,0.3,0.2,0.5c0,0.2-0.1,0.3-0.2,0.5c-0.1,0.1-0.3,0.2-0.5,0.2h-1.6v6.2
					c0,0.2-0.1,0.3-0.2,0.4c-0.1,0.1-0.3,0.2-0.5,0.2c-0.2,0-0.4-0.1-0.6-0.2c-0.1-0.1-0.2-0.3-0.2-0.4v-6.2h-1.5
					c-0.2,0-0.4-0.1-0.5-0.2c-0.1-0.1-0.2-0.3-0.2-0.5c0-0.2,0.1-0.4,0.2-0.5c0.1-0.1,0.3-0.2,0.5-0.2H194.4z"/>
				<path d="M200.7,101.4c0-0.2,0.1-0.3,0.2-0.4c0.2-0.1,0.4-0.2,0.6-0.2c0.2,0,0.3,0.1,0.4,0.2c0.1,0.1,0.2,0.3,0.2,0.4v7
					c0,0.2-0.1,0.3-0.2,0.4c-0.1,0.1-0.3,0.2-0.5,0.2c-0.2,0-0.4-0.1-0.6-0.2c-0.1-0.1-0.2-0.2-0.2-0.4L200.7,101.4z"/>
				<path d="M204.7,101.4c0-0.2,0.1-0.3,0.2-0.4c0.3-0.2,0.7-0.2,1,0c0.1,0.1,0.2,0.2,0.2,0.3l3.4,4.9v-4.8c0-0.2,0.1-0.3,0.2-0.4
					c0.2-0.1,0.4-0.2,0.6-0.2c0.2,0,0.4,0.1,0.5,0.2c0.1,0.1,0.2,0.3,0.2,0.4v7.1c0,0.2-0.1,0.3-0.2,0.4c-0.1,0.1-0.3,0.2-0.5,0.2
					c-0.2,0-0.3,0-0.5-0.1c-0.1-0.1-0.2-0.2-0.2-0.3v-0.1l-3.3-4.9v4.7c0,0.2-0.1,0.3-0.2,0.4c-0.1,0.1-0.3,0.2-0.5,0.2
					c-0.2,0-0.4-0.1-0.5-0.2c-0.1-0.1-0.2-0.3-0.2-0.4L204.7,101.4z"/>
				<path d="M213.4,101.4c0-0.2,0.1-0.3,0.2-0.4c0.2-0.1,0.3-0.2,0.5-0.2c0.2,0,0.3,0,0.5,0.1c0.1,0.1,0.2,0.2,0.2,0.3l3.4,4.9v-4.8
					c0-0.2,0.1-0.3,0.2-0.4c0.2-0.1,0.4-0.2,0.6-0.2c0.2,0,0.4,0.1,0.5,0.2c0.1,0.1,0.2,0.3,0.2,0.4v7.1c0,0.2-0.1,0.3-0.2,0.4
					c-0.1,0.1-0.3,0.2-0.5,0.2c-0.2,0-0.3,0-0.5-0.1c-0.1-0.1-0.2-0.2-0.2-0.3v-0.1l-3.4-4.9v4.7c0,0.2-0.1,0.3-0.2,0.4
					c-0.1,0.1-0.3,0.2-0.5,0.2c-0.2,0-0.4-0.1-0.5-0.2c-0.1-0.1-0.2-0.2-0.2-0.4L213.4,101.4z"/>
				<path d="M222.2,104.1c0-0.4,0.1-0.9,0.2-1.3c0.1-0.4,0.3-0.7,0.6-1c0.3-0.3,0.6-0.5,1-0.7c0.4-0.2,0.9-0.3,1.4-0.2
					c0.5,0,1,0.1,1.4,0.2c0.8,0.3,1.3,0.9,1.6,1.7c0.1,0.4,0.2,0.8,0.2,1.3v1.8c0,0.4-0.1,0.9-0.2,1.3c-0.1,0.4-0.3,0.7-0.6,1
					c-0.3,0.3-0.6,0.5-1,0.7c-0.5,0.2-0.9,0.3-1.4,0.2c-0.5,0-1-0.1-1.4-0.2c-0.4-0.1-0.7-0.4-1-0.7c-0.3-0.3-0.5-0.6-0.6-1
					c-0.1-0.4-0.2-0.8-0.2-1.3L222.2,104.1z M223.6,105.9c-0.1,0.5,0.1,1.1,0.5,1.5c0.7,0.6,1.8,0.6,2.5,0c0.3-0.4,0.5-0.9,0.4-1.5
					v-1.8c0-0.5-0.1-1-0.4-1.4c-0.7-0.6-1.8-0.6-2.5,0c-0.3,0.4-0.5,0.9-0.5,1.4V105.9z"/>
				<path d="M234.1,108.6c0,0.2-0.1,0.3-0.3,0.4c-0.3,0.2-0.7,0.2-1.1,0c-0.1-0.1-0.2-0.2-0.3-0.4l-2.4-6.9c0-0.2,0-0.3,0.1-0.4
					c0.1-0.2,0.3-0.3,0.5-0.3c0.2-0.1,0.4-0.1,0.5,0c0.1,0.1,0.3,0.2,0.3,0.3l1.8,5.8l1.8-5.7c0-0.2,0.2-0.3,0.3-0.3
					c0.2-0.1,0.4-0.1,0.6,0c0.2,0,0.4,0.2,0.5,0.3c0.1,0.1,0.1,0.3,0.1,0.4L234.1,108.6z"/>
				<path d="M243.8,108.3c0,0.2,0,0.3-0.1,0.5c-0.1,0.2-0.3,0.3-0.5,0.3c-0.2,0-0.4,0-0.6-0.1c-0.1-0.1-0.3-0.2-0.3-0.3l-0.4-1.5
					h-2.7l-0.5,1.5c-0.1,0.2-0.2,0.3-0.3,0.3c-0.2,0.1-0.4,0.1-0.5,0c-0.2,0-0.4-0.2-0.5-0.3c-0.1-0.1-0.1-0.3-0.1-0.4l2.4-6.9
					c0-0.1,0.1-0.3,0.3-0.4c0.2-0.1,0.3-0.2,0.5-0.2c0.2,0,0.4,0.1,0.5,0.2c0.1,0.1,0.2,0.2,0.3,0.4L243.8,108.3z M239.6,106h1.9
					l-1-3.1L239.6,106z"/>
				<path d="M249.6,101c0.2,0,0.4,0.1,0.6,0.2c0.1,0.1,0.2,0.3,0.2,0.5c0,0.2-0.1,0.3-0.2,0.5c-0.2,0.1-0.3,0.2-0.6,0.2H248v6.2
					c0,0.2-0.1,0.3-0.2,0.4c-0.1,0.1-0.3,0.2-0.5,0.2c-0.2,0-0.4-0.1-0.6-0.2c-0.1-0.1-0.2-0.3-0.2-0.4v-6.2h-1.4
					c-0.2,0-0.4-0.1-0.5-0.2c-0.1-0.1-0.2-0.3-0.2-0.5c0-0.2,0.1-0.4,0.2-0.5c0.1-0.1,0.3-0.2,0.5-0.2H249.6z"/>
				<path d="M252.1,101.4c0-0.2,0.1-0.3,0.2-0.4c0.2-0.1,0.4-0.2,0.6-0.2c0.2,0,0.4,0.1,0.5,0.2c0.1,0.1,0.2,0.3,0.2,0.4v7
					c0,0.2-0.1,0.3-0.2,0.4c-0.1,0.1-0.3,0.2-0.5,0.2c-0.2,0-0.4-0.1-0.6-0.2c-0.1-0.1-0.2-0.2-0.2-0.4V101.4z"/>
				<path d="M256,104.1c0-0.4,0.1-0.9,0.2-1.3c0.1-0.4,0.3-0.7,0.6-1c0.3-0.3,0.6-0.5,1-0.7c0.4-0.2,0.9-0.3,1.4-0.2
					c0.5,0,1,0.1,1.4,0.2c0.4,0.2,0.7,0.4,1,0.7c0.3,0.3,0.5,0.6,0.6,1c0.1,0.4,0.2,0.8,0.2,1.3v1.8c0,0.4-0.1,0.9-0.2,1.3
					c-0.2,0.8-0.8,1.4-1.6,1.7c-0.5,0.2-0.9,0.3-1.4,0.2c-0.5,0-1-0.1-1.4-0.2c-0.4-0.2-0.7-0.4-1-0.7c-0.3-0.3-0.5-0.6-0.6-1
					c-0.1-0.4-0.2-0.8-0.2-1.3L256,104.1z M257.4,105.9c-0.1,0.5,0.1,1.1,0.5,1.5c0.3,0.3,0.8,0.5,1.2,0.4c0.5,0,0.9-0.1,1.3-0.4
					c0.3-0.4,0.5-0.9,0.4-1.5v-1.8c0-0.5-0.1-1-0.4-1.4c-0.3-0.3-0.8-0.5-1.3-0.4c-0.5,0-0.9,0.1-1.2,0.4c-0.4,0.4-0.5,0.9-0.5,1.4
					V105.9z"/>
				<path d="M264.6,101.4c0-0.2,0.1-0.3,0.2-0.4c0.3-0.2,0.7-0.2,1,0c0.1,0.1,0.2,0.2,0.2,0.3l3.4,4.9v-4.8c0-0.2,0.1-0.3,0.2-0.4
					c0.2-0.1,0.4-0.2,0.5-0.2c0.2,0,0.4,0.1,0.5,0.2c0.1,0.1,0.2,0.3,0.2,0.4v7.1c0,0.2-0.1,0.3-0.2,0.4c-0.1,0.1-0.3,0.2-0.5,0.2
					c-0.2,0-0.3,0-0.5-0.1c-0.1-0.1-0.2-0.2-0.2-0.3v-0.1l-3.4-4.9v4.7c0,0.2-0.1,0.3-0.2,0.4c-0.1,0.1-0.3,0.2-0.5,0.2
					c-0.2,0-0.4-0.1-0.5-0.2c-0.1-0.1-0.2-0.2-0.2-0.4L264.6,101.4z"/>
				<path d="M275.8,109.1c-0.2,0-0.3,0-0.5,0c-0.2,0-0.4-0.1-0.6-0.1c-0.2-0.1-0.4-0.1-0.6-0.2c-0.2-0.1-0.4-0.2-0.5-0.3
					c-0.1-0.1-0.3-0.2-0.4-0.4c-0.1-0.1-0.2-0.3-0.1-0.5c0-0.4,0.2-0.6,0.6-0.6c0.1,0,0.3,0,0.4,0.1c0.1,0.1,0.2,0.1,0.3,0.2
					c0.2,0.2,0.4,0.3,0.6,0.4c0.3,0.1,0.5,0.2,0.8,0.2c0.3,0,0.6-0.1,0.8-0.2c0.2-0.2,0.3-0.4,0.3-0.7c0-0.2-0.1-0.5-0.3-0.7
					c-0.2-0.2-0.4-0.3-0.7-0.5c-0.3-0.1-0.6-0.3-0.9-0.4c-0.3-0.1-0.6-0.3-0.9-0.5c-0.3-0.2-0.5-0.4-0.7-0.7
					c-0.2-0.3-0.3-0.7-0.3-1.1c0-0.3,0.1-0.6,0.2-0.9c0.1-0.3,0.3-0.5,0.5-0.7c0.2-0.2,0.5-0.4,0.8-0.5c0.3-0.1,0.7-0.2,1.1-0.2
					c0.4,0,0.7,0,1.1,0.2c0.3,0.1,0.5,0.2,0.8,0.4c0.2,0.1,0.3,0.3,0.5,0.5c0.1,0.1,0.1,0.3,0.2,0.4c0,0.2,0,0.3-0.1,0.5
					c-0.1,0.1-0.3,0.2-0.5,0.2c-0.1,0-0.3,0-0.4-0.1c-0.1-0.1-0.2-0.1-0.3-0.2c-0.1-0.1-0.3-0.2-0.5-0.3c-0.3-0.1-0.5-0.2-0.8-0.2
					c-0.3,0-0.5,0.1-0.7,0.2c-0.2,0.2-0.3,0.4-0.3,0.7c0,0.2,0.1,0.5,0.3,0.6c0.2,0.2,0.4,0.3,0.7,0.4c0.3,0.1,0.6,0.2,0.9,0.4
					c0.3,0.1,0.6,0.3,0.9,0.5c0.3,0.2,0.5,0.4,0.7,0.7c0.2,0.3,0.3,0.7,0.3,1.1c0,0.6-0.2,1.2-0.7,1.7
					C277.1,108.9,276.5,109.1,275.8,109.1z"/>
			</g>
		</g>
	</g>
</g>
</svg>
