<?xml version="1.0" encoding="utf-8"?>
<!-- Generator: Adobe Illustrator 23.0.4, SVG Export Plug-In . SVG Version: 6.00 Build 0)  -->
<svg version="1.1" id="Layer_1" xmlns="http://www.w3.org/2000/svg" xmlns:xlink="http://www.w3.org/1999/xlink" x="0px" y="0px"
	 viewBox="0 0 343.7 155.1" style="enable-background:new 0 0 343.7 155.1;" xml:space="preserve">
<style type="text/css">
	.st0{fill:#252532;}
	.st1{fill:#FFFFFF;}
</style>
<title>white</title>
<rect x="-23" y="-14" class="st0" width="389" height="182"/>
<g id="Layer_4">
	<path class="st1" d="M54.5,100.7c0-0.3,0.1-0.6,0.2-0.9c0.5-1.1,1.8-1.6,3-1.1c0.8,0.4,1.3,1.2,1.3,2.1c0.1,1.2-0.9,2.3-2.1,2.4
		c-1.2,0.1-2.3-0.9-2.4-2.1C54.5,100.9,54.5,100.8,54.5,100.7 M91.4,50.9c1.2,0,2.3,1,2.2,2.3c0,1.2-1,2.3-2.2,2.3
		c-0.9,0-1.7-0.5-2.1-1.3c-0.1-0.3-0.2-0.6-0.2-0.9C89.1,51.9,90.2,50.9,91.4,50.9 M58.8,94.6v-10l33.2-11.3c0.8-0.3,1.4-1.1,1.4-2
		V59.2c3.3-1.1,5.1-4.7,4-8.1c-1.1-3.3-4.7-5.1-8.1-4s-5.1,4.7-4,8.1c0.6,1.9,2.1,3.3,4,4v10.6L56.1,81.1c-0.8,0.3-1.4,1.1-1.4,2
		v11.5c-3.3,1.1-5.1,4.7-4,8.1s4.7,5.1,8.1,4c3.3-1.1,5.1-4.7,4-8.1C62.1,96.7,60.7,95.2,58.8,94.6"/>
	<path class="st1" d="M59,53.2c0,1.2-1,2.3-2.2,2.3c-0.9,0-1.7-0.5-2-1.3c-0.1-0.3-0.2-0.6-0.2-0.9c0-1.2,1-2.2,2.2-2.2
		S59,51.9,59,53.2 M74.1,62.3c1.3,0,2.3,1,2.3,2.3c0,1.3-1,2.3-2.3,2.3h-0.2c-1.1-0.1-2-1.1-2-2.3c0-0.6,0.3-1.2,0.7-1.7
		C73,62.5,73.5,62.3,74.1,62.3 M54.7,59.2v11.2c0,0.7,0.3,1.3,0.8,1.7c0.3,0.3,0.8,0.4,1.2,0.4c0.2,0,0.4,0,0.7-0.1l11.6-4
		c1.2,1.6,3,2.5,5,2.5c3.6,0.1,6.5-2.8,6.5-6.3c0.1-3.6-2.8-6.5-6.3-6.5c-3.6-0.1-6.5,2.8-6.5,6.3c0,0,0,0,0,0.1l-8.9,3v-8.3
		c3.3-1.1,5.1-4.7,4-8.1c-1.1-3.3-4.7-5.1-8.1-4s-5.1,4.7-4,8.1C51.4,57.1,52.8,58.6,54.7,59.2"/>
	<path class="st1" d="M89.2,100.7c0-0.3,0.1-0.6,0.2-0.9c0.5-1.1,1.8-1.6,3-1.1c0.8,0.4,1.3,1.2,1.3,2.1c0.1,1.2-0.9,2.3-2.1,2.4
		c-1.2,0.1-2.3-0.9-2.4-2.1C89.2,100.9,89.2,100.8,89.2,100.7 M74.1,92.1c-1.3,0-2.3-1-2.3-2.3c0-1.3,1-2.3,2.3-2.3h0.2
		c1.2,0.1,2,1.1,2,2.3c0,0.6-0.3,1.2-0.7,1.7C75.2,91.9,74.6,92.1,74.1,92.1 M93.4,94.6V83.9c0-0.7-0.3-1.3-0.8-1.7
		c-0.5-0.4-1.2-0.5-1.8-0.2l-11.6,4c-1.2-1.6-3-2.5-5-2.5c-3.6-0.1-6.5,2.8-6.6,6.3c-0.1,3.6,2.8,6.5,6.3,6.6
		c3.6,0.1,6.5-2.8,6.6-6.3c0,0,0,0,0-0.1l8.9-3v7.7c-3.3,1.1-5.1,4.7-4,8.1c1.1,3.3,4.7,5.1,8.1,4c3.3-1.1,5.1-4.7,4-8.1
		C96.8,96.7,95.3,95.2,93.4,94.6"/>
	<path class="st1" d="M128.3,58.8c-0.5,0-1,0.1-1.4,0.5c-0.3,0.3-0.5,0.7-0.5,1.1v6.2H119v-6.2c0-0.4-0.2-0.8-0.5-1.1
		c-0.4-0.3-0.8-0.5-1.3-0.5c-0.5,0-1,0.2-1.4,0.5c-0.3,0.3-0.5,0.7-0.6,1.1V76c0,0.4,0.2,0.8,0.6,1.1c0.4,0.3,0.9,0.5,1.4,0.5
		c0.5,0,1-0.2,1.3-0.5c0.3-0.3,0.5-0.7,0.5-1.1v-5.9h7.3V76c0,0.4,0.2,0.8,0.5,1.1c0.4,0.3,0.9,0.5,1.4,0.5c0.5,0,0.9-0.2,1.3-0.5
		c0.3-0.3,0.5-0.7,0.5-1.1V60.4c0-0.4-0.2-0.8-0.5-1.1C129.2,58.9,128.7,58.8,128.3,58.8"/>
	<path class="st1" d="M169.6,64.7v0.5c0,0.6-0.2,1.1-0.7,1.4c-0.7,0.5-1.6,0.7-2.5,0.6h-3.2v-4.7h3.2c0.9-0.1,1.7,0.1,2.5,0.6
		C169.4,63.4,169.6,64,169.6,64.7 M170.6,69.1c0.8-0.3,1.6-0.9,2.1-1.6c0.5-0.8,0.7-1.7,0.7-2.6v-0.2c0-0.8-0.1-1.6-0.4-2.3
		c-0.2-0.7-0.7-1.3-1.2-1.8c-0.6-0.5-1.4-0.9-2.2-1.2c-1-0.3-2.1-0.4-3.2-0.4h-5c-0.5,0-1,0.1-1.4,0.5c-0.3,0.3-0.5,0.7-0.6,1.1
		v15.2c0,0.4,0.2,0.9,0.5,1.2c0.4,0.4,0.9,0.5,1.4,0.5c0.5,0,0.9-0.1,1.3-0.4c0.3-0.3,0.5-0.7,0.5-1.1v-5.7h4l3,6.4
		c0.2,0.4,0.6,0.6,1,0.7c0.2,0,0.3,0.1,0.5,0.1c0.3,0,0.6-0.1,0.9-0.2c0.4-0.2,0.8-0.6,1-1.1c0.2-0.4,0.1-0.9-0.1-1.2L170.6,69.1z"
		/>
	<path class="st1" d="M190.8,66.6v3.6c0.1,1-0.3,2-1,2.7c-0.8,0.7-1.7,1-2.7,0.9h-2.8V62.6h2.8c1-0.1,2,0.3,2.7,1
		C190.4,64.4,190.8,65.4,190.8,66.6 M192.7,61.3c-0.6-0.7-1.4-1.3-2.3-1.7c-1.1-0.4-2.2-0.6-3.3-0.6h-4.7c-0.5,0-1,0.1-1.4,0.5
		c-0.3,0.3-0.5,0.7-0.5,1.1v15c0,0.4,0.2,0.8,0.5,1.1c0.4,0.3,0.9,0.5,1.4,0.5h4.7c1.1,0,2.3-0.2,3.3-0.6c0.9-0.4,1.7-0.9,2.3-1.6
		c0.6-0.7,1.1-1.5,1.4-2.4c0.3-0.9,0.4-1.9,0.4-2.9v-3c0-1-0.1-2-0.4-3C193.8,62.9,193.4,62,192.7,61.3"/>
	<path class="st1" d="M240.2,70.1H236l2-6L240.2,70.1z M240.7,60.1c0,0-0.5-1.3-2.6-1.3s-2.6,1.3-2.6,1.3l-5.3,15.3
		c-0.1,0.4,0,0.9,0.2,1.2c0.3,0.4,0.7,0.7,1.2,0.8c0.2,0,0.4,0.1,0.5,0.1c0.3,0,0.6-0.1,0.8-0.2c0.4-0.2,0.7-0.5,0.8-0.9l1-3h6.4
		l1,3c0.1,0.4,0.4,0.7,0.8,0.9c0.4,0.2,0.9,0.3,1.4,0.1c0.5-0.1,0.9-0.4,1.2-0.8c0.2-0.4,0.3-0.8,0.2-1.2L240.7,60.1z"/>
	<path class="st1" d="M262.8,64.7v0.5c0,0.5-0.2,1.1-0.7,1.4c-0.7,0.4-1.6,0.6-2.5,0.6h-3.2v-4.7h3.2c0.9-0.1,1.7,0.1,2.5,0.6
		C262.6,63.4,262.9,64,262.8,64.7 M263.8,69.1c0.8-0.3,1.6-0.9,2.1-1.6c0.5-0.8,0.7-1.7,0.7-2.6v-0.2c0-0.8-0.1-1.6-0.4-2.3
		c-0.2-0.7-0.7-1.3-1.2-1.8c-0.6-0.5-1.4-0.9-2.2-1.2c-1.4-0.3-2.9-0.4-4.4-0.4h-3.8c-0.5,0-1,0.1-1.4,0.5c-0.3,0.3-0.5,0.7-0.5,1.1
		v15.2c0,0.4,0.2,0.8,0.5,1.1c0.8,0.7,1.9,0.7,2.7,0.1c0.3-0.3,0.5-0.7,0.5-1.1v-5.6h4l3,6.4c0.2,0.4,0.6,0.6,1,0.7
		c0.1,0,0.3,0.1,0.5,0.1c0.3,0,0.6-0.1,0.9-0.2c0.4-0.2,0.8-0.6,1-1.1c0.2-0.4,0.1-0.9-0.1-1.2L263.8,69.1z"/>
	<path class="st1" d="M275.6,58.8c-0.5,0-1,0.1-1.4,0.5c-0.3,0.3-0.5,0.7-0.5,1.1v15.6c0,0.4,0.2,0.8,0.5,1.1
		c0.4,0.3,0.9,0.5,1.4,0.5c0.5,0,0.9-0.2,1.3-0.5c0.3-0.3,0.5-0.7,0.5-1.1V60.4c0-0.4-0.2-0.8-0.5-1.1
		C276.6,58.9,276.1,58.8,275.6,58.8"/>
	<path class="st1" d="M291.9,74c-1.1,0-2.2-0.3-3.1-0.9c-0.7-0.8-1-1.9-0.9-3v-3.9c-0.1-1.1,0.2-2.2,0.9-3c1.9-1.2,4.3-1.2,6.2,0
		c0.7,0.8,1,1.9,0.9,3v3.9c0.1,1.1-0.2,2.2-0.9,3C294.1,73.7,293,74,291.9,74 M299.3,63.3c-0.3-0.9-0.7-1.7-1.3-2.3
		c-0.6-0.7-1.4-1.2-2.2-1.6c-1.2-0.4-2.5-0.6-3.8-0.6c-1.3,0-2.5,0.2-3.8,0.6c-0.9,0.3-1.7,0.9-2.3,1.6c-0.6,0.7-1,1.5-1.3,2.4
		c-0.3,0.9-0.4,1.9-0.4,2.9v3.9c0,1,0.1,2,0.4,2.9c0.3,0.9,0.7,1.7,1.3,2.4c0.6,0.7,1.4,1.2,2.2,1.6c1.2,0.4,2.5,0.6,3.8,0.6
		c1.3,0,2.6-0.2,3.8-0.6c0.9-0.4,1.7-0.9,2.3-1.6c0.6-0.7,1-1.5,1.3-2.4c0.3-0.9,0.4-1.9,0.4-2.9v-3.8
		C299.7,65.3,299.6,64.3,299.3,63.3"/>
	<path class="st1" d="M225.3,59.8c-0.4-0.9-1.5-1.3-2.4-0.9c-0.5,0.2-0.8,0.6-1,1.1l-3.4,10L215,60c-0.3-0.7-1-1.3-1.8-1.3
		c-0.8,0-1.5,0.5-1.8,1.3L208,70l-3.4-10c-0.2-0.5-0.5-0.9-1-1.1c-0.4-0.2-1-0.2-1.4-0.1c-1,0.4-1.5,1.4-1.1,2.4l5.2,15
		c0.3,1,1.3,1.5,2.3,1.2c0.6-0.2,1-0.6,1.2-1.2l3.4-10l3.4,9.9c0.3,1,1.4,1.5,2.3,1.2c0.6-0.2,1-0.6,1.2-1.2l5.2-15
		C225.4,60.7,225.4,60.2,225.3,59.8"/>
	<path class="st1" d="M146.9,70.1h-4.1l2.1-6L146.9,70.1z M147.4,60.1c0,0-0.5-1.3-2.6-1.3s-2.6,1.3-2.6,1.3l-5.3,15.3
		c-0.1,0.4,0,0.9,0.2,1.2c0.3,0.4,0.7,0.7,1.2,0.8c0.2,0,0.4,0.1,0.5,0.1c0.3,0,0.6-0.1,0.9-0.2c0.4-0.2,0.7-0.5,0.8-0.9l1-3h6.4
		l1,3c0.1,0.4,0.4,0.7,0.8,0.9c0.4,0.2,0.9,0.3,1.4,0.1c0.5-0.1,0.9-0.4,1.2-0.8c0.2-0.4,0.3-0.8,0.2-1.2L147.4,60.1z"/>
	<path class="st1" d="M147.3,84.8c0-0.2,0.1-0.3,0.2-0.4c0.2-0.1,0.4-0.2,0.6-0.2c0.2,0,0.4,0.1,0.5,0.2c0.1,0.1,0.2,0.3,0.2,0.4v7
		c0,0.2-0.1,0.3-0.2,0.4c-0.1,0.1-0.3,0.2-0.5,0.2c-0.2,0-0.4-0.1-0.6-0.2c-0.1-0.1-0.2-0.2-0.2-0.4V84.8z"/>
	<path class="st1" d="M151.3,84.8c0-0.2,0.1-0.3,0.2-0.4c0.2-0.1,0.3-0.2,0.5-0.2c0.2,0,0.3,0,0.5,0.2c0.1,0.1,0.2,0.2,0.2,0.3
		l3.3,4.9v-4.8c0-0.2,0.1-0.3,0.2-0.4c0.2-0.1,0.4-0.2,0.6-0.2c0.2,0,0.4,0.1,0.5,0.2c0.1,0.1,0.2,0.3,0.2,0.4v7
		c0,0.2-0.1,0.3-0.2,0.4c-0.1,0.1-0.3,0.2-0.5,0.2c-0.2,0-0.3,0-0.5-0.1c-0.1-0.1-0.2-0.2-0.2-0.3V92l-3.3-4.8v4.7
		c0,0.2-0.1,0.3-0.2,0.4c-0.1,0.1-0.3,0.2-0.5,0.2c-0.2,0-0.4-0.1-0.5-0.2c-0.1-0.1-0.2-0.2-0.2-0.4L151.3,84.8z"/>
	<path class="st1" d="M160,85c0-0.2,0.1-0.3,0.2-0.4c0.2-0.1,0.4-0.2,0.6-0.2h1.6c0.5,0,1,0.1,1.5,0.3c0.8,0.3,1.4,1,1.6,1.8
		c0.1,0.4,0.2,0.9,0.2,1.3v1.4c0,0.4-0.1,0.9-0.2,1.3c-0.1,0.4-0.3,0.7-0.6,1c-0.3,0.3-0.6,0.5-1,0.7c-0.5,0.2-1,0.3-1.5,0.2h-1.6
		c-0.2,0-0.4-0.1-0.6-0.2c-0.1-0.1-0.2-0.3-0.2-0.4L160,85z M161.5,85.7V91h0.9c0.5,0,1-0.1,1.4-0.4c0.3-0.3,0.5-0.8,0.5-1.3v-1.6
		c0-0.5-0.1-1-0.5-1.4c-0.4-0.4-0.8-0.5-1.4-0.5L161.5,85.7z"/>
	<path class="st1" d="M171,92.5c-0.5,0-1-0.1-1.4-0.2c-0.4-0.1-0.7-0.4-0.9-0.6c-0.3-0.3-0.4-0.6-0.6-0.9c-0.1-0.4-0.2-0.7-0.2-1.1
		v-4.7c0-0.2,0.1-0.3,0.2-0.4c0.2-0.1,0.3-0.2,0.5-0.2c0.2,0,0.4,0.1,0.5,0.2c0.1,0.1,0.2,0.3,0.2,0.4v4.7c0.1,0.9,0.9,1.6,1.8,1.5
		c0.8-0.1,1.4-0.7,1.5-1.5v-4.7c0-0.2,0.1-0.3,0.2-0.4c0.1-0.1,0.3-0.2,0.5-0.2c0.2,0,0.4,0.1,0.5,0.2c0.1,0.1,0.2,0.3,0.2,0.4v4.7
		c0,0.4-0.1,0.8-0.2,1.1c-0.1,0.3-0.3,0.7-0.6,0.9c-0.3,0.3-0.6,0.5-1,0.6C171.9,92.4,171.5,92.5,171,92.5z"/>
	<path class="st1" d="M179.1,92.5c-0.2,0-0.3,0-0.5,0c-0.2,0-0.4-0.1-0.6-0.1c-0.2-0.1-0.4-0.1-0.6-0.2c-0.2-0.1-0.4-0.2-0.5-0.3
		c-0.1-0.1-0.3-0.2-0.4-0.4c-0.1-0.1-0.2-0.3-0.1-0.5c0-0.4,0.2-0.6,0.6-0.6c0.1,0,0.3,0,0.4,0.1c0.1,0.1,0.2,0.1,0.3,0.2
		c0.2,0.2,0.4,0.3,0.6,0.3c0.3,0.1,0.5,0.2,0.8,0.2c0.3,0,0.6-0.1,0.8-0.2c0.2-0.2,0.3-0.4,0.3-0.7c0-0.2-0.1-0.5-0.3-0.7
		c-0.2-0.2-0.4-0.3-0.7-0.5c-0.3-0.1-0.6-0.3-0.9-0.4c-0.3-0.1-0.6-0.3-0.9-0.5c-0.3-0.2-0.5-0.4-0.7-0.7c-0.2-0.3-0.3-0.7-0.3-1.1
		c0-0.3,0-0.6,0.2-0.9c0.2-0.6,0.7-1.1,1.3-1.3c0.3-0.1,0.7-0.2,1.1-0.2c0.4,0,0.7,0,1.1,0.2c0.3,0.1,0.5,0.2,0.8,0.4
		c0.2,0.1,0.3,0.3,0.5,0.5c0.1,0.1,0.2,0.3,0.2,0.4c0,0.2,0,0.3-0.1,0.5c-0.1,0.1-0.3,0.2-0.5,0.2c-0.1,0-0.2,0-0.4-0.1
		c-0.1-0.1-0.2-0.1-0.3-0.2c-0.1-0.1-0.3-0.2-0.5-0.3c-0.3-0.1-0.6-0.2-0.8-0.2c-0.3,0-0.5,0.1-0.7,0.2c-0.2,0.2-0.3,0.4-0.3,0.7
		c0,0.2,0.1,0.5,0.3,0.6c0.2,0.2,0.4,0.3,0.7,0.4l0.9,0.4c0.3,0.1,0.6,0.3,0.9,0.5c0.3,0.2,0.5,0.4,0.7,0.7c0.2,0.3,0.3,0.7,0.3,1.1
		c0,0.6-0.2,1.2-0.7,1.7C180.4,92.3,179.7,92.5,179.1,92.5z"/>
	<path class="st1" d="M188.6,84.4c0.2,0,0.4,0,0.5,0.2c0.1,0.1,0.2,0.3,0.2,0.5c0,0.2-0.1,0.3-0.2,0.5c-0.1,0.1-0.3,0.2-0.5,0.2H187
		v6.2c0,0.2-0.1,0.3-0.2,0.4c-0.1,0.1-0.3,0.2-0.5,0.2c-0.2,0-0.4-0.1-0.6-0.2c-0.1-0.1-0.2-0.2-0.2-0.4v-6.2H184
		c-0.2,0-0.4-0.1-0.5-0.2c-0.1-0.1-0.2-0.3-0.2-0.5c0-0.2,0.1-0.4,0.2-0.5c0.1-0.1,0.3-0.2,0.5-0.2H188.6z"/>
	<path class="st1" d="M191,85c0-0.2,0.1-0.3,0.2-0.4c0.2-0.1,0.3-0.2,0.5-0.2h1.8c0.5,0,1,0,1.4,0.2c0.3,0.1,0.7,0.3,0.9,0.5
		c0.2,0.2,0.4,0.5,0.5,0.8c0.1,0.3,0.2,0.7,0.2,1v0.1c0,0.4-0.1,0.8-0.3,1.1c-0.2,0.3-0.6,0.6-1,0.7l1.4,2.8c0.1,0.1,0.1,0.3,0,0.4
		c-0.1,0.2-0.2,0.3-0.4,0.4c-0.2,0.1-0.4,0.1-0.5,0.1c-0.2,0-0.3-0.1-0.4-0.3l-1.4-3h-0.2h-1.3v2.7c0,0.2-0.1,0.3-0.2,0.4
		c-0.1,0.1-0.3,0.2-0.5,0.2c-0.2,0-0.4-0.1-0.5-0.2c-0.1-0.1-0.2-0.3-0.2-0.4V85z M192.4,85.7V88h1c0.4,0,0.8-0.1,1.2-0.3
		c0.2-0.2,0.4-0.4,0.4-0.7v-0.2c0-0.3-0.1-0.6-0.4-0.8c-0.4-0.2-0.8-0.4-1.2-0.3L192.4,85.7z"/>
	<path class="st1" d="M198.7,84.8c0-0.2,0.1-0.3,0.2-0.4c0.2-0.1,0.4-0.2,0.6-0.2c0.2,0,0.4,0.1,0.5,0.2c0.1,0.1,0.2,0.3,0.2,0.4v7
		c0,0.2-0.1,0.3-0.2,0.4c-0.1,0.1-0.3,0.2-0.5,0.2c-0.2,0-0.4-0.1-0.6-0.2c-0.1-0.1-0.2-0.2-0.2-0.4V84.8z"/>
	<path class="st1" d="M208.6,91.7c0,0.1,0,0.3-0.1,0.4c-0.1,0.2-0.3,0.3-0.5,0.3c-0.2,0.1-0.4,0-0.6-0.1c-0.1-0.1-0.3-0.2-0.3-0.3
		l-0.4-1.4H204l-0.5,1.4c-0.1,0.1-0.2,0.3-0.3,0.3c-0.2,0.1-0.4,0.1-0.5,0c-0.2,0-0.4-0.2-0.5-0.3c-0.1-0.1-0.1-0.3-0.1-0.4l2.4-6.9
		c0-0.2,0.1-0.3,0.3-0.4c0.2-0.1,0.3-0.2,0.5-0.2c0.2,0,0.4,0.1,0.5,0.2c0.1,0.1,0.2,0.2,0.3,0.4L208.6,91.7z M204.4,89.4h1.9
		l-1-3.1L204.4,89.4z"/>
	<path class="st1" d="M210.6,84.8c0-0.2,0.1-0.3,0.2-0.4c0.2-0.1,0.3-0.2,0.5-0.2c0.2,0,0.4,0.1,0.5,0.2c0.1,0.1,0.2,0.2,0.2,0.4V91
		h2.6c0.2,0,0.4,0.1,0.5,0.2c0.1,0.1,0.2,0.3,0.2,0.5c0,0.2-0.1,0.3-0.2,0.5c-0.1,0.1-0.3,0.2-0.5,0.2h-3.4c-0.2,0-0.4-0.1-0.5-0.2
		c-0.1-0.1-0.2-0.2-0.2-0.4V84.8z"/>
	<path class="st1" d="M220.9,84.8c0-0.2,0.1-0.3,0.2-0.4c0.2-0.1,0.4-0.2,0.6-0.2c0.2,0,0.4,0.1,0.5,0.2c0.1,0.1,0.2,0.2,0.2,0.4v7
		c0,0.2-0.1,0.3-0.2,0.4c-0.1,0.1-0.3,0.2-0.5,0.2c-0.2,0-0.4-0.1-0.6-0.2c-0.1-0.1-0.2-0.2-0.2-0.4V84.8z"/>
	<path class="st1" d="M224.8,87.5c0-0.4,0.1-0.9,0.2-1.3c0.1-0.4,0.3-0.7,0.6-1c0.3-0.3,0.6-0.5,1-0.7c0.9-0.3,1.9-0.3,2.8,0
		c0.4,0.2,0.7,0.4,1,0.7c0.3,0.3,0.5,0.6,0.6,1c0.1,0.4,0.2,0.8,0.2,1.3v1.7c0,0.4-0.1,0.9-0.2,1.3c-0.1,0.4-0.3,0.7-0.6,1
		c-0.3,0.3-0.6,0.5-1,0.7c-0.9,0.3-1.9,0.3-2.8,0c-0.4-0.1-0.7-0.4-1-0.7c-0.3-0.3-0.5-0.6-0.6-1c-0.1-0.4-0.2-0.8-0.2-1.3V87.5z
		 M226.2,89.2c-0.1,0.5,0.1,1.1,0.5,1.4c0.3,0.3,0.8,0.5,1.2,0.4c0.5,0,0.9-0.1,1.3-0.4c0.3-0.4,0.5-0.9,0.4-1.4v-1.8
		c0-0.5-0.1-1-0.4-1.4c-0.3-0.3-0.8-0.5-1.3-0.4c-0.5,0-0.9,0.1-1.2,0.4c-0.3,0.4-0.5,0.9-0.5,1.4V89.2z"/>
	<path class="st1" d="M237.7,84.4c0.2,0,0.4,0,0.5,0.2c0.1,0.1,0.2,0.3,0.2,0.5c0,0.2-0.1,0.3-0.2,0.5c-0.1,0.1-0.3,0.2-0.5,0.2H236
		v6.2c0,0.2-0.1,0.3-0.2,0.4c-0.1,0.1-0.3,0.2-0.5,0.2c-0.2,0-0.4-0.1-0.6-0.2c-0.1-0.1-0.2-0.2-0.2-0.4v-6.2h-1.5
		c-0.2,0-0.4-0.1-0.5-0.2c-0.1-0.1-0.2-0.3-0.2-0.5c0-0.2,0.1-0.4,0.2-0.5c0.1-0.1,0.3-0.2,0.5-0.2H237.7z"/>
	<path class="st1" d="M244,84.8c0-0.2,0.1-0.3,0.2-0.4c0.2-0.1,0.4-0.2,0.6-0.2c0.2,0,0.4,0.1,0.5,0.2c0.1,0.1,0.2,0.3,0.2,0.4v3
		h0.4l2.4-3.4c0.1-0.1,0.1-0.1,0.2-0.2c0.1,0,0.2-0.1,0.3-0.1c0.1,0,0.2,0,0.3,0c0.1,0,0.2,0.1,0.3,0.1c0.1,0.1,0.2,0.3,0.2,0.5
		c0,0.2-0.1,0.3-0.2,0.5l-2.2,3l2.5,3c0.1,0.1,0.2,0.3,0.1,0.4c-0.1,0.4-0.4,0.7-0.8,0.7c-0.2,0-0.3-0.1-0.4-0.2l-2.6-3.2h-0.5v2.8
		c0,0.2-0.1,0.3-0.2,0.4c-0.1,0.1-0.3,0.2-0.5,0.2c-0.2,0-0.4-0.1-0.6-0.2c-0.1-0.1-0.2-0.2-0.2-0.4V84.8z"/>
	<path class="st1" d="M251.4,84.8c0-0.2,0.1-0.3,0.2-0.4c0.2-0.1,0.3-0.2,0.5-0.2c0.2,0,0.4,0.1,0.5,0.2c0.1,0.1,0.2,0.2,0.2,0.4v7
		c0,0.2-0.1,0.3-0.2,0.4c-0.1,0.1-0.3,0.2-0.5,0.2c-0.2,0-0.4-0.1-0.5-0.2c-0.1-0.1-0.2-0.2-0.2-0.4V84.8z"/>
	<path class="st1" d="M259.9,84.4c0.2,0,0.4,0,0.5,0.2c0.1,0.1,0.2,0.3,0.2,0.5c0,0.2-0.1,0.3-0.2,0.5c-0.1,0.1-0.3,0.2-0.5,0.2
		h-1.6v6.2c0,0.2-0.1,0.3-0.2,0.4c-0.1,0.1-0.3,0.2-0.5,0.2c-0.2,0-0.4-0.1-0.5-0.2c-0.1-0.1-0.2-0.2-0.2-0.4v-6.2h-1.5
		c-0.2,0-0.4-0.1-0.5-0.2c-0.1-0.1-0.2-0.3-0.2-0.5c0-0.2,0.1-0.4,0.2-0.5c0.1-0.1,0.3-0.2,0.5-0.2H259.9z"/>
	<path class="st1" d="M264.8,92.5c-0.2,0-0.3,0-0.5,0c-0.2,0-0.4-0.1-0.6-0.1c-0.2-0.1-0.4-0.1-0.6-0.2c-0.2-0.1-0.4-0.2-0.5-0.3
		c-0.1-0.1-0.3-0.2-0.4-0.4c-0.1-0.1-0.2-0.3-0.1-0.5c0-0.4,0.2-0.6,0.6-0.6c0.1,0,0.3,0,0.4,0.1c0.1,0.1,0.2,0.1,0.3,0.2
		c0.2,0.2,0.4,0.3,0.6,0.3c0.3,0.1,0.5,0.2,0.8,0.2c0.3,0,0.6-0.1,0.8-0.2c0.2-0.2,0.3-0.4,0.3-0.7c0-0.2-0.1-0.5-0.3-0.7
		c-0.2-0.2-0.4-0.3-0.7-0.5c-0.3-0.1-0.6-0.3-0.9-0.4c-0.3-0.1-0.6-0.3-0.9-0.5c-0.3-0.2-0.5-0.4-0.7-0.7c-0.2-0.3-0.3-0.7-0.3-1.1
		c0-0.3,0-0.6,0.2-0.9c0.2-0.6,0.7-1,1.3-1.2c0.3-0.1,0.7-0.2,1.1-0.2c0.4,0,0.7,0,1.1,0.2c0.3,0.1,0.5,0.2,0.8,0.4
		c0.2,0.1,0.4,0.3,0.5,0.5c0.1,0.1,0.1,0.3,0.2,0.4c0,0.2,0,0.3-0.1,0.5c-0.1,0.1-0.3,0.2-0.5,0.2c-0.1,0-0.2,0-0.4-0.1
		c-0.1-0.1-0.2-0.2-0.3-0.3c-0.1-0.1-0.3-0.2-0.5-0.3c-0.3-0.1-0.6-0.2-0.8-0.2c-0.3,0-0.5,0.1-0.7,0.2c-0.2,0.2-0.3,0.4-0.3,0.7
		c0,0.2,0.1,0.5,0.3,0.6c0.2,0.2,0.4,0.3,0.7,0.4l0.9,0.4c0.3,0.1,0.6,0.3,0.9,0.5c0.3,0.2,0.5,0.4,0.7,0.7c0.2,0.3,0.3,0.7,0.3,1.1
		c0,0.6-0.2,1.2-0.7,1.7C266.1,92.3,265.4,92.5,264.8,92.5z"/>
</g>
</svg>
