<?xml version="1.0" encoding="utf-8"?>
<!-- Generator: Adobe Illustrator 26.0.2, SVG Export Plug-In . SVG Version: 6.00 Build 0)  -->
<svg version="1.1" id="Vrstva_1" xmlns="http://www.w3.org/2000/svg" xmlns:xlink="http://www.w3.org/1999/xlink" x="0px" y="0px"
	 viewBox="0 0 389 182" style="enable-background:new 0 0 389 182;" xml:space="preserve">
<style type="text/css">
	.st0{opacity:0.2;fill:#E6E6E6;enable-background:new    ;}
	.st1{fill:#1A1A1A;}
</style>
<g id="Layer_2">
	<g id="Layer_1-2">
		<rect y="0" class="st0" width="389" height="182"/>
		<path class="st1" d="M75.1,115.8c0-0.3,0.1-0.6,0.2-0.9c0.5-1.2,1.9-1.7,3-1.2c1.2,0.5,1.7,1.9,1.2,3c-0.5,1.2-1.9,1.7-3,1.2
			C75.7,117.5,75.1,116.7,75.1,115.8 M112,66c1.2,0,2.3,1,2.2,2.3c0,1.2-1,2.2-2.2,2.2c-0.9,0-1.7-0.6-2-1.3
			c-0.1-0.3-0.2-0.6-0.2-0.9C109.8,67,110.8,66,112,66 M79.4,109.7v-10l33.2-11.3c0.8-0.3,1.4-1.1,1.4-2V74.3c3.3-1.1,5.1-4.7,3.9-8
			c-1.1-3.3-4.7-5.1-8-3.9s-5.1,4.7-3.9,8c0.6,1.9,2.1,3.3,3.9,3.9v10.6L76.7,96.2c-0.8,0.3-1.4,1.1-1.4,2v11.5
			c-3.3,1.1-5.1,4.7-4,8.1c1.1,3.3,4.7,5.1,8.1,4c3.3-1.1,5.1-4.7,4-8.1C82.7,111.8,81.3,110.3,79.4,109.7"/>
		<path class="st1" d="M79.6,68.2c0,1.2-1,2.3-2.2,2.3c-0.9,0-1.7-0.5-2.1-1.3c-0.1-0.3-0.2-0.6-0.2-0.9C75,67,76,65.9,77.2,65.8
			c1.2-0.1,2.3,0.9,2.4,2.1C79.6,68,79.6,68.1,79.6,68.2 M94.7,77.4c1.3,0,2.3,1,2.3,2.3c0,1.3-1,2.3-2.3,2.3h-0.2
			c-1.1-0.1-2-1.1-2-2.3c0-0.6,0.2-1.2,0.7-1.7C93.6,77.6,94.1,77.4,94.7,77.4 M75.3,74.3v11.2c0,0.7,0.3,1.3,0.9,1.7
			c0.3,0.3,0.8,0.4,1.2,0.4c0.2,0,0.4,0,0.7-0.1l11.6-4c1.2,1.6,3,2.5,5,2.5c3.6,0.1,6.5-2.8,6.5-6.3c0.1-3.6-2.8-6.5-6.3-6.5
			c-3.6-0.1-6.5,2.8-6.5,6.3c0,0,0,0,0,0.1l-8.9,3v-8.3c3.3-1.1,5.1-4.7,3.9-8c-1.1-3.3-4.7-5.1-8-3.9s-5.1,4.7-3.9,8
			C72,72.2,73.4,73.7,75.3,74.3"/>
		<path class="st1" d="M109.8,115.8c0-0.3,0.1-0.6,0.2-0.9c0.5-1.2,1.9-1.7,3-1.2c1.2,0.5,1.7,1.9,1.2,3c-0.5,1.2-1.9,1.7-3,1.2
			C110.3,117.5,109.8,116.7,109.8,115.8 M94.7,107.2c-1.3,0-2.3-1-2.3-2.3c0-1.3,1-2.3,2.3-2.3h0.2c1.1,0.1,2,1.1,2,2.3
			c0,0.6-0.3,1.2-0.7,1.7C95.8,107,95.2,107.2,94.7,107.2 M114,109.7V99c0-0.7-0.3-1.3-0.8-1.7c-0.5-0.4-1.2-0.5-1.8-0.3l-11.6,4
			c-1.2-1.6-3-2.5-5-2.5c-3.6-0.1-6.5,2.8-6.5,6.3c-0.1,3.6,2.8,6.5,6.3,6.5c3.6,0.1,6.5-2.8,6.5-6.3c0,0,0,0,0-0.1l8.9-3v7.8
			c-3.3,1.1-5.1,4.7-4,8.1c1.1,3.3,4.7,5.1,8.1,4c3.3-1.1,5.1-4.7,4-8.1C117.4,111.8,115.9,110.4,114,109.7"/>
		<path class="st1" d="M148.6,82.6c-0.5,0-1,0.1-1.4,0.5c-0.3,0.3-0.5,0.7-0.5,1.1v6.2h-7.3v-6.2c0-0.4-0.2-0.8-0.5-1.1
			c-0.4-0.3-0.8-0.5-1.3-0.5c-0.5,0-1,0.1-1.4,0.5c-0.3,0.3-0.5,0.7-0.6,1.1v15.6c0,0.4,0.2,0.8,0.6,1.1c0.4,0.3,0.9,0.5,1.4,0.5
			c0.5,0,1-0.2,1.3-0.5c0.3-0.3,0.5-0.7,0.5-1.1v-5.9h7.3v5.9c0,0.4,0.2,0.8,0.5,1.1c0.4,0.3,0.9,0.5,1.4,0.5c0.5,0,1-0.2,1.3-0.5
			c0.3-0.3,0.5-0.7,0.5-1.1V84.2c0-0.4-0.2-0.8-0.5-1.1C149.6,82.8,149.1,82.6,148.6,82.6"/>
		<path class="st1" d="M189.9,88.5V89c0,0.5-0.2,1.1-0.7,1.4c-0.7,0.4-1.6,0.6-2.5,0.6h-3.2v-4.7h3.2c0.9-0.1,1.7,0.1,2.5,0.6
			C189.7,87.3,190,87.9,189.9,88.5 M190.9,92.9c0.8-0.3,1.6-0.9,2.1-1.6c0.5-0.8,0.7-1.7,0.7-2.6v-0.2c0-0.8-0.1-1.6-0.4-2.3
			c-0.2-0.7-0.7-1.3-1.2-1.8c-0.6-0.5-1.3-0.9-2.1-1.1c-1-0.3-2.1-0.4-3.2-0.4h-5c-0.5,0-1,0.1-1.4,0.5c-0.3,0.3-0.5,0.7-0.6,1.1
			v15.2c0,0.4,0.2,0.9,0.5,1.2c0.4,0.4,0.9,0.5,1.4,0.5c0.5,0,1-0.1,1.3-0.4c0.3-0.3,0.5-0.7,0.5-1.1v-5.7h4l3,6.4
			c0.2,0.4,0.6,0.6,1,0.7c0.2,0,0.3,0.1,0.5,0.1c0.3,0,0.6-0.1,0.9-0.2c0.4-0.2,0.8-0.6,1-1.1c0.2-0.4,0.1-0.9-0.1-1.2L190.9,92.9z"
			/>
		<path class="st1" d="M211.1,90.4V94c0.1,1-0.3,2-1,2.7c-0.8,0.6-1.7,1-2.7,0.9h-2.8V86.4h2.8c1-0.1,2,0.3,2.7,1
			C210.8,88.2,211.1,89.3,211.1,90.4 M213.1,85.2c-0.6-0.7-1.4-1.3-2.3-1.7c-1.1-0.4-2.2-0.6-3.3-0.6h-4.7c-0.5,0-1,0.1-1.4,0.5
			c-0.3,0.3-0.5,0.7-0.5,1.1v15c0,0.4,0.2,0.8,0.5,1.1c0.4,0.3,0.9,0.5,1.4,0.5h4.7c1.1,0,2.3-0.2,3.3-0.6c0.9-0.3,1.7-0.8,2.3-1.5
			c0.6-0.7,1.1-1.5,1.4-2.4c0.3-0.9,0.4-1.9,0.4-2.9v-3.1c0-1-0.1-2-0.4-3C214.1,86.7,213.6,85.9,213.1,85.2"/>
		<path class="st1" d="M260.5,94h-4.1l2-6L260.5,94z M261,84c0,0-0.5-1.3-2.6-1.3s-2.6,1.3-2.6,1.3l-5.3,15.3
			c-0.1,0.4,0,0.9,0.2,1.2c0.3,0.4,0.7,0.7,1.2,0.8c0.2,0.1,0.4,0.1,0.6,0.1c0.3,0,0.6-0.1,0.8-0.2c0.4-0.2,0.7-0.5,0.8-0.9l1-3h6.4
			l1,3c0.1,0.4,0.4,0.7,0.8,0.9c0.4,0.2,0.9,0.3,1.4,0.1c0.5-0.1,0.9-0.4,1.2-0.8c0.2-0.4,0.3-0.8,0.2-1.2L261,84z"/>
		<path class="st1" d="M283.2,88.5V89c0,0.5-0.2,1.1-0.7,1.4c-0.7,0.5-1.6,0.7-2.5,0.6h-3.2v-4.8h3.2c0.9-0.1,1.7,0.1,2.5,0.6
			C282.9,87.3,283.2,87.9,283.2,88.5 M284.1,92.9c0.8-0.3,1.6-0.9,2.1-1.6c0.5-0.8,0.7-1.7,0.7-2.6v-0.2c0-0.8-0.1-1.6-0.4-2.3
			c-0.2-0.7-0.7-1.3-1.2-1.8c-0.6-0.5-1.4-0.9-2.2-1.2c-1.4-0.3-2.9-0.4-4.4-0.4H275c-0.5,0-1,0.1-1.4,0.5c-0.3,0.3-0.5,0.7-0.5,1.1
			v15.2c0,0.4,0.2,0.9,0.5,1.2c0.8,0.7,1.9,0.7,2.7,0.1c0.3-0.3,0.5-0.7,0.5-1.1v-5.7h4l3,6.4c0.2,0.4,0.6,0.6,1,0.7
			c0.2,0,0.3,0.1,0.5,0.1c0.3,0,0.7-0.1,0.9-0.2c0.4-0.2,0.8-0.6,1-1.1c0.2-0.4,0.1-0.9-0.1-1.2L284.1,92.9z"/>
		<path class="st1" d="M295.9,82.6c-0.5,0-1,0.1-1.4,0.5c-0.3,0.3-0.5,0.7-0.5,1.1v15.6c0,0.4,0.2,0.8,0.5,1.1
			c0.4,0.3,0.9,0.5,1.4,0.5c0.5,0,1-0.2,1.3-0.5c0.3-0.3,0.5-0.7,0.5-1.1V84.2c0-0.4-0.2-0.8-0.5-1.1
			C296.9,82.8,296.4,82.6,295.9,82.6"/>
		<path class="st1" d="M312.2,97.8c-1.1,0-2.2-0.3-3.1-0.9c-0.7-0.8-1-1.9-0.9-3v-3.9c-0.1-1.1,0.2-2.2,0.9-3c1.9-1.2,4.3-1.2,6.2,0
			c0.7,0.8,1,1.9,0.9,3V94c0.1,1.1-0.2,2.2-0.9,3C314.5,97.6,313.4,97.9,312.2,97.8 M319.6,87.2c-0.5-1.8-1.8-3.3-3.6-4
			c-2.5-0.8-5.1-0.8-7.5,0c-0.9,0.4-1.6,0.9-2.2,1.6c-0.6,0.7-1,1.5-1.3,2.4c-0.3,0.9-0.4,1.9-0.4,2.9v3.9c0,1,0.1,2,0.4,2.9
			c0.3,0.9,0.7,1.7,1.3,2.4c0.6,0.7,1.4,1.2,2.2,1.6c2.5,0.8,5.1,0.8,7.5,0c0.9-0.4,1.6-0.9,2.2-1.6c0.6-0.7,1.1-1.5,1.3-2.4
			c0.3-0.9,0.4-1.9,0.4-2.9v-3.9C320.1,89.1,319.9,88.1,319.6,87.2"/>
		<path class="st1" d="M245.6,83.7c-0.2-0.5-0.6-0.8-1.1-1c-1-0.3-2,0.2-2.4,1.2c0,0,0,0,0,0l-3.4,9.9l-3.4-10
			c-0.3-0.7-1-1.2-1.8-1.2c-0.8,0-1.5,0.5-1.7,1.3l-3.4,10l-3.4-10c-0.2-0.5-0.5-0.9-0.9-1.1c-0.4-0.2-1-0.2-1.4-0.1
			c-1,0.4-1.5,1.4-1.1,2.4l5.2,15c0.3,1,1.3,1.5,2.3,1.2c0.6-0.2,1-0.6,1.2-1.2l3.4-10l3.4,9.9c0.3,1,1.4,1.5,2.4,1.2
			c0.5-0.2,1-0.6,1.1-1.2l5.2-15c0.2-0.5,0.1-1-0.1-1.4"/>
		<path class="st1" d="M167.2,93.9h-4.1l2-6L167.2,93.9z M167.7,83.9c0,0-0.5-1.3-2.6-1.3s-2.6,1.3-2.6,1.3l-5.3,15.3
			c-0.1,0.4,0,0.9,0.2,1.2c0.3,0.4,0.7,0.7,1.2,0.8c0.2,0,0.4,0.1,0.5,0.1c0.3,0,0.6-0.1,0.8-0.2c0.4-0.2,0.7-0.5,0.8-0.9l1.1-3h6.4
			l1,3c0.1,0.4,0.4,0.8,0.8,0.9c0.4,0.2,0.9,0.3,1.4,0.1c0.5-0.1,0.9-0.4,1.2-0.8c0.2-0.4,0.3-0.8,0.2-1.2L167.7,83.9z"/>
	</g>
</g>
</svg>
