<?xml version="1.0" encoding="utf-8"?>
<!-- Generator: Adobe Illustrator 23.0.4, SVG Export Plug-In . SVG Version: 6.00 Build 0)  -->
<svg version="1.1" id="Layer_1" xmlns="http://www.w3.org/2000/svg" xmlns:xlink="http://www.w3.org/1999/xlink" x="0px" y="0px"
	 viewBox="0 0 343.7 155.1" style="enable-background:new 0 0 343.7 155.1;" xml:space="preserve">
<style type="text/css">
	.st0{opacity:0.2;fill:#E6E6E6;enable-background:new    ;}
</style>
<title>black</title>
<g id="Layer_3">
	<path d="M51.3,101c0-1.2,0.9-2.3,2.2-2.3c0.9,0,1.8,0.5,2.1,1.4c0.1,0.3,0.2,0.6,0.2,0.9c0.1,1.2-0.9,2.3-2.1,2.4
		c-1.2,0.1-2.3-0.9-2.4-2.1C51.3,101.2,51.3,101.1,51.3,101 M88.2,51.2c1.2,0,2.3,1,2.2,2.3c0,0,0,0,0,0c0,0.3-0.1,0.6-0.2,0.9
		c-0.5,1.1-1.8,1.7-2.9,1.2c-0.5-0.2-0.9-0.6-1.2-1.2c-0.1-0.3-0.2-0.6-0.2-0.9C85.9,52.2,87,51.2,88.2,51.2 M55.6,94.9v-10
		l33.2-11.3c0.8-0.3,1.4-1.1,1.4-2v-12c3.3-1.1,5.1-4.7,4-8.1c-1.1-3.3-4.7-5.1-8.1-4s-5.1,4.7-4,8.1c0.6,1.9,2.1,3.3,4,4v10.6
		L52.9,81.4c-0.8,0.3-1.4,1.1-1.4,2v11.5c-3.3,1.1-5.1,4.7-3.9,8s4.7,5.1,8,3.9c3.3-1.1,5.1-4.7,3.9-8C58.9,97,57.5,95.6,55.6,94.9"
		/>
	<path d="M55.8,53.5c0,0.3-0.1,0.6-0.2,0.9c-0.5,1.1-1.8,1.7-2.9,1.2c-0.5-0.2-0.9-0.6-1.2-1.2c-0.1-0.3-0.2-0.6-0.2-0.9
		c-0.1-1.2,0.9-2.3,2.1-2.4s2.3,0.9,2.4,2.1C55.8,53.3,55.8,53.4,55.8,53.5 M70.9,62.6c1.3,0,2.3,1,2.3,2.3c0,1.3-1,2.3-2.3,2.3
		h-0.2c-1.3-0.1-2.2-1.2-2.1-2.5c0.1-0.6,0.3-1.1,0.8-1.5C69.8,62.8,70.3,62.6,70.9,62.6 M51.5,59.6v11.2c0,0.7,0.3,1.3,0.8,1.7
		c0.3,0.3,0.8,0.4,1.2,0.4c0.2,0,0.4,0,0.7-0.1l11.6-4c1.2,1.6,3,2.5,5,2.5c3.6,0.1,6.5-2.8,6.6-6.3c0.1-3.6-2.8-6.5-6.3-6.6
		c-3.6-0.1-6.5,2.8-6.6,6.3c0,0,0,0.1,0,0.1l-8.9,3v-8.3c3.3-1.1,5.1-4.7,4-8.1c-1.1-3.3-4.7-5.1-8.1-4s-5.1,4.7-4,8.1
		C48.2,57.5,49.6,58.9,51.5,59.6"/>
	<path d="M86,101c0-1.2,0.9-2.3,2.2-2.3c0.9,0,1.8,0.5,2.1,1.4c0.1,0.3,0.2,0.6,0.2,0.9c0,1.2-1,2.2-2.2,2.2S86,102.2,86,101
		 M70.9,92.4c-1.3,0-2.3-1-2.3-2.3c0-1.3,1-2.3,2.3-2.3h0.2c1.3,0.1,2.2,1.2,2.1,2.5c-0.1,0.6-0.3,1.1-0.8,1.5
		C72,92.2,71.5,92.4,70.9,92.4 M90.3,94.9V84.2c0-0.7-0.3-1.3-0.8-1.7c-0.5-0.4-1.2-0.5-1.9-0.3l-11.6,4c-1.2-1.6-3-2.5-5-2.5
		c-3.6-0.1-6.5,2.8-6.5,6.3c-0.1,3.6,2.8,6.5,6.3,6.5c3.6,0.1,6.5-2.8,6.5-6.3c0,0,0,0,0-0.1l8.9-3V95c-3.3,1.1-5.1,4.7-4,8.1
		c1.1,3.3,4.7,5.1,8.1,4c3.3-1.1,5.1-4.7,4-8.1C93.7,97.1,92.2,95.6,90.3,94.9"/>
	<path d="M125.1,59.1c-0.5,0-1,0.1-1.4,0.5c-0.3,0.3-0.5,0.7-0.5,1.1v6.2h-7.3v-6.2c0-0.4-0.2-0.8-0.5-1.1c-0.4-0.3-0.8-0.5-1.3-0.5
		c-0.5,0-1,0.1-1.4,0.5c-0.3,0.3-0.5,0.7-0.6,1.1v15.6c0,0.4,0.2,0.8,0.6,1.1c0.4,0.3,0.9,0.5,1.4,0.5c0.5,0,1-0.2,1.3-0.5
		c0.3-0.3,0.5-0.7,0.5-1.1v-5.9h7.3v5.9c0,0.4,0.2,0.8,0.5,1.1c0.4,0.3,0.9,0.5,1.4,0.5c0.5,0,0.9-0.2,1.3-0.5
		c0.3-0.3,0.5-0.7,0.5-1.1V60.7c0-0.4-0.2-0.8-0.5-1.1C126,59.3,125.6,59.1,125.1,59.1"/>
	<path d="M166.4,65v0.5c0,0.5-0.2,1.1-0.7,1.4c-0.7,0.4-1.6,0.6-2.5,0.6h-3.2v-4.7h3.2c0.9-0.1,1.7,0.1,2.5,0.6
		C166.2,63.7,166.4,64.3,166.4,65 M167.4,69.4c0.8-0.3,1.6-0.9,2.1-1.6c0.5-0.8,0.7-1.7,0.7-2.6V65c0-0.8-0.1-1.6-0.4-2.3
		c-0.2-0.7-0.7-1.3-1.2-1.8c-0.6-0.5-1.4-0.9-2.2-1.2c-1-0.3-2.1-0.4-3.2-0.4h-5c-0.5,0-1,0.2-1.4,0.5c-0.3,0.3-0.5,0.7-0.5,1.1
		v15.2c0,0.4,0.2,0.9,0.5,1.2c0.4,0.4,0.9,0.5,1.4,0.5c0.5,0,0.9-0.1,1.3-0.4c0.3-0.3,0.5-0.7,0.5-1.1v-5.7h4l3,6.4
		c0.2,0.4,0.6,0.6,1,0.7c0.1,0,0.3,0.1,0.4,0.1c0.3,0,0.7-0.1,0.9-0.2c0.4-0.2,0.8-0.6,1-1.1c0.2-0.4,0.1-0.9-0.1-1.2L167.4,69.4z"
		/>
	<path d="M187.5,66.9v3.6c0.1,1-0.3,2-1,2.7c-0.8,0.6-1.7,1-2.7,0.9H181V62.9h2.9c1-0.1,2,0.3,2.7,1
		C187.3,64.7,187.6,65.8,187.5,66.9 M189.6,61.6c-0.7-0.7-1.5-1.3-2.4-1.6c-1-0.4-2.2-0.6-3.3-0.6h-4.7c-0.5,0-1,0.1-1.4,0.5
		c-0.3,0.3-0.5,0.7-0.5,1.1v15c0,0.4,0.2,0.8,0.5,1.1c0.4,0.3,0.9,0.5,1.4,0.5h4.7c1.1,0,2.3-0.2,3.3-0.6c0.9-0.4,1.7-0.9,2.3-1.6
		c0.6-0.7,1.1-1.5,1.4-2.4c0.3-0.9,0.4-1.9,0.4-2.9v-3.1c0-1-0.1-2-0.4-3C190.6,63.2,190.1,62.4,189.6,61.6"/>
	<path d="M237,70.4h-4.1l2.1-6L237,70.4z M237.5,60.4c0,0-0.5-1.3-2.6-1.3s-2.6,1.3-2.6,1.3L227,75.7c-0.1,0.4,0,0.9,0.2,1.2
		c0.3,0.4,0.7,0.7,1.2,0.8c0.2,0,0.4,0.1,0.5,0.1c0.3,0,0.6-0.1,0.8-0.2c0.4-0.2,0.7-0.5,0.8-0.9l1-3h6.4l1,3
		c0.1,0.4,0.4,0.7,0.8,0.9c0.4,0.2,0.9,0.3,1.4,0.1c0.5-0.1,0.9-0.4,1.2-0.8c0.2-0.4,0.3-0.8,0.2-1.2L237.5,60.4z"/>
	<path d="M259.6,65v0.5c0,0.5-0.2,1.1-0.7,1.4c-0.7,0.4-1.6,0.6-2.5,0.6h-3.2v-4.7h3.2c0.9-0.1,1.7,0.1,2.5,0.6
		C259.4,63.7,259.7,64.3,259.6,65 M260.6,69.4c0.8-0.3,1.6-0.9,2.1-1.6c0.5-0.8,0.7-1.7,0.7-2.6V65c0-0.8-0.1-1.6-0.4-2.3
		c-0.3-0.7-0.7-1.3-1.2-1.8c-0.6-0.5-1.4-0.9-2.2-1.2c-1.4-0.3-2.9-0.4-4.4-0.4h-3.8c-0.5,0-1,0.2-1.4,0.5c-0.3,0.3-0.5,0.7-0.6,1.1
		v15.2c0,0.4,0.2,0.9,0.5,1.2c0.4,0.4,0.9,0.5,1.4,0.5c0.5,0,1-0.1,1.3-0.4c0.3-0.3,0.5-0.7,0.5-1.1v-5.7h4l3,6.4
		c0.2,0.4,0.6,0.6,1,0.7c0.1,0,0.3,0.1,0.5,0.1c0.3,0,0.6-0.1,0.9-0.2c0.5-0.2,0.8-0.6,1-1.1c0.2-0.4,0.1-0.9-0.1-1.2L260.6,69.4z"
		/>
	<path d="M272.4,59.1c-0.5,0-1,0.1-1.4,0.5c-0.3,0.3-0.5,0.7-0.5,1.1v15.6c0,0.4,0.2,0.8,0.5,1.1c0.4,0.3,0.9,0.5,1.4,0.5
		c0.5,0,1-0.2,1.3-0.5c0.3-0.3,0.5-0.7,0.5-1.1V60.7c0-0.4-0.2-0.8-0.5-1.1C273.3,59.3,272.9,59.1,272.4,59.1"/>
	<path d="M288.7,74.3c-1.1,0-2.2-0.3-3.1-0.9c-0.7-0.8-1-1.9-0.9-3v-3.9c-0.1-1.1,0.2-2.2,0.9-3c1.9-1.2,4.3-1.2,6.2,0
		c0.7,0.8,1,1.9,0.9,3v3.9c0.1,1.1-0.2,2.2-0.9,3C290.9,74.1,289.8,74.4,288.7,74.3 M296.1,63.7c-0.3-0.9-0.7-1.7-1.3-2.4
		c-0.6-0.7-1.4-1.2-2.2-1.6c-2.5-0.8-5.1-0.8-7.5,0c-0.9,0.4-1.6,0.9-2.2,1.6c-0.6,0.7-1,1.5-1.3,2.4c-0.3,0.9-0.4,1.9-0.4,2.9v3.9
		c0,1,0.1,2,0.4,2.9c0.3,0.9,0.7,1.7,1.3,2.4c0.6,0.7,1.4,1.2,2.3,1.6c2.5,0.8,5.1,0.8,7.5,0c0.9-0.4,1.6-0.9,2.2-1.6
		c0.6-0.7,1.1-1.5,1.3-2.4c0.3-0.9,0.4-1.9,0.4-2.9v-3.9C296.5,65.6,296.4,64.6,296.1,63.7"/>
	<path d="M222.1,60.2c-0.4-0.9-1.5-1.3-2.4-0.9c0,0-0.1,0-0.1,0c-0.4,0.2-0.8,0.6-0.9,1.1l-3.4,10l-3.4-10c-0.3-0.7-1-1.2-1.8-1.2
		c-0.8,0-1.5,0.5-1.8,1.3l-3.4,10l-3.4-10c-0.2-0.5-0.5-0.9-1-1.1c-0.4-0.2-1-0.3-1.4-0.1c-1,0.4-1.5,1.4-1.1,2.4l5.2,15
		c0.2,0.8,0.9,1.3,1.8,1.3c0.8,0,1.5-0.5,1.8-1.3l3.5-9.9l3.4,9.9c0.2,0.8,1,1.3,1.8,1.3c0.8,0,1.5-0.5,1.7-1.2l5.2-15
		C222.3,61.2,222.3,60.6,222.1,60.2"/>
	<path d="M143.7,70.4h-4.1l2-6L143.7,70.4z M144.2,60.4c0,0-0.5-1.3-2.6-1.3s-2.6,1.3-2.6,1.3l-5.3,15.3c-0.1,0.4,0,0.9,0.2,1.2
		c0.3,0.4,0.7,0.7,1.2,0.8c0.2,0,0.4,0.1,0.5,0.1c0.3,0,0.6-0.1,0.8-0.2c0.4-0.2,0.7-0.5,0.8-0.9l1.1-3h6.4l1,3
		c0.1,0.4,0.4,0.7,0.8,0.9c0.4,0.2,0.9,0.3,1.4,0.1c0.5-0.1,0.9-0.4,1.2-0.8c0.2-0.4,0.3-0.8,0.2-1.2L144.2,60.4z"/>
	<path d="M144.1,85.1c0-0.2,0.1-0.3,0.2-0.4c0.2-0.1,0.4-0.2,0.6-0.2c0.2,0,0.4,0.1,0.5,0.2c0.1,0.1,0.2,0.2,0.2,0.4v7
		c0,0.2-0.1,0.3-0.2,0.4c-0.1,0.1-0.3,0.2-0.5,0.2c-0.2,0-0.4-0.1-0.6-0.2c-0.1-0.1-0.2-0.2-0.2-0.4V85.1z"/>
	<path d="M148.1,85.1c0-0.2,0.1-0.3,0.2-0.4c0.2-0.1,0.3-0.2,0.5-0.2c0.2,0,0.3,0,0.5,0.1c0.1,0.1,0.2,0.2,0.2,0.3l3.4,4.9v-4.8
		c0-0.2,0.1-0.3,0.2-0.4c0.2-0.1,0.4-0.2,0.6-0.2c0.2,0,0.4,0.1,0.5,0.2c0.1,0.1,0.2,0.2,0.2,0.4v7c0,0.2-0.1,0.3-0.2,0.4
		c-0.1,0.1-0.3,0.2-0.5,0.2c-0.2,0-0.3,0-0.4-0.1c-0.1-0.1-0.2-0.2-0.3-0.3v-0.1l-3.3-4.8v4.7c0,0.2-0.1,0.3-0.2,0.4
		c-0.1,0.1-0.3,0.2-0.5,0.2c-0.2,0-0.4-0.1-0.5-0.2c-0.1-0.1-0.2-0.3-0.2-0.4L148.1,85.1z"/>
	<path d="M156.8,85.3c0-0.2,0.1-0.3,0.2-0.4c0.2-0.1,0.4-0.2,0.6-0.2h1.6c0.5,0,1,0.1,1.5,0.3c0.8,0.3,1.4,1,1.6,1.8
		c0.1,0.4,0.2,0.9,0.2,1.3v1.4c0,0.4-0.1,0.9-0.2,1.3c-0.1,0.4-0.3,0.7-0.6,1c-0.3,0.3-0.6,0.5-1,0.7c-0.5,0.2-1,0.3-1.5,0.2h-1.6
		c-0.2,0-0.4-0.1-0.6-0.2c-0.1-0.1-0.2-0.2-0.2-0.4L156.8,85.3z M158.2,86v5.3h0.9c0.5,0,1-0.1,1.3-0.4c0.3-0.3,0.5-0.8,0.5-1.3
		v-1.6c0-0.5-0.1-1-0.5-1.4c-0.4-0.4-0.8-0.5-1.3-0.5H158.2z"/>
	<path d="M167.8,92.8c-0.5,0-1-0.1-1.4-0.2c-0.4-0.1-0.7-0.4-1-0.6c-0.2-0.3-0.4-0.6-0.6-0.9c-0.1-0.4-0.2-0.7-0.2-1.1v-4.7
		c0-0.2,0.1-0.3,0.2-0.4c0.2-0.1,0.3-0.2,0.5-0.2c0.2,0,0.4,0.1,0.5,0.2c0.1,0.1,0.2,0.2,0.2,0.4v4.7c0.1,0.9,0.9,1.6,1.8,1.5
		c0.8-0.1,1.4-0.7,1.5-1.5v-4.7c0-0.2,0.1-0.3,0.2-0.4c0.1-0.1,0.3-0.2,0.5-0.2c0.2,0,0.4,0.1,0.5,0.2c0.1,0.1,0.2,0.2,0.2,0.4v4.7
		c0,0.4-0.1,0.8-0.2,1.1c-0.1,0.3-0.3,0.7-0.5,0.9c-0.3,0.3-0.6,0.5-1,0.6C168.7,92.7,168.3,92.8,167.8,92.8z"/>
	<path d="M175.9,92.8c-0.2,0-0.3,0-0.5,0c-0.2,0-0.4-0.1-0.6-0.1c-0.2-0.1-0.4-0.1-0.6-0.2c-0.2-0.1-0.4-0.2-0.5-0.3
		c-0.1-0.1-0.3-0.2-0.4-0.4c-0.1-0.1-0.2-0.3-0.1-0.5c0-0.4,0.2-0.6,0.6-0.6c0.1,0,0.3,0,0.4,0.1c0.1,0.1,0.2,0.1,0.3,0.2
		c0.2,0.2,0.4,0.3,0.6,0.4c0.3,0.1,0.5,0.2,0.8,0.2c0.3,0,0.6-0.1,0.8-0.2c0.2-0.2,0.3-0.4,0.3-0.7c0-0.2-0.1-0.5-0.3-0.7
		c-0.2-0.2-0.4-0.3-0.7-0.4c-0.3-0.1-0.6-0.3-0.9-0.4c-0.3-0.1-0.6-0.3-0.9-0.5c-0.3-0.2-0.5-0.4-0.7-0.7c-0.2-0.3-0.3-0.7-0.3-1.1
		c0-0.3,0.1-0.6,0.2-0.9c0.1-0.3,0.3-0.5,0.5-0.7c0.2-0.2,0.5-0.4,0.8-0.5c0.3-0.1,0.7-0.2,1.1-0.2c0.4,0,0.7,0,1.1,0.2
		c0.3,0.1,0.5,0.2,0.8,0.4c0.2,0.1,0.3,0.3,0.5,0.5c0.2,0.3,0.2,0.6,0,0.9c-0.1,0.1-0.3,0.2-0.5,0.2c-0.1,0-0.2,0-0.4-0.1
		c-0.1-0.1-0.2-0.1-0.3-0.2c-0.1-0.1-0.3-0.2-0.5-0.3c-0.3-0.1-0.5-0.2-0.8-0.2c-0.3,0-0.5,0.1-0.7,0.2c-0.2,0.2-0.3,0.4-0.3,0.7
		c0,0.2,0.1,0.5,0.3,0.6c0.2,0.2,0.4,0.3,0.7,0.4c0.3,0.1,0.6,0.2,0.9,0.4c0.3,0.1,0.6,0.3,0.9,0.5c0.3,0.2,0.5,0.4,0.7,0.7
		c0.2,0.3,0.3,0.7,0.3,1.1c0,0.6-0.2,1.2-0.7,1.6C177.2,92.6,176.5,92.8,175.9,92.8z"/>
	<path d="M185.4,84.7c0.2,0,0.4,0,0.5,0.2c0.1,0.1,0.2,0.3,0.2,0.5c0,0.2-0.1,0.3-0.2,0.5c-0.1,0.1-0.3,0.2-0.5,0.2h-1.6v6.2
		c0,0.2-0.1,0.3-0.2,0.4c-0.1,0.1-0.3,0.2-0.5,0.2c-0.2,0-0.4-0.1-0.5-0.2c-0.1-0.1-0.2-0.2-0.2-0.4V86h-1.5c-0.2,0-0.4-0.1-0.5-0.2
		c-0.1-0.1-0.2-0.3-0.2-0.5c0-0.2,0.1-0.4,0.2-0.5c0.1-0.1,0.3-0.2,0.5-0.2H185.4z"/>
	<path d="M187.8,85.3c0-0.2,0.1-0.3,0.2-0.4c0.2-0.1,0.3-0.2,0.5-0.2h1.8c0.5,0,1,0.1,1.4,0.2c0.3,0.1,0.7,0.3,0.9,0.5
		c0.2,0.2,0.4,0.5,0.5,0.8c0.1,0.3,0.2,0.7,0.2,1v0.1c0,0.4-0.1,0.8-0.3,1.1c-0.2,0.3-0.6,0.6-1,0.7l1.4,2.8c0.1,0.1,0.1,0.3,0,0.4
		c-0.1,0.2-0.2,0.3-0.4,0.4c-0.2,0.1-0.4,0.1-0.5,0.1c-0.2,0-0.3-0.1-0.4-0.3l-1.4-3h-1.5v2.7c0,0.2-0.1,0.3-0.2,0.4
		c-0.1,0.1-0.3,0.2-0.5,0.2c-0.2,0-0.4-0.1-0.5-0.2c-0.1-0.1-0.2-0.3-0.2-0.4L187.8,85.3z M189.3,85.9v2.4h1c0.4,0,0.9-0.1,1.2-0.3
		c0.2-0.2,0.4-0.4,0.4-0.7v-0.2c0-0.3-0.1-0.6-0.4-0.8c-0.4-0.2-0.8-0.3-1.2-0.3H189.3z"/>
	<path d="M195.5,85.1c0-0.2,0.1-0.3,0.2-0.4c0.2-0.1,0.4-0.2,0.6-0.2c0.2,0,0.4,0.1,0.5,0.2c0.1,0.1,0.2,0.2,0.2,0.4v7
		c0,0.2-0.1,0.3-0.2,0.4c-0.1,0.1-0.3,0.2-0.5,0.2c-0.2,0-0.4-0.1-0.6-0.2c-0.1-0.1-0.2-0.2-0.2-0.4V85.1z"/>
	<path d="M205.4,92c0,0.2,0,0.3-0.1,0.4c-0.1,0.2-0.3,0.3-0.5,0.3c-0.2,0.1-0.4,0.1-0.6,0c-0.1-0.1-0.3-0.2-0.3-0.3l-0.4-1.4h-2.7
		l-0.5,1.4c-0.1,0.2-0.2,0.3-0.3,0.3c-0.2,0.1-0.4,0.1-0.6,0c-0.2,0-0.4-0.2-0.5-0.3c-0.1-0.1-0.1-0.3,0-0.4l2.4-6.9
		c0.1-0.1,0.1-0.3,0.3-0.4c0.2-0.1,0.3-0.2,0.5-0.2c0.2,0,0.4,0,0.5,0.2c0.1,0.1,0.2,0.2,0.3,0.4L205.4,92z M201.2,89.7h1.9l-1-3.1
		L201.2,89.7z"/>
	<path d="M207.4,85.1c0-0.2,0.1-0.3,0.2-0.4c0.2-0.1,0.4-0.2,0.6-0.2c0.2,0,0.4,0.1,0.5,0.2c0.1,0.1,0.2,0.2,0.2,0.4v6.2h2.6
		c0.2,0,0.4,0.1,0.5,0.2c0.1,0.1,0.2,0.3,0.2,0.5c0,0.2-0.1,0.3-0.2,0.5c-0.1,0.1-0.3,0.2-0.5,0.2h-3.4c-0.2,0-0.4-0.1-0.5-0.2
		c-0.1-0.1-0.2-0.2-0.2-0.4L207.4,85.1z"/>
	<path d="M217.7,85.1c0-0.2,0.1-0.3,0.2-0.4c0.2-0.1,0.4-0.2,0.6-0.2c0.2,0,0.4,0.1,0.5,0.2c0.1,0.1,0.2,0.2,0.2,0.4v7
		c0,0.2-0.1,0.3-0.2,0.4c-0.1,0.1-0.3,0.2-0.5,0.2c-0.2,0-0.4-0.1-0.6-0.2c-0.1-0.1-0.2-0.2-0.2-0.4V85.1z"/>
	<path d="M221.6,87.8c0-0.4,0.1-0.9,0.2-1.3c0.1-0.4,0.3-0.7,0.6-1c0.3-0.3,0.6-0.5,1-0.7c0.4-0.2,0.9-0.3,1.4-0.2
		c0.5,0,1,0.1,1.4,0.2c0.4,0.1,0.7,0.4,1,0.7c0.3,0.3,0.5,0.6,0.6,1c0.1,0.4,0.2,0.8,0.2,1.3v1.7c0,0.4-0.1,0.9-0.2,1.3
		c-0.1,0.4-0.3,0.7-0.6,1c-0.3,0.3-0.6,0.5-1,0.7c-0.4,0.2-0.9,0.3-1.4,0.2c-0.5,0-1-0.1-1.4-0.2c-0.7-0.3-1.3-0.9-1.6-1.7
		c-0.1-0.4-0.2-0.8-0.2-1.3L221.6,87.8z M223,89.6c-0.1,0.5,0.1,1,0.5,1.4c0.3,0.3,0.8,0.5,1.2,0.4c0.5,0,0.9-0.1,1.2-0.4
		c0.3-0.4,0.5-0.9,0.4-1.4v-1.8c0-0.5-0.1-1-0.4-1.4c-0.3-0.3-0.8-0.5-1.2-0.4c-0.5,0-0.9,0.1-1.2,0.4c-0.3,0.4-0.5,0.9-0.5,1.4
		V89.6z"/>
	<path d="M234.5,84.7c0.2,0,0.4,0,0.6,0.2c0.1,0.1,0.2,0.3,0.2,0.5c0,0.2-0.1,0.3-0.2,0.5c-0.2,0.1-0.3,0.2-0.6,0.2h-1.6v6.2
		c0,0.2-0.1,0.3-0.2,0.4c-0.1,0.1-0.3,0.2-0.5,0.2c-0.2,0-0.4-0.1-0.6-0.2c-0.1-0.1-0.2-0.3-0.2-0.4V86h-1.5c-0.2,0-0.4-0.1-0.5-0.2
		c-0.1-0.1-0.2-0.3-0.2-0.5c0-0.2,0.1-0.4,0.2-0.5c0.1-0.1,0.3-0.2,0.5-0.2H234.5z"/>
	<path d="M240.8,85.1c0-0.2,0.1-0.3,0.2-0.4c0.2-0.1,0.4-0.2,0.6-0.2c0.2,0,0.4,0.1,0.5,0.2c0.1,0.1,0.2,0.2,0.2,0.4v3h0.4l2.4-3.4
		c0.1-0.1,0.1-0.1,0.2-0.1c0.1,0,0.2-0.1,0.3-0.1c0.1,0,0.2,0,0.3,0c0.1,0,0.2,0.1,0.3,0.1c0.2,0.1,0.2,0.3,0.2,0.5
		c0,0.2-0.1,0.3-0.2,0.4l-2.2,3l2.5,3c0.1,0.1,0.2,0.3,0.1,0.4c0,0.2-0.1,0.4-0.3,0.5c-0.1,0.1-0.3,0.2-0.5,0.2
		c-0.2,0-0.3-0.1-0.4-0.2l-2.6-3.2h-0.5v2.8c0,0.2-0.1,0.3-0.2,0.4c-0.1,0.1-0.3,0.2-0.5,0.2c-0.2,0-0.4-0.1-0.6-0.2
		c-0.1-0.1-0.2-0.3-0.2-0.4L240.8,85.1z"/>
	<path d="M248.2,85.1c0-0.2,0.1-0.3,0.2-0.4c0.2-0.1,0.4-0.2,0.6-0.2c0.2,0,0.4,0.1,0.5,0.2c0.1,0.1,0.2,0.2,0.2,0.4v7
		c0,0.2-0.1,0.3-0.2,0.4c-0.1,0.1-0.3,0.2-0.5,0.2c-0.2,0-0.4-0.1-0.6-0.2c-0.1-0.1-0.2-0.2-0.2-0.4V85.1z"/>
	<path d="M256.7,84.7c0.2,0,0.4,0,0.5,0.2c0.1,0.1,0.2,0.3,0.2,0.5c0,0.2-0.1,0.3-0.2,0.5c-0.1,0.1-0.3,0.2-0.5,0.2h-1.6v6.2
		c0,0.2-0.1,0.3-0.2,0.4c-0.1,0.1-0.3,0.2-0.5,0.2c-0.2,0-0.4-0.1-0.6-0.2c-0.1-0.1-0.2-0.3-0.2-0.4V86h-1.5c-0.2,0-0.4-0.1-0.5-0.2
		c-0.1-0.1-0.2-0.3-0.2-0.5c0-0.2,0.1-0.4,0.2-0.5c0.1-0.1,0.3-0.2,0.5-0.2H256.7z"/>
	<path d="M261.6,92.8c-0.2,0-0.3,0-0.5,0c-0.2,0-0.4-0.1-0.6-0.1c-0.2-0.1-0.4-0.1-0.6-0.2c-0.2-0.1-0.4-0.2-0.5-0.3
		c-0.1-0.1-0.3-0.2-0.4-0.4c-0.1-0.1-0.2-0.3-0.1-0.5c0-0.4,0.2-0.6,0.6-0.6c0.1,0,0.3,0,0.4,0.1c0.1,0.1,0.2,0.1,0.3,0.2
		c0.2,0.2,0.4,0.3,0.6,0.4c0.3,0.1,0.5,0.2,0.8,0.2c0.3,0,0.6-0.1,0.8-0.2c0.2-0.2,0.3-0.4,0.3-0.7c0-0.2-0.1-0.5-0.3-0.7
		c-0.2-0.2-0.4-0.3-0.7-0.4c-0.3-0.1-0.6-0.3-0.9-0.4c-0.3-0.1-0.6-0.3-0.9-0.5c-0.3-0.2-0.5-0.4-0.7-0.7c-0.2-0.3-0.3-0.7-0.3-1.1
		c0-0.3,0.1-0.6,0.2-0.9c0.1-0.3,0.3-0.5,0.5-0.7c0.2-0.2,0.5-0.4,0.8-0.5c0.3-0.1,0.7-0.2,1.1-0.2c0.4,0,0.7,0,1.1,0.2
		c0.3,0.1,0.5,0.2,0.8,0.4c0.2,0.1,0.3,0.3,0.5,0.5c0.2,0.3,0.2,0.6,0,0.9c-0.1,0.1-0.3,0.2-0.5,0.2c-0.1,0-0.3,0-0.4-0.1
		c-0.1-0.1-0.2-0.1-0.3-0.2c-0.1-0.1-0.3-0.2-0.5-0.3c-0.3-0.1-0.5-0.2-0.8-0.2c-0.3,0-0.5,0.1-0.7,0.2c-0.2,0.2-0.3,0.4-0.3,0.7
		c0,0.2,0.1,0.5,0.3,0.6c0.2,0.2,0.4,0.3,0.7,0.4c0.3,0.1,0.6,0.2,0.9,0.4c0.3,0.1,0.6,0.3,0.9,0.5c0.3,0.2,0.5,0.4,0.7,0.7
		c0.2,0.3,0.3,0.7,0.3,1.1c0,0.6-0.2,1.2-0.7,1.6C262.9,92.6,262.2,92.8,261.6,92.8z"/>
</g>
<rect x="-23.6" y="-16.9" class="st0" width="389" height="182"/>
</svg>
