<svg xmlns="http://www.w3.org/2000/svg" width="366.98" height="52.82" viewBox="0 0 366.98 52.82"><defs><style>.cls-1{fill:#252532;}</style></defs><title>roboto</title><g id="Layer_2" data-name="Layer 2"><g id="Layer_1-2" data-name="Layer 1"><path class="cls-1" d="M14.69,25H3.33v16.3H0V2.15H12.7q6.26,0,9.78,3A10.61,10.61,0,0,1,26,13.66a10.56,10.56,0,0,1-2.21,6.62,11.21,11.21,0,0,1-5.9,4L27.66,40.9v.35H24.14ZM3.33,22.16H13.46a9.36,9.36,0,0,0,6.68-2.37,8,8,0,0,0,2.53-6.13A8,8,0,0,0,20,7.23q-2.62-2.29-7.38-2.29H3.33Z"/><path class="cls-1" d="M32.47,26.29a17.1,17.1,0,0,1,1.62-7.54,12.2,12.2,0,0,1,11.32-7.09,12,12,0,0,1,9.4,4.06q3.6,4.08,3.6,10.79v.67a17.24,17.24,0,0,1-1.62,7.58A12.18,12.18,0,0,1,52.21,40a12.55,12.55,0,0,1-6.74,1.83,12,12,0,0,1-9.39-4.07q-3.61-4.06-3.61-10.78Zm3.22.89a13.18,13.18,0,0,0,2.7,8.55,8.66,8.66,0,0,0,7.08,3.34,8.63,8.63,0,0,0,7.05-3.34,13.61,13.61,0,0,0,2.69-8.82v-.62A14.79,14.79,0,0,0,54,20.2a9.91,9.91,0,0,0-3.46-4.29,8.89,8.89,0,0,0-5.11-1.52,8.62,8.62,0,0,0-7,3.37,13.65,13.65,0,0,0-2.71,8.83Z"/><path class="cls-1" d="M88.44,27q0,6.79-3,10.78a9.61,9.61,0,0,1-8.09,4,10.46,10.46,0,0,1-9.18-4.51l-.13,4H65V0h3.19V16.41a10.1,10.1,0,0,1,9.08-4.75,9.7,9.7,0,0,1,8.15,3.93q3,3.93,3,10.94Zm-3.23-.57q0-5.74-2.23-8.87a7.25,7.25,0,0,0-6.28-3.13A8.79,8.79,0,0,0,71.46,16a9.26,9.26,0,0,0-3.25,4.44V33.52A8.61,8.61,0,0,0,76.75,39,7.2,7.2,0,0,0,83,35.85C84.46,33.76,85.21,30.62,85.21,26.45Z"/><path class="cls-1" d="M93.75,26.29a17,17,0,0,1,1.63-7.54,12.17,12.17,0,0,1,11.32-7.09,12,12,0,0,1,9.4,4.06q3.6,4.08,3.6,10.79v.67a17.25,17.25,0,0,1-1.63,7.58,12.12,12.12,0,0,1-4.58,5.2,12.52,12.52,0,0,1-6.74,1.83,12,12,0,0,1-9.38-4.07q-3.62-4.06-3.62-10.78Zm3.23.89a13.23,13.23,0,0,0,2.69,8.55,9.14,9.14,0,0,0,14.13,0,13.62,13.62,0,0,0,2.7-8.82v-.62a14.64,14.64,0,0,0-1.24-6.09,9.84,9.84,0,0,0-3.46-4.29,8.88,8.88,0,0,0-5.1-1.52,8.6,8.6,0,0,0-7,3.37A13.65,13.65,0,0,0,97,26.59Z"/><path class="cls-1" d="M131.32,4.75v7.44h6v2.63h-6V34.21a6,6,0,0,0,.88,3.6A3.37,3.37,0,0,0,135.11,39a21,21,0,0,0,2.6-.26l.14,2.6a10.27,10.27,0,0,1-3.44.46,5.75,5.75,0,0,1-4.81-1.92,9.08,9.08,0,0,1-1.5-5.66V14.82h-5.34V12.19h5.34V4.75Z"/><path class="cls-1" d="M141.69,26.29a17.1,17.1,0,0,1,1.62-7.54,12.2,12.2,0,0,1,11.32-7.09,12,12,0,0,1,9.4,4.06q3.6,4.08,3.6,10.79v.67A17.24,17.24,0,0,1,166,34.76a12.18,12.18,0,0,1-4.58,5.2,12.55,12.55,0,0,1-6.74,1.83,12,12,0,0,1-9.39-4.07q-3.62-4.06-3.61-10.78Zm3.22.89a13.18,13.18,0,0,0,2.7,8.55,9.14,9.14,0,0,0,14.13,0,13.62,13.62,0,0,0,2.7-8.82v-.62a14.8,14.8,0,0,0-1.24-6.09,9.91,9.91,0,0,0-3.46-4.29,8.89,8.89,0,0,0-5.11-1.52,8.62,8.62,0,0,0-7,3.37,13.71,13.71,0,0,0-2.71,8.83Z"/><path class="cls-1" d="M203,25H191.64v16.3h-3.33V2.15H201q6.26,0,9.78,3a10.61,10.61,0,0,1,3.52,8.48,10.56,10.56,0,0,1-2.21,6.62,11.21,11.21,0,0,1-5.9,4L216,40.9v.35h-3.52Zm-11.36-2.79h10.12a9.37,9.37,0,0,0,6.69-2.37A8,8,0,0,0,211,13.66a8,8,0,0,0-2.64-6.43Q205.72,4.94,201,4.94h-9.32Z"/><path class="cls-1" d="M233.8,41.79A12.6,12.6,0,0,1,227.1,40a12.48,12.48,0,0,1-4.66-5.09,15.84,15.84,0,0,1-1.66-7.32V26.4a17.17,17.17,0,0,1,1.62-7.55,12.91,12.91,0,0,1,4.53-5.27,11.16,11.16,0,0,1,6.28-1.92,10.46,10.46,0,0,1,8.39,3.61c2.07,2.41,3.11,5.69,3.11,9.87v1.8H224v.61a12.19,12.19,0,0,0,2.84,8.24,9,9,0,0,0,7.13,3.28,10.42,10.42,0,0,0,4.55-.94,9.9,9.9,0,0,0,3.58-3l2,1.53Q240.55,41.79,233.8,41.79Zm-.59-27.4a8,8,0,0,0-6.11,2.66,12.37,12.37,0,0,0-3,7.15h17.43v-.35A10.6,10.6,0,0,0,239.12,17,7.39,7.39,0,0,0,233.21,14.39Z"/><path class="cls-1" d="M249.68,26.45q0-6.81,3-10.81a9.73,9.73,0,0,1,8.2-4,10.08,10.08,0,0,1,9,4.72l.17-4.19h3V40.66q0,5.61-3.14,8.89a11.24,11.24,0,0,1-8.51,3.27,13,13,0,0,1-5.79-1.35,11.4,11.4,0,0,1-4.34-3.61l1.8-1.94a10.18,10.18,0,0,0,8.11,4.19,8.28,8.28,0,0,0,6.29-2.37,9.5,9.5,0,0,0,2.33-6.6V37.49q-3.07,4.29-9,4.3a9.7,9.7,0,0,1-8.11-4q-3.06-4-3.06-10.88Zm3.25.57c0,3.7.74,6.63,2.22,8.77a7.24,7.24,0,0,0,6.29,3.2,8.57,8.57,0,0,0,8.4-5.31V20.17a9.16,9.16,0,0,0-3.25-4.26,8.78,8.78,0,0,0-5.1-1.46,7.31,7.31,0,0,0-6.31,3.18Q252.93,20.81,252.93,27Z"/><path class="cls-1" d="M300.16,37.57q-2.9,4.22-9.26,4.22-4.65,0-7.06-2.7t-2.47-8V12.19h3.19V30.7q0,8.29,6.72,8.29,7,0,8.83-5.77v-21h3.22V41.25h-3.11Z"/><path class="cls-1" d="M315.28,41.25h-3.22V0h3.22Z"/><path class="cls-1" d="M342.35,41.25a15.3,15.3,0,0,1-.61-4,11.26,11.26,0,0,1-4.31,3.39,13.19,13.19,0,0,1-5.55,1.2,9.74,9.74,0,0,1-6.78-2.34,7.61,7.61,0,0,1-2.59-5.91A7.76,7.76,0,0,1,326,26.83q3.52-2.47,9.84-2.47h5.83V21.05a6.37,6.37,0,0,0-1.92-4.9,7.94,7.94,0,0,0-5.6-1.78,8.74,8.74,0,0,0-5.56,1.72,5.08,5.08,0,0,0-2.2,4.13l-3.22,0a7.48,7.48,0,0,1,3.22-6,12.42,12.42,0,0,1,7.92-2.53A11.33,11.33,0,0,1,342,14.09a8.75,8.75,0,0,1,2.89,6.78V34.62a17.1,17.1,0,0,0,.88,6.31v.32Zm-10.09-2.31A10.79,10.79,0,0,0,338,37.38a9.16,9.16,0,0,0,3.69-4.16V26.83H336a14.33,14.33,0,0,0-7.52,1.76,5.26,5.26,0,0,0-2.71,4.68,5.2,5.2,0,0,0,1.81,4.06A6.86,6.86,0,0,0,332.26,38.94Z"/><path class="cls-1" d="M366.9,14.93a12.55,12.55,0,0,0-2.18-.19,7.86,7.86,0,0,0-5.09,1.68,9.25,9.25,0,0,0-3,4.88v20h-3.2V12.19h3.14l.06,4.62a8.53,8.53,0,0,1,8.19-5.15A5.36,5.36,0,0,1,367,12Z"/></g></g></svg>