<svg xmlns="http://www.w3.org/2000/svg" width="520.57" height="41.81" viewBox="0 0 520.57 41.81"><defs><style>.cls-1{fill:#252532;}</style></defs><title>roboto-mono</title><g id="Layer_2" data-name="Layer 2"><g id="Layer_1-2" data-name="Layer 1"><path class="cls-1" d="M13.27,26.64H7.55V41.25H0V2.15H13.11A21.1,21.1,0,0,1,19,2.91a13,13,0,0,1,4.5,2.25,9.81,9.81,0,0,1,2.87,3.68,12.12,12.12,0,0,1,1,5.1,13.34,13.34,0,0,1-.5,3.77,10.57,10.57,0,0,1-1.42,3A10.45,10.45,0,0,1,23.22,23a14.67,14.67,0,0,1-2.92,1.72L28.71,40.9v.35H20.63ZM7.55,20.52h5.58a6.9,6.9,0,0,0,4.93-1.63,5.76,5.76,0,0,0,1.73-4.44A6,6,0,0,0,18.1,9.9a6.91,6.91,0,0,0-5-1.63H7.55Z"/><path class="cls-1" d="M32.25,26.45a18.2,18.2,0,0,1,.92-5.87,13.58,13.58,0,0,1,2.67-4.68,12.32,12.32,0,0,1,4.3-3.12A14.2,14.2,0,0,1,46,11.66a14.33,14.33,0,0,1,5.83,1.12,12.36,12.36,0,0,1,4.31,3.12,13.58,13.58,0,0,1,2.67,4.68,18.2,18.2,0,0,1,.91,5.87V27a18.23,18.23,0,0,1-.91,5.89A13.77,13.77,0,0,1,56.1,37.6a12.06,12.06,0,0,1-4.3,3.1A14.39,14.39,0,0,1,46,41.81a14.59,14.59,0,0,1-5.84-1.11,12.13,12.13,0,0,1-4.32-3.1,13.63,13.63,0,0,1-2.67-4.69A18.23,18.23,0,0,1,32.25,27Zm7.47.57a16.17,16.17,0,0,0,.35,3.42,8.52,8.52,0,0,0,1.1,2.79A5.39,5.39,0,0,0,46,35.83a5.46,5.46,0,0,0,2.82-.7,5.54,5.54,0,0,0,1.92-1.9,8.52,8.52,0,0,0,1.09-2.79A16.17,16.17,0,0,0,52.18,27v-.57a15.65,15.65,0,0,0-.35-3.35,8.85,8.85,0,0,0-1.09-2.8,5.85,5.85,0,0,0-7.64-1.9,5.65,5.65,0,0,0-1.93,1.9,8.86,8.86,0,0,0-1.1,2.8,15.65,15.65,0,0,0-.35,3.35Z"/><path class="cls-1" d="M92.46,27a23.25,23.25,0,0,1-.71,6,13.73,13.73,0,0,1-2.13,4.67,9.92,9.92,0,0,1-3.55,3.05,10.74,10.74,0,0,1-4.94,1.09,9.15,9.15,0,0,1-7.63-3.63l-.35,3.09H66.44V0h7.47V14.82a9,9,0,0,1,3-2.33,9.44,9.44,0,0,1,4.12-.83,10.66,10.66,0,0,1,5,1.1,10,10,0,0,1,3.56,3.06,13.79,13.79,0,0,1,2.13,4.68,23.28,23.28,0,0,1,.71,5.95ZM85,26.45a19.85,19.85,0,0,0-.27-3.35,8.67,8.67,0,0,0-.93-2.78A5.08,5.08,0,0,0,82,18.42a5.33,5.33,0,0,0-2.82-.7,5.86,5.86,0,0,0-3.32.86,5.61,5.61,0,0,0-2,2.37V32.52a5.58,5.58,0,0,0,2,2.36,5.87,5.87,0,0,0,3.37.86A5.34,5.34,0,0,0,82,35.09a4.84,4.84,0,0,0,1.76-1.83,8.44,8.44,0,0,0,.93-2.77A20.8,20.8,0,0,0,85,27Z"/><path class="cls-1" d="M98.26,26.45a18.2,18.2,0,0,1,.92-5.87,13.58,13.58,0,0,1,2.67-4.68,12.32,12.32,0,0,1,4.3-3.12,15.68,15.68,0,0,1,11.64,0,12.36,12.36,0,0,1,4.31,3.12,13.58,13.58,0,0,1,2.67,4.68,18.2,18.2,0,0,1,.91,5.87V27a18.23,18.23,0,0,1-.91,5.89,13.61,13.61,0,0,1-2.66,4.69,12,12,0,0,1-4.29,3.1,15.84,15.84,0,0,1-11.65,0,12.13,12.13,0,0,1-4.32-3.1,13.63,13.63,0,0,1-2.67-4.69A18.23,18.23,0,0,1,98.26,27Zm7.47.57a16.17,16.17,0,0,0,.35,3.42,8.52,8.52,0,0,0,1.1,2.79,5.39,5.39,0,0,0,4.83,2.6,5.46,5.46,0,0,0,2.82-.7,5.54,5.54,0,0,0,1.92-1.9,8.52,8.52,0,0,0,1.09-2.79,16.17,16.17,0,0,0,.35-3.42v-.57a15.65,15.65,0,0,0-.35-3.35,8.85,8.85,0,0,0-1.09-2.8,5.85,5.85,0,0,0-7.64-1.9,5.65,5.65,0,0,0-1.93,1.9,8.86,8.86,0,0,0-1.1,2.8,15.65,15.65,0,0,0-.35,3.35Z"/><path class="cls-1" d="M146,5.08v7.11h10.85V17.7H146V30.19a8.33,8.33,0,0,0,.36,2.64,4.11,4.11,0,0,0,1,1.69,3.88,3.88,0,0,0,1.63.9,7.75,7.75,0,0,0,2.13.27c.58,0,1.16,0,1.76-.08s1.17-.12,1.72-.2,1.06-.17,1.53-.26.88-.18,1.22-.27L158.1,40a9.15,9.15,0,0,1-1.83.8,19.65,19.65,0,0,1-2.23.55c-.79.14-1.6.25-2.45.33s-1.69.12-2.51.12a14,14,0,0,1-4.34-.63,8.43,8.43,0,0,1-3.33-2,8.75,8.75,0,0,1-2.14-3.38,14.4,14.4,0,0,1-.75-4.93V17.7h-6.63V12.19h6.63V5.08Z"/><path class="cls-1" d="M164.28,26.45a18.2,18.2,0,0,1,.91-5.87,13.58,13.58,0,0,1,2.67-4.68,12.32,12.32,0,0,1,4.3-3.12,15.68,15.68,0,0,1,11.64,0,12.36,12.36,0,0,1,4.31,3.12,13.58,13.58,0,0,1,2.67,4.68,18.2,18.2,0,0,1,.91,5.87V27a18.23,18.23,0,0,1-.91,5.89,13.61,13.61,0,0,1-2.66,4.69,12,12,0,0,1-4.29,3.1,14.42,14.42,0,0,1-5.8,1.11,14.6,14.6,0,0,1-5.85-1.11,12.13,12.13,0,0,1-4.32-3.1,13.63,13.63,0,0,1-2.67-4.69,18.23,18.23,0,0,1-.91-5.89Zm7.46.57a16.17,16.17,0,0,0,.35,3.42,8.52,8.52,0,0,0,1.1,2.79,5.39,5.39,0,0,0,4.84,2.6,5.45,5.45,0,0,0,2.81-.7,5.54,5.54,0,0,0,1.92-1.9,8.52,8.52,0,0,0,1.09-2.79A16.17,16.17,0,0,0,184.2,27v-.57a15.65,15.65,0,0,0-.35-3.35,8.85,8.85,0,0,0-1.09-2.8,5.84,5.84,0,0,0-7.63-1.9,5.6,5.6,0,0,0-1.94,1.9,8.86,8.86,0,0,0-1.1,2.8,15.65,15.65,0,0,0-.35,3.35Z"/><path class="cls-1" d="M240.3,2.15,244,16.84l4.22-14.69h9.37v39.1h-6.93V29.68L251,11.39l-5.13,17h-3.73l-4.59-16.25.32,17.57V41.25h-6.93V2.15Z"/><path class="cls-1" d="M263.29,26.45a18.47,18.47,0,0,1,.91-5.87,13.45,13.45,0,0,1,2.68-4.68,12.37,12.37,0,0,1,4.29-3.12,15.71,15.71,0,0,1,11.65,0,12.45,12.45,0,0,1,4.31,3.12,13.58,13.58,0,0,1,2.67,4.68,18.2,18.2,0,0,1,.91,5.87V27a18.23,18.23,0,0,1-.91,5.89,13.77,13.77,0,0,1-2.66,4.69,12.15,12.15,0,0,1-4.3,3.1,14.39,14.39,0,0,1-5.8,1.11,14.59,14.59,0,0,1-5.84-1.11,12.13,12.13,0,0,1-4.32-3.1,13.49,13.49,0,0,1-2.68-4.69,18.51,18.51,0,0,1-.91-5.89Zm7.47.57a15.55,15.55,0,0,0,.35,3.42,8.52,8.52,0,0,0,1.1,2.79,5.36,5.36,0,0,0,4.83,2.6,5.29,5.29,0,0,0,4.74-2.6,8.74,8.74,0,0,0,1.09-2.79,16.17,16.17,0,0,0,.35-3.42v-.57a15.65,15.65,0,0,0-.35-3.35,9.09,9.09,0,0,0-1.09-2.8,5.85,5.85,0,0,0-7.64-1.9,5.57,5.57,0,0,0-1.93,1.9,8.86,8.86,0,0,0-1.1,2.8,15,15,0,0,0-.35,3.35Z"/><path class="cls-1" d="M304.08,12.19l.46,4a11.07,11.07,0,0,1,3.79-3.37,10.22,10.22,0,0,1,4.94-1.19,12,12,0,0,1,4,.64,7.86,7.86,0,0,1,3.15,2A9.56,9.56,0,0,1,322.52,18a17.21,17.21,0,0,1,.74,5.38V41.25h-7.47V23.47a8.7,8.7,0,0,0-.39-2.83,4.16,4.16,0,0,0-1.11-1.76,4.06,4.06,0,0,0-1.75-.9,9.54,9.54,0,0,0-2.31-.26,6.42,6.42,0,0,0-3.24.77,6,6,0,0,0-2.18,2.11V41.25h-7.49V12.19Z"/><path class="cls-1" d="M329.3,26.45a18.47,18.47,0,0,1,.91-5.87,13.45,13.45,0,0,1,2.68-4.68,12.37,12.37,0,0,1,4.29-3.12,15.71,15.71,0,0,1,11.65,0,12.45,12.45,0,0,1,4.31,3.12,13.58,13.58,0,0,1,2.67,4.68,18.2,18.2,0,0,1,.91,5.87V27a18.23,18.23,0,0,1-.91,5.89,13.77,13.77,0,0,1-2.66,4.69,12.06,12.06,0,0,1-4.3,3.1,14.39,14.39,0,0,1-5.8,1.11,14.59,14.59,0,0,1-5.84-1.11,12.13,12.13,0,0,1-4.32-3.1,13.49,13.49,0,0,1-2.68-4.69A18.51,18.51,0,0,1,329.3,27Zm7.47.57a15.55,15.55,0,0,0,.35,3.42,8.52,8.52,0,0,0,1.1,2.79,5.39,5.39,0,0,0,4.83,2.6,5.29,5.29,0,0,0,4.74-2.6,8.74,8.74,0,0,0,1.09-2.79,16.17,16.17,0,0,0,.35-3.42v-.57a15.65,15.65,0,0,0-.35-3.35,9.09,9.09,0,0,0-1.09-2.8,5.85,5.85,0,0,0-7.64-1.9,5.57,5.57,0,0,0-1.93,1.9,8.86,8.86,0,0,0-1.1,2.8,15,15,0,0,0-.35,3.35Z"/><path class="cls-1" d="M396,41.25V2.15h13.13a24.41,24.41,0,0,1,5.82.64,13.24,13.24,0,0,1,4.47,2,9,9,0,0,1,2.86,3.33,10.57,10.57,0,0,1,1,4.76,8.63,8.63,0,0,1-5.7,8.21,9,9,0,0,1,2.93,1.29,8.26,8.26,0,0,1,3.26,4.58,10.5,10.5,0,0,1,.39,2.86,11.91,11.91,0,0,1-1,5,9.61,9.61,0,0,1-2.76,3.6,12.17,12.17,0,0,1-4.38,2.18,21.56,21.56,0,0,1-5.8.72Zm7.57-22.69h5.62A8,8,0,0,0,414,17.24a4.53,4.53,0,0,0,1.72-3.78,4.51,4.51,0,0,0-1.69-3.94,8.55,8.55,0,0,0-4.89-1.22h-5.59Zm0,5.45V35.15h6.72A6.79,6.79,0,0,0,415,33.64a5.08,5.08,0,0,0,1.63-3.91,5.65,5.65,0,0,0-1.46-4.19A6.23,6.23,0,0,0,410.62,24Z"/><path class="cls-1" d="M428.32,26.45a18.2,18.2,0,0,1,.91-5.87,13.58,13.58,0,0,1,2.67-4.68,12.51,12.51,0,0,1,4.3-3.12,15.68,15.68,0,0,1,11.64,0,12.36,12.36,0,0,1,4.31,3.12,13.43,13.43,0,0,1,2.67,4.68,18.2,18.2,0,0,1,.92,5.87V27a18.23,18.23,0,0,1-.92,5.89,13.59,13.59,0,0,1-2.65,4.69,12.15,12.15,0,0,1-4.3,3.1,15.81,15.81,0,0,1-11.64,0,12.26,12.26,0,0,1-4.33-3.1,13.63,13.63,0,0,1-2.67-4.69,18.23,18.23,0,0,1-.91-5.89Zm7.46.57a16.17,16.17,0,0,0,.35,3.42,8.75,8.75,0,0,0,1.1,2.79,5.39,5.39,0,0,0,4.84,2.6,5.29,5.29,0,0,0,4.74-2.6,9,9,0,0,0,1.09-2.79,16.17,16.17,0,0,0,.35-3.42v-.57a15.65,15.65,0,0,0-.35-3.35,9.35,9.35,0,0,0-1.09-2.8,5.46,5.46,0,0,0-1.92-1.9,5.54,5.54,0,0,0-2.88-.7,5.44,5.44,0,0,0-2.84.7,5.68,5.68,0,0,0-1.94,1.9,9.1,9.1,0,0,0-1.1,2.8,15.65,15.65,0,0,0-.35,3.35Z"/><path class="cls-1" d="M463.9,0h16.25V35.18h8.32v6.07H463.9V35.18h8.7V6.1h-8.7Z"/><path class="cls-1" d="M494.57,26.51a22.46,22.46,0,0,1,.77-6.05,14,14,0,0,1,2.24-4.7,10,10,0,0,1,8.41-4.1,9.38,9.38,0,0,1,4,.81,9.7,9.7,0,0,1,3.08,2.33V0h7.49V41.25h-6.74l-.38-3a9.91,9.91,0,0,1-3.22,2.64,9.49,9.49,0,0,1-4.3.94,10,10,0,0,1-4.77-1.12,10.71,10.71,0,0,1-3.57-3.07,14.52,14.52,0,0,1-2.24-4.66,21.1,21.1,0,0,1-.78-5.87Zm7.47.56a17.32,17.32,0,0,0,.31,3.4,8.56,8.56,0,0,0,1,2.74,5.38,5.38,0,0,0,1.8,1.84,5.16,5.16,0,0,0,2.69.67,5.72,5.72,0,0,0,3.21-.84,5.92,5.92,0,0,0,2-2.28V20.84a6,6,0,0,0-2-2.3,5.76,5.76,0,0,0-3.17-.82,5,5,0,0,0-2.7.69,5.35,5.35,0,0,0-1.81,1.88,8.87,8.87,0,0,0-1,2.79,17,17,0,0,0-.32,3.43Z"/></g></g></svg>