<svg xmlns="http://www.w3.org/2000/svg" width="296.08" height="41.79" viewBox="0 0 296.08 41.79"><defs><style>.cls-1{fill:#252532;}</style></defs><title>roboto-bold</title><g id="Layer_2" data-name="Layer 2"><g id="Layer_1-2" data-name="Layer 1"><path class="cls-1" d="M14.48,26.94H8.06V41.25H0V2.15H14.53q6.93,0,10.69,3.09A10.68,10.68,0,0,1,29,14a12.08,12.08,0,0,1-1.73,6.68A11.83,11.83,0,0,1,22,24.89l8.45,16v.38H21.81ZM8.06,20.41h6.5a6.66,6.66,0,0,0,4.7-1.54,5.52,5.52,0,0,0,1.66-4.26,5.91,5.91,0,0,0-1.57-4.35,6.51,6.51,0,0,0-4.82-1.59H8.06Z"/><path class="cls-1" d="M33.38,26.45a17.19,17.19,0,0,1,1.67-7.7,12.11,12.11,0,0,1,4.79-5.24,14,14,0,0,1,7.26-1.85,13.23,13.23,0,0,1,9.61,3.59A14.41,14.41,0,0,1,60.85,25l.06,2q0,6.68-3.73,10.73a13,13,0,0,1-10,4,13.06,13.06,0,0,1-10-4q-3.75-4-3.75-11Zm7.76.55a10.87,10.87,0,0,0,1.56,6.34,5.59,5.59,0,0,0,8.86,0q1.59-2.16,1.59-6.92a10.74,10.74,0,0,0-1.59-6.3,5.16,5.16,0,0,0-4.46-2.23,5.07,5.07,0,0,0-4.4,2.22Q41.14,22.35,41.14,27Z"/><path class="cls-1" d="M91.87,27q0,7-3,10.89a9.89,9.89,0,0,1-8.32,3.91A9.08,9.08,0,0,1,73,38.16l-.35,3.09h-7V0h7.76V14.8a8.81,8.81,0,0,1,7.06-3.14,10,10,0,0,1,8.34,3.9q3,3.92,3,11Zm-7.76-.59c0-2.95-.46-5.1-1.4-6.45a4.7,4.7,0,0,0-4.16-2A5.12,5.12,0,0,0,73.45,21v11.5a5.19,5.19,0,0,0,5.16,3.07,4.8,4.8,0,0,0,4.94-3.72A19.45,19.45,0,0,0,84.11,26.4Z"/><path class="cls-1" d="M95.44,26.45a17.19,17.19,0,0,1,1.67-7.7,12.17,12.17,0,0,1,4.79-5.24,14,14,0,0,1,7.27-1.85,13.22,13.22,0,0,1,9.6,3.59A14.47,14.47,0,0,1,122.92,25l0,2q0,6.68-3.73,10.73a13,13,0,0,1-10,4,13.06,13.06,0,0,1-10-4q-3.75-4-3.75-11Zm7.77.55a10.87,10.87,0,0,0,1.55,6.34,5.6,5.6,0,0,0,8.87,0q1.58-2.16,1.58-6.92a10.82,10.82,0,0,0-1.58-6.3,5.18,5.18,0,0,0-4.46-2.23,5.07,5.07,0,0,0-4.41,2.22C103.72,21.61,103.21,23.9,103.21,27Z"/><path class="cls-1" d="M137,5.05v7.14h5v5.7h-5v14.5a3.49,3.49,0,0,0,.62,2.31,3.12,3.12,0,0,0,2.36.7,13,13,0,0,0,2.29-.19v5.88a16.16,16.16,0,0,1-4.7.7q-8.16,0-8.33-8.25V17.89H125v-5.7h4.24V5.05Z"/><path class="cls-1" d="M144.32,26.45a17.19,17.19,0,0,1,1.67-7.7,12.11,12.11,0,0,1,4.79-5.24A14,14,0,0,1,158,11.66a13.23,13.23,0,0,1,9.61,3.59A14.41,14.41,0,0,1,171.79,25l.06,2q0,6.68-3.73,10.73a14.47,14.47,0,0,1-20.05,0q-3.75-4-3.75-11Zm7.76.55a10.87,10.87,0,0,0,1.56,6.34,5.59,5.59,0,0,0,8.86,0q1.59-2.16,1.59-6.92a10.74,10.74,0,0,0-1.59-6.3A5.16,5.16,0,0,0,158,17.91a5.07,5.07,0,0,0-4.4,2.22Q152.08,22.35,152.08,27Z"/><path class="cls-1" d="M190.83,41.25V2.15h13.7c4.75,0,8.34.91,10.8,2.72a9.33,9.33,0,0,1,3.68,8,8.89,8.89,0,0,1-1.48,5.07,8.5,8.5,0,0,1-4.11,3.2,8.28,8.28,0,0,1,4.74,3,8.93,8.93,0,0,1,1.73,5.59q0,5.64-3.6,8.54t-10.25,3Zm8.06-22.72h6q6.1-.11,6.1-4.86a4.5,4.5,0,0,0-1.54-3.83,8.13,8.13,0,0,0-4.88-1.17h-5.64Zm0,5.69V34.78h6.9a6.65,6.65,0,0,0,4.45-1.36,4.65,4.65,0,0,0,1.6-3.74c0-3.59-1.86-5.4-5.56-5.46Z"/><path class="cls-1" d="M224.22,26.45a17.19,17.19,0,0,1,1.66-7.7,12.13,12.13,0,0,1,4.8-5.24,13.9,13.9,0,0,1,7.26-1.85,13.22,13.22,0,0,1,9.6,3.59A14.47,14.47,0,0,1,251.69,25l.05,2q0,6.68-3.73,10.73a14.47,14.47,0,0,1-20,0q-3.74-4-3.74-11ZM232,27a10.87,10.87,0,0,0,1.56,6.34,5.59,5.59,0,0,0,8.86,0Q244,31.2,244,26.44a10.82,10.82,0,0,0-1.58-6.3,5.17,5.17,0,0,0-4.46-2.23,5,5,0,0,0-4.4,2.22Q232,22.35,232,27Z"/><path class="cls-1" d="M264.71,41.25h-7.78V0h7.78Z"/><path class="cls-1" d="M269.9,26.51q0-6.8,3.05-10.83a9.89,9.89,0,0,1,8.33-4,8.89,8.89,0,0,1,7,3.16V0h7.79V41.25h-7l-.37-3.09a9.15,9.15,0,0,1-7.47,3.63,9.87,9.87,0,0,1-8.23-4Q269.9,33.7,269.9,26.51Zm7.76.55a11.5,11.5,0,0,0,1.42,6.28,4.64,4.64,0,0,0,4.14,2.19,5.18,5.18,0,0,0,5.07-3.05V21a5.11,5.11,0,0,0-5-3.05Q277.66,17.91,277.66,27.06Z"/></g></g></svg>