<?xml version="1.0" encoding="utf-8"?>
<!-- Generator: Adobe Illustrator 26.0.2, SVG Export Plug-In . SVG Version: 6.00 Build 0)  -->
<svg version="1.1" id="Vrstva_2_00000063623209247308599340000015707830357369646766_"
	 xmlns="http://www.w3.org/2000/svg" xmlns:xlink="http://www.w3.org/1999/xlink" x="0px" y="0px" viewBox="0 0 343.7 155.1"
	 style="enable-background:new 0 0 343.7 155.1;" xml:space="preserve">
<style type="text/css">
	.st0{opacity:0.2;fill:#E6E6E6;enable-background:new    ;}
	.st1{fill:#353688;}
</style>
<rect x="-22" y="-12.6" class="st0" width="389" height="182"/>
<path class="st1" d="M86.7,108.8c0-0.4,0.1-0.8,0.3-1.2c0.6-1.5,2.4-2.2,3.9-1.5c0.7,0.3,1.2,0.8,1.5,1.5c0.2,0.4,0.3,0.8,0.3,1.2
	c0.3,1.6-0.8,3.2-2.5,3.4c-1.6,0.3-3.2-0.8-3.4-2.5C86.6,109.5,86.6,109.2,86.7,108.8 M135.2,43.2c1.7,0,3,1.3,3,3
	c0,0.4-0.1,0.8-0.3,1.2c-0.7,1.5-2.5,2.2-4,1.5c-1.5-0.7-2.2-2.5-1.5-4C133,43.9,134.1,43.2,135.2,43.2 M92.3,100.8V87.6l43.8-14.9
	c1.1-0.4,1.8-1.4,1.8-2.6V54.3c4.4-1.5,6.7-6.2,5.2-10.6s-6.2-6.7-10.6-5.2c-4.4,1.5-6.7,6.2-5.2,10.6c0.8,2.5,2.8,4.4,5.2,5.2v13.9
	L88.8,83.1c-1.1,0.4-1.8,1.4-1.8,2.6v15.1c-4.4,1.5-6.7,6.2-5.2,10.6c1.5,4.4,6.2,6.7,10.6,5.2c4.4-1.5,6.7-6.2,5.2-10.6
	C96.7,103.6,94.8,101.7,92.3,100.8"/>
<path class="st1" d="M92.6,46.2c0,0.4-0.1,0.8-0.3,1.2c-0.7,1.5-2.4,2.2-4,1.5s-2.2-2.4-1.5-4c0.7-1.5,2.4-2.2,4-1.5
	C91.9,44,92.6,45.1,92.6,46.2 M112.4,58.3c1.7,0,3,1.3,3,3s-1.3,3-3,3l0,0h-0.3c-1.5-0.2-2.7-1.5-2.7-3c0-0.8,0.4-1.6,1-2.2
	C111,58.6,111.7,58.3,112.4,58.3 M87,54.3v14.8c0,0.9,0.4,1.7,1,2.2c0.5,0.3,1,0.5,1.6,0.5c0.3,0,0.6,0,0.9-0.1l15.3-5.2
	c1.6,2.1,4,3.3,6.6,3.3c4.7,0.1,8.6-3.7,8.6-8.3c0.1-4.7-3.7-8.6-8.3-8.6c-4.7-0.1-8.6,3.7-8.6,8.3c0,0,0,0.1,0,0.1l-11.7,4v-11
	c4.4-1.5,6.7-6.2,5.2-10.6c-1.5-4.4-6.2-6.7-10.6-5.2s-6.7,6.2-5.2,10.6C82.5,51.5,84.4,53.4,87,54.3"/>
<path class="st1" d="M132.2,108.8c0-0.4,0.1-0.8,0.3-1.2c0.6-1.5,2.4-2.2,3.9-1.5c0.7,0.3,1.2,0.8,1.5,1.5c0.2,0.4,0.3,0.8,0.3,1.2
	c0.3,1.6-0.8,3.2-2.5,3.4c-1.6,0.3-3.2-0.8-3.4-2.5C132.2,109.5,132.2,109.2,132.2,108.8 M112.4,97.5c-1.7,0-3-1.3-3-3s1.3-3,3-3
	h0.3c1.5,0.2,2.7,1.5,2.7,3c0,0.8-0.4,1.6-1,2.2C113.8,97.2,113.1,97.5,112.4,97.5 M137.9,100.8v-14c0-0.9-0.4-1.7-1.1-2.2
	c-0.7-0.5-1.6-0.7-2.4-0.4L119,89.4c-1.5-2.1-4-3.3-6.6-3.4c-4.7-0.1-8.5,3.7-8.6,8.4c-0.1,4.7,3.7,8.5,8.4,8.6
	c4.7,0.1,8.5-3.7,8.6-8.4c0,0,0-0.1,0-0.1l11.7-4v10.2c-4.4,1.5-6.7,6.2-5.2,10.6c1.5,4.4,6.2,6.7,10.6,5.2s6.7-6.2,5.2-10.6
	C142.3,103.5,140.4,101.6,137.9,100.8"/>
<path class="st1" d="M163.6,72.7c-0.4,0-0.8,0-1.1-0.1c-0.5-0.1-1-0.2-1.4-0.3c-0.5-0.1-1-0.3-1.5-0.5c-0.5-0.2-0.9-0.4-1.3-0.7
	c-0.4-0.2-0.7-0.5-1-0.9c-0.2-0.3-0.4-0.7-0.4-1.1c0-0.9,0.5-1.3,1.6-1.3c0.3,0,0.6,0.1,0.9,0.3c0.3,0.2,0.5,0.3,0.8,0.5
	c0.4,0.4,0.9,0.6,1.5,0.8c0.7,0.2,1.4,0.4,2.1,0.3c0.7,0,1.4-0.1,1.9-0.5c0.5-0.4,0.8-1,0.7-1.6c0-0.6-0.2-1.1-0.7-1.5
	c-0.5-0.4-1.1-0.7-1.7-1c-0.7-0.3-1.4-0.6-2.2-0.9c-0.8-0.3-1.5-0.6-2.2-1.1c-0.7-0.4-1.2-1-1.7-1.6c-0.5-0.7-0.7-1.6-0.7-2.5
	c0-0.8,0.2-1.5,0.5-2.2c0.3-0.6,0.7-1.2,1.2-1.7c0.6-0.5,1.3-0.9,2-1.1c0.9-0.3,1.8-0.4,2.7-0.4c0.9,0,1.8,0.1,2.7,0.4
	c0.7,0.2,1.3,0.5,1.9,0.9c0.5,0.3,0.9,0.6,1.2,1.1c0.2,0.3,0.4,0.6,0.4,0.9c0,0.4-0.1,0.8-0.4,1.1c-0.3,0.3-0.8,0.5-1.2,0.4
	c-0.3,0-0.6-0.1-0.9-0.2c-0.3-0.1-0.5-0.3-0.7-0.5c-0.4-0.3-0.7-0.5-1.1-0.7c-0.7-0.3-1.4-0.4-2.1-0.4c-0.7,0-1.3,0.2-1.8,0.6
	c-0.5,0.4-0.8,1-0.7,1.6c0,0.6,0.2,1.1,0.7,1.5c0.5,0.4,1.1,0.7,1.7,1c0.7,0.3,1.4,0.6,2.2,0.9c0.8,0.3,1.5,0.6,2.2,1.1
	c0.7,0.4,1.2,0.9,1.7,1.6c0.5,0.7,0.7,1.6,0.7,2.5c0.1,1.5-0.6,2.9-1.7,3.8C166.9,72.3,165.3,72.8,163.6,72.7z"/>
<path class="st1" d="M188.9,54.1c0.5,0,1,0.1,1.4,0.4c0.3,0.3,0.5,0.7,0.4,1.1c0,0.4-0.2,0.8-0.4,1.1c-0.4,0.3-0.9,0.5-1.4,0.4h-4.1
	v14.2c0,0.4-0.2,0.7-0.5,0.9c-0.4,0.3-0.8,0.4-1.3,0.4c-0.5,0-1-0.1-1.4-0.4c-0.3-0.2-0.5-0.6-0.5-0.9V57.1h-3.7
	c-0.5,0-0.9-0.1-1.3-0.4c-0.3-0.3-0.5-0.7-0.5-1.1c0-0.4,0.2-0.9,0.5-1.1c0.4-0.3,0.8-0.4,1.3-0.4L188.9,54.1z"/>
<path class="st1" d="M208.5,54.5c0.3,0.3,0.5,0.7,0.4,1.1c0,0.4-0.2,0.8-0.4,1.1c-0.4,0.3-0.8,0.5-1.3,0.4h-7v4.5h4.7
	c0.5,0,1,0.1,1.4,0.4c0.3,0.3,0.5,0.7,0.4,1.1c0,0.4-0.1,0.8-0.4,1.1c-0.4,0.3-0.9,0.5-1.4,0.4h-4.7v4.7h7c0.5,0,0.9,0.1,1.3,0.4
	c0.3,0.3,0.5,0.7,0.4,1.1c0,0.4-0.2,0.8-0.4,1.1c-0.4,0.3-0.8,0.4-1.3,0.4h-8.7c-0.5,0-1-0.1-1.4-0.4c-0.3-0.2-0.5-0.6-0.5-0.9V55.4
	c0-0.4,0.2-0.7,0.5-0.9c0.4-0.3,0.9-0.4,1.4-0.4h8.7C207.7,54,208.1,54.2,208.5,54.5z"/>
<path class="st1" d="M225,67.2c-0.4,0-0.9-0.1-1.2-0.4c-0.3-0.2-0.6-0.5-0.8-0.8l-3.4-6.7v12c0,0.4-0.2,0.7-0.5,0.9
	c-0.4,0.3-0.8,0.4-1.3,0.4c-0.5,0-1-0.1-1.4-0.4c-0.3-0.2-0.5-0.6-0.5-0.9V55.1c0-0.4,0.2-0.7,0.5-0.9c0.4-0.3,0.9-0.4,1.4-0.4h0.5
	c0.5,0,0.9,0.1,1.3,0.3c0.3,0.2,0.6,0.4,0.8,0.7l4.6,8.5l4.6-8.5c0.2-0.3,0.5-0.6,0.8-0.8c0.4-0.2,0.9-0.3,1.3-0.3h0.5
	c0.5,0,1,0.1,1.4,0.4c0.3,0.2,0.5,0.6,0.5,0.9v16.2c0,0.4-0.2,0.7-0.5,0.9c-0.4,0.3-0.9,0.5-1.4,0.4c-0.5,0-0.9-0.1-1.3-0.4
	c-0.3-0.2-0.5-0.6-0.5-0.9v-12L227,66c-0.2,0.3-0.4,0.6-0.7,0.8C225.9,67.1,225.5,67.2,225,67.2z"/>
<path class="st1" d="M169.2,83.1c0.3,0.3,0.5,0.7,0.4,1.1c0,0.4-0.1,0.8-0.4,1.1c-0.4,0.3-0.8,0.5-1.3,0.4h-6.6v4.8h4.7
	c0.5,0,0.9,0.1,1.3,0.4c0.3,0.3,0.5,0.7,0.4,1.1c0,0.4-0.1,0.8-0.4,1.1c-0.4,0.3-0.8,0.5-1.3,0.4h-4.7v6.4c0,0.4-0.2,0.7-0.5,0.9
	c-0.4,0.3-0.8,0.4-1.3,0.4c-0.5,0-1-0.1-1.4-0.4c-0.3-0.2-0.5-0.6-0.5-0.9V84.1c0-0.4,0.2-0.7,0.5-0.9c0.4-0.3,0.9-0.4,1.4-0.4h8.4
	C168.4,82.7,168.9,82.8,169.2,83.1z"/>
<path class="st1" d="M176,84.1c0-0.4,0.2-0.7,0.5-0.9c0.4-0.3,0.9-0.4,1.4-0.4h4.4c1.2,0,2.4,0.1,3.5,0.4c0.9,0.2,1.7,0.6,2.3,1.1
	c0.6,0.5,1,1.1,1.3,1.8c0.3,0.7,0.4,1.5,0.4,2.3v0.2c0,0.9-0.2,1.8-0.7,2.5c-0.7,0.8-1.6,1.4-2.6,1.7l3.4,6.5c0.2,0.3,0.3,0.7,0.1,1
	c-0.2,0.4-0.6,0.8-1,1c-0.4,0.2-0.9,0.3-1.3,0.2c-0.4-0.1-0.7-0.3-0.9-0.6l-3.5-6.9c-0.2,0-0.4,0-0.5,0h-3.2v6.1
	c0,0.4-0.2,0.7-0.5,0.9c-0.4,0.3-0.8,0.4-1.3,0.4c-0.5,0-1-0.1-1.4-0.5c-0.3-0.2-0.5-0.6-0.5-1L176,84.1z M179.6,85.6v5.5h2.6
	c1,0.1,2.1-0.1,3-0.7c0.6-0.4,0.9-1,0.9-1.7v-0.6c0-0.8-0.3-1.5-0.9-1.9c-0.9-0.5-2-0.8-3-0.7L179.6,85.6z"/>
<path class="st1" d="M196.6,83.8c0-0.4,0.2-0.7,0.5-0.9c0.4-0.3,0.9-0.4,1.4-0.4c0.5,0,0.9,0.1,1.3,0.4c0.3,0.2,0.5,0.6,0.5,0.9V100
	c0,0.4-0.2,0.7-0.5,0.9c-0.4,0.3-0.8,0.4-1.3,0.4c-0.5,0-1-0.1-1.4-0.4c-0.3-0.2-0.5-0.6-0.5-0.9V83.8z"/>
<path class="st1" d="M208,84.1c0-0.4,0.2-0.7,0.5-0.9c0.4-0.3,0.9-0.4,1.4-0.4h4c1.2,0,2.5,0.2,3.7,0.6c1,0.4,1.9,0.9,2.6,1.7
	c0.7,0.7,1.2,1.5,1.5,2.5c0.3,1,0.5,2,0.5,3v3.2c0,1-0.2,2-0.5,2.9c-0.3,0.9-0.8,1.7-1.5,2.3c-0.7,0.7-1.6,1.2-2.6,1.6
	c-1.2,0.4-2.4,0.6-3.7,0.6h-4c-0.5,0-1-0.1-1.4-0.4c-0.3-0.2-0.5-0.6-0.5-0.9L208,84.1z M211.6,85.7V98h2.2c1.2,0.1,2.4-0.3,3.4-1
	c0.8-0.8,1.3-1.9,1.2-3v-3.8c0.1-1.2-0.4-2.4-1.2-3.3c-0.9-0.8-2.1-1.2-3.4-1.2L211.6,85.7z"/>
<path class="st1" d="M243.9,99.5c0.1,0.3,0,0.7-0.2,1c-0.3,0.4-0.7,0.6-1.2,0.7c-0.5,0.1-0.9,0.1-1.4-0.1c-0.4-0.1-0.6-0.4-0.8-0.8
	l-1.1-3.3h-6.8l-1.1,3.3c-0.2,0.4-0.4,0.6-0.8,0.8c-0.4,0.2-0.9,0.2-1.4,0.1c-0.5-0.1-0.9-0.4-1.2-0.7c-0.2-0.3-0.3-0.7-0.2-1
	l6.1-15.9c0.1-0.4,0.4-0.7,0.7-0.8c0.4-0.2,0.9-0.4,1.3-0.3c0.5,0,0.9,0.1,1.3,0.3c0.3,0.2,0.6,0.5,0.7,0.8L243.9,99.5z M233.5,94.2
	h4.8l-2.4-7.1L233.5,94.2z"/>
<path class="st1" d="M252.8,94.2l-5.6-9.5c-0.2-0.3-0.3-0.7-0.2-1c0.1-0.4,0.4-0.8,0.8-1c0.4-0.3,0.9-0.4,1.4-0.3
	c0.4,0,0.7,0.2,1,0.5l4.5,8.1l4.5-8.1c0.3-0.3,0.6-0.5,1-0.5c0.5-0.1,1,0,1.4,0.3c0.4,0.2,0.7,0.6,0.8,1c0.1,0.3,0,0.7-0.2,1
	l-5.8,9.8v5.5c0,0.4-0.2,0.7-0.5,0.9c-0.4,0.3-0.8,0.4-1.3,0.4c-0.5,0-1-0.1-1.4-0.4c-0.3-0.2-0.5-0.6-0.5-0.9L252.8,94.2z"/>
</svg>
