<?xml version="1.0" encoding="utf-8"?>
<!-- Generator: Adobe Illustrator 26.0.2, SVG Export Plug-In . SVG Version: 6.00 Build 0)  -->
<svg version="1.1" id="Vrstva_2_00000023961109677845149130000010758910239803210627_"
	 xmlns="http://www.w3.org/2000/svg" xmlns:xlink="http://www.w3.org/1999/xlink" x="0px" y="0px" viewBox="0 0 343.7 155.1"
	 style="enable-background:new 0 0 343.7 155.1;" xml:space="preserve">
<style type="text/css">
	.st0{opacity:0.2;fill:#E6E6E6;enable-background:new    ;}
	.st1{fill:#353688;}
</style>
<rect x="-22" y="-12.6" class="st0" width="389" height="182"/>
<path class="st1" d="M90,109.7c0.1-1.7,1.5-2.9,3.1-2.8c1.1,0.1,2,0.7,2.5,1.6c0.2,0.4,0.3,0.8,0.3,1.2c0.3,1.6-0.8,3.2-2.5,3.4
	c-1.6,0.3-3.2-0.8-3.4-2.5C89.9,110.4,89.9,110.1,90,109.7 M138.6,44.1c1.7,0,3,1.3,3,3c0,0.4-0.1,0.8-0.3,1.2
	c-0.7,1.5-2.5,2.2-4,1.5c-1.5-0.7-2.2-2.5-1.5-4C136.3,44.8,137.4,44.1,138.6,44.1 M95.7,101.7V88.5l43.8-14.9
	c1.1-0.4,1.8-1.4,1.8-2.6V55.2c4.4-1.5,6.7-6.2,5.2-10.6s-6.2-6.7-10.6-5.2c-4.4,1.5-6.7,6.2-5.2,10.6c0.8,2.5,2.8,4.4,5.2,5.2v13.9
	L92.1,84c-1.1,0.4-1.8,1.4-1.8,2.6v15.1c-4.4,1.5-6.7,6.2-5.2,10.6c1.5,4.4,6.2,6.7,10.6,5.2c4.4-1.5,6.7-6.2,5.2-10.6
	C100,104.5,98.1,102.6,95.7,101.7"/>
<path class="st1" d="M95.9,47.1c0,0.4-0.1,0.8-0.3,1.2c-0.7,1.5-2.4,2.2-4,1.5s-2.2-2.4-1.5-4c0.7-1.5,2.4-2.2,4-1.5
	C95.2,44.9,95.9,46,95.9,47.1 M115.8,59.2c1.7,0,3,1.3,3,3s-1.3,3-3,3h-0.3c-1.5-0.2-2.7-1.5-2.7-3c0-0.8,0.4-1.6,1-2.2
	C114.3,59.5,115.1,59.2,115.8,59.2 M90.3,55.2V70c0,0.9,0.4,1.7,1.1,2.2c0.5,0.3,1,0.5,1.6,0.5c0.3,0,0.6,0,0.9-0.1l15.3-5.2
	c1.6,2.1,4,3.3,6.6,3.3c4.7,0.1,8.6-3.7,8.6-8.3c0.1-4.7-3.7-8.6-8.3-8.6c-4.7-0.1-8.6,3.7-8.6,8.3c0,0,0,0.1,0,0.1l-11.7,4v-11
	c4.4-1.5,6.7-6.2,5.2-10.6c-1.5-4.4-6.2-6.7-10.6-5.2s-6.7,6.2-5.2,10.6C85.9,52.4,87.9,54.4,90.3,55.2"/>
<path class="st1" d="M135.6,109.7c0.1-1.7,1.5-2.9,3.1-2.8c1.1,0.1,2,0.7,2.5,1.6c0.2,0.4,0.3,0.8,0.3,1.2c0.3,1.6-0.8,3.2-2.5,3.4
	c-1.6,0.3-3.2-0.8-3.4-2.5C135.5,110.4,135.5,110.1,135.6,109.7 M115.8,98.4c-1.7,0-3-1.3-3-3s1.3-3,3-3h0.3c1.5,0.2,2.7,1.5,2.7,3
	c0,0.8-0.4,1.6-1,2.2C117.2,98.1,116.5,98.4,115.8,98.4 M141.2,101.7v-14c0-0.9-0.4-1.7-1.1-2.2c-0.7-0.5-1.6-0.7-2.4-0.4l-15.3,5.2
	c-1.6-2.1-4-3.3-6.6-3.3c-4.7-0.1-8.5,3.7-8.6,8.4c-0.1,4.7,3.7,8.5,8.4,8.6c4.7,0.1,8.5-3.7,8.6-8.4c0,0,0-0.1,0-0.1l11.7-4v10.2
	c-4.4,1.5-6.7,6.2-5.2,10.6c1.5,4.4,6.2,6.7,10.6,5.2s6.7-6.2,5.2-10.6C145.6,104.5,143.7,102.6,141.2,101.7"/>
<path class="st1" d="M166.9,73.6c-0.4,0-0.8,0-1.1-0.1c-0.5-0.1-1-0.2-1.4-0.3c-0.5-0.1-1-0.3-1.5-0.5c-0.5-0.2-0.9-0.4-1.3-0.7
	c-0.4-0.2-0.7-0.5-1-0.9c-0.2-0.3-0.4-0.7-0.4-1.1c0-0.9,0.5-1.3,1.6-1.3c0.3,0,0.6,0.1,0.9,0.3c0.3,0.2,0.5,0.3,0.8,0.5
	c0.4,0.4,0.9,0.6,1.5,0.8c0.6,0.2,1.3,0.4,2,0.4c0.7,0,1.4-0.1,2-0.5c0.5-0.4,0.8-1,0.7-1.6c0-0.6-0.2-1.1-0.7-1.5
	c-0.5-0.4-1.1-0.8-1.7-1c-0.7-0.3-1.4-0.6-2.2-0.9c-0.7-0.3-1.5-0.7-2.1-1.1c-0.7-0.4-1.2-1-1.7-1.6c-0.5-0.7-0.7-1.6-0.7-2.5
	c0-0.7,0.1-1.5,0.4-2.2c0.3-0.6,0.7-1.2,1.2-1.7c0.6-0.5,1.3-0.9,2-1.1c0.9-0.3,1.8-0.4,2.7-0.4c0.9,0,1.8,0.1,2.7,0.4
	c0.7,0.2,1.4,0.5,2,0.9c0.5,0.3,0.9,0.6,1.2,1.1c0.2,0.3,0.4,0.6,0.4,0.9c0,0.4-0.1,0.8-0.4,1.1c-0.3,0.3-0.8,0.5-1.2,0.4
	c-0.3,0-0.6-0.1-0.9-0.2c-0.3-0.1-0.5-0.3-0.7-0.5c-0.4-0.3-0.7-0.5-1.1-0.7c-0.7-0.3-1.4-0.4-2.1-0.4c-0.7,0-1.3,0.2-1.8,0.6
	c-0.5,0.4-0.8,1-0.7,1.6c0,0.6,0.2,1.1,0.7,1.5c0.5,0.4,1.1,0.7,1.7,1c0.7,0.3,1.4,0.6,2.2,0.9c0.7,0.3,1.4,0.6,2.1,1.1
	c0.7,0.4,1.2,1,1.7,1.6c0.5,0.8,0.7,1.6,0.7,2.5c0.1,1.5-0.6,2.9-1.7,3.8C170.3,73.2,168.6,73.7,166.9,73.6z"/>
<path class="st1" d="M192.2,55c0.5,0,1,0.1,1.4,0.4c0.3,0.3,0.5,0.7,0.4,1.1c0,0.4-0.1,0.8-0.4,1.1c-0.4,0.3-0.9,0.5-1.4,0.4h-4.1
	v14.2c0,0.4-0.2,0.7-0.5,0.9c-0.4,0.3-0.8,0.4-1.3,0.4c-0.5,0-1-0.1-1.4-0.4c-0.3-0.2-0.5-0.6-0.5-0.9V58h-3.7
	c-0.5,0-0.9-0.1-1.3-0.4c-0.3-0.3-0.5-0.7-0.5-1.1c0-0.4,0.2-0.8,0.5-1.1c0.4-0.3,0.8-0.4,1.3-0.4L192.2,55z"/>
<path class="st1" d="M211.9,55.4c0.3,0.3,0.5,0.7,0.4,1.1c0,0.4-0.1,0.8-0.4,1.1c-0.4,0.3-0.8,0.5-1.3,0.4h-7v4.5h4.7
	c0.5,0,1,0.1,1.4,0.4c0.3,0.3,0.5,0.7,0.4,1.1c0,0.4-0.2,0.8-0.4,1.1c-0.4,0.3-0.9,0.4-1.4,0.4h-4.7v4.7h7c0.5,0,0.9,0.1,1.3,0.4
	c0.3,0.3,0.5,0.7,0.4,1.1c0,0.4-0.2,0.8-0.4,1.1c-0.4,0.3-0.8,0.5-1.3,0.4h-8.7c-0.5,0-1-0.1-1.4-0.4c-0.3-0.2-0.5-0.5-0.5-0.9V56.3
	c0-0.4,0.2-0.7,0.5-0.9c0.4-0.3,0.9-0.4,1.4-0.4h8.7C211.1,54.9,211.5,55.1,211.9,55.4z"/>
<path class="st1" d="M228.3,68.1c-0.4,0-0.9-0.1-1.2-0.4c-0.3-0.2-0.6-0.5-0.8-0.8l-3.4-6.7v12c0,0.4-0.2,0.7-0.5,0.9
	c-0.4,0.3-0.8,0.4-1.3,0.4c-0.5,0-1-0.1-1.4-0.4c-0.3-0.2-0.5-0.6-0.5-0.9V56c0-0.4,0.2-0.7,0.5-0.9c0.4-0.3,0.9-0.4,1.4-0.4h0.5
	c0.5,0,0.9,0.1,1.3,0.3c0.3,0.2,0.6,0.4,0.8,0.7l4.6,8.5l4.6-8.5c0.2-0.3,0.5-0.6,0.8-0.8c0.4-0.2,0.9-0.3,1.3-0.3h0.5
	c0.5,0,1,0.1,1.4,0.4c0.3,0.2,0.5,0.6,0.5,0.9v16.3c0,0.4-0.2,0.7-0.5,0.9c-0.4,0.3-0.9,0.4-1.4,0.4c-0.5,0-0.9-0.1-1.3-0.4
	c-0.3-0.2-0.5-0.6-0.5-0.9v-12l-3.5,6.7c-0.2,0.3-0.4,0.6-0.7,0.8C229.2,68,228.8,68.1,228.3,68.1z"/>
<path class="st1" d="M160.9,85c0-0.4,0.2-0.7,0.5-0.9c0.4-0.3,0.9-0.4,1.4-0.4h4.1c1.1,0,2.3,0.1,3.4,0.4c0.9,0.3,1.7,0.7,2.4,1.3
	c0.6,0.5,1.1,1.2,1.4,1.9c0.3,0.7,0.4,1.5,0.4,2.3V90c0,0.7-0.1,1.4-0.4,2c-0.3,0.7-0.7,1.3-1.3,1.8c-0.7,0.6-1.5,1-2.3,1.2
	c-1.1,0.3-2.3,0.5-3.5,0.5h-2.3v5.4c0,0.4-0.2,0.7-0.5,0.9c-0.8,0.6-1.9,0.5-2.6-0.1c-0.3-0.2-0.5-0.6-0.5-1V85z M164.6,86.5v6.3
	h2.3c0.6,0,1.2-0.1,1.8-0.2c0.4-0.1,0.9-0.3,1.2-0.6c0.6-0.4,0.9-1.1,0.9-1.9v-0.7c0-0.8-0.3-1.6-0.9-2.1c-0.9-0.6-1.9-0.9-3-0.8
	L164.6,86.5z"/>
<path class="st1" d="M196.3,100.4c0.1,0.3,0,0.7-0.2,1c-0.3,0.4-0.7,0.7-1.2,0.7c-0.5,0.1-0.9,0.1-1.4-0.1c-0.4-0.1-0.6-0.4-0.8-0.8
	l-1.1-3.3h-6.8l-1.1,3.3c-0.1,0.4-0.4,0.6-0.8,0.8c-0.4,0.2-0.9,0.2-1.4,0.1c-0.5-0.1-0.9-0.3-1.2-0.7c-0.2-0.3-0.3-0.7-0.2-1
	l6.1-15.9c0.1-0.4,0.4-0.7,0.7-0.8c0.4-0.2,0.8-0.4,1.3-0.4c0.5,0,0.9,0.1,1.3,0.4c0.3,0.2,0.6,0.5,0.7,0.8L196.3,100.4z
	 M185.8,95.1h4.8l-2.4-7.1L185.8,95.1z M188.5,81.3c-0.3,0.1-0.6,0.1-0.9-0.1c-0.3-0.1-0.6-0.4-0.7-0.7c-0.2-0.3-0.2-0.6-0.1-0.9
	c0.1-0.3,0.3-0.5,0.5-0.6l4.4-2.2c0.4-0.2,0.9-0.2,1.2,0.1c0.4,0.2,0.6,0.5,0.8,0.8c0.2,0.3,0.2,0.7,0.2,1.1
	c-0.1,0.4-0.4,0.7-0.8,0.8L188.5,81.3z"/>
<path class="st1" d="M214.3,83.6c0.5,0,1,0.1,1.4,0.4c0.3,0.3,0.5,0.7,0.4,1.1c0,0.4-0.2,0.8-0.4,1.1c-0.4,0.3-0.9,0.4-1.4,0.4h-4.1
	v14.2c0,0.4-0.2,0.7-0.5,0.9c-0.4,0.3-0.8,0.4-1.3,0.4c-0.5,0-1-0.1-1.4-0.4c-0.3-0.2-0.5-0.6-0.5-0.9V86.6H203
	c-0.5,0-0.9-0.1-1.3-0.4c-0.3-0.3-0.5-0.7-0.5-1.1c0-0.4,0.2-0.8,0.5-1.1c0.4-0.3,0.8-0.4,1.3-0.4L214.3,83.6z"/>
<path class="st1" d="M234,84c0.3,0.3,0.5,0.7,0.4,1.1c0,0.4-0.2,0.8-0.4,1.1c-0.4,0.3-0.8,0.4-1.3,0.4h-6.9v4.5h4.6
	c0.5,0,1,0.1,1.4,0.4c0.3,0.3,0.5,0.7,0.4,1.1c0,0.4-0.2,0.8-0.4,1.1c-0.4,0.3-0.9,0.5-1.4,0.4h-4.6v4.7h6.9c0.5,0,0.9,0.1,1.3,0.4
	c0.3,0.3,0.5,0.7,0.4,1.1c0,0.4-0.1,0.8-0.4,1.1c-0.4,0.3-0.8,0.5-1.3,0.4H224c-0.5,0-1-0.1-1.4-0.4c-0.3-0.2-0.5-0.6-0.5-0.9V85
	c0-0.4,0.2-0.7,0.5-0.9c0.4-0.3,0.9-0.4,1.4-0.4h8.7C233.1,83.6,233.6,83.7,234,84z"/>
<path class="st1" d="M241.3,84.7c0-0.4,0.2-0.7,0.5-0.9c0.4-0.3,0.9-0.5,1.4-0.4c0.5,0,0.9,0.1,1.3,0.4c0.3,0.2,0.5,0.6,0.5,0.9v6.9
	h1l6-7.8c0.1-0.1,0.3-0.3,0.5-0.3c0.2-0.1,0.4-0.1,0.6-0.2c0.2,0,0.5,0,0.7,0.1c0.2,0.1,0.5,0.2,0.7,0.3c0.4,0.3,0.6,0.7,0.6,1.2
	c0,0.4-0.2,0.7-0.4,1l-5.6,6.8l6.3,7c0.3,0.3,0.4,0.6,0.3,1c-0.1,0.4-0.3,0.8-0.7,1.1c-0.4,0.3-0.8,0.4-1.3,0.4
	c-0.4,0-0.8-0.2-1.1-0.4l-6.4-7.3H245v6.4c0,0.4-0.2,0.7-0.5,0.9c-0.4,0.3-0.8,0.4-1.3,0.4c-0.5,0-1-0.1-1.4-0.4
	c-0.3-0.2-0.5-0.6-0.5-0.9L241.3,84.7z"/>
</svg>
