<?xml version="1.0" encoding="utf-8"?>
<!-- Generator: Adobe Illustrator 26.0.2, SVG Export Plug-In . SVG Version: 6.00 Build 0)  -->
<svg version="1.1" id="Vrstva_2_00000083076109259879382720000015778834546119291822_"
	 xmlns="http://www.w3.org/2000/svg" xmlns:xlink="http://www.w3.org/1999/xlink" x="0px" y="0px" viewBox="0 0 343.7 155.1"
	 style="enable-background:new 0 0 343.7 155.1;" xml:space="preserve">
<style type="text/css">
	.st0{opacity:0.2;fill:#E6E6E6;enable-background:new    ;}
	.st1{fill:#E07F00;}
</style>
<rect x="-22" y="-12.6" class="st0" width="389" height="182"/>
<path class="st1" d="M70.6,108.8c0-0.4,0.1-0.8,0.3-1.2c0.6-1.5,2.4-2.2,3.8-1.5c0.7,0.3,1.2,0.9,1.5,1.5c0.2,0.4,0.3,0.8,0.3,1.2
	c0.3,1.6-0.8,3.2-2.4,3.5c-1.6,0.3-3.2-0.8-3.5-2.4C70.6,109.5,70.6,109.2,70.6,108.8 M119.2,43.2c1.7,0,3,1.3,3,3s-1.3,3-3,3
	c-1.2,0-2.2-0.7-2.7-1.8c-0.2-0.4-0.3-0.8-0.3-1.2C116.2,44.6,117.5,43.2,119.2,43.2 M76.3,100.8V87.6L120,72.8
	c1.1-0.4,1.8-1.4,1.8-2.6V54.3c4.4-1.5,6.7-6.2,5.2-10.6s-6.2-6.7-10.6-5.2s-6.7,6.2-5.2,10.6c0.8,2.4,2.8,4.4,5.2,5.2v13.9
	L72.7,83.1c-1.1,0.4-1.8,1.4-1.8,2.6v15.1c-4.4,1.5-6.7,6.2-5.2,10.6c1.5,4.4,6.2,6.7,10.6,5.2c4.4-1.5,6.7-6.2,5.2-10.6
	C80.6,103.6,78.7,101.7,76.3,100.8"/>
<path class="st1" d="M76.5,46.2c0,1.7-1.3,3-3,3s-3-1.3-3-3s1.3-3,3-3c1.6,0,3,1.3,3,2.9C76.5,46.2,76.5,46.2,76.5,46.2 M96.4,58.3
	c1.7,0,3,1.3,3,3s-1.3,3-3,3h-0.3c-1.6-0.2-2.8-1.6-2.7-3.3c0.1-0.7,0.4-1.4,1-1.9C94.9,58.6,95.6,58.3,96.4,58.3 M70.9,54.3v14.7
	c0,0.9,0.4,1.7,1.1,2.2c0.5,0.3,1,0.5,1.6,0.5c0.3,0,0.6,0,0.8-0.1l15.3-5.2c1.6,2.1,4,3.3,6.6,3.3c4.7,0.1,8.5-3.7,8.6-8.4
	s-3.7-8.5-8.4-8.6s-8.5,3.7-8.6,8.4c0,0,0,0.1,0,0.1l-11.7,4v-11c4.4-1.5,6.7-6.2,5.2-10.6c-1.5-4.4-6.2-6.7-10.6-5.2
	s-6.7,6.2-5.2,10.6C66.5,51.5,68.4,53.4,70.9,54.3"/>
<path class="st1" d="M116.2,108.8c0-0.4,0.1-0.8,0.3-1.2c0.6-1.5,2.4-2.2,3.8-1.5c0.7,0.3,1.2,0.9,1.5,1.5c0.2,0.4,0.3,0.8,0.3,1.2
	c0.3,1.6-0.8,3.2-2.4,3.5c-1.6,0.3-3.2-0.8-3.5-2.4C116.1,109.5,116.1,109.2,116.2,108.8 M96.4,97.5c-1.7,0-3-1.3-3-3s1.3-3,3-3h0.3
	c1.5,0.2,2.7,1.5,2.7,3c0,0.8-0.4,1.6-1,2.2C97.8,97.2,97.1,97.5,96.4,97.5 M121.8,100.8v-14c0-0.9-0.4-1.7-1.1-2.2
	c-0.7-0.5-1.6-0.7-2.4-0.4L103,89.4c-1.6-2.1-4-3.4-6.6-3.4c-4.7-0.1-8.5,3.7-8.6,8.4c-0.1,4.7,3.7,8.5,8.4,8.6
	c4.7,0.1,8.5-3.7,8.6-8.4c0,0,0-0.1,0-0.1l11.7-4v10.2c-4.4,1.5-6.7,6.2-5.2,10.6c1.5,4.4,6.2,6.7,10.6,5.2
	c4.4-1.5,6.7-6.2,5.2-10.6C126.2,103.5,124.3,101.6,121.8,100.8"/>
<path class="st1" d="M150.4,71.7c-0.1,0.4-0.4,0.7-0.7,0.8c-0.4,0.2-0.8,0.4-1.3,0.4c-0.5,0-0.9-0.1-1.3-0.4
	c-0.3-0.2-0.6-0.5-0.7-0.8l-6.1-15.9c-0.1-0.3,0-0.7,0.2-1c0.3-0.4,0.7-0.6,1.2-0.7c0.4-0.1,0.9-0.1,1.4,0.1
	c0.4,0.1,0.6,0.4,0.8,0.8l4.6,13.1l4.5-13.1c0.1-0.4,0.4-0.6,0.8-0.8c0.4-0.2,0.9-0.3,1.4-0.1c0.5,0.1,0.9,0.3,1.2,0.7
	c0.2,0.3,0.3,0.7,0.2,1L150.4,71.7z"/>
<path class="st1" d="M167.1,65.8l-5.6-9.5c-0.2-0.3-0.3-0.7-0.2-1c0.1-0.4,0.4-0.8,0.8-1c0.4-0.3,0.9-0.4,1.4-0.3
	c0.4,0,0.7,0.2,1,0.5l4.5,8.2l4.5-8.1c0.3-0.3,0.6-0.5,1-0.5c0.5-0.1,1,0,1.4,0.3c0.4,0.2,0.7,0.6,0.8,1c0.1,0.3,0,0.7-0.2,1
	l-5.8,9.8v5.4c0,0.4-0.2,0.7-0.5,0.9c-0.4,0.3-0.8,0.4-1.3,0.4c-0.5,0-1-0.1-1.4-0.4c-0.3-0.2-0.5-0.6-0.5-0.9L167.1,65.8z
	 M169.3,52c-0.3,0.1-0.6,0.1-0.9-0.1c-0.3-0.1-0.6-0.4-0.7-0.7c-0.2-0.3-0.2-0.6-0.1-0.9c0.1-0.3,0.3-0.5,0.5-0.6l4.4-2.2
	c0.4-0.2,0.8-0.2,1.2,0c0.4,0.2,0.6,0.5,0.8,0.8c0.2,0.3,0.2,0.7,0.2,1.1c-0.1,0.4-0.4,0.7-0.8,0.8L169.3,52z"/>
<path class="st1" d="M182.9,55.6c0-0.4,0.2-0.7,0.5-0.9c0.4-0.3,0.9-0.4,1.4-0.4h4.4c1.2,0,2.4,0.1,3.5,0.4c0.9,0.2,1.7,0.6,2.4,1.1
	c0.6,0.5,1,1.1,1.3,1.7c0.3,0.7,0.4,1.5,0.4,2.3v0.2c0,0.9-0.2,1.8-0.7,2.5c-0.7,0.8-1.6,1.4-2.6,1.7l3.4,6.5c0.2,0.3,0.3,0.7,0.1,1
	c-0.2,0.4-0.6,0.8-1,1c-0.4,0.2-0.9,0.3-1.3,0.2c-0.4-0.1-0.7-0.3-0.9-0.6l-3.5-6.9c-0.2,0-0.4,0-0.5,0h-3.2v6.2
	c0,0.4-0.2,0.7-0.5,0.9c-0.4,0.3-0.8,0.4-1.3,0.4c-0.5,0-1-0.1-1.4-0.5c-0.3-0.2-0.5-0.6-0.5-1L182.9,55.6z M186.5,57.2v5.5h2.6
	c1,0.1,2.1-0.1,3-0.7c0.6-0.4,0.9-1,0.9-1.7v-0.6c0-0.8-0.3-1.5-0.9-1.9c-0.9-0.5-2-0.8-3-0.7L186.5,57.2z"/>
<path class="st1" d="M203.3,61.5c0-1,0.1-2,0.5-2.9c0.3-0.9,0.8-1.7,1.4-2.4c0.7-0.7,1.5-1.2,2.4-1.6c1.1-0.4,2.3-0.6,3.5-0.6
	c1.2,0,2.4,0.2,3.5,0.6c0.9,0.3,1.8,0.9,2.4,1.6c0.7,0.7,1.1,1.5,1.4,2.4c0.3,0.9,0.5,1.9,0.5,2.9v4c0,1-0.2,2-0.5,2.9
	c-0.3,0.9-0.8,1.7-1.4,2.4c-0.7,0.7-1.5,1.2-2.4,1.6c-1.1,0.4-2.3,0.6-3.5,0.6c-1.2,0-2.4-0.2-3.5-0.6c-0.9-0.3-1.8-0.9-2.4-1.6
	c-0.6-0.7-1.1-1.5-1.4-2.4c-0.3-0.9-0.5-1.9-0.5-2.9V61.5z M206.9,65.5c-0.1,1.2,0.3,2.5,1.1,3.4c0.9,0.7,2,1.1,3.1,1
	c1.1,0.1,2.2-0.3,3.1-1c0.8-0.9,1.2-2.1,1.1-3.3v-4c0.1-1.2-0.3-2.4-1.1-3.3c-0.9-0.7-2-1.1-3.1-1c-1.1-0.1-2.2,0.3-3.1,1
	c-0.8,0.9-1.3,2.1-1.1,3.3L206.9,65.5z"/>
<path class="st1" d="M226.3,55.6c0-0.4,0.2-0.7,0.5-0.9c0.4-0.3,0.9-0.4,1.4-0.4h4.7c1.1,0,2.2,0.1,3.3,0.4c0.8,0.2,1.6,0.6,2.2,1.2
	c0.5,0.4,1,1,1.2,1.6c0.3,0.6,0.4,1.2,0.4,1.9v0.2c0,0.8-0.2,1.5-0.6,2.2c-0.5,0.7-1.3,1.2-2.1,1.5c1.1,0.2,2,0.8,2.7,1.6
	c0.5,0.7,0.7,1.6,0.7,2.5v0.2c0,0.6-0.1,1.3-0.3,1.9c-0.2,0.6-0.6,1.2-1.1,1.6c-0.6,0.5-1.4,0.9-2.2,1.1c-1.1,0.3-2.3,0.4-3.5,0.4
	h-5.3c-0.5,0-1-0.2-1.4-0.5c-0.3-0.2-0.5-0.6-0.5-1V55.6z M229.9,57.2v5h3.5c0.8,0,1.5-0.3,2.1-0.7c0.5-0.4,0.7-0.9,0.7-1.5v-0.5
	c0-0.7-0.3-1.3-0.9-1.6c-0.8-0.5-1.7-0.7-2.6-0.6H229.9z M229.9,69.9h3.5c0.9,0.1,1.8-0.2,2.6-0.6c0.6-0.4,0.9-1,0.9-1.7v-0.4
	c0-0.7-0.3-1.3-0.8-1.7c-0.8-0.5-1.7-0.8-2.7-0.7H230L229.9,69.9z"/>
<path class="st1" d="M247.6,55.4c0-0.4,0.2-0.7,0.5-0.9c0.4-0.3,0.9-0.4,1.4-0.4c0.4,0,0.8,0.1,1.1,0.3c0.3,0.2,0.5,0.4,0.6,0.8
	l8.3,11.2v-11c0-0.4,0.2-0.7,0.5-0.9c0.4-0.3,0.9-0.4,1.4-0.4c0.5,0,0.9,0.1,1.3,0.4c0.3,0.2,0.5,0.6,0.5,0.9v16.2
	c0,0.4-0.2,0.7-0.5,0.9c-0.4,0.3-0.8,0.4-1.3,0.4c-0.4,0-0.8-0.1-1.1-0.2c-0.3-0.1-0.5-0.4-0.6-0.7l-0.1-0.1l-8.3-11.1v10.8
	c0,0.4-0.2,0.7-0.5,0.9c-0.4,0.3-0.8,0.4-1.3,0.4c-0.5,0-1-0.1-1.4-0.4c-0.3-0.2-0.5-0.6-0.5-0.9L247.6,55.4z"/>
<path class="st1" d="M270.9,55.4c0-0.4,0.2-0.7,0.5-0.9c0.4-0.3,0.9-0.4,1.4-0.4c0.5,0,0.9,0.1,1.3,0.4c0.3,0.2,0.5,0.6,0.5,0.9
	v16.2c0,0.4-0.2,0.7-0.5,0.9c-0.4,0.3-0.8,0.4-1.3,0.4c-0.5,0-1-0.1-1.4-0.4c-0.3-0.2-0.5-0.6-0.5-0.9V55.4z M273,52
	c-0.3,0.1-0.6,0.1-0.9-0.1c-0.3-0.1-0.6-0.4-0.7-0.7c-0.2-0.3-0.2-0.6-0.1-0.9c0.1-0.3,0.3-0.5,0.5-0.6l4.4-2.2
	c0.4-0.2,0.8-0.2,1.2,0c0.4,0.2,0.6,0.5,0.8,0.8c0.2,0.3,0.2,0.7,0.1,1.1c-0.1,0.4-0.4,0.7-0.8,0.8L273,52z"/>
<path class="st1" d="M141.5,84.3c0-0.4,0.2-0.7,0.5-0.9c0.4-0.3,0.9-0.4,1.4-0.4h4.4c1.2,0,2.4,0.1,3.5,0.4c0.9,0.2,1.6,0.6,2.3,1.1
	c0.6,0.5,1,1.1,1.3,1.8c0.3,0.7,0.4,1.5,0.4,2.3v0.2c0,0.9-0.2,1.8-0.7,2.5c-0.7,0.8-1.6,1.4-2.6,1.7l3.4,6.5c0.2,0.3,0.3,0.7,0.1,1
	c-0.2,0.4-0.6,0.8-1,1c-0.4,0.2-0.9,0.3-1.3,0.2c-0.4-0.1-0.7-0.3-0.9-0.6l-3.5-6.9c-0.2,0-0.3,0-0.5,0h-3.2v6.2
	c0,0.4-0.2,0.7-0.5,0.9c-0.8,0.5-1.9,0.5-2.6-0.1c-0.3-0.2-0.5-0.6-0.5-1L141.5,84.3z M145.2,85.8v5.5h2.6c1,0.1,2.1-0.1,3-0.7
	c0.6-0.4,0.9-1,0.9-1.7v-0.5c0-0.8-0.3-1.5-0.9-1.9c-0.9-0.5-2-0.8-3-0.7L145.2,85.8z"/>
<path class="st1" d="M174.1,83.4c0.3,0.3,0.5,0.7,0.4,1.1c0,0.4-0.2,0.8-0.4,1.1c-0.4,0.3-0.8,0.4-1.3,0.4h-7v4.5h4.6
	c0.5,0,1,0.1,1.4,0.4c0.3,0.3,0.5,0.7,0.4,1.1c0,0.4-0.1,0.8-0.4,1.1c-0.4,0.3-0.9,0.5-1.4,0.4h-4.6v4.7h7c0.5,0,0.9,0.1,1.3,0.4
	c0.3,0.3,0.5,0.7,0.4,1.1c0,0.4-0.1,0.8-0.4,1.1c-0.4,0.3-0.8,0.5-1.3,0.4H164c-0.5,0-1-0.1-1.4-0.4c-0.3-0.2-0.5-0.6-0.5-0.9V84.3
	c0-0.4,0.2-0.7,0.5-0.9c0.4-0.3,0.9-0.4,1.4-0.4h8.7C173.2,82.9,173.7,83.1,174.1,83.4z"/>
<path class="st1" d="M181.4,84.3c0-0.4,0.2-0.7,0.5-0.9c0.4-0.3,0.9-0.4,1.4-0.4h4.1c1.1,0,2.3,0.1,3.4,0.5c0.9,0.3,1.6,0.7,2.3,1.3
	c0.6,0.5,1.1,1.2,1.4,1.9c0.3,0.7,0.4,1.5,0.4,2.3v0.3c0,0.7-0.1,1.4-0.4,2.1c-0.3,0.7-0.7,1.3-1.3,1.8c-0.7,0.6-1.5,1-2.3,1.2
	c-1.1,0.3-2.3,0.5-3.5,0.5H185v5.4c0,0.4-0.2,0.7-0.5,0.9c-0.8,0.6-1.9,0.6-2.6-0.1c-0.3-0.2-0.5-0.6-0.5-1L181.4,84.3z M185,85.8
	v6.3h2.3c0.6,0,1.2-0.1,1.8-0.2c0.4-0.1,0.9-0.3,1.2-0.6c0.6-0.4,0.9-1.1,0.9-1.9v-0.7c0-0.8-0.3-1.6-0.9-2.1
	c-0.9-0.6-1.9-0.9-3-0.8L185,85.8z"/>
<path class="st1" d="M201.5,90.1c0-1,0.1-2,0.5-2.9c0.3-0.9,0.8-1.7,1.4-2.4c0.7-0.7,1.5-1.2,2.4-1.6c1.1-0.4,2.3-0.6,3.5-0.6
	c1.2,0,2.4,0.2,3.5,0.6c0.9,0.3,1.8,0.9,2.4,1.6c0.6,0.7,1.1,1.5,1.4,2.4c0.3,0.9,0.5,1.9,0.5,2.9v4c0,1-0.2,2-0.5,2.9
	c-0.3,0.9-0.8,1.7-1.4,2.4c-0.7,0.7-1.5,1.2-2.4,1.6c-1.1,0.4-2.3,0.6-3.5,0.6c-1.2,0-2.4-0.2-3.5-0.6c-0.9-0.3-1.8-0.9-2.4-1.6
	c-0.6-0.7-1.1-1.5-1.4-2.4c-0.3-0.9-0.5-1.9-0.5-2.9L201.5,90.1z M205.1,94.1c-0.1,1.2,0.3,2.4,1.1,3.3c0.9,0.7,2,1.1,3.1,1
	c1.1,0.1,2.2-0.3,3.1-1c0.8-0.9,1.2-2.1,1.1-3.3v-4c0.1-1.2-0.3-2.4-1.1-3.3c-0.9-0.7-2-1.1-3.1-1c-1.1-0.1-2.2,0.3-3.1,1
	c-0.8,0.9-1.3,2.1-1.1,3.3V94.1z"/>
<path class="st1" d="M224.6,84.3c0-0.4,0.2-0.7,0.5-0.9c0.4-0.3,0.9-0.4,1.4-0.4h4.4c1.2,0,2.4,0.1,3.5,0.4c0.9,0.2,1.6,0.6,2.3,1.1
	c0.6,0.5,1,1.1,1.3,1.8c0.3,0.7,0.4,1.5,0.4,2.3v0.2c0,0.9-0.2,1.8-0.7,2.5c-0.7,0.8-1.6,1.4-2.6,1.7l3.4,6.5c0.2,0.3,0.3,0.7,0.1,1
	c-0.2,0.4-0.6,0.8-1,1c-0.4,0.2-0.9,0.3-1.3,0.2c-0.4-0.1-0.7-0.3-0.9-0.6l-3.4-6.9c-0.2,0-0.4,0-0.5,0h-3.2v6.2
	c0,0.4-0.2,0.7-0.5,0.9c-0.4,0.3-0.8,0.4-1.3,0.4c-0.5,0-1-0.1-1.4-0.5c-0.3-0.2-0.5-0.6-0.5-1L224.6,84.3z M228.2,85.8v5.5h2.6
	c1,0.1,2.1-0.1,3-0.7c0.6-0.4,0.9-1,0.9-1.7v-0.5c0-0.8-0.3-1.5-0.9-1.9c-0.9-0.5-2-0.8-3-0.7L228.2,85.8z"/>
<path class="st1" d="M256.5,83c0.5,0,1,0.1,1.4,0.4c0.3,0.3,0.5,0.7,0.5,1.1c0,0.4-0.2,0.8-0.5,1.1c-0.4,0.3-0.9,0.5-1.4,0.4h-4.1
	v14.2c0,0.4-0.2,0.7-0.5,0.9c-0.4,0.3-0.8,0.4-1.3,0.4c-0.5,0-1-0.1-1.4-0.4c-0.3-0.2-0.5-0.6-0.5-0.9V86h-3.7
	c-0.5,0-0.9-0.1-1.3-0.4c-0.3-0.3-0.5-0.7-0.5-1.1c0-0.4,0.2-0.8,0.5-1.1c0.4-0.3,0.8-0.4,1.3-0.4L256.5,83z"/>
</svg>
