<svg xmlns="http://www.w3.org/2000/svg" xmlns:xlink="http://www.w3.org/1999/xlink" viewBox="0 0 260.6 426.29"><defs><style>.cls-1{fill:none;}.cls-2{isolation:isolate;}.cls-3{opacity:0.8;mix-blend-mode:multiply;fill:url(#radial-gradient);}.cls-4{fill:url(#linear-gradient);}.cls-5{fill:url(#linear-gradient-2);}.cls-6{fill:url(#linear-gradient-3);}.cls-7{fill:url(#linear-gradient-4);}.cls-8{fill:url(#linear-gradient-5);}.cls-9{fill:url(#linear-gradient-6);}.cls-10{fill:url(#linear-gradient-7);}.cls-11{clip-path:url(#clip-path);}.cls-12{fill:url(#linear-gradient-8);}.cls-13{fill:url(#linear-gradient-9);}.cls-14{fill:url(#linear-gradient-10);}.cls-15{fill:url(#linear-gradient-11);}.cls-16{fill:url(#linear-gradient-12);}.cls-17{fill:url(#linear-gradient-13);}.cls-18{fill:url(#linear-gradient-14);}.cls-19{fill:url(#linear-gradient-15);}.cls-20{fill:url(#linear-gradient-16);}.cls-21{fill:url(#linear-gradient-17);}.cls-22{fill:url(#linear-gradient-18);}.cls-23{fill:url(#linear-gradient-19);}.cls-24{fill:url(#linear-gradient-20);}.cls-25{fill:url(#linear-gradient-21);}.cls-26{fill:url(#linear-gradient-22);}.cls-27{fill:url(#linear-gradient-23);}.cls-28{fill:url(#linear-gradient-24);}.cls-29{fill:url(#linear-gradient-25);}.cls-30{fill:url(#linear-gradient-26);}.cls-31{fill:url(#linear-gradient-27);}.cls-32{fill:url(#linear-gradient-28);}.cls-33{fill:url(#linear-gradient-29);}.cls-34{fill:url(#linear-gradient-30);}.cls-35{fill:url(#linear-gradient-31);}.cls-36{fill:#e0b60a;}.cls-37{fill:url(#linear-gradient-32);}.cls-38{fill:url(#linear-gradient-33);}.cls-39{fill:url(#linear-gradient-34);}.cls-40{fill:url(#linear-gradient-35);}.cls-41{fill:url(#linear-gradient-36);}.cls-42{fill:url(#linear-gradient-37);}.cls-43{fill:#e2dbd2;stroke:#e8e107;stroke-miterlimit:10;}.cls-44{fill:#e6e5e5;}.cls-45{fill:gray;}.cls-46{fill:#31ac74;}.cls-47{fill:url(#linear-gradient-38);}.cls-48{fill:url(#linear-gradient-39);}.cls-49{fill:#fff;}.cls-50{fill:url(#linear-gradient-40);}.cls-51{fill:url(#linear-gradient-41);}.cls-52{fill:url(#linear-gradient-42);}.cls-53{fill:url(#linear-gradient-43);}.cls-54{fill:url(#linear-gradient-44);}.cls-55{fill:url(#linear-gradient-45);}.cls-56{fill:url(#linear-gradient-46);}.cls-57{fill:url(#linear-gradient-47);}.cls-58{fill:url(#linear-gradient-48);}.cls-59{fill:url(#linear-gradient-49);}.cls-60{fill:url(#linear-gradient-50);}.cls-61{fill:url(#linear-gradient-51);}.cls-62{fill:url(#linear-gradient-52);}.cls-63{fill:url(#linear-gradient-53);}.cls-64{fill:url(#linear-gradient-54);}.cls-65{fill:url(#linear-gradient-55);}.cls-66{fill:url(#linear-gradient-56);}.cls-67{fill:url(#linear-gradient-57);}.cls-68{fill:url(#linear-gradient-58);}.cls-69{fill:url(#linear-gradient-59);}.cls-70{fill:url(#linear-gradient-60);}.cls-71{fill:url(#linear-gradient-61);}.cls-72{fill:url(#linear-gradient-62);}.cls-73{fill:url(#linear-gradient-63);}.cls-74{fill:url(#linear-gradient-64);}.cls-75{fill:url(#linear-gradient-65);}.cls-76{fill:#82c07e;}.cls-77{fill:url(#linear-gradient-66);}.cls-78{fill:url(#linear-gradient-67);}.cls-79{fill:url(#linear-gradient-68);}.cls-80{fill:url(#linear-gradient-69);}.cls-81{fill:url(#linear-gradient-70);}.cls-82{fill:url(#linear-gradient-71);}.cls-83{fill:url(#linear-gradient-72);}.cls-84{fill:url(#linear-gradient-73);}.cls-85{fill:url(#linear-gradient-74);}.cls-86{fill:#e8e107;}.cls-87{fill:url(#linear-gradient-75);}.cls-88{fill:url(#linear-gradient-76);}.cls-89{fill:url(#linear-gradient-77);}.cls-90{fill:url(#linear-gradient-78);}.cls-91{fill:url(#linear-gradient-79);}.cls-92{fill:#d1a83f;}.cls-93{fill:#a47c2c;}.cls-94{fill:url(#linear-gradient-80);}.cls-95{fill:url(#linear-gradient-81);}.cls-96{fill:url(#linear-gradient-82);}.cls-97{fill:url(#linear-gradient-83);}.cls-98{fill:url(#linear-gradient-84);}.cls-99{fill:url(#linear-gradient-85);}.cls-100{fill:url(#linear-gradient-86);}.cls-101{fill:url(#linear-gradient-87);}.cls-102{fill:url(#linear-gradient-88);}.cls-103{fill:url(#linear-gradient-89);}.cls-104{fill:url(#linear-gradient-90);}.cls-105{fill:url(#linear-gradient-91);}.cls-106{fill:url(#linear-gradient-92);}.cls-107{fill:url(#linear-gradient-93);}.cls-108{fill:#313533;}.cls-109{fill:url(#linear-gradient-94);}.cls-110{fill:url(#linear-gradient-95);}.cls-111{fill:#262724;}.cls-112{fill:url(#linear-gradient-96);}.cls-113{fill:url(#linear-gradient-97);}.cls-114{fill:url(#linear-gradient-98);}.cls-115{fill:url(#linear-gradient-99);}.cls-116{fill:url(#linear-gradient-100);}.cls-117{fill:url(#linear-gradient-101);}.cls-118{fill:url(#linear-gradient-102);}.cls-119{fill:url(#linear-gradient-103);}.cls-120{fill:url(#linear-gradient-104);}.cls-121{fill:url(#linear-gradient-105);}.cls-122{fill:#1e8654;}.cls-123{fill:url(#linear-gradient-106);}.cls-124{fill:url(#linear-gradient-107);}.cls-125{fill:url(#linear-gradient-108);}.cls-126{fill:url(#linear-gradient-109);}.cls-127{fill:url(#linear-gradient-110);}.cls-128{fill:url(#linear-gradient-111);}.cls-129{fill:url(#linear-gradient-112);}.cls-130{fill:url(#linear-gradient-113);}.cls-131{fill:url(#linear-gradient-114);}.cls-132{fill:url(#linear-gradient-115);}.cls-133{fill:url(#linear-gradient-116);}.cls-134{fill:url(#linear-gradient-117);}.cls-135{fill:url(#linear-gradient-118);}.cls-136{fill:url(#linear-gradient-119);}.cls-137{fill:url(#linear-gradient-121);}.cls-138{fill:url(#linear-gradient-122);}.cls-139{fill:url(#linear-gradient-123);}.cls-140{fill:url(#linear-gradient-124);}.cls-141{fill:url(#linear-gradient-125);}.cls-142{fill:url(#linear-gradient-126);}.cls-143{fill:url(#linear-gradient-127);}.cls-144{fill:url(#linear-gradient-128);}.cls-145{fill:url(#linear-gradient-129);}.cls-146{fill:url(#linear-gradient-130);}.cls-147{fill:url(#linear-gradient-131);}.cls-148{fill:url(#linear-gradient-132);}.cls-149{fill:url(#linear-gradient-133);}.cls-150{fill:url(#linear-gradient-134);}.cls-151{fill:url(#linear-gradient-135);}.cls-152{fill:url(#linear-gradient-136);}.cls-153{fill:url(#linear-gradient-137);}.cls-154{fill:url(#linear-gradient-138);}.cls-155{fill:url(#linear-gradient-139);}.cls-156{fill:url(#linear-gradient-140);}.cls-157{fill:url(#linear-gradient-141);}.cls-158{fill:url(#linear-gradient-142);}.cls-159{fill:url(#linear-gradient-143);}.cls-160{fill:url(#linear-gradient-144);}.cls-161{fill:url(#linear-gradient-145);}</style><radialGradient id="radial-gradient" cx="-317.59" cy="351.06" r="119.88" gradientTransform="translate(356.36 667.43) rotate(89.69) scale(1 0.64)" gradientUnits="userSpaceOnUse"><stop offset="0" stop-color="#989898"/><stop offset="1" stop-color="#fff"/></radialGradient><linearGradient id="linear-gradient" x1="28.65" y1="181.6" x2="231.96" y2="181.6" gradientUnits="userSpaceOnUse"><stop offset="0" stop-color="#fff"/><stop offset="1" stop-color="#d4d3d3"/></linearGradient><linearGradient id="linear-gradient-2" x1="28.65" y1="192.62" x2="194.04" y2="192.62" gradientUnits="userSpaceOnUse"><stop offset="0" stop-color="#252532"/><stop offset="1" stop-color="#3f4051"/></linearGradient><linearGradient id="linear-gradient-3" x1="30.82" y1="192.62" x2="191.86" y2="192.62" xlink:href="#linear-gradient-2"/><linearGradient id="linear-gradient-4" x1="30.82" y1="192.62" x2="191.86" y2="192.62" gradientUnits="userSpaceOnUse"><stop offset="0" stop-color="#3f4051"/><stop offset="1" stop-color="#252532"/></linearGradient><linearGradient id="linear-gradient-5" x1="-1034.48" y1="3399.79" x2="-938.47" y2="3358.22" gradientTransform="matrix(0.87, 0.5, 0, 1.15, 987.66, -3105.21)" xlink:href="#linear-gradient-2"/><linearGradient id="linear-gradient-6" x1="-5171.81" y1="3412.51" x2="-5112.91" y2="3387" gradientTransform="matrix(0.87, 0.5, 0.5, 1.44, 2864.75, -2021.47)" xlink:href="#linear-gradient-2"/><linearGradient id="linear-gradient-7" x1="-5169.84" y1="3412.04" x2="-5115.19" y2="3388.38" gradientTransform="matrix(0.87, 0.5, 0.5, 1.44, 2864.75, -2021.47)" xlink:href="#linear-gradient-4"/><clipPath id="clip-path"><path class="cls-1" d="M179.2,361a17.61,17.61,0,0,1-8.7-2.67L54.36,291.29c-13-7.49-23.54-27.74-23.54-45.16V43.6c0-8.91,2.91-15.69,7.81-18.25H39l.39-.33a10.32,10.32,0,0,1,2.29-.66,11.06,11.06,0,0,1,1.84-.15,17.73,17.73,0,0,1,8.7,2.66L168.33,93.94c13,7.48,23.53,27.74,23.53,45.15V341.62c0,6.93-1.73,12.61-4.87,16a11.16,11.16,0,0,1-2.1,1.79A10.33,10.33,0,0,1,179.2,361Z"/></clipPath><linearGradient id="linear-gradient-8" x1="42.71" y1="252.05" x2="104.68" y2="252.05" gradientTransform="translate(0 0)" xlink:href="#linear-gradient-2"/><linearGradient id="linear-gradient-9" x1="42.71" y1="41.46" x2="104.68" y2="41.46" gradientTransform="translate(0 0)" xlink:href="#linear-gradient-2"/><linearGradient id="linear-gradient-10" x1="42.71" y1="146.78" x2="104.68" y2="146.78" gradientTransform="translate(0 0)" xlink:href="#linear-gradient-2"/><linearGradient id="linear-gradient-11" x1="-1113.95" y1="3452.53" x2="-1084.47" y2="3452.53" gradientTransform="matrix(0.87, 0.5, 0, 1.15, 1003.91, -3173.4)" xlink:href="#linear-gradient-2"/><linearGradient id="linear-gradient-12" x1="-1107.16" y1="3452.53" x2="-1091.25" y2="3452.53" gradientTransform="matrix(0.87, 0.5, 0, 1.15, 1003.91, -3173.4)" gradientUnits="userSpaceOnUse"><stop offset="0" stop-color="#3f4051"/><stop offset="0.06" stop-color="#3a3b4b"/><stop offset="0.29" stop-color="#2e2f3d"/><stop offset="0.56" stop-color="#272735"/><stop offset="1" stop-color="#252532"/></linearGradient><linearGradient id="linear-gradient-13" x1="-1113.95" y1="3361.34" x2="-1084.47" y2="3361.34" gradientTransform="matrix(0.87, 0.5, 0, 1.15, 1003.91, -3173.4)" xlink:href="#linear-gradient-2"/><linearGradient id="linear-gradient-14" x1="44.28" y1="153.89" x2="59.68" y2="162.78" gradientTransform="translate(87.01 -4.59) rotate(30.31)" xlink:href="#linear-gradient-12"/><linearGradient id="linear-gradient-15" x1="-1113.95" y1="3270.15" x2="-1084.47" y2="3270.15" gradientTransform="matrix(0.87, 0.5, 0, 1.15, 1003.91, -3173.4)" xlink:href="#linear-gradient-2"/><linearGradient id="linear-gradient-16" x1="-1107.16" y1="3270.15" x2="-1091.25" y2="3270.15" xlink:href="#linear-gradient-12"/><linearGradient id="linear-gradient-17" x1="82.16" y1="157.82" x2="220.52" y2="157.82" xlink:href="#linear-gradient"/><linearGradient id="linear-gradient-18" x1="219.98" y1="237" x2="220.52" y2="237" xlink:href="#linear-gradient"/><linearGradient id="linear-gradient-19" x1="208.73" y1="193.48" x2="220.52" y2="193.48" xlink:href="#linear-gradient"/><linearGradient id="linear-gradient-20" x1="219.98" y1="188.38" x2="220.52" y2="188.38" xlink:href="#linear-gradient"/><linearGradient id="linear-gradient-21" x1="208.73" y1="187.39" x2="209.27" y2="187.39" xlink:href="#linear-gradient"/><linearGradient id="linear-gradient-22" x1="211.56" y1="187.4" x2="212.1" y2="187.4" xlink:href="#linear-gradient"/><linearGradient id="linear-gradient-23" x1="208.73" y1="176.39" x2="209.27" y2="176.39" xlink:href="#linear-gradient"/><linearGradient id="linear-gradient-24" x1="219.98" y1="178.31" x2="220.52" y2="178.31" xlink:href="#linear-gradient"/><linearGradient id="linear-gradient-25" x1="219.98" y1="168.23" x2="220.52" y2="168.23" xlink:href="#linear-gradient"/><linearGradient id="linear-gradient-26" x1="208.73" y1="167.24" x2="209.27" y2="167.24" xlink:href="#linear-gradient"/><linearGradient id="linear-gradient-27" x1="208.73" y1="156.24" x2="209.27" y2="156.24" xlink:href="#linear-gradient"/><linearGradient id="linear-gradient-28" x1="219.98" y1="139.21" x2="220.52" y2="139.21" xlink:href="#linear-gradient"/><linearGradient id="linear-gradient-29" x1="81.62" y1="78.6" x2="220.52" y2="78.6" xlink:href="#linear-gradient"/><linearGradient id="linear-gradient-30" x1="208.73" y1="159.9" x2="212.1" y2="159.9" xlink:href="#linear-gradient"/><linearGradient id="linear-gradient-31" x1="208.73" y1="180.04" x2="212.1" y2="180.04" xlink:href="#linear-gradient"/><linearGradient id="linear-gradient-32" x1="-857.38" y1="3115.92" x2="-875.31" y2="3146.98" gradientTransform="matrix(0.87, 0.5, 0, 1.15, 952.94, -2931.28)" xlink:href="#linear-gradient"/><linearGradient id="linear-gradient-33" x1="85.54" y1="50.22" x2="90.65" y2="50.22" gradientTransform="translate(37.39 -37.6) rotate(30.31)" xlink:href="#linear-gradient"/><linearGradient id="linear-gradient-34" x1="148.25" y1="86.43" x2="153.36" y2="86.43" gradientTransform="translate(64.23 -64.29) rotate(30.31)" xlink:href="#linear-gradient"/><linearGradient id="linear-gradient-35" x1="210.96" y1="122.63" x2="216.07" y2="122.63" gradientTransform="translate(91.08 -90.99) rotate(30.31)" xlink:href="#linear-gradient"/><linearGradient id="linear-gradient-36" x1="210.96" y1="209.56" x2="216.07" y2="209.56" gradientTransform="translate(134.95 -79.11) rotate(30.31)" xlink:href="#linear-gradient"/><linearGradient id="linear-gradient-37" x1="85.54" y1="137.15" x2="90.65" y2="137.15" gradientTransform="translate(81.26 -25.71) rotate(30.31)" xlink:href="#linear-gradient"/><linearGradient id="linear-gradient-38" x1="-935.48" y1="3131.54" x2="-916.98" y2="3131.54" gradientTransform="matrix(0.87, 0.5, 0, 1.15, 952.94, -2931.28)" xlink:href="#linear-gradient"/><linearGradient id="linear-gradient-39" x1="-936.86" y1="3132.65" x2="-918.35" y2="3132.65" gradientTransform="matrix(0.87, 0.5, 0, 1.15, 952.94, -2931.28)" xlink:href="#linear-gradient"/><linearGradient id="linear-gradient-40" x1="-986.57" y1="3104.79" x2="-963.07" y2="3104.79" gradientTransform="matrix(0.87, 0.5, 0, 1.15, 952.94, -2931.28)" xlink:href="#linear-gradient"/><linearGradient id="linear-gradient-41" x1="-972.19" y1="3087.06" x2="-980.24" y2="3124.8" gradientTransform="matrix(0.87, 0.5, 0, 1.15, 952.94, -2931.28)" xlink:href="#linear-gradient"/><linearGradient id="linear-gradient-42" x1="-955.43" y1="3103.94" x2="-944.27" y2="3103.94" gradientTransform="matrix(0.87, 0.5, 0, 1.15, 952.94, -2931.28)" gradientUnits="userSpaceOnUse"><stop offset="0" stop-color="#333"/><stop offset="0.52" stop-color="#3f3e3e"/><stop offset="1" stop-color="#4e4d4d"/></linearGradient><linearGradient id="linear-gradient-43" x1="-955.43" y1="-23336.38" x2="-944.27" y2="-23336.38" gradientTransform="matrix(0.87, 0.5, 0, -0.4, 952.94, -8774.04)" xlink:href="#linear-gradient-42"/><linearGradient id="linear-gradient-44" x1="-955.43" y1="-23389.97" x2="-944.27" y2="-23389.97" gradientTransform="matrix(0.87, 0.5, 0, -0.4, 952.94, -8774.04)" xlink:href="#linear-gradient-42"/><linearGradient id="linear-gradient-45" x1="-1002.99" y1="3135.44" x2="-969.25" y2="3135.44" xlink:href="#linear-gradient-42"/><linearGradient id="linear-gradient-46" x1="-1004.52" y1="3136.75" x2="-970.78" y2="3136.75" xlink:href="#linear-gradient-42"/><linearGradient id="linear-gradient-47" x1="146.67" y1="236.04" x2="154.94" y2="236.04" xlink:href="#linear-gradient"/><linearGradient id="linear-gradient-48" x1="208.73" y1="173.33" x2="220.52" y2="173.33" xlink:href="#linear-gradient"/><linearGradient id="linear-gradient-49" x1="211.56" y1="160.71" x2="220.52" y2="160.71" xlink:href="#linear-gradient"/><linearGradient id="linear-gradient-50" x1="211.56" y1="180.86" x2="220.52" y2="180.86" xlink:href="#linear-gradient"/><linearGradient id="linear-gradient-51" x1="166.59" y1="232.33" x2="167.13" y2="232.33" xlink:href="#linear-gradient-2"/><linearGradient id="linear-gradient-52" x1="162.38" y1="228.7" x2="167.13" y2="228.7" xlink:href="#linear-gradient-2"/><linearGradient id="linear-gradient-53" x1="-912.86" y1="3133.08" x2="-908" y2="3133.08" gradientTransform="matrix(0.87, 0.5, 0, 1.15, 952.94, -2931.28)" xlink:href="#linear-gradient-2"/><linearGradient id="linear-gradient-54" x1="139.26" y1="216.55" x2="139.81" y2="216.55" xlink:href="#linear-gradient-2"/><linearGradient id="linear-gradient-55" x1="135.05" y1="212.92" x2="139.81" y2="212.92" xlink:href="#linear-gradient-2"/><linearGradient id="linear-gradient-56" x1="-944.42" y1="3133.08" x2="-939.56" y2="3133.08" gradientTransform="matrix(0.87, 0.5, 0, 1.15, 952.94, -2931.28)" xlink:href="#linear-gradient-2"/><linearGradient id="linear-gradient-57" x1="-878.11" y1="3025.76" x2="-874.35" y2="3025.76" gradientTransform="matrix(0.5, 0.87, -0.58, 1, 2391.4, -2130.59)" xlink:href="#linear-gradient"/><linearGradient id="linear-gradient-58" x1="15205.07" y1="-11207.71" x2="15208.83" y2="-11207.71" gradientTransform="matrix(-0.5, -0.87, 0.58, -1, 14221.63, 2141.91)" xlink:href="#linear-gradient"/><linearGradient id="linear-gradient-59" x1="15199.89" y1="-11207.71" x2="15203.65" y2="-11207.71" gradientTransform="matrix(-0.5, -0.87, 0.58, -1, 14223.55, 2140)" xlink:href="#linear-gradient"/><linearGradient id="linear-gradient-60" x1="15194.71" y1="-11207.71" x2="15198.47" y2="-11207.71" gradientTransform="matrix(-0.5, -0.87, 0.58, -1, 14225.47, 2138.09)" xlink:href="#linear-gradient"/><linearGradient id="linear-gradient-61" x1="15189.53" y1="-11207.71" x2="15193.29" y2="-11207.71" gradientTransform="matrix(-0.5, -0.87, 0.58, -1, 14227.39, 2136.18)" xlink:href="#linear-gradient"/><linearGradient id="linear-gradient-62" x1="15184.35" y1="-11207.71" x2="15188.11" y2="-11207.71" gradientTransform="matrix(-0.5, -0.87, 0.58, -1, 14229.31, 2134.27)" xlink:href="#linear-gradient"/><linearGradient id="linear-gradient-63" x1="15179.17" y1="-11207.71" x2="15182.93" y2="-11207.71" gradientTransform="matrix(-0.5, -0.87, 0.58, -1, 14231.23, 2132.36)" xlink:href="#linear-gradient"/><linearGradient id="linear-gradient-64" x1="15173.99" y1="-11207.71" x2="15177.75" y2="-11207.71" gradientTransform="matrix(-0.5, -0.87, 0.58, -1, 14233.15, 2130.45)" xlink:href="#linear-gradient"/><linearGradient id="linear-gradient-65" x1="15168.81" y1="-11207.71" x2="15172.57" y2="-11207.71" gradientTransform="matrix(-0.5, -0.87, 0.58, -1, 14235.07, 2128.54)" xlink:href="#linear-gradient"/><linearGradient id="linear-gradient-66" x1="-950.51" y1="3025.76" x2="-946.76" y2="3025.76" gradientTransform="matrix(0.5, 0.87, -0.58, 1, 2364.56, -2103.89)" xlink:href="#linear-gradient"/><linearGradient id="linear-gradient-67" x1="15277.48" y1="-11207.72" x2="15281.24" y2="-11207.72" gradientTransform="matrix(-0.5, -0.87, 0.58, -1, 14194.79, 2168.61)" xlink:href="#linear-gradient"/><linearGradient id="linear-gradient-68" x1="15272.3" y1="-11207.72" x2="15276.06" y2="-11207.72" gradientTransform="matrix(-0.5, -0.87, 0.58, -1, 14196.71, 2166.7)" xlink:href="#linear-gradient"/><linearGradient id="linear-gradient-69" x1="15267.12" y1="-11207.72" x2="15270.88" y2="-11207.72" gradientTransform="matrix(-0.5, -0.87, 0.58, -1, 14198.63, 2164.79)" xlink:href="#linear-gradient"/><linearGradient id="linear-gradient-70" x1="15261.94" y1="-11207.72" x2="15265.7" y2="-11207.72" gradientTransform="matrix(-0.5, -0.87, 0.58, -1, 14200.55, 2162.88)" xlink:href="#linear-gradient"/><linearGradient id="linear-gradient-71" x1="15256.76" y1="-11207.72" x2="15260.52" y2="-11207.72" gradientTransform="matrix(-0.5, -0.87, 0.58, -1, 14202.47, 2160.97)" xlink:href="#linear-gradient"/><linearGradient id="linear-gradient-72" x1="15251.58" y1="-11207.72" x2="15255.34" y2="-11207.72" gradientTransform="matrix(-0.5, -0.87, 0.58, -1, 14204.39, 2159.06)" xlink:href="#linear-gradient"/><linearGradient id="linear-gradient-73" x1="15246.4" y1="-11207.72" x2="15250.16" y2="-11207.72" gradientTransform="matrix(-0.5, -0.87, 0.58, -1, 14206.31, 2157.15)" xlink:href="#linear-gradient"/><linearGradient id="linear-gradient-74" x1="15241.22" y1="-11207.72" x2="15244.98" y2="-11207.72" gradientTransform="matrix(-0.5, -0.87, 0.58, -1, 14208.23, 2155.24)" xlink:href="#linear-gradient"/><linearGradient id="linear-gradient-75" x1="-956.4" y1="3104.77" x2="-945.23" y2="3104.77" xlink:href="#linear-gradient-42"/><linearGradient id="linear-gradient-76" x1="-956.4" y1="-23338.74" x2="-945.23" y2="-23338.74" gradientTransform="matrix(0.87, 0.5, 0, -0.4, 952.94, -8774.04)" xlink:href="#linear-gradient-42"/><linearGradient id="linear-gradient-77" x1="-956.4" y1="-23392.33" x2="-945.23" y2="-23392.33" gradientTransform="matrix(0.87, 0.5, 0, -0.4, 952.94, -8774.04)" xlink:href="#linear-gradient-42"/><linearGradient id="linear-gradient-78" x1="124.68" y1="166.65" x2="135.18" y2="166.65" gradientTransform="matrix(1, 0, 0, 1, 0, 0)" xlink:href="#linear-gradient-42"/><linearGradient id="linear-gradient-79" x1="124.68" y1="178.15" x2="135.18" y2="178.15" gradientTransform="matrix(1, 0, 0, 1, 0, 0)" xlink:href="#linear-gradient-42"/><linearGradient id="linear-gradient-80" x1="124.68" y1="188.28" x2="135.18" y2="188.28" gradientTransform="matrix(1, 0, 0, 1, 0, 0)" xlink:href="#linear-gradient-42"/><linearGradient id="linear-gradient-81" x1="83.01" y1="196.52" x2="113.55" y2="196.52" gradientTransform="matrix(1, 0, 0, 1, 0, 0)" xlink:href="#linear-gradient-42"/><linearGradient id="linear-gradient-82" x1="108.97" y1="193.77" x2="108.97" y2="138.74" gradientUnits="userSpaceOnUse"><stop offset="0" stop-color="#31ac74"/><stop offset="1" stop-color="#82c07e"/></linearGradient><linearGradient id="linear-gradient-83" x1="192.41" y1="251.28" x2="213.41" y2="251.28" xlink:href="#linear-gradient-82"/><linearGradient id="linear-gradient-84" x1="-879.67" y1="3107.71" x2="-855.6" y2="3107.71" xlink:href="#linear-gradient-42"/><linearGradient id="linear-gradient-85" x1="191.13" y1="223.11" x2="212.92" y2="223.11" gradientTransform="matrix(1, 0, 0, 1, 0, 0)" xlink:href="#linear-gradient-42"/><linearGradient id="linear-gradient-86" x1="-868.94" y1="3139.15" x2="-865.49" y2="3139.15" gradientTransform="matrix(0.87, 0.5, 0, 1.15, 964.44, -2981.61)" xlink:href="#linear-gradient-42"/><linearGradient id="linear-gradient-87" x1="-868.94" y1="3063.92" x2="-865.49" y2="3063.92" gradientTransform="matrix(0.87, 0.5, 0, 1.15, 964.44, -2981.61)" xlink:href="#linear-gradient-42"/><linearGradient id="linear-gradient-88" x1="-1013.65" y1="3139.16" x2="-1010.19" y2="3139.16" gradientTransform="matrix(0.87, 0.5, 0, 1.15, 964.44, -2981.61)" xlink:href="#linear-gradient-42"/><linearGradient id="linear-gradient-89" x1="-1013.65" y1="3063.93" x2="-1010.19" y2="3063.93" gradientTransform="matrix(0.87, 0.5, 0, 1.15, 964.44, -2981.61)" xlink:href="#linear-gradient-42"/><linearGradient id="linear-gradient-90" x1="-941.25" y1="3063.81" x2="-937.79" y2="3063.81" gradientTransform="matrix(0.87, 0.5, 0, 1.15, 964.44, -2981.61)" xlink:href="#linear-gradient-42"/><linearGradient id="linear-gradient-91" x1="138.05" y1="182.94" x2="139.31" y2="182.94" xlink:href="#linear-gradient"/><linearGradient id="linear-gradient-92" x1="-958.24" y1="3151.6" x2="-939.37" y2="3151.6" gradientTransform="matrix(0.87, 0.5, 0, 1.15, 969.17, -2988.91)" xlink:href="#linear-gradient"/><linearGradient id="linear-gradient-93" x1="-958.24" y1="3161" x2="-939.37" y2="3161" gradientTransform="matrix(0.87, 0.5, 0, 1.15, 969.17, -2988.91)" xlink:href="#linear-gradient"/><linearGradient id="linear-gradient-94" x1="-959.69" y1="3162.25" x2="-940.81" y2="3162.25" gradientTransform="matrix(0.87, 0.5, 0, 1.15, 969.17, -2988.91)" xlink:href="#linear-gradient"/><linearGradient id="linear-gradient-95" x1="151.03" y1="186.49" x2="159.03" y2="191.11" xlink:href="#linear-gradient"/><linearGradient id="linear-gradient-96" x1="65.24" y1="105.59" x2="99.16" y2="105.59" xlink:href="#linear-gradient-2"/><linearGradient id="linear-gradient-97" x1="59.23" y1="113.66" x2="65.24" y2="113.66" xlink:href="#linear-gradient-2"/><linearGradient id="linear-gradient-98" x1="99.16" y1="120.34" x2="192.57" y2="120.34" xlink:href="#linear-gradient-2"/><linearGradient id="linear-gradient-99" x1="97.03" y1="121.62" x2="190.66" y2="121.62" xlink:href="#linear-gradient-4"/><linearGradient id="linear-gradient-100" x1="113.45" y1="146.1" x2="149.1" y2="146.1" xlink:href="#linear-gradient-2"/><linearGradient id="linear-gradient-101" x1="111.51" y1="155.49" x2="119.46" y2="155.49" xlink:href="#linear-gradient-2"/><linearGradient id="linear-gradient-102" x1="109.2" y1="158.99" x2="115.21" y2="158.99" xlink:href="#linear-gradient-2"/><linearGradient id="linear-gradient-103" x1="109.2" y1="154.38" x2="117.52" y2="154.38" xlink:href="#linear-gradient-2"/><linearGradient id="linear-gradient-104" x1="115.21" y1="152.78" x2="149.1" y2="152.78" xlink:href="#linear-gradient-2"/><linearGradient id="linear-gradient-105" x1="101.98" y1="145.38" x2="126.17" y2="103.48" gradientUnits="userSpaceOnUse"><stop offset="0" stop-color="#979797"/><stop offset="0.08" stop-color="#ababab"/><stop offset="0.23" stop-color="#c8c8c8"/><stop offset="0.39" stop-color="#dfdede"/><stop offset="0.56" stop-color="#efefef"/><stop offset="0.75" stop-color="#f9f8f8"/><stop offset="1" stop-color="#fcfbfb"/></linearGradient><linearGradient id="linear-gradient-106" x1="164.14" y1="175.73" x2="177.72" y2="138.43" xlink:href="#linear-gradient-105"/><linearGradient id="linear-gradient-107" x1="166.17" y1="170.16" x2="175.69" y2="144" xlink:href="#linear-gradient-105"/><linearGradient id="linear-gradient-108" x1="164.46" y1="157.08" x2="177.4" y2="157.08" gradientTransform="translate(220.27 -69.76) rotate(59.69)" xlink:href="#linear-gradient"/><linearGradient id="linear-gradient-109" x1="164.91" y1="165.13" x2="170.92" y2="165.13" xlink:href="#linear-gradient-2"/><linearGradient id="linear-gradient-110" x1="111.51" y1="130.6" x2="117.52" y2="130.6" xlink:href="#linear-gradient-2"/><linearGradient id="linear-gradient-111" x1="113.45" y1="129.48" x2="119.46" y2="129.48" xlink:href="#linear-gradient-2"/><linearGradient id="linear-gradient-112" x1="109.2" y1="130.9" x2="115.21" y2="130.9" xlink:href="#linear-gradient-2"/><linearGradient id="linear-gradient-113" x1="115.21" y1="123.2" x2="149.13" y2="123.2" xlink:href="#linear-gradient-2"/><linearGradient id="linear-gradient-114" x1="166.71" y1="174.72" x2="166.71" y2="157.84" xlink:href="#linear-gradient"/><linearGradient id="linear-gradient-115" x1="166.96" y1="174.72" x2="166.96" y2="158.12" xlink:href="#linear-gradient-105"/><linearGradient id="linear-gradient-116" x1="61.18" y1="122.24" x2="61.18" y2="105.36" xlink:href="#linear-gradient"/><linearGradient id="linear-gradient-117" x1="61.43" y1="122.24" x2="61.43" y2="105.64" xlink:href="#linear-gradient-105"/><linearGradient id="linear-gradient-118" x1="109.93" y1="83.45" x2="84.23" y2="98.28" xlink:href="#linear-gradient-2"/><linearGradient id="linear-gradient-119" x1="59.23" y1="112.65" x2="196.67" y2="112.65" xlink:href="#linear-gradient-2"/><linearGradient id="linear-gradient-121" x1="188.39" y1="166.75" x2="188.54" y2="166.75" xlink:href="#linear-gradient-2"/><linearGradient id="linear-gradient-122" x1="170.92" y1="159.47" x2="196.67" y2="159.47" xlink:href="#linear-gradient-2"/><linearGradient id="linear-gradient-123" x1="173.37" y1="170.22" x2="194.22" y2="170.22" xlink:href="#linear-gradient-4"/><linearGradient id="linear-gradient-124" x1="173.37" y1="149.38" x2="194.22" y2="149.38" xlink:href="#linear-gradient-4"/><linearGradient id="linear-gradient-125" x1="190.38" y1="151.42" x2="194.22" y2="151.42" xlink:href="#linear-gradient-4"/><linearGradient id="linear-gradient-126" x1="190.38" y1="157.69" x2="194.22" y2="157.69" xlink:href="#linear-gradient-4"/><linearGradient id="linear-gradient-127" x1="173.37" y1="169.83" x2="192.87" y2="169.83" xlink:href="#linear-gradient-2"/><linearGradient id="linear-gradient-128" x1="173.37" y1="148.6" x2="192.87" y2="148.6" xlink:href="#linear-gradient-2"/><linearGradient id="linear-gradient-129" x1="190.38" y1="151.03" x2="192.87" y2="151.03" xlink:href="#linear-gradient-2"/><linearGradient id="linear-gradient-130" x1="190.38" y1="157.31" x2="192.87" y2="157.31" xlink:href="#linear-gradient-2"/><linearGradient id="linear-gradient-131" x1="121.74" y1="252.66" x2="137.33" y2="252.66" gradientTransform="translate(0 0)" xlink:href="#linear-gradient-2"/><linearGradient id="linear-gradient-132" x1="147.6" y1="267.58" x2="163.18" y2="267.58" gradientTransform="translate(0 0)" xlink:href="#linear-gradient-2"/><linearGradient id="linear-gradient-133" x1="-1020.22" y1="3408.03" x2="-1008.5" y2="3408.03" gradientTransform="matrix(0.87, 0.5, 0, 1.15, 1003.91, -3173.4)" xlink:href="#linear-gradient-2"/><linearGradient id="linear-gradient-134" x1="-1017.52" y1="3408.03" x2="-1011.2" y2="3408.03" xlink:href="#linear-gradient-12"/><linearGradient id="linear-gradient-135" x1="-990.39" y1="3408.03" x2="-978.67" y2="3408.03" gradientTransform="matrix(0.87, 0.5, 0, 1.15, 1003.91, -3173.4)" xlink:href="#linear-gradient-2"/><linearGradient id="linear-gradient-136" x1="-987.69" y1="3408.03" x2="-981.36" y2="3408.03" xlink:href="#linear-gradient-12"/><linearGradient id="linear-gradient-137" x1="161.44" y1="320.6" x2="223.43" y2="320.6" gradientTransform="translate(0 0)" xlink:href="#linear-gradient-2"/><linearGradient id="linear-gradient-138" x1="161.44" y1="215.33" x2="223.43" y2="215.33" gradientTransform="translate(0 0)" xlink:href="#linear-gradient-2"/><linearGradient id="linear-gradient-139" x1="161.44" y1="110.01" x2="223.43" y2="110.01" gradientTransform="translate(0 0)" xlink:href="#linear-gradient-2"/><linearGradient id="linear-gradient-140" x1="-976.84" y1="3452.53" x2="-947.36" y2="3452.53" gradientTransform="matrix(0.87, 0.5, 0, 1.15, 1003.91, -3173.4)" xlink:href="#linear-gradient-2"/><linearGradient id="linear-gradient-141" x1="-970.05" y1="3452.53" x2="-954.13" y2="3452.53" xlink:href="#linear-gradient-12"/><linearGradient id="linear-gradient-142" x1="-976.84" y1="3361.34" x2="-947.36" y2="3361.34" gradientTransform="matrix(0.87, 0.5, 0, 1.15, 1003.91, -3173.4)" xlink:href="#linear-gradient-2"/><linearGradient id="linear-gradient-143" x1="-970.05" y1="3361.34" x2="-954.13" y2="3361.34" xlink:href="#linear-gradient-12"/><linearGradient id="linear-gradient-144" x1="-976.84" y1="3270.15" x2="-947.36" y2="3270.15" gradientTransform="matrix(0.87, 0.5, 0, 1.15, 1003.91, -3173.4)" xlink:href="#linear-gradient-2"/><linearGradient id="linear-gradient-145" x1="-970.05" y1="3270.15" x2="-954.13" y2="3270.15" xlink:href="#linear-gradient-12"/></defs><title>Asset 6</title><g class="cls-2"><g id="Layer_2" data-name="Layer 2"><g id="Layer_1-2" data-name="Layer 1"><ellipse class="cls-3" cx="130.3" cy="351.06" rx="75.23" ry="130.3" transform="translate(-221.46 479.46) rotate(-89.69)"/><path class="cls-4" d="M207.34,70,91.19,3c-5.63-3.24-10.81-3.72-15-1.88h0L73.94,2.4l-36.17,21v0c-5.55,2.8-9.12,9.91-9.12,20.21V246.13c0,18.14,11,39.2,24.62,47.05l116.15,67.06c6.41,3.7,12.26,3.8,16.65,1l.08-.07,37-21.49.12-.07c5.34-2.94,8.73-10,8.73-20V117.05C232,98.92,220.93,77.86,207.34,70Z"/><path class="cls-5" d="M179.2,363.19a19.67,19.67,0,0,1-9.78-2.95L53.27,293.18c-13.58-7.84-24.62-28.94-24.62-47.05V43.6c0-9.84,3.27-17.2,9-20.17l.48-.25h0l0,0,.33-.14a13.06,13.06,0,0,1,2.77-.8A14.38,14.38,0,0,1,43.47,22,19.79,19.79,0,0,1,53.27,25L169.42,92.05C183,99.89,194,121,194,139.09V341.62c0,7.48-1.94,13.68-5.46,17.46a13.46,13.46,0,0,1-2.51,2.14A12.49,12.49,0,0,1,179.2,363.19Z"/><path class="cls-6" d="M179.2,361a17.58,17.58,0,0,1-8.7-2.67L54.36,291.29c-13-7.49-23.54-27.74-23.54-45.16V43.6c0-8.91,2.91-15.69,7.81-18.25H39l.38-.33a10.56,10.56,0,0,1,2.3-.66,11,11,0,0,1,1.83-.15,17.73,17.73,0,0,1,8.71,2.66L168.33,93.94c13,7.48,23.53,27.74,23.53,45.15V341.62c0,6.93-1.73,12.61-4.87,16a11.16,11.16,0,0,1-2.1,1.79A10.33,10.33,0,0,1,179.2,361Z"/><path class="cls-7" d="M191.86,326.2v15.43c0,6.92-1.72,12.59-4.88,16a10.69,10.69,0,0,1-2.09,1.78,10.24,10.24,0,0,1-5.7,1.63,17.61,17.61,0,0,1-8.68-2.65L54.36,291.28c-13-7.48-23.54-27.74-23.54-45.14V43.61c0-8.92,2.91-15.69,7.81-18.26H39l.39-.32a9.55,9.55,0,0,1,2.31-.68,13.59,13.59,0,0,1,1.83-.13,17.73,17.73,0,0,1,8.7,2.66L70,37.15V223c0,18.14,11,39.2,24.62,47Z"/><path class="cls-8" d="M173.2,297.56v17.86l-38.78,22.1-32.95-30.85-12.87-15,39.17-22.49a1.87,1.87,0,0,1,1.81.2l41,23.69A5.68,5.68,0,0,1,173.2,297.56Z"/><path class="cls-9" d="M132,315.31l-41.41-23.9c-1.32-.77-2.39,0-2.39,1.8v17.65l46.19,26.67V319.88A5.74,5.74,0,0,0,132,315.31Z"/><path class="cls-10" d="M90.12,312V294.13c0-.47.29-.69.65-.48l41.14,23.75a1.53,1.53,0,0,1,.64,1.22v17.83Z"/><g class="cls-11"><path class="cls-12" d="M104.68,248.59c0-8.08-5.71-17.93-12.75-22-3.54-2-6.75-2.24-9.07-.9h0L42.71,248.22l18.16,31,40-22.44C103.23,255.52,104.68,252.67,104.68,248.59Z"/><path class="cls-13" d="M104.68,38c0-8.08-5.71-17.93-12.75-22-3.54-2-6.75-2.24-9.07-.9h0L42.71,37.63l18.16,31,40-22.45.1,0h0C103.27,44.83,104.68,42,104.68,38Z"/><path class="cls-14" d="M104.68,143.3c0-8.09-5.71-17.93-12.75-22-3.68-2.12-7-2.24-9.31-.74L42.71,143l18.16,31L101,151.49l0,0C103.27,150.14,104.68,147.32,104.68,143.3Z"/><path class="cls-15" d="M52,249c-7-4.07-12.78-.83-12.78,7.26s5.73,17.95,12.78,22,12.75.82,12.75-7.27S59,253.07,52,249Z"/><path class="cls-16" d="M52,255.73c-3.82-2.2-6.89-.45-6.89,3.93A15.13,15.13,0,0,0,52,271.54c3.81,2.2,6.89.45,6.89-3.93A15.16,15.16,0,0,0,52,255.73Z"/><path class="cls-17" d="M52,143.7c-7-4.06-12.78-.82-12.78,7.27S44.93,168.91,52,173s12.75.81,12.75-7.27S59,147.77,52,143.7Z"/><ellipse class="cls-18" cx="51.98" cy="158.34" rx="5.61" ry="9.71" transform="translate(-72.8 47.87) rotate(-30.31)"/><path class="cls-19" d="M52,38.41c-7-4.07-12.78-.83-12.78,7.26s5.73,17.94,12.78,22,12.75.82,12.75-7.27S59,42.48,52,38.41Z"/><path class="cls-20" d="M52,45.14c-3.82-2.2-6.89-.45-6.89,3.93A15.13,15.13,0,0,0,52,61c3.81,2.2,6.89.45,6.89-3.93A15.16,15.16,0,0,0,52,45.14Z"/><path class="cls-21" d="M220.52,159.73V118.38L82.16,38.51V197.25l138.36,79.88V196.57l-11.25-6.49v-5.7L212.1,186v2.45l8.42,4.86v-10.2l-8.42-4.86v2.44l-2.83-1.64v-5.68l11.25,6.5v-3.47l-11.25-6.49v-5.69l2.83,1.63v2.44l8.42,4.86V163l-8.42-4.86v2.45l-2.83-1.64v-5.69Zm-6.46-21.19a9.89,9.89,0,0,1,4.48,7.74c0,2.84-2,4-4.48,2.55a9.87,9.87,0,0,1-4.49-7.73C209.57,138.26,211.58,137.11,214.06,138.54Z"/><polygon class="cls-22" points="219.98 277.44 220.52 277.13 220.52 196.57 219.98 196.88 219.98 277.44"/><polygon class="cls-23" points="208.73 190.39 209.27 190.08 220.52 196.57 219.98 196.88 208.73 190.39"/><polygon class="cls-24" points="219.98 193.63 220.52 193.33 220.52 183.13 219.98 183.44 219.98 193.63"/><polygon class="cls-25" points="208.73 184.69 209.27 184.38 209.27 190.08 208.73 190.39 208.73 184.69"/><polygon class="cls-26" points="211.56 186.32 212.1 186.02 212.1 188.47 211.56 188.78 211.56 186.32"/><polygon class="cls-27" points="209.27 179.07 208.73 179.38 208.73 173.69 209.27 173.39 209.27 179.07"/><polygon class="cls-28" points="219.98 180.19 220.52 179.89 220.52 176.42 219.98 176.73 219.98 180.19"/><polygon class="cls-29" points="219.98 173.47 220.52 173.17 220.52 162.98 219.98 163.29 219.98 173.47"/><polygon class="cls-30" points="209.27 164.24 208.73 164.55 208.73 170.24 209.27 169.93 209.27 164.24"/><polygon class="cls-31" points="208.73 159.24 209.27 158.93 209.27 153.24 208.73 153.54 208.73 159.24"/><polygon class="cls-32" points="219.98 160.03 220.52 159.73 220.52 118.38 219.98 118.69 219.98 160.03"/><polygon class="cls-33" points="81.62 38.82 82.16 38.51 220.52 118.38 219.98 118.69 81.62 38.82"/><polygon class="cls-34" points="208.73 159.24 211.56 160.87 212.1 160.56 209.27 158.93 208.73 159.24"/><polygon class="cls-35" points="208.73 179.38 211.56 181.01 212.1 180.71 209.27 179.07 208.73 179.38"/><path class="cls-36" d="M220,160V118.69L81.62,38.82V197.56L220,277.44V196.88l-11.25-6.49v-5.7l2.83,1.63v2.46l8.42,4.85V183.44l-8.42-4.86V181l-2.83-1.63V173.7L220,180.19v-3.46l-11.25-6.49v-5.69l2.83,1.63v2.44l8.42,4.85V163.29l-8.42-4.86v2.44l-2.83-1.63v-5.7Zm-6.47-21.18a9.89,9.89,0,0,1,4.48,7.73c0,2.84-2,4-4.48,2.56A9.89,9.89,0,0,1,209,141.4C209,138.57,211,137.42,213.51,138.85Z"/><polygon class="cls-37" points="212.92 273.37 192.41 261.53 192.41 229.5 212.92 241.34 212.92 273.37"/><ellipse class="cls-38" cx="88.1" cy="50.22" rx="2.08" ry="3.6" transform="matrix(0.86, -0.5, 0.5, 0.86, -13.31, 51.33)"/><ellipse class="cls-39" cx="150.8" cy="86.43" rx="2.08" ry="3.6" transform="translate(-23 87.92) rotate(-30.31)"/><ellipse class="cls-40" cx="213.51" cy="122.63" rx="2.08" ry="3.6" transform="translate(-32.7 124.52) rotate(-30.31)"/><ellipse class="cls-41" cx="213.51" cy="209.56" rx="2.08" ry="3.6" transform="translate(-76.57 136.4) rotate(-30.31)"/><ellipse class="cls-42" cx="88.1" cy="137.15" rx="2.08" ry="3.6" transform="translate(-57.18 63.21) rotate(-30.31)"/><ellipse class="cls-43" cx="213.51" cy="132.17" rx="1.47" ry="2.55" transform="translate(-37.52 125.82) rotate(-30.31)"/><polygon class="cls-44" points="196.63 209.07 196.63 213.65 195.45 212.97 195.45 208.4 196.63 209.07"/><polygon class="cls-45" points="196.63 210.63 196.63 212.09 195.45 211.42 195.45 209.95 196.63 210.63"/><polygon class="cls-44" points="201.04 211.62 201.04 216.2 199.87 215.53 199.87 210.95 201.04 211.62"/><polygon class="cls-45" points="201.04 213.18 201.04 214.65 199.87 213.97 199.87 212.5 201.04 213.18"/><polygon class="cls-44" points="205.46 214.18 205.46 218.75 204.29 218.08 204.29 213.5 205.46 214.18"/><polygon class="cls-45" points="205.46 215.73 205.46 217.19 204.29 216.52 204.29 215.06 205.46 215.73"/><polygon class="cls-44" points="209.88 216.72 209.88 221.3 208.71 220.63 208.71 216.05 209.88 216.72"/><polygon class="cls-45" points="209.88 218.28 209.88 219.75 208.71 219.07 208.71 217.61 209.88 218.28"/><polygon class="cls-44" points="196.63 224.75 196.63 229.32 195.45 228.65 195.45 224.07 196.63 224.75"/><polygon class="cls-45" points="196.63 226.31 196.63 227.77 195.45 227.09 195.45 225.63 196.63 226.31"/><polygon class="cls-44" points="201.04 227.3 201.04 231.88 199.87 231.2 199.87 226.62 201.04 227.3"/><polygon class="cls-45" points="201.04 228.86 201.04 230.32 199.87 229.64 199.87 228.18 201.04 228.86"/><polygon class="cls-44" points="205.46 229.85 205.46 234.43 204.29 233.75 204.29 229.17 205.46 229.85"/><polygon class="cls-45" points="205.46 231.41 205.46 232.87 204.29 232.19 204.29 230.73 205.46 231.41"/><polygon class="cls-44" points="209.88 232.4 209.88 236.98 208.71 236.3 208.71 231.72 209.88 232.4"/><polygon class="cls-45" points="209.88 233.96 209.88 235.42 208.71 234.74 208.71 233.28 209.88 233.96"/><polygon class="cls-46" points="212.92 270.37 195.34 260.23 195.34 258.99 212.92 269.13 212.92 270.37"/><polygon class="cls-46" points="158.82 217.1 158.82 242.17 154.94 239.94 146.67 235.19 142.79 232.96 142.79 207.9 158.82 217.1"/><polygon class="cls-47" points="158.82 235.41 142.79 226.16 142.79 207.77 158.82 217.02 158.82 235.41"/><polygon class="cls-48" points="157.63 236.01 141.6 226.75 141.6 208.36 157.63 217.62 157.63 236.01"/><path class="cls-49" d="M209.43,261.26l-13.53-7.81a4.47,4.47,0,0,1-2-3.51V234.4c0-1.29.91-1.81,2-1.16l13.53,7.81a4.49,4.49,0,0,1,2,3.52V260.1C211.47,261.39,210.56,261.91,209.43,261.26Z"/><polygon class="cls-46" points="97.62 180.95 97.62 139.04 119.82 151.86 119.82 193.76 97.62 180.95"/><polygon class="cls-46" points="98.11 180.65 98.11 138.74 120.31 151.55 120.31 193.46 98.11 180.65"/><polygon class="cls-50" points="98.55 180.42 98.55 140.64 118.9 152.39 118.9 192.17 98.55 180.42"/><path class="cls-49" d="M100.39,177V146.16c0-1.29.91-1.81,2-1.16L115,152.28a4.47,4.47,0,0,1,2,3.5v30.87c0,1.29-.91,1.8-2,1.16l-12.62-7.29A4.47,4.47,0,0,1,100.39,177Z"/><polygon class="cls-51" points="97.34 181.04 97.34 141.26 117.69 153.01 117.69 192.79 97.34 181.04"/><path class="cls-49" d="M99.18,177.65V146.78c0-1.28.91-1.8,2-1.16l12.62,7.29a4.47,4.47,0,0,1,2,3.49v30.88c0,1.28-.91,1.8-2,1.15l-12.62-7.28A4.47,4.47,0,0,1,99.18,177.65Z"/><polygon class="cls-52" points="135.18 186.25 125.51 180.67 125.51 169.57 135.18 175.16 135.18 186.25"/><polygon class="cls-53" points="135.18 167.27 125.51 161.69 125.51 165.56 135.18 171.15 135.18 167.27"/><polygon class="cls-54" points="135.18 188.89 125.51 183.31 125.51 187.19 135.18 192.77 135.18 188.89"/><polygon class="cls-55" points="113.55 212.72 84.33 195.85 84.33 179.58 113.55 196.45 113.55 212.72"/><polygon class="cls-56" points="112.22 213.47 83.01 196.6 83.01 180.32 112.22 197.19 112.22 213.47"/><polygon class="cls-57" points="154.94 236.91 154.94 239.94 146.67 235.19 146.67 232.14 154.94 236.91"/><polygon class="cls-58" points="208.73 170.24 219.98 176.73 220.52 176.42 209.27 169.93 208.73 170.24"/><polygon class="cls-59" points="211.56 158.43 219.98 163.29 220.52 162.98 212.1 158.12 211.56 158.43"/><polygon class="cls-60" points="211.56 178.58 212.1 178.27 220.52 183.13 219.98 183.44 211.56 178.58"/><polygon class="cls-61" points="166.59 234.9 167.13 234.59 167.13 229.76 166.59 230.07 166.59 234.9"/><polygon class="cls-62" points="162.38 227.64 166.59 230.07 167.13 229.76 162.92 227.33 162.38 227.64"/><polygon class="cls-63" points="166.59 234.9 162.38 232.47 162.38 227.64 166.59 230.07 166.59 234.9"/><polygon class="cls-64" points="139.26 219.13 139.81 218.82 139.81 213.99 139.26 214.29 139.26 219.13"/><polygon class="cls-65" points="135.05 211.86 139.26 214.29 139.81 213.99 135.59 211.55 135.05 211.86"/><polygon class="cls-66" points="139.26 219.13 135.05 216.69 135.05 211.86 139.26 214.29 139.26 219.13"/><polygon class="cls-46" points="196.67 130.74 155.66 107.06 155.66 97.44 196.67 121.12 196.67 130.74"/><ellipse class="cls-67" cx="194.11" cy="124.45" rx="1.33" ry="2.3" transform="translate(-36.27 114.98) rotate(-30.31)"/><ellipse class="cls-68" cx="158.22" cy="103.73" rx="1.33" ry="2.3" transform="translate(-30.72 94.03) rotate(-30.31)"/><ellipse class="cls-69" cx="162.71" cy="106.32" rx="1.33" ry="2.3" transform="translate(-31.42 96.65) rotate(-30.31)"/><ellipse class="cls-70" cx="167.19" cy="108.91" rx="1.33" ry="2.3" transform="translate(-32.11 99.27) rotate(-30.31)"/><ellipse class="cls-71" cx="171.68" cy="111.5" rx="1.33" ry="2.3" transform="matrix(0.86, -0.5, 0.5, 0.86, -32.81, 101.89)"/><ellipse class="cls-72" cx="176.17" cy="114.09" rx="1.33" ry="2.3" transform="translate(-33.5 104.5) rotate(-30.31)"/><ellipse class="cls-73" cx="180.65" cy="116.68" rx="1.33" ry="2.3" transform="translate(-34.19 107.12) rotate(-30.31)"/><ellipse class="cls-74" cx="185.14" cy="119.27" rx="1.33" ry="2.3" transform="translate(-34.89 109.74) rotate(-30.31)"/><ellipse class="cls-75" cx="189.62" cy="121.86" rx="1.33" ry="2.3" transform="matrix(0.86, -0.5, 0.5, 0.86, -35.58, 112.36)"/><polygon class="cls-46" points="200.1 116.96 196.67 121.12 196.67 130.74 200.1 130.98 202.66 129.5 202.66 115.48 200.1 116.96"/><polygon class="cls-76" points="196.67 121.12 200.1 116.96 159.09 93.3 155.66 97.44 196.67 121.12"/><polygon class="cls-76" points="161.65 91.82 159.09 93.3 200.1 116.96 202.66 115.48 161.65 91.82"/><polygon class="cls-46" points="133.97 94.54 92.95 70.86 92.95 61.24 133.97 84.92 133.97 94.54"/><ellipse class="cls-77" cx="131.4" cy="88.25" rx="1.33" ry="2.3" transform="matrix(0.86, -0.5, 0.5, 0.86, -26.58, 78.38)"/><ellipse class="cls-78" cx="95.51" cy="67.53" rx="1.33" ry="2.3" transform="translate(-21.02 57.44) rotate(-30.31)"/><ellipse class="cls-79" cx="100" cy="70.12" rx="1.33" ry="2.3" transform="translate(-21.72 60.05) rotate(-30.31)"/><ellipse class="cls-80" cx="104.49" cy="72.71" rx="1.33" ry="2.3" transform="translate(-22.41 62.67) rotate(-30.31)"/><ellipse class="cls-81" cx="108.97" cy="75.3" rx="1.33" ry="2.3" transform="translate(-23.11 65.29) rotate(-30.31)"/><ellipse class="cls-82" cx="113.46" cy="77.89" rx="1.33" ry="2.3" transform="matrix(0.86, -0.5, 0.5, 0.86, -23.8, 67.91)"/><ellipse class="cls-83" cx="117.94" cy="80.48" rx="1.33" ry="2.3" transform="translate(-24.49 70.53) rotate(-30.31)"/><ellipse class="cls-84" cx="122.43" cy="83.07" rx="1.33" ry="2.3" transform="translate(-25.19 73.14) rotate(-30.31)"/><ellipse class="cls-85" cx="126.92" cy="85.66" rx="1.33" ry="2.3" transform="translate(-25.88 75.76) rotate(-30.31)"/><polygon class="cls-46" points="137.4 80.76 133.97 84.92 133.97 94.54 137.4 94.78 139.96 93.3 139.96 79.28 137.4 80.76"/><polygon class="cls-76" points="133.97 84.92 137.4 80.76 96.38 57.1 92.95 61.24 133.97 84.92"/><polygon class="cls-76" points="98.94 55.62 96.38 57.1 137.4 80.76 139.96 79.28 98.94 55.62"/><polygon class="cls-86" points="97.34 141.26 98.55 140.64 118.9 152.39 118.9 192.17 117.69 192.79 117.69 153.01 97.34 141.26"/><polygon class="cls-86" points="157.63 236.01 157.63 217.62 141.6 208.36 142.79 207.77 158.82 217.02 158.82 235.41 157.63 236.01"/><polygon class="cls-87" points="134.35 186.72 124.68 181.14 124.68 170.04 134.35 175.63 134.35 186.72"/><polygon class="cls-88" points="134.35 167.74 124.68 162.16 124.68 166.03 134.35 171.62 134.35 167.74"/><polygon class="cls-89" points="134.35 189.36 124.68 183.78 124.68 187.66 134.35 193.24 134.35 189.36"/><polygon class="cls-90" points="124.68 162.16 125.51 161.69 135.18 167.27 135.18 171.15 134.35 171.62 134.35 167.74 124.68 162.16"/><polygon class="cls-91" points="124.68 170.04 125.51 169.57 135.18 175.16 135.18 186.25 134.35 186.72 134.35 175.63 124.68 170.04"/><polygon class="cls-92" points="89.5 168.48 85.72 166.28 85.72 155.18 89.5 157.38 89.5 168.48"/><polygon class="cls-93" points="85.72 155.18 87.61 154.11 91.39 156.31 91.39 167.41 89.5 168.48 89.5 157.38 85.72 155.18"/><polygon class="cls-94" points="124.68 183.78 134.35 189.36 134.35 193.24 135.18 192.77 135.18 188.89 125.51 183.31 124.68 183.78"/><polygon class="cls-95" points="83.01 180.32 84.33 179.58 113.55 196.45 113.55 212.72 112.22 213.47 112.22 197.19 83.01 180.32"/><polygon class="cls-96" points="119.82 193.76 120.31 193.46 120.31 151.55 98.11 138.74 97.62 139.04 119.82 151.86 119.82 193.76"/><polygon class="cls-97" points="212.92 273.37 213.41 273.07 213.41 241.04 192.91 229.2 192.41 229.5 212.92 241.34 212.92 273.37"/><polygon class="cls-98" points="211.97 235.2 191.13 223.17 191.13 211.55 211.97 223.59 211.97 235.2"/><polygon class="cls-99" points="191.13 211.55 192.07 211.02 212.92 223.06 212.92 234.67 211.97 235.2 211.97 223.59 191.13 211.55"/><polygon class="cls-100" points="214.91 210.21 213.6 209.45 213.6 207.95 213.23 207.73 213.23 209.24 211.92 208.48 211.92 208.91 213.23 209.66 213.23 211.17 213.6 211.38 213.6 209.88 214.91 210.63 214.91 210.21"/><polygon class="cls-101" points="214.91 123.34 213.6 122.58 213.6 121.08 213.23 120.87 213.23 122.37 211.92 121.61 211.92 122.04 213.23 122.8 213.23 124.3 213.6 124.51 213.6 123.01 214.91 123.77 214.91 123.34"/><polygon class="cls-102" points="89.59 137.87 88.28 137.11 88.28 135.61 87.91 135.39 87.91 136.9 86.6 136.14 86.6 136.57 87.91 137.32 87.91 138.83 88.28 139.04 88.28 137.54 89.59 138.29 89.59 137.87"/><polygon class="cls-103" points="89.59 51 88.28 50.24 88.28 48.74 87.91 48.52 87.91 50.03 86.6 49.27 86.6 49.7 87.91 50.45 87.91 51.96 88.28 52.17 88.28 50.67 89.59 51.43 89.59 51"/><polygon class="cls-104" points="152.29 87.07 150.98 86.31 150.98 84.81 150.61 84.59 150.61 86.1 149.3 85.34 149.3 85.77 150.61 86.52 150.61 88.03 150.98 88.24 150.98 86.74 152.29 87.49 152.29 87.07"/><polygon class="cls-105" points="138.05 173.92 139.31 173.21 139.31 191.97 138.05 192.68 138.05 173.92"/><path class="cls-106" d="M139.31,169v4.17l16.35,9.43v-4.16Zm2.81,4.57a2.13,2.13,0,0,1-1-1.66c0-.6.43-.85,1-.54a2.09,2.09,0,0,1,1,1.65C143.08,173.67,142.65,173.92,142.12,173.61Zm3.58,2.06a2.09,2.09,0,0,1-1-1.65c0-.61.43-.85,1-.55a2.13,2.13,0,0,1,1,1.66C146.66,175.73,146.23,176,145.7,175.67Zm3.57,2.07a2.13,2.13,0,0,1-1-1.66c0-.61.43-.85,1-.55a2.13,2.13,0,0,1,1,1.66C150.23,177.8,149.8,178,149.27,177.74Zm3.57,2.06a2.13,2.13,0,0,1-1-1.66c0-.6.43-.85,1-.54a2.09,2.09,0,0,1,1,1.65C153.8,179.86,153.37,180.11,152.84,179.8Z"/><path class="cls-107" d="M152.54,180.84,151.4,179l-7.83-4.53-1.14.57-3.12-1.8V192l13.11,7.56,1.75-.73,1.49.86v-17Zm-9.72,9.83a2.7,2.7,0,0,1-1.23-2.12c0-.78.55-1.09,1.23-.7A2.72,2.72,0,0,1,144,190C144,190.75,143.49,191.06,142.82,190.67Zm3.32,1.92a2.7,2.7,0,0,1-1.23-2.12c0-.78.55-1.09,1.23-.7a2.7,2.7,0,0,1,1.23,2.12C147.37,192.67,146.82,193,146.14,192.59Zm3.33,1.92a2.7,2.7,0,0,1-1.23-2.12c0-.78.55-1.09,1.23-.7a2.7,2.7,0,0,1,1.23,2.12C150.7,194.59,150.15,194.9,149.47,194.51Zm2.09-2.89-7.89-4.56a1.87,1.87,0,0,1-.85-1.47c0-.54.38-.76.85-.49l7.89,4.56a1.89,1.89,0,0,1,.86,1.47C152.42,191.68,152,191.89,151.56,191.62Z"/><path class="cls-108" d="M155.16,181.28V197.8l-2.74,1.73c0,.37-.15.61-.38.68h0l0,0a.86.86,0,0,1-.57-.13h0L140.88,194a2.4,2.4,0,0,1-1.07-1.87V172.41a.81.81,0,0,1,.24-.64l.12-.07h0a.8.8,0,0,1,.7.1l13.2,7.62a2.48,2.48,0,0,1,1.06,1.59v.05A1.79,1.79,0,0,1,155.16,181.28Z"/><path class="cls-108" d="M155.14,181.05V181a2.48,2.48,0,0,0-1.06-1.59l-13.2-7.62a.8.8,0,0,0-.7-.1h0l-.08.05-1.2.68h0a.72.72,0,0,0-.34.7v19.74a2.4,2.4,0,0,0,1.08,1.87l10.54,6.08a.84.84,0,0,0,.73.06l1.21-.69a.7.7,0,0,0,.31-.66l2.74-1.73Z"/><path class="cls-108" d="M153.91,182v16.52l-2.5,1.57-.25.16a.73.73,0,0,1-.23.6.14.14,0,0,1-.09.05.7.7,0,0,1-.67-.08l-10.54-6.08a2.4,2.4,0,0,1-1.08-1.87V173.13c0-.68.48-1,1.08-.62l.18.1,13,7.52A2.39,2.39,0,0,1,153.91,182Z"/><path class="cls-109" d="M151.28,181.56l-1.13-1.88-7.84-4.52-1.13.57-3.13-1.81v18.76l13.11,7.57,1.76-.73,1.48.86v-17Zm-9.72,9.83a2.7,2.7,0,0,1-1.23-2.12c0-.78.55-1.09,1.23-.7a2.7,2.7,0,0,1,1.23,2.12C142.79,191.46,142.24,191.78,141.56,191.39Zm3.33,1.92a2.7,2.7,0,0,1-1.23-2.12c0-.78.55-1.09,1.23-.7a2.72,2.72,0,0,1,1.22,2.12C146.11,193.38,145.56,193.7,144.89,193.31Zm3.32,1.92a2.7,2.7,0,0,1-1.23-2.12c0-.78.55-1.09,1.23-.7a2.7,2.7,0,0,1,1.23,2.12C149.44,195.31,148.89,195.62,148.21,195.23Zm2.1-2.89-7.9-4.56a1.87,1.87,0,0,1-.85-1.47c0-.54.38-.76.85-.49l7.9,4.56a1.87,1.87,0,0,1,.85,1.47C151.16,192.39,150.78,192.61,150.31,192.34Z"/><polygon class="cls-110" points="154.4 180.66 155.66 179.94 155.66 196.95 154.4 197.67 154.4 180.66"/><polygon class="cls-111" points="99.16 112.75 93.15 109.28 93.15 75.39 99.16 78.86 99.16 112.75"/><polygon class="cls-112" points="65.24 132.33 99.16 112.74 99.16 78.85 65.24 98.44 65.24 132.33"/><polygon class="cls-113" points="65.24 98.44 59.23 94.98 59.23 128.87 65.24 132.33 65.24 98.44"/><polygon class="cls-114" points="192.57 161.79 99.16 107.9 99.16 78.88 192.57 132.77 192.57 161.79"/><polygon class="cls-115" points="190.66 163.14 97.25 109.25 97.03 80.11 190.66 134.12 190.66 163.14"/><polygon class="cls-111" points="149.28 163.13 142.89 159.44 142.89 152.12 149.28 155.8 149.28 163.13"/><path class="cls-116" d="M149.1,142l-1,2.15-17.55,9.62-9.55-.37-1.55-.07-6-3.46a50,50,0,0,0,17.64-4c5.22-2.28,12-7.35,12-7.35Z"/><polygon class="cls-117" points="111.51 150.95 113.44 149.82 119.46 153.29 119.46 161.16 113.45 157.7 111.51 150.95"/><polygon class="cls-118" points="115.21 157.81 109.2 154.35 109.2 160.16 115.21 163.62 115.21 157.81"/><polygon class="cls-119" points="109.2 154.35 111.51 150.95 117.52 154.41 115.21 157.81 109.2 154.35"/><path class="cls-120" d="M149.1,142V144l-33.89,19.58v-5.81l2.3-3.4,1.94-1.13a50,50,0,0,0,17.64-4C142.32,147,149.1,142,149.1,142Z"/><path class="cls-121" d="M164.91,125.84c-3-1.39-7-1-11.44,1.56-9.44,5.44-17.08,18.63-17.08,29.45,0,5.26,1.8,9,4.75,10.82L74.28,129.39c-2.7-1.91-4.35-5.51-4.35-10.53,0-10.81,7.63-24,17.06-29.44,4.76-2.75,9.06-3,12.16-1.17C99.56,88.5,164.91,125.84,164.91,125.84Z"/><path class="cls-46" d="M183.11,136.32l-24.87,41.19-16.69-9.6a4.36,4.36,0,0,1-.41-.24c-2.95-1.82-4.75-5.56-4.75-10.82,0-10.82,7.64-24,17.08-29.45,4.39-2.54,8.41-3,11.44-1.56l0,0,1.14.66.08,0Z"/><path class="cls-122" d="M188,147.22c0,10.82-7.64,24-17.07,29.45-4.4,2.53-8.39,3-11.42,1.57a7.54,7.54,0,0,1-1.29-.74c-2.71-1.9-4.36-5.54-4.36-10.57,0-10.82,7.64-24,17.07-29.44,4.63-2.68,8.83-3,11.9-1.33S188,141.72,188,147.22Z"/><path class="cls-123" d="M185.15,148.87c0,9-6.36,20-14.22,24.54-3.66,2.11-7,2.45-9.52,1.31a5.78,5.78,0,0,1-1.07-.63c-2.26-1.58-3.64-4.61-3.64-8.8,0-9,6.37-20,14.23-24.54,3.86-2.23,7.36-2.48,9.92-1.1S185.15,144.28,185.15,148.87Z"/><path class="cls-124" d="M180.91,151.32c0,6.32-4.47,14-10,17.21-2.57,1.48-4.91,1.73-6.68.92a4.68,4.68,0,0,1-.75-.43c-1.59-1.11-2.55-3.24-2.55-6.18,0-6.33,4.46-14,10-17.22,2.71-1.56,5.16-1.74,7-.77S180.91,148.1,180.91,151.32Z"/><ellipse class="cls-125" cx="170.93" cy="157.08" rx="9.12" ry="5.26" transform="translate(-50.94 225.36) rotate(-59.69)"/><polygon class="cls-111" points="196.67 169.05 190.66 165.58 190.66 131.69 196.67 135.16 196.67 169.05"/><polygon class="cls-126" points="170.92 149.91 170.92 183.81 164.91 180.35 164.91 146.46 170.92 149.91"/><polygon class="cls-127" points="117.52 128.39 111.51 124.93 111.51 132.8 117.52 136.26 117.52 128.39"/><polygon class="cls-128" points="119.46 127.27 113.45 123.81 113.45 131.68 119.46 135.14 119.46 127.27"/><polygon class="cls-129" points="115.21 129.73 109.2 126.27 109.2 132.07 115.21 135.53 115.21 129.73"/><path class="cls-130" d="M117.52,128.39l-2.31,1.34v5.8l2.31.73,1.94-1.12a59.29,59.29,0,0,1,14.87-15.33c5.51-3.87,14.8-6,14.8-6v-3.72Z"/><path class="cls-131" d="M168,158.12v16.6l-.49-.28a11.74,11.74,0,0,1-2-7.14,25.84,25.84,0,0,1,2-9.46Z"/><path class="cls-132" d="M168,158.12v16.6a11.72,11.72,0,0,1-2-7.14A25.84,25.84,0,0,1,168,158.12Z"/><path class="cls-133" d="M62.43,105.64v16.6l-.49-.28a11.72,11.72,0,0,1-2-7.14,25.86,25.86,0,0,1,2-9.46Z"/><path class="cls-134" d="M62.43,105.64v16.6a11.71,11.71,0,0,1-2-7.13A25.87,25.87,0,0,1,62.43,105.64Z"/><polygon class="cls-135" points="80.67 89.55 80.67 92.12 113.48 92.18 113.48 89.61 80.67 89.55"/><path class="cls-136" d="M192.56,132.78h0L99.16,78.88H99.1l.06,0-6-3.46L59.23,95l6,3.46,15.7-9.07-.26.18,32.8.06,29.62,17.07-33.9,19.59,6,3.46,33.9-19.58,23,13.26.11,18.87-7.29,4.18,6,3.45,25.75-14.77Zm-4,.12-.15-.09.15.09Z"/><path class="cls-136" d="M192.56,132.78h0L99.16,78.88H99.1l.06,0-6-3.46L59.23,95l6,3.46,15.7-9.07-.26.18,32.8.06,29.62,17.07-33.9,19.59,6,3.46,33.9-19.58,23,13.26.11,18.87-7.29,4.18,6,3.45,25.75-14.77Zm-4,.12-.15-.09.15.09Z"/><path class="cls-137" d="M188.54,166.79l-.15-.09.15.09Z"/><polygon class="cls-138" points="170.92 183.81 196.67 169.03 196.67 135.14 170.92 149.91 170.92 183.81"/><polygon class="cls-139" points="194.22 161.11 194.22 164.65 191.93 168.61 173.37 179.33 173.37 173.15 192.87 161.9 194.22 161.11"/><polygon class="cls-140" points="194.22 142.26 194.22 145.79 173.37 157.83 173.37 151.66 191.93 140.94 192.87 141.48 194.22 142.26"/><polygon class="cls-141" points="194.22 148.55 194.22 152.07 190.38 154.28 190.38 150.77 192.87 149.34 194.22 148.55"/><polygon class="cls-142" points="194.22 154.83 194.22 158.34 190.38 160.55 190.38 157.05 192.87 155.62 194.22 154.83"/><polygon class="cls-143" points="192.87 161.9 192.87 163.87 190.58 167.82 173.37 177.76 173.37 173.15 192.87 161.9"/><polygon class="cls-144" points="192.87 141.48 192.87 145 173.37 156.26 173.37 151.66 191.93 140.94 192.87 141.48"/><polygon class="cls-145" points="192.87 149.34 192.87 151.27 190.38 152.71 190.38 150.77 192.87 149.34"/><polygon class="cls-146" points="192.87 155.62 192.87 157.55 190.38 158.99 190.38 157.05 192.87 155.62"/><path class="cls-147" d="M137.32,253.88a11.19,11.19,0,0,0-5.07-8.75,3.59,3.59,0,0,0-3.6-.36h0l-6.91,3.76L129,260.88l6.85-3.73A3.49,3.49,0,0,0,137.32,253.88Z"/><path class="cls-148" d="M163.18,268.81a11.18,11.18,0,0,0-5.07-8.75,3.61,3.61,0,0,0-3.61-.36h0l-6.91,3.76,7.22,12.34,6.86-3.72A3.51,3.51,0,0,0,163.18,268.81Z"/><path class="cls-149" d="M125.45,248.86c-2.8-1.62-5.08-.33-5.08,2.89a11.2,11.2,0,0,0,5.08,8.75c2.8,1.62,5.07.32,5.07-2.89A11.18,11.18,0,0,0,125.45,248.86Z"/><path class="cls-150" d="M125.45,251.53c-1.51-.87-2.74-.17-2.74,1.57a6,6,0,0,0,2.74,4.72c1.52.88,2.74.18,2.74-1.56A6,6,0,0,0,125.45,251.53Z"/><path class="cls-151" d="M151.29,263.78c-2.8-1.62-5.08-.33-5.08,2.89a11.2,11.2,0,0,0,5.08,8.75c2.8,1.61,5.07.32,5.07-2.89A11.18,11.18,0,0,0,151.29,263.78Z"/><path class="cls-152" d="M151.29,266.45c-1.51-.87-2.74-.17-2.74,1.57a6,6,0,0,0,2.74,4.72c1.52.88,2.74.18,2.74-1.56A6,6,0,0,0,151.29,266.45Z"/><path class="cls-153" d="M223.43,317.15c0-8.09-5.71-17.93-12.76-22-3.55-2-6.76-2.24-9.07-.9v0l-40.15,22.53,18.16,31.05,39.82-22.34C221.88,324.23,223.43,321.35,223.43,317.15Z"/><path class="cls-154" d="M223.43,211.85c0-8.08-5.71-17.93-12.76-22-3.59-2.07-6.83-2.24-9.15-.84L161.44,211.5l18.16,31.05L219.72,220h0C222,218.71,223.43,215.88,223.43,211.85Z"/><path class="cls-155" d="M223.43,106.56c0-8.09-5.71-17.93-12.76-22-3.55-2-6.76-2.24-9.07-.9v0l-40.15,22.54,18.16,31,39.83-22.34C221.89,113.63,223.43,110.75,223.43,106.56Z"/><path class="cls-156" d="M170.72,317.56c-7.05-4.07-12.77-.83-12.77,7.26s5.72,17.94,12.77,22,12.76.81,12.76-7.27S177.77,321.62,170.72,317.56Z"/><path class="cls-157" d="M170.72,324.28c-3.81-2.2-6.89-.44-6.89,3.93a15.16,15.16,0,0,0,6.89,11.89c3.81,2.2,6.89.44,6.89-3.93A15.19,15.19,0,0,0,170.72,324.28Z"/><path class="cls-158" d="M170.72,212.26c-7.05-4.07-12.77-.82-12.77,7.26s5.72,17.95,12.77,22,12.76.82,12.76-7.27S177.77,216.33,170.72,212.26Z"/><path class="cls-159" d="M170.72,219c-3.81-2.2-6.89-.45-6.89,3.93a15.16,15.16,0,0,0,6.89,11.88c3.81,2.2,6.89.45,6.89-3.93A15.16,15.16,0,0,0,170.72,219Z"/><path class="cls-160" d="M170.72,107c-7.05-4.06-12.77-.82-12.77,7.27s5.72,17.94,12.77,22,12.76.81,12.76-7.27S177.77,111,170.72,107Z"/><path class="cls-161" d="M170.72,113.69c-3.81-2.2-6.89-.44-6.89,3.93a15.16,15.16,0,0,0,6.89,11.89c3.81,2.2,6.89.44,6.89-3.93A15.16,15.16,0,0,0,170.72,113.69Z"/></g></g></g></g></svg>