<svg xmlns="http://www.w3.org/2000/svg" xmlns:xlink="http://www.w3.org/1999/xlink" viewBox="0 0 269.85 446.84"><defs><style>.cls-1{fill:url(#linear-gradient);}.cls-2{fill:url(#linear-gradient-2);}.cls-3{fill:url(#linear-gradient-3);}.cls-4{fill:#fff;}.cls-5{fill:url(#linear-gradient-4);}.cls-17,.cls-18,.cls-19,.cls-20,.cls-21,.cls-22,.cls-6{fill:none;}.cls-7{fill:url(#linear-gradient-5);}.cls-8{fill:url(#linear-gradient-6);}.cls-9{fill:url(#linear-gradient-7);}.cls-10{fill:url(#linear-gradient-8);}.cls-11{fill:url(#linear-gradient-9);}.cls-12{fill:#e40427;}.cls-13{fill:url(#linear-gradient-10);}.cls-14{fill:url(#linear-gradient-11);}.cls-15{fill:url(#linear-gradient-12);}.cls-16{fill:#ef928b;fill-opacity:0.3;stroke:#d3d3d3;}.cls-16,.cls-17,.cls-18,.cls-19,.cls-20,.cls-21,.cls-22{stroke-miterlimit:10;}.cls-16,.cls-17{stroke-width:1.14px;}.cls-17,.cls-18,.cls-19,.cls-20,.cls-21,.cls-22{stroke:#e2887f;}.cls-18,.cls-19,.cls-20,.cls-21,.cls-22{stroke-width:1.23px;}.cls-19{stroke-dasharray:5.42 5.42;}.cls-20{stroke-dasharray:5.7 5.7;}.cls-21{stroke-dasharray:5.37 5.37;}.cls-22{stroke-dasharray:5.57 5.57;}.cls-23{fill:url(#linear-gradient-13);}.cls-24{fill:url(#linear-gradient-14);}.cls-25{fill:url(#linear-gradient-15);}</style><linearGradient id="linear-gradient" x1="118.38" y1="389.5" x2="199.48" y2="403.8" gradientUnits="userSpaceOnUse"><stop offset="0" stop-color="#fff"/><stop offset="1" stop-color="#d4d4d4"/></linearGradient><linearGradient id="linear-gradient-2" x1="111.78" y1="349.76" x2="206.07" y2="366.39" xlink:href="#linear-gradient"/><linearGradient id="linear-gradient-3" x1="47.75" y1="301.52" x2="145.93" y2="358.2" gradientUnits="userSpaceOnUse"><stop offset="0.03" stop-color="gray"/><stop offset="0.21" stop-color="#a1a1a1"/><stop offset="0.42" stop-color="#bfbfbf"/><stop offset="0.62" stop-color="#d5d5d5"/><stop offset="0.82" stop-color="#e2e2e2"/><stop offset="1" stop-color="#e6e6e6"/></linearGradient><linearGradient id="linear-gradient-4" x1="94.17" y1="328.32" x2="210.98" y2="395.76" xlink:href="#linear-gradient-3"/><linearGradient id="linear-gradient-5" x1="105.81" y1="402.72" x2="96.24" y2="384.73" gradientUnits="userSpaceOnUse"><stop offset="0" stop-color="#0045f4" stop-opacity="0"/><stop offset="1" stop-color="#6dfafa"/></linearGradient><linearGradient id="linear-gradient-6" x1="73.53" y1="346.73" x2="132.52" y2="357.13" xlink:href="#linear-gradient"/><linearGradient id="linear-gradient-7" x1="-1.53" y1="313.35" x2="115.28" y2="380.79" xlink:href="#linear-gradient-3"/><linearGradient id="linear-gradient-8" x1="171.09" y1="445.68" x2="171.09" y2="417.22" xlink:href="#linear-gradient-5"/><linearGradient id="linear-gradient-9" x1="140.59" y1="388.76" x2="199.55" y2="399.15" gradientUnits="userSpaceOnUse"><stop offset="0" stop-color="#a8190a"/><stop offset="1" stop-color="#e0341b"/></linearGradient><linearGradient id="linear-gradient-10" x1="73.79" y1="356.92" x2="171.82" y2="413.51" gradientUnits="userSpaceOnUse"><stop offset="0" stop-color="#a8190a"/><stop offset="0.44" stop-color="#a8190a"/><stop offset="1" stop-color="#a8190a"/></linearGradient><linearGradient id="linear-gradient-11" x1="63.13" y1="373.5" x2="104.47" y2="397.37" xlink:href="#linear-gradient-3"/><linearGradient id="linear-gradient-12" x1="71.38" y1="405.77" x2="156.94" y2="420.85" xlink:href="#linear-gradient"/><linearGradient id="linear-gradient-13" x1="185" y1="12.33" x2="221.05" y2="111.39" gradientUnits="userSpaceOnUse"><stop offset="0" stop-color="#fff"/><stop offset="0.32" stop-color="#efefef"/><stop offset="0.96" stop-color="#c6c6c6"/><stop offset="1" stop-color="#c3c3c3"/></linearGradient><linearGradient id="linear-gradient-14" x1="95.85" y1="5.36" x2="152.55" y2="161.14" xlink:href="#linear-gradient-13"/><linearGradient id="linear-gradient-15" x1="37.12" y1="91.52" x2="67.92" y2="176.15" xlink:href="#linear-gradient-13"/></defs><title>Asset 8</title><g id="Layer_2" data-name="Layer 2"><g id="Layer_1-2" data-name="Layer 1"><path class="cls-1" d="M126.65,390.43c13-2,27,.2,36.5,5.71s13.32,13.58,9.9,21.08l22.69,3.53c5.56-12.15-.59-25.24-16-34.16s-38.13-12.47-59.18-9.27l3.06,6.56Z"/><path class="cls-2" d="M197.75,335.77h0c.55-9.7-5.84-19.31-18-26.34-15.45-8.92-38.13-12.47-59.18-9.26v77.15l3.06,6.56,3.07,6.55c13-2,27,.2,36.5,5.71,4.85,2.8,8.21,6.26,9.9,10v11.1l22.69,3.53h0a21.5,21.5,0,0,0,2-9.25h0Z"/><polygon class="cls-3" points="126.65 313.27 126.65 390.43 120.52 377.32 120.52 300.17 126.65 313.27"/><path class="cls-4" d="M126.65,313.27c13-2,27,.21,36.5,5.71s13.32,13.58,9.9,21.08l22.69,3.54c5.56-12.15-.59-25.25-16-34.17s-38.13-12.47-59.18-9.26l3.06,6.55Z"/><polygon class="cls-5" points="173.04 340.06 173.04 417.22 195.74 420.75 195.74 343.6 173.04 340.06"/><path class="cls-6" d="M163.15,396.14c-9.53-5.51-23.51-7.69-36.5-5.71h0A48.81,48.81,0,0,0,109.77,396c-4.69,2.7-8,6.07-9.73,9.75-3.43,7.5.36,15.57,9.89,21.07s23.52,7.7,36.51,5.71h0A48.88,48.88,0,0,0,163.32,427c4.68-2.7,8.05-6.07,9.73-9.74C176.47,409.72,172.68,401.64,163.15,396.14Z"/><path class="cls-7" d="M109.77,396a48.81,48.81,0,0,1,16.88-5.61l-3.07-6.55-3.06-6.56h0a79.28,79.28,0,0,0-27.4,9.11c-7.59,4.38-13,9.85-15.77,15.82L100,405.79C101.72,402.11,105.08,398.74,109.77,396Z"/><path class="cls-8" d="M123.58,306.72l-3.06-6.55a79.28,79.28,0,0,0-27.4,9.11c-7.59,4.38-13,9.85-15.77,15.82h0v77.15L100,405.79h0c1.68-3.68,5-7.05,9.73-9.75a48.81,48.81,0,0,1,16.88-5.61V313.27Z"/><polygon class="cls-9" points="100.04 328.63 100.04 405.79 77.35 402.25 77.35 325.1 100.04 328.63"/><path class="cls-4" d="M109.77,318.89a48.61,48.61,0,0,1,16.88-5.62l-3.07-6.55-3.06-6.55h0a79.28,79.28,0,0,0-27.4,9.11c-7.59,4.38-13,9.85-15.77,15.82L100,328.63C101.72,325,105.08,321.59,109.77,318.89Z"/><path class="cls-10" d="M180,436.57c7.59-4.38,13-9.85,15.77-15.82l-22.69-3.53c-1.68,3.67-5.05,7-9.73,9.74a48.68,48.68,0,0,1-16.88,5.62l3.45,7.38,2.68,5.72h0A79.36,79.36,0,0,0,180,436.57Z"/><path class="cls-11" d="M195.59,343.74l-22.54-3.51c-1.68,3.67-5.05,7-9.73,9.74a48.68,48.68,0,0,1-16.88,5.62l3.45,7.38,2.68,5.72h0v62.6a58.29,58.29,0,0,1-6.13,1.29l3.45,7.38,2.68,5.72h0a79.36,79.36,0,0,0,27.4-9.11c7.59-4.38,13-9.85,15.77-15.82V343.67Z"/><path class="cls-12" d="M180,359.58c7.59-4.38,13-9.85,15.77-15.82l-22.69-3.53c-1.68,3.67-5.05,7-9.73,9.74a48.68,48.68,0,0,1-16.88,5.62l3.45,7.38,2.68,5.72h0A79.36,79.36,0,0,0,180,359.58Z"/><polygon class="cls-13" points="146.44 355.59 146.44 432.58 152.57 445.68 152.57 368.69 146.44 355.59"/><polygon class="cls-14" points="100.04 379.7 100.04 404.54 90.7 404.54 90.7 378.24 100.04 379.7"/><path class="cls-15" d="M149.89,413.87l-3.45-7.38c-13,2-27-.21-36.51-5.71S96.61,387.2,100,379.7l-22.69-3.54a21.43,21.43,0,0,0-2,9h0v26.73l0,0c.31,9.07,6.64,17.91,18,24.49,15.45,8.92,38.13,12.47,59.18,9.26V419.59Z"/><path class="cls-4" d="M146.44,406.49c-13,2-27-.21-36.51-5.71S96.61,387.2,100,379.7l-22.69-3.54c-5.56,12.16.59,25.25,16,34.17s38.13,12.47,59.18,9.26l-2.68-5.72Z"/><ellipse class="cls-16" cx="182.3" cy="328.96" rx="3.04" ry="5.26" transform="translate(-147.64 509.47) rotate(-89.69)"/><ellipse class="cls-16" cx="141.18" cy="307.12" rx="3.04" ry="5.26" transform="translate(-166.71 446.63) rotate(-89.69)"/><ellipse class="cls-16" cx="164.08" cy="357.8" rx="3.04" ry="5.26" transform="translate(-194.6 519.94) rotate(-89.69)"/><ellipse class="cls-16" cx="100.72" cy="318.64" rx="3.04" ry="5.26" transform="translate(-218.46 417.64) rotate(-89.69)"/><line class="cls-17" x1="163.79" y1="294.34" x2="163.79" y2="358.34"/><line class="cls-18" x1="163.79" y1="155.33" x2="163.79" y2="158.02"/><line class="cls-19" x1="163.79" y1="163.45" x2="163.79" y2="290.93"/><line class="cls-18" x1="163.79" y1="293.64" x2="163.79" y2="296.34"/><line class="cls-17" x1="141.18" y1="222.58" x2="141.18" y2="307.12"/><line class="cls-18" x1="141.18" y1="129.35" x2="141.18" y2="132.05"/><line class="cls-20" x1="141.18" y1="137.75" x2="141.18" y2="203.28"/><line class="cls-18" x1="141.18" y1="206.12" x2="141.18" y2="208.82"/><line class="cls-17" x1="182.3" y1="284.15" x2="182.3" y2="328.96"/><line class="cls-18" x1="182.3" y1="155.33" x2="182.3" y2="158.02"/><line class="cls-21" x1="182.3" y1="163.39" x2="182.3" y2="278.77"/><line class="cls-18" x1="182.3" y1="281.45" x2="182.3" y2="284.15"/><line class="cls-17" x1="100.72" y1="258.34" x2="100.72" y2="318.34"/><line class="cls-18" x1="100.72" y1="155.33" x2="100.72" y2="158.02"/><line class="cls-22" x1="100.72" y1="163.59" x2="100.72" y2="261.05"/><line class="cls-18" x1="100.72" y1="263.83" x2="100.72" y2="266.53"/><path class="cls-23" d="M269.85,73.05c0,.38,0,.74,0,1.12-.38,9.14-6.59,18.19-18.64,25.16-25,14.43-65.59,14.35-90.74-.16-11.83-6.82-18.11-15.64-18.85-24.56v0c0-.52,0-1,0-1.54,0-.76,0-1.5,0-2.24a64.13,64.13,0,0,1,128.23,2.24Z"/><path class="cls-24" d="M229.21,100.8c0,1.87-.05,3.75-.14,5.6-2,13-11.68,25.75-28.95,35.72-39.3,22.69-103.22,22.58-142.76-.26-18.54-10.7-28.45-24.48-29.68-38.45v0c0-.87,0-1.73,0-2.59,0-1.25,0-2.49.07-3.72a100.78,100.78,0,0,1,201.39-.86C229.18,97.72,229.21,99.27,229.21,100.8Z"/><path class="cls-25" d="M109.61,143.4v.29c0,8-5.34,16.05-15.93,22.16-21.34,12.32-56,12.26-77.5-.14C5.48,159.53.08,151.47,0,143.4v-.25a54.81,54.81,0,0,1,109.61.25Z"/></g></g></svg>