<svg xmlns="http://www.w3.org/2000/svg" xmlns:xlink="http://www.w3.org/1999/xlink" viewBox="0 0 282.62 423.57"><defs><style>.cls-1{isolation:isolate;}.cls-2{opacity:0.8;mix-blend-mode:multiply;fill:url(#radial-gradient);}.cls-3{fill:url(#linear-gradient);}.cls-4{fill:url(#linear-gradient-2);}.cls-5{fill:#010101;}.cls-6{fill:#de3a2e;}.cls-7{fill:#e36559;}.cls-8{fill:#fff;}.cls-9{fill:#ccc;}.cls-10{fill:#e6e6e5;}.cls-11{fill:url(#linear-gradient-3);}.cls-12{fill:#a72027;}.cls-13{fill:#818181;}.cls-14{fill:url(#linear-gradient-4);}.cls-15{fill:none;}.cls-15,.cls-17{stroke:#de3a2e;stroke-miterlimit:10;stroke-width:1.24px;}.cls-16{fill:url(#linear-gradient-5);}.cls-17{fill:#761417;}.cls-18{fill:url(#linear-gradient-6);}.cls-19{fill:url(#linear-gradient-7);}.cls-20{fill:url(#linear-gradient-8);}.cls-21{fill:#06914c;}.cls-22{fill:url(#linear-gradient-9);}.cls-23{fill:url(#linear-gradient-10);}.cls-24{fill:url(#linear-gradient-11);}.cls-25{fill:url(#linear-gradient-12);}.cls-26{fill:url(#linear-gradient-13);}.cls-27{fill:url(#linear-gradient-14);}.cls-28{fill:url(#linear-gradient-15);}.cls-29{fill:url(#linear-gradient-16);}.cls-30{fill:url(#linear-gradient-17);}.cls-31{fill:#252532;}.cls-32{fill:#231f20;}.cls-33{fill:url(#linear-gradient-18);}.cls-34{fill:url(#linear-gradient-19);}.cls-35{fill:url(#linear-gradient-20);}.cls-36{fill:url(#linear-gradient-21);}.cls-37{fill:url(#linear-gradient-22);}.cls-38{fill:url(#linear-gradient-23);}.cls-39{fill:url(#linear-gradient-24);}.cls-40{fill:url(#linear-gradient-25);}.cls-41{fill:url(#linear-gradient-26);}.cls-42{fill:url(#linear-gradient-27);}.cls-43{fill:url(#linear-gradient-28);}.cls-44{fill:url(#linear-gradient-29);}.cls-45{fill:url(#linear-gradient-30);}.cls-46{fill:url(#linear-gradient-31);}.cls-47{fill:#414151;}.cls-48{fill:#b39494;}</style><radialGradient id="radial-gradient" cx="-297.89" cy="348.34" r="119.88" gradientTransform="translate(374.21 645.02) rotate(89.69) scale(1 0.64)" gradientUnits="userSpaceOnUse"><stop offset="0" stop-color="#989898"/><stop offset="1" stop-color="#fff"/></radialGradient><linearGradient id="linear-gradient" x1="68.23" y1="-6330.39" x2="278.94" y2="-6330.39" gradientTransform="matrix(1, 0, 0, -1, 0, -6260.01)" gradientUnits="userSpaceOnUse"><stop offset="0" stop-color="#e36559"/><stop offset="1" stop-color="#de3a2e"/></linearGradient><linearGradient id="linear-gradient-2" x1="218.02" y1="-6605.09" x2="218.02" y2="-6328.3" gradientTransform="matrix(1, 0, 0, -1, 0, -6260.01)" gradientUnits="userSpaceOnUse"><stop offset="0" stop-color="#a72027"/><stop offset="1" stop-color="#de3a2e"/></linearGradient><linearGradient id="linear-gradient-3" x1="-2358.14" y1="-6414.01" x2="-2161.33" y2="-6536.99" gradientTransform="matrix(1, 0, 0, -1, 2350.08, -6260.01)" gradientUnits="userSpaceOnUse"><stop offset="0.1" stop-color="#e36559"/><stop offset="0.24" stop-color="#df6257"/><stop offset="0.38" stop-color="#d35a50"/><stop offset="0.51" stop-color="#c04b44"/><stop offset="0.65" stop-color="#a43734"/><stop offset="0.79" stop-color="#811d1f"/><stop offset="0.84" stop-color="#701115"/></linearGradient><linearGradient id="linear-gradient-4" x1="-837.79" y1="-8953.44" x2="-821.77" y2="-8953.44" gradientTransform="matrix(0.87, 0.5, 0, -1.15, 784.65, -9729.08)" gradientUnits="userSpaceOnUse"><stop offset="0" stop-color="#333"/><stop offset="0.52" stop-color="#3f3f3f"/><stop offset="1" stop-color="#4e4e4e"/></linearGradient><linearGradient id="linear-gradient-5" x1="-4457.3" y1="-13061.04" x2="-4430.77" y2="-13061.04" gradientTransform="matrix(0.87, 0.5, 0, -1.15, 3939.68, -12557.14)" xlink:href="#linear-gradient-4"/><linearGradient id="linear-gradient-6" x1="-4415.15" y1="-13033.35" x2="-4406.55" y2="-13033.35" gradientTransform="matrix(0.87, 0.5, 0, -1.15, 3939.68, -12557.14)" xlink:href="#linear-gradient-4"/><linearGradient id="linear-gradient-7" x1="-4447.95" y1="-13030.22" x2="-4439.35" y2="-13030.22" gradientTransform="matrix(0.87, 0.5, 0, -1.15, 3939.68, -12557.14)" xlink:href="#linear-gradient-4"/><linearGradient id="linear-gradient-8" x1="-4461.71" y1="-13111.49" x2="-4426.38" y2="-13111.49" gradientTransform="matrix(0.87, 0.5, 0, -1.15, 3939.68, -12557.14)" gradientUnits="userSpaceOnUse"><stop offset="0" stop-color="#818181"/><stop offset="1" stop-color="#e6e6e5"/></linearGradient><linearGradient id="linear-gradient-9" x1="-4457.3" y1="-13009.14" x2="-4430.77" y2="-13009.14" gradientTransform="matrix(0.87, 0.5, 0, -1.15, 3939.68, -12557.14)" xlink:href="#linear-gradient-4"/><linearGradient id="linear-gradient-10" x1="-4409.57" y1="-13001.51" x2="-4400.97" y2="-13001.51" gradientTransform="matrix(0.87, 0.5, 0, -1.15, 3939.68, -12557.14)" xlink:href="#linear-gradient-4"/><linearGradient id="linear-gradient-11" x1="-4409.57" y1="-12987.96" x2="-4400.97" y2="-12987.96" gradientTransform="matrix(0.87, 0.5, 0, -1.15, 3939.68, -12557.14)" xlink:href="#linear-gradient-4"/><linearGradient id="linear-gradient-12" x1="-4409.57" y1="-12974.42" x2="-4400.97" y2="-12974.42" gradientTransform="matrix(0.87, 0.5, 0, -1.15, 3939.68, -12557.14)" xlink:href="#linear-gradient-4"/><linearGradient id="linear-gradient-13" x1="25408.24" y1="9660.84" x2="25415.47" y2="9660.84" gradientTransform="matrix(-0.87, -0.5, 0, 1.15, 22122.19, 1696.94)" xlink:href="#linear-gradient-4"/><linearGradient id="linear-gradient-14" x1="-2309.57" y1="-6363.59" x2="-2298.87" y2="-6363.59" xlink:href="#linear-gradient-3"/><linearGradient id="linear-gradient-15" x1="-2230.14" y1="-6409.79" x2="-2219.43" y2="-6409.79" xlink:href="#linear-gradient-3"/><linearGradient id="linear-gradient-16" x1="-2309.57" y1="-6542.96" x2="-2298.87" y2="-6542.96" xlink:href="#linear-gradient-3"/><linearGradient id="linear-gradient-17" x1="-2230.14" y1="-6589.19" x2="-2219.43" y2="-6589.19" xlink:href="#linear-gradient-3"/><linearGradient id="linear-gradient-18" x1="-875.38" y1="-8981.28" x2="-859.36" y2="-8981.28" xlink:href="#linear-gradient-4"/><linearGradient id="linear-gradient-19" x1="-4494.88" y1="-13088.88" x2="-4468.34" y2="-13088.88" gradientTransform="matrix(0.87, 0.5, 0, -1.15, 3939.68, -12557.14)" xlink:href="#linear-gradient-4"/><linearGradient id="linear-gradient-20" x1="-4452.73" y1="-13061.18" x2="-4444.13" y2="-13061.18" gradientTransform="matrix(0.87, 0.5, 0, -1.15, 3939.68, -12557.14)" xlink:href="#linear-gradient-4"/><linearGradient id="linear-gradient-21" x1="-4485.53" y1="-13058.05" x2="-4476.93" y2="-13058.05" gradientTransform="matrix(0.87, 0.5, 0, -1.15, 3939.68, -12557.14)" xlink:href="#linear-gradient-4"/><linearGradient id="linear-gradient-22" x1="-4499.29" y1="-13139.33" x2="-4463.96" y2="-13139.33" xlink:href="#linear-gradient-8"/><linearGradient id="linear-gradient-23" x1="-4494.88" y1="-13036.98" x2="-4468.34" y2="-13036.98" gradientTransform="matrix(0.87, 0.5, 0, -1.15, 3939.68, -12557.14)" xlink:href="#linear-gradient-4"/><linearGradient id="linear-gradient-24" x1="-4447.15" y1="-13029.34" x2="-4438.55" y2="-13029.34" gradientTransform="matrix(0.87, 0.5, 0, -1.15, 3939.68, -12557.14)" xlink:href="#linear-gradient-4"/><linearGradient id="linear-gradient-25" x1="-4447.15" y1="-13015.79" x2="-4438.55" y2="-13015.79" gradientTransform="matrix(0.87, 0.5, 0, -1.15, 3939.68, -12557.14)" xlink:href="#linear-gradient-4"/><linearGradient id="linear-gradient-26" x1="-4447.15" y1="-13002.25" x2="-4438.55" y2="-13002.25" gradientTransform="matrix(0.87, 0.5, 0, -1.15, 3939.68, -12557.14)" xlink:href="#linear-gradient-4"/><linearGradient id="linear-gradient-27" x1="25445.81" y1="9688.67" x2="25453.05" y2="9688.67" gradientTransform="matrix(-0.87, -0.5, 0, 1.15, 22122.19, 1696.94)" xlink:href="#linear-gradient-4"/><linearGradient id="linear-gradient-28" x1="-2342.12" y1="-6376.92" x2="-2331.42" y2="-6376.92" xlink:href="#linear-gradient-3"/><linearGradient id="linear-gradient-29" x1="-2262.67" y1="-6423.1" x2="-2251.96" y2="-6423.1" xlink:href="#linear-gradient-3"/><linearGradient id="linear-gradient-30" x1="-2342.12" y1="-6556.27" x2="-2331.42" y2="-6556.27" xlink:href="#linear-gradient-3"/><linearGradient id="linear-gradient-31" x1="-2262.67" y1="-6602.47" x2="-2251.96" y2="-6602.47" xlink:href="#linear-gradient-3"/></defs><title>Asset 7</title><g class="cls-1"><g id="Layer_2" data-name="Layer 2"><g id="Layer_1-2" data-name="Layer 1"><ellipse class="cls-2" cx="150" cy="348.34" rx="75.23" ry="130.3" transform="translate(-199.15 496.45) rotate(-89.69)"/><g id="Layer_1-2-2" data-name="Layer 1-2"><path class="cls-3" d="M267.37,55.53,174.13,1.7c-5.46-3.15-10.52-1.19-13.56.11a11,11,0,0,0-2.18,1.25L68.23,55.47l75.39,49.11,9.8,5.78v30.41L278.94,68.3C276.14,63,272,58.2,267.37,55.53Z"/><path class="cls-4" d="M153.42,140.77v71c0,9.69,6.84,21.49,15.28,26.37l14,8.1.87,98.85,92.55-52.36c2.83-1.52,6.5-5.75,6.5-12.3V81.89a30.22,30.22,0,0,0-3.71-13.59Z"/><path class="cls-5" d="M165.25,108.35,76.36,58.43c-6-3.46-9.87-3.17-15.08-1s-9.4,5.9-9.4,14V270c0,12.05,8.55,26.79,19.05,32.85l88.89,49.92c6,3.46,10.31,3.83,15.3,1.23s9.18-6.13,9.18-14.26V141.21C184.3,129.15,175.76,114.42,165.25,108.35Z"/><path class="cls-6" d="M162.21,116.15,69,62.32c-5.47-3.16-10.53-1.2-13.57.11a12.07,12.07,0,0,0-7.15,11.43V272.39c0,9.69,6.84,21.49,15.28,26.36l93.24,53.83a15.48,15.48,0,0,0,14.22.76c2.82-1.52,6.5-5.75,6.5-12.3V142.51C177.5,132.82,170.65,121,162.21,116.15Zm4.21,224.46a8.9,8.9,0,0,1-.79,3.93,9.74,9.74,0,0,1-3.42-1.26L69,289.45c-5.32-3.07-9.64-10.53-9.64-16.63V74.29a8.84,8.84,0,0,1,.79-3.93,9.25,9.25,0,0,1,3.41,1.26l93.24,53.83c5.32,3.07,9.64,10.53,9.64,16.63Z"/><path class="cls-7" d="M156.78,119,63.54,65.14c-8.44-4.87-15.28-1-15.28,8.72V272.39c0,9.69,6.84,21.49,15.28,26.36l93.24,53.83c8.44,4.88,15.29,1,15.29-8.71V145.34C172.07,135.65,165.22,123.84,156.78,119Zm9.64,221.64c0,6.1-4.32,8.57-9.64,5.5L63.54,292.28c-5.31-3.07-9.64-10.53-9.64-16.63V77.11c0-6.1,4.33-8.56,9.64-5.49l93.24,53.83c5.32,3.07,9.64,10.53,9.64,16.63Z"/><path class="cls-7" d="M267.38,75.35c-2.81-5.48-7-10.36-11.74-13.09l-99.28-58-5.55,3.23L254,67.64c5.32,3.07,11.3,14.11,11.3,20.21V298.69l5.64-3.2V88.63A29.92,29.92,0,0,0,267.38,75.35Z"/><polygon class="cls-8" points="136.4 169.97 134.18 168.68 134.18 166.13 136.4 167.41 136.4 169.97"/><polygon class="cls-9" points="136.4 167.41 161.83 152.73 161.83 155.28 136.4 169.97 136.4 167.41"/><polygon class="cls-10" points="136.41 167.41 134.18 166.13 159.59 151.44 161.82 152.72 136.41 167.41"/><polygon class="cls-8" points="136.4 179.87 134.18 178.59 134.18 176.04 136.4 177.32 136.4 179.87"/><polygon class="cls-9" points="136.4 177.32 161.83 162.64 161.83 165.19 136.4 179.87 136.4 177.32"/><polygon class="cls-10" points="136.41 177.31 134.18 176.03 159.59 161.35 161.82 162.63 136.41 177.31"/><polygon class="cls-8" points="136.4 189.78 134.18 188.49 134.18 185.94 136.4 187.22 136.4 189.78"/><polygon class="cls-9" points="136.4 187.22 161.83 172.54 161.83 175.09 136.4 189.78 136.4 187.22"/><polygon class="cls-10" points="136.41 187.22 134.18 185.94 159.59 171.25 161.82 172.53 136.41 187.22"/><polygon class="cls-8" points="136.4 199.68 134.18 198.4 134.18 195.84 136.4 197.13 136.4 199.68"/><polygon class="cls-9" points="136.4 197.13 161.83 182.44 161.83 185 136.4 199.68 136.4 197.13"/><polygon class="cls-10" points="136.41 197.12 134.18 195.84 159.59 181.16 161.82 182.44 136.41 197.12"/><polygon class="cls-8" points="136.4 209.58 134.18 208.3 134.18 205.75 136.4 207.03 136.4 209.58"/><polygon class="cls-9" points="136.4 207.03 161.83 192.35 161.83 194.9 136.4 209.58 136.4 207.03"/><polygon class="cls-10" points="136.41 207.03 134.18 205.75 159.59 191.06 161.82 192.34 136.41 207.03"/><polygon class="cls-8" points="136.4 219.49 134.18 218.21 134.18 215.65 136.4 216.94 136.4 219.49"/><polygon class="cls-9" points="136.4 216.94 161.83 202.25 161.83 204.81 136.4 219.49 136.4 216.94"/><polygon class="cls-10" points="136.41 216.93 134.18 215.65 159.59 200.96 161.82 202.25 136.41 216.93"/><polygon class="cls-8" points="136.4 229.39 134.18 228.11 134.18 225.56 136.4 226.84 136.4 229.39"/><polygon class="cls-9" points="136.4 226.84 161.83 212.16 161.83 214.71 136.4 229.39 136.4 226.84"/><polygon class="cls-10" points="136.41 226.84 134.18 225.55 159.59 210.87 161.82 212.15 136.41 226.84"/><polygon class="cls-8" points="136.4 239.3 134.18 238.01 134.18 235.46 136.4 236.75 136.4 239.3"/><polygon class="cls-9" points="136.4 236.75 161.83 222.06 161.83 224.61 136.4 239.3 136.4 236.75"/><polygon class="cls-10" points="136.41 236.74 134.18 235.46 159.59 220.77 161.82 222.06 136.41 236.74"/><polygon class="cls-8" points="136.4 249.2 134.18 247.92 134.18 245.37 136.4 246.65 136.4 249.2"/><polygon class="cls-9" points="136.4 246.65 161.83 231.97 161.83 234.52 136.4 249.2 136.4 246.65"/><polygon class="cls-10" points="136.41 246.65 134.18 245.36 159.59 230.68 161.82 231.96 136.41 246.65"/><polygon class="cls-8" points="136.4 259.11 134.18 257.82 134.18 255.27 136.4 256.56 136.4 259.11"/><polygon class="cls-9" points="136.4 256.56 161.83 241.87 161.83 244.42 136.4 259.11 136.4 256.56"/><polygon class="cls-10" points="136.41 256.55 134.18 255.27 159.59 240.58 161.82 241.87 136.41 256.55"/><polygon class="cls-8" points="136.4 269.01 134.18 267.73 134.18 265.18 136.4 266.46 136.4 269.01"/><polygon class="cls-9" points="136.4 266.46 161.83 251.78 161.83 254.33 136.4 269.01 136.4 266.46"/><polygon class="cls-10" points="136.41 266.46 134.18 265.17 159.59 250.49 161.82 251.77 136.41 266.46"/><polygon class="cls-8" points="136.4 278.92 134.18 277.63 134.18 275.08 136.4 276.37 136.4 278.92"/><polygon class="cls-9" points="136.4 276.37 161.83 261.68 161.83 264.23 136.4 278.92 136.4 276.37"/><polygon class="cls-10" points="136.41 276.36 134.18 275.08 159.59 260.39 161.82 261.68 136.41 276.36"/><polygon class="cls-8" points="136.4 288.82 134.18 287.54 134.18 284.99 136.4 286.27 136.4 288.82"/><polygon class="cls-9" points="136.4 286.27 161.83 271.59 161.83 274.14 136.4 288.82 136.4 286.27"/><polygon class="cls-10" points="136.41 286.26 134.18 284.98 159.59 270.3 161.82 271.58 136.41 286.26"/><polygon class="cls-8" points="136.4 298.73 134.18 297.44 134.18 294.89 136.4 296.17 136.4 298.73"/><polygon class="cls-9" points="136.4 296.17 161.83 281.49 161.83 284.04 136.4 298.73 136.4 296.17"/><polygon class="cls-10" points="136.41 296.17 134.18 294.89 159.59 280.2 161.82 281.48 136.41 296.17"/><polygon class="cls-8" points="136.4 308.63 134.18 307.35 134.18 304.8 136.4 306.08 136.4 308.63"/><polygon class="cls-9" points="136.4 306.08 161.83 291.39 161.83 293.95 136.4 308.63 136.4 306.08"/><polygon class="cls-10" points="136.41 306.07 134.18 304.79 159.59 290.11 161.82 291.39 136.41 306.07"/><polygon class="cls-8" points="136.4 318.53 134.18 317.25 134.18 314.7 136.4 315.98 136.4 318.53"/><polygon class="cls-9" points="136.4 315.98 161.83 301.3 161.83 303.85 136.4 318.53 136.4 315.98"/><polygon class="cls-10" points="136.41 315.98 134.18 314.69 159.59 300.01 161.82 301.29 136.41 315.98"/><polygon class="cls-8" points="136.4 328.44 134.18 327.15 134.18 324.6 136.4 325.89 136.4 328.44"/><polygon class="cls-9" points="136.4 325.89 161.83 311.2 161.83 313.75 136.4 328.44 136.4 325.89"/><polygon class="cls-10" points="136.41 325.88 134.18 324.6 159.59 309.91 161.82 311.2 136.41 325.88"/><polygon class="cls-8" points="136.4 338.34 134.18 337.06 134.18 334.51 136.4 335.79 136.4 338.34"/><polygon class="cls-9" points="136.4 335.79 161.83 321.11 161.83 323.66 136.4 338.34 136.4 335.79"/><polygon class="cls-10" points="136.41 335.79 134.18 334.5 159.59 319.82 161.82 321.1 136.41 335.79"/><path class="cls-11" d="M142.38,140.8a21.78,21.78,0,0,1,2.89,10.33V343.29c0,6.43-3.91,9.38-8.73,6.6L44.15,296.55c-4.82-2.79-8.73-10.26-8.73-16.69V87.7c0-6.43,3.91-9.38,8.73-6.6l92.39,53.34a16.77,16.77,0,0,1,5.84,6.36"/><path class="cls-12" d="M32.61,281.63V89.47c0-6.43,3.91-9.38,8.73-6.6l92.39,53.34c4.83,2.79,8.74,10.26,8.74,16.69V345.05c0,6.43-3.91,9.39-8.74,6.61L41.34,298.31C36.52,295.53,32.61,288.06,32.61,281.63Z"/><polygon class="cls-10" points="74.47 169.43 68.5 165.98 68.5 163.97 74.47 167.41 74.47 169.43"/><polygon class="cls-10" points="74.47 163.28 68.5 159.83 68.5 157.82 74.47 161.26 74.47 163.28"/><polygon class="cls-10" points="74.47 157.13 68.5 153.68 68.5 151.67 74.47 155.11 74.47 157.13"/><polygon class="cls-10" points="74.47 150.98 68.5 147.53 68.5 145.52 74.47 148.97 74.47 150.98"/><polygon class="cls-13" points="70.53 167.15 71.96 167.98 71.96 165.96 70.53 165.14 70.53 167.15"/><polygon class="cls-13" points="70.53 161 71.96 161.83 71.96 159.81 70.53 158.99 70.53 161"/><polygon class="cls-13" points="70.53 154.85 71.96 155.68 71.96 153.66 70.53 152.84 70.53 154.85"/><polygon class="cls-13" points="70.53 146.69 70.53 148.7 71.96 149.53 71.96 147.52 70.53 146.69"/><polygon class="cls-10" points="56.92 159.34 50.95 155.89 50.95 153.88 56.92 157.32 56.92 159.34"/><polygon class="cls-10" points="56.92 153.19 50.95 149.74 50.95 147.73 56.92 151.18 56.92 153.19"/><polygon class="cls-10" points="56.92 147.04 50.95 143.59 50.95 141.58 56.92 145.03 56.92 147.04"/><polygon class="cls-10" points="56.92 140.89 50.95 137.44 50.95 135.43 56.92 138.88 56.92 140.89"/><polygon class="cls-13" points="52.98 157.06 54.41 157.89 54.41 155.88 52.98 155.05 52.98 157.06"/><polygon class="cls-13" points="52.98 150.91 54.41 151.74 54.41 149.72 52.98 148.9 52.98 150.91"/><polygon class="cls-13" points="52.98 144.76 54.41 145.59 54.41 143.58 52.98 142.75 52.98 144.76"/><polygon class="cls-13" points="52.98 136.6 52.98 138.62 54.41 139.44 54.41 137.43 52.98 136.6"/><polygon class="cls-14" points="69.48 171.49 55.62 163.48 55.62 133.28 69.48 141.28 69.48 171.49"/><polyline class="cls-15" points="107.86 275.66 107.86 238.98 122.72 230.5 122.72 220.19"/><polygon class="cls-5" points="99.03 269.01 76.05 255.74 76.05 229.37 99.03 242.64 99.03 269.01"/><polygon class="cls-10" points="106.67 251.05 99.03 246.64 99.03 245.13 106.67 249.54 106.67 251.05"/><polygon class="cls-13" points="104.07 249.55 101.63 248.14 101.63 246.63 104.07 248.04 104.07 249.55"/><polygon class="cls-10" points="106.67 253.89 99.03 249.48 99.03 247.97 106.67 252.38 106.67 253.89"/><polygon class="cls-13" points="104.07 252.39 101.63 250.98 101.63 249.47 104.07 250.88 104.07 252.39"/><polygon class="cls-10" points="106.67 256.73 99.03 252.32 99.03 250.81 106.67 255.22 106.67 256.73"/><polygon class="cls-13" points="104.07 255.23 101.63 253.82 101.63 252.31 104.07 253.72 104.07 255.23"/><polygon class="cls-10" points="106.67 259.57 99.03 255.16 99.03 253.65 106.67 258.06 106.67 259.57"/><polygon class="cls-13" points="104.07 258.07 101.63 256.66 101.63 255.15 104.07 256.56 104.07 258.07"/><polygon class="cls-10" points="106.67 262.41 99.03 258 99.03 256.49 106.67 260.9 106.67 262.41"/><polygon class="cls-13" points="104.07 260.91 101.63 259.5 101.63 257.99 104.07 259.4 104.07 260.91"/><polygon class="cls-10" points="106.67 265.25 99.03 260.84 99.03 259.33 106.67 263.74 106.67 265.25"/><polygon class="cls-13" points="104.07 263.75 101.63 262.34 101.63 260.83 104.07 262.24 104.07 263.75"/><polygon class="cls-10" points="106.67 268.09 99.03 263.68 99.03 262.18 106.67 266.58 106.67 268.09"/><polygon class="cls-13" points="104.07 266.59 101.63 265.18 101.63 263.68 104.07 265.08 104.07 266.59"/><polygon class="cls-10" points="106.67 270.93 99.03 266.52 99.03 265.02 106.67 269.43 106.67 270.93"/><polygon class="cls-13" points="104.07 269.43 101.63 268.02 101.63 266.52 104.07 267.93 104.07 269.43"/><polygon class="cls-10" points="95.55 275.76 95.55 267 96.86 267.76 96.86 276.52 95.55 275.76"/><polygon class="cls-13" points="95.55 272.78 95.55 269.98 96.86 270.74 96.86 273.54 95.55 272.78"/><polygon class="cls-10" points="93.07 274.33 93.07 265.57 94.38 266.33 94.38 275.09 93.07 274.33"/><polygon class="cls-13" points="93.07 271.35 93.07 268.55 94.38 269.31 94.38 272.11 93.07 271.35"/><polygon class="cls-10" points="90.59 272.91 90.59 264.14 91.91 264.9 91.91 273.66 90.59 272.91"/><polygon class="cls-13" points="90.59 269.93 90.59 267.13 91.91 267.88 91.91 270.68 90.59 269.93"/><polygon class="cls-10" points="88.12 271.48 88.12 262.71 89.43 263.47 89.43 272.24 88.12 271.48"/><polygon class="cls-13" points="88.12 268.5 88.12 265.69 89.43 266.45 89.43 269.25 88.12 268.5"/><polygon class="cls-10" points="85.64 270.05 85.64 261.29 86.96 262.04 86.96 270.81 85.64 270.05"/><polygon class="cls-13" points="85.64 267.07 85.64 264.27 86.96 265.02 86.96 267.82 85.64 267.07"/><polygon class="cls-10" points="83.17 268.62 83.17 259.86 84.48 260.61 84.48 269.38 83.17 268.62"/><polygon class="cls-13" points="83.17 265.64 83.17 262.84 84.48 263.6 84.48 266.39 83.17 265.64"/><polygon class="cls-10" points="80.69 267.19 80.69 258.43 82 259.19 82 267.95 80.69 267.19"/><polygon class="cls-13" points="80.69 264.21 80.69 261.41 82 262.17 82 264.97 80.69 264.21"/><polygon class="cls-10" points="78.22 265.76 78.22 257 79.53 257.76 79.53 266.52 78.22 265.76"/><polygon class="cls-13" points="78.22 262.78 78.22 259.98 79.53 260.74 79.53 263.54 78.22 262.78"/><polygon class="cls-10" points="68.41 247.34 76.05 251.75 76.05 253.25 68.41 248.85 68.41 247.34"/><polygon class="cls-13" points="71.01 248.84 73.45 250.25 73.45 251.75 71.01 250.35 71.01 248.84"/><polygon class="cls-10" points="68.41 244.5 76.05 248.91 76.05 250.41 68.41 246 68.41 244.5"/><polygon class="cls-13" points="71.01 246 73.45 247.41 73.45 248.91 71.01 247.5 71.01 246"/><polygon class="cls-10" points="68.41 241.66 76.05 246.06 76.05 247.57 68.41 243.16 68.41 241.66"/><polygon class="cls-13" points="71.01 243.16 73.45 244.56 73.45 246.07 71.01 244.66 71.01 243.16"/><polygon class="cls-10" points="68.41 238.81 76.05 243.22 76.05 244.73 68.41 240.32 68.41 238.81"/><polygon class="cls-13" points="71.01 240.31 73.45 241.72 73.45 243.23 71.01 241.82 71.01 240.31"/><polygon class="cls-10" points="68.41 235.97 76.05 240.38 76.05 241.89 68.41 237.48 68.41 235.97"/><polygon class="cls-13" points="71.01 237.47 73.45 238.88 73.45 240.39 71.01 238.98 71.01 237.47"/><polygon class="cls-10" points="68.41 233.13 76.05 237.54 76.05 239.05 68.41 234.64 68.41 233.13"/><polygon class="cls-13" points="71.01 234.63 73.45 236.04 73.45 237.55 71.01 236.14 71.01 234.63"/><polygon class="cls-10" points="68.41 230.29 76.05 234.7 76.05 236.21 68.41 231.8 68.41 230.29"/><polygon class="cls-13" points="71.01 231.79 73.45 233.2 73.45 234.71 71.01 233.3 71.01 231.79"/><polygon class="cls-10" points="68.41 227.45 76.05 231.86 76.05 233.37 68.41 228.96 68.41 227.45"/><polygon class="cls-13" points="71.01 228.95 73.45 230.36 73.45 231.87 71.01 230.46 71.01 228.95"/><polygon class="cls-10" points="79.53 222.62 79.53 231.38 78.22 230.62 78.22 221.86 79.53 222.62"/><polygon class="cls-13" points="79.53 225.6 79.53 228.4 78.22 227.64 78.22 224.84 79.53 225.6"/><polygon class="cls-10" points="82 224.05 82 232.81 80.69 232.05 80.69 223.29 82 224.05"/><polygon class="cls-13" points="82 227.03 82 229.83 80.69 229.07 80.69 226.27 82 227.03"/><polygon class="cls-10" points="84.48 225.48 84.48 234.24 83.17 233.48 83.17 224.72 84.48 225.48"/><polygon class="cls-13" points="84.48 228.46 84.48 231.26 83.17 230.5 83.17 227.7 84.48 228.46"/><polygon class="cls-10" points="86.96 226.91 86.96 235.67 85.64 234.91 85.64 226.15 86.96 226.91"/><polygon class="cls-13" points="86.96 229.89 86.96 232.69 85.64 231.93 85.64 229.13 86.96 229.89"/><polygon class="cls-10" points="89.43 228.34 89.43 237.1 88.12 236.34 88.12 227.58 89.43 228.34"/><polygon class="cls-13" points="89.43 231.32 89.43 234.12 88.12 233.36 88.12 230.56 89.43 231.32"/><polygon class="cls-10" points="91.91 229.77 91.91 238.53 90.59 237.77 90.59 229.01 91.91 229.77"/><polygon class="cls-13" points="91.91 232.75 91.91 235.55 90.59 234.79 90.59 231.99 91.91 232.75"/><polygon class="cls-10" points="94.38 231.2 94.38 239.96 93.07 239.2 93.07 230.44 94.38 231.2"/><polygon class="cls-13" points="94.38 234.18 94.38 236.98 93.07 236.22 93.07 233.42 94.38 234.18"/><polygon class="cls-10" points="96.86 232.63 96.86 241.39 95.55 240.63 95.55 231.87 96.86 232.63"/><polygon class="cls-13" points="96.86 235.61 96.86 238.41 95.55 237.65 95.55 234.85 96.86 235.61"/><polygon class="cls-5" points="99.03 269.01 76.05 255.74 76.05 229.37 99.03 242.64 99.03 269.01"/><polygon class="cls-16" points="99.03 269.01 76.05 255.74 76.05 229.37 99.03 242.64 99.03 269.01"/><ellipse class="cls-17" cx="122.73" cy="221.67" rx="1.32" ry="2.28" transform="translate(-95.09 92.24) rotate(-30.31)"/><ellipse class="cls-17" cx="126.45" cy="239.73" rx="1.32" ry="2.28" transform="translate(-103.7 96.59) rotate(-30.31)"/><ellipse class="cls-17" cx="116.27" cy="217.94" rx="1.32" ry="2.28" transform="translate(-94.1 88.47) rotate(-30.31)"/><ellipse class="cls-17" cx="107.86" cy="277.09" rx="1.32" ry="2.28" transform="translate(-125.1 92.31) rotate(-30.31)"/><line class="cls-15" x1="116.27" y1="229.58" x2="116.27" y2="219.8"/><polygon class="cls-10" points="119.03 228.06 113.51 224.87 113.51 223.78 119.03 226.97 119.03 228.06"/><polygon class="cls-13" points="117.16 226.97 115.39 225.96 115.39 224.86 117.16 225.88 117.16 226.97"/><line class="cls-15" x1="117.89" y1="234.79" x2="124.83" y2="238.79"/><polygon class="cls-18" points="120 240.28 112.55 235.98 112.55 227.43 120 231.73 120 240.28"/><ellipse class="cls-17" cx="97.29" cy="219.37" rx="1.32" ry="2.28" transform="translate(-97.41 79.09) rotate(-30.31)"/><line class="cls-15" x1="90.56" y1="215.49" x2="95.67" y2="218.43"/><ellipse class="cls-17" cx="78.45" cy="208.5" rx="1.32" ry="2.28" transform="translate(-94.5 68.09) rotate(-30.31)"/><line class="cls-15" x1="85.18" y1="212.38" x2="80.07" y2="209.43"/><polygon class="cls-19" points="91.59 219.68 84.15 215.38 84.15 208.19 91.59 212.49 91.59 219.68"/><path class="cls-10" d="M60.63,206l-.31-.18a4.88,4.88,0,0,1-2-3.87V192c0-1.49.91-2.18,2-1.53l.31.18a4.87,4.87,0,0,1,2,3.88v9.94C62.66,206,61.75,206.65,60.63,206Z"/><polygon class="cls-13" points="62.66 202.28 58.29 199.76 58.29 193.95 62.66 196.47 62.66 202.28"/><path class="cls-9" d="M60.48,190.56l-.17-.07V205.8l.17.11c1.2.7,2.18.14,2.18-1.24V194.33A4.84,4.84,0,0,0,60.48,190.56Z"/><ellipse class="cls-17" cx="94.77" cy="286.14" rx="1.32" ry="2.28" transform="translate(-131.45 86.94) rotate(-30.31)"/><line class="cls-15" x1="93.5" y1="285.4" x2="88.95" y2="282.77"/><ellipse class="cls-17" cx="108.34" cy="315.42" rx="1.32" ry="2.28" transform="translate(-144.37 97.79) rotate(-30.31)"/><line class="cls-15" x1="107.06" y1="314.67" x2="102.51" y2="312.04"/><ellipse class="cls-17" cx="106.47" cy="322.04" rx="1.31" ry="2.27" transform="translate(-147.44 97.15) rotate(-30.17)"/><line class="cls-15" x1="107.06" y1="321.86" x2="102.51" y2="319.23"/><ellipse class="cls-17" cx="70.47" cy="271.92" rx="1.32" ry="2.28" transform="translate(-127.6 72.73) rotate(-30.31)"/><line class="cls-15" x1="71.76" y1="272.66" x2="76.3" y2="275.29"/><path class="cls-10" d="M75.87,275.22h0c0-1.38.84-2,1.88-1.42l9.62,5.55a4.51,4.51,0,0,1,1.88,3.6h0c0,1.38-.84,2-1.88,1.42l-9.62-5.55A4.52,4.52,0,0,1,75.87,275.22Z"/><polygon class="cls-13" points="80.13 280.19 80.13 275.18 85.19 278.1 85.19 283.12 80.13 280.19"/><path class="cls-9" d="M89.25,283v-.2L75.9,275.1v.17A4.84,4.84,0,0,0,78.05,279l2.08,1.2,5.06,2.92,1.87,1.08C88.27,284.89,89.25,284.33,89.25,283Z"/><ellipse class="cls-17" cx="123.74" cy="260.41" rx="1.32" ry="2.28" transform="translate(-114.51 98.04) rotate(-30.31)"/><line class="cls-15" x1="123.74" y1="261.88" x2="123.74" y2="267.1"/><ellipse class="cls-17" cx="123.58" cy="288.21" rx="1.32" ry="2.28" transform="translate(-128.56 101.77) rotate(-30.31)"/><line class="cls-15" x1="123.58" y1="286.73" x2="123.58" y2="281.52"/><path class="cls-10" d="M123.9,282.2l-.32-.18a4.9,4.9,0,0,1-2-3.88V268.2c0-1.49.91-2.18,2-1.53l.32.18a4.85,4.85,0,0,1,2,3.87v9.95C125.93,282.16,125,282.85,123.9,282.2Z"/><polygon class="cls-13" points="125.93 278.48 121.56 275.95 121.56 270.15 125.93 272.67 125.93 278.48"/><path class="cls-9" d="M123.74,266.76l-.16-.08V282l.16.11c1.21.7,2.19.14,2.19-1.25V270.53A4.78,4.78,0,0,0,123.74,266.76Z"/><line class="cls-15" x1="62.1" y1="185.15" x2="114.65" y2="215.49"/><polygon class="cls-10" points="85.64 216.24 84.08 215.34 84.08 208.15 85.64 209.05 85.64 216.24"/><polygon class="cls-10" points="91.58 219.67 90.01 218.76 90.01 211.57 91.58 212.48 91.58 219.67"/><polygon class="cls-20" points="102.83 323.06 72.23 305.39 72.23 291.34 102.83 309.01 102.83 323.06"/><polygon class="cls-21" points="101.63 333.12 73.45 316.85 73.45 306.1 101.63 322.37 101.63 333.12"/><path class="cls-10" d="M77.29,313.6h0c0-.7.43-1,1-.72l4.88,2.82a2.25,2.25,0,0,1,1,1.82h0c0,.71-.43,1-1,.73l-4.88-2.82A2.3,2.3,0,0,1,77.29,313.6Z"/><polygon class="cls-13" points="79.46 316.13 79.46 313.58 82.03 315.06 82.03 317.61 79.46 316.13"/><path class="cls-9" d="M84.09,317.52v-.1l-6.78-3.91v.09a2.49,2.49,0,0,0,1.11,1.92l1.06.6L82,317.61l1,.55C83.59,318.51,84.09,318.23,84.09,317.52Z"/><line class="cls-15" x1="111.69" y1="165.43" x2="111.69" y2="213.78"/><line class="cls-15" x1="111.69" y1="188.92" x2="102.72" y2="173.46"/><ellipse class="cls-17" cx="102.63" cy="173.49" rx="1.32" ry="2.28" transform="translate(-73.53 75.51) rotate(-30.31)"/><line class="cls-15" x1="101.34" y1="172.75" x2="96.79" y2="170.13"/><ellipse class="cls-17" cx="80.11" cy="160.3" rx="1.32" ry="2.28" transform="translate(-69.95 62.34) rotate(-30.31)"/><line class="cls-15" x1="81.4" y1="161.05" x2="84.15" y2="162.64"/><path class="cls-10" d="M83.72,162.57h0c0-1.38.84-2,1.88-1.42l9.61,5.55a4.51,4.51,0,0,1,1.88,3.6h0c0,1.38-.84,2-1.88,1.42l-9.61-5.55A4.52,4.52,0,0,1,83.72,162.57Z"/><polygon class="cls-13" points="87.98 167.54 87.98 162.53 93.04 165.45 93.04 170.47 87.98 167.54"/><path class="cls-9" d="M97.09,170.3v-.2l-13.35-7.7v.17a4.8,4.8,0,0,0,2.18,3.77l2.08,1.2,5,2.93,1.87,1.07C96.12,172.24,97.09,171.68,97.09,170.3Z"/><polyline class="cls-15" points="60.48 184.21 76.95 174.81 110.07 193.93"/><polygon class="cls-10" points="80.77 174.25 80.77 179.38 79.45 178.62 79.45 173.49 80.77 174.25"/><polygon class="cls-13" points="80.77 175.99 80.77 177.63 79.45 176.87 79.45 175.23 80.77 175.99"/><polygon class="cls-10" points="85.72 177.1 85.72 182.23 84.4 181.48 84.4 176.34 85.72 177.1"/><polygon class="cls-13" points="85.72 178.85 85.72 180.49 84.4 179.73 84.4 178.09 85.72 178.85"/><polygon class="cls-10" points="90.67 179.96 90.67 185.09 89.36 184.33 89.36 179.2 90.67 179.96"/><polygon class="cls-13" points="90.67 181.71 90.67 183.35 89.36 182.59 89.36 180.95 90.67 181.71"/><polygon class="cls-10" points="95.62 182.82 95.62 187.95 94.31 187.19 94.31 182.06 95.62 182.82"/><polygon class="cls-13" points="95.62 184.57 95.62 186.21 94.31 185.45 94.31 183.81 95.62 184.57"/><polygon class="cls-10" points="80.77 191.81 80.77 196.94 79.45 196.18 79.45 191.05 80.77 191.81"/><polygon class="cls-13" points="80.77 193.56 80.77 195.2 79.45 194.44 79.45 192.8 80.77 193.56"/><polygon class="cls-10" points="85.72 194.67 85.72 199.8 84.4 199.04 84.4 193.91 85.72 194.67"/><polygon class="cls-13" points="85.72 196.42 85.72 198.06 84.4 197.3 84.4 195.66 85.72 196.42"/><polygon class="cls-10" points="90.67 197.53 90.67 202.66 89.36 201.9 89.36 196.77 90.67 197.53"/><polygon class="cls-13" points="90.67 199.28 90.67 200.91 89.36 200.16 89.36 198.52 90.67 199.28"/><polygon class="cls-10" points="95.62 200.39 95.62 205.52 94.31 204.76 94.31 199.63 95.62 200.39"/><polygon class="cls-13" points="95.62 202.13 95.62 203.77 94.31 203.01 94.31 201.38 95.62 202.13"/><polygon class="cls-22" points="99.03 202.35 76.05 189.09 76.05 176.65 99.03 189.92 99.03 202.35"/><line class="cls-15" x1="111.69" y1="163.8" x2="105.43" y2="152.99"/><ellipse class="cls-17" cx="130.52" cy="205.45" rx="1.32" ry="2.28" transform="translate(-85.85 93.95) rotate(-30.31)"/><line class="cls-15" x1="123.8" y1="201.57" x2="128.9" y2="204.52"/><ellipse class="cls-17" cx="110.41" cy="194.46" rx="1.31" ry="2.27" transform="translate(-82.78 81.84) rotate(-30.17)"/><line class="cls-15" x1="118.41" y1="198.46" x2="113.31" y2="195.51"/><polygon class="cls-23" points="124.83 205.76 117.38 201.46 117.38 194.27 124.83 198.57 124.83 205.76"/><ellipse class="cls-17" cx="129.19" cy="189.85" rx="1.31" ry="2.27" transform="translate(-77.92 90.66) rotate(-30.17)"/><line class="cls-15" x1="123.8" y1="185.99" x2="128.9" y2="188.94"/><ellipse class="cls-17" cx="111.69" cy="179" rx="1.32" ry="2.28" transform="translate(-75.07 80.84) rotate(-30.31)"/><line class="cls-15" x1="118.41" y1="182.88" x2="113.31" y2="179.94"/><polygon class="cls-24" points="124.83 190.18 117.38 185.88 117.38 178.69 124.83 182.99 124.83 190.18"/><ellipse class="cls-17" cx="130.52" cy="174.3" rx="1.32" ry="2.28" transform="translate(-70.12 89.7) rotate(-30.31)"/><line class="cls-15" x1="123.8" y1="170.42" x2="128.9" y2="173.36"/><ellipse class="cls-17" cx="105.32" cy="152.44" rx="1.32" ry="2.28" transform="translate(-62.54 73.99) rotate(-30.31)"/><line class="cls-15" x1="118.41" y1="167.31" x2="113.31" y2="164.36"/><ellipse class="cls-17" cx="111.69" cy="163.43" rx="1.32" ry="2.28" transform="translate(-67.21 78.71) rotate(-30.31)"/><polygon class="cls-25" points="124.83 174.61 117.38 170.31 117.38 163.12 124.83 167.42 124.83 174.61"/><polyline class="cls-15" points="60.31 212.01 60.31 223.79 52.14 228.45"/><polyline class="cls-15" points="60.31 223.56 60.31 235.34 52.14 240"/><polyline class="cls-15" points="60.31 235.11 60.31 246.89 52.14 251.55"/><ellipse class="cls-17" cx="60.3" cy="212.01" rx="1.32" ry="2.28" transform="translate(-98.75 59.41) rotate(-30.31)"/><line class="cls-15" x1="60.31" y1="210.54" x2="60.31" y2="205.32"/><ellipse class="cls-17" cx="50.9" cy="227.93" rx="1.31" ry="2.27" transform="translate(-107.67 56.46) rotate(-30.17)"/><ellipse class="cls-17" cx="52.14" cy="240.27" rx="1.32" ry="2.28" transform="translate(-114.13 59.16) rotate(-30.31)"/><ellipse class="cls-17" cx="52.14" cy="252.08" rx="1.32" ry="2.28" transform="translate(-120.09 60.77) rotate(-30.31)"/><polyline class="cls-15" points="59.94 183.68 46.81 161.03 46.81 125.5 51.63 122.75 58.29 126.59"/><polygon class="cls-10" points="72.2 135.32 67.73 132.74 67.73 131.23 72.2 133.81 72.2 135.32"/><polygon class="cls-13" points="70.68 134.44 69.25 133.62 69.25 132.11 70.68 132.93 70.68 134.44"/><polygon class="cls-10" points="61.46 129.12 56.99 126.54 56.99 125.03 61.46 127.61 61.46 129.12"/><polygon class="cls-13" points="59.94 128.24 58.51 127.42 58.51 125.91 59.94 126.73 59.94 128.24"/><polygon class="cls-26" points="61.51 125.02 67.78 128.63 67.78 135.29 61.51 131.68 61.51 125.02"/><ellipse class="cls-17" cx="60.48" cy="184.2" rx="1.32" ry="2.28" transform="translate(-84.7 55.7) rotate(-30.31)"/><line class="cls-15" x1="60.48" y1="185.69" x2="60.48" y2="190.9"/><ellipse class="cls-17" cx="46.8" cy="160.98" rx="1.32" ry="2.28" transform="translate(-74.84 45.63) rotate(-30.31)"/><ellipse class="cls-17" cx="51.81" cy="122.85" rx="1.32" ry="2.28" transform="translate(-54.92 42.94) rotate(-30.31)"/><ellipse class="cls-17" cx="80.77" cy="139.57" rx="1.32" ry="2.28" transform="translate(-59.4 59.84) rotate(-30.31)"/><ellipse class="cls-8" cx="47.31" cy="103.59" rx="5.53" ry="9.58" transform="translate(-45.81 38.04) rotate(-30.31)"/><path class="cls-27" d="M49.09,111.4A15,15,0,0,1,42.3,99.68c0-2.64,1.14-4.31,2.89-4.71-2.72-.55-4.68,1.25-4.68,4.71a15,15,0,0,0,6.8,11.72,5.43,5.43,0,0,0,3.9.83A7,7,0,0,1,49.09,111.4Z"/><ellipse class="cls-8" cx="126.74" cy="149.8" rx="5.53" ry="9.58" transform="translate(-58.28 84.44) rotate(-30.31)"/><path class="cls-28" d="M128.53,157.6a15,15,0,0,1-6.8-11.72c0-2.64,1.14-4.31,2.89-4.71-2.71-.54-4.68,1.25-4.68,4.71a15,15,0,0,0,6.8,11.72,5.45,5.45,0,0,0,3.91.83A7,7,0,0,1,128.53,157.6Z"/><ellipse class="cls-8" cx="47.31" cy="282.96" rx="5.53" ry="9.58" transform="translate(-136.34 62.56) rotate(-30.31)"/><path class="cls-29" d="M49.09,290.77a15,15,0,0,1-6.79-11.72c0-2.64,1.14-4.3,2.89-4.71-2.72-.54-4.68,1.25-4.68,4.71a14.94,14.94,0,0,0,6.8,11.72,5.43,5.43,0,0,0,3.9.83A7,7,0,0,1,49.09,290.77Z"/><ellipse class="cls-8" cx="126.75" cy="329.18" rx="5.53" ry="9.58" transform="translate(-148.8 108.96) rotate(-30.31)"/><path class="cls-30" d="M128.53,337a15,15,0,0,1-6.8-11.73c0-2.64,1.14-4.3,2.89-4.71-2.71-.54-4.68,1.25-4.68,4.71a15,15,0,0,0,6.8,11.73,5.55,5.55,0,0,0,3.91.83A7.61,7.61,0,0,1,128.53,337Z"/><polygon class="cls-8" points="103.86 183.27 101.64 181.99 101.64 179.44 103.86 180.72 103.86 183.27"/><polygon class="cls-9" points="103.86 180.72 129.29 166.04 129.29 168.59 103.86 183.27 103.86 180.72"/><polygon class="cls-10" points="103.87 180.72 101.64 179.44 127.05 164.75 129.27 166.03 103.87 180.72"/><polygon class="cls-8" points="103.86 193.18 101.64 191.89 101.64 189.34 103.86 190.63 103.86 193.18"/><polygon class="cls-9" points="103.86 190.63 129.29 175.94 129.29 178.5 103.86 193.18 103.86 190.63"/><polygon class="cls-10" points="103.87 190.62 101.64 189.34 127.05 174.65 129.27 175.94 103.87 190.62"/><polygon class="cls-8" points="103.86 203.08 101.64 201.8 101.64 199.25 103.86 200.53 103.86 203.08"/><polygon class="cls-9" points="103.86 200.53 129.29 185.85 129.29 188.4 103.86 203.08 103.86 200.53"/><polygon class="cls-10" points="103.87 200.53 101.64 199.24 127.05 184.56 129.27 185.84 103.87 200.53"/><polygon class="cls-8" points="103.86 212.99 101.64 211.7 101.64 209.15 103.86 210.44 103.86 212.99"/><polygon class="cls-9" points="103.86 210.44 129.29 195.75 129.29 198.3 103.86 212.99 103.86 210.44"/><polygon class="cls-10" points="103.87 210.43 101.64 209.15 127.05 194.46 129.27 195.75 103.87 210.43"/><polygon class="cls-8" points="103.86 222.89 101.64 221.61 101.64 219.06 103.86 220.34 103.86 222.89"/><polygon class="cls-9" points="103.86 220.34 129.29 205.66 129.29 208.21 103.86 222.89 103.86 220.34"/><polygon class="cls-10" points="103.87 220.34 101.64 219.05 127.05 204.37 129.27 205.65 103.87 220.34"/><polygon class="cls-8" points="103.86 232.8 101.64 231.51 101.64 228.96 103.86 230.25 103.86 232.8"/><polygon class="cls-9" points="103.86 230.25 129.29 215.56 129.29 218.11 103.86 232.8 103.86 230.25"/><polygon class="cls-10" points="103.87 230.24 101.64 228.96 127.05 214.27 129.27 215.56 103.87 230.24"/><polygon class="cls-8" points="103.86 242.7 101.64 241.42 101.64 238.87 103.86 240.15 103.86 242.7"/><polygon class="cls-9" points="103.86 240.15 129.29 225.47 129.29 228.02 103.86 242.7 103.86 240.15"/><polygon class="cls-10" points="103.87 240.15 101.64 238.86 127.05 224.18 129.27 225.46 103.87 240.15"/><polygon class="cls-8" points="103.86 252.6 101.64 251.32 101.64 248.77 103.86 250.05 103.86 252.6"/><polygon class="cls-9" points="103.86 250.05 129.29 235.37 129.29 237.92 103.86 252.6 103.86 250.05"/><polygon class="cls-10" points="103.87 250.05 101.64 248.77 127.05 234.08 129.27 235.36 103.87 250.05"/><polygon class="cls-8" points="103.86 262.51 101.64 261.23 101.64 258.68 103.86 259.96 103.86 262.51"/><polygon class="cls-9" points="103.86 259.96 129.29 245.28 129.29 247.83 103.86 262.51 103.86 259.96"/><polygon class="cls-10" points="103.87 259.95 101.64 258.67 127.05 243.99 129.27 245.27 103.87 259.95"/><polygon class="cls-8" points="103.86 272.41 101.64 271.13 101.64 268.58 103.86 269.86 103.86 272.41"/><polygon class="cls-9" points="103.86 269.86 129.29 255.18 129.29 257.73 103.86 272.41 103.86 269.86"/><polygon class="cls-10" points="103.87 269.86 101.64 268.58 127.05 253.89 129.27 255.17 103.87 269.86"/><polygon class="cls-8" points="103.86 282.32 101.64 281.04 101.64 278.48 103.86 279.77 103.86 282.32"/><polygon class="cls-9" points="103.86 279.77 129.29 265.08 129.29 267.64 103.86 282.32 103.86 279.77"/><polygon class="cls-10" points="103.87 279.76 101.64 278.48 127.05 263.79 129.27 265.08 103.87 279.76"/><polygon class="cls-8" points="103.86 292.22 101.64 290.94 101.64 288.39 103.86 289.67 103.86 292.22"/><polygon class="cls-9" points="103.86 289.67 129.29 274.99 129.29 277.54 103.86 292.22 103.86 289.67"/><polygon class="cls-10" points="103.87 289.67 101.64 288.38 127.05 273.7 129.27 274.98 103.87 289.67"/><polygon class="cls-8" points="103.86 302.13 101.64 300.84 101.64 298.29 103.86 299.58 103.86 302.13"/><polygon class="cls-9" points="103.86 299.58 129.29 284.89 129.29 287.44 103.86 302.13 103.86 299.58"/><polygon class="cls-10" points="103.87 299.57 101.64 298.29 127.05 283.6 129.27 284.89 103.87 299.57"/><polygon class="cls-8" points="103.86 312.03 101.64 310.75 101.64 308.2 103.86 309.48 103.86 312.03"/><polygon class="cls-9" points="103.86 309.48 129.29 294.8 129.29 297.35 103.86 312.03 103.86 309.48"/><polygon class="cls-10" points="103.87 309.48 101.64 308.19 127.05 293.51 129.27 294.79 103.87 309.48"/><polygon class="cls-8" points="103.86 321.94 101.64 320.65 101.64 318.1 103.86 319.39 103.86 321.94"/><polygon class="cls-9" points="103.86 319.39 129.29 304.7 129.29 307.25 103.86 321.94 103.86 319.39"/><polygon class="cls-10" points="103.87 319.38 101.64 318.1 127.05 303.41 129.27 304.7 103.87 319.38"/><polygon class="cls-8" points="103.86 331.84 101.64 330.56 101.64 328.01 103.86 329.29 103.86 331.84"/><polygon class="cls-9" points="103.86 329.29 129.29 314.61 129.29 317.16 103.86 331.84 103.86 329.29"/><polygon class="cls-10" points="103.87 329.29 101.64 328 127.05 313.32 129.27 314.6 103.87 329.29"/><polygon class="cls-8" points="103.86 341.75 101.64 340.46 101.64 337.91 103.86 339.19 103.86 341.75"/><polygon class="cls-9" points="103.86 339.19 129.29 324.51 129.29 327.06 103.86 341.75 103.86 339.19"/><polygon class="cls-10" points="103.87 339.19 101.64 337.91 127.05 323.22 129.27 324.5 103.87 339.19"/><polygon class="cls-8" points="103.86 351.65 101.64 350.37 101.64 347.82 103.86 349.1 103.86 351.65"/><polygon class="cls-9" points="103.86 349.1 129.29 334.42 129.29 336.97 103.86 351.65 103.86 349.1"/><polygon class="cls-10" points="103.87 349.1 101.64 347.81 127.05 333.13 129.27 334.41 103.87 349.1"/><path class="cls-31" d="M109.84,154.11a21.81,21.81,0,0,1,2.89,10.33V356.59c0,6.43-3.91,9.39-8.73,6.61L11.61,309.85c-4.83-2.78-8.73-10.25-8.73-16.68V101c0-6.43,3.9-9.38,8.73-6.6L104,147.75a16.92,16.92,0,0,1,5.84,6.36"/><path class="cls-32" d="M.07,294.94V102.78c0-6.43,3.91-9.39,8.73-6.6l92.39,53.34c4.82,2.78,8.73,10.25,8.73,16.68V358.36c0,6.43-3.91,9.39-8.73,6.6L8.8,311.62C4,308.84.07,301.37.07,294.94Z"/><polygon class="cls-10" points="41.93 182.73 35.96 179.29 35.96 177.27 41.93 180.72 41.93 182.73"/><polygon class="cls-10" points="41.93 176.59 35.96 173.14 35.96 171.12 41.93 174.57 41.93 176.59"/><polygon class="cls-10" points="41.93 170.44 35.96 166.99 35.96 164.97 41.93 168.42 41.93 170.44"/><polygon class="cls-10" points="41.93 164.29 35.96 160.84 35.96 158.82 41.93 162.27 41.93 164.29"/><polygon class="cls-13" points="37.99 180.46 39.42 181.28 39.42 179.27 37.99 178.45 37.99 180.46"/><polygon class="cls-13" points="37.99 174.31 39.42 175.13 39.42 173.12 37.99 172.3 37.99 174.31"/><polygon class="cls-13" points="37.99 168.16 39.42 168.99 39.42 166.97 37.99 166.15 37.99 168.16"/><polygon class="cls-13" points="37.99 160 37.99 162.01 39.42 162.84 39.42 160.82 37.99 160"/><polygon class="cls-10" points="24.38 172.65 18.41 169.2 18.41 167.19 24.38 170.63 24.38 172.65"/><polygon class="cls-10" points="24.38 166.5 18.41 163.05 18.41 161.03 24.38 164.48 24.38 166.5"/><polygon class="cls-10" points="24.38 160.35 18.41 156.9 18.41 154.89 24.38 158.33 24.38 160.35"/><polygon class="cls-10" points="24.38 154.2 18.41 150.75 18.41 148.74 24.38 152.18 24.38 154.2"/><polygon class="cls-13" points="20.44 170.37 21.87 171.2 21.87 169.18 20.44 168.36 20.44 170.37"/><polygon class="cls-13" points="20.44 164.22 21.87 165.05 21.87 163.03 20.44 162.21 20.44 164.22"/><polygon class="cls-13" points="20.44 158.07 21.87 158.9 21.87 156.88 20.44 156.06 20.44 158.07"/><polygon class="cls-13" points="20.44 149.91 20.44 151.92 21.87 152.75 21.87 150.74 20.44 149.91"/><polygon class="cls-33" points="36.94 184.8 23.07 176.79 23.07 146.58 36.94 154.59 36.94 184.8"/><polyline class="cls-15" points="75.32 288.97 75.32 252.28 90.18 243.81 90.18 233.5"/><polygon class="cls-5" points="66.49 282.32 43.5 269.05 43.5 242.68 66.49 255.95 66.49 282.32"/><polygon class="cls-10" points="74.12 264.35 66.49 259.95 66.49 258.44 74.12 262.85 74.12 264.35"/><polygon class="cls-13" points="71.53 262.85 69.08 261.45 69.08 259.94 71.53 261.35 71.53 262.85"/><polygon class="cls-10" points="74.12 267.19 66.49 262.79 66.49 261.28 74.12 265.69 74.12 267.19"/><polygon class="cls-13" points="71.53 265.69 69.08 264.29 69.08 262.78 71.53 264.19 71.53 265.69"/><polygon class="cls-10" points="74.12 270.04 66.49 265.63 66.49 264.12 74.12 268.53 74.12 270.04"/><polygon class="cls-13" points="71.53 268.54 69.08 267.13 69.08 265.62 71.53 267.03 71.53 268.54"/><polygon class="cls-10" points="74.12 272.88 66.49 268.47 66.49 266.96 74.12 271.37 74.12 272.88"/><polygon class="cls-13" points="71.53 271.38 69.08 269.97 69.08 268.46 71.53 269.87 71.53 271.38"/><polygon class="cls-10" points="74.12 275.72 66.49 271.31 66.49 269.8 74.12 274.21 74.12 275.72"/><polygon class="cls-13" points="71.53 274.22 69.08 272.81 69.08 271.3 71.53 272.71 71.53 274.22"/><polygon class="cls-10" points="74.12 278.56 66.49 274.15 66.49 272.64 74.12 277.05 74.12 278.56"/><polygon class="cls-13" points="71.53 277.06 69.08 275.65 69.08 274.14 71.53 275.55 71.53 277.06"/><polygon class="cls-10" points="74.12 281.4 66.49 276.99 66.49 275.48 74.12 279.89 74.12 281.4"/><polygon class="cls-13" points="71.53 279.9 69.08 278.49 69.08 276.98 71.53 278.39 71.53 279.9"/><polygon class="cls-10" points="74.12 284.24 66.49 279.83 66.49 278.32 74.12 282.73 74.12 284.24"/><polygon class="cls-13" points="71.53 282.74 69.08 281.33 69.08 279.82 71.53 281.23 71.53 282.74"/><polygon class="cls-10" points="63 289.07 63 280.31 64.32 281.07 64.32 289.83 63 289.07"/><polygon class="cls-13" points="63 286.09 63 283.29 64.32 284.05 64.32 286.85 63 286.09"/><polygon class="cls-10" points="60.53 287.64 60.53 278.88 61.84 279.64 61.84 288.4 60.53 287.64"/><polygon class="cls-13" points="60.53 284.66 60.53 281.86 61.84 282.62 61.84 285.42 60.53 284.66"/><polygon class="cls-10" points="58.05 286.21 58.05 277.45 59.37 278.21 59.37 286.97 58.05 286.21"/><polygon class="cls-13" points="58.05 283.23 58.05 280.43 59.37 281.19 59.37 283.99 58.05 283.23"/><polygon class="cls-10" points="55.58 284.78 55.58 276.02 56.89 276.78 56.89 285.54 55.58 284.78"/><polygon class="cls-13" points="55.58 281.8 55.58 279 56.89 279.76 56.89 282.56 55.58 281.8"/><polygon class="cls-10" points="53.1 283.36 53.1 274.59 54.41 275.35 54.41 284.11 53.1 283.36"/><polygon class="cls-13" points="53.1 280.37 53.1 277.57 54.41 278.33 54.41 281.13 53.1 280.37"/><polygon class="cls-10" points="50.63 281.93 50.63 273.16 51.94 273.92 51.94 282.68 50.63 281.93"/><polygon class="cls-13" points="50.63 278.94 50.63 276.14 51.94 276.9 51.94 279.7 50.63 278.94"/><polygon class="cls-10" points="48.15 280.5 48.15 271.73 49.46 272.49 49.46 281.25 48.15 280.5"/><polygon class="cls-13" points="48.15 277.51 48.15 274.71 49.46 275.47 49.46 278.27 48.15 277.51"/><polygon class="cls-10" points="45.67 279.07 45.67 270.31 46.99 271.06 46.99 279.82 45.67 279.07"/><polygon class="cls-13" points="45.67 276.09 45.67 273.29 46.99 274.04 46.99 276.84 45.67 276.09"/><polygon class="cls-10" points="35.87 260.65 43.5 265.05 43.5 266.56 35.87 262.15 35.87 260.65"/><polygon class="cls-13" points="38.47 262.14 40.91 263.55 40.91 265.06 38.47 263.65 38.47 262.14"/><polygon class="cls-10" points="35.87 257.81 43.5 262.21 43.5 263.72 35.87 259.31 35.87 257.81"/><polygon class="cls-13" points="38.47 259.31 40.91 260.71 40.91 262.22 38.47 260.81 38.47 259.31"/><polygon class="cls-10" points="35.87 254.96 43.5 259.37 43.5 260.88 35.87 256.47 35.87 254.96"/><polygon class="cls-13" points="38.47 256.46 40.91 257.87 40.91 259.38 38.47 257.97 38.47 256.46"/><polygon class="cls-10" points="35.87 252.12 43.5 256.53 43.5 258.04 35.87 253.63 35.87 252.12"/><polygon class="cls-13" points="38.47 253.62 40.91 255.03 40.91 256.54 38.47 255.13 38.47 253.62"/><polygon class="cls-10" points="35.87 249.28 43.5 253.69 43.5 255.2 35.87 250.79 35.87 249.28"/><polygon class="cls-13" points="38.47 250.78 40.91 252.19 40.91 253.7 38.47 252.29 38.47 250.78"/><polygon class="cls-10" points="35.87 246.44 43.5 250.85 43.5 252.36 35.87 247.95 35.87 246.44"/><polygon class="cls-13" points="38.47 247.94 40.91 249.35 40.91 250.86 38.47 249.45 38.47 247.94"/><polygon class="cls-10" points="35.87 243.6 43.5 248.01 43.5 249.52 35.87 245.11 35.87 243.6"/><polygon class="cls-13" points="38.47 245.1 40.91 246.51 40.91 248.02 38.47 246.61 38.47 245.1"/><polygon class="cls-10" points="35.87 240.76 43.5 245.17 43.5 246.68 35.87 242.27 35.87 240.76"/><polygon class="cls-13" points="38.47 242.26 40.91 243.67 40.91 245.18 38.47 243.77 38.47 242.26"/><polygon class="cls-10" points="46.99 235.93 46.99 244.69 45.67 243.93 45.67 235.17 46.99 235.93"/><polygon class="cls-13" points="46.99 238.91 46.99 241.71 45.67 240.95 45.67 238.15 46.99 238.91"/><polygon class="cls-10" points="49.46 237.36 49.46 246.12 48.15 245.36 48.15 236.6 49.46 237.36"/><polygon class="cls-13" points="49.46 240.34 49.46 243.14 48.15 242.38 48.15 239.58 49.46 240.34"/><polygon class="cls-10" points="51.94 238.79 51.94 247.55 50.63 246.79 50.63 238.03 51.94 238.79"/><polygon class="cls-13" points="51.94 241.77 51.94 244.57 50.63 243.81 50.63 241.01 51.94 241.77"/><polygon class="cls-10" points="54.41 240.22 54.41 248.98 53.1 248.22 53.1 239.46 54.41 240.22"/><polygon class="cls-13" points="54.41 243.2 54.41 246 53.1 245.24 53.1 242.44 54.41 243.2"/><polygon class="cls-10" points="56.89 241.65 56.89 250.41 55.58 249.65 55.58 240.89 56.89 241.65"/><polygon class="cls-13" points="56.89 244.63 56.89 247.43 55.58 246.67 55.58 243.87 56.89 244.63"/><polygon class="cls-10" points="59.37 243.07 59.37 251.84 58.05 251.08 58.05 242.32 59.37 243.07"/><polygon class="cls-13" points="59.37 246.06 59.37 248.86 58.05 248.1 58.05 245.3 59.37 246.06"/><polygon class="cls-10" points="61.84 244.5 61.84 253.27 60.53 252.51 60.53 243.75 61.84 244.5"/><polygon class="cls-13" points="61.84 247.49 61.84 250.28 60.53 249.53 60.53 246.73 61.84 247.49"/><polygon class="cls-10" points="64.32 245.93 64.32 254.69 63 253.94 63 245.18 64.32 245.93"/><polygon class="cls-13" points="64.32 248.91 64.32 251.71 63 250.96 63 248.16 64.32 248.91"/><polygon class="cls-5" points="66.49 282.32 43.5 269.05 43.5 242.68 66.49 255.95 66.49 282.32"/><polygon class="cls-34" points="66.49 282.32 43.5 269.05 43.5 242.68 66.49 255.95 66.49 282.32"/><ellipse class="cls-17" cx="90.18" cy="234.97" rx="1.32" ry="2.28" transform="translate(-106.26 77.63) rotate(-30.31)"/><ellipse class="cls-17" cx="93.91" cy="253.04" rx="1.32" ry="2.28" transform="translate(-114.87 81.98) rotate(-30.31)"/><ellipse class="cls-17" cx="83.73" cy="231.25" rx="1.32" ry="2.28" transform="translate(-105.26 73.87) rotate(-30.31)"/><ellipse class="cls-17" cx="75.31" cy="290.4" rx="1.32" ry="2.28" transform="translate(-136.26 77.7) rotate(-30.31)"/><line class="cls-15" x1="83.73" y1="242.89" x2="83.73" y2="233.11"/><polygon class="cls-10" points="86.49 241.37 80.97 238.18 80.97 237.09 86.49 240.28 86.49 241.37"/><polygon class="cls-13" points="84.61 240.28 82.85 239.26 82.85 238.17 84.61 239.19 84.61 240.28"/><line class="cls-15" x1="85.35" y1="248.1" x2="92.29" y2="252.1"/><polygon class="cls-35" points="87.45 253.58 80.01 249.28 80.01 240.74 87.45 245.04 87.45 253.58"/><ellipse class="cls-17" cx="64.75" cy="232.67" rx="1.32" ry="2.28" transform="translate(-108.57 64.48) rotate(-30.31)"/><line class="cls-15" x1="58.02" y1="228.8" x2="63.13" y2="231.74"/><ellipse class="cls-17" cx="45.9" cy="221.8" rx="1.32" ry="2.28" transform="translate(-105.66 53.48) rotate(-30.31)"/><line class="cls-15" x1="52.64" y1="225.68" x2="47.53" y2="222.74"/><polygon class="cls-36" points="59.05 232.99 51.6 228.69 51.6 221.49 59.05 225.79 59.05 232.99"/><path class="cls-10" d="M28.09,219.31l-.31-.18a4.9,4.9,0,0,1-2-3.88v-9.94c0-1.49.91-2.18,2-1.53l.31.18a4.85,4.85,0,0,1,2,3.87v9.95C30.12,219.27,29.21,220,28.09,219.31Z"/><polygon class="cls-13" points="30.12 215.59 25.75 213.06 25.75 207.26 30.12 209.78 30.12 215.59"/><path class="cls-9" d="M27.93,203.87l-.16-.08v15.32c.06,0,.11.08.16.11,1.21.7,2.19.14,2.19-1.25V207.64A4.78,4.78,0,0,0,27.93,203.87Z"/><ellipse class="cls-17" cx="62.24" cy="299.45" rx="1.32" ry="2.28" transform="translate(-142.62 72.34) rotate(-30.31)"/><line class="cls-15" x1="60.95" y1="298.71" x2="56.41" y2="296.08"/><ellipse class="cls-17" cx="75.8" cy="328.72" rx="1.32" ry="2.28" transform="translate(-155.54 83.19) rotate(-30.31)"/><line class="cls-15" x1="74.52" y1="327.97" x2="69.97" y2="325.35"/><ellipse class="cls-17" cx="75.8" cy="335.92" rx="1.32" ry="2.28" transform="translate(-159.17 84.17) rotate(-30.31)"/><line class="cls-15" x1="74.52" y1="335.17" x2="69.97" y2="332.54"/><ellipse class="cls-17" cx="37.92" cy="285.23" rx="1.32" ry="2.28" transform="translate(-138.76 58.13) rotate(-30.31)"/><line class="cls-15" x1="39.21" y1="285.97" x2="43.76" y2="288.6"/><path class="cls-10" d="M43.33,288.53h0c0-1.38.84-2,1.88-1.42l9.61,5.55a4.48,4.48,0,0,1,1.89,3.6h0c0,1.38-.85,2-1.89,1.42l-9.61-5.55A4.52,4.52,0,0,1,43.33,288.53Z"/><polygon class="cls-13" points="47.59 293.5 47.59 288.48 52.65 291.41 52.65 296.42 47.59 293.5"/><path class="cls-9" d="M56.71,296.26v-.2l-13.35-7.7v.17a4.85,4.85,0,0,0,2.18,3.77l2.08,1.2,5.06,2.92,1.87,1.08C55.73,298.2,56.71,297.64,56.71,296.26Z"/><ellipse class="cls-17" cx="89.62" cy="273.23" rx="1.31" ry="2.27" transform="translate(-125.19 82.06) rotate(-30.17)"/><line class="cls-15" x1="91.2" y1="275.19" x2="91.2" y2="280.41"/><ellipse class="cls-17" cx="91.04" cy="301.52" rx="1.32" ry="2.28" transform="translate(-139.72 87.16) rotate(-30.31)"/><line class="cls-15" x1="91.04" y1="300.04" x2="91.04" y2="294.83"/><path class="cls-10" d="M91.36,295.51l-.32-.18a4.9,4.9,0,0,1-2-3.88v-9.94c0-1.5.91-2.18,2-1.54l.32.19a4.85,4.85,0,0,1,2,3.87v10C93.38,295.47,92.48,296.15,91.36,295.51Z"/><polygon class="cls-13" points="93.39 291.79 89.01 289.26 89.01 283.45 93.39 285.98 93.39 291.79"/><path class="cls-9" d="M91.2,280.06,91,280v15.3l.16.12c1.21.69,2.18.14,2.18-1.25V283.83A4.81,4.81,0,0,0,91.2,280.06Z"/><line class="cls-15" x1="29.55" y1="198.45" x2="82.11" y2="228.8"/><polygon class="cls-10" points="53.1 229.55 51.53 228.65 51.53 221.45 53.1 222.36 53.1 229.55"/><polygon class="cls-10" points="59.04 232.98 57.47 232.07 57.47 224.88 59.04 225.78 59.04 232.98"/><polygon class="cls-37" points="70.28 336.37 39.69 318.7 39.69 304.65 70.28 322.32 70.28 336.37"/><polygon class="cls-21" points="69.08 346.43 40.91 330.16 40.91 319.41 69.08 335.68 69.08 346.43"/><path class="cls-10" d="M44.75,326.91h0c0-.7.43-1,1-.72L50.59,329a2.25,2.25,0,0,1,1,1.82h0c0,.7-.43,1-1,.72l-4.88-2.82A2.27,2.27,0,0,1,44.75,326.91Z"/><polygon class="cls-13" points="46.92 329.43 46.92 326.88 49.49 328.37 49.49 330.92 46.92 329.43"/><path class="cls-9" d="M51.55,330.83v-.1l-6.78-3.91v.09a2.46,2.46,0,0,0,1.11,1.91l1.06.61,2.57,1.49,1,.54C51.05,331.82,51.55,331.53,51.55,330.83Z"/><line class="cls-15" x1="79.15" y1="178.73" x2="79.15" y2="227.09"/><line class="cls-15" x1="79.15" y1="202.23" x2="70.18" y2="186.76"/><ellipse class="cls-17" cx="70.08" cy="186.8" rx="1.32" ry="2.28" transform="translate(-84.69 60.9) rotate(-30.31)"/><line class="cls-15" x1="68.8" y1="186.06" x2="64.25" y2="183.43"/><ellipse class="cls-17" cx="47.56" cy="173.61" rx="1.32" ry="2.28" transform="translate(-81.11 47.74) rotate(-30.31)"/><line class="cls-15" x1="48.85" y1="174.36" x2="51.61" y2="175.95"/><path class="cls-10" d="M51.17,175.88h0c0-1.38.85-2,1.88-1.42L62.67,180a4.51,4.51,0,0,1,1.88,3.6h0c0,1.38-.84,2-1.88,1.42l-9.62-5.55A4.55,4.55,0,0,1,51.17,175.88Z"/><polygon class="cls-13" points="55.44 180.85 55.44 175.84 60.5 178.76 60.5 183.77 55.44 180.85"/><path class="cls-9" d="M64.55,183.61v-.2l-13.35-7.7v.17a4.84,4.84,0,0,0,2.19,3.77l2.08,1.2,5.06,2.92,1.87,1.08C63.57,185.55,64.55,185,64.55,183.61Z"/><polyline class="cls-15" points="27.93 197.52 44.41 188.12 77.53 207.24"/><polygon class="cls-10" points="48.23 187.55 48.23 192.68 46.91 191.93 46.91 186.79 48.23 187.55"/><polygon class="cls-13" points="48.23 189.3 48.23 190.94 46.91 190.18 46.91 188.54 48.23 189.3"/><polygon class="cls-10" points="53.18 190.41 53.18 195.54 51.86 194.78 51.86 189.65 53.18 190.41"/><polygon class="cls-13" points="53.18 192.16 53.18 193.8 51.86 193.04 51.86 191.4 53.18 192.16"/><polygon class="cls-10" points="58.13 193.27 58.13 198.4 56.81 197.64 56.81 192.51 58.13 193.27"/><polygon class="cls-13" points="58.13 195.02 58.13 196.66 56.81 195.9 56.81 194.26 58.13 195.02"/><polygon class="cls-10" points="63.08 196.13 63.08 201.26 61.77 200.5 61.77 195.37 63.08 196.13"/><polygon class="cls-13" points="63.08 197.87 63.08 199.51 61.77 198.75 61.77 197.12 63.08 197.87"/><polygon class="cls-10" points="48.23 205.12 48.23 210.25 46.91 209.49 46.91 204.36 48.23 205.12"/><polygon class="cls-13" points="48.23 206.87 48.23 208.5 46.91 207.75 46.91 206.11 48.23 206.87"/><polygon class="cls-10" points="53.18 207.98 53.18 213.11 51.86 212.35 51.86 207.22 53.18 207.98"/><polygon class="cls-13" points="53.18 209.72 53.18 211.36 51.86 210.6 51.86 208.97 53.18 209.72"/><polygon class="cls-10" points="58.13 210.84 58.13 215.97 56.81 215.21 56.81 210.08 58.13 210.84"/><polygon class="cls-13" points="58.13 212.58 58.13 214.22 56.81 213.46 56.81 211.82 58.13 212.58"/><polygon class="cls-10" points="63.08 213.7 63.08 218.83 61.77 218.07 61.77 212.94 63.08 213.7"/><polygon class="cls-13" points="63.08 215.44 63.08 217.08 61.77 216.32 61.77 214.68 63.08 215.44"/><polygon class="cls-38" points="66.49 215.66 43.5 202.39 43.5 189.96 66.49 203.23 66.49 215.66"/><line class="cls-15" x1="79.15" y1="177.1" x2="72.88" y2="166.3"/><ellipse class="cls-17" cx="97.98" cy="218.76" rx="1.32" ry="2.28" transform="translate(-97.01 79.35) rotate(-30.31)"/><line class="cls-15" x1="91.26" y1="214.88" x2="96.36" y2="217.82"/><ellipse class="cls-17" cx="77.91" cy="207.57" rx="1.31" ry="2.27" transform="translate(-93.77 67.28) rotate(-30.17)"/><line class="cls-15" x1="85.87" y1="211.77" x2="80.77" y2="208.82"/><polygon class="cls-39" points="92.29 219.07 84.84 214.77 84.84 207.58 92.29 211.88 92.29 219.07"/><ellipse class="cls-17" cx="96.7" cy="202.96" rx="1.31" ry="2.27" transform="translate(-88.91 76.1) rotate(-30.17)"/><line class="cls-15" x1="91.26" y1="199.3" x2="96.36" y2="202.25"/><ellipse class="cls-17" cx="79.15" cy="192.3" rx="1.32" ry="2.28" transform="translate(-86.23 66.23) rotate(-30.31)"/><line class="cls-15" x1="85.87" y1="196.19" x2="80.77" y2="193.24"/><polygon class="cls-40" points="92.29 203.49 84.84 199.19 84.84 192 92.29 196.3 92.29 203.49"/><ellipse class="cls-17" cx="97.98" cy="187.6" rx="1.32" ry="2.28" transform="translate(-81.29 75.09) rotate(-30.31)"/><line class="cls-15" x1="91.26" y1="183.73" x2="96.36" y2="186.67"/><ellipse class="cls-17" cx="72.78" cy="165.75" rx="1.32" ry="2.28" transform="translate(-73.7 59.39) rotate(-30.31)"/><line class="cls-15" x1="85.87" y1="180.61" x2="80.77" y2="177.67"/><ellipse class="cls-17" cx="79.14" cy="176.72" rx="1.32" ry="2.28" transform="translate(-78.37 64.1) rotate(-30.31)"/><polygon class="cls-41" points="92.29 187.92 84.84 183.62 84.84 176.42 92.29 180.72 92.29 187.92"/><polyline class="cls-15" points="27.77 225.32 27.77 237.09 19.59 241.76"/><polyline class="cls-15" points="27.77 236.87 27.77 248.64 19.59 253.31"/><polyline class="cls-15" points="27.77 248.42 27.77 260.19 19.59 264.86"/><ellipse class="cls-17" cx="27.77" cy="225.32" rx="1.32" ry="2.28" transform="translate(-109.92 44.81) rotate(-30.31)"/><line class="cls-15" x1="27.77" y1="223.85" x2="27.77" y2="218.63"/><ellipse class="cls-17" cx="19.6" cy="241.76" rx="1.32" ry="2.28" transform="translate(-119.33 42.94) rotate(-30.31)"/><ellipse class="cls-17" cx="19.6" cy="253.57" rx="1.32" ry="2.28" transform="translate(-125.29 44.55) rotate(-30.31)"/><ellipse class="cls-17" cx="19.6" cy="265.4" rx="1.32" ry="2.28" transform="translate(-131.26 46.17) rotate(-30.31)"/><polyline class="cls-15" points="27.4 196.99 14.26 174.34 14.26 138.81 19.09 136.06 25.75 139.9"/><polygon class="cls-10" points="39.66 148.63 35.19 146.05 35.19 144.54 39.66 147.12 39.66 148.63"/><polygon class="cls-13" points="38.14 147.75 36.71 146.92 36.71 145.42 38.14 146.24 38.14 147.75"/><polygon class="cls-10" points="28.92 142.43 24.45 139.84 24.45 138.34 28.92 140.92 28.92 142.43"/><polygon class="cls-13" points="27.4 141.55 25.97 140.72 25.97 139.21 27.4 140.04 27.4 141.55"/><polygon class="cls-42" points="28.97 138.32 35.23 141.94 35.23 148.6 28.97 144.98 28.97 138.32"/><ellipse class="cls-17" cx="27.93" cy="197.52" rx="1.32" ry="2.28" transform="translate(-95.87 41.09) rotate(-30.31)"/><line class="cls-15" x1="27.93" y1="198.99" x2="27.93" y2="204.21"/><ellipse class="cls-17" cx="14.26" cy="174.29" rx="1.32" ry="2.28" transform="translate(-86.01 31.02) rotate(-30.31)"/><ellipse class="cls-17" cx="19.27" cy="136.16" rx="1.32" ry="2.28" transform="translate(-66.08 28.34) rotate(-30.31)"/><ellipse class="cls-17" cx="48.23" cy="152.88" rx="1.32" ry="2.28" transform="translate(-70.56 45.24) rotate(-30.31)"/><ellipse class="cls-8" cx="14.76" cy="116.91" rx="5.53" ry="9.58" transform="translate(-56.98 23.43) rotate(-30.31)"/><path class="cls-43" d="M16.55,124.71A15,15,0,0,1,9.75,113c0-2.63,1.15-4.3,2.89-4.7C9.93,107.73,8,109.53,8,113a15,15,0,0,0,6.79,11.73,5.55,5.55,0,0,0,3.91.83A7.26,7.26,0,0,1,16.55,124.71Z"/><ellipse class="cls-8" cx="94.2" cy="163.1" rx="5.53" ry="9.58" transform="translate(-69.44 69.84) rotate(-30.31)"/><path class="cls-44" d="M96,170.91a15,15,0,0,1-6.8-11.72c0-2.64,1.14-4.31,2.89-4.71-2.72-.55-4.68,1.25-4.68,4.71a15,15,0,0,0,6.8,11.72,5.45,5.45,0,0,0,3.91.83A7,7,0,0,1,96,170.91Z"/><ellipse class="cls-8" cx="14.76" cy="296.28" rx="5.53" ry="9.58" transform="translate(-147.51 47.95) rotate(-30.31)"/><path class="cls-45" d="M16.55,304.08a15,15,0,0,1-6.8-11.72c0-2.64,1.15-4.31,2.89-4.71C9.93,287.1,8,288.9,8,292.36a15,15,0,0,0,6.79,11.72,5.45,5.45,0,0,0,3.91.83A7.11,7.11,0,0,1,16.55,304.08Z"/><ellipse class="cls-8" cx="94.2" cy="342.47" rx="5.53" ry="9.58" transform="translate(-159.96 94.35) rotate(-30.31)"/><path class="cls-46" d="M96,350.28a14.94,14.94,0,0,1-6.8-11.72c0-2.64,1.14-4.3,2.89-4.71-2.72-.54-4.68,1.25-4.68,4.71a14.94,14.94,0,0,0,6.8,11.72,5.45,5.45,0,0,0,3.91.83A7,7,0,0,1,96,350.28Z"/><path class="cls-31" d="M0,294.72V102.78c0-6.42,3.9-9.37,8.72-6.59L101,149.47c4.81,2.78,8.72,10.24,8.72,16.67V358.07c0,6.42-3.91,9.37-8.72,6.59L8.72,311.38C3.9,308.6,0,301.14,0,294.72Z"/><path class="cls-47" d="M74,205.17,35.74,183.08A5.19,5.19,0,0,1,33.58,179h0c0-1.59,1-2.32,2.16-1.64l38.26,22a5.18,5.18,0,0,1,2.16,4.12h0C76.15,205.12,75.18,205.86,74,205.17Z"/><path class="cls-47" d="M74,218.16,35.74,196.07A5.17,5.17,0,0,1,33.58,192h0c0-1.59,1-2.32,2.16-1.63L74,212.4a5.2,5.2,0,0,1,2.16,4.13h0C76.15,218.12,75.18,218.85,74,218.16Z"/><path class="cls-47" d="M74,231.15,35.74,209.07a5.21,5.21,0,0,1-2.16-4.13h0c0-1.59,1-2.32,2.16-1.63L74,225.39a5.2,5.2,0,0,1,2.16,4.13h0C76.15,231.11,75.18,231.84,74,231.15Z"/><path class="cls-47" d="M74,263.49,35.74,241.41a5.21,5.21,0,0,1-2.16-4.13h0c0-1.59,1-2.32,2.16-1.63L74,257.73a5.2,5.2,0,0,1,2.16,4.13h0C76.15,263.45,75.18,264.18,74,263.49Z"/><path class="cls-47" d="M74,276.48,35.74,254.4a5.21,5.21,0,0,1-2.16-4.13h0c0-1.59,1-2.32,2.16-1.63L74,270.73a5.15,5.15,0,0,1,2.16,4.12h0C76.15,276.44,75.18,277.17,74,276.48Z"/><path class="cls-47" d="M74,289.48,35.74,267.39a5.21,5.21,0,0,1-2.16-4.13h0c0-1.59,1-2.32,2.16-1.63L74,283.72a5.18,5.18,0,0,1,2.16,4.12h0C76.15,289.43,75.18,290.16,74,289.48Z"/><polygon class="cls-48" points="60.46 242.71 49.27 236.25 49.27 226.56 60.46 233.03 60.46 242.71"/><ellipse class="cls-5" cx="14.68" cy="116.9" rx="5.53" ry="9.57" transform="translate(-56.99 23.39) rotate(-30.31)"/><ellipse class="cls-5" cx="94.31" cy="162.86" rx="5.53" ry="9.57" transform="translate(-69.3 69.86) rotate(-30.31)"/><ellipse class="cls-5" cx="14.67" cy="296.29" rx="5.53" ry="9.57" transform="translate(-147.52 47.91) rotate(-30.31)"/><ellipse class="cls-5" cx="92.4" cy="341.58" rx="5.5" ry="9.52" transform="translate(-159.16 92.72) rotate(-30.17)"/><path class="cls-8" d="M43.94,133.4a1,1,0,0,0,.44.15.53.53,0,0,0,.3-.09.68.68,0,0,0,.18-.29,1.55,1.55,0,0,0,0-.43v-.08l.51.29V133a1.73,1.73,0,0,1-.1.63A.83.83,0,0,1,45,134a.69.69,0,0,1-.46.11,1.77,1.77,0,0,1-.64-.24,2.82,2.82,0,0,1-1.09-1.13,3.58,3.58,0,0,1-.39-1.69V130a1.5,1.5,0,0,1,.39-1.23c.26-.2.63-.16,1.09.11a3,3,0,0,1,1.38,1.86,2.64,2.64,0,0,1,.1.74v.08l-.51-.29v-.08a2,2,0,0,0-.06-.49,2.58,2.58,0,0,0-.17-.49,1.9,1.9,0,0,0-.3-.44,1.66,1.66,0,0,0-.44-.35c-.32-.19-.57-.2-.73,0a1.39,1.39,0,0,0-.24.93v1a2.9,2.9,0,0,0,.24,1.23A1.87,1.87,0,0,0,43.94,133.4Z"/><path class="cls-8" d="M46.28,130.36l.5.29v4.29l2.2,1.27v.53l-2.7-1.56Z"/><path class="cls-8" d="M49.93,132.47,52.6,134v.54l-1.08-.62v3.74l1.08.63v.53l-2.67-1.54v-.53l1.08.62v-3.75L49.93,133Z"/><path class="cls-8" d="M53.38,134.46l1,.56.56,4.9H55l.57-4.25,1,.55v4.83l-.47-.27V136.2H56l-.57,4.25-.91-.53L54,135h-.08v4.57l-.46-.27Z"/><path class="cls-8" d="M59.51,141.63l-1.8-1-.31,1-.54-.31,1.28-4.09.94.55,1.28,5.55-.54-.31Zm-.94-3.92-.72,2.42,1.52.88-.72-3.26Z"/><path class="cls-8" d="M60.81,138.75l2.95,1.71V141l-1.22-.7v4.28l-.51-.29V140l-1.22-.71Z"/><path class="cls-8" d="M64.68,141l2.55,1.47V143l-2-1.18v1.6l2,1.15v.54l-2-1.16v1.62l2.07,1.2v.53l-2.58-1.49Z"/><path class="cls-8" d="M44.19,137.43l1,.55.57,4.9h.07l.56-4.25,1,.56V144l-.46-.27v-4.57l-.08,0-.56,4.25-.91-.53L44.73,138l-.07-.05v4.58l-.47-.27Z"/><path class="cls-8" d="M48,141.47a1.5,1.5,0,0,1,.39-1.23c.26-.19.62-.16,1.09.11a2.82,2.82,0,0,1,1.08,1.14,3.61,3.61,0,0,1,.39,1.68v1.08c0,.64-.13,1.05-.39,1.24s-.62.14-1.08-.12a2.89,2.89,0,0,1-1.09-1.13,3.6,3.6,0,0,1-.39-1.7Zm1.48,3.36c.32.18.56.2.73,0a1.37,1.37,0,0,0,.24-1v-1a2.89,2.89,0,0,0-.24-1.2,1.79,1.79,0,0,0-.73-.83c-.33-.19-.57-.19-.73,0a1.4,1.4,0,0,0-.25.93v1a2.92,2.92,0,0,0,.2,1.27,1.74,1.74,0,0,0,.73.83Z"/><path class="cls-8" d="M51.7,141.76l1.38.8a3,3,0,0,1,1.14,1.08,3.15,3.15,0,0,1,.36,1.57v1.24c0,.63-.12,1-.36,1.16s-.62.07-1.14-.23l-1.38-.8V146l.36.21v-3.74l-.36-.21Zm1.31,5a2.06,2.06,0,0,0,.48.21.47.47,0,0,0,.33,0,.53.53,0,0,0,.2-.29,2,2,0,0,0,.06-.59V145a3.71,3.71,0,0,0-.06-.67,1.87,1.87,0,0,0-.2-.51,1.6,1.6,0,0,0-.33-.4,3.21,3.21,0,0,0-.48-.34l-.44-.25v3.74Z"/><path class="cls-8" d="M55.84,144.15v3.19a2.32,2.32,0,0,0,.23,1,2,2,0,0,0,.7.7c.31.18.54.21.7.1s.24-.35.24-.74v-3.2l.5.29v3.2c0,.56-.12.91-.38,1.06a1.1,1.1,0,0,1-1.06-.17,2.86,2.86,0,0,1-1.05-1.05,3,3,0,0,1-.39-1.51v-3.19Z"/><path class="cls-8" d="M59.13,146.05l.51.29v4.29l2.19,1.26v.54l-2.7-1.56Z"/><path class="cls-8" d="M62.85,148.2l2.54,1.47v.53l-2-1.18v1.6l2,1.16v.54l-2-1.16v1.61l2.08,1.2v.54L62.85,153Z"/></g></g></g></g></svg>