<?xml version="1.0" encoding="utf-8"?>
<!-- Generator: Adobe Illustrator 23.0.4, SVG Export Plug-In . SVG Version: 6.00 Build 0)  -->
<svg version="1.1" xmlns="http://www.w3.org/2000/svg" xmlns:xlink="http://www.w3.org/1999/xlink" x="0px" y="0px"
	 viewBox="0 0 295.8 146.3" style="enable-background:new 0 0 295.8 146.3;" xml:space="preserve">
<style type="text/css">
	.st0{enable-background:new    ;}
	.st1{fill:url(#SVGID_1_);}
	.st2{fill:url(#SVGID_2_);}
	.st3{fill:#6F7271;}
</style>
<g id="Logo_forms">
	<g class="st0">
		<g>
			
				<linearGradient id="SVGID_1_" gradientUnits="userSpaceOnUse" x1="-417.0724" y1="-758.0942" x2="-433.7671" y2="-654.4701" gradientTransform="matrix(1.1988 0.2335 -0.283 1.4531 554.3805 1151.9595)">
				<stop  offset="0.5868" style="stop-color:#FFCA30"/>
				<stop  offset="0.632" style="stop-color:#F9C835"/>
				<stop  offset="0.6888" style="stop-color:#EEC644"/>
				<stop  offset="0.7519" style="stop-color:#DBC35A"/>
				<stop  offset="0.8196" style="stop-color:#BFBF77"/>
				<stop  offset="0.8908" style="stop-color:#97B995"/>
				<stop  offset="0.964" style="stop-color:#5EB4B8"/>
				<stop  offset="1" style="stop-color:#22B1CB"/>
			</linearGradient>
			<path class="st1" d="M247.4,26.9c-18.9,0.7-15.9,36.6-34.7,37.1c-42.8,1.1-6.8,71.9,27.2,51C258.9,103.3,280.5,25.7,247.4,26.9z"
				/>
			
				<linearGradient id="SVGID_2_" gradientUnits="userSpaceOnUse" x1="-717.9604" y1="-998.165" x2="-821.8928" y2="-899.6087" gradientTransform="matrix(0.9783 -0.2073 0.2073 0.9783 1173.7644 828.4839)">
				<stop  offset="0.5179" style="stop-color:#EA148C"/>
				<stop  offset="0.5665" style="stop-color:#E2168A"/>
				<stop  offset="0.6404" style="stop-color:#D11B88"/>
				<stop  offset="0.7303" style="stop-color:#B92285"/>
				<stop  offset="0.8327" style="stop-color:#982882"/>
				<stop  offset="0.9444" style="stop-color:#712D7F"/>
				<stop  offset="1" style="stop-color:#5A2F7D"/>
			</linearGradient>
			<path class="st2" d="M230.3,42c-44.5-3.1-92.3,37.3-44.9,43.5c30.5,4,14.1,35.5,55.1,12.3C266,83.2,291.9,46.3,230.3,42z"/>
		</g>
	</g>
</g>
<g id="hbreavis">
	<g>
		<path class="st3" d="M27.5,91.2h1.9v12.4c0.2-0.4,0.5-0.9,0.9-1.4c0.4-0.5,0.9-1,1.5-1.4c0.6-0.4,1.3-0.8,2.1-1.1
			c0.8-0.3,1.7-0.4,2.8-0.4c1.4,0,2.5,0.2,3.4,0.6c0.9,0.4,1.7,0.9,2.3,1.7c0.6,0.7,1,1.6,1.2,2.7c0.2,1,0.4,2.2,0.4,3.5v11.2h-1.9
			v-10.6c0-1.4-0.1-2.6-0.4-3.5c-0.2-0.9-0.6-1.7-1.1-2.2c-0.5-0.6-1.1-0.9-1.8-1.2c-0.7-0.2-1.5-0.3-2.4-0.3
			c-1.2,0-2.3,0.2-3.2,0.7c-0.9,0.5-1.6,1.1-2.2,1.9c-0.6,0.8-1,1.6-1.3,2.6c-0.3,0.9-0.4,1.9-0.4,2.8v9.8h-1.9V91.2z"/>
		<path class="st3" d="M47.1,91.2h1.9v12c0.2-0.4,0.6-0.9,0.9-1.3c0.4-0.5,0.8-0.9,1.4-1.3c0.6-0.4,1.2-0.7,2-1
			c0.8-0.2,1.7-0.4,2.7-0.4c1.5,0,2.7,0.3,3.8,0.8c1.1,0.5,2,1.2,2.7,2.1c0.7,0.9,1.2,2,1.6,3.2c0.3,1.2,0.5,2.6,0.5,4
			c0,1.6-0.3,3-0.8,4.3c-0.5,1.2-1.3,2.3-2.2,3.1c-1,0.8-2.1,1.5-3.4,1.9c-1.3,0.4-2.7,0.7-4.2,0.7c-1.4,0-2.7-0.1-3.9-0.4
			c-1.2-0.2-2.2-0.5-3-0.9V91.2z M48.9,116.8c0.3,0.1,0.9,0.3,1.7,0.5c0.8,0.2,1.9,0.3,3.4,0.3c1.2,0,2.3-0.2,3.4-0.5
			c1-0.3,1.9-0.9,2.7-1.6c0.8-0.7,1.4-1.6,1.8-2.6c0.4-1,0.6-2.2,0.6-3.6c0-1.1-0.1-2.2-0.4-3.2c-0.2-1-0.6-1.9-1.2-2.6
			c-0.5-0.7-1.2-1.3-2.1-1.8c-0.9-0.4-1.9-0.7-3.2-0.7c-1.2,0-2.2,0.2-3,0.7c-0.9,0.5-1.6,1.1-2.1,1.9c-0.6,0.7-1,1.6-1.3,2.5
			c-0.3,0.9-0.4,1.7-0.4,2.6V116.8z"/>
		<g>
			<g>
				<g>
					<path class="st3" d="M67,118.8h5.6v-9.6c0-1.6,0.5-2.8,1.4-3.7c0.9-0.9,2.1-1.3,3.5-1.3c0.8,0,1.4,0.1,2,0.2l0.9-4.9
						c-0.3-0.1-0.6-0.2-0.9-0.2c-0.4-0.1-0.8-0.1-1.3-0.1c-1.3,0-2.4,0.3-3.3,0.9c-0.9,0.6-1.5,1.2-2,1.9l-0.3,0.3l-0.2-2.9H67
						V118.8z"/>
				</g>
				<g>
					<path class="st3" d="M90.3,98.9c-1.5,0-2.9,0.3-4.2,0.8c-1.2,0.6-2.3,1.3-3.1,2.2c-0.8,0.9-1.5,2-1.9,3.2
						c-0.4,1.2-0.7,2.5-0.7,3.9c0,1.5,0.2,2.9,0.7,4.2c0.5,1.3,1.2,2.3,2.1,3.2c0.9,0.9,2,1.6,3.3,2.1c1.3,0.5,2.8,0.8,4.4,0.8
						c1.2,0,2.3-0.1,3.3-0.3c1-0.2,1.8-0.5,2.5-0.8c0.7-0.3,1.3-0.6,1.7-0.9c0.4-0.3,0.6-0.5,0.9-0.6l-2.3-3.5
						c-0.5,0.3-1.1,0.7-2,1.1c-1,0.5-2.3,0.7-3.8,0.7c-1.6,0-2.9-0.4-3.8-1.2c-0.9-0.8-1.4-1.8-1.4-2.9l0-0.2h13.9v-0.8
						c0-1.6-0.2-3.1-0.6-4.5c-0.4-1.3-1-2.5-1.8-3.5c-0.8-1-1.8-1.7-3-2.3C93.2,99.1,91.9,98.9,90.3,98.9z M94.5,107.2h-8.5l0-0.2
						c0-0.4,0.1-0.9,0.3-1.3c0.2-0.4,0.5-0.9,0.8-1.2c0.4-0.4,0.8-0.7,1.4-0.9c0.5-0.2,1.2-0.4,1.9-0.4s1.3,0.1,1.9,0.4
						c0.5,0.2,1,0.6,1.3,0.9c0.3,0.4,0.6,0.8,0.8,1.2c0.2,0.4,0.3,0.9,0.3,1.3L94.5,107.2z"/>
				</g>
				<g>
					<path class="st3" d="M110.2,106.5c-1.3,0-2.4,0.2-3.5,0.5c-1.1,0.3-2,0.7-2.8,1.3c-0.8,0.6-1.4,1.3-1.8,2.2
						c-0.4,0.9-0.7,1.9-0.7,3c0,1.1,0.2,2.1,0.6,2.8c0.4,0.7,0.9,1.4,1.6,1.8c0.6,0.4,1.3,0.8,2.1,0.9c0.7,0.2,1.5,0.3,2.1,0.3
						c1.2,0,2.3-0.2,3.3-0.6c1-0.4,1.8-1,2.4-1.7l0.3-0.3l0.2,2.3h5.3v-11.4c0-2.6-0.7-4.7-2.1-6.3c-1.4-1.5-3.5-2.3-6.4-2.3
						c-1.1,0-2.2,0.1-3.1,0.2c-0.9,0.2-1.7,0.4-2.4,0.6c-0.7,0.2-1.3,0.5-1.8,0.8c-0.5,0.3-0.9,0.5-1.3,0.8l2.3,3.4
						c0.6-0.4,1.3-0.7,2.1-1c0.9-0.3,2-0.5,3.4-0.5c0.5,0,1,0.1,1.4,0.1c0.5,0.1,0.9,0.3,1.2,0.5c0.4,0.2,0.7,0.6,0.9,0.9
						c0.2,0.4,0.3,0.8,0.3,1.4l0,0.6l-0.2,0c-0.2-0.1-0.7-0.1-1.4-0.1C111.5,106.5,110.8,106.5,110.2,106.5z M109.9,115.3
						c-2,0-3.1-0.9-3.1-2.6c0-0.9,0.4-1.6,1.1-2.1c0.7-0.5,1.9-0.7,3.6-0.7c0.5,0,1,0,1.3,0.1c0.4,0,0.7,0.1,0.8,0.1l0.1,0v1.7
						c0,0.6-0.1,1.1-0.4,1.5c-0.2,0.4-0.5,0.8-0.9,1.1c-0.4,0.3-0.8,0.5-1.3,0.7C110.9,115.3,110.4,115.3,109.9,115.3z"/>
				</g>
				<g>
					<path class="st3" d="M130.4,112.5l-4.7-13.1h-6.3l8.2,19.5h5.3l8.3-19.5h-6.1l-4.6,13.1L130.4,112.5z"/>
				</g>
				<g>
					<path class="st3" d="M143.2,118.8h5.6V99.4h-5.6V118.8z"/>
				</g>
				<g>
					<path class="st3" d="M151.3,116.6c0.9,0.9,2.1,1.6,3.6,2c1.5,0.5,3.2,0.7,4.9,0.7c1.1,0,2.1-0.1,3.1-0.4c1-0.2,1.9-0.6,2.7-1.1
						c0.8-0.5,1.4-1.1,1.9-1.9c0.5-0.7,0.7-1.7,0.7-2.7c0-1.6-0.4-2.8-1.3-3.7c-0.9-0.9-2.3-1.7-4.3-2.2c-1.5-0.4-2.6-0.7-3.5-1
						c-0.9-0.3-1.4-0.9-1.4-1.6c0-0.5,0.2-0.9,0.7-1.2c0.4-0.3,1.1-0.4,2.1-0.4c1,0,2,0.2,2.8,0.5c0.8,0.3,1.5,0.7,2.1,1l2.4-3.7
						c-1-0.7-2.1-1.2-3.3-1.5c-1.2-0.4-2.7-0.6-4.3-0.6c-1.1,0-2.2,0.1-3.2,0.4c-1,0.3-1.8,0.7-2.6,1.2c-0.7,0.5-1.3,1.1-1.7,1.9
						c-0.4,0.7-0.6,1.5-0.6,2.4c0,0.9,0.2,1.6,0.5,2.2c0.3,0.6,0.8,1.2,1.3,1.6c0.6,0.5,1.2,0.8,1.9,1.2c0.7,0.3,1.5,0.6,2.2,0.8
						c0.9,0.2,1.7,0.5,2.3,0.7c0.6,0.2,1.1,0.4,1.4,0.6c0.4,0.2,0.6,0.4,0.7,0.6c0.1,0.2,0.2,0.5,0.2,0.8c0,0.7-0.3,1.2-1,1.4
						c-0.6,0.2-1.4,0.3-2.3,0.3c-1,0-2-0.2-3.1-0.6c-1-0.4-1.8-0.8-2.4-1.4L151.3,116.6z"/>
				</g>
			</g>
			<g>
				<path class="st3" d="M146,91.3c-1.6,0-2.8,1.3-2.8,2.8c0,1.6,1.3,2.8,2.8,2.8c1.6,0,2.8-1.3,2.8-2.8
					C148.8,92.6,147.5,91.3,146,91.3z"/>
			</g>
		</g>
	</g>
</g>
<g id="clearspace">
	<g>
	</g>
</g>
</svg>
