<svg xmlns="http://www.w3.org/2000/svg" viewBox="0 0 1237.17 129"><defs><style>.cls-1{fill:#747474;}.cls-2{fill:#f05225;}.cls-3{fill:#7fbb42;}.cls-4{fill:#33a0da;}.cls-5{fill:#fdb813;}.cls-6{fill:#6c6b6b;}.cls-7{fill:#e21e2a;}</style></defs><g id="Layer_2" data-name="Layer 2"><g id="Layer_1-2" data-name="Layer 1"><path class="cls-1" d="M213.2,74.3l-3.6,10.2h-.3a72.42,72.42,0,0,0-3.5-10L186.5,26H167.6v77.3h12.5V55.6c0-3,0-6.4-.1-10.6-.1-2.1-.3-3.7-.4-4.9h.3a46.71,46.71,0,0,0,1.8,6.6l23.2,56.4h8.8l23-56.9a60.58,60.58,0,0,0,1.5-6.1h.3c-.3,5.7-.5,10.8-.6,13.9v49h13.3V25.8H233Zm50.6-26.7h13V103h-13Zm6.6-23.4a7.79,7.79,0,0,0-5.5,2.2,7.37,7.37,0,0,0,0,10.7,7.71,7.71,0,0,0,5.5,2.1,8,8,0,0,0,5.5-2.1,7,7,0,0,0,2.3-5.3,7.41,7.41,0,0,0-2.3-5.4,7.29,7.29,0,0,0-5.5-2.2m52.5,22.9a36.26,36.26,0,0,0-7.3-.8,31.37,31.37,0,0,0-15.8,3.9,26.12,26.12,0,0,0-10.4,10.7,34,34,0,0,0-3.6,16,29.68,29.68,0,0,0,3.5,14.3,24,24,0,0,0,9.8,9.9,28.85,28.85,0,0,0,14.3,3.5,31.43,31.43,0,0,0,15.7-3.7l.1-.1v-12l-.5.4a22.35,22.35,0,0,1-6.3,3.3,19.27,19.27,0,0,1-6.2,1.2c-5.2,0-9.3-1.5-12.2-4.8s-4.5-7.6-4.5-13.1c0-5.7,1.5-10.2,4.6-13.5a16.05,16.05,0,0,1,12.2-5,21.28,21.28,0,0,1,12.4,4.2l.5.4V49.2l-.1-.1a30.15,30.15,0,0,0-6.2-2m42.9-.4a13.72,13.72,0,0,0-8.8,3.1c-2.2,1.8-3.7,4.4-5,7.5h-.1V47.6h-13V103h13V74.7c0-4.8,1-8.8,3.2-11.7a10,10,0,0,1,8.4-4.5,32.07,32.07,0,0,1,3.9.5,10.26,10.26,0,0,1,3.1,1.3l.5.4v-13l-.3-.1a9.88,9.88,0,0,0-4.9-.9m35.4-.3c-9.1,0-16.4,2.7-21.5,8S372,67,372,76.2c0,8.6,2.6,15.6,7.6,20.7s11.8,7.6,20.3,7.6c8.9,0,16-2.7,21.1-8.1s7.7-12.6,7.7-21.5-2.4-15.8-7.3-20.9c-4.7-5.1-11.6-7.6-20.2-7.6M411.6,89c-2.4,3.1-6.2,4.6-10.9,4.6s-8.5-1.5-11.2-4.8c-2.7-3.1-4-7.6-4-13.3,0-5.9,1.4-10.4,4-13.6s6.4-4.8,11.1-4.8,8.2,1.5,10.8,4.6,4,7.6,4,13.5c-.2,6-1.3,10.7-3.8,13.8m46.1-18.4c-4.1-1.7-6.7-3-7.9-4.1a5.68,5.68,0,0,1-1.5-4.2,4.65,4.65,0,0,1,2.1-4,9.63,9.63,0,0,1,5.7-1.5,25.89,25.89,0,0,1,6.7,1,17.24,17.24,0,0,1,5.8,2.7l.5.4V48.7l-.3-.1a36.08,36.08,0,0,0-5.9-1.7,40.09,40.09,0,0,0-6.4-.6c-6.2,0-11.3,1.5-15.3,4.8a14.78,14.78,0,0,0-5.9,12.2,15.88,15.88,0,0,0,1.3,6.8,15.16,15.16,0,0,0,4,5.2,34.85,34.85,0,0,0,8,4.5c3,1.3,5.3,2.3,6.7,3.1a13.57,13.57,0,0,1,3,2.4,5.69,5.69,0,0,1,.8,3.1c0,3.7-2.8,5.5-8.5,5.5a22.44,22.44,0,0,1-7.2-1.3,27.82,27.82,0,0,1-7.3-3.7l-.5-.4v12.7l.3.1a38.79,38.79,0,0,0,7,2.2,44.65,44.65,0,0,0,7.5.9c6.7,0,12.2-1.5,16.1-4.8A15.31,15.31,0,0,0,472.6,87a14,14,0,0,0-3.2-9.5,40.55,40.55,0,0,0-11.7-6.9m49.2-24.2c-9.1,0-16.4,2.7-21.5,8s-7.7,12.6-7.7,21.8c0,8.6,2.6,15.6,7.6,20.7s11.8,7.6,20.3,7.6c8.9,0,16-2.7,21.1-8.1s7.7-12.6,7.7-21.5S532,59.1,527.1,54c-4.7-5.1-11.6-7.6-20.2-7.6M517.2,89c-2.4,3.1-6.2,4.6-10.9,4.6s-8.5-1.5-11.2-4.8c-2.7-3.1-4-7.6-4-13.3,0-5.9,1.4-10.4,4-13.6s6.4-4.8,11.1-4.8c4.5,0,8.2,1.5,10.8,4.6s4,7.6,4,13.5-1.3,10.7-3.8,13.8m86.7-30.7V47.6H590.8V31.2l-.4.1L578,35l-.3.1V47.6H558.1v-7c0-3.2.8-5.7,2.2-7.3a7.76,7.76,0,0,1,6.1-2.4,14.59,14.59,0,0,1,5.8,1.3l.5.3V21.2l-.3-.1a25,25,0,0,0-17.7,1.4,17.35,17.35,0,0,0-7.1,7.1A20.46,20.46,0,0,0,545,39.9v7.7h-9.1V58.2H545V103h13.1V58.3h19.6V86.8c0,11.7,5.5,17.6,16.5,17.6a34.27,34.27,0,0,0,5.5-.6,18,18,0,0,0,4.1-1.3l.1-.1V91.7l-.5.4a8.45,8.45,0,0,1-2.7,1.2,9.15,9.15,0,0,1-2.6.4c-2.6,0-4.4-.6-5.7-2.1s-1.8-3.7-1.8-7.1V58.3Z"/><path class="cls-2" d="M0,0H61.3V61.3H0Z"/><path class="cls-3" d="M67.7,0H129V61.3H67.7Z"/><path class="cls-4" d="M0,67.7H61.3V129H0Z"/><path class="cls-5" d="M67.7,67.7H129V129H67.7Z"/><g id="Layer_2-2" data-name="Layer 2"><g id="Layer_1-2-2" data-name="Layer 1-2"><path class="cls-6" d="M714.39,115.25a4.83,4.83,0,0,1,.42-2,4.7,4.7,0,0,1,8.75,0,4.82,4.82,0,0,1-8.7,4.15,4.92,4.92,0,0,1-.47-2.16M793.11,8.86a4.83,4.83,0,0,1,4.83,4.83v.08a4.74,4.74,0,0,1-.42,2,4.7,4.7,0,0,1-8.75,0,5.07,5.07,0,0,1-.42-2,4.83,4.83,0,0,1,4.79-4.88h0m-69.59,93.34V80.87L794.5,56.75a4.44,4.44,0,0,0,3-4.21V26.77a13.56,13.56,0,1,0-8.74,0V49.35L717.79,73.54a4.43,4.43,0,0,0-3,4.2v24.49a13.55,13.55,0,1,0,8.75,0"/><path class="cls-7" d="M724,13.75a5,5,0,0,1-.42,2,4.7,4.7,0,0,1-8.75,0,4.8,4.8,0,0,1-.42-2A4.8,4.8,0,1,1,724,13.2a5,5,0,0,1,0,.55m32.16,19.56a4.88,4.88,0,0,1,0,9.75h-.46a4.85,4.85,0,0,1-4.33-4.84,5,5,0,0,1,1.56-3.6,4.86,4.86,0,0,1,3.24-1.28m-41.34-6.57v24a4.49,4.49,0,0,0,1.77,3.61,4.34,4.34,0,0,0,2.55.83,4.76,4.76,0,0,0,1.4-.22l24.83-8.45a13.39,13.39,0,0,0,10.73,5.41,13.77,13.77,0,1,0-13.53-14c0,.06,0,.12,0,.17l-19,6.48V26.77a13.72,13.72,0,0,0,9.17-13,13.54,13.54,0,1,0-17.92,13"/><path class="cls-7" d="M788.3,115.25a4.88,4.88,0,0,1,.43-2,4.69,4.69,0,0,1,8.76,0,4.82,4.82,0,1,1-9.19,2M756.15,96.89a4.87,4.87,0,0,1,0-9.73h.45A4.86,4.86,0,0,1,760.94,92a4.91,4.91,0,0,1-1.57,3.6,4.73,4.73,0,0,1-3.23,1.27m41.33,5.33V79.47a4.49,4.49,0,0,0-1.83-3.62,4.34,4.34,0,0,0-4-.61l-24.81,8.45a13.47,13.47,0,0,0-10.72-5.46,13.77,13.77,0,1,0,13.63,13.91v0l19-6.48v16.6a13.55,13.55,0,1,0,8.77,0"/><path class="cls-7" d="M871.24,44.5a4.23,4.23,0,0,0-3,1,3.22,3.22,0,0,0-1.13,2.38V61.13H851.5V47.89a3.14,3.14,0,0,0-1.1-2.38,4,4,0,0,0-2.83-1,4.29,4.29,0,0,0-2.93,1,3.16,3.16,0,0,0-1.17,2.39V81.16a3.16,3.16,0,0,0,1.17,2.39,4.3,4.3,0,0,0,2.93,1,4,4,0,0,0,2.83-1,3.1,3.1,0,0,0,1.1-2.37V68.64h15.64V81.16a3.2,3.2,0,0,0,1.13,2.37,4.2,4.2,0,0,0,3,1,4,4,0,0,0,2.8-1,3.2,3.2,0,0,0,1.13-2.37V47.89A3.22,3.22,0,0,0,874,45.51a4,4,0,0,0-2.8-1"/><path class="cls-7" d="M959.45,57v1.12A3.54,3.54,0,0,1,958,61a8.79,8.79,0,0,1-5.27,1.22H946v-10h6.76A8.25,8.25,0,0,1,958,53.52,4.24,4.24,0,0,1,959.45,57m2.13,9.39A9.53,9.53,0,0,0,966,63a10,10,0,0,0,1.46-5.49v-.41a14.35,14.35,0,0,0-.8-4.9,9.32,9.32,0,0,0-2.56-3.83,11.6,11.6,0,0,0-4.6-2.46,24,24,0,0,0-6.79-.84H942a4.24,4.24,0,0,0-2.93,1,3.14,3.14,0,0,0-1.17,2.38V81a3.42,3.42,0,0,0,1.16,2.46A4.05,4.05,0,0,0,942,84.55a4.14,4.14,0,0,0,2.82-.94A3.16,3.16,0,0,0,946,81.28V69.22h8.43L960.66,83a3.3,3.3,0,0,0,2.11,1.49,3.55,3.55,0,0,0,1,.14,4.48,4.48,0,0,0,2-.53,4.73,4.73,0,0,0,2-2.34,2.56,2.56,0,0,0-.22-2.59Z"/><path class="cls-7" d="M1004.58,61v7.82a7.53,7.53,0,0,1-2.05,5.71,8.3,8.3,0,0,1-5.89,1.93h-6.07V52.59h6.07a7.48,7.48,0,0,1,5.85,2.17,8.91,8.91,0,0,1,2.09,6.26m4.19-11.09a14.3,14.3,0,0,0-5-3.59,18,18,0,0,0-7.07-1.3h-10a4.13,4.13,0,0,0-3,1,3.1,3.1,0,0,0-1.18,2.44V80.58A3.11,3.11,0,0,0,983.7,83a4.22,4.22,0,0,0,3,1h10a18.89,18.89,0,0,0,7.06-1.22,13.25,13.25,0,0,0,7.92-8.45,19.91,19.91,0,0,0,.94-6.13V61.64a21.57,21.57,0,0,0-.94-6.38,14.35,14.35,0,0,0-2.9-5.29"/><path class="cls-7" d="M1110,68.65h-8.82l4.38-12.78Zm1-21.34s-1-2.75-5.49-2.75-5.51,2.83-5.51,2.83L1088.73,80a3.16,3.16,0,0,0,.46,2.6,4.16,4.16,0,0,0,2.6,1.78,4.91,4.91,0,0,0,1.15.16,3.86,3.86,0,0,0,1.8-.44,3.51,3.51,0,0,0,1.8-2l2.24-6.45h13.72l2.21,6.37a3.22,3.22,0,0,0,1.73,2,4.17,4.17,0,0,0,3,.28,4,4,0,0,0,2.58-1.78,3.27,3.27,0,0,0,.4-2.62Z"/><path class="cls-7" d="M1158.47,57v1.12a3.58,3.58,0,0,1-1.47,3,8.6,8.6,0,0,1-5.26,1.22H1145V52.23h6.76a8.22,8.22,0,0,1,5.24,1.29,4.29,4.29,0,0,1,1.49,3.48m2.11,9.39A9.37,9.37,0,0,0,1165,63a10,10,0,0,0,1.47-5.49v-.41a14.1,14.1,0,0,0-.79-4.9,9.44,9.44,0,0,0-2.57-3.83,11.7,11.7,0,0,0-4.69-2.46,46,46,0,0,0-9.3-.84h-8.09a4.21,4.21,0,0,0-2.92,1,3.08,3.08,0,0,0-1.17,2.38V81a3.46,3.46,0,0,0,1.14,2.46,4.58,4.58,0,0,0,5.77.17,3.13,3.13,0,0,0,1.11-2.33V69.22h8.47L1159.7,83a3.28,3.28,0,0,0,2.12,1.49,3.5,3.5,0,0,0,1,.14,4.52,4.52,0,0,0,2-.53,4.83,4.83,0,0,0,2-2.34,2.64,2.64,0,0,0-.22-2.59Z"/><path class="cls-7" d="M1185.69,44.5a4.23,4.23,0,0,0-3,1,3.13,3.13,0,0,0-1.13,2.38V81.11a3.13,3.13,0,0,0,1.13,2.38,4.23,4.23,0,0,0,3,1,4,4,0,0,0,2.8-1,3.13,3.13,0,0,0,1.13-2.38V47.89a3.13,3.13,0,0,0-1.13-2.38,4,4,0,0,0-2.8-1"/><path class="cls-7" d="M1220.54,77c-2.26,0-5.32-.63-6.62-1.87s-2-3.36-2-6.38V60.41c0-3,.66-5.16,2-6.38s4.36-1.87,6.62-1.87,5.42.63,6.68,1.87,1.89,3.36,1.89,6.38V68.7c0,3-.64,5.16-1.89,6.38s-4.35,1.87-6.68,1.87m15.64-22.75a13.58,13.58,0,0,0-2.82-5.09,13.42,13.42,0,0,0-4.8-3.39,27,27,0,0,0-16.08,0,13.31,13.31,0,0,0-4.77,3.39,13.79,13.79,0,0,0-2.79,5.09,21.08,21.08,0,0,0-.91,6.26v8.23a21,21,0,0,0,.91,6.25,13.79,13.79,0,0,0,2.79,5.09,13,13,0,0,0,4.85,3.3,27,27,0,0,0,16.08,0,12.92,12.92,0,0,0,4.8-3.4,13.46,13.46,0,0,0,2.82-5.08,21.08,21.08,0,0,0,.91-6.26V60.41a21.08,21.08,0,0,0-.91-6.26"/><path class="cls-7" d="M1078.27,46.73a4,4,0,0,0-2.26-2.08,4,4,0,0,0-5,2.44l0,0-7.35,21.23-7.29-21.26a4.13,4.13,0,0,0-3.79-2.68,3.93,3.93,0,0,0-3.72,2.7l-7.36,21.26-7.26-21.26a4,4,0,0,0-2-2.3,3.74,3.74,0,0,0-3-.16,4.07,4.07,0,0,0-2.41,5.13l11.07,32a4,4,0,0,0,3.74,2.76,4,4,0,0,0,3.75-2.73l7.34-21.24L1060,81.8a3.93,3.93,0,0,0,7.46,0l11.09-32.08a4,4,0,0,0-.15-3.13"/><path class="cls-7" d="M911,68.62H902.2l4.39-12.78Zm1.13-21.34s-1-2.75-5.5-2.75-5.49,2.83-5.49,2.83L889.74,80a3.11,3.11,0,0,0,.43,2.6,4.23,4.23,0,0,0,2.62,1.78,4.91,4.91,0,0,0,1.15.16,3.85,3.85,0,0,0,1.79-.44,3.52,3.52,0,0,0,1.8-2l2.23-6.43h13.73L915.71,82a3.15,3.15,0,0,0,1.72,2,4.26,4.26,0,0,0,3,.28,4,4,0,0,0,2.66-1.79,3.23,3.23,0,0,0,.4-2.62Z"/></g></g></g></g></svg>