<svg xmlns="http://www.w3.org/2000/svg" viewBox="0 0 394.29 493.83" xmlns:v="https://vecta.io/nano"><style>.A{isolation:isolate}.I{mix-blend-mode:multiply}</style><defs><linearGradient id="A" x1="87.46" y1="337.53" x2="318.64" y2="204.06" gradientUnits="userSpaceOnUse"><stop offset="0" stop-color="#d4d4d4"/><stop offset="1" stop-color="#fff"/></linearGradient></defs><g class="A"><g><g><path d="M394.3 427.4l-84.36 48.63V188.97l84.36-48.63V427.4z" fill="#b3b3b3"/><path d="M126.3 48.38L210.23 0l153.52 88.64-83.94 48.38L126.3 48.38z" fill="#e6e6e6"/><path d="M279.8 137.02l83.94-48.38 30.54 51.7-84.36 48.63-30.12-51.95z" fill="#ccc"/><path d="M294.93 124.4L136.63 33l-33.5 19.1v292.55l33.5 57.77 158.3 91.4 33.5-19.1V182.18zm27.73 344.25l-30.12 17.18L139 397.2l-30.1-51.95V58.18L139 41l153.52 88.64 30.12 51.94z" fill="#e0341b"/><path d="M382.66 443.5l-54.24 31.23V182.18l54.24-31.22V443.5z" fill="#a8190a"/><path d="M136.63 33.02l53.9-31.04 158.3 91.4-53.9 31.04-158.3-91.4z" fill="#e26558"/><path d="M294.93 124.4l53.9-31.04 33.82 57.6-54.24 31.22-33.5-57.77z" fill="#e0341b"/><path d="M279.8 137.02L126.28 48.38l-30.1 17.17v287.07l30.1 51.95L279.8 493.2l30.12-17.17V188.97l-30.12-51.95z" fill="url(#A)"/><g class="I"><path d="M152.9 325.05c-3.7-2.13-6.68.13-6.68 5.05h0c0 4.6 2.6 9.86 5.94 12.28h30.75z" fill="#ccc"/><path d="M253.2 382.94l-70.27-40.56h-30.75a8.6 8.6 0 0 0 .74.49l100.28 57.9c3.7 2.13 6.68-.13 6.68-5.05h0c0-4.92-3-10.64-6.68-12.77z" fill="#e6e6e6"/><path d="M152.9 293.07c-3.7-2.13-6.68.13-6.68 5.05h0c0 4.58 2.6 9.86 5.94 12.28h30.75z" fill="#ccc"/><path d="M253.2 351l-70.27-40.6h-30.75a8.6 8.6 0 0 0 .74.49l100.28 57.9c3.7 2.13 6.68-.13 6.68-5h0c0-4.97-3-10.7-6.68-12.78z" fill="#e6e6e6"/><path d="M152.9 255.94c-3.7-2.13-6.68.13-6.68 5.05h0c0 4.6 2.6 9.86 5.94 12.28h30.75z" fill="#ccc"/><path d="M253.2 313.83l-70.27-40.56h-30.75a8.6 8.6 0 0 0 .74.49l100.28 57.9c3.7 2.13 6.68-.13 6.68-5h0c0-4.97-3-10.65-6.68-12.82z" fill="#e6e6e6"/><path d="M152.9 119.46c-3.7-2.13-6.68.13-6.68 5.05h0c0 4.6 2.6 9.86 5.94 12.28h30.75z" fill="#ccc"/><path d="M253.2 177.36l-70.27-40.57h-30.75a8.6 8.6 0 0 0 .74.49l100.28 57.9c3.7 2.13 6.68-.13 6.68-5h0c0-4.97-3-10.68-6.68-12.8z" fill="#e6e6e6"/><g fill="#ccc"><ellipse cx="264.38" cy="161.66" rx="5.8" ry="10.05" transform="matrix(.863307 -.504678 .504678 .863307 -45.45 155.53)"/><ellipse cx="136.44" cy="87.8" rx="5.8" ry="10.05" transform="matrix(.863307 -.504678 .504678 .863307 -25.66 80.86)"/><ellipse cx="264.38" cy="449.91" rx="5.8" ry="10.05" transform="matrix(.863307 -.504678 .504678 .863307 -190.92 194.93)"/><ellipse cx="136.44" cy="376.05" rx="5.8" ry="10.05" transform="matrix(.863307 -.504678 .504678 .863307 -171.13 120.27)"/></g></g><g fill="none" stroke="#e2887f" stroke-miterlimit="10" stroke-width=".98" stroke-dasharray="4.3"><path d="M56.95 358.2l163.16-93.22M4.85 276.76L167 184.17"/></g><g fill="gray"><path d="M195.2 182.9c-19-11-34.38-2.2-34.38 19.6s15.4 48.34 34.38 59.3 34.38 2.2 34.38-19.6-15.4-48.33-34.38-59.3zm0 71.8c-15.57-9-28.2-30.7-28.2-48.62S179.63 181 195.2 190s28.2 30.76 28.2 48.62-12.62 25.07-28.2 16.08zm22.32-4.1a22 22 0 0 0-8.24-9.49l-.82-.43-.17-.08c-.36-.2-.65-.06-.7.32v.45c0 .66-.47.92-1 .6a2.28 2.28 0 0 1-1-1.78 2 2 0 0 1 .19-.62 27.66 27.66 0 0 0 2.73-12.82c0-9.4-3.26-19.77-8.55-29l-.6-1.05a14 14 0 0 0-4.83-5.07l-.66-.33a26 26 0 0 0-7.11-2.6h-.17c-.44 0-.75.36-.75 1a2.65 2.65 0 0 0 .32 1.18l.24.42a104.54 104.54 0 0 1 6.14 9.89l.18.33a1.77 1.77 0 0 1 .27.89c0 .54-.4.76-.86.5a1.79 1.79 0 0 1-.61-.64l-.27-.52a99.73 99.73 0 0 0-6.84-10.79l-.77-1a5.1 5.1 0 0 0-1.15-.95 2.48 2.48 0 0 0-1.16-.37h-.47a12.88 12.88 0 0 0-6 2.68l-.28.44a1.33 1.33 0 0 0-.11.56 3 3 0 0 0 .61 1.66l.26.33a58.48 58.48 0 0 1 7.16 7.91l.24.28a1.82 1.82 0 0 1 .34 1c0 .55-.38.77-.85.5a1.59 1.59 0 0 1-.4-.34l-.3-.34a53.75 53.75 0 0 0-7.21-7.86l-.78-.6c-.83-.48-1.54-.33-1.87.3l-.2.23a19.59 19.59 0 0 0-2.1 5.79v.42a1.34 1.34 0 0 0 0 .2 3.05 3.05 0 0 0 1.37 2.37l.4.2.55.3c7.8 4.5 14.24 15 15 24.2l.06.57a1 1 0 0 1 0 .17c0 .87-.62 1.22-1.38.78l-.53-.35a8.24 8.24 0 0 1-1.92-2.11l-.26-.32a22.56 22.56 0 0 0-3-3.43s-1.1-.74-1.75-1.08l-6.44-3.72c-.38-.22-.7 0-.7.4a1.4 1.4 0 0 0 .25.74v.07a23.39 23.39 0 0 1 4.58 10.74h0a1.56 1.56 0 0 0 .59 1.13l1.38.8a9.92 9.92 0 0 0 4 1.38l1.9.07a10.53 10.53 0 0 1 3.5 1.33l19.62 11.33a2.29 2.29 0 0 1 1 1.78v.53a1.53 1.53 0 0 0 .46 1l.26.2q.48.33 1 .6c3.4 2 6.4 1.82 8.3 0a2 2 0 0 0 .18-.25c-.14-.33-.3-.62-.3-.62zm-18.25-15.27a8.32 8.32 0 0 1-3.78-6.52c0-2.4 1.7-3.36 3.78-2.16a8.35 8.35 0 0 1 3.79 6.53c0 2.4-1.7 3.36-3.8 2.15z"/></g><path d="M40.62 327.32l162.44-92.53" fill="none" stroke="#e2887f" stroke-miterlimit="10" stroke-width=".98" stroke-dasharray="4.3"/><g fill="#e0341b"><path d="M34.38 276C15.38 265 0 273.8 0 295.6s15.4 48.4 34.38 59.3 34.38 2.2 34.38-19.6S53.37 287 34.38 276zm0 71.8c-15.57-9-28.2-30.75-28.2-48.62s12.62-25.06 28.2-16.07 28.2 30.76 28.2 48.62S50 356.8 34.38 347.8zm22.32-4.1a22 22 0 0 0-8.24-9.49l-.82-.43-.17-.08c-.36-.2-.66-.06-.7.32v.45c0 .66-.46.92-1 .6a2.26 2.26 0 0 1-1-1.78 2.06 2.06 0 0 1 .19-.62 27.63 27.63 0 0 0 2.73-12.82c0-9.38-3.26-19.77-8.56-29.05l-.6-1a14.21 14.21 0 0 0-4.83-5.07l-.67-.33a25.9 25.9 0 0 0-7.1-2.6h-.17c-.45 0-.75.36-.75 1a2.61 2.61 0 0 0 .32 1.18l.24.42a106.63 106.63 0 0 1 6.14 9.89l.18.33a1.75 1.75 0 0 1 .26.89c0 .54-.38.76-.85.5a1.71 1.71 0 0 1-.61-.64l-.28-.52A101.22 101.22 0 0 0 23.5 284l-.77-1a5.1 5.1 0 0 0-1.15-1 2.52 2.52 0 0 0-1.16-.37h-.47a12.88 12.88 0 0 0-6 2.68l-.28.44a1.33 1.33 0 0 0-.11.56 3 3 0 0 0 .61 1.66l.26.33a58.48 58.48 0 0 1 7.16 7.91l.23.28a1.76 1.76 0 0 1 .35 1c0 .54-.38.76-.86.5a1.75 1.75 0 0 1-.39-.33l-.3-.35a54.27 54.27 0 0 0-7.21-7.86l-.78-.6c-.83-.48-1.54-.33-1.87.3l-.2.23a19.7 19.7 0 0 0-2.1 5.79v.42a1.34 1.34 0 0 0 0 .2 3.05 3.05 0 0 0 1.37 2.37l.4.2.55.3c7.8 4.5 14.24 15 15 24.2l.06.57v.17c0 .87-.62 1.22-1.38.8l-.53-.36a8.24 8.24 0 0 1-1.96-2.11l-.26-.32a22.56 22.56 0 0 0-3-3.43s-1.1-.74-1.75-1.08l-6.44-3.72c-.38-.2-.7 0-.7.4a1.44 1.44 0 0 0 .24.73v.07a23.31 23.31 0 0 1 4.59 10.74h0a1.56 1.56 0 0 0 .59 1.13l1.38.8a9.77 9.77 0 0 0 4 1.38l1.9.08a10.36 10.36 0 0 1 3.54 1.3l19.63 11.33a2.28 2.28 0 0 1 1 1.78v.54a1.57 1.57 0 0 0 .46 1l.26.2a9.6 9.6 0 0 0 1 .6c3.4 2 6.4 1.82 8.3 0a2 2 0 0 0 .18-.25c-.06-.2-.2-.5-.2-.5zm-18.25-15.27a8.31 8.31 0 0 1-3.78-6.52c0-2.4 1.7-3.36 3.78-2.15a8.31 8.31 0 0 1 3.78 6.52c0 2.4-1.7 3.36-3.78 2.15z"/></g></g></g></g></svg>