<svg xmlns="http://www.w3.org/2000/svg" xmlns:xlink="http://www.w3.org/1999/xlink" viewBox="0 0 394.29 493.83"><defs><style>.cls-1{isolation:isolate;}.cls-2{fill:#b3b3b3;}.cls-3{fill:#e6e6e6;}.cls-4{fill:#ccc;}.cls-5{fill:#e0341b;}.cls-6{fill:#a8190a;}.cls-7{fill:#e26558;}.cls-8{fill:url(#linear-gradient);}.cls-9{mix-blend-mode:multiply;}.cls-10{fill:none;stroke:#e2887f;stroke-miterlimit:10;stroke-width:0.98px;stroke-dasharray:4.3;}.cls-11{fill:gray;}</style><linearGradient id="linear-gradient" x1="-9244.09" y1="337.53" x2="-9012.91" y2="204.06" gradientTransform="translate(9331.55)" gradientUnits="userSpaceOnUse"><stop offset="0" stop-color="#d4d4d4"/><stop offset="1" stop-color="#fff"/></linearGradient></defs><title>Asset 54</title><g class="cls-1"><g id="Layer_2" data-name="Layer 2"><g id="Layer_1-2" data-name="Layer 1"><polygon class="cls-2" points="394.29 427.41 309.93 476.04 309.93 188.97 394.29 140.34 394.29 427.41"/><polygon class="cls-3" points="126.29 48.38 210.23 0 363.75 88.64 279.81 137.02 126.29 48.38"/><polygon class="cls-4" points="279.81 137.02 363.75 88.64 394.29 140.34 309.93 188.97 279.81 137.02"/><path class="cls-5" d="M294.93,124.41,136.63,33,103.14,52.11V344.66l33.49,57.77,158.3,91.4,33.49-19.1V182.18Zm27.73,344.25-30.12,17.18L139,397.2,108.9,345.25V58.18L139,41l153.52,88.64,30.12,51.94Z"/><polygon class="cls-6" points="382.66 443.49 328.42 474.72 328.42 182.18 382.66 150.96 382.66 443.49"/><polygon class="cls-7" points="136.63 33.02 190.54 1.98 348.84 93.37 294.93 124.41 136.63 33.02"/><polygon class="cls-5" points="294.93 124.41 348.84 93.37 382.66 150.96 328.42 182.18 294.93 124.41"/><polygon class="cls-8" points="279.81 137.02 126.28 48.38 96.17 65.55 96.17 352.62 126.28 404.57 279.81 493.21 309.93 476.04 309.93 188.97 279.81 137.02"/><g class="cls-9"><path class="cls-4" d="M152.91,325.05c-3.69-2.13-6.68.13-6.68,5.05h0c0,4.59,2.6,9.86,5.94,12.28h30.75Z"/><path class="cls-3" d="M253.19,382.94l-70.27-40.56H152.17a8.6,8.6,0,0,0,.74.49l100.28,57.89c3.69,2.13,6.68-.13,6.68-5.05h0C259.87,390.79,256.88,385.07,253.19,382.94Z"/><path class="cls-4" d="M152.91,293.07c-3.69-2.13-6.68.13-6.68,5.05h0c0,4.58,2.6,9.86,5.94,12.28h30.75Z"/><path class="cls-3" d="M253.19,351,182.92,310.4H152.17a8.6,8.6,0,0,0,.74.49l100.28,57.89c3.69,2.13,6.68-.13,6.68-5h0C259.87,358.81,256.88,353.09,253.19,351Z"/><path class="cls-4" d="M152.91,255.94c-3.69-2.13-6.68.13-6.68,5.05h0c0,4.59,2.6,9.86,5.94,12.28h30.75Z"/><path class="cls-3" d="M253.19,313.83l-70.27-40.56H152.17a8.6,8.6,0,0,0,.74.49l100.28,57.89c3.69,2.13,6.68-.13,6.68-5h0C259.87,321.68,256.88,316,253.19,313.83Z"/><path class="cls-4" d="M152.91,119.46c-3.69-2.13-6.68.13-6.68,5.05h0c0,4.59,2.6,9.86,5.94,12.28h30.75Z"/><path class="cls-3" d="M253.19,177.36l-70.27-40.57H152.17a8.6,8.6,0,0,0,.74.49l100.28,57.89c3.69,2.13,6.68-.13,6.68-5h0C259.87,185.2,256.88,179.49,253.19,177.36Z"/><ellipse class="cls-4" cx="264.38" cy="161.66" rx="5.8" ry="10.05" transform="translate(-45.45 155.53) rotate(-30.31)"/><ellipse class="cls-4" cx="136.44" cy="87.8" rx="5.8" ry="10.05" transform="translate(-25.66 80.86) rotate(-30.31)"/><ellipse class="cls-4" cx="264.38" cy="449.91" rx="5.8" ry="10.05" transform="translate(-190.92 194.93) rotate(-30.31)"/><ellipse class="cls-4" cx="136.44" cy="376.05" rx="5.8" ry="10.05" transform="translate(-171.13 120.27) rotate(-30.31)"/></g><line class="cls-10" x1="56.95" y1="358.2" x2="220.11" y2="264.98"/><line class="cls-10" x1="4.85" y1="276.76" x2="167.01" y2="184.17"/><path class="cls-11" d="M195.2,182.91c-19-11-34.38-2.19-34.38,19.6s15.39,48.34,34.38,59.3,34.38,2.19,34.38-19.61S214.19,193.87,195.2,182.91Zm0,71.79C179.63,245.71,167,224,167,206.08S179.63,181,195.2,190s28.19,30.76,28.19,48.62S210.77,263.69,195.2,254.7Z"/><path class="cls-11" d="M217.52,250.59a22,22,0,0,0-8.24-9.49c-.28-.16-.55-.3-.82-.43l-.17-.08c-.36-.2-.65-.06-.69.32l0,.45c0,.66-.47.92-1,.59a2.28,2.28,0,0,1-1-1.78,2,2,0,0,1,.19-.62,27.66,27.66,0,0,0,2.73-12.82c0-9.39-3.26-19.77-8.55-29l-.61-1.05a14,14,0,0,0-4.83-5.07l-.66-.33a26,26,0,0,0-7.11-2.6h-.17c-.44,0-.75.36-.75,1a2.65,2.65,0,0,0,.32,1.18l.24.42a104.54,104.54,0,0,1,6.14,9.89l.18.33a1.77,1.77,0,0,1,.27.89c0,.54-.39.76-.86.49a1.79,1.79,0,0,1-.61-.64l-.27-.52a99.73,99.73,0,0,0-6.84-10.79l-.77-1a5.1,5.1,0,0,0-1.15-.95,2.48,2.48,0,0,0-1.16-.37l-.47,0a12.88,12.88,0,0,0-6,2.68l-.28.44a1.33,1.33,0,0,0-.11.56,3,3,0,0,0,.61,1.66l.26.33a58.48,58.48,0,0,1,7.16,7.91l.24.28a1.82,1.82,0,0,1,.34,1c0,.55-.38.77-.85.5a1.59,1.59,0,0,1-.4-.34l-.29-.34a53.75,53.75,0,0,0-7.21-7.86l-.78-.59c-.83-.48-1.54-.33-1.87.29l-.19.23a19.59,19.59,0,0,0-2.1,5.79l0,.42a1.34,1.34,0,0,0,0,.2,3.05,3.05,0,0,0,1.37,2.37l.41.2.55.31c7.81,4.51,14.24,15,15,24.2l.06.57a1,1,0,0,1,0,.17c0,.87-.62,1.22-1.38.78l-.53-.35a8.24,8.24,0,0,1-1.92-2.11l-.26-.32a22.56,22.56,0,0,0-3-3.43s-1.09-.74-1.75-1.08l-6.44-3.72c-.38-.22-.69,0-.69.39a1.4,1.4,0,0,0,.25.74l0,.07a23.39,23.39,0,0,1,4.58,10.74v0a1.56,1.56,0,0,0,.59,1.13l1.38.8a9.92,9.92,0,0,0,4,1.38l1.89.07a10.53,10.53,0,0,1,3.5,1.33l19.62,11.33a2.29,2.29,0,0,1,1,1.78l0,.53a1.53,1.53,0,0,0,.46,1l.26.21q.48.33,1,.6c3.4,2,6.41,1.82,8.29,0a2,2,0,0,0,.18-.25C217.67,250.88,217.52,250.59,217.52,250.59Zm-18.25-15.27a8.32,8.32,0,0,1-3.78-6.52c0-2.4,1.69-3.36,3.78-2.16a8.35,8.35,0,0,1,3.79,6.53C203.06,235.56,201.36,236.53,199.27,235.32Z"/><line class="cls-10" x1="40.62" y1="327.32" x2="203.06" y2="234.79"/><path class="cls-5" d="M34.38,276c-19-11-34.38-2.19-34.38,19.6S15.39,344,34.38,354.91s34.38,2.19,34.38-19.6S53.37,287,34.38,276Zm0,71.79c-15.57-9-28.19-30.75-28.19-48.62s12.62-25.06,28.19-16.07,28.19,30.76,28.19,48.62S50,356.79,34.38,347.8Z"/><path class="cls-5" d="M56.7,343.69a22,22,0,0,0-8.24-9.49c-.28-.15-.55-.3-.82-.43l-.17-.08c-.36-.2-.66-.06-.69.32l0,.45c0,.66-.46.92-1,.59a2.26,2.26,0,0,1-1-1.78,2.06,2.06,0,0,1,.19-.62,27.63,27.63,0,0,0,2.73-12.82c0-9.38-3.26-19.77-8.56-29.05l-.6-1a14.21,14.21,0,0,0-4.83-5.07l-.67-.33a25.9,25.9,0,0,0-7.1-2.6h-.17c-.45,0-.75.36-.75,1a2.61,2.61,0,0,0,.32,1.18l.24.42a106.63,106.63,0,0,1,6.14,9.89l.18.33a1.75,1.75,0,0,1,.26.89c0,.54-.38.76-.85.49a1.71,1.71,0,0,1-.61-.64l-.28-.52A101.22,101.22,0,0,0,23.5,284l-.77-1a5.1,5.1,0,0,0-1.15-1,2.52,2.52,0,0,0-1.16-.37l-.47,0a12.88,12.88,0,0,0-6,2.68l-.28.44a1.33,1.33,0,0,0-.11.56,3,3,0,0,0,.61,1.66l.26.33a58.48,58.48,0,0,1,7.16,7.91l.23.28a1.76,1.76,0,0,1,.35,1c0,.54-.38.76-.86.49a1.75,1.75,0,0,1-.39-.33l-.29-.35a54.27,54.27,0,0,0-7.21-7.86l-.78-.59c-.83-.48-1.54-.33-1.87.29l-.19.23a19.7,19.7,0,0,0-2.1,5.79l0,.42a1.34,1.34,0,0,0,0,.2,3.05,3.05,0,0,0,1.37,2.37l.41.21.55.3c7.81,4.51,14.24,15,15,24.2l.06.57c0,.06,0,.12,0,.17,0,.87-.62,1.22-1.38.79l-.53-.36A8.24,8.24,0,0,1,22,320.92l-.26-.32a22.56,22.56,0,0,0-3-3.43s-1.09-.74-1.75-1.08l-6.44-3.72c-.38-.21-.69,0-.69.4a1.44,1.44,0,0,0,.24.73l0,.07a23.31,23.31,0,0,1,4.59,10.74v0a1.56,1.56,0,0,0,.59,1.13l1.38.8a9.77,9.77,0,0,0,4,1.38l1.89.08A10.36,10.36,0,0,1,26.09,329l19.63,11.33a2.28,2.28,0,0,1,1,1.78l0,.54a1.57,1.57,0,0,0,.46,1l.26.2a9.6,9.6,0,0,0,1,.6c3.39,2,6.41,1.82,8.29,0a2,2,0,0,0,.18-.25C56.85,344,56.7,343.69,56.7,343.69ZM38.45,328.42a8.31,8.31,0,0,1-3.78-6.52c0-2.39,1.69-3.36,3.78-2.15a8.31,8.31,0,0,1,3.78,6.52C42.23,328.67,40.54,329.63,38.45,328.42Z"/></g></g></g></svg>