<svg xmlns="http://www.w3.org/2000/svg" xmlns:xlink="http://www.w3.org/1999/xlink" viewBox="0 0 108.21 248.76" xmlns:v="https://vecta.io/nano"><defs><linearGradient id="A" x1="143.7" y1="208.91" x2="-7.32" y2="27.26" xlink:href="#I"><stop offset=".23" stop-color="#b2b2b2"/><stop offset=".64" stop-color="#d2d2d2"/><stop offset=".78" stop-color="#e3e3e3"/></linearGradient><linearGradient id="B" x1="-32.864" y1="154.231" x2="86.727" y2="86.062" xlink:href="#I"><stop offset=".23" stop-color="#c8c8c8"/><stop offset=".85" stop-color="#f9f9f9"/></linearGradient><linearGradient id="C" x1="32.367" y1="173.08" x2="55.02" y2="177.476" xlink:href="#I"><stop offset=".23" stop-color="#c8c8c8"/><stop offset=".84" stop-color="#fff"/></linearGradient><linearGradient id="D" x1="-22.384" y1="164.666" x2="-39.596" y2="161.327" xlink:href="#C" /><linearGradient id="E" y1="132.13" x2="81.29" y2="132.13" xlink:href="#I"><stop offset=".17" stop-color="#bebebe"/><stop offset=".85" stop-color="#f9f9f9"/></linearGradient><linearGradient id="F" x1="29.221" y1="160.055" x2="47.627" y2="170.815" xlink:href="#I"><stop offset="0" stop-color="#e26559"/><stop offset="1" stop-color="#dd392e"/></linearGradient><linearGradient id="G" x1="21.88" y1="164.372" x2="40.285" y2="175.132" xlink:href="#F" /><linearGradient id="H" x1="14.543" y1="168.697" x2="32.94" y2="179.452" xlink:href="#F" /><linearGradient id="I" gradientUnits="userSpaceOnUse"/></defs><path d="M97.08 35.42L38 1.33c-2.83-1.65-5.45-1.7-7.42-.47h0L4 16.12c1.93-1 4.4-.9 7.1.68l59.06 34.08C76.3 54.43 81.3 64 81.3 72.14V239c0 4.53-1.52 7.7-3.92 9v.05l26.63-15.3c2.56-1.24 4.2-4.48 4.2-9.18V56.68c0-8.2-5-17.68-11.13-21.26z" fill="url(#A)"/><path d="M70.17 247.43l-59-34.1C5 209.8 0 200.28 0 192.1V25.2c0-8.2 5-11.95 11.12-8.4l59.05 34.08C76.3 54.43 81.3 64 81.3 72.14V239c0 8.2-4.98 12-11.12 8.43z" fill="url(#B)"/><g transform="matrix(.863307 -.504678 .504678 .863307 -78.18 42.19)"><ellipse cx="38.8" cy="165.42" rx="11.42" ry="19.78" fill="url(#C)"/><ellipse cx="38.8" cy="165.42" rx="8.68" ry="15.03" fill="url(#D)"/></g><path d="M69.78 49.64L13.24 17a10.25 10.25 0 0 0-5.09-1.51C3.27 15.5 0 19.93 0 26.55v166.22c0 8.52 5.06 18.1 11.5 21.84l56.54 32.64a10.25 10.25 0 0 0 5.09 1.51c4.88 0 8.15-4.44 8.15-11V71.5c0-8.5-5.06-18.12-11.5-21.85zm9.8 188.07c0 7.84-4.77 11.45-10.66 8l-56.53-32.6c-5.9-3.4-10.65-12.5-10.65-20.36V26.55c0-7.85 4.76-11.45 10.65-8l56.53 32.6c5.9 3.4 10.66 12.5 10.66 20.35z" fill="url(#E)"/><ellipse cx="38.42" cy="165.44" rx="8.67" ry="15.02" transform="matrix(.863307 -.504678 .504678 .863307 -78.24 42.01)" opacity=".1" fill="url(#F)"/><ellipse cx="31.08" cy="169.75" rx="8.67" ry="15.02" transform="matrix(.863307 -.504678 .504678 .863307 -81.42 38.89)" opacity=".2" fill="url(#G)"/><ellipse cx="23.74" cy="174.07" rx="8.67" ry="15.02" transform="matrix(.863307 -.504678 .504678 .863307 -84.61 35.78)" fill="url(#H)"/></svg>