<svg xmlns="http://www.w3.org/2000/svg" xmlns:xlink="http://www.w3.org/1999/xlink" viewBox="0 0 160.75 369.57"><defs><style>.cls-1{fill:url(#linear-gradient);}.cls-2{fill:url(#linear-gradient-2);}.cls-3{fill:url(#linear-gradient-3);}.cls-4{fill:url(#linear-gradient-4);}.cls-5{fill:url(#linear-gradient-5);}</style><linearGradient id="linear-gradient" x1="213.49" y1="310.36" x2="-10.88" y2="40.5" gradientUnits="userSpaceOnUse"><stop offset="0.23" stop-color="#b2b2b2"/><stop offset="0.64" stop-color="#d2d2d2"/><stop offset="0.78" stop-color="#e3e3e3"/></linearGradient><linearGradient id="linear-gradient-2" x1="-3600.43" y1="3718.26" x2="-3294.79" y2="3541.8" gradientTransform="matrix(0.87, 0.5, 0.5, 1.44, 1231.09, -3319.41)" gradientUnits="userSpaceOnUse"><stop offset="0.23" stop-color="#c8c8c8"/><stop offset="0.85" stop-color="#f9f9f9"/></linearGradient><linearGradient id="linear-gradient-3" x1="-1056.37" y1="3647.3" x2="-1016.06" y2="3624.02" gradientTransform="matrix(0.5, 0.87, -0.58, 1, 2689.55, -2522.9)" gradientUnits="userSpaceOnUse"><stop offset="0.23" stop-color="#c8c8c8"/><stop offset="0.84" stop-color="#fff"/></linearGradient><linearGradient id="linear-gradient-4" x1="19109.05" y1="-6947.56" x2="19139.68" y2="-6965.24" gradientTransform="matrix(-0.5, -0.87, 0.58, -1, 13584.01, 9880.19)" xlink:href="#linear-gradient-3"/><linearGradient id="linear-gradient-5" y1="196.29" x2="120.77" y2="196.29" gradientUnits="userSpaceOnUse"><stop offset="0.17" stop-color="#bebebe"/><stop offset="0.85" stop-color="#f9f9f9"/></linearGradient></defs><title>Asset 28</title><g id="Layer_2" data-name="Layer 2"><g id="Layer_1-2" data-name="Layer 1"><path class="cls-1" d="M144.23,52.63,56.51,2C52.25-.48,48.36-.57,45.43,1.27h0L6,24H6c2.86-1.53,6.55-1.32,10.57,1L104.24,75.6c9.13,5.27,16.53,19.4,16.53,31.57V355.1c0,6.73-2.27,11.44-5.83,13.42l0,.08,39.55-22.83c3.8-1.85,6.24-6.66,6.24-13.64V84.2C160.75,72,153.36,57.9,144.23,52.63Z"/><path class="cls-2" d="M104.24,367.59,16.53,317C7.4,311.68,0,297.54,0,285.37V37.44C0,25.28,7.4,19.68,16.53,25L104.24,75.6c9.13,5.27,16.53,19.4,16.53,31.57V355.1C120.77,367.27,113.37,372.86,104.24,367.59Z"/><ellipse class="cls-3" cx="57.64" cy="201.19" rx="16.96" ry="29.38" transform="translate(-93.66 56.59) rotate(-30.31)"/><ellipse class="cls-4" cx="57.64" cy="201.19" rx="12.89" ry="22.32" transform="translate(-93.66 56.59) rotate(-30.31)"/><path class="cls-5" d="M103.66,73.75l-84-48.49A15.15,15.15,0,0,0,12.1,23C4.86,23,0,29.62,0,39.44V286.38C0,299,7.51,313.3,17.11,318.83l84,48.5a15.14,15.14,0,0,0,7.56,2.24c7.24,0,12.11-6.6,12.11-16.42V106.21C120.77,93.55,113.26,79.29,103.66,73.75Zm14.55,279.4c0,11.65-7.09,17-15.83,12l-84-48.5c-8.74-5-15.83-18.58-15.83-30.23V39.44c0-11.65,7.09-17,15.83-12l84,48.49c8.74,5,15.83,18.58,15.83,30.24Z"/></g></g></svg>