<svg xmlns="http://www.w3.org/2000/svg" xmlns:xlink="http://www.w3.org/1999/xlink" viewBox="0 0 108.21 248.76"><defs><style>.cls-1{fill:url(#linear-gradient);}.cls-2{fill:url(#linear-gradient-2);}.cls-3{fill:url(#linear-gradient-3);}.cls-4{fill:url(#linear-gradient-4);}.cls-5{fill:url(#linear-gradient-5);}.cls-6{opacity:0.1;fill:url(#linear-gradient-6);}.cls-7{opacity:0.2;fill:url(#linear-gradient-7);}.cls-8{fill:url(#linear-gradient-8);}</style><linearGradient id="linear-gradient" x1="143.7" y1="208.91" x2="-7.32" y2="27.26" gradientUnits="userSpaceOnUse"><stop offset="0.23" stop-color="#b2b2b2"/><stop offset="0.64" stop-color="#d2d2d2"/><stop offset="0.78" stop-color="#e3e3e3"/></linearGradient><linearGradient id="linear-gradient-2" x1="-3553.12" y1="3603.32" x2="-3347.4" y2="3484.55" gradientTransform="matrix(0.87, 0.5, 0.5, 1.44, 1256.69, -3257.99)" gradientUnits="userSpaceOnUse"><stop offset="0.23" stop-color="#c8c8c8"/><stop offset="0.85" stop-color="#f9f9f9"/></linearGradient><linearGradient id="linear-gradient-3" x1="-1061.86" y1="3581.54" x2="-1034.72" y2="3565.88" gradientTransform="matrix(0.5, 0.87, -0.58, 1, 2640.59, -2486.42)" gradientUnits="userSpaceOnUse"><stop offset="0.23" stop-color="#c8c8c8"/><stop offset="0.84" stop-color="#fff"/></linearGradient><linearGradient id="linear-gradient-4" x1="19000.97" y1="-7024.43" x2="19021.59" y2="-7036.33" gradientTransform="matrix(-0.5, -0.87, 0.58, -1, 13552.27, 9672.43)" xlink:href="#linear-gradient-3"/><linearGradient id="linear-gradient-5" y1="132.13" x2="81.29" y2="132.13" gradientUnits="userSpaceOnUse"><stop offset="0.17" stop-color="#bebebe"/><stop offset="0.85" stop-color="#f9f9f9"/></linearGradient><linearGradient id="linear-gradient-6" x1="27.76" y1="165.44" x2="49.08" y2="165.44" gradientTransform="translate(88.75 3.22) rotate(30.31)" gradientUnits="userSpaceOnUse"><stop offset="0" stop-color="#e26559"/><stop offset="1" stop-color="#dd392e"/></linearGradient><linearGradient id="linear-gradient-7" x1="20.42" y1="169.75" x2="41.74" y2="169.75" gradientTransform="translate(89.92 7.52) rotate(30.31)" xlink:href="#linear-gradient-6"/><linearGradient id="linear-gradient-8" x1="13.08" y1="174.07" x2="34.39" y2="174.07" gradientTransform="translate(91.1 11.82) rotate(30.31)" xlink:href="#linear-gradient-6"/></defs><title>Asset 35</title><g id="Layer_2" data-name="Layer 2"><g id="Layer_1-2" data-name="Layer 1"><path class="cls-1" d="M97.08,35.42,38,1.33C35.17-.32,32.55-.38,30.58.86h0L4,16.12H4c1.93-1,4.41-.89,7.11.68L70.17,50.88C76.31,54.43,81.29,64,81.29,72.14V239c0,4.53-1.52,7.7-3.92,9v.05L104,232.74c2.56-1.24,4.21-4.48,4.21-9.18V56.68C108.21,48.49,103.22,39,97.08,35.42Z"/><path class="cls-2" d="M70.17,247.43l-59-34.09C5,209.79,0,200.28,0,192.09V25.2C0,17,5,13.25,11.12,16.8L70.17,50.88C76.31,54.43,81.29,64,81.29,72.14V239C81.29,247.21,76.31,251,70.17,247.43Z"/><ellipse class="cls-3" cx="38.8" cy="165.42" rx="11.42" ry="19.78" transform="translate(-78.18 42.19) rotate(-30.31)"/><ellipse class="cls-4" cx="38.8" cy="165.42" rx="8.68" ry="15.03" transform="translate(-78.18 42.19) rotate(-30.31)"/><path class="cls-5" d="M69.78,49.64,13.24,17a10.25,10.25,0,0,0-5.09-1.51C3.27,15.49,0,19.93,0,26.55V192.77c0,8.52,5.06,18.11,11.51,21.84l56.54,32.64a10.25,10.25,0,0,0,5.09,1.51c4.88,0,8.15-4.44,8.15-11V71.49C81.29,63,76.23,53.37,69.78,49.64Zm9.79,188.07c0,7.84-4.77,11.45-10.66,8L12.38,213.12c-5.89-3.4-10.65-12.51-10.65-20.36V26.55c0-7.85,4.76-11.45,10.65-8L68.91,51.14c5.89,3.39,10.66,12.51,10.66,20.35Z"/><ellipse class="cls-6" cx="38.42" cy="165.44" rx="8.67" ry="15.02" transform="translate(-78.24 42.01) rotate(-30.31)"/><ellipse class="cls-7" cx="31.08" cy="169.75" rx="8.67" ry="15.02" transform="translate(-81.42 38.89) rotate(-30.31)"/><ellipse class="cls-8" cx="23.74" cy="174.07" rx="8.67" ry="15.02" transform="translate(-84.61 35.78) rotate(-30.31)"/></g></g></svg>