<svg xmlns="http://www.w3.org/2000/svg" xmlns:xlink="http://www.w3.org/1999/xlink" viewBox="0 0 753.6 636.2" xmlns:v="https://vecta.io/nano"><style><![CDATA[.DO{enable-background:new}.DP{fill:#fff}.DQ{fill:#e6e5e5}.DR{fill:gray}.DS{opacity:.5}.DT{fill:#31ac74}.DU{fill:none}.DV{stroke-width:.196}.DW{stroke:#fff}.DX{stroke-width:.5}.DY{stroke-linecap:round}.DZ{stroke-linejoin:round}.Da{stroke-width:.212}.Db{fill:#979797}.Dc{fill:#c1c1c1}.Dd{fill:#4e4e4e}.De{fill:#262724}.Df{stroke-miterlimit:10}.Dg{stroke-dasharray:3.0582,3.0582}]]></style><linearGradient id="A" gradientUnits="userSpaceOnUse" x1="611.302" y1="528.895" x2="588.803" y2="489.927"><stop offset="0" stop-color="#b92418"/><stop offset=".793" stop-color="#e0341d"/><stop offset=".97" stop-color="#e26557"/></linearGradient><path d="M539.1 518.3h0c-2.8 1.7-4.5 5.2-4.5 10.2 0 10.2 7.1 22.5 15.9 27.6 4.4 2.6 8.3 2.8 11.2 1.1h0l98.7-57c2.9-1.7 4.7-5.2 4.7-10.3 0-10.2-7.1-22.5-15.9-27.6-4.5-2.6-8.5-2.8-11.3-1h0l-98.8 57z" fill="url(#A)"/><image width="176" height="144" xlink:href="21AEFBB5B615742.png" transform="matrix(1.2157 0 0 1.2157 497.3177 471.2117)" overflow="visible"/><linearGradient id="B" gradientUnits="userSpaceOnUse" x1="541.064" y1="521.303" x2="560.078" y2="554.235"><stop offset=".04" stop-color="#989898"/><stop offset=".971" stop-color="#e6e5e5"/></linearGradient><path d="M550.6 553.3c-7.4-4.3-13.4-14.7-13.4-23.3s6-12.2 13.4-7.8c7.4 4.3 13.4 14.7 13.4 23.3s-6 12.1-13.4 7.8z" fill="url(#B)"/><linearGradient id="C" gradientUnits="userSpaceOnUse" x1="545.065" y1="534.55" x2="550.779" y2="544.446"><stop offset=".04" stop-color="#989898"/><stop offset=".971" stop-color="#e6e5e5"/></linearGradient><path d="M542.4 535.8c-.7.4-1.2 1.3-1.2 2.7 0 2.6 1.8 5.7 4 7.1 1.1.6 2.2.7 2.9.2h0l5.1-2.9c.7-.5 1.2-1.3 1.2-2.7 0-2.6-1.8-5.7-4-7.1-1.1-.6-2.2-.7-2.9-.2h0l-5.1 2.9z" fill="url(#C)"/><linearGradient id="D" gradientUnits="userSpaceOnUse" x1="547.526" y1="545.491" x2="542.512" y2="536.807"><stop offset=".04" stop-color="#989898"/><stop offset=".971" stop-color="#e6e5e5"/></linearGradient><path d="M541.3 538.9c0 2.3 1.6 5 3.5 6.1s3.5.2 3.5-2.1-1.6-5-3.5-6.1-3.5-.1-3.5 2.1z" fill="url(#D)"/><text transform="matrix(-.8606 .4969 -.866 -.5 638.0439 468.7084)" font-family="SpaceMono-Regular" font-size="4.156" class="DP">AAA HR03 1.2V 900mAh</text><g class="DP"><path d="M567.8 505.4c-2.8 1.3-4.6 4.6-4.6 9.4 0 9 6.3 19.8 14.1 24.3 3.9 2.3 7.4 2.4 10 1h0l70.5-40.7c2.7-1.5 4.3-4.6 4.3-9.1 0-9-6.3-19.8-14.1-24.3-4.1-2.4-7.9-2.6-10.5-.7l-69.7 40.1z" opacity=".2" class="DO"/><ellipse transform="matrix(.8633 -.5047 .5047 .8633 -184.9448 362.8417)" cx="577.3" cy="522.8" rx="11.5" ry="19.9" opacity=".2" class="DO"/><path d="M577.2 546.6v-5.3l-4.6 2.7v-2.2l4.6-2.7v-5.3l1.9-1.1v5.3l4.6-2.7v2.2l-4.6 2.7v5.3l-1.9 1.1z" opacity=".8" class="DO"/><path d="M652.8 501.2v-9.4l1.9-1.1v9.4l-1.9 1.1z" opacity=".8"/></g><g stroke="#000" class="DU DV Df DO"><path d="M21.7 273.2v190.2l164.6 95.1 164.8-95.1V273.2l-164.8-95.1z" class="DS"/><path d="M186.2 178.3v190.2l164.7 95.1 164.7-95.1V178.3L350.9 83.2z" class="DS"/><path d="M660.7 474.7l19.5-11.2V273.3l-164.8-95.2-164.7 95.2v190.2l164.7 95 29.6-17" class="DS"/></g><radialGradient id="E" cx="364.705" cy="110.357" r="126.39" gradientTransform="matrix(1 0 0 -0.639 0 585.8481)" gradientUnits="userSpaceOnUse"><stop offset="0" stop-color="#816a6a"/><stop offset=".028" stop-color="#989898"/><stop offset="1" stop-color="#fff"/></radialGradient><path d="M462.1 571.6c-53.5 30.9-140.4 30.8-194.2-.4s-54.1-81.2-.6-112.1 140.4-30.8 194.2.4c53.8 31 54.1 81.2.6 112.1z" opacity=".8" fill="url(#E)" class="DO"/><g stroke="#000" class="DU DV Df DO"><path d="M186.3 178.1v-92" opacity=".3"/><path d="M186.5 142.4l-24.5.1V91.8" opacity=".3"/></g><linearGradient id="F" gradientUnits="userSpaceOnUse" x1="181.194" y1="142.529" x2="191.987" y2="142.529"><stop offset="0" stop-color="#e26557"/><stop offset="1" stop-color="#e0341d"/></linearGradient><circle cx="186.6" cy="142.5" r="5.3" stroke="url(#F)" class="DP Da"/><linearGradient id="G" gradientUnits="userSpaceOnUse" x1="189.143" y1="92.331" x2="184.456" y2="81.505"><stop offset="0" stop-color="#e26557"/><stop offset="1" stop-color="#e0341d"/></linearGradient><circle cx="186.8" cy="87" r="5.3" stroke="url(#G)" class="DP Da"/><linearGradient id="H" gradientUnits="userSpaceOnUse" x1="165.923" y1="92.331" x2="161.235" y2="81.505"><stop offset="0" stop-color="#e26557"/><stop offset="1" stop-color="#e0341d"/></linearGradient><circle cx="163.6" cy="87" r="5.3" stroke="url(#H)" class="DP Da"/><linearGradient id="I" gradientUnits="userSpaceOnUse" x1="20.332" y1="466.562" x2="28.404" y2="461.843"><stop offset="0" stop-color="#e26557"/><stop offset="1" stop-color="#e0341d"/></linearGradient><g class="DP"><ellipse transform="matrix(.8633 -.5047 .5047 .8633 -230.9287 75.7786)" cx="24.4" cy="464.2" rx="3.8" ry="6.4" stroke="url(#I)" class="DV"/><ellipse transform="matrix(.8633 -.5047 .5047 .8633 -131.5309 55.304)" cx="36.3" cy="270.5" rx="8.8" ry="15.1" opacity=".1" class="DO"/><ellipse transform="matrix(.8633 -.5047 .5047 .8633 -134.7131 52.2198)" cx="29" cy="274.8" rx="8.8" ry="15.1" opacity=".2" class="DO"/></g><linearGradient id="J" gradientUnits="userSpaceOnUse" x1="12.289" y1="284.509" x2="30.925" y2="273.614"><stop offset="0" stop-color="#e26557"/><stop offset="1" stop-color="#e0341d"/></linearGradient><ellipse transform="matrix(.8633 -.5047 .5047 .8633 -137.8961 49.0456)" cx="21.6" cy="279.1" rx="8.8" ry="15.1" stroke="url(#J)" class="DP DV"/><path d="M683.3 422.8h0v-21.6h-8.4v21.6c-.1.7.4 1.3 1.2 1.9 1.7 1 4.4 1 6 0 .9-.6 1.3-1.3 1.2-1.9z" fill="#252532"/><linearGradient id="K" gradientUnits="userSpaceOnUse" x1="680.124" y1="414.512" x2="680.124" y2="338.995"><stop offset="0" stop-color="#a71c17"/><stop offset="1" stop-color="#e0341d"/></linearGradient><path d="M714.4 390.3c-.2-.7-.6-1.5-1-2.1-.5-.9-1-1.7-1.7-2.4l-2.1-2.9-6.1-9-3.3-4.7-11.8-17.4-3.2-4.6-3.3-4.7-2.2-3.3-9.9 14.4-10.2 15.4-.1.2-11.4 16.7c-.5.6-.9 1.1-1.1 1.7-4.3 7.1-1.3 15.3 8.4 20.9 1 .6 1.9 1.1 3 1.6 13.7 6.3 33.9 5.8 46.6-1.5 8.6-4.9 11.8-11.9 9.4-18.3z" fill="url(#K)"/><path d="M700.5 369l3.3 4.7-2.7 1.8c-9.6 5.6-25.2 5.5-34.9 0-3.3-1.8-5.5-4.1-6.4-6.6-.1-.1-.1-.4-.2-.5-1.8-4.6.4-9.6 6.6-13.1 1.3-.7 2.8-1.5 4.3-1.9 5.6-2.1 12.2-2.7 18.5-1.8 4.5.6 8.8 1.8 12.2 3.9 1.2.7 2.3 1.6 3.3 2.3 1.2 3.8-.1 7.9-4 11.2z" class="Db"/><linearGradient id="L" gradientUnits="userSpaceOnUse" x1="679.994" y1="375.093" x2="679.994" y2="321.89"><stop offset="0" stop-color="#a71c17"/><stop offset=".815" stop-color="#e0341d"/></linearGradient><path d="M704.1 357.8c-.1-.4-.4-.9-.6-1.2h0l-.1-.1c-.4-.5-.6-1.1-1.1-1.6l-12.9-19-5.6-8.1-3.9-5.7-4.6 6.7-3.5 5.2-14.5 21.3c-.2.4-.5.7-.7 1.1h0c-2.4 4.1-1.6 8.6 2.7 12.4.1.1.2.2.4.2.9.7 1.8 1.5 2.9 2.1 9.6 5.6 25.3 5.6 34.9.1 1.1-.6 2.1-1.2 2.8-1.9 4.1-3.6 5.4-7.7 3.8-11.5z" fill="url(#L)"/><path d="M689.5 335.8c-.4.4-.9.7-1.3 1-3.8 2.2-9.7 2.2-13.5 0-1.5-.9-2.4-1.9-2.7-3l3.5-5.2c2.4-1.1 5.6-1.5 8.5-1l5.5 8.2z" class="Db"/><linearGradient id="M" gradientUnits="userSpaceOnUse" x1="680.09" y1="336.321" x2="680.09" y2="315.775"><stop offset="0" stop-color="#a71c17"/><stop offset=".81" stop-color="#e0341d"/></linearGradient><path d="M689.2 329.1h0c-.1-.2-.2-.4-.4-.6l-8.8-12.8-8.8 12.9c0 .1-.1.1-.1.2l-.1.2c-1.1 1.9-.4 4.1 2.3 5.7 3.8 2.2 9.7 2.2 13.5 0 2.6-1.4 3.5-3.6 2.4-5.6z" fill="url(#M)"/><path d="M89.6 325.9l-7.4-4.3c-.9-.5-1.6-1.8-1.6-3v-19.9c0-1.1.7-1.7 1.6-1.2l7.4 4.3c.9.5 1.6 1.8 1.6 3v19.9c-.1 1.2-.8 1.6-1.6 1.2zm16.6 9.6l-7.4-4.3c-.9-.5-1.6-1.8-1.6-3v-19.9c0-1.1.7-1.7 1.6-1.2l7.4 4.3c.9.5 1.6 1.8 1.6 3v19.9c-.1 1.2-.7 1.7-1.6 1.2zm-16.6 31l-7.4-4.3c-.9-.5-1.6-1.8-1.6-3v-19.9c0-1.1.7-1.7 1.6-1.2l7.4 4.3c.9.5 1.6 1.8 1.6 3v19.9c-.1 1-.8 1.7-1.6 1.2zm16.6 9.6l-7.4-4.3c-.9-.5-1.6-1.8-1.6-3v-19.9c0-1.1.7-1.7 1.6-1.2l7.4 4.3c.9.5 1.6 1.8 1.6 3v19.9c-.1 1-.7 1.7-1.6 1.2zm-16.6 30.8l-7.4-4.3c-.9-.5-1.6-1.8-1.6-3v-19.9c0-1.1.7-1.7 1.6-1.2l7.4 4.3c.9.5 1.6 1.8 1.6 3v19.9c-.1 1.2-.8 1.7-1.6 1.2zm16.6 9.7l-7.4-4.3c-.9-.5-1.6-1.8-1.6-3v-19.9c0-1.1.7-1.7 1.6-1.2l7.4 4.3c.9.5 1.6 1.8 1.6 3v19.9c-.1 1.2-.7 1.6-1.6 1.2z" fill-rule="evenodd" fill="#e0341d"/><path d="M148.6 479.3v11.4l-17.5-10.1v-11.4z" fill="#3c7142" class="DO"/><g class="DO"><path d="M88.5 454.6l-.2 52.9-41 23.8.1-52.9z" fill="#5254a0"/><linearGradient id="N" gradientUnits="userSpaceOnUse" x1="76.192" y1="567.855" x2="76.192" y2="451.439"><stop offset="0" stop-color="#e0341d"/><stop offset="1" stop-color="#a71c17"/></linearGradient><path d="M105.1 474.1l-.2 90.5-57.6-33.3.2-90.6z" fill="url(#N)"/><linearGradient id="O" gradientUnits="userSpaceOnUse" x1="124.213" y1="587.087" x2="124.213" y2="518.66"><stop offset="0" stop-color="#e0341d"/><stop offset="1" stop-color="#a71c17"/></linearGradient><path d="M143.5 534l-.1 52.9-38.5-22.3.1-52.9z" fill="url(#O)"/><linearGradient id="P" gradientUnits="userSpaceOnUse" x1="167.493" y1="586.875" x2="167.493" y2="506.152"><stop offset="0" stop-color="#e0341d"/><stop offset="1" stop-color="#a71c17"/></linearGradient><path d="M143.5 534l-.1 52.9 7.6-4.4V577l30.1-17.4 4.5 2.7 5.8-3.4.2-52.7z" fill="url(#P)"/><linearGradient id="Q" gradientUnits="userSpaceOnUse" x1="105.064" y1="478.919" x2="153.206" y2="478.919"><stop offset="0" stop-color="#e0341d"/><stop offset="1" stop-color="#a71c17"/></linearGradient><path d="M153.1 446.1v37.8L105 511.7l.1-37.6z" fill="url(#Q)"/><linearGradient id="R" gradientUnits="userSpaceOnUse" x1="107.342" y1="477.51" x2="90.049" y2="393.515"><stop offset="0" stop-color="#95c2e9"/><stop offset="1" stop-color="#4f98d2"/></linearGradient><path d="M153.1 446.1l-48 28-57.6-33.4 48-27.9z" fill="url(#R)"/></g><linearGradient id="S" gradientUnits="userSpaceOnUse" x1="159.548" y1="541.728" x2="168.693" y2="564.59"><stop offset="0" stop-color="#979797"/><stop offset="1" stop-color="#c1c1c1"/></linearGradient><path d="M151 556.8h0V577l30.1-17.4v-20.7z" fill="url(#S)"/><path d="M181.1 538.9v20.7l4.5 2.7v-26z" fill="#39394d"/><path d="M181.1 542.6L151 560.1v.5l30.1-17.4zm0 4.8L151 564.7v.5l30.1-17.3zm0 4.6L151 569.5v.5l30.1-17.4zm-3.8 5.5v1.8l-2.1 1.3v-1.8z" class="Db"/><path d="M126.5 542.3c1.3.9 2.4 2.7 2.4 4.3s-1.1 2.2-2.6 1.5l-8.6-5c-1.3-.9-2.4-2.7-2.4-4.3s1.1-2.2 2.6-1.5l8.6 5z" class="Dc"/><linearGradient id="T" gradientUnits="userSpaceOnUse" x1="129.462" y1="484.475" x2="163.298" y2="527.761"><stop offset="0" stop-color="#252532"/><stop offset="1" stop-color="#3f4051"/></linearGradient><path d="M145.7 535.2l47.8-27.3-40.4-38.8-48 27.7-.1 14.9z" fill="url(#T)"/><linearGradient id="U" gradientUnits="userSpaceOnUse" x1="105.064" y1="515.999" x2="145.708" y2="515.999"><stop offset="0" stop-color="#252532"/><stop offset="1" stop-color="#3f4051"/></linearGradient><path d="M105.1 496.8l40.6 38.4-40.7-23.5z" fill="url(#U)"/><path d="M150.2 540.4l36.1-20.8v5.5l-35.9 20.8z" class="Dc"/><path d="M186.3 519.6l-1.9 1.1v3.6l-34 19.7v1.9l35.9-20.8zM128 546.3l-8.6-5c-1.3-.9-2.4-2.7-2.4-4.3h0c-.9 0-1.5.6-1.5 1.8 0 1.6 1.1 3.5 2.4 4.3l8.6 5c1.3.7 2.4.1 2.6-1.3-.4-.2-.8-.3-1.1-.5z" fill="#39394d"/><g fill="#148195"><path d="M58.7 514.9h0z" opacity=".4" class="DO"/><path d="M54.8 518.6h0z"/></g><linearGradient id="V" gradientUnits="userSpaceOnUse" x1="43.489" y1="459.711" x2="106.608" y2="459.711"><stop offset="0" stop-color="#252532"/><stop offset="1" stop-color="#3f4051"/></linearGradient><path d="M75.3 443.8l-31.8-2.3 63.2 36.4z" fill="url(#V)"/><linearGradient id="W" gradientUnits="userSpaceOnUse" x1="102.615" y1="426.617" x2="131.573" y2="464.11"><stop offset="0" stop-color="#252532"/><stop offset="1" stop-color="#3f4051"/></linearGradient><path d="M127.5 413.3l-52.2 30.5 31.4 34.1 52.5-30.5z" fill="url(#W)"/><linearGradient id="X" gradientUnits="userSpaceOnUse" x1="68.1" y1="411.538" x2="88.523" y2="430.132"><stop offset="0" stop-color="#252532"/><stop offset="1" stop-color="#3f4051"/></linearGradient><path d="M96.1 411l-52.6 30.5 31.8 2.3 52.2-30.5z" fill="url(#X)"/><g class="DO"><path d="M85.8 419.3v6.5l-6.1 3.3v-6.2z" fill="#dbdbdb"/><path d="M79.7 422.9v6.2l-6.1-.3v-9.5z" class="Dd"/><path d="M85.8 419.3l-6.1 3.6-6.1-3.6 6.1-3.4z" class="Dc"/><path d="M83.5 419.3l-3.8 2.2-3.8-2.2 3.8-2z" class="Dd"/></g><path d="M148.3 452.5s-.1 0 0 0c-.4-.1-.5-.4-.5-.6l1.9-8.4c.1-.2.4-.4.6-.4.2.1.4.4.4.6-.1.2-1.3 5.6-1.9 8.3-.2.4-.3.5-.5.5z" fill="#cececd"/><linearGradient id="Y" gradientUnits="userSpaceOnUse" x1="148.695" y1="444.615" x2="150.727" y2="443.142"><stop offset="0" stop-color="#c1c1c1"/><stop offset="1" stop-color="#979797"/></linearGradient><path d="M148 436.1s-2.8 4.6.7 9.2c3 4.1 9.2 1.5 9.2 1.5l-9.9-10.7z" fill="url(#Y)"/><linearGradient id="Z" gradientUnits="userSpaceOnUse" x1="148.863" y1="435.575" x2="158.211" y2="446.854"><stop offset="0" stop-color="#eaeaea"/><stop offset="1" stop-color="#cececd"/></linearGradient><path d="M156.6 438.2c2.8 2.9 3.6 6.7 1.9 8.3s-5.3.5-8.1-2.4-3.6-6.7-1.9-8.3c1.6-1.7 5.3-.6 8.1 2.4z" fill="url(#Z)"/><linearGradient id="a" gradientUnits="userSpaceOnUse" x1="156.119" y1="439.572" x2="155.154" y2="438.632"><stop offset="0" stop-color="#cececd"/><stop offset="1" stop-color="#979797"/></linearGradient><path d="M152.9 440.9l5.7-4.6-4.7 5.7c-.4.4-.9.4-1.2 0h0c-.2-.4-.2-.8.2-1.1z" fill="url(#a)"/><linearGradient id="b" gradientUnits="userSpaceOnUse" x1="158.219" y1="436.699" x2="159.149" y2="435.645"><stop offset="0" stop-color="#eaeaea"/><stop offset="1" stop-color="#c1c1c1"/></linearGradient><path d="M159.3 436.1c0 .4-.2.7-.6.9-.4 0-.7-.2-.9-.6 0-.4.2-.7.6-.9.5 0 .8.3.9.6z" fill="url(#b)"/><path d="M127.6 440.7l.1 9.6-8.4 4.8v-9.6z" class="Dd"/><linearGradient id="c" gradientUnits="userSpaceOnUse" x1="111.083" y1="447.919" x2="119.374" y2="447.919"><stop offset="0" stop-color="#252532"/><stop offset="1" stop-color="#3f4051"/></linearGradient><path d="M111.1 440.7l8.2 14.4v-9.6z" fill="url(#c)"/><path d="M123.8 451.3l2.8-1.6v-7.1l-2.8 1.5zm-.6-6.8l-2.8 1.6v7.2l2.8-1.6z" fill="#cececd"/><linearGradient id="d" gradientUnits="userSpaceOnUse" x1="122.743" y1="443.7" x2="115.407" y2="437.313"><stop offset="0" stop-color="#252532"/><stop offset="1" stop-color="#3f4051"/></linearGradient><path d="M127.6 440.7l-8.3 4.8-8.2-4.8 8.2-4.7z" fill="url(#d)"/><linearGradient id="e" gradientUnits="userSpaceOnUse" x1="511.541" y1="43.57" x2="436.288" y2="43.57"><stop offset="0" stop-color="#fff"/><stop offset="1" stop-color="#d4d3d3"/></linearGradient><path d="M436.3 51.6v.6c.2 5.3 3.9 10.7 10.9 14.7 14.6 8.5 38.4 8.4 53.2-.1 6.9-4 10.6-9.1 11.1-14.3h0v-2.2c-.7-20.2-17.3-36.4-37.6-36.4-20.7.1-37.6 16.9-37.6 37.7z" fill="url(#e)"/><linearGradient id="f" gradientUnits="userSpaceOnUse" x1="578.406" y1="55.4" x2="460.117" y2="55.4"><stop offset="0" stop-color="#fff"/><stop offset="1" stop-color="#d4d3d3"/></linearGradient><path d="M460.1 67.9l.1 3.3c1.2 7.7 6.8 15.1 17 20.9 23.1 13.3 60.5 13.3 83.8-.1 10.8-6.3 16.7-14.3 17.4-22.5h0v-3.8c-1.1-31.6-27.1-56.9-59.1-56.9-31.7 0-57.6 25-59.1 56.4-.1.9-.1 1.7-.1 2.7z" fill="url(#f)"/><linearGradient id="g" gradientUnits="userSpaceOnUse" x1="594.575" y1="85.945" x2="530.264" y2="85.945"><stop offset="0" stop-color="#fff"/><stop offset="1" stop-color="#d4d3d3"/></linearGradient><path d="M530.3 92.8v.1c0 4.7 3.2 9.4 9.4 13 12.5 7.2 32.8 7.2 45.5-.1 6.3-3.6 9.5-8.4 9.5-13.1v-.1c-.1-17.6-14.5-32-32.1-32-18 .1-32.3 14.5-32.3 32.2z" fill="url(#g)"/><g class="DS DU DW DX DY DZ"><path d="M537.6 486.1l-1.5.8"/><path d="M532.8 488.9l-120.3 70.4" class="Dg"/><path d="M410.9 560.3l-1.6.8"/></g><g class="DS DU DW DX DY DZ"><path d="M337.7 387.3l-1.6.9"/><path d="M333 390.1l-120.4 70.5" class="Dg"/><path d="M211 461.5l-1.6.9"/></g><g class="DS DU DW DX DY DZ"><path d="M360.8 58l-1.6.9"/><path d="M356.1 60.8l-143.5 83.7" stroke-dasharray="3.0022,3.0022"/><path d="M211 145.3l-1.6 1"/></g><linearGradient id="h" gradientUnits="userSpaceOnUse" x1="301.1" y1="284.055" x2="555.794" y2="284.055"><stop offset="0" stop-color="#fff"/><stop offset="1" stop-color="#d4d3d3"/></linearGradient><path d="M524.9 144.4l-145.4-84c-7.1-4-13.5-4.6-18.7-2.3h0l-2.9 1.7L312.5 86c-6.9 3.5-11.4 12.4-11.4 25.3v253.6c0 22.7 13.7 49.1 30.9 58.8l145.4 84c8 4.6 15.3 4.7 20.9 1.2 0 0 .1 0 .1-.1l46.3-26.9.1-.1c6.7-3.6 10.9-12.5 10.9-25V203.2c0-22.6-13.8-49-30.8-58.8z" fill="url(#h)"/><linearGradient id="i" gradientUnits="userSpaceOnUse" x1="301.1" y1="297.838" x2="508.259" y2="297.838"><stop offset="0" stop-color="#252532"/><stop offset="1" stop-color="#3f4051"/></linearGradient><path d="M489.7 511.4c-3.9 0-8-1.2-12.3-3.6l-145.4-84c-17-9.8-30.9-36.2-30.9-58.8V111.3c0-12.3 4.1-21.5 11.2-25.3l.6-.4.4-.1c1.1-.5 2.3-.9 3.5-1 .9-.1 1.8-.2 2.8-.2 3.9 0 8 1.2 12.3 3.6l145.5 84c17 9.8 30.9 36.2 30.9 58.8v253.6c0 9.4-2.4 17.1-6.8 21.9-1 1.1-2.1 1.9-3.2 2.7-2.6 1.7-5.5 2.5-8.6 2.5z" fill="url(#i)"/><linearGradient id="j" gradientUnits="userSpaceOnUse" x1="303.897" y1="297.899" x2="505.463" y2="297.899"><stop offset="0" stop-color="#252532"/><stop offset="1" stop-color="#3f4051"/></linearGradient><path d="M489.7 508.7c-3.4 0-7.1-1.1-10.9-3.3l-145.4-84c-16.3-9.4-29.4-34.8-29.4-56.5V111.3c0-11.2 3.6-19.7 9.7-22.9h.4l.5-.4c1-.4 1.9-.6 2.9-.9.7-.1 1.5-.1 2.3-.1 3.4 0 7.1 1.1 10.9 3.3l145.4 84c16.3 9.4 29.4 34.8 29.4 56.5v253.5c0 8.6-2.2 15.8-6.1 20.1-.9.9-1.7 1.7-2.7 2.2-2.1 1.4-4.4 2.1-7 2.1h0z" fill="url(#j)"/><linearGradient id="k" gradientUnits="userSpaceOnUse" x1="303.897" y1="297.838" x2="505.463" y2="297.838"><stop offset="0" stop-color="#3f4051"/><stop offset="1" stop-color="#252532"/></linearGradient><path d="M505.5 465.1v19.3c0 8.6-2.2 15.8-6.1 19.9-.9.9-1.7 1.7-2.7 2.2-2.1 1.3-4.5 2.1-7.2 2.1-3.4 0-7.1-1.1-10.8-3.3l-145.4-84c-16.3-9.4-29.4-34.8-29.4-56.5V111.3c0-11.2 3.6-19.7 9.7-22.9h.4l.5-.4c1-.4 1.9-.7 2.9-.9.7-.1 1.5-.1 2.3-.1 3.4 0 7.1 1.1 10.9 3.3l22.2 12.9V336c0 22.7 13.9 49.1 30.9 58.8l121.8 70.3z" fill="url(#k)"/><linearGradient id="l" gradientUnits="userSpaceOnUse" x1="380.192" y1="450.618" x2="484.257" y2="422.159"><stop offset="0" stop-color="#252532"/><stop offset="1" stop-color="#3f4051"/></linearGradient><path d="M482.1 429.2v22.4l-48.5 27.7-41.2-38.7-16.2-18.7 49-28.2c.6-.4 1.3-.2 2.3.2l51.4 29.7c1.8 1.1 3.2 3.7 3.2 5.6z" fill="url(#l)"/><linearGradient id="m" gradientUnits="userSpaceOnUse" x1="380.608" y1="463.09" x2="428.507" y2="437.841"><stop offset="0" stop-color="#252532"/><stop offset="1" stop-color="#3f4051"/></linearGradient><path d="M430.6 451.4l-51.8-29.9c-1.7-1-3 0-3 2.3V446l57.9 33.4v-22.1c-.1-2.3-1.4-4.9-3.1-5.9z" fill="url(#m)"/><linearGradient id="n" gradientUnits="userSpaceOnUse" x1="382.49" y1="462.929" x2="426.933" y2="439.502"><stop offset="0" stop-color="#3f4051"/><stop offset="1" stop-color="#252532"/></linearGradient><path d="M378.2 447.3v-22.4c0-.6.4-.9.9-.6l51.5 29.8c.5.2.9 1 .9 1.6v22.4l-53.3-30.8z" fill="url(#n)"/><defs><path id="o" d="M489.7 508.7c-3.4 0-7.1-1.1-10.9-3.3l-145.4-84c-16.3-9.4-29.4-34.8-29.4-56.5V111.3c0-11.2 3.6-19.7 9.7-22.9h.4l.5-.4c1-.4 1.9-.6 2.9-.9.7-.1 1.5-.1 2.3-.1 3.4 0 7.1 1.1 10.9 3.3l145.4 84c16.3 9.4 29.4 34.8 29.4 56.5v253.5c0 8.6-2.2 15.8-6.1 20.1-.9.9-1.7 1.7-2.7 2.2-2.1 1.4-4.4 2.1-7 2.1h0z"/><path id="p" d="M330.4 368.4c-8.9-5.1-16-1-16 9.1s7.2 22.5 16 27.6c8.9 5.1 15.9 1 15.9-9.1s-7.1-22.5-15.9-27.6z"/><path id="q" d="M466.9 188.6c0-1.3 1-1.8 2.1-1.2s2.1 2.2 2.1 3.5-1 1.8-2.1 1.2-2.1-2.2-2.1-3.5z"/><path id="r" d="M478.2 195.2c0-1.3 1-1.8 2.1-1.2s2.1 2.2 2.1 3.5-1 1.8-2.1 1.2-2.1-2.3-2.1-3.5z"/><path id="s" d="M500.7 208.1c0-1.3 1-1.8 2.1-1.2s2.1 2.2 2.1 3.5-1 1.8-2.1 1.2c-1.2-.6-2.1-2.2-2.1-3.5z"/><path id="t" d="M475.6 254.6v20.8l-.6-.4c-1.6-2.1-2.6-5.1-2.6-9 0-3.8 1-7.9 2.6-11.8l.6.4z"/><path id="u" d="M506.4 222.9h0l-117-67.5h-.1.1l-7.5-4.4-42.6 24.6 7.5 4.4 19.7-11.3-.4.2 41.1.1 37.1 21.4L402 215l7.5 4.4 42.4-24.6 28.8 16.7.1 23.6-9.1 5 7.5 4.4 32.2-18.5-5-3.1zm-5.1.2l-.2-.1.2.1z"/><path id="v" d="M545.1 453.8c0-10.1-7.2-22.5-15.9-27.6-4.5-2.6-8.5-2.8-11.3-1.1h0l-50.3 28.2 22.7 38.9 49.8-28c3.1-1.6 5-5.2 5-10.4z"/><path id="w" d="M479.1 462.8c-4.7-2.8-8.6-.6-8.6 4.9s3.9 12.2 8.6 14.8c4.7 2.8 8.6.6 8.6-4.9s-3.9-12.2-8.6-14.8z"/></defs><clipPath id="x"><use xlink:href="#o"/></clipPath><g clip-path="url(#x)"><linearGradient id="y" gradientUnits="userSpaceOnUse" x1="318.771" y1="372.243" x2="396.334" y2="372.243"><stop offset="0" stop-color="#252532"/><stop offset="1" stop-color="#3f4051"/></linearGradient><path d="M396.4 367.9c0-10.1-7.2-22.5-15.9-27.6-4.4-2.6-8.4-2.8-11.3-1.1h0l-50.3 28.2 22.7 38.9 50.1-28.1c2.9-1.6 4.7-5.2 4.7-10.3z" fill="url(#y)"/><linearGradient id="z" gradientUnits="userSpaceOnUse" x1="318.771" y1="108.553" x2="396.334" y2="108.553"><stop offset="0" stop-color="#252532"/><stop offset="1" stop-color="#3f4051"/></linearGradient><path d="M396.4 104.2c0-10.1-7.2-22.5-15.9-27.6-4.4-2.6-8.5-2.8-11.3-1.1h0l-50.3 28.2 22.7 38.9 50.1-28.1s.1 0 .1-.1h0c2.8-1.5 4.6-5.1 4.6-10.2z" fill="url(#z)"/><linearGradient id="AA" gradientUnits="userSpaceOnUse" x1="318.771" y1="240.451" x2="396.334" y2="240.451"><stop offset="0" stop-color="#252532"/><stop offset="1" stop-color="#3f4051"/></linearGradient><path d="M396.4 236.1c0-10.1-7.2-22.5-15.9-27.6-4.6-2.7-8.8-2.8-11.7-1l-50 28.1 22.7 38.9 50.2-28.2c2.9-1.7 4.7-5.2 4.7-10.2z" fill="url(#AA)"/><linearGradient id="AB" gradientUnits="userSpaceOnUse" x1="314.352" y1="377.502" x2="346.325" y2="395.963"><stop offset="0" stop-color="#252532"/><stop offset="1" stop-color="#3f4051"/></linearGradient><use xlink:href="#p" fill="url(#AB)"/><linearGradient id="AC" gradientUnits="userSpaceOnUse" x1="321.738" y1="381.767" x2="339.001" y2="391.734"><stop offset="0" stop-color="#3f4051"/><stop offset=".063" stop-color="#3a3b4b"/><stop offset=".287" stop-color="#2e2f3d"/><stop offset=".557" stop-color="#272735"/><stop offset="1" stop-color="#252532"/></linearGradient><path d="M330.4 376.9c-4.7-2.8-8.6-.6-8.6 4.9s3.9 12.2 8.6 14.8c4.7 2.7 8.6.6 8.6-4.9 0-5.4-3.9-12.1-8.6-14.8z" fill="url(#AC)"/><linearGradient id="AD" gradientUnits="userSpaceOnUse" x1="314.352" y1="245.718" x2="346.325" y2="264.179"><stop offset="0" stop-color="#252532"/><stop offset="1" stop-color="#3f4051"/></linearGradient><path d="M330.4 236.6c-8.9-5.1-16-1-16 9.1s7.2 22.5 16 27.6c8.9 5.1 15.9 1 15.9-9.1 0-10.2-7.1-22.5-15.9-27.6z" fill="url(#AD)"/><linearGradient id="AE" gradientUnits="userSpaceOnUse" x1="320.763" y1="249.299" x2="340.026" y2="260.42"><stop offset="0" stop-color="#3f4051"/><stop offset=".063" stop-color="#3a3b4b"/><stop offset=".287" stop-color="#2e2f3d"/><stop offset=".557" stop-color="#272735"/><stop offset="1" stop-color="#252532"/></linearGradient><path d="M330.4 245c-4.7-2.8-8.6-.6-8.6 4.9s3.9 12.2 8.6 14.8 8.6.6 8.6-4.9c0-5.3-3.9-12-8.6-14.8z" fill="url(#AE)"/><linearGradient id="AF" gradientUnits="userSpaceOnUse" x1="314.352" y1="113.813" x2="346.325" y2="132.273"><stop offset="0" stop-color="#252532"/><stop offset="1" stop-color="#3f4051"/></linearGradient><path d="M330.4 104.7c-8.9-5.1-16-1-16 9.1s7.2 22.5 16 27.6c8.9 5.1 15.9 1 15.9-9.1s-7.1-22.5-15.9-27.6z" fill="url(#AF)"/><linearGradient id="AG" gradientUnits="userSpaceOnUse" x1="321.738" y1="118.077" x2="339.001" y2="128.044"><stop offset="0" stop-color="#3f4051"/><stop offset=".063" stop-color="#3a3b4b"/><stop offset=".287" stop-color="#2e2f3d"/><stop offset=".557" stop-color="#272735"/><stop offset="1" stop-color="#252532"/></linearGradient><path d="M330.4 113.2c-4.7-2.8-8.6-.6-8.6 4.9s3.9 12.2 8.6 14.8c4.7 2.8 8.6.6 8.6-4.9 0-5.4-3.9-12.1-8.6-14.8z" fill="url(#AG)"/></g><defs><path id="AH" d="M489.7 508.7c-3.4 0-7.1-1.1-10.9-3.3l-145.4-84c-16.3-9.4-29.4-34.8-29.4-56.5V111.3c0-11.2 3.6-19.7 9.7-22.9h.4l.5-.4c1-.4 1.9-.6 2.9-.9.7-.1 1.5-.1 2.3-.1 3.4 0 7.1 1.1 10.9 3.3l145.4 84c16.3 9.4 29.4 34.8 29.4 56.5v253.5c0 8.6-2.2 15.8-6.1 20.1-.9.9-1.7 1.7-2.7 2.2-2.1 1.4-4.4 2.1-7 2.1h0z"/></defs><clipPath id="AI"><use xlink:href="#AH"/></clipPath><g clip-path="url(#AI)"><linearGradient id="AJ" gradientUnits="userSpaceOnUse" x1="368.208" y1="254.254" x2="541.448" y2="254.254"><stop offset="0" stop-color="#fff"/><stop offset="1" stop-color="#d4d3d3"/></linearGradient><path d="M541.4 256.7v-51.8L368.2 104.8v198.8l173.2 100.1V302.8l-14.1-8.1v-7.2l3.5 2.1v3l10.6 6.1v-12.8l-10.6-6.1v3l-3.5-2.1v-7.2l14.1 8.1v-4.4l-14.1-8.1V262l3.5 2.1v3l10.6 6.1v-12.5l-10.6-6.1v3l-3.5-2.1v-7.1l14.1 8.3zm-8.1-26.5c3 1.8 5.6 6.1 5.6 9.7 0 3.5-2.6 5-5.6 3.2-3.2-1.8-5.6-6.1-5.6-9.7s2.4-5 5.6-3.2z" fill="url(#AJ)"/><linearGradient id="AK" gradientUnits="userSpaceOnUse" x1="540.72" y1="353.396" x2="541.398" y2="353.396"><stop offset="0" stop-color="#fff"/><stop offset="1" stop-color="#d4d3d3"/></linearGradient><path d="M540.7 404l.7-.3V302.8l-.7.4z" fill="url(#AK)"/><linearGradient id="AL" gradientUnits="userSpaceOnUse" x1="526.639" y1="298.993" x2="541.398" y2="298.993"><stop offset="0" stop-color="#fff"/><stop offset="1" stop-color="#d4d3d3"/></linearGradient><path d="M526.6 295.1l.7-.4 14.1 8.1-.7.4z" fill="url(#AL)"/><linearGradient id="AM" gradientUnits="userSpaceOnUse" x1="540.72" y1="292.549" x2="541.398" y2="292.549"><stop offset="0" stop-color="#fff"/><stop offset="1" stop-color="#d4d3d3"/></linearGradient><path d="M540.7 299.1l.7-.4V286l-.7.3z" fill="url(#AM)"/><linearGradient id="AN" gradientUnits="userSpaceOnUse" x1="526.639" y1="291.334" x2="527.317" y2="291.334"><stop offset="0" stop-color="#fff"/><stop offset="1" stop-color="#d4d3d3"/></linearGradient><path d="M526.6 287.9l.7-.3v7.1l-.7.4z" fill="url(#AN)"/><linearGradient id="AO" gradientUnits="userSpaceOnUse" x1="530.183" y1="291.334" x2="530.861" y2="291.334"><stop offset="0" stop-color="#fff"/><stop offset="1" stop-color="#d4d3d3"/></linearGradient><path d="M530.1 290l.8-.4v3.1l-.8.3z" fill="url(#AO)"/><linearGradient id="AP" gradientUnits="userSpaceOnUse" x1="526.639" y1="277.535" x2="527.317" y2="277.535"><stop offset="0" stop-color="#fff"/><stop offset="1" stop-color="#d4d3d3"/></linearGradient><path d="M527.3 280.9l-.7.3v-7l.7-.4z" fill="url(#AP)"/><linearGradient id="AQ" gradientUnits="userSpaceOnUse" x1="540.72" y1="279.967" x2="541.398" y2="279.967"><stop offset="0" stop-color="#fff"/><stop offset="1" stop-color="#d4d3d3"/></linearGradient><path d="M540.7 282.3l.7-.3v-4.4l-.7.4z" fill="url(#AQ)"/><linearGradient id="AR" gradientUnits="userSpaceOnUse" x1="540.72" y1="267.262" x2="541.398" y2="267.262"><stop offset="0" stop-color="#fff"/><stop offset="1" stop-color="#d4d3d3"/></linearGradient><path d="M540.7 273.8l.7-.3v-12.8l-.7.5z" fill="url(#AR)"/><linearGradient id="AS" gradientUnits="userSpaceOnUse" x1="526.639" y1="266.047" x2="527.317" y2="266.047"><stop offset="0" stop-color="#fff"/><stop offset="1" stop-color="#d4d3d3"/></linearGradient><path d="M527.3 262.3l-.7.5v7l.7-.3z" fill="url(#AS)"/><linearGradient id="AT" gradientUnits="userSpaceOnUse" x1="526.639" y1="252.309" x2="527.317" y2="252.309"><stop offset="0" stop-color="#fff"/><stop offset="1" stop-color="#d4d3d3"/></linearGradient><path d="M526.6 256.1l.7-.4v-7.2l-.7.4z" fill="url(#AT)"/><linearGradient id="AU" gradientUnits="userSpaceOnUse" x1="540.72" y1="230.973" x2="541.398" y2="230.973"><stop offset="0" stop-color="#fff"/><stop offset="1" stop-color="#d4d3d3"/></linearGradient><path d="M540.7 257.1l.7-.4v-51.8l-.7.4z" fill="url(#AU)"/><linearGradient id="AV" gradientUnits="userSpaceOnUse" x1="367.479" y1="155.051" x2="541.448" y2="155.051"><stop offset="0" stop-color="#fff"/><stop offset="1" stop-color="#d4d3d3"/></linearGradient><path d="M367.5 105.3l.7-.5 173.2 100.1-.7.4z" fill="url(#AV)"/><linearGradient id="AW" gradientUnits="userSpaceOnUse" x1="526.639" y1="256.929" x2="530.861" y2="256.929"><stop offset="0" stop-color="#fff"/><stop offset="1" stop-color="#d4d3d3"/></linearGradient><path d="M526.6 256.1l3.5 2 .8-.3-3.6-2.1z" fill="url(#AW)"/><linearGradient id="AX" gradientUnits="userSpaceOnUse" x1="526.639" y1="282.094" x2="530.861" y2="282.094"><stop offset="0" stop-color="#fff"/><stop offset="1" stop-color="#d4d3d3"/></linearGradient><path d="M526.6 281.2l3.5 2.1.8-.4-3.6-2z" fill="url(#AX)"/><path d="M540.7 257.1v-51.8L367.5 105.2V304l173.2 100V303.1l-14.1-8.1v-7.2l3.5 2.1v3l10.6 6.1v-12.8l-10.6-6.1v3l-3.5-2.1v-7.2l14.1 8.1v-4.4l-14.1-8.1v-7.2l3.5 2.1v3l10.6 6.1v-12.8l-10.6-6.1v3l-3.5-2.1v-7.2l14.1 8.9zm-8.1-26.6c3 1.8 5.6 6.1 5.6 9.7 0 3.5-2.6 5-5.6 3.2-3.2-1.8-5.6-6.1-5.6-9.7 0-3.5 2.5-5 5.6-3.2z" fill="#e0b60a"/><linearGradient id="AY" gradientUnits="userSpaceOnUse" x1="528.736" y1="364.237" x2="509.301" y2="378.663"><stop offset="0" stop-color="#fff"/><stop offset="1" stop-color="#d4d3d3"/></linearGradient><path d="M531.8 398.9l-25.6-14.8V344l25.6 14.8z" fill="url(#AY)"/><linearGradient id="AZ" gradientUnits="userSpaceOnUse" x1="372.397" y1="119.563" x2="378.799" y2="119.563"><stop offset="0" stop-color="#fff"/><stop offset="1" stop-color="#d4d3d3"/></linearGradient><path d="M378.8 121.4c0 2.1-1.5 2.8-3.2 1.8-1.8-1-3.2-3.5-3.2-5.5s1.5-2.8 3.2-1.8 3.2 3.5 3.2 5.5z" fill="url(#AZ)"/><linearGradient id="Aa" gradientUnits="userSpaceOnUse" x1="450.912" y1="164.909" x2="457.314" y2="164.909"><stop offset="0" stop-color="#fff"/><stop offset="1" stop-color="#d4d3d3"/></linearGradient><path d="M457.3 166.7c0 2.1-1.5 2.8-3.2 1.8s-3.2-3.5-3.2-5.5c0-1.9 1.5-2.8 3.2-1.8 1.8 1 3.2 3.6 3.2 5.5z" fill="url(#Aa)"/><linearGradient id="Ab" gradientUnits="userSpaceOnUse" x1="529.427" y1="210.256" x2="535.828" y2="210.256"><stop offset="0" stop-color="#fff"/><stop offset="1" stop-color="#d4d3d3"/></linearGradient><path d="M535.9 212.1c0 2.1-1.5 2.8-3.2 1.8-1.8-1-3.2-3.5-3.2-5.5 0-1.9 1.5-2.8 3.2-1.8s3.2 3.4 3.2 5.5z" fill="url(#Ab)"/><linearGradient id="Ac" gradientUnits="userSpaceOnUse" x1="529.427" y1="319.052" x2="535.828" y2="319.052"><stop offset="0" stop-color="#fff"/><stop offset="1" stop-color="#d4d3d3"/></linearGradient><path d="M535.9 320.9c0 2.1-1.5 2.8-3.2 1.8-1.8-1-3.2-3.5-3.2-5.5 0-2.1 1.5-2.8 3.2-1.8s3.2 3.5 3.2 5.5z" fill="url(#Ac)"/><linearGradient id="Ad" gradientUnits="userSpaceOnUse" x1="372.397" y1="228.492" x2="378.799" y2="228.492"><stop offset="0" stop-color="#fff"/><stop offset="1" stop-color="#d4d3d3"/></linearGradient><path d="M378.8 230.3c0 2.1-1.5 2.8-3.2 1.8-1.8-1-3.2-3.5-3.2-5.5s1.5-2.8 3.2-1.8 3.2 3.4 3.2 5.5z" fill="url(#Ad)"/><ellipse transform="matrix(.8633 -.5047 .5047 .8633 -39.3293 299.1631)" cx="532.6" cy="222.2" rx="1.8" ry="3.2" fill="#e2dbd2" stroke="#e8e107"/><path d="M511.5 318.4v5.8l-1.5-.9v-5.7z" class="DQ"/><path d="M511.5 320.4v1.8l-1.5-.8v-1.9z" class="DR"/><path d="M517 321.6v5.8l-1.4-.8v-5.8z" class="DQ"/><path d="M517 323.6v1.8l-1.4-.8v-1.9z" class="DR"/><path d="M522.6 324.9v5.7l-1.6-.8V324z" class="DQ"/><path d="M522.6 326.8v1.9l-1.6-.9V326z" class="DR"/><path d="M528.1 328v5.8l-1.5-.9v-5.7z" class="DQ"/><path d="M528.1 330v1.8l-1.5-.8v-1.9z" class="DR"/><path d="M511.5 338.1v5.8l-1.5-.9v-5.7z" class="DQ"/><path d="M511.5 340.1v1.8l-1.5-.8v-1.9z" class="DR"/><path d="M517 341.3v5.7l-1.4-.8v-5.8z" class="DQ"/><path d="M517 343.2v1.9l-1.4-.9v-1.8z" class="DR"/><path d="M522.6 344.5v5.7l-1.6-.9v-5.7z" class="DQ"/><path d="M522.6 346.4v1.8l-1.6-.8v-1.8z" class="DR"/><path d="M528.1 347.6v5.9l-1.5-.9v-5.8z" class="DQ"/><path d="M528.1 349.6v1.8l-1.5-.9v-1.8z" class="DR"/><g class="DT"><path d="M531.8 395.2l-22-12.7v-1.6l22 12.8zm-67.7-66.7v31.4l-4.8-2.8-10.4-6-4.8-2.7V317z"/></g><linearGradient id="Ae" gradientUnits="userSpaceOnUse" x1="444.069" y1="328.336" x2="464.129" y2="339.918"><stop offset="0" stop-color="#fff"/><stop offset="1" stop-color="#d4d3d3"/></linearGradient><path d="M464.1 351.4l-20-11.6v-22.9l20 11.5z" fill="url(#Ae)"/><linearGradient id="Af" gradientUnits="userSpaceOnUse" x1="442.578" y1="329.092" x2="462.638" y2="340.673"><stop offset="0" stop-color="#fff"/><stop offset="1" stop-color="#d4d3d3"/></linearGradient><path d="M462.7 352.2l-20.1-11.6v-23l20.1 11.5z" fill="url(#Af)"/><path d="M527.5 383.9l-16.9-9.7c-1.5-.9-2.6-2.8-2.6-4.4v-19.5c0-1.6 1.1-2.3 2.6-1.5l16.9 9.7c1.5.9 2.6 2.8 2.6 4.4v19.5c-.1 1.6-1.2 2.2-2.6 1.5z" class="DP"/><g class="DT"><path d="M387.5 283.2v-52.4l27.9 16v52.4z"/><path d="M388.1 282.8v-52.4l27.9 16.1v52.4z"/></g><linearGradient id="Ag" gradientUnits="userSpaceOnUse" x1="388.67" y1="257.665" x2="414.154" y2="272.379"><stop offset="0" stop-color="#fff"/><stop offset="1" stop-color="#d4d3d3"/></linearGradient><path d="M388.6 282.6v-49.9l25.6 14.7v49.9z" fill="url(#Ag)"/><path d="M390.9 278.3v-38.7c0-1.6 1.1-2.3 2.6-1.5l15.8 9.1c1.5.9 2.6 2.8 2.6 4.4v38.7c0 1.6-1.1 2.3-2.6 1.5l-15.8-9.1c-1.3-.8-2.6-2.8-2.6-4.4z" class="DP"/><linearGradient id="Ah" gradientUnits="userSpaceOnUse" x1="404.302" y1="260.741" x2="395.575" y2="270.866"><stop offset="0" stop-color="#fff"/><stop offset="1" stop-color="#d4d3d3"/></linearGradient><path d="M387.2 283.3v-49.7l25.5 14.7V298z" fill="url(#Ah)"/><path d="M389.5 279.2v-38.7c0-1.6 1.1-2.3 2.6-1.5l15.8 9.1c1.5.9 2.6 2.8 2.6 4.4v38.7c0 1.6-1.1 2.3-2.6 1.5l-15.8-9.1c-1.5-.9-2.6-2.8-2.6-4.4z" class="DP"/><linearGradient id="Ai" gradientUnits="userSpaceOnUse" x1="422.429" y1="275.955" x2="434.537" y2="282.945"><stop offset="0" stop-color="#333"/><stop offset=".52" stop-color="#3f3e3e"/><stop offset="1" stop-color="#4e4d4d"/></linearGradient><path d="M434.6 289.9l-12.2-7V269l12.2 7z" fill="url(#Ai)"/><linearGradient id="Aj" gradientUnits="userSpaceOnUse" x1="422.429" y1="261.565" x2="434.537" y2="268.555"><stop offset="0" stop-color="#333"/><stop offset=".52" stop-color="#3f3e3e"/><stop offset="1" stop-color="#4e4d4d"/></linearGradient><path d="M434.6 266.2l-12.2-7.1v4.9l12.2 7z" fill="url(#Aj)"/><linearGradient id="Ak" gradientUnits="userSpaceOnUse" x1="422.429" y1="288.614" x2="434.537" y2="295.605"><stop offset="0" stop-color="#333"/><stop offset=".52" stop-color="#3f3e3e"/><stop offset="1" stop-color="#4e4d4d"/></linearGradient><path d="M434.6 293.2l-12.2-7v4.9l12.2 6.9z" fill="url(#Ak)"/><linearGradient id="Al" gradientUnits="userSpaceOnUse" x1="370.883" y1="291.711" x2="407.476" y2="312.839"><stop offset="0" stop-color="#333"/><stop offset=".52" stop-color="#3f3e3e"/><stop offset="1" stop-color="#4e4d4d"/></linearGradient><path d="M407.5 323.1l-36.6-21.2v-20.4l36.6 21.1z" fill="url(#Al)"/><linearGradient id="Am" gradientUnits="userSpaceOnUse" x1="369.181" y1="292.671" x2="405.774" y2="313.799"><stop offset="0" stop-color="#333"/><stop offset=".52" stop-color="#3f3e3e"/><stop offset="1" stop-color="#4e4d4d"/></linearGradient><path d="M405.8 323.9l-36.6-21v-20.4l36.6 21.1z" fill="url(#Am)"/><linearGradient id="An" gradientUnits="userSpaceOnUse" x1="448.932" y1="352.241" x2="459.285" y2="352.241"><stop offset="0" stop-color="#fff"/><stop offset="1" stop-color="#d4d3d3"/></linearGradient><path d="M459.3 353.3v3.8l-10.4-6v-3.7z" fill="url(#An)"/><linearGradient id="Ao" gradientUnits="userSpaceOnUse" x1="526.639" y1="273.706" x2="541.398" y2="273.706"><stop offset="0" stop-color="#fff"/><stop offset="1" stop-color="#d4d3d3"/></linearGradient><path d="M526.6 269.8l14.1 8.2.7-.4-14.1-8.1z" fill="url(#Ao)"/><linearGradient id="Ap" gradientUnits="userSpaceOnUse" x1="530.183" y1="257.901" x2="541.398" y2="257.901"><stop offset="0" stop-color="#fff"/><stop offset="1" stop-color="#d4d3d3"/></linearGradient><path d="M530.1 255.1l10.6 6.1.7-.5-10.5-6.1z" fill="url(#Ap)"/><linearGradient id="Aq" gradientUnits="userSpaceOnUse" x1="530.183" y1="283.128" x2="541.398" y2="283.128"><stop offset="0" stop-color="#fff"/><stop offset="1" stop-color="#d4d3d3"/></linearGradient><path d="M530.1 280.3l.8-.4 10.5 6.1-.7.3z" fill="url(#Aq)"/><linearGradient id="Ar" gradientUnits="userSpaceOnUse" x1="473.878" y1="347.561" x2="474.556" y2="347.561"><stop offset="0" stop-color="#252532"/><stop offset="1" stop-color="#3f4051"/></linearGradient><path d="M473.9 350.8l.7-.4v-6.1l-.7.4z" fill="url(#Ar)"/><linearGradient id="As" gradientUnits="userSpaceOnUse" x1="468.606" y1="343.002" x2="474.556" y2="343.002"><stop offset="0" stop-color="#252532"/><stop offset="1" stop-color="#3f4051"/></linearGradient><path d="M468.6 341.7l5.3 3 .7-.4-5.4-3z" fill="url(#As)"/><linearGradient id="At" gradientUnits="userSpaceOnUse" x1="468.595" y1="344.696" x2="473.866" y2="347.74"><stop offset="0" stop-color="#252532"/><stop offset="1" stop-color="#3f4051"/></linearGradient><path d="M473.9 350.8l-5.3-3.1v-6l5.3 3z" fill="url(#At)"/><linearGradient id="Au" gradientUnits="userSpaceOnUse" x1="439.663" y1="327.866" x2="440.341" y2="327.866"><stop offset="0" stop-color="#252532"/><stop offset="1" stop-color="#3f4051"/></linearGradient><path d="M439.7 331.1l.6-.5v-6l-.6.4z" fill="url(#Au)"/><linearGradient id="Av" gradientUnits="userSpaceOnUse" x1="434.391" y1="323.307" x2="440.341" y2="323.307"><stop offset="0" stop-color="#252532"/><stop offset="1" stop-color="#3f4051"/></linearGradient><path d="M434.3 322l5.4 3 .6-.4-5.2-3z" fill="url(#Av)"/><linearGradient id="Aw" gradientUnits="userSpaceOnUse" x1="434.381" y1="325.006" x2="439.653" y2="328.05"><stop offset="0" stop-color="#252532"/><stop offset="1" stop-color="#3f4051"/></linearGradient><path d="M439.7 331.1l-5.4-3.1v-6l5.4 3z" fill="url(#Aw)"/><path d="M511.5 220.3l-51.3-29.6v-12.1l51.3 29.7z" class="DT"/><linearGradient id="Ax" gradientUnits="userSpaceOnUse" x1="506.282" y1="211.353" x2="510.358" y2="213.707"><stop offset="0" stop-color="#fff"/><stop offset="1" stop-color="#d4d3d3"/></linearGradient><path d="M510.3 213.6c0 1.3-1 1.8-2.1 1.2s-2.1-2.2-2.1-3.5 1-1.8 2.1-1.2c1.3.8 2.1 2.3 2.1 3.5z" fill="url(#Ax)"/><linearGradient id="Ay" gradientUnits="userSpaceOnUse" x1="465.456" y1="187.787" x2="461.38" y2="185.433"><stop offset="0" stop-color="#fff"/><stop offset="1" stop-color="#d4d3d3"/></linearGradient><path d="M461.3 185.4c0-1.3 1-1.8 2.1-1.2s2.1 2.2 2.1 3.5-1 1.8-2.1 1.2c-1.1-.7-2.1-2.2-2.1-3.5z" fill="url(#Ay)"/><linearGradient id="Az" gradientUnits="userSpaceOnUse" x1="471.073" y1="190.962" x2="466.996" y2="188.608"><stop offset="0" stop-color="#fff"/><stop offset="1" stop-color="#d4d3d3"/></linearGradient><use xlink:href="#q" fill="url(#Az)"/><linearGradient id="BA" gradientUnits="userSpaceOnUse" x1="476.689" y1="194.188" x2="472.613" y2="191.834"><stop offset="0" stop-color="#fff"/><stop offset="1" stop-color="#d4d3d3"/></linearGradient><path d="M472.6 191.9c0-1.3 1-1.8 2.1-1.2s2.1 2.2 2.1 3.5-1 1.8-2.1 1.2c-1.2-.7-2.1-2.3-2.1-3.5z" fill="url(#BA)"/><linearGradient id="BB" gradientUnits="userSpaceOnUse" x1="482.306" y1="197.484" x2="478.229" y2="195.131"><stop offset="0" stop-color="#fff"/><stop offset="1" stop-color="#d4d3d3"/></linearGradient><use xlink:href="#r" fill="url(#BB)"/><linearGradient id="BC" gradientUnits="userSpaceOnUse" x1="487.922" y1="200.659" x2="483.846" y2="198.306"><stop offset="0" stop-color="#fff"/><stop offset="1" stop-color="#d4d3d3"/></linearGradient><path d="M483.8 198.3c0-1.3 1-1.8 2.1-1.2s2.1 2.2 2.1 3.5-1 1.8-2.1 1.2-2.1-2.1-2.1-3.5z" fill="url(#BC)"/><linearGradient id="BD" gradientUnits="userSpaceOnUse" x1="493.539" y1="203.956" x2="489.462" y2="201.602"><stop offset="0" stop-color="#fff"/><stop offset="1" stop-color="#d4d3d3"/></linearGradient><path d="M489.4 201.6c0-1.3 1-1.8 2.1-1.2s2.1 2.2 2.1 3.5-1 1.8-2.1 1.2c-1.1-.7-2.1-2.1-2.1-3.5z" fill="url(#BD)"/><linearGradient id="BE" gradientUnits="userSpaceOnUse" x1="499.155" y1="207.252" x2="495.079" y2="204.899"><stop offset="0" stop-color="#fff"/><stop offset="1" stop-color="#d4d3d3"/></linearGradient><path d="M495 204.9c0-1.3 1-1.8 2.1-1.2s2.1 2.2 2.1 3.5-1 1.8-2.1 1.2-2.1-2.3-2.1-3.5z" fill="url(#BE)"/><linearGradient id="BF" gradientUnits="userSpaceOnUse" x1="504.772" y1="210.36" x2="500.696" y2="208.006"><stop offset="0" stop-color="#fff"/><stop offset="1" stop-color="#d4d3d3"/></linearGradient><use xlink:href="#s" fill="url(#BF)"/><path d="M515.8 203.1l-4.3 5.2v12l4.3.4 3.3-1.8v-17.7z" class="DT"/><g fill="#82c07e"><path d="M511.5 208.3l4.3-5.2-51.3-29.6-4.3 5.1z"/><path d="M467.7 171.7l-3.2 1.8 51.3 29.6 3.3-1.9z"/></g><path d="M433 175l-51.3-29.6v-12L433 163z" class="DT"/><linearGradient id="BG" gradientUnits="userSpaceOnUse" x1="427.77" y1="165.95" x2="431.846" y2="168.303"><stop offset="0" stop-color="#fff"/><stop offset="1" stop-color="#d4d3d3"/></linearGradient><path d="M431.9 168.3c0 1.3-1 1.8-2.1 1.2s-2.1-2.2-2.1-3.5 1-1.8 2.1-1.2c1.1.7 2.1 2.3 2.1 3.5z" fill="url(#BG)"/><linearGradient id="BH" gradientUnits="userSpaceOnUse" x1="386.944" y1="142.454" x2="382.867" y2="140.1"><stop offset="0" stop-color="#fff"/><stop offset="1" stop-color="#d4d3d3"/></linearGradient><path d="M382.8 140.1c0-1.3 1-1.8 2.1-1.2s2.1 2.2 2.1 3.5-1 1.8-2.1 1.2-2.1-2.3-2.1-3.5z" fill="url(#BH)"/><linearGradient id="BI" gradientUnits="userSpaceOnUse" x1="392.56" y1="145.561" x2="388.484" y2="143.208"><stop offset="0" stop-color="#fff"/><stop offset="1" stop-color="#d4d3d3"/></linearGradient><path d="M388.5 143.3c0-1.3 1-1.8 2.1-1.2s2.1 2.2 2.1 3.5-1 1.8-2.1 1.2c-1.2-.6-2.1-2.2-2.1-3.5z" fill="url(#BI)"/><linearGradient id="BJ" gradientUnits="userSpaceOnUse" x1="398.177" y1="148.858" x2="394.1" y2="146.504"><stop offset="0" stop-color="#fff"/><stop offset="1" stop-color="#d4d3d3"/></linearGradient><path d="M394.1 146.5c0-1.3 1-1.8 2.1-1.2s2.1 2.2 2.1 3.5-1 1.8-2.1 1.2c-1.2-.5-2.1-2.1-2.1-3.5z" fill="url(#BJ)"/><linearGradient id="BK" gradientUnits="userSpaceOnUse" x1="403.793" y1="152.151" x2="399.717" y2="149.798"><stop offset="0" stop-color="#fff"/><stop offset="1" stop-color="#d4d3d3"/></linearGradient><path d="M399.7 149.8c0-1.3 1-1.8 2.1-1.2s2.1 2.2 2.1 3.5-1 1.8-2.1 1.2c-1.1-.7-2.1-2.3-2.1-3.5z" fill="url(#BK)"/><linearGradient id="BL" gradientUnits="userSpaceOnUse" x1="409.41" y1="155.326" x2="405.333" y2="152.973"><stop offset="0" stop-color="#fff"/><stop offset="1" stop-color="#d4d3d3"/></linearGradient><path d="M405.3 153c0-1.3 1-1.8 2.1-1.2s2.1 2.2 2.1 3.5-1 1.8-2.1 1.2-2.1-2.2-2.1-3.5z" fill="url(#BL)"/><linearGradient id="BM" gradientUnits="userSpaceOnUse" x1="415.027" y1="158.623" x2="410.95" y2="156.269"><stop offset="0" stop-color="#fff"/><stop offset="1" stop-color="#d4d3d3"/></linearGradient><path d="M410.9 156.3c0-1.3 1-1.8 2.1-1.2s2.1 2.2 2.1 3.5-1 1.8-2.1 1.2-2.1-2.2-2.1-3.5z" fill="url(#BM)"/><linearGradient id="BN" gradientUnits="userSpaceOnUse" x1="420.643" y1="161.849" x2="416.567" y2="159.495"><stop offset="0" stop-color="#fff"/><stop offset="1" stop-color="#d4d3d3"/></linearGradient><path d="M416.6 159.5c0-1.3 1-1.8 2.1-1.2s2.1 2.2 2.1 3.5-1 1.8-2.1 1.2a4.17 4.17 0 0 1-2.1-3.5z" fill="url(#BN)"/><linearGradient id="BO" gradientUnits="userSpaceOnUse" x1="426.26" y1="165.026" x2="422.183" y2="162.673"><stop offset="0" stop-color="#fff"/><stop offset="1" stop-color="#d4d3d3"/></linearGradient><path d="M422.2 162.7c0-1.3 1-1.8 2.1-1.2s2.1 2.2 2.1 3.5-1 1.8-2.1 1.2c-1.3-.6-2.1-2.2-2.1-3.5z" fill="url(#BO)"/><path d="M437.4 157.8L433 163v12l4.4.4 3.1-1.9v-17.6z" class="DT"/><g fill="#82c07e"><path d="M433 163l4.4-5.2-51.4-29.6-4.3 5.2z"/><path d="M389.1 126.4l-3.1 1.8 51.4 29.6 3.1-1.9z"/></g><g fill="#e8e107"><path d="M387.2 233.6l1.4-.9 25.6 14.7v49.9l-1.5.7v-49.7zm75.5 118.6v-23.1l-20.1-11.5 1.5-.7 20 11.5v23z"/></g><linearGradient id="BP" gradientUnits="userSpaceOnUse" x1="421.392" y1="276.515" x2="433.5" y2="283.506"><stop offset="0" stop-color="#333"/><stop offset=".52" stop-color="#3f3e3e"/><stop offset="1" stop-color="#4e4d4d"/></linearGradient><path d="M433.5 290.5l-12-7.1v-13.8l12 7z" fill="url(#BP)"/><linearGradient id="BQ" gradientUnits="userSpaceOnUse" x1="421.392" y1="262.109" x2="433.5" y2="269.1"><stop offset="0" stop-color="#333"/><stop offset=".52" stop-color="#3f3e3e"/><stop offset="1" stop-color="#4e4d4d"/></linearGradient><path d="M433.5 266.7l-12-7v4.9l12 6.9z" fill="url(#BQ)"/><linearGradient id="BR" gradientUnits="userSpaceOnUse" x1="421.392" y1="289.22" x2="433.5" y2="296.21"><stop offset="0" stop-color="#333"/><stop offset=".52" stop-color="#3f3e3e"/><stop offset="1" stop-color="#4e4d4d"/></linearGradient><path d="M433.5 293.8l-12-7v4.9l12 6.9z" fill="url(#BR)"/><linearGradient id="BS" gradientUnits="userSpaceOnUse" x1="421.402" y1="265.317" x2="434.554" y2="265.317"><stop offset="0" stop-color="#333"/><stop offset=".52" stop-color="#3f3e3e"/><stop offset="1" stop-color="#4e4d4d"/></linearGradient><path d="M421.5 259.7l.9-.6 12.2 7.1v4.8l-1.1.5v-4.8z" fill="url(#BS)"/><linearGradient id="BT" gradientUnits="userSpaceOnUse" x1="421.402" y1="279.724" x2="434.554" y2="279.724"><stop offset="0" stop-color="#333"/><stop offset=".52" stop-color="#3f3e3e"/><stop offset="1" stop-color="#4e4d4d"/></linearGradient><path d="M421.5 269.6l.9-.6 12.2 7v13.9l-1.1.6v-13.9z" fill="url(#BT)"/><path d="M377.3 267.6l-4.7-2.8V251l4.7 2.8z" fill="#d1a83f"/><path d="M372.6 251l2.4-1.4 4.8 2.8v13.9l-2.5 1.3v-13.8z" fill="#a47c2c"/><linearGradient id="BU" gradientUnits="userSpaceOnUse" x1="421.402" y1="292.428" x2="434.554" y2="292.428"><stop offset="0" stop-color="#333"/><stop offset=".52" stop-color="#3f3e3e"/><stop offset="1" stop-color="#4e4d4d"/></linearGradient><path d="M421.5 286.8l12 7v4.8l1.1-.6v-4.8l-12.2-7z" fill="url(#BU)"/><linearGradient id="BV" gradientUnits="userSpaceOnUse" x1="369.225" y1="302.701" x2="407.463" y2="302.701"><stop offset="0" stop-color="#333"/><stop offset=".52" stop-color="#3f3e3e"/><stop offset="1" stop-color="#4e4d4d"/></linearGradient><path d="M369.2 282.5l1.7-1 36.6 21.1v20.5l-1.7.8v-20.3z" fill="url(#BV)"/><linearGradient id="BW" gradientUnits="userSpaceOnUse" x1="401.762" y1="299.236" x2="401.762" y2="230.336"><stop offset="0" stop-color="#31ac74"/><stop offset="1" stop-color="#82c07e"/></linearGradient><path d="M415.4 299.2l.6-.3v-52.4l-27.9-16.1-.6.4 27.9 16z" fill="url(#BW)"/><linearGradient id="BX" gradientUnits="userSpaceOnUse" x1="506.192" y1="371.267" x2="532.489" y2="371.267"><stop offset="0" stop-color="#31ac74"/><stop offset="1" stop-color="#82c07e"/></linearGradient><path d="M531.8 398.9l.7-.3v-40.2l-25.7-14.8-.6.4 25.6 14.8z" fill="url(#BX)"/><linearGradient id="BY" gradientUnits="userSpaceOnUse" x1="504.612" y1="328.831" x2="530.714" y2="343.901"><stop offset="0" stop-color="#333"/><stop offset=".52" stop-color="#3f3e3e"/><stop offset="1" stop-color="#4e4d4d"/></linearGradient><path d="M530.8 351.1l-26.2-15v-14.5l26.2 15.1z" fill="url(#BY)"/><linearGradient id="BZ" gradientUnits="userSpaceOnUse" x1="504.612" y1="336.011" x2="531.897" y2="336.011"><stop offset="0" stop-color="#333"/><stop offset=".52" stop-color="#3f3e3e"/><stop offset="1" stop-color="#4e4d4d"/></linearGradient><path d="M504.6 321.6l1.2-.7 26 15.1v14.5l-1 .6v-14.4z" fill="url(#BZ)"/><linearGradient id="Ba" gradientUnits="userSpaceOnUse" x1="530.618" y1="317.958" x2="534.365" y2="320.122"><stop offset="0" stop-color="#333"/><stop offset=".52" stop-color="#3f3e3e"/><stop offset="1" stop-color="#4e4d4d"/></linearGradient><path d="M534.4 319.9l-1.7-1v-1.8l-.4-.4v2l-1.7-1v.5l1.7 1v1.9l.4.3v-2l1.7 1z" fill="url(#Ba)"/><linearGradient id="Bb" gradientUnits="userSpaceOnUse" x1="530.618" y1="209.212" x2="534.365" y2="211.376"><stop offset="0" stop-color="#333"/><stop offset=".52" stop-color="#3f3e3e"/><stop offset="1" stop-color="#4e4d4d"/></linearGradient><path d="M534.4 211.1l-1.7-1v-1.8l-.4-.2v1.8l-1.7-1v.6l1.7 1v1.8l.4.3v-1.9l1.7 1z" fill="url(#Bb)"/><linearGradient id="Bc" gradientUnits="userSpaceOnUse" x1="373.716" y1="227.379" x2="377.463" y2="229.543"><stop offset="0" stop-color="#333"/><stop offset=".52" stop-color="#3f3e3e"/><stop offset="1" stop-color="#4e4d4d"/></linearGradient><path d="M377.4 229.3l-1.5-.9v-2l-.5-.2v1.9l-1.7-1v.5l1.7 1v1.9l.5.3v-2l1.5 1z" fill="url(#Bc)"/><linearGradient id="Bd" gradientUnits="userSpaceOnUse" x1="373.716" y1="118.633" x2="377.463" y2="120.797"><stop offset="0" stop-color="#333"/><stop offset=".52" stop-color="#3f3e3e"/><stop offset="1" stop-color="#4e4d4d"/></linearGradient><path d="M377.4 120.5l-1.5-.9v-1.9l-.5-.2v1.8l-1.7-1v.6l1.7.9v1.9l.5.3v-1.8l1.5.8z" fill="url(#Bd)"/><linearGradient id="Be" gradientUnits="userSpaceOnUse" x1="452.221" y1="163.814" x2="455.968" y2="165.978"><stop offset="0" stop-color="#333"/><stop offset=".52" stop-color="#3f3e3e"/><stop offset="1" stop-color="#4e4d4d"/></linearGradient><path d="M456 165.7l-1.7-.9v-2l-.4-.2v1.9l-1.7-.9v.4l1.7 1v1.8l.4.4v-1.9l1.7.9z" fill="url(#Be)"/><linearGradient id="Bf" gradientUnits="userSpaceOnUse" x1="438.147" y1="285.741" x2="439.718" y2="285.741"><stop offset="0" stop-color="#fff"/><stop offset="1" stop-color="#d4d3d3"/></linearGradient><path d="M438.1 274.4l1.6-.8V297l-1.6.9z" fill="url(#Bf)"/><linearGradient id="Bg" gradientUnits="userSpaceOnUse" x1="439.692" y1="270.971" x2="460.163" y2="282.79"><stop offset="0" stop-color="#fff"/><stop offset="1" stop-color="#d4d3d3"/></linearGradient><path d="M439.7 268.4v5.2l20.4 11.8v-5.2l-20.4-11.8zm3.5 5.7c-.6-.4-1.2-1.3-1.2-2.1 0-.7.5-1.1 1.2-.7.6.4 1.2 1.3 1.2 2.1s-.5 1-1.2.7zm4.5 2.5c-.6-.4-1.2-1.3-1.2-2.1s.5-1.1 1.2-.7c.6.4 1.2 1.3 1.2 2.1s-.6 1.1-1.2.7zm4.5 2.6c-.6-.4-1.2-1.3-1.2-2.1 0-.7.5-1.1 1.2-.7.6.4 1.2 1.3 1.2 2.1s-.6 1.2-1.2.7zm4.5 2.7c-.6-.4-1.2-1.3-1.2-2.1 0-.7.5-1.1 1.2-.7.6.4 1.2 1.3 1.2 2.1s-.6 1-1.2.7z" fill="url(#Bg)"/><linearGradient id="Bh" gradientUnits="userSpaceOnUse" x1="439.708" y1="284.523" x2="460.179" y2="296.342"><stop offset="0" stop-color="#fff"/><stop offset="1" stop-color="#d4d3d3"/></linearGradient><path d="M456.2 283.1l-1.5-2.3-9.8-5.7-1.5.7-3.9-2.3V297l16.4 9.5 2.2-1 1.8 1.1v-21.3l-3.7-2.2zm-12.1 12.4c-.9-.5-1.6-1.7-1.6-2.7s.7-1.3 1.6-.9c.9.5 1.6 1.7 1.6 2.7-.1.9-.8 1.4-1.6.9zm4.2 2.3c-.9-.5-1.6-1.7-1.6-2.7s.7-1.3 1.6-.9c.9.5 1.6 1.7 1.6 2.7-.1 1-.7 1.4-1.6.9zm4.2 2.4c-.9-.5-1.6-1.7-1.6-2.7s.7-1.3 1.6-.9c.9.5 1.6 1.7 1.6 2.7-.2 1-.8 1.4-1.6.9zm2.5-3.6l-9.8-5.7c-.6-.4-1.1-1.2-1.1-1.8 0-.7.5-1 1.1-.6l9.8 5.7c.6.4 1.1 1.2 1.1 1.8 0 .7-.5.9-1.1.6z" fill="url(#Bh)"/><g fill="#313533"><path d="M459.6 283.7v20.7l-3.4 2.2c0 .5-.2.7-.5.9h0c-.2 0-.5 0-.7-.1h0l-13.1-7.7c-.7-.5-1.3-1.5-1.3-2.3v-24.7c0-.4.1-.6.4-.9l.1-.1c.2-.1.5-.1.9.1l16.5 9.5c.6.4 1.2 1.2 1.3 1.9h0c-.3.2-.2.4-.2.5z"/><path d="M459.5 283.3h0c-.1-.9-.7-1.7-1.3-2.1l-16.5-9.5c-.4-.2-.6-.2-.9-.1h0-.1l-1.5.9c-.2.1-.5.5-.5.9V298c0 .9.6 1.9 1.3 2.3l13.3 7.7c.4.2.7.1 1 .1l1.5-.9c.2-.1.4-.4.4-.9l3.4-2.2-.1-20.8z"/><path d="M458 284.5v20.7l-3.2 1.9-.4.2c0 .4-.1.6-.2.7 0 0-.1 0-.1.1-.2.1-.5.1-.9-.1l-13.3-7.7c-.7-.5-1.3-1.5-1.3-2.3v-24.7c0-.9.6-1.2 1.3-.7l.2.1 16.3 9.4c1 .6 1.6 1.6 1.6 2.4z"/></g><linearGradient id="Bi" gradientUnits="userSpaceOnUse" x1="438.137" y1="285.43" x2="458.607" y2="297.25"><stop offset="0" stop-color="#fff"/><stop offset="1" stop-color="#d4d3d3"/></linearGradient><path d="M454.8 284l-1.5-2.3-9.8-5.7-1.5.7-3.9-2.3v23.5l16.4 9.5 2.2-1 1.8 1.1v-21.3l-3.7-2.2zm-12.3 12.3c-.9-.5-1.6-1.7-1.6-2.7s.7-1.3 1.6-.9c.9.5 1.6 1.7 1.6 2.7s-.8 1.4-1.6.9zm4.2 2.4c-.9-.5-1.6-1.7-1.6-2.7s.7-1.3 1.6-.9c.9.5 1.6 1.7 1.6 2.7-.1 1.1-.7 1.4-1.6.9zm4.2 2.5c-.9-.5-1.6-1.7-1.6-2.7s.7-1.3 1.6-.9c.9.5 1.6 1.7 1.6 2.7 0 .9-.8 1.4-1.6.9zm2.5-3.7l-9.8-5.7c-.6-.4-1.1-1.2-1.1-1.8 0-.7.5-1 1.1-.6l9.8 5.7c.6.4 1.1 1.2 1.1 1.8s-.5 1-1.1.6z" fill="url(#Bi)"/><linearGradient id="Bj" gradientUnits="userSpaceOnUse" x1="454.407" y1="290.186" x2="464.421" y2="295.968"><stop offset="0" stop-color="#fff"/><stop offset="1" stop-color="#d4d3d3"/></linearGradient><path d="M458.7 282.8l1.5-.8v21.2l-1.5 1z" fill="url(#Bj)"/><path d="M389.5 197.8l-7.6-4.3V151l7.6 4.4z" class="De"/><linearGradient id="Bk" gradientUnits="userSpaceOnUse" x1="346.979" y1="188.909" x2="389.448" y2="188.909"><stop offset="0" stop-color="#252532"/><stop offset="1" stop-color="#3f4051"/></linearGradient><path d="M346.9 222.4l42.6-24.6v-42.4L346.9 180z" fill="url(#Bk)"/><linearGradient id="Bl" gradientUnits="userSpaceOnUse" x1="339.454" y1="199" x2="346.979" y2="199"><stop offset="0" stop-color="#252532"/><stop offset="1" stop-color="#3f4051"/></linearGradient><path d="M346.9 180l-7.5-4.4V218l7.5 4.4z" fill="url(#Bl)"/><linearGradient id="Bm" gradientUnits="userSpaceOnUse" x1="389.483" y1="207.327" x2="506.436" y2="207.327"><stop offset="0" stop-color="#252532"/><stop offset="1" stop-color="#3f4051"/></linearGradient><path d="M506.4 259.2l-116.9-67.4v-36.4l116.9 67.5z" fill="url(#Bm)"/><linearGradient id="Bn" gradientUnits="userSpaceOnUse" x1="386.809" y1="208.969" x2="504.004" y2="208.969"><stop offset="0" stop-color="#3f4051"/><stop offset="1" stop-color="#252532"/></linearGradient><path d="M504 260.9l-116.9-67.4-.3-36.5L504 224.6z" fill="url(#Bn)"/><path d="M452.2 260.9l-8-4.6v-9.1l8 4.5z" class="De"/><linearGradient id="Bo" gradientUnits="userSpaceOnUse" x1="407.354" y1="239.544" x2="451.971" y2="239.544"><stop offset="0" stop-color="#252532"/><stop offset="1" stop-color="#3f4051"/></linearGradient><path d="M452 234.4l-1.2 2.7-22 12-11.9-.5-1.9-.1-7.5-4.4c9.8-.5 17-2.8 22.1-5 6.6-2.9 15.1-9.2 15.1-9.2l7.3 4.5z" fill="url(#Bo)"/><linearGradient id="Bp" gradientUnits="userSpaceOnUse" x1="404.923" y1="251.397" x2="414.877" y2="251.397"><stop offset="0" stop-color="#252532"/><stop offset="1" stop-color="#3f4051"/></linearGradient><path d="M404.9 245.6l2.5-1.3 7.5 4.4v9.8l-7.5-4.4z" fill="url(#Bp)"/><linearGradient id="Bq" gradientUnits="userSpaceOnUse" x1="402.021" y1="255.774" x2="409.547" y2="255.774"><stop offset="0" stop-color="#252532"/><stop offset="1" stop-color="#3f4051"/></linearGradient><path d="M409.5 254.3L402 250v7.2l7.5 4.3z" fill="url(#Bq)"/><linearGradient id="Br" gradientUnits="userSpaceOnUse" x1="402.021" y1="249.938" x2="412.44" y2="249.938"><stop offset="0" stop-color="#252532"/><stop offset="1" stop-color="#3f4051"/></linearGradient><path d="M402 250l2.9-4.4 7.6 4.4-3 4.3z" fill="url(#Br)"/><linearGradient id="Bs" gradientUnits="userSpaceOnUse" x1="409.543" y1="248.054" x2="451.971" y2="248.054"><stop offset="0" stop-color="#252532"/><stop offset="1" stop-color="#3f4051"/></linearGradient><path d="M452 234.4v2.7l-42.4 24.6v-7.3l2.9-4.3 2.4-1.5c9.8-.5 17-2.8 22.1-5 6.5-2.8 15-9.2 15-9.2z" fill="url(#Bs)"/><linearGradient id="Bt" gradientUnits="userSpaceOnUse" x1="392.95" y1="238.674" x2="423.232" y2="186.223"><stop offset="0" stop-color="#979797"/><stop offset=".082" stop-color="#ababab"/><stop offset=".231" stop-color="#c8c8c8"/><stop offset=".388" stop-color="#dfdfde"/><stop offset=".558" stop-color="#efefef"/><stop offset=".748" stop-color="#f9f8f8"/><stop offset="1" stop-color="#fcfbfb"/></linearGradient><path d="M471.8 214.3c-3.8-1.7-8.9-1.2-14.3 1.9C445.6 223 436 239.5 436 253c0 6.6 2.3 11.3 6 13.5l-83.8-47.9c-3.4-2.4-5.5-6.9-5.5-13.1 0-13.5 9.6-30 21.4-36.8 6-3.4 11.3-3.8 15.2-1.5.7.3 82.5 47.1 82.5 47.1z" fill="url(#Bt)"/><path d="M494.5 227.4l-31.1 51.5-20.9-12c-.1-.1-.4-.2-.5-.2-3.6-2.3-6-6.9-6-13.5 0-13.5 9.6-30 21.4-36.8 5.5-3.2 10.6-3.6 14.3-1.9h0l1.5.9s.1 0 .1.1l21.2 11.9z" class="DT"/><path d="M500.7 241c0 13.5-9.6 30-21.4 36.8-5.5 3.2-10.5 3.6-14.3 1.9-.6-.2-1.1-.6-1.6-1-3.4-2.4-5.5-6.9-5.5-13.3 0-13.5 9.6-30 21.4-36.8 5.8-3.4 11.1-3.8 15-1.7 3.9 2.4 6.4 7.2 6.4 14.1z" fill="#1e8654"/><linearGradient id="Bu" gradientUnits="userSpaceOnUse" x1="470.761" y1="276.704" x2="487.777" y2="229.954"><stop offset="0" stop-color="#979797"/><stop offset=".082" stop-color="#ababab"/><stop offset=".231" stop-color="#c8c8c8"/><stop offset=".388" stop-color="#dfdfde"/><stop offset=".558" stop-color="#efefef"/><stop offset=".748" stop-color="#f9f8f8"/><stop offset="1" stop-color="#fcfbfb"/></linearGradient><path d="M497.1 243.1c0 11.3-8 25-17.9 30.8-4.6 2.7-8.8 3-11.9 1.6a7.62 7.62 0 0 1-1.3-.7c-2.8-1.9-4.5-5.8-4.5-11.1 0-11.3 8-25 17.9-30.8 4.9-2.8 9.2-3.2 12.4-1.3 3.2 1.7 5.3 5.8 5.3 11.5z" fill="url(#Bu)"/><linearGradient id="Bv" gradientUnits="userSpaceOnUse" x1="473.336" y1="269.737" x2="485.258" y2="236.981"><stop offset="0" stop-color="#979797"/><stop offset=".082" stop-color="#ababab"/><stop offset=".231" stop-color="#c8c8c8"/><stop offset=".388" stop-color="#dfdfde"/><stop offset=".558" stop-color="#efefef"/><stop offset=".748" stop-color="#f9f8f8"/><stop offset="1" stop-color="#fcfbfb"/></linearGradient><path d="M491.8 246.1c0 7.9-5.6 17.6-12.5 21.5-3.2 1.8-6.2 2.2-8.4 1.1-.4-.1-.6-.4-1-.5-1.9-1.3-3.2-4-3.2-7.8 0-7.9 5.6-17.6 12.5-21.5 3.4-1.9 6.4-2.2 8.8-1 2.4 1.4 3.8 4.2 3.8 8.2z" fill="url(#Bv)"/><linearGradient id="Bw" gradientUnits="userSpaceOnUse" x1="471.211" y1="253.342" x2="487.407" y2="253.342"><stop offset="0" stop-color="#fff"/><stop offset="1" stop-color="#d4d3d3"/></linearGradient><path d="M487.3 248.7c0 5.1-3.6 11.4-8.1 14s-8.1.5-8.1-4.6 3.6-11.4 8.1-14c4.6-2.6 8.1-.5 8.1 4.6z" fill="url(#Bw)"/><path d="M511.5 268.4L504 264v-42.4l7.5 4.3z" class="De"/><linearGradient id="Bx" gradientUnits="userSpaceOnUse" x1="471.771" y1="263.433" x2="479.296" y2="263.433"><stop offset="0" stop-color="#252532"/><stop offset="1" stop-color="#3f4051"/></linearGradient><path d="M479.3 244.4v42.4l-7.5-4.3V240z" fill="url(#Bx)"/><linearGradient id="By" gradientUnits="userSpaceOnUse" x1="404.914" y1="220.214" x2="412.44" y2="220.214"><stop offset="0" stop-color="#252532"/><stop offset="1" stop-color="#3f4051"/></linearGradient><path d="M412.5 217.4l-7.6-4.2v9.8l7.6 4.3z" fill="url(#By)"/><linearGradient id="Bz" gradientUnits="userSpaceOnUse" x1="407.342" y1="218.816" x2="414.868" y2="218.816"><stop offset="0" stop-color="#252532"/><stop offset="1" stop-color="#3f4051"/></linearGradient><path d="M414.9 216.1l-7.5-4.4v9.9l7.5 4.3z" fill="url(#Bz)"/><linearGradient id="CA" gradientUnits="userSpaceOnUse" x1="402.021" y1="220.579" x2="409.547" y2="220.579"><stop offset="0" stop-color="#252532"/><stop offset="1" stop-color="#3f4051"/></linearGradient><path d="M409.5 219.1l-7.5-4.4v7.3l7.5 4.4z" fill="url(#CA)"/><linearGradient id="CB" gradientUnits="userSpaceOnUse" x1="409.543" y1="211.035" x2="451.971" y2="211.035"><stop offset="0" stop-color="#252532"/><stop offset="1" stop-color="#3f4051"/></linearGradient><path d="M412.5 217.4l-2.9 1.7v7.3l2.9 1 2.4-1.5c6.6-9.6 13.4-15.4 18.6-19.2 6.9-4.9 18.5-7.4 18.5-7.4v-4.6l-39.5 22.7z" fill="url(#CB)"/><linearGradient id="CC" gradientUnits="userSpaceOnUse" x1="473.976" y1="275.446" x2="473.976" y2="254.293"><stop offset="0" stop-color="#fff"/><stop offset="1" stop-color="#d4d3d3"/></linearGradient><use xlink:href="#t" fill="url(#CC)"/><linearGradient id="CD" gradientUnits="userSpaceOnUse" x1="474.28" y1="275.448" x2="474.28" y2="254.659"><stop offset="0" stop-color="#979797"/><stop offset=".082" stop-color="#ababab"/><stop offset=".231" stop-color="#c8c8c8"/><stop offset=".388" stop-color="#dfdfde"/><stop offset=".558" stop-color="#efefef"/><stop offset=".748" stop-color="#f9f8f8"/><stop offset="1" stop-color="#fcfbfb"/></linearGradient><path d="M475.6 254.6v20.8c-1.6-2.1-2.6-5.1-2.6-9 .1-3.6 1-7.8 2.6-11.8z" fill="url(#CD)"/><linearGradient id="CE" gradientUnits="userSpaceOnUse" x1="341.827" y1="209.759" x2="341.827" y2="188.605"><stop offset="0" stop-color="#fff"/><stop offset="1" stop-color="#d4d3d3"/></linearGradient><path d="M343.4 189v20.8l-.6-.4c-1.6-2.1-2.6-5.1-2.6-9 0-3.8 1-7.9 2.6-11.8l.6.4z" fill="url(#CE)"/><linearGradient id="CF" gradientUnits="userSpaceOnUse" x1="342.131" y1="209.759" x2="342.131" y2="188.97"><stop offset="0" stop-color="#979797"/><stop offset=".082" stop-color="#ababab"/><stop offset=".231" stop-color="#c8c8c8"/><stop offset=".388" stop-color="#dfdfde"/><stop offset=".558" stop-color="#efefef"/><stop offset=".748" stop-color="#f9f8f8"/><stop offset="1" stop-color="#fcfbfb"/></linearGradient><path d="M343.4 189v20.8c-1.6-2.1-2.6-5.1-2.6-9 .2-3.8 1-7.9 2.6-11.8z" fill="url(#CF)"/><linearGradient id="CG" gradientUnits="userSpaceOnUse" x1="402.912" y1="161.133" x2="370.725" y2="179.716"><stop offset="0" stop-color="#252532"/><stop offset="1" stop-color="#3f4051"/></linearGradient><path d="M366.3 168.8v3.3h41.1v-3.2z" fill="url(#CG)"/><linearGradient id="CH" gradientUnits="userSpaceOnUse" x1="339.396" y1="197.723" x2="511.542" y2="197.723"><stop offset="0" stop-color="#252532"/><stop offset="1" stop-color="#3f4051"/></linearGradient><use xlink:href="#u" fill="url(#CH)"/><use xlink:href="#u" fill="url(#CH)"/><linearGradient id="CI" gradientUnits="userSpaceOnUse" x1="501.166" y1="265.5" x2="501.367" y2="265.5"><stop offset="0" stop-color="#252532"/><stop offset="1" stop-color="#3f4051"/></linearGradient><path d="M501.3 265.6l-.2-.1.2.1z" fill="url(#CI)"/><linearGradient id="CJ" gradientUnits="userSpaceOnUse" x1="479.325" y1="256.382" x2="511.542" y2="256.382"><stop offset="0" stop-color="#252532"/><stop offset="1" stop-color="#3f4051"/></linearGradient><path d="M479.3 286.8l32.2-18.4v-42.5l-32.2 18.5z" fill="url(#CJ)"/><linearGradient id="CK" gradientUnits="userSpaceOnUse" x1="482.364" y1="269.815" x2="508.502" y2="269.815"><stop offset="0" stop-color="#3f4051"/><stop offset="1" stop-color="#252532"/></linearGradient><path d="M508.5 258.4v4.5l-2.9 4.8-23.2 13.5v-7.7l24.4-14.1z" fill="url(#CK)"/><linearGradient id="CL" gradientUnits="userSpaceOnUse" x1="482.364" y1="243.677" x2="508.502" y2="243.677"><stop offset="0" stop-color="#3f4051"/><stop offset="1" stop-color="#252532"/></linearGradient><path d="M508.5 234.8v4.4l-26.1 15.1v-7.7l23.2-13.5 1.2.7z" fill="url(#CL)"/><linearGradient id="CM" gradientUnits="userSpaceOnUse" x1="503.667" y1="246.291" x2="508.475" y2="246.291"><stop offset="0" stop-color="#3f4051"/><stop offset="1" stop-color="#252532"/></linearGradient><path d="M508.5 242.7v4.4l-4.9 2.8v-4.4l3.2-1.8z" fill="url(#CM)"/><linearGradient id="CN" gradientUnits="userSpaceOnUse" x1="503.667" y1="254.072" x2="508.475" y2="254.072"><stop offset="0" stop-color="#3f4051"/><stop offset="1" stop-color="#252532"/></linearGradient><path d="M508.5 250.5v4.5l-4.9 2.7v-4.4l3.2-1.7z" fill="url(#CN)"/><linearGradient id="CO" gradientUnits="userSpaceOnUse" x1="482.364" y1="269.329" x2="506.8" y2="269.329"><stop offset="0" stop-color="#252532"/><stop offset="1" stop-color="#3f4051"/></linearGradient><path d="M506.8 259.4v2.5l-2.9 4.9-21.5 12.5v-5.8z" fill="url(#CO)"/><linearGradient id="CP" gradientUnits="userSpaceOnUse" x1="482.364" y1="242.705" x2="506.8" y2="242.705"><stop offset="0" stop-color="#252532"/><stop offset="1" stop-color="#3f4051"/></linearGradient><path d="M506.8 233.8v4.4l-24.4 14.1v-5.7l23.2-13.5z" fill="url(#CP)"/><linearGradient id="CQ" gradientUnits="userSpaceOnUse" x1="503.667" y1="245.805" x2="506.781" y2="245.805"><stop offset="0" stop-color="#252532"/><stop offset="1" stop-color="#3f4051"/></linearGradient><path d="M506.8 243.7v2.4l-3.2 1.8v-2.4z" fill="url(#CQ)"/><linearGradient id="CR" gradientUnits="userSpaceOnUse" x1="503.667" y1="253.646" x2="506.781" y2="253.646"><stop offset="0" stop-color="#252532"/><stop offset="1" stop-color="#3f4051"/></linearGradient><path d="M506.8 251.6v2.3l-3.2 1.8v-2.4z" fill="url(#CR)"/></g><defs><path id="CS" d="M489.7 508.7c-3.4 0-7.1-1.1-10.9-3.3l-145.4-84c-16.3-9.4-29.4-34.8-29.4-56.5V111.3c0-11.2 3.6-19.7 9.7-22.9h.4l.5-.4c1-.4 1.9-.6 2.9-.9.7-.1 1.5-.1 2.3-.1 3.4 0 7.1 1.1 10.9 3.3l145.4 84c16.3 9.4 29.4 34.8 29.4 56.5v253.5c0 8.6-2.2 15.8-6.1 20.1-.9.9-1.7 1.7-2.7 2.2-2.1 1.4-4.4 2.1-7 2.1h0z"/></defs><clipPath id="CT"><use xlink:href="#CS"/></clipPath><linearGradient id="CU" gradientUnits="userSpaceOnUse" x1="417.723" y1="373.088" x2="437.233" y2="373.088"><stop offset="0" stop-color="#252532"/><stop offset="1" stop-color="#3f4051"/></linearGradient><path d="M437.3 374.6c0-4-2.8-8.9-6.3-10.9-1.8-1-3.4-1.1-4.5-.5h0l-8.6 4.7 9 15.4 8.6-4.6c1-.7 1.8-2.1 1.8-4.1z" clip-path="url(#CT)" fill="url(#CU)"/><defs><path id="CV" d="M489.7 508.7c-3.4 0-7.1-1.1-10.9-3.3l-145.4-84c-16.3-9.4-29.4-34.8-29.4-56.5V111.3c0-11.2 3.6-19.7 9.7-22.9h.4l.5-.4c1-.4 1.9-.6 2.9-.9.7-.1 1.5-.1 2.3-.1 3.4 0 7.1 1.1 10.9 3.3l145.4 84c16.3 9.4 29.4 34.8 29.4 56.5v253.5c0 8.6-2.2 15.8-6.1 20.1-.9.9-1.7 1.7-2.7 2.2-2.1 1.4-4.4 2.1-7 2.1h0z"/></defs><clipPath id="CW"><use xlink:href="#CV"/></clipPath><linearGradient id="CX" gradientUnits="userSpaceOnUse" x1="450.093" y1="391.688" x2="469.603" y2="391.688"><stop offset="0" stop-color="#252532"/><stop offset="1" stop-color="#3f4051"/></linearGradient><path d="M469.6 393.2c0-4-2.8-8.9-6.3-10.9-1.8-1-3.4-1.1-4.5-.5h0l-8.6 4.7 9 15.4 8.6-4.6c1.1-.6 1.8-2 1.8-4.1z" clip-path="url(#CW)" fill="url(#CX)"/><defs><path id="CY" d="M489.7 508.7c-3.4 0-7.1-1.1-10.9-3.3l-145.4-84c-16.3-9.4-29.4-34.8-29.4-56.5V111.3c0-11.2 3.6-19.7 9.7-22.9h.4l.5-.4c1-.4 1.9-.6 2.9-.9.7-.1 1.5-.1 2.3-.1 3.4 0 7.1 1.1 10.9 3.3l145.4 84c16.3 9.4 29.4 34.8 29.4 56.5v253.5c0 8.6-2.2 15.8-6.1 20.1-.9.9-1.7 1.7-2.7 2.2-2.1 1.4-4.4 2.1-7 2.1h0z"/></defs><clipPath id="CZ"><use xlink:href="#CY"/></clipPath><g clip-path="url(#CZ)"><linearGradient id="Ca" gradientUnits="userSpaceOnUse" x1="416.002" y1="371.872" x2="428.71" y2="379.209"><stop offset="0" stop-color="#252532"/><stop offset="1" stop-color="#3f4051"/></linearGradient><path d="M422.4 368.3c-3.5-2.1-6.3-.4-6.3 3.6s2.8 8.9 6.3 10.9c3.5 2.1 6.3.4 6.3-3.6.1-4-2.9-8.8-6.3-10.9z" fill="url(#Ca)"/><linearGradient id="Cb" gradientUnits="userSpaceOnUse" x1="418.93" y1="373.572" x2="425.79" y2="377.533"><stop offset="0" stop-color="#3f4051"/><stop offset=".063" stop-color="#3a3b4b"/><stop offset=".287" stop-color="#2e2f3d"/><stop offset=".557" stop-color="#272735"/><stop offset="1" stop-color="#252532"/></linearGradient><path d="M422.3 371.6c-1.9-1.1-3.4-.2-3.4 1.9s1.6 4.9 3.4 6 3.4.2 3.4-1.9c.1-2.3-1.4-4.9-3.4-6z" fill="url(#Cb)"/></g><defs><path id="Cc" d="M489.7 508.7c-3.4 0-7.1-1.1-10.9-3.3l-145.4-84c-16.3-9.4-29.4-34.8-29.4-56.5V111.3c0-11.2 3.6-19.7 9.7-22.9h.4l.5-.4c1-.4 1.9-.6 2.9-.9.7-.1 1.5-.1 2.3-.1 3.4 0 7.1 1.1 10.9 3.3l145.4 84c16.3 9.4 29.4 34.8 29.4 56.5v253.5c0 8.6-2.2 15.8-6.1 20.1-.9.9-1.7 1.7-2.7 2.2-2.1 1.4-4.4 2.1-7 2.1h0z"/></defs><clipPath id="Cd"><use xlink:href="#Cc"/></clipPath><g clip-path="url(#Cd)"><linearGradient id="Ce" gradientUnits="userSpaceOnUse" x1="448.356" y1="390.603" x2="461.064" y2="397.94"><stop offset="0" stop-color="#252532"/><stop offset="1" stop-color="#3f4051"/></linearGradient><path d="M454.8 387c-3.5-2.1-6.3-.4-6.3 3.6s2.8 8.9 6.3 10.9c3.5 2.1 6.3.4 6.3-3.6s-2.9-8.9-6.3-10.9z" fill="url(#Ce)"/><linearGradient id="Cf" gradientUnits="userSpaceOnUse" x1="451.284" y1="392.233" x2="458.143" y2="396.194"><stop offset="0" stop-color="#3f4051"/><stop offset=".063" stop-color="#3a3b4b"/><stop offset=".287" stop-color="#2e2f3d"/><stop offset=".557" stop-color="#272735"/><stop offset="1" stop-color="#252532"/></linearGradient><path d="M454.8 390.3c-1.9-1.1-3.4-.2-3.4 1.9 0 2.2 1.6 4.9 3.4 6s3.4.2 3.4-1.9c0-2.2-1.6-4.9-3.4-6z" fill="url(#Cf)"/></g><defs><path id="Cg" d="M489.7 508.7c-3.4 0-7.1-1.1-10.9-3.3l-145.4-84c-16.3-9.4-29.4-34.8-29.4-56.5V111.3c0-11.2 3.6-19.7 9.7-22.9h.4l.5-.4c1-.4 1.9-.6 2.9-.9.7-.1 1.5-.1 2.3-.1 3.4 0 7.1 1.1 10.9 3.3l145.4 84c16.3 9.4 29.4 34.8 29.4 56.5v253.5c0 8.6-2.2 15.8-6.1 20.1-.9.9-1.7 1.7-2.7 2.2-2.1 1.4-4.4 2.1-7 2.1h0z"/></defs><clipPath id="Ch"><use xlink:href="#Cg"/></clipPath><g clip-path="url(#Ch)"><linearGradient id="Ci" gradientUnits="userSpaceOnUse" x1="467.425" y1="458.073" x2="544.988" y2="458.073"><stop offset="0" stop-color="#252532"/><stop offset="1" stop-color="#3f4051"/></linearGradient><use xlink:href="#v" fill="url(#Ci)"/><linearGradient id="Cj" gradientUnits="userSpaceOnUse" x1="467.411" y1="326.289" x2="545.096" y2="326.289"><stop offset="0" stop-color="#252532"/><stop offset="1" stop-color="#3f4051"/></linearGradient><path d="M545.1 322c0-10.1-7.2-22.5-15.9-27.6-4.5-2.6-8.5-2.8-11.4-1.1l-50.3 28.2 22.7 38.9 50.2-28.2c2.9-1.7 4.7-5.2 4.7-10.2z" fill="url(#Cj)"/><linearGradient id="Ck" gradientUnits="userSpaceOnUse" x1="467.425" y1="194.383" x2="544.988" y2="194.383"><stop offset="0" stop-color="#252532"/><stop offset="1" stop-color="#3f4051"/></linearGradient><path d="M545.1 190.1c0-10.1-7.2-22.5-15.9-27.6-4.5-2.6-8.5-2.8-11.3-1.1h0l-50.3 28.2 22.7 38.9 49.8-28c3.1-1.6 5-5.2 5-10.4z" fill="url(#Ck)"/><linearGradient id="Cl" gradientUnits="userSpaceOnUse" x1="463.034" y1="463.332" x2="495.008" y2="481.793"><stop offset="0" stop-color="#252532"/><stop offset="1" stop-color="#3f4051"/></linearGradient><path d="M479.1 454.2c-8.9-5.1-16-1-16 9.1s7.2 22.5 16 27.6 15.9 1 15.9-9.1-7.2-22.5-15.9-27.6z" fill="url(#Cl)"/><linearGradient id="Cm" gradientUnits="userSpaceOnUse" x1="470.41" y1="467.591" x2="487.673" y2="477.558"><stop offset="0" stop-color="#3f4051"/><stop offset=".063" stop-color="#3a3b4b"/><stop offset=".287" stop-color="#2e2f3d"/><stop offset=".557" stop-color="#272735"/><stop offset="1" stop-color="#252532"/></linearGradient><use xlink:href="#w" fill="url(#Cm)"/><linearGradient id="Cn" gradientUnits="userSpaceOnUse" x1="463.034" y1="331.548" x2="495.008" y2="350.009"><stop offset="0" stop-color="#252532"/><stop offset="1" stop-color="#3f4051"/></linearGradient><path d="M479.1 322.5c-8.9-5.1-16-1-16 9.1s7.2 22.5 16 27.6 15.9 1 15.9-9.1c0-10.3-7.2-22.5-15.9-27.6z" fill="url(#Cn)"/><linearGradient id="Co" gradientUnits="userSpaceOnUse" x1="470.41" y1="335.685" x2="487.673" y2="345.652"><stop offset="0" stop-color="#3f4051"/><stop offset=".063" stop-color="#3a3b4b"/><stop offset=".287" stop-color="#2e2f3d"/><stop offset=".557" stop-color="#272735"/><stop offset="1" stop-color="#252532"/></linearGradient><path d="M479.1 330.8c-4.7-2.8-8.6-.6-8.6 4.9s3.9 12.2 8.6 14.8c4.7 2.8 8.6.6 8.6-4.9s-3.9-12-8.6-14.8z" fill="url(#Co)"/><linearGradient id="Cp" gradientUnits="userSpaceOnUse" x1="463.034" y1="199.642" x2="495.008" y2="218.103"><stop offset="0" stop-color="#252532"/><stop offset="1" stop-color="#3f4051"/></linearGradient><path d="M479.1 190.6c-8.9-5.1-16-1-16 9.1s7.2 22.5 16 27.6c8.9 5.1 15.9 1 15.9-9.1s-7.2-22.5-15.9-27.6z" fill="url(#Cp)"/><linearGradient id="Cq" gradientUnits="userSpaceOnUse" x1="470.41" y1="203.901" x2="487.673" y2="213.868"><stop offset="0" stop-color="#3f4051"/><stop offset=".063" stop-color="#3a3b4b"/><stop offset=".287" stop-color="#2e2f3d"/><stop offset=".557" stop-color="#272735"/><stop offset="1" stop-color="#252532"/></linearGradient><path d="M479.1 199.1c-4.7-2.8-8.6-.6-8.6 4.9s3.9 12.2 8.6 14.8c4.7 2.8 8.6.6 8.6-4.9s-3.9-12.2-8.6-14.8z" fill="url(#Cq)"/></g><g class="DS DU DW DX DY DZ"><path d="M543.8 166.4l-1.6.9"/><path d="M539 169.2l-141.2 82.5" stroke-dasharray="2.9577,2.9577"/><path d="M396.3 252.6l-1.6.9"/></g></svg>