<svg xmlns="http://www.w3.org/2000/svg" xmlns:xlink="http://www.w3.org/1999/xlink" viewBox="0 0 182.55 296.43"><defs><style>.cls-1,.cls-10,.cls-20{fill:none;}.cls-1,.cls-20{stroke:#e2887f;stroke-miterlimit:10;}.cls-1{stroke-width:0.83px;stroke-dasharray:3.65;}.cls-2{fill-opacity:0.06;fill:url(#linear-gradient);}.cls-2,.cls-3,.cls-4{fill-rule:evenodd;}.cls-3{fill-opacity:0.09;fill:url(#linear-gradient-2);}.cls-4{fill:#f2f2f2;}.cls-5{fill:url(#linear-gradient-3);}.cls-6{fill:url(#linear-gradient-4);}.cls-7{fill:url(#linear-gradient-5);}.cls-8{fill:#fff;}.cls-9{fill:url(#linear-gradient-6);}.cls-11{fill:url(#linear-gradient-7);}.cls-12{fill:url(#linear-gradient-8);}.cls-13{fill:url(#linear-gradient-9);}.cls-14{fill:url(#linear-gradient-10);}.cls-15{fill:url(#linear-gradient-11);}.cls-16{fill:#e40427;}.cls-17{fill:url(#linear-gradient-12);}.cls-18{fill:url(#linear-gradient-13);}.cls-19{fill:url(#linear-gradient-14);}.cls-20{stroke-width:0.77px;}.cls-21{fill:url(#linear-gradient-15);}.cls-22{fill:url(#linear-gradient-16);}.cls-23{fill:url(#linear-gradient-17);}.cls-24{fill:url(#linear-gradient-18);}.cls-25{fill:url(#linear-gradient-19);}.cls-26{fill:url(#linear-gradient-20);}</style><linearGradient id="linear-gradient" x1="-3845.65" x2="-3845.64" y1="1665.95" y2="1665.62" gradientTransform="matrix(-152 0 0 -167 -584450.26 278452.71)" gradientUnits="userSpaceOnUse"><stop offset=".04" stop-color="#1a1a1a"/><stop offset=".97" stop-color="#999" stop-opacity="0"/></linearGradient><linearGradient id="linear-gradient-2" x1="-3804.7" x2="-3804.39" y1="1666.25" y2="1665.96" gradientTransform="matrix(-72 0 0 -156 -273865.94 260161.63)" gradientUnits="userSpaceOnUse"><stop offset="0" stop-color="#333"/><stop offset=".14" stop-color="#454545" stop-opacity=".82"/><stop offset=".66" stop-color="#828282" stop-opacity=".23"/><stop offset=".95" stop-color="#999" stop-opacity="0"/></linearGradient><linearGradient id="linear-gradient-3" x1="81.74" x2="125.64" y1="200.81" y2="208.55" gradientUnits="userSpaceOnUse"><stop offset="0" stop-color="#fff"/><stop offset="1" stop-color="#d4d4d4"/></linearGradient><linearGradient id="linear-gradient-4" x1="78.17" x2="129.21" y1="179.29" y2="188.3" xlink:href="#linear-gradient-3"/><linearGradient id="linear-gradient-5" x1="43.5" x2="96.66" y1="153.18" y2="183.87" gradientUnits="userSpaceOnUse"><stop offset=".03" stop-color="#808080"/><stop offset=".21" stop-color="#a1a1a1"/><stop offset=".42" stop-color="#bfbfbf"/><stop offset=".62" stop-color="#d5d5d5"/><stop offset=".82" stop-color="#e2e2e2"/><stop offset="1" stop-color="#e6e6e6"/></linearGradient><linearGradient id="linear-gradient-6" x1="68.63" x2="131.87" y1="167.69" y2="204.2" xlink:href="#linear-gradient-5"/><linearGradient id="linear-gradient-7" x1="74.93" x2="69.75" y1="207.97" y2="198.23" gradientUnits="userSpaceOnUse"><stop offset="0" stop-color="#0045f4" stop-opacity="0"/><stop offset="1" stop-color="#6dfafa"/></linearGradient><linearGradient id="linear-gradient-8" x1="57.46" x2="89.39" y1="177.66" y2="183.29" xlink:href="#linear-gradient-3"/><linearGradient id="linear-gradient-9" x1="16.82" x2="80.06" y1="159.58" y2="196.1" xlink:href="#linear-gradient-5"/><linearGradient id="linear-gradient-10" x1="110.28" x2="110.28" y1="231.22" y2="215.81" xlink:href="#linear-gradient-7"/><linearGradient id="linear-gradient-11" x1="93.76" x2="125.68" y1="200.41" y2="206.04" gradientUnits="userSpaceOnUse"><stop offset="0" stop-color="#a8190a"/><stop offset="1" stop-color="#e0341b"/></linearGradient><linearGradient id="linear-gradient-12" x1="57.6" x2="110.67" y1="183.17" y2="213.81" gradientUnits="userSpaceOnUse"><stop offset="0" stop-color="#a8190a"/><stop offset=".44" stop-color="#a8190a"/><stop offset="1" stop-color="#a8190a"/></linearGradient><linearGradient id="linear-gradient-13" x1="51.83" x2="74.21" y1="192.15" y2="205.07" xlink:href="#linear-gradient-5"/><linearGradient id="linear-gradient-14" x1="56.3" x2="102.62" y1="209.62" y2="217.78" xlink:href="#linear-gradient-3"/><linearGradient id="linear-gradient-15" x1="114.6" x2="120.35" y1="167.35" y2="167.35" gradientTransform="translate(284.19 48.97) rotate(89.69)" xlink:href="#linear-gradient-11"/><linearGradient id="linear-gradient-16" x1="92.11" x2="97.87" y1="155.41" y2="155.41" gradientTransform="translate(249.88 59.58) rotate(89.69)" xlink:href="#linear-gradient-11"/><linearGradient id="linear-gradient-17" x1="69.99" x2="75.75" y1="160.15" y2="160.15" gradientTransform="translate(232.62 86.42) rotate(89.69)" xlink:href="#linear-gradient-11"/><linearGradient id="linear-gradient-18" x1="125.15" x2="149.54" y1="8.34" y2="75.35" gradientUnits="userSpaceOnUse"><stop offset="0" stop-color="#fff"/><stop offset=".32" stop-color="#efefef"/><stop offset=".96" stop-color="#c6c6c6"/><stop offset="1" stop-color="#c3c3c3"/></linearGradient><linearGradient id="linear-gradient-19" x1="64.84" x2="103.2" y1="3.63" y2="109.01" xlink:href="#linear-gradient-18"/><linearGradient id="linear-gradient-20" x1="25.11" x2="45.95" y1="61.91" y2="119.16" xlink:href="#linear-gradient-18"/></defs><title>cloud</title><g id="Vrstva_2"><g id="Layer_1"><path d="M95 95.1V66.5M72.87 124.3V95.7M116.88 124.37V55.92" class="cls-1"/><path d="M146.2 212.37l-115.78 4.08v80H146.2z" class="cls-2"/><path d="M86.77 212.37l-53.5 3.8v72.1h53.5z" class="cls-3"/><path d="M90.8 183.28L34.37 216c-1.6.92-1.4 2.54.44 3.6l47.64 27.6a6.9 6.9 0 0 0 6.23.25l56.45-32.7c1.6-.9 1.4-2.53-.44-3.6L97 183.55a6.88 6.88 0 0 0-6.2-.27z" class="cls-4"/><path d="M86.2 201.3c7-1.06 14.62.12 19.78 3.1s7.2 7.35 5.35 11.4l12.3 1.93c3-6.58-.33-13.67-8.7-18.5s-20.64-6.75-32-5l1.67 3.54z" class="cls-5"/><path d="M124.7 171.72c.3-5.25-3.16-10.45-9.74-14.26-8.37-4.83-20.65-6.75-32-5v41.77l1.66 3.54 1.65 3.55c7-1.07 14.6.1 19.77 3.1a12.58 12.58 0 0 1 5.35 5.4v6l12.28 1.92a11.57 11.57 0 0 0 1.1-5z" class="cls-6"/><path d="M86.2 159.54v41.77l-3.3-7.08v-41.77l3.3 7.1z" class="cls-7"/><path d="M86.2 159.54c7-1.07 14.62.1 19.78 3.1s7.2 7.34 5.35 11.4l12.3 1.96c3-6.58-.33-13.67-8.7-18.5s-20.64-6.75-32-5l1.63 3.5z" class="cls-8"/><path d="M111.33 174.04v41.77l12.3 1.93v-41.77l-12.3-1.92z" class="cls-9"/><path d="M106 204.4c-5.16-3-12.73-4.16-19.77-3.1a26.55 26.55 0 0 0-9.13 3 12.36 12.36 0 0 0-5.27 5.3c-1.86 4.05.2 8.42 5.36 11.4s12.72 4.16 19.75 3.1a26.54 26.54 0 0 0 9.14-3 12.38 12.38 0 0 0 5.25-5.3c1.84-4.05-.2-8.42-5.35-11.4z" class="cls-10"/><path d="M77.08 204.35a26.55 26.55 0 0 1 9.13-3l-1.64-3.55-1.66-3.54a42.9 42.9 0 0 0-14.84 4.93c-4.1 2.36-7.06 5.32-8.54 8.55l12.3 1.92a12.36 12.36 0 0 1 5.26-5.32z" class="cls-11"/><path d="M84.56 156l-1.66-3.54a42.9 42.9 0 0 0-14.84 4.93c-4.1 2.36-7.06 5.32-8.54 8.55v41.77l12.3 1.92a12.36 12.36 0 0 1 5.26-5.28 26.55 26.55 0 0 1 9.13-3v-41.82z" class="cls-12"/><path d="M71.8 167.86v41.77l-12.28-1.92v-41.76l12.3 1.92z" class="cls-13"/><path d="M77.08 162.58a26.55 26.55 0 0 1 9.13-3L84.57 156l-1.66-3.54a42.9 42.9 0 0 0-14.84 4.93c-4.1 2.36-7.06 5.32-8.54 8.55l12.3 1.92a12.36 12.36 0 0 1 5.26-5.3z" class="cls-8"/><path d="M115.08 226.3c4.1-2.38 7.06-5.34 8.54-8.57l-12.3-1.92a12.38 12.38 0 0 1-5.25 5.3 26.54 26.54 0 0 1-9.14 3l1.87 4 1.45 3.1a42.64 42.64 0 0 0 14.83-4.9z" class="cls-14"/><path d="M123.54 176l-12.2-1.9a12.38 12.38 0 0 1-5.27 5.27 26.54 26.54 0 0 1-9.14 3l1.87 4 1.45 3.1v33.9a29.12 29.12 0 0 1-3.32.7l1.87 4 1.45 3.1a42.64 42.64 0 0 0 14.83-4.94c4.1-2.37 7.06-5.33 8.54-8.56V176z" class="cls-15"/><path d="M115.08 184.6c4.1-2.36 7.06-5.32 8.54-8.55l-12.3-1.92a12.38 12.38 0 0 1-5.25 5.28 26.54 26.54 0 0 1-9.14 3l1.87 4 1.45 3.1a42.84 42.84 0 0 0 14.83-4.9z" class="cls-16"/><path d="M96.93 182.45v41.68l3.32 7.1v-41.7l-3.32-7.08z" class="cls-17"/><path d="M71.8 195.5v13.45h-5.04v-14.23l5.05.78z" class="cls-18"/><path d="M98.8 214l-1.87-4c-7 1.07-14.6-.12-19.76-3.1s-7.17-7.34-5.36-11.4l-12.28-1.9a11.6 11.6 0 0 0-1.08 4.87v14.47c.17 4.9 3.6 9.7 9.76 13.26 8.37 4.83 20.64 6.75 32 5v-14.1z" class="cls-19"/><path d="M96.93 210c-7 1.07-14.6-.12-19.76-3.1s-7.17-7.34-5.36-11.4l-12.28-1.9c-3 6.57.32 13.66 8.7 18.48s20.63 6.76 32 5L98.8 214z" class="cls-8"/><path d="M95 93v63.87M117.48 127.2v41.1M72.87 117.5v43.65" class="cls-20"/><ellipse cx="117.48" cy="167.35" class="cls-21" rx="1.66" ry="2.88" transform="translate(-50.51 283.92) rotate(-89.69)"/><ellipse cx="94.99" cy="155.41" class="cls-22" rx="1.66" ry="2.88" transform="translate(-60.94 249.56) rotate(-89.69)"/><ellipse cx="72.87" cy="160.15" class="cls-23" rx="1.66" ry="2.88" transform="translate(-87.68 232.15) rotate(-89.69)"/><path d="M182.55 49.42c0 .25 0 .5 0 .75-.25 6.2-4.45 12.3-12.6 17-16.95 9.83-44.4 9.73-61.4-.08-8-4.63-12.25-10.6-12.76-16.63 0-.35 0-.7 0-1 0-.5 0-1 0-1.52a43.38 43.38 0 0 1 86.73 1.52z" class="cls-24"/><path d="M155.06 68.2c0 1.26 0 2.52-.1 3.78-1.38 8.82-7.9 17.42-19.58 24.16-26.6 15.35-69.83 15.28-96.58-.14-12.54-7.27-19.24-16.6-20.08-26 0-.58 0-1.17 0-1.75 0-.85 0-1.68.05-2.52A68.17 68.17 0 0 1 155 65.1c0 1 .06 2.05.06 3.1z" class="cls-25"/><path d="M74.15 97v.2c0 5.43-3.6 10.85-10.77 15-14.44 8.32-37.9 8.28-52.44-.1C3.7 107.9.04 102.46 0 97v-.17a37.08 37.08 0 0 1 74.15.17z" class="cls-26"/></g></g></svg>