<svg xmlns="http://www.w3.org/2000/svg" xmlns:xlink="http://www.w3.org/1999/xlink" viewBox="0 0 182.55 296.43" xmlns:v="https://vecta.io/nano"><defs><linearGradient id="A" x1="88.54" x2="87.02" y1="239.06" y2="294.17" xlink:href="#U"><stop offset=".04" stop-color="#1a1a1a"/><stop offset=".97" stop-color="#999" stop-opacity="0"/></linearGradient><linearGradient id="B" x1="72.46" x2="50.14" y1="244.432" y2="254.068" xlink:href="#U"><stop offset="0" stop-color="#333"/><stop offset=".14" stop-color="#454545" stop-opacity=".82"/><stop offset=".66" stop-color="#828282" stop-opacity=".23"/><stop offset=".95" stop-color="#999" stop-opacity="0"/></linearGradient><linearGradient id="C" x1="81.74" x2="125.64" y1="200.81" y2="208.55" xlink:href="#U"><stop offset="0" stop-color="#fff"/><stop offset="1" stop-color="#d4d4d4"/></linearGradient><linearGradient id="D" x1="78.17" x2="129.21" y1="179.29" y2="188.3" xlink:href="#C" /><linearGradient id="E" x1="43.5" x2="96.66" y1="153.18" y2="183.87" xlink:href="#U"><stop offset=".03" stop-color="gray"/><stop offset=".21" stop-color="#a1a1a1"/><stop offset=".42" stop-color="#bfbfbf"/><stop offset=".62" stop-color="#d5d5d5"/><stop offset=".82" stop-color="#e2e2e2"/><stop offset="1" stop-color="#e6e6e6"/></linearGradient><linearGradient id="F" x1="68.63" x2="131.87" y1="167.69" y2="204.2" xlink:href="#E" /><linearGradient id="G" x1="74.93" x2="69.75" y1="207.97" y2="198.23" xlink:href="#U"><stop offset="0" stop-color="#0045f4" stop-opacity="0"/><stop offset="1" stop-color="#6dfafa"/></linearGradient><linearGradient id="H" x1="57.46" x2="89.39" y1="177.66" y2="183.29" xlink:href="#C" /><linearGradient id="I" x1="16.82" x2="80.06" y1="159.58" y2="196.1" xlink:href="#E" /><linearGradient id="J" x1="110.28" x2="110.28" y1="231.22" y2="215.81" xlink:href="#G" /><linearGradient id="K" x1="93.76" x2="125.68" y1="200.41" y2="206.04" xlink:href="#U"><stop offset="0" stop-color="#a8190a"/><stop offset="1" stop-color="#e0341b"/></linearGradient><linearGradient id="L" x1="57.6" x2="110.67" y1="183.17" y2="213.81" xlink:href="#U"><stop offset="0" stop-color="#a8190a"/><stop offset="1" stop-color="#a8190a"/></linearGradient><linearGradient id="M" x1="51.83" x2="74.21" y1="192.15" y2="205.07" xlink:href="#E" /><linearGradient id="N" x1="56.3" x2="102.62" y1="209.62" y2="217.78" xlink:href="#C" /><linearGradient id="O" x1="117.462" x2="117.494" y1="164.474" y2="170.224" xlink:href="#K" /><linearGradient id="P" x1="94.971" x2="95.002" y1="152.529" y2="158.289" xlink:href="#K" /><linearGradient id="Q" x1="72.851" x2="72.882" y1="157.275" y2="163.035" xlink:href="#K" /><linearGradient id="R" x1="125.15" x2="149.54" y1="8.34" y2="75.35" xlink:href="#U"><stop offset="0" stop-color="#fff"/><stop offset=".32" stop-color="#efefef"/><stop offset=".96" stop-color="#c6c6c6"/><stop offset="1" stop-color="#c3c3c3"/></linearGradient><linearGradient id="S" x1="64.84" x2="103.2" y1="3.63" y2="109.01" xlink:href="#R" /><linearGradient id="T" x1="25.11" x2="45.95" y1="61.91" y2="119.16" xlink:href="#R" /><linearGradient id="U" gradientUnits="userSpaceOnUse"/></defs><path d="M95 95.1V66.5m-22.13 57.8V95.7m44 28.67V55.92" fill="none" stroke="#e2887f" stroke-miterlimit="10" stroke-width=".83" stroke-dasharray="3.65"/><g fill-rule="evenodd"><path d="M146.2 212.37l-115.78 4.08v80H146.2z" fill-opacity=".06" fill="url(#A)"/><path d="M86.77 212.37l-53.5 3.8v72.1h53.5z" fill-opacity=".1" fill="url(#B)"/><path d="M90.8 183.28L34.37 216c-1.6.92-1.4 2.54.44 3.6l47.64 27.6a6.9 6.9 0 0 0 6.23.25l56.45-32.7c1.6-.9 1.4-2.53-.44-3.6L97 183.55a6.88 6.88 0 0 0-6.2-.27z" fill="#f2f2f2"/></g><path d="M86.2 201.3c7-1.06 14.62.12 19.78 3.1s7.2 7.35 5.35 11.4l12.3 1.93c3-6.58-.33-13.67-8.7-18.5s-20.64-6.75-32-5l1.67 3.54z" fill="url(#C)"/><path d="M124.7 171.72c.3-5.25-3.16-10.45-9.74-14.26-8.37-4.83-20.65-6.75-32-5v41.77l1.66 3.54 1.65 3.55c7-1.07 14.6.1 19.77 3.1a12.58 12.58 0 0 1 5.35 5.4v6l12.28 1.92a11.57 11.57 0 0 0 1.1-5z" fill="url(#D)"/><path d="M86.2 159.54v41.77l-3.3-7.08v-41.77l3.3 7.1z" fill="url(#E)"/><path d="M86.2 159.54c7-1.07 14.62.1 19.78 3.1s7.2 7.34 5.35 11.4l12.3 1.96c3-6.58-.33-13.67-8.7-18.5s-20.64-6.75-32-5l1.63 3.5z" fill="#fff"/><path d="M111.33 174.04v41.77l12.3 1.93v-41.77l-12.3-1.92z" fill="url(#F)"/><path d="M77.08 204.35a26.55 26.55 0 0 1 9.13-3l-1.64-3.55-1.66-3.54a42.9 42.9 0 0 0-14.84 4.93c-4.1 2.36-7.06 5.32-8.54 8.55l12.3 1.92a12.36 12.36 0 0 1 5.26-5.32z" fill="url(#G)"/><path d="M84.56 156l-1.66-3.54a42.9 42.9 0 0 0-14.84 4.93c-4.1 2.36-7.06 5.32-8.54 8.55v41.77l12.3 1.92a12.36 12.36 0 0 1 5.26-5.28 26.55 26.55 0 0 1 9.13-3v-41.82z" fill="url(#H)"/><path d="M71.8 167.86v41.77l-12.28-1.92v-41.76l12.3 1.92z" fill="url(#I)"/><path d="M77.08 162.58a26.55 26.55 0 0 1 9.13-3L84.57 156l-1.66-3.54a42.9 42.9 0 0 0-14.84 4.93c-4.1 2.36-7.06 5.32-8.54 8.55l12.3 1.92a12.36 12.36 0 0 1 5.26-5.3z" fill="#fff"/><path d="M115.08 226.3c4.1-2.38 7.06-5.34 8.54-8.57l-12.3-1.92a12.38 12.38 0 0 1-5.25 5.3 26.54 26.54 0 0 1-9.14 3l3.32 7.1a42.64 42.64 0 0 0 14.83-4.9z" fill="url(#J)"/><path d="M123.54 176l-12.2-1.9a12.38 12.38 0 0 1-5.27 5.27 26.54 26.54 0 0 1-9.14 3l3.32 7.1v33.9a29.12 29.12 0 0 1-3.32.7l3.32 7.1a42.64 42.64 0 0 0 14.83-4.94c4.1-2.37 7.06-5.33 8.54-8.56V176z" fill="url(#K)"/><path d="M115.08 184.6c4.1-2.36 7.06-5.32 8.54-8.55l-12.3-1.92a12.38 12.38 0 0 1-5.25 5.28 26.54 26.54 0 0 1-9.14 3l3.32 7.1a42.84 42.84 0 0 0 14.83-4.9z" fill="#e40427"/><path d="M96.93 182.45v41.68l3.32 7.1v-41.7l-3.32-7.08z" fill="url(#L)"/><path d="M71.8 195.5v13.45h-5.04v-14.23l5.05.78z" fill="url(#M)"/><path d="M98.8 214l-1.87-4c-7 1.07-14.6-.12-19.76-3.1s-7.17-7.34-5.36-11.4l-12.28-1.9a11.6 11.6 0 0 0-1.08 4.87v14.47c.17 4.9 3.6 9.7 9.76 13.26 8.37 4.83 20.64 6.75 32 5v-14.1z" fill="url(#N)"/><path d="M96.93 210c-7 1.07-14.6-.12-19.76-3.1s-7.17-7.34-5.36-11.4l-12.28-1.9c-3 6.57.32 13.66 8.7 18.48s20.63 6.76 32 5L98.8 214z" fill="#fff"/><path d="M95 93v63.87m22.48-29.67v41.1m-44.6-50.8v43.65" fill="none" stroke="#e2887f" stroke-miterlimit="10" stroke-width=".77"/><ellipse cx="117.48" cy="167.35" rx="1.66" ry="2.88" transform="matrix(.00541 -.999985 .999985 .00541 -50.51 283.92)" fill="url(#O)"/><ellipse cx="94.99" cy="155.41" rx="1.66" ry="2.88" transform="matrix(.00541 -.999985 .999985 .00541 -60.94 249.56)" fill="url(#P)"/><ellipse cx="72.87" cy="160.15" rx="1.66" ry="2.88" transform="matrix(.00541 -.999985 .999985 .00541 -87.68 232.15)" fill="url(#Q)"/><path d="M182.55 49.42v.75c-.25 6.2-4.45 12.3-12.6 17-16.95 9.83-44.4 9.73-61.4-.08-8-4.63-12.25-10.6-12.76-16.63v-2.52a43.38 43.38 0 0 1 86.73 1.52z" fill="url(#R)"/><path d="M155.06 68.2l-.1 3.78c-1.38 8.82-7.9 17.42-19.58 24.16-26.6 15.35-69.83 15.28-96.58-.14-12.54-7.27-19.24-16.6-20.08-26v-1.75c0-.85 0-1.68.05-2.52A68.17 68.17 0 0 1 155 65.1c0 1 .06 2.05.06 3.1z" fill="url(#S)"/><path d="M74.15 97v.2c0 5.43-3.6 10.85-10.77 15-14.44 8.32-37.9 8.28-52.44-.1C3.7 107.9.04 102.46 0 97v-.17a37.08 37.08 0 0 1 74.15.17z" fill="url(#T)"/></svg>