<svg xmlns="http://www.w3.org/2000/svg" xmlns:xlink="http://www.w3.org/1999/xlink" viewBox="0 0 340.73 368.9"><defs><style>.cls-1{fill:url(#linear-gradient);}.cls-2{fill:url(#linear-gradient-2);}.cls-3{fill:#f9f9f9;}.cls-4{fill:url(#linear-gradient-3);}.cls-5{fill:#fff;}.cls-6{fill:#252532;}.cls-7{fill:url(#linear-gradient-4);}.cls-8{fill:url(#linear-gradient-5);}.cls-9{fill:url(#linear-gradient-6);}.cls-10{fill:url(#linear-gradient-7);}.cls-11{fill:#676767;}.cls-12{fill:url(#linear-gradient-8);}.cls-13{fill:none;stroke:#e2887f;stroke-miterlimit:10;stroke-width:0.35px;stroke-dasharray:1.53;}.cls-14{fill:url(#linear-gradient-9);}.cls-15{fill:#cccbcb;}</style><linearGradient id="linear-gradient" x1="20577.34" y1="276.39" x2="20907.6" y2="276.39" gradientTransform="matrix(-1, 0, 0, 1, 20918.07, 0)" gradientUnits="userSpaceOnUse"><stop offset="0" stop-color="#a71c17"/><stop offset="1" stop-color="#e0341d"/></linearGradient><linearGradient id="linear-gradient-2" x1="-5488.4" y1="265.29" x2="-5158.44" y2="265.29" gradientTransform="translate(5499.17)" gradientUnits="userSpaceOnUse"><stop offset="0" stop-color="#fff"/><stop offset="1" stop-color="#d4d3d3"/></linearGradient><linearGradient id="linear-gradient-3" x1="20716.04" y1="137.42" x2="20918.07" y2="137.42" xlink:href="#linear-gradient"/><linearGradient id="linear-gradient-4" x1="-1460.56" y1="-5819.29" x2="-1415.18" y2="-5819.29" gradientTransform="matrix(0.87, -0.5, 0, 1.15, 1304.85, 6118.09)" xlink:href="#linear-gradient"/><linearGradient id="linear-gradient-5" x1="-1460.56" y1="-5789.45" x2="-1430.12" y2="-5789.45" gradientTransform="matrix(0.87, -0.5, 0, 1.15, 1304.85, 6118.09)" xlink:href="#linear-gradient"/><linearGradient id="linear-gradient-6" x1="-1470.11" y1="-5779.54" x2="-1451.01" y2="-5779.54" gradientTransform="matrix(0.87, -0.5, 0, 1.15, 1304.85, 6118.09)" xlink:href="#linear-gradient"/><linearGradient id="linear-gradient-7" x1="-1446.11" y1="-5779.54" x2="-1435.18" y2="-5779.54" gradientTransform="matrix(0.87, -0.5, 0, 1.15, 1304.85, 6118.09)" xlink:href="#linear-gradient"/><linearGradient id="linear-gradient-8" x1="-1470.11" y1="-5809.36" x2="-1435.18" y2="-5809.36" gradientTransform="matrix(0.87, -0.5, 0, 1.15, 1304.85, 6118.09)" xlink:href="#linear-gradient"/><linearGradient id="linear-gradient-9" x1="4605.57" y1="-5814.38" x2="4662.08" y2="-5814.38" gradientTransform="translate(-954.6 7422.58) rotate(-30)" xlink:href="#linear-gradient"/></defs><title>Asset 31</title><g id="Layer_2" data-name="Layer 2"><g id="Layer_1-2" data-name="Layer 1"><path class="cls-1" d="M10.76,280.72l24.5-3.29,158.48-91.57c5.08-3,13.9-2.54,19.87.9l112.33,64.83,14.79-1.94V258h0a5.73,5.73,0,0,1-3.44,5.23L157.6,366.9c-5.08,3-13.89,2.54-19.87-.74L15.39,295.5c-3.28-1.94-4.92-4.33-4.92-6.72h0v-8.06Z"/><path class="cls-2" d="M157.75,358.54,337.29,254.87c5.08-3,4.48-8.06-1.49-11.5l-122.19-70.5c-5.82-3.44-14.79-3.74-19.87-.9L14.2,275.64c-5.08,3-4.48,8.06,1.49,11.5L138,357.64C143.71,361.08,152.52,361.53,157.75,358.54Z"/><path class="cls-3" d="M110.86,305.43v.17l-7,4-8.79-5c-.26-.09-.26-.26-.26-.43v-.17l7-4.06,8.8,5C110.86,305.17,110.86,305.25,110.86,305.43Z"/><path class="cls-3" d="M123.54,298.18v.17l-7,4.06-8.79-5c-.26-.09-.26-.26-.26-.44v-.17l7-4.05,8.8,5C123.28,297.92,123.54,298,123.54,298.18Z"/><path class="cls-3" d="M113.19,288.18v.17l-7,4L99,288.26c-.26-.08-.26-.25-.26-.43v-.17l7-4.05,7.24,4.14C112.93,287.92,113.19,288,113.19,288.18Z"/><path class="cls-3" d="M125.61,280.93v.18l-7,4.05L111.38,281c-.26-.09-.26-.26-.26-.43v-.17l7-4.06,7.25,4.14C125.61,280.67,125.61,280.76,125.61,280.93Z"/><path class="cls-3" d="M138.29,273.69V274l-7,4.05-7.24-4.14c-.26-.08-.26-.26-.26-.43v-.17l7-4.06,7.25,4.14C138,273.43,138.29,273.52,138.29,273.69Z"/><path class="cls-3" d="M150.7,266.44v.18l-7,4.05-7.25-4.14c-.25-.09-.25-.26-.25-.43v-.17l7-4.06,7.25,4.14C150.7,266.1,150.7,266.27,150.7,266.44Z"/><path class="cls-3" d="M163.38,259.2v.17l-7,4.06-7.25-4.14c-.26-.09-.26-.26-.26-.43v-.18l7-4.05,7.24,4.14C163.38,258.94,163.38,259,163.38,259.2Z"/><path class="cls-3" d="M175.8,252v.17l-7,4.05L161.57,252c-.26-.08-.26-.26-.26-.43v-.17l7-4.05,7.24,4.13C175.8,251.7,175.8,251.78,175.8,252Z"/><path class="cls-3" d="M188.48,244.71v.17l-7,4.06-7.24-4.14c-.26-.09-.26-.26-.26-.43v-.18l7-4.05,7.25,4.14C188.22,244.45,188.48,244.54,188.48,244.71Z"/><path class="cls-3" d="M200.9,237.47v.17l-7,4.05-7.24-4.14c-.26-.08-.26-.25-.26-.43V237l7-4,7.25,4.14C200.9,237.21,200.9,237.29,200.9,237.47Z"/><path class="cls-3" d="M213.57,230.22v.18l-7,4-7.25-4.14c-.25-.09-.25-.26-.25-.43v-.17l7-4.06,7.25,4.14C213.32,229.88,213.57,230.05,213.57,230.22Z"/><path class="cls-3" d="M226,223v.17l-7,4-7.25-4.13c-.26-.09-.26-.26-.26-.44v-.17l7-4.05,7.24,4.14C226,222.63,226,222.81,226,223Z"/><path class="cls-3" d="M107.24,277.48v.18l-7,4L93,277.57c-.26-.09-.26-.26-.26-.43V277l7-4.06,7.24,4.14C107,277.23,107.24,277.31,107.24,277.48Z"/><path class="cls-3" d="M94.56,284.81v.26l-7,4.06L80.33,285c-.26-.09-.26-.26-.26-.43v-.18l7-4.05,7.24,4.14C94.3,284.56,94.56,284.73,94.56,284.81Z"/><path class="cls-3" d="M81.62,292.23v.26L65.07,302l-7.25-4.14c-.26-.09-.26-.26-.26-.43v-.18l16.56-9.48,7.25,4.14C81.62,292,81.62,292.06,81.62,292.23Z"/><path class="cls-3" d="M66.1,287.06v.17l-13.19,7.59-7.25-4.14c-.26-.09-.26-.26-.26-.43v-.17l13.2-7.59,7.24,4.14C66.1,286.8,66.1,286.88,66.1,287.06Z"/><path class="cls-3" d="M119.66,270.24v.17l-7,4.06-7.24-4.14c-.26-.09-.26-.26-.26-.44v-.17l7-4.05,7.25,4.14C119.66,270,119.66,270.07,119.66,270.24Z"/><path class="cls-3" d="M132.33,263v.25l-7,4.06-7.25-4.14c-.25-.09-.25-.26-.25-.43v-.18l7-4.14,7.25,4.14C132.33,262.74,132.33,262.82,132.33,263Z"/><path class="cls-3" d="M144.75,255.75v.17l-7,4.06-7.25-4.14c-.26-.09-.26-.26-.26-.43v-.18l7-4,7.24,4.14C144.75,255.49,144.75,255.58,144.75,255.75Z"/><path class="cls-3" d="M157.43,248.51v.17l-7,4-7.25-4.14c-.26-.08-.26-.26-.26-.43v-.26l7-4.05,7.24,4.14C157.17,248.25,157.43,248.33,157.43,248.51Z"/><path class="cls-3" d="M169.85,241.26v.17l-7,4.06-7.24-4.14c-.26-.09-.26-.26-.26-.43v-.18l7-4.05,7.24,4.14C169.85,241,169.85,241.09,169.85,241.26Z"/><path class="cls-3" d="M182.53,234v.17l-7,4.05-7.24-4.14c-.26-.08-.26-.25-.26-.43v-.17l7-4.05,7.25,4.14C182.27,233.76,182.53,233.85,182.53,234Z"/><path class="cls-3" d="M195,226.77V227L188,231l-7.24-4.14c-.26-.09-.26-.26-.26-.43v-.17l7-4.14,7.25,4.14C195,226.51,195,226.6,195,226.77Z"/><path class="cls-3" d="M207.62,219.53v.17l-7,4.06-7.25-4.14c-.25-.09-.25-.26-.25-.44V219l7-4,7.25,4.14C207.37,219.27,207.62,219.36,207.62,219.53Z"/><path class="cls-3" d="M220,212.28v.18l-7,4-7.25-4.14c-.26-.08-.26-.26-.26-.43v-.17l7-4.06,7.24,4.14C220,212,220,212.11,220,212.28Z"/><path class="cls-3" d="M242.55,199.43v.18l-16.82,9.66-7.24-4.14c-.26-.09-.26-.26-.26-.43v-.18l16.56-9.66L242,199C242.29,199.18,242.29,199.26,242.55,199.43Z"/><path class="cls-3" d="M218,185.29v.26l-14,8-7.24-4.14c-.26-.08-.26-.26-.26-.43v-.17l14-8,7.24,4.14C217.71,185,218,185.21,218,185.29Z"/><path class="cls-3" d="M117.33,257.56v.26l-7,4.05-7.24-4.14c-.26-.08-.26-.25-.26-.43v-.17l7-4,7.24,4.14C117.07,257.3,117.33,257.39,117.33,257.56Z"/><path class="cls-3" d="M104.39,265v.17l-7,4.05-7.25-4.13c-.26-.09-.26-.26-.26-.44v-.17l7-4,7.24,4.14C104.39,264.72,104.39,264.81,104.39,265Z"/><path class="cls-3" d="M91.46,272.4v.17l-7,4.05-7.24-4.14c-.26-.08-.26-.26-.26-.43v-.17l7-4.05L91.2,272A.48.48,0,0,1,91.46,272.4Z"/><path class="cls-3" d="M78.78,279.81v.26l-7,4.05L64.55,280c-.26-.09-.26-.26-.26-.44v-.17l7-4.05,7.24,4.14C78.52,279.55,78.78,279.73,78.78,279.81Z"/><path class="cls-3" d="M129.75,250.32v.26l-7,4-7.24-4.14c-.26-.09-.26-.26-.26-.43v-.26l7-4.05,7.25,4.14C129.75,250.06,129.75,250.15,129.75,250.32Z"/><path class="cls-3" d="M142.43,243.07v.18l-7,4.05-7.24-4.14c-.26-.09-.26-.26-.26-.43v-.26l7-4.05,7.25,4.14C142.17,242.81,142.43,242.9,142.43,243.07Z"/><path class="cls-3" d="M154.84,235.83V236l-7,4.06-7.25-4.14c-.25-.09-.25-.26-.25-.44v-.17l7-4.05,7.25,4.14C154.84,235.57,154.84,235.66,154.84,235.83Z"/><path class="cls-3" d="M167.52,228.58v.18l-7,4.05-7.25-4.14c-.26-.09-.26-.26-.26-.43v-.17l7-4.06,7.24,4.14C167.26,228.33,167.52,228.41,167.52,228.58Z"/><path class="cls-3" d="M179.94,221.34v.17l-7.24,4.14-7.25-4.14c-.26-.08-.26-.26-.26-.43v-.17l7-4,7.24,4.14C179.94,221.08,179.94,221.17,179.94,221.34Z"/><path class="cls-3" d="M192.62,214.1v.17l-7,4-7.24-4.14c-.26-.08-.26-.26-.26-.43v-.17l7-4.05,7.24,4.14C192.36,213.84,192.62,213.92,192.62,214.1Z"/><path class="cls-3" d="M205,206.85v.26l-7,4L190.81,207c-.26-.08-.26-.25-.26-.43v-.17l7-4,7.25,4.14C205,206.59,205,206.68,205,206.85Z"/><path class="cls-3" d="M217.71,199.61v.26l-7,4-7.25-4.14c-.25-.09-.25-.26-.25-.43v-.17l7-4.06,7.25,4.14C217.46,199.35,217.71,199.44,217.71,199.61Z"/><path class="cls-3" d="M230.13,192.36v.18l-7,4.05-7.25-4.14c-.26-.09-.26-.26-.26-.43v-.17l7.25-4.06,7.24,4.14Z"/><path class="cls-3" d="M86.28,261.36v.17l-7,4.05-7.25-4.14c-.26-.08-.26-.26-.26-.43v-.17l7-4L86,260.93C86,261.1,86.28,261.27,86.28,261.36Z"/><path class="cls-3" d="M73.86,268.6v.17l-7,4.06-7.25-4.14c-.26-.09-.26-.26-.26-.43v-.18l7-4.05,7.24,4.14C73.6,268.34,73.86,268.43,73.86,268.6Z"/><path class="cls-3" d="M61.19,275.76v.17l-7,4.06L47,275.85c-.26-.09-.26-.26-.26-.44v-.17l7-4.05,7.25,4.14A.46.46,0,0,1,61.19,275.76Z"/><path class="cls-3" d="M48.77,283v.18l-7,4.05-7.24-4.14c-.26-.09-.26-.26-.26-.43v-.17l7-4.06,7.25,4.14C48.77,282.74,48.77,282.83,48.77,283Z"/><path class="cls-3" d="M35.83,275.59v.17l-7,4.05-1.82-1c-.25-.09-.25-.26-.25-.43v-.18l7-4.05,1.81,1C35.83,275.33,35.83,275.41,35.83,275.59Z"/><path class="cls-3" d="M52.13,266.19v.17l-7,4.05-1.81-1c-.25-.09-.25-.26-.25-.43v-.18l7-4,1.81,1C52.13,265.93,52.13,266,52.13,266.19Z"/><path class="cls-3" d="M64.55,259v.17l-7,4.05-1.81-1c-.26-.09-.26-.26-.26-.43v-.17l7-4.06,1.81,1C64.55,258.68,64.55,258.86,64.55,259Z"/><path class="cls-3" d="M77,251.78V252l-7,4-1.81-1c-.26-.09-.26-.26-.26-.44v-.17l7-4.05,1.81,1C77,251.53,77.23,251.7,77,251.78Z"/><path class="cls-3" d="M89.39,244.63v.17l-7,4-1.81-1c-.26-.09-.26-.26-.26-.43v-.18l7-4.05,1.81,1C89.39,244.37,89.65,244.45,89.39,244.63Z"/><path class="cls-3" d="M159,204.52v.18l-7,4.05-1.81-1c-.26-.08-.26-.25-.26-.43v-.17l7-4.05,1.82,1C158.73,204.26,159,204.44,159,204.52Z"/><path class="cls-3" d="M171.4,197.37v.17l-7,4.05-1.81-1c-.26-.09-.26-.26-.26-.43V200l7-4,1.81,1A.48.48,0,0,1,171.4,197.37Z"/><path class="cls-3" d="M183.82,190.21v.17l-7,4.05-1.81-1c-.26-.09-.26-.26-.26-.43v-.26l7-4.05,1.81,1C183.82,190,183.82,190,183.82,190.21Z"/><path class="cls-3" d="M196.24,183.05v.17l-7,4.06-1.82-1c-.25-.09-.25-.26-.25-.43v-.17l7-4.06,1.81,1C196.24,182.7,196.24,182.88,196.24,183.05Z"/><path class="cls-3" d="M98.7,254.11v.18l-7,4-7.25-4.14c-.26-.09-.26-.26-.26-.43v-.17l7-4.06,7.24,4.14C98.7,253.85,98.7,253.94,98.7,254.11Z"/><path class="cls-3" d="M111.38,246.87V247l-7,4.05L97.15,247c-.26-.08-.26-.25-.26-.43v-.17l7-4,7.24,4.14C111.12,246.61,111.38,246.78,111.38,246.87Z"/><path class="cls-3" d="M123.8,239.62v.26l-7,4.06-7.24-4.14c-.26-.09-.26-.26-.26-.43v-.18l7-4.05,7.25,4.14A.32.32,0,0,1,123.8,239.62Z"/><path class="cls-3" d="M136.47,232.38v.17l-7,4.06-7.5-4.06c-.26-.08-.26-.26-.26-.43V232l7-4L136,232C136.22,232.12,136.47,232.21,136.47,232.38Z"/><path class="cls-3" d="M148.89,225.14v.17l-7,4.05-7.25-4.14c-.25-.08-.25-.26-.25-.43v-.17l7-4.06,7.24,4.14C148.89,224.88,148.89,225,148.89,225.14Z"/><path class="cls-3" d="M161.57,217.89v.17l-7.24,4.14-7.25-4.14c-.26-.08-.26-.26-.26-.43v-.17l7-4.05,7.24,4.14C161.31,217.63,161.57,217.72,161.57,217.89Z"/><path class="cls-3" d="M174,210.65v.17l-7,4.05-7.24-4.14c-.26-.08-.26-.26-.26-.43v-.17l7-4,7.24,4.14C174,210.39,174,210.47,174,210.65Z"/><path class="cls-3" d="M186.67,203.4v.17l-7,4.06-7.24-4.14c-.26-.09-.26-.26-.26-.43v-.17l7-4.06,7.25,4.14C186.67,203.14,186.67,203.23,186.67,203.4Z"/><path class="cls-3" d="M199.09,196.16v.17l-7,4-7.24-4.14c-.26-.08-.26-.25-.26-.43v-.17l7.24-4.14,7.25,4.14Z"/><path class="cls-3" d="M100.25,295.59v.18L77.48,309l-7.24-4.14c-.26-.08-.26-.26-.26-.43v-.17L92.75,291l7.24,4.14C100.25,295.25,100.25,295.42,100.25,295.59Z"/><path class="cls-3" d="M254.45,206.51v.17l-22.77,13.19-7.24-4.14c-.26-.08-.26-.25-.26-.43v-.17L247,201.94l7.24,4.14A.46.46,0,0,1,254.45,206.51Z"/><path class="cls-3" d="M231.94,235.48v.18l-7,4.05-8.8-5c-.26-.09-.26-.26-.26-.43v-.18l7-4,8.79,5A.47.47,0,0,1,231.94,235.48Z"/><path class="cls-3" d="M140.87,288.09v.17l-11.9,6.9-8.8-5c-.25-.09-.25-.26-.25-.43v-.26l11.9-6.9,8.79,5.09A.46.46,0,0,1,140.87,288.09Z"/><path class="cls-3" d="M220,242.47v.17l-11.9,6.9-8.8-5c-.25-.09-.25-.26-.25-.43v-.17L211,237l8.79,5C219.78,242.21,220,242.38,220,242.47Z"/><path class="cls-3" d="M202.71,252.39c0,.08,0,.17-.26.34L148.12,284l-9.32-5.35L193.65,247l8.8,5.09C202.45,252.21,202.71,252.3,202.71,252.39Z"/><path class="cls-3" d="M270,213.75h0l-7.77,4.57-2.84-1.64c0-.08-.26-.17-.26-.26v-.08l7.76-4.49,2.85,1.64C269.72,213.58,270,213.66,270,213.75Z"/><path class="cls-3" d="M257.3,221h0l-7.76,4.57-2.85-1.64c0-.09-.26-.18-.26-.26v-.09l7.76-4.48,2.85,1.64C257.3,220.82,257.3,220.91,257.3,221Z"/><path class="cls-3" d="M244.62,228.24h0l-7.76,4.57L234,231.17c0-.08-.26-.17-.26-.26v-.08l7.77-4.49,2.84,1.64C244.62,228.07,244.62,228.15,244.62,228.24Z"/><path class="cls-3" d="M250.31,217h0l-7.76,4.57L239.71,220c0-.09-.26-.17-.26-.26v-.08l7.76-4.49,2.84,1.64C250.31,216.86,250.31,216.94,250.31,217Z"/><path class="cls-3" d="M254.19,284.73,210,310.34c-2.33,1.29-6.21,1.12-8.8-.34l-23.54-13.63c-2.59-1.55-2.85-3.45-.52-5.09l44.5-25.61c2.33-1.3,6.21-1.12,8.8.34l23.54,13.63C256.26,281.28,256.52,283.09,254.19,284.73Z"/><path class="cls-4" d="M9.21,104.69,188.76,1C191.14-.31,193.35-.3,195,.8l7,3.75h-4.54a12.79,12.79,0,0,1,.43,3.55l0,141c0,6.88-4.08,14.67-9.21,17.68L92.43,222.44l-81.38,47-.58,5.42-7-3.72L3.18,271l-.08,0h0c-1.91-1.16-3.08-3.79-3-7.49L0,122.37C0,115.49,4.09,107.71,9.21,104.69Z"/><path class="cls-5" d="M204.41,11.72l-.1,141.2c.13,6.65-3.88,14.49-9.08,17.54L112,218.52,62.2,240.37c-5.14,2.92-9.23-.15-9.21-7.05L42.25,108.91c-.07-6.76,4.16-14.68,9.15-17.65L195.2,4.68C200.32,1.78,204.42,4.83,204.41,11.72Z"/><path class="cls-6" d="M104.21,59.27V221L16.68,271.47c-5,2.84-9-.15-9-6.88L7.72,127c-.06-6.6,4.06-14.32,8.93-17.22Z"/><polygon class="cls-7" points="79.27 108.63 39.97 131.34 39.97 126.32 79.27 103.64 79.27 108.63"/><polygon class="cls-8" points="66.33 150.61 39.97 165.82 39.97 160.75 66.33 145.53 66.33 150.61"/><polygon class="cls-9" points="48.24 172.49 31.7 182.04 31.7 176.97 48.24 167.42 48.24 172.49"/><polygon class="cls-10" points="61.95 164.57 52.48 170.04 52.48 164.97 61.95 159.5 61.95 164.57"/><polygon class="cls-11" points="92.2 112.68 66.33 127.61 66.33 122.54 92.2 107.61 92.2 112.68"/><polygon class="cls-12" points="61.95 130.14 31.7 147.61 31.7 142.54 61.95 125.07 61.95 130.14"/><polygon class="cls-5" points="35.72 191.21 31.7 193.53 31.7 188.46 35.72 186.14 35.72 191.21"/><polygon class="cls-5" points="35.72 156.78 31.7 159.1 31.7 154.03 35.72 151.71 35.72 156.78"/><polygon class="cls-5" points="35.72 168.28 31.7 170.6 31.7 165.53 35.72 163.21 35.72 168.28"/><polygon class="cls-5" points="35.72 133.82 31.7 136.14 31.7 131.07 35.72 128.75 35.72 133.82"/><polygon class="cls-11" points="27.2 138.69 22.94 141.17 22.94 136.16 27.2 133.69 27.2 138.69"/><polygon class="cls-11" points="27.2 173.19 22.94 175.66 22.94 170.59 27.2 168.12 27.2 173.19"/><polygon class="cls-11" points="27.2 150.2 22.94 152.67 22.94 147.59 27.2 145.13 27.2 150.2"/><polygon class="cls-11" points="27.2 161.7 22.94 164.16 22.94 159.09 27.2 156.63 27.2 161.7"/><polygon class="cls-11" points="27.2 207.63 22.94 210.09 22.94 205.02 27.2 202.56 27.2 207.63"/><polygon class="cls-11" points="27.2 219.06 22.94 221.53 22.94 216.46 27.2 213.99 27.2 219.06"/><polygon class="cls-11" points="27.2 184.63 22.94 187.1 22.94 182.03 27.2 179.56 27.2 184.63"/><polygon class="cls-11" points="27.2 196.13 22.94 198.59 22.94 193.52 27.2 191.06 27.2 196.13"/><line class="cls-13" x1="150.39" y1="84.1" x2="150.39" y2="100.09"/><line class="cls-13" x1="150.39" y1="126.81" x2="150.39" y2="142.79"/><path class="cls-14" d="M168.92,73.4l-35.4,20.44c-.94.55-1.7,0-1.7-1.29V70.38a4.09,4.09,0,0,1,1.7-3.26l35.4-20.44c.94-.54,1.71,0,1.71,1.29V70.15A4.08,4.08,0,0,1,168.92,73.4Z"/><path class="cls-15" d="M168.92,116.11l-35.4,20.43c-.94.55-1.7,0-1.7-1.29V113.08a4.09,4.09,0,0,1,1.7-3.26l35.4-20.43c.94-.55,1.71,0,1.71,1.28v22.18A4.11,4.11,0,0,1,168.92,116.11Z"/><path class="cls-15" d="M168.92,158.81l-35.4,20.43c-.94.55-1.7,0-1.7-1.29V155.78a4.11,4.11,0,0,1,1.7-3.26l35.4-20.43c.94-.55,1.71,0,1.71,1.29v22.17A4.11,4.11,0,0,1,168.92,158.81Z"/><ellipse class="cls-5" cx="136.99" cy="70.94" rx="3.53" ry="2.04" transform="translate(6.62 153.41) rotate(-59.69)"/><ellipse class="cls-5" cx="136.99" cy="112.68" rx="3.53" ry="2.04" transform="matrix(0.5, -0.86, 0.86, 0.5, -29.42, 174.08)"/><ellipse class="cls-5" cx="143.84" cy="108.73" rx="3.53" ry="2.04" transform="translate(-22.62 178.03) rotate(-59.69)"/><ellipse class="cls-5" cx="136.99" cy="156.42" rx="3.53" ry="2.04" transform="translate(-67.18 195.75) rotate(-59.69)"/><path class="cls-15" d="M199.11,4.76a3.59,3.59,0,0,1,2.64,1.1c1.18,1.19,1.82,3.26,1.8,5.84l0,141c0,6.4-3.86,13.88-8.62,16.67L98.64,225,15.4,273.09a6.38,6.38,0,0,1-3.1,1A3.42,3.42,0,0,1,9.79,273C8.62,271.8,8,269.7,8.06,267.05L8,126c0-6.38,3.86-13.86,8.62-16.67L196.12,5.64a6.16,6.16,0,0,1,3-.88m0-1.17a7.36,7.36,0,0,0-3.56,1L16,108.29c-5.12,3-9.22,10.8-9.21,17.68l.1,141.08C6.8,272.13,9,275.2,12.3,275.2A7.51,7.51,0,0,0,16,274.1L99.22,226l96.31-55.62c5.13-3,9.22-10.8,9.21-17.68l0-141c0-5.12-2.31-8.11-5.6-8.11Z"/></g></g></svg>