<svg xmlns="http://www.w3.org/2000/svg" xmlns:xlink="http://www.w3.org/1999/xlink" viewBox="0 0 340.73 368.9" xmlns:v="https://vecta.io/nano"><defs><linearGradient id="A" x1="340.73" y1="276.39" x2="10.47" y2="276.39" gradientUnits="userSpaceOnUse"><stop offset="0" stop-color="#a71c17"/><stop offset="1" stop-color="#e0341d"/></linearGradient><linearGradient id="B" x1="10.77" y1="265.29" x2="340.73" y2="265.29" gradientUnits="userSpaceOnUse"><stop offset="0" stop-color="#fff"/><stop offset="1" stop-color="#d4d3d3"/></linearGradient><linearGradient id="C" x1="202.03" y1="137.42" x2="0" y2="137.42" xlink:href="#A"/><linearGradient id="D" x1="34.163" y1="156.187" x2="73.643" y2="133.497" xlink:href="#A"/><linearGradient id="E" x1="34.163" y1="190.503" x2="60.646" y2="175.283" xlink:href="#A"/><linearGradient id="F" x1="25.854" y1="206.674" x2="42.471" y2="197.124" xlink:href="#A"/><linearGradient id="G" x1="46.734" y1="194.674" x2="56.243" y2="189.209" xlink:href="#A"/><linearGradient id="H" x1="25.854" y1="172.381" x2="56.243" y2="154.916" xlink:href="#A"/><linearGradient id="I" x1="126.751" y1="84.394" x2="175.69" y2="56.139" xlink:href="#A"/><path id="J" d="M35.72 191.2l-4.02 2.32v-5.07l4.02-2.32v5.07z"/><path id="K" d="M27.2 161.7l-4.26 2.46v-5.07l4.26-2.46v5.07z"/></defs><path d="M10.76 280.72l24.5-3.3 158.48-91.57c5.08-3 13.9-2.54 19.87.9l112.33 64.83 14.8-1.94V258a5.73 5.73 0 0 1-3.44 5.23L157.6 366.9c-5.08 3-13.9 2.54-19.87-.74L15.4 295.5c-3.28-1.94-4.92-4.33-4.92-6.72h0v-8.06z" fill="url(#A)"/><path d="M157.75 358.54L337.3 254.87c5.08-3 4.48-8.06-1.5-11.5l-122.2-70.5c-5.82-3.44-14.8-3.74-19.87-.9L14.2 275.64c-5.08 3-4.48 8.06 1.5 11.5l122.3 70.5c5.7 3.44 14.52 3.9 19.75.9z" fill="url(#B)"/><path d="M110.86 305.43v.17l-7 4-8.8-5c-.26-.1-.26-.26-.26-.43V304l7-4.06 8.8 5c.25.23.25.3.25.5zm12.68-7.25v.17l-7 4.06-8.8-5c-.26-.1-.26-.26-.26-.44v-.17l7-4.05 8.8 5c-.01.17.25.25.25.43zm-10.34-10v.17l-7 4-7.2-4.1c-.26-.08-.26-.25-.26-.43v-.17l7-4.05 7.24 4.14c-.05.17.2.25.2.43zm12.4-7.25v.18l-7 4.05-7.23-4.16c-.26-.1-.26-.26-.26-.43v-.17l7-4.06 7.25 4.14c.24.2.24.28.24.45zm12.7-7.23v.3l-7 4.05-7.24-4.14c-.26-.08-.26-.26-.26-.43v-.17l7-4.06 7.25 4.14c-.04.04.25.13.25.3zm12.4-7.26v.18l-7 4.05-7.25-4.14c-.25-.1-.25-.26-.25-.43v-.17l7-4.06 7.25 4.14c.25.1.25.26.25.43zm12.68-7.24v.17l-7 4.06-7.25-4.14c-.26-.1-.26-.26-.26-.43v-.18l7-4.05 7.24 4.14c.27.17.27.23.27.43zm12.42-7.2v.17l-7 4.05-7.23-4.22c-.26-.08-.26-.26-.26-.43v-.17l7-4.05 7.24 4.13c.25.22.25.3.25.52zm12.68-7.3v.17l-7 4.06-7.24-4.14c-.26-.1-.26-.26-.26-.43v-.18l7-4.05 7.25 4.14c-.01.17.25.26.25.43zm12.42-7.23v.17l-7 4.05-7.24-4.14c-.26-.08-.26-.25-.26-.43V237l7-4 7.25 4.14c.25.07.25.15.25.33zm12.67-7.25v.18l-7 4-7.25-4.14c-.25-.1-.25-.26-.25-.43v-.17l7-4.06 7.25 4.14c0 .14.25.3.25.48zM226 223v.17l-7 4-7.25-4.13c-.26-.1-.26-.26-.26-.44v-.17l7-4.05 7.24 4.14c.27.1.27.3.27.48zm-118.76 54.48v.18l-7 4-7.24-4.1c-.26-.1-.26-.26-.26-.43V277l7-4.06 7.24 4.14c.02.15.26.23.26.4zm-12.68 7.32v.26l-7 4.06-7.23-4.13c-.26-.1-.26-.26-.26-.43v-.18l7-4.05 7.24 4.14c-.01.08.25.25.25.33zm-12.94 7.43v.26L65.07 302l-7.25-4.14c-.26-.1-.26-.26-.26-.43v-.18l16.56-9.48 7.25 4.14c.25.1.25.15.25.32zm-15.52-5.17v.17l-13.2 7.6-7.25-4.14c-.26-.1-.26-.26-.26-.43v-.17l13.2-7.6 7.24 4.14c.26.17.26.25.26.43zm53.56-16.82v.17l-7 4.06-7.24-4.14c-.26-.1-.26-.26-.26-.44v-.17l7-4.05 7.25 4.14c.25.2.25.26.25.43zm12.67-7.24v.25l-7 4.06-7.25-4.14c-.25-.1-.25-.26-.25-.43v-.18l7-4.14 7.25 4.14c.25.18.25.26.25.44zm12.42-7.25v.17l-7 4.06-7.25-4.14c-.26-.1-.26-.26-.26-.43v-.18l7-4 7.24 4.14c.27.12.27.2.27.38zm12.68-7.25v.17l-7 4-7.25-4.14c-.26-.08-.26-.26-.26-.43v-.26l7-4.05 7.24 4.14c.01.3.27.4.27.57zm12.42-7.24v.17l-7 4.06-7.24-4.14c-.26-.1-.26-.26-.26-.43v-.18l7-4.05 7.24 4.14c.26.17.26.26.26.43zm12.68-7.26v.17l-7 4.05-7.24-4.14c-.26-.08-.26-.25-.26-.43v-.17l7-4.05 7.25 4.14c-.01.2.25.28.25.43zm12.47-7.23v.23l-7 4-7.24-4.14c-.26-.1-.26-.26-.26-.43v-.17l7-4.14 7.25 4.14c.25.25.25.34.25.5zm12.62-7.24v.17l-7 4.06-7.25-4.14c-.25-.1-.25-.26-.25-.44V219l7-4 7.25 4.14c0 .13.25.22.25.4zm12.38-7.25v.18l-7 4-7.25-4.14c-.26-.08-.26-.26-.26-.43v-.17l7-4.06 7.24 4.14c.27.2.27.3.27.48zm22.55-12.85v.18l-16.82 9.66-7.24-4.14c-.26-.1-.26-.26-.26-.43v-.18l16.56-9.66L242 199c.3.18.3.26.55.43zM218 185.3v.26l-14 8-7.24-4.14c-.26-.08-.26-.26-.26-.43v-.17l14-8 7.24 4.14c-.03.05.26.26.26.34zm-100.67 72.26v.26l-7 4.05-7.24-4.14c-.26-.08-.26-.25-.26-.43v-.17l7-4 7.24 4.14c0 .03.26.12.26.3zM104.4 265v.17l-7 4.05-7.25-4.13c-.26-.1-.26-.26-.26-.44v-.17l7-4 7.24 4.14c.27.1.27.2.27.38zm-12.94 7.4v.17l-7 4.05-7.24-4.14c-.26-.08-.26-.26-.26-.43v-.17l7-4.05L91.2 272a.48.48 0 0 1 .26.4zm-12.68 7.4v.26l-7 4.05-7.23-4.12c-.26-.1-.26-.26-.26-.44v-.17l7-4.05 7.24 4.14c-.01.07.25.25.25.33zm50.97-29.48v.26l-7 4-7.24-4.14c-.26-.1-.26-.26-.26-.43v-.26l7-4.05 7.25 4.14c.25.22.25.3.25.48zm12.68-7.25v.18l-7 4.05-7.24-4.14c-.26-.1-.26-.26-.26-.43v-.26l7-4.05 7.25 4.14c-.01.25.25.34.25.5zm12.4-7.24v.17l-7 4.06-7.25-4.14c-.25-.1-.25-.26-.25-.44v-.17l7-4.05 7.25 4.14c.25.17.25.26.25.43zm12.68-7.25v.18l-7 4.05-7.25-4.14c-.26-.1-.26-.26-.26-.43v-.17l7-4.06 7.24 4.14c.01.18.27.26.27.43zm12.42-7.24v.17l-7.24 4.14-7.25-4.14c-.26-.08-.26-.26-.26-.43v-.17l7-4 7.24 4.14c.5.03.5.12.5.3zm12.68-7.24v.17l-7 4-7.24-4.14c-.26-.08-.26-.26-.26-.43v-.17l7-4.05 7.24 4.14c0 .22.26.3.26.48zm12.38-7.25v.26l-7 4-7.2-4.1c-.26-.08-.26-.25-.26-.43v-.17l7-4 7.25 4.14c.2.05.2.14.2.3zm12.7-7.25v.26l-7 4-7.25-4.14c-.25-.1-.25-.26-.25-.43v-.17l7-4.06 7.25 4.14c0 .14.25.23.25.4zm12.43-7.24v.18l-7 4.05-7.25-4.14c-.26-.1-.26-.26-.26-.43v-.17l7.25-4.06 7.24 4.14zm-143.85 69v.17l-7 4.05-7.25-4.14c-.26-.08-.26-.26-.26-.43v-.17l7-4 7.23 4.1c0 .17.28.34.28.43zm-12.42 7.24v.17l-7 4.06-7.25-4.14c-.26-.1-.26-.26-.26-.43v-.18l7-4.05 7.24 4.14c.01.17.27.26.27.43zm-12.66 7.16v.17l-7 4.06-7.2-4.14c-.26-.1-.26-.26-.26-.44v-.17l7-4.05 7.25 4.14a.46.46 0 0 1 .2.43zM48.77 283v.18l-7 4.05-7.24-4.14c-.26-.1-.26-.26-.26-.43v-.17l7-4.06 7.25 4.14c.25.17.25.26.25.43zm-12.94-7.4v.17l-7 4.05-1.82-1c-.25-.1-.25-.26-.25-.43v-.18l7-4.05 1.8 1c.26.18.26.26.26.44zm16.3-9.4v.17l-7 4.05-1.8-1c-.25-.1-.25-.26-.25-.43v-.18l7-4 1.8 1c.25.13.25.2.25.4zm12.42-7.2v.17l-7 4.05-1.8-1c-.26-.1-.26-.26-.26-.43v-.17l7-4.06 1.8 1c.26.12.26.3.26.44zM77 251.78v.22l-7 4-1.8-1c-.26-.1-.26-.26-.26-.44v-.17l7-4.05 1.8 1c.26.2.5.36.26.44zm12.4-7.15v.17l-7 4-1.8-1c-.26-.1-.26-.26-.26-.43v-.18l7-4.05 1.8 1c.26.23.52.3.26.5zm69.6-40.1v.18l-7 4.05-1.8-1c-.26-.08-.26-.25-.26-.43v-.17l7-4.05 1.82 1c-.02.16.25.34.25.42zm12.4-7.15v.17l-7 4.05-1.8-1c-.26-.1-.26-.26-.26-.43V200l7-4 1.8 1a.48.48 0 0 1 .26.37zm12.42-7.17v.17l-7 4.05-1.8-1c-.26-.1-.26-.26-.26-.43v-.26l7-4.05 1.8 1c.26.3.26.3.26.52zm12.42-7.15v.17l-7 4.06-1.82-1c-.25-.1-.25-.26-.25-.43v-.17l7-4.06 1.8 1c.26.08.26.26.26.43zM98.7 254.1v.18l-7 4-7.25-4.14c-.26-.1-.26-.26-.26-.43v-.17l7-4.06 7.24 4.14c.27.22.27.3.27.48zm12.68-7.23v.13l-7 4.05-7.23-4.05c-.26-.08-.26-.25-.26-.43v-.17l7-4 7.24 4.14c-.01.07.25.24.25.33zm12.42-7.25v.26l-7 4.06-7.24-4.14c-.26-.1-.26-.26-.26-.43v-.18l7-4.05 7.25 4.14a.32.32 0 0 1 .25.34zm12.67-7.24v.17l-7 4.06-7.5-4.06c-.26-.08-.26-.26-.26-.43V232l7-4 7.3 4c.22.12.47.2.47.38zm12.43-7.24v.17l-7 4.05-7.25-4.14c-.25-.08-.25-.26-.25-.43v-.17l7-4.06 7.24 4.14c.26.18.26.3.26.44zm12.67-7.24v.17l-7.24 4.14-7.25-4.14c-.26-.08-.26-.26-.26-.43v-.17l7-4.05 7.24 4.14c.25.08.5.17.5.34zm12.43-7.25v.17l-7 4.05-7.24-4.14c-.26-.08-.26-.26-.26-.43v-.17l7-4 7.24 4.14c.26.12.26.2.26.38zm12.67-7.25v.17l-7 4.06-7.24-4.14c-.26-.1-.26-.26-.26-.43v-.17l7-4.06 7.25 4.14c.25.17.25.26.25.43zm12.43-7.24v.17l-7 4-7.24-4.14c-.26-.08-.26-.25-.26-.43v-.17l7.24-4.14 7.25 4.14zm-98.85 99.44v.18L77.48 309l-7.24-4.14c-.26-.08-.26-.26-.26-.43v-.17L92.75 291l7.24 4.14c.26.1.26.28.26.45zm154.2-89.1v.17l-22.77 13.2-7.24-4.14c-.26-.08-.26-.25-.26-.43v-.17l22.82-13.2 7.24 4.14a.46.46 0 0 1 .21.43zm-22.5 28.98v.18l-7 4.05-8.8-5c-.26-.1-.26-.26-.26-.43v-.18l7-4 8.8 5a.47.47 0 0 1 .27.38zm-91.07 52.62v.17l-11.9 6.9-8.8-5c-.25-.1-.25-.26-.25-.43v-.26l11.9-6.9 8.8 5.1a.46.46 0 0 1 .26.43zM220 242.47v.17l-11.9 6.9-8.8-5c-.25-.1-.25-.26-.25-.43v-.17L211 237l8.8 5c-.01.2.2.38.2.47zm-17.3 9.93c0 .08 0 .17-.26.34L148.12 284l-9.32-5.35L193.65 247l8.8 5.1c0 .12.26.2.26.3zm67.3-38.65h0l-7.77 4.57-2.84-1.64c0-.08-.26-.17-.26-.26v-.08l7.76-4.5 2.85 1.64c-.02.1.26.17.26.26zM257.3 221h0l-7.76 4.57-2.85-1.64c0-.1-.26-.18-.26-.26v-.1l7.76-4.48 2.85 1.64c.26.08.26.17.26.26zm-12.68 7.24h0l-7.76 4.57-2.86-1.64c0-.08-.26-.17-.26-.26v-.08l7.77-4.5 2.84 1.64c.27.1.27.17.27.26zM250.3 217h0l-7.76 4.57-2.84-1.57c0-.1-.26-.17-.26-.26v-.08l7.76-4.5 2.84 1.64c.26.05.26.13.26.2zm3.9 67.73l-44.2 25.6c-2.33 1.3-6.2 1.12-8.8-.34l-23.54-13.63c-2.6-1.55-2.85-3.45-.52-5.1l44.5-25.6c2.33-1.3 6.2-1.12 8.8.34l23.54 13.63c2.28 1.64 2.54 3.45.2 5.1z" fill="#f9f9f9"/><path d="M9.2 104.7L188.76 1c2.38-1.3 4.6-1.3 6.24-.2l7 3.75h-4.54a12.79 12.79 0 0 1 .43 3.55v141c0 6.88-4.08 14.67-9.2 17.68l-96.25 55.66-81.38 47-.58 5.42-7-3.72-.3-.14H3.1c-1.9-1.16-3.08-3.8-3-7.5L0 122.37c0-6.88 4.1-14.66 9.2-17.68z" fill="url(#C)"/><path d="M204.4 11.72l-.1 141.2c.13 6.65-3.88 14.5-9.08 17.54L112 218.52l-49.8 21.85c-5.14 2.92-9.23-.15-9.2-7.05L42.25 108.9c-.07-6.76 4.16-14.68 9.15-17.65L195.2 4.68c5.12-2.9 9.22.15 9.2 7.04z" fill="#fff"/><path d="M104.2 59.27V221l-87.53 50.47c-5 2.84-9-.15-9-6.88L7.72 127c-.06-6.6 4.06-14.32 8.93-17.22z" fill="#252532"/><path d="M79.27 108.63l-39.3 22.7v-5.02l39.3-22.68v5z" fill="url(#D)"/><path d="M66.33 150.6l-26.36 15.2v-5.07l26.36-15.22v5.08z" fill="url(#E)"/><path d="M48.24 172.5l-16.54 9.55v-5.07l16.54-9.55v5.07z" fill="url(#F)"/><path d="M61.95 164.57l-9.47 5.47v-5.07l9.47-5.47v5.07z" fill="url(#G)"/><path d="M92.2 112.68L66.33 127.6v-5.07L92.2 107.6v5.07z" fill="#676767"/><path d="M61.95 130.14L31.7 147.6v-5.07l30.25-17.47v5.07z" fill="url(#H)"/><g fill="#fff"><use xlink:href="#J"/><use xlink:href="#J" y="-34.42"/><use xlink:href="#J" y="-22.92"/><use xlink:href="#J" y="-57.38"/></g><g fill="#676767"><path d="M27.2 138.7l-4.26 2.48v-5l4.26-2.47v5zm0 34.5l-4.26 2.47v-5.07l4.26-2.47v5.07zm0-23l-4.26 2.47v-5.08l4.26-2.46v5.07z"/><use xlink:href="#K"/><use xlink:href="#K" y="45.93"/><path d="M27.2 219.06l-4.26 2.47v-5.07L27.2 214v5.07zm0-34.43l-4.26 2.47v-5.07l4.26-2.47v5.07z"/><use xlink:href="#K" y="34.43"/></g><path d="M150.4 84.1v16m0 26.7v15.98" fill="none" stroke="#e2887f" stroke-miterlimit="10" stroke-width=".35" stroke-dasharray="1.53"/><path d="M168.92 73.4l-35.4 20.44c-.94.55-1.7 0-1.7-1.3V70.38a4.09 4.09 0 0 1 1.7-3.26l35.4-20.44c.94-.54 1.7 0 1.7 1.3v22.18a4.08 4.08 0 0 1-1.71 3.25z" fill="url(#I)"/><path d="M168.92 116.1l-35.4 20.43c-.94.55-1.7 0-1.7-1.3v-22.17a4.09 4.09 0 0 1 1.7-3.26l35.4-20.43c.94-.55 1.7 0 1.7 1.28v22.18a4.11 4.11 0 0 1-1.71 3.26zm0 42.7l-35.4 20.43c-.94.55-1.7 0-1.7-1.3v-22.17a4.11 4.11 0 0 1 1.7-3.26l35.4-20.43c.94-.55 1.7 0 1.7 1.3v22.17a4.11 4.11 0 0 1-1.71 3.26z" fill="#cccbcb"/><g fill="#fff"><ellipse cx="136.99" cy="70.94" rx="3.53" ry="2.04" transform="matrix(.504678 -.863307 .863307 .504678 6.62 153.41)"/><ellipse cx="136.99" cy="112.68" rx="3.53" ry="2.04" transform="matrix(.5 -.86 .86 .5 -29.42 174.08)"/><ellipse cx="143.84" cy="108.73" rx="3.53" ry="2.04" transform="matrix(.504678 -.863307 .863307 .504678 -22.62 178.03)"/><ellipse cx="136.99" cy="156.42" rx="3.53" ry="2.04" transform="matrix(.504678 -.863307 .863307 .504678 -67.18 195.75)"/></g><path d="M199.1 4.76a3.59 3.59 0 0 1 2.64 1.1c1.18 1.2 1.82 3.26 1.8 5.84v141c0 6.4-3.86 13.88-8.62 16.67L15.4 273.1a6.38 6.38 0 0 1-3.1 1A3.42 3.42 0 0 1 9.79 273c-1.17-1.2-1.8-3.3-1.73-5.95L8 126c0-6.38 3.86-13.86 8.62-16.67l179.5-103.7a6.16 6.16 0 0 1 3-.88m0-1.17a7.36 7.36 0 0 0-3.56 1L16 108.3c-5.12 3-9.22 10.8-9.2 17.68l.1 141.08c-.1 5.08 2.1 8.15 5.4 8.15a7.51 7.51 0 0 0 3.7-1.1l179.53-103.72c5.13-3 9.22-10.8 9.2-17.68v-141c0-5.12-2.3-8.1-5.6-8.1z" fill="#cccbcb"/></svg>