<svg xmlns="http://www.w3.org/2000/svg" xmlns:xlink="http://www.w3.org/1999/xlink" viewBox="0 0 527.14 479.97"><defs><style>.cls-1{isolation:isolate;}.cls-2{opacity:0.5;}.cls-10,.cls-11,.cls-12,.cls-13,.cls-14,.cls-15,.cls-17,.cls-23,.cls-3,.cls-4,.cls-5,.cls-6,.cls-7,.cls-8,.cls-9{fill:none;}.cls-10,.cls-11,.cls-12,.cls-13,.cls-14,.cls-15,.cls-23,.cls-3,.cls-4,.cls-5,.cls-6,.cls-7,.cls-8,.cls-9{stroke-miterlimit:10;}.cls-10,.cls-11,.cls-12,.cls-13,.cls-14,.cls-15,.cls-3,.cls-4,.cls-5,.cls-6,.cls-7,.cls-8,.cls-9{stroke-width:0.98px;}.cls-3{stroke:url(#linear-gradient);}.cls-4{stroke:url(#linear-gradient-2);}.cls-5{stroke:url(#linear-gradient-3);}.cls-6{stroke:url(#linear-gradient-4);}.cls-7{stroke:url(#linear-gradient-5);}.cls-8{stroke:url(#linear-gradient-6);}.cls-9{stroke:url(#linear-gradient-7);}.cls-10{stroke:url(#linear-gradient-8);}.cls-11{stroke:url(#linear-gradient-9);}.cls-12{stroke:url(#linear-gradient-10);}.cls-13{stroke:url(#linear-gradient-11);}.cls-14{stroke:url(#linear-gradient-12);}.cls-15,.cls-23{stroke:#e2887f;}.cls-16{opacity:0.4;mix-blend-mode:multiply;fill:url(#Nepojmenovaný_přechod_32);}.cls-18{fill:url(#Nepojmenovaný_přechod_17);}.cls-19{fill:url(#Nepojmenovaný_přechod_17-2);}.cls-20{fill:url(#Nepojmenovaný_přechod_15);}.cls-21{fill:url(#linear-gradient-13);}.cls-22{fill:url(#Nepojmenovaný_přechod_34);}.cls-23{stroke-width:0.77px;stroke-dasharray:3.38;}.cls-24{fill:url(#linear-gradient-14);}.cls-25{fill:url(#linear-gradient-15);}.cls-26{fill:url(#linear-gradient-16);}.cls-27{fill:url(#linear-gradient-17);}.cls-28{fill:url(#linear-gradient-18);}.cls-29{fill:#e0341b;opacity:0.5;}.cls-30{fill:url(#linear-gradient-19);}.cls-31{fill:#c2c2c2;}.cls-32{fill:#888;}.cls-33{fill:url(#Nepojmenovaný_přechod_34-2);}.cls-34{fill:url(#linear-gradient-20);}.cls-35{font-size:4.55px;fill:#fff;font-family:SpaceMono-Bold, Space Mono;font-weight:700;}.cls-36{fill:url(#linear-gradient-21);}.cls-37{fill:url(#linear-gradient-22);}.cls-38{fill:url(#linear-gradient-23);}.cls-39{fill:url(#linear-gradient-24);}.cls-40{fill:url(#linear-gradient-25);}.cls-41{fill:url(#linear-gradient-26);}</style><linearGradient id="linear-gradient" y1="376.58" x2="296.79" y2="376.58" gradientUnits="userSpaceOnUse"><stop offset="0" stop-color="#e2887f" stop-opacity="0"/><stop offset="1" stop-color="#e2887f"/></linearGradient><linearGradient id="linear-gradient-2" x1="32.18" y1="358.05" x2="328.97" y2="358.05" gradientUnits="userSpaceOnUse"><stop offset="0" stop-color="#ccc" stop-opacity="0"/><stop offset="1" stop-color="#ccc"/></linearGradient><linearGradient id="linear-gradient-3" x1="64.36" y1="339.53" x2="361.15" y2="339.53" xlink:href="#linear-gradient-2"/><linearGradient id="linear-gradient-4" x1="96.54" y1="321.01" x2="393.33" y2="321.01" xlink:href="#linear-gradient-2"/><linearGradient id="linear-gradient-5" x1="128.72" y1="302.48" x2="425.51" y2="302.48" xlink:href="#linear-gradient-2"/><linearGradient id="linear-gradient-6" x1="160.9" y1="283.96" x2="457.69" y2="283.96" xlink:href="#linear-gradient-2"/><linearGradient id="linear-gradient-7" x1="193.08" y1="265.44" x2="489.88" y2="265.44" xlink:href="#linear-gradient-2"/><linearGradient id="linear-gradient-8" x1="-14512.43" y1="367.85" x2="-14247.86" y2="367.85" gradientTransform="matrix(-1, 0, 0, 1, -13985.29, 0)" xlink:href="#linear-gradient-2"/><linearGradient id="linear-gradient-9" x1="-14480.25" y1="349.32" x2="-14215.68" y2="349.32" gradientTransform="matrix(-1, 0, 0, 1, -13985.29, 0)" xlink:href="#linear-gradient-2"/><linearGradient id="linear-gradient-10" x1="-14448.07" y1="330.8" x2="-14183.5" y2="330.8" gradientTransform="matrix(-1, 0, 0, 1, -13985.29, 0)" xlink:href="#linear-gradient-2"/><linearGradient id="linear-gradient-11" x1="-14415.89" y1="312.28" x2="-14151.32" y2="312.28" gradientTransform="matrix(-1, 0, 0, 1, -13985.29, 0)" xlink:href="#linear-gradient-2"/><linearGradient id="linear-gradient-12" x1="-14383.71" y1="293.75" x2="-14119.14" y2="293.75" gradientTransform="matrix(-1, 0, 0, 1, -13985.29, 0)" xlink:href="#linear-gradient-2"/><radialGradient id="Nepojmenovaný_přechod_32" cx="-4847.07" cy="-194.95" r="117.27" gradientTransform="matrix(-0.87, 0.5, 1, 0.58, -3721.52, 2905.72)" gradientUnits="userSpaceOnUse"><stop offset="0" stop-color="#737373"/><stop offset="0.09" stop-color="#939393"/><stop offset="0.2" stop-color="#b4b4b4"/><stop offset="0.31" stop-color="#cfcfcf"/><stop offset="0.44" stop-color="#e4e4e4"/><stop offset="0.58" stop-color="#f3f3f3"/><stop offset="0.75" stop-color="#fcfcfc"/><stop offset="1" stop-color="#fff"/></radialGradient><linearGradient id="Nepojmenovaný_přechod_17" x1="278.61" y1="413.25" x2="278.61" y2="287.31" gradientUnits="userSpaceOnUse"><stop offset="0" stop-color="#d4d4d4"/><stop offset="1" stop-color="#333"/></linearGradient><linearGradient id="Nepojmenovaný_přechod_17-2" x1="275.08" y1="385.56" x2="362.46" y2="312.24" xlink:href="#Nepojmenovaný_přechod_17"/><linearGradient id="Nepojmenovaný_přechod_15" x1="240.45" y1="239.6" x2="354.94" y2="239.6" gradientUnits="userSpaceOnUse"><stop offset="0" stop-color="#ba210f"/><stop offset="0.79" stop-color="#e0341b"/><stop offset="0.97" stop-color="#e26558"/></linearGradient><linearGradient id="linear-gradient-13" x1="278.61" y1="250.71" x2="354.94" y2="250.71" gradientUnits="userSpaceOnUse"><stop offset="0.15" stop-color="#e0341b"/><stop offset="1" stop-color="#a8190a"/></linearGradient><linearGradient id="Nepojmenovaný_přechod_34" x1="314.77" y1="183.16" x2="273.31" y2="118.01" gradientUnits="userSpaceOnUse"><stop offset="0" stop-color="#ccc"/><stop offset="1" stop-color="#fff"/></linearGradient><linearGradient id="linear-gradient-14" x1="849.18" y1="13848.33" x2="861.7" y2="13848.33" gradientTransform="translate(1055.64 14115.51) rotate(180)" gradientUnits="userSpaceOnUse"><stop offset="0" stop-color="#e26558"/><stop offset="1" stop-color="#e0341b"/></linearGradient><linearGradient id="linear-gradient-15" x1="7155.77" y1="13262.47" x2="7168.28" y2="13262.47" gradientTransform="matrix(0.87, -0.5, -1, -0.58, 7413.67, 11288.32)" xlink:href="#linear-gradient-14"/><linearGradient id="linear-gradient-16" x1="7155.77" y1="13256.39" x2="7168.28" y2="13256.39" gradientTransform="matrix(0.87, -0.5, -1, -0.58, 7413.67, 11288.32)" xlink:href="#linear-gradient-14"/><linearGradient id="linear-gradient-17" x1="-170.74" y1="1882.45" x2="-160.52" y2="1882.45" gradientTransform="matrix(-0.75, -0.43, 0, 1.33, -20.55, -2291.68)" xlink:href="#linear-gradient-14"/><linearGradient id="linear-gradient-18" x1="-170.74" y1="1800.81" x2="-160.52" y2="1800.81" gradientTransform="matrix(-0.75, -0.43, 0, 1.33, -20.55, -2291.68)" xlink:href="#linear-gradient-14"/><linearGradient id="linear-gradient-19" x1="105" y1="201.69" x2="112.43" y2="268.19" xlink:href="#Nepojmenovaný_přechod_17"/><linearGradient id="Nepojmenovaný_přechod_34-2" x1="72.04" y1="223.88" x2="133.31" y2="249.85" xlink:href="#Nepojmenovaný_přechod_34"/><linearGradient id="linear-gradient-20" x1="66.39" y1="1282.47" x2="78.23" y2="1282.47" gradientTransform="matrix(0.5, 0.87, -0.58, 1, 813.75, -1086.15)" xlink:href="#linear-gradient-13"/><linearGradient id="linear-gradient-21" x1="98.19" y1="218.57" x2="106.17" y2="218.57" xlink:href="#linear-gradient-13"/><linearGradient id="linear-gradient-22" x1="7100" y1="13186.15" x2="7112.52" y2="13186.15" gradientTransform="matrix(0.87, -0.5, -1, -0.58, 7413.67, 11288.32)" xlink:href="#linear-gradient-14"/><linearGradient id="linear-gradient-23" x1="328.27" y1="215.84" x2="339.24" y2="215.84" xlink:href="#linear-gradient-13"/><linearGradient id="linear-gradient-24" x1="321.76" y1="4.52" x2="334.99" y2="40.86" gradientUnits="userSpaceOnUse"><stop offset="0" stop-color="#fff"/><stop offset="0.32" stop-color="#efefef"/><stop offset="0.96" stop-color="#c6c6c6"/><stop offset="1" stop-color="#c3c3c3"/></linearGradient><linearGradient id="linear-gradient-25" x1="289.06" y1="1.97" x2="309.86" y2="59.12" xlink:href="#linear-gradient-24"/><linearGradient id="linear-gradient-26" x1="267.51" y1="33.57" x2="278.81" y2="64.62" xlink:href="#linear-gradient-24"/></defs><title>Asset 30</title><g class="cls-1"><g id="Layer_2" data-name="Layer 2"><g id="Layer_1-2" data-name="Layer 1"><g class="cls-2"><line class="cls-3" x1="0.24" y1="291.15" x2="296.55" y2="462.01"/><line class="cls-4" x1="32.42" y1="272.62" x2="328.73" y2="443.49"/><line class="cls-5" x1="64.61" y1="254.1" x2="360.91" y2="424.96"/><line class="cls-6" x1="96.79" y1="235.58" x2="393.09" y2="406.44"/><line class="cls-7" x1="128.97" y1="217.05" x2="425.27" y2="387.92"/><line class="cls-8" x1="161.15" y1="198.53" x2="457.45" y2="369.39"/><line class="cls-9" x1="193.33" y1="180.01" x2="489.63" y2="350.87"/><line class="cls-10" x1="526.9" y1="291.11" x2="262.82" y2="444.58"/><line class="cls-11" x1="494.72" y1="272.59" x2="230.64" y2="426.06"/><line class="cls-12" x1="462.54" y1="254.06" x2="198.46" y2="407.54"/><line class="cls-13" x1="430.36" y1="235.54" x2="166.28" y2="389.01"/><line class="cls-14" x1="398.18" y1="217.02" x2="134.1" y2="370.49"/></g><polyline class="cls-15" points="103.75 297.98 103.75 350.91 296.55 462.23 489.35 350.91"/><polyline class="cls-15" points="242.85 47.98 103.75 128.28 103.75 182.82"/><polyline class="cls-15" points="489.35 350.91 489.35 128.28 350.25 47.98"/><ellipse class="cls-16" cx="294.91" cy="391.36" rx="153.47" ry="88.6" transform="translate(-2.12 1.6) rotate(-0.31)"/><line class="cls-17" x1="297.48" y1="309.36" x2="297.48" y2="258.19"/><polygon class="cls-18" points="297.91 309.25 297.91 412.77 297.06 413.25 259.32 391.31 259.32 287.31 297.91 309.25"/><polygon class="cls-19" points="297.91 309.25 339.4 284.75 339.4 388.75 297.91 412.77 297.91 309.25"/><path class="cls-20" d="M258.51,184l40.22-23.33a11.89,11.89,0,0,1,12.16.09v0L349.14,183v42.67H316.78v28.53l38.16,22.22-76.33,43.79L240.45,298V215.33A36.27,36.27,0,0,1,258.51,184Z"/><path class="cls-21" d="M296.68,206.19l40.22-23.32a12,12,0,0,1,18,10.39V276.4l-76.33,43.79V237.56A36.28,36.28,0,0,1,296.68,206.19Z"/><circle class="cls-22" cx="294.91" cy="151.95" r="34.48"/><line class="cls-23" x1="200.2" y1="369.39" x2="200.2" y2="270.71"/><polygon class="cls-24" points="200.2 261.75 193.94 272.6 206.46 272.6 200.2 261.75"/><polygon class="cls-25" points="349.03 47.52 363.78 49.78 352.94 56.04 349.03 47.52"/><polygon class="cls-26" points="355.12 51.04 369.87 53.29 359.03 59.55 355.12 51.04"/><polygon class="cls-27" points="103.67 293.73 99.84 284 107.51 288.42 103.67 293.73"/><polygon class="cls-28" points="103.67 184.87 99.84 175.14 107.51 179.56 103.67 184.87"/><ellipse class="cls-29" cx="424.76" cy="350.56" rx="8.23" ry="14.26" transform="translate(71.91 773.43) rotate(-89.69)"/><ellipse class="cls-29" cx="424.76" cy="350.56" rx="5.09" ry="8.82" transform="translate(71.91 773.43) rotate(-89.69)"/><ellipse class="cls-29" cx="424.76" cy="350.56" rx="2.64" ry="4.57" transform="translate(71.91 773.43) rotate(-89.69)"/><ellipse class="cls-29" cx="200.2" cy="369.39" rx="8.23" ry="14.26" transform="translate(-170.27 567.6) rotate(-89.69)"/><ellipse class="cls-29" cx="200.2" cy="369.39" rx="5.09" ry="8.82" transform="translate(-170.27 567.6) rotate(-89.69)"/><ellipse class="cls-29" cx="200.2" cy="369.39" rx="2.64" ry="4.57" transform="translate(-170.27 567.6) rotate(-89.69)"/><path class="cls-30" d="M124.36,207.75V283.5a2.93,2.93,0,0,1-1.2,2.73L120,288.06l-3.44-10L91,203.81l-6.56-19,2.9-1.69.11-.07a2.13,2.13,0,0,1,2.21.16L121,201.35A8,8,0,0,1,124.36,207.75Z"/><path class="cls-31" d="M117.88,287.86l-31.4-18.13a8,8,0,0,1-3.35-6.4V187.58c0-2.47,1.5-3.6,3.35-2.53l31.4,18.13a8,8,0,0,1,3.35,6.39v75.76C121.23,287.79,119.73,288.93,117.88,287.86Z"/><path class="cls-32" d="M106.57,277.92l-8.77-5.07a1.82,1.82,0,0,1-.77-1.47h0c0-.56.34-.82.77-.58l8.77,5.07a1.84,1.84,0,0,1,.77,1.47h0C107.34,277.9,107,278.16,106.57,277.92Z"/><polygon class="cls-33" points="121.23 281.56 83.14 259.57 83.14 191.75 121.23 213.75 121.23 281.56"/><ellipse class="cls-34" cx="102.18" cy="255.1" rx="4.17" ry="7.23" transform="translate(-114.78 86.44) rotate(-30.31)"/><polygon class="cls-31" points="102.08 234.4 88.86 226.77 88.86 224.19 102.08 231.82 102.08 234.4"/><polygon class="cls-31" points="113.59 241.04 105.02 236.09 105.02 233.51 113.59 238.46 113.59 241.04"/><polygon class="cls-31" points="110.9 244.32 91.55 233.15 91.55 230.57 110.9 241.74 110.9 244.32"/><text class="cls-35" transform="matrix(0.87, 0.5, 0, 1, 99.51, 255.21)">OK</text><path class="cls-36" d="M102.18,212.61c-.41-.24-.75-.05-.75.42v.4c-1.29-.36-2.24.43-2.24,2v3.43l-1,.57V220l8,4.61v-.58l-1-1.72v-3.43a6.65,6.65,0,0,0-2.24-4.61v-.4A1.61,1.61,0,0,0,102.18,212.61Zm-1,9.72a2.2,2.2,0,0,0,1,1.72c.55.32,1,.06,1-.57Z"/><polyline class="cls-23" points="378.41 120.24 424.76 147 424.76 350.56"/><polygon class="cls-37" points="377.06 119.47 391.81 121.73 380.97 127.99 377.06 119.47"/><g id="surface1"><path class="cls-38" d="M331.32,212.64a6.35,6.35,0,0,0-2.2,2.23,6.13,6.13,0,0,0-.85,3,3,3,0,0,0,2,3,15.81,15.81,0,0,1,3.11,1.38.33.33,0,0,0,.38,0l0,0a1.13,1.13,0,0,0,.37-.43c.84-1.61,2.06-3.29,3.12-5a10.77,10.77,0,0,0,2-5.26,2.15,2.15,0,0,0-.88-2,2.22,2.22,0,0,0-2.18.29,6.69,6.69,0,0,0-2,2.2,6.2,6.2,0,0,0-.39.71,1,1,0,0,0-.39-.26A2.17,2.17,0,0,0,331.32,212.64Z"/></g><path class="cls-39" d="M352.9,26.8c0,.14,0,.27,0,.41-.14,3.35-2.42,6.68-6.84,9.23-9.16,5.29-24.06,5.26-33.29-.06-4.34-2.5-6.64-5.74-6.91-9h0c0-.19,0-.38,0-.57s0-.55,0-.82a23.53,23.53,0,0,1,47,.82Z"/><path class="cls-40" d="M338,37c0,.69,0,1.37-.06,2.06-.75,4.78-4.28,9.44-10.62,13.1-14.42,8.32-37.87,8.28-52.37-.1-6.8-3.92-10.44-9-10.89-14.1h0c0-.32,0-.63,0-1s0-.91,0-1.36A37,37,0,0,1,338,35.3C338,35.85,338,36.42,338,37Z"/><path class="cls-41" d="M294.11,52.61v.1c0,2.95-2,5.89-5.85,8.13-7.83,4.52-20.55,4.5-28.43-.05-3.92-2.26-5.91-5.22-5.93-8.18v-.09a20.11,20.11,0,0,1,40.21.09Z"/></g></g></g></svg>