<svg id="Layer_1" data-name="Layer 1" xmlns="http://www.w3.org/2000/svg" width="670.79" height="454.36" viewBox="0 0 670.79 454.36"><defs><style>.cls-1{fill:#d20d26;}</style></defs><title>contact-header-bcg</title><path class="cls-1" d="M670.79,383.9c0-38.88-32.11-70.47-71.55-70.47a71.58,71.58,0,0,0-67.65,47.7H414.22L291.38,0H96.84a24.91,24.91,0,0,1-15,22.26,25.58,25.58,0,0,1-10.35,2.19A25.12,25.12,0,0,1,46.23,0H0C.28,38.63,32.27,70,71.52,70a71.54,71.54,0,0,0,67.65-47.7H250.22L375.69,391.13a23.09,23.09,0,0,0,21.91,15.5h134a71.58,71.58,0,0,0,67.65,47.73C638.68,454.36,670.79,422.74,670.79,383.9Zm-81.9,22.73a24.77,24.77,0,0,1,0-45.5,25.53,25.53,0,0,1,10.35-2.2,25,25,0,1,1,0,49.9A25.53,25.53,0,0,1,588.89,406.63Z"/><path class="cls-1" d="M543.76,191.68c0-38.69-31.86-70.2-71.13-70.44L439,22.24H531.6a71.46,71.46,0,0,0,67.65,47.7c39.27,0,71.29-31.33,71.54-69.94H624.57a25.14,25.14,0,0,1-25.32,24.44,25.41,25.41,0,0,1-10.34-2.2A24.87,24.87,0,0,1,573.93,0H383.75a22.48,22.48,0,0,0,1.18,6.74L428.85,135.8a69.87,69.87,0,0,0-28.16,55.88c0,38.87,32.08,70.48,71.55,70.48S543.76,230.55,543.76,191.68Zm-96.85,0a23.88,23.88,0,0,1,.11-2.41,25.22,25.22,0,0,1,25.22-22.53,25.49,25.49,0,0,1,18.64,8.1,24.59,24.59,0,0,1,6.67,16.84,25.32,25.32,0,0,1-50.64,0Z"/><path class="cls-1" d="M139.17,406.65H257.6a23.21,23.21,0,0,0,18.75-9.47,22.52,22.52,0,0,0,3.17-20.54L235.61,247.58a69.93,69.93,0,0,0,28.14-55.88c0-38.87-32.08-70.46-71.55-70.46s-71.52,31.59-71.52,70.46c0,38.7,31.86,70.22,71.13,70.45l33.68,99H139.17a71.53,71.53,0,0,0-67.65-47.73C32.08,313.41,0,345,0,383.87s32.08,70.48,71.52,70.48A71.54,71.54,0,0,0,139.17,406.65Zm34.4-198.11a24.64,24.64,0,0,1-6.67-16.84,25.32,25.32,0,0,1,50.63,0,21.84,21.84,0,0,1-.11,2.43,25.41,25.41,0,0,1-43.85,14.41ZM46.22,383.87A25.11,25.11,0,0,1,71.52,359a25.42,25.42,0,0,1,10.35,2.19,24.77,24.77,0,0,1,0,45.51,25.58,25.58,0,0,1-10.35,2.19A25.12,25.12,0,0,1,46.22,383.87Z"/></svg>