<svg xmlns="http://www.w3.org/2000/svg" xmlns:xlink="http://www.w3.org/1999/xlink" viewBox="0 0 138.96 291.84"><defs><style>.cls-1{fill:#288f50;}.cls-2,.cls-3,.cls-5,.cls-8{fill:none;}.cls-15,.cls-2,.cls-25,.cls-41,.cls-43{stroke:#237640;}.cls-10,.cls-11,.cls-12,.cls-13,.cls-15,.cls-16,.cls-17,.cls-18,.cls-19,.cls-2,.cls-20,.cls-21,.cls-22,.cls-23,.cls-24,.cls-25,.cls-26,.cls-27,.cls-28,.cls-29,.cls-3,.cls-30,.cls-31,.cls-32,.cls-33,.cls-34,.cls-35,.cls-36,.cls-37,.cls-38,.cls-39,.cls-40,.cls-41,.cls-42,.cls-43,.cls-44,.cls-45,.cls-46,.cls-47,.cls-48,.cls-49,.cls-50,.cls-51,.cls-52,.cls-53,.cls-54,.cls-55,.cls-56,.cls-57,.cls-7,.cls-8,.cls-9{stroke-linecap:round;stroke-linejoin:round;}.cls-2{stroke-width:0.58px;}.cls-10,.cls-11,.cls-12,.cls-13,.cls-16,.cls-17,.cls-19,.cls-22,.cls-23,.cls-24,.cls-29,.cls-3,.cls-33,.cls-34,.cls-35,.cls-36,.cls-37,.cls-39,.cls-40,.cls-42,.cls-45,.cls-46,.cls-48,.cls-49,.cls-5,.cls-54,.cls-56,.cls-57,.cls-7,.cls-8,.cls-9{stroke:#010101;}.cls-3{stroke-width:0;}.cls-4,.cls-6{fill:#fff;}.cls-5{stroke-linecap:square;stroke-linejoin:bevel;stroke-width:0.04px;}.cls-6,.cls-7{fill-rule:evenodd;}.cls-10,.cls-11,.cls-12,.cls-13,.cls-16,.cls-17,.cls-19,.cls-22,.cls-23,.cls-24,.cls-29,.cls-33,.cls-34,.cls-35,.cls-36,.cls-37,.cls-39,.cls-40,.cls-42,.cls-45,.cls-46,.cls-48,.cls-49,.cls-54,.cls-56,.cls-57,.cls-7,.cls-8,.cls-9{stroke-width:0.19px;}.cls-7{fill:url(#linear-gradient);}.cls-9{fill:#e6e6e5;}.cls-10{fill:url(#linear-gradient-2);}.cls-11{fill:url(#linear-gradient-3);}.cls-12{fill:url(#linear-gradient-4);}.cls-13{fill:url(#linear-gradient-5);}.cls-14{fill:#010101;}.cls-15,.cls-18,.cls-21,.cls-25,.cls-26,.cls-27,.cls-28,.cls-30,.cls-31,.cls-32,.cls-38,.cls-41,.cls-43,.cls-44,.cls-47,.cls-50,.cls-51,.cls-52,.cls-53{stroke-width:0.32px;}.cls-15{fill:url(#linear-gradient-6);}.cls-16{fill:url(#linear-gradient-7);}.cls-17{fill:url(#linear-gradient-8);}.cls-18,.cls-21,.cls-26,.cls-27,.cls-28,.cls-30,.cls-31,.cls-32,.cls-38,.cls-44,.cls-47,.cls-50,.cls-51,.cls-52,.cls-53,.cls-55{stroke:#333;}.cls-18{fill:url(#linear-gradient-9);}.cls-19{fill:url(#linear-gradient-10);}.cls-20{stroke:#383937;fill:url(#linear-gradient-11);}.cls-20,.cls-55{stroke-width:0.19px;}.cls-21{fill:url(#linear-gradient-12);}.cls-22{fill:url(#linear-gradient-13);}.cls-23{fill:url(#linear-gradient-14);}.cls-24{fill:url(#linear-gradient-15);}.cls-25{fill:url(#linear-gradient-16);}.cls-26{fill:url(#linear-gradient-17);}.cls-27{fill:url(#linear-gradient-18);}.cls-28{fill:url(#linear-gradient-19);}.cls-29{fill:url(#linear-gradient-20);}.cls-30{fill:url(#linear-gradient-21);}.cls-31{fill:url(#linear-gradient-22);}.cls-32{fill:url(#linear-gradient-23);}.cls-33{fill:url(#linear-gradient-24);}.cls-34{fill:url(#linear-gradient-25);}.cls-35{fill:url(#linear-gradient-26);}.cls-36{fill:#a31d21;}.cls-37{fill:url(#linear-gradient-27);}.cls-38{fill:url(#linear-gradient-28);}.cls-39{fill:url(#linear-gradient-29);}.cls-40{fill:url(#linear-gradient-30);}.cls-41{fill:url(#linear-gradient-31);}.cls-42{fill:url(#linear-gradient-32);}.cls-43{fill:url(#linear-gradient-33);}.cls-44{fill:url(#linear-gradient-34);}.cls-45{fill:url(#linear-gradient-35);}.cls-46{fill:url(#linear-gradient-36);}.cls-47{fill:url(#linear-gradient-37);}.cls-48{fill:url(#linear-gradient-38);}.cls-49{fill:url(#linear-gradient-39);}.cls-50{fill:url(#linear-gradient-40);}.cls-51{fill:url(#linear-gradient-41);}.cls-52{fill:url(#linear-gradient-42);}.cls-53{fill:url(#linear-gradient-43);}.cls-54{fill:url(#linear-gradient-44);}.cls-55{fill:url(#linear-gradient-45);}.cls-56{fill:url(#linear-gradient-46);}.cls-57{fill:url(#linear-gradient-47);}</style><linearGradient id="linear-gradient" x1="68.79" y1="120.03" x2="70.17" y2="120.03" gradientUnits="userSpaceOnUse"><stop offset="0" stop-color="#4d4d4d"/><stop offset="0.39" stop-color="#333"/></linearGradient><linearGradient id="linear-gradient-2" x1="4.31" y1="47.64" x2="15.86" y2="47.64" xlink:href="#linear-gradient"/><linearGradient id="linear-gradient-3" x1="86.7" y1="133.01" x2="91.99" y2="133.01" xlink:href="#linear-gradient"/><linearGradient id="linear-gradient-4" x1="107.49" y1="146.84" x2="111.13" y2="146.84" xlink:href="#linear-gradient"/><linearGradient id="linear-gradient-5" x1="129.96" y1="201.47" x2="134.53" y2="201.47" xlink:href="#linear-gradient"/><linearGradient id="linear-gradient-6" x1="62.34" y1="50.55" x2="83.44" y2="50.55" gradientUnits="userSpaceOnUse"><stop offset="0" stop-color="#dbdbdb"/><stop offset="1" stop-color="gray"/></linearGradient><linearGradient id="linear-gradient-7" x1="107.22" y1="160.05" x2="112.66" y2="160.05" xlink:href="#linear-gradient"/><linearGradient id="linear-gradient-8" x1="10.95" y1="130.1" x2="14.59" y2="130.1" xlink:href="#linear-gradient"/><linearGradient id="linear-gradient-9" x1="55.9" y1="146.84" x2="83.06" y2="146.84" gradientTransform="translate(24.71 -9.32) rotate(9.32)" gradientUnits="userSpaceOnUse"><stop offset="0" stop-color="#333"/><stop offset="1" stop-color="#4d4d4d"/></linearGradient><linearGradient id="linear-gradient-10" x1="58.01" y1="146.84" x2="81.98" y2="146.84" xlink:href="#linear-gradient"/><linearGradient id="linear-gradient-11" x1="64.76" y1="146.84" x2="74.2" y2="146.84" xlink:href="#linear-gradient-6"/><linearGradient id="linear-gradient-12" x1="31.24" y1="10.2" x2="107.72" y2="10.2" gradientTransform="matrix(1, 0, 0, 1, 0, 0)" xlink:href="#linear-gradient-9"/><linearGradient id="linear-gradient-13" x1="67.68" y1="105.9" x2="71.28" y2="105.9" xlink:href="#linear-gradient"/><linearGradient id="linear-gradient-14" x1="100.39" y1="174.41" x2="104.84" y2="174.41" xlink:href="#linear-gradient"/><linearGradient id="linear-gradient-15" x1="47.54" y1="58.04" x2="47.54" y2="46.46" xlink:href="#linear-gradient"/><linearGradient id="linear-gradient-16" x1="8.04" y1="81.67" x2="29.32" y2="81.67" xlink:href="#linear-gradient-6"/><linearGradient id="linear-gradient-17" x1="3.72" y1="83.75" x2="7.99" y2="73.52" gradientTransform="matrix(1, 0, 0, 1, 0, 0)" xlink:href="#linear-gradient-9"/><linearGradient id="linear-gradient-18" x1="58.55" y1="79.49" x2="80.41" y2="79.49" gradientTransform="matrix(1, 0, 0, 1, 0, 0)" xlink:href="#linear-gradient-9"/><linearGradient id="linear-gradient-19" x1="59.28" y1="79.49" x2="79.68" y2="79.49" gradientTransform="matrix(1, 0, 0, 1, 0, 0)" xlink:href="#linear-gradient-9"/><linearGradient id="linear-gradient-20" x1="35" y1="148.39" x2="40.44" y2="148.39" xlink:href="#linear-gradient"/><linearGradient id="linear-gradient-21" x1="33.89" y1="262.99" x2="39.37" y2="262.99" gradientTransform="matrix(1, 0, 0, 1, 0, 0)" xlink:href="#linear-gradient-9"/><linearGradient id="linear-gradient-22" x1="40.18" y1="278.91" x2="45.28" y2="278.91" gradientTransform="matrix(1, 0, 0, 1, 0, 0)" xlink:href="#linear-gradient-9"/><linearGradient id="linear-gradient-23" x1="31.97" y1="254.44" x2="39.06" y2="254.44" gradientTransform="matrix(1, 0, 0, 1, 0, 0)" xlink:href="#linear-gradient-9"/><linearGradient id="linear-gradient-24" x1="100.43" y1="180.15" x2="104.07" y2="180.15" xlink:href="#linear-gradient"/><linearGradient id="linear-gradient-25" x1="77.69" y1="122.14" x2="80.6" y2="122.14" xlink:href="#linear-gradient"/><linearGradient id="linear-gradient-26" x1="77.49" y1="105.9" x2="83.32" y2="105.9" xlink:href="#linear-gradient"/><linearGradient id="linear-gradient-27" x1="55.63" y1="105.9" x2="61.46" y2="105.9" xlink:href="#linear-gradient"/><linearGradient id="linear-gradient-28" x1="89.42" y1="36.17" x2="92.15" y2="36.17" gradientTransform="matrix(1, 0, 0, 1, 0, 0)" xlink:href="#linear-gradient-9"/><linearGradient id="linear-gradient-29" x1="94.68" y1="249.49" x2="103.61" y2="249.49" xlink:href="#linear-gradient"/><linearGradient id="linear-gradient-30" x1="91.61" y1="79.11" x2="96.86" y2="79.11" xlink:href="#linear-gradient"/><linearGradient id="linear-gradient-31" x1="102.27" y1="96.69" x2="124.06" y2="96.69" xlink:href="#linear-gradient-6"/><linearGradient id="linear-gradient-32" x1="108.6" y1="97.69" x2="117.73" y2="97.69" xlink:href="#linear-gradient"/><linearGradient id="linear-gradient-33" x1="96.05" y1="64.82" x2="121.76" y2="45.54" xlink:href="#linear-gradient-6"/><linearGradient id="linear-gradient-34" x1="88.04" y1="106.6" x2="97.13" y2="106.6" gradientTransform="matrix(1, 0, 0, 1, 0, 0)" xlink:href="#linear-gradient-9"/><linearGradient id="linear-gradient-35" x1="85.36" y1="92.41" x2="89.27" y2="92.41" xlink:href="#linear-gradient"/><linearGradient id="linear-gradient-36" x1="101.54" y1="169.6" x2="103.84" y2="169.6" xlink:href="#linear-gradient"/><linearGradient id="linear-gradient-37" x1="25.26" y1="257.51" x2="28.52" y2="257.51" gradientTransform="matrix(1, 0, 0, 1, 0, 0)" xlink:href="#linear-gradient-9"/><linearGradient id="linear-gradient-38" x1="40.79" y1="142.93" x2="44.09" y2="142.93" xlink:href="#linear-gradient"/><linearGradient id="linear-gradient-39" x1="36.15" y1="173.05" x2="39.79" y2="173.05" xlink:href="#linear-gradient"/><linearGradient id="linear-gradient-40" x1="8.88" y1="188.99" x2="32.54" y2="188.99" xlink:href="#linear-gradient-6"/><linearGradient id="linear-gradient-41" x1="12.33" y1="242.68" x2="32.54" y2="242.68" xlink:href="#linear-gradient-6"/><linearGradient id="linear-gradient-42" x1="2.78" y1="215.84" x2="38.64" y2="215.84" gradientTransform="matrix(1, 0, 0, 1, 0, 0)" xlink:href="#linear-gradient-9"/><linearGradient id="linear-gradient-43" x1="7.96" y1="210.1" x2="33.43" y2="210.1" xlink:href="#linear-gradient-6"/><linearGradient id="linear-gradient-44" x1="129.19" y1="228.76" x2="134.64" y2="228.76" xlink:href="#linear-gradient"/><linearGradient id="linear-gradient-45" x1="129.58" y1="228.76" x2="134.22" y2="228.76" xlink:href="#linear-gradient-6"/><linearGradient id="linear-gradient-46" x1="45.81" y1="117.61" x2="51.26" y2="117.61" xlink:href="#linear-gradient"/><linearGradient id="linear-gradient-47" x1="33.81" y1="118.34" x2="39.06" y2="118.34" xlink:href="#linear-gradient"/></defs><g id="Layer_2" data-name="Layer 2"><g id="Layer_1-2" data-name="Layer 1"><polygon class="cls-1" points="109.71 236.78 109.79 236.28 109.94 235.86 110.25 235.47 110.63 235.21 111.05 235.01 111.51 234.94 136.83 234.94 137.29 234.9 137.75 234.71 138.13 234.4 138.4 234.02 138.59 233.59 138.67 233.13 138.67 223.85 138.59 223.35 138.4 222.93 138.13 222.55 137.75 222.28 137.29 222.09 136.83 222.01 111.51 222.01 111.05 221.97 110.63 221.78 110.25 221.47 109.94 221.13 109.79 220.67 109.71 220.21 109.71 207.82 109.79 207.36 109.94 206.9 110.25 206.52 110.63 206.25 111.05 206.06 111.51 206.02 136.83 206.02 137.29 205.94 137.75 205.75 138.13 205.48 138.4 205.1 138.59 204.64 138.67 204.18 138.67 198.73 138.59 198.23 138.4 197.81 138.13 197.43 137.75 197.16 137.29 196.97 136.83 196.89 111.51 196.89 111.05 196.85 110.63 196.66 110.25 196.35 109.94 196.01 109.79 195.55 109.71 195.09 109.79 194.59 109.94 194.17 110.25 193.78 110.63 193.51 111.05 193.32 111.51 193.25 136.83 193.25 137.29 193.21 137.75 193.02 138.13 192.71 138.4 192.36 138.59 191.9 138.67 191.44 138.67 29.44 138.59 28.71 138.36 28.02 138.06 27.4 137.59 26.83 137.02 26.41 136.41 26.06 135.72 25.87 135.03 25.79 134.1 25.79 133.38 25.72 132.72 25.49 132.07 25.18 131.53 24.72 131.07 24.14 130.73 23.53 130.54 22.84 130.46 22.15 130.46 16.66 130.38 15.59 130.19 14.52 129.88 13.44 129.43 12.45 128.85 11.53 128.16 10.64 127.39 9.88 126.51 9.19 125.59 8.61 124.59 8.15 123.52 7.84 122.44 7.65 121.37 7.58 115.89 7.58 115.2 7.5 114.5 7.31 113.89 6.96 113.32 6.5 112.86 5.96 112.55 5.31 112.32 4.66 112.24 3.93 112.24 2.13 112.2 1.63 112.01 1.21 111.71 0.82 111.36 0.56 110.9 0.36 110.44 0.29 28.52 0.29 28.06 0.36 27.6 0.56 27.25 0.82 26.94 1.21 26.75 1.63 26.71 2.13 26.71 3.93 26.64 4.66 26.41 5.31 26.1 5.96 25.64 6.5 25.06 6.96 24.45 7.31 23.76 7.5 23.07 7.58 17.59 7.58 16.51 7.65 15.44 7.84 14.36 8.15 13.37 8.61 12.45 9.19 11.56 9.88 10.8 10.64 10.11 11.53 9.53 12.45 9.07 13.44 8.76 14.52 8.57 15.59 8.49 16.66 8.49 22.15 8.42 22.84 8.23 23.53 7.88 24.14 7.42 24.72 6.88 25.18 6.23 25.49 5.58 25.72 4.85 25.79 3.93 25.79 3.24 25.87 2.55 26.06 1.94 26.41 1.36 26.83 0.9 27.4 0.59 28.02 0.36 28.71 0.29 29.44 0.29 188.53 0.36 188.99 0.56 189.45 0.82 189.79 1.21 190.1 1.67 190.29 2.13 190.33 38.72 190.33 39.18 190.41 39.64 190.6 39.98 190.87 40.29 191.25 40.48 191.71 40.52 192.17 40.52 239.69 40.48 240.15 40.29 240.57 39.98 240.96 39.64 241.26 39.18 241.42 38.72 241.5 2.13 241.5 1.67 241.57 1.21 241.73 0.82 242.03 0.56 242.42 0.36 242.84 0.29 243.34 0.29 259.71 0.36 260.17 0.56 260.6 0.82 260.98 1.21 261.29 1.67 261.48 2.13 261.52 2.82 261.59 3.51 261.79 4.16 262.13 4.7 262.59 5.16 263.13 5.5 263.78 5.7 264.47 5.77 265.16 5.77 270.64 5.85 271.72 6.04 272.79 6.35 273.87 6.81 274.86 7.38 275.78 8.07 276.67 8.84 277.43 9.68 278.12 10.64 278.7 11.64 279.12 12.68 279.47 13.79 279.66 14.86 279.73 29.44 279.73 30.13 279.81 30.82 280 31.47 280.35 32.01 280.81 32.47 281.35 32.81 281.96 33 282.65 33.08 283.38 33.08 287.9 33.16 288.63 33.35 289.32 33.69 289.94 34.15 290.51 34.69 290.93 35.3 291.28 35.99 291.51 36.72 291.55 102.23 291.55 102.96 291.51 103.65 291.28 104.27 290.93 104.8 290.51 105.26 289.94 105.61 289.32 105.8 288.63 105.88 287.9 105.88 283.38 105.95 282.65 106.14 281.96 106.49 281.35 106.95 280.81 107.49 280.35 108.14 280 108.83 279.81 109.52 279.73 124.09 279.73 125.17 279.66 126.28 279.47 127.32 279.12 128.31 278.7 129.27 278.12 130.12 277.43 130.88 276.67 131.57 275.78 132.15 274.86 132.61 273.87 132.91 272.79 133.11 271.72 133.18 270.64 133.18 265.16 133.26 264.47 133.45 263.78 133.8 263.13 134.26 262.59 134.79 262.13 135.45 261.79 136.14 261.59 136.83 261.52 137.29 261.48 137.75 261.29 138.13 260.98 138.4 260.6 138.59 260.17 138.67 259.71 138.67 240.42 138.59 239.92 138.4 239.5 138.13 239.12 137.75 238.85 137.29 238.66 136.83 238.58 111.51 238.58 111.05 238.54 110.63 238.35 110.25 238.04 109.94 237.66 109.79 237.24 109.71 236.78"/><polyline class="cls-2" points="5.77 270.64 5.85 271.72 6.04 272.79 6.35 273.87 6.81 274.86 7.38 275.78 8.07 276.67 8.84 277.43 9.68 278.12 10.64 278.7 11.64 279.12 12.68 279.47 13.79 279.66 14.86 279.73"/><polyline class="cls-2" points="124.09 279.73 125.17 279.66 126.28 279.47 127.32 279.12 128.31 278.7 129.27 278.12 130.12 277.43 130.88 276.67 131.57 275.78 132.15 274.86 132.61 273.87 132.91 272.79 133.11 271.72 133.18 270.64"/><polyline class="cls-2" points="130.46 16.66 130.38 15.59 130.19 14.52 129.88 13.44 129.43 12.45 128.85 11.53 128.16 10.64 127.39 9.88 126.51 9.19 125.59 8.61 124.59 8.15 123.52 7.84 122.44 7.65 121.37 7.58"/><polyline class="cls-2" points="17.59 7.58 16.51 7.65 15.44 7.84 14.36 8.15 13.37 8.61 12.45 9.19 11.56 9.88 10.8 10.64 10.11 11.53 9.53 12.45 9.07 13.44 8.76 14.52 8.57 15.59 8.49 16.66"/><line class="cls-2" x1="124.09" y1="279.73" x2="109.52" y2="279.73"/><polyline class="cls-2" points="109.52 279.73 108.83 279.81 108.14 280 107.49 280.35 106.95 280.81 106.49 281.35 106.14 281.96 105.95 282.65 105.88 283.38"/><line class="cls-2" x1="105.88" y1="283.38" x2="105.88" y2="287.9"/><polyline class="cls-2" points="102.23 291.55 102.96 291.51 103.65 291.28 104.27 290.93 104.8 290.51 105.26 289.94 105.61 289.32 105.8 288.63 105.88 287.9"/><line class="cls-2" x1="102.23" y1="291.55" x2="36.72" y2="291.55"/><polyline class="cls-2" points="33.08 287.9 33.16 288.63 33.35 289.32 33.69 289.94 34.15 290.51 34.69 290.93 35.3 291.28 35.99 291.51 36.72 291.55"/><line class="cls-2" x1="33.08" y1="287.9" x2="33.08" y2="283.38"/><polyline class="cls-2" points="33.08 283.38 33 282.65 32.81 281.96 32.47 281.35 32.01 280.81 31.47 280.35 30.82 280 30.13 279.81 29.44 279.73"/><line class="cls-2" x1="29.44" y1="279.73" x2="14.86" y2="279.73"/><line class="cls-2" x1="26.71" y1="3.93" x2="26.71" y2="2.13"/><polyline class="cls-2" points="28.52 0.29 28.06 0.36 27.6 0.56 27.25 0.82 26.94 1.21 26.75 1.63 26.71 2.13"/><line class="cls-2" x1="28.52" y1="0.29" x2="110.44" y2="0.29"/><polyline class="cls-2" points="112.24 2.13 112.2 1.63 112.01 1.21 111.71 0.82 111.36 0.56 110.9 0.36 110.44 0.29"/><line class="cls-2" x1="112.24" y1="2.13" x2="112.24" y2="3.93"/><polyline class="cls-2" points="112.24 3.93 112.32 4.66 112.55 5.31 112.86 5.96 113.32 6.5 113.89 6.96 114.5 7.31 115.2 7.5 115.89 7.58"/><line class="cls-2" x1="115.89" y1="7.57" x2="121.37" y2="7.57"/><line class="cls-2" x1="17.59" y1="7.57" x2="23.07" y2="7.57"/><polyline class="cls-2" points="23.07 7.58 23.76 7.5 24.45 7.31 25.06 6.96 25.64 6.5 26.1 5.96 26.41 5.31 26.64 4.66 26.71 3.93"/><line class="cls-2" x1="130.46" y1="16.66" x2="130.46" y2="22.15"/><polyline class="cls-2" points="138.67 29.44 138.59 28.71 138.36 28.02 138.06 27.4 137.59 26.83 137.02 26.41 136.41 26.06 135.72 25.87 135.03 25.79"/><line class="cls-2" x1="135.02" y1="25.79" x2="134.1" y2="25.79"/><polyline class="cls-2" points="136.83 261.52 137.29 261.48 137.75 261.29 138.13 260.98 138.4 260.6 138.59 260.17 138.67 259.71"/><polyline class="cls-2" points="136.83 261.52 136.14 261.59 135.45 261.79 134.79 262.13 134.26 262.59 133.8 263.13 133.45 263.78 133.26 264.47 133.18 265.16"/><line class="cls-2" x1="133.18" y1="265.16" x2="133.18" y2="270.64"/><line class="cls-2" x1="8.5" y1="16.66" x2="8.5" y2="22.15"/><polyline class="cls-2" points="4.85 25.79 5.58 25.72 6.23 25.49 6.88 25.18 7.42 24.72 7.88 24.14 8.23 23.53 8.42 22.84 8.49 22.15"/><line class="cls-2" x1="4.85" y1="25.79" x2="3.93" y2="25.79"/><polyline class="cls-2" points="3.93 25.79 3.24 25.87 2.55 26.06 1.94 26.41 1.36 26.83 0.9 27.4 0.59 28.02 0.36 28.71 0.29 29.44"/><line class="cls-2" x1="0.29" y1="29.44" x2="0.29" y2="188.53"/><polyline class="cls-2" points="0.29 188.53 0.36 188.99 0.56 189.45 0.82 189.79 1.21 190.1 1.67 190.29 2.13 190.33"/><line class="cls-2" x1="2.13" y1="190.33" x2="38.72" y2="190.33"/><polyline class="cls-2" points="40.52 192.17 40.48 191.71 40.29 191.25 39.98 190.87 39.64 190.6 39.18 190.41 38.72 190.33"/><line class="cls-2" x1="40.52" y1="192.17" x2="40.52" y2="239.69"/><polyline class="cls-2" points="38.72 241.5 39.18 241.42 39.64 241.26 39.98 240.96 40.29 240.57 40.48 240.15 40.52 239.69"/><line class="cls-2" x1="38.72" y1="241.5" x2="2.13" y2="241.5"/><polyline class="cls-2" points="2.13 241.5 1.67 241.57 1.21 241.73 0.82 242.03 0.56 242.42 0.36 242.84 0.29 243.34"/><line class="cls-2" x1="0.29" y1="243.34" x2="0.29" y2="259.71"/><polyline class="cls-2" points="0.29 259.71 0.36 260.17 0.56 260.6 0.82 260.98 1.21 261.29 1.67 261.48 2.13 261.52"/><polyline class="cls-2" points="5.77 265.16 5.7 264.47 5.5 263.78 5.16 263.13 4.7 262.59 4.16 262.13 3.51 261.79 2.82 261.59 2.13 261.52"/><line class="cls-2" x1="5.77" y1="265.16" x2="5.77" y2="270.64"/><polyline class="cls-2" points="130.46 22.15 130.54 22.84 130.73 23.53 131.07 24.14 131.53 24.72 132.07 25.18 132.72 25.49 133.38 25.72 134.1 25.79"/><line class="cls-2" x1="111.51" y1="193.25" x2="136.83" y2="193.25"/><polyline class="cls-2" points="136.83 193.25 137.29 193.21 137.75 193.02 138.13 192.71 138.4 192.36 138.59 191.9 138.67 191.44"/><line class="cls-2" x1="138.67" y1="191.44" x2="138.67" y2="29.44"/><polyline class="cls-2" points="111.51 193.25 111.05 193.32 110.63 193.51 110.25 193.78 109.94 194.17 109.79 194.59 109.71 195.09"/><polyline class="cls-2" points="109.71 195.09 109.79 195.55 109.94 196.01 110.25 196.35 110.63 196.66 111.05 196.85 111.51 196.89"/><polyline class="cls-2" points="138.67 240.42 138.59 239.92 138.4 239.5 138.13 239.12 137.75 238.85 137.29 238.66 136.83 238.58"/><line class="cls-2" x1="138.67" y1="240.42" x2="138.67" y2="259.71"/><line class="cls-2" x1="111.51" y1="222.01" x2="136.83" y2="222.01"/><polyline class="cls-2" points="138.67 223.85 138.59 223.35 138.4 222.93 138.13 222.55 137.75 222.28 137.29 222.09 136.83 222.01"/><line class="cls-2" x1="138.67" y1="223.85" x2="138.67" y2="233.13"/><polyline class="cls-2" points="136.83 234.94 137.29 234.9 137.75 234.71 138.13 234.4 138.4 234.02 138.59 233.59 138.67 233.13"/><line class="cls-2" x1="136.83" y1="234.94" x2="111.51" y2="234.94"/><polyline class="cls-2" points="111.51 234.94 111.05 235.01 110.63 235.21 110.25 235.47 109.94 235.86 109.79 236.28 109.71 236.78"/><line class="cls-2" x1="138.67" y1="198.73" x2="138.67" y2="204.18"/><polyline class="cls-2" points="136.83 206.02 137.29 205.94 137.75 205.75 138.13 205.48 138.4 205.1 138.59 204.64 138.67 204.18"/><line class="cls-2" x1="136.83" y1="206.02" x2="111.51" y2="206.02"/><polyline class="cls-2" points="138.67 198.73 138.59 198.23 138.4 197.81 138.13 197.43 137.75 197.16 137.29 196.97 136.83 196.89"/><line class="cls-2" x1="136.83" y1="196.89" x2="111.51" y2="196.89"/><polyline class="cls-2" points="111.51 206.02 111.05 206.06 110.63 206.25 110.25 206.52 109.94 206.9 109.79 207.36 109.71 207.82"/><line class="cls-2" x1="109.71" y1="207.82" x2="109.71" y2="220.21"/><polyline class="cls-2" points="109.71 220.21 109.79 220.67 109.94 221.13 110.25 221.47 110.63 221.78 111.05 221.97 111.51 222.01"/><polyline class="cls-2" points="109.71 236.78 109.79 237.24 109.94 237.66 110.25 238.04 110.63 238.35 111.05 238.54 111.51 238.58"/><line class="cls-2" x1="111.51" y1="238.58" x2="136.83" y2="238.58"/><circle class="cls-3" cx="124.09" cy="270.64" r="3.91"/><circle class="cls-4" cx="124.09" cy="270.64" r="3.91"/><circle class="cls-5" cx="124.09" cy="270.64" r="3.91"/><circle class="cls-3" cx="124.09" cy="148.64" r="3.91"/><circle class="cls-4" cx="124.09" cy="148.64" r="3.91"/><circle class="cls-5" cx="124.09" cy="148.64" r="3.91"/><circle class="cls-3" cx="121.37" cy="16.66" r="3.91"/><circle class="cls-4" cx="121.37" cy="16.66" r="3.91"/><circle class="cls-5" cx="121.37" cy="16.66" r="3.91"/><circle class="cls-3" cx="17.59" cy="16.66" r="3.91" transform="translate(-4.03 27.61) rotate(-70.31)"/><circle class="cls-4" cx="17.59" cy="16.66" r="3.91" transform="translate(-4.03 27.61) rotate(-70.31)"/><circle class="cls-5" cx="17.59" cy="16.66" r="3.91" transform="translate(-4.03 27.61) rotate(-70.31)"/><circle class="cls-3" cx="14.86" cy="148.64" r="3.91"/><circle class="cls-4" cx="14.86" cy="148.64" r="3.91"/><circle class="cls-5" cx="14.86" cy="148.64" r="3.91"/><circle class="cls-3" cx="14.86" cy="270.64" r="3.91"/><circle class="cls-4" cx="14.86" cy="270.64" r="3.91"/><circle class="cls-5" cx="14.86" cy="270.64" r="3.91"/><path class="cls-3" d="M73.35,288.82a.92.92,0,1,1,.92-.92A.92.92,0,0,1,73.35,288.82Z"/><path class="cls-6" d="M73.35,288.82a.92.92,0,1,1,.92-.92A.92.92,0,0,1,73.35,288.82Z"/><path class="cls-5" d="M73.35,288.82a.92.92,0,1,1,.92-.92A.92.92,0,0,1,73.35,288.82Z"/><path class="cls-3" d="M65.6,288.82a.92.92,0,1,1,.92-.92A.92.92,0,0,1,65.6,288.82Z"/><path class="cls-6" d="M65.6,288.82a.92.92,0,1,1,.92-.92A.92.92,0,0,1,65.6,288.82Z"/><path class="cls-5" d="M65.6,288.82a.92.92,0,1,1,.92-.92A.92.92,0,0,1,65.6,288.82Z"/><path class="cls-3" d="M69.48,120.72a.69.69,0,1,1,.69-.69A.69.69,0,0,1,69.48,120.72Z"/><path class="cls-7" d="M69.48,120.72a.69.69,0,1,1,.69-.69A.69.69,0,0,1,69.48,120.72Z"/><path class="cls-5" d="M69.48,120.72a.69.69,0,1,1,.69-.69A.69.69,0,0,1,69.48,120.72Z"/><line class="cls-8" x1="14.29" y1="45.32" x2="15.17" y2="45.32"/><line class="cls-8" x1="15.17" y1="45.32" x2="15.86" y2="45.32"/><polyline class="cls-9" points="14.29 45.31 14.29 43.13 15.17 43.13 15.17 45.31"/><polyline class="cls-10" points="14.29 45.31 4.32 45.31 4.32 49.96 15.86 49.96 15.86 45.31"/><polyline class="cls-9" points="11.99 45.31 11.99 43.13 12.83 43.13 12.83 45.31"/><polyline class="cls-9" points="9.65 45.31 9.65 43.13 10.53 43.13 10.53 45.31"/><polyline class="cls-9" points="7.34 45.31 7.34 43.13 8.23 43.13 8.23 45.31"/><polyline class="cls-9" points="5.04 45.31 5.04 43.13 5.89 43.13 5.89 45.31"/><polyline class="cls-9" points="5.89 49.96 5.89 52.1 5.04 52.1 5.04 49.96"/><polyline class="cls-9" points="8.23 49.96 8.23 52.1 7.34 52.1 7.34 49.96"/><polyline class="cls-9" points="10.53 49.96 10.53 52.1 9.65 52.1 9.65 49.96"/><polyline class="cls-9" points="12.83 49.96 12.83 52.1 11.99 52.1 11.99 49.96"/><polyline class="cls-9" points="15.17 49.96 15.17 52.1 14.29 52.1 14.29 49.96"/><path class="cls-8" d="M14.71,46.89a.43.43,0,1,1,.42-.42A.42.42,0,0,1,14.71,46.89Z"/><path class="cls-8" d="M14.71,49.19a.42.42,0,0,1-.42-.42.42.42,0,0,1,.84,0A.42.42,0,0,1,14.71,49.19Z"/><path class="cls-8" d="M12.41,46.89a.43.43,0,0,1,0-.85.43.43,0,0,1,0,.85Z"/><path class="cls-8" d="M12.41,49.19a.42.42,0,0,1-.42-.42.41.41,0,0,1,.42-.42.42.42,0,0,1,.42.42A.42.42,0,0,1,12.41,49.19Z"/><circle class="cls-8" cx="10.11" cy="46.47" r="0.42"/><path class="cls-8" d="M10.11,49.19a.42.42,0,0,1-.43-.42.43.43,0,1,1,.43.42Z"/><path class="cls-8" d="M7.77,49.19a.42.42,0,0,1-.43-.42.43.43,0,1,1,.43.42Z"/><circle class="cls-8" cx="7.77" cy="46.47" r="0.42"/><circle class="cls-8" cx="5.47" cy="46.47" r="0.42"/><path class="cls-8" d="M5.47,49.19A.42.42,0,0,1,5,48.77a.43.43,0,1,1,.43.42Z"/><polygon class="cls-11" points="89.73 131.84 88.96 131.84 86.7 131.84 86.7 134.18 87.24 134.18 88 134.18 90.69 134.18 91.45 134.18 91.99 134.18 91.99 131.84 89.73 131.84"/><polyline class="cls-9" points="90.69 134.18 90.69 135.1 91.45 135.1 91.45 134.18"/><polyline class="cls-9" points="87.24 134.18 87.24 135.1 88 135.1 88 134.18"/><polyline class="cls-9" points="88.96 131.84 88.96 130.92 89.73 130.92 89.73 131.84"/><rect class="cls-12" x="107.49" y="145.04" width="3.64" height="3.61"/><path class="cls-8" d="M108.22,146.11a.35.35,0,0,1-.35-.35.35.35,0,0,1,.69,0A.35.35,0,0,1,108.22,146.11Z"/><line class="cls-8" x1="129.96" y1="199.19" x2="134.53" y2="199.19"/><polyline class="cls-13" points="134.53 199.19 134.53 203.75 129.96 203.75 129.96 199.19"/><path class="cls-8" d="M133.68,203.26a.35.35,0,0,1-.34-.35.34.34,0,0,1,.34-.34.35.35,0,0,1,.35.34A.35.35,0,0,1,133.68,203.26Z"/><rect class="cls-14" x="24.99" y="142.58" width="7.82" height="2.3"/><rect class="cls-3" x="24.99" y="142.58" width="7.82" height="2.3"/><line class="cls-8" x1="32.81" y1="142.62" x2="24.99" y2="142.62"/><line class="cls-8" x1="24.99" y1="142.62" x2="24.99" y2="155.89"/><line class="cls-8" x1="24.99" y1="155.89" x2="32.81" y2="155.89"/><line class="cls-8" x1="32.81" y1="155.89" x2="32.81" y2="142.62"/><rect class="cls-15" x="62.34" y="39.18" width="21.09" height="22.74"/><circle class="cls-8" cx="65.8" cy="58.55" r="0.54"/><rect class="cls-16" x="107.22" y="158.23" width="5.45" height="3.64"/><path class="cls-8" d="M111.74,161.3a.35.35,0,0,1-.34-.35.34.34,0,0,1,.34-.34.35.35,0,0,1,.35.34A.35.35,0,0,1,111.74,161.3Z"/><rect class="cls-14" x="43.51" y="170.31" width="7.82" height="2.3"/><rect class="cls-3" x="43.51" y="170.31" width="7.82" height="2.3"/><line class="cls-8" x1="51.34" y1="170.35" x2="43.51" y2="170.35"/><line class="cls-8" x1="43.51" y1="170.35" x2="43.51" y2="183.62"/><line class="cls-8" x1="43.51" y1="183.62" x2="51.34" y2="183.62"/><line class="cls-8" x1="51.34" y1="183.62" x2="51.34" y2="170.35"/><rect class="cls-17" x="10.95" y="128.27" width="3.64" height="3.64"/><path class="cls-8" d="M11.87,129.66a.47.47,0,0,1-.46-.46.46.46,0,1,1,.92,0A.47.47,0,0,1,11.87,129.66Z"/><circle class="cls-18" cx="69.48" cy="146.84" r="13.58" transform="translate(-22.87 13.2) rotate(-9.32)"/><polygon class="cls-19" points="80.75 144.84 80.45 143.58 80.03 142.35 79.45 141.16 78.72 140.05 77.88 139.05 76.96 138.13 75.92 137.37 74.81 136.67 73.62 136.14 72.36 135.75 71.09 135.49 69.78 135.37 68.48 135.41 67.18 135.6 65.91 135.95 64.68 136.41 63.53 137.02 62.46 137.79 61.46 138.63 60.58 139.59 59.81 140.66 59.2 141.78 58.66 143 58.32 144.23 58.09 145.53 58.01 146.84 58.09 148.14 58.32 149.45 58.66 150.67 59.2 151.9 59.81 153.01 60.58 154.09 61.46 155.05 62.46 155.89 63.53 156.66 64.68 157.27 65.91 157.73 67.18 158.08 68.48 158.27 69.78 158.31 71.09 158.19 72.36 157.92 73.62 157.54 74.81 157 75.92 156.31 76.96 155.54 77.88 154.62 78.72 153.63 79.45 152.51 80.03 151.32 80.45 150.1 80.75 148.83 81.87 148.83 81.98 147.49 81.98 146.19 81.87 144.84 80.75 144.84"/><circle class="cls-8" cx="69.48" cy="146.84" r="7.48" transform="translate(-16.34 8.91) rotate(-6.57)"/><polyline class="cls-8" points="64.76 149.75 64.42 149.79 64.15 149.98 63.95 150.25 63.84 150.56 63.88 150.87 63.99 151.17 64.22 151.4 64.53 151.56 64.84 151.56 65.18 151.48 65.41 151.25 65.6 150.98 65.64 150.67"/><polyline class="cls-8" points="65.64 143 65.6 142.7 65.41 142.43 65.18 142.2 64.84 142.12 64.53 142.12 64.22 142.27 63.99 142.5 63.88 142.81 63.84 143.12 63.95 143.43 64.15 143.69 64.42 143.88 64.76 143.92"/><polyline class="cls-8" points="73.31 150.67 73.35 150.98 73.54 151.25 73.77 151.48 74.12 151.56 74.43 151.56 74.73 151.4 74.96 151.17 75.08 150.87 75.12 150.56 75 150.25 74.81 149.98 74.54 149.79 74.2 149.75"/><polyline class="cls-8" points="74.2 143.92 74.54 143.88 74.81 143.69 75 143.43 75.12 143.12 75.08 142.81 74.96 142.5 74.73 142.27 74.43 142.12 74.12 142.12 73.77 142.2 73.54 142.43 73.35 142.7 73.31 143"/><line class="cls-8" x1="65.64" y1="150.67" x2="65.11" y2="150.67"/><line class="cls-8" x1="64.76" y1="143.92" x2="64.76" y2="143.39"/><line class="cls-8" x1="65.11" y1="143" x2="65.64" y2="143"/><line class="cls-8" x1="73.31" y1="150.67" x2="73.85" y2="150.67"/><line class="cls-8" x1="74.2" y1="150.29" x2="74.2" y2="149.75"/><line class="cls-8" x1="74.2" y1="143.92" x2="74.2" y2="143.39"/><polyline class="cls-20" points="65.64 150.67 73.31 150.67 73.85 150.67 74.2 150.29 74.2 149.75 74.2 143.92 74.2 143.39 73.85 143 73.31 143 65.64 143 65.11 143 64.76 143.39 64.76 143.92 64.76 149.75 64.76 150.29 65.11 150.67"/><line class="cls-8" x1="77.84" y1="147.91" x2="80.22" y2="147.91"/><line class="cls-8" x1="80.22" y1="147.91" x2="80.22" y2="145.76"/><line class="cls-8" x1="80.22" y1="145.76" x2="77.84" y2="145.76"/><polyline class="cls-8" points="77.84 145.76 77.65 144.65 77.3 143.62 76.8 142.62 76.19 141.7 75.46 140.85 74.62 140.13 73.7 139.51 72.7 139.05 71.66 138.67 70.59 138.48 69.48 138.4 68.37 138.48 67.29 138.67 66.26 139.05 65.26 139.51 64.34 140.13 63.49 140.85 62.77 141.7 62.15 142.62 61.69 143.62 61.31 144.65 61.12 145.73 61.04 146.84 61.12 147.95 61.31 149.02 61.69 150.06 62.15 151.06 62.77 151.98 63.49 152.82 64.34 153.55 65.26 154.16 66.26 154.62 67.29 155.01 68.37 155.2 69.48 155.28 70.59 155.2 71.66 155.01 72.7 154.62 73.7 154.16 74.62 153.55 75.46 152.82 76.19 151.98 76.8 151.06 77.3 150.06 77.65 149.02 77.84 147.91"/><line class="cls-8" x1="66.75" y1="148.64" x2="66.75" y2="145.04"/><line class="cls-8" x1="66.75" y1="145.04" x2="68.56" y2="145.04"/><line class="cls-8" x1="68.56" y1="145.04" x2="68.56" y2="148.64"/><line class="cls-8" x1="68.56" y1="148.64" x2="66.75" y2="148.64"/><line class="cls-8" x1="70.4" y1="148.64" x2="70.4" y2="145.04"/><line class="cls-8" x1="70.4" y1="145.04" x2="72.2" y2="145.04"/><line class="cls-8" x1="72.2" y1="145.04" x2="72.2" y2="148.64"/><line class="cls-8" x1="72.2" y1="148.64" x2="70.4" y2="148.64"/><rect class="cls-21" x="31.24" y="1.09" width="76.48" height="18.22"/><rect class="cls-22" x="67.68" y="104.07" width="3.61" height="3.64"/><path class="cls-8" d="M68.4,107.33a.34.34,0,0,1-.34-.34.35.35,0,0,1,.34-.35.35.35,0,0,1,.35.35A.35.35,0,0,1,68.4,107.33Z"/><rect class="cls-23" x="100.39" y="172.19" width="4.45" height="4.45"/><path class="cls-8" d="M102.62,175.41a1,1,0,1,1,0-2,1,1,0,0,1,0,2Z"/><line class="cls-8" x1="103.46" y1="174.95" x2="103.69" y2="175.18"/><line class="cls-8" x1="103.69" y1="175.18" x2="103.42" y2="175.45"/><line class="cls-8" x1="103.42" y1="175.45" x2="103.19" y2="175.22"/><line class="cls-8" x1="43.36" y1="58.13" x2="42.48" y2="58.13"/><line class="cls-8" x1="42.48" y1="58.13" x2="41.75" y2="58.13"/><polyline class="cls-9" points="43.36 58.13 43.36 60.31 42.48 60.31 42.48 58.13"/><polyline class="cls-24" points="43.36 58.13 53.33 58.13 53.33 53.52 41.75 53.52 41.75 58.13"/><polyline class="cls-9" points="45.66 58.13 45.66 60.31 44.78 60.31 44.78 58.13"/><polyline class="cls-9" points="47.96 58.13 47.96 60.31 47.12 60.31 47.12 58.13"/><polyline class="cls-9" points="50.3 58.13 50.3 60.31 49.42 60.31 49.42 58.13"/><polyline class="cls-9" points="52.6 58.13 52.6 60.31 51.72 60.31 51.72 58.13"/><polyline class="cls-9" points="51.72 53.52 51.72 51.34 52.6 51.34 52.6 53.52"/><polyline class="cls-9" points="49.42 53.52 49.42 51.34 50.3 51.34 50.3 53.52"/><polyline class="cls-9" points="47.12 53.52 47.12 51.34 47.96 51.34 47.96 53.52"/><polyline class="cls-9" points="44.78 53.52 44.78 51.34 45.66 51.34 45.66 53.52"/><polyline class="cls-9" points="42.48 53.52 42.48 51.34 43.36 51.34 43.36 53.52"/><circle class="cls-8" cx="42.9" cy="56.97" r="0.42"/><circle class="cls-8" cx="42.9" cy="54.67" r="0.42"/><circle class="cls-8" cx="45.24" cy="56.97" r="0.42"/><circle class="cls-8" cx="45.24" cy="54.67" r="0.42"/><circle class="cls-8" cx="47.54" cy="56.97" r="0.42"/><circle class="cls-8" cx="47.54" cy="54.67" r="0.42"/><circle class="cls-8" cx="49.84" cy="54.67" r="0.42"/><circle class="cls-8" cx="49.84" cy="56.97" r="0.42"/><path class="cls-8" d="M52.18,57.4A.43.43,0,1,1,52.6,57,.42.42,0,0,1,52.18,57.4Z"/><path class="cls-8" d="M52.18,55.1a.43.43,0,1,1,.42-.43A.42.42,0,0,1,52.18,55.1Z"/><polyline class="cls-25" points="8.04 91.22 29.32 91.22 29.32 72.13 8.04 72.13"/><path class="cls-8" d="M9,90.69a.54.54,0,1,1,.53-.54A.54.54,0,0,1,9,90.69Z"/><rect class="cls-26" x="1.13" y="72.12" width="6.9" height="19.1"/><rect class="cls-27" x="58.55" y="68.56" width="21.86" height="21.86"/><rect class="cls-28" x="59.28" y="69.29" width="20.4" height="20.4"/><circle class="cls-8" cx="74.12" cy="86.43" r="1.46"/><rect class="cls-29" x="35" y="145.65" width="5.45" height="5.48"/><path class="cls-8" d="M35.88,150.56a.35.35,0,0,1-.35-.35.35.35,0,0,1,.7,0A.35.35,0,0,1,35.88,150.56Z"/><rect class="cls-30" x="33.89" y="261.17" width="5.48" height="3.64"/><path class="cls-8" d="M34.81,264.35a.45.45,0,0,1-.46-.46.46.46,0,0,1,.46-.46.47.47,0,0,1,.46.46A.46.46,0,0,1,34.81,264.35Z"/><polygon class="cls-31" points="45.28 279.81 45.28 280.54 41.1 280.54 40.18 280.54 40.18 279.81 40.18 278.01 40.18 277.28 41.1 277.28 45.28 277.28 45.28 278.01 45.28 279.81"/><line class="cls-8" x1="41.1" y1="280.54" x2="41.1" y2="277.28"/><polyline class="cls-9" points="45.28 278.01 46.01 278.01 46.01 279.81 45.28 279.81"/><polyline class="cls-9" points="40.18 278.01 39.45 278.01 39.45 279.81 40.18 279.81"/><polygon class="cls-32" points="37.64 257.99 33.39 257.99 31.97 256.57 31.97 252.31 33.39 250.89 37.64 250.89 39.06 252.31 39.06 256.57 37.64 257.99"/><path class="cls-8" d="M37.91,255a.54.54,0,1,1,.54-.54A.54.54,0,0,1,37.91,255Z"/><line class="cls-8" x1="33.54" y1="88.23" x2="33.54" y2="85.32"/><line class="cls-8" x1="33.54" y1="85.32" x2="31.7" y2="85.32"/><line class="cls-8" x1="31.7" y1="85.32" x2="31.7" y2="88.23"/><line class="cls-8" x1="31.7" y1="88.23" x2="33.54" y2="88.23"/><rect class="cls-33" x="100.43" y="178.33" width="3.64" height="3.64"/><path class="cls-8" d="M103.34,179.4a.35.35,0,0,1,0-.69.35.35,0,1,1,0,.69Z"/><line class="cls-8" x1="77.69" y1="120.76" x2="77.69" y2="120.03"/><line class="cls-8" x1="77.69" y1="120.03" x2="77.69" y2="119.49"/><polygon class="cls-34" points="77.69 122.48 77.69 123.52 77.69 124.25 77.69 124.78 80.6 124.78 80.6 119.49 77.69 119.49 77.69 120.76 77.69 121.75 77.69 122.48"/><line class="cls-8" x1="80.6" y1="119.49" x2="80.6" y2="120.03"/><path class="cls-8" d="M79.87,124.4a.34.34,0,0,1-.34-.34.35.35,0,0,1,.34-.35.35.35,0,0,1,.35.35A.35.35,0,0,1,79.87,124.4Z"/><line class="cls-8" x1="80.6" y1="120.03" x2="80.6" y2="120.76"/><line class="cls-8" x1="80.6" y1="120.76" x2="80.6" y2="121.75"/><line class="cls-8" x1="80.6" y1="121.75" x2="80.6" y2="122.48"/><line class="cls-8" x1="80.6" y1="122.48" x2="80.6" y2="123.52"/><line class="cls-8" x1="80.6" y1="123.52" x2="80.6" y2="124.25"/><line class="cls-8" x1="80.6" y1="124.25" x2="80.6" y2="124.78"/><polyline class="cls-9" points="80.6 123.52 81.67 123.52 81.67 124.25 80.6 124.25"/><polyline class="cls-9" points="80.6 122.48 81.67 122.48 81.67 121.75 80.6 121.75"/><polyline class="cls-9" points="80.6 120.76 81.67 120.76 81.67 120.03 80.6 120.03"/><polyline class="cls-9" points="77.69 120.03 76.61 120.03 76.61 120.76 77.69 120.76"/><polyline class="cls-9" points="77.69 123.52 76.61 123.52 76.61 124.25 77.69 124.25"/><polyline class="cls-9" points="77.69 121.75 76.61 121.75 76.61 122.48 77.69 122.48"/><polygon class="cls-35" points="83.32 103.88 83.32 105.15 83.32 106.61 83.32 107.06 83.32 107.87 83.32 108.45 81.94 108.45 77.49 108.45 77.49 107.87 77.49 106.61 77.49 105.15 77.49 103.88 77.49 103.34 83.32 103.34 83.32 103.88"/><line class="cls-8" x1="77.49" y1="105.15" x2="77.11" y2="105.15"/><line class="cls-8" x1="77.11" y1="105.15" x2="77.11" y2="103.88"/><line class="cls-8" x1="77.11" y1="103.88" x2="77.49" y2="103.88"/><line class="cls-8" x1="77.49" y1="107.87" x2="77.11" y2="107.87"/><line class="cls-8" x1="77.11" y1="107.87" x2="77.11" y2="106.6"/><line class="cls-8" x1="77.11" y1="106.6" x2="77.49" y2="106.6"/><line class="cls-8" x1="83.32" y1="106.6" x2="83.67" y2="106.6"/><line class="cls-8" x1="83.67" y1="106.6" x2="83.67" y2="107.87"/><line class="cls-8" x1="83.67" y1="107.87" x2="83.32" y2="107.87"/><line class="cls-8" x1="83.32" y1="103.88" x2="83.67" y2="103.88"/><line class="cls-8" x1="83.67" y1="103.88" x2="83.67" y2="105.15"/><line class="cls-8" x1="83.67" y1="105.15" x2="83.32" y2="105.15"/><line class="cls-8" x1="83.32" y1="107.07" x2="81.94" y2="108.45"/><circle class="cls-36" cx="80.41" cy="105.88" r="2.19" transform="matrix(0.16, -0.99, 0.99, 0.16, -37.11, 168.05)"/><polygon class="cls-37" points="61.46 103.88 61.46 105.15 61.46 106.61 61.46 107.06 61.46 107.87 61.46 108.45 60.12 108.45 55.63 108.45 55.63 107.87 55.63 106.61 55.63 105.15 55.63 103.88 55.63 103.34 61.46 103.34 61.46 103.88"/><line class="cls-8" x1="55.63" y1="105.15" x2="55.29" y2="105.15"/><line class="cls-8" x1="55.29" y1="105.15" x2="55.29" y2="103.88"/><line class="cls-8" x1="55.29" y1="103.88" x2="55.63" y2="103.88"/><line class="cls-8" x1="55.63" y1="107.87" x2="55.29" y2="107.87"/><line class="cls-8" x1="55.29" y1="107.87" x2="55.29" y2="106.6"/><line class="cls-8" x1="55.29" y1="106.6" x2="55.63" y2="106.6"/><line class="cls-8" x1="61.46" y1="106.6" x2="61.85" y2="106.6"/><line class="cls-8" x1="61.85" y1="106.6" x2="61.85" y2="107.87"/><line class="cls-8" x1="61.85" y1="107.87" x2="61.46" y2="107.87"/><line class="cls-8" x1="61.46" y1="103.88" x2="61.85" y2="103.88"/><line class="cls-8" x1="61.85" y1="103.88" x2="61.85" y2="105.15"/><line class="cls-8" x1="61.85" y1="105.15" x2="61.46" y2="105.15"/><line class="cls-8" x1="61.46" y1="107.07" x2="60.12" y2="108.45"/><circle class="cls-36" cx="58.55" cy="105.88" r="2.19"/><rect class="cls-38" x="89.42" y="34.35" width="2.72" height="3.64"/><path class="cls-8" d="M90.27,37.45a.35.35,0,0,1-.35-.34.35.35,0,0,1,.35-.35.35.35,0,0,1,.34.35A.34.34,0,0,1,90.27,37.45Z"/><polygon class="cls-39" points="102.96 253.04 102.27 253.04 100.66 253.04 99.97 253.04 98.36 253.04 97.63 253.04 96.02 253.04 95.33 253.04 94.68 253.04 94.68 245.94 95.33 245.94 96.02 245.94 97.63 245.94 98.36 245.94 99.97 245.94 100.66 245.94 102.27 245.94 102.96 245.94 103.61 245.94 103.61 253.04 102.96 253.04"/><polyline class="cls-9" points="102.27 245.94 102.27 244.06 102.96 244.06 102.96 245.94"/><polyline class="cls-9" points="99.97 245.94 99.97 244.06 100.66 244.06 100.66 245.94"/><polyline class="cls-9" points="97.63 245.94 97.63 244.06 98.36 244.06 98.36 245.94"/><polyline class="cls-9" points="95.33 245.94 95.33 244.06 96.02 244.06 96.02 245.94"/><polyline class="cls-9" points="96.02 253.04 96.02 254.96 95.33 254.96 95.33 253.04"/><line class="cls-9" x1="97.63" y1="254.96" x2="98.36" y2="254.96"/><polyline class="cls-9" points="98.36 254.96 98.36 253.04 97.63 253.04 97.63 254.96"/><polyline class="cls-9" points="100.66 253.04 100.66 254.96 99.97 254.96 99.97 253.04"/><polyline class="cls-9" points="102.96 253.04 102.96 254.96 102.27 254.96 102.27 253.04"/><path class="cls-8" d="M102.23,247.86a.54.54,0,1,1,.54-.53A.53.53,0,0,1,102.23,247.86Z"/><line class="cls-8" x1="104.42" y1="264.7" x2="100.77" y2="264.7"/><line class="cls-8" x1="100.77" y1="264.7" x2="100.77" y2="262.36"/><line class="cls-8" x1="100.77" y1="262.36" x2="104.42" y2="262.36"/><line class="cls-8" x1="104.42" y1="262.36" x2="104.42" y2="264.7"/><line class="cls-8" x1="97.51" y1="264.7" x2="93.87" y2="264.7"/><line class="cls-8" x1="93.87" y1="264.7" x2="93.87" y2="262.36"/><line class="cls-8" x1="93.87" y1="262.36" x2="97.51" y2="262.36"/><line class="cls-8" x1="97.51" y1="262.36" x2="97.51" y2="264.7"/><line class="cls-8" x1="91.61" y1="77.65" x2="92.15" y2="77.65"/><line class="cls-8" x1="92.15" y1="77.65" x2="92.87" y2="77.65"/><line class="cls-8" x1="92.87" y1="77.65" x2="93.87" y2="77.65"/><line class="cls-8" x1="93.87" y1="77.65" x2="94.6" y2="77.65"/><line class="cls-8" x1="94.6" y1="77.65" x2="95.6" y2="77.65"/><line class="cls-8" x1="95.6" y1="77.65" x2="96.33" y2="77.65"/><line class="cls-8" x1="96.33" y1="77.65" x2="96.86" y2="77.65"/><polyline class="cls-40" points="96.86 80.56 96.86 77.65 91.61 77.65 91.61 80.56"/><line class="cls-8" x1="96.86" y1="80.56" x2="96.33" y2="80.56"/><path class="cls-8" d="M92.34,80.18a.35.35,0,0,1-.35-.35.35.35,0,0,1,.35-.34.34.34,0,0,1,.34.34A.35.35,0,0,1,92.34,80.18Z"/><line class="cls-8" x1="96.33" y1="80.56" x2="95.6" y2="80.56"/><line class="cls-8" x1="95.6" y1="80.56" x2="94.6" y2="80.56"/><line class="cls-8" x1="94.6" y1="80.56" x2="93.87" y2="80.56"/><line class="cls-8" x1="93.87" y1="80.56" x2="92.87" y2="80.56"/><line class="cls-8" x1="92.87" y1="80.56" x2="92.15" y2="80.56"/><line class="cls-8" x1="92.15" y1="80.56" x2="91.61" y2="80.56"/><polyline class="cls-9" points="92.87 80.56 92.87 81.67 92.14 81.67 92.14 80.56"/><polyline class="cls-9" points="93.87 80.56 93.87 81.67 94.6 81.67 94.6 80.56"/><polyline class="cls-9" points="95.6 80.56 95.6 81.67 96.33 81.67 96.33 80.56"/><polyline class="cls-9" points="96.33 77.65 96.33 76.57 95.6 76.57 95.6 77.65"/><polyline class="cls-9" points="92.87 77.65 92.87 76.57 92.14 76.57 92.14 77.65"/><polyline class="cls-9" points="94.6 77.65 94.6 76.57 93.87 76.57 93.87 77.65"/><line class="cls-8" x1="107.6" y1="77.3" x2="107.6" y2="80.95"/><line class="cls-8" x1="107.6" y1="80.95" x2="105.8" y2="80.95"/><line class="cls-8" x1="105.8" y1="80.95" x2="105.8" y2="77.3"/><line class="cls-8" x1="105.8" y1="77.3" x2="107.6" y2="77.3"/><line class="cls-8" x1="112.24" y1="77.3" x2="112.24" y2="80.95"/><line class="cls-8" x1="112.24" y1="80.95" x2="110.44" y2="80.95"/><line class="cls-8" x1="110.44" y1="80.95" x2="110.44" y2="77.3"/><line class="cls-8" x1="110.44" y1="77.3" x2="112.24" y2="77.3"/><line class="cls-8" x1="122.44" y1="77.3" x2="122.44" y2="80.95"/><line class="cls-8" x1="122.44" y1="80.95" x2="120.64" y2="80.95"/><line class="cls-8" x1="120.64" y1="80.95" x2="120.64" y2="77.3"/><line class="cls-8" x1="120.64" y1="77.3" x2="122.44" y2="77.3"/><path class="cls-8" d="M109.71,102.58a.54.54,0,1,1,.54-.54A.54.54,0,0,1,109.71,102.58Z"/><rect class="cls-41" x="102.27" y="81.71" width="21.79" height="29.95"/><rect class="cls-42" x="108.6" y="92.22" width="9.13" height="10.93"/><rect class="cls-43" x="91.22" y="41.98" width="32.22" height="28.77"/><circle class="cls-8" cx="93.68" cy="68.21" r="0.92"/><line class="cls-8" x1="112.24" y1="80.95" x2="112.24" y2="77.3"/><line class="cls-8" x1="107.6" y1="80.95" x2="107.6" y2="77.3"/><line class="cls-8" x1="105.8" y1="77.3" x2="105.8" y2="80.95"/><line class="cls-8" x1="120.64" y1="77.3" x2="120.64" y2="80.95"/><rect class="cls-14" x="81.67" y="68.56" width="7.82" height="2.3"/><rect class="cls-3" x="81.67" y="68.56" width="7.82" height="2.3"/><line class="cls-8" x1="89.5" y1="68.56" x2="81.67" y2="68.56"/><line class="cls-8" x1="81.67" y1="68.56" x2="81.67" y2="81.87"/><line class="cls-8" x1="81.67" y1="81.87" x2="89.5" y2="81.87"/><line class="cls-8" x1="89.5" y1="81.87" x2="89.5" y2="68.56"/><line class="cls-8" x1="88.04" y1="102.62" x2="88.04" y2="110.59"/><polyline class="cls-44" points="88.04 102.62 97.13 102.62 97.13 110.59 88.04 110.59"/><circle class="cls-8" cx="96.13" cy="103.77" r="0.54"/><polyline class="cls-45" points="85.36 91.22 85.36 93.6 89.27 93.6 89.27 91.22"/><polyline class="cls-9" points="88.27 91.22 88.27 90.5 88.73 90.5 88.73 91.22"/><path class="cls-8" d="M88.5,92.3a.35.35,0,0,1-.34-.35.34.34,0,0,1,.34-.34.35.35,0,0,1,.35.34A.35.35,0,0,1,88.5,92.3Z"/><polyline class="cls-9" points="87.08 91.22 87.08 90.5 87.54 90.5 87.54 91.22"/><polyline class="cls-9" points="85.89 91.22 85.89 90.5 86.35 90.5 86.35 91.22"/><polyline class="cls-9" points="88.73 93.6 88.73 94.33 88.27 94.33 88.27 93.6"/><polyline class="cls-9" points="87.54 93.6 87.54 94.33 87.08 94.33 87.08 93.6"/><polyline class="cls-9" points="86.35 93.6 86.35 94.33 85.89 94.33 85.89 93.6"/><line class="cls-8" x1="89.27" y1="91.22" x2="88.73" y2="91.22"/><line class="cls-8" x1="88.73" y1="91.22" x2="88.27" y2="91.22"/><line class="cls-8" x1="88.27" y1="91.22" x2="87.54" y2="91.22"/><line class="cls-8" x1="87.54" y1="91.22" x2="87.08" y2="91.22"/><line class="cls-8" x1="87.08" y1="91.22" x2="86.35" y2="91.22"/><line class="cls-8" x1="86.35" y1="91.22" x2="85.89" y2="91.22"/><line class="cls-8" x1="85.89" y1="91.22" x2="85.36" y2="91.22"/><line class="cls-9" x1="89.27" y1="93.6" x2="88.73" y2="93.6"/><line class="cls-9" x1="88.73" y1="93.6" x2="88.27" y2="93.6"/><line class="cls-9" x1="88.27" y1="93.6" x2="87.54" y2="93.6"/><line class="cls-9" x1="87.54" y1="93.6" x2="87.08" y2="93.6"/><line class="cls-9" x1="87.08" y1="93.6" x2="86.35" y2="93.6"/><line class="cls-9" x1="86.35" y1="93.6" x2="85.89" y2="93.6"/><line class="cls-9" x1="85.89" y1="93.6" x2="85.36" y2="93.6"/><path class="cls-8" d="M103.15,171.08a.35.35,0,0,1-.34-.35.34.34,0,0,1,.34-.34.35.35,0,0,1,.35.34A.35.35,0,0,1,103.15,171.08Z"/><line class="cls-8" x1="103.84" y1="171.42" x2="103.84" y2="170.96"/><line class="cls-8" x1="103.84" y1="170.96" x2="103.84" y2="170.58"/><line class="cls-8" x1="103.84" y1="170.58" x2="103.84" y2="169.77"/><line class="cls-8" x1="103.84" y1="169.77" x2="103.84" y2="169.43"/><line class="cls-8" x1="103.84" y1="169.43" x2="103.84" y2="168.58"/><line class="cls-8" x1="103.84" y1="168.58" x2="103.84" y2="168.24"/><line class="cls-8" x1="103.84" y1="168.24" x2="103.84" y2="167.78"/><line class="cls-8" x1="101.54" y1="167.78" x2="101.54" y2="168.24"/><line class="cls-8" x1="101.54" y1="168.24" x2="101.54" y2="168.58"/><line class="cls-8" x1="101.54" y1="168.58" x2="101.54" y2="169.43"/><line class="cls-8" x1="101.54" y1="169.43" x2="101.54" y2="169.77"/><line class="cls-8" x1="101.54" y1="169.77" x2="101.54" y2="170.58"/><line class="cls-8" x1="101.54" y1="170.58" x2="101.54" y2="170.96"/><line class="cls-8" x1="101.54" y1="170.96" x2="101.54" y2="171.42"/><polyline class="cls-46" points="103.84 171.42 101.54 171.42 101.54 167.78 103.84 167.78"/><polyline class="cls-9" points="103.84 170.58 104.53 170.58 104.53 170.96 103.84 170.96"/><polyline class="cls-9" points="103.84 169.43 104.53 169.43 104.53 169.77 103.84 169.77"/><polyline class="cls-9" points="103.84 168.24 104.53 168.24 104.53 168.59 103.84 168.59"/><polyline class="cls-9" points="101.54 168.59 100.89 168.59 100.89 168.24 101.54 168.24"/><polyline class="cls-9" points="101.54 169.77 100.89 169.77 100.89 169.43 101.54 169.43"/><polyline class="cls-9" points="101.54 170.96 100.89 170.96 100.89 170.58 101.54 170.58"/><polygon class="cls-47" points="25.98 260.06 25.26 260.06 25.26 255.88 25.26 254.96 25.98 254.96 27.79 254.96 28.52 254.96 28.52 255.88 28.52 260.06 27.79 260.06 25.98 260.06"/><line class="cls-8" x1="25.26" y1="255.88" x2="28.52" y2="255.88"/><polyline class="cls-9" points="27.79 260.06 27.79 260.79 25.98 260.79 25.98 260.06"/><polyline class="cls-9" points="27.79 254.96 27.79 254.23 25.98 254.23 25.98 254.96"/><polygon class="cls-48" points="41.52 145.46 40.79 145.46 40.79 141.28 40.79 140.4 41.52 140.4 43.36 140.4 44.09 140.4 44.09 141.28 44.09 145.46 43.36 145.46 41.52 145.46"/><line class="cls-8" x1="40.79" y1="141.28" x2="44.09" y2="141.28"/><polyline class="cls-9" points="43.36 145.46 43.36 146.19 41.52 146.19 41.52 145.46"/><polyline class="cls-9" points="43.36 140.4 43.36 139.67 41.52 139.67 41.52 140.4"/><rect class="cls-14" x="24.87" y="172.42" width="7.82" height="2.3"/><rect class="cls-3" x="24.87" y="172.42" width="7.82" height="2.3"/><line class="cls-8" x1="24.87" y1="174.68" x2="32.7" y2="174.68"/><line class="cls-8" x1="32.7" y1="174.68" x2="32.7" y2="161.41"/><line class="cls-8" x1="32.7" y1="161.41" x2="24.87" y2="161.41"/><line class="cls-8" x1="24.87" y1="161.41" x2="24.87" y2="174.68"/><line class="cls-8" x1="55.63" y1="274.83" x2="64.03" y2="274.83"/><line class="cls-8" x1="64.03" y1="274.83" x2="64.03" y2="267.88"/><line class="cls-8" x1="64.03" y1="267.88" x2="55.63" y2="267.88"/><line class="cls-8" x1="55.63" y1="267.88" x2="55.63" y2="274.83"/><rect class="cls-49" x="36.15" y="171.23" width="3.64" height="3.64"/><path class="cls-8" d="M39.06,172.31a.35.35,0,0,1,0-.7.35.35,0,1,1,0,.7Z"/><polyline class="cls-9" points="10.49 185.81 10.8 185.73 11.1 185.61 11.29 185.38 11.45 185.12 11.49 184.81 29.97 184.81 30.01 185.12 30.16 185.38 30.39 185.61 30.66 185.73 30.97 185.81"/><polyline class="cls-50" points="8.88 192.17 8.88 186.15 8.92 185.96 9.03 185.84 9.22 185.81 10.49 185.81 30.97 185.81 32.16 185.81 32.35 185.84 32.47 185.96 32.54 186.15 32.54 192.17"/><polyline class="cls-51" points="12.33 239.5 12.64 239.54 12.91 239.69 13.14 239.92 13.29 240.19 13.33 240.5 13.33 245.87 32.54 245.87 32.54 239.5"/><line class="cls-8" x1="29.94" y1="190.33" x2="30.66" y2="191.44"/><line class="cls-8" x1="30.66" y1="191.44" x2="29.21" y2="191.44"/><line class="cls-8" x1="29.21" y1="191.44" x2="29.94" y2="190.33"/><line class="cls-8" x1="34.35" y1="192.17" x2="34.35" y2="239.5"/><line class="cls-8" x1="7.04" y1="192.17" x2="7.04" y2="239.5"/><line class="cls-8" x1="2.78" y1="196.43" x2="38.64" y2="196.43"/><line class="cls-8" x1="2.78" y1="235.21" x2="38.64" y2="235.21"/><line class="cls-8" x1="8.88" y1="197.35" x2="32.54" y2="197.35"/><line class="cls-8" x1="8.88" y1="222.86" x2="32.54" y2="222.86"/><polygon class="cls-52" points="2.78 238.58 2.78 235.21 2.78 196.43 2.78 193.09 2.82 192.79 2.93 192.56 3.13 192.33 3.39 192.21 3.66 192.17 8.88 192.17 32.54 192.17 37.72 192.17 37.99 192.21 38.26 192.33 38.45 192.56 38.56 192.79 38.64 193.09 38.64 196.43 38.64 235.21 38.64 238.58 38.56 238.85 38.45 239.12 38.26 239.31 37.99 239.46 37.72 239.5 32.54 239.5 12.33 239.5 3.66 239.5 3.39 239.46 3.13 239.31 2.93 239.12 2.82 238.85 2.78 238.58"/><polyline class="cls-53" points="8.88 197.35 8.57 197.39 8.34 197.54 8.11 197.73 8 198 7.96 198.27 7.96 221.94 8 222.2 8.11 222.47 8.34 222.66 8.57 222.78 8.88 222.86 32.54 222.86 32.81 222.78 33.04 222.66 33.27 222.47 33.39 222.2 33.42 221.94 33.42 198.27 33.39 198 33.27 197.73 33.04 197.54 32.81 197.39 32.54 197.35"/><line class="cls-8" x1="18.89" y1="193.25" x2="22.53" y2="193.25"/><polyline class="cls-8" points="23.61 194.36 23.57 194.01 23.41 193.71 23.15 193.48 22.84 193.32 22.53 193.25"/><polyline class="cls-8" points="22.53 195.43 22.84 195.39 23.15 195.24 23.41 195.01 23.57 194.7 23.61 194.36"/><line class="cls-8" x1="22.53" y1="195.43" x2="18.89" y2="195.43"/><polyline class="cls-8" points="17.78 194.36 17.85 194.7 18.01 195.01 18.24 195.24 18.54 195.39 18.89 195.43"/><polyline class="cls-8" points="18.89 193.25 18.54 193.32 18.24 193.48 18.01 193.71 17.85 194.01 17.78 194.36"/><line class="cls-8" x1="18.89" y1="236.2" x2="22.53" y2="236.2"/><polyline class="cls-8" points="23.61 237.31 23.57 236.97 23.41 236.66 23.15 236.43 22.84 236.28 22.53 236.2"/><polyline class="cls-8" points="22.53 238.39 22.84 238.35 23.15 238.2 23.41 237.97 23.57 237.66 23.61 237.31"/><line class="cls-8" x1="22.53" y1="238.39" x2="18.89" y2="238.39"/><polyline class="cls-8" points="17.78 237.31 17.85 237.66 18.01 237.97 18.24 238.2 18.54 238.35 18.89 238.39"/><polyline class="cls-8" points="18.89 236.2 18.54 236.28 18.24 236.43 18.01 236.66 17.85 236.97 17.78 237.31"/><rect class="cls-54" x="129.19" y="224.2" width="5.45" height="9.13"/><path class="cls-8" d="M130.61,225.81a.47.47,0,0,1-.46-.46.46.46,0,0,1,.46-.46.45.45,0,0,1,.46.46A.46.46,0,0,1,130.61,225.81Z"/><polyline class="cls-8" points="129.58 232.6 129.66 232.75 129.77 232.87 129.92 232.9"/><polyline class="cls-8" points="133.91 232.9 134.07 232.87 134.18 232.75 134.22 232.6"/><polyline class="cls-55" points="129.92 224.62 133.91 224.62 134.22 224.93 134.22 232.6 133.91 232.9 129.92 232.9 129.58 232.6 129.58 224.93"/><polyline class="cls-8" points="129.92 224.62 129.77 224.66 129.66 224.77 129.58 224.93"/><polyline class="cls-8" points="134.22 224.93 134.18 224.77 134.07 224.66 133.91 224.62"/><circle class="cls-8" cx="131.92" cy="230.45" r="1.07"/><line class="cls-8" x1="40.02" y1="134.45" x2="48.42" y2="134.45"/><line class="cls-8" x1="48.42" y1="134.45" x2="48.42" y2="127.55"/><line class="cls-8" x1="48.42" y1="127.55" x2="40.02" y2="127.55"/><line class="cls-8" x1="40.02" y1="127.55" x2="40.02" y2="134.45"/><rect class="cls-14" x="40.6" y="127.55" width="0.69" height="6.9"/><rect class="cls-3" x="40.6" y="127.55" width="0.69" height="6.9"/><line class="cls-8" x1="93.95" y1="131.07" x2="93.95" y2="139.47"/><line class="cls-8" x1="93.95" y1="139.47" x2="100.89" y2="139.47"/><line class="cls-8" x1="100.89" y1="139.47" x2="100.89" y2="131.07"/><line class="cls-8" x1="100.89" y1="131.07" x2="93.95" y2="131.07"/><rect class="cls-14" x="93.99" y="131.65" width="6.9" height="0.69"/><rect class="cls-3" x="93.99" y="131.65" width="6.9" height="0.69"/><path class="cls-8" d="M46.89,116.5a.54.54,0,1,1,.53-.54A.54.54,0,0,1,46.89,116.5Z"/><line class="cls-8" x1="51.26" y1="120.34" x2="51.26" y2="114.89"/><polyline class="cls-56" points="45.81 114.89 51.26 114.89 51.26 120.34 45.81 120.34"/><line class="cls-8" x1="45.81" y1="114.89" x2="45.81" y2="115.54"/><line class="cls-8" x1="45.81" y1="115.54" x2="45.81" y2="116.15"/><line class="cls-8" x1="45.81" y1="116.15" x2="45.81" y2="120.34"/><polyline class="cls-9" points="45.81 116.16 44.09 116.16 44.09 115.54 45.81 115.54"/><polyline class="cls-9" points="45.81 117.34 44.09 117.34 44.09 116.69 45.81 116.69"/><polyline class="cls-9" points="45.81 118.53 44.09 118.53 44.09 117.88 45.81 117.88"/><polyline class="cls-9" points="45.81 119.72 44.09 119.72 44.09 119.07 45.81 119.07"/><polyline class="cls-9" points="51.26 119.07 52.99 119.07 52.99 119.72 51.26 119.72"/><polyline class="cls-9" points="51.26 117.88 52.99 117.88 52.99 118.53 51.26 118.53"/><polyline class="cls-9" points="51.26 116.69 52.99 116.69 52.99 117.34 51.26 117.34"/><polyline class="cls-9" points="51.26 115.54 52.99 115.54 52.99 116.16 51.26 116.16"/><line class="cls-8" x1="33.81" y1="116.88" x2="34.35" y2="116.88"/><line class="cls-8" x1="34.35" y1="116.88" x2="35.07" y2="116.88"/><line class="cls-8" x1="35.07" y1="116.88" x2="36.07" y2="116.88"/><line class="cls-8" x1="36.07" y1="116.88" x2="36.8" y2="116.88"/><line class="cls-8" x1="36.8" y1="116.88" x2="37.8" y2="116.88"/><line class="cls-8" x1="37.8" y1="116.88" x2="38.53" y2="116.88"/><line class="cls-8" x1="38.53" y1="116.88" x2="39.06" y2="116.88"/><polyline class="cls-57" points="39.06 119.8 39.06 116.88 33.81 116.88 33.81 119.8"/><line class="cls-8" x1="39.06" y1="119.8" x2="38.53" y2="119.8"/><path class="cls-8" d="M34.54,119.42a.35.35,0,0,1,0-.7.35.35,0,0,1,0,.7Z"/><line class="cls-8" x1="38.53" y1="119.8" x2="37.8" y2="119.8"/><line class="cls-8" x1="37.8" y1="119.8" x2="36.8" y2="119.8"/><line class="cls-8" x1="36.8" y1="119.8" x2="36.07" y2="119.8"/><line class="cls-8" x1="36.07" y1="119.8" x2="35.07" y2="119.8"/><line class="cls-8" x1="35.07" y1="119.8" x2="34.35" y2="119.8"/><line class="cls-8" x1="34.35" y1="119.8" x2="33.81" y2="119.8"/><polyline class="cls-9" points="35.08 119.8 35.08 120.91 34.35 120.91 34.35 119.8"/><polyline class="cls-9" points="36.07 119.8 36.07 120.91 36.8 120.91 36.8 119.8"/><polyline class="cls-9" points="37.8 119.8 37.8 120.91 38.53 120.91 38.53 119.8"/><polyline class="cls-9" points="38.53 116.88 38.53 115.81 37.8 115.81 37.8 116.88"/><polyline class="cls-9" points="35.08 116.88 35.08 115.81 34.35 115.81 34.35 116.88"/><polyline class="cls-9" points="36.8 116.88 36.8 115.81 36.07 115.81 36.07 116.88"/></g></g></svg>