<svg xmlns="http://www.w3.org/2000/svg" xmlns:xlink="http://www.w3.org/1999/xlink" viewBox="0 0 260.6 491.24"><defs><style>.cls-1{isolation:isolate;}.cls-10,.cls-2{opacity:0.8;mix-blend-mode:multiply;}.cls-2{fill:url(#radial-gradient);}.cls-3{fill:#252532;}.cls-4{fill:#3f4051;}.cls-5{fill:#e5c720;}.cls-6{fill:#dda403;}.cls-7{fill:#e5d680;}.cls-8{fill:url(#linear-gradient);}.cls-9{fill:url(#linear-gradient-2);}.cls-11{fill:url(#linear-gradient-3);}.cls-12{fill:#f9f9f9;}.cls-13{fill:#0d0d15;}.cls-14{fill:url(#linear-gradient-4);}</style><radialGradient id="radial-gradient" cx="-317.59" cy="416.01" r="119.88" gradientTransform="translate(397.87 732.16) rotate(89.69) scale(1 0.64)" gradientUnits="userSpaceOnUse"><stop offset="0" stop-color="#989898"/><stop offset="1" stop-color="#fff"/></radialGradient><linearGradient id="linear-gradient" x1="-446.53" y1="282.33" x2="-252.96" y2="170.57" gradientTransform="translate(447.89)" gradientUnits="userSpaceOnUse"><stop offset="0" stop-color="#252532"/><stop offset="1" stop-color="#3f4051"/></linearGradient><linearGradient id="linear-gradient-2" x1="12.28" y1="276" x2="130.8" y2="207.57" gradientUnits="userSpaceOnUse"><stop offset="0" stop-color="#4d4d61"/><stop offset="1" stop-color="#252532"/></linearGradient><linearGradient id="linear-gradient-3" x1="-1502.68" y1="4903.65" x2="-1487.08" y2="4903.65" gradientTransform="matrix(0.87, 0.5, 0, 1.15, 1389.08, -4768)" xlink:href="#linear-gradient-2"/><linearGradient id="linear-gradient-4" x1="91.23" y1="219.24" x2="114.12" y2="240.06" gradientUnits="userSpaceOnUse"><stop offset="0" stop-color="#f0f0f0"/><stop offset="1" stop-color="#4e4d4d"/></linearGradient></defs><g class="cls-1"><g id="Layer_2" data-name="Layer 2"><g id="Layer_1-2" data-name="Layer 1"><ellipse class="cls-2" cx="130.3" cy="416.01" rx="75.23" ry="130.3" transform="translate(-286.41 544.06) rotate(-89.69)"/><polygon class="cls-3" points="243.94 365.85 179.62 402.92 179.62 144.06 243.94 106.98 243.94 365.85"/><polygon class="cls-4" points="39.63 36.89 103.62 0 220.66 67.57 156.66 104.46 39.63 36.89"/><polygon class="cls-3" points="156.66 104.46 220.66 67.57 243.94 106.98 179.62 144.06 156.66 104.46"/><path class="cls-5" d="M168.19,94.84,47.51,25.17,22,39.73v263l25.53,44,120.68,69.67,25.53-14.55v-263ZM189.33,397.3l-23,13.09-117-67.57-23-39.6V44.35l23-13.09,117,67.58,23,39.6Z"/><polygon class="cls-6" points="235.07 378.11 193.72 401.92 193.72 138.89 235.07 115.08 235.07 378.11"/><polygon class="cls-7" points="47.51 25.17 88.61 1.51 209.29 71.18 168.19 94.84 47.51 25.17"/><polygon class="cls-5" points="168.19 94.84 209.29 71.18 235.07 115.08 193.72 138.88 168.19 94.84"/><polygon class="cls-8" points="156.66 104.46 39.63 36.88 16.67 49.97 16.67 308.84 39.63 348.44 156.66 416.01 179.62 402.92 179.62 144.06 156.66 104.46"/><polygon class="cls-9" points="158.35 400.54 156.71 401.47 48.86 339.2 29.28 305.45 29.28 57.3 39.59 51.44 41.19 52.36 32.52 57.3 32.52 305.45 52.1 339.2 158.35 400.54"/><polygon class="cls-4" points="101.08 219.89 101.08 219.89 101.08 219.89 101.08 219.89"/><polygon class="cls-4" points="63.15 157.97 63.15 157.97 63.15 157.97 63.15 157.97 63.15 157.97 63.15 157.97"/><path class="cls-4" d="M107.71,223.72Z"/><polygon class="cls-4" points="98.75 218.19 98.75 218.19 98.75 218.19 98.75 218.19"/><path class="cls-4" d="M108.32,223.72Z"/><path class="cls-3" d="M137,334.5,83.41,303.57H60a6.12,6.12,0,0,0,.57.37L137,348.08c2.81,1.62,5.09-.1,5.09-3.85h0C142.06,340.48,139.78,336.12,137,334.5Z"/><g class="cls-10"><path class="cls-3" d="M60.53,290.36c-2.82-1.62-5.1.1-5.1,3.85h0A12.53,12.53,0,0,0,60,303.57H83.41Z"/></g><path class="cls-3" d="M137,361,83.41,330.08H60c.19.13.38.26.57.37L137,374.58c2.81,1.63,5.09-.1,5.09-3.85h0C142.06,367,139.78,362.63,137,361Z"/><g class="cls-10"><path class="cls-3" d="M60.53,316.87c-2.82-1.63-5.1.1-5.1,3.85h0A12.57,12.57,0,0,0,60,330.08H83.41Z"/></g><path class="cls-3" d="M137,308,83.41,277.06H60c.19.13.38.26.57.37L137,321.57c2.81,1.63,5.09-.1,5.09-3.85h0C142.06,314,139.78,309.61,137,308Z"/><g class="cls-10"><path class="cls-3" d="M60.53,263.85c-2.82-1.62-5.1.1-5.1,3.86h0A12.57,12.57,0,0,0,60,277.07H83.41Z"/></g><path class="cls-3" d="M137,281.48,83.41,250.56H60c.19.13.38.26.57.37L137,295.07c2.81,1.62,5.09-.1,5.09-3.86h0C142.06,287.46,139.78,283.11,137,281.48Z"/><g class="cls-10"><path class="cls-3" d="M60.53,237.35c-2.82-1.63-5.1.1-5.1,3.85h0A12.57,12.57,0,0,0,60,250.56H83.41Z"/></g><path class="cls-3" d="M137,202,83.41,171H60a6.12,6.12,0,0,0,.57.37L137,215.55c2.81,1.62,5.09-.1,5.09-3.85h0C142.06,208,139.78,203.59,137,202Z"/><g class="cls-10"><path class="cls-3" d="M60.53,157.83c-2.82-1.62-5.1.1-5.1,3.85h0A12.55,12.55,0,0,0,60,171H83.41Z"/></g><path class="cls-3" d="M76.27,113.91h0L60,118c.19.13.38.26.57.37l15.74,9.09c2.81,1.62,5.09-.1,5.09-3.85h0C81.36,119.89,79.08,115.53,76.27,113.91Z"/><g class="cls-10"><path class="cls-3" d="M60.53,104.82c-2.82-1.63-5.1.1-5.1,3.85h0A12.57,12.57,0,0,0,60,118l16.31-4.12Z"/></g><path class="cls-3" d="M76.27,140.41h0L60,144.53a6.27,6.27,0,0,0,.57.38L76.27,154c2.81,1.62,5.09-.1,5.09-3.85h0C81.36,146.39,79.08,142,76.27,140.41Z"/><g class="cls-10"><path class="cls-3" d="M60.53,131.32c-2.82-1.62-5.1.1-5.1,3.85h0A12.53,12.53,0,0,0,60,144.53l16.31-4.12Z"/></g><path class="cls-3" d="M137,149h0l-16.31,4.12c.19.14.38.26.57.38L137,162.54c2.81,1.62,5.09-.1,5.09-3.86h0C142.06,154.93,139.78,150.58,137,149Z"/><g class="cls-10"><path class="cls-3" d="M121.23,139.86c-2.82-1.62-5.1.1-5.1,3.85h0a12.5,12.5,0,0,0,4.53,9.36L137,149Z"/></g><path class="cls-3" d="M137,175.46h0l-16.31,4.12a6.12,6.12,0,0,0,.57.37L137,189c2.81,1.63,5.09-.1,5.09-3.85h0C142.06,181.44,139.78,177.08,137,175.46Z"/><g class="cls-10"><path class="cls-3" d="M121.23,166.37c-2.82-1.62-5.1.1-5.1,3.85h0a12.53,12.53,0,0,0,4.53,9.36L137,175.46Z"/></g><path class="cls-3" d="M76.27,193.48h0L60,197.6c.19.13.38.26.57.37l15.74,9.09c2.81,1.62,5.09-.1,5.09-3.85h0C81.36,199.46,79.08,195.1,76.27,193.48Z"/><g class="cls-10"><path class="cls-3" d="M60.53,184.39c-2.82-1.63-5.1.1-5.1,3.85h0A12.57,12.57,0,0,0,60,197.6l16.31-4.12Z"/></g><path class="cls-3" d="M76.27,220h0L60,224.1a6.12,6.12,0,0,0,.57.37l15.74,9.09c2.81,1.63,5.09-.1,5.09-3.85h0C81.36,226,79.08,221.61,76.27,220Z"/><g class="cls-10"><path class="cls-3" d="M60.53,210.89c-2.82-1.62-5.1.1-5.1,3.85h0A12.53,12.53,0,0,0,60,224.1L76.27,220Z"/></g><path class="cls-3" d="M137,228.52h0l-16.31,4.12a6.12,6.12,0,0,0,.57.37L137,242.1c2.81,1.63,5.09-.1,5.09-3.85h0C142.06,234.5,139.78,230.14,137,228.52Z"/><g class="cls-10"><path class="cls-3" d="M121.23,219.43c-2.82-1.62-5.1.1-5.1,3.85h0a12.5,12.5,0,0,0,4.53,9.36L137,228.52Z"/></g><path class="cls-3" d="M137,255h0l-16.31,4.12c.19.13.38.26.57.37L137,268.61c2.81,1.62,5.09-.1,5.09-3.85h0C142.06,261,139.78,256.65,137,255Z"/><g class="cls-10"><path class="cls-3" d="M121.23,245.94c-2.82-1.63-5.1.1-5.1,3.85h0a12.53,12.53,0,0,0,4.53,9.36L137,255Z"/></g><path class="cls-3" d="M137,122.45,83.41,91.52H60a6.12,6.12,0,0,0,.57.37L137,136c2.81,1.62,5.09-.1,5.09-3.85h0C142.06,128.43,139.78,124.07,137,122.45Z"/><g class="cls-10"><path class="cls-3" d="M60.53,78.31c-2.82-1.62-5.1.1-5.1,3.85h0A12.53,12.53,0,0,0,60,91.52H83.41Z"/></g><polygon class="cls-3" points="104.25 163.44 84.71 152.16 84.71 129.74 104.25 141.02 104.25 163.44"/><path class="cls-11" d="M94.48,154.56h0a14.88,14.88,0,0,1-6.76-11.65h0c0-4.29,3-6,6.76-3.86h0a14.92,14.92,0,0,1,6.76,11.66h0C101.24,155,98.21,156.71,94.48,154.56Z"/><g id="surface1"><path class="cls-12" d="M94.15,142.13v4.49l.66.38v-4.49Zm-1-.31c-1.52-.26-2.61.78-2.61,2.73a8.64,8.64,0,0,0,3.91,6.75c2.16,1.24,3.91.24,3.91-2.23a8.69,8.69,0,0,0-2.61-5.74v.8a7.25,7.25,0,0,1,2,4.56c0,2.06-1.46,2.9-3.26,1.86a7.19,7.19,0,0,1-3.26-5.63c0-1.53.81-2.38,2-2.29Z"/></g><polygon class="cls-13" points="108.59 138.08 108.59 160.5 104.25 163.44 104.25 141.03 108.59 138.08"/><path class="cls-14" d="M110.93,233.23c0-7.56-5.31-16.78-11.89-20.59-3.22-1.87-6.14-2.09-8.29-.94v0l-.1.06-.08,0-4.74,2.7,2.14.33a11.43,11.43,0,0,0-.87,4.6C87.09,227,92.41,236.19,99,240a12.86,12.86,0,0,0,3.25,1.35l.32,2.29,4.74-2.7h0C109.53,239.75,110.92,237.08,110.93,233.23Z"/><ellipse class="cls-12" cx="94.29" cy="229.02" rx="9.71" ry="16.81" transform="translate(-102.43 78.55) rotate(-30.21)"/></g></g></g></svg>