<svg xmlns="http://www.w3.org/2000/svg" xmlns:xlink="http://www.w3.org/1999/xlink" viewBox="0 0 427.17 591.89"><defs><style>.cls-1{isolation:isolate;}.cls-2{opacity:0.8;fill:url(#radial-gradient);}.cls-10,.cls-2{mix-blend-mode:multiply;}.cls-3{fill:#b3b3b3;}.cls-4{fill:#e6e6e6;}.cls-5{fill:#ccc;}.cls-6{fill:#e0341b;}.cls-7{fill:#a8190a;}.cls-8{fill:#e26558;}.cls-9{fill:url(#linear-gradient);}.cls-11{fill:#fff;}.cls-12{fill:none;stroke:#e2887f;stroke-miterlimit:10;stroke-width:0.98px;stroke-dasharray:4.3;}</style><radialGradient id="radial-gradient" cx="12913.42" cy="493.21" r="157.25" gradientTransform="matrix(-1, -0.01, 0, 0.64, 13085.87, 248.05)" gradientUnits="userSpaceOnUse"><stop offset="0" stop-color="#826a6a"/><stop offset="0.03" stop-color="#999"/><stop offset="1" stop-color="#fff"/></radialGradient><linearGradient id="linear-gradient" x1="12734.5" y1="337.53" x2="12965.69" y2="204.06" gradientTransform="matrix(-1, 0, 0, 1, 13084.35, 0)" gradientUnits="userSpaceOnUse"><stop offset="0" stop-color="#d4d4d4"/><stop offset="1" stop-color="#fff"/></linearGradient></defs><g class="cls-1"><g id="Layer_2" data-name="Layer 2"><g id="Layer_1-2" data-name="Layer 1"><ellipse class="cls-2" cx="170.92" cy="493.21" rx="170.93" ry="98.68" transform="translate(-2.67 0.93) rotate(-0.31)"/><polygon class="cls-3" points="43.01 427.41 127.37 476.04 127.37 188.97 43.01 140.34 43.01 427.41"/><polygon class="cls-4" points="311.01 48.38 227.07 0 73.55 88.64 157.49 137.02 311.01 48.38"/><polygon class="cls-5" points="157.49 137.02 73.55 88.64 43.01 140.34 127.38 188.97 157.49 137.02"/><path class="cls-6" d="M300.67,33l-158.3,91.39-33.49,57.77V474.73l33.49,19.1,158.3-91.4,33.49-57.77V52.11ZM328.4,345.25,298.28,397.2,144.76,485.84l-30.12-17.18V181.59l30.12-51.94L298.28,41,328.4,58.18Z"/><polygon class="cls-7" points="54.64 443.49 108.88 474.72 108.88 182.18 54.64 150.96 54.64 443.49"/><polygon class="cls-8" points="300.67 33.02 246.76 1.98 88.46 93.37 142.37 124.41 300.67 33.02"/><polygon class="cls-6" points="142.37 124.41 88.46 93.37 54.64 150.96 108.88 182.18 142.37 124.41"/><polygon class="cls-9" points="157.49 137.02 311.02 48.38 341.13 65.55 341.13 352.62 311.02 404.57 157.49 493.21 127.38 476.04 127.38 188.97 157.49 137.02"/><g class="cls-10"><path class="cls-5" d="M284.39,325.05c3.69-2.13,6.68.13,6.68,5.05h0c0,4.59-2.6,9.86-5.94,12.28H254.38Z"/><path class="cls-4" d="M184.11,382.94l70.27-40.56h30.75a8.6,8.6,0,0,1-.74.49L184.11,400.76c-3.68,2.13-6.68-.13-6.68-5.05h0C177.43,390.79,180.43,385.07,184.11,382.94Z"/><path class="cls-5" d="M284.39,293.07c3.69-2.13,6.68.13,6.68,5.05h0c0,4.58-2.6,9.86-5.94,12.28H254.38Z"/><path class="cls-4" d="M184.11,351l70.27-40.56h30.75a8.6,8.6,0,0,1-.74.49L184.11,368.78c-3.68,2.13-6.68-.13-6.68-5h0C177.43,358.81,180.43,353.09,184.11,351Z"/><path class="cls-5" d="M284.39,255.94c3.69-2.13,6.68.13,6.68,5.05h0c0,4.59-2.6,9.86-5.94,12.28H254.38Z"/><path class="cls-4" d="M184.11,313.83l70.27-40.56h30.75a8.6,8.6,0,0,1-.74.49L184.11,331.65c-3.68,2.13-6.68-.13-6.68-5h0C177.43,321.68,180.43,316,184.11,313.83Z"/><path class="cls-5" d="M284.39,119.46c3.69-2.13,6.68.13,6.68,5.05h0c0,4.59-2.6,9.86-5.94,12.28H254.38Z"/><path class="cls-4" d="M184.11,177.36l70.27-40.57h30.75a8.6,8.6,0,0,1-.74.49L184.11,195.17c-3.68,2.13-6.68-.13-6.68-5h0C177.43,185.2,180.43,179.49,184.11,177.36Z"/><ellipse class="cls-5" cx="172.92" cy="161.66" rx="10.05" ry="5.8" transform="translate(-53.91 229.36) rotate(-59.69)"/><ellipse class="cls-5" cx="300.86" cy="87.8" rx="10.05" ry="5.8" transform="translate(73.22 303.22) rotate(-59.69)"/><ellipse class="cls-5" cx="172.92" cy="449.91" rx="10.05" ry="5.8" transform="translate(-302.76 372.13) rotate(-59.69)"/><ellipse class="cls-5" cx="300.86" cy="376.05" rx="10.05" ry="5.8" transform="matrix(0.5, -0.86, 0.86, 0.5, -175.62, 445.99)"/></g><polygon class="cls-11" points="269.59 215.04 269.59 215.04 269.59 215.04 269.59 215.04"/><polygon class="cls-11" points="219.84 243.77 219.84 243.76 219.84 243.77 219.84 243.77 219.84 243.77 219.84 243.77"/><path class="cls-11" d="M239,219.87a8.15,8.15,0,0,0-4.19,5.25,18.33,18.33,0,0,0-.85,3.73c0,1.41.7,1.89,2.74.72a8.32,8.32,0,0,0,4-4.89,27.38,27.38,0,0,0,.93-4.1h0C241.68,219,240.39,219.07,239,219.87Z"/><path class="cls-11" d="M301.58,180.82c0-2.45-.95-5.07-5.19-2.63-4.81,2.78-10.25,12.18-13.26,13.92-1.77,1-1.83-1.24-1.83-1.92,0-1.56,0-1.54,0-1.54a8,8,0,0,0-3.08,1.21,17,17,0,0,0-2.07,1.46,1.66,1.66,0,0,0-.7,1c-2,6.53-4.65,17.33-5.84,22.72h0c-.22,1-.39,1.84-.49,2.41l-.36,2c-.12.69-.11,1,.32,1a5.78,5.78,0,0,0,2.88-.72,6.2,6.2,0,0,0,2.64-2.56c.58-1.13,1.94-3.81,3.71-7.09h0c4.06-7.53,10.28-18.22,14.2-20.49.93-.53,1.21.16,1.21,1.29,0,1.43-1.33,7.22-2.39,11.68h0c-.48,2-.91,3.7-1.13,4.65-.12.52.06.73.2.79.72.28,2.2,0,4.15-1.13a4.34,4.34,0,0,0,2.35-2.94c.2-.76.71-2.78,1.32-5.35h0C299.61,192.58,301.58,183.7,301.58,180.82ZM278.3,210h0Z"/><path class="cls-11" d="M260,198.34a29.72,29.72,0,0,0-14,17.24c-1.67,5.89-3.7,12.26-3.7,15.1v.13h0c.08,6.17,6.23,2.58,9,1,5.08-2.93,9.65-5.52,13.26-13.82h0c.44-1,.87-2.13,1.29-3.34.91-2.64,3.72-11.88,3.72-15.35C269.54,193.65,264.27,195.88,260,198.34Zm-4.67,10.48a5.36,5.36,0,0,1,2.26-2.25h0c1.81-1,1.88-.68,1.88.48,0,1.65-1.36,11.53-3,14.46a5.45,5.45,0,0,1-2.26,2c-1.09.63-1.92,1.2-1.92-.24C252.35,221.18,253.54,212.9,255.35,208.82Z"/><path class="cls-11" d="M232.29,236.58c0-.11,0-.22,0-.32,0-1.44-3.06-.08-5.15,1.13s-5.48,3.63-5.48,3.63a17.89,17.89,0,0,1-1.84,2.74h0a12.56,12.56,0,0,1-3.34,3,4.88,4.88,0,0,1-3.12.76h0a3.65,3.65,0,0,1-3-3.76c0-.36.39-.46.89-.74,0,0,6.34-3.43,9.49-5.25l3.14-1.81c4.49-2.6,8.52-6.58,8.52-14.56,0-3.73-.72-13.54-6-10.49-5.87,3.39-26,24.53-26,37.19A6.23,6.23,0,0,0,203,253.5h0c3.22,2.27,9.16,1.65,15.52-2,6.08-3.51,13.27-11.79,13.79-14.9Zm-19.16-1.81c.6-1.07,6.58-10.87,10-12.84,1-.6,1.1,1.7,1.1,3.32h0c0,3.05-.24,3.75-3,5.31L213.6,235C213,235.34,212.68,235.57,213.13,234.77Z"/><line class="cls-12" x1="331.33" y1="326.99" x2="205.14" y2="254.28"/><line class="cls-12" x1="356.01" y1="283.24" x2="230.55" y2="211.22"/><line class="cls-12" x1="376.57" y1="279.98" x2="249.87" y2="207.02"/><line class="cls-12" x1="401.16" y1="263.6" x2="275.35" y2="192.04"/><line class="cls-12" x1="426.77" y1="250.31" x2="301.58" y2="178.22"/><polygon class="cls-6" points="395.19 286.98 395.19 286.97 395.19 286.97 395.19 286.98"/><polygon class="cls-6" points="345.43 315.7 345.44 315.7 345.43 315.7 345.43 315.7 345.43 315.7 345.43 315.7"/><path class="cls-6" d="M364.61,291.8a8.2,8.2,0,0,0-4.18,5.25,17.55,17.55,0,0,0-.86,3.74c0,1.4.7,1.89,2.74.71a8.28,8.28,0,0,0,4-4.89,27.52,27.52,0,0,0,.93-4.09h0C367.27,291,366,291,364.61,291.8Z"/><path class="cls-6" d="M427.17,252.76c0-2.46-.95-5.08-5.18-2.63-4.82,2.78-10.26,12.17-13.27,13.91-1.77,1-1.83-1.24-1.83-1.91,0-1.56,0-1.54,0-1.54a7.79,7.79,0,0,0-3.08,1.21,17.07,17.07,0,0,0-2.08,1.46,1.62,1.62,0,0,0-.7,1c-1.95,6.53-4.65,17.33-5.83,22.72h0c-.23,1-.4,1.84-.5,2.4l-.35,2c-.13.68-.12,1,.31,1a5.71,5.71,0,0,0,2.89-.72,6.23,6.23,0,0,0,2.63-2.56c.59-1.13,1.94-3.81,3.71-7.09h0c4.06-7.54,10.29-18.23,14.21-20.49.93-.54,1.2.15,1.2,1.29,0,1.43-1.32,7.22-2.39,11.67h0c-.48,2-.9,3.71-1.13,4.66-.12.52.07.72.21.78.72.28,2.2,0,4.14-1.12a4.33,4.33,0,0,0,2.35-2.95c.21-.75.71-2.77,1.32-5.35h0C425.21,264.51,427.17,255.64,427.17,252.76ZM403.89,282Z"/><path class="cls-6" d="M385.61,270.27a29.83,29.83,0,0,0-14,17.24c-1.66,5.9-3.7,12.27-3.7,15.11v.13h0c.08,6.16,6.23,2.57,9,1,5.07-2.93,9.64-5.52,13.25-13.82h0c.45-1,.87-2.14,1.29-3.35.91-2.64,3.73-11.88,3.73-15.34C395.14,265.58,389.87,267.81,385.61,270.27Zm-4.67,10.48a5.38,5.38,0,0,1,2.26-2.24h0c1.81-1,1.89-.68,1.89.49,0,1.64-1.37,11.52-3,14.45a5.44,5.44,0,0,1-2.26,2c-1.1.63-1.93,1.21-1.93-.24C377.94,293.11,379.14,284.83,380.94,280.75Z"/><path class="cls-6" d="M357.88,308.51c0-.11,0-.22,0-.32,0-1.44-3.06-.08-5.15,1.13s-5.48,3.63-5.48,3.63a17.81,17.81,0,0,1-1.84,2.75h0a12.54,12.54,0,0,1-3.34,3,4.83,4.83,0,0,1-3.12.76h0a3.64,3.64,0,0,1-3-3.76c0-.36.38-.46.89-.74,0,0,6.33-3.43,9.48-5.25l3.14-1.81c4.49-2.59,8.52-6.57,8.52-14.55,0-3.74-.72-13.54-6-10.5-5.87,3.39-26,24.53-26,37.19a6.26,6.26,0,0,0,2.52,5.43h0c3.23,2.27,9.16,1.65,15.52-2,6.08-3.51,13.28-11.79,13.79-14.9Zm-19.16-1.8c.6-1.08,6.59-10.87,10-12.85,1-.6,1.11,1.7,1.11,3.33h0c0,3-.25,3.74-3,5.31l-7.67,4.43C338.6,307.27,338.28,307.5,338.72,306.71Z"/></g></g></g></svg>