<svg xmlns="http://www.w3.org/2000/svg" xmlns:xlink="http://www.w3.org/1999/xlink" viewBox="0 0 115.48 194.87" xmlns:v="https://vecta.io/nano"><style><![CDATA[.t{fill-rule:evenodd}.u{stroke:#7c161a}.v{stroke-width:.18}.w{stroke-linejoin:round}.x{stroke-linejoin:bevel}.y{stroke-width:.09}.z{fill:#7c161a}.AA{fill:#fff}.AB{stroke-width:1.37}.AC{stroke-width:2.65}.AD{fill:#fce880}.AE{stroke-width:1.74}.AF{fill:none}.AG{stroke-linecap:round}.AH{fill:#aaa}.AI{fill:#343434}.AJ{stroke-width:.46}.AK{stroke-width:1.1}.AL{stroke:#515151}.AM{fill:#7f7d7e}.AN{stroke-width:.91}.AO{stroke-width:.21}.AP{stroke-width:.25}.AQ{fill:#ffcf53}]]></style><g stroke="#010101"><use xlink:href="#B" fill="#b6222a" class="w AB"/><path d="M19.4 13.86a5.57 5.57 0 1 1-5.57-5.56 5.57 5.57 0 0 1 5.57 5.56zm87.76 0a5.56 5.56 0 1 1-5.56-5.56 5.56 5.56 0 0 1 5.56 5.56zM19.4 177.73a5.57 5.57 0 1 1-5.57-5.56 5.58 5.58 0 0 1 5.57 5.56zm87.76 0a5.56 5.56 0 1 1-5.56-5.56 5.57 5.57 0 0 1 5.56 5.56z" stroke-width=".52" class="t x AA"/></g><g class="u w z"><path d="M66.7 54.82h1v4.1h-1zm-1.7 0h1v4.1h-1zm-1.74 0h1v4.1h-1zm-1.76 0h1v4.1h-1zm-1.68 0h1v4.1h-1zm-1.75 0h1v4.1h-1zm-1.7 0h1v4.1h-1zm-1.75 0h1v4.1h-1zm-1.76 0h1v4.1h-1zm-1.67 0h1v4.1h-1zm-1.77 0h1v4.1h-1zm-1.68 0h1v4.1h-1zM41 61.55h4.1v1H41zm0 1.7h4.1v1H41zM41 65h4.1v1H41zm0 1.68h4.1v1H41zm0 1.75h4.1v1H41zm0 1.77h4.1v1H41zm0 1.67h4.1v1H41zm0 1.76h4.1v1H41zm0 1.67h4.1v1H41zm0 1.77h4.1v1H41zm0 1.76h4.1v1H41zm0 1.67h4.1v1H41zm6.75 3.67h1v4.1h-1zm1.68 0h1v4.1h-1zm1.77 0h1v4.1h-1zm1.67 0h1v4.1h-1zm1.76 0h1v4.1h-1zm1.75 0h1v4.1h-1zm1.7 0h1v4.1h-1zm1.75 0h1v4.1h-1zm1.68 0h1v4.1h-1zm1.76 0h1v4.1h-1zm1.74 0h1v4.1h-1zm1.7 0h1v4.1h-1zm3.66-3.67h4.1v1h-4.1zm0-1.67h4.1v1h-4.1zm0-1.76h4.1v1h-4.1zm0-1.77h4.1v1h-4.1zm0-1.67h4.1v1h-4.1zm0-1.76h4.1v1h-4.1zm0-1.67h4.1v1h-4.1zm0-1.77h4.1v1h-4.1zm0-1.75h4.1v1h-4.1zm0-1.68h4.1v1h-4.1zm0-1.76h4.1v1h-4.1zm0-1.7h4.1v1h-4.1z" class="v"/><path d="M42.1,40H52.23v5.37H42.1Z" stroke-width=".33"/><g class="v"><path d="M53.46 116.8h2.78v2.78h-2.78zm5.7 0h2.77v2.78h-2.77zm-10.77-66h2.05v2.06H48.4zm0-3.44h2.05v2H48.4zM38.52 83.5h2v2h-2zm0 3.5h2v2h-2zm37.92-26.54h2v2h-2zm3.44 0h2.05v2h-2.05zM42 83.5h2.05v2H42zm0 3.5h2.05v2H42zm9.85-36.2h2v2.06h-2zm0-3.44h2v2h-2zM69.7 85.2h2.06v2H69.7zm3.44 0h2v2h-2zM60.48 50.8h2.05v2.06h-2.05zm0-3.44h2.05v2h-2.05zm12.3 5.34h2v2h-2zm3.44 0h2v2h-2zm-19.84-1.9h2v2.06h-2zm0-3.44h2v2h-2zm-17.86 8.26h2v2.05h-2zm0-3.44h2v2h-2zM79.88 66h2.05v2h-2.05zm-3.44 0h2v2h-2zM52.36 93.68h2v2.06h-2zm0-3.43h2v2h-2zm-14.5 1.02h2.05v2h-2.05zm0 3.43h2.05v2.05h-2.05zm-5.2-3.43h2v2h-2zm0 3.43h2v2.05h-2zM48 117.18h2.05v2H48zm-3.4 0h2v2h-2zM31.64 79.7h1v1.6h-1zm-1.74 0h1v1.6h-1zm-1.7 0h1v1.6h-1zm3.44-4.7h1v1.6h-1zm-1.74 0h1v1.6h-1zm-1.7 0h1v1.6h-1zM45 50.8h2v2.06h-2zm0-3.44h2v2h-2zm-9.4 1.54h1v2.5h-1zm-1.7 0h1v2.5h-1zm-1.74 0h1v2.5h-1zm-1.76 0h1v2.5h-1zm0 9.66h1V61h-1zm1.76 0h1V61h-1zm1.74 0h1V61h-1zm1.7 0h1V61h-1zM31 52.7h5.12v4.54H31zm45.44 17.5h2v2h-2zm3.44 0h2.05v2h-2.05zm-14.7 22.6h2.63v8.34h-2.63zm-4.4 0h2.63v8.34h-2.63zm-4.4 0H59v8.34h-2.62zm-8.78 0h2.64v8.34H47.6zm0 13.47h2.64v8.35H47.6zm4.4 0h2.64v8.35H52zm4.38 0H59v8.35h-2.62zm4.4 0h2.63v8.35h-2.63zm4.4 0h2.63v8.35h-2.63zm-38.72-64.1h2.05v2.05h-2.05zm0 3.44h2.05v2h-2.05zm3.45-3.44h2.05v2.05H29.9zm0 3.44h2.05v2H29.9z"/><g class="t"><use xlink:href="#C"/><use xlink:href="#D"/></g><path d="M38.38 100.5h1v1.17h-1zm-1.76 0h1v1.17h-1zm-1.68 0h1v1.17h-1zm-1.76 0h1v1.17h-1zm-.08 1.82h1.17v1H33.1zm0 1.76h1.17v1H33.1zm.08 1.68h1v1.17h-1zm1.76 0h1v1.17h-1zm1.68 0h1v1.17h-1zm1.76 0h1v1.17h-1zm0-1.68h1.17v1h-1.17zm0-1.76h1.17v1h-1.17zM37 110.3h2v2h-2zm-3.45 0h2.05v2h-2.05zm39.23-65.07h3.8v6.6h-3.8zm-8.64 0H68v6.6h-3.86z"/></g><g class="AG AK"><path d="M11.52,41H22.06"/><path d="M22.06,41V36.3"/><path d="M22.06,36.3H11.52"/><path d="M11.52,36.3V41"/><path d="M11.52 40.7h10.54m-10.54-.8h10.54m-10.54-.74h10.54m-10.54-.73h10.54"/><path d="M11.52 37.62h10.54m-10.54-.72h10.54M11.52 58.56h10.54"/><path d="M22.06 58.56v-4.7"/><path d="M22.06,53.87H11.52"/><path d="M11.52 53.87v4.7"/><path d="M11.52 58h10.54m-10.54-.76h10.54m-10.54-.74h10.54m-10.54-.73h10.54"/><path d="M11.52 55h10.54m-10.54-.77h10.54m-10.54 21.9h10.54"/><path d="M22.06,76.12V71.44"/><path d="M22.06,71.44H11.52"/><path d="M11.52,71.44v4.68"/><path d="M11.52 75.4h10.54m-10.54-.82h10.54m-10.54-.73h10.54m-10.54-.73h10.54"/><path d="M11.52 72.4h10.54m-10.54-.82h10.54m-10.54 22.1h10.54"/><path d="M22.06,93.68V89"/><path d="M22.06,89H11.52"/><path d="M11.52,89v4.68"/><path d="M11.52 93.46h10.54m-10.54-.73h10.54M11.52 92h10.54m-10.54-.8h10.54"/><path d="M11.52 90.47h10.54m-10.54-.74h10.54m-10.54 21.52h10.54"/><path d="M22.06,111.25v-4.68"/><path d="M22.06,106.57H11.52"/><path d="M11.52,106.57v4.68"/><path d="M11.52 110.8h10.54m-10.54-.72h10.54m-10.54-.73h10.54m-10.54-.8h10.54"/><path d="M11.52 107.8h10.54m-10.54-.72h10.54M11.52 128.8h10.54"/><path d="M22.06 128.8v-4.68"/><path d="M22.06,124.13H11.52"/><path d="M11.52,124.13v4.68"/><path d="M11.52 128.16h10.54m-10.54-.74h10.54m-10.54-.72h10.54m-10.54-.8h10.54"/><path d="M11.52 125.16h10.54m-10.54-.73h10.54m-10.54 21.95h10.54"/><path d="M22.06,146.38V141.7"/><path d="M22.06,141.7H11.52"/><path d="M11.52,141.7v4.68"/><path d="M11.52 146.3h10.54m-10.54-.8h10.54m-10.54-.73h10.54M11.52 144h10.54m-10.54-.7h10.54m-10.54-.8h10.54m-10.54-.73h10.54m-5.93-96.7H5.6"/><path d="M5.6 45.08v4.7"/><path d="M5.6 49.77h10.54"/><path d="M16.13 49.77v-4.7"/><path d="M5.6 49.7h10.54M5.6 49h10.54M5.6 48.23h10.54m-10.54-.8h10.54M5.6 46.7h10.54M5.6 46h10.54"/><path d="M5.6 45.16h10.54m-.01 17.5H5.6"/><path d="M5.6 62.65v4.7"/><path d="M5.6 67.34h10.54"/><path d="M16.13 67.34v-4.7"/><path d="M5.6 67h10.54M5.6 66.3h10.54M5.6 65.58h10.54m-10.54-.8h10.54"/><path d="M5.6 64h10.54M5.6 63.3h10.54m-.01 16.92H5.6"/><path d="M5.6 80.22v4.68"/><path d="M5.6 84.9h10.54"/><path d="M16.13,84.9V80.22"/><path d="M5.6 84.4h10.54M5.6 83.66h10.54M5.6 82.93h10.54M5.6 82.2h10.54"/><path d="M5.6 81.4h10.54M5.6 80.66h10.54m-.01 17.14H5.6"/><path d="M5.6 97.8v4.68"/><path d="M5.6 102.47h10.54"/><path d="M16.13 102.47V97.8"/><path d="M5.6 101.8h10.54M5.6 101h10.54m-10.54-.73h10.54M5.6 99.54h10.54"/><path d="M5.6 98.73h10.54M5.6 98h10.54m-.01 17.35H5.6"/><path d="M5.6 115.35V120"/><path d="M5.6 120h10.54"/><path d="M16.13,120v-4.68"/><path d="M5.6 119.9h10.54m-10.54-.74h10.54m-10.54-.8h10.54m-10.54-.73h10.54M5.6 116.9h10.54m-10.54-.82h10.54"/><path d="M5.6 115.35h10.54m-.01 17.55H5.6"/><path d="M5.6 132.9v4.7"/><path d="M5.6 137.6h10.54"/><path d="M16.13 137.6v-4.7"/><path d="M5.6 137.23h10.54M5.6 136.5h10.54m-10.54-.8h10.54M5.6 135h10.54"/><path d="M5.6 134.23h10.54M5.6 133.5h10.54m-.01 16.98H5.6"/><path d="M5.6 150.48v4.7"/><path d="M5.6 155.17h10.54"/><path d="M16.13 155.17v-4.7"/><path d="M5.6 154.58h10.54m-10.54-.73h10.54m-10.54-.73h10.54M5.6 152.3h10.54m-10.54-.72h10.54m-10.54-.73h10.54M99.27 41h10.62m.01 0v-4.7"/><path d="M109.9 36.3H99.27"/><path d="M99.27,36.3V41"/><path d="M99.27 40.7h10.62m-10.62-.8h10.62m-10.62-.74h10.62m-10.62-.73h10.62"/><path d="M99.27 37.62h10.62m-10.62-.72h10.62M99.27 58.56h10.62m.01 0v-4.7"/><path d="M109.9 53.87H99.27"/><path d="M99.27 53.87v4.7"/><path d="M99.27 58h10.62m-10.62-.76h10.62m-10.62-.74h10.62m-10.62-.73h10.62"/><path d="M99.27 55h10.62m-10.62-.77h10.62m-10.62 21.9h10.62m.01 0v-4.68"/><path d="M109.9 71.44H99.27"/><path d="M99.27,71.44v4.68"/><path d="M99.27 75.4h10.62m-10.62-.82h10.62m-10.62-.73h10.62m-10.62-.73h10.62"/><path d="M99.27 72.4h10.62m-10.62-.82h10.62m-10.62 22.1h10.62m.01 0V89"/><path d="M109.9 89H99.27"/><path d="M99.27,89v4.68"/><path d="M99.27 93.46h10.62m-10.62-.73h10.62M99.27 92h10.62m-10.62-.8h10.62"/><path d="M99.27 90.47h10.62m-10.62-.74h10.62M99.27 128.8h10.62m.01 0v-4.68"/><path d="M109.9 124.13H99.27"/><path d="M99.27,124.13v4.68"/><path d="M99.27 128.16h10.62m-10.62-.74h10.62m-10.62-.72h10.62m-10.62-.8h10.62"/><path d="M99.27 125.16h10.62m-10.62-.73h10.62m-10.62 21.95h10.62m.01 0v-4.68"/><path d="M109.9 141.7H99.27"/><path d="M99.27,141.7v4.68"/><path d="M99.27 146.3h10.62m-10.62-.8h10.62m-10.62-.73h10.62M99.27 144h10.62m-10.62-.7h10.62m-10.62-.8h10.62m-10.62-.73h10.62m-5.9-96.7H93.42"/><path d="M93.42 45.08v4.7"/><path d="M93.42,49.77H104"/><path d="M104 49.77v-4.7M93.42 49.7H104"/><path d="M93.42 49H104m-10.58-.77H104m-10.58-.8H104m-10.58-.73H104"/><path d="M93.42 46H104m-10.58-.84H104m0 17.5H93.42"/><path d="M93.42 62.65v4.7"/><path d="M93.42,67.34H104"/><path d="M104 67.34v-4.7M93.42 67H104"/><path d="M93.42 66.3H104m-10.58-.72H104m-10.58-.8H104M93.42 64H104"/><path d="M93.42 63.3H104m0 16.92H93.42"/><path d="M93.42,80.22V84.9"/><path d="M93.42,84.9H104"/><path d="M104 84.9v-4.68M93.42 84.4H104"/><path d="M93.42 83.66H104m-10.58-.73H104m-10.58-.73H104m-10.58-.8H104"/><path d="M93.42 80.66H104m0 17.14H93.42"/><path d="M93.42 97.8v4.68"/><path d="M93.42,102.47H104"/><path d="M104 102.47V97.8m-10.58 4H104"/><path d="M93.42 101H104m-10.58-.73H104m-10.58-.73H104m-10.58-.8H104"/><path d="M93.42 98H104m0 17.35H93.42"/><path d="M93.42,115.35V120"/><path d="M93.42,120H104"/><path d="M104 120v-4.68m-10.58 4.58H104"/><path d="M93.42 119.16H104m-10.58-.8H104m-10.58-.73H104m-10.58-.72H104"/><path d="M93.42 116.08H104m-10.58-.73H104m0 17.55H93.42"/><path d="M93.42 132.9v4.7"/><path d="M93.42,137.6H104"/><path d="M104 137.6v-4.7m-10.58 4.33H104"/><path d="M93.42 136.5H104m-10.58-.8H104m-10.58-.7H104m-10.58-.77H104"/><path d="M93.42 133.5H104m0 16.98H93.42"/><path d="M93.42 150.48v4.7"/><path d="M93.42,155.17H104"/><path d="M104 155.17v-4.7m-10.58 4.1H104"/><path d="M93.42 153.85H104m-10.58-.73H104m-10.58-.82H104m-10.58-.72H104m-10.58-.73H104"/></g><g class="v"><path d="M16.64,144a2.78,2.78,0,1,1-2.78-2.78A2.78,2.78,0,0,1,16.64,144Z" class="t"/><path d="M33.9 165.56H36v2.05h-2.1zm0 3.5H36v2.05h-2.1zm8.28-3.5h2v2.05h-2zm0 3.5h2v2.05h-2zM28.72 122h2.05v2h-2.05zm0 3.45h2.05v2h-2.05zm3.88-3.3h3.66v2.06H32.6zm0 3.3h3.66v2H32.6zm0 3.3h3.66v2H32.6zm9.3 0h3.66v2H41.9zm0-6.6h3.66v2.06H41.9zm38.5 29.35h2v3.66h-2zm3.28 0h2v3.66h-2zm3.32 0h2v3.66h-2zm0-9.36h2v3.66h-2zm-6.6 0h2v3.66h-2zm3.28 0h2v3.66h-2zm-11.78 8.93h2v2.05h-2zm0-3.44h2v2.05h-2zM87 164.17h2v2.05h-2zm0-3.44h2v2h-2zm-14.08-.15h3.52v2.78h-3.52zm0 6.52h3.52v2.77h-3.52zm7.62-3.3h3.5v2.78h-3.5zm-50.8-12h2.05v2h-2.05zm-3.44 0h2.05v2H26.3zm6.88-.37h3.52v2.78h-3.52zm8.27 0H45v2.78h-3.55zm33.9 4.57h2v2.05h-2zm-3.44 0h2v2.05h-2zm-38.72-13.35h3.52v2.78h-3.52zm8.27 0H45v2.78h-3.55zm-11.7.35h2.05v2.05h-2.05zm-3.44 0h2.05v2.05H26.3zm6.88-9.13h3.52v2.78h-3.52zm8.27 0H45v2.78h-3.55zm33.9 13.76h2v2.05h-2zm0 3.44h2v2.05h-2zM57 174.2h1.32v4.7H57zm-2.16 0h1.32v4.7h-1.32zm-2.26 0h1.32v4.7h-1.32zm6.72 0h1.32v4.7H59.3zm2.28 0h1.32v4.7h-1.32zm-9.88 8.34h5.12v6.6H51.7zm6.95 0h5.12v6.6h-5.12z"/><path d="M68.46 183.94a.68.68 0 0 1 .69-.67h1.4a.68.68 0 0 1 .69.67v3.8a.67.67 0 0 1-.69.66h-1.4a.67.67 0 0 1-.69-.66zm-24.23.7a1.4 1.4 0 0 1 2.79 0V187a1.4 1.4 0 0 1-2.79 0z" class="t"/></g><g class="AG AN"><path d="M45.26,182.83h4.17"/><path d="M49.43,182.83v5.93"/><path d="M49.43,188.76H45.26"/><path d="M45.26 188.76l-.3-.07"/><path d="M45 188.7l-.3-.08m-.03-.02l-.22-.14"/><path d="M44.45,188.47l-.22-.22"/><path d="M44.23,188.25,44,188"/><path d="M44 188l-.07-.3m.01-.04l-.07-.3"/><path d="M43.87,187.37v-3.15"/><path d="M43.87 184.22l.07-.3m0 .01l.07-.3m-.01.01l.22-.3m.01 0l.22-.22"/><path d="M44.45 183.12l.22-.14m0 .02l.3-.08m.03-.02l.3-.07m-.77 5.64h4.9m-5.43-.6h5.42m-5.55-.58h5.56m-5.56-.6h5.56m-5.56-.58h5.56"/><path d="M43.87 185.54h5.56m-5.56-.54h5.56m-5.56-.56h5.56m-5.5-.58h5.5m-5.14-.6h5.12m20.73 5.5H66"/><path d="M66,188.76v-5.93"/><path d="M66 182.83h4.1m.05 0l.36.07"/><path d="M70.5 182.9l.3.08m0 .02l.22.14"/><path d="M71 183.12l.22.22m.02 0l.15.3m.01 0l.14.3m-.01-.01v.3"/><path d="M71.53,184.22v3.15"/><path d="M71.53 187.37v.3"/><path d="M71.53 187.66l-.14.3m.01.04l-.15.3m-.01-.05l-.22.22m-.02 0l-.22.14"/><path d="M70.8 188.6l-.3.08m0 .02l-.36.07m-4.14-.3h5m-5-.6h5.42M66 187.3h5.5m-5.5-.6h5.5m-5.5-.58h5.5m-5.5-.58h5.5M66 185h5.5m-5.5-.56h5.5m-5.5-.58h5.42m-5.42-.6h5"/></g><g class="v"><path d="M81.2 172.3h6.3v4.83h-6.3zm0 11.12h6.3v4.83h-6.3zm-7.6-11.12h6.3v4.83h-6.3zm0 11.12h6.3v4.83h-6.3zm-40.42-24.74H38v4.83h-4.82zm6.96 0H45v4.83h-4.86zm14.12-16.25h6.88v6.88h-6.88zm0 20.7h6.88V170h-6.88zM29.38 83.5h2.05v2h-2.05zm0 3.5h2.05v2h-2.05zm41.5 40.72h8.93v8.93h-8.93zm2.35-3.88h.88v2.78h-.88zm1.68 0h.88v2.78h-.88zm1.76 0h.88v2.78h-.88zm1.74 0h.88v2.78h-.88zm-6.94 0h.88v2.78h-.88zm5.2 13.98h.88v2.78h-.88zm1.74 0h.88v2.78h-.88zm-3.5 0h.88v2.78h-.88zm-1.68 0h.88v2.78h-.88zm-1.76 0h.88v2.78h-.88zm9.54-7.76h2.78v.88H81zm0-1.76h2.78v.87H81zm0 3.45h2.78v.87H81zm0 1.75h2.78v.88H81zm0 1.76h2.78v.87H81zm-14-1.76h2.78v.88H67zm0-1.75h2.78v.87H67zm0-1.7h2.78v.88H67zm0-1.76h2.78v.87H67zm0 6.96h2.78v.87H67zm-3.23 2.48h2v2h-2zm0 3.44h2v2h-2zM62.6 126h2v2h-2zm0-3.48h2v2h-2zm-2.27 13.83h2.05v2.05h-2.05zm-3.43 0H59v2.05h-2.1zm0-3.45H59v2.1h-2.1zm3.43 0h2.05v2.1h-2.05zm-1.23-3.43h2v2.06h-2zm3.5 0h2v2.06h-2zm24.82-24.87h1.46v2h-1.46zm0 6.5h1.46v2.05h-1.46zm2.28-6.5h1.46v2H89.7zm-4.55 0h1.46v2h-1.46zm4.55 6.5h1.46v2.05H89.7zm-4.55 0h1.46v2.05h-1.46zm-10.85-6.5h1.47v2H74.3zm0 6.5h1.47v2.05H74.3zm2.2-6.5H78v2h-1.5zm-4.45 0h1.46v2h-1.46zm4.45 6.5H78v2.05h-1.5zm-4.45 0h1.46v2.05h-1.46zm-.3 3.52h2v2h-2zm0 3.44h2v2h-2zm8.78-3.44h2v2h-2zm0 3.44h2v2h-2zm.36-12.3h1.32v1.6H80.9zm0 4.6h1.32V112H80.9zm-.36-11.27h2v2.05h-2zm0-3.44h2v2h-2zm-8.78 3.44h2v2.05h-2zm0-3.44h2v2h-2zM59.1 126h2v2h-2zm0-3.48h2v2h-2zm-7.03 10.38h2v2.1h-2zm0-3.43h2v2.06h-2zm2.2-3.47h2.05v2h-2.05zm0-3.48h2.05v2h-2.05zm-5.7 3.48h2.05v2h-2.05zm0 3.47h2.05v2.06h-2.05z"/><use xlink:href="#C" y="-133.79" class="t"/></g><g class="AG"><path d="M34.06 38.5h-6.6m.01 4.68V38.5" class="AC"/><path d="M67.2 86.22h3.52m-27.66-1.7V81" class="AB"/><path d="M43.06 84.53h-3.5" class="AC"/><path d="M72.4 62.07h5m.06 0v-.6" class="AB"/><path d="M46 48.38h-2.42m33.88 13.1v-2.4m3.44 12.14v2.4m-10.17 12.6V83.8m-31.18.73h-2.42m-6.2-41.35h2.4m-5.85 0h3.45m8.63 13.47v3.15" class="AC"/><g class="AB"><path d="M38.9 106.35v2"/><path d="M38.9 108.32l-.88.88m-.02 0v2.12"/><path d="M38 109.2l-.88-.88m.01 0v-2m0-5.24V99"/><path d="M37.13 99l-.8-.88m-.88 2.96V99"/><path d="M35.45,99l.88-.88"/></g><path d="M38.9 92.3h-2.56m-2.64 0h2.64" class="AE"/><path d="M36.33,98.15V92.3" class="AB"/><path d="M38,111.32h3.15" class="AC"/><g class="AB"><path d="M28.72 80.5h1.68m5.7-20.7h3.44"/><path d="M30.4 80.5v4"/></g><g class="AC"><path d="M72.78 96.68h8.78M88 144h2.42"/><path d="M88 144h0m-30.3 22.58h8.5M30.4 84.53h3.3"/><path d="M33.7 84.53h3.44"/></g><path d="M33.7 92.3v-7.77" class="AE"/><g class="AC"><path d="M90.42 144h2m.04 0h9.08"/><path d="M101.54,144l.07.07"/></g><g class="AB"><path d="M67.2 86.22V97"/><path d="M67.2 97h-.72"/></g><g class="AC"><path d="M72.78 96.68h-6.3"/><path d="M66.5 96.68V97"/></g><g class="AB"><path d="M67.2 56.87v3.44"/><path d="M67.2 60.3l1.8 1.76"/><path d="M69,62.07h3.44"/></g><g class="AC"><path d="M39.55 88h3.5M80.9 61.48v2.27"/><path d="M80.9,63.75V67"/></g><path d="M72.4 63.75h8.5" class="AB"/><g class="AC"><path d="M57.4 48.38h-2.27"/><path d="M55.14,48.38H52.87"/><path d="M52.87,48.38H49.43"/></g><g class="AB"><path d="M55.14 56.87v-8.5M43.06 79.34h-3.5"/><path d="M65.53 86.22v-3.44m-10.4-25.9v3.44m17.26 3.44H69"/></g><g class="AC"><path d="M57.7 97v5.85m23.2-41.37v-2.4m-3.65-5.36h2.4m-5.48 32.5V83.8M39.55 88h-2.42m-6.2-41.38h2.4"/><path d="M30.92,46.62H27.47"/></g><g class="AB"><path d="M35.45,106.35v2"/><path d="M35.45,108.32l-.88.88"/><path d="M34.57,109.2v2.12"/><path d="M34.57 109.2l-.88-.88m.01 0v-2m0-3.5h-3.07"/><path d="M30.62,102.83,29,101.3"/></g><path d="M34.57 111.32h-3.14M30.4 88H28m11.55-34.8v-4.83" class="AC"/><path d="M30.92,50.14V46.62" class="AB"/><g class="AC"><path d="M61.5 48.38V46m-4.1 2.38V46"/><path d="M61.5 48.38h-4.1"/></g><path d="M60.55,118.2h3.08" class="AE"/><g class="AB"><path d="M49.43 48.38V42.3"/><path d="M49.43 42.3h-1.17"/></g><g class="AN"><path d="M52 43h-.14m-1.4 0h-.22m-1.4 0h-.15m-1.4 0h-.22m-1.38 0h-.22m-1.32 0h-.22m-1.4 0h-.22"/><path d="M42.33 43v.3m0 1.42v.36"/><path d="M42.33 45.08h.22m1.4 0h.22m1.32 0h.22m1.4 0h.22m1.38 0h.15m1.4 0h.22m1.4 0H52"/><path d="M52 45.08v-.36m0-1.4V43"/></g><path d="M61.36 137.38v2.4" class="AE"/><path d="M75.34 139.2v-7m0-6.97v7" class="AK"/><path d="M64.8 142.2v2.42" class="AC"/><path d="M62.24,176.54v-4" class="AE"/><g class="AC"><path d="M74.68 168.48h-2.92m-36.82 1.62H39m4.2 0H39m-4.06 0h-2.4"/><path d="M43.2 170.1h2.4m-11.17-43.62h-4.7m.01 2.42v-2.4m4.7-.02H38"/></g><path d="M62.24 172.5l2.05-2.12" class="AE"/><path d="M71.76 168.48h-2.13m-39.9-39.58v2.05" class="AC"/><g class="AB"><path d="M33.7 104.6h-3.07"/><path d="M30.62 104.6L29 106.13m1.4-30.3v1.53"/><path d="M30.4 77.36l-.88.8"/></g><g class="AC"><path d="M62.1 97v-.3m0-.02h-4.4"/><path d="M57.7,96.68V97"/></g><path d="M63.63 123.54v-2.4m-14.06 5.92h-2.4" class="AE"/><path d="M51.7 56.87v3.44m-3.44-3.44v3.44m-5.2 3.44h4.6M43.06 69h3.44" class="AB"/><path d="M34.06 34.1h-6.6" class="AE"/><g class="AB"><path d="M55.14 86.22v3.3"/><path d="M55.14 89.5l-1.76 1.76m3.52-5.04v-4.68"/></g><path d="M81.56 106.57v-2.86m0-3.6v3.6" class="AE"/><path d="M58.58 86.22v-5.86m14.2 19.76v5.5" class="AB"/><path d="M72.78 100.12h5.5" class="AC"/><path d="M72.4 81H69" class="AB"/><path d="M62.1 110.45v-5.86" class="AC"/><path d="M43.06 67.2h4.6m-4.6 3.5h4.6m-4.6 3.44h-3.5" class="AB"/><path d="M81.4 29.72H88" class="AE"/><path d="M72.4 74.14H69" class="AB"/><path d="M81.4 20.94H88" class="AE"/><g class="AB"><path d="M72.4 70.7h5m.06 0v.52"/><path d="M72.4 70.7H69m3.4-3.5H69m3.4-1.7h-4.68M38.9 101.08v-2.93"/><path d="M38.9 95.74v2.4m4.16-22.3h-8.63m-2.27 0h2.27M32.67 59.8v7.4"/><path d="M32.67 67.2l1.76 1.8"/></g><g class="AC"><path d="M94,124.72v10.54"/><path d="M94 135.26h7.6"/></g><g class="AB"><path d="M30.92 59.8V69m2.78 32.08v-2.93"/><path d="M33.7 95.74v2.4M32.16 80.5v-1.83m2.84.01l1.1-1.1"/><path d="M36.1 77.58h7m-10.94 1.1H35m13.26 7.54v-3.44m1.68 3.44v-4.68m1.76 4.68v-3.44"/></g><path d="M34.06 29.72h-6.6" class="AE"/><path d="M60.33 56.87v4.6m-3.43-4.6v-5m0-.05h.52m-.52 5.05v4.6" class="AB"/><path d="M48.92,110.45v-5.86" class="AC"/><path d="M90.42 112.13H93M53.38 56.87v-5m0-.05h-.5" class="AB"/><g class="AC"><path d="M46,51.82h3.44"/><path d="M49.43,51.82h3.44"/></g><path d="M65.53 56.87v3.44M72.4 69h3.15m.01 0l1.9-2" class="AB"/><path d="M53.38 94.7v2.4" class="AC"/><g class="AB"><path d="M55.14 82.78v-8.64M72.4 69H60.33"/><path d="M60.33 69l-5.2 5.2m30.75 31.4v-8.5"/></g><path d="M57.7,145.87H49.28" class="AC"/><path d="M49.06,118.2h5.78" class="AE"/><path d="M58.58,56.87v3.44" class="AB"/><path d="M45.62,97.12V118.2" class="AE"/><g class="AB"><path d="M63.77 56.87V54.1"/><path d="M63.77 54.1l.9-.88m-.01-.02h9.14"/><path d="M73.8 53.2v.5m0 .02h-.5"/><path d="M73.3 53.72v-5.2"/><path d="M73.3 48.53h1.4M62 56.87v-5"/><path d="M62 51.82h-.5"/><path d="M61.5 51.82v-.5m0-.02H66"/><path d="M66 51.3v-2.78M43.06 65.5h3.44m-3.44 6.9h3.44"/></g><g class="AC"><path d="M21.4,100.12V91.34"/><path d="M21.4,91.34H13.86"/></g><path d="M81.4 25.32H88" class="AE"/><path d="M72.4 79.34h-4.68" class="AB"/><path d="M81.4 38.5H88" class="AE"/><path d="M72.4 77.58H69" class="AB"/><path d="M81.4 34.1H88" class="AE"/><path d="M72.4 75.83h-4.68m-3.95 10.4v-4.68" class="AB"/><path d="M66.5 110.45v-7.62" class="AC"/><path d="M53.38 86.22v-4.68M39 102.83h4.62M72.4 72.4h-9.15" class="AB"/><path d="M34.06 20.94h-6.6m6.6 4.38h-6.6" class="AE"/><path d="M49.94 56.87v4.6m-6.88.6h3.44" class="AB"/><path d="M27.33 152.82H13.86M27.33 144H13.86m59.06 13.07h-3.3m-38.85 4.03h4.83" class="AC"/><g class="AE"><path d="M53.23 176.54v-4m0-.04l-2.55-2.64"/><path d="M50.68,169.87v-6.73"/></g><g class="AC"><path d="M34.94 166.58v-5.5"/><path d="M34.94 161.1h.66"/></g><path d="M50.68,163.14l-2.13-2" class="AE"/><g class="AC"><path d="M30.77 161.1h-2.05m55.98-7.76v-4.54"/><path d="M84.7 148.8V144m-11.78 4.65h3.44"/><path d="M76.36,148.65h8.35"/></g><path d="M84.7 148.65v.15" class="AB"/><g class="AC"><path d="M76.36 157.07h5m.04-3.73v3.73m6.6-3.73v3.73"/><path d="M88 157.07v4.68m-11.64-9.65v5"/><path d="M72.92 152.1h3.44m5.04 4.97H88m-5.7 8.13H88m-53.06-12.38h-4.17M77 144h2m2.4 0H79m-31.84-20.82h-3.44"/><path d="M47.16 123.18h2.12M34.94 144h-4.17m12.43 0v8.78"/><path d="M43.2 144v-8.78m0 17.6v8.27m0 5.5v-5.5"/><path d="M43.2 161.1h-.66m.66 5.48H39M74.68 162h-2.92"/><path d="M71.76,162H69.63"/></g><path d="M73.66 139.2v7" class="AK"/><path d="M43.2 166.58h4.17m-12.43-31.32v-5.5" class="AC"/><path d="M34.94 129.77h-.5" class="AB"/><path d="M34.94 135.26v2.63m-5.2-17.27V123" class="AC"/><g stroke-width="2.2"><path d="M34.43 123.18h-4.7"/><path d="M29.74,123.18V123"/></g><path d="M34.94 137.9v2.1m-5.2-19.38v-2.13" class="AC"/><g class="AN"><path d="M45.26 182.83h.22m1.4 0h.22m1.4 0h.15m1.37 0h.22m1.4 0h.14m1.4 0h.22m1.4 0H55m1.38 0h.15m1.4 0h.22m1.4 0h.15m1.4 0h.22m1.4 0h.22m1.3 0h.23m1.4 0H66m1.43 0h.15m1.42 0h.22m1.36 0h.22m0 5.93h-.22m-1.38 0H69m-1.42 0h-.15m-1.43 0h-.22m-1.34 0h-.23m-1.3 0h-.22m-1.38 0h-.22m-1.4 0h-.15m-1.4 0h-.22m-1.4 0h-.15m-1.38 0h-.22m-1.4 0h-.22m-1.4 0h-.14m-1.4 0H50m-1.37 0h-.15m-1.38 0h-.22m-1.4 0h-.22m-.36-.06l.37.07m-1.4-1.4l.07.36"/><path d="M43.87 187.37v-.88m0-1.4v-.88m.07-.36l-.07.36m1.4-1.4l-.37.07"/></g><path d="M66.4 176.46v9.37m-17.34-9.37v9.37" stroke-width="6.77"/><g class="AK"><path d="M68.4 133.94h-7m7-1.76h-3.1"/><path d="M65.3 132.18l-1.68-1.68"/></g><g class="AE"><path d="M55.5 176.54v-4m0-38.6h2.4m.02 3.44v-3.44m-2.42 0h-2.4m4.6 42.6v-4m2.4-42.04h-2.4"/><path d="M60.1 130.5v-3.44"/><path d="M60.1 127.06h3.52"/></g><path d="M81.56 119.08h-6.5m-.01 0h-2.27" class="AC"/><path d="M82.37,128.74h8" class="AK"/><path d="M64.8 138.77h2.4" class="AC"/><path d="M71.9 139.2v2.5" class="AK"/><path d="M81.56,119.08v3.3" class="AC"/><path d="M75.05,112.13v7" class="AB"/><g class="AK"><path d="M68.4 135.7h-2.86m-.01 0l-.73.65"/><path d="M64.8,136.35v2.42"/></g><path d="M88.15 105.6v6.52m0 3.52v-3.5" class="AB"/><path d="M82.37 132.18h5.78m-5.78-1.68h3.5" class="AK"/><path d="M85.88 112.13v-3.8m4.54-.01v-2.7" class="AB"/><path d="M82.37 133.94h3.5" class="AK"/><g class="AB"><path d="M72.78 112.13v3.5"/><path d="M72.78 112.13v-3.8"/></g><path d="M78.85,125.23v-2.85" class="AK"/><path d="M81.56,115.64v-4.47" class="AE"/><path d="M78.85 115.64h2.7" class="AC"/><path d="M55.3 127.06h2.4" class="AE"/><g class="AK"><path d="M82.37 135.7h2.2"/><path d="M84.56 135.7l1.32 1.4"/></g><path d="M53.1 130.5h2.42" class="AE"/><g class="AB"><path d="M58.58,77.58l1.75,1.76"/><path d="M60.33,79.34v6.88"/></g><path d="M53.1 130.5h-3.52m10.52-6.96h-2.4" class="AE"/><g class="AB"><path d="M62,86.22v-7.9"/><path d="M62,78.32,58.58,74.8"/></g><path d="M55.3 123.54h2.4" class="AE"/></g><use xlink:href="#E" class="t v"/></g><use xlink:href="#C" y="-71.29" class="t u x y z"/><use xlink:href="#F" class="t u v w z"/><use xlink:href="#C" y="-80.07" class="t u x y z"/><path d="M16.64 73.78A2.78 2.78 0 1 1 13.86 71a2.78 2.78 0 0 1 2.78 2.78z" class="t u v w z"/><path d="M15.6 73.78A1.76 1.76 0 1 1 13.86 72a1.75 1.75 0 0 1 1.75 1.78z" class="t u x y z"/><path d="M16.64,65a2.78,2.78,0,1,1-2.78-2.78A2.78,2.78,0,0,1,16.64,65Z" class="t u v w z"/><path d="M15.6 65a1.76 1.76 0 1 1-1.75-1.75A1.75 1.75 0 0 1 15.61 65z" class="t u x y z"/><use xlink:href="#F" y="-26.36" class="t u v w z"/><use xlink:href="#C" y="-106.43" class="t u x y z"/><use xlink:href="#E" y="-43.91" class="t u v w z"/><use xlink:href="#C" y="-115.2" class="t u x y z"/><path d="M16.64 38.65a2.78 2.78 0 1 1-2.78-2.79 2.78 2.78 0 0 1 2.78 2.79z" class="t u v w z"/><use xlink:href="#C" y="-123.98" class="t u x y z"/><use xlink:href="#E" y="8.78" class="t u v w z"/><use xlink:href="#G" class="t u x y z"/><use xlink:href="#F" y="26.34" class="t u v w z"/><use xlink:href="#C" y="-53.73" class="t u x y z"/><use xlink:href="#F" y="35.14" class="t u v w z"/><use xlink:href="#G" y="17.58" class="t u x y z"/><path d="M16.64 126.48a2.78 2.78 0 1 1-2.78-2.79 2.77 2.77 0 0 1 2.78 2.79z" class="t u v w z"/><use xlink:href="#C" y="-36.15" class="t u x y z"/><path d="M16.64 135.26a2.78 2.78 0 1 1-2.78-2.79 2.78 2.78 0 0 1 2.78 2.79z" class="t u v w z"/><use xlink:href="#C" y="-27.37" class="t u x y z"/><path d="M16.64 152.82a2.78 2.78 0 1 1-2.78-2.82 2.77 2.77 0 0 1 2.78 2.82z" class="t u v w z"/><use xlink:href="#G" y="52.7" class="t u x y z"/><use xlink:href="#H" class="t u v w z"/><path d="M103.37 100.12a1.76 1.76 0 1 1-1.76-1.75 1.75 1.75 0 0 1 1.76 1.75z" class="t u x y z"/><use xlink:href="#I" class="t u v w z"/><use xlink:href="#J" class="t u x y z"/><path d="M104.4 126.48a2.78 2.78 0 1 1-2.79-2.79 2.78 2.78 0 0 1 2.79 2.79z" class="t u v w z"/><use xlink:href="#K" class="t u x y z"/><path d="M104.4 135.26a2.78 2.78 0 1 1-2.79-2.79 2.79 2.79 0 0 1 2.79 2.79z" class="t u v w z"/><use xlink:href="#D" y="-27.37" class="t u x y z"/><path d="M104.4,144a2.78,2.78,0,1,1-2.79-2.78A2.79,2.79,0,0,1,104.4,144Z" class="t u v w z"/><use xlink:href="#D" y="-18.63" class="t u x y z"/><use xlink:href="#I" y="35.12" class="t u v w z"/><use xlink:href="#J" y="35.12" class="t u x y z"/><use xlink:href="#H" y="-8.78" class="t u v w z"/><use xlink:href="#K" y="-35.14" class="t u x y z"/><use xlink:href="#I" y="-35.14" class="t u v w z"/><use xlink:href="#K" y="-43.92" class="t u x y z"/><use xlink:href="#H" y="-26.34" class="t u v w z"/><path d="M103.37 73.78a1.76 1.76 0 1 1-1.76-1.78 1.75 1.75 0 0 1 1.76 1.78z" class="t u x y z"/><path d="M104.4,65a2.78,2.78,0,1,1-2.79-2.78A2.79,2.79,0,0,1,104.4,65Z" class="t u v w z"/><path d="M103.37,65a1.76,1.76,0,1,1-1.76-1.75A1.76,1.76,0,0,1,103.37,65Z" class="t u x y z"/><use xlink:href="#I" y="-61.5" class="t u v w z"/><use xlink:href="#D" y="-106.43" class="t u x y z"/><use xlink:href="#H" y="-52.69" class="t u v w z"/><use xlink:href="#D" y="-115.2" class="t u x y z"/><path d="M104.4 38.65a2.78 2.78 0 1 1-2.79-2.79 2.79 2.79 0 0 1 2.79 2.79z" class="t u v w z"/><use xlink:href="#K" y="-87.83" class="t u x y z"/><use xlink:href="#L" class="t u v w z"/><path d="M67.87 176.46a1.46 1.46 0 1 1-1.46-1.46 1.46 1.46 0 0 1 1.46 1.46z" class="t u x y z"/><use xlink:href="#L" x="-17.35" class="t u v w z"/><path d="M50.53 176.46a1.47 1.47 0 1 1-1.47-1.46 1.47 1.47 0 0 1 1.47 1.46z" class="t u x y z"/><use xlink:href="#D" x="-74.14" y="-124.13" class="t u v w z"/><use xlink:href="#M" class="t u x y AA"/><use xlink:href="#N" class="t u v w z"/><path d="M43.94 48.38a.36.36 0 1 1-.36-.36.36.36 0 0 1 .36.36z" class="t u x y AA"/><path d="M78.12,59.07a.66.66,0,0,1-1.32,0,.66.66,0,0,1,1.32,0Z" class="t u v w z"/><use xlink:href="#O" class="t u x y AA"/><path d="M81.56 73.63a.66.66 0 1 1-.66-.63.66.66 0 0 1 .66.63z" class="t u v w z"/><use xlink:href="#P" class="t u x y AA"/><g class="z t u"><path d="M71.4 83.8a.66.66 0 0 1-1.32 0 .66.66 0 0 1 1.32 0z" class="v w"/><use xlink:href="#Q" class="x y"/><use xlink:href="#R" class="v w"/><path d="M37.5,84.53a.37.37,0,1,1-.73,0,.37.37,0,0,1,.73,0Z" class="x y"/><path d="M34,43.18a.66.66,0,1,1-1.32,0,.66.66,0,0,1,1.32,0Z" class="v w"/></g><use xlink:href="#S" class="t u x y AA"/><use xlink:href="#T" class="t u v w z"/><path d="M39.92,59.8a.37.37,0,0,1-.74,0,.37.37,0,0,1,.74,0Z" class="t u x y AA"/><g class="z t u"><path d="M37,92.3a.66.66,0,0,1-1.32,0,.66.66,0,1,1,1.32,0Z" class="v w"/><use xlink:href="#U" class="x y"/><path d="M41.82 111.32a.66.66 0 1 1-.66-.65.66.66 0 0 1 .66.65z" class="v w"/></g><use xlink:href="#V" class="t u x y AA"/><g class="z t u"><path d="M91.08,144a.66.66,0,1,1-1.32,0,.66.66,0,1,1,1.32,0Z" class="v w"/><use xlink:href="#W" class="x y"/><use xlink:href="#X" class="v w"/></g><path d="M66.56 166.58a.37.37 0 0 1-.37.37.38.38 0 0 1-.37-.37.37.37 0 0 1 .37-.36.36.36 0 0 1 .37.36z" class="t u x y AA"/><g class="z t u"><path d="M93.13,144a.67.67,0,0,1-.67.66.66.66,0,1,1,.67-.66Z" class="v w"/><use xlink:href="#Y" class="x y"/><path d="M33.18 170.1a.66.66 0 0 1-.65.67.67.67 0 0 1-.67-.67.66.66 0 0 1 .67-.65.65.65 0 0 1 .65.65z" class="v w"/></g><use xlink:href="#Z" class="t u x y AA"/><g class="z t u"><use xlink:href="#a" class="v w"/><use xlink:href="#Z" x="6.5" class="x y"/><path d="M30.4 128.9a.66.66 0 1 1-1.31 0 .66.66 0 1 1 1.31 0z" class="v w"/><use xlink:href="#O" x="-47.73" y="69.83" class="x y"/><use xlink:href="#R" x="8.48" y="85.57" class="v w"/></g><use xlink:href="#b" class="t u x y AA"/><use xlink:href="#T" y="19.54" class="t u v w z"/><use xlink:href="#c" class="t u x y AA"/><path d="M66.2 82.78a.67.67 0 0 1-.66.66.66.66 0 1 1 .66-.66z" class="t u v w z"/><use xlink:href="#P" x="-15.37" y="9.15" class="t u x y AA"/><use xlink:href="#X" x="-11.05" y="-106.28" class="t u v w z"/><use xlink:href="#c" x="15.58" y="-19.04" class="t u x y AA"/><use xlink:href="#d" class="t u v w z"/><use xlink:href="#P" x="-11.93" y="-9.88" class="t u x y AA"/><path d="M58.36,102.83a.66.66,0,1,1-1.32,0,.66.66,0,0,1,1.32,0Z" class="t u v w z"/><use xlink:href="#b" x="12.07" y="-67.27" class="t u x y AA"/><path d="M58.07,46a.66.66,0,0,1-1.32,0,.66.66,0,1,1,1.32,0Z" class="t u v w z"/><use xlink:href="#U" x="21.08" y="-46.3" class="t u x y AA"/><path d="M81.56,59.07a.66.66,0,0,1-1.32,0,.66.66,0,1,1,1.32,0Z" class="t u v w z"/><use xlink:href="#O" x="3.44" class="t u x y AA"/><path d="M80.32,53.72a.66.66,0,0,1-1.32,0,.66.66,0,0,1,1.32,0Z" class="t u v w z"/><use xlink:href="#S" x="46.3" y="10.54" class="t u x y AA"/><g class="z t u"><path d="M74.83,83.8a.66.66,0,0,1-1.32,0,.66.66,0,0,1,1.32,0Z" class="v w"/><use xlink:href="#Q" x="3.43" class="x y"/><use xlink:href="#R" y="3.47" class="v w"/></g><path d="M37.5,88a.37.37,0,1,1-.73,0,.37.37,0,0,1,.73,0Z" class="t u x y AA"/><path d="M34,46.62a.66.66,0,1,1-1.32,0,.66.66,0,0,1,1.32,0Z" class="t u v w z"/><use xlink:href="#S" y="3.44" class="t u x y AA"/><path d="M29.67,101.3a.66.66,0,0,1-1.32,0,.66.66,0,0,1,1.32,0Z" class="t u v w z"/><use xlink:href="#U" x="-7.32" y="9" class="t u x y AA"/><path d="M32.08 111.32a.66.66 0 1 1-.65-.65.65.65 0 0 1 .65.65z" class="t u v w z"/><use xlink:href="#Z" x="-1.1" y="-58.78" class="t u x y AA"/><path d="M28.64,88a.66.66,0,1,1-1.31,0,.66.66,0,0,1,1.31,0Z" class="t u v w z"/><path d="M28.35,88a.37.37,0,1,1-.73,0,.37.37,0,0,1,.73,0Z" class="t u x y AA"/><use xlink:href="#X" x="-36.67" y="-88.41" class="t u v w z"/><use xlink:href="#O" x="-47.93" y="19.1" class="t u x y AA"/><use xlink:href="#T" y="-11.42" class="t u v w z"/><use xlink:href="#V" x="-1.61" y="-62.94" class="t u x y AA"/><path d="M62.16,46a.66.66,0,0,1-1.31,0,.66.66,0,1,1,1.31,0Z" class="t u v w z"/><use xlink:href="#W" x="-28.91" y="-98" class="t u x y AA"/><use xlink:href="#a" x="24.6" y="-51.9" class="t u v w z"/><use xlink:href="#S" x="30.3" y="75.02" class="t u x y AA"/><g class="z t u"><use xlink:href="#X" x="-20.71" y="-122.52" class="v w"/><use xlink:href="#Q" x="-25.26" y="-39.74" class="x y"/><path d="M44,44.06a.66.66,0,1,1-1.31,0,.66.66,0,1,1,1.31,0Z" class="v w"/><use xlink:href="#Z" x="10.82" y="-126.04" class="x y"/><path d="M51.63 44.06a.66.66 0 1 1-.63-.66.66.66 0 0 1 .63.66z" class="v w"/><use xlink:href="#Q" x="-19.77" y="-39.74" class="x y"/><use xlink:href="#e" class="v w"/></g><use xlink:href="#b" x="15.73" y="-30.3" class="t u x y AA"/><use xlink:href="#X" x="-2.55" y="-45.45" class="t u v w z"/><use xlink:href="#S" x="30.3" y="77.95" class="t u x y AA"/><path d="M65.46,144.63a.66.66,0,0,1-1.32,0,.66.66,0,0,1,1.32,0Z" class="t u v w z"/><use xlink:href="#f" class="t u x y AA"/><g class="z t u"><use xlink:href="#X" x="-3.95" y="5.92" class="v w"/><use xlink:href="#c" x="22.68" y="93.16" class="x y"/><path d="M72.4 168.48a.66.66 0 0 1-.65.67.67.67 0 0 1-.67-.67.66.66 0 0 1 .67-.65.65.65 0 0 1 .65.65z" class="v w"/><use xlink:href="#Z" x="39.22" y="-1.62" class="x y"/><path d="M38.67,126.48a.66.66,0,0,1-1.32,0,.66.66,0,1,1,1.32,0Z" class="v w"/></g><use xlink:href="#Y" x="-54.45" y="-17.52" class="t u x y AA"/><path d="M65 170.4a.66.66 0 0 1-1.32 0 .66.66 0 0 1 1.32 0z" class="t u v w z"/><path d="M64.66 170.4a.38.38 0 0 1-.37.37.37.37 0 0 1-.37-.37.36.36 0 0 1 .37-.37.37.37 0 0 1 .37.37z" class="t u x y AA"/><use xlink:href="#a" x="30.6" y="-1.62" class="t u v w z"/><use xlink:href="#V" x="28.47" y="57.16" class="t u x y AA"/><g class="z t u"><use xlink:href="#e" x="14" y="-7.62" class="v w"/><path d="M75.7 132.18a.37.37 0 1 1-.74 0 .37.37 0 0 1 .74 0z" class="x y"/><use xlink:href="#X" x="11.42" y="-36.58" class="v w"/><path d="M78,130a.36.36,0,1,1-.72,0,.36.36,0,1,1,.72,0Z" class="x y"/><path d="M73.8,130a.66.66,0,0,1-1.32,0,.66.66,0,0,1,1.32,0Z" class="v w"/><path d="M73.5 130a.37.37 0 0 1-.73 0 .37.37 0 1 1 .73 0z" class="x y"/><use xlink:href="#X" x="6.95" y="-32.13" class="v w"/><use xlink:href="#U" x="36.8" y="42.15" class="x y"/><use xlink:href="#T" x="38.07" y="74.65" class="v w"/><path d="M78 134.45a.36.36 0 1 1-.36-.37.37.37 0 0 1 .36.37z" class="x y"/><path d="M30.4,130.94a.66.66,0,1,1-1.31,0,.66.66,0,1,1,1.31,0Z" class="v w"/></g><use xlink:href="#O" x="-47.73" y="71.87" class="t u x y AA"/><use xlink:href="#X" x="-37.18" y="-60.45" class="t u v w z"/><use xlink:href="#U" x="-7.32" y="13.83" class="t u x y AA"/><use xlink:href="#X" x="-19.03" y="-39.52" class="t u v w z"/><use xlink:href="#O" x="-30.3" y="67.99" class="t u x y AA"/><use xlink:href="#X" x="-14.49" y="-106.28" class="t u v w z"/><use xlink:href="#c" x="12.15" y="-19.04" class="t u x y AA"/><use xlink:href="#X" x="-17.93" y="-106.28" class="t u v w z"/><use xlink:href="#c" x="8.71" y="-19.04" class="t u x y AA"/><use xlink:href="#d" x="-21.3" class="t u v w z"/><use xlink:href="#P" x="-33.27" y="-9.88" class="t u x y AA"/><use xlink:href="#X" x="-19.69" y="-97.58" class="t u v w z"/><use xlink:href="#Y" x="-45.96" y="-75" class="t u x y AA"/><use xlink:href="#K" x="-74.14" y="-92.38" class="t u v w z"/><path d="M28.35 34.1a.88.88 0 1 1-.88-.88.88.88 0 0 1 .88.88z" class="t u x y AA"/><use xlink:href="#g" class="t u v w z"/><use xlink:href="#Y" x="-35.57" y="-62.46" class="t u x y AA"/><use xlink:href="#X" x="15.37" y="-79.33" class="t u v w z"/><use xlink:href="#f" x="16.76" y="-57.38" class="t u x y AA"/><g class="z t u"><path d="M82.22 103.7a.66.66 0 1 1-.66-.65.66.66 0 0 1 .66.65z" class="v w"/><path d="M81.93 103.7a.38.38 0 0 1-.37.37.37.37 0 0 1-.36-.37.36.36 0 0 1 .36-.36.37.37 0 0 1 .37.36z" class="x y"/><path d="M59.24,80.36a.66.66,0,0,1-1.32,0,.66.66,0,0,1,1.32,0Z" class="v w"/></g><path d="M59,80.36a.37.37,0,1,1-.74,0,.37.37,0,0,1,.74,0Z" class="t u x y AA"/><use xlink:href="#X" x="12.08" y="-81.02" class="t u v w z"/><path d="M78.63,85.56a.37.37,0,1,1-.73,0,.37.37,0,0,1,.73,0Z" class="t u x y AA"/><path d="M78.93,100.12a.66.66,0,0,1-1.32,0,.66.66,0,0,1,1.32,0Z" class="t u v w z"/><use xlink:href="#Z" x="45.73" y="-69.98" class="t u x y AA"/><use xlink:href="#d" y="17.25" class="t u v w z"/><use xlink:href="#b" x="23.34" y="-89.1" class="t u x y AA"/><use xlink:href="#T" x="22.55" y="44.8" class="t u v w z"/><use xlink:href="#P" x="-18.81" y="30.97" class="t u x y AA"/><use xlink:href="#X" x="-18.52" y="-99.38" class="t u v w z"/><use xlink:href="#P" x="-33.27" y="-6.43" class="t u x y AA"/><use xlink:href="#d" x="-21.3" y="6.95" class="t u v w z"/><use xlink:href="#b" x="2" y="-99.4" class="t u x y AA"/><use xlink:href="#X" x="-26.65" y="-92.44" class="t u v w z"/><use xlink:href="#V" x="-1.61" y="-37.18" class="t u x y AA"/><path d="M89.76 29.72A1.76 1.76 0 1 1 88 28a1.76 1.76 0 0 1 1.76 1.72z" class="t u v w z"/><use xlink:href="#M" x="60.53" y="-8.78" class="t u x y AA"/><use xlink:href="#d" y="10.39" class="t u v w z"/><use xlink:href="#b" x="23.34" y="-95.96" class="t u x y AA"/><path d="M89.76 20.94A1.76 1.76 0 1 1 88 19.18a1.76 1.76 0 0 1 1.76 1.76z" class="t u v w z"/><path d="M88.88,20.94a.88.88,0,0,1-1.76,0,.88.88,0,1,1,1.76,0Z" class="t u x y AA"/><path d="M69.63 70.7A.66.66 0 1 1 69 70a.65.65 0 0 1 .63.7z" class="t u v w z"/><use xlink:href="#b" x="23.34" y="-99.4" class="t u x y AA"/><use xlink:href="#X" x="2.78" y="-99.38" class="t u v w z"/><use xlink:href="#P" x="-11.93" y="-6.43" class="t u x y AA"/><use xlink:href="#X" x="1.55" y="-101.08" class="t u v w z"/><use xlink:href="#h" class="t u x y AA"/><use xlink:href="#N" x="-9.15" y="20.62" class="t u v w z"/><use xlink:href="#W" x="-55.98" y="-75" class="t u x y AA"/><use xlink:href="#T" x="-0.65" y="38.35" class="t u v w z"/><use xlink:href="#V" x="-2.27" y="-13.17" class="t u x y AA"/><use xlink:href="#N" x="-9.15" y="27.45" class="t u v w z"/><use xlink:href="#W" x="-55.98" y="-68.17" class="t u x y AA"/><g class="z t u"><use xlink:href="#d" x="25.03" y="60.97" class="v w"/><use xlink:href="#O" x="16.54" y="65.65" class="x y"/><path d="M31.57 69a.66.66 0 1 1-.65-.66.65.65 0 0 1 .65.66z" class="v w"/></g><path d="M31.28,69a.37.37,0,0,1-.73,0,.37.37,0,1,1,.73,0Z" class="t u x y AA"/><use xlink:href="#i" class="t u v w z"/><path d="M34.06 98.15a.37.37 0 1 1-.37-.36.36.36 0 0 1 .37.36z" class="t u x y AA"/><use xlink:href="#T" x="-7.38" y="18.88" class="t u v w z"/><path d="M32.53 78.68a.37.37 0 0 1-.37.36.36.36 0 1 1 0-.72.37.37 0 0 1 .37.36z" class="t u x y AA"/><use xlink:href="#T" x="8.72" y="22.98" class="t u v w z"/><use xlink:href="#c" x="8.71" y="3.44" class="t u x y AA"/><path d="M50.6,81.54a.66.66,0,0,1-1.32,0,.66.66,0,1,1,1.32,0Z" class="t u v w z"/><path d="M50.3 81.54a.36.36 0 0 1-.37.36.37.37 0 1 1 0-.73.36.36 0 0 1 .37.37z" class="t u x y AA"/><use xlink:href="#T" x="12.16" y="22.98" class="t u v w z"/><use xlink:href="#c" x="12.15" y="3.44" class="t u x y AA"/><path d="M29.23 29.72A1.76 1.76 0 1 1 27.47 28a1.76 1.76 0 0 1 1.76 1.72z" class="t u v w z"/><use xlink:href="#M" y="-8.78" class="t u x y AA"/><use xlink:href="#i" x="26.64" y="-36.67" class="t u v w z"/><use xlink:href="#U" x="24" y="-30.82" class="t u x y AA"/><use xlink:href="#i" x="23.2" y="-36.67" class="t u v w z"/><use xlink:href="#U" x="20.56" y="-30.82" class="t u x y AA"/><use xlink:href="#N" x="5.34" y="56.22" class="t u v w z"/><path d="M49.28 104.6a.37.37 0 0 1-.36.37.37.37 0 0 1 0-.74.37.37 0 0 1 .36.37z" class="t u x y AA"/><use xlink:href="#T" x="53.44" y="52.33" class="t u v w z"/><path d="M93.35,112.13a.37.37,0,0,1-.74,0,.37.37,0,0,1,.74,0Z" class="t u x y AA"/><use xlink:href="#T" x="26" y="0.5" class="t u v w z"/><use xlink:href="#P" x="-15.37" y="-13.33" class="t u x y AA"/><use xlink:href="#e" x="-8" y="-42.68" class="t u v w z"/><path d="M53.75,97.12a.37.37,0,1,1-.73,0,.37.37,0,0,1,.73,0Z" class="t u x y AA"/><path d="M55.8,82.78a.66.66,0,1,1-1.32,0,.66.66,0,0,1,1.32,0Z" class="t u v w z"/><use xlink:href="#c" x="15.58" y="3.44" class="t u x y AA"/><path d="M86.54,97.12a.66.66,0,1,1-1.32,0,.66.66,0,0,1,1.32,0Z" class="t u v w z"/><use xlink:href="#V" x="44.72" y="-14.2" class="t u x y AA"/><g class="z t u"><use xlink:href="#X" x="-16.91" y="-20.71" class="v w"/><use xlink:href="#P" x="-31.62" y="72.24" class="x y"/><use xlink:href="#X" x="-7.61" y="-106.28" class="v w"/></g><use xlink:href="#c" x="19.08" y="-19.04" class="t u x y AA"/><g class="z t u"><path d="M46.28,97.12a.66.66,0,1,1-1.31,0,.66.66,0,0,1,1.31,0Z" class="v w"/><use xlink:href="#b" y="-72.98" class="x y"/><path d="M47.16 65.5a.66.66 0 0 1-1.32 0 .66.66 0 0 1 1.32 0z" class="v w"/></g><use xlink:href="#Y" x="-45.96" y="-78.5" class="t u x y AA"/><use xlink:href="#X" x="-19.69" y="-94.18" class="t u v w z"/><path d="M46.87 72.4a.37.37 0 1 1-.37-.39.36.36 0 0 1 .37.39z" class="t u x y AA"/><g class="z t u"><path d="M22.06,100.12a.66.66,0,0,1-1.32,0,.66.66,0,0,1,1.32,0Z" class="v w"/><path d="M21.77 100.12a.37.37 0 0 1-.37.37.37.37 0 1 1 0-.73.37.37 0 0 1 .37.36z" class="x y"/><path d="M89.76 25.32A1.76 1.76 0 1 1 88 23.57a1.76 1.76 0 0 1 1.76 1.75z" class="v w"/></g><path d="M88.88 25.32a.88.88 0 1 1-.88-.87.87.87 0 0 1 .88.87z" class="t u x y AA"/><use xlink:href="#T" x="28.2" y="19.54" class="t u v w z"/><use xlink:href="#P" x="-13.17" y="5.71" class="t u x y AA"/><path d="M89.76 38.5A1.76 1.76 0 1 1 88 36.74a1.76 1.76 0 0 1 1.76 1.76z" class="t u v w z"/><use xlink:href="#M" x="60.53" class="t u x y AA"/><use xlink:href="#d" y="13.83" class="t u v w z"/><path d="M69.34 77.58A.37.37 0 0 1 69 78a.36.36 0 0 1-.36-.37.37.37 0 0 1 .36-.37.38.38 0 0 1 .34.32z" class="t u x y AA"/><path d="M89.76 34.1A1.76 1.76 0 1 1 88 32.35a1.75 1.75 0 0 1 1.76 1.76z" class="t u v w z"/><path d="M88.88 34.1a.88.88 0 1 1-.88-.88.88.88 0 0 1 .88.88z" class="t u x y AA"/><path d="M68.4 75.83a.66.66 0 0 1-1.32 0 .66.66 0 0 1 1.32 0z" class="t u v w z"/><use xlink:href="#h" y="10.33" class="t u x y AA"/><use xlink:href="#g" x="6.88" class="t u v w z"/><use xlink:href="#Y" x="-28.69" y="-62.46" class="t u x y AA"/><path d="M67.14,102.83a.65.65,0,0,1-.65.66.66.66,0,1,1,.65-.66Z" class="t u v w z"/><use xlink:href="#Z" x="33.95" y="-67.27" class="t u x y AA"/><path d="M54,81.54a.66.66,0,0,1-1.32,0,.66.66,0,1,1,1.32,0Z" class="t u v w z"/><use xlink:href="#Y" x="-39.08" y="-62.46" class="t u x y AA"/><path d="M44.23,102.83a.66.66,0,1,1-1.31,0,.66.66,0,1,1,1.31,0Z" class="t u v w z"/><use xlink:href="#Q" x="-27.16" y="19.03" class="t u x y AA"/><g class="z t u"><path d="M63.92 72.4a.66.66 0 1 1-1.31 0 .66.66 0 1 1 1.31 0z" class="v w"/><use xlink:href="#f" x="-1.54" y="-72.23" class="x y"/><use xlink:href="#D" x="-74.14" y="-141.69" class="v w"/></g><path d="M28.35,20.94a.88.88,0,0,1-1.76,0,.88.88,0,1,1,1.76,0Z" class="t u x y AA"/><use xlink:href="#J" x="-74.14" y="-92.38" class="t u v w z"/><path d="M28.35 25.32a.88.88 0 1 1-.88-.87.87.87 0 0 1 .88.87z" class="t u x y AA"/><use xlink:href="#X" x="-16.25" y="-105.1" class="t u v w z"/><use xlink:href="#U" x="13.6" y="-30.82" class="t u x y AA"/><path d="M47.16,62.07a.66.66,0,0,1-1.32,0,.66.66,0,0,1,1.32,0Z" class="t u v w z"/><path d="M46.87,62.07a.37.37,0,0,1-.73,0,.37.37,0,1,1,.73,0Z" class="t u x y AA"/><use xlink:href="#X" x="3.45" y="-9.51" class="t u v w z"/><path d="M70,157.07a.37.37,0,0,1-.74,0,.37.37,0,1,1,.74,0Z" class="t u x y AA"/><path d="M22.06,149.24a.66.66,0,1,1-1.32,0,.66.66,0,0,1,1.32,0Z" class="t u v w z"/><use xlink:href="#h" x="-46.33" y="83.74" class="t u x y AA"/><g class="z t u"><use xlink:href="#N" x="7.1" y="114.76" class="v w"/><path d="M51 163.14a.37.37 0 1 1-.36-.37.37.37 0 0 1 .36.37z" class="x y"/><use xlink:href="#a" x="-8.27" y="-9" class="v w"/><use xlink:href="#S" x="-2.57" y="117.92" class="x y"/><use xlink:href="#e" x="-12.8" y="21.3" class="v w"/></g><path d="M48.92 161.1a.37.37 0 1 1-.73 0 .37.37 0 0 1 .73 0z" class="t u x y AA"/><use xlink:href="#a" x="-10.32" y="-9" class="t u v w z"/><path d="M29.1 161.1a.38.38 0 0 1-.37.37.37.37 0 0 1-.37-.37.36.36 0 0 1 .37-.36.37.37 0 0 1 .37.36z" class="t u x y AA"/><use xlink:href="#T" x="37.4" y="84.2" class="t u v w z"/><use xlink:href="#U" x="40.62" y="51.7" class="t u x y AA"/><g class="z t u"><use xlink:href="#X" x="12.81" y="-22.58" class="v w"/><use xlink:href="#U" x="42.67" y="51.7" class="x y"/><use xlink:href="#X" x="-19.03" y="-43.4" class="v w"/><path d="M47.53 123.18a.37.37 0 0 1-.37.36.36.36 0 0 1 0-.72.37.37 0 0 1 .37.36z" class="x y"/><use xlink:href="#X" x="-16.91" y="-43.4" class="v w"/></g><path d="M49.65 123.18a.37.37 0 0 1-.37.36.36.36 0 0 1 0-.72.37.37 0 0 1 .37.36z" class="t u x y AA"/><use xlink:href="#X" x="3.45" y="-4.58" class="t u v w z"/><path d="M70,162a.37.37,0,0,1-.74,0,.37.37,0,0,1,.74,0Z" class="t u x y AA"/><use xlink:href="#T" x="-0.5" y="106.78" class="t u v w z"/><path d="M39.4,166.58a.37.37,0,1,1-.73,0,.37.37,0,0,1,.73,0Z" class="t u x y AA"/><g class="z t u"><path d="M72.4 162a.65.65 0 0 1-.65.66.66.66 0 1 1 .65-.66z" class="v w"/><path d="M72.12,162a.37.37,0,1,1-.73,0,.37.37,0,0,1,.73,0Z" class="x y"/><path d="M74.3 146.24a.66.66 0 1 1-.65-.66.65.65 0 0 1 .65.66z" class="v w"/></g><path d="M74,146.24a.37.37,0,0,1-.73,0,.37.37,0,1,1,.73,0Z" class="t u x y AA"/><use xlink:href="#X" x="-18.85" class="t u v w z"/><path d="M47.75 166.58a.38.38 0 0 1-.37.37.37.37 0 0 1-.36-.37.36.36 0 0 1 .36-.36.37.37 0 0 1 .37.36z" class="t u x y AA"/><g class="z t u"><use xlink:href="#T" x="-4.6" y="78.1" class="v w"/><use xlink:href="#S" x="1.6" y="94.72" class="x y"/><use xlink:href="#X" x="-36.45" y="-45.96" class="v w"/><use xlink:href="#P" x="-51.17" y="46.99" class="x y"/><path d="M35.6,140a.66.66,0,1,1-1.32,0,.66.66,0,0,1,1.32,0Z" class="v w"/></g><use xlink:href="#Q" x="-35.8" y="56.2" class="t u x y AA"/><use xlink:href="#R" x="-7.4" y="33.97" class="t u v w z"/><use xlink:href="#b" x="-15.9" y="-51.6" class="t u x y AA"/><path d="M56.16 172.5a.65.65 0 0 1-.65.66.66.66 0 1 1 .65-.66z" class="t u v w z"/><path d="M55.87 172.5a.37.37 0 1 1-.36-.37.37.37 0 0 1 .36.37z" class="t u x y AA"/><use xlink:href="#N" x="11.93" y="85.56" class="t u v w z"/><use xlink:href="#Z" x="22.97" y="-36.16" class="t u x y AA"/><use xlink:href="#a" x="18.66" y="2.4" class="t u v w z"/><use xlink:href="#P" x="-23.2" y="98.87" class="t u x y AA"/><use xlink:href="#X" x="-8.49" y="-36.08" class="t u v w z"/><use xlink:href="#O" x="-19.76" y="71.43" class="t u x y AA"/><path d="M91.08,128.74a.66.66,0,0,1-1.32,0,.66.66,0,0,1,1.32,0Z" class="t u v w z"/><use xlink:href="#S" x="57.08" y="85.56" class="t u x y AA"/><use xlink:href="#d" x="-1.76" y="75.02" class="t u v w z"/><use xlink:href="#U" x="30.88" y="46.47" class="t u x y AA"/><use xlink:href="#X" x="5.71" y="-24.88" class="t u v w z"/><use xlink:href="#U" x="35.57" y="49.4" class="t u x y AA"/><use xlink:href="#X" x="15.37" y="-44.2" class="t u v w z"/><use xlink:href="#f" x="16.76" y="-22.25" class="t u x y AA"/><use xlink:href="#X" x="24.23" y="-44.2" class="t u v w z"/><use xlink:href="#W" y="-21.62" class="t u x y AA"/><path d="M88.8 132.18a.65.65 0 0 1-.65.66.66.66 0 1 1 0-1.31.65.65 0 0 1 .65.65z" class="t u v w z"/><use xlink:href="#S" x="54.8" y="89" class="t u x y AA"/><path d="M88.8,115.64a.65.65,0,0,1-.65.66.66.66,0,1,1,.65-.66Z" class="t u v w z"/><use xlink:href="#S" x="54.8" y="72.46" class="t u x y AA"/><use xlink:href="#T" x="46.34" y="70.7" class="t u v w z"/><path d="M86.25,130.5a.37.37,0,0,1-.74,0,.37.37,0,0,1,.74,0Z" class="t u x y AA"/><use xlink:href="#X" x="19.69" y="-58.26" class="t u v w z"/><use xlink:href="#V" x="44.72" y="-3" class="t u x y AA"/><use xlink:href="#X" x="24.23" y="-58.26" class="t u v w z"/><use xlink:href="#Q" x="19.68" y="24.52" class="t u x y AA"/><use xlink:href="#T" x="46.34" y="74.14" class="t u v w z"/><use xlink:href="#V" x="44.72" y="22.62" class="t u x y AA"/><use xlink:href="#X" x="6.59" y="-58.26" class="t u v w z"/><use xlink:href="#Q" x="2.04" y="24.52" class="t u x y AA"/><path d="M79.5 122.38a.66.66 0 0 1-1.32 0 .66.66 0 1 1 1.32 0z" class="t u v w z"/><use xlink:href="#Y" x="-13.61" y="-21.62" class="t u x y AA"/><path d="M79.5 115.64a.66.66 0 0 1-1.32 0 .66.66 0 1 1 1.32 0z" class="t u v w z"/><path d="M79.22,115.64a.37.37,0,1,1-.73,0,.37.37,0,0,1,.73,0Z" class="t u x y AA"/><use xlink:href="#X" x="19.69" y="-29.48" class="t u v w z"/><path d="M86.25 137.1a.37.37 0 0 1-.74 0 .37.37 0 0 1 .74 0z" class="t u x y AA"/><use xlink:href="#X" x="-8.49" y="-39.52" class="t u v w z"/><use xlink:href="#O" x="-19.76" y="67.99" class="t u x y AA"/><path d="M56.16 130.5a.66.66 0 1 1-.65-.66.65.65 0 0 1 .65.66z" class="t u v w z"/><path d="M55.87,130.5a.37.37,0,0,1-.73,0,.37.37,0,1,1,.73,0Z" class="t u x y AA"/><use xlink:href="#X" x="-7.61" y="-89" class="t u v w z"/><path d="M59,77.58a.37.37,0,1,1-.74,0,.37.37,0,0,1,.74,0Z" class="t u x y AA"/><use xlink:href="#e" x="-3.64" y="-16.26" class="t u v w z"/><use xlink:href="#b" x="12.07" y="-46.56" class="t u x y AA"/><use xlink:href="#X" x="-7.61" y="-91.78" class="t u v w z"/><path d="M59,74.8a.37.37,0,1,1-.74,0,.37.37,0,0,1,.74,0Z" class="t u x y AA"/><path d="M71.68,93a1.32,1.32,0,1,1-1.32-1.32A1.32,1.32,0,0,1,71.68,93Z" class="t u v w z"/><g fill="#ccc"><path d="M66.7 54.82h1v4.1h-1zm-1.7 0h1v4.1h-1zm-1.73 0h1v4.1h-1zm-1.77 0h1v4.1h-1zm-1.67 0h1v4.1h-1zm-1.76 0h1v4.1h-1zm-1.67 0h1v4.1h-1zm-1.77 0h1v4.1h-1zm-1.76 0h1v4.1h-1zm-1.67 0h1v4.1h-1zm-1.77 0h1v4.1h-1zm-1.68 0h1v4.1h-1zM41 61.55h4.1v1H41zm0 1.7h4.1v1H41zM41 65h4.1v1H41zm0 1.68h4.1v1H41zm0 1.75h4.1v1H41zm0 1.77h4.1v1H41zm0 1.67h4.1v1H41zm0 1.76h4.1v1H41zm0 1.67h4.1v1H41zm0 1.77h4.1v1H41zm0 1.76h4.1v1H41zm0 1.67h4.1v1H41zm6.75 3.67h1v4.1h-1zm1.68 0h1v4.1h-1zm1.77 0h1v4.1h-1zm1.67 0h1v4.1h-1zm1.76 0h1v4.1h-1zm1.77 0h1v4.1h-1zm1.67 0h1v4.1h-1zm1.76 0h1v4.1h-1zm1.67 0h1v4.1h-1zm1.77 0h1v4.1h-1zm1.73 0h1v4.1h-1zm1.7 0h1v4.1h-1zm3.67-3.67h4.1v1h-4.1zm0-1.67h4.1v1h-4.1zm0-1.76h4.1v1h-4.1zm0-1.77h4.1v1h-4.1zm0-1.67h4.1v1h-4.1zm0-1.76h4.1v1h-4.1zm0-1.67h4.1v1h-4.1zm0-1.77h4.1v1h-4.1zm0-1.75h4.1v1h-4.1zm0-1.68h4.1v1h-4.1zm0-1.76h4.1v1h-4.1zm0-1.7h4.1v1h-4.1zM79 36.74h4.83v3.5H79zm0-13.17h4.83v3.5H79zm0 8.78h4.83v3.5H79zM79 28h4.83v3.5H79zm0-8.82h4.83v3.5H79zM31.65 28h4.83v3.5h-4.83zm0-4.43h4.83v3.5h-4.83zm0-4.4h4.83v3.5h-4.83zm0 17.56h4.83v3.5h-4.83zm0-4.4h4.83v3.5h-4.83zM46.5 39.9H50v4.83h-3.5zm6.96 76.9h2.78v2.78h-2.78zm5.7 0H62v2.78h-2.83zm-10.77-66h2.05v2.05H48.4zm0-3.45h2.05v2H48.4zM38.53 83.5h2v2h-2zm0 3.5h2v2h-2zm37.9-26.54h2v2h-2zm3.44 0h2.05v2h-2.05zM42 83.5h2.05v2H42zm0 3.5h2.05v2H42zm9.85-36.2h2v2.05h-2zm0-3.45h2v2h-2zM69.7 85.2h2.05v2H69.7zm3.45 0h2v2h-2zM60.5 50.8h2v2.05h-2zm0-3.45h2v2h-2zm12.28 5.35h2v2h-2zm3.44 0h2v2h-2zM56.4 50.8h2v2.05h-2zm0-3.45h2v2h-2zm-17.87 8.27h2v2.05h-2zm0-3.44h2v2h-2zM79.88 66h2.05v2h-2.05zm-3.44 0h2v2h-2zM52.36 93.68h2v2h-2zm0-3.44h2v2.05h-2zm-14.5 1.03h2.05v2h-2.05zm0 3.43h2.05v2.05h-2.05zm-5.2-3.43h2v2h-2zm0 3.43h2v2.05h-2zM48 117.18h2.05v2H48zm-3.4 0h2v2h-2zM31.65 79.7h1v1.6h-1zm-1.75 0h1v1.6h-1zm-1.7 0h1v1.6h-1zm3.45-4.7h1v1.6h-1zm-1.75 0h1v1.6h-1zm-1.7 0h1v1.6h-1zM45 50.8h2v2.05h-2zm0-3.45h2v2h-2zm-9.4 1.55h1v2.5h-1zm-1.68 0h1v2.5h-1zm-1.76 0h1v2.5h-1zm-1.76 0h1v2.5h-1zm0 9.65h1V61h-1zm1.76 0h1V61h-1zm1.76 0h1V61h-1zm1.68 0h1V61h-1zM31 52.7h5.12v4.53H31zm45.44 17.5h2v2h-2zm3.44 0h2.05v2h-2.05zm-14.7 22.6h2.63v8.34h-2.63zm-4.4 0h2.63v8.34h-2.63zm-4.38 0H59v8.34h-2.6zm-8.8 0h2.64v8.34H47.6zm0 13.47h2.64v8.35H47.6zm4.4 0h2.63v8.35H52zm4.4 0H59v8.35h-2.6zm4.38 0h2.63v8.35h-2.63zm4.4 0h2.63v8.35h-2.63zm-38.72-64.1h2.05v2.05h-2.05zm0 3.44h2.05v2h-2.05zm3.45-3.44h2.05v2.05H29.9zm0 3.44h2.05v2H29.9zm8.48 54.9h1v1.17h-1zm-1.75 0h1v1.17h-1zm-1.7 0h1v1.17h-1zm-1.74 0h1v1.17h-1zm-.1 1.82h1.17v1H33.1z"/><path d="M33.1 104.08h1.17v1H33.1zm.1 1.68h1v1.17h-1zm1.74 0h1v1.17h-1zm1.7 0h1v1.17h-1zm1.75 0h1v1.17h-1zm0-1.68h1.17v1h-1.17zm0-1.76h1.17v1h-1.17zM37 110.3h2v2h-2zm-3.45 0h2.05v2h-2.05zm39.23-65.07h3.8v6.6h-3.8zm-8.63 0H68v6.6h-3.8zm-47.2-8.85h5v4.53h-5zM5.66 45.16h5.06v4.54H5.66zm0 17.56h5.06v4.54H5.66zm0 17.58h5.06v4.54H5.66zm0 17.56h5.06v4.53H5.66zm0 17.56h5.06V120H5.66zm11.28-61.48h5v4.54h-5zm0 17.56h5V76h-5zm0 17.57h5v4.54h-5zm0 17.57h5v4.54h-5zm0 17.56h5v4.54h-5zm0 17.57h5v4.54h-5zM5.66 133h5.06v4.53H5.66zm0 17.55h5.06v4.54H5.66zM104.7 36.38h5.06v4.53h-5.06zm-11.2 8.78h5.05v4.54H93.5zm0 17.56h5.05v4.54H93.5zm0 17.58h5.05v4.54H93.5zm0 17.56h5.05v4.53H93.5zm0 17.56h5.05V120H93.5zm11.2-61.48h5.06v4.54h-5.06zm0 17.56h5.06V76h-5.06zm0 17.57h5.06v4.54h-5.06zm0 35.13h5.06v4.54h-5.06zm0 17.57h5.06v4.54h-5.06zM93.5 133h5.05v4.53H93.5zm0 17.55h5.05v4.54H93.5zm-59.58 15h2v2.05h-2zm0 3.5h2v2.05h-2zm8.28-3.5h2.05v2.05H42.2zm0 3.5h2.05v2.05H42.2zM28.72 122h2.05v2h-2.05zm0 3.45h2.05v2h-2.05zm3.88-3.3h3.66v2H32.6zm0 3.3h3.66v2H32.6zm0 3.3h3.66v2H32.6zm9.3 0h3.65v2H41.9zm0-6.6h3.65v2H41.9zm38.5 29.35h2v3.66h-2zm3.3 0h2v3.66h-2zm3.3 0h2v3.66h-2zm0-9.36h2v3.65h-2zm-6.6 0h2v3.65h-2zm3.3 0h2v3.65h-2zm-11.8 8.92h2v2.05h-2zm0-3.44h2v2h-2zM87 164.17h2v2h-2zm0-3.44h2v2h-2zm-14.07-.15h3.5v2.78h-3.5zm0 6.52h3.5v2.78h-3.5zm7.6-3.3h3.5v2.78h-3.5zm-50.8-12h2.05v2h-2.05zm-3.45 0h2.05v2H26.3zm6.9-.37h3.5v2.78h-3.5zm8.26 0H45v2.78h-3.54zM75.34 156h2v2.05h-2zm-3.44 0h2v2.05h-2zm-38.7-13.35h3.5v2.78h-3.5zm8.26 0H45v2.78h-3.54zm-11.7.35h2.05v2.05h-2.05zm-3.45 0h2.05v2.05H26.3zm6.9-9.14h3.5v2.8h-3.5zm8.26 0H45v2.8h-3.54zm33.88 13.76h2v2h-2zm0 3.44h2v2.05h-2zm-18.3 23.14h1.3v4.7h-1.3zm-2.2 0h1.32v4.7h-1.32zm-2.27 0h1.32v4.7h-1.32zm6.72 0h1.32v4.7H59.3zm2.28 0h1.32v4.7h-1.32zm-9.88 8.34h5.13v6.58H51.7zm6.96 0h5.12v6.58h-5.12z"/><g class="t"><path d="M51.56 176.46a2.49 2.49 0 1 1-2.49-2.46 2.49 2.49 0 0 1 2.49 2.46z"/><use xlink:href="#L"/></g><path d="M49.58 182.54l.22.22v.24l-.22.2h-4.4l-.2-.2v-.22l.22-.22z"/><path d="M49.8,188.9l-.22.22h-.22l-.22-.22v-6.14l.22-.22h.22l.22.22Z"/><path d="M45.2 189.12l-.2-.22v-.22l.22-.22h4.4l.22.22v.22l-.22.22z"/><path d="M44.82 189l-.14-.22.07-.22.22-.15.5.15.15.22-.08.22-.2.14z"/><path d="M44.53 188.9l-.15-.22.08-.22.22-.14.5.14.15.22-.08.22-.22.15z"/><path d="M44.16 188.68v-.22l.15-.3h.22l.5.3v.22l-.14.3h-.22z"/><path d="M43.94 188.4v-.22l.22-.22h.22l.44.44v.22l-.22.22h-.22z"/><path d="M43.73 188.1v-.3l.2-.15h.3l.36.5v.3l-.22.15h-.3z"/><path d="M43.65 187.66l.15-.22.22-.07.22.14.14.52-.14.2-.22.08-.22-.15z"/><path d="M43.58 187.37l.15-.22.2-.08.22.15.15.5-.15.22-.22.08-.2-.15z"/><path d="M43.58 184.15l.22-.22h.2l.22.22v3.36l-.22.22h-.2l-.22-.22z"/><path d="M43.73 183.78l.2-.15.22.08.15.22-.15.5-.22.15-.2-.08-.15-.22z"/><path d="M43.8 183.5l.22-.15.22.07.14.22-.14.52-.22.14-.22-.07-.15-.22z"/><path d="M44.1 183.05h.3l.22.14v.3l-.36.5h-.3l-.2-.15v-.3z"/><path d="M44.38,182.83h.22l.22.22v.22l-.44.44h-.22l-.22-.22v-.22Z"/><path d="M44.68 182.68h.22l.14.3v.2l-.5.3h-.22l-.15-.3v-.2z"/><path d="M45 182.6l.22.15.08.22-.15.2-.5.15-.22-.15-.08-.2.15-.22z"/><path d="M45.34 182.54l.2.14.08.22-.15.22-.5.15-.22-.15-.07-.22.14-.22zm4.24 5.63l.22.22v.22l-.22.22h-5.12l-.22-.22v-.22l.22-.22z"/><path d="M49.58 187.6l.22.22v.2l-.22.2h-5.64l-.2-.2v-.22l.2-.22z"/><path d="M49.58,187l.22.22v.22l-.22.22H43.8l-.22-.22v-.22l.22-.22Z"/><path d="M49.58 186.42l.22.2v.22l-.22.22H43.8l-.22-.22v-.22l.22-.2z"/><path d="M49.58,185.83l.22.22v.22l-.22.22H43.8l-.22-.22v-.22l.22-.22Z"/><path d="M49.58,185.24l.22.22v.22l-.22.22H43.8l-.22-.22v-.22l.22-.22Z"/><path d="M49.58,184.73l.22.22v.22l-.22.22H43.8l-.22-.22V185l.22-.22Z"/><path d="M49.58,184.15l.22.22v.22l-.22.22H43.8l-.22-.22v-.22l.22-.22Z"/><path d="M49.58 183.56l.22.22v.22l-.22.22h-5.7l-.22-.22v-.22l.22-.22z"/><path d="M49.58 183l.22.2v.22l-.22.22h-5.34l-.22-.22v-.22l.22-.2zM66 189.12l-.2-.22v-.22l.2-.22h4.32l.22.22v.22l-.22.22z"/><path d="M65.76 182.76l.2-.22h.22l.22.22v6.14l-.22.22H66l-.2-.22z"/><path d="M70.3 182.54l.22.22v.24l-.22.2H66l-.2-.2v-.22l.2-.22z"/><path d="M70.73 182.6l.15.3v.22l-.3.15-.6-.08-.15-.3v-.22l.3-.14z"/><path d="M71 182.76l.15.22-.07.2-.22.15-.5-.15-.15-.2.07-.22.22-.15z"/><path d="M71.4 183v.2l-.15.3H71l-.5-.3v-.2l.15-.3h.22z"/><path d="M71.6 183.27v.22l-.22.22h-.22l-.44-.44v-.22l.22-.22h.22z"/><path d="M71.76 183.63l-.08.3-.22.07-.3-.07-.22-.52.07-.3.22-.07.3.07z"/><path d="M71.9 183.93l-.07.3-.22.07-.3-.07-.22-.5.07-.3.22-.07.3.07z"/><path d="M71.9,184.37l-.22.22h-.22l-.22-.22v-.52l.22-.22h.22l.22.22Z"/><path d="M71.9 187.5l-.22.22h-.22l-.22-.22v-3.36l.22-.22h.22l.22.22z"/><path d="M71.9 187.8l-.22.22h-.22l-.22-.22v-.52l.22-.22h.22l.22.22z"/><path d="M71.68 188.24l-.3.08-.22-.08-.07-.24.22-.5.3-.07.22.07.07.3z"/><path d="M71.54 188.54l-.3.07-.22-.07-.07-.3.22-.5.3-.07.22.07.08.3z"/><path d="M71.17,188.83H71l-.22-.22v-.22l.44-.44h.22l.22.22v.22Z"/><path d="M70.88 189h-.22l-.15-.3v-.22l.5-.3h.22l.15.3v.22z"/><path d="M70.5 189.05l-.22-.15-.07-.22.15-.22.5-.14.22.14.07.22-.15.22z"/><path d="M70.15 189.12l-.3-.14v-.22l.15-.3.6-.07.3.15v.22l-.15.3z"/><use xlink:href="#j"/><path d="M71.6 187.6l.22.22v.2l-.22.2H66l-.2-.2v-.22l.2-.22z"/><use xlink:href="#j" x="0.58" y="-1.17"/><path d="M71.68 186.42l.22.2v.22l-.22.22H66l-.2-.22v-.22l.2-.2z"/><use xlink:href="#j" x="0.58" y="-2.34"/><use xlink:href="#j" x="0.58" y="-2.93"/><path d="M71.68 184.73l.22.22v.22l-.22.22H66l-.2-.22V185l.2-.22z"/><use xlink:href="#j" x="0.58" y="-4.02"/><use xlink:href="#j" x="0.5" y="-4.61"/><path d="M71.24 183l.22.2v.22l-.22.22H66l-.2-.22v-.22l.2-.2zm9.96-10.7h6.3v4.83h-6.3zm0 11.1h6.3v4.83h-6.3zm-7.6-11.1h6.3v4.83h-6.3zm0 11.1h6.3v4.83h-6.3zm-40.4-24.72H38v4.83h-4.8zm6.94 0H45v4.83h-4.86zm14.12-16.25h6.88v6.88h-6.88zm0 20.7h6.88V170h-6.88zM29.38 83.5h2.05v2h-2.05zm0 3.5h2.05v2h-2.05zm43.84 36.84h.88v2.78h-.88zm1.68 0h.88v2.78h-.88zm1.76 0h.88v2.78h-.88zm1.76 0h.88v2.78h-.88zm-6.96 0h.88v2.78h-.88zm5.2 13.98h.88v2.78h-.88zm1.76 0h.88v2.78h-.88zm-3.52 0h.88v2.78h-.88zm-1.68 0h.88v2.78h-.88zm-1.76 0h.88v2.78h-.88zm9.54-7.76h2.78v.88H81zm0-1.76h2.78v.88H81zm0 3.44h2.78v.88H81zm0 1.76h2.78v.88H81zm0 1.76h2.78v.87H81zm-14-1.76h2.78v.88H67zm0-1.76h2.78v.88H67zm0-1.68h2.78v.88H67zm0-1.76h2.78v.88H67zm0 6.96h2.78v.87H67zm8.7-7.18h3.8v3.8h-3.8zm0 4.47h3.8v3.8h-3.8zm-4.46-4.47h3.8v3.8h-3.8zm0 4.47h3.8v3.8h-3.8zm-7.46 5.2h2v2h-2zm0 3.44h2v2h-2zM62.6 126h2v2.05h-2zm0-3.48h2v2h-2zm-2.26 13.83h2v2.05h-2zm-3.44 0H59v2.05h-2.1zm0-3.45H59v2.1h-2.1zm3.44 0h2v2.1h-2zm-1.24-3.43h2v2.05h-2zm3.5 0h2v2.05h-2zm24.82-24.87h1.46v2h-1.46zm0 6.5h1.46v2.05h-1.46zm2.28-6.5h1.46v2H89.7zm-4.55 0h1.46v2h-1.46zm4.55 6.5h1.46v2.05H89.7zm-4.55 0h1.46v2.05h-1.46zm-10.83-6.5h1.46v2h-1.46zm0 6.5h1.46v2.05h-1.46zm2.18-6.5H78v2h-1.5zm-4.45 0h1.46v2h-1.46zm4.45 6.5H78v2.05h-1.5zm-4.45 0h1.46v2.05h-1.46zm-.3 3.52h2v2h-2zm0 3.44h2v2h-2zm8.78-3.44h2v2h-2zm0 3.44h2v2h-2zm.36-12.3h1.3v1.6h-1.3zm0 4.6h1.3V112h-1.3zm-.36-11.27h2v2.05h-2zm0-3.44h2v2h-2zm-8.78 3.44h2v2.05h-2zm0-3.44h2v2h-2zM59.1 126h2v2.05h-2zm0-3.48h2v2h-2zm-7.03 10.38h2v2.1h-2zm0-3.43h2v2.05h-2zm2.2-3.47h2.05v2.05h-2.05zm0-3.48h2.05v2h-2.05zm-5.7 3.48h2v2.05h-2zm0 3.47h2v2.05h-2z"/></g><g class="w"><path d="M69.85 81.4h3.44v-.65h-3.44zm0-1.74h3.44V79h-3.44zm0-1.66h3.44v-.73h-3.44zm0-1.78h3.44v-.66h-3.44zm0-1.7h3.44v-.73h-3.44zm0-1.75h3.44v-.66h-3.44zm0-1.78h3.44v-.66h-3.44zm0-1.66h3.44v-.73h-3.44zm0-1.76h3.44v-.66h-3.44zm0-1.75h3.44v-.66h-3.44zm0-1.7h3.44v-.73h-3.44zm0-1.74h3.44v-.66h-3.44z" class="AH AL AO"/><path d="M55.3 146v-1.17h4.83V146h4.4l3.58 3.66v13.1l-3.58 3.66H51l-3.6-3.66V149.7L51 146h4.32z" fill="#272626" stroke="#767676" class="AJ"/><path d="M71.68,93a1.32,1.32,0,1,1-1.32-1.32A1.32,1.32,0,0,1,71.68,93Z" stroke="#fff" stroke-width="1.22" class="t AA"/><g class="AJ AL"><path d="M81.05,42V2.22H34.43V42Z" fill="#2e9d4c"/><path d="M77.6 19.86v20.42H37.87V19.86zM35.45 4h38.72v10.37H35.45z" fill="#ddd"/><path d="M60.48 119.62H55v-2.78h5.5z" fill="#eb2c2e"/><path d="M59.3 116.84v2.78" class="AF AG"/><path d="M31.8 80.32V81h.73v-.66h-4.9v-4.2h.73v-.66H29v.66h2.78v-.66h.73v.66h.66v4.17H31.8z" class="AI"/><path d="M32.45 77.54a.66.66 0 0 1-1.32 0 .66.66 0 0 1 1.32 0zm-1.68-1.4v-.66h-.66v.66z" class="AF"/><path d="M30.77,80.32V81h-.66v-.66Z" fill="#959494"/><path d="M29,80.32V81h-.66v-.66Z" class="AF"/><path d="M37 49.8v10.4h-6.9V49.8H37z" class="AI"/><use xlink:href="#X" x="-30.95" y="-115.1" class="AF"/><path d="M32.82,100.22h7v7h-7Z" class="AI"/><use xlink:href="#X" x="-27.85" y="-64.96" class="AF"/><path d="M65.24 50.9l-.15-.14-.3-.08V46.5l.3-.07.15-.22.07-.22h10l.07.22.22.22.22.07v4.17l-.22.08-.22.14-.07.3h-10z" fill="#908f8f"/><path d="M65.53 49.94l.08.3.14.14.3.08h8.64l.22-.08.22-.14.07-.3v-2.78l-.07-.22-.22-.22-.22-.07H66l-.3.07-.14.22-.08.22z" fill="#d7d6d6"/><g class="AF AG"><path d="M13.86.7h87.76m13.18 13.16v163.87m-13.18 13.1H13.86M.7 177.73V13.86"/><path d="M114.8 13.86l-.15-1.9-.36-1.83-.66-1.76-1-1.6-1.1-1.54-1.32-1.3-1.54-1.1-1.6-.95-1.75-.66-1.78-.37-1.9-.14M.7 177.73l.14 1.83.37 1.83.66 1.76.88 1.68 1.17 1.47 1.3 1.3 1.47 1.17 1.68.88 1.76.66 1.83.37 1.9.14m87.76.01l1.9-.14 1.83-.37 1.75-.66 1.6-.88 1.54-1.17 1.32-1.3 1.1-1.47 1-1.68.66-1.76.36-1.83.15-1.83M13.86.7L12 .83l-1.83.37-1.76.66-1.68 1-1.5 1.05-1.3 1.3-1.17 1.54-.88 1.6-.66 1.76-.4 1.9-.13 1.9"/></g><path d="M41.82,129.06v0Z" class="AF"/><use xlink:href="#T" x="-1.9" y="63.04" class="AF"/><path d="M36.33,127.16v0Z" class="AH"/><path d="M41.82 121.45h-5.5v10h5.5z" class="AI"/><use xlink:href="#T" x="41.5" y="90.27" class="AF"/><path d="M80.76 151.46v2.4h1.3v-2.4z" class="AH"/><path d="M85.37 145.9H84v-2.42h1.4v2.42h3.3v-2.42h-1.4v2.42h2.42v5.56h-1v2.4H87.3v-2.4H84v2.4h1.4v-2.4h-5.73v-5.56h1.1v-2.42h1.3v2.42h3.3zm-9.15 23.34v-9h4.54v10h-4.54z" class="AI"/><path d="M76.22 169.24h-1.7v-1.46h1.7zm0-6.5h-1.7v-1.54h1.7zm4.54 3.27h1.68v-1.53h-1.68z" class="AH"/><path d="M42,152.12v0Z" class="AF"/><path d="M37.35 155H36.1v-4.32H42v1.47h1.75v1.4H42V155h-4.65z" class="AI"/><path d="M34.43 152.12v1.4h1.68v-1.4h-1.68z" class="AH"/><path d="M37.35 141.87H42v4.32h-4.65v-4.32H36.1v1.46h-1.68v1.4h1.68v1.47h1.24z" class="AI"/><path d="M42 143.33v1.4h1.75v-1.4H42z" class="AH"/><path d="M36.1 144.72h0z" class="AF"/><path d="M37.35 137.4v-4.32H42v1.53h1.75v1.32H42v1.47h-5.9v-1.47h-1.68v-1.32h1.68v-1.53h1.24z" class="AI"/><path d="M47.38 184h2.7v6.88h-2.7zm20.72 0v6.88h-2.8V184h2.78zM56 182.2h3.44V181l-.08-.3-.3-.3-.3-.08h-2.1l-.3.08-.3.3-.1.3z" class="AF"/><path d="M55.3 166.46v1.25h4.83v-1.25z" class="AH"/><path d="M66.2 162.8l-2 2.12H51.33l-2-2.12v-13.1l2-2h12.8l2 2z" class="AF"/><path d="M82.3 139.16v-13.83H68.46v13.83z" class="AI"/><path d="M79.88 127.74a1 1 0 1 1-1-1 1 1 0 0 1 1 1z" class="AF"/><g class="AG AH"><path d="M90.86,106.67v-1.4"/><path d="M90.86,105.27H90"/><path d="M90,105.27v1.4"/></g><use xlink:href="#X" x="24.23" y="-58.52" class="AF"/><g class="AG AH"><path d="M88.6 106.67v-1.4"/><path d="M88.6 105.27h-.88m-.02 0v1.4m-1.38 0v-1.4"/><path d="M86.32,105.27h-.88"/><path d="M85.44 105.27v1.4m4.56 4.46v1.4"/><path d="M90,112.52h.88"/><path d="M90.86 112.52v-1.4m-3.16.01v1.4"/><path d="M87.7 112.52h.88m.02 0v-1.4m-3.16.01v1.4"/><path d="M85.44,112.52h.88"/><path d="M86.32 112.52v-1.4"/></g><path d="M86.32 106.67h-1.9v4.46h7.46v-4.46h-5.56zM83 107.84V111h-2.83v-3.14z" class="AI"/><path d="M82.07,111v.66h-1V111Z" class="AH"/><path d="M82.07 106.8H83v1h-2.83v-1h1.9z" class="AI"/><path d="M81.05 106.8h1v-.66h-1z" class="AH"/></g><use xlink:href="#B" stroke="#010101" class="AB AF"/><path d="M86.32 106.66v-1.4h-.88v1.4zm2.28.01v-1.4h-.88v1.4zm2.26 0v-1.4H90v1.4zm-5.42 4.46v1.4h.88v-1.4zm2.26 0v1.4h.88v-1.4zm2.3 0v1.4h.88v-1.4z" class="AH AJ AL"/><path d="M32.48 80.32V81h-.66v-.66zm-3.48 0V81h-.66v-.66zm-.65-4.17v-.66H29v.66zm1.72 0v-.66h.66v.66zm1.73 0v-.66h.66v.66z" fill="#959494" class="AJ AL"/><path d="M65.68 156.3a8 8 0 1 1-8-8 8 8 0 0 1 8 8z" fill="#272626" stroke="#767676" class="AJ"/><g class="AL"><path d="M67.44 177h3.3v16.25h-2.27v.88l-.07.22-.22.22-.22.07H47.53l-.22-.07-.22-.22-.07-.22v-.88h22.32l1.4 1.4.66-.66-.66-.73h-24.6l-1.4 1.4-.66-.66.66-.73V177H48v-1h19.4v1h-4.14v3.22H65l.3.07.22.22.08.3-.08.3-.22.22-.3.07h-3.57l-.3-.07-.22-.22-.07-.3V177h-6.22v3.8l-.08.3-.22.22-.3.07h-3.58l-.3-.07-.22-.22-.07-.3.07-.3.22-.22.3-.07h1.75V177h15.23z" fill="#b9b9b9" class="AJ"/><g class="AH"><path d="M87.3 151.46v2.4h1.32v-2.4zm-3.3 0v2.4h1.32v-2.4zm-1.95-5.56v-2.42h-1.32v2.42zm3.28 0v-2.42H84v2.42zm3.34 0v-2.42h-1.32v2.42z" class="AJ"/><path d="M42.18 81.4h3.44v-.65h-3.44zm0-1.74h3.44V79h-3.44zm0-1.66h3.44v-.73h-3.44zm0-1.78h3.44v-.66h-3.44zm0-1.7h3.44v-.73h-3.44zm0-1.75h3.44v-.66h-3.44zm0-1.78h3.44v-.66h-3.44zm0-1.66h3.44v-.73h-3.44zm0-1.76h3.44v-.66h-3.44zm0-1.75h3.44v-.66h-3.44zm0-1.7h3.44v-.73h-3.44zm0-1.74h3.44v-.66h-3.44z" class="AO"/></g><g class="AJ"><path d="M67.58 59.46h.88l1.4 1.4V82.3l-1.4 1.4H47l-1.4-1.4V60.85l1.4-1.4h20.58z" class="AI"/><path d="M68.46 62.24a1.39 1.39 0 1 1-1.39-1.39 1.39 1.39 0 0 1 1.39 1.39z" class="AF"/></g><g class="AH"><path d="M67.58 59.36v-3.44h-.66v3.44zm-1.75 0v-3.44h-.66v3.44zm-1.7 0v-3.44h-.73v3.44zm-1.74 0v-3.44h-.66v3.44zm-1.7 0v-3.44H60v3.44zm-1.7 0v-3.44h-.66v3.44zm-1.8 0v-3.44h-.66v3.44zm-1.7 0v-3.44h-.74v3.44zm-1.75 0v-3.44h-.66v3.44zm-1.75 0v-3.44h-.66v3.44zm-1.7 0v-3.44h-.73v3.44zm-1.75 0v-3.44h-.66v3.44zm19.03 27.86v-3.44h-.66v3.44zm-1.75 0v-3.44h-.66v3.44zm-1.7 0v-3.44h-.73v3.44zm-1.74 0v-3.44h-.66v3.44zm-1.7 0v-3.44H60v3.44zm-1.7 0v-3.44h-.66v3.44zm-1.8 0v-3.44h-.66v3.44zm-1.7 0v-3.44h-.74v3.44zm-1.75 0v-3.44h-.66v3.44zm-1.75 0v-3.44h-.66v3.44zm-1.7 0v-3.44h-.73v3.44zm-1.75 0v-3.44h-.66v3.44z" class="AO"/><path d="M42 152.12v1.4h1.75v-1.4H42zm18.12-6.02v-1.24H55.3v1.24z" class="AJ"/><path d="M36.1 144.73v-1.4h-1.7v1.4h1.7z" stroke-width=".45"/><path d="M42 134.63V136h1.76v-1.4H42z" class="AJ"/><path d="M36.12 136v-1.4h-1.7v1.4h1.7z" stroke-width=".45"/><path d="M36.28 122.47h-2.4v1.32h2.4zm.05 3.37H33.9v1.32h2.42zm-.06 3.26h-2.42v1.3h2.42zm5.6-5.3h2.42v-1.32h-2.42zm0 6.63h2.42v-1.32h-2.42z" class="AJ"/></g><g fill="#d2aa39"><path d="M77.3 60.6h3.76v1.86H77.3zM60.6 48.25h1.86V52H60.6zm13.04 4.6h3.76v1.85h-3.76zm-17.2-4.6h1.86V52h-1.86zm-17.78 4.83h1.86v3.76h-1.86zM46.88 52H45v-3.75h1.86V52zm-8.7 60.24H34.4v-1.86h3.76zM34 170.22v-3.7h1.86v3.7H34zm10.16-3.72v3.7h-1.9v-3.7h1.9zm-15.38-43.6h1.86v3.76h-1.86z" class="AP"/><path d="M34.77 163.13V159h8.6v4.1h-8.6z" stroke-width=".3"/><path d="M29.5 84.4h1.86v3.7H29.5zm36.27 58H63.9v-3.72h1.86zm-17.3-94.15h1.9V52h-1.9zm3.52 0h1.86V52H52zm18.57 37.1h3.75v1.86h-3.75zM28.37 46.8H26.5v-3.76h1.86v3.76zm3.43 0H30v-3.76h1.86v3.76zm10.3 37.6H44v3.7h-1.9zm-3.44 0h1.86v3.7h-1.86zm22.8 52.04v1.86h-3.7v-1.86zm0-3.44v1.86h-3.7V133z" class="AP"/><path d="M74.23 174.73h4.9v11.15h-4.9z" stroke-width=".3"/></g></g></g><path d="M80.3 66.5h1.1v1.1h-1.1zm-3.43 0H78v1.1h-1.1zm0 4.18H78v1.1h-1.1zm3.43 0h1.1v1.1h-1.1z" fill="#b5b6b6"/><g class="w"><g class="AL"><g class="AP"><path d="M52.45 91.16h1.85v3.74h-1.85zM39.8 92.18v3.74h-1.9v-3.74zm-5.2 3.74h-1.9v-3.74h1.9zm14.57 21.38v1.9h-3.74v-1.9zm24.67 31.24H72v3.74h1.85zm15 16.86H87v-3.7h1.84zm-57.97-11.6h-3.74v-1.9h3.74zm41.93 4.27v-1.85h3.7v1.85h-3.7zm-45.67-14.94h3.74V145h-3.74zm44.67-27.6h1.9v3.74h-1.9zm8.83 0h1.85v3.74h-1.85zm1.85-15.23h-1.85v-3.73h1.85zM71.8 96.58h1.9v3.73h-1.9zM54.35 127.2v-3.7h1.85v3.7zm-5.7 3.43v-3.7h1.85v3.7z" fill="#676767"/><path d="M77.27 66.12H81V68h-3.73zm0 4.18H81v1.85h-3.73z" fill="#818181"/><path d="M63.68 131.43H60v-1.85h3.7zm-1.06-4.23v-3.7h1.85v3.7zm-3.44 0v-3.7H61v3.7z" fill="#676767"/></g><path d="M82 175h4.67v10.6H82z" fill="#989898" stroke-width=".28"/></g><g stroke="#fff" stroke-width=".73" class="AF AG"><path d="M24.47 188.5v-2.93m0-.01h1.47m0 0l.5.52m.01 0v.92"/><path d="M26.45 187l-.5.5m-.01.04h-1.47m.95 0l1 1m3.18-.04h-2"/><path d="M27.62 188.5l2-2m-.02.02v-.44m0 0l-.52-.52m-.95 0l-.5.52m3.2 2.42v-.5m0 0h.44"/><path d="M31.28 188v.5m0 0h-.44m1.6-1.98l.95-1m0 .04v2.93m-.95.01h1.9m-9.88-4.5v-2.9m0 0l1 1m-.05-.05l1-1m.03.05v2.9m2.63-2.9h-.95m0 0l-.5.44m-.01 0v2"/><path d="M27.62 183.5l.5.52m.01-.02h.95m0 0l.52-.52m0 .02v-2m0 .04l-.52-.44m1.76 0v2.9m0 0h1.46m0 0l.52-.52"/><path d="M32.82 183.5v-2m0 .04l-.52-.44m0 0h-1.46m3.16 0v2.4"/><path d="M34 183.5l.5.52m0-.02h1m-.05 0l.5-.52m.05.02v-2.4m1.2 0v2.9m0 0h2m3.13-2.9h-2m.03 0v2.9"/><path d="M40.36 184h2m-2-1.44h1m-14.9-5.5l-.5-.5m-.01-.01h-1m-.04 0l-.44.5m.01.01v2m0-.02l.44.44m-.01.01h1m.04 0l.5-.44m2.64-2.5h-.95m0 0l-.5.5m-.01.01v2"/><path d="M27.62 179.05l.5.44m.01.01h.95m0 0l.52-.44m0-.01v-2m0 .02l-.52-.5m1.76 2.93v-2.93m0-.01h1.46m0 0l.52.5"/><path d="M32.82 177.07v1m0-.07l-.52.5m0 .04h-1.46m.96 0l1 1m3.2-2.98h-2m0 0v2.93"/><path d="M34 179.5h2m-2-1.5h1m7.33 1.5h-2m.03 0l2-1.9m-.03 0v-.52m0-.01l-.5-.5m-.01-.01h-1m.05 0l-.5.5M4.42 29.45l1-1"/><path d="M5.37 28.43v2.92m-.95 0h2M2.8 161.12l.95-1m.01.05v2.92m-.96.01h2m2.7 0v-2.92"/><path d="M7.5 160.17L6 161.63m0 0h1.9m99.57-.5l1-1m.03.05v2.92m-1.03.01h2m3.2-2.93h-2"/><path d="M110.7 160.17v1.46m0 0l1-.5m-.06-.01h.5m.01 0l.52.5m0 .01v1m0-.05l-.52.5m0 .02h-1m.05 0l-.5-.5m-1.25-131.25h-2m.02 0l2-1.9m-.02 0v-.5m0-.01l-.52-.5m0-.01h-1m.07 0l-.5.5m3.2.01l.5-.5m0-.01h1"/><path d="M112.15 28.43l.52.5m0 .01v.5m0 .01l-.52.44m0 .01l.52.5m0 0v.5m0 0l-.52.44m0 .01h-1m.05 0l-.5-.44"/><path d="M110.7 30.9v-.5m0 0l.5-.5m0 0l-.5-.44m0-.01v-.5m.5.95h1m-2.75 125.5l-.52.5m0 .02v1m0-.05l.52.52m0 .01h2m-.03 0l.44-.52m0-.01v-1m0 .05l-.44-.5m0-.02h-1m-.02 0v1m1.46-2.23h-2.93m0 0l2.93-2"/><path d="M111.86 152.2h-2.93m0-1.2h2.93m0 0v-1.47m0 .02l-.44-.5m0-.05h-2m.03 0l-.52.5m-17.56-.9h2m-.03 0l1-1m-.04-.02l-1-1m.04.05h-2m.03-1.25h2.93m0 0v-1.46m0 0l-.44-.5m0-.02h-2m.02 0l-.5.5m-.01.02v1.46m0-3.14h2.93m0 0v-1.47m0 0l-.44-.5m0-.01h-2"/><path d="M91.88 140.26l-.5.5m-.01.01v1.47m17.56 7.3V151"/></g><g class="AJ AL"><g fill="#656565"><path d="M49.65 109.45H50l1.1-1.1v-9.22L50 98h-2.2l-1.1 1.1v9.22l1.1 1.1h1.83z"/><path d="M54 109.45h.37l1.1-1.1v-9.22L54.4 98h-2.2l-1.1 1.1v9.22l1.1 1.1H54zm4.43 0h.37l1.1-1.1v-9.22L58.8 98h-2.2l-1.1 1.1v9.22l1.1 1.1h1.82z"/><path d="M62.82 109.45h.37l1.1-1.1v-9.22L63.2 98H61l-1.1 1.1v9.22l1.1 1.1h1.83z"/><path d="M67.22 109.45h.36l1.1-1.1v-9.22L67.58 98h-2.2l-1.1 1.1v9.22l1.1 1.1h1.83z"/></g><path d="M48.26 100.88h1.32v1.32h-1.32zm0 4.4h1.32v1.32h-1.32zm4.4 0H54v1.32h-1.35zm4.35 0h1.32v1.32H57zm4.43 0h1.32v1.32h-1.32zm4.4 0h1.32v1.32h-1.32zm-8.78-4.4h1.3v1.32h-1.3zm4.4 0h1.3v1.32h-1.3zm4.4 0h1.32v1.32h-1.32zm-16.18-6l-.36-.66h-.66l-.37.66V98h1.4zm8.78 0l-.36-.66h-.66l-.37.66V98h1.38zm4.4 0l-.36-.66h-.66l-.37.66V98h1.4zm4.38 0l-.36-.66h-.66l-.37.66V98h1.38zm-1.38 17.72l.37.66h.66l.36-.66v-3.14h-1.38zm-4.38 0l.36.66h.66l.37-.66v-3.14h-1.4zm-4.4 0l.36.66h.66l.37-.66v-3.14h-1.4zm-4.4 0l.37.66h.66l.36-.66v-3.15h-1.4zm-4.4 0l.37.66h.65l.37-.66v-3.15h-1.4z" class="AQ"/><g class="AG AH"><path d="M77.68 106.66v-1.4"/><path d="M77.68,105.27H76.8"/><path d="M76.8 105.27v1.4"/></g><path d="M77.9,108.05a.66.66,0,0,1-1.32,0,.66.66,0,1,1,1.32,0Z" class="AF"/><g class="AG AH"><path d="M75.4 106.66v-1.4"/><path d="M75.4 105.27h-.88"/><path d="M74.53 105.27v1.4m-1.4-.01v-1.4"/><path d="M73.14,105.27h-.87"/><path d="M72.27 105.27v1.4m4.53 4.46v1.4"/><path d="M76.8,112.52h.88"/><path d="M77.68 112.52v-1.4m-3.15.01v1.4"/><path d="M74.53,112.52h.88"/><path d="M75.4 112.52v-1.4m-3.13.01v1.4"/><path d="M72.27,112.52h.87"/><path d="M73.14 112.52v-1.4"/></g><path d="M73.14,106.66h-1.9v4.47h7.47v-4.47H73.14Z" class="AI"/><path d="M73.14 106.66v-1.4h-.87v1.4zm2.26 0v-1.4h-.88v1.4zm2.28 0v-1.4h-.88v1.4zm-5.4 4.47v1.4h.87v-1.4zm2.27 0v1.4h.88v-1.4zm2.26 0v1.4h.88v-1.4z" class="AH"/><g class="AD AG"><path d="M9.47,46.28V48.7"/><path d="M9.47,48.7V63.85"/><path d="M9.47 63.85v2.4m0 .01V81.4"/><path d="M9.47 81.4v2.42m0 .01V99"/><path d="M9.47,99v2.42"/><path d="M9.47,101.4v15.07"/><path d="M9.47,116.47V119"/><path d="M9.47 119v15"/><path d="M9.47 134v2.4"/></g><path d="M9.47 35.9v121.34h8.7v-123h-8.7v1.66z" fill="#1f2020"/><g class="AG"><path d="M9.47,151.6V154" class="AD"/><path d="M9.47,154v3.22" class="AF"/><g class="AD"><path d="M18.18,145.24v-2.42"/><path d="M18.18,142.82V127.74"/><path d="M18.18,127.74v-2.48"/><path d="M18.18,125.26V110.18"/><path d="M18.18 110.18v-2.5"/><path d="M18.18 107.7V92.6"/><path d="M18.18 92.6v-2.4"/><path d="M18.18,90.2V75.05"/><path d="M18.18,75.05V72.63"/><path d="M18.18,72.63V57.48"/><path d="M18.18 57.48v-2.4"/></g></g><path d="M20.9 37.5v2.42h-2.7V37.5h2.7z" class="AD"/><g class="AG"><path d="M20.9 55.07v2.4m-2.72-2.4h2.7m-2.7 2.4h2.7m.02 15.15v2.42m-2.72-2.42h2.7m-2.7 2.42h2.7m.02 15.15v2.4m-2.72-2.4h2.7m-2.7 2.4h2.7m.02 15.1v2.5m-2.72-2.5h2.7m-2.7 2.48h2.7m.02 15.08v2.48m-2.72-2.48h2.7m-2.7 2.48h2.7m.02 15.08v2.42m-2.72-2.42h2.7m-2.7 2.42h2.7M6.76 48.7v-2.42" class="AD"/><path d="M9.47 48.7h-2.7m2.7-2.42h-2.7m0 19.98v-2.4" class="AD"/><path d="M9.47 66.26h-2.7m2.7-2.4h-2.7m0 19.98V81.4" class="AD"/><path d="M9.47 83.83h-2.7m2.7-2.43h-2.7m-.01 20V99" class="AD"/><path d="M9.47 101.4h-2.7m2.7-2.4h-2.7m0 20v-2.5" class="AD"/><path d="M9.47 119h-2.7m2.7-2.53h-2.7m0 19.98V134" class="AD"/><path d="M9.47 136.45h-2.7m2.7-2.45h-2.7m0 20v-2.4" class="AD"/><path d="M9.47 154h-2.7m2.7-2.4h-2.7" class="AD"/><g class="AF"><path d="M16.06 62.82H11.6m0 0v4.47"/><path d="M11.6 67.3h4.47m-.01 0v-4.47m0 8.77H11.6m0 0v4.46m0 .01h4.47m-.01 0V71.6m0 8.8H11.6m0 0v4.46m0-.01h4.47m-.01 0V80.4m0 8.77H11.6m0 0v4.47m0 0h4.47m-.01 0v-4.47m0 8.83H11.6m0 0v4.46m0-.04h4.47m-.01 0V98m0 8.74H11.6m0 0v4.46m0 0h4.47m-.01 0v-4.46m0 8.78H11.6m0 0V120m0 0h4.47m-.01 0v-4.47m0 8.77H11.6m0 0v4.47m0 0h4.47m-.01 0v-4.47m0 8.8H11.6m0 0v4.46m0-.01h4.47m-.01 0v-4.46m0 8.78H11.6m0 0v4.46"/><path d="M11.6 146.33h4.47m-.01 0v-4.46"/></g></g><path d="M16.05 49.72v-4.46H11.6v4.46zm.01 8.78V54H11.6v4.5zm-.01 8.8v-4.47H11.6v4.47zm.01 8.77V71.6H11.6v4.47zm-.01 8.78V80.4H11.6v4.46zm.01 8.78v-4.46H11.6v4.46zm-.01 8.8V98H11.6v4.46zm.01 8.78v-4.46H11.6v4.46zm-.01 8.8v-4.47H11.6V120zm.01 8.77v-4.47H11.6v4.47zm-.01 8.78v-4.46H11.6v4.46zm.01 8.78v-4.46H11.6v4.46zm-.01 8.8v-4.47H11.6v4.47zm.01-114.18v-4.46H11.6v4.46z" class="AM"/><path d="M6.76 154v-2.4m0-15.07V134m0-15v-2.5m0-15.1V99m0-15.17V81.4m0-15.14v-2.4" class="AD AG"/><path d="M9.47 46.28v2.42h-2.7v-2.42h2.7z" class="AD"/><g class="AG AD"><path d="M9.47 63.85v2.4"/><path d="M6.76 63.85h2.7m-2.7 2.4h2.7m.01 15.14v2.42m-2.7-2.42h2.7m-2.7 2.43h2.7M9.47 99v2.42M6.76 99h2.7m-2.7 2.4h2.7m.01 15.07V119m-2.7-2.53h2.7M6.76 119h2.7m.01 15v2.5m-2.7-2.5h2.7m-2.7 2.53h2.7m.01 15.07v2.4m-2.7-2.4h2.7m-2.7 2.4h2.7"/></g><path d="M20.9 37.5v2.42h-2.7V37.5h2.7zm0 17.56v2.42h-2.7v-2.42h2.7zm-.02 17.57v2.42h-2.7v-2.42h2.7zm.02 17.57v2.42h-2.7V90.2h2.7zm0 17.5v2.4h-2.7v-2.4h2.7zm-.02 17.56v2.4h-2.7v-2.4h2.7zm.02 17.56v2.4h-2.7v-2.4h2.7zM9.47 46.28v2.42h-2.7v-2.42h2.7zm0 17.57v2.4h-2.7v-2.4h2.7zm0 17.55v2.42h-2.7V81.4h2.7zm0 17.6v2.4h-2.7V99h2.7zm0 17.47v2.42h-2.7v-2.42h2.7zm0 17.53v2.4h-2.7V134h2.7zm0 17.6v2.4h-2.7v-2.4h2.7z" class="AQ"/><g class="AD AG"><path d="M97.26 46.47v2.4m0 .01V64"/><path d="M97.26 64v2.42m0 .03V81.6"/><path d="M97.26,81.6V84"/><path d="M97.26,84V99.16"/><path d="M97.26,99.16v2.42"/><path d="M97.26,101.58v15.08"/><path d="M97.26,116.66v2.48"/><path d="M97.26,119.14v15.08"/><path d="M97.26,134.22v2.42"/></g><path d="M97.26 36.1v121.33H106v-123h-8.74v1.63z" fill="#1f2020"/><g class="AG"><path d="M97.26 151.8v2.4" class="AD"/><path d="M97.26,154.2v3.22" class="AF"/><g class="AD"><path d="M106,145.42V143"/><path d="M106,143V127.93"/><path d="M106 127.93v-2.5"/><path d="M106 125.44v-15.08m0-2.5V92.8"/><path d="M106,92.8V90.38"/><path d="M106,90.38V75.23"/><path d="M106 75.23V72.8"/><path d="M106 72.8V57.66"/><path d="M106 57.66v-2.4"/></g></g><path d="M108.68 37.68v2.42H106v-2.42h2.7z" class="AD"/><g class="AG"><path d="M108.68 55.25v2.4" class="AD"/><path d="M106 55.25h2.7m-2.7 2.4h2.7m-.02 15.14v2.42" class="AD"/><path d="M106 72.8h2.7m-2.7 2.43h2.7m-.02 15.15v2.42" class="AD"/><path d="M106 90.38h2.7M106 92.8h2.7m-.02 32.64v2.5" class="AD"/><path d="M106 125.44h2.7m-2.7 2.5h2.7m-.02 15.07v2.42" class="AD"/><path d="M106 143h2.7m-2.7 2.42h2.7M94.55 48.88v-2.4m2.7 2.4h-2.7m2.7-2.4h-2.7m-.01 19.98V64m2.7 2.45h-2.7m2.7-2.45h-2.7m-.01 20v-2.4m2.7 2.4h-2.7m2.7-2.4h-2.7m-.01 19.98v-2.42m2.7 2.42h-2.7m2.7-2.42h-2.7m-.01 19.98v-2.48m2.7 2.48h-2.7m2.7-2.48h-2.7m-.01 19.98v-2.42m2.7 2.42h-2.7m2.7-2.42h-2.7m-.01 19.98v-2.4m2.7 2.4h-2.7" class="AD"/><path d="M97.26 151.8h-2.7" class="AD"/><g class="AM"><path d="M103.85,63H99.38"/><path d="M99.38 63v4.46m0 .01h4.47"/><path d="M103.85 67.47V63m0 8.8h-4.47"/><path d="M99.38 71.8v4.46"/><path d="M99.38,76.25h4.47"/><path d="M103.85 76.25V71.8m0 8.77h-4.47"/><path d="M99.38,80.57V85"/><path d="M99.38,85h4.47"/><path d="M103.85 85v-4.43m0 8.8h-4.47"/><path d="M99.38,89.36v4.46"/><path d="M99.38,93.82h4.47"/><path d="M103.85 93.82v-4.46m0 8.78h-4.47"/><path d="M99.38,98.14v4.46"/><path d="M99.38,102.6h4.47"/><path d="M103.85 102.6v-4.46m0 8.78h-4.47"/><path d="M99.38 106.92v4.47m0 .01h4.47"/></g></g><path d="M103.85 111.4h0z" fill="#858585"/><g class="AG AM"><path d="M103.85,115.7H99.38"/><path d="M99.38,115.7v4.47"/><path d="M99.38,120.17h4.47"/><path d="M103.85 120.17v-4.47m0 8.8h-4.47"/><path d="M99.38 124.5v4.5"/><path d="M99.38,129h4.47"/><path d="M103.85 129v-4.46m0 8.73h-4.47"/><path d="M99.38,133.27v4.46"/><path d="M99.38,137.73h4.47"/><path d="M103.85 137.73v-4.46m0 8.78h-4.47"/><path d="M99.38,142.05v4.47"/><path d="M99.38,146.52h4.47"/><path d="M103.85,146.52v-4.47"/></g><path d="M103.84 49.9v-4.47h-4.46v4.47zm.01 8.8v-4.47h-4.47v4.47zm-.01 8.77V63h-4.46v4.46zm.01 8.78V71.8h-4.47v4.46zm-.01 8.75v-4.43h-4.46V85zm.01 8.82v-4.47h-4.47v4.47zm-.01 8.78v-4.46h-4.46v4.46zm0 17.57v-4.47h-4.46v4.47zm.01 8.83v-4.47h-4.47V129zm-.01 8.73v-4.46h-4.46v4.46zm.01 8.77v-4.46h-4.47v4.46zm-.01 8.8v-4.46h-4.46v4.46zm.01-114.18v-4.46h-4.47v4.46z" class="AM"/><path d="M94.55 154.2v-2.4m0-15.1v-2.5m0-15.06v-2.48m0-15.08v-2.42m0-15.16v-2.4m0-15.15V64" class="AD AG"/><path d="M97.26 46.47v2.4h-2.7v-2.4h2.7z" class="AD"/><path d="M97.26 64v2.42M94.55 64h2.7m-2.7 2.45h2.7m.01 15.15V84m-2.7-2.4h2.7m-2.7 2.4h2.7m.01 15.16v2.42m-2.7-2.42h2.7m-2.7 2.42h2.7m.01 15.08v2.48m-2.7-2.48h2.7m-2.7 2.48h2.7m.01 15.08v2.5m-2.7-2.5h2.7m-2.7 2.48h2.7m.01 15.1v2.4m-2.7-2.4h2.7m-2.7 2.4h2.7" class="AG AD"/><path d="M108.68 37.68v2.42H106v-2.42h2.7zm0 17.57v2.4H106v-2.4h2.7zm0 17.55v2.42H106V72.8h2.7zm0 17.58v2.4H106v-2.4h2.7zm0 35.06v2.4H106v-2.4h2.7zm0 17.56v2.42H106V143h2.7zM97.26 46.47v2.4h-2.7v-2.4h2.7zm0 17.53v2.4h-2.7V64h2.7zm0 17.6V84h-2.7v-2.4h2.7zm0 17.56v2.42h-2.7v-2.42h2.7zm0 17.5v2.42h-2.7v-2.42h2.7zm0 17.57v2.42h-2.7v-2.42h2.7zm0 17.56v2.42h-2.7v-2.42h2.7z" class="AQ"/></g></g><defs ><path id="B" d="M12 190.7l-1.83-.37-1.76-.66-1.68-.88-1.47-1.17-1.35-1.3-1.17-1.47-.88-1.68-.66-1.76-.37-1.83-.14-1.83V13.86L.83 12l.37-1.83.66-1.76.88-1.6L3.9 5.22l1.3-1.3L6.7 2.8l1.68-.95 1.76-.66L12 .83 13.9.7h87.76l1.9.14 1.83.37 1.75.66 1.6 1 1.54 1.1 1.32 1.3 1.1 1.54 1 1.6.66 1.76.36 1.83.15 1.9v163.82l-.15 1.83-.36 1.83-.66 1.76-1 1.68-1.1 1.47-1.32 1.3-1.54 1.17-1.6.88-1.75.66-1.83.37-1.9.14h-87.8z"/><path id="C" d="M15.6 162.63a1.76 1.76 0 1 1-1.75-1.76 1.75 1.75 0 0 1 1.75 1.76z"/><path id="D" d="M103.37 162.63a1.76 1.76 0 1 1-1.76-1.76 1.76 1.76 0 0 1 1.76 1.76z"/><path id="E" d="M16.64 91.34a2.78 2.78 0 1 1-2.78-2.78 2.78 2.78 0 0 1 2.78 2.78z"/><path id="F" d="M16.64 82.56a2.78 2.78 0 1 1-2.78-2.78 2.77 2.77 0 0 1 2.78 2.78z"/><path id="G" d="M15.6 100.12a1.76 1.76 0 1 1-1.75-1.75 1.75 1.75 0 0 1 1.75 1.75z"/><path id="H" d="M104.4 100.12a2.78 2.78 0 1 1-2.79-2.78 2.79 2.79 0 0 1 2.79 2.78z"/><path id="I" d="M104.4 117.7a2.78 2.78 0 1 1-2.79-2.78 2.78 2.78 0 0 1 2.79 2.78z"/><path id="J" d="M103.37 117.7a1.76 1.76 0 1 1-1.76-1.75 1.76 1.76 0 0 1 1.76 1.75z"/><path id="K" d="M103.37 126.48a1.76 1.76 0 1 1-1.76-1.76 1.75 1.75 0 0 1 1.76 1.76z"/><path id="L" d="M68.9 176.46a2.49 2.49 0 1 1-2.49-2.46 2.48 2.48 0 0 1 2.49 2.46z"/><path id="M" d="M28.35 38.5a.88.88 0 1 1-.88-.88.87.87 0 0 1 .88.88z"/><path id="N" d="M44.23 48.38a.66.66 0 1 1-.65-.66.66.66 0 0 1 .65.66z"/><path id="O" d="M77.83 59.07a.37.37 0 0 1-.37.36.36.36 0 0 1-.36-.36.37.37 0 0 1 .36-.37.38.38 0 0 1 .37.37z"/><path id="P" d="M81.27 73.63a.38.38 0 0 1-.37.37.37.37 0 0 1 0-.74.38.38 0 0 1 .37.37z"/><path id="Q" d="M71.1 83.8a.36.36 0 0 1-.36.37.37.37 0 1 1 0-.73.36.36 0 0 1 .36.36z"/><path id="R" d="M37.8 84.53a.66.66 0 1 1-1.31 0 .66.66 0 0 1 1.31 0z"/><path id="S" d="M33.7 43.18a.37.37 0 0 1-.36.37.38.38 0 0 1-.37-.37.37.37 0 0 1 .37-.36.36.36 0 0 1 .36.36z"/><path id="T" d="M40.2 59.8a.66.66 0 1 1-.66-.66.67.67 0 0 1 .66.66z"/><path id="U" d="M36.7 92.3a.37.37 0 1 1-.37-.37.37.37 0 0 1 .37.37z"/><path id="V" d="M41.53 111.32a.37.37 0 1 1-.37-.36.37.37 0 0 1 .37.36z"/><path id="W" d="M90.78 144a.36.36 0 0 1-.36.36.37.37 0 1 1 0-.73.36.36 0 0 1 .36.37z"/><path id="X" d="M66.85 166.58a.66.66 0 1 1-.66-.66.66.66 0 0 1 .66.66z"/><path id="Y" d="M92.83 144a.37.37 0 1 1-.37-.37.36.36 0 0 1 .37.37z"/><path id="Z" d="M32.9 170.1a.37.37 0 1 1-.36-.36.36.36 0 0 1 .36.36z"/><path id="a" d="M39.7 170.1a.66.66 0 1 1-1.32 0 .66.66 0 0 1 1.32 0z"/><path id="b" d="M46 170.1a.37.37 0 0 1-.37.37.37.37 0 0 1 0-.73.37.37 0 0 1 .37.36z"/><path id="c" d="M39.92 79.34a.37.37 0 1 1-.37-.37.38.38 0 0 1 .37.37z"/><path id="d" d="M69.63 63.75a.66.66 0 1 1-.66-.66.65.65 0 0 1 .66.66z"/><path id="e" d="M62 139.8a.66.66 0 1 1-.66-.65.65.65 0 0 1 .66.65z"/><path id="f" d="M65.17 144.63a.37.37 0 0 1-.37.36.37.37 0 0 1 0-.73.37.37 0 0 1 .37.37z"/><path id="g" d="M57.56 81.54a.66.66 0 0 1-.67.65.65.65 0 0 1-.65-.65.66.66 0 0 1 .65-.67.67.67 0 0 1 .67.67z"/><path id="h" d="M68.1 65.5a.37.37 0 0 1-.37.36.37.37 0 1 1 0-.73.37.37 0 0 1 .37.37z"/><path id="i" d="M34.36 98.15a.67.67 0 0 1-.67.66.66.66 0 0 1 0-1.32.67.67 0 0 1 .67.66z"/><path id="j" d="M71.1 188.17l.22.22v.22l-.22.22H66l-.2-.22v-.22l.2-.22z"/></defs></svg>