<svg xmlns="http://www.w3.org/2000/svg" xmlns:xlink="http://www.w3.org/1999/xlink" viewBox="0 0 239.75 285.67" xmlns:v="https://vecta.io/nano"><style><![CDATA[.A{isolation:isolate}.cls-15,.B{mix-blend-mode:multiply}.s{fill:#e6e6e6}.t{fill:gray}.u{fill:none}.v{stroke-miterlimit:10}.w{fill:#ccc}.x{fill:#770b0d}.y{stroke:#e0341b}.z{stroke-width:1.11}.AA{fill:#fff}.AB{fill:#e26558}.AC{fill:#ef9f9c}]]></style><defs><radialGradient id="A" cx="-1756.78" cy="-8647.78" r="139.4" gradientTransform="matrix(-.01 .72 -.15 -.08 -1213.37 774.6)" xlink:href="#f"><stop offset="0" stop-color="#999"/><stop offset=".19" stop-color="#bababa"/><stop offset=".4" stop-color="#d8d8d8"/><stop offset=".61" stop-color="#eee"/><stop offset=".81" stop-color="#fbfbfb"/><stop offset="1" stop-color="#fff"/></radialGradient><linearGradient id="B" x1="7.07" x2="182.53" y1="65.93" y2="175.56" xlink:href="#f"><stop offset=".1" stop-color="#e26558"/><stop offset=".24" stop-color="#de6255"/><stop offset=".38" stop-color="#d2594e"/><stop offset=".52" stop-color="#bf4941"/><stop offset=".66" stop-color="#a3342f"/><stop offset=".79" stop-color="#801918"/><stop offset=".84" stop-color="#710d0e"/></linearGradient><linearGradient id="C" x1="51.03" x2="60.57" y1="20.82" y2="20.82" xlink:href="#B"/><linearGradient id="D" x1="121.84" x2="131.38" y1="62" y2="62" xlink:href="#B"/><linearGradient id="E" x1="51.03" x2="60.57" y1="180.72" y2="180.72" xlink:href="#B"/><linearGradient id="F" x1="102.896" x2="109.568" y1="121.45" y2="125.285" xlink:href="#f"><stop offset="0" stop-color="#333"/><stop offset=".54" stop-color="#3f3f3f"/><stop offset="1" stop-color="#4d4d4d"/></linearGradient><linearGradient id="G" x1="77.465" x2="84.13" y1="103.707" y2="107.537" xlink:href="#F"/><linearGradient id="H" x1="66.791" x2="94.187" y1="180.556" y2="196.301" xlink:href="#f"><stop offset="0" stop-color="gray"/><stop offset="1" stop-color="#e6e6e6"/></linearGradient><linearGradient id="I" x1="70.21" x2="90.794" y1="78.021" y2="89.851" xlink:href="#F"/><linearGradient id="J" x1="48.817" x2="43.206" y1="29.134" y2="25.909" xlink:href="#F"/><linearGradient id="K" x1="50.97" x2="60.52" y1="180.68" y2="180.68" xlink:href="#B"/><linearGradient id="L" x1="121.5" x2="131.5" y1="221.5" y2="221.5" xlink:href="#B"/><linearGradient id="M" x1="199.681" x2="238.24" y1="162.856" y2="185.016" xlink:href="#F"/><linearGradient id="N" x1="192.26" x2="230.819" y1="167.171" y2="189.331" xlink:href="#F"/><linearGradient id="O" x1="189.94" x2="264.57" y1="149.52" y2="149.52" xlink:href="#f"><stop offset="0" stop-color="#4d4d4d"/><stop offset=".46" stop-color="#3f3f3f"/><stop offset="1" stop-color="#333"/></linearGradient><linearGradient id="P" x1="2994.497" x2="3004.972" y1="-1314.062" y2="-1308.042" xlink:href="#F"/><linearGradient id="Q" x1="201.577" x2="216.693" y1="169.301" y2="178.138" xlink:href="#O"/><linearGradient id="R" x1="2922.574" x2="3010.557" y1="-1347.037" y2="-1296.471" xlink:href="#H"/><linearGradient id="S" x1="187.802" x2="192.213" y1="192.21" y2="194.745" xlink:href="#F"/><linearGradient id="T" x1="187.802" x2="192.213" y1="200.478" y2="203.014" xlink:href="#F"/><linearGradient id="U" x1="168.409" x2="178.014" y1="182.1" y2="187.62" xlink:href="#F"/><linearGradient id="V" x1="158.16" x2="200.04" y1="167.09" y2="167.09" xlink:href="#f"><stop offset=".03" stop-color="gray"/><stop offset="1" stop-color="#e6e6e6"/></linearGradient><linearGradient id="W" x1="190.51" x2="214.06" y1="200.79" y2="196.55" xlink:href="#V"/><linearGradient id="X" x1="160.45" x2="160.23" y1="201.35" y2="214.42" xlink:href="#f"><stop offset="0" stop-color="#ef928b"/><stop offset=".97" stop-color="#e26558"/></linearGradient><linearGradient id="Y" x1="171.66" x2="171.44" y1="207.82" y2="220.89" xlink:href="#X"/><linearGradient id="Z" x1="182.93" x2="182.7" y1="214.39" y2="227.46" xlink:href="#X"/><linearGradient id="a" x1="201.196" x2="197.886" y1="89.394" y2="91.313" xlink:href="#f"><stop offset="0" stop-color="#e26558"/><stop offset="1" stop-color="#e0341b"/></linearGradient><linearGradient id="b" x1="120.217" x2="116.907" y1="134.937" y2="136.856" xlink:href="#a"/><linearGradient id="c" x1="242.177" x2="236.192" y1="204.562" y2="194.242" xlink:href="#a"/><linearGradient id="d" x1="159.976" x2="153.999" y1="259.315" y2="249.01" xlink:href="#a"/><path id="e" d="M107.64 155.94l-2.17-1.25v-1.36l2.17 1.26v1.34z"/><linearGradient id="f" gradientUnits="userSpaceOnUse"/></defs><g class="A"><g><g><ellipse cx="96.2" cy="229.36" class="B" rx="20.47" ry="109.56" transform="matrix(.487403 -.873177 .873177 .487403 -150.96 201.57)" opacity=".5" fill="url(#A)"/><path d="M136.52 79.98l-2-1.14v-2.28l2 1.15V80zm0 8.82l-2-1.13V85.4l2 1.13v2.28zm0 8.84l-2-1.14v-2.28l2 1.14v2.28zm0 8.83l-2-1.14v-2.28l2 1.14v2.27zm0 8.83l-2-1.15v-2.27l2 1.14v2.28zm0 8.83l-2-1.15v-2.27l2 1.15v2.28zm0 8.83l-2-1.15v-2.26l2 1.14v2.28zm0 8.84l-2-1.16v-2.27l2 1.14v2.3zm0 8.82l-2-1.15v-2.27l2 1.14v2.28zm0 8.83l-2-1.15v-2.27l2 1.14v2.28zm0 8.83l-2-1.15v-2.27l2 1.14v2.28zm0 8.82l-2-1.14v-2.27l2 1.13v2.28zm0 8.84l-2-1.15v-2.28l2 1.14v2.28zm0 8.82l-2-1.14v-2.27l2 1.14v2.26zm0 8.84l-2-1.15v-2.27l2 1.14v2.27zm0 8.83l-2-1.15V209l2 1.15v2.28zm0 8.82l-2-1.14v-2.26l2 1.14v2.27zm0 8.83l-2-1.14v-2.28l2 1.15v2.28z" class="AA"/><path d="M136 48.5L53.62.92C51-.57 48.68-.2 47.27 1.65a8.37 8.37 0 0 0-1.44 5.17v171.3c0 5.73 3.5 12.4 7.8 14.88L136 240.55a5.26 5.26 0 0 0 4.5.68c2-.74 3.3-3.08 3.3-6.57V63.36c-.03-5.73-3.52-12.36-7.8-14.87zM127.9 69a13.34 13.34 0 0 1-6.05-10.45c0-3.84 2.7-5.4 6.06-3.46a13.36 13.36 0 0 1 6.1 10.4c0 3.84-2.75 5.4-6.1 3.5z" fill="url(#B)"/><path d="M134.14 49.9L51.77 2.33a5.28 5.28 0 0 0-4.5-.7C45.3 2.4 44 4.75 44 8.23v171.3c0 5.74 3.5 12.4 7.78 14.88l82.36 47.6c2.63 1.5 5 1.12 6.35-.72a8.43 8.43 0 0 0 1.42-5.16V64.76c0-5.76-3.48-12.4-7.78-14.87zm-6.23 5.15A13.36 13.36 0 0 1 134 65.5c0 3.84-2.72 5.4-6.06 3.46a13.34 13.34 0 0 1-6.06-10.45c-.03-3.83 2.68-5.38 6.03-3.45z" class="AB"/><ellipse cx="57.09" cy="20.82" rx="4.93" ry="8.54" transform="matrix(.863307 -.504678 .504678 .863307 -2.7 31.66)" class="AA"/><path d="M58.68 27.77a13.36 13.36 0 0 1-6.06-10.45c0-2.35 1-3.84 2.58-4.2-2.42-.48-4.17 1.12-4.17 4.2a13.34 13.34 0 0 0 6.06 10.45 4.85 4.85 0 0 0 3.47.74 6.36 6.36 0 0 1-1.9-.73z" fill="url(#C)"/><path d="M129.5 69a13.34 13.34 0 0 1-6.06-10.45c0-2.35 1-3.84 2.57-4.2-2.4-.5-4.16 1.1-4.16 4.2A13.36 13.36 0 0 0 127.9 69a4.86 4.86 0 0 0 3.5.74 6.26 6.26 0 0 1-1.9-.74z" fill="url(#D)"/><ellipse cx="57.09" cy="180.72" rx="4.93" ry="8.54" transform="matrix(.863307 -.504678 .504678 .863307 -83.4 53.51)" class="AA"/><path d="M58.68 187.68a13.4 13.4 0 0 1-6.06-10.46c0-2.35 1-3.83 2.58-4.2-2.42-.48-4.17 1.12-4.17 4.2a13.37 13.37 0 0 0 6.06 10.46 4.85 4.85 0 0 0 3.47.74 6.36 6.36 0 0 1-1.9-.74z" fill="url(#E)"/><g class="AA"><ellipse cx="127.9" cy="221.91" rx="4.93" ry="8.54" transform="matrix(.863307 -.504678 .504678 .863307 -94.51 94.88)"/><path d="M136.47 79.94l-2-1.15v-2.3l2 1.14v2.28zm0 8.83l-2-1.15v-2.27l2 1.14v2.27zm0 8.83l-2-1.15v-2.27l2 1.14v2.27zm0 8.82l-2-1.14V103l2 1.15v2.27zm0 8.83l-2-1.14v-2.26l2 1.14v2.27zm0 8.83l-2-1.14v-2.27l2 1.14v2.28zm0 8.82l-2-1.13v-2.27l2 1.14v2.27zm0 8.84l-2-1.14v-2.28l2 1.15v2.27zm0 8.83l-2-1.14v-2.28l2 1.15v2.27zm0 8.83l-2-1.14v-2.28l2 1.15v2.27zm0 8.83l-2-1.14v-2.3l2 1.16v2.27zm0 8.83l-2-1.14v-2.28l2 1.15v2.26zm0 8.84l-2-1.15v-2.28l2 1.15v2.27zm0 8.82l-2-1.14v-2.28l2 1.15v2.27zm0 8.83l-2-1.14v-2.27l2 1.15v2.27zm0 8.83l-2-1.14v-2.28l2 1.15v2.28zm0 8.82l-2-1.13v-2.28l2 1.14v2.27zm0 8.84l-2-1.14v-2.28l2 1.15v2.27z"/></g><path d="M111.02 174.16v-32.7l13.25-7.56v-9.2" class="u v y z"/><path d="M109.96 152.22l-6.8-3.93v-1.36l6.8 3.93v1.35z" class="s"/><path d="M107.64 150.88l-2.17-1.26v-1.34l2.17 1.26v1.34z" class="t"/><path d="M109.96 154.75l-6.8-3.93v-1.35l6.8 3.94v1.35z" class="s"/><path d="M107.64 153.4l-2.17-1.24v-1.35l2.17 1.27v1.34z" class="t"/><path d="M109.96 157.28l-6.8-3.93V152l6.8 3.94v1.34z" class="s"/><use xlink:href="#e" class="t"/><path d="M109.96 159.8l-6.8-3.92v-1.34l6.8 3.93v1.34z" class="s"/><path d="M107.64 158.48l-2.17-1.26v-1.34l2.17 1.25v1.35z" class="t"/><path d="M109.96 162.35l-6.8-3.93v-1.35l6.8 3.93v1.35z" class="s"/><path d="M107.64 161l-2.17-1.25v-1.34l2.17 1.27V161z" class="t"/><path d="M109.96 164.88l-6.8-3.93v-1.34l6.8 3.94v1.34z" class="s"/><use xlink:href="#e" y="7.6" class="t"/><path d="M109.96 167.4l-6.8-3.92v-1.34l6.8 3.93v1.34z" class="s"/><path d="M107.64 166.08l-2.17-1.26v-1.35l2.17 1.26v1.35z" class="t"/><path d="M109.96 169.94l-6.8-3.93v-1.33l6.8 3.93v1.34z" class="s"/><path d="M107.64 168.6l-2.17-1.25V166l2.17 1.26v1.35z" class="t"/><path d="M100.04 174.25v-7.8l1.18.67v7.8l-1.18-.67z" class="s"/><path d="M100.04 171.6v-2.5l1.18.68v2.5l-1.18-.7z" class="t"/><path d="M97.84 172.98v-7.8l1.17.66v7.82l-1.16-.68z" class="s"/><path d="M97.84 170.32v-2.5l1.17.68v2.5l-1.16-.68z" class="t"/><path d="M95.63 171.7v-7.8l1.17.67v7.8l-1.17-.67z" class="s"/><path d="M95.63 169.05v-2.5l1.17.68v2.5l-1.17-.68z" class="t"/><path d="M93.42 170.43v-7.8l1.17.66v7.8l-1.18-.67z" class="s"/><path d="M93.42 167.77v-2.5l1.17.68v2.5l-1.18-.68z" class="t"/><path d="M91.22 169.16v-7.82l1.17.68v7.8l-1.18-.66z" class="s"/><path d="M91.22 166.5V164l1.17.68v2.5l-1.18-.68z" class="t"/><path d="M89 167.88v-7.8l1.18.67v7.8L89 167.9z" class="s"/><path d="M89 165.22v-2.5l1.18.68v2.5l-1.17-.68z" class="t"/><path d="M86.8 166.6v-7.8l1.17.67v7.8l-1.17-.66z" class="s"/><path d="M86.8 163.95v-2.5l1.17.68v2.5l-1.17-.68z" class="t"/><path d="M84.6 165.33v-7.8l1.17.67v7.8l-1.18-.67z" class="s"/><path d="M84.6 162.68v-2.5l1.17.68v2.5l-1.18-.68z" class="t"/><path d="M75.85 148.9l6.8 3.94v1.35l-6.8-3.94v-1.35z" class="s"/><path d="M78.17 150.25l2.17 1.25v1.35l-2.17-1.26v-1.35z" class="t"/><path d="M75.85 146.38l6.8 3.93v1.35l-6.8-3.93v-1.34z" class="s"/><path d="M78.17 147.72l2.17 1.25v1.35l-2.17-1.26v-1.34z" class="t"/><path d="M75.85 143.85l6.8 3.93v1.34l-6.8-3.93v-1.35z" class="s"/><path d="M78.17 145.18l2.17 1.26v1.34l-2.17-1.25v-1.35z" class="t"/><path d="M75.85 141.3l6.8 3.94v1.35l-6.8-3.94v-1.35z" class="s"/><path d="M78.17 142.65l2.17 1.26v1.35L78.17 144v-1.35z" class="t"/><path d="M75.85 138.78l6.8 3.93v1.36l-6.8-3.93v-1.35z" class="s"/><path d="M78.17 140.12l2.17 1.25v1.35l-2.17-1.26v-1.34z" class="t"/><path d="M75.85 136.25l6.8 3.93v1.34l-6.8-3.93v-1.35z" class="s"/><path d="M78.17 137.6l2.17 1.24v1.35l-2.17-1.27v-1.34z" class="t"/><path d="M75.85 133.72l6.8 3.93V139l-6.8-3.94v-1.34z" class="s"/><path d="M78.17 135.05l2.17 1.26v1.35l-2.17-1.25v-1.35z" class="t"/><path d="M75.85 131.18l6.8 3.93v1.36l-6.8-3.93v-1.35z" class="s"/><path d="M78.17 132.52l2.17 1.26v1.34l-2.17-1.25v-1.35z" class="t"/><path d="M85.77 126.88v7.8L84.6 134v-7.8l1.17.68z" class="s"/><path d="M85.77 129.53v2.5l-1.18-.68v-2.5l1.17.68z" class="t"/><path d="M87.97 128.15v7.8l-1.17-.67v-7.8l1.17.67z" class="s"/><path d="M87.97 130.8v2.5l-1.17-.67v-2.5l1.17.68z" class="t"/><path d="M90.18 129.42v7.82l-1.17-.68v-7.8l1.18.66z" class="s"/><path d="M90.18 132.08v2.5L89 133.9v-2.5l1.18.68z" class="t"/><path d="M92.4 130.7v7.8l-1.18-.67v-7.8l1.17.67z" class="s"/><path d="M92.4 133.36v2.5l-1.18-.68v-2.5l1.17.68z" class="t"/><path d="M94.6 131.97v7.8l-1.18-.66v-7.8l1.17.67z" class="s"/><path d="M94.6 134.63v2.5l-1.18-.68v-2.5l1.17.68z" class="t"/><path d="M96.8 133.25v7.8l-1.17-.67v-7.8l1.17.67z" class="s"/><path d="M96.8 135.9v2.5l-1.17-.68v-2.5l1.17.7z" class="t"/><path d="M99 134.52v7.8l-1.16-.66v-7.82l1.17.68z" class="s"/><path d="M99 137.18v2.5l-1.16-.68v-2.5l1.17.68z" class="t"/><path d="M101.22 135.8v7.8l-1.18-.67v-7.8l1.18.67z" class="s"/><path d="M101.22 138.45v2.5l-1.18-.68v-2.5l1.18.68z" class="t"/><path d="M103.15 168.24l-20.5-11.83v-23.5l20.5 11.82v23.52z"/><g class="y z"><g><g class="x"><ellipse cx="124.27" cy="126.02" rx="1.18" ry="2.04" transform="matrix(.863307 -.504678 .504678 .863307 -46.62 79.95)"/><ellipse cx="127.6" cy="142.13" rx="1.18" ry="2.04" transform="matrix(.863307 -.504678 .504678 .863307 -54.29 83.82)"/><ellipse cx="118.52" cy="122.7" rx="1.18" ry="2.04" transform="matrix(.863307 -.504678 .504678 .863307 -45.73 76.59)"/><ellipse cx="111.02" cy="175.44" rx="1.18" ry="2.04" transform="matrix(.863307 -.504678 .504678 .863307 -73.36 80.01)"/></g><path d="M118.52 133.3v-9.15" class="u v"/></g></g><path d="M120.98 131.72l-4.92-2.84v-.97l4.92 2.85v.97z" class="s"/><path d="M119.3 130.76l-1.57-.9v-.98l1.58.9v.98z" class="t"/><path d="M119.82 137.64l6.48 3.74" class="u v y z"/><path d="M121.84 142.62l-6.64-3.84v-7.62l6.64 3.84v7.62z" fill="url(#F)"/><g class="y z"><g><ellipse cx="101.6" cy="123.98" rx="1.18" ry="2.04" transform="matrix(.863307 -.504678 .504678 .863307 -48.68 68.22)" class="x"/><path d="M95.5 120.46l4.76 2.75" class="u v"/><ellipse cx="84.81" cy="114.28" rx="1.18" ry="2.04" transform="matrix(.863307 -.504678 .504678 .863307 -46.09 58.42)" class="x"/><path d="M90.9 117.8l-4.76-2.74" class="u v"/></g></g><path d="M96.52 124.25l-6.64-3.83v-6.4l6.64 3.82v6.4z" fill="url(#G)"/><path d="M68.92 112.06l-.28-.16a4.33 4.33 0 0 1-1.8-3.45v-8.87c0-1.33.8-1.94 1.8-1.37l.28.18a4.3 4.3 0 0 1 1.8 3.45v8.87c0 1.3-.8 1.94-1.8 1.36z" class="s"/><path d="M70.73 108.74l-3.9-2.25v-5.18l3.9 2.25v5.17z" class="t"/><path d="M68.78 98.3l-.14-.07v13.65l.14.1c1.08.62 2 .12 2-1.1v-9.22a4.3 4.3 0 0 0-2-3.37z" class="w"/><g class="y z"><g><ellipse cx="99.36" cy="183.5" rx="1.18" ry="2.04" transform="matrix(.863307 -.504678 .504678 .863307 -79.03 75.23)" class="x"/><path d="M98.3 182.9l-4.23-2.45" class="u v"/><ellipse cx="111.45" cy="209.59" rx="1.18" ry="2.04" transform="matrix(.863307 -.504678 .504678 .863307 -90.54 84.9)" class="x"/><path d="M110.4 209l-4.24-2.46" class="u v"/><ellipse cx="111.45" cy="216.01" rx="1.18" ry="2.04" transform="matrix(.863307 -.504678 .504678 .863307 -93.78 85.78)" class="x"/><path d="M110.4 215.4l-4.24-2.45" class="u v"/><ellipse cx="77.69" cy="170.83" rx="1.18" ry="2.04" transform="matrix(.863307 -.504678 .504678 .863307 -75.59 62.56)" class="x"/><path d="M78.74 171.43l4.25 2.45" class="u v"/></g></g><path d="M82.5 173.77c0-1.23.75-1.8 1.68-1.27l8.57 4.95a4 4 0 0 1 1.68 3.2c0 1.24-.75 1.8-1.68 1.27L84.18 177a4 4 0 0 1-1.68-3.23z" class="s"/><path d="M86.3 178.2v-4.47l4.5 2.6v4.48l-4.5-2.6z" class="t"/><path d="M94.43 180.66a1.1 1.1 0 0 0 0-.18l-11.9-6.87a.88.88 0 0 0 0 .17 4.27 4.27 0 0 0 2 3.36l1.86 1.07 4.5 2.6 1.67 1c1 .6 1.86.1 1.86-1.14z" class="w"/><g class="y z"><g><ellipse cx="125.18" cy="160.56" rx="1.18" ry="2.04" transform="matrix(.863307 -.504678 .504678 .863307 -63.92 85.12)" class="x"/><path d="M125.18 161.77v4.87" class="u v"/><ellipse cx="125.03" cy="185.35" rx="1.18" ry="2.04" transform="matrix(.863307 -.504678 .504678 .863307 -76.45 88.44)" class="x"/><path d="M125.03 184.14v-4.87" class="u v"/></g></g><path d="M125.32 180l-.28-.16a4.35 4.35 0 0 1-1.8-3.46v-8.86c0-1.33.8-1.95 1.8-1.37l.28.16a4.35 4.35 0 0 1 1.8 3.47v8.86c0 1.37-.8 1.94-1.8 1.37z" class="s"/><path d="M127.13 176.67l-3.9-2.25v-5.17l3.9 2.25v5.17z" class="t"/><path d="M125.18 166.22l-.15-.06v13.65l.15.1c1.07.63 1.95.13 1.95-1.1v-9.22a4.32 4.32 0 0 0-1.95-3.36z" class="w"/><path d="M69.1 92.82l49.1 28.35" class="u v y z"/><path d="M91.22 121.2l-1.4-.82v-6.4l1.4.8v6.4zm5.28 3.05l-1.4-.8v-6.42l1.4.8v6.42z" class="s"/><path d="M106.53 216.42l-27.27-15.75v-12.53l27.27 15.75v12.52z" fill="url(#H)"/><path d="M83.77 208c0-.62.38-.9.85-.64l4.38 2.5a2 2 0 0 1 .85 1.62c0 .63-.38.92-.85.64l-4.36-2.5a2 2 0 0 1-.87-1.62z" class="s"/><path d="M85.7 210.23v-2.27l2.3 1.32v2.28l-2.3-1.33z" class="t"/><path d="M89.83 211.48v-.1l-6-3.48v.08a2.2 2.2 0 0 0 1 1.7l.94.55 2.23 1.33.85.48c.54.32.98.07.98-.56z" class="w"/><g class="y z"><path d="M114.43 74.86v45.17m.2-22.87l-8.38-14.44" class="u v"/><ellipse cx="106.36" cy="83.08" rx="1.18" ry="2.04" transform="matrix(.863307 -.504678 .504678 .863307 -27.39 65.03)" class="x"/><path d="M105.3 82.47l-4.24-2.45" class="u v"/><ellipse cx="86.28" cy="71.33" rx="1.18" ry="2.04" transform="matrix(.86 -.5 .5 .86 -24.2 53.3)" class="x"/><path d="M87.37 71.95l2.57 1.5" class="u v"/></g><path d="M89.5 73.35c0-1.24.75-1.8 1.67-1.27l8.58 5a4 4 0 0 1 1.67 3.2c0 1.24-.75 1.8-1.67 1.27l-8.58-5a4 4 0 0 1-1.67-3.2z" class="s"/><path d="M93.3 77.78V73.3l4.5 2.6v4.48l-4.5-2.6z" class="t"/><path d="M101.42 80.23v-.17l-11.9-6.87v.15a4.3 4.3 0 0 0 2 3.36l1.85 1.08 4.5 2.6 1.68 1c1 .62 1.87.1 1.87-1.15z" class="w"/><path d="M68.78 92.63l14.7-8.37 29.5 17.04" class="u v y z"/><path d="M86.87 83.75v4.58l-1.17-.68v-4.58l1.17.68z" class="s"/><path d="M86.87 85.3v1.47l-1.17-.68v-1.47l1.17.68z" class="t"/><path d="M91.28 86.3v4.57l-1.17-.67v-4.58l1.18.68z" class="s"/><path d="M91.28 87.86v1.46l-1.17-.68v-1.46l1.18.68z" class="t"/><path d="M95.7 88.85v4.57l-1.17-.67v-4.58l1.17.68z" class="s"/><path d="M95.7 90.4v1.46l-1.17-.67v-1.47l1.17.67z" class="t"/><path d="M100.1 91.4v4.57l-1.16-.68V90.7l1.17.68z" class="s"/><path d="M100.1 92.95v1.46l-1.16-.66V92.3l1.17.67z" class="t"/><path d="M86.87 99.4V104l-1.17-.67v-4.57l1.17.68z" class="s"/><path d="M86.87 100.97v1.46l-1.17-.68v-1.46l1.17.67z" class="t"/><path d="M91.28 101.96v4.57l-1.17-.67v-4.58l1.18.68z" class="s"/><path d="M91.28 103.52v1.46l-1.17-.68v-1.46l1.18.68z" class="t"/><path d="M95.7 104.5v4.58l-1.17-.67v-4.57l1.17.68z" class="s"/><path d="M95.7 106.06v1.47l-1.17-.68v-1.46l1.17.66z" class="t"/><path d="M100.1 107.06v4.57l-1.16-.68v-4.57l1.17.68z" class="s"/><path d="M100.1 108.6v1.47l-1.16-.67v-1.46l1.17.67z" class="t"/><path d="M103.15 108.8L82.65 97V85.9l20.5 11.84v11.1z" fill="url(#I)"/><g class="y z"><path d="M114.57 74.66l-5.85-10.1m-40.08 52.86v10.5l-7.3 4.15m7.3-4.35v10.5l-7.3 4.15m7.3-4.37v10.5l-7.3 4.16" class="u v"/><ellipse cx="68.64" cy="117.42" rx="1.18" ry="2.04" transform="matrix(.863307 -.504678 .504678 .863307 -49.88 50.69)" class="x"/><path d="M68.64 116.22v-4.88" class="u v"/><g class="x"><ellipse cx="61.35" cy="132.07" rx="1.18" ry="2.04" transform="matrix(.863307 -.504678 .504678 .863307 -58.27 49.01)"/><ellipse cx="61.35" cy="142.61" rx="1.18" ry="2.04" transform="matrix(.863307 -.504678 .504678 .863307 -63.59 50.46)"/><ellipse cx="61.35" cy="153.15" rx="1.18" ry="2.04" transform="matrix(.86 -.5 .5 .86 -68.91 51.9)"/></g><path d="M68.3 92.16l-11.7-20.2V40.3l4.3-2.46 5.93 3.43" class="u v"/></g><path d="M79.23 49.05l-3.98-2.3V45.4l3.98 2.3v1.35z" class="s"/><path d="M77.88 48.27l-1.28-.74V46.2l1.28.72v1.35z" class="t"/><path d="M69.66 43.52l-4-2.3v-1.34l4 2.3v1.34z" class="s"/><path d="M68.3 42.74L67.03 42v-1.34l1.27.73v1.34z" class="t"/><path d="M69.7 39.86l5.6 3.23v5.93l-5.6-3.23v-5.94z" fill="url(#J)"/><g class="y z"><g><ellipse cx="68.78" cy="92.63" rx="1.18" ry="2.04" transform="matrix(.86 -.5 .5 .86 -37.35 47.38)" class="x"/><path d="M68.78 93.84v4.87" class="u v"/><g class="x"><ellipse cx="56.59" cy="71.92" rx="1.18" ry="2.04" transform="matrix(.863307 -.504678 .504678 .863307 -28.56 38.39)"/><ellipse cx="61.05" cy="37.94" rx="1.18" ry="2.04" transform="matrix(.863307 -.504678 .504678 .863307 -10.8 36)"/><ellipse cx="86.87" cy="52.84" rx="1.18" ry="2.04" transform="matrix(.863307 -.504678 .504678 .863307 -14.79 51.06)"/></g></g></g><ellipse cx="57.04" cy="180.68" rx="4.93" ry="8.54" transform="matrix(.863307 -.504678 .504678 .863307 -83.39 53.48)" class="AA"/><path d="M58.63 187.63a13.36 13.36 0 0 1-6.06-10.45c0-2.35 1-3.84 2.58-4.2-2.42-.48-4.17 1.12-4.17 4.2A13.34 13.34 0 0 0 57 187.63a4.85 4.85 0 0 0 3.48.74 6.36 6.36 0 0 1-1.85-.74z" fill="url(#K)"/><ellipse cx="127.85" cy="221.5" rx="5.17" ry="8.95" transform="matrix(.863307 -.504678 .504678 .863307 -94.31 94.8)" class="AA"/><path d="M129.52 228.78a14 14 0 0 1-6.35-10.95c0-2.46 1.07-4 2.7-4.4-2.53-.5-4.37 1.17-4.37 4.4a14 14 0 0 0 6.35 10.95 5.07 5.07 0 0 0 3.65.78 6.7 6.7 0 0 1-1.98-.78z" fill="url(#L)"/><path d="M150.12 196.86v-21.7a35.9 35.9 0 0 0-17.92-31.06l-24.8-14.2m124.77 12.5v-12.56a35.9 35.9 0 0 0-17.92-31.08l-24.8-14.2" stroke="#e2887f" stroke-width=".42" class="u v"/><path d="M182.3 186.88l-.1.06z" fill="#fbb03b"/><path d="M235.72 202.46l-38.4-22.16v-44.04l38.4 22.16v44.04z" fill="url(#M)"/><path d="M228.33 206.82l-38.4-22.16V140.6l38.4 22.17v44.05z" fill="url(#N)"/><path d="M189.94 140.6l7.4-4.34 38.38 22.16-7.4 4.35-38.38-22.16z" fill="url(#O)"/><path d="M228.33 162.77v44.05l7.4-4.36v-44.04l-7.4 4.35z" fill="url(#P)"/><path d="M198.25 142.48l-.43-.26c-1.55-.9-1.35-2.44.43-3.47L203 136l6 3.47-4.77 2.76a6.7 6.7 0 0 1-5.98.25zm12.9 7.42l-.43-.24c-1.54-.9-1.35-2.45.43-3.47l4.77-2.77 6 3.48-4.76 2.76a6.7 6.7 0 0 1-6 .25zm12.9 7.44l-.43-.25c-1.54-.9-1.35-2.45.43-3.48l4.77-2.75 6 3.47-4.77 2.75a6.7 6.7 0 0 1-6 .24zm7.63 12.84v-.5a6.66 6.66 0 0 1 3.25-5.07l4.8-2.76v6.9l-4.8 2.77c-1.8 1.05-3.25.5-3.25-1.32zm.02 14.82v-.5a6.7 6.7 0 0 1 3.24-5.07l4.8-2.77v6.9l-4.8 2.78c-1.8 1-3.24.4-3.24-1.34zm0 14.75v-.5a6.7 6.7 0 0 1 3.25-5.08l4.8-2.77v6.9l-4.8 2.78c-1.8 1.03-3.24.44-3.24-1.33z" class="w"/><ellipse cx="209.13" cy="173.72" rx="7.12" ry="12.34" transform="matrix(.863307 -.504678 .504678 .863307 -59.08 129.29)" fill="url(#Q)"/><path d="M217.9 178.77c0-5.55-3.93-12.3-8.77-15.1a7.68 7.68 0 0 0-4.1-1.2 6.82 6.82 0 0 0-1.63 4.88c0 5.55 3.92 12.3 8.75 15.1a7.74 7.74 0 0 0 4.12 1.2 6.87 6.87 0 0 0 1.62-4.88z" opacity=".5" fill="#999"/><path d="M213.66 177.9l-6.02-3.48v-6.9l6.02 3.47v6.9zm-13.62 41.83l-35.47-22.88L162.5 155l37.54 21.66v43.07z" fill="#e2887f"/><path d="M195.7 222.27l-37.54-21.68V157.5l37.54 21.67v43.07z" fill="url(#R)"/><g class="w"><ellipse cx="176.93" cy="201.93" rx="1.68" ry="2.91" transform="matrix(.863307 -.504678 .504678 .863307 -77.72 116.9)"/><ellipse cx="165.74" cy="195.47" rx="1.68" ry="2.91" transform="matrix(.863307 -.504678 .504678 .863307 -75.99 110.37)"/></g><path d="M191.33 193.66l-7.23-4.17v-5.04l7.23 4.17v5.03z" class="s"/><path d="M189.9 192.84l-4.38-2.53v-5.02l4.4 2.53v5.04z" fill="url(#S)"/><path d="M191.33 201.97l-7.23-4.17v-5.04l7.23 4.18v5.03z" class="s"/><path d="M189.9 201.15l-4.38-2.53v-5.03l4.4 2.52v5.03z" fill="url(#T)"/><path d="M179 191.7l-16-9.23v-2.5l16 9.23v2.5zm0-5.38l-16-9.23v-2.53l16 9.24v2.52zm0-5.38l-16-9.24v-2.5l16 9.23v2.5z" class="s"/><path d="M175.77 173.43V193l-9.56-5.53V167.9l9.57 5.53z" fill="url(#U)"/><path d="M174 185.67l-6.03-3.5v-6.94l6.04 3.5v6.94z" class="s"/><ellipse cx="170.99" cy="180.45" rx="1.18" ry="2.05" transform="matrix(.863307 -.504678 .504678 .863307 -67.7 110.96)" fill="#e2887f"/><path d="M158.16 157.52l4.35-2.53 37.54 21.66-4.34 2.53-37.54-21.68z" fill="url(#V)"/><path d="M200.04 219.73l-4.34 2.54V179.2l4.34-2.54v43.07z" fill="url(#W)"/><path d="M165.24 201.7v20.9l-1.75 1v-20.9l1.74-1z" class="w"/><path d="M161.74 201.7v20.9l1.75 1v-20.9l-1.76-1z" class="s"/><path d="M164.17 214.5l-7.66-4.43v-8.8l7.67 4.44v8.8z" fill="url(#X)"/><ellipse cx="165.8" cy="195.12" rx="2.15" ry="3.72" transform="matrix(.863307 -.504678 .504678 .863307 -75.81 110.35)" class="w"/><path d="M156.5 201.28l5.3-3.04 7.67 4.42-5.3 3.05-7.66-4.42z" class="AC"/><path d="M169.47 202.66v8.8l-5.3 3.03v-8.8l5.3-3.04z" class="AB"/><path d="M161.74 199.75l3.02-6.26 1.75 1-3 6.27-1.76-1.02z" class="s"/><path d="M163.5 200.77l-1.76-1.02v1.95l1.75 1v-1.93zm1.74-1.02v2.84l-1.75 1v-2.83l1.74-1.02z" class="w"/><path d="M161.74 199.75v2.84l1.75 1v-2.83l-1.76-1.02z" class="s"/><path d="M165.24 199.75l1.27-2.62v-2.63l-3 6.27 1.74-1.02zm11.2 8.42v20.88l-1.75 1V209.2l1.75-1z" class="w"/><path d="M172.95 208.17v20.88l1.75 1V209.2l-1.75-1z" class="s"/><path d="M175.38 220.96l-7.66-4.42v-8.8l7.66 4.43v8.8z" fill="url(#Y)"/><ellipse cx="177.01" cy="201.59" rx="2.15" ry="3.72" transform="matrix(.863307 -.504678 .504678 .863307 -77.54 116.89)" class="w"/><path d="M167.72 207.75l5.3-3.04 7.66 4.43-5.3 3.04-7.66-4.42z" class="AC"/><path d="M180.68 209.13v8.8l-5.3 3.03v-8.8l5.3-3.03z" class="AB"/><path d="M172.95 206.22l3.02-6.27 1.75 1-3.02 6.28-1.75-1z" class="s"/><path d="M174.7 207.23l-1.75-1v1.94l1.75 1v-1.94zm1.75-1v2.84l-1.75 1v-2.83l1.75-1z" class="w"/><path d="M172.95 206.22v2.84l1.75 1v-2.83l-1.75-1z" class="s"/><path d="M176.45 206.22l1.27-2.63v-2.64l-3.02 6.27 1.75-1zm11.25 8.52v20.9l-1.74 1v-20.9l1.75-1z" class="w"/><path d="M184.2 214.74v20.9l1.76 1v-20.9l-1.75-1z" class="s"/><path d="M186.65 227.53L179 223.1v-8.78l7.65 4.43v8.78z" fill="url(#Z)"/><ellipse cx="188.27" cy="208.16" rx="2.15" ry="3.72" transform="matrix(.863307 -.504678 .504678 .863307 -79.32 123.47)" class="w"/><path d="M179 214.32l5.3-3.04 7.64 4.43-5.3 3.05-7.65-4.43z" class="AC"/><path d="M191.94 215.7v8.8l-5.3 3.03v-8.78l5.3-3.04z" class="AB"/><path d="M184.2 212.8l3.04-6.27 1.75 1-3.04 6.28-1.75-1z" class="s"/><path d="M185.96 213.8l-1.75-1v1.94l1.76 1v-1.93zm1.74-1v2.83l-1.74 1v-2.82l1.75-1z" class="w"/><path d="M184.2 212.8v2.83l1.76 1v-2.82l-1.75-1z" class="s"/><path d="M187.7 212.8l1.3-2.63v-2.63l-3.04 6.27 1.75-1z" class="w"/><ellipse cx="190.78" cy="85.14" rx="2.33" ry="4.04" transform="matrix(.00541 -.999985 .999985 .00541 104.61 275.45)" fill="url(#a)"/><ellipse cx="109.57" cy="130.91" rx="2.33" ry="4.04" transform="matrix(.00541 -.999985 .999985 .00541 -21.93 239.78)" fill="url(#b)"/><ellipse cx="232.18" cy="140.59" rx="4.2" ry="2.42" transform="matrix(.504678 -.863307 .863307 .504678 -6.37 270.07)" fill="url(#c)"/><ellipse cx="150.12" cy="195.81" rx="4.2" ry="2.42" transform="matrix(.5 -.86 .86 .5 -94.69 226.59)" fill="url(#d)"/></g></g></g></svg>