<svg xmlns="http://www.w3.org/2000/svg" xmlns:xlink="http://www.w3.org/1999/xlink" viewBox="0 0 554.49 587.59"><defs><style>.cls-1{fill:none;}.cls-2{isolation:isolate;}.cls-3{fill:#252532;}.cls-4{fill:#3f4051;}.cls-5{fill:#e5c720;}.cls-6{fill:#dda403;}.cls-7{fill:#e5d680;}.cls-8{fill:url(#linear-gradient);}.cls-9{fill:url(#linear-gradient-2);}.cls-10{opacity:0.8;}.cls-10,.cls-187{mix-blend-mode:multiply;}.cls-11{fill:url(#linear-gradient-3);}.cls-12{fill:#f9f9f9;}.cls-13{fill:#0d0d15;}.cls-14{fill:url(#linear-gradient-4);}.cls-15{fill:url(#linear-gradient-5);}.cls-16{fill:url(#linear-gradient-6);}.cls-17{fill:url(#linear-gradient-7);}.cls-18{fill:url(#linear-gradient-8);}.cls-19{fill:url(#linear-gradient-9);}.cls-20{fill:url(#linear-gradient-10);}.cls-21{fill:url(#linear-gradient-11);}.cls-22{clip-path:url(#clip-path);}.cls-23{fill:url(#linear-gradient-12);}.cls-24{fill:url(#linear-gradient-13);}.cls-25{fill:url(#linear-gradient-14);}.cls-26{fill:url(#linear-gradient-15);}.cls-27{fill:url(#linear-gradient-16);}.cls-28{fill:url(#linear-gradient-17);}.cls-29{fill:url(#linear-gradient-18);}.cls-30{fill:url(#linear-gradient-19);}.cls-31{fill:url(#linear-gradient-20);}.cls-32{fill:url(#linear-gradient-21);}.cls-33{fill:url(#linear-gradient-22);}.cls-34{fill:url(#linear-gradient-23);}.cls-35{fill:url(#linear-gradient-24);}.cls-36{fill:url(#linear-gradient-25);}.cls-37{fill:url(#linear-gradient-26);}.cls-38{fill:url(#linear-gradient-27);}.cls-39{fill:url(#linear-gradient-28);}.cls-40{fill:url(#linear-gradient-29);}.cls-41{fill:url(#linear-gradient-30);}.cls-42{fill:url(#linear-gradient-31);}.cls-43{fill:url(#linear-gradient-32);}.cls-44{fill:url(#linear-gradient-33);}.cls-45{fill:url(#linear-gradient-34);}.cls-46{fill:url(#linear-gradient-35);}.cls-47{fill:#e0b60a;}.cls-48{fill:url(#linear-gradient-36);}.cls-49{fill:url(#linear-gradient-37);}.cls-50{fill:url(#linear-gradient-38);}.cls-51{fill:url(#linear-gradient-39);}.cls-52{fill:url(#linear-gradient-40);}.cls-53{fill:url(#linear-gradient-41);}.cls-54{fill:#e2dbd2;stroke:#e8e107;stroke-miterlimit:10;stroke-width:1.24px;}.cls-55{fill:#e6e5e5;}.cls-56{fill:gray;}.cls-57{fill:#31ac74;}.cls-58{fill:url(#linear-gradient-42);}.cls-59{fill:url(#linear-gradient-43);}.cls-60{fill:#fff;}.cls-61{fill:url(#linear-gradient-44);}.cls-62{fill:url(#linear-gradient-45);}.cls-63{fill:url(#linear-gradient-46);}.cls-64{fill:url(#linear-gradient-47);}.cls-65{fill:url(#linear-gradient-48);}.cls-66{fill:url(#linear-gradient-49);}.cls-67{fill:url(#linear-gradient-50);}.cls-68{fill:url(#linear-gradient-51);}.cls-69{fill:url(#linear-gradient-52);}.cls-70{fill:url(#linear-gradient-53);}.cls-71{fill:url(#linear-gradient-54);}.cls-72{fill:url(#linear-gradient-55);}.cls-73{fill:url(#linear-gradient-56);}.cls-74{fill:url(#linear-gradient-57);}.cls-75{fill:url(#linear-gradient-58);}.cls-76{fill:url(#linear-gradient-59);}.cls-77{fill:url(#linear-gradient-60);}.cls-78{fill:url(#linear-gradient-61);}.cls-79{fill:url(#linear-gradient-62);}.cls-80{fill:url(#linear-gradient-63);}.cls-81{fill:url(#linear-gradient-64);}.cls-82{fill:url(#linear-gradient-65);}.cls-83{fill:url(#linear-gradient-66);}.cls-84{fill:url(#linear-gradient-67);}.cls-85{fill:url(#linear-gradient-68);}.cls-86{fill:url(#linear-gradient-69);}.cls-87{fill:#82c07e;}.cls-88{fill:url(#linear-gradient-70);}.cls-89{fill:url(#linear-gradient-71);}.cls-90{fill:url(#linear-gradient-72);}.cls-91{fill:url(#linear-gradient-73);}.cls-92{fill:url(#linear-gradient-74);}.cls-93{fill:url(#linear-gradient-75);}.cls-94{fill:url(#linear-gradient-76);}.cls-95{fill:url(#linear-gradient-77);}.cls-96{fill:url(#linear-gradient-78);}.cls-97{fill:#e8e107;}.cls-98{fill:url(#linear-gradient-79);}.cls-99{fill:url(#linear-gradient-80);}.cls-100{fill:url(#linear-gradient-81);}.cls-101{fill:url(#linear-gradient-82);}.cls-102{fill:url(#linear-gradient-83);}.cls-103{fill:#d1a83f;}.cls-104{fill:#a47c2c;}.cls-105{fill:url(#linear-gradient-84);}.cls-106{fill:url(#linear-gradient-85);}.cls-107{fill:url(#linear-gradient-86);}.cls-108{fill:url(#linear-gradient-87);}.cls-109{fill:url(#linear-gradient-88);}.cls-110{fill:url(#linear-gradient-89);}.cls-111{fill:url(#linear-gradient-90);}.cls-112{fill:url(#linear-gradient-91);}.cls-113{fill:url(#linear-gradient-92);}.cls-114{fill:url(#linear-gradient-93);}.cls-115{fill:url(#linear-gradient-94);}.cls-116{fill:url(#linear-gradient-95);}.cls-117{fill:url(#linear-gradient-96);}.cls-118{fill:url(#linear-gradient-97);}.cls-119{fill:#313533;}.cls-120{fill:url(#linear-gradient-98);}.cls-121{fill:url(#linear-gradient-99);}.cls-122{fill:#262724;}.cls-123{fill:url(#linear-gradient-100);}.cls-124{fill:url(#linear-gradient-101);}.cls-125{fill:url(#linear-gradient-102);}.cls-126{fill:url(#linear-gradient-103);}.cls-127{fill:url(#linear-gradient-104);}.cls-128{fill:url(#linear-gradient-105);}.cls-129{fill:url(#linear-gradient-106);}.cls-130{fill:url(#linear-gradient-107);}.cls-131{fill:url(#linear-gradient-108);}.cls-132{fill:url(#linear-gradient-109);}.cls-133{fill:#1e8654;}.cls-134{fill:url(#linear-gradient-110);}.cls-135{fill:url(#linear-gradient-111);}.cls-136{fill:url(#linear-gradient-112);}.cls-137{fill:url(#linear-gradient-113);}.cls-138{fill:url(#linear-gradient-114);}.cls-139{fill:url(#linear-gradient-115);}.cls-140{fill:url(#linear-gradient-116);}.cls-141{fill:url(#linear-gradient-117);}.cls-142{fill:url(#linear-gradient-118);}.cls-143{fill:url(#linear-gradient-119);}.cls-144{fill:url(#linear-gradient-120);}.cls-145{fill:url(#linear-gradient-121);}.cls-146{fill:url(#linear-gradient-122);}.cls-147{fill:url(#linear-gradient-123);}.cls-148{fill:url(#linear-gradient-125);}.cls-149{fill:url(#linear-gradient-126);}.cls-150{fill:url(#linear-gradient-127);}.cls-151{fill:url(#linear-gradient-128);}.cls-152{fill:url(#linear-gradient-129);}.cls-153{fill:url(#linear-gradient-130);}.cls-154{fill:url(#linear-gradient-131);}.cls-155{fill:url(#linear-gradient-132);}.cls-156{fill:url(#linear-gradient-133);}.cls-157{fill:url(#linear-gradient-134);}.cls-158{fill:url(#linear-gradient-135);}.cls-159{fill:url(#linear-gradient-136);}.cls-160{fill:url(#linear-gradient-137);}.cls-161{fill:url(#linear-gradient-138);}.cls-162{fill:url(#linear-gradient-139);}.cls-163{fill:url(#linear-gradient-140);}.cls-164{fill:url(#linear-gradient-141);}.cls-165{fill:url(#linear-gradient-142);}.cls-166{fill:url(#linear-gradient-143);}.cls-167{fill:url(#linear-gradient-144);}.cls-168{fill:url(#linear-gradient-145);}.cls-169{fill:url(#linear-gradient-146);}.cls-170{fill:url(#linear-gradient-147);}.cls-171{fill:url(#linear-gradient-148);}.cls-172{fill:url(#linear-gradient-149);}.cls-173{fill:url(#linear-gradient-150);}.cls-174{fill:url(#linear-gradient-151);}.cls-175{fill:url(#linear-gradient-152);}.cls-176{fill:url(#linear-gradient-153);}.cls-177{fill:url(#linear-gradient-154);}.cls-178{fill:url(#linear-gradient-155);}.cls-179{fill:url(#linear-gradient-156);}.cls-180{fill:url(#linear-gradient-157);}.cls-181{fill:url(#linear-gradient-161);}.cls-182{fill:url(#linear-gradient-162);}.cls-183{fill:#404051;}.cls-184{fill:#b39494;}.cls-185{fill:#e0341b;}.cls-186{fill:#e26558;}</style><linearGradient id="linear-gradient" x1="-463.2" y1="313.3" x2="-269.63" y2="201.54" gradientTransform="translate(447.89)" gradientUnits="userSpaceOnUse"><stop offset="0" stop-color="#252532"/><stop offset="1" stop-color="#3f4051"/></linearGradient><linearGradient id="linear-gradient-2" x1="-4.39" y1="306.97" x2="114.13" y2="238.54" gradientUnits="userSpaceOnUse"><stop offset="0" stop-color="#4d4d61"/><stop offset="1" stop-color="#252532"/></linearGradient><linearGradient id="linear-gradient-3" x1="-1400.05" y1="4858.65" x2="-1384.44" y2="4858.65" gradientTransform="matrix(0.87, 0.5, 0, 1.15, 1283.53, -4736.39)" xlink:href="#linear-gradient-2"/><linearGradient id="linear-gradient-4" x1="74.57" y1="250.21" x2="97.46" y2="271.03" gradientUnits="userSpaceOnUse"><stop offset="0" stop-color="#f0f0f0"/><stop offset="1" stop-color="#4e4d4d"/></linearGradient><linearGradient id="linear-gradient-5" x1="303.13" y1="224.51" x2="554.49" y2="224.51" gradientUnits="userSpaceOnUse"><stop offset="0" stop-color="#fff"/><stop offset="1" stop-color="#d4d3d3"/></linearGradient><linearGradient id="linear-gradient-6" x1="303.14" y1="238.13" x2="507.61" y2="238.13" gradientTransform="matrix(1, 0, 0, 1, 0, 0)" xlink:href="#linear-gradient"/><linearGradient id="linear-gradient-7" x1="305.83" y1="238.13" x2="504.92" y2="238.13" gradientTransform="matrix(1, 0, 0, 1, 0, 0)" xlink:href="#linear-gradient"/><linearGradient id="linear-gradient-8" x1="305.82" y1="238.14" x2="504.91" y2="238.14" gradientUnits="userSpaceOnUse"><stop offset="0" stop-color="#3f4051"/><stop offset="1" stop-color="#252532"/></linearGradient><linearGradient id="linear-gradient-9" x1="-574.09" y1="3550.31" x2="-455.4" y2="3498.91" gradientTransform="matrix(0.87, 0.5, 0, 1.15, 878.36, -3437.53)" xlink:href="#linear-gradient"/><linearGradient id="linear-gradient-10" x1="-2037.37" y1="3566.03" x2="-1964.55" y2="3534.5" gradientTransform="matrix(0.87, 0.5, 0.5, 1.44, 362.96, -3735.1)" xlink:href="#linear-gradient"/><linearGradient id="linear-gradient-11" x1="-2034.94" y1="3565.46" x2="-1967.37" y2="3536.2" gradientTransform="matrix(0.87, 0.5, 0.5, 1.44, 362.96, -3735.1)" xlink:href="#linear-gradient-8"/><clipPath id="clip-path"><path class="cls-1" d="M489.27,446.33A21.67,21.67,0,0,1,478.52,443l-143.6-82.91c-16-9.26-29.09-34.3-29.09-55.83V53.91c0-11,3.59-19.4,9.65-22.56h.41l.47-.42a13.3,13.3,0,0,1,2.84-.82,15.23,15.23,0,0,1,2.27-.18,21.78,21.78,0,0,1,10.76,3.3l143.6,82.91c16,9.25,29.09,34.3,29.09,55.83V422.36c0,8.56-2.13,15.58-6,19.75a13.57,13.57,0,0,1-2.6,2.21,12.72,12.72,0,0,1-7,2Z"/></clipPath><linearGradient id="linear-gradient-12" x1="320.53" y1="311.62" x2="397.14" y2="311.62" gradientTransform="translate(0 0)" xlink:href="#linear-gradient"/><linearGradient id="linear-gradient-13" x1="320.53" y1="51.26" x2="397.14" y2="51.26" gradientTransform="translate(0 0)" xlink:href="#linear-gradient"/><linearGradient id="linear-gradient-14" x1="320.53" y1="181.46" x2="397.14" y2="181.46" gradientTransform="translate(0 0)" xlink:href="#linear-gradient"/><linearGradient id="linear-gradient-15" x1="-667.91" y1="3599.63" x2="-631.46" y2="3599.63" gradientTransform="matrix(0.87, 0.5, 0, 1.15, 894.61, -3505.72)" xlink:href="#linear-gradient"/><linearGradient id="linear-gradient-16" x1="-659.51" y1="3599.63" x2="-639.84" y2="3599.63" gradientTransform="matrix(0.87, 0.5, 0, 1.15, 894.61, -3505.72)" gradientUnits="userSpaceOnUse"><stop offset="0" stop-color="#3f4051"/><stop offset="0.06" stop-color="#3a3b4b"/><stop offset="0.29" stop-color="#2e2f3d"/><stop offset="0.56" stop-color="#272735"/><stop offset="1" stop-color="#252532"/></linearGradient><linearGradient id="linear-gradient-17" x1="-667.91" y1="3486.89" x2="-631.46" y2="3486.89" gradientTransform="matrix(0.87, 0.5, 0, 1.15, 894.61, -3505.72)" xlink:href="#linear-gradient"/><linearGradient id="linear-gradient-18" x1="322.46" y1="190.26" x2="341.5" y2="201.25" gradientTransform="translate(144.17 -140.78) rotate(30.31)" xlink:href="#linear-gradient-16"/><linearGradient id="linear-gradient-19" x1="-667.91" y1="3374.15" x2="-631.46" y2="3374.15" gradientTransform="matrix(0.87, 0.5, 0, 1.15, 894.61, -3505.72)" xlink:href="#linear-gradient"/><linearGradient id="linear-gradient-20" x1="-659.51" y1="3374.15" x2="-639.84" y2="3374.15" xlink:href="#linear-gradient-16"/><linearGradient id="linear-gradient-21" x1="369.3" y1="195.11" x2="540.35" y2="195.11" xlink:href="#linear-gradient-5"/><linearGradient id="linear-gradient-22" x1="539.68" y1="293.01" x2="540.35" y2="293.01" xlink:href="#linear-gradient-5"/><linearGradient id="linear-gradient-23" x1="525.78" y1="239.2" x2="540.35" y2="239.2" xlink:href="#linear-gradient-5"/><linearGradient id="linear-gradient-24" x1="539.68" y1="232.9" x2="540.35" y2="232.9" xlink:href="#linear-gradient-5"/><linearGradient id="linear-gradient-25" x1="525.78" y1="231.67" x2="526.45" y2="231.67" xlink:href="#linear-gradient-5"/><linearGradient id="linear-gradient-26" x1="529.27" y1="231.68" x2="529.94" y2="231.68" xlink:href="#linear-gradient-5"/><linearGradient id="linear-gradient-27" x1="525.78" y1="218.07" x2="526.45" y2="218.07" xlink:href="#linear-gradient-5"/><linearGradient id="linear-gradient-28" x1="539.68" y1="220.45" x2="540.35" y2="220.45" xlink:href="#linear-gradient-5"/><linearGradient id="linear-gradient-29" x1="539.68" y1="207.98" x2="540.35" y2="207.98" xlink:href="#linear-gradient-5"/><linearGradient id="linear-gradient-30" x1="525.78" y1="206.76" x2="526.45" y2="206.76" xlink:href="#linear-gradient-5"/><linearGradient id="linear-gradient-31" x1="525.78" y1="193.16" x2="526.45" y2="193.16" xlink:href="#linear-gradient-5"/><linearGradient id="linear-gradient-32" x1="539.68" y1="172.11" x2="540.35" y2="172.11" xlink:href="#linear-gradient-5"/><linearGradient id="linear-gradient-33" x1="368.63" y1="97.17" x2="540.35" y2="97.17" xlink:href="#linear-gradient-5"/><linearGradient id="linear-gradient-34" x1="525.78" y1="197.69" x2="529.94" y2="197.69" xlink:href="#linear-gradient-5"/><linearGradient id="linear-gradient-35" x1="525.78" y1="222.59" x2="529.94" y2="222.59" xlink:href="#linear-gradient-5"/><linearGradient id="linear-gradient-36" x1="-364.61" y1="3239.05" x2="-386.78" y2="3277.45" gradientTransform="matrix(0.87, 0.5, 0, 1.15, 843.64, -3263.61)" xlink:href="#linear-gradient-5"/><linearGradient id="linear-gradient-37" x1="373.48" y1="62.09" x2="379.8" y2="62.09" gradientTransform="translate(82.82 -181.6) rotate(30.31)" xlink:href="#linear-gradient-5"/><linearGradient id="linear-gradient-38" x1="451" y1="106.85" x2="457.32" y2="106.85" gradientTransform="translate(116.01 -214.6) rotate(30.31)" xlink:href="#linear-gradient-5"/><linearGradient id="linear-gradient-39" x1="528.53" y1="151.61" x2="534.85" y2="151.61" gradientTransform="translate(149.2 -247.61) rotate(30.31)" xlink:href="#linear-gradient-5"/><linearGradient id="linear-gradient-40" x1="528.53" y1="259.08" x2="534.85" y2="259.08" gradientTransform="translate(203.44 -232.92) rotate(30.31)" xlink:href="#linear-gradient-5"/><linearGradient id="linear-gradient-41" x1="373.48" y1="169.56" x2="379.8" y2="169.56" gradientTransform="translate(137.06 -166.91) rotate(30.31)" xlink:href="#linear-gradient-5"/><linearGradient id="linear-gradient-42" x1="-461.18" y1="3258.36" x2="-438.29" y2="3258.36" gradientTransform="matrix(0.87, 0.5, 0, 1.15, 843.64, -3263.61)" xlink:href="#linear-gradient-5"/><linearGradient id="linear-gradient-43" x1="-462.87" y1="3259.73" x2="-439.99" y2="3259.73" gradientTransform="matrix(0.87, 0.5, 0, 1.15, 843.64, -3263.61)" xlink:href="#linear-gradient-5"/><linearGradient id="linear-gradient-44" x1="-524.34" y1="3225.29" x2="-495.28" y2="3225.29" gradientTransform="matrix(0.87, 0.5, 0, 1.15, 843.64, -3263.61)" xlink:href="#linear-gradient-5"/><linearGradient id="linear-gradient-45" x1="-506.55" y1="3203.37" x2="-516.51" y2="3250.03" gradientTransform="matrix(0.87, 0.5, 0, 1.15, 843.64, -3263.61)" xlink:href="#linear-gradient-5"/><linearGradient id="linear-gradient-46" x1="-485.84" y1="3224.24" x2="-472.03" y2="3224.24" gradientTransform="matrix(0.87, 0.5, 0, 1.15, 843.64, -3263.61)" gradientUnits="userSpaceOnUse"><stop offset="0" stop-color="#333"/><stop offset="0.52" stop-color="#3f3e3e"/><stop offset="1" stop-color="#4e4d4d"/></linearGradient><linearGradient id="linear-gradient-47" x1="-485.84" y1="-5194.54" x2="-472.03" y2="-5194.54" gradientTransform="matrix(0.87, 0.5, 0, -0.4, 843.64, -1650.6)" xlink:href="#linear-gradient-46"/><linearGradient id="linear-gradient-48" x1="-485.84" y1="-5260.8" x2="-472.03" y2="-5260.8" gradientTransform="matrix(0.87, 0.5, 0, -0.4, 843.64, -1650.6)" xlink:href="#linear-gradient-46"/><linearGradient id="linear-gradient-49" x1="-544.63" y1="3263.18" x2="-502.92" y2="3263.18" xlink:href="#linear-gradient-46"/><linearGradient id="linear-gradient-50" x1="-546.52" y1="3264.8" x2="-504.81" y2="3264.8" xlink:href="#linear-gradient-46"/><linearGradient id="linear-gradient-51" x1="449.05" y1="291.82" x2="459.28" y2="291.82" xlink:href="#linear-gradient-5"/><linearGradient id="linear-gradient-52" x1="525.78" y1="214.29" x2="540.35" y2="214.29" xlink:href="#linear-gradient-5"/><linearGradient id="linear-gradient-53" x1="529.27" y1="198.68" x2="540.35" y2="198.68" xlink:href="#linear-gradient-5"/><linearGradient id="linear-gradient-54" x1="529.27" y1="223.6" x2="540.35" y2="223.6" xlink:href="#linear-gradient-5"/><linearGradient id="linear-gradient-55" x1="473.68" y1="287.24" x2="474.35" y2="287.24" gradientTransform="matrix(1, 0, 0, 1, 0, 0)" xlink:href="#linear-gradient"/><linearGradient id="linear-gradient-56" x1="468.47" y1="282.75" x2="474.35" y2="282.75" gradientTransform="matrix(1, 0, 0, 1, 0, 0)" xlink:href="#linear-gradient"/><linearGradient id="linear-gradient-57" x1="-433.21" y1="3260.27" x2="-427.2" y2="3260.27" gradientTransform="matrix(0.87, 0.5, 0, 1.15, 843.64, -3263.61)" xlink:href="#linear-gradient"/><linearGradient id="linear-gradient-58" x1="439.89" y1="267.73" x2="440.56" y2="267.73" gradientTransform="matrix(1, 0, 0, 1, 0, 0)" xlink:href="#linear-gradient"/><linearGradient id="linear-gradient-59" x1="434.69" y1="263.24" x2="440.56" y2="263.24" gradientTransform="matrix(1, 0, 0, 1, 0, 0)" xlink:href="#linear-gradient"/><linearGradient id="linear-gradient-60" x1="-472.22" y1="3260.27" x2="-466.21" y2="3260.27" gradientTransform="matrix(0.87, 0.5, 0, 1.15, 843.64, -3263.61)" xlink:href="#linear-gradient"/><linearGradient id="linear-gradient-61" x1="-390.24" y1="3127.59" x2="-385.59" y2="3127.59" gradientTransform="matrix(0.5, 0.87, -0.58, 1, 2522.48, -2626.9)" xlink:href="#linear-gradient-5"/><linearGradient id="linear-gradient-62" x1="13094.45" y1="-1739.6" x2="13099.1" y2="-1739.6" gradientTransform="matrix(-0.5, -0.87, 0.58, -1, 7963.9, 9771.6)" xlink:href="#linear-gradient-5"/><linearGradient id="linear-gradient-63" x1="13088.05" y1="-1739.6" x2="13092.69" y2="-1739.6" gradientTransform="matrix(-0.5, -0.87, 0.58, -1, 7966.27, 9769.24)" xlink:href="#linear-gradient-5"/><linearGradient id="linear-gradient-64" x1="13081.64" y1="-1739.6" x2="13086.29" y2="-1739.6" gradientTransform="matrix(-0.5, -0.87, 0.58, -1, 7968.65, 9766.88)" xlink:href="#linear-gradient-5"/><linearGradient id="linear-gradient-65" x1="13075.24" y1="-1739.6" x2="13079.89" y2="-1739.6" gradientTransform="matrix(-0.5, -0.87, 0.58, -1, 7971.02, 9764.51)" xlink:href="#linear-gradient-5"/><linearGradient id="linear-gradient-66" x1="13068.83" y1="-1739.6" x2="13073.48" y2="-1739.6" gradientTransform="matrix(-0.5, -0.87, 0.58, -1, 7973.4, 9762.15)" xlink:href="#linear-gradient-5"/><linearGradient id="linear-gradient-67" x1="13062.43" y1="-1739.6" x2="13067.08" y2="-1739.6" gradientTransform="matrix(-0.5, -0.87, 0.58, -1, 7975.77, 9759.79)" xlink:href="#linear-gradient-5"/><linearGradient id="linear-gradient-68" x1="13056.03" y1="-1739.6" x2="13060.67" y2="-1739.6" gradientTransform="matrix(-0.5, -0.87, 0.58, -1, 7978.14, 9757.43)" xlink:href="#linear-gradient-5"/><linearGradient id="linear-gradient-69" x1="13049.62" y1="-1739.6" x2="13054.27" y2="-1739.6" gradientTransform="matrix(-0.5, -0.87, 0.58, -1, 7980.52, 9755.07)" xlink:href="#linear-gradient-5"/><linearGradient id="linear-gradient-70" x1="-479.76" y1="3127.59" x2="-475.11" y2="3127.59" gradientTransform="matrix(0.5, 0.87, -0.58, 1, 2489.29, -2593.89)" xlink:href="#linear-gradient-5"/><linearGradient id="linear-gradient-71" x1="13183.97" y1="-1739.6" x2="13188.62" y2="-1739.6" gradientTransform="matrix(-0.5, -0.87, 0.58, -1, 7930.71, 9804.61)" xlink:href="#linear-gradient-5"/><linearGradient id="linear-gradient-72" x1="13177.57" y1="-1739.6" x2="13182.21" y2="-1739.6" gradientTransform="matrix(-0.5, -0.87, 0.58, -1, 7933.09, 9802.24)" xlink:href="#linear-gradient-5"/><linearGradient id="linear-gradient-73" x1="13171.16" y1="-1739.6" x2="13175.81" y2="-1739.6" gradientTransform="matrix(-0.5, -0.87, 0.58, -1, 7935.46, 9799.88)" xlink:href="#linear-gradient-5"/><linearGradient id="linear-gradient-74" x1="13164.76" y1="-1739.6" x2="13169.41" y2="-1739.6" gradientTransform="matrix(-0.5, -0.87, 0.58, -1, 7937.84, 9797.52)" xlink:href="#linear-gradient-5"/><linearGradient id="linear-gradient-75" x1="13158.35" y1="-1739.6" x2="13163" y2="-1739.6" gradientTransform="matrix(-0.5, -0.87, 0.58, -1, 7940.21, 9795.16)" xlink:href="#linear-gradient-5"/><linearGradient id="linear-gradient-76" x1="13151.95" y1="-1739.6" x2="13156.6" y2="-1739.6" gradientTransform="matrix(-0.5, -0.87, 0.58, -1, 7942.58, 9792.8)" xlink:href="#linear-gradient-5"/><linearGradient id="linear-gradient-77" x1="13145.55" y1="-1739.6" x2="13150.19" y2="-1739.6" gradientTransform="matrix(-0.5, -0.87, 0.58, -1, 7944.96, 9790.44)" xlink:href="#linear-gradient-5"/><linearGradient id="linear-gradient-78" x1="13139.14" y1="-1739.6" x2="13143.79" y2="-1739.6" gradientTransform="matrix(-0.5, -0.87, 0.58, -1, 7947.33, 9788.08)" xlink:href="#linear-gradient-5"/><linearGradient id="linear-gradient-79" x1="-487.03" y1="3225.26" x2="-473.22" y2="3225.26" xlink:href="#linear-gradient-46"/><linearGradient id="linear-gradient-80" x1="-487.03" y1="-5197.45" x2="-473.22" y2="-5197.45" gradientTransform="matrix(0.87, 0.5, 0, -0.4, 843.64, -1650.6)" xlink:href="#linear-gradient-46"/><linearGradient id="linear-gradient-81" x1="-487.03" y1="-5263.72" x2="-473.22" y2="-5263.72" gradientTransform="matrix(0.87, 0.5, 0, -0.4, 843.64, -1650.6)" xlink:href="#linear-gradient-46"/><linearGradient id="linear-gradient-82" x1="421.86" y1="206.03" x2="434.85" y2="206.03" gradientTransform="matrix(1, 0, 0, 1, 0, 0)" xlink:href="#linear-gradient-46"/><linearGradient id="linear-gradient-83" x1="421.86" y1="220.25" x2="434.85" y2="220.25" gradientTransform="matrix(1, 0, 0, 1, 0, 0)" xlink:href="#linear-gradient-46"/><linearGradient id="linear-gradient-84" x1="421.86" y1="232.77" x2="434.85" y2="232.77" gradientTransform="matrix(1, 0, 0, 1, 0, 0)" xlink:href="#linear-gradient-46"/><linearGradient id="linear-gradient-85" x1="370.34" y1="242.97" x2="408.1" y2="242.97" gradientTransform="matrix(1, 0, 0, 1, 0, 0)" xlink:href="#linear-gradient-46"/><linearGradient id="linear-gradient-86" x1="402.44" y1="239.56" x2="402.44" y2="171.52" gradientUnits="userSpaceOnUse"><stop offset="0" stop-color="#31ac74"/><stop offset="1" stop-color="#82c07e"/></linearGradient><linearGradient id="linear-gradient-87" x1="505.6" y1="310.67" x2="531.57" y2="310.67" xlink:href="#linear-gradient-86"/><linearGradient id="linear-gradient-88" x1="-392.17" y1="3228.91" x2="-362.41" y2="3228.91" xlink:href="#linear-gradient-46"/><linearGradient id="linear-gradient-89" x1="504.01" y1="275.84" x2="530.96" y2="275.84" gradientTransform="matrix(1, 0, 0, 1, 0, 0)" xlink:href="#linear-gradient-46"/><linearGradient id="linear-gradient-90" x1="-375.77" y1="3256.11" x2="-371.5" y2="3256.11" gradientTransform="matrix(0.87, 0.5, 0, 1.15, 855.14, -3313.93)" xlink:href="#linear-gradient-46"/><linearGradient id="linear-gradient-91" x1="-375.77" y1="3163.1" x2="-371.5" y2="3163.1" gradientTransform="matrix(0.87, 0.5, 0, 1.15, 855.14, -3313.93)" xlink:href="#linear-gradient-46"/><linearGradient id="linear-gradient-92" x1="-554.67" y1="3256.12" x2="-550.4" y2="3256.12" gradientTransform="matrix(0.87, 0.5, 0, 1.15, 855.14, -3313.93)" xlink:href="#linear-gradient-46"/><linearGradient id="linear-gradient-93" x1="-554.67" y1="3163.11" x2="-550.4" y2="3163.11" gradientTransform="matrix(0.87, 0.5, 0, 1.15, 855.14, -3313.93)" xlink:href="#linear-gradient-46"/><linearGradient id="linear-gradient-94" x1="-465.16" y1="3162.97" x2="-460.89" y2="3162.97" gradientTransform="matrix(0.87, 0.5, 0, 1.15, 855.14, -3313.93)" xlink:href="#linear-gradient-46"/><linearGradient id="linear-gradient-95" x1="438.4" y1="226.18" x2="439.95" y2="226.18" xlink:href="#linear-gradient-5"/><linearGradient id="linear-gradient-96" x1="-484.89" y1="3269.45" x2="-461.54" y2="3269.45" gradientTransform="matrix(0.87, 0.5, 0, 1.15, 859.87, -3321.23)" xlink:href="#linear-gradient-5"/><linearGradient id="linear-gradient-97" x1="-484.89" y1="3281.07" x2="-461.54" y2="3281.07" gradientTransform="matrix(0.87, 0.5, 0, 1.15, 859.87, -3321.23)" xlink:href="#linear-gradient-5"/><linearGradient id="linear-gradient-98" x1="-486.68" y1="3282.61" x2="-463.34" y2="3282.61" gradientTransform="matrix(0.87, 0.5, 0, 1.15, 859.87, -3321.23)" xlink:href="#linear-gradient-5"/><linearGradient id="linear-gradient-99" x1="454.44" y1="230.57" x2="464.33" y2="236.28" xlink:href="#linear-gradient-5"/><linearGradient id="linear-gradient-100" x1="348.38" y1="130.54" x2="390.31" y2="130.54" gradientTransform="matrix(1, 0, 0, 1, 0, 0)" xlink:href="#linear-gradient"/><linearGradient id="linear-gradient-101" x1="340.95" y1="140.51" x2="348.38" y2="140.51" gradientTransform="matrix(1, 0, 0, 1, 0, 0)" xlink:href="#linear-gradient"/><linearGradient id="linear-gradient-102" x1="390.31" y1="148.78" x2="505.79" y2="148.78" gradientTransform="matrix(1, 0, 0, 1, 0, 0)" xlink:href="#linear-gradient"/><linearGradient id="linear-gradient-103" x1="387.68" y1="150.37" x2="503.44" y2="150.37" xlink:href="#linear-gradient-8"/><linearGradient id="linear-gradient-104" x1="407.97" y1="180.63" x2="452.06" y2="180.63" gradientTransform="matrix(1, 0, 0, 1, 0, 0)" xlink:href="#linear-gradient"/><linearGradient id="linear-gradient-105" x1="405.58" y1="192.24" x2="415.41" y2="192.24" gradientTransform="matrix(1, 0, 0, 1, 0, 0)" xlink:href="#linear-gradient"/><linearGradient id="linear-gradient-106" x1="402.73" y1="196.56" x2="410.16" y2="196.56" gradientTransform="matrix(1, 0, 0, 1, 0, 0)" xlink:href="#linear-gradient"/><linearGradient id="linear-gradient-107" x1="402.73" y1="190.86" x2="413.01" y2="190.86" gradientTransform="matrix(1, 0, 0, 1, 0, 0)" xlink:href="#linear-gradient"/><linearGradient id="linear-gradient-108" x1="410.15" y1="188.89" x2="452.06" y2="188.89" gradientTransform="matrix(1, 0, 0, 1, 0, 0)" xlink:href="#linear-gradient"/><linearGradient id="linear-gradient-109" x1="393.8" y1="179.74" x2="423.71" y2="127.93" gradientUnits="userSpaceOnUse"><stop offset="0" stop-color="#979797"/><stop offset="0.08" stop-color="#ababab"/><stop offset="0.23" stop-color="#c8c8c8"/><stop offset="0.39" stop-color="#dfdede"/><stop offset="0.56" stop-color="#efefef"/><stop offset="0.75" stop-color="#f9f8f8"/><stop offset="1" stop-color="#fcfbfb"/></linearGradient><linearGradient id="linear-gradient-110" x1="470.65" y1="217.26" x2="487.43" y2="171.15" xlink:href="#linear-gradient-109"/><linearGradient id="linear-gradient-111" x1="473.15" y1="210.38" x2="484.93" y2="178.03" xlink:href="#linear-gradient-109"/><linearGradient id="linear-gradient-112" x1="471.05" y1="194.2" x2="487.04" y2="194.2" gradientTransform="translate(404.93 -317.37) rotate(59.69)" xlink:href="#linear-gradient-5"/><linearGradient id="linear-gradient-113" x1="471.6" y1="204.16" x2="479.03" y2="204.16" gradientTransform="matrix(1, 0, 0, 1, 0, 0)" xlink:href="#linear-gradient"/><linearGradient id="linear-gradient-114" x1="405.58" y1="161.46" x2="413.01" y2="161.46" gradientTransform="matrix(1, 0, 0, 1, 0, 0)" xlink:href="#linear-gradient"/><linearGradient id="linear-gradient-115" x1="407.98" y1="160.08" x2="415.41" y2="160.08" gradientTransform="matrix(1, 0, 0, 1, 0, 0)" xlink:href="#linear-gradient"/><linearGradient id="linear-gradient-116" x1="402.73" y1="161.83" x2="410.16" y2="161.83" gradientTransform="matrix(1, 0, 0, 1, 0, 0)" xlink:href="#linear-gradient"/><linearGradient id="linear-gradient-117" x1="410.16" y1="152.31" x2="452.09" y2="152.31" gradientTransform="matrix(1, 0, 0, 1, 0, 0)" xlink:href="#linear-gradient"/><linearGradient id="linear-gradient-118" x1="473.83" y1="216.01" x2="473.83" y2="195.14" xlink:href="#linear-gradient-5"/><linearGradient id="linear-gradient-119" x1="474.13" y1="216.01" x2="474.13" y2="195.49" xlink:href="#linear-gradient-109"/><linearGradient id="linear-gradient-120" x1="343.36" y1="151.13" x2="343.36" y2="130.26" xlink:href="#linear-gradient-5"/><linearGradient id="linear-gradient-121" x1="343.66" y1="151.13" x2="343.66" y2="130.61" xlink:href="#linear-gradient-109"/><linearGradient id="linear-gradient-122" x1="403.62" y1="103.17" x2="371.86" y2="121.5" gradientTransform="matrix(1, 0, 0, 1, 0, 0)" xlink:href="#linear-gradient"/><linearGradient id="linear-gradient-123" x1="340.95" y1="139.27" x2="510.87" y2="139.27" gradientTransform="matrix(1, 0, 0, 1, 0, 0)" xlink:href="#linear-gradient"/><linearGradient id="linear-gradient-125" x1="500.62" y1="206.15" x2="500.82" y2="206.15" gradientTransform="matrix(1, 0, 0, 1, 0, 0)" xlink:href="#linear-gradient"/><linearGradient id="linear-gradient-126" x1="479.03" y1="197.16" x2="510.87" y2="197.16" gradientTransform="matrix(1, 0, 0, 1, 0, 0)" xlink:href="#linear-gradient"/><linearGradient id="linear-gradient-127" x1="482.06" y1="210.45" x2="507.84" y2="210.45" xlink:href="#linear-gradient-8"/><linearGradient id="linear-gradient-128" x1="482.06" y1="184.69" x2="507.84" y2="184.69" xlink:href="#linear-gradient-8"/><linearGradient id="linear-gradient-129" x1="503.09" y1="187.2" x2="507.84" y2="187.2" xlink:href="#linear-gradient-8"/><linearGradient id="linear-gradient-130" x1="503.09" y1="194.96" x2="507.84" y2="194.96" xlink:href="#linear-gradient-8"/><linearGradient id="linear-gradient-131" x1="482.06" y1="209.96" x2="506.17" y2="209.96" gradientTransform="matrix(1, 0, 0, 1, 0, 0)" xlink:href="#linear-gradient"/><linearGradient id="linear-gradient-132" x1="482.06" y1="183.72" x2="506.17" y2="183.72" gradientTransform="matrix(1, 0, 0, 1, 0, 0)" xlink:href="#linear-gradient"/><linearGradient id="linear-gradient-133" x1="503.09" y1="186.72" x2="506.17" y2="186.72" gradientTransform="matrix(1, 0, 0, 1, 0, 0)" xlink:href="#linear-gradient"/><linearGradient id="linear-gradient-134" x1="503.09" y1="194.48" x2="506.17" y2="194.48" gradientTransform="matrix(1, 0, 0, 1, 0, 0)" xlink:href="#linear-gradient"/><linearGradient id="linear-gradient-135" x1="418.23" y1="312.36" x2="437.5" y2="312.36" gradientTransform="translate(0 0)" xlink:href="#linear-gradient"/><linearGradient id="linear-gradient-136" x1="450.19" y1="330.82" x2="469.46" y2="330.82" gradientTransform="translate(0 0)" xlink:href="#linear-gradient"/><linearGradient id="linear-gradient-137" x1="-552.03" y1="3544.62" x2="-537.54" y2="3544.62" gradientTransform="matrix(0.87, 0.5, 0, 1.15, 894.61, -3505.72)" xlink:href="#linear-gradient"/><linearGradient id="linear-gradient-138" x1="-548.69" y1="3544.62" x2="-540.87" y2="3544.62" xlink:href="#linear-gradient-16"/><linearGradient id="linear-gradient-139" x1="-515.14" y1="3544.62" x2="-500.65" y2="3544.62" gradientTransform="matrix(0.87, 0.5, 0, 1.15, 894.61, -3505.72)" xlink:href="#linear-gradient"/><linearGradient id="linear-gradient-140" x1="-511.8" y1="3544.62" x2="-503.98" y2="3544.62" xlink:href="#linear-gradient-16"/><linearGradient id="linear-gradient-141" x1="467.31" y1="396.37" x2="543.95" y2="396.37" gradientTransform="translate(0 0)" xlink:href="#linear-gradient"/><linearGradient id="linear-gradient-142" x1="467.31" y1="266.21" x2="543.95" y2="266.21" gradientTransform="translate(0 0)" xlink:href="#linear-gradient"/><linearGradient id="linear-gradient-143" x1="467.31" y1="136.01" x2="543.95" y2="136.01" gradientTransform="translate(0 0)" xlink:href="#linear-gradient"/><linearGradient id="linear-gradient-144" x1="-498.4" y1="3599.63" x2="-461.95" y2="3599.63" gradientTransform="matrix(0.87, 0.5, 0, 1.15, 894.61, -3505.72)" xlink:href="#linear-gradient"/><linearGradient id="linear-gradient-145" x1="-490" y1="3599.63" x2="-470.32" y2="3599.63" xlink:href="#linear-gradient-16"/><linearGradient id="linear-gradient-146" x1="-498.4" y1="3486.89" x2="-461.95" y2="3486.89" gradientTransform="matrix(0.87, 0.5, 0, 1.15, 894.61, -3505.72)" xlink:href="#linear-gradient"/><linearGradient id="linear-gradient-147" x1="-490" y1="3486.89" x2="-470.32" y2="3486.89" xlink:href="#linear-gradient-16"/><linearGradient id="linear-gradient-148" x1="-498.4" y1="3374.15" x2="-461.95" y2="3374.15" gradientTransform="matrix(0.87, 0.5, 0, 1.15, 894.61, -3505.72)" xlink:href="#linear-gradient"/><linearGradient id="linear-gradient-149" x1="-490" y1="3374.15" x2="-470.32" y2="3374.15" xlink:href="#linear-gradient-16"/><linearGradient id="linear-gradient-150" x1="306.3" y1="239.67" x2="511.37" y2="239.67" xlink:href="#linear-gradient-8"/><linearGradient id="linear-gradient-151" x1="467.43" y1="152.1" x2="485.09" y2="152.1" gradientTransform="matrix(1, 0, 0, 1, 0, 0)" xlink:href="#linear-gradient"/><linearGradient id="linear-gradient-152" x1="296.8" y1="243.08" x2="502.94" y2="243.08" gradientTransform="matrix(1, 0, 0, 1, 0, 0)" xlink:href="#linear-gradient"/><linearGradient id="linear-gradient-153" x1="467.43" y1="422.26" x2="485.09" y2="422.26" gradientTransform="matrix(1, 0, 0, 1, 0, 0)" xlink:href="#linear-gradient"/><linearGradient id="linear-gradient-154" x1="314.66" y1="334.07" x2="332.32" y2="334.07" gradientTransform="matrix(1, 0, 0, 1, 0, 0)" xlink:href="#linear-gradient"/><linearGradient id="linear-gradient-155" x1="314.66" y1="198.98" x2="332.32" y2="198.98" gradientTransform="matrix(1, 0, 0, 1, 0, 0)" xlink:href="#linear-gradient"/><linearGradient id="linear-gradient-156" x1="314.66" y1="63.9" x2="332.32" y2="63.9" gradientTransform="matrix(1, 0, 0, 1, 0, 0)" xlink:href="#linear-gradient"/><linearGradient id="linear-gradient-157" x1="467.43" y1="287.18" x2="485.09" y2="287.18" gradientTransform="matrix(1, 0, 0, 1, 0, 0)" xlink:href="#linear-gradient"/><linearGradient id="linear-gradient-161" x1="171.69" y1="302.28" x2="382.4" y2="302.28" gradientUnits="userSpaceOnUse"><stop offset="0" stop-color="#e26558"/><stop offset="1" stop-color="#e0341b"/></linearGradient><linearGradient id="linear-gradient-162" x1="321.49" y1="576.98" x2="321.49" y2="300.2" gradientUnits="userSpaceOnUse"><stop offset="0" stop-color="#a8190a"/><stop offset="1" stop-color="#e0341b"/></linearGradient></defs><g class="cls-2"><g id="Layer_2" data-name="Layer 2"><g id="Layer_1-2" data-name="Layer 1"><polygon class="cls-3" points="227.27 396.82 162.96 433.89 162.96 175.03 227.27 137.95 227.27 396.82"/><polygon class="cls-4" points="22.96 67.86 86.95 30.97 203.99 98.54 140 135.43 22.96 67.86"/><polygon class="cls-3" points="140 135.43 203.99 98.54 227.27 137.95 162.96 175.03 140 135.43"/><path class="cls-5" d="M151.53,125.81,30.85,56.14,5.31,70.7v263l25.54,44,120.68,69.67,25.53-14.56v-263Zm21.13,302.46-22.95,13.09-117-67.57-23-39.6V75.32l23-13.09,117,67.57,22.95,39.6Z"/><polygon class="cls-6" points="218.4 409.08 177.06 432.88 177.06 169.85 218.4 146.05 218.4 409.08"/><polygon class="cls-7" points="30.85 56.14 71.95 32.48 192.62 102.15 151.52 125.81 30.85 56.14"/><polygon class="cls-5" points="151.53 125.81 192.62 102.15 218.4 146.05 177.06 169.85 151.53 125.81"/><polygon class="cls-8" points="140 135.43 22.96 67.85 0 80.94 0 339.81 22.96 379.41 140 446.98 162.96 433.89 162.96 175.03 140 135.43"/><polygon class="cls-9" points="141.68 431.51 140.04 432.43 32.19 370.17 12.62 336.42 12.62 88.27 22.92 82.41 24.52 83.33 15.86 88.27 15.86 336.42 35.43 370.17 141.68 431.51"/><polygon class="cls-4" points="84.41 250.86 84.41 250.86 84.41 250.86 84.41 250.86"/><polygon class="cls-4" points="46.48 188.94 46.48 188.94 46.48 188.94 46.48 188.94 46.48 188.94 46.48 188.94"/><path class="cls-4" d="M91.05,254.69Z"/><polygon class="cls-4" points="82.08 249.16 82.08 249.16 82.08 249.16 82.08 249.16"/><path class="cls-4" d="M91.65,254.69Z"/><path class="cls-3" d="M120.31,365.46,66.74,334.54H43.3c.18.13.37.26.56.37l76.45,44.14c2.81,1.62,5.09-.1,5.09-3.85h0C125.4,371.44,123.12,367.09,120.31,365.46Z"/><g class="cls-10"><path class="cls-3" d="M43.86,321.33c-2.81-1.63-5.09.1-5.09,3.85h0a12.53,12.53,0,0,0,4.53,9.36H66.74Z"/></g><path class="cls-3" d="M120.31,392,66.74,361.05H43.3c.18.13.37.26.56.37l76.45,44.13c2.81,1.63,5.09-.1,5.09-3.85h0C125.4,398,123.12,393.59,120.31,392Z"/><g class="cls-10"><path class="cls-3" d="M43.86,347.83c-2.81-1.62-5.09.1-5.09,3.86h0a12.53,12.53,0,0,0,4.53,9.36H66.74Z"/></g><path class="cls-3" d="M120.31,339,66.74,308H43.3c.18.14.37.26.56.38l76.45,44.13c2.81,1.62,5.09-.1,5.09-3.85h0C125.4,344.94,123.12,340.58,120.31,339Z"/><g class="cls-10"><path class="cls-3" d="M43.86,294.82c-2.81-1.62-5.09.1-5.09,3.85h0A12.5,12.5,0,0,0,43.3,308H66.74Z"/></g><path class="cls-3" d="M120.31,312.45,66.74,281.53H43.3c.18.13.37.26.56.37L120.31,326c2.81,1.63,5.09-.1,5.09-3.85h0C125.4,318.43,123.12,314.08,120.31,312.45Z"/><g class="cls-10"><path class="cls-3" d="M43.86,268.32c-2.81-1.63-5.09.1-5.09,3.85h0a12.53,12.53,0,0,0,4.53,9.36H66.74Z"/></g><path class="cls-3" d="M120.31,232.93,66.74,202H43.3c.18.13.37.26.56.37l76.45,44.14c2.81,1.62,5.09-.1,5.09-3.85h0C125.4,238.91,123.12,234.56,120.31,232.93Z"/><g class="cls-10"><path class="cls-3" d="M43.86,188.8c-2.81-1.63-5.09.1-5.09,3.85h0A12.53,12.53,0,0,0,43.3,202H66.74Z"/></g><path class="cls-3" d="M59.61,144.88h0L43.3,149c.18.13.37.26.56.37l15.75,9.09c2.81,1.62,5.09-.1,5.09-3.85h0C64.7,150.86,62.42,146.5,59.61,144.88Z"/><g class="cls-10"><path class="cls-3" d="M43.86,135.79c-2.81-1.63-5.09.1-5.09,3.85h0A12.53,12.53,0,0,0,43.3,149l16.31-4.12Z"/></g><path class="cls-3" d="M59.61,171.38h0L43.3,175.5c.18.14.37.26.56.38L59.61,185c2.81,1.63,5.09-.1,5.09-3.85h0C64.7,177.36,62.42,173,59.61,171.38Z"/><g class="cls-10"><path class="cls-3" d="M43.86,162.29c-2.81-1.62-5.09.1-5.09,3.85h0a12.5,12.5,0,0,0,4.53,9.36l16.31-4.12Z"/></g><path class="cls-3" d="M120.31,179.92h0L104,184a6.12,6.12,0,0,0,.57.37l15.75,9.09c2.81,1.63,5.09-.1,5.09-3.85h0C125.4,185.9,123.12,181.55,120.31,179.92Z"/><g class="cls-10"><path class="cls-3" d="M104.56,170.83c-2.81-1.62-5.09.1-5.09,3.85h0A12.52,12.52,0,0,0,104,184l16.32-4.12Z"/></g><path class="cls-3" d="M120.31,206.43h0L104,210.55c.19.13.38.26.57.37L120.31,220c2.81,1.62,5.09-.1,5.09-3.85h0C125.4,212.41,123.12,208.05,120.31,206.43Z"/><g class="cls-10"><path class="cls-3" d="M104.56,197.34c-2.81-1.63-5.09.1-5.09,3.85h0a12.56,12.56,0,0,0,4.52,9.36l16.32-4.12Z"/></g><path class="cls-3" d="M59.61,224.44h0L43.3,228.57c.18.13.37.26.56.37L59.61,238c2.81,1.62,5.09-.1,5.09-3.85h0C64.7,230.43,62.42,226.07,59.61,224.44Z"/><g class="cls-10"><path class="cls-3" d="M43.86,215.35c-2.81-1.62-5.09.1-5.09,3.86h0a12.53,12.53,0,0,0,4.53,9.36l16.31-4.13Z"/></g><path class="cls-3" d="M59.61,251h0L43.3,255.07a4.92,4.92,0,0,0,.56.37l15.75,9.09c2.81,1.63,5.09-.1,5.09-3.85h0C64.7,256.93,62.42,252.57,59.61,251Z"/><g class="cls-10"><path class="cls-3" d="M43.86,241.86c-2.81-1.62-5.09.1-5.09,3.85h0a12.5,12.5,0,0,0,4.53,9.36L59.61,251Z"/></g><path class="cls-3" d="M120.31,259.49h0L104,263.61a6.12,6.12,0,0,0,.57.37l15.75,9.09c2.81,1.63,5.09-.1,5.09-3.85h0C125.4,265.47,123.12,261.11,120.31,259.49Z"/><g class="cls-10"><path class="cls-3" d="M104.56,250.4c-2.81-1.62-5.09.1-5.09,3.85h0a12.54,12.54,0,0,0,4.52,9.36l16.32-4.12Z"/></g><path class="cls-3" d="M120.31,286h0L104,290.12c.19.13.38.26.57.37l15.75,9.09c2.81,1.62,5.09-.1,5.09-3.85h0C125.4,292,123.12,287.62,120.31,286Z"/><g class="cls-10"><path class="cls-3" d="M104.56,276.91c-2.81-1.63-5.09.1-5.09,3.85h0a12.56,12.56,0,0,0,4.52,9.36L120.31,286Z"/></g><path class="cls-3" d="M120.31,153.42,66.74,122.49H43.3a4.92,4.92,0,0,0,.56.37L120.31,167c2.81,1.62,5.09-.1,5.09-3.85h0C125.4,159.4,123.12,155,120.31,153.42Z"/><g class="cls-10"><path class="cls-3" d="M43.86,109.28c-2.81-1.62-5.09.1-5.09,3.85h0a12.5,12.5,0,0,0,4.53,9.36H66.74Z"/></g><polygon class="cls-3" points="87.58 194.41 68.05 183.13 68.05 160.71 87.58 171.99 87.58 194.41"/><path class="cls-11" d="M77.82,185.53h0a14.87,14.87,0,0,1-6.76-11.65h0c0-4.28,3-6,6.76-3.85h0a14.89,14.89,0,0,1,6.75,11.66h0C84.57,186,81.55,187.68,77.82,185.53Z"/><g id="surface1"><path class="cls-12" d="M77.49,173.1v4.49l.65.37v-4.49Zm-1-.31c-1.52-.26-2.61.78-2.61,2.73a8.62,8.62,0,0,0,3.92,6.74c2.15,1.25,3.91.25,3.91-2.23a8.69,8.69,0,0,0-2.61-5.73v.8a7.25,7.25,0,0,1,2,4.56c0,2.06-1.47,2.89-3.26,1.86a7.19,7.19,0,0,1-3.26-5.63c0-1.53.8-2.38,2-2.29Z"/></g><polygon class="cls-13" points="91.92 169.05 91.92 191.47 87.59 194.41 87.59 171.99 91.92 169.05"/><path class="cls-14" d="M94.27,264.2c0-7.56-5.32-16.78-11.9-20.6-3.22-1.86-6.14-2.08-8.29-.94h0l-.1.06-.08,0-4.74,2.69,2.15.34a11.25,11.25,0,0,0-.87,4.59c0,7.56,5.31,16.78,11.89,20.6a12.56,12.56,0,0,0,3.25,1.35l.31,2.29,4.75-2.7h0C92.86,270.72,94.26,268.05,94.27,264.2Z"/><ellipse class="cls-12" cx="77.62" cy="259.99" rx="9.71" ry="16.81" transform="translate(-120.28 74.37) rotate(-30.21)"/><path class="cls-15" d="M524.06,86.56,380.46,3.65c-7-4-13.37-4.6-18.5-2.33h0L359.13,3,314.42,28.9h0c-6.87,3.47-11.29,12.26-11.29,25V304.3c0,22.42,13.63,48.46,30.45,58.16l143.59,82.91c7.94,4.58,15.16,4.7,20.59,1.21l.1-.08,45.7-26.57.15-.09c6.6-3.63,10.78-12.32,10.78-24.75V144.71C554.49,122.3,540.86,96.26,524.06,86.56Z"/><path class="cls-16" d="M489.26,449a24.41,24.41,0,0,1-12.09-3.65l-143.6-82.91c-16.78-9.68-30.43-35.77-30.43-58.16V53.91c0-12.17,4-21.27,11.09-24.95l.59-.3h.06l0,0,.41-.17a16,16,0,0,1,3.43-1,17.29,17.29,0,0,1,2.71-.21,24.45,24.45,0,0,1,12.1,3.64l143.6,82.92c16.79,9.68,30.44,35.77,30.44,58.16V422.36c0,9.25-2.39,16.91-6.74,21.58a16.52,16.52,0,0,1-3.11,2.64A15.45,15.45,0,0,1,489.26,449Z"/><path class="cls-17" d="M489.26,446.33A21.67,21.67,0,0,1,478.52,443l-143.6-82.91c-16-9.26-29.09-34.3-29.09-55.83V53.91c0-11,3.59-19.4,9.65-22.56h.41l.47-.42a13.13,13.13,0,0,1,2.84-.82,15.23,15.23,0,0,1,2.27-.18,21.81,21.81,0,0,1,10.76,3.3l143.6,82.91c16,9.25,29.09,34.3,29.09,55.83V422.36c0,8.56-2.14,15.58-6,19.75a13.88,13.88,0,0,1-2.6,2.21,12.73,12.73,0,0,1-7,2Z"/><path class="cls-18" d="M504.91,403.29v19.07c0,8.55-2.12,15.57-6,19.74a13.37,13.37,0,0,1-2.58,2.21,12.74,12.74,0,0,1-7.05,2,21.76,21.76,0,0,1-10.73-3.28L334.92,360.12c-16-9.25-29.1-34.3-29.1-55.81V53.91c0-11,3.6-19.39,9.65-22.56h.41l.48-.41a12.06,12.06,0,0,1,2.85-.83,15.13,15.13,0,0,1,2.26-.16,21.85,21.85,0,0,1,10.76,3.28l22,12.7V275.69c0,22.43,13.64,48.47,30.45,58.15Z"/><path class="cls-19" d="M481.85,367.88V390l-47.94,27.33-40.74-38.15-15.91-18.51,48.43-27.8a2.31,2.31,0,0,1,2.23.25l50.74,29.29A7,7,0,0,1,481.85,367.88Z"/><path class="cls-20" d="M431,389.83l-51.19-29.56c-1.64-.94-3,.06-3,2.24v21.81l57.11,33V395.48A7.06,7.06,0,0,0,431,389.83Z"/><path class="cls-21" d="M379.14,385.68v-22c0-.58.36-.85.8-.6l50.86,29.37a1.91,1.91,0,0,1,.79,1.51v22Z"/><g class="cls-22"><path class="cls-23" d="M397.14,307.34c0-10-7.06-22.17-15.77-27.2-4.38-2.53-8.34-2.77-11.21-1.12h0l-49.64,27.86L343,345.26l49.46-27.75C395.34,315.9,397.14,312.39,397.14,307.34Z"/><path class="cls-24" d="M397.14,47c0-10-7.06-22.17-15.77-27.2C377,17.26,373,17,370.16,18.67h0L320.52,46.52,343,84.9l49.48-27.75.11-.07h0C395.4,55.43,397.14,51.94,397.14,47Z"/><path class="cls-25" d="M397.14,177.16c0-10-7.06-22.17-15.77-27.2-4.54-2.62-8.63-2.77-11.51-.91l-49.34,27.69L343,215.12l49.61-27.83,0,0C395.39,185.62,397.14,182.13,397.14,177.16Z"/><path class="cls-26" d="M332,307.84c-8.71-5-15.79-1-15.79,9S323.27,339,332,344s15.77,1,15.77-9S340.69,312.87,332,307.84Z"/><path class="cls-27" d="M332,316.16c-4.71-2.72-8.52-.55-8.52,4.86s3.81,12,8.52,14.69,8.52.56,8.52-4.85S336.69,318.88,332,316.16Z"/><path class="cls-28" d="M332,177.66c-8.71-5-15.79-1-15.79,9s7.08,22.19,15.79,27.22,15.77,1,15.77-9S340.69,182.69,332,177.66Z"/><ellipse class="cls-29" cx="331.98" cy="195.76" rx="6.93" ry="12.01" transform="matrix(0.86, -0.5, 0.5, 0.86, -53.42, 194.29)"/><path class="cls-30" d="M332,47.49c-8.71-5-15.79-1-15.79,9S323.27,78.65,332,83.68s15.77,1,15.77-9S340.69,52.52,332,47.49Z"/><path class="cls-31" d="M332,55.8c-4.71-2.72-8.52-.55-8.52,4.86s3.81,12,8.52,14.7,8.52.55,8.52-4.86S336.69,58.53,332,55.8Z"/><path class="cls-32" d="M540.35,197.47V146.36l-171-98.75V243.87l171.05,98.75V243l-13.9-8v-7l3.49,2v3l10.41,6v-12.6l-10.41-6v3l-3.49-2v-7l13.9,8v-4.29l-13.9-8v-7l3.49,2v3l10.41,6V201.5l-10.41-6v3l-3.49-2v-7Zm-8-26.19a12.23,12.23,0,0,1,5.54,9.57c0,3.51-2.49,4.92-5.54,3.15a12.19,12.19,0,0,1-5.55-9.56C526.81,170.93,529.29,169.52,532.36,171.28Z"/><polygon class="cls-33" points="539.68 343 540.35 342.62 540.35 243.03 539.68 243.41 539.68 343"/><polygon class="cls-34" points="525.78 235.38 526.45 235 540.35 243.03 539.68 243.41 525.78 235.38"/><polygon class="cls-35" points="539.68 239.39 540.35 239.01 540.35 226.41 539.68 226.79 539.68 239.39"/><polygon class="cls-36" points="525.78 228.34 526.45 227.96 526.45 235 525.78 235.38 525.78 228.34"/><polygon class="cls-37" points="529.27 230.36 529.94 229.98 529.94 233.01 529.27 233.39 529.27 230.36"/><polygon class="cls-38" points="526.45 221.39 525.78 221.78 525.78 214.74 526.45 214.36 526.45 221.39"/><polygon class="cls-39" points="539.68 222.78 540.35 222.4 540.35 218.11 539.68 218.49 539.68 222.78"/><polygon class="cls-40" points="539.68 214.47 540.35 214.09 540.35 201.5 539.68 201.88 539.68 214.47"/><polygon class="cls-41" points="526.45 203.06 525.78 203.44 525.78 210.47 526.45 210.09 526.45 203.06"/><polygon class="cls-42" points="525.78 196.87 526.45 196.49 526.45 189.45 525.78 189.83 525.78 196.87"/><polygon class="cls-43" points="539.68 197.85 540.35 197.47 540.35 146.36 539.68 146.74 539.68 197.85"/><polygon class="cls-44" points="368.63 47.99 369.3 47.61 540.35 146.36 539.68 146.74 368.63 47.99"/><polygon class="cls-45" points="525.78 196.87 529.27 198.89 529.94 198.51 526.45 196.49 525.78 196.87"/><polygon class="cls-46" points="525.78 221.78 529.27 223.79 529.94 223.41 526.45 221.39 525.78 221.78"/><path class="cls-47" d="M539.68,197.85V146.74L368.63,48V244.25l171,98.75V243.41l-13.9-8v-7l3.49,2v3l10.41,6v-12.6l-10.41-6v3l-3.49-2v-7l13.9,8v-4.29l-13.9-8v-7l3.49,2v3l10.41,6V201.88l-10.41-6v3l-3.49-2v-7Zm-8-26.19a12.21,12.21,0,0,1,5.54,9.57c0,3.51-2.48,4.92-5.54,3.15a12.22,12.22,0,0,1-5.55-9.56C526.14,171.31,528.63,169.9,531.69,171.66Z"/><polygon class="cls-48" points="530.96 337.97 505.6 323.33 505.6 283.73 530.96 298.37 530.96 337.97"/><ellipse class="cls-49" cx="376.64" cy="62.09" rx="2.57" ry="4.46" transform="matrix(0.86, -0.5, 0.5, 0.86, 20.15, 198.57)"/><ellipse class="cls-50" cx="454.16" cy="106.85" rx="2.57" ry="4.46" transform="translate(8.16 243.82) rotate(-30.31)"/><ellipse class="cls-51" cx="531.69" cy="151.61" rx="2.57" ry="4.46" transform="translate(-3.84 289.06) rotate(-30.31)"/><ellipse class="cls-52" cx="531.69" cy="259.08" rx="2.57" ry="4.46" transform="translate(-58.07 303.75) rotate(-30.31)"/><ellipse class="cls-53" cx="376.64" cy="169.56" rx="2.57" ry="4.46" transform="translate(-34.09 213.26) rotate(-30.31)"/><ellipse class="cls-54" cx="531.69" cy="163.41" rx="1.82" ry="3.15" transform="matrix(0.86, -0.5, 0.5, 0.86, -9.79, 290.67)"/><polygon class="cls-55" points="510.81 258.48 510.81 264.14 509.36 263.31 509.36 257.64 510.81 258.48"/><polygon class="cls-56" points="510.81 260.41 510.81 262.22 509.36 261.38 509.36 259.57 510.81 260.41"/><polygon class="cls-55" points="516.27 261.64 516.27 267.3 514.82 266.46 514.82 260.8 516.27 261.64"/><polygon class="cls-56" points="516.27 263.56 516.27 265.37 514.82 264.53 514.82 262.72 516.27 263.56"/><polygon class="cls-55" points="521.73 264.79 521.73 270.45 520.28 269.61 520.28 263.95 521.73 264.79"/><polygon class="cls-56" points="521.73 266.71 521.73 268.52 520.28 267.69 520.28 265.88 521.73 266.71"/><polygon class="cls-55" points="527.2 267.94 527.2 273.6 525.75 272.76 525.75 267.11 527.2 267.94"/><polygon class="cls-56" points="527.2 269.87 527.2 271.68 525.75 270.84 525.75 269.03 527.2 269.87"/><polygon class="cls-55" points="510.81 277.86 510.81 283.52 509.36 282.68 509.36 277.02 510.81 277.86"/><polygon class="cls-56" points="510.81 279.79 510.81 281.6 509.36 280.76 509.36 278.95 510.81 279.79"/><polygon class="cls-55" points="516.27 281.01 516.27 286.67 514.82 285.84 514.82 280.18 516.27 281.01"/><polygon class="cls-56" points="516.27 282.94 516.27 284.75 514.82 283.91 514.82 282.1 516.27 282.94"/><polygon class="cls-55" points="521.73 284.17 521.73 289.83 520.28 288.99 520.28 283.33 521.73 284.17"/><polygon class="cls-56" points="521.73 286.09 521.73 287.9 520.28 287.06 520.28 285.26 521.73 286.09"/><polygon class="cls-55" points="527.2 287.32 527.2 292.98 525.75 292.14 525.75 286.48 527.2 287.32"/><polygon class="cls-56" points="527.2 289.25 527.2 291.06 525.75 290.22 525.75 288.41 527.2 289.25"/><polygon class="cls-57" points="530.96 334.26 509.23 321.72 509.23 320.19 530.96 332.73 530.96 334.26"/><polygon class="cls-57" points="464.07 268.41 464.07 299.4 459.28 296.64 449.06 290.77 444.26 288.01 444.26 257.04 464.07 268.41"/><polygon class="cls-58" points="464.07 291.05 444.25 279.61 444.25 256.87 464.07 268.31 464.07 291.05"/><polygon class="cls-59" points="462.6 291.78 442.78 280.34 442.78 257.6 462.6 269.05 462.6 291.78"/><path class="cls-60" d="M526.65,323l-16.74-9.67a5.54,5.54,0,0,1-2.52-4.34V289.79c0-1.59,1.13-2.23,2.52-1.43L526.65,298a5.55,5.55,0,0,1,2.52,4.34v19.21C529.17,323.17,528,323.81,526.65,323Z"/><polygon class="cls-57" points="388.41 223.71 388.41 171.9 415.86 187.75 415.86 239.56 388.41 223.71"/><polygon class="cls-57" points="389.02 223.34 389.02 171.52 416.46 187.37 416.46 239.18 389.02 223.34"/><polygon class="cls-61" points="389.55 223.05 389.55 173.87 414.72 188.4 414.72 237.58 389.55 223.05"/><path class="cls-60" d="M391.83,218.86V180.7c0-1.59,1.12-2.23,2.51-1.43l15.59,9a5.52,5.52,0,0,1,2.51,4.32v38.17c0,1.59-1.12,2.23-2.51,1.43l-15.59-9A5.49,5.49,0,0,1,391.83,218.86Z"/><polygon class="cls-62" points="388.06 223.83 388.06 174.65 413.23 189.18 413.23 238.35 388.06 223.83"/><path class="cls-60" d="M390.34,219.64V181.47c0-1.59,1.12-2.23,2.51-1.43l15.59,9a5.52,5.52,0,0,1,2.51,4.32v38.17c0,1.59-1.12,2.23-2.51,1.43l-15.59-9A5.52,5.52,0,0,1,390.34,219.64Z"/><polygon class="cls-63" points="434.85 230.27 422.89 223.37 422.89 209.65 434.85 216.55 434.85 230.27"/><polygon class="cls-64" points="434.85 206.8 422.89 199.9 422.89 204.69 434.85 211.59 434.85 206.8"/><polygon class="cls-65" points="434.85 233.53 422.89 226.63 422.89 231.42 434.85 238.33 434.85 233.53"/><polygon class="cls-66" points="408.1 262.99 371.98 242.14 371.98 222.02 408.1 242.87 408.1 262.99"/><polygon class="cls-67" points="406.46 263.91 370.34 243.06 370.34 222.94 406.46 243.79 406.46 263.91"/><polygon class="cls-68" points="459.28 292.9 459.28 296.64 449.06 290.77 449.06 287 459.28 292.9"/><polygon class="cls-69" points="525.78 210.47 539.68 218.49 540.35 218.11 526.45 210.09 525.78 210.47"/><polygon class="cls-70" points="529.27 195.87 539.68 201.88 540.35 201.5 529.94 195.49 529.27 195.87"/><polygon class="cls-71" points="529.27 220.78 529.94 220.4 540.35 226.41 539.68 226.79 529.27 220.78"/><polygon class="cls-72" points="473.68 290.42 474.35 290.04 474.35 284.06 473.68 284.44 473.68 290.42"/><polygon class="cls-73" points="468.47 281.44 473.68 284.44 474.35 284.06 469.14 281.06 468.47 281.44"/><polygon class="cls-74" points="473.68 290.42 468.47 287.41 468.47 281.44 473.68 284.44 473.68 290.42"/><polygon class="cls-75" points="439.89 270.91 440.56 270.53 440.56 264.56 439.89 264.94 439.89 270.91"/><polygon class="cls-76" points="434.69 261.93 439.89 264.94 440.56 264.56 435.36 261.55 434.69 261.93"/><polygon class="cls-77" points="439.89 270.91 434.69 267.9 434.69 261.93 439.89 264.94 439.89 270.91"/><polygon class="cls-57" points="510.87 161.63 460.16 132.36 460.16 120.47 510.87 149.75 510.87 161.63"/><ellipse class="cls-78" cx="507.7" cy="153.86" rx="1.64" ry="2.84" transform="matrix(0.86, -0.5, 0.5, 0.86, -8.25, 277.26)"/><ellipse class="cls-79" cx="463.33" cy="128.25" rx="1.64" ry="2.84" transform="translate(-1.39 251.37) rotate(-30.31)"/><ellipse class="cls-80" cx="468.88" cy="131.45" rx="1.64" ry="2.84" transform="translate(-2.25 254.61) rotate(-30.31)"/><ellipse class="cls-81" cx="474.42" cy="134.65" rx="1.64" ry="2.84" transform="translate(-3.1 257.84) rotate(-30.31)"/><ellipse class="cls-82" cx="479.97" cy="137.85" rx="1.64" ry="2.84" transform="translate(-3.96 261.08) rotate(-30.31)"/><ellipse class="cls-83" cx="485.52" cy="141.05" rx="1.64" ry="2.84" transform="translate(-4.82 264.32) rotate(-30.31)"/><ellipse class="cls-84" cx="491.06" cy="144.26" rx="1.64" ry="2.84" transform="matrix(0.86, -0.5, 0.5, 0.86, -5.68, 267.55)"/><ellipse class="cls-85" cx="496.61" cy="147.46" rx="1.64" ry="2.84" transform="translate(-6.53 270.79) rotate(-30.31)"/><ellipse class="cls-86" cx="502.15" cy="150.66" rx="1.64" ry="2.84" transform="translate(-7.39 274.03) rotate(-30.31)"/><polygon class="cls-57" points="515.11 144.6 510.87 149.75 510.87 161.63 515.11 161.94 518.28 160.11 518.28 142.77 515.11 144.6"/><polygon class="cls-87" points="510.87 149.75 515.11 144.6 464.4 115.35 460.16 120.47 510.87 149.75"/><polygon class="cls-87" points="467.57 113.52 464.4 115.35 515.11 144.6 518.28 142.77 467.57 113.52"/><polygon class="cls-57" points="433.34 116.88 382.64 87.6 382.64 75.72 433.34 104.99 433.34 116.88"/><ellipse class="cls-88" cx="430.17" cy="109.1" rx="1.64" ry="2.84" transform="matrix(0.86, -0.5, 0.5, 0.86, 3.74, 232.02)"/><ellipse class="cls-89" cx="385.81" cy="83.49" rx="1.64" ry="2.84" transform="translate(10.6 206.12) rotate(-30.31)"/><ellipse class="cls-90" cx="391.35" cy="86.69" rx="1.64" ry="2.84" transform="translate(9.75 209.36) rotate(-30.31)"/><ellipse class="cls-91" cx="396.9" cy="89.89" rx="1.64" ry="2.84" transform="translate(8.89 212.6) rotate(-30.31)"/><ellipse class="cls-92" cx="402.44" cy="93.09" rx="1.64" ry="2.84" transform="translate(8.03 215.83) rotate(-30.31)"/><ellipse class="cls-93" cx="407.99" cy="96.3" rx="1.64" ry="2.84" transform="translate(7.17 219.07) rotate(-30.31)"/><ellipse class="cls-94" cx="413.54" cy="99.5" rx="1.64" ry="2.84" transform="translate(6.31 222.31) rotate(-30.31)"/><ellipse class="cls-95" cx="419.08" cy="102.7" rx="1.64" ry="2.84" transform="translate(5.46 225.54) rotate(-30.31)"/><ellipse class="cls-96" cx="424.63" cy="105.9" rx="1.64" ry="2.84" transform="translate(4.6 228.78) rotate(-30.31)"/><polygon class="cls-57" points="437.58 99.84 433.34 104.99 433.34 116.88 437.58 117.18 440.75 115.35 440.75 98.01 437.58 99.84"/><polygon class="cls-87" points="433.34 104.99 437.58 99.84 386.88 70.59 382.64 75.72 433.34 104.99"/><polygon class="cls-87" points="390.05 68.76 386.88 70.59 437.58 99.84 440.75 98.01 390.05 68.76"/><polygon class="cls-97" points="388.06 174.65 389.55 173.87 414.72 188.4 414.72 237.58 413.23 238.35 413.23 189.18 388.06 174.65"/><polygon class="cls-97" points="462.6 291.78 462.6 269.05 442.78 257.6 444.25 256.87 464.07 268.31 464.07 291.05 462.6 291.78"/><polygon class="cls-98" points="433.82 230.85 421.86 223.95 421.86 210.23 433.82 217.13 433.82 230.85"/><polygon class="cls-99" points="433.82 207.38 421.86 200.48 421.86 205.27 433.82 212.17 433.82 207.38"/><polygon class="cls-100" points="433.82 234.12 421.86 227.21 421.86 232.01 433.82 238.91 433.82 234.12"/><polygon class="cls-101" points="421.86 200.48 422.89 199.9 434.85 206.8 434.85 211.59 433.82 212.17 433.82 207.38 421.86 200.48"/><polygon class="cls-102" points="421.86 210.23 422.89 209.65 434.85 216.55 434.85 230.27 433.82 230.85 433.82 217.13 421.86 210.23"/><polygon class="cls-103" points="378.37 208.29 373.69 205.58 373.69 191.86 378.37 194.57 378.37 208.29"/><polygon class="cls-104" points="373.69 191.86 376.03 190.53 380.7 193.25 380.7 206.97 378.37 208.29 378.37 194.57 373.69 191.86"/><polygon class="cls-105" points="421.86 227.21 433.82 234.12 433.82 238.91 434.85 238.33 434.85 233.53 422.89 226.63 421.86 227.21"/><polygon class="cls-106" points="370.34 222.94 371.98 222.02 408.1 242.87 408.1 262.99 406.46 263.91 406.46 243.79 370.34 222.94"/><polygon class="cls-107" points="415.86 239.56 416.46 239.18 416.46 187.37 389.02 171.52 388.41 171.9 415.86 187.75 415.86 239.56"/><polygon class="cls-108" points="530.96 337.97 531.57 337.61 531.57 298 506.21 283.37 505.6 283.73 530.96 298.37 530.96 337.97"/><polygon class="cls-109" points="529.79 290.79 504.01 275.91 504.01 261.55 529.79 276.43 529.79 290.79"/><polygon class="cls-110" points="504.01 261.55 505.18 260.89 530.96 275.77 530.96 290.13 529.79 290.79 529.79 276.43 504.01 261.55"/><polygon class="cls-111" points="533.42 259.89 531.8 258.95 531.8 257.09 531.34 256.83 531.34 258.69 529.72 257.75 529.72 258.28 531.34 259.21 531.34 261.07 531.8 261.34 531.8 259.48 533.42 260.41 533.42 259.89"/><polygon class="cls-112" points="533.42 152.49 531.8 151.55 531.8 149.69 531.34 149.43 531.34 151.29 529.72 150.35 529.72 150.88 531.34 151.81 531.34 153.68 531.8 153.94 531.8 152.08 533.42 153.01 533.42 152.49"/><polygon class="cls-113" points="378.49 170.45 376.87 169.51 376.87 167.65 376.41 167.39 376.41 169.25 374.79 168.31 374.79 168.84 376.41 169.78 376.41 171.64 376.87 171.9 376.87 170.04 378.49 170.98 378.49 170.45"/><polygon class="cls-114" points="378.49 63.05 376.87 62.12 376.87 60.26 376.41 59.99 376.41 61.85 374.79 60.92 374.79 61.44 376.41 62.38 376.41 64.24 376.87 64.5 376.87 62.64 378.49 63.58 378.49 63.05"/><polygon class="cls-115" points="456 107.65 454.38 106.71 454.38 104.85 453.93 104.58 453.93 106.45 452.31 105.51 452.31 106.03 453.93 106.97 453.93 108.83 454.38 109.1 454.38 107.23 456 108.17 456 107.65"/><polygon class="cls-116" points="438.4 215.02 439.95 214.14 439.95 237.33 438.4 238.22 438.4 215.02"/><path class="cls-117" d="M440,209v5.15l20.21,11.67v-5.15Zm3.48,5.65a2.62,2.62,0,0,1-1.19-2c0-.75.53-1.05,1.19-.67a2.6,2.6,0,0,1,1.18,2C444.61,214.71,444.08,215,443.43,214.64Zm4.42,2.55a2.62,2.62,0,0,1-1.19-2.05c0-.75.53-1,1.19-.67a2.6,2.6,0,0,1,1.18,2C449,217.26,448.5,217.57,447.85,217.19Zm4.41,2.55a2.63,2.63,0,0,1-1.18-2.05c0-.75.53-1.05,1.18-.67a2.6,2.6,0,0,1,1.19,2C453.45,219.81,452.92,220.12,452.26,219.74Zm4.42,2.55a2.62,2.62,0,0,1-1.18-2c0-.75.53-1.05,1.18-.67a2.6,2.6,0,0,1,1.19,2C457.87,222.37,457.34,222.67,456.68,222.29Z"/><path class="cls-118" d="M456.3,223.58l-1.4-2.32-9.69-5.59-1.4.7L440,214.14v23.19l16.2,9.36,2.18-.91,1.83,1.06v-21Zm-12,12.15a3.36,3.36,0,0,1-1.51-2.62c0-1,.68-1.35,1.51-.86a3.32,3.32,0,0,1,1.52,2.61C445.8,235.83,445.12,236.21,444.28,235.73Zm4.12,2.37a3.32,3.32,0,0,1-1.52-2.61c0-1,.68-1.35,1.52-.87a3.33,3.33,0,0,1,1.51,2.62C449.91,238.2,449.24,238.59,448.4,238.1Zm4.11,2.38a3.36,3.36,0,0,1-1.52-2.62c0-1,.68-1.35,1.52-.87a3.36,3.36,0,0,1,1.52,2.62C454,240.57,453.35,241,452.51,240.48Zm2.59-3.57-9.76-5.64a2.33,2.33,0,0,1-1.06-1.82c0-.67.48-.94,1.06-.6l9.76,5.63a2.33,2.33,0,0,1,1,1.82C456.15,237,455.68,237.24,455.1,236.91Z"/><path class="cls-119" d="M459.55,224.12v20.42l-3.4,2.14c0,.46-.18.76-.46.85h0l-.05,0a1.12,1.12,0,0,1-.71-.16h0l-13-7.51a3,3,0,0,1-1.34-2.31v-24.4a1,1,0,0,1,.31-.8l.14-.08h0a1,1,0,0,1,.87.12l16.31,9.42a3,3,0,0,1,1.31,2v.05C459.54,223.93,459.55,224,459.55,224.12Z"/><path class="cls-119" d="M459.53,223.83v-.05a3,3,0,0,0-1.31-2l-16.31-9.42a1,1,0,0,0-.87-.12h0l-.1.05-1.48.84h0a.91.91,0,0,0-.42.86v24.4a3,3,0,0,0,1.34,2.32l13,7.52a1,1,0,0,0,.9.07s1.47-.84,1.5-.86a.83.83,0,0,0,.38-.81l3.4-2.14Z"/><path class="cls-119" d="M458,225v20.42l-3.09,1.95-.31.19a.89.89,0,0,1-.28.74.23.23,0,0,1-.11.07.9.9,0,0,1-.84-.1l-13-7.52a3,3,0,0,1-1.34-2.32V214c0-.84.6-1.18,1.34-.76l.21.13,16.1,9.28A3,3,0,0,1,458,225Z"/><path class="cls-120" d="M454.75,224.47l-1.4-2.32-9.69-5.6-1.4.7L438.4,215v23.2l16.2,9.36,2.18-.91,1.83,1.06v-21Zm-12,12.15a3.36,3.36,0,0,1-1.52-2.62c0-1,.68-1.35,1.52-.87a3.36,3.36,0,0,1,1.52,2.62C444.25,236.71,443.57,237.1,442.73,236.62Zm4.12,2.37a3.34,3.34,0,0,1-1.52-2.62c0-1,.68-1.35,1.52-.86a3.34,3.34,0,0,1,1.51,2.61C448.36,239.09,447.68,239.47,446.85,239Zm4.11,2.37a3.32,3.32,0,0,1-1.52-2.61c0-1,.68-1.35,1.52-.87a3.34,3.34,0,0,1,1.52,2.62C452.48,241.46,451.8,241.85,451,241.36Zm2.59-3.57-9.76-5.63a2.34,2.34,0,0,1-1.06-1.82c0-.67.48-.94,1.06-.61l9.76,5.64a2.33,2.33,0,0,1,1.05,1.82C454.6,237.86,454.13,238.13,453.55,237.79Z"/><polygon class="cls-121" points="458.61 223.35 460.16 222.46 460.16 243.5 458.61 244.38 458.61 223.35"/><polygon class="cls-122" points="390.31 139.39 382.88 135.1 382.88 93.2 390.31 97.49 390.31 139.39"/><polygon class="cls-123" points="348.38 163.6 390.31 139.38 390.31 97.48 348.38 121.7 348.38 163.6"/><polygon class="cls-124" points="348.38 121.7 340.95 117.43 340.95 159.33 348.38 163.6 348.38 121.7"/><polygon class="cls-125" points="505.79 200.03 390.31 133.4 390.31 97.53 505.79 164.15 505.79 200.03"/><polygon class="cls-126" points="503.44 201.69 387.96 135.07 387.68 99.04 503.44 165.82 503.44 201.69"/><polygon class="cls-122" points="452.27 201.68 444.38 197.12 444.38 188.07 452.27 192.62 452.27 201.68"/><path class="cls-127" d="M452.06,175.49l-1.24,2.67L429.12,190l-11.81-.45-1.91-.08L408,185.23a61.84,61.84,0,0,0,21.82-4.92c6.45-2.83,14.85-9.09,14.85-9.09Z"/><polygon class="cls-128" points="405.58 186.62 407.97 185.23 415.41 189.52 415.41 199.25 407.98 194.97 405.58 186.62"/><polygon class="cls-129" points="410.16 195.11 402.73 190.83 402.73 198.01 410.16 202.28 410.16 195.11"/><polygon class="cls-130" points="402.73 190.83 405.58 186.62 413.01 190.9 410.16 195.11 402.73 190.83"/><path class="cls-131" d="M452.06,175.49v2.58l-41.91,24.21V195.1l2.85-4.2,2.4-1.39a61.75,61.75,0,0,0,21.81-4.93C443.67,181.76,452.06,175.49,452.06,175.49Z"/><path class="cls-132" d="M471.6,155.58c-3.74-1.72-8.72-1.22-14.15,1.93-11.66,6.73-21.11,23-21.11,36.4,0,6.51,2.23,11.13,5.88,13.38L359.55,160c-3.34-2.36-5.38-6.82-5.38-13,0-13.36,9.44-29.68,21.1-36.39,5.89-3.41,11.2-3.71,15-1.45Z"/><path class="cls-57" d="M494.1,168.54l-30.74,50.92-20.64-11.87a5.09,5.09,0,0,1-.5-.3c-3.65-2.25-5.88-6.87-5.88-13.38,0-13.37,9.45-29.67,21.11-36.4,5.43-3.15,10.41-3.65,14.15-1.93l0,0,1.42.81a.28.28,0,0,1,.09.07Z"/><path class="cls-133" d="M500.14,182c0,13.37-9.44,29.67-21.1,36.4-5.43,3.13-10.37,3.65-14.12,1.94a8.75,8.75,0,0,1-1.59-.92c-3.35-2.34-5.39-6.84-5.39-13.06,0-13.37,9.44-29.67,21.1-36.4,5.73-3.31,10.92-3.69,14.72-1.64S500.14,175.21,500.14,182Z"/><path class="cls-134" d="M496.63,184.05c0,11.15-7.87,24.73-17.59,30.34-4.53,2.6-8.65,3-11.76,1.62a7.67,7.67,0,0,1-1.33-.77c-2.79-2-4.49-5.71-4.49-10.89,0-11.15,7.86-24.73,17.58-30.34,4.77-2.76,9.1-3.07,12.27-1.36S496.63,178.38,496.63,184.05Z"/><path class="cls-135" d="M491.38,187.08c0,7.82-5.52,17.35-12.34,21.28-3.17,1.83-6.06,2.13-8.25,1.14a5.37,5.37,0,0,1-.93-.54c-2-1.37-3.15-4-3.15-7.64,0-7.82,5.51-17.35,12.33-21.28,3.35-1.94,6.39-2.16,8.61-1S491.38,183.1,491.38,187.08Z"/><ellipse class="cls-136" cx="479.04" cy="194.2" rx="11.27" ry="6.51" transform="translate(69.62 509.75) rotate(-59.69)"/><polygon class="cls-122" points="510.87 209 503.44 204.71 503.44 162.81 510.87 167.1 510.87 209"/><polygon class="cls-137" points="479.03 185.34 479.03 227.25 471.6 222.97 471.6 181.07 479.03 185.34"/><polygon class="cls-138" points="413.01 158.73 405.58 154.46 405.58 164.19 413.01 168.46 413.01 158.73"/><polygon class="cls-139" points="415.41 157.35 407.98 153.07 407.98 162.8 415.41 167.08 415.41 157.35"/><polygon class="cls-140" points="410.16 160.38 402.73 156.11 402.73 163.28 410.16 167.56 410.16 160.38"/><path class="cls-141" d="M413,158.73l-2.85,1.65v7.18l2.85.9,2.4-1.38a73,73,0,0,1,18.39-19c6.81-4.78,18.29-7.36,18.29-7.36v-4.6Z"/><path class="cls-142" d="M475.37,195.48V216l-.6-.35c-1.58-2.08-2.48-5.07-2.48-8.82a31.74,31.74,0,0,1,2.48-11.7Z"/><path class="cls-143" d="M475.37,195.49V216a14.49,14.49,0,0,1-2.48-8.82A31.9,31.9,0,0,1,475.37,195.49Z"/><path class="cls-144" d="M344.9,130.6v20.53l-.61-.35a14.49,14.49,0,0,1-2.47-8.82,31.92,31.92,0,0,1,2.47-11.7Z"/><path class="cls-145" d="M344.9,130.61v20.52a14.49,14.49,0,0,1-2.48-8.82A31.9,31.9,0,0,1,344.9,130.61Z"/><polygon class="cls-146" points="367.46 110.71 367.46 113.89 408.02 113.96 408.02 110.78 367.46 110.71"/><path class="cls-147" d="M505.79,164.16h0L390.31,97.53h-.07l.07,0-7.43-4.28L341,117.43l7.43,4.27,19.41-11.21-.33.22,40.56.07,36.62,21.11-41.91,24.22,7.43,4.27,41.9-24.2,28.42,16.39.13,23.33-9,5.17,7.43,4.27,31.84-18.26Zm-5,.15-.2-.12.2.12Z"/><path class="cls-147" d="M505.79,164.16h0L390.31,97.53h-.07l.07,0-7.43-4.28L341,117.43l7.43,4.27,19.41-11.21-.33.22,40.56.07,36.62,21.11-41.91,24.22,7.43,4.27,41.9-24.2,28.42,16.39.13,23.33-9,5.17,7.43,4.27,31.84-18.26Zm-5,.15-.2-.12.2.12Z"/><path class="cls-148" d="M500.82,206.21l-.2-.12.2.12Z"/><polygon class="cls-149" points="479.03 227.24 510.87 208.98 510.87 167.08 479.03 185.34 479.03 227.24"/><polygon class="cls-150" points="507.84 199.19 507.84 203.56 505.01 208.46 482.06 221.71 482.06 214.07 506.17 200.16 507.84 199.19"/><polygon class="cls-151" points="507.84 175.87 507.84 180.24 482.06 195.13 482.06 187.5 505.01 174.25 506.17 174.91 507.84 175.87"/><polygon class="cls-152" points="507.84 183.66 507.84 188 503.09 190.75 503.09 186.4 506.17 184.63 507.84 183.66"/><polygon class="cls-153" points="507.84 191.42 507.84 195.76 503.09 198.5 503.09 194.17 506.17 192.4 507.84 191.42"/><polygon class="cls-154" points="506.17 200.16 506.17 202.59 503.34 207.48 482.06 219.76 482.06 214.07 506.17 200.16"/><polygon class="cls-155" points="506.17 174.91 506.17 179.27 482.06 193.19 482.06 187.5 505.01 174.25 506.17 174.91"/><polygon class="cls-156" points="506.17 184.63 506.17 187.02 503.09 188.8 503.09 186.4 506.17 184.63"/><polygon class="cls-157" points="506.17 192.4 506.17 194.78 503.09 196.56 503.09 194.17 506.17 192.4"/><path class="cls-158" d="M437.5,313.88a13.79,13.79,0,0,0-6.27-10.81c-1.74-1-3.32-1.11-4.46-.45h0l-8.54,4.65,8.93,15.26,8.47-4.61C436.78,317.28,437.5,315.88,437.5,313.88Z"/><path class="cls-159" d="M469.46,332.33a13.82,13.82,0,0,0-6.27-10.81c-1.74-1-3.32-1.1-4.46-.45h0l-8.54,4.65L459.12,341l8.47-4.6C468.74,335.74,469.46,334.34,469.46,332.33Z"/><path class="cls-160" d="M422.82,307.67c-3.47-2-6.28-.4-6.28,3.57a13.82,13.82,0,0,0,6.28,10.82c3.46,2,6.27.4,6.27-3.57A13.82,13.82,0,0,0,422.82,307.67Z"/><path class="cls-161" d="M422.82,311c-1.88-1.08-3.39-.22-3.39,1.93a7.43,7.43,0,0,0,3.39,5.84c1.87,1.08,3.38.22,3.38-1.93A7.45,7.45,0,0,0,422.82,311Z"/><path class="cls-162" d="M454.77,326.12c-3.47-2-6.28-.41-6.28,3.56a13.81,13.81,0,0,0,6.28,10.82c3.46,2,6.26.4,6.26-3.57A13.81,13.81,0,0,0,454.77,326.12Z"/><path class="cls-163" d="M454.76,329.42c-1.87-1.08-3.38-.22-3.38,1.93a7.48,7.48,0,0,0,3.38,5.85c1.88,1.08,3.39.22,3.39-1.94A7.43,7.43,0,0,0,454.76,329.42Z"/><path class="cls-164" d="M543.94,392.1c0-10-7.05-22.17-15.77-27.2-4.38-2.53-8.35-2.77-11.21-1.11v0l-49.64,27.86L489.76,430,539,402.39C542,400.85,543.94,397.29,543.94,392.1Z"/><path class="cls-165" d="M543.94,261.92c0-10-7.05-22.17-15.77-27.2-4.43-2.56-8.43-2.77-11.3-1.05l-49.56,27.82,22.45,38.38L539.37,272h0C542.19,270.39,543.94,266.9,543.94,261.92Z"/><path class="cls-166" d="M543.94,131.74c0-10-7.05-22.17-15.77-27.2-4.38-2.53-8.35-2.77-11.21-1.11v0l-49.64,27.86,22.45,38.38L539,142C542,140.48,543.94,136.92,543.94,131.74Z"/><path class="cls-167" d="M478.78,392.6c-8.71-5-15.79-1-15.79,9s7.08,22.18,15.79,27.21,15.77,1,15.77-9S487.5,397.63,478.78,392.6Z"/><path class="cls-168" d="M478.78,400.92c-4.71-2.72-8.52-.55-8.52,4.86s3.81,12,8.52,14.69,8.52.55,8.52-4.86S483.5,403.64,478.78,400.92Z"/><path class="cls-169" d="M478.78,262.42c-8.71-5-15.79-1-15.79,9s7.08,22.19,15.79,27.22,15.77,1,15.77-9S487.5,267.45,478.78,262.42Z"/><path class="cls-170" d="M478.78,270.74c-4.71-2.72-8.52-.55-8.52,4.86s3.81,12,8.52,14.69,8.52.55,8.52-4.85S483.5,273.46,478.78,270.74Z"/><path class="cls-171" d="M478.78,132.24c-8.71-5-15.79-1-15.79,9s7.08,22.19,15.79,27.22,15.77,1,15.77-9S487.5,137.27,478.78,132.24Z"/><path class="cls-172" d="M478.78,140.56c-4.71-2.72-8.52-.55-8.52,4.86s3.81,12,8.52,14.69,8.52.56,8.52-4.85S483.5,143.28,478.78,140.56Z"/></g><path class="cls-173" d="M332.32,339.22a8.73,8.73,0,0,1-.36,2.62,5.68,5.68,0,0,1-.42,1,.06.06,0,0,1,0,0,5.09,5.09,0,0,1-.56.86,4,4,0,0,1-.34.38,4,4,0,0,1-.37.33c-1.61,1.28-4.05,1.29-6.77-.28-4.88-2.82-8.83-9.63-8.83-15.24s3.95-7.83,8.83-5l.13.08a14.48,14.48,0,0,1,2.49,1.89c.28.27.56.53.82.82s.51.56.76.86l.08.09c.46.57.9,1.16,1.32,1.78.23.37.47.74.69,1.12.3.53.57,1.06.82,1.62a3.12,3.12,0,0,1,.23.49c.16.36.31.72.44,1.09a17.14,17.14,0,0,1,.55,1.77,14,14,0,0,1,.5,3.62Zm0-135.08c-4.81-2.86-8.7-9.61-8.7-15.15v-.06c4.81,2.85,8.7,9.6,8.7,15.15Zm0-135.08a8.73,8.73,0,0,1-.36,2.62,5.68,5.68,0,0,1-.42,1,.08.08,0,0,1,0,0,5.09,5.09,0,0,1-.56.86c-.1.13-.22.25-.34.38a3.87,3.87,0,0,1-.37.32c-1.61,1.28-4.05,1.3-6.77-.27-4.88-2.82-8.83-9.65-8.83-15.24s3.95-7.85,8.83-5l.13.08a14.48,14.48,0,0,1,2.49,1.89c.28.26.56.53.82.82s.51.56.76.86l.08.09c.46.56.9,1.15,1.32,1.78.23.36.47.74.69,1.12s.57,1.06.82,1.61a4.26,4.26,0,0,1,.23.49c.16.37.31.73.44,1.09a17.14,17.14,0,0,1,.55,1.77,14.1,14.1,0,0,1,.5,3.63ZM485.09,427.42a8.84,8.84,0,0,1-.37,2.63,6.51,6.51,0,0,1-.4,1c-1.38,2.73-4.46,3.42-8.06,1.34-4.88-2.81-8.83-9.63-8.83-15.22s3.95-7.86,8.83-5l.12.07a15.83,15.83,0,0,1,2.6,2,17.73,17.73,0,0,1,1.55,1.68c2.71,3.29,4.56,7.68,4.56,11.49Zm0-270.16a8.72,8.72,0,0,1-.37,2.62,6.25,6.25,0,0,1-.4,1c-1.38,2.73-4.46,3.42-8.06,1.34-4.88-2.81-8.83-9.63-8.83-15.23s3.95-7.85,8.83-5l.12.08a15.29,15.29,0,0,1,2.6,2,16.59,16.59,0,0,1,1.55,1.68c2.71,3.29,4.56,7.68,4.56,11.49Zm-4.41-44.41L335.92,29.27c-7.61-4.39-14.57-4.72-19.94-1.71l0,0-.74.42-6.54,3.86a.05.05,0,0,1-.05,0l-2.32,1.37,1.29,4.81,3.56,306.23,177.38,106,3.55,3.49.93-.54,6.81-4c7-3.44,11.55-12.38,11.55-25.32V171.48C511.37,148.88,497.63,122.64,480.68,112.85Zm4.41,179.49c-4.81-2.84-8.71-9.6-8.71-15.15v-.06a15.29,15.29,0,0,1,2.6,2,19.16,19.16,0,0,1,1.55,1.68c2.71,3.29,4.56,7.68,4.56,11.49Z"/><path class="cls-174" d="M485.09,157.26c0,5.54-4,7.78-8.83,5s-8.83-9.63-8.83-15.23,3.95-7.85,8.83-5l.12.08v.06C476.38,147.66,480.28,154.41,485.09,157.26Z"/><path class="cls-175" d="M476.26,142l.12.08a15.29,15.29,0,0,1,2.6,2,17.83,17.83,0,0,1,1.55,1.68c2.71,3.29,4.56,7.68,4.56,11.49v.06a8.72,8.72,0,0,1-.37,2.62,6.07,6.07,0,0,1-.4,1c-1.38,2.73-4.46,3.42-8.06,1.34-4.88-2.81-8.83-9.63-8.83-15.23S471.38,139.15,476.26,142ZM323.62,189v-.06c4.81,2.85,8.7,9.6,8.7,15.15v.06C327.51,201.28,323.62,194.53,323.62,189ZM476.26,412.14l.12.07a15.83,15.83,0,0,1,2.6,2,19.16,19.16,0,0,1,1.55,1.68c2.71,3.29,4.56,7.68,4.56,11.49v.06a8.84,8.84,0,0,1-.37,2.63,6,6,0,0,1-.4,1c-1.38,2.73-4.46,3.42-8.06,1.34-4.88-2.81-8.83-9.63-8.83-15.22S471.38,409.31,476.26,412.14ZM323.49,53.77l.13.08a14.48,14.48,0,0,1,2.49,1.89,10.57,10.57,0,0,1,.82.82c.26.27.51.56.76.86l.08.09c.46.56.9,1.15,1.32,1.78.23.36.47.74.69,1.12s.57,1.06.82,1.61a4.26,4.26,0,0,1,.23.49c.16.37.31.73.44,1.09.21.59.4,1.18.55,1.77a14.1,14.1,0,0,1,.5,3.63v.06a8.73,8.73,0,0,1-.36,2.62,6.34,6.34,0,0,1-.42,1,.08.08,0,0,1,0,0,5.09,5.09,0,0,1-.56.86c-.1.13-.22.25-.34.38a3.87,3.87,0,0,1-.37.32c-1.61,1.28-4.05,1.3-6.77-.27-4.88-2.82-8.83-9.65-8.83-15.24S318.61,51,323.49,53.77Zm0,270.16.13.08a14.48,14.48,0,0,1,2.49,1.89,10.57,10.57,0,0,1,.82.82c.26.27.51.56.76.86l.08.09c.46.57.9,1.16,1.32,1.78.23.37.47.74.69,1.12.3.53.57,1.06.82,1.62a3.12,3.12,0,0,1,.23.49c.16.36.31.72.44,1.09.21.59.4,1.18.55,1.77a14,14,0,0,1,.5,3.62v.06a8.73,8.73,0,0,1-.36,2.62,6,6,0,0,1-.42,1,.06.06,0,0,1,0,0,5.09,5.09,0,0,1-.56.86,4,4,0,0,1-.34.38,4,4,0,0,1-.37.33c-1.61,1.28-4.05,1.29-6.77-.28-4.88-2.82-8.83-9.63-8.83-15.24S318.61,321.13,323.49,323.93ZM323.62,189v-.06l-.13-.08c-4.88-2.82-8.83-.56-8.83,5s3.95,12.42,8.83,15.24,8.81.56,8.83-5C327.51,201.28,323.62,194.53,323.62,189Zm148.64-71.25L327.49,34.16C322.06,31,317,30,312.56,30.7a15.5,15.5,0,0,0-3.89,1.17.05.05,0,0,1-.05,0c-7.19,3.34-11.82,12.34-11.82,25.46V309.79c0,22.6,13.74,48.85,30.69,58.63L472.26,452c8,4.61,15.28,4.74,20.75,1.21a16.67,16.67,0,0,0,3.14-2.66c4.25-4.56,6.79-12,6.79-21.76V176.37C502.94,153.78,489.21,127.53,472.26,117.74ZM479,279.11a19.16,19.16,0,0,1,1.55,1.68c2.71,3.29,4.56,7.68,4.56,11.49v.06c-4.81-2.84-8.71-9.6-8.71-15.15v-.06A15.29,15.29,0,0,1,479,279.11Z"/><path class="cls-176" d="M485.09,427.42c0,5.55-4,7.78-8.83,5s-8.83-9.63-8.83-15.22,3.95-7.86,8.83-5l.12.07v.06C476.38,417.82,480.28,424.58,485.09,427.42Z"/><path class="cls-177" d="M332.32,339.22c0,5.55-4,7.78-8.83,5s-8.83-9.63-8.83-15.24,3.95-7.83,8.83-5l.13.08v.06C323.62,329.63,327.51,336.36,332.32,339.22Z"/><path class="cls-178" d="M332.32,204.14c0,5.54-4,7.78-8.83,5s-8.83-9.64-8.83-15.24,3.95-7.85,8.83-5l.13.08V189C323.62,194.53,327.51,201.28,332.32,204.14Z"/><path class="cls-179" d="M332.32,69.06c0,5.54-4,7.78-8.83,5s-8.83-9.65-8.83-15.24,3.95-7.85,8.83-5l.13.08v.06C323.62,59.45,327.51,66.2,332.32,69.06Z"/><path class="cls-180" d="M485.09,292.34c0,.24,0,.49,0,.72a8.35,8.35,0,0,1-.34,1.9,9.63,9.63,0,0,1-.37,1s0,0,0,.05a4.75,4.75,0,0,1-.61.94,2,2,0,0,1-.23.27l-.18.18a2.2,2.2,0,0,1-.28.24,3.47,3.47,0,0,1-.68.42,2.73,2.73,0,0,1-.68.29l-.29.08a3,3,0,0,1-.32.06.73.73,0,0,1-.25,0,7.44,7.44,0,0,1-4.54-1.18c-4.88-2.81-8.83-9.63-8.83-15.23s3.95-7.85,8.83-5l.12.07v.06C476.38,282.74,480.28,289.5,485.09,292.34Z"/><path class="cls-180" d="M485.09,292.34c0,.24,0,.49,0,.72a8.35,8.35,0,0,1-.34,1.9,6.83,6.83,0,0,1-.37,1s0,0,0,.05a4.75,4.75,0,0,1-.61.94,2,2,0,0,1-.23.27l-.18.18a2.2,2.2,0,0,1-.28.24,3.47,3.47,0,0,1-.68.42,2.73,2.73,0,0,1-.68.29l-.29.08a3,3,0,0,1-.32.06.73.73,0,0,1-.25,0,7.44,7.44,0,0,1-4.54-1.18c-4.88-2.81-8.83-9.63-8.83-15.23s3.95-7.85,8.83-5l.12.07v.06C476.38,282.74,480.28,289.5,485.09,292.34Z"/><path class="cls-180" d="M485.09,292.34c0,.24,0,.49,0,.72a8.35,8.35,0,0,1-.34,1.9,6.83,6.83,0,0,1-.37,1s0,0,0,.05a4.75,4.75,0,0,1-.61.94,2,2,0,0,1-.23.27l-.18.18a2.2,2.2,0,0,1-.28.24,3.47,3.47,0,0,1-.68.42,2.73,2.73,0,0,1-.68.29l-.29.08a3,3,0,0,1-.32.06.73.73,0,0,1-.25,0,7.44,7.44,0,0,1-4.54-1.18c-4.88-2.81-8.83-9.63-8.83-15.23s3.95-7.85,8.83-5l.12.07v.06C476.38,282.74,480.28,289.5,485.09,292.34Z"/><path class="cls-180" d="M485.09,292.34c0,.24,0,.49,0,.72a8.35,8.35,0,0,1-.34,1.9,6.83,6.83,0,0,1-.37,1s0,0,0,.05a4.75,4.75,0,0,1-.61.94,2,2,0,0,1-.23.27l-.18.18a2.2,2.2,0,0,1-.28.24,3.47,3.47,0,0,1-.68.42,2.73,2.73,0,0,1-.68.29l-.29.08a3,3,0,0,1-.32.06.73.73,0,0,1-.25,0,7.44,7.44,0,0,1-4.54-1.18c-4.88-2.81-8.83-9.63-8.83-15.23s3.95-7.85,8.83-5l.12.07v.06C476.38,282.74,480.28,289.5,485.09,292.34Z"/><path class="cls-181" d="M370.82,287.43,277.59,233.6c-5.46-3.16-10.52-1.2-13.57.1a11.57,11.57,0,0,0-2.18,1.26l-90.15,52.41,75.39,49.1,9.79,5.79v30.41L382.4,300.2C379.6,294.85,375.45,290.1,370.82,287.43Z"/><path class="cls-182" d="M256.87,372.67v71c0,9.69,6.84,21.49,15.29,26.36l14,8.1.87,98.85,92.56-52.36c2.82-1.52,6.5-5.75,6.5-12.3V313.79a30.14,30.14,0,0,0-3.71-13.59Z"/><path d="M268.71,340.25l-88.89-49.92c-6-3.46-9.87-3.18-15.09-1s-9.39,5.91-9.39,14V501.9c0,12.05,8.54,26.79,19,32.85l88.89,49.92c6,3.46,10.3,3.83,15.3,1.22s9.18-6.12,9.18-14.25V373.1C287.76,361.05,279.21,346.31,268.71,340.25Z"/><path class="cls-3" d="M157.36,506.68V309.87c0-6.58,4-9.61,8.94-6.76l94.63,54.64c4.94,2.85,8.95,10.5,8.95,17.08V571.64c0,6.59-4,9.62-8.95,6.77L166.3,523.77C161.36,520.92,157.36,513.27,157.36,506.68Z"/><path class="cls-183" d="M233.23,414.86,194,392.21a5.28,5.28,0,0,1-2.22-4.23h0c0-1.63,1-2.38,2.22-1.67L233.23,409a5.31,5.31,0,0,1,2.21,4.23h0C235.44,414.81,234.45,415.56,233.23,414.86Z"/><path class="cls-183" d="M233.23,428.18,194,405.53a5.28,5.28,0,0,1-2.22-4.23h0c0-1.63,1-2.38,2.22-1.67l39.22,22.65a5.3,5.3,0,0,1,2.21,4.23h0C235.44,428.14,234.45,428.89,233.23,428.18Z"/><path class="cls-183" d="M233.23,441.5,194,418.86a5.29,5.29,0,0,1-2.22-4.23h0c0-1.64,1-2.38,2.22-1.68l39.22,22.65a5.3,5.3,0,0,1,2.21,4.23h0C235.44,441.46,234.45,442.21,233.23,441.5Z"/><path class="cls-183" d="M233.23,474.66,194,452a5.29,5.29,0,0,1-2.22-4.23h0c0-1.63,1-2.38,2.22-1.68l39.22,22.65a5.31,5.31,0,0,1,2.21,4.23h0C235.44,474.62,234.45,475.37,233.23,474.66Z"/><path class="cls-183" d="M233.23,488,194,465.34a5.29,5.29,0,0,1-2.22-4.23h0c0-1.63,1-2.38,2.22-1.67l39.22,22.64a5.31,5.31,0,0,1,2.21,4.23h0C235.44,487.94,234.45,488.69,233.23,488Z"/><path class="cls-183" d="M233.23,501.31,194,478.66a5.28,5.28,0,0,1-2.22-4.23h0c0-1.63,1-2.38,2.22-1.67l39.22,22.64a5.31,5.31,0,0,1,2.21,4.23h0C235.44,501.27,234.45,502,233.23,501.31Z"/><polygon class="cls-184" points="219.36 453.36 207.88 446.73 207.88 436.8 219.36 443.42 219.36 453.36"/><ellipse cx="172.41" cy="324.34" rx="5.67" ry="9.81" transform="translate(-140.12 131.35) rotate(-30.31)"/><ellipse cx="254.07" cy="371.49" rx="5.67" ry="9.81" transform="translate(-152.76 179.01) rotate(-30.31)"/><ellipse cx="172.41" cy="508.3" rx="5.67" ry="9.81" transform="translate(-232.96 156.5) rotate(-30.31)"/><ellipse cx="254.07" cy="555.44" rx="5.67" ry="9.81" transform="translate(-245.59 204.16) rotate(-30.31)"/><path class="cls-60" d="M202.42,341.26a.94.94,0,0,0,.45.16.46.46,0,0,0,.31-.1.6.6,0,0,0,.18-.29,1.9,1.9,0,0,0,0-.44v-.08l.52.3v.08a1.81,1.81,0,0,1-.1.65.72.72,0,0,1-.29.4.65.65,0,0,1-.47.11,1.53,1.53,0,0,1-.65-.24,2.85,2.85,0,0,1-1.12-1.16,3.65,3.65,0,0,1-.4-1.73v-1.1a1.55,1.55,0,0,1,.4-1.26c.27-.2.64-.16,1.12.11a3,3,0,0,1,.65.52,3.21,3.21,0,0,1,.86,2.15v.08l-.52-.29V339a2.2,2.2,0,0,0-.06-.5,2.13,2.13,0,0,0-.18-.5,2,2,0,0,0-.3-.46,2.3,2.3,0,0,0-.45-.36c-.33-.19-.58-.19-.75,0a1.39,1.39,0,0,0-.25,1v1a2.92,2.92,0,0,0,.25,1.26A1.81,1.81,0,0,0,202.42,341.26Z"/><path class="cls-60" d="M204.81,338.15l.52.3v4.39l2.25,1.3v.56l-2.77-1.6Z"/><path class="cls-60" d="M208.56,340.32l2.73,1.57v.56l-1.11-.64v3.84l1.11.64v.55l-2.73-1.58v-.55l1.11.64v-3.84l-1.11-.64Z"/><path class="cls-60" d="M212.09,342.36l1,.56.58,5,.07,0,.58-4.35,1,.56v4.95l-.48-.28v-4.69l-.07,0-.58,4.35-.94-.54-.57-5-.08,0v4.69l-.48-.28Z"/><path class="cls-60" d="M218.38,349.7l-1.84-1.06-.32,1-.55-.32,1.3-4.19,1,.57,1.3,5.69-.55-.32Zm-1-4-.74,2.48,1.56.9-.74-3.34Z"/><path class="cls-60" d="M219.71,346.76l3,1.74v.55l-1.26-.72v4.39l-.51-.3V348l-1.26-.72Z"/><path class="cls-60" d="M223.69,349.05l2.61,1.51v.55l-2.1-1.21v1.64l2.06,1.19v.55l-2.06-1.19v1.65l2.13,1.23v.55L223.69,354Z"/><path class="cls-60" d="M202.68,345.39l1,.57.58,5,.07,0,.58-4.36,1,.57v4.95l-.48-.28v-4.69l-.08,0-.58,4.35-.93-.54-.58-5-.07,0v4.69l-.48-.28Z"/><path class="cls-60" d="M206.53,349.54a1.52,1.52,0,0,1,.4-1.26c.27-.2.64-.16,1.11.11a2.9,2.9,0,0,1,1.12,1.18,3.7,3.7,0,0,1,.4,1.72v1.1c0,.66-.14,1.08-.4,1.27s-.64.15-1.12-.12a3,3,0,0,1-1.11-1.16,3.6,3.6,0,0,1-.4-1.74ZM208,353c.33.2.58.21.75,0a1.36,1.36,0,0,0,.25-1v-1a3,3,0,0,0-.25-1.24A1.81,1.81,0,0,0,208,349c-.33-.2-.58-.2-.75,0a1.45,1.45,0,0,0-.24.95v1a3.08,3.08,0,0,0,.24,1.26A1.81,1.81,0,0,0,208,353Z"/><path class="cls-60" d="M210.38,349.84l1.41.82a2.83,2.83,0,0,1,1.54,2.72v1.27c0,.64-.12,1-.37,1.19s-.64.07-1.17-.24l-1.41-.82v-.55l.36.21V350.6l-.36-.21Zm1.34,5.17a2.2,2.2,0,0,0,.49.22.48.48,0,0,0,.34,0,.5.5,0,0,0,.2-.29,2.44,2.44,0,0,0,.06-.61v-1.18a3.37,3.37,0,0,0-.06-.68,2.08,2.08,0,0,0-.2-.53,1.9,1.9,0,0,0-.34-.41,2.64,2.64,0,0,0-.49-.34l-.46-.27v3.84Z"/><path class="cls-60" d="M214.62,352.29v3.27a2.17,2.17,0,0,0,.24,1.05,1.78,1.78,0,0,0,.72.72c.31.19.55.22.71.11s.25-.37.25-.77V353.4l.51.3V357c0,.58-.13.94-.39,1.09s-.62.09-1.08-.18a2.94,2.94,0,0,1-1.09-1.07,3.07,3.07,0,0,1-.39-1.54V352Z"/><path class="cls-60" d="M218,354.24l.52.3v4.39l2.25,1.3v.55l-2.77-1.6Z"/><path class="cls-60" d="M221.8,356.44l2.61,1.51v.55l-2.09-1.21v1.64l2.06,1.18v.55l-2.06-1.18v1.65l2.13,1.23v.55l-2.65-1.53Z"/><path class="cls-185" d="M265.67,348l-93.24-53.83c-5.46-3.15-10.52-1.19-13.56.11a12.09,12.09,0,0,0-7.16,11.43V504.29c0,9.68,6.85,21.49,15.29,26.36l93.24,53.83c5.46,3.15,11.39,2.28,14.21.76s6.5-5.75,6.5-12.3V374.41C281,364.72,274.11,352.92,265.67,348Zm4.21,224.47a9.11,9.11,0,0,1-.79,3.92,9.6,9.6,0,0,1-3.42-1.25l-93.24-53.83c-5.31-3.07-9.64-10.53-9.64-16.63V306.19a9,9,0,0,1,.79-3.93,9.67,9.67,0,0,1,3.42,1.25l93.24,53.83c5.31,3.07,9.64,10.53,9.64,16.63Z"/><path class="cls-186" d="M260.24,350.87,167,297c-8.44-4.88-15.29-1-15.29,8.71V504.29c0,9.68,6.85,21.49,15.29,26.36l93.24,53.83c8.44,4.87,15.28,1,15.28-8.71V377.23C275.52,367.54,268.68,355.74,260.24,350.87Zm9.64,221.64c0,6.1-4.33,8.56-9.64,5.49L167,524.17c-5.32-3.07-9.64-10.53-9.64-16.63V309c0-6.1,4.32-8.57,9.64-5.5l93.24,53.83c5.31,3.07,9.64,10.53,9.64,16.63Z"/><g class="cls-187"><path class="cls-186" d="M370.83,307.24c-2.8-5.47-7-10.36-11.74-13.08l-99.27-58-5.55,3.23,103.18,60.18c5.31,3.07,11.3,14.1,11.3,20.2l0,210.84,5.65-3.19V320.53A29.92,29.92,0,0,0,370.83,307.24Z"/></g></g></g></g></svg>