<svg xmlns="http://www.w3.org/2000/svg" xmlns:xlink="http://www.w3.org/1999/xlink" viewBox="0 0 244.75 312.6" xmlns:v="https://vecta.io/nano"><defs><linearGradient id="A" x1="182.65" y1="277.41" x2="182.65" y2="58.32" xlink:href="#o"><stop offset="0" stop-color="#999" stop-opacity=".5"/><stop offset=".25" stop-color="#9f9f9f" stop-opacity=".64"/><stop offset=".75" stop-color="#ababab" stop-opacity=".9"/><stop offset="1" stop-color="#b0b0b0"/></linearGradient><linearGradient id="B" x1="171.51" x2="171.51" xlink:href="#A"/><linearGradient id="C" x1="183.23" x2="183.23" xlink:href="#A"/><linearGradient id="D" x1="174.75" x2="174.75" xlink:href="#A"/><linearGradient id="E" x1="170.35" x2="170.35" xlink:href="#A"/><linearGradient id="F" x1="172.64" x2="172.64" xlink:href="#A"/><linearGradient id="G" x1="173.72" x2="173.72" xlink:href="#A"/><linearGradient id="H" x1="182.03" x2="182.03" xlink:href="#A"/><linearGradient id="I" x1="116.27" x2="116.27" xlink:href="#A"/><linearGradient id="J" x1="178.5" x2="178.5" xlink:href="#A"/><linearGradient id="K" x1="169.15" x2="169.15" xlink:href="#A"/><linearGradient id="L" x1="170.69" y1="248.45" x2="170.7" y2="248.45" xlink:href="#o"><stop offset="0" stop-color="#999" stop-opacity=".5"/><stop offset=".07" stop-color="#9e9e9e" stop-opacity=".54"/><stop offset=".5" stop-color="#bebebe" stop-opacity=".8"/><stop offset=".82" stop-color="#d1d1d1" stop-opacity=".94"/><stop offset=".98" stop-color="#d9d9d9"/></linearGradient><linearGradient id="M" x1="170.7" x2="170.7" xlink:href="#A"/><linearGradient id="N" xlink:href="#L"/><linearGradient id="O" x1="63.6" y1="273.74" x2="63.6" y2="116.09" xlink:href="#o"><stop offset="0" stop-color="#999" stop-opacity=".5"/><stop offset=".24" stop-color="#aaa" stop-opacity=".58"/><stop offset=".75" stop-color="#ccc" stop-opacity=".74"/><stop offset="1" stop-color="#d9d9d9" stop-opacity=".8"/></linearGradient><linearGradient id="P" x1="169" x2="169" xlink:href="#O"/><linearGradient id="Q" x1="165.78" y1="247.93" x2="165.91" y2="247.93" xlink:href="#L"/><linearGradient id="R" x1="165.85" x2="165.85" xlink:href="#O"/><linearGradient id="S" x1="116.27" y1="136.35" x2="116.27" y2="61.96" xlink:href="#L"/><linearGradient id="T" x1="56.75" x2="56.75" xlink:href="#A"/><linearGradient id="U" x1="175.85" x2="175.85" xlink:href="#A"/><linearGradient id="V" x1="116.28" x2="116.28" xlink:href="#O"/><radialGradient id="W" cx="836.88" cy="398.59" fx="867.907" r="43.11" gradientTransform="matrix(1, 0.02, -0.03, 1.68, -647.45, -605.71)" xlink:href="#o"><stop offset=".09" stop-color="#f5f5f5"/><stop offset=".54" stop-color="#e4e4e4"/><stop offset="1" stop-color="#cfcfcf"/></radialGradient><linearGradient id="X" x1="192.83" y1="98.86" x2="202.1" y2="98.86" xlink:href="#o"><stop offset="0" stop-color="#ededed"/><stop offset="1" stop-color="#8f8f8f"/></linearGradient><linearGradient id="Y" x1="111.83" y1="52.56" x2="193.61" y2="52.56" xlink:href="#o"><stop offset="0" stop-color="#8f8f8f"/><stop offset="1" stop-color="#ededed"/></linearGradient><linearGradient id="Z" y1="78.38" x2="243.95" y2="78.38" xlink:href="#X"/><linearGradient id="a" x1="154.29" y1="36.7" y2="36.7" xlink:href="#Y"/><linearGradient id="b" x1="140.93" y1="81.97" y2="81.97" xlink:href="#Y"/><linearGradient id="c" x1="51.71" y1="128.3" x2="141.21" y2="128.3" xlink:href="#o"><stop offset="0" stop-color="#d4d4d4"/><stop offset="1" stop-color="#333"/></linearGradient><linearGradient id="d" x1="116.33" x2="116.33" xlink:href="#O"/><radialGradient id="e" cx="751.09" cy="375.04" fx="751.091" r="5.04" gradientTransform="translate(-695.41 -367.11) rotate(-0.31)" xlink:href="#W"/><linearGradient id="f" x1="58.387" y1="6.005" x2="57.031" y2="1.651" xlink:href="#o"><stop offset="0" stop-color="#333"/><stop offset="1" stop-color="#d4d4d4"/></linearGradient><path id="g" d="M170.7 248.5h0a.28.28 0 0 0 0-.09h0a.38.38 0 0 1 0 .09z"/><path id="h" d="M151.58 130.4a70.23 70.23 0 0 0 10.42-4.86c25.08-14.48 24.95-38-.3-52.6s-66-14.64-91.1-.17-24.95 38 .28 52.6A70.08 70.08 0 0 0 81 130.14c20.92-8.77 49.6-8.68 70.58.26z"/><path id="i" d="M57.1 163.18l-.67-5.9a20.49 20.49 0 0 0 .67 5.91z"/><path id="j" d="M176.13 158.2l-.56 4.94a20.24 20.24 0 0 0 .56-4.94z"/><path id="k" d="M75.9 132.53l-.45.24c24.4 10.08 57.28 10.2 81.66.3l-.45-.25c-24.18 9.65-56.56 9.54-80.76-.3z"/><path id="l" d="M75.44 132.77l-1.63.9c-11.3 6.52-17.1 15-17.4 23.6l.67 5.9c1.86 7.08 7.52 13.9 17 19.36 23.45 13.54 61.35 13.62 84.66.16 9.5-5.5 15.12-12.4 16.83-19.55l.56-4.94c-.08-8.82-6-17.64-17.66-24.4-.45-.26-.9-.5-1.37-.75-24.4 9.93-57.27 9.78-81.67-.3z"/><path id="m" d="M151.58 130.4c-21-8.94-49.66-9-70.6-.26 21.38 8.2 49.25 8.28 70.6.26z"/><path id="n" d="M81 130.14l-5.08 2.4c24.2 9.83 56.58 9.94 80.76.3q-2.44-1.3-5.07-2.42c-21.4 8.02-49.26 7.93-70.6-.26z"/><linearGradient id="o" gradientUnits="userSpaceOnUse"/></defs><path d="M111.38 311.65L3.56 249.4a7.12 7.12 0 0 1 0-12.33l107.06-61.8a7.13 7.13 0 0 1 7.12 0l107.82 62.25a7.12 7.12 0 0 1 0 12.33l-107.06 61.8a7.13 7.13 0 0 1-7.12 0z" fill="#e0341b" opacity=".5"/><path d="M182.37 84.86l.57.9z" fill="url(#A)"/><path d="M171.06 73.54l.9.65-.9-.65z" fill="url(#B)"/><path d="M183 85.8l.54.92a8.13 8.13 0 0 1-.54-.92z" fill="url(#C)"/><path d="M174.32 76l.86.73c-.28-.2-.57-.45-.86-.73z" fill="url(#D)"/><path d="M169.88,72.72l.94.65Z" fill="url(#E)"/><path d="M172.2,74.37l.87.66Z" fill="url(#F)"/><path d="M173.3 75.2l.85.68-.85-.68z" fill="url(#G)"/><path d="M181.73 83.92l.6.9-.6-.9z" fill="url(#H)"/><path d="M183.5 86.7c8 14.13 2.3 30.23-17.07 41.4a74.86 74.86 0 0 1-9.78 4.71l.45.25a75.44 75.44 0 0 0 9.34-4.53 49.06 49.06 0 0 0 14.46-12.11l-4.77 41.78a20.24 20.24 0 0 1-.56 4.94l-9.78 85.74c-.93 6.48-5.7 11.53-14.26 16.48-19.35 11.17-50.8 11.1-70.27-.13-8.6-4.95-13.4-10-14.45-16.44h0a15.31 15.31 0 0 1-.18-1.66h0l-9.52-84a20.49 20.49 0 0 1-.67-5.91l-4.67-41.18a49.78 49.78 0 0 0 14.67 12.27 75.42 75.42 0 0 0 9 4.41l.45-.24a76.15 76.15 0 0 1-9.47-4.6c-27.7-16-27.83-41.84-.3-57.73s72.3-15.82 100 .18c.83.48 1.65 1 2.43 1.47q-1.17-.75-2.43-1.47c-27.7-16-72.48-16.08-100-.2C51 78.9 44.26 90.57 45.75 102l16 145.7c.8 7.44 6.14 14.75 16 20.44 21.38 12.35 55.94 12.4 77.2.14 9.52-5.5 14.76-12.55 15.7-19.75h0a.38.38 0 0 0 0-.1h0v-.22l16.08-145.98a25.21 25.21 0 0 0-3.22-15.51z" fill="url(#I)"/><path d="M181.7 83.9a40.51 40.51 0 0 0-6.42-7 40.51 40.51 0 0 1 6.42 7z" fill="url(#J)"/><path d="M168.64 71.9l1 .67-1-.67z" fill="url(#K)"/><path d="M170.7 248.5h0v-.1a.28.28 0 0 1 0 .09z" fill="url(#L)"/><use xlink:href="#g" fill="url(#M)"/><use xlink:href="#g" fill="url(#N)"/><path d="M73.8 133.67l1.63-.9a75.42 75.42 0 0 1-9-4.41 49.78 49.78 0 0 1-14.67-12.27l4.67 41.18c.28-8.57 6.07-17.08 17.37-23.6z" fill="url(#O)"/><path d="M176.13 158.2l4.77-41.78a49.06 49.06 0 0 1-14.46 12.11 75.44 75.44 0 0 1-9.34 4.53l1.37.75c11.7 6.75 17.58 15.57 17.66 24.4z" fill="url(#P)"/><path d="M165.9 247.36l-.13 1.14.13-1.14z" fill="url(#Q)"/><path d="M165.9 247.36l-.13 1.14.13-1.14z" fill="url(#R)"/><use xlink:href="#h" fill="url(#I)"/><use xlink:href="#h" opacity=".7" fill="url(#S)"/><g fill="#ebebeb"><path d="M174.14 75.9l.18.15zm-1.07-.9l.22.18zm-1.07-.8l.24.18zm-1.18-.83l.24.17zm-1.16-.8l.22.14zm12.68 12.22h0zm-13.8-12.95l.1.06zM183.5 86.7zm-.56-.95h0zm-1.24-1.85h0zm-6.52-7.13l.1.1z"/><path d="M66.1 70.2c-27.52 15.9-27.4 41.74.3 57.73a76.15 76.15 0 0 0 9.47 4.6c1.63-.86 3.33-1.65 5.08-2.4a70.08 70.08 0 0 1-10.11-4.77c-25.23-14.57-25.36-38.12-.28-52.6s65.87-14.4 91.1.17 25.37 38.12.3 52.6a70.23 70.23 0 0 1-10.39 4.86q2.63 1.1 5.07 2.42a74.86 74.86 0 0 0 9.78-4.71c19.36-11.17 25-27.27 17.07-41.4h0c-.17-.3-.35-.62-.54-.92h0l-.57-.9-.6-.9a40.51 40.51 0 0 0-6.42-7l-.1-.1c-.28-.25-.57-.5-.86-.73l-.18-.15-.85-.68-.22-.18-.87-.66-.24-.18c-.3-.22-.6-.43-.9-.65l-.24-.17-.94-.65-.22-.14c-.33-.23-.67-.45-1-.67l-.1-.06c-.78-.5-1.6-1-2.43-1.47-27.8-16.15-72.57-16.23-100.1-.33z"/></g><use xlink:href="#i" fill="url(#T)"/><use xlink:href="#i" fill="#fff" opacity=".6"/><use xlink:href="#j" fill="url(#U)"/><use xlink:href="#j" fill="#fff" opacity=".6"/><use xlink:href="#k" fill="url(#I)"/><use xlink:href="#l" fill="url(#V)"/><use xlink:href="#m" fill="url(#I)"/><use xlink:href="#m" opacity=".7" fill="url(#S)"/><use xlink:href="#m" fill="#fff" opacity=".6"/><use xlink:href="#n" fill="#ebebeb"/><path d="M201.64 48.68l-136 154.55" fill="none" stroke-linecap="round" stroke-linejoin="round" stroke="#e40427" stroke-width="5.18"/><ellipse cx="178.35" cy="77.73" rx="45.88" ry="79.47" transform="matrix(.673529 -.739161 .739161 .673529 .78 157.22)" fill="url(#W)"/><g fill="none" stroke-linecap="round" stroke-linejoin="round"><g stroke-width=".78"><path d="M193.22 58.25a130.93 130.93 0 0 1 4.31 13.64c6.84 26.56 4.1 50.55.1 67.58" stroke="url(#X)"/><path d="M112.2 51.05c15-3.86 39.53-7.55 66.3 1.17a108.27 108.27 0 0 1 14.71 6" stroke="url(#Y)"/><path d="M193.22,58.25c11.78,3.42,33.1,11.74,46,32.14a64.32,64.32,0,0,1,4.36,8.11" stroke="url(#Z)"/><path d="M193.22 58.25c-2.67-8.44-9.8-26.5-27.68-37.75a57.88 57.88 0 0 0-10.86-5.35" stroke="url(#a)"/><path d="M193.22 58.25l-51.9 47.45" stroke="url(#b)"/></g><path d="M201.64 48.68l-8.42 9.57" stroke="#e40427" stroke-width="5.18"/></g><path d="M67.16 248.77a16.81 16.81 0 0 1-.08-8.25 21.9 21.9 0 0 1 3.65-7.58 37.15 37.15 0 0 1 13.09-10.45c10-5.1 21.33-7.08 32.46-7.17 11.12.14 22.4 2.2 32.42 7.32a37.73 37.73 0 0 1 13.09 10.44 22.18 22.18 0 0 1 3.73 7.54 16.7 16.7 0 0 1 0 8.25 16.79 16.79 0 0 0 0-4.07 18.62 18.62 0 0 0-.35-2c-.18-.65-.35-1.3-.6-1.92a21.47 21.47 0 0 0-4.12-6.75 38.3 38.3 0 0 0-13-9.09 67.12 67.12 0 0 0-15.27-4.74 86.15 86.15 0 0 0-32-.09A66.76 66.76 0 0 0 85 224.9a37.61 37.61 0 0 0-12.95 9.1 21.1 21.1 0 0 0-4 6.79 17.47 17.47 0 0 0-.89 7.98z" fill="#fff" opacity=".6"/><path d="M63.5 1.68h0A3.4 3.4 0 0 0 61.11.16a9.67 9.67 0 0 0-8.33 2.58 3.25 3.25 0 0 0-1 2.6h0l77.62 249.23a3.1 3.1 0 0 0 2.49 1.86 9.64 9.64 0 0 0 8.33-2.58 3 3 0 0 0 1-2.94h0z" fill="url(#c)"/><path d="M158.74 182.7c-23.3 13.46-61.2 13.38-84.66-.16-9.47-5.46-15.13-12.28-17-19.36l9.52 84a15.31 15.31 0 0 0 .18 1.66h0c1 6.46 5.86 11.5 14.45 16.44 19.47 11.24 50.92 11.3 70.27.13 8.57-4.95 13.33-10 14.26-16.48l.13-1.13 9.65-84.6c-1.68 7.12-7.3 14.02-16.8 19.5zm6.76 66.17c1.54-8.32-3.24-17-14.33-23.4-19.4-11.2-50.74-11.25-70-.12-11.05 6.38-15.73 15.06-14.05 23.4-1.68-8.35 3-17 14.05-23.4 19.28-11.13 50.63-11.07 70 .12 11.1 6.4 15.83 15.07 14.33 23.4zm.28-.37l.13-1.14a14.73 14.73 0 0 1-.13 1.14z" fill="url(#d)"/><ellipse cx="57.71" cy="3.85" rx="6.17" ry="3.56" transform="matrix(.956356 -.292205 .292205 .956356 1.39 17.03)" fill="url(#e)"/><path d="M58.42 6a7.82 7.82 0 0 1-3.84.28c-.83-.2-1.4-.57-1.55-1a1.89 1.89 0 0 1 .69-1.68A7.48 7.48 0 0 1 57 1.69a7.82 7.82 0 0 1 3.84-.28c.83.2 1.4.57 1.55 1a1.9 1.9 0 0 1-.69 1.68A7.58 7.58 0 0 1 58.42 6z" fill="url(#f)"/><g fill="#fff"><use xlink:href="#l" opacity=".6"/><use xlink:href="#n" opacity=".6"/><use xlink:href="#k" opacity=".6"/></g></svg>