<svg xmlns="http://www.w3.org/2000/svg" xmlns:xlink="http://www.w3.org/1999/xlink" viewBox="0 0 244.75 312.6"><defs><style>.cls-1{fill:#e0341b;opacity:0.5;}.cls-2{fill:url(#linear-gradient);}.cls-3{fill:url(#linear-gradient-2);}.cls-4{fill:url(#linear-gradient-3);}.cls-5{fill:url(#linear-gradient-4);}.cls-6{fill:url(#linear-gradient-5);}.cls-7{fill:url(#linear-gradient-6);}.cls-8{fill:url(#linear-gradient-7);}.cls-9{fill:url(#linear-gradient-8);}.cls-10{fill:url(#linear-gradient-9);}.cls-11{fill:url(#linear-gradient-10);}.cls-12{fill:url(#linear-gradient-11);}.cls-13{fill:url(#linear-gradient-12);}.cls-14{fill:url(#linear-gradient-13);}.cls-15{fill:url(#linear-gradient-14);}.cls-16{fill:url(#linear-gradient-15);}.cls-17{fill:url(#linear-gradient-16);}.cls-18{fill:url(#linear-gradient-17);}.cls-19{fill:url(#linear-gradient-18);}.cls-20{fill:url(#linear-gradient-19);}.cls-21,.cls-29{opacity:0.7;}.cls-21{fill:url(#linear-gradient-20);}.cls-22{fill:#ebebeb;}.cls-23{fill:url(#linear-gradient-21);}.cls-24,.cls-38{fill:#fff;}.cls-24,.cls-37{opacity:0.6;}.cls-25{fill:url(#linear-gradient-22);}.cls-26{fill:url(#linear-gradient-23);}.cls-27{fill:url(#linear-gradient-24);}.cls-28{fill:url(#linear-gradient-25);}.cls-29{fill:url(#linear-gradient-26);}.cls-30,.cls-32,.cls-33,.cls-34,.cls-35,.cls-36{fill:none;stroke-linecap:round;stroke-linejoin:round;}.cls-30{stroke:#e40427;stroke-width:5.18px;}.cls-31{fill:url(#radial-gradient);}.cls-32,.cls-33,.cls-34,.cls-35,.cls-36{stroke-width:0.78px;}.cls-32{stroke:url(#linear-gradient-27);}.cls-33{stroke:url(#linear-gradient-28);}.cls-34{stroke:url(#linear-gradient-29);}.cls-35{stroke:url(#linear-gradient-30);}.cls-36{stroke:url(#linear-gradient-31);}.cls-39{fill:url(#linear-gradient-32);}.cls-40{fill:url(#linear-gradient-33);}.cls-41{fill:url(#radial-gradient-2);}.cls-42{fill:url(#linear-gradient-34);}</style><linearGradient id="linear-gradient" x1="182.65" y1="277.41" x2="182.65" y2="58.32" gradientUnits="userSpaceOnUse"><stop offset="0" stop-color="#999" stop-opacity="0.5"/><stop offset="0.25" stop-color="#9f9f9f" stop-opacity="0.64"/><stop offset="0.75" stop-color="#ababab" stop-opacity="0.9"/><stop offset="1" stop-color="#b0b0b0"/></linearGradient><linearGradient id="linear-gradient-2" x1="171.51" y1="277.41" x2="171.51" y2="58.32" xlink:href="#linear-gradient"/><linearGradient id="linear-gradient-3" x1="183.23" y1="277.41" x2="183.23" y2="58.32" xlink:href="#linear-gradient"/><linearGradient id="linear-gradient-4" x1="174.75" y1="277.41" x2="174.75" y2="58.32" xlink:href="#linear-gradient"/><linearGradient id="linear-gradient-5" x1="170.35" y1="277.41" x2="170.35" y2="58.32" xlink:href="#linear-gradient"/><linearGradient id="linear-gradient-6" x1="172.64" y1="277.41" x2="172.64" y2="58.32" xlink:href="#linear-gradient"/><linearGradient id="linear-gradient-7" x1="173.72" y1="277.41" x2="173.72" y2="58.32" xlink:href="#linear-gradient"/><linearGradient id="linear-gradient-8" x1="182.03" y1="277.41" x2="182.03" y2="58.32" xlink:href="#linear-gradient"/><linearGradient id="linear-gradient-9" x1="116.27" y1="277.41" x2="116.27" y2="58.32" xlink:href="#linear-gradient"/><linearGradient id="linear-gradient-10" x1="178.5" y1="277.41" x2="178.5" y2="58.32" xlink:href="#linear-gradient"/><linearGradient id="linear-gradient-11" x1="169.15" y1="277.41" x2="169.15" y2="58.32" xlink:href="#linear-gradient"/><linearGradient id="linear-gradient-12" x1="170.69" y1="248.45" x2="170.7" y2="248.45" gradientUnits="userSpaceOnUse"><stop offset="0" stop-color="#999" stop-opacity="0.5"/><stop offset="0.07" stop-color="#9e9e9e" stop-opacity="0.54"/><stop offset="0.5" stop-color="#bebebe" stop-opacity="0.79"/><stop offset="0.82" stop-color="#d1d1d1" stop-opacity="0.94"/><stop offset="0.98" stop-color="#d9d9d9"/></linearGradient><linearGradient id="linear-gradient-13" x1="170.7" y1="277.41" x2="170.7" y2="58.32" xlink:href="#linear-gradient"/><linearGradient id="linear-gradient-14" x1="170.69" y1="248.45" x2="170.7" y2="248.45" xlink:href="#linear-gradient-12"/><linearGradient id="linear-gradient-15" x1="63.6" y1="273.74" x2="63.6" y2="116.09" gradientUnits="userSpaceOnUse"><stop offset="0" stop-color="#999" stop-opacity="0.5"/><stop offset="0.24" stop-color="#aaa" stop-opacity="0.58"/><stop offset="0.75" stop-color="#ccc" stop-opacity="0.74"/><stop offset="1" stop-color="#d9d9d9" stop-opacity="0.8"/></linearGradient><linearGradient id="linear-gradient-16" x1="169" y1="273.74" x2="169" y2="116.09" xlink:href="#linear-gradient-15"/><linearGradient id="linear-gradient-17" x1="165.78" y1="247.93" x2="165.91" y2="247.93" xlink:href="#linear-gradient-12"/><linearGradient id="linear-gradient-18" x1="165.85" y1="273.74" x2="165.85" y2="116.09" xlink:href="#linear-gradient-15"/><linearGradient id="linear-gradient-19" x1="116.27" y1="277.41" x2="116.27" y2="58.32" xlink:href="#linear-gradient"/><linearGradient id="linear-gradient-20" x1="116.27" y1="136.35" x2="116.27" y2="61.96" xlink:href="#linear-gradient-12"/><linearGradient id="linear-gradient-21" x1="56.75" y1="277.41" x2="56.75" y2="58.32" xlink:href="#linear-gradient"/><linearGradient id="linear-gradient-22" x1="175.85" y1="277.41" x2="175.85" y2="58.32" xlink:href="#linear-gradient"/><linearGradient id="linear-gradient-23" x1="116.27" y1="277.41" x2="116.27" y2="58.32" xlink:href="#linear-gradient"/><linearGradient id="linear-gradient-24" x1="116.28" y1="273.74" x2="116.28" y2="116.09" xlink:href="#linear-gradient-15"/><linearGradient id="linear-gradient-25" x1="116.27" y1="277.41" x2="116.27" y2="58.32" xlink:href="#linear-gradient"/><linearGradient id="linear-gradient-26" x1="116.27" y1="136.35" x2="116.27" y2="61.96" xlink:href="#linear-gradient-12"/><radialGradient id="radial-gradient" cx="836.88" cy="398.59" fx="867.9072994357714" r="43.11" gradientTransform="matrix(1, 0.02, -0.03, 1.68, -647.45, -605.71)" gradientUnits="userSpaceOnUse"><stop offset="0.09" stop-color="#f5f5f5"/><stop offset="0.54" stop-color="#e4e4e4"/><stop offset="1" stop-color="#cfcfcf"/></radialGradient><linearGradient id="linear-gradient-27" x1="192.83" y1="98.86" x2="202.1" y2="98.86" gradientUnits="userSpaceOnUse"><stop offset="0" stop-color="#ededed"/><stop offset="1" stop-color="#8f8f8f"/></linearGradient><linearGradient id="linear-gradient-28" x1="111.83" y1="52.56" x2="193.61" y2="52.56" gradientUnits="userSpaceOnUse"><stop offset="0" stop-color="#8f8f8f"/><stop offset="1" stop-color="#ededed"/></linearGradient><linearGradient id="linear-gradient-29" x1="192.83" y1="78.38" x2="243.95" y2="78.38" xlink:href="#linear-gradient-27"/><linearGradient id="linear-gradient-30" x1="154.29" y1="36.7" x2="193.61" y2="36.7" xlink:href="#linear-gradient-28"/><linearGradient id="linear-gradient-31" x1="140.93" y1="81.97" x2="193.61" y2="81.97" xlink:href="#linear-gradient-28"/><linearGradient id="linear-gradient-32" x1="51.71" y1="128.3" x2="141.21" y2="128.3" gradientUnits="userSpaceOnUse"><stop offset="0" stop-color="#d4d4d4"/><stop offset="1" stop-color="#333"/></linearGradient><linearGradient id="linear-gradient-33" x1="116.33" y1="273.74" x2="116.33" y2="116.09" xlink:href="#linear-gradient-15"/><radialGradient id="radial-gradient-2" cx="751.09" cy="375.04" fx="751.0909136578084" r="5.04" gradientTransform="translate(-695.41 -367.11) rotate(-0.31)" xlink:href="#radial-gradient"/><linearGradient id="linear-gradient-34" x1="751.09" y1="377.32" x2="751.09" y2="372.76" gradientTransform="translate(-770.93 -130.89) rotate(-17.3)" gradientUnits="userSpaceOnUse"><stop offset="0" stop-color="#333"/><stop offset="1" stop-color="#d4d4d4"/></linearGradient></defs><title>Asset 42</title><g id="Layer_2" data-name="Layer 2"><g id="Layer_1-2" data-name="Layer 1"><path class="cls-1" d="M111.38,311.65,3.56,249.4a7.12,7.12,0,0,1,0-12.33l107.06-61.81a7.13,7.13,0,0,1,7.12,0l107.82,62.25a7.12,7.12,0,0,1,0,12.33L118.5,311.65A7.13,7.13,0,0,1,111.38,311.65Z"/><path class="cls-2" d="M182.37,84.86l.57.89Z"/><path class="cls-3" d="M171.06,73.54c.31.22.61.43.9.65C171.67,74,171.37,73.76,171.06,73.54Z"/><path class="cls-4" d="M183,85.79c.19.3.37.61.54.92C183.33,86.4,183.15,86.09,183,85.79Z"/><path class="cls-5" d="M174.32,76c.29.24.58.48.86.73C174.9,76.52,174.61,76.28,174.32,76Z"/><path class="cls-6" d="M169.88,72.72l.94.65Z"/><path class="cls-7" d="M172.2,74.37l.87.66Z"/><path class="cls-8" d="M173.29,75.21c.29.22.57.45.85.68C173.86,75.66,173.58,75.43,173.29,75.21Z"/><path class="cls-9" d="M181.73,83.92c.21.29.41.59.61.89C182.14,84.51,181.94,84.21,181.73,83.92Z"/><path class="cls-10" d="M183.5,86.71c8,14.13,2.29,30.23-17.07,41.4a74.86,74.86,0,0,1-9.78,4.71l.45.25a75.44,75.44,0,0,0,9.34-4.53,49.06,49.06,0,0,0,14.46-12.11l-4.77,41.78a20.24,20.24,0,0,1-.56,4.94l-9.65,84.61v0l-.13,1.13c-.93,6.48-5.69,11.53-14.26,16.48-19.35,11.17-50.8,11.11-70.27-.13-8.59-4.95-13.41-10-14.45-16.44h0a15.31,15.31,0,0,1-.18-1.66v0l-9.52-84a20.49,20.49,0,0,1-.67-5.91l-4.67-41.18a49.78,49.78,0,0,0,14.67,12.27,75.42,75.42,0,0,0,9,4.41l.45-.24a76.15,76.15,0,0,1-9.47-4.6c-27.7-16-27.83-41.84-.31-57.73s72.3-15.82,100,.18c.83.48,1.65,1,2.43,1.47q-1.17-.75-2.43-1.47c-27.7-16-72.48-16.08-100-.19C51,78.89,44.26,90.57,45.75,102l16,145.69h0c.8,7.44,6.14,14.75,16,20.44,21.38,12.35,55.94,12.41,77.19.14,9.52-5.5,14.76-12.55,15.7-19.75h0a.38.38,0,0,0,0-.1h0l0-.22,16.08-145.84,0-.14A25.21,25.21,0,0,0,183.5,86.71Z"/><path class="cls-11" d="M181.71,83.9a40.51,40.51,0,0,0-6.42-7A40.51,40.51,0,0,1,181.71,83.9Z"/><path class="cls-12" d="M168.64,71.91c.35.22.69.44,1,.67C169.33,72.35,169,72.13,168.64,71.91Z"/><path class="cls-13" d="M170.69,248.5h0v-.09a.28.28,0,0,1,0,.09Z"/><path class="cls-14" d="M170.69,248.5h0a.28.28,0,0,0,0-.09h0A.38.38,0,0,1,170.69,248.5Z"/><path class="cls-15" d="M170.69,248.5h0a.28.28,0,0,0,0-.09h0A.38.38,0,0,1,170.69,248.5Z"/><path class="cls-16" d="M73.81,133.67c.53-.31,1.08-.6,1.63-.9a75.42,75.42,0,0,1-9-4.41,49.78,49.78,0,0,1-14.67-12.27l4.67,41.18C56.72,148.7,62.51,140.19,73.81,133.67Z"/><path class="cls-17" d="M176.13,158.21l4.77-41.78a49.06,49.06,0,0,1-14.46,12.11,75.44,75.44,0,0,1-9.34,4.53c.46.25.92.49,1.37.75C170.16,140.57,176.05,149.39,176.13,158.21Z"/><path class="cls-18" d="M165.91,247.36l-.13,1.14C165.84,248.12,165.88,247.74,165.91,247.36Z"/><path class="cls-19" d="M165.91,247.36l-.13,1.14C165.84,248.12,165.88,247.74,165.91,247.36Z"/><path class="cls-20" d="M151.58,130.4A70.23,70.23,0,0,0,162,125.54c25.08-14.48,24.95-38-.29-52.6s-66-14.64-91.1-.17-24.95,38,.28,52.6A70.08,70.08,0,0,0,81,130.14C101.92,121.37,130.6,121.46,151.58,130.4Z"/><path class="cls-21" d="M151.58,130.4A70.23,70.23,0,0,0,162,125.54c25.08-14.48,24.95-38-.29-52.6s-66-14.64-91.1-.17-24.95,38,.28,52.6A70.08,70.08,0,0,0,81,130.14C101.92,121.37,130.6,121.46,151.58,130.4Z"/><path class="cls-22" d="M174.14,75.89l.18.15Z"/><path class="cls-22" d="M173.07,75l.22.18Z"/><path class="cls-22" d="M172,74.19l.24.18Z"/><path class="cls-22" d="M170.82,73.37l.24.17Z"/><path class="cls-22" d="M169.66,72.58l.22.14Z"/><path class="cls-22" d="M182.34,84.81l0,0Z"/><path class="cls-22" d="M168.55,71.85l.09.06Z"/><path class="cls-22" d="M183.5,86.71Z"/><path class="cls-22" d="M182.94,85.75l0,0Z"/><path class="cls-22" d="M181.71,83.9l0,0Z"/><path class="cls-22" d="M175.18,76.77l.11.09Z"/><path class="cls-22" d="M66.11,70.2c-27.52,15.89-27.39,41.74.31,57.73a76.15,76.15,0,0,0,9.47,4.6c1.63-.86,3.33-1.65,5.08-2.39a70.08,70.08,0,0,1-10.11-4.77c-25.23-14.57-25.36-38.12-.28-52.6s65.87-14.4,91.1.17,25.37,38.12.29,52.6a70.23,70.23,0,0,1-10.39,4.86q2.63,1.11,5.07,2.42a74.86,74.86,0,0,0,9.78-4.71c19.36-11.17,25-27.27,17.07-41.4h0c-.17-.31-.35-.62-.54-.92l0,0-.57-.89,0,0c-.2-.3-.4-.6-.61-.89l0,0a40.51,40.51,0,0,0-6.42-7l-.11-.09c-.28-.25-.57-.49-.86-.73l-.18-.15c-.28-.23-.56-.46-.85-.68l-.22-.18-.87-.66-.24-.18c-.29-.22-.59-.43-.9-.65l-.24-.17-.94-.65-.22-.14c-.33-.23-.67-.45-1-.67l-.09-.06c-.78-.5-1.6-1-2.43-1.47C138.41,54.38,93.64,54.3,66.11,70.2Z"/><path class="cls-23" d="M57.09,163.18l-.67-5.91A20.49,20.49,0,0,0,57.09,163.18Z"/><path class="cls-24" d="M57.09,163.18l-.67-5.91A20.49,20.49,0,0,0,57.09,163.18Z"/><path class="cls-25" d="M176.13,158.21l-.56,4.94A20.24,20.24,0,0,0,176.13,158.21Z"/><path class="cls-24" d="M176.13,158.21l-.56,4.94A20.24,20.24,0,0,0,176.13,158.21Z"/><path class="cls-26" d="M75.89,132.53l-.45.24c24.4,10.08,57.28,10.19,81.66.3l-.45-.25C132.47,142.47,100.09,142.36,75.89,132.53Z"/><path class="cls-27" d="M75.44,132.77c-.55.3-1.1.59-1.63.9-11.3,6.52-17.09,15-17.39,23.6l.67,5.91c1.86,7.08,7.52,13.9,17,19.36,23.45,13.54,61.35,13.62,84.66.16,9.51-5.49,15.12-12.39,16.83-19.55l.56-4.94c-.08-8.82-6-17.64-17.66-24.39-.45-.26-.91-.5-1.37-.75C132.72,143,99.84,142.85,75.44,132.77Z"/><path class="cls-28" d="M151.58,130.4c-21-8.94-49.66-9-70.61-.26C102.35,138.33,130.22,138.42,151.58,130.4Z"/><path class="cls-29" d="M151.58,130.4c-21-8.94-49.66-9-70.61-.26C102.35,138.33,130.22,138.42,151.58,130.4Z"/><path class="cls-24" d="M151.58,130.4c-21-8.94-49.66-9-70.61-.26C102.35,138.33,130.22,138.42,151.58,130.4Z"/><path class="cls-22" d="M81,130.14c-1.75.74-3.45,1.53-5.08,2.39,24.2,9.83,56.58,9.94,80.76.29q-2.44-1.31-5.07-2.42C130.22,138.42,102.35,138.33,81,130.14Z"/><line class="cls-30" x1="201.64" y1="48.68" x2="65.65" y2="203.23"/><ellipse class="cls-31" cx="178.35" cy="77.73" rx="45.88" ry="79.47" transform="translate(0.78 157.22) rotate(-47.66)"/><path class="cls-32" d="M193.22,58.25a130.93,130.93,0,0,1,4.31,13.64c6.84,26.56,4.11,50.55.11,67.58"/><path class="cls-33" d="M112.21,51.05c15-3.86,39.53-7.55,66.3,1.17a108.27,108.27,0,0,1,14.71,6"/><path class="cls-34" d="M193.22,58.25c11.78,3.42,33.1,11.74,46,32.14a64.32,64.32,0,0,1,4.36,8.11"/><path class="cls-35" d="M193.22,58.25c-2.67-8.44-9.8-26.51-27.68-37.75a57.88,57.88,0,0,0-10.86-5.35"/><line class="cls-36" x1="193.22" y1="58.25" x2="141.32" y2="105.7"/><line class="cls-30" x1="201.64" y1="48.68" x2="193.22" y2="58.25"/><g class="cls-37"><path class="cls-38" d="M67.16,248.77a16.81,16.81,0,0,1-.08-8.25,21.9,21.9,0,0,1,3.65-7.58,37.15,37.15,0,0,1,13.09-10.45c10-5.1,21.33-7.08,32.46-7.17,11.12.14,22.39,2.2,32.42,7.32a37.73,37.73,0,0,1,13.09,10.44,22.18,22.18,0,0,1,3.73,7.54,16.7,16.7,0,0,1,0,8.25,16.79,16.79,0,0,0,0-4.07,18.62,18.62,0,0,0-.35-2c-.18-.65-.35-1.3-.59-1.92a21.47,21.47,0,0,0-4.12-6.75,38.3,38.3,0,0,0-13-9.09,67.12,67.12,0,0,0-15.27-4.74,86.15,86.15,0,0,0-32-.09A66.76,66.76,0,0,0,85,224.9,37.61,37.61,0,0,0,72.05,234a21.1,21.1,0,0,0-4,6.79A17.47,17.47,0,0,0,67.16,248.77Z"/></g><path class="cls-39" d="M63.49,1.68h0A3.4,3.4,0,0,0,61.11.16a9.67,9.67,0,0,0-8.33,2.58,3.25,3.25,0,0,0-1,2.6h0l77.62,249.23h0a3.1,3.1,0,0,0,2.49,1.86,9.64,9.64,0,0,0,8.33-2.58,3,3,0,0,0,1-2.94h0Z"/><path class="cls-40" d="M158.74,182.7c-23.31,13.46-61.21,13.38-84.66-.16-9.47-5.46-15.13-12.28-17-19.36l9.52,84v0a15.31,15.31,0,0,0,.18,1.66h0c1,6.46,5.86,11.49,14.45,16.44,19.47,11.24,50.92,11.3,70.27.13,8.57-4.95,13.33-10,14.26-16.48l.13-1.13v0l9.65-84.61C173.86,170.31,168.25,177.21,158.74,182.7Zm6.76,66.17c1.54-8.32-3.24-17-14.33-23.39-19.39-11.19-50.74-11.25-70-.12-11.05,6.38-15.73,15.06-14.05,23.41-1.68-8.35,3-17,14.05-23.41,19.28-11.13,50.63-11.07,70,.12C162.26,231.89,167,240.55,165.5,248.87Zm.28-.37.13-1.14C165.88,247.74,165.84,248.12,165.78,248.5Z"/><ellipse class="cls-41" cx="57.71" cy="3.85" rx="6.17" ry="3.56" transform="translate(1.39 17.03) rotate(-16.99)"/><path class="cls-42" d="M58.42,6a7.82,7.82,0,0,1-3.84.28c-.83-.19-1.41-.57-1.55-1a1.89,1.89,0,0,1,.69-1.68A7.48,7.48,0,0,1,57,1.69a7.82,7.82,0,0,1,3.84-.28c.83.19,1.41.57,1.55,1a1.9,1.9,0,0,1-.69,1.68A7.58,7.58,0,0,1,58.42,6Z"/><path class="cls-24" d="M75.44,132.77c-.55.3-1.1.59-1.63.9-11.3,6.52-17.09,15-17.39,23.6l.67,5.91c1.86,7.08,7.52,13.9,17,19.36,23.45,13.54,61.35,13.62,84.66.16,9.51-5.49,15.12-12.39,16.83-19.55l.56-4.94c-.08-8.82-6-17.64-17.66-24.39-.45-.26-.91-.5-1.37-.75C132.72,143,99.84,142.85,75.44,132.77Z"/><path class="cls-24" d="M81,130.14c-1.75.74-3.45,1.53-5.08,2.39,24.2,9.83,56.58,9.94,80.76.29q-2.44-1.31-5.07-2.42C130.22,138.42,102.35,138.33,81,130.14Z"/><path class="cls-24" d="M81,130.14c-1.75.74-3.45,1.53-5.08,2.39,24.2,9.83,56.58,9.94,80.76.29q-2.44-1.31-5.07-2.42C130.22,138.42,102.35,138.33,81,130.14Z"/><path class="cls-24" d="M81,130.14c-1.75.74-3.45,1.53-5.08,2.39,24.2,9.83,56.58,9.94,80.76.29q-2.44-1.31-5.07-2.42C130.22,138.42,102.35,138.33,81,130.14Z"/><path class="cls-24" d="M75.89,132.53l-.45.24c24.4,10.08,57.28,10.19,81.66.3l-.45-.25C132.47,142.47,100.09,142.36,75.89,132.53Z"/></g></g></svg>