<?xml version="1.0" encoding="utf-8"?>
<!-- Generator: Adobe Illustrator 26.0.2, SVG Export Plug-In . SVG Version: 6.00 Build 0)  -->
<svg version="1.1" id="Layer_1" xmlns="http://www.w3.org/2000/svg" xmlns:xlink="http://www.w3.org/1999/xlink" x="0px" y="0px"
	 viewBox="0 0 793.3 688.5" style="enable-background:new 0 0 793.3 688.5;" xml:space="preserve">
<style type="text/css">
	.st0{fill:none;stroke:#1A1A1A;stroke-width:8;stroke-miterlimit:10;}
	.st1{opacity:0.8;fill:url(#SVGID_1_);enable-background:new    ;}
	.st2{fill:#F9F9F9;}
	.st3{fill:#1A1A1A;}
	.st4{opacity:0.8;fill:url(#SVGID_00000003093451612411627670000001425388813058607038_);enable-background:new    ;}
	.st5{fill:#7929D2;}
	.st6{fill:#9454DB;}
	.st7{fill:#AF7FE4;}
	.st8{fill:url(#SVGID_00000033350311067206973470000008371613682877182655_);}
	.st9{fill:url(#SVGID_00000178908179268707656380000003639638241356826551_);}
	.st10{fill:url(#SVGID_00000128444844596851961460000014447811966404373396_);}
	.st11{fill:url(#SVGID_00000094613622498040019750000005550848613728934301_);}
	.st12{fill:#FFFFFF;}
	.st13{opacity:0.8;fill:url(#SVGID_00000036969317286844843540000003748948863477290383_);enable-background:new    ;}
	.st14{opacity:0.8;fill:url(#SVGID_00000004545843151891168200000001695328043544648856_);enable-background:new    ;}
	.st15{opacity:0.8;fill:url(#SVGID_00000136373619690002166330000016675767421083627164_);enable-background:new    ;}
</style>
<g id="Layer_2_00000139280975841487130940000002677671636925328816_">
	<g id="Layer_1-2">
		<circle class="st0" cx="395" cy="381.5" r="303"/>
		<g id="Vrstva_2">
			<g id="Layer_1-3">
				
					<radialGradient id="SVGID_1_" cx="-1277.127" cy="877.055" r="65.59" gradientTransform="matrix(1.4809 -0.1086 0.4563 0.4835 1883.584 -440.8557)" gradientUnits="userSpaceOnUse">
					<stop  offset="0" style="stop-color:#999999"/>
					<stop  offset="1" style="stop-color:#FFFFFF"/>
				</radialGradient>
				<path class="st1" d="M285.5,125c0.1-17.8,49.3-31.8,109.7-31.3c60.5,0.5,109.3,15.3,109.2,33c-0.1,17.8-49.3,31.8-109.7,31.3
					S285.4,142.7,285.5,125z"/>
				<path class="st2" d="M348.7,0h92.6c7.9,0,14.3,4.2,14.3,9.4v106.9c0,5.2-6.4,9.4-14.3,9.4h-92.6c-7.9,0-14.3-4.2-14.3-9.4V9.4
					C334.4,4.2,340.8,0,348.7,0z"/>
				<path class="st3" d="M386,85.5h-3V72.7h3.1L386,85.5z"/>
				<path class="st3" d="M387.7,80.7c0-0.9,0.2-1.7,0.5-2.5c0.3-0.7,0.9-1.3,1.6-1.7c0.7-0.4,1.6-0.6,2.4-0.6
					c1.3-0.1,2.5,0.4,3.4,1.3c0.9,1,1.3,2.3,1.2,3.6v0.1c0.1,1.3-0.4,2.6-1.2,3.5c-0.9,0.9-2.1,1.4-3.3,1.3
					c-1.2,0.1-2.4-0.4-3.3-1.2c-0.9-0.9-1.3-2.1-1.3-3.3L387.7,80.7z M390.7,80.8c0,0.7,0.1,1.3,0.4,1.9c0.3,0.4,0.7,0.6,1.2,0.6
					c1,0,1.6-0.8,1.6-2.4v-0.3c0-1.7-0.5-2.6-1.6-2.6s-1.5,0.7-1.6,2.2L390.7,80.8z"/>
				<path class="st3" d="M408.3,75.1h-3.8v10.4h-3.1V75.1h-3.8v-2.4h10.7L408.3,75.1z"/>
				<path class="st3" d="M368.8,96.7c-0.1-1.3,0.3-2.5,1-3.6c0.6-0.9,1.7-1.4,2.7-1.3c0.8,0,1.6,0.4,2.1,1V88h3v13.5H375l-0.1-1
					c-0.5,0.8-1.4,1.2-2.3,1.2c-1.1,0-2.1-0.5-2.7-1.3C369.1,99.3,368.7,98,368.8,96.7z M371.8,96.9c0,1.7,0.5,2.5,1.5,2.5
					c0.6,0,1.2-0.3,1.4-0.8v-3.6c-0.2-0.5-0.8-0.9-1.4-0.8c-0.9,0-1.4,0.7-1.5,2.2L371.8,96.9z"/>
				<path class="st3" d="M383.9,101.7c-1.3,0.1-2.6-0.4-3.5-1.3c-0.9-0.9-1.4-2.1-1.4-3.4v-0.2c0-0.9,0.2-1.8,0.5-2.6
					c0.3-0.7,0.9-1.3,1.6-1.7c0.7-0.4,1.6-0.6,2.5-0.6c1.2-0.1,2.3,0.4,3.2,1.2c0.8,1,1.2,2.2,1.2,3.5v1.2H382
					c0.1,0.5,0.3,0.9,0.7,1.2c0.4,0.3,0.9,0.5,1.4,0.5c0.9,0,1.7-0.3,2.2-1l1.4,1.6c-0.4,0.5-0.9,1-1.6,1.2
					C385.4,101.5,384.7,101.7,383.9,101.7z M383.6,94.1c-0.9,0-1.4,0.6-1.5,1.7h3v-0.2c0-0.4-0.1-0.8-0.4-1.1
					C384.4,94.2,384,94.1,383.6,94.1L383.6,94.1z"/>
				<path class="st3" d="M392.8,98l1.5-6h3.1l-3.1,9.5h-3l-3.1-9.5h3.1L392.8,98z"/>
				<path class="st3" d="M398.3,89.5c0-0.4,0.2-0.7,0.5-1c0.3-0.3,0.8-0.4,1.2-0.4c0.4,0,0.9,0.1,1.2,0.4c0.6,0.5,0.6,1.4,0.1,2
					c0,0-0.1,0.1-0.1,0.1c-0.3,0.3-0.8,0.4-1.2,0.4c-0.4,0-0.9-0.1-1.2-0.4C398.4,90.3,398.3,90,398.3,89.5z M401.4,101.5h-3V92h3
					V101.5z"/>
				<path class="st3" d="M407.3,99.4c0.4,0,0.7-0.1,1-0.3c0.2-0.3,0.4-0.6,0.3-0.9h2.8c0,1-0.4,1.9-1.1,2.6c-0.8,0.7-1.8,1-2.9,1
					c-1.2,0.1-2.4-0.4-3.3-1.3c-0.8-1-1.3-2.3-1.2-3.6v-0.1c0-0.9,0.2-1.8,0.5-2.6c0.3-0.7,0.9-1.3,1.6-1.7c0.7-0.4,1.5-0.6,2.4-0.6
					c1.1-0.1,2.1,0.3,2.9,1c0.7,0.7,1.1,1.7,1.1,2.8h-2.8c0-0.4-0.1-0.8-0.4-1.1c-0.3-0.3-0.6-0.4-1-0.4c-0.8,0-1.2,0.5-1.4,1.5
					c0,0.4-0.1,0.9-0.1,1.3c-0.1,0.7,0.1,1.4,0.4,2C406.4,99.2,406.8,99.4,407.3,99.4z"/>
				<path class="st3" d="M417.2,101.7c-1.3,0.1-2.6-0.4-3.5-1.3c-0.9-0.9-1.4-2.1-1.4-3.4v-0.2c0-0.9,0.2-1.8,0.5-2.6
					c0.3-0.7,0.9-1.3,1.6-1.7c0.7-0.4,1.6-0.6,2.5-0.6c1.2-0.1,2.3,0.4,3.2,1.2c0.8,1,1.2,2.2,1.2,3.5v1.2h-5.9c0.1,1,1,1.8,2.1,1.7
					c0.9,0,1.7-0.3,2.2-1l1.4,1.6c-0.4,0.5-0.9,1-1.6,1.2C418.7,101.5,418,101.7,417.2,101.7z M416.9,94.1c-0.9,0-1.4,0.6-1.5,1.7h3
					v-0.2c0-0.4-0.1-0.8-0.4-1.1C417.7,94.2,417.3,94.1,416.9,94.1z"/>
				<path class="st3" d="M384.1,50.1c0-0.2,0-0.4,0.1-0.5c0.2-0.5,0.7-0.7,1.1-0.8c0.5,0,0.9,0.3,1.1,0.8c0.1,0.2,0.1,0.3,0.1,0.5
					c0.1,0.7-0.4,1.3-1.1,1.4s-1.3-0.4-1.4-1.1C384.1,50.3,384.1,50.2,384.1,50.1 M404.6,22.3c0.7,0,1.3,0.6,1.3,1.3c0,0,0,0,0,0
					c0,0.2,0,0.4-0.1,0.5c-0.2,0.5-0.7,0.7-1.1,0.8c-0.5,0-0.9-0.3-1.1-0.8c-0.1-0.2-0.1-0.3-0.1-0.5
					C403.4,22.9,403.9,22.3,404.6,22.3C404.6,22.3,404.6,22.3,404.6,22.3 M386.5,46.7v-5.6l18.5-6.3c0.5-0.2,0.8-0.6,0.8-1.1V27
					c1.9-0.6,2.8-2.6,2.2-4.5c-0.6-1.9-2.6-2.8-4.5-2.2c-1.9,0.6-2.8,2.6-2.2,4.5c0.4,1,1.2,1.9,2.2,2.2v5.9L385,39.2
					c-0.5,0.2-0.8,0.6-0.8,1.1v6.4c-1.9,0.6-2.8,2.6-2.2,4.5c0.6,1.9,2.6,2.8,4.5,2.2c1.9-0.6,2.8-2.6,2.2-4.5
					C388.4,47.9,387.6,47.1,386.5,46.7"/>
				<path class="st3" d="M386.6,23.6c0,0.2,0,0.4-0.1,0.5c-0.2,0.5-0.6,0.7-1.1,0.8c-0.5,0-0.9-0.3-1.1-0.8
					c-0.1-0.2-0.1-0.3-0.1-0.5c-0.1-0.7,0.4-1.3,1.1-1.4c0.7-0.1,1.3,0.4,1.4,1.1C386.6,23.5,386.6,23.5,386.6,23.6 M395,28.7
					c0.7,0.1,1.2,0.7,1.2,1.4c-0.1,0.6-0.5,1.1-1.2,1.2h-0.1c-0.7,0-1.2-0.6-1.2-1.3C393.7,29.2,394.3,28.7,395,28.7L395,28.7
					 M384.2,27v6.3c0,0.4,0.2,0.7,0.5,0.9c0.2,0.1,0.4,0.2,0.7,0.2c0.1,0,0.2,0,0.4-0.1l6.5-2.2c1.2,1.6,3.5,1.9,5.1,0.7
					c1.6-1.2,1.9-3.5,0.7-5.1s-3.5-1.9-5.1-0.7c-0.9,0.7-1.4,1.7-1.4,2.9l-5,1.7V27c1.9-0.6,2.8-2.6,2.2-4.5
					c-0.6-1.8-2.6-2.8-4.5-2.2s-2.8,2.6-2.2,4.5C382.3,25.8,383.1,26.6,384.2,27"/>
				<path class="st3" d="M403.4,50.1c0-0.2,0-0.4,0.1-0.5c0.2-0.5,0.6-0.7,1.1-0.8c0.5,0,0.9,0.3,1.1,0.8c0.1,0.2,0.1,0.3,0.1,0.5
					c0.1,0.7-0.4,1.3-1.1,1.4s-1.3-0.4-1.4-1.1C403.4,50.3,403.4,50.2,403.4,50.1 M395,45.3c-0.7,0-1.3-0.6-1.3-1.3s0.6-1.3,1.3-1.3
					h0.1c0.6,0.1,1.1,0.6,1.1,1.3C396.3,44.7,395.7,45.3,395,45.3C395,45.3,395,45.3,395,45.3 M405.8,46.7v-5.9c0-0.4-0.2-0.8-0.5-1
					c-0.3-0.2-0.7-0.3-1-0.2l-6.5,2.2c-0.7-0.9-1.7-1.4-2.8-1.4c-2,0-3.6,1.6-3.6,3.5s1.6,3.6,3.5,3.6c2,0,3.6-1.6,3.6-3.5
					c0,0,0,0,0,0l5-1.7v4.3c-1.4,0.5-2.4,1.9-2.4,3.4c0,2,1.6,3.5,3.6,3.5c2,0,3.5-1.6,3.5-3.6C408.2,48.5,407.2,47.2,405.8,46.7"/>
			</g>
		</g>
		<g id="Vrstva_2-2">
			<g id="Layer_1-4">
				
					<radialGradient id="SVGID_00000168093981163137835880000011570814093708710530_" cx="-1223.6769" cy="1336.635" r="65.59" gradientTransform="matrix(1.4809 -0.1086 0.4563 0.4835 1883.5892 -440.8599)" gradientUnits="userSpaceOnUse">
					<stop  offset="0" style="stop-color:#999999"/>
					<stop  offset="1" style="stop-color:#FFFFFF"/>
				</radialGradient>
				
					<path style="opacity:0.8;fill:url(#SVGID_00000168093981163137835880000011570814093708710530_);enable-background:new    ;" d="
					M574.4,341.4c0.1-17.8,49.3-31.8,109.7-31.3c60.5,0.5,109.3,15.3,109.2,33s-49.3,31.8-109.7,31.3
					C623.1,373.9,574.2,359.1,574.4,341.4z"/>
				<path class="st2" d="M637.5,216.4h92.6c7.9,0,14.3,4.2,14.3,9.4v106.9c0,5.2-6.4,9.4-14.3,9.4h-92.6c-7.9,0-14.3-4.2-14.3-9.4
					V225.9C623.2,220.6,629.6,216.4,637.5,216.4z"/>
				<path class="st3" d="M655.6,295.8c0,1.1-0.2,2.3-0.7,3.3c-0.4,0.9-1.1,1.7-2,2.2c-0.9,0.5-1.9,0.8-2.9,0.8c-1,0-2-0.2-2.9-0.8
					c-0.9-0.5-1.6-1.3-2-2.1c-0.5-1-0.7-2.1-0.8-3.2v-0.7c0-1.1,0.2-2.3,0.7-3.3c0.4-0.9,1.1-1.7,2-2.2c1.8-1,4-1,5.8,0
					c0.9,0.5,1.6,1.3,2,2.2c0.5,1,0.7,2.1,0.7,3.3L655.6,295.8z M652.4,295.2c0.1-1-0.2-2-0.6-2.9c-0.4-0.6-1.1-1-1.8-1
					c-1.5,0-2.4,1.2-2.5,3.5v0.9c-0.1,1,0.2,2,0.6,2.9c0.4,0.7,1.1,1,1.8,1c0.7,0,1.4-0.4,1.8-1c0.5-0.9,0.7-1.9,0.6-2.9
					L652.4,295.2z"/>
				<path class="st3" d="M665.9,297.2c0.1,1.3-0.3,2.5-1,3.5c-0.6,0.9-1.6,1.4-2.7,1.3c-0.8,0-1.6-0.4-2.2-1v4.4h-3v-13.1h2.8
					l0.1,0.9c0.5-0.7,1.4-1,2.2-1c1.1-0.1,2.1,0.4,2.7,1.3C665.6,294.6,665.9,295.9,665.9,297.2L665.9,297.2z M662.9,297
					c0-1.7-0.5-2.5-1.5-2.5c-0.6-0.1-1.2,0.2-1.4,0.8v3.7c0.3,0.5,0.8,0.8,1.4,0.8c1,0,1.4-0.8,1.5-2.4L662.9,297z"/>
				<path class="st3" d="M671.8,302.1c-1.3,0.1-2.6-0.4-3.5-1.3c-0.9-0.9-1.4-2.1-1.4-3.4v-0.2c0-0.9,0.2-1.8,0.5-2.6
					c0.3-0.7,0.9-1.3,1.6-1.7c0.7-0.4,1.6-0.6,2.5-0.6c1.2-0.1,2.3,0.4,3.2,1.2c0.8,1,1.2,2.2,1.2,3.5v1.1h-5.9
					c0.1,0.5,0.3,0.9,0.7,1.3c0.4,0.3,0.9,0.5,1.4,0.5c0.9,0,1.7-0.3,2.2-1l1.3,1.6c-0.4,0.5-0.9,1-1.6,1.2
					C673.3,301.9,672.5,302.1,671.8,302.1z M671.4,294.5c-0.9,0-1.4,0.6-1.5,1.7h3V296c0-0.4-0.1-0.8-0.4-1.1
					C672.2,294.6,671.8,294.5,671.4,294.5z"/>
				<path class="st3" d="M682.7,295.1l-1-0.1c-0.7-0.1-1.4,0.2-1.8,0.9v6h-3v-9.5h2.8l0.1,1.2c0.4-0.8,1.2-1.4,2.1-1.4
					c0.3,0,0.6,0,0.8,0.1L682.7,295.1z"/>
				<path class="st3" d="M688.9,301.9c-0.1-0.3-0.2-0.6-0.3-0.9c-0.6,0.7-1.4,1-2.3,1c-0.8,0-1.7-0.3-2.3-0.8
					c-0.6-0.5-0.9-1.2-0.9-2c-0.1-0.9,0.4-1.8,1.1-2.3c1-0.6,2.2-0.9,3.3-0.8h0.9v-0.5c0-0.9-0.4-1.3-1.1-1.3
					c-0.5-0.1-1,0.3-1.1,0.8c0,0.1,0,0.1,0,0.2h-3c0-0.9,0.4-1.7,1.2-2.2c0.9-0.6,1.9-0.9,3-0.9c1-0.1,2.1,0.3,2.9,0.9
					c0.7,0.6,1.1,1.5,1.1,2.4v4.2c0,0.7,0.1,1.4,0.4,2v0.1L688.9,301.9z M687,300c0.3,0,0.6-0.1,0.9-0.2c0.2-0.1,0.4-0.3,0.5-0.5
					v-1.5h-0.9c-1,0-1.5,0.5-1.5,1.4c0,0.2,0.1,0.5,0.3,0.7C686.5,299.9,686.7,300,687,300z"/>
				<path class="st3" d="M696.5,290v2.4h1.6v2.1h-1.6v4.4c0,0.3,0,0.5,0.2,0.8c0.2,0.2,0.5,0.2,0.8,0.2c0.2,0,0.5,0,0.7-0.1v2.1
					c-0.5,0.2-1.1,0.3-1.7,0.3c-0.8,0.1-1.6-0.2-2.3-0.7c-0.5-0.6-0.8-1.4-0.7-2.2v-4.7h-1.2v-2h1.2V290H696.5z"/>
				<path class="st3" d="M699.2,290c0-0.4,0.2-0.7,0.5-1c0.7-0.5,1.7-0.5,2.4,0c0.6,0.5,0.6,1.4,0.1,2c0,0,0,0-0.1,0.1
					c-0.7,0.5-1.7,0.5-2.4,0C699.4,290.8,699.2,290.4,699.2,290z M702.4,302h-3v-9.6h3V302z"/>
				<path class="st3" d="M706.9,292.4l0.1,1.1c0.6-0.9,1.7-1.3,2.7-1.3c0.8-0.1,1.7,0.3,2.2,0.9c0.5,0.8,0.8,1.7,0.8,2.7v6.1h-3v-6
					c0-0.4-0.1-0.8-0.3-1.1c-0.3-0.3-0.7-0.4-1.1-0.3c-0.5,0-1,0.2-1.3,0.7v6.7h-3v-9.5H706.9z"/>
				<path class="st3" d="M714,297.1c0-0.9,0.1-1.7,0.5-2.5c0.3-0.7,0.8-1.3,1.4-1.7c0.6-0.4,1.3-0.6,2.1-0.6c0.9,0,1.7,0.3,2.3,1
					l0.1-0.8h2.7v9.1c0,0.8-0.2,1.5-0.6,2.2c-0.4,0.6-1,1.1-1.7,1.4c-0.8,0.3-1.7,0.5-2.6,0.5c-0.7,0-1.4-0.1-2-0.4
					c-0.6-0.2-1.1-0.5-1.5-1l1.2-1.7c0.5,0.7,1.3,1,2.2,1c1,0.1,1.9-0.5,2-1.5c0-0.2,0-0.3,0-0.5v-0.3c-0.5,0.6-1.3,1-2.2,0.9
					c-1.1,0-2.1-0.5-2.8-1.3c-0.8-1-1.1-2.3-1.1-3.6L714,297.1z M717,297.3c0,0.6,0.1,1.3,0.4,1.9c0.3,0.4,0.7,0.7,1.2,0.7
					c0.5,0,1.1-0.2,1.4-0.6v-4c-0.3-0.4-0.8-0.7-1.4-0.6c-0.5,0-1,0.3-1.2,0.7C717.1,295.8,717,296.6,717,297.3z"/>
				<path class="st3" d="M660,315.2c0-0.3-0.2-0.5-0.4-0.6c-0.5-0.2-1-0.4-1.5-0.5c-0.6-0.1-1.3-0.3-1.8-0.6c-0.4-0.2-0.8-0.6-1.1-1
					c-0.3-0.4-0.4-0.8-0.4-1.3c0-0.9,0.4-1.7,1.1-2.2c0.8-0.6,1.8-0.9,2.8-0.8c1.1,0,2.1,0.3,3,0.9c0.7,0.5,1.2,1.3,1.1,2.2h-3
					c0-0.8-0.4-1.1-1.2-1.1c-0.3,0-0.6,0.1-0.8,0.3c-0.2,0.2-0.3,0.4-0.3,0.6c0,0.3,0.2,0.5,0.4,0.6c0.4,0.2,0.8,0.3,1.2,0.4
					c0.5,0.1,1,0.2,1.5,0.4c1.2,0.3,2.1,1.4,2.1,2.6c0,0.9-0.4,1.7-1.2,2.1c-0.9,0.6-1.9,0.9-3,0.8c-0.7,0-1.5-0.1-2.2-0.4
					c-0.6-0.3-1.1-0.7-1.5-1.2c-0.3-0.5-0.5-1-0.5-1.6h2.8c0,0.4,0.1,0.8,0.4,1c0.3,0.2,0.7,0.3,1.1,0.3c0.3,0,0.6-0.1,0.9-0.2
					C659.9,315.7,660,315.5,660,315.2z"/>
				<path class="st3" d="M668.1,313.8l1.6-5.4h3.2l-3.9,11.1l-0.2,0.4c-0.5,1.2-1.7,1.9-2.9,1.8c-0.4,0-0.8-0.1-1.2-0.2v-2.1h0.4
					c0.3,0,0.7,0,1-0.2c0.2-0.1,0.4-0.4,0.5-0.6l0.2-0.6l-3.3-9.6h3.2L668.1,313.8z"/>
				<path class="st3" d="M678.6,315.2c0-0.3-0.2-0.5-0.4-0.6c-0.5-0.2-1-0.4-1.5-0.5c-0.6-0.1-1.3-0.3-1.8-0.6
					c-0.4-0.2-0.8-0.6-1.1-1c-0.3-0.4-0.4-0.8-0.4-1.3c0-0.9,0.4-1.7,1.1-2.2c0.8-0.6,1.8-0.9,2.8-0.8c1.1,0,2.1,0.2,3,0.9
					c0.7,0.5,1.2,1.3,1.1,2.2h-3c0-0.8-0.4-1.1-1.2-1.1c-0.3,0-0.6,0.1-0.8,0.3c-0.2,0.2-0.3,0.4-0.3,0.6c0,0.3,0.2,0.5,0.4,0.6
					c0.4,0.2,0.8,0.3,1.2,0.4c0.5,0.1,1,0.2,1.5,0.4c1.2,0.3,2.1,1.4,2.2,2.6c0,0.9-0.4,1.7-1.2,2.1c-0.9,0.6-1.9,0.9-3,0.8
					c-0.7,0-1.5-0.1-2.2-0.4c-0.6-0.3-1.1-0.7-1.5-1.2c-0.3-0.5-0.5-1-0.5-1.6h2.8c0,0.4,0.1,0.8,0.4,1c0.3,0.2,0.7,0.3,1.1,0.3
					c0.3,0,0.6-0.1,0.9-0.2C678.4,315.7,678.6,315.5,678.6,315.2z"/>
				<path class="st3" d="M686.2,306v2.4h1.6v2.1h-1.6v4.4c0,0.3,0,0.5,0.2,0.8c0.2,0.2,0.5,0.2,0.8,0.2c0.2,0,0.5,0,0.7-0.1v2.1
					c-0.5,0.2-1.1,0.3-1.7,0.3c-0.8,0.1-1.6-0.2-2.3-0.7c-0.5-0.6-0.8-1.4-0.7-2.2v-4.7h-1.2v-2h1.2V306H686.2z"/>
				<path class="st3" d="M693.6,318.1c-1.3,0.1-2.6-0.4-3.5-1.3c-0.9-0.9-1.4-2.1-1.4-3.4v-0.2c0-0.9,0.2-1.8,0.5-2.6
					c0.3-0.7,0.9-1.3,1.6-1.7c0.7-0.4,1.6-0.6,2.5-0.6c1.2-0.1,2.3,0.4,3.2,1.2c0.8,1,1.2,2.2,1.2,3.5v1.1h-5.9
					c0.1,0.5,0.3,0.9,0.7,1.3c0.4,0.3,0.9,0.5,1.4,0.5c0.9,0,1.7-0.3,2.2-1l1.3,1.6c-0.4,0.5-0.9,1-1.6,1.2
					C695.1,317.9,694.3,318.1,693.6,318.1z M693.2,310.5c-0.9,0-1.4,0.6-1.5,1.7h3V312c0-0.4-0.1-0.8-0.4-1.1
					C694,310.6,693.7,310.5,693.2,310.5z"/>
				<path class="st3" d="M701.6,308.4l0.1,1.1c0.6-0.8,1.7-1.3,2.7-1.3c1-0.1,2,0.5,2.4,1.4c0.6-0.9,1.7-1.5,2.8-1.4
					c1.9,0,2.9,1.2,3,3.5v6.2h-3v-6c0-0.4-0.1-0.7-0.2-1.1c-0.2-0.3-0.6-0.4-0.9-0.3c-0.6,0-1.1,0.3-1.3,0.8v6.6h-3v-6
					c0-0.4-0.1-0.8-0.2-1.1c-0.2-0.3-0.6-0.4-0.9-0.3c-0.5,0-1.1,0.3-1.3,0.8v6.6h-3v-9.5H701.6z"/>
				<path class="st3" d="M642.9,266.6c0-0.2,0-0.4,0.1-0.5c0.3-0.6,1-0.9,1.6-0.7c0.3,0.1,0.5,0.4,0.7,0.7c0.3,0.6,0,1.4-0.6,1.7
					c-0.2,0.1-0.3,0.1-0.5,0.1C643.5,267.9,642.9,267.3,642.9,266.6C642.9,266.6,642.9,266.6,642.9,266.6 M663.5,238.9
					c0.7,0,1.3,0.6,1.2,1.3c0,0,0,0,0,0c0,0.2,0,0.4-0.1,0.5c-0.3,0.6-1,0.9-1.6,0.7c-0.3-0.1-0.5-0.4-0.7-0.7
					c-0.1-0.2-0.1-0.3-0.1-0.5C662.2,239.4,662.8,238.9,663.5,238.9L663.5,238.9 M645.3,263.2v-5.6l18.5-6.3
					c0.5-0.2,0.8-0.6,0.8-1.1v-6.7c1.9-0.6,2.8-2.6,2.2-4.5c-0.6-1.9-2.6-2.8-4.5-2.2c-1.9,0.6-2.8,2.6-2.2,4.5
					c0.4,1,1.2,1.9,2.2,2.2v5.9l-18.5,6.3c-0.5,0.2-0.8,0.6-0.8,1.1v6.4c-1.8,0.6-2.8,2.6-2.2,4.5c0.6,1.8,2.6,2.8,4.5,2.2
					s2.8-2.6,2.2-4.5C647.2,264.4,646.4,263.6,645.3,263.2"/>
				<path class="st3" d="M645.4,240.1c0,0.2,0,0.4-0.1,0.5c-0.2,0.5-0.6,0.7-1.1,0.8c-0.7,0-1.3-0.5-1.3-1.2c0-0.7,0.5-1.3,1.2-1.3
					C644.8,238.8,645.4,239.4,645.4,240.1C645.4,240.1,645.4,240.1,645.4,240.1 M653.8,245.2c0.7,0,1.3,0.6,1.3,1.3
					c0,0.7-0.6,1.3-1.3,1.3h-0.1c-0.6-0.1-1.1-0.6-1.1-1.3C652.6,245.8,653.1,245.3,653.8,245.2
					C653.8,245.2,653.8,245.2,653.8,245.2 M643,243.5v6.3c0,0.4,0.2,0.7,0.5,0.9c0.3,0.2,0.7,0.3,1,0.2l6.5-2.2
					c0.7,0.9,1.7,1.4,2.8,1.4c2,0,3.6-1.6,3.6-3.5c0-2-1.6-3.6-3.5-3.6c-2,0-3.6,1.6-3.6,3.5c0,0,0,0,0,0l-5,1.7v-4.6
					c1.8-0.6,2.8-2.6,2.2-4.5c-0.6-1.8-2.6-2.8-4.5-2.2s-2.8,2.6-2.2,4.5C641.1,242.4,641.9,243.2,643,243.5"/>
				<path class="st3" d="M662.2,266.6c0-0.2,0-0.4,0.1-0.5c0.3-0.6,1-0.9,1.6-0.7c0.3,0.1,0.6,0.4,0.7,0.7c0.1,0.2,0.1,0.3,0.1,0.5
					c0,0.7-0.6,1.2-1.2,1.2S662.2,267.3,662.2,266.6 M653.8,261.9c-0.7-0.1-1.2-0.7-1.2-1.4c0.1-0.6,0.5-1.1,1.2-1.2h0.2
					c0.7,0.1,1.2,0.7,1.1,1.4c0,0.3-0.2,0.6-0.4,0.8C654.5,261.7,654.2,261.8,653.8,261.9 M664.7,263.2v-6c0-0.4-0.2-0.7-0.5-0.9
					c-0.3-0.2-0.7-0.3-1-0.2l-6.5,2.2c-0.7-0.9-1.7-1.4-2.8-1.4c-2,0-3.6,1.6-3.7,3.5c0,2,1.6,3.6,3.5,3.7c2,0,3.6-1.6,3.7-3.5
					c0,0,0,0,0,0l5-1.7v4.3c-1.9,0.6-2.8,2.6-2.2,4.5c0.6,1.9,2.6,2.8,4.5,2.2s2.8-2.6,2.2-4.5C666.6,264.4,665.8,263.6,664.7,263.2
					"/>
				<path class="st5" d="M697.1,254.4l-4.5,1.9l3.8,2L697.1,254.4z"/>
				<path class="st6" d="M687.3,256.9l-4.8-1.8l1.1,3.8L687.3,256.9z"/>
				<path class="st7" d="M689.6,253.5l3,2.8l-5.2,0.6L689.6,253.5z"/>
				<path class="st7" d="M683.1,250.9l-0.6,4.2l-3.7-3.6L683.1,250.9z"/>
				
					<linearGradient id="SVGID_00000009577917821273316110000015870149535541352622_" gradientUnits="userSpaceOnUse" x1="2522.1917" y1="1360.5366" x2="2555.8918" y2="1360.5366" gradientTransform="matrix(0.41 0 0 0.41 -325.97 -308.95)">
					<stop  offset="0" style="stop-color:#7929D2"/>
					<stop  offset="1" style="stop-color:#0070C5"/>
				</linearGradient>
				<path style="fill:url(#SVGID_00000009577917821273316110000015870149535541352622_);" d="M697.1,254.4l11.9-11l5.4,7.1
					L697.1,254.4z"/>
				
					<linearGradient id="SVGID_00000018926851774457612930000007012202562112761733_" gradientUnits="userSpaceOnUse" x1="2510.1011" y1="1330.7644" x2="2509.811" y2="1364.0745" gradientTransform="matrix(0.41 0 0 0.41 -325.97 -308.95)">
					<stop  offset="0" style="stop-color:#00AEFF"/>
					<stop  offset="1" style="stop-color:#9454DB"/>
				</linearGradient>
				<path style="fill:url(#SVGID_00000018926851774457612930000007012202562112761733_);" d="M697.1,254.4l5.1-16.1l6.8,5.2
					L697.1,254.4z"/>
				
					<linearGradient id="SVGID_00000101814464078142536560000017617055696516131492_" gradientUnits="userSpaceOnUse" x1="2532.0771" y1="1351.0356" x2="2524.8772" y2="1338.5757" gradientTransform="matrix(0.41 0 0 0.41 -325.97 -308.95)">
					<stop  offset="0" style="stop-color:#66A9DC"/>
					<stop  offset="1" style="stop-color:#B1E4FA"/>
				</linearGradient>
				<path style="fill:url(#SVGID_00000101814464078142536560000017617055696516131492_);" d="M702.2,238.2h12.2l-5.4,5.2
					L702.2,238.2z"/>
				
					<linearGradient id="SVGID_00000045588124331827484870000002441054720262387632_" gradientUnits="userSpaceOnUse" x1="2530.3142" y1="1337.0076" x2="2534.394" y2="1365.2776" gradientTransform="matrix(0.41 0 0 0.41 -325.97 -308.95)">
					<stop  offset="0" style="stop-color:#00AEFF"/>
					<stop  offset="1" style="stop-color:#9454DB"/>
				</linearGradient>
				<path style="fill:url(#SVGID_00000045588124331827484870000002441054720262387632_);" d="M714.4,250.5v-12.3l-5.4,5.2
					L714.4,250.5z"/>
				<path class="st12" d="M737.7,259.1v1.1h-0.3v-1.1H737v-0.2h1.1v0.2H737.7z"/>
				<path class="st12" d="M739.4,260.3v-0.9l-0.3,0.6h-0.2l-0.3-0.6v0.9h-0.3v-1.4h0.3l0.4,0.6l0.4-0.6h0.3v1.4H739.4z"/>
				<path class="st3" d="M702.1,266.4v-1.3l3.4-4.8h-3.3v-1.4h5.1v1.2l-3.5,4.9h3.6v1.4L702.1,266.4z"/>
				<path class="st3" d="M709.6,263.9c0,0.4,0.1,0.8,0.4,1.1c0.3,0.2,0.6,0.4,1,0.3c0.2,0,0.5,0,0.7-0.1c0.2-0.1,0.4-0.2,0.5-0.4
					l1,0.7c-0.2,0.3-0.5,0.6-0.9,0.7c-0.5,0.2-1,0.3-1.5,0.2c-0.8,0.1-1.5-0.2-2.1-0.7c-0.5-0.6-0.8-1.4-0.7-2.2c0-2,0.9-3,2.7-3
					c0.7,0,1.4,0.2,1.8,0.7c0.5,0.6,0.7,1.3,0.6,2v0.7L709.6,263.9z M712,262.9c0-0.9-0.4-1.3-1.1-1.3c-0.2,0-0.4,0-0.6,0.1
					c-0.2,0.1-0.3,0.2-0.4,0.4c-0.1,0.2-0.2,0.5-0.2,0.8L712,262.9z"/>
				<path class="st3" d="M719.7,263.5c0,0.6-0.1,1.1-0.3,1.6c-0.2,0.4-0.4,0.8-0.8,1.1c-0.4,0.3-0.8,0.4-1.2,0.4
					c-0.6,0-1.2-0.2-1.6-0.6v2.6h-1.4v-7.8h1.3v0.5c0.2-0.2,0.5-0.4,0.8-0.5c0.3-0.1,0.7-0.2,1-0.2c0.6,0,1.3,0.3,1.6,0.8
					C719.5,262,719.7,262.7,719.7,263.5L719.7,263.5z M718.2,263.5c0-0.4-0.1-0.9-0.3-1.3c-0.2-0.3-0.5-0.5-0.9-0.5
					c-0.2,0-0.5,0.1-0.7,0.2c-0.2,0.1-0.4,0.2-0.6,0.4v2.5c0.2,0.1,0.4,0.3,0.5,0.4c0.2,0.1,0.4,0.2,0.7,0.2c0.4,0,0.7-0.2,0.9-0.5
					C718.1,264.4,718.3,264,718.2,263.5L718.2,263.5z"/>
				<path class="st3" d="M724.3,266.4v-3.1c0-0.4,0-0.8-0.2-1.2c-0.1-0.2-0.4-0.3-0.6-0.3c-0.6,0.1-1.1,0.4-1.5,0.8v3.8h-1.4v-8.1
					h1.4v3.1c0.3-0.3,0.6-0.5,1-0.7c0.3-0.1,0.7-0.2,1-0.2c0.5-0.1,1,0.1,1.3,0.5c0.3,0.4,0.4,1,0.4,1.5v3.8H724.3z"/>
				<path class="st3" d="M726.4,267.1c0.3,0.1,0.5,0.2,0.8,0.2c0.2,0,0.4-0.1,0.5-0.2c0.2-0.2,0.4-0.5,0.5-0.8l0.2-0.3l-2-5.3h1.5
					l1.3,3.6l1.4-3.6h1.4l-2.4,6.1c-0.1,0.4-0.3,0.8-0.6,1.1c-0.2,0.2-0.4,0.4-0.7,0.5c-0.3,0.1-0.6,0.2-0.9,0.1
					c-0.4,0-0.8-0.1-1.2-0.2L726.4,267.1z"/>
				<path class="st3" d="M736,262.1c-0.2-0.1-0.4-0.1-0.6-0.1c-0.3,0-0.5,0.1-0.7,0.2c-0.3,0.1-0.5,0.3-0.7,0.5v3.7h-1.4v-5.7h1.4
					v0.8c0.2-0.3,0.5-0.5,0.8-0.6c0.3-0.2,0.6-0.3,0.9-0.2c0.2,0,0.4,0,0.6,0.1L736,262.1z"/>
			</g>
		</g>
		<g id="Vrstva_2-3">
			<g id="Layer_1-5">
				
					<radialGradient id="SVGID_00000073710086983598928240000008316806793773850002_" cx="-1419.3568" cy="1865.865" r="65.59" gradientTransform="matrix(1.4809 -0.1086 0.4563 0.4835 1883.5801 -440.8604)" gradientUnits="userSpaceOnUse">
					<stop  offset="0" style="stop-color:#999999"/>
					<stop  offset="1" style="stop-color:#FFFFFF"/>
				</radialGradient>
				
					<path style="opacity:0.8;fill:url(#SVGID_00000073710086983598928240000008316806793773850002_);enable-background:new    ;" d="
					M526.1,618.5c0.1-17.8,49.3-31.8,109.7-31.3c60.5,0.5,109.3,15.3,109.2,33s-49.3,31.8-109.7,31.3S525.9,636.3,526.1,618.5z"/>
				<path class="st2" d="M589.2,492.6h92.6c7.9,0,14.3,4.2,14.3,9.4v106.9c0,5.2-6.4,9.4-14.3,9.4h-92.6c-7.9,0-14.3-4.2-14.3-9.4
					V502C574.9,496.8,581.3,492.6,589.2,492.6z"/>
				<path class="st3" d="M595.7,573.7c0,0.8-0.3,1.7-0.7,2.4c-0.5,0.7-1.1,1.2-1.8,1.6c-0.9,0.4-1.8,0.6-2.7,0.6
					c-1.5,0.1-3-0.5-4-1.7c-1-1.3-1.5-2.9-1.5-4.6v-0.6c0-1.1,0.2-2.3,0.7-3.3c0.4-0.9,1.1-1.7,1.9-2.2c0.9-0.5,1.8-0.8,2.8-0.8
					c1.4-0.1,2.7,0.4,3.8,1.2c1,0.9,1.5,2.1,1.6,3.4h-3.1c0-0.6-0.2-1.2-0.6-1.7c-0.5-0.4-1.1-0.6-1.7-0.5c-0.7,0-1.3,0.3-1.7,0.9
					c-0.4,0.9-0.6,1.8-0.6,2.8v0.9c-0.1,1,0.1,2,0.5,2.9c0.4,0.6,1.1,0.9,1.8,0.9c0.6,0,1.2-0.1,1.6-0.5c0.4-0.4,0.6-1,0.6-1.6
					L595.7,573.7z"/>
				<path class="st3" d="M596.7,573.2c0-0.9,0.2-1.7,0.5-2.5c0.3-0.7,0.9-1.3,1.6-1.7c0.7-0.4,1.6-0.6,2.4-0.6
					c1.3-0.1,2.5,0.4,3.4,1.3c0.9,1,1.3,2.3,1.2,3.6v0.1c0.1,1.3-0.4,2.6-1.2,3.5c-0.9,0.9-2.1,1.4-3.3,1.3
					c-1.2,0.1-2.4-0.4-3.3-1.2c-0.9-0.9-1.3-2.1-1.3-3.3L596.7,573.2z M599.7,573.4c0,0.7,0.1,1.3,0.4,1.9c0.3,0.4,0.7,0.6,1.2,0.6
					c1,0,1.6-0.8,1.6-2.4v-0.3c0-1.7-0.5-2.6-1.6-2.6s-1.5,0.7-1.6,2.2L599.7,573.4z"/>
				<path class="st3" d="M609.9,568.5l0.1,1.1c0.6-0.9,1.6-1.3,2.7-1.3c0.8-0.1,1.7,0.3,2.2,0.9c0.5,0.8,0.8,1.7,0.8,2.7v6.1h-3v-6
					c0-0.4-0.1-0.8-0.3-1.1c-0.3-0.2-0.6-0.4-1-0.3c-0.5,0-1,0.2-1.3,0.7v6.7h-3v-9.5H609.9z"/>
				<path class="st3" d="M620,568.5l0.1,1.1c0.6-0.9,1.7-1.3,2.7-1.3c0.8-0.1,1.6,0.3,2.2,0.9c0.5,0.8,0.8,1.7,0.8,2.7v6.1h-3v-6
					c0-0.4-0.1-0.8-0.3-1.1c-0.3-0.3-0.7-0.4-1-0.3c-0.5,0-1,0.2-1.3,0.7v6.7h-3v-9.5H620z"/>
				<path class="st3" d="M632.1,578.2c-1.3,0.1-2.6-0.4-3.5-1.3c-0.9-0.9-1.4-2.1-1.3-3.4v-0.2c0-0.9,0.2-1.8,0.5-2.6
					c0.3-0.7,0.9-1.3,1.6-1.7c0.7-0.4,1.6-0.6,2.5-0.6c1.2-0.1,2.3,0.4,3.2,1.2c0.8,1,1.2,2.2,1.2,3.5v1.2h-5.9
					c0.1,0.5,0.3,0.9,0.7,1.3c0.4,0.3,0.9,0.5,1.4,0.5c0.8,0,1.7-0.3,2.2-1l1.4,1.6c-0.4,0.5-0.9,1-1.6,1.2
					C633.6,578.1,632.8,578.2,632.1,578.2z M631.7,570.7c-0.9,0-1.4,0.6-1.5,1.7h3v-0.2c0-0.4-0.1-0.8-0.4-1.1
					C632.5,570.8,632.1,570.6,631.7,570.7z"/>
				<path class="st3" d="M641.3,576c0.4,0,0.7-0.1,1-0.3c0.2-0.3,0.4-0.6,0.3-0.9h2.8c0,1-0.4,1.9-1.1,2.6c-1.8,1.4-4.5,1.3-6.2-0.3
					c-0.8-1-1.3-2.3-1.2-3.6v-0.1c0-0.9,0.2-1.7,0.5-2.5c0.3-0.7,0.9-1.3,1.5-1.7c0.7-0.4,1.5-0.6,2.4-0.6c1.1-0.1,2.1,0.3,2.9,1
					c0.7,0.7,1.1,1.7,1.1,2.8h-2.8c0-0.4-0.1-0.8-0.4-1.1c-0.3-0.3-0.6-0.4-1-0.4c-0.8,0-1.2,0.5-1.3,1.5c0,0.4-0.1,0.9-0.1,1.3
					c-0.1,0.7,0.1,1.4,0.3,2C640.4,575.8,640.8,576,641.3,576z"/>
				<path class="st3" d="M650.1,566.2v2.4h1.6v2.1h-1.6v4.4c0,0.3,0,0.5,0.2,0.8c0.2,0.2,0.5,0.2,0.8,0.2c0.2,0,0.5,0,0.7-0.1v2.1
					c-0.5,0.2-1.1,0.3-1.7,0.3c-0.8,0.1-1.6-0.2-2.3-0.7c-0.5-0.6-0.8-1.4-0.7-2.2v-4.7h-1.2v-2.1h1.2v-2.4L650.1,566.2z"/>
				<path class="st3" d="M652.8,566.1c0-0.4,0.2-0.7,0.5-1c0.7-0.5,1.7-0.5,2.4,0c0.6,0.5,0.6,1.4,0.1,2c0,0-0.1,0.1-0.1,0.1
					c-0.7,0.5-1.7,0.5-2.4,0C652.9,566.9,652.8,566.5,652.8,566.1z M655.9,578.1h-3v-9.5h3V578.1z"/>
				<path class="st3" d="M661.5,574.5l1.5-6h3.1l-3.1,9.5h-3l-3.1-9.5h3.1L661.5,574.5z"/>
				<path class="st3" d="M667,566.1c0-0.4,0.2-0.7,0.5-1c0.3-0.3,0.8-0.4,1.2-0.4c0.4,0,0.9,0.1,1.2,0.4c0.6,0.5,0.6,1.4,0.1,2
					c0,0-0.1,0.1-0.1,0.1c-0.3,0.3-0.8,0.4-1.2,0.4c-0.4,0-0.9-0.1-1.2-0.4C667.1,566.9,667,566.5,667,566.1z M670.2,578.1h-3v-9.5
					h3V578.1z"/>
				<path class="st3" d="M675.5,566.2v2.4h1.5v2.1h-1.6v4.4c0,0.3,0,0.5,0.2,0.8c0.2,0.2,0.5,0.2,0.8,0.2c0.2,0,0.5,0,0.7-0.1v2.1
					c-0.5,0.2-1.1,0.3-1.7,0.3c-0.8,0.1-1.6-0.2-2.3-0.7c-0.5-0.6-0.8-1.4-0.7-2.2v-4.7h-1.2v-2.1h1.2v-2.4L675.5,566.2z"/>
				<path class="st3" d="M682,573.9l1.6-5.4h3.2l-3.9,11.1l-0.2,0.4c-0.5,1.2-1.7,1.9-2.9,1.8c-0.4,0-0.8-0.1-1.2-0.2v-2.1h0.4
					c0.3,0,0.7,0,1-0.2c0.2-0.1,0.4-0.4,0.5-0.7l0.2-0.6l-3.3-9.6h3.2L682,573.9z"/>
				
					<image style="overflow:visible;enable-background:new    ;" width="1524" height="531" xlink:href="nbiot.png"  transform="matrix(3.000000e-02 0 0 3.000000e-02 586.89 515.81)">
				</image>
				
					<image style="overflow:visible;enable-background:new    ;" width="600" height="194" xlink:href="lorawan.png"  transform="matrix(8.000000e-02 0 0 8.000000e-02 637.89 518.58)">
				</image>
				
					<image style="overflow:visible;enable-background:new    ;" width="277" height="107" xlink:href="A978D744379636E7.png"  transform="matrix(0.14 0 0 0.14 616.33 539.58)">
				</image>
			</g>
		</g>
		<g id="Vrstva_2-4">
			<g id="Layer_1-6">
				
					<radialGradient id="SVGID_00000057114175497848110140000011760419913492640668_" cx="-1705.2169" cy="1799.575" r="65.59" gradientTransform="matrix(1.4809 -0.1086 0.4563 0.4835 1883.5828 -440.8582)" gradientUnits="userSpaceOnUse">
					<stop  offset="0" style="stop-color:#999999"/>
					<stop  offset="1" style="stop-color:#FFFFFF"/>
				</radialGradient>
				
					<path style="opacity:0.8;fill:url(#SVGID_00000057114175497848110140000011760419913492640668_);enable-background:new    ;" d="
					M72.5,617.5c0.1-17.8,49.3-31.8,109.7-31.3s109.3,15.3,109.2,33c-0.1,17.8-49.3,31.8-109.7,31.3S72.4,635.3,72.5,617.5z"/>
				<path class="st2" d="M135.7,492.6h92.6c7.9,0,14.3,4.2,14.3,9.4v106.9c0,5.2-6.4,9.4-14.3,9.4h-92.6c-7.9,0-14.3-4.2-14.3-9.4
					V502C121.3,496.8,127.8,492.6,135.7,492.6z"/>
				<path class="st3" d="M169.7,573.7c0,0.8-0.3,1.7-0.7,2.4c-0.5,0.7-1.1,1.2-1.9,1.6c-0.9,0.4-1.8,0.6-2.7,0.6
					c-1.5,0.1-3-0.5-4-1.7c-1-1.3-1.5-2.9-1.4-4.6v-0.6c0-1.1,0.2-2.3,0.7-3.3c0.4-0.9,1.1-1.7,1.9-2.2c0.9-0.5,1.8-0.8,2.9-0.8
					c1.4-0.1,2.7,0.4,3.8,1.2c1,0.9,1.5,2.1,1.6,3.4h-3.1c0-0.6-0.2-1.2-0.6-1.7c-0.5-0.4-1.1-0.6-1.7-0.5c-0.7-0.1-1.3,0.3-1.7,0.9
					c-0.4,0.9-0.6,1.8-0.6,2.8v0.9c-0.1,1,0.1,2,0.5,2.9c0.4,0.6,1.1,0.9,1.8,0.9c0.6,0,1.2-0.1,1.6-0.5c0.4-0.4,0.6-1,0.6-1.6
					L169.7,573.7z"/>
				<path class="st3" d="M174.2,578.1h-3v-13.5h3V578.1z"/>
				<path class="st3" d="M175.6,573.2c0-0.9,0.2-1.7,0.6-2.5c0.3-0.7,0.9-1.3,1.6-1.7c0.7-0.4,1.6-0.6,2.4-0.6
					c1.3-0.1,2.5,0.4,3.4,1.3c0.9,1,1.3,2.3,1.2,3.6v0.1c0.1,1.3-0.4,2.6-1.2,3.5c-1.9,1.7-4.7,1.7-6.6,0.1
					c-0.9-0.9-1.3-2.1-1.3-3.3L175.6,573.2z M178.6,573.4c0,0.7,0.1,1.3,0.4,1.9c0.3,0.4,0.7,0.6,1.2,0.6c1.1,0,1.6-0.8,1.6-2.4
					v-0.3c0-1.7-0.6-2.6-1.6-2.6s-1.5,0.7-1.6,2.2L178.6,573.4z"/>
				<path class="st3" d="M191.8,577c-1.2,1.4-3.3,1.6-4.8,0.4c0,0-0.1-0.1-0.1-0.1c-0.6-0.7-0.9-1.7-0.8-2.6v-6.2h3v6.2
					c-0.1,0.6,0.2,1.1,0.8,1.3c0.1,0,0.2,0,0.3,0c0.6,0.1,1.1-0.2,1.4-0.7v-6.7h3v9.5h-2.8L191.8,577z"/>
				<path class="st3" d="M195.9,573.2c-0.1-1.3,0.3-2.5,1-3.6c0.6-0.9,1.7-1.3,2.7-1.3c0.8,0,1.6,0.4,2.1,1v-4.8h3v13.5H202l-0.1-1
					c-0.5,0.8-1.4,1.2-2.3,1.2c-1.1,0-2.1-0.5-2.7-1.3C196.1,575.9,195.8,574.6,195.9,573.2z M198.9,573.4c0,1.7,0.5,2.5,1.5,2.5
					c0.6,0,1.2-0.3,1.4-0.8v-3.6c-0.2-0.5-0.8-0.9-1.4-0.8c-0.9,0-1.4,0.7-1.5,2.2L198.9,573.4z"/>
				<path class="st3" d="M171.1,542.7c0-0.2,0-0.4,0.1-0.5c0.2-0.5,0.7-0.7,1.1-0.8c0.5,0,0.9,0.3,1.1,0.8c0.1,0.2,0.1,0.3,0.1,0.5
					c0.1,0.7-0.4,1.3-1.1,1.4s-1.3-0.4-1.4-1.1C171.1,542.8,171.1,542.7,171.1,542.7 M191.6,514.9c0.7,0,1.3,0.6,1.3,1.3
					c0,0,0,0,0,0c0,0.2,0,0.4-0.1,0.5c-0.2,0.5-0.7,0.7-1.1,0.8c-0.5,0-0.9-0.3-1.1-0.8c-0.1-0.2-0.1-0.3-0.1-0.5
					C190.4,515.5,190.9,514.9,191.6,514.9C191.6,514.9,191.6,514.9,191.6,514.9 M173.5,539.3v-5.6l18.5-6.3c0.5-0.2,0.8-0.6,0.8-1.1
					v-6.7c1.9-0.6,2.8-2.6,2.2-4.5c-0.6-1.9-2.6-2.8-4.5-2.2c-1.9,0.6-2.8,2.6-2.2,4.5c0.4,1,1.2,1.9,2.2,2.2v5.9l-18.5,6.3
					c-0.5,0.2-0.8,0.6-0.8,1.1v6.4c-1.9,0.6-2.8,2.6-2.2,4.5c0.6,1.9,2.6,2.8,4.5,2.2c1.9-0.6,2.8-2.6,2.2-4.5
					C175.4,540.5,174.6,539.6,173.5,539.3"/>
				<path class="st3" d="M173.6,516.2c0,0.2,0,0.4-0.1,0.5c-0.2,0.5-0.6,0.7-1.1,0.8c-0.5,0-0.9-0.3-1.1-0.8
					c-0.1-0.2-0.1-0.3-0.1-0.5c-0.1-0.7,0.4-1.3,1.1-1.4s1.3,0.4,1.4,1.1C173.6,516,173.6,516.1,173.6,516.2 M182,521.3
					c0.7,0,1.3,0.6,1.3,1.3c0,0.7-0.6,1.3-1.3,1.3h-0.1c-0.6-0.1-1.1-0.6-1.1-1.3c0-0.4,0.1-0.7,0.4-0.9
					C181.4,521.4,181.7,521.3,182,521.3 M171.2,519.6v6.3c0,0.4,0.2,0.7,0.5,0.9c0.2,0.1,0.4,0.2,0.7,0.2c0.1,0,0.2,0,0.4-0.1
					l6.5-2.2c0.7,0.9,1.7,1.4,2.8,1.4c2,0,3.6-1.6,3.7-3.5c0-2-1.6-3.6-3.5-3.7c-2,0-3.6,1.6-3.7,3.5c0,0,0,0,0,0l-5,1.7v-4.7
					c1.8-0.6,2.8-2.6,2.2-4.5c-0.6-1.9-2.6-2.8-4.5-2.2c-1.8,0.6-2.8,2.6-2.2,4.5C169.3,518.4,170.1,519.2,171.2,519.6"/>
				<path class="st3" d="M190.4,542.7c0-0.2,0-0.4,0.1-0.5c0.2-0.5,0.6-0.7,1.1-0.8c0.5,0,0.9,0.3,1.1,0.8c0.1,0.2,0.1,0.3,0.1,0.5
					c0.1,0.7-0.4,1.3-1.1,1.4s-1.3-0.4-1.4-1.1C190.4,542.8,190.4,542.7,190.4,542.7 M182,537.9c-0.7,0-1.3-0.6-1.3-1.3
					c0-0.7,0.6-1.3,1.3-1.3h0.1c0.6,0.1,1.1,0.6,1.1,1.3c0,0.4-0.1,0.7-0.4,0.9C182.6,537.8,182.3,537.9,182,537.9 M192.8,539.3v-6
					c0-0.4-0.2-0.7-0.5-0.9c-0.3-0.2-0.7-0.3-1-0.2l-6.5,2.2c-1.2-1.6-3.5-1.9-5-0.7c-1.6,1.2-1.9,3.5-0.7,5c1.2,1.6,3.5,1.9,5,0.7
					c0.9-0.7,1.4-1.7,1.4-2.8l5-1.7v4.3c-1.8,0.6-2.8,2.6-2.2,4.5c0.6,1.9,2.6,2.8,4.5,2.2c1.8-0.6,2.8-2.6,2.2-4.5
					C194.7,540.4,193.9,539.6,192.8,539.3"/>
			</g>
		</g>
		<g id="Vrstva_2-5">
			<g id="Layer_1-7">
				
					<radialGradient id="SVGID_00000031887366005897961240000004982948025669305524_" cx="-1586.4269" cy="1255.135" r="65.59" gradientTransform="matrix(1.4809 -0.1086 0.4563 0.4835 1883.5854 -440.856)" gradientUnits="userSpaceOnUse">
					<stop  offset="0" style="stop-color:#999999"/>
					<stop  offset="1" style="stop-color:#FFFFFF"/>
				</radialGradient>
				
					<path style="opacity:0.8;fill:url(#SVGID_00000031887366005897961240000004982948025669305524_);enable-background:new    ;" d="
					M0,341.4c0.1-17.8,49.3-31.8,109.7-31.3c60.5,0.5,109.3,15.3,109.2,33c-0.1,17.8-49.3,31.8-109.7,31.3
					C48.8,373.9-0.1,359.1,0,341.4z"/>
				<path class="st2" d="M63.2,216.4h92.6c7.9,0,14.3,4.2,14.3,9.4v106.9c0,5.2-6.4,9.4-14.3,9.4H63.2c-7.9,0-14.3-4.2-14.3-9.4
					V225.9C48.8,220.6,55.2,216.4,63.2,216.4z"/>
				<path class="st3" d="M103,299.5h-4.2l-0.8,2.4h-3.3l4.7-12.8h2.9l4.7,12.8h-3.3L103,299.5z M99.5,297.1h2.8l-1.4-4.4L99.5,297.1
					z"/>
				<path class="st3" d="M111.1,297.6v4.3H108v-12.8h5.1c0.9,0,1.8,0.2,2.6,0.5c0.7,0.3,1.3,0.9,1.7,1.5c0.4,0.7,0.6,1.5,0.6,2.3
					c0,1.2-0.4,2.3-1.3,3c-1.1,0.8-2.4,1.2-3.7,1.1L111.1,297.6z M111.1,295.2h2c0.5,0,1-0.1,1.4-0.5c0.3-0.3,0.5-0.8,0.5-1.3
					c0-0.5-0.2-1-0.5-1.4c-0.3-0.4-0.8-0.6-1.3-0.5h-2.1L111.1,295.2z"/>
				<path class="st3" d="M123,301.9h-3.1v-12.8h3.1V301.9z"/>
				<path class="st3" d="M98.6,266.5c0-0.2,0-0.4,0.1-0.5c0.3-0.6,1-0.9,1.6-0.6c0.3,0.1,0.5,0.4,0.6,0.6c0.1,0.2,0.1,0.3,0.1,0.5
					c0.1,0.7-0.4,1.3-1.1,1.4s-1.3-0.4-1.4-1.1C98.5,266.7,98.5,266.6,98.6,266.5 M119.1,238.7c0.7,0,1.3,0.6,1.2,1.3c0,0,0,0,0,0
					c0,0.2,0,0.4-0.1,0.5c-0.3,0.6-1,0.9-1.6,0.7c-0.3-0.1-0.5-0.4-0.7-0.7c-0.1-0.2-0.1-0.3-0.1-0.5
					C117.9,239.3,118.4,238.8,119.1,238.7C119.1,238.7,119.1,238.7,119.1,238.7 M101,263.1v-5.6l18.5-6.3c0.5-0.2,0.8-0.6,0.8-1.1
					v-6.7c1.9-0.6,2.8-2.6,2.2-4.5c-0.6-1.9-2.6-2.8-4.5-2.2s-2.8,2.6-2.2,4.5c0.4,1,1.2,1.9,2.2,2.2v5.9l-18.5,6.3
					c-0.5,0.2-0.8,0.6-0.8,1.1v6.4c-1.8,0.6-2.8,2.6-2.2,4.5c0.6,1.8,2.6,2.8,4.5,2.2c1.8-0.6,2.8-2.6,2.2-4.5
					C102.9,264.3,102,263.5,101,263.1"/>
				<path class="st3" d="M101.1,240c0,0.2,0,0.4-0.1,0.5c-0.2,0.5-0.6,0.7-1.1,0.8c-0.5,0-0.9-0.3-1.2-0.8c-0.1-0.2-0.1-0.3-0.1-0.5
					c-0.1-0.7,0.4-1.3,1.1-1.4s1.3,0.4,1.4,1.1C101.1,239.9,101.1,239.9,101.1,240 M109.5,245.1c0.7,0,1.3,0.6,1.3,1.3
					c0,0.7-0.6,1.3-1.3,1.3h-0.1c-0.6-0.1-1.1-0.6-1.1-1.3c0-0.4,0.1-0.7,0.4-0.9C108.8,245.2,109.1,245.1,109.5,245.1 M98.7,243.4
					v6.3c0,0.4,0.2,0.7,0.5,0.9c0.2,0.1,0.4,0.2,0.7,0.2c0.1,0,0.2,0,0.4-0.1l6.5-2.2c0.7,0.9,1.7,1.4,2.8,1.4c2,0,3.6-1.6,3.7-3.5
					s-1.6-3.6-3.5-3.7c-2,0-3.6,1.6-3.7,3.5c0,0,0,0,0,0l-5,1.7v-4.6c1.8-0.6,2.8-2.6,2.2-4.5c-0.6-1.8-2.6-2.8-4.5-2.2
					c-1.8,0.6-2.8,2.6-2.2,4.5C96.8,242.2,97.6,243.1,98.7,243.4"/>
				<path class="st3" d="M117.9,266.5c0-0.2,0.1-0.4,0.1-0.5c0.2-0.5,0.6-0.8,1.1-0.8c0.5,0,0.9,0.3,1.2,0.8
					c0.1,0.2,0.1,0.3,0.1,0.5c0.1,0.7-0.4,1.3-1.1,1.4s-1.3-0.4-1.4-1.1C117.9,266.7,117.9,266.6,117.9,266.5 M109.5,261.7
					c-0.7,0-1.3-0.6-1.3-1.3c0-0.7,0.6-1.3,1.3-1.3h0.1c0.6,0.1,1.1,0.6,1.1,1.3c0,0.4-0.1,0.7-0.4,0.9
					C110.1,261.6,109.8,261.7,109.5,261.7 M120.3,263.1v-6c0-0.4-0.2-0.7-0.5-0.9c-0.3-0.2-0.7-0.3-1-0.2l-6.5,2.2
					c-1.2-1.6-3.5-1.9-5-0.7c-1.6,1.2-1.9,3.5-0.7,5c1.2,1.6,3.5,1.9,5,0.7c0.9-0.7,1.4-1.7,1.4-2.8l5-1.7v4.3
					c-1.8,0.6-2.8,2.6-2.2,4.5c0.6,1.8,2.6,2.8,4.5,2.2c1.8-0.6,2.8-2.6,2.2-4.5C122.2,264.3,121.4,263.5,120.3,263.1"/>
			</g>
		</g>
	</g>
</g>
</svg>
