<svg xmlns="http://www.w3.org/2000/svg" xmlns:xlink="http://www.w3.org/1999/xlink" viewBox="0 0 151.19 227.35"><defs><style>.cls-1{fill:none;}.cls-2{isolation:isolate;}.cls-3,.cls-7,.cls-9{opacity:0.8;}.cls-3{mix-blend-mode:multiply;fill:url(#radial-gradient);}.cls-4{fill:#424251;}.cls-5{fill:#c02e22;}.cls-6{fill:#df5c50;}.cls-8{fill:url(#radial-gradient-2);}.cls-9{fill:url(#radial-gradient-3);}.cls-10{opacity:0.9;}.cls-11{fill:#e26558;}.cls-12{fill:#e0341b;}.cls-13{fill:#a8190a;}.cls-14{clip-path:url(#clip-path);}.cls-15{font-size:6px;fill:#989898;font-family:RobotoMono-Medium, Roboto Mono;font-weight:500;}</style><radialGradient id="radial-gradient" cx="-372.3" cy="183.7" r="69.55" gradientTransform="matrix(.005 1 -.64 .003 195.01 555.36)" gradientUnits="userSpaceOnUse"><stop offset="0" stop-color="#826a6a"/><stop offset=".03" stop-color="#999"/><stop offset="1" stop-color="#fff"/></radialGradient><radialGradient id="radial-gradient-2" cx="77.07" cy="138.61" r="23.24" gradientUnits="userSpaceOnUse"><stop offset="0" stop-color="#fff"/><stop offset="1" stop-color="#e0e0e0" stop-opacity=".9"/></radialGradient><radialGradient id="radial-gradient-3" cx="78.01" cy="28.22" r="115.13" xlink:href="#radial-gradient-2"/><clipPath id="clip-path"><path d="M131.8 101.65a63.7 63.7 0 0 0 6.07-12.9l.07-.15a64.23 64.23 0 1 0-121.7 0l.07.15a63.9 63.9 0 0 0 6.17 13L45.67 151a11.12 11.12 0 0 0 .55 1.16 20.4 20.4 0 0 0 8.1 7.74c12.68 7.33 33.08 7.37 45.68.1a20 20 0 0 0 8.07-7.82c0-.1.08-.2.13-.3z" class="cls-1"/></clipPath></defs><title>education</title><g class="cls-2"><g id="Vrstva_2"><g id="Layer_1"><ellipse cx="75.6" cy="183.7" class="cls-3" rx="43.64" ry="75.6" transform="translate(-108.51 258.3) rotate(-89.69)"/><path d="M106.34 204.54l-2.68-1.54 13.44-7.77 2.68 1.55-13.44 7.76zM103.62 196.75l2.67-1.54 13.52 7.83-2.67 1.53-13.53-7.8zM31.5 162.24l2.68-1.54 13.53 7.8-2.66 1.55-13.53-7.8z" class="cls-4"/><ellipse cx="77.07" cy="177.31" class="cls-5" rx="17.84" ry="30.89" transform="translate(-100.66 253.42) rotate(-89.69)"/><path d="M46.5 179.73l-6.9-29.53 74.97.05-7.08 30.3-61-.82z" class="cls-5"/><ellipse cx="77.07" cy="147.82" class="cls-6" rx="21.77" ry="37.71" transform="translate(-71.17 224.09) rotate(-89.69)"/><ellipse cx="77.07" cy="147.82" class="cls-5" rx="17.92" ry="31.04" transform="translate(-71.17 224.09) rotate(-89.69)"/><path d="M46 147.82a12.57 12.57 0 0 1 3.66-8.9 25.94 25.94 0 0 1 8.1-5.6 37.93 37.93 0 0 1 9.4-3 54.9 54.9 0 0 1 9.84-.92 54.75 54.75 0 0 1 9.8 1 38.83 38.83 0 0 1 9.4 3 26.7 26.7 0 0 1 8.1 5.6 12.77 12.77 0 0 1 3.8 8.85 12.9 12.9 0 0 0-4.14-8.5 26.23 26.23 0 0 0-8.07-5.25 47.92 47.92 0 0 0-18.9-3.7 47.6 47.6 0 0 0-18.9 3.6 25.66 25.66 0 0 0-8.1 5.26 12.57 12.57 0 0 0-4 8.56z" class="cls-8"/><path d="M137.92 88.9l-.08.15A64 64 0 0 1 131.8 102l-23.62 50.25c-.05.08-.1.17-.14.27a19.9 19.9 0 0 1-8.07 7.82 38.44 38.44 0 0 1-9.67 3.84 54.52 54.52 0 0 1-26 0 39 39 0 0 1-10-3.93 25.13 25.13 0 0 1-4.94-3.65 16.7 16.7 0 0 1-3.15-4.1c-.2-.37-.37-.76-.53-1.15L22.43 102.1a63.9 63.9 0 0 1-6.16-13l-.07-.15a64.23 64.23 0 1 1 121.7 0z" class="cls-9"/><g class="cls-10"><path d="M76.1 138.33l14.74-27.28-14.74-8.5v35.78z" class="cls-11"/><path d="M80.2 100.15l14.72 8.5-4.08 2.37-14.74-8.5 4.1-2.37z" class="cls-12"/><path d="M90.84 111.05l4.08-2.4-14.73 27.16-4.1 2.53 14.74-27.28zM79.1 68.76l4.1-2.4.07 35.44-4.1 2.52-.06-35.56z" class="cls-13"/><path d="M79.18 68.53L64.44 95.8l14.74 8.52v-35.8z" class="cls-11"/></g><g class="cls-14"><text class="cls-15" transform="matrix(.81 .59 -.59 .81 97.1 6.43)">E</text><text class="cls-15" transform="matrix(.7 .71 -.71 .7 99.57 8.18)">D</text><text class="cls-15" transform="matrix(.54 .84 -.84 .54 101.73 10.27)">U</text><text class="cls-15" transform="translate(103.4 12.69) rotate(72.31)">C</text><text class="cls-15" transform="translate(104.39 15.43) rotate(89.69)">A</text><text class="cls-15" transform="translate(104.51 18.33) rotate(107.15)">T</text><text class="cls-15" transform="matrix(-.54 .84 -.84 -.54 103.71 21.17)">I</text><text class="cls-15" transform="translate(102.16 23.72) rotate(134.42)">O</text><text class="cls-15" transform="matrix(-.81 .59 -.59 -.81 100.05 25.91)">N</text><text class="cls-15" transform="matrix(-.92 .39 -.39 -.92 94.93 29.24)">B</text><text class="cls-15" transform="translate(92.06 30.48) rotate(162.4)">U</text><text class="cls-15" transform="matrix(-.97 .22 -.22 -.97 89.12 31.43)">L</text><text class="cls-15" transform="matrix(-.99 .15 -.15 -.99 86.09 32.14)">B</text><text class="cls-15" transform="translate(79.92 32.91) rotate(178.97)">–</text><text class="cls-15" transform="translate(73.7 32.85) rotate(-173.47)">4</text><text class="cls-15" transform="translate(70.61 32.52) rotate(-169.47)">0</text><text class="cls-15" transform="translate(64.55 31.19) rotate(-160.35)">W</text><text class="cls-15" transform="translate(61.62 30.18) rotate(-154.9)">A</text><text class="cls-15" transform="translate(58.82 28.91) rotate(-148.57)">T</text><text class="cls-15" transform="translate(56.2 27.36) rotate(-140.79)">T</text><text class="cls-15" transform="translate(51.82 23.31) rotate(-117.88)">–</text><text class="cls-15" transform="translate(49.64 17.93) rotate(-84.11)">P</text><text class="cls-15" transform="translate(49.86 14.99) rotate(-67.06)">O</text><text class="cls-15" transform="matrix(.6 -.8 .8 .6 50.94 12.26)">W</text><text class="cls-15" transform="translate(52.71 9.83) rotate(-42.03)">E</text><text class="cls-15" transform="translate(54.96 7.76) rotate(-33.44)">R</text></g></g></g></g></svg>