<?xml version="1.0" encoding="utf-8"?>
<!-- Generator: Adobe Illustrator 23.0.4, SVG Export Plug-In . SVG Version: 6.00 Build 0)  -->
<svg version="1.1" id="Layer_1" xmlns="http://www.w3.org/2000/svg" xmlns:xlink="http://www.w3.org/1999/xlink" x="0px" y="0px"
	 viewBox="0 0 151.2 227.4" style="enable-background:new 0 0 151.2 227.4;" xml:space="preserve">
<style type="text/css">
	.st0{opacity:0.8;fill:url(#SVGID_1_);enable-background:new    ;}
	.st1{fill:#C02E22;}
	.st2{fill:#DF5C50;}
	.st3{fill:url(#SVGID_2_);}
	.st4{opacity:0.8;fill:url(#SVGID_3_);enable-background:new    ;}
	.st5{opacity:0.9;}
	.st6{fill:#E26558;}
	.st7{fill:#E0341B;}
	.st8{fill:#A8190A;}
</style>
<title>education</title>
<g>
	<g id="Vrstva_2">
		<g>
			
				<radialGradient id="SVGID_1_" cx="-371.9164" cy="-192.0821" r="69.4913" gradientTransform="matrix(1 4.105249e-04 4.627328e-04 -0.64 447.6063 60.9138)" gradientUnits="userSpaceOnUse">
				<stop  offset="0" style="stop-color:#826A6A"/>
				<stop  offset="3.000000e-02" style="stop-color:#999999"/>
				<stop  offset="1" style="stop-color:#FFFFFF"/>
			</radialGradient>
			<path class="st0" d="M0,183.3c0.1-24.1,34.1-43.5,75.8-43.2c41.8,0.2,75.5,19.9,75.4,44c-0.1,24.1-34.1,43.5-75.8,43.2
				C33.6,227.1-0.1,207.4,0,183.3z"/>
			
				<ellipse transform="matrix(5.410405e-03 -1 1 5.410405e-03 -100.6604 253.4144)" class="st1" cx="77.1" cy="177.3" rx="17.8" ry="30.9"/>
			<path class="st1" d="M46.5,179.7l-6.9-29.5l75,0.1l-7.1,30.3L46.5,179.7L46.5,179.7z"/>
			
				<ellipse transform="matrix(5.410490e-03 -1 1 5.410490e-03 -71.1709 224.0848)" class="st2" cx="77.1" cy="147.8" rx="21.8" ry="37.7"/>
			
				<ellipse transform="matrix(5.410451e-03 -1 1 5.410451e-03 -71.1709 224.0848)" class="st1" cx="77.1" cy="147.8" rx="17.9" ry="31"/>
			
				<radialGradient id="SVGID_2_" cx="77.045" cy="91.375" r="23.2603" gradientTransform="matrix(1 0 0 -1 0 230)" gradientUnits="userSpaceOnUse">
				<stop  offset="0" style="stop-color:#FFFFFF"/>
				<stop  offset="1" style="stop-color:#E0E0E0;stop-opacity:0.9"/>
			</radialGradient>
			<path class="st3" d="M46,147.8c0-3.3,1.3-6.5,3.7-8.9c2.3-2.4,5.1-4.3,8.1-5.6c3-1.4,6.1-2.4,9.4-3c3.2-0.6,6.5-0.9,9.8-0.9
				c3.3,0,6.6,0.4,9.8,1c3.2,0.6,6.4,1.6,9.4,3c3,1.3,5.8,3.2,8.1,5.6c2.4,2.3,3.7,5.5,3.8,8.9c-0.3-3.3-1.7-6.3-4.1-8.5
				c-2.3-2.2-5.1-4-8.1-5.2c-6-2.5-12.4-3.8-18.9-3.7c-6.5-0.1-12.9,1.1-18.9,3.6c-3,1.2-5.8,3-8.1,5.3
				C47.6,141.5,46.2,144.6,46,147.8L46,147.8z"/>
			
				<radialGradient id="SVGID_3_" cx="78.01" cy="201.78" r="115.13" gradientTransform="matrix(1 0 0 -1 0 230)" gradientUnits="userSpaceOnUse">
				<stop  offset="0" style="stop-color:#FFFFFF"/>
				<stop  offset="1" style="stop-color:#E0E0E0;stop-opacity:0.9"/>
			</radialGradient>
			<path class="st4" d="M137.9,88.9l-0.1,0.2c-1.5,4.5-3.5,8.9-6,12.9l-23.6,50.2c-0.1,0.1-0.1,0.2-0.1,0.3c-1.9,3.3-4.7,6-8.1,7.8
				c-3,1.7-6.3,3-9.7,3.8c-8.5,2.1-17.5,2.1-26,0c-3.5-0.8-6.9-2.2-10-3.9c-1.8-1-3.4-2.2-4.9-3.6c-1.3-1.2-2.3-2.6-3.2-4.1
				c-0.2-0.4-0.4-0.8-0.5-1.1l-23.3-49.3c-2.5-4.1-4.6-8.4-6.2-13l-0.1-0.2C4.8,55.3,22.9,18.9,56.5,7.5s70.1,6.7,81.4,40.3
				C142.4,61.2,142.4,75.6,137.9,88.9L137.9,88.9z"/>
			<g class="st5">
				<path class="st6" d="M76.1,138.3l14.7-27.3l-14.7-8.5V138.3z"/>
				<path class="st7" d="M80.2,100.2l14.7,8.5l-4.1,2.4l-14.7-8.5L80.2,100.2z"/>
				<path class="st8" d="M90.8,111.1l4.1-2.4l-14.7,27.2l-4.1,2.5L90.8,111.1L90.8,111.1z M79.1,68.8l4.1-2.4l0.1,35.4l-4.1,2.5
					L79.1,68.8L79.1,68.8z"/>
				<path class="st6" d="M79.2,68.5L64.4,95.8l14.7,8.5V68.5L79.2,68.5z"/>
			</g>
		</g>
	</g>
</g>
</svg>
