<svg xmlns="http://www.w3.org/2000/svg" viewBox="0 0 151.2 227.4" xmlns:v="https://vecta.io/nano"><radialGradient id="A" cx="-371.916" cy="-192.082" r="69.491" gradientTransform="matrix(1 4.105249e-04 4.627328e-04 -0.64 447.6063 60.9138)" gradientUnits="userSpaceOnUse"><stop offset="0" stop-color="#826a6a"/><stop offset=".03" stop-color="#999"/><stop offset="1" stop-color="#fff"/></radialGradient><path d="M0 183.3c.1-24.1 34.1-43.5 75.8-43.2 41.8.2 75.5 19.9 75.4 44s-34.1 43.5-75.8 43.2c-41.8-.2-75.5-19.9-75.4-44z" opacity=".8" fill="url(#A)" enable-background="new"/><g fill="#c02e22"><ellipse transform="matrix(.00541 -1 1 .00541 -100.6604 253.4144)" cx="77.1" cy="177.3" rx="17.8" ry="30.9"/><path d="M46.5 179.7l-6.9-29.5 75 .1-7.1 30.3-61-.9z"/></g><g transform="matrix(.00541 -1 1 .00541 -71.1709 224.0848)"><ellipse cx="77.1" cy="147.8" rx="21.8" ry="37.7" fill="#df5c50"/><ellipse cx="77.1" cy="147.8" rx="17.9" ry="31" fill="#c02e22"/></g><radialGradient id="B" cx="77.045" cy="91.375" r="23.26" gradientTransform="matrix(1 0 0 -1 0 230)" gradientUnits="userSpaceOnUse"><stop offset="0" stop-color="#fff"/><stop offset="1" stop-color="#e0e0e0" stop-opacity=".9"/></radialGradient><path d="M46 147.8c0-3.3 1.3-6.5 3.7-8.9 2.3-2.4 5.1-4.3 8.1-5.6a38.19 38.19 0 0 1 9.4-3 53.33 53.33 0 0 1 9.8-.9c3.3 0 6.6.4 9.8 1a39.59 39.59 0 0 1 9.4 3c3 1.3 5.8 3.2 8.1 5.6 2.4 2.3 3.7 5.5 3.8 8.9-.3-3.3-1.7-6.3-4.1-8.5a25.55 25.55 0 0 0-8.1-5.2c-6-2.5-12.4-3.8-18.9-3.7-6.5-.1-12.9 1.1-18.9 3.6-3 1.2-5.8 3-8.1 5.3-2.4 2.1-3.8 5.2-4 8.4h0z" fill="url(#B)"/><radialGradient id="C" cx="78.01" cy="201.78" r="115.13" gradientTransform="matrix(1 0 0 -1 0 230)" gradientUnits="userSpaceOnUse"><stop offset="0" stop-color="#fff"/><stop offset="1" stop-color="#e0e0e0" stop-opacity=".9"/></radialGradient><path d="M137.9 88.9l-.1.2c-1.5 4.5-3.5 8.9-6 12.9l-23.6 50.2c-.1.1-.1.2-.1.3a20.27 20.27 0 0 1-8.1 7.8c-3 1.7-6.3 3-9.7 3.8a54.44 54.44 0 0 1-26 0c-3.5-.8-6.9-2.2-10-3.9-1.8-1-3.4-2.2-4.9-3.6-1.3-1.2-2.3-2.6-3.2-4.1-.2-.4-.4-.8-.5-1.1l-23.3-49.3c-2.5-4.1-4.6-8.4-6.2-13l-.1-.2c-11.3-33.6 6.8-70 40.4-81.4s70.1 6.7 81.4 40.3c4.5 13.4 4.5 27.8 0 41.1h0z" opacity=".8" fill="url(#C)" enable-background="new"/><g opacity=".9"><path d="M76.1 138.3L90.8 111l-14.7-8.5v35.8z" fill="#e26558"/><path d="M80.2 100.2l14.7 8.5-4.1 2.4-14.7-8.5 4.1-2.4z" fill="#e0341b"/><path d="M90.8 111.1l4.1-2.4-14.7 27.2-4.1 2.5 14.7-27.3zM79.1 68.8l4.1-2.4.1 35.4-4.1 2.5-.1-35.5z" fill="#a8190a"/><path d="M79.2 68.5L64.4 95.8l14.7 8.5V68.5h.1z" fill="#e26558"/></g></svg>