<svg xmlns="http://www.w3.org/2000/svg" xmlns:xlink="http://www.w3.org/1999/xlink" viewBox="0 0 359.32 424.36"><defs><style>.cls-1{isolation:isolate;}.cls-2{opacity:0.4;mix-blend-mode:multiply;fill:url(#Nepojmenovaný_přechod_32);}.cls-3{fill:none;}.cls-4{fill:url(#Nepojmenovaný_přechod_17);}.cls-5{fill:url(#Nepojmenovaný_přechod_17-2);}.cls-6{fill:url(#Nepojmenovaný_přechod_15);}.cls-7{fill:url(#linear-gradient);}.cls-8{fill:url(#Nepojmenovaný_přechod_34);}</style><radialGradient id="Nepojmenovaný_přechod_32" cx="4776.2" cy="-2972.88" r="137.28" gradientTransform="matrix(-0.87, 0.5, 1, 0.58, 7292.39, -312.52)" gradientUnits="userSpaceOnUse"><stop offset="0" stop-color="#737373"/><stop offset="0.09" stop-color="#939393"/><stop offset="0.2" stop-color="#b4b4b4"/><stop offset="0.31" stop-color="#cfcfcf"/><stop offset="0.44" stop-color="#e4e4e4"/><stop offset="0.58" stop-color="#f3f3f3"/><stop offset="0.75" stop-color="#fcfcfc"/><stop offset="1" stop-color="#fff"/></radialGradient><linearGradient id="Nepojmenovaný_přechod_17" x1="160.58" y1="346.26" x2="160.58" y2="198.82" gradientUnits="userSpaceOnUse"><stop offset="0" stop-color="#d4d4d4"/><stop offset="1" stop-color="#333"/></linearGradient><linearGradient id="Nepojmenovaný_přechod_17-2" x1="156.45" y1="313.84" x2="258.74" y2="228.01" xlink:href="#Nepojmenovaný_přechod_17"/><linearGradient id="Nepojmenovaný_přechod_15" x1="115.91" y1="142.97" x2="249.94" y2="142.97" gradientUnits="userSpaceOnUse"><stop offset="0" stop-color="#ba210f"/><stop offset="0.79" stop-color="#e0341b"/><stop offset="0.97" stop-color="#e26558"/></linearGradient><linearGradient id="linear-gradient" x1="160.58" y1="155.97" x2="249.94" y2="155.97" gradientUnits="userSpaceOnUse"><stop offset="0.15" stop-color="#e0341b"/><stop offset="1" stop-color="#a8190a"/></linearGradient><linearGradient id="Nepojmenovaný_přechod_34" x1="202.91" y1="76.9" x2="154.38" y2="0.63" gradientUnits="userSpaceOnUse"><stop offset="0" stop-color="#ccc"/><stop offset="1" stop-color="#fff"/></linearGradient></defs><title>Asset 1</title><g class="cls-1"><g id="Layer_2" data-name="Layer 2"><g id="Layer_1-2" data-name="Layer 1"><ellipse class="cls-2" cx="179.66" cy="320.64" rx="179.66" ry="103.72" transform="translate(-1.74 0.98) rotate(-0.31)"/><line class="cls-3" x1="182.68" y1="224.64" x2="182.68" y2="164.73"/><polygon class="cls-4" points="183.17 224.51 183.17 345.69 182.18 346.26 138 320.57 138 198.82 183.17 224.51"/><polygon class="cls-5" points="183.17 224.51 231.74 195.83 231.74 317.58 183.17 345.69 183.17 224.51"/><path class="cls-6" d="M137.06,77.85l47.08-27.31a13.89,13.89,0,0,1,14.23.1v0l44.78,26.08v50H205.26V160l44.68,26-89.36,51.26-44.67-26V114.56A42.42,42.42,0,0,1,137.06,77.85Z"/><path class="cls-7" d="M181.73,103.86l47.08-27.3a14.07,14.07,0,0,1,21.13,12.17v97.32l-89.36,51.26V140.58A42.47,42.47,0,0,1,181.73,103.86Z"/><circle class="cls-8" cx="179.66" cy="40.36" r="40.36"/></g></g></g></svg>