<svg xmlns="http://www.w3.org/2000/svg" xmlns:xlink="http://www.w3.org/1999/xlink" viewBox="0 0 128.55 234.66" xmlns:v="https://vecta.io/nano"><style>.A{isolation:isolate}.B,.H{mix-blend-mode:multiply}</style><defs><radialGradient id="A" cx="-385.53" cy="198.88" r="57.01" gradientTransform="matrix(.005 1 -.64 .003 191.54 583.72)" xlink:href="#H"><stop offset="0" stop-color="#826a6a"/><stop offset=".03" stop-color="#999"/><stop offset="1" stop-color="#fff"/></radialGradient><linearGradient id="B" x1="73.36" x2="66.53" y1="172.78" y2="191.54" xlink:href="#H"><stop offset="0" stop-color="#fff"/><stop offset=".32" stop-color="#efefef"/><stop offset=".96" stop-color="#c6c6c6"/><stop offset="1" stop-color="#c3c3c3"/></linearGradient><linearGradient id="C" x1="90.24" x2="79.5" y1="171.46" y2="200.96" xlink:href="#H"><stop offset="0" stop-color="#c3c3c3"/><stop offset=".13" stop-color="#b9b9b9"/><stop offset=".7" stop-color="#909090"/><stop offset="1" stop-color="gray"/></linearGradient><linearGradient id="D" x1="101.36" x2="95.53" y1="187.78" y2="203.81" xlink:href="#C" /><linearGradient id="E" x1="64.28" x2="64.28" y1="181.02" y2="42.53" xlink:href="#H"><stop offset="0" stop-color="#a8190a"/><stop offset="1" stop-color="#e0341b"/></linearGradient><linearGradient id="F" x1="64.28" x2="64.28" y1="108.78" y2="11.3" xlink:href="#H"><stop offset="0" stop-color="#a8190a"/><stop offset=".82" stop-color="#e0341b"/></linearGradient><linearGradient id="G" x1="64.28" x2="64.28" y1="37.68" xlink:href="#H"><stop offset="0" stop-color="#a8190a"/><stop offset=".81" stop-color="#e0341b"/></linearGradient><linearGradient id="H" gradientUnits="userSpaceOnUse"/></defs><g class="A"><g><g><ellipse cx="62.36" cy="198.88" class="B" rx="35.78" ry="61.97" transform="matrix(.00541 -.999985 .999985 .00541 -136.85 260.16)" opacity=".8" fill="url(#A)"/><path d="M57.28 184.28v.2c.07 1.74 1.25 3.46 3.53 4.78 4.74 2.73 12.44 2.7 17.2 0 2.24-1.3 3.43-3 3.57-4.66v-.7a12.15 12.15 0 0 0-24.3.4z" fill="url(#B)"/><path d="M65 189.53v1.07c.38 2.47 2.2 4.87 5.48 6.76 7.44 4.3 19.55 4.28 27-.05 3.5-2 5.38-4.62 5.62-7.27v-1.2a19.1 19.1 0 0 0-38.1-.16v.86z" fill="url(#C)"/><path d="M87.63 197.6v.06c0 1.52 1 3 3 4.2a16.23 16.23 0 0 0 14.68 0c2-1.17 3-2.7 3.07-4.23a10.38 10.38 0 0 0-20.76 0z" fill="url(#D)"/><path d="M70.18 196.08v-39.74H54.73v39.74c-.14 1.24.6 2.52 2.26 3.47a12.1 12.1 0 0 0 10.94 0c1.68-.93 2.4-2.22 2.24-3.47z" fill="#252532"/><path d="M127.25 136.7a24 24 0 0 0-1.74-3.86 30.46 30.46 0 0 0-3.08-4.55l-3.68-5.45-17.15-25.27-27.33-40.35-6-8.77-4-5.92-10 14.62-8.12 11.9L5.58 128.6a27.9 27.9 0 0 0-2.1 3.08c-7.74 13-2.57 28 15.48 38.44q2.66 1.53 5.52 2.84c25.3 11.63 62.12 10.76 85.38-2.68 15.75-9.14 21.54-21.8 17.4-33.58z" fill="url(#E)"/><path d="M101.6 97.57l5.92 8.74a37.72 37.72 0 0 1-5 3.4c-17.62 10.17-46.26 10.12-64-.1-6-3.45-9.93-7.6-11.9-12-.13-.3-.26-.6-.36-.88-3.26-8.42.76-17.57 12.06-24.1a49.58 49.58 0 0 1 7.8-3.6c10.2-3.68 22.4-4.8 33.88-3.35a60.12 60.12 0 0 1 22.4 7.1 36.75 36.75 0 0 1 6.05 4.3c2.66 6.98.4 14.44-6.86 20.5z" class="H" fill="#989898"/><path d="M108.4 77.08a17.73 17.73 0 0 0-1-2.2l-.1-.2a20.65 20.65 0 0 0-2-2.93L81.6 36.87l-10.18-15-7.15-10.57-14.85 21.77L22.85 72a20.53 20.53 0 0 0-1.3 1.9l-.07.1c-4.45 7.48-2.84 15.9 4.83 22.73l.6.53a37.16 37.16 0 0 0 5.47 3.8c17.72 10.23 46.37 10.3 64 .12a36.1 36.1 0 0 0 5.23-3.62c7.24-6.05 9.5-13.5 6.8-20.48z" fill="url(#F)"/><path d="M81.6 36.87a13.25 13.25 0 0 1-2.5 1.84c-6.8 3.94-17.9 3.92-24.74 0-2.74-1.57-4.38-3.54-4.94-5.6l6.48-9.5a28.1 28.1 0 0 1 15.52-1.72z" class="H" fill="#989898"/><path d="M80.93 24.57l-.12-.18a9.78 9.78 0 0 0-.6-.9L64.3 0 48.2 23.6c-.1.12-.18.25-.27.38l-.17.26C45.65 27.78 47 31.86 52 34.7c6.85 3.95 17.92 4 24.73 0 4.7-2.7 6.1-6.65 4.2-10.13z" fill="url(#G)"/><g fill="#252532"><path d="M17 182.93a34.13 34.13 0 0 1 3.8 5.75 50.1 50.1 0 0 1 2.86 6.32 53.22 53.22 0 0 1 2 6.7c.3 1.15.45 2.3.67 3.46s.3 2.32.47 3.5l.2 1.48-3.16.15v-1.5l-.08-3.36-.28-3.35a53.8 53.8 0 0 0-1.17-6.66 49.67 49.67 0 0 0-2.1-6.46 33.53 33.53 0 0 0-3.2-6.05zm21.33 2.35a17.7 17.7 0 0 0-3.43 4.9 29 29 0 0 0-2 5.58 38.72 38.72 0 0 0-1 5.83l-.22 2.94v4.5l-3.18-.15.2-1.5.42-3.08.6-3.05a41.53 41.53 0 0 1 1.84-5.93 30.84 30.84 0 0 1 2.82-5.48 18 18 0 0 1 3.95-4.58zm0 14.65a8.93 8.93 0 0 0-3.9 3.72 7.63 7.63 0 0 0-.84 2.4 10.4 10.4 0 0 0-.14 2.5l.07 1.5-3.38-.23.32-1.48a12.3 12.3 0 0 1 1-3 9.72 9.72 0 0 1 6.86-5.4zm-21.95-1.53a16.65 16.65 0 0 1 5.84 3.6 12.66 12.66 0 0 1 2.24 2.86 12.1 12.1 0 0 1 1.27 3.58l.3 1.5-3.3.22v-1.5a9 9 0 0 0-.35-2.9 10.26 10.26 0 0 0-1.3-2.8 15.93 15.93 0 0 0-4.7-4.57zm11.82-5.76a125.15 125.15 0 0 1 1.5 14.7l.05 1.5-3.3-.23.25-1.48a125.9 125.9 0 0 0 1.5-14.48zm-5.42-8.44a59 59 0 0 1 2 5.7l1.52 5.86a79.54 79.54 0 0 1 1.7 12.07l.1 1.5h-3.17l.07-1.5.13-5.9-.33-5.93-.75-5.92a58.8 58.8 0 0 0-1.27-5.87z"/><ellipse cx="28.11" cy="209.79" rx="3.15" ry="5.46" transform="matrix(.00541 -.999985 .999985 .00541 -181.83 236.76)"/></g></g></g></g></svg>