<svg xmlns="http://www.w3.org/2000/svg" viewBox="0 0 94.2 29.23" xmlns:v="https://vecta.io/nano"><path d="M18.06 23.6zM55.5 5.56c-9.6 0-12.42 5.7-13.1 7.4C40.87 17 39 21.2 39 23.5v.1c.08 5 5.8 5 8.38 5 4.73 0 9 0 12.35-5a19.35 19.35 0 0 0 1.2-2.1c.85-1.73 3.47-7.9 3.47-10.72-.04-4.57-4.95-5.22-8.9-5.22zm-3.26 17.17a2.77 2.77 0 0 1-2.1.58c-1 0-1.8.1-1.8-1.08 0-1.7 1.12-7.88 2.8-10.34a2.54 2.54 0 0 1 2.1-.77c1.7 0 1.76.34 1.76 1.3 0 1.32-1.28 8.7-2.76 10.33zm-22.57.62c0-1.17-2.85-1.5-4.8-1.5s-5.1.38-5.1.38a6.76 6.76 0 0 1-1.7 1.37h11.6v-.25zM94.2 10.82c0-2-.88-4.57-4.83-4.57-4.48 0-9.55 5.08-12.35 5.08-1.66 0-1.7-1.86-1.7-2.4V7.66a7.15 7.15 0 0 0-2.88-.46 10.2 10.2 0 0 0-1.94.2.7.7 0 0 0-.65.5C68 12.27 65.5 19.77 64.4 23.6l-.46 1.72-.33 1.43c-.1.5-.1.74.3.95a6.47 6.47 0 0 0 2.7.77 3 3 0 0 0 2.45-.84c.55-.65 1.8-2.18 3.46-4 3.8-4.2 9.6-10 13.25-10 .87 0 1.12.7 1.12 1.62 0 1.16-1.24 5.23-2.23 8.35l-1 3.25a.7.7 0 0 0 .2.74 6.34 6.34 0 0 0 3.85 1c1 0 1.78-.17 2.18-1.3.2-.5.66-1.92 1.23-3.72 1.27-4.14 3.1-10.43 3.1-12.76zM72.5 23.6zM10.08 19l8.83.18h2.94c4.18 0 7.94-1.34 7.94-7.82 0-3-.67-11.33-5.6-11.33C18.74 0 0 7.73 0 18a8.38 8.38 0 0 0 2.35 5.6c3 3.35 8.54 5.63 14.46 5.63 5.67 0 12.37-3.34 12.86-5.63h-11.6a6.24 6.24 0 0 1-3.12.85A5.43 5.43 0 0 1 12 23.6a5.8 5.8 0 0 1-2.78-4.45c.03-.3.4-.15.86-.15zm1.73-5.8c.56-.6 6.14-5.75 9.32-5.75 1 0 1 1.9 1 3.2 0 2.5-.22 2.94-2.75 2.94h-7.12c-.56-.04-.86 0-.44-.44zm52.6 10.4zM35.92 13.2c-1.5 0-3 .22-3.9 2.3a9 9 0 0 0-.8 2.62c0 1.15.66 1.87 2.56 1.87 1.27 0 3.07-.3 3.76-2.1a13.45 13.45 0 0 0 .86-2.9c0-1.24-1.2-1.8-2.48-1.8z" fill="#b3b3b3"/></svg>