<?xml version="1.0" encoding="utf-8"?>
<!-- Generator: Adobe Illustrator 24.2.1, SVG Export Plug-In . SVG Version: 6.00 Build 0)  -->
<svg version="1.1" id="Layer_1" xmlns:v="https://vecta.io/nano"
	 xmlns="http://www.w3.org/2000/svg" xmlns:xlink="http://www.w3.org/1999/xlink" x="0px" y="0px" viewBox="0 0 28.3 28.3"
	 style="enable-background:new 0 0 28.3 28.3;" xml:space="preserve">
<style type="text/css">
	.st0{fill:#FFFFFF;}
</style>
<path class="st0" d="M3.4,0C1.5,0,0,1.5,0,3.4v21.5c0,1.9,1.5,3.4,3.4,3.4h11.3c0.1,0,0.1,0,0.2,0h3.8c0.1,0,0.1,0,0.2,0h6
	c1.9,0,3.4-1.5,3.4-3.4V3.4c0-1.9-1.5-3.4-3.4-3.4c0,0,0,0,0,0H3.4z M3.4,1.4h21.5c1.1,0,2,0.9,2,2v21.6c0,1.1-0.9,2-2,2h-5.4v-9.4
	h2.6l0.9-4.7h-3.5v-1.4c0-0.4,0-0.4,0.2-0.5c0.4-0.1,0.8-0.2,1.2-0.2h2V7l-0.4-0.2c-1.2-0.5-2.4-0.7-3.7-0.7c-1.4,0-2.7,0.5-3.6,1.6
	c-0.8,1.1-1.2,2.4-1.1,3.8v1.3h-2v4.7h2V27H3.4c-1.1,0-2-0.9-2-2V3.4C1.4,2.3,2.2,1.4,3.4,1.4C3.4,1.4,3.4,1.3,3.4,1.4z M18.9,7.4
	c0.9,0,1.8,0.1,2.7,0.5v1.5h-0.7c-0.7-0.1-1.3,0.1-1.9,0.4c-0.5,0.4-0.8,1-0.8,1.6v2.7h3.2l-0.4,2h-2.8V27h-2.7V16.2h-2v-2h2v-2.7
	c0-1.1,0.3-2.1,0.9-2.9C17,7.8,17.9,7.4,18.9,7.4L18.9,7.4z"/>
</svg>
