<svg xmlns="http://www.w3.org/2000/svg" width="28.290001" height="28.299999" xmlns:v="https://vecta.io/nano"><path d="M3.37 0A3.38 3.38 0 0 0 0 3.37v21.55a3.38 3.38 0 0 0 3.37 3.37H14.7a.41.41 0 0 0 .22 0h3.82a.41.41 0 0 0 .22 0h6a3.37 3.37 0 0 0 3.37-3.37V3.37A3.38 3.38 0 0 0 24.92 0zm0 1.35h21.55a2 2 0 0 1 2 2v21.57a2 2 0 0 1-2 2h-5.38v-9.4h2.57l.94-4.7h-3.5v-1.35c0-.37 0-.4.16-.5a2.64 2.64 0 0 1 1.18-.18h2V7l-.38-.2a9.31 9.31 0 0 0-3.66-.74 4.47 4.47 0 0 0-3.56 1.6 6 6 0 0 0-1.15 3.79v1.34h-2v4.7h2V27H3.37a2 2 0 0 1-2-2V3.37a2 2 0 0 1 2-2.02zm15.5 6.06a7.25 7.25 0 0 1 2.7.47v1.55h-.68a3.42 3.42 0 0 0-1.92.4 1.93 1.93 0 0 0-.77 1.62v2.7h3.22l-.4 2h-2.8V27h-2.7V16.17h-2v-2h2v-2.7a4.73 4.73 0 0 1 .87-2.95 3 3 0 0 1 2.5-1.11z" fill="#7c0030"/></svg>