<svg xmlns="http://www.w3.org/2000/svg" width="28.29" height="28.3" viewBox="0 0 28.29 28.3"><defs><style>.cls-1{fill:#7c0030;}</style></defs><title>facebook</title><g id="Layer_2" data-name="Layer 2"><g id="Layer_1-2" data-name="Layer 1"><g id="surface1"><path class="cls-1" d="M3.37,0A3.38,3.38,0,0,0,0,3.37V24.92a3.38,3.38,0,0,0,3.37,3.37H14.71a.41.41,0,0,0,.22,0h3.82a.41.41,0,0,0,.22,0h6a3.37,3.37,0,0,0,3.37-3.37V3.37A3.38,3.38,0,0,0,24.92,0Zm0,1.35H24.92a2,2,0,0,1,2,2V24.92a2,2,0,0,1-2,2H19.54V17.51h2.57l.94-4.71H19.54V11.45c0-.37,0-.4.16-.49a2.64,2.64,0,0,1,1.18-.18h2V7l-.38-.19a9.31,9.31,0,0,0-3.66-.74,4.47,4.47,0,0,0-3.56,1.6,6,6,0,0,0-1.15,3.79V12.8h-2v4.71h2V27H3.37a2,2,0,0,1-2-2V3.37A2,2,0,0,1,3.37,1.35ZM18.86,7.41a7.25,7.25,0,0,1,2.7.47V9.43h-.68a3.42,3.42,0,0,0-1.92.4,1.93,1.93,0,0,0-.77,1.62v2.7h3.22l-.41,2H18.19V27h-2.7V16.17h-2v-2h2v-2.7a4.73,4.73,0,0,1,.87-2.95A3,3,0,0,1,18.86,7.41Z"/></g></g></g></svg>