<svg xmlns="http://www.w3.org/2000/svg" xmlns:xlink="http://www.w3.org/1999/xlink" viewBox="0 0 1115.39 406.08"><defs><style>.cls-1{isolation:isolate;}.cls-2{fill:url(#linear-gradient);}.cls-3{fill:url(#linear-gradient-2);}.cls-4{fill:#f9f9f9;}.cls-5{fill:url(#linear-gradient-3);}.cls-48,.cls-6{fill:#fff;}.cls-7{fill:#252532;}.cls-8{fill:url(#linear-gradient-4);}.cls-9{fill:url(#linear-gradient-5);}.cls-10{fill:url(#linear-gradient-6);}.cls-11{fill:url(#linear-gradient-7);}.cls-12{fill:#666;}.cls-13{fill:url(#linear-gradient-8);}.cls-14,.cls-17{fill:none;}.cls-14{stroke:#e2887f;stroke-miterlimit:10;stroke-width:0.84px;stroke-dasharray:3.68;}.cls-15{fill:url(#linear-gradient-9);}.cls-16{fill:#ccc;}.cls-17{stroke:#cbcbcb;stroke-linecap:round;stroke-linejoin:round;stroke-width:1.24px;}.cls-18{font-size:22.09px;}.cls-18,.cls-19,.cls-24,.cls-25{fill:#e40427;}.cls-18,.cls-19,.cls-24,.cls-25,.cls-48{font-family:RobotoMono-Medium, Roboto Mono;font-weight:500;}.cls-19{font-size:17.89px;}.cls-20{fill:#404051;}.cls-21{fill:url(#linear-gradient-10);}.cls-22{fill:url(#linear-gradient-11);}.cls-23{fill:url(#linear-gradient-12);}.cls-24{font-size:20px;}.cls-25,.cls-48{font-size:17.89px;}.cls-26,.cls-32{opacity:0.8;mix-blend-mode:multiply;}.cls-26{fill:url(#radial-gradient);}.cls-27{fill:#e6c81e;}.cls-28{fill:#dea404;}.cls-29{fill:#e6d781;}.cls-30{fill:url(#linear-gradient-13);}.cls-31{fill:url(#linear-gradient-14);}.cls-33{fill:url(#linear-gradient-15);}.cls-34{fill:#0e0e16;}.cls-35{fill:url(#linear-gradient-16);}.cls-36{fill:url(#linear-gradient-17);}.cls-37{fill:url(#linear-gradient-18);}.cls-38{fill:url(#linear-gradient-19);}.cls-39{fill:url(#linear-gradient-20);}.cls-40{fill:#989898;}.cls-41{fill:url(#linear-gradient-21);}.cls-42{fill:url(#linear-gradient-22);}.cls-43{fill:url(#linear-gradient-23);}.cls-44{fill:url(#linear-gradient-24);}.cls-45{fill:url(#linear-gradient-25);}.cls-46{fill:#999;opacity:0.5;}.cls-47{fill:#e0341b;}.cls-49{fill:url(#linear-gradient-26);}.cls-50{fill:url(#linear-gradient-27);}.cls-51{fill:url(#linear-gradient-28);}.cls-52{fill:url(#linear-gradient-29);}.cls-53{fill:url(#linear-gradient-30);}</style><linearGradient id="linear-gradient" x1="896.21" x2="1103.21" y1="176.33" y2="176.33" gradientTransform="matrix(-1 0 0 1 2011.6 0)" gradientUnits="userSpaceOnUse"><stop offset="0" stop-color="#a8190a"/><stop offset="1" stop-color="#e0341b"/></linearGradient><linearGradient id="linear-gradient-2" x1="-4590.59" x2="-4383.78" y1="169.37" y2="169.37" gradientTransform="translate(5499.17)" gradientUnits="userSpaceOnUse"><stop offset="0" stop-color="#fff"/><stop offset="1" stop-color="#d4d4d4"/></linearGradient><linearGradient id="linear-gradient-3" x1="983.14" x2="1109.77" y1="89.23" y2="89.23" xlink:href="#linear-gradient"/><linearGradient id="linear-gradient-4" x1="1025.98" x2="1054.42" y1="-1386.6" y2="-1386.6" gradientTransform="matrix(.87 -.5 0 1.15 38.36 2197.94)" xlink:href="#linear-gradient"/><linearGradient id="linear-gradient-5" x1="1025.98" x2="1045.06" y1="-1367.89" y2="-1367.89" gradientTransform="matrix(.87 -.5 0 1.15 38.36 2197.94)" xlink:href="#linear-gradient"/><linearGradient id="linear-gradient-6" x1="1019.99" x2="1031.96" y1="-1361.68" y2="-1361.68" gradientTransform="matrix(.87 -.5 0 1.15 38.36 2197.94)" xlink:href="#linear-gradient"/><linearGradient id="linear-gradient-7" x1="1035.03" x2="1041.89" y1="-1361.68" y2="-1361.68" gradientTransform="matrix(.87 -.5 0 1.15 38.36 2197.94)" xlink:href="#linear-gradient"/><linearGradient id="linear-gradient-8" x1="1019.99" x2="1041.89" y1="-1380.37" y2="-1380.37" gradientTransform="matrix(.87 -.5 0 1.15 38.36 2197.94)" xlink:href="#linear-gradient"/><linearGradient id="linear-gradient-9" x1="1486.77" x2="1522.19" y1="-1383.52" y2="-1383.52" gradientTransform="translate(385.46 1997.54) rotate(-30)" xlink:href="#linear-gradient"/><linearGradient id="linear-gradient-10" x1="638.05" x2="673.11" y1="106.01" y2="202.34" gradientUnits="userSpaceOnUse"><stop offset="0" stop-color="#fff"/><stop offset=".32" stop-color="#efefef"/><stop offset=".96" stop-color="#c6c6c6"/><stop offset="1" stop-color="#c3c3c3"/></linearGradient><linearGradient id="linear-gradient-11" x1="551.36" x2="606.5" y1="99.23" y2="250.72" xlink:href="#linear-gradient-10"/><linearGradient id="linear-gradient-12" x1="494.24" x2="524.2" y1="183.02" y2="265.33" xlink:href="#linear-gradient-10"/><radialGradient id="radial-gradient" cx="-349.54" cy="270.04" r="51.36" gradientTransform="matrix(.01 1 -.64 0 272.81 618.64)" gradientUnits="userSpaceOnUse"><stop offset="0" stop-color="#826a6a"/><stop offset=".03" stop-color="#999"/><stop offset="1" stop-color="#fff"/></radialGradient><linearGradient id="linear-gradient-13" x1="-404.79" x2="-321.85" y1="212.76" y2="164.87" gradientTransform="translate(447.89)" gradientUnits="userSpaceOnUse"><stop offset="0" stop-color="#252532"/><stop offset="1" stop-color="#404051"/></linearGradient><linearGradient id="linear-gradient-14" x1="47.78" x2="98.56" y1="210.05" y2="180.73" gradientUnits="userSpaceOnUse"><stop offset="0" stop-color="#4d4d61"/><stop offset="1" stop-color="#252532"/></linearGradient><linearGradient id="linear-gradient-15" x1="-48.69" x2="-42" y1="58.48" y2="58.48" gradientTransform="matrix(.87 .5 0 1.15 122.28 109.84)" xlink:href="#linear-gradient-14"/><linearGradient id="linear-gradient-16" x1="81.61" x2="91.42" y1="185.73" y2="194.65" gradientUnits="userSpaceOnUse"><stop offset="0" stop-color="#f1f1f1"/><stop offset="1" stop-color="#4d4d4d"/></linearGradient><linearGradient id="linear-gradient-17" x1="356.97" x2="339.92" y1="236.93" y2="236.93" xlink:href="#linear-gradient"/><linearGradient id="linear-gradient-18" x1="343.56" x2="360.7" y1="237.11" y2="237.11" xlink:href="#linear-gradient-2"/><linearGradient id="linear-gradient-19" x1="343.56" x2="350.26" y1="241.83" y2="241.83" xlink:href="#linear-gradient-2"/><linearGradient id="linear-gradient-20" x1="350.26" x2="360.7" y1="240.75" y2="240.75" xlink:href="#linear-gradient-2"/><linearGradient id="linear-gradient-21" x1="306.03" x2="339.92" y1="230.59" y2="230.59" xlink:href="#linear-gradient"/><linearGradient id="linear-gradient-22" x1="318.32" x2="342.93" y1="232.31" y2="211.67" xlink:href="#linear-gradient"/><linearGradient id="linear-gradient-23" x1="368.3" x2="577.36" y1="284.97" y2="284.97" gradientUnits="userSpaceOnUse"><stop offset="0" stop-color="#333"/><stop offset=".54" stop-color="#3f3f3f"/><stop offset="1" stop-color="#4d4d4d"/></linearGradient><linearGradient id="linear-gradient-24" x1="674.24" x2="718.56" y1="-906.56" y2="-906.56" gradientTransform="matrix(-.87 .5 0 1.15 1080.43 1009.54)" xlink:href="#linear-gradient-23"/><linearGradient id="linear-gradient-25" x1="388.73" x2="406.24" y1="310.93" y2="310.93" gradientTransform="matrix(-.5 -.86 -.86 .5 946.37 497.16)" gradientUnits="userSpaceOnUse"><stop offset="0" stop-color="#4d4d4d"/><stop offset=".46" stop-color="#3f3f3f"/><stop offset="1" stop-color="#333"/></linearGradient><linearGradient id="linear-gradient-26" x1="739.11" x2="751.09" y1="288.74" y2="295.65" gradientTransform="translate(1033.25 -454.48) rotate(89.69)" xlink:href="#linear-gradient"/><linearGradient id="linear-gradient-27" x1="842.43" x2="854.41" y1="229.19" y2="236.11" gradientTransform="translate(1076.47 -617.02) rotate(89.69)" xlink:href="#linear-gradient"/><linearGradient id="linear-gradient-28" x1="186.79" x2="198.77" y1="141.04" y2="147.96" gradientTransform="translate(336.23 -49.06) rotate(89.69)" xlink:href="#linear-gradient"/><linearGradient id="linear-gradient-29" x1="238.55" x2="250.53" y1="110.37" y2="117.29" gradientTransform="translate(357.05 -131.32) rotate(89.69)" xlink:href="#linear-gradient"/><linearGradient id="linear-gradient-30" x1="335.47" x2="347.45" y1="55.85" y2="62.76" gradientTransform="translate(398.91 -282.48) rotate(89.69)" xlink:href="#linear-gradient"/></defs><title>features</title><g class="cls-1"><g id="Vrstva_2"><g id="Layer_1"><path d="M908.58 179l15.35-2 99.33-57.4c3.2-1.86 8.7-1.58 12.46.57l70.4 40.64 9.27-1.2v5.23a3.57 3.57 0 0 1-2.17 3.28l-112.62 65c-3.18 1.88-8.7 1.6-12.44-.46l-76.68-44.28c-2.06-1.22-3.1-2.7-3.1-4.2V179z" class="cls-2"/><path d="M1000.7 227.82l112.53-65c3.2-1.87 2.8-5.05-.93-7.2l-76.58-44.2c-3.66-2.15-9.27-2.33-12.46-.56l-112.53 65c-3.18 1.87-2.8 5 .94 7.2l76.67 44.2c3.56 2.15 9.08 2.43 12.36.56z" class="cls-3"/><path d="M971.3 194.53v.1l-4.36 2.55-5.52-3.18c-.16 0-.16-.16-.16-.27v-.1l4.38-2.55 5.5 3.14c.17.15.17.2.17.3zM979.26 190v.1l-4.38 2.55-5.5-3.14c-.17-.04-.17-.15-.17-.26v-.1l4.38-2.55 5.52 3.13c0 .1.16.15.16.27zM972.77 183.72v.1l-4.37 2.55-4.54-2.6c-.17-.05-.17-.16-.17-.27v-.1l4.37-2.55 4.54 2.6c0 .1.17.16.17.27zM980.56 179.18v.1l-4.38 2.55-4.54-2.6c-.16 0-.16-.16-.16-.27v-.1l4.38-2.55 4.54 2.6c.16.1.16.17.16.28zM988.5 174.64v.16l-4.37 2.54-4.55-2.6a.24.24 0 0 1-.16-.26v-.1l4.38-2.55 4.54 2.6c0 .05.16.1.16.2zM996.3 170.1v.1l-4.4 2.55-4.53-2.6c-.16-.05-.16-.16-.16-.27v-.1l4.38-2.55 4.55 2.6c.16.05.16.17.16.27zM1004.23 165.56v.1l-4.38 2.55-4.54-2.6c-.15-.04-.15-.15-.15-.26v-.1l4.38-2.55 4.54 2.6c.16.1.16.15.16.26zM1012 161v.1l-4.38 2.54-4.54-2.6c-.16 0-.16-.15-.16-.26v-.1l4.37-2.55 4.53 2.6c.17.12.17.18.17.27zM1020 156.48v.1l-4.38 2.54-4.54-2.6c-.16-.04-.16-.15-.16-.26v-.1l4.38-2.55 4.54 2.6c-.04.1.16.17.16.28zM1027.75 151.93v.07l-4.38 2.54-4.54-2.6c-.16-.04-.16-.15-.16-.26v-.1l4.37-2.55 4.54 2.6c.17.14.17.2.17.3zM1035.7 147.4v.1l-4.4 2.54-4.53-2.6c-.16-.05-.16-.15-.16-.26v-.1l4.4-2.55 4.53 2.6c0 .05.16.16.16.26zM1043.48 142.85v.15l-4.38 2.54-4.54-2.6c-.16-.05-.16-.15-.16-.26v-.1l4.37-2.55 4.54 2.6a.23.23 0 0 1 .18.22zM969 177v.1l-4.37 2.54-4.54-2.6c-.18 0-.18-.15-.18-.26v-.1l4.38-2.55 4.54 2.6c.04.12.16.18.16.27zM961.1 181.6v.17l-4.38 2.54-4.54-2.58c-.16-.06-.16-.16-.16-.27v-.1l4.38-2.55 4.54 2.6c0 .05.16.16.16.2zM953 186.26v.16l-10.38 6-4.54-2.6c-.16-.05-.16-.16-.16-.27v-.1l10.38-5.95 4.54 2.6c.16 0 .16.05.16.16zM943.26 183v.1l-8.26 4.78-4.54-2.6a.24.24 0 0 1-.16-.26v-.1l8.27-4.77 4.54 2.6c.16.1.16.16.16.25zM976.83 172.48v.1l-4.38 2.54-4.54-2.6c-.15-.04-.15-.15-.15-.26v-.1l4.38-2.55 4.54 2.6c.16.1.16.17.16.28zM984.77 167.94v.16l-4.37 2.54-4.54-2.6c-.17 0-.17-.16-.17-.27v-.1l4.37-2.6 4.54 2.6c.17.1.17.16.17.27zM992.56 163.4v.1l-4.38 2.5-4.54-2.6c-.16-.05-.16-.15-.16-.26v-.1l4.38-2.55 4.54 2.58c.16.15.16.2.16.3zM1000.5 158.85v.15l-4.37 2.54-4.55-2.6c-.16-.05-.16-.15-.16-.26v-.16l4.38-2.54 4.54 2.6c0 .1.16.17.16.27zM1008.3 154.3v.12l-4.4 2.54-4.53-2.6c-.16-.05-.16-.15-.16-.26v-.1l4.38-2.54 4.55 2.6c.16.1.16.15.16.25zM1016.23 149.77v.1l-4.37 2.55-4.55-2.6a.24.24 0 0 1-.15-.26v-.1l4.38-2.55 4.54 2.6c0 .1.16.16.16.27zM1024 145.23v.1l-4.38 2.55-4.54-2.6a.24.24 0 0 1-.16-.26v-.1l4.37-2.6 4.54 2.6c.16.15.16.2.16.3zM1032 140.7v.1l-4.38 2.54-4.54-2.6a.24.24 0 0 1-.16-.26v-.1l4.38-2.55 4.54 2.6c-.04.1.16.15.16.26zM1039.75 136.15v.1l-4.38 2.55-4.54-2.6a.24.24 0 0 1-.16-.26v-.1l4.37-2.55 4.54 2.58c.17.12.17.12.17.27zM1053.85 128.1v.1l-10.54 6-4.53-2.6c-.16 0-.16-.15-.16-.26v-.1l10.4-6.06 4.53 2.6c.16.16.16.22.32.32zM1038.45 119.23v.16l-8.76 5-4.55-2.6c-.16-.06-.16-.16-.16-.27v-.1l8.75-5 4.54 2.6s.15.15.15.2zM975.37 164.53v.16l-4.37 2.53-4.54-2.6c-.16-.05-.16-.15-.16-.26v-.1l4.38-2.55 4.54 2.6c0 .05.15.1.15.2zM967.26 169.18v.1l-4.38 2.55-4.54-2.6c-.16 0-.16-.16-.16-.27v-.1l4.38-2.55 4.54 2.6c.16.1.16.17.16.28zM959.15 173.83v.1l-4.38 2.55-4.54-2.6c-.16 0-.16-.16-.16-.27v-.1l4.38-2.54 4.54 2.6a.28.28 0 0 1 .15.27zM951.2 178.48v.16l-4.37 2.54-4.54-2.6c-.17-.05-.17-.16-.17-.27v-.1l4.37-2.54 4.54 2.6c-.04.05.17.16.17.22zM983.15 160v.16l-4.38 2.54-4.54-2.6c-.16-.05-.16-.15-.16-.26v-.17l4.38-2.54 4.54 2.6c.15.1.15.15.15.27zM991.1 155.45v.1l-4.38 2.55-4.54-2.6c-.16-.05-.16-.16-.16-.27v-.16l4.38-2.54 4.54 2.6c0 .16.16.2.16.32zM998.88 150.9v.1l-4.38 2.54L990 151c-.16-.05-.16-.16-.16-.27v-.1l4.38-2.55 4.54 2.6c.12.07.12.12.12.23zM1006.83 146.37v.1l-4.38 2.55-4.54-2.6c-.15 0-.15-.16-.15-.27V146l4.38-2.54 4.54 2.6c0 .15.16.2.16.3zM1014.6 141.83v.1l-4.53 2.6-4.54-2.6c-.16-.05-.16-.16-.16-.27v-.1l4.38-2.54 4.54 2.6c.3.04.3.1.3.2zM1022.56 137.3v.1l-4.38 2.54-4.54-2.6c-.16-.05-.16-.16-.16-.27V137l4.38-2.54 4.54 2.6c0 .06.16.12.16.23zM1030.34 132.75v.16l-4.38 2.55-4.54-2.6c-.16 0-.16-.16-.16-.27v-.1l4.38-2.54 4.54 2.6c.16.04.16.1.16.2zM1038.3 128.2v.17l-4.4 2.54-4.53-2.6c-.16-.04-.16-.15-.16-.26v-.1l4.38-2.55 4.55 2.6s.16.1.16.2zM1046.07 123.66v.1l-4.38 2.55-4.55-2.58c-.16 0-.16-.16-.16-.27v-.1l4.53-2.55 4.54 2.6zM955.9 166.9v.1l-4.37 2.54L947 167c-.16-.05-.16-.16-.16-.27v-.1l4.38-2.55 4.54 2.6c0 .07.15.17.15.23zM948.13 171.45v.1l-4.38 2.55-4.54-2.6c-.16-.05-.16-.16-.16-.27v-.1l4.38-2.55 4.54 2.6c.04.1.17.16.17.27zM940.18 175.94v.1l-4.38 2.54-4.54-2.58c-.16-.05-.16-.16-.16-.27v-.1l4.38-2.55 4.54 2.6a.3.3 0 0 1 .16.26zM932.4 180.48v.1l-4.4 2.54-4.54-2.6c-.16-.04-.16-.15-.16-.26v-.1l4.37-2.55 4.54 2.6c.2.1.2.17.2.28zM924.3 175.83v.1l-4.4 2.55-1.13-.65c-.16-.06-.16-.16-.16-.27v-.1l4.4-2.55 1.13.66c.16.1.16.16.16.27zM934.5 169.94v.1l-4.37 2.54-1.14-.64a.24.24 0 0 1-.17-.27v-.1l4.38-2.55 1.14.65c.16.1.16.16.16.27zM942.3 165.45v.1l-4.4 2.55-1.13-.65c-.16-.06-.16-.16-.16-.27v-.1l4.4-2.55 1.13.65c.16.05.16.16.16.27zM950.07 160.9v.1l-4.38 2.54-1.14-.65c-.16-.07-.16-.17-.16-.28v-.1l4.37-2.55 1.14.65c.17.13.33.23.17.3zM957.86 156.42v.1l-4.38 2.55-1.14-.65c-.16 0-.16-.16-.16-.27V158l4.38-2.54 1.13.65c.16.16.3.2.16.32zM1001.48 131.3v.1l-4.38 2.54-1.14-.65a.24.24 0 0 1-.16-.28v-.1l4.38-2.55 1.14.65c0 .1.16.2.16.27zM1009.26 126.8v.1l-4.38 2.55-1.13-.65c-.16-.05-.16-.16-.16-.27v-.1l4.36-2.55 1.14.65a.3.3 0 0 1 .16.27zM1017 122.3v.12l-4.37 2.54-1.14-.65c-.17 0-.17-.15-.17-.26v-.16l4.38-2.54 1.14.65c.16.15.16.2.16.3zM1024.83 117.83v.1l-4.38 2.55-1.13-.65c-.17-.06-.17-.16-.17-.27v-.1l4.38-2.55 1.14.66c.16.05.16.16.16.27zM963.7 162.37v.1L959.3 165l-4.55-2.6c-.16 0-.16-.16-.16-.27V162l4.4-2.5 4.54 2.6c.15.1.15.16.15.27zM971.64 157.83v.1l-4.38 2.55-4.54-2.6c-.16 0-.16-.16-.16-.27v-.1l4.38-2.54 4.54 2.6c0 .1.16.2.16.27zM979.42 153.3v.15L975 156l-4.54-2.6c-.16 0-.16-.16-.16-.27V153l4.38-2.54 4.54 2.6a.2.2 0 0 1 .2.23zM987.37 148.75v.1L983 151.4l-4.7-2.55c-.16 0-.16-.16-.16-.27v-.1l4.37-2.54 4.55 2.6c.16.04.32.1.32.2zM995.15 144.2v.1l-4.38 2.55-4.54-2.6c-.16 0-.16-.15-.16-.26v-.12l4.38-2.54 4.54 2.6c.15.06.15.16.15.27zM1003.1 139.67v.1l-4.54 2.6-4.54-2.6c-.16-.05-.16-.16-.16-.27v-.1l4.37-2.55 4.54 2.6c.17.05.33.1.33.22zM1010.88 135.12v.1l-4.38 2.55-4.54-2.6c-.16-.05-.16-.15-.16-.26v-.1l4.38-2.54 4.54 2.6c.16.14.16.14.16.26zM1018.83 130.58v.1l-4.38 2.55-4.54-2.6c-.15-.05-.15-.15-.15-.26v-.1l4.38-2.55 4.54 2.6c.16.1.16.16.16.26zM1026.6 126v.1l-4.37 2.55-4.54-2.6c-.17-.05-.17-.15-.17-.26v-.12l4.54-2.6 4.54 2.6zM964.67 188.37v.1l-14.27 8.28-4.54-2.6c-.17-.05-.17-.16-.17-.27v-.1l14.3-8.28 4.54 2.6c.13.05.13.16.13.27zM1061.3 132.53v.1l-14.3 8.28-4.54-2.6c-.16-.04-.16-.15-.16-.26v-.1l14.27-8.28 4.54 2.6a.3.3 0 0 1 .2.27zM1047.2 150.7v.1l-4.37 2.54-5.52-3.13c-.15-.05-.15-.16-.15-.27v-.1l4.38-2.54 5.5 3.12a.3.3 0 0 1 .18.27zM990.13 183.66v.1l-7.46 4.34-5.52-3.1c-.16-.05-.16-.16-.16-.27v-.16l7.45-4.32 5.5 3.18a.3.3 0 0 1 .18.23zM1039.75 155.07v.1l-7.46 4.33-5.53-3.13c-.16-.06-.16-.16-.16-.27v-.1l7.47-4.33 5.5 3.14c0 .1.18.2.18.27zM1028.88 161.3c0 .04 0 .1-.16.2l-34.05 19.62-5.84-3.35 34.38-19.84 5.52 3.2c0 .05.16.1.16.16zM1071 137.07l-4.86 2.86-1.78-1c0-.06-.17-.1-.17-.16v-.06l4.86-2.8 1.78 1c.04.1.16.1.16.17zM1063.1 141.6l-4.87 2.88-1.78-1c0-.06-.16-.1-.16-.16v-.06l4.85-2.8 1.8 1c.15.04.15.1.15.15zM1055.15 146.15l-4.86 2.87-1.8-1c0-.06-.16-.1-.16-.16v-.06l4.87-2.8 1.8 1c.15 0 .15.1.15.15zM1058.72 139.12l-4.87 2.87-1.78-1c0-.06-.16-.12-.16-.17v-.05l4.87-2.82 1.8 1c.15.04.15.1.15.16zM1061.15 181.56l-27.73 16.05a6.2 6.2 0 0 1-5.5-.2l-14.77-8.55c-1.62-1-1.78-2.16-.32-3.2l27.9-16a6.2 6.2 0 0 1 5.5.23l14.76 8.54c1.45.97 1.6 2.1.15 3.14z" class="cls-4"/><path d="M907.6 68.7l112.54-65a3.65 3.65 0 0 1 3.9-.13l4.42 2.43h-2.85a8 8 0 0 1 .28 2.23v88.4c0 4.3-2.56 9.2-5.78 11.07l-60.36 34.86-51 29.45-.36 3.4L904 173l-.17-.1h-.05c-1.2-.7-1.93-2.36-1.88-4.68l-.07-88.42c0-4.3 2.56-9.2 5.77-11.1z" class="cls-5"/><path d="M1030 10.45l-.07 88.5c.1 4.16-2.43 9.08-5.7 11L972 140.05l-31.2 13.7c-3.22 1.84-5.8-.1-5.78-4.4l-6.73-78c0-4.25 2.6-9.2 5.73-11.07L1024.18 6c3.2-1.8 5.82.12 5.82 4.45z" class="cls-6"/><path d="M967.14 40.25v101.33l-54.86 31.66c-3.14 1.8-5.63-.1-5.63-4.3V82.72c0-4.13 2.55-9 5.6-10.8z" class="cls-7"/><path d="M951.5 71.2L926.9 85.4v-3.15l24.63-14.22v3.14z" class="cls-8"/><path d="M943.4 97.5l-16.52 9.53v-3.18l16.52-9.54v3.2z" class="cls-9"/><path d="M932.06 111.2l-10.36 6V114l10.36-6v3.2z" class="cls-10"/><path d="M940.66 106.25l-5.94 3.42v-3.17l5.94-3.43v3.18z" class="cls-11"/><path d="M959.62 73.72l-16.22 9.36V79.9l16.22-9.36v3.18z" class="cls-12"/><path d="M940.66 84.67L921.7 95.6v-3.16l18.96-10.95v3.17z" class="cls-13"/><path d="M924.22 122.94l-2.52 1.46v-3.18l2.52-1.45v3.17zM924.22 101.36l-2.52 1.46v-3.18l2.52-1.45v3.16zM924.22 108.57l-2.52 1.45v-3.17l2.52-1.46v3.17zM924.22 86.97l-2.52 1.45v-3.17l2.52-1.46v3.17z" class="cls-6"/><path d="M918.88 90.02l-2.67 1.56v-3.14l2.68-1.55V90zM918.88 111.65l-2.67 1.54V110l2.68-1.55v3.18zM918.88 97.24l-2.67 1.54V95.6l2.68-1.54v3.18zM918.88 104.44L916.2 106v-3.2l2.68-1.53v3.17zM918.88 133.23l-2.67 1.55v-3.18l2.68-1.55v3.18zM918.88 140.4l-2.67 1.55v-3.18l2.68-1.55v3.18zM918.88 118.82l-2.67 1.54v-3.17l2.68-1.56v3.18zM918.88 126.03l-2.67 1.54v-3.18l2.68-1.55v3.18z" class="cls-12"/><path d="M996.1 55.8v10.03M996.1 82.58v10" class="cls-14"/><path d="M1007.7 49.1l-22.18 12.8c-.6.36-1.07 0-1.07-.8V47.2a2.55 2.55 0 0 1 1.07-2l22.2-12.8c.58-.34 1.06 0 1.06.8v13.86a2.55 2.55 0 0 1-1.07 2.04z" class="cls-15"/><path d="M1007.7 75.87l-22.18 12.8c-.6.35-1.07 0-1.07-.8V74a2.57 2.57 0 0 1 1.07-2l22.2-12.8c.58-.35 1.06 0 1.06.8v13.9a2.57 2.57 0 0 1-1.07 1.97zM1007.7 102.63l-22.18 12.8c-.6.35-1.07 0-1.07-.8v-13.9a2.6 2.6 0 0 1 1.07-2l22.2-12.8c.58-.34 1.06 0 1.06.8v13.9a2.55 2.55 0 0 1-1.07 2z" class="cls-16"/><ellipse cx="987.69" cy="47.56" class="cls-6" rx="2.21" ry="1.28" transform="translate(448.18 876.25) rotate(-59.69)"/><ellipse cx="987.69" cy="73.72" class="cls-6" rx="2.21" ry="1.28" transform="translate(425.59 889.21) rotate(-59.69)"/><ellipse cx="991.98" cy="71.25" class="cls-6" rx="2.21" ry="1.28" transform="translate(429.85 891.68) rotate(-59.69)"/><ellipse cx="987.69" cy="101.13" class="cls-6" rx="2.21" ry="1.28" transform="translate(401.92 902.78) rotate(-59.69)"/><path d="M1026.63 8.16a.2.2 0 0 1 .18.07 3.42 3.42 0 0 1 .53 2.2v88.4c0 3.3-2 7.26-4.37 8.65l-60.37 34.86-52.16 30.1a2.08 2.08 0 0 1-.92.34c-.1-.05-.56-.65-.53-2.24v-.06l-.07-88.42c0-3.3 2-7.25 4.36-8.65l112.47-64.95a1.87 1.87 0 0 1 .86-.3m0-2.8a4.58 4.58 0 0 0-2.23.65L911.86 71c-3.2 1.9-5.78 6.77-5.77 11.08l.05 88.43c-.06 3.2 1.33 5.1 3.4 5.1a4.67 4.67 0 0 0 2.3-.68L964 144.77l60.36-34.86c3.22-1.88 5.78-6.76 5.77-11.07v-88.4c0-3.2-1.45-5.08-3.5-5.08z" class="cls-16"/><path d="M315 215.7l-122.22-71.2" class="cls-17"/><text class="cls-18" transform="matrix(.7 .4 0 .8 55.02 52.05)">COOPER</text><text class="cls-18" transform="matrix(.7 .4 0 .8 0 248.55)">Sub-GHz radio/IQRF</text><text class="cls-19" transform="matrix(.7 .4 0 .8 300.52 242.89)">Dongle</text><path d="M135.46 117.9l-1.86 1.25-1.18-.68-7.2-4.15 1.87-1.26 6.98 4.03 1.38.8z" class="cls-20"/><path d="M919.7 191.5L665 338.53a31.63 31.63 0 0 1-31.63 0L244.54 114.07M742.96 291.1L341.46 59.3M848.42 232.65l-374.35-214a63.84 63.84 0 0 0-63.58.14l-281.6 162" class="cls-17"/><path d="M720.58 165.06c0 .37 0 .72 0 1.1-.37 8.87-6.4 17.68-18.12 24.45-24.3 14-63.8 14-88.25-.14-11.5-6.63-17.6-15.2-18.32-23.88 0-.5 0-1 0-1.5 0-.74 0-1.46 0-2.18a62.37 62.37 0 0 1 124.7 2.18z" class="cls-21"/><path d="M681.05 192c0 1.83 0 3.65-.14 5.46-2 12.68-11.35 25-28.14 34.73-38.22 22.06-100.38 22-138.84-.26-18-10.4-27.66-23.8-28.86-37.4 0-.84 0-1.68 0-2.52 0-1.22 0-2.4.08-3.6a98 98 0 0 1 195.86-.83c0 1.45.05 2.96.05 4.4z" class="cls-22"/><path d="M564.74 233.48v.27c0 7.82-5.2 15.6-15.5 21.56-20.75 12-54.48 11.93-75.36-.13-10.4-6-15.66-13.85-15.74-21.7v-.24a53.3 53.3 0 0 1 106.6.25z" class="cls-23"/><text class="cls-24" transform="matrix(.7 -.4 0 .8 548.32 163.56)">Backend</text><text class="cls-25" transform="matrix(.7 .4 -.69 .4 274.65 119.25)">LoRa</text><text class="cls-25" transform="matrix(.7 .4 -.69 .4 370.13 64.36)">Sigfox</text><text class="cls-25" transform="matrix(.7 .4 -.69 .4 470.77 6.12)">NB-IoT</text><ellipse cx="98.35" cy="270.04" class="cls-26" rx="32.23" ry="55.83" transform="translate(-172.21 366.92) rotate(-89.69)"/><path d="M147.04 248.54l-27.55 15.9V153.5l27.54-15.87v110.9z" class="cls-7"/><path d="M59.5 107.6l27.42-15.8 50.15 28.94-27.42 15.8L59.5 107.6z" class="cls-20"/><path d="M109.65 136.55l27.42-15.8 9.97 16.88-27.56 15.88-9.83-16.95z" class="cls-7"/><path d="M114.6 132.43l-51.72-29.85-10.94 6.23v112.72l10.94 18.87 51.7 29.84 10.95-6.24V151.3zm9 129.6l-9.84 5.6-50.1-28.95-9.84-17V110.8l9.84-5.6 50.15 28.94 9.84 17z" class="cls-27"/><path d="M143.24 253.8l-17.7 10.2V151.3l17.7-10.2v112.7z" class="cls-28"/><path d="M62.88 102.58l17.6-10.14 51.72 29.85-17.6 10.13-51.72-29.85z" class="cls-29"/><path d="M114.6 132.43l17.6-10.14 11.04 18.8-17.7 10.2-10.95-18.87z" class="cls-27"/><path d="M109.65 136.55L59.5 107.6l-9.84 5.6v110.92l9.84 16.96 50.15 28.96 9.83-5.6V153.5l-9.83-16.95z" class="cls-30"/><path d="M110.37 263.4l-.7.4-46.2-26.67-8.4-14.46V116.34l4.4-2.5.7.4-3.7 2.1v106.33l8.38 14.46 45.52 26.28z" class="cls-31"/><path d="M85.83 186zM69.58 159.48zM88.67 187.65zM84.83 185.28zM88.93 187.65z" class="cls-20"/><path d="M101.2 235.1l-22.94-13.24H68.2l.26.16 32.75 18.9c1.22.7 2.2 0 2.2-1.64a5.2 5.2 0 0 0-2.2-4.17zM68.46 216.2c-1.2-.7-2.18 0-2.18 1.65a5.36 5.36 0 0 0 1.93 4h10.06zM101.2 246.47l-22.94-13.25H68.2l.26.16 32.75 18.9c1.22.7 2.2 0 2.2-1.64a5.2 5.2 0 0 0-2.2-4.17zM68.46 227.56c-1.2-.7-2.18 0-2.18 1.65a5.37 5.37 0 0 0 1.93 4h10.06zM101.2 223.75L78.27 210.5H68.2a1.75 1.75 0 0 0 .26.16l32.75 18.9c1.22.7 2.2 0 2.2-1.64a5.23 5.23 0 0 0-2.2-4.17zM68.46 204.84c-1.2-.7-2.18 0-2.18 1.65a5.36 5.36 0 0 0 1.93 4h10.06zM101.2 212.4l-22.94-13.25H68.2l.26.16 32.75 18.92c1.22.7 2.2-.05 2.2-1.65a5.2 5.2 0 0 0-2.2-4.17zM68.46 193.5c-1.2-.7-2.18 0-2.18 1.64a5.37 5.37 0 0 0 1.93 4h10.06zM101.2 178.33l-22.94-13.25H68.2l.26.16 32.75 18.9c1.22.7 2.2-.04 2.2-1.64a5.2 5.2 0 0 0-2.2-4.17zM68.46 159.42c-1.2-.7-2.18 0-2.18 1.65a5.37 5.37 0 0 0 1.93 4h10.06zM75.2 140.6l-7 1.76.25.16 6.74 3.9c1.2.7 2.18 0 2.18-1.65a5.2 5.2 0 0 0-2.18-4.17zM68.46 136.7c-1.2-.7-2.18.05-2.18 1.65a5.36 5.36 0 0 0 1.93 4l7-1.76zM75.2 152l-7 1.77.25.16 6.74 3.9c1.2.7 2.18 0 2.18-1.66A5.24 5.24 0 0 0 75.2 152zM68.46 148.06c-1.2-.7-2.18 0-2.18 1.65a5.36 5.36 0 0 0 1.93 4l7-1.76zM101.2 155.6l-7 1.78.26.16 6.74 3.9c1.2.7 2.18 0 2.18-1.66a5.23 5.23 0 0 0-2.17-4.17zM94.47 151.72c-1.2-.7-2.2 0-2.2 1.65a5.36 5.36 0 0 0 1.95 4l7-1.77zM101.2 167l-7 1.77a2.07 2.07 0 0 0 .26.15l6.74 3.9c1.2.7 2.18 0 2.18-1.65a5.2 5.2 0 0 0-2.17-4.17zM94.47 163.07c-1.2-.7-2.2.05-2.2 1.65a5.4 5.4 0 0 0 1.95 4l7-1.77zM75.2 174.7l-7 1.75a1.75 1.75 0 0 0 .25.16l6.74 3.9c1.2.7 2.18 0 2.18-1.64a5.2 5.2 0 0 0-2.18-4.17zM68.46 170.8c-1.2-.7-2.18.04-2.18 1.64a5.36 5.36 0 0 0 1.93 4l7-1.76zM75.2 186.05l-7 1.76.25.17 6.74 3.9c1.2.7 2.18-.05 2.18-1.65a5.2 5.2 0 0 0-2.18-4.17zM68.46 182.15c-1.2-.7-2.18 0-2.18 1.65a5.36 5.36 0 0 0 1.93 4l7-1.76zM101.2 189.7l-7 1.77.26.16 6.74 3.9c1.2.7 2.18 0 2.18-1.66a5.23 5.23 0 0 0-2.17-4.17zM94.47 185.8c-1.2-.7-2.2 0-2.2 1.66a5.36 5.36 0 0 0 1.95 4l7-1.77zM101.2 201.06l-7 1.77.26.16 6.74 3.88c1.2.7 2.18 0 2.18-1.65a5.2 5.2 0 0 0-2.17-4.17zM94.47 197.17c-1.2-.7-2.2 0-2.2 1.65a5.38 5.38 0 0 0 1.95 4l7-1.77zM101.2 144.26L78.27 131H68.2l.26.16 32.75 18.9c1.22.7 2.2-.04 2.2-1.64a5.2 5.2 0 0 0-2.2-4.16zM68.46 125.35c-1.2-.7-2.18 0-2.18 1.65a5.37 5.37 0 0 0 1.93 4h10.06zM87.2 161.82L78.8 157v-9.62l8.37 4.84v9.6z" class="cls-7"/><path d="M83 158a6.4 6.4 0 0 1-2.9-5c0-1.83 1.3-2.57 2.9-1.65a6.4 6.4 0 0 1 2.9 5c0 1.85-1.3 2.6-2.9 1.65z" class="cls-33"/><path id="surface1" d="M82.87 152.7v1.9l.27.17v-1.92zm-.42-.14c-.65-.1-1.12.33-1.12 1.17a3.7 3.7 0 0 0 1.67 2.9c.92.52 1.67.1 1.67-1a3.76 3.76 0 0 0-1.12-2.47v.35a3 3 0 0 1 .84 1.96c0 .88-.63 1.24-1.4.8a3.07 3.07 0 0 1-1.4-2.4c0-.67.34-1 .84-1z" class="cls-4"/><path d="M89.05 150.96v9.6l-1.86 1.26v-9.6l1.85-1.26z" class="cls-34"/><path d="M90.05 191.72A11.23 11.23 0 0 0 85 182.9a3.64 3.64 0 0 0-3.55-.4l-2 1.16.92.14a4.84 4.84 0 0 0-.38 2 11.3 11.3 0 0 0 5.1 8.83 5.73 5.73 0 0 0 1.38.58l.13 1 2-1.15a3.5 3.5 0 0 0 1.45-3.33z" class="cls-35"/><ellipse cx="82.92" cy="189.92" class="cls-4" rx="4.16" ry="7.2" transform="translate(-84.3 67.52) rotate(-30.21)"/><path d="M356.97 228.4v7.23l-17.05 9.84v-7.23l17.05-9.84z" class="cls-36"/><path d="M343.56 238.2l10.44-6.03 6.7 3.86-10.44 6.03-6.7-3.87z" class="cls-37"/><path d="M352.3 235.8l2.32-1.34 2.32 1.34-2.3 1.33-2.33-1.34zM347.53 238.55l2.3-1.33 2.33 1.34-2.3 1.33-2.33-1.35z" class="cls-12"/><path d="M343.56 238.2v3.4l6.7 3.87v-3.4l-6.7-3.88z" class="cls-38"/><path d="M360.7 236.03v3.4l-10.44 6.04v-3.4l10.44-6.04z" class="cls-39"/><path d="M350.76 242.35l9.44-5.45v2.26l-9.44 5.44v-2.25z" class="cls-40"/><path d="M355.3 239.73l4.9-2.83v2.26l-1.7.97-3.2-.4z" class="cls-12"/><path d="M339.92 238.24v7.23l-31.14-18c-1.82-1.06-2.73-2.46-2.75-3.94v-7.85l1.78 1.18z" class="cls-41"/><path d="M309.93 211.08c4.7-2.7 11.83-3 15.9-.66l31.14 18-17.06 9.84-31.12-18c-4.07-2.35-3.56-6.46 1.15-9.18z" class="cls-42"/><path d="M405 226.85l-32.87 19a7.63 7.63 0 0 0-3.8 6.6v38.4a2.18 2.18 0 0 0 1.08 1.88l87.2 50.4a3.15 3.15 0 0 0 3.16 0l2.8-1.62 34-54.8v-6.92a3.42 3.42 0 0 0-1.67-2.93l-86.48-50a3.4 3.4 0 0 0-3.42 0z" class="cls-43"/><path d="M459.7 343.14l34-19.63a5.67 5.67 0 0 0 2.83-4.9v-39a1 1 0 0 0-1.55-.9L461.55 298a6.82 6.82 0 0 0-3.4 5.9v38.33a1 1 0 0 0 1.54.9z" class="cls-44"/><ellipse cx="477.34" cy="310.93" class="cls-45" rx="12.34" ry="7.12" transform="translate(-32 566.09) rotate(-59.69)"/><path d="M468.58 316c0-5.54 3.92-12.3 8.76-15.1a7.8 7.8 0 0 1 4.1-1.2 6.85 6.85 0 0 1 1.63 4.88c0 5.55-3.92 12.3-8.75 15.1a7.85 7.85 0 0 1-4.12 1.2 6.9 6.9 0 0 1-1.62-4.88z" class="cls-46"/><path d="M472.8 315.12l6.03-3.48v-6.9l-6.02 3.46v6.92z" class="cls-47"/><text class="cls-48" transform="matrix(.7 .4 -.69 .4 415.07 260.53)">HUB</text><path d="M974.44 222.58L665 401.23a31.63 31.63 0 0 1-31.63 0L476 309.9" class="cls-17"/><ellipse cx="745.1" cy="292.2" class="cls-49" rx="4.37" ry="7.56" transform="translate(448.87 1035.7) rotate(-89.69)"/><ellipse cx="848.42" cy="232.65" class="cls-50" rx="4.37" ry="7.56" transform="translate(611.17 1079.8) rotate(-89.69)"/><ellipse cx="192.78" cy="144.5" class="cls-51" rx="4.37" ry="7.56" transform="translate(47.24 336.49) rotate(-89.69)"/><ellipse cx="244.54" cy="113.83" class="cls-52" rx="4.37" ry="7.56" transform="translate(129.39 357.75) rotate(-89.69)"/><ellipse cx="341.46" cy="59.3" class="cls-53" rx="4.37" ry="7.56" transform="translate(280.31 400.44) rotate(-89.69)"/></g></g></g></svg>