<svg xmlns="http://www.w3.org/2000/svg" width="325" height="479.81"><defs><style>.cls-1{fill:#d20d26;}</style></defs><title>footer-bcg</title><path d="M274.6 0c-27.8 0-50.4 23-50.4 51.18a51.2 51.2 0 0 0 34.1 48.4v84L0 271.37v139.16a17.83 17.83 0 0 1 15.92 10.7 18.2 18.2 0 0 1 1.57 7.4A18 18 0 0 1 0 446.75v33.06c27.63-.2 50-23.07 50-51.15a51.17 51.17 0 0 0-34.12-48.4v-79.42l263.85-89.75a16.52 16.52 0 0 0 11.1-15.67V99.58A51.2 51.2 0 0 0 325 51.17C325 23 302.38 0 274.6 0zm16.26 58.58a17.7 17.7 0 0 1-32.55 0 18.27 18.27 0 0 1-1.56-7.4 17.85 17.85 0 1 1 35.7 0 18.27 18.27 0 0 1-1.58 7.4zM137.1 90.86c-27.67 0-50.2 22.8-50.38 50.88l-70.8 24.1V99.55A51.12 51.12 0 0 0 50 51.16C50 23.1 27.62.2 0 0v33.06a18 18 0 0 1 17.48 18.1 18.2 18.2 0 0 1-1.57 7.4A17.8 17.8 0 0 1 0 69.3v136a16.08 16.08 0 0 0 4.82-.85l92.32-31.4a50 50 0 0 0 40 20.13c27.8 0 50.4-22.95 50.4-51.18s-22.63-51.12-50.43-51.12zm0 69.28a16.44 16.44 0 0 1-1.72-.08 18 18 0 0 1-16.1-18 18.23 18.23 0 0 1 5.78-13.33 17.6 17.6 0 0 1 12.05-4.77 18.1 18.1 0 0 1 0 36.22zM290.87 380.26v-84.7a16.6 16.6 0 0 0-6.77-13.42 16.12 16.12 0 0 0-14.7-2.27l-92.3 31.4a50 50 0 0 0-40-20.12c-27.8 0-50.4 23-50.4 51.18s22.6 51.16 50.4 51.16 50.22-22.8 50.38-50.9l70.8-24.08v61.74a51.16 51.16 0 0 0-34.13 48.4c0 28.2 22.62 51.15 50.4 51.15S325 456.87 325 428.66a51.17 51.17 0 0 0-34.13-48.4zm-141.7-24.6a17.66 17.66 0 0 1-12 4.77 18.1 18.1 0 0 1 0-36.22 16.76 16.76 0 0 1 1.74.1 18 18 0 0 1 16.1 18 18.2 18.2 0 0 1-5.83 13.36zm125.4 91.1a18 18 0 0 1-17.82-18.1 18.2 18.2 0 0 1 1.57-7.4 17.7 17.7 0 0 1 32.55 0 18.2 18.2 0 0 1 1.57 7.4 18 18 0 0 1-17.86 18.1z" class="cls-1"/></svg>