<?xml version="1.0" encoding="utf-8"?>
<!-- Generator: Adobe Illustrator 24.2.1, SVG Export Plug-In . SVG Version: 6.00 Build 0)  -->
<svg version="1.1" id="Layer_1" xmlns="http://www.w3.org/2000/svg" xmlns:xlink="http://www.w3.org/1999/xlink" x="0px" y="0px"
	 viewBox="0 0 325 479.8" style="enable-background:new 0 0 325 479.8;" xml:space="preserve">
<style type="text/css">
	.st0{fill:#1A1A1A;}
</style>
<path class="st0" d="M274.6,0c-27.8,0-50.4,23-50.4,51.2c-0.1,21.7,13.6,41.1,34.1,48.4v84L0,271.4v139.2
	c6.9,0.2,13.1,4.3,15.9,10.7c1,2.3,1.6,4.9,1.6,7.4c0.1,9.8-7.7,17.8-17.5,18.1v33.1c27.6-0.2,50-23.1,50-51.1
	c0.1-21.7-13.6-41.2-34.1-48.4v-79.4l263.9-89.8c6.7-2.3,11.1-8.6,11.1-15.7V99.6c20.5-7.2,34.2-26.7,34.2-48.4
	C325,23,302.4,0,274.6,0z M290.9,58.6c-3.8,9-14.2,13.2-23.2,9.3c-4.2-1.8-7.5-5.1-9.3-9.3c-1-2.3-1.6-4.9-1.6-7.4
	c0-9.9,8-17.9,17.9-17.9s17.9,8,17.9,17.9C292.4,53.7,291.9,56.3,290.9,58.6L290.9,58.6z M137.1,90.9c-27.7,0-50.2,22.8-50.4,50.9
	l-70.8,24.1V99.6C36.4,92.3,50.1,72.9,50,51.2C50,23.1,27.6,0.2,0,0v33.1c9.8,0.3,17.5,8.3,17.5,18.1c0,2.5-0.5,5.1-1.6,7.4
	c-2.8,6.4-9,10.6-15.9,10.7v136c1.6,0,3.3-0.3,4.8-0.9l92.3-31.4c9.4,12.6,24.2,20.1,40,20.1c27.8,0,50.4-22.9,50.4-51.2
	S164.9,90.9,137.1,90.9L137.1,90.9z M137.1,160.1c-0.6,0-1.1,0-1.7-0.1c-9.2-1-16.2-8.8-16.1-18c0-5.1,2.1-9.9,5.8-13.3
	c3.3-3.1,7.6-4.8,12-4.8c10,0,18.1,8.1,18.1,18.1S147.1,160.2,137.1,160.1L137.1,160.1z M290.9,380.3v-84.7c0-5.3-2.5-10.3-6.8-13.4
	c-4.2-3.1-9.7-4-14.7-2.3l-92.3,31.4c-9.4-12.6-24.2-20.1-40-20.1c-27.8,0-50.4,23-50.4,51.2s22.6,51.2,50.4,51.2
	s50.2-22.8,50.4-50.9l70.8-24.1v61.7c-20.5,7.2-34.2,26.7-34.1,48.4c0,28.2,22.6,51.1,50.4,51.1s50.5-22.9,50.5-51.1
	C325.1,406.9,311.4,387.5,290.9,380.3z M149.2,355.7c-3.3,3-7.5,4.8-12,4.8c-10,0-18.1-8.1-18.1-18.1c0-10,8.1-18.1,18.1-18.1
	c0.6,0,1.2,0,1.7,0.1c9.2,1,16.2,8.8,16.1,18C155,347.4,152.9,352.2,149.2,355.7L149.2,355.7z M274.6,446.8
	c-9.9-0.1-17.9-8.2-17.8-18.1c0-2.5,0.5-5.1,1.6-7.4c3.8-9,14.2-13.2,23.2-9.3c4.2,1.8,7.5,5.1,9.3,9.3c1,2.3,1.6,4.9,1.6,7.4
	C292.5,438.6,284.5,446.7,274.6,446.8L274.6,446.8z"/>
</svg>
