<svg xmlns="http://www.w3.org/2000/svg" xmlns:xlink="http://www.w3.org/1999/xlink" viewBox="0 0 154.33 188.6"><defs><style>.cls-1{opacity:0.1;fill:url(#linear-gradient);}.cls-2{fill:url(#linear-gradient-2);}.cls-3{opacity:0.2;fill:url(#linear-gradient-3);}.cls-4{fill:#fff;}</style><linearGradient id="linear-gradient" x1="-2196.17" y1="2517.91" x2="-2013.85" y2="2517.91" gradientTransform="matrix(0.87, 0.5, 0.5, 1.44, 657.44, -2499.38)" gradientUnits="userSpaceOnUse"><stop offset="0" stop-color="#e36559"/><stop offset="1" stop-color="#de3a2e"/></linearGradient><linearGradient id="linear-gradient-2" x1="-2254.95" y1="2554.76" x2="-2072.63" y2="2554.76" xlink:href="#linear-gradient"/><linearGradient id="linear-gradient-3" x1="-2225.88" y1="2535.45" x2="-2043.56" y2="2535.45" xlink:href="#linear-gradient"/></defs><title>Asset 7</title><g id="Layer_2" data-name="Layer 2"><g id="Layer_1-2" data-name="Layer 1"><path class="cls-1" d="M143.51,163.49,43.29,105.63c-6-3.45-10.82-12.71-10.82-20.68V9.48c0-8,4.85-11.63,10.82-8.18L143.51,59.16c6,3.45,10.82,12.71,10.82,20.68v75.47C154.33,163.28,149.48,166.94,143.51,163.49Z"/><path class="cls-2" d="M111,187.3,10.82,129.45C4.85,126,0,116.74,0,108.77V33.29c0-8,4.85-11.63,10.82-8.18L111,83c6,3.45,10.83,12.71,10.83,20.68v75.47C121.86,187.09,117,190.76,111,187.3Z"/><path class="cls-3" d="M126.55,174,26.34,116.1c-6-3.45-10.83-12.71-10.83-20.68V19.94c0-8,4.85-11.63,10.83-8.18L126.55,69.62c6,3.45,10.82,12.71,10.82,20.68v75.47C137.37,173.74,132.53,177.41,126.55,174Z"/><path class="cls-4" d="M32.29,92.92l-1.4-.78c-.66-.37-1.21,0-1.23.85l-.13,5.48c0,.84-.57,1.22-1.23.86L27.71,99a2.65,2.65,0,0,1-1.16-2.19L27,77.7c0-.84.57-1.23,1.23-.86l4.83,2.7a11.9,11.9,0,0,1,4.53,4.27,10.7,10.7,0,0,1,1.49,5.88A5.26,5.26,0,0,1,38.18,93a2.8,2.8,0,0,1-1.37.9c-.53.15-.76.89-.48,1.76l3.11,9.73v.2L37,104.17a2.53,2.53,0,0,1-1-1.42l-2.6-8.42A2.55,2.55,0,0,0,32.29,92.92Zm-2.48-6.08A2.62,2.62,0,0,0,31,89l1.87,1a2.39,2.39,0,0,0,2.37.33c.58-.33.89-1.07.91-2.21A6.35,6.35,0,0,0,35.4,85a6,6,0,0,0-2.31-2.31l-2-1.08c-.66-.37-1.21,0-1.23.85Z"/><path class="cls-4" d="M50.6,101.75,46,99.16c-.66-.37-1.21,0-1.23.85l-.09,3.78A2.65,2.65,0,0,0,45.79,106l5.84,3.25a2.64,2.64,0,0,1,1.15,2.19v0c0,.84-.57,1.23-1.23.86l-8.81-4.92a2.64,2.64,0,0,1-1.15-2.19L42,86.09c0-.84.57-1.23,1.23-.86L52,90.11a2.61,2.61,0,0,1,1.15,2.18v.06c0,.84-.57,1.23-1.23.86L46.17,90c-.66-.37-1.21,0-1.23.85l-.07,3.08A2.66,2.66,0,0,0,46,96.12l4.65,2.59a2.65,2.65,0,0,1,1.16,2.19h0C51.81,101.74,51.26,102.12,50.6,101.75Z"/><path class="cls-4" d="M64,114l-4.93-2.75a.74.74,0,0,0-1.16.4L57,114.33a.73.73,0,0,1-1.15.39l-.52-.29a2.52,2.52,0,0,1-1.07-2.68l6-16a.73.73,0,0,1,1.14-.37l1,.57a2.56,2.56,0,0,1,1.09,1.61l5.14,22.23c.26,1.16-.34,1.9-1.17,1.43l-.54-.3a2.57,2.57,0,0,1-1.1-1.65l-.77-3.58A2.58,2.58,0,0,0,64,114Zm-3.21-4.93,1.62.9c.82.46,1.42-.25,1.18-1.38l-.74-3.45c-.34-1.58-1.85-2.42-2.25-1.26l-.89,2.54A2.57,2.57,0,0,0,60.82,109.11Z"/><path class="cls-4" d="M77,117.86l-1.4-.78c-.66-.37-1.21,0-1.23.86l-.13,5.48c0,.84-.57,1.22-1.23.85l-.59-.33a2.64,2.64,0,0,1-1.15-2.19l.45-19.11c0-.84.57-1.22,1.23-.86l4.83,2.7a11.92,11.92,0,0,1,4.53,4.28,10.58,10.58,0,0,1,1.49,5.88,5.26,5.26,0,0,1-.91,3.26,2.71,2.71,0,0,1-1.37.89c-.53.15-.75.89-.48,1.77l3.11,9.73v.2l-2.46-1.38a2.54,2.54,0,0,1-1-1.42L78,119.28A2.53,2.53,0,0,0,77,117.86Zm-2.48-6.07A2.66,2.66,0,0,0,75.64,114l1.87,1a2.39,2.39,0,0,0,2.37.33,2.45,2.45,0,0,0,.92-2.21,6.44,6.44,0,0,0-.72-3.19,6,6,0,0,0-2.31-2.31l-2-1.09c-.66-.37-1.21,0-1.23.86Z"/></g></g></svg>