<svg xmlns="http://www.w3.org/2000/svg" xmlns:xlink="http://www.w3.org/1999/xlink" viewBox="0 0 438.02 428.21"><defs><style>.cls-1{isolation:isolate;}.cls-2{opacity:0.5;mix-blend-mode:multiply;fill:url(#radial-gradient);}.cls-3{fill:#3b7042;}.cls-4{fill:#5454b2;}.cls-5{fill:#41418a;}.cls-6{fill:#5b5bc1;}.cls-7{fill:url(#linear-gradient);}.cls-8{fill:url(#linear-gradient-2);}.cls-9{fill:url(#linear-gradient-3);}.cls-10{fill:url(#linear-gradient-4);}.cls-11{fill:#989898;}.cls-12{fill:url(#linear-gradient-5);}.cls-13{fill:url(#_ÂÁ_Ï_ÌÌ_È_ËÂÌÚ_318);}.cls-14{fill:url(#linear-gradient-6);}.cls-15{fill:#39394d;}.cls-16{fill:#f01f1f;}.cls-17{fill:url(#linear-gradient-7);}.cls-18{fill:#7f081c;}.cls-19{fill:url(#linear-gradient-8);}.cls-20{fill:url(#linear-gradient-9);}.cls-21{fill:#dcdcdc;}.cls-22{fill:#4e4e4e;}.cls-23{fill:#c2c2c2;}.cls-24{fill:#cfcfcf;}.cls-25{fill:url(#linear-gradient-10);}.cls-26{fill:url(#linear-gradient-11);}.cls-27{fill:url(#linear-gradient-12);}.cls-28{fill:url(#linear-gradient-13);}.cls-29{fill:url(#linear-gradient-14);}.cls-30{fill:url(#linear-gradient-15);}.cls-31{fill:#fff;}.cls-31,.cls-32,.cls-33{opacity:0.36;mix-blend-mode:screen;}.cls-32{fill:url(#linear-gradient-16);}.cls-33{fill:url(#linear-gradient-17);}.cls-34{fill:#a0082d;}.cls-35{fill:url(#linear-gradient-18);}</style><radialGradient id="radial-gradient" cx="254.69" cy="250.38" r="190.55" gradientTransform="matrix(1, -0.01, 0, 0.64, -30.2, 150.01)" gradientUnits="userSpaceOnUse"><stop offset="0.4" stop-color="#999"/><stop offset="1" stop-color="#fff"/></radialGradient><linearGradient id="linear-gradient" x1="271.06" y1="288.86" x2="337.52" y2="236.72" gradientUnits="userSpaceOnUse"><stop offset="0.02" stop-color="#adadad"/><stop offset="0.47" stop-color="#bebebe"/><stop offset="1" stop-color="#d6d6d6"/></linearGradient><linearGradient id="linear-gradient-2" x1="10.31" y1="296.63" x2="118.99" y2="296.63" gradientUnits="userSpaceOnUse"><stop offset="0" stop-color="#d6d6d6"/><stop offset="0.46" stop-color="#c4c4c4"/><stop offset="0.98" stop-color="#b3b3b3"/></linearGradient><linearGradient id="linear-gradient-3" x1="128.24" y1="313.05" x2="258.3" y2="255.76" gradientUnits="userSpaceOnUse"><stop offset="0" stop-color="#d6d6d6"/><stop offset="0.02" stop-color="#d5d5d5"/><stop offset="0.66" stop-color="#aaa"/><stop offset="0.98" stop-color="#999"/></linearGradient><linearGradient id="linear-gradient-4" x1="251.76" y1="202.78" x2="27.16" y2="202.39" gradientUnits="userSpaceOnUse"><stop offset="0.02" stop-color="#999"/><stop offset="0.34" stop-color="#aaa"/><stop offset="0.98" stop-color="#d5d5d5"/><stop offset="1" stop-color="#d6d6d6"/></linearGradient><linearGradient id="linear-gradient-5" x1="160.92" y1="130.43" x2="262.14" y2="116.68" xlink:href="#linear-gradient"/><linearGradient id="_ÂÁ_Ï_ÌÌ_È_ËÂÌÚ_318" x1="276.02" y1="125.08" x2="243.51" y2="-32.79" gradientUnits="userSpaceOnUse"><stop offset="0" stop-color="#90c7ff"/><stop offset="1" stop-color="#29a2ff"/></linearGradient><linearGradient id="linear-gradient-6" x1="374.12" y1="245.79" x2="391.31" y2="288.76" gradientUnits="userSpaceOnUse"><stop offset="0" stop-color="#989898"/><stop offset="1" stop-color="#c2c2c2"/></linearGradient><linearGradient id="linear-gradient-7" x1="317.58" y1="138.15" x2="381.18" y2="219.51" gradientUnits="userSpaceOnUse"><stop offset="0" stop-color="#770727"/><stop offset="0.29" stop-color="#880728"/><stop offset="0.85" stop-color="#b3082a"/><stop offset="1" stop-color="#bf082b"/></linearGradient><linearGradient id="linear-gradient-8" x1="267.1" y1="29.42" x2="321.53" y2="99.89" gradientUnits="userSpaceOnUse"><stop offset="0" stop-color="#bf082b"/><stop offset="0.41" stop-color="#b1082c"/><stop offset="1" stop-color="#a0082d"/></linearGradient><linearGradient id="linear-gradient-9" x1="202.2" y1="1.1" x2="240.58" y2="36.05" xlink:href="#linear-gradient-8"/><linearGradient id="linear-gradient-10" x1="264.67" y1="91.01" x2="268.49" y2="88.24" gradientUnits="userSpaceOnUse"><stop offset="0" stop-color="#c2c2c2"/><stop offset="1" stop-color="#989898"/></linearGradient><linearGradient id="linear-gradient-11" x1="265.12" y1="73.93" x2="282.69" y2="95.12" gradientTransform="translate(132.35 -164.78) rotate(43.3)" gradientUnits="userSpaceOnUse"><stop offset="0" stop-color="#ebebeb"/><stop offset="1" stop-color="#cfcfcf"/></linearGradient><linearGradient id="linear-gradient-12" x1="278.68" y1="81.49" x2="276.87" y2="79.72" gradientUnits="userSpaceOnUse"><stop offset="0" stop-color="#cfcfcf"/><stop offset="1" stop-color="#989898"/></linearGradient><linearGradient id="linear-gradient-13" x1="1084.61" y1="-905.24" x2="1086.63" y2="-906.94" gradientTransform="translate(-656.21 1131.84) rotate(-8.51)" gradientUnits="userSpaceOnUse"><stop offset="0" stop-color="#ebebeb"/><stop offset="1" stop-color="#c2c2c2"/></linearGradient><linearGradient id="linear-gradient-14" x1="182.81" y1="205.55" x2="208.96" y2="239.4" xlink:href="#linear-gradient-8"/><linearGradient id="linear-gradient-15" x1="69.14" y1="126.86" x2="148.32" y2="198.94" xlink:href="#linear-gradient-8"/><linearGradient id="linear-gradient-16" x1="144.59" y1="289.57" x2="174.1" y2="339.13" gradientUnits="userSpaceOnUse"><stop offset="0" stop-color="#fff"/><stop offset="1" stop-color="#030201"/></linearGradient><linearGradient id="linear-gradient-17" x1="223.76" y1="242.44" x2="253.27" y2="292" xlink:href="#linear-gradient-16"/><linearGradient id="linear-gradient-18" x1="304.93" y1="61.52" x2="291.14" y2="49.51" xlink:href="#linear-gradient-8"/></defs><title>Asset 3</title><g class="cls-1"><g id="Layer_2" data-name="Layer 2"><g id="Layer_1-2" data-name="Layer 1"><ellipse class="cls-2" cx="225.35" cy="308.63" rx="207.12" ry="119.58"/><g class="cls-1"><polygon class="cls-3" points="353.69 128.45 353.62 149.99 320.74 131 320.8 109.46 353.69 128.45"/></g><g class="cls-1"><polygon class="cls-4" points="240.54 82.03 240.26 181.4 163 226.29 163.28 126.93 240.54 82.03"/><polygon class="cls-5" points="271.67 189.51 271.39 288.87 163 226.29 163.28 126.93 271.67 189.51"/><polygon class="cls-6" points="434.35 178.84 344.07 231.31 271.67 189.51 163.28 126.93 240.54 82.03 253.56 74.47 434.35 178.84"/><polygon class="cls-7" points="344.07 231.31 343.78 330.67 271.39 288.87 271.67 189.51 344.07 231.31"/><polygon class="cls-8" points="118.99 278.24 118.71 377.6 10.31 315.02 10.6 215.66 118.99 278.24"/><polygon class="cls-9" points="271.67 189.51 271.39 288.87 118.71 377.6 118.99 278.24 271.67 189.51"/><polygon class="cls-10" points="155.83 131.26 163.28 126.93 271.67 189.51 118.99 278.24 10.6 215.66 155.83 131.26"/><polygon class="cls-11" points="344.07 231.31 343.78 330.67 357.93 322.45 357.93 312.04 414.58 279.38 423.11 284.57 434.06 278.2 434.35 178.84 344.07 231.31"/></g><g class="cls-1"><polygon class="cls-11" points="362.16 66.07 361.96 137.04 271.67 189.51 271.88 118.53 362.16 66.07"/><polygon class="cls-12" points="271.88 118.53 271.67 189.51 163.29 126.94 163.49 55.95 271.88 118.53"/><polygon class="cls-13" points="362.16 66.07 271.88 118.53 163.49 55.95 253.77 3.49 362.16 66.07"/></g><polygon class="cls-14" points="357.97 274.12 357.97 274.12 357.93 312.04 414.58 279.38 414.67 240.46 357.97 274.12"/><polygon class="cls-15" points="414.67 240.46 414.58 279.38 423.11 284.57 423 235.51 414.67 240.46"/><polygon class="cls-11" points="414.65 247.58 357.97 280.31 357.97 281.27 414.65 248.54 414.65 247.58"/><polygon class="cls-11" points="414.63 256.38 357.96 289.11 357.96 290.06 414.63 257.34 414.63 256.38"/><polygon class="cls-11" points="414.62 265.19 357.95 297.9 357.95 298.87 414.61 266.15 414.62 265.19"/><polygon class="cls-11" points="407.56 275.45 407.57 278.82 403.32 281.27 403.31 277.9 407.56 275.45"/><path class="cls-16" d="M312.09,246.86a10.28,10.28,0,0,1,4.67,8.09c0,3-2.11,4.18-4.7,2.68l-16.18-9.34a10.28,10.28,0,0,1-4.67-8.09c0-3,2.11-4.18,4.7-2.68Z"/><polygon class="cls-17" points="348.07 233.64 438.02 182.13 362.04 109.25 271.75 161.38 271.67 189.51 348.07 233.64"/><polygon class="cls-18" points="271.75 161.38 348.07 233.64 271.67 189.51 271.75 161.38"/><polygon class="cls-16" points="356.67 243.28 424.37 204.19 424.4 214.56 356.7 253.65 356.67 243.28"/><polygon class="cls-15" points="424.37 204.19 420.72 206.3 420.74 212.94 356.69 249.92 356.7 253.65 424.4 214.56 424.37 204.19"/><path class="cls-15" d="M314.78,254.4l-16.18-9.34a10.3,10.3,0,0,1-4.67-8.1v-.08c-1.6-.06-2.72,1.16-2.72,3.32a10.28,10.28,0,0,0,4.67,8.09l16.18,9.34c2.56,1.49,4.65.32,4.7-2.6A4.29,4.29,0,0,1,314.78,254.4Z"/><polygon class="cls-18" points="215.75 61.6 156.03 57.42 274.67 125.91 215.75 61.6"/><polygon class="cls-19" points="313.76 4.32 215.75 61.6 274.67 125.91 373.47 68.49 313.76 4.32"/><polygon class="cls-20" points="254.84 0 156.03 57.42 215.75 61.6 313.76 4.32 254.84 0"/><g class="cls-1"><polygon class="cls-21" points="235.41 15.88 235.36 27.8 224 34.15 224.05 22.48 235.41 15.88"/><polygon class="cls-22" points="224.05 22.48 224 34.15 212.57 33.55 212.62 15.88 224.05 22.48"/><polygon class="cls-23" points="235.41 15.88 224.05 22.48 212.62 15.88 223.98 9.28 235.41 15.88"/><polygon class="cls-22" points="231.02 15.88 224.04 19.94 217.01 15.88 223.99 11.83 231.02 15.88"/></g><path class="cls-24" d="M263.88,105.84l-.19,0a.86.86,0,0,1-.64-1c.15-.61,3.52-15.06,3.68-15.68a.85.85,0,1,1,1.64.42c-.12.48-2.45,10.45-3.67,15.65A.84.84,0,0,1,263.88,105.84Z"/><path class="cls-25" d="M263.51,75.08a16.09,16.09,0,0,0,1.28,17.28c5.77,7.77,17.3,2.79,17.3,2.79Z"/><ellipse class="cls-26" cx="273.72" cy="84.3" rx="7.89" ry="13.85" transform="translate(16.71 210.69) rotate(-43.3)"/><path class="cls-27" d="M272.55,84.09l10.79-8.79-8.83,10.75a1.4,1.4,0,0,1-2.2-.06h0A1.39,1.39,0,0,1,272.55,84.09Z"/><path class="cls-28" d="M284.68,75.1A1.35,1.35,0,1,1,283.14,74,1.35,1.35,0,0,1,284.68,75.1Z"/><polygon class="cls-18" points="115.85 253.66 0 214.4 118.64 282.89 115.85 253.66"/><polygon class="cls-29" points="273.19 162.14 115.85 253.66 118.64 282.89 276.76 191.22 273.19 162.14"/><polygon class="cls-30" points="158.13 122.73 0 214.4 115.85 253.66 273.19 162.14 158.13 122.73"/><g class="cls-1"><polygon class="cls-21" points="138.69 138.62 138.65 150.53 127.29 156.88 127.34 145.22 138.69 138.62"/><polygon class="cls-22" points="127.34 145.22 127.29 156.88 115.85 156.29 115.9 138.62 127.34 145.22"/><polygon class="cls-23" points="138.69 138.62 127.34 145.22 115.9 138.62 127.26 132.02 138.69 138.62"/><polygon class="cls-22" points="134.3 138.62 127.32 142.67 120.3 138.62 127.28 134.56 134.3 138.62"/></g><polygon class="cls-21" points="214.73 262.79 257.14 238.3 257.31 297.27 214.89 321.76 214.73 262.79"/><polygon class="cls-21" points="190.56 335.81 190.4 276.84 212.85 263.87 213.02 322.84 190.56 335.81"/><polygon class="cls-21" points="135.24 367.75 135.07 308.78 177.48 284.29 177.65 343.26 135.24 367.75"/><polygon class="cls-21" points="188.52 277.92 188.69 336.89 179.52 342.18 179.36 283.21 188.52 277.92"/><polygon class="cls-31" points="150 300.16 135.16 339.71 135.24 367.75 144.63 362.32 172.92 286.93 150 300.16"/><polygon class="cls-32" points="177.54 304.28 158.84 354.12 166.82 349.52 177.59 320.81 177.54 304.28"/><polygon class="cls-31" points="226.4 256.05 214.8 286.99 214.89 321.76 225.05 315.89 253.34 240.5 226.4 256.05"/><polygon class="cls-33" points="257.22 265.01 241.74 306.26 251.11 300.85 257.27 284.43 257.22 265.01"/><polygon class="cls-21" points="16.41 256.43 38.95 269.44 38.95 331.6 16.24 318.49 16.41 256.43"/><polygon class="cls-21" points="62.77 345.35 40.24 332.35 40.24 270.19 62.95 283.3 62.77 345.35"/><polygon class="cls-21" points="64.22 346.19 64.4 284.14 85.47 296.3 85.47 358.46 64.22 346.19 64.22 346.19"/><polygon class="cls-21" points="110.76 373.06 86.77 359.21 86.77 297.05 110.93 311 110.76 373.06"/><polygon class="cls-18" points="314.17 55.97 314.22 73.94 298.59 82.96 298.54 64.99 314.17 55.97"/><polygon class="cls-34" points="283 56.02 298.59 82.96 298.54 64.99 283 56.02"/><polygon class="cls-16" points="307.07 75.82 312.27 72.81 312.24 59.33 307.07 62.32 307.07 75.82"/><polygon class="cls-16" points="305.73 63.09 300.49 66.12 300.52 79.6 305.73 76.59 305.73 63.09"/><polygon class="cls-35" points="314.17 55.97 298.54 64.99 283 56.02 298.64 47 314.17 55.97"/></g></g></g></svg>