<svg xmlns="http://www.w3.org/2000/svg" width="50.1" height="50.38"><defs><style>.cls-1{fill:#e30427;}</style></defs><title>icon-setting</title><path id="surface1" d="M21.37 0a21.66 21.66 0 0 0-6 .84l-1.37.4.1 1.46A3.56 3.56 0 0 1 12.3 6a3.54 3.54 0 0 1-3.75-.1l-1.18-.78-1.07 1A21.73 21.73 0 0 0 .4 16.36l-.34 1.4 1.23.63a3.57 3.57 0 0 1 2 3.2 3.57 3.57 0 0 1-2 3.2l-1.3.6.4 1.42a21 21 0 0 0 2.2 5.56 21.75 21.75 0 0 0 3.7 4.73l1.07 1 1.18-.78a3.55 3.55 0 0 1 5.56 3.15l-.1 1.47 1.4.4a21 21 0 0 0 7.7.67v7.38h27v-25.2h-7.93l-.85-.4a3.54 3.54 0 0 1 0-6.4l1.3-.6-.4-1.42A21.5 21.5 0 0 0 40 10.8a21.93 21.93 0 0 0-3.7-4.73l-1-1-1.25.84a3.56 3.56 0 0 1-3.75.1h-.05a3.55 3.55 0 0 1-1.74-3.3l.12-1.46-1.4-.4A21.3 21.3 0 0 0 21.36 0zm-.06 3.77a17.88 17.88 0 0 1 4 .45 6.92 6.92 0 0 0 3.22 4.9 6.9 6.9 0 0 0 5.9.27 17.7 17.7 0 0 1 2.47 3.2 17.62 17.62 0 0 1 1.5 3.76 6.93 6.93 0 0 0-2.7 5.23 7.14 7.14 0 0 0 1 3.6h-5.2a10.67 10.67 0 0 0 .6-3.6 10.8 10.8 0 1 0-10.8 10.78 11.8 11.8 0 0 0 1.8-.16v7.2a18.42 18.42 0 0 1-5.78-.42 6.93 6.93 0 0 0-3.2-5 6.9 6.9 0 0 0-5.9-.28 18.12 18.12 0 0 1-2.5-3.2 17.58 17.58 0 0 1-1.5-3.77 6.93 6.93 0 0 0 2.7-5.23 6.93 6.93 0 0 0-2.7-5.23 17.88 17.88 0 0 1 4-6.92 7 7 0 0 0 5.85-.34 6.92 6.92 0 0 0 3.2-4.9 17.44 17.44 0 0 1 4.04-.37zm0 10.62a7.18 7.18 0 0 1 7.2 7.2 7.07 7.07 0 0 1-1 3.6h-4.4v3.3a6.77 6.77 0 0 1-1.8.3 7.2 7.2 0 0 1 0-14.4zm5.4 14.4h19.8v1.8H26.7zm0 5.38h19.8v12.6H26.7zm13.1 1.4l-4.1 4.1-2.3-2.3L30.8 40l3.6 3.6 1.3 1.23 1.3-1.26 5.4-5.4z" class="cls-1"/></svg>