<svg xmlns="http://www.w3.org/2000/svg" width="37.59" height="48"><defs><style>.cls-1{fill:#e30427;}</style></defs><title>icon-leaf</title><path id="surface1" d="M34.22 0l-1.76.8C27 3.2 19.18 4.1 12.5 6.46a21 21 0 0 0-8.76 5.3A15 15 0 0 0 0 22.2a11.7 11.7 0 0 0 5.23 9.57 17.46 17.46 0 0 0 3 1.7 35.5 35.5 0 0 0-2.35 5.24 17.23 17.23 0 0 0-1 6.42 18.4 18.4 0 0 0 .27 2.56l3.4.32a18.8 18.8 0 0 0-.27-3 13.27 13.27 0 0 1 .85-5.13c1.62-4.73 6.1-12.52 17.73-25L24.4 12.5C17.43 20 12.92 25.8 10 30.5A13.18 13.18 0 0 1 7.2 29a8 8 0 0 1-3.78-6.78C3.42 18.45 4.5 16 6.25 14a17.9 17.9 0 0 1 7.37-4.38c5.53-1.9 12.38-2.9 18.26-5.08a80.37 80.37 0 0 1 2.3 20.3c0 6.3-1.48 9.9-3.2 11.9a7.2 7.2 0 0 1-5.67 2.56 10.34 10.34 0 0 1-5.54-2.14C18 36 16.86 34.72 15.64 34l-1.8 2.88c.3.2 2 1.77 4 3.15a13.3 13.3 0 0 0 7.47 2.72A10.8 10.8 0 0 0 33.6 39c2.43-2.8 4-7.32 4-14.15a89.42 89.42 0 0 0-2.83-23z" class="cls-1"/></svg>