<svg xmlns="http://www.w3.org/2000/svg" width="48" height="47.32"><defs><style>.cls-1{fill:#e30427;}</style></defs><title>icon-people</title><path id="surface1" d="M14.8 0a6.9 6.9 0 1 0 6.9 6.9A6.93 6.93 0 0 0 14.8 0zm0 3.94a3 3 0 1 1-3 3 2.94 2.94 0 0 1 3-3zm20.7 2a5.92 5.92 0 1 0 5.9 5.9 5.94 5.94 0 0 0-5.9-5.92zm0 3.94a2 2 0 1 1-2 2 1.94 1.94 0 0 1 2-2.02zm-28.72 4a4.06 4.06 0 0 0-3.95 3L.73 25a4 4 0 0 0 2.66 4.7L7 30.8a4 4 0 0 0 .68 1.5l10.9 15H28l3.1-4.26.3-1.17-2.96-4.37-1 3.82-4.2 5.8L10.85 30l2.35-10.73.85.2 1.54 5.23a4 4 0 0 0 2.4 2.53l4.25 1.6a3.94 3.94 0 0 0 2.6 4.63l5.15 1.8 8.8 12.06h4.88l-11.15-15.4 2-8.88 1.23.3 1.54 5.25a4 4 0 0 0 2.4 2.58l7 2.65 1.3-3.7-7-2.6v-.05l-1.48-5.24a3.94 3.94 0 0 0-2.9-2.7l-7.5-1.8a4 4 0 0 0-4.76 2.84L23.23 25l-3.88-1.48-1.48-5.18a4 4 0 0 0-3-2.77l-7.35-1.64a3.14 3.14 0 0 0-.74-.07zm-.13 3.95l2.65.55-1.84 8.5-2.9-.94s-.07 0-.06 0zm21.57 3.76l2.4.54-1.84 8.57-2.72-.92zm-21.5 14l-1 3.8L0 47.33h4.87l4.5-6.22.3-1.17z" class="cls-1"/></svg>