<svg xmlns="http://www.w3.org/2000/svg" width="53.57" height="44"><defs><style>.cls-1{fill:#e30427;}</style></defs><title>icon-hvac</title><path id="surface1" d="M5.74 0A5.77 5.77 0 0 0 0 5.74v10.52a6.63 6.63 0 0 0 .48 2.33l.12.23 2.2 4.66c0 .05.1.06.13.1A5.6 5.6 0 0 0 8 26.8h5.38V23H8a1.63 1.63 0 0 1-1.67-1v-.06L5 19.14h43.6l-1.37 2.8V22a1.66 1.66 0 0 1-1.68 1h-5.38v3.82h5.38a5.62 5.62 0 0 0 5.1-3.17h.05a.67.67 0 0 0 .06-.12l2.24-4.7.12-.24a6.87 6.87 0 0 0 .48-2.34V5.74A5.77 5.77 0 0 0 47.83 0zm0 3.83h42.1a1.9 1.9 0 0 1 1.9 1.9v9.57H3.84V5.74a1.9 1.9 0 0 1 1.9-1.9zM19.14 23A1.9 1.9 0 1 0 21 24.87 1.92 1.92 0 0 0 19.13 23zm7.64 0a1.9 1.9 0 1 0 1.92 1.9 1.92 1.92 0 0 0-1.92-1.9zm7.65 0a1.9 1.9 0 1 0 1.92 1.9 1.92 1.92 0 0 0-1.92-1.9zm-17.2 5.7a1.9 1.9 0 1 0 1.9 1.9 1.92 1.92 0 0 0-1.9-1.9zm9.55 0a1.9 1.9 0 1 0 1.92 1.9 1.92 1.92 0 0 0-1.92-1.9zm9.57 0a1.9 1.9 0 1 0 1.9 1.9 1.92 1.92 0 0 0-1.9-1.9zm-21 5.73a1.92 1.92 0 1 0 1.92 1.92 1.92 1.92 0 0 0-1.97-1.92zm11.48 0a1.92 1.92 0 1 0 1.92 1.92 1.92 1.92 0 0 0-1.97-1.92zm11.48 0a1.92 1.92 0 1 0 1.92 1.92 1.92 1.92 0 0 0-1.96-1.92zM11.5 40.17a1.92 1.92 0 1 0 1.9 1.92 1.9 1.9 0 0 0-1.9-1.93zm15.3 0a1.92 1.92 0 1 0 1.92 1.92 1.92 1.92 0 0 0-1.92-1.93zm15.3 0A1.92 1.92 0 1 0 44 42.1a1.92 1.92 0 0 0-1.9-1.93z" class="cls-1"/></svg>