<svg xmlns="http://www.w3.org/2000/svg" xmlns:xlink="http://www.w3.org/1999/xlink" viewBox="0 0 474.8 401.49"><defs><style>.cls-1{isolation:isolate;}.cls-2{fill:#f3f3f3;}.cls-3{fill-opacity:0.09;fill:url(#linear-gradient);}.cls-17,.cls-23,.cls-4,.cls-42{fill:none;}.cls-17,.cls-4,.cls-42{stroke:#e2887e;}.cls-17,.cls-18,.cls-4,.cls-42{stroke-miterlimit:10;}.cls-18,.cls-4{stroke-width:0.49px;}.cls-5{fill:url(#linear-gradient-2);}.cls-6{fill:url(#linear-gradient-3);}.cls-7{fill:#010101;}.cls-8{fill:#252532;}.cls-9{fill:#414151;}.cls-10{fill:#b39494;}.cls-11,.cls-15,.cls-16,.cls-18,.cls-50{fill:#fff;}.cls-12{fill:#de3a2e;}.cls-13{fill:#e36559;}.cls-14,.cls-22{mix-blend-mode:multiply;}.cls-15{opacity:0.5;}.cls-16,.cls-53,.cls-55{opacity:0.8;}.cls-17{stroke-width:0.55px;}.cls-18{stroke:url(#linear-gradient-4);}.cls-19{opacity:0.1;fill:url(#linear-gradient-5);}.cls-20{fill:url(#linear-gradient-6);}.cls-21{opacity:0.2;fill:url(#linear-gradient-7);}.cls-22{opacity:0.4;fill:url(#Nepojmenovaný_přechod_32);}.cls-24{fill:url(#Nepojmenovaný_přechod_17);}.cls-25{fill:url(#Nepojmenovaný_přechod_17-2);}.cls-26{fill:url(#Nepojmenovaný_přechod_15);}.cls-27{fill:url(#linear-gradient-8);}.cls-28{fill:url(#Nepojmenovaný_přechod_34);}.cls-29{fill:url(#linear-gradient-9);}.cls-30{fill:url(#linear-gradient-10);}.cls-31{fill:url(#linear-gradient-11);}.cls-32{fill:url(#linear-gradient-12);}.cls-33{fill:url(#linear-gradient-13);}.cls-34{fill:#f9f9fa;}.cls-35{fill:url(#linear-gradient-14);}.cls-36{fill:url(#linear-gradient-15);}.cls-37{fill:url(#linear-gradient-16);}.cls-38{fill:url(#linear-gradient-17);}.cls-39{fill:url(#linear-gradient-18);}.cls-40{fill:#676868;}.cls-41{fill:url(#linear-gradient-19);}.cls-42{stroke-width:0.35px;stroke-dasharray:1.53;}.cls-43{fill:url(#linear-gradient-20);}.cls-44{fill:#cccbca;}.cls-45{fill:url(#linear-gradient-21);}.cls-46{fill:#c2c2c2;}.cls-47{fill:#888;}.cls-48{fill:url(#Nepojmenovaný_přechod_34-2);}.cls-49{fill:#4fb54f;}.cls-50{font-size:5.63px;font-family:SpaceMono-Bold, Space Mono;font-weight:700;}.cls-51{fill:#c0312d;}.cls-52{fill:#de5d51;}.cls-54{fill:url(#radial-gradient);}.cls-55{fill:url(#radial-gradient-2);}.cls-56{opacity:0.9;}.cls-57{fill:#a72027;}.cls-58{fill:url(#linear-gradient-22);}.cls-59{fill:url(#linear-gradient-23);}.cls-60{fill:url(#linear-gradient-24);}.cls-61{fill:url(#linear-gradient-25);}.cls-62{fill:url(#linear-gradient-26);}.cls-63{fill:url(#linear-gradient-27);}.cls-64{fill:url(#linear-gradient-28);}.cls-65{fill:url(#linear-gradient-29);}</style><linearGradient id="linear-gradient" x1="397.48" y1="401.49" x2="397.48" y2="243.39" gradientUnits="userSpaceOnUse"><stop offset="0.05" stop-color="#989898" stop-opacity="0"/><stop offset="0.34" stop-color="#818181" stop-opacity="0.23"/><stop offset="0.86" stop-color="#454545" stop-opacity="0.82"/><stop offset="1" stop-color="#333"/></linearGradient><linearGradient id="linear-gradient-2" x1="91.27" y1="117.38" x2="153.64" y2="117.38" gradientUnits="userSpaceOnUse"><stop offset="0" stop-color="#e36559"/><stop offset="1" stop-color="#de3a2e"/></linearGradient><linearGradient id="linear-gradient-3" x1="135.61" y1="198.69" x2="135.61" y2="116.76" gradientUnits="userSpaceOnUse"><stop offset="0" stop-color="#a72027"/><stop offset="1" stop-color="#de3a2e"/></linearGradient><linearGradient id="linear-gradient-4" x1="8.45" y1="234.44" x2="14.54" y2="234.44" gradientTransform="translate(119.89 26.24) rotate(30.31)" xlink:href="#linear-gradient-2"/><linearGradient id="linear-gradient-5" x1="-1793.36" y1="2809.77" x2="-1710.71" y2="2809.77" gradientTransform="matrix(0.87, 0.5, 0.5, 1.44, 235.27, -2897.88)" xlink:href="#linear-gradient-2"/><linearGradient id="linear-gradient-6" x1="-1820.01" y1="2826.48" x2="-1737.35" y2="2826.48" gradientTransform="matrix(0.87, 0.5, 0.5, 1.44, 235.27, -2897.88)" xlink:href="#linear-gradient-2"/><linearGradient id="linear-gradient-7" x1="-1806.83" y1="2817.72" x2="-1724.18" y2="2817.72" gradientTransform="matrix(0.87, 0.5, 0.5, 1.44, 235.27, -2897.88)" xlink:href="#linear-gradient-2"/><radialGradient id="Nepojmenovaný_přechod_32" cx="6423.89" cy="-2746" r="32.82" gradientTransform="matrix(-0.87, 0.5, 1, 0.58, 8528.91, -1350.51)" gradientUnits="userSpaceOnUse"><stop offset="0" stop-color="#747474"/><stop offset="0.08" stop-color="#939393"/><stop offset="0.19" stop-color="#b4b4b4"/><stop offset="0.31" stop-color="#cfcfcf"/><stop offset="0.44" stop-color="#e4e4e4"/><stop offset="0.58" stop-color="#f3f3f3"/><stop offset="0.75" stop-color="#fcfcfc"/><stop offset="1" stop-color="#fff"/></radialGradient><linearGradient id="Nepojmenovaný_přechod_17" x1="201.56" y1="243.08" x2="201.56" y2="182.82" gradientUnits="userSpaceOnUse"><stop offset="0" stop-color="#d4d4d4"/><stop offset="1" stop-color="#333"/></linearGradient><linearGradient id="Nepojmenovaný_přechod_17-2" x1="199.87" y1="229.83" x2="241.68" y2="194.75" xlink:href="#Nepojmenovaný_přechod_17"/><linearGradient id="Nepojmenovaný_přechod_15" x1="183.3" y1="160" x2="238.08" y2="160" gradientUnits="userSpaceOnUse"><stop offset="0" stop-color="#b9282b"/><stop offset="0.79" stop-color="#de3a2e"/><stop offset="0.97" stop-color="#e36559"/></linearGradient><linearGradient id="linear-gradient-8" x1="201.56" y1="165.31" x2="238.08" y2="165.31" gradientUnits="userSpaceOnUse"><stop offset="0.15" stop-color="#de3a2e"/><stop offset="1" stop-color="#a72027"/></linearGradient><linearGradient id="Nepojmenovaný_přechod_34" x1="218.86" y1="133" x2="199.03" y2="101.83" gradientUnits="userSpaceOnUse"><stop offset="0" stop-color="#ccc"/><stop offset="1" stop-color="#fff"/></linearGradient><linearGradient id="linear-gradient-9" x1="130.41" y1="3.69" x2="141.21" y2="33.35" gradientUnits="userSpaceOnUse"><stop offset="0" stop-color="#fff"/><stop offset="0.32" stop-color="#efefef"/><stop offset="0.96" stop-color="#c6c6c6"/><stop offset="1" stop-color="#c3c3c3"/></linearGradient><linearGradient id="linear-gradient-10" x1="103.72" y1="1.61" x2="120.7" y2="48.25" xlink:href="#linear-gradient-9"/><linearGradient id="linear-gradient-11" x1="86.14" y1="27.4" x2="95.36" y2="52.74" xlink:href="#linear-gradient-9"/><linearGradient id="linear-gradient-12" x1="6950.52" y1="269.76" x2="7061.95" y2="269.76" gradientTransform="matrix(-1, 0, 0, 1, 7380.56, 0)" gradientUnits="userSpaceOnUse"><stop offset="0" stop-color="#a62127"/><stop offset="1" stop-color="#de392e"/></linearGradient><linearGradient id="linear-gradient-13" x1="-5180.46" y1="266.01" x2="-5069.13" y2="266.01" gradientTransform="translate(5499.17)" gradientUnits="userSpaceOnUse"><stop offset="0" stop-color="#fff"/><stop offset="1" stop-color="#d4d3d3"/></linearGradient><linearGradient id="linear-gradient-14" x1="6997.31" y1="222.87" x2="7065.48" y2="222.87" xlink:href="#linear-gradient-12"/><linearGradient id="linear-gradient-15" x1="-80.19" y1="-2618.13" x2="-64.88" y2="-2618.13" gradientTransform="matrix(0.87, -0.5, 0, 1.15, 398.01, 3203.04)" xlink:href="#linear-gradient-12"/><linearGradient id="linear-gradient-16" x1="-80.19" y1="-2608.06" x2="-69.92" y2="-2608.06" gradientTransform="matrix(0.87, -0.5, 0, 1.15, 398.01, 3203.04)" xlink:href="#linear-gradient-12"/><linearGradient id="linear-gradient-17" x1="-83.41" y1="-2604.72" x2="-76.97" y2="-2604.72" gradientTransform="matrix(0.87, -0.5, 0, 1.15, 398.01, 3203.04)" xlink:href="#linear-gradient-12"/><linearGradient id="linear-gradient-18" x1="-75.32" y1="-2604.72" x2="-71.63" y2="-2604.72" gradientTransform="matrix(0.87, -0.5, 0, 1.15, 398.01, 3203.04)" xlink:href="#linear-gradient-12"/><linearGradient id="linear-gradient-19" x1="-83.41" y1="-2614.78" x2="-71.63" y2="-2614.78" gradientTransform="matrix(0.87, -0.5, 0, 1.15, 398.01, 3203.04)" xlink:href="#linear-gradient-12"/><linearGradient id="linear-gradient-20" x1="2321.67" y1="-2616.48" x2="2340.74" y2="-2616.48" gradientTransform="translate(-344.54 3631.75) rotate(-30)" xlink:href="#linear-gradient-12"/><linearGradient id="linear-gradient-21" x1="12.57" y1="92" x2="16.84" y2="130.23" xlink:href="#Nepojmenovaný_přechod_17"/><linearGradient id="Nepojmenovaný_přechod_34-2" x1="-6.38" y1="104.76" x2="28.84" y2="119.68" xlink:href="#Nepojmenovaný_přechod_34"/><radialGradient id="radial-gradient" cx="313.28" cy="53.17" r="6.68" gradientUnits="userSpaceOnUse"><stop offset="0" stop-color="#fff"/><stop offset="1" stop-color="#e0e0e0" stop-opacity="0.9"/></radialGradient><radialGradient id="radial-gradient-2" cx="313.54" cy="22.96" r="31.7" xlink:href="#radial-gradient"/><linearGradient id="linear-gradient-22" x1="320.26" y1="193.94" x2="320.26" y2="151.82" gradientUnits="userSpaceOnUse"><stop offset="0.13" stop-color="#f3f3f3"/><stop offset="1" stop-color="#ccc"/></linearGradient><linearGradient id="linear-gradient-23" x1="308.36" y1="193.94" x2="308.36" y2="151.82" gradientUnits="userSpaceOnUse"><stop offset="0.13" stop-color="#f3f3f3"/><stop offset="1" stop-color="#fff"/></linearGradient><linearGradient id="linear-gradient-24" x1="304.65" y1="214.9" x2="304.65" y2="172.78" gradientUnits="userSpaceOnUse"><stop offset="0.13" stop-color="#f3f3f3"/><stop offset="1" stop-color="#d7d6d6"/></linearGradient><linearGradient id="linear-gradient-25" x1="292.75" y1="214.9" x2="292.75" y2="172.78" xlink:href="#linear-gradient-23"/><linearGradient id="linear-gradient-26" x1="302.96" y1="177.94" x2="302.96" y2="162.82" xlink:href="#linear-gradient-24"/><linearGradient id="linear-gradient-27" x1="294.41" y1="177.94" x2="294.41" y2="162.82" xlink:href="#linear-gradient-23"/><linearGradient id="linear-gradient-28" x1="301.15" y1="165.28" x2="301.15" y2="149.11" xlink:href="#linear-gradient-24"/><linearGradient id="linear-gradient-29" x1="296.2" y1="165.28" x2="296.2" y2="149.11" xlink:href="#linear-gradient-23"/></defs><title>Asset 2</title><g class="cls-1"><g id="Layer_2" data-name="Layer 2"><g id="Layer_1-2" data-name="Layer 1"><polygon class="cls-2" points="474.8 6.01 118.23 211.88 321.24 332.05 474.8 243.39 474.8 6.01"/><polygon class="cls-3" points="321.24 332.05 320.16 401.49 474.8 312.21 474.8 243.39 321.24 332.05"/><polyline class="cls-4" points="313.95 176.59 213.06 235.13 112.17 176.59 112.17 59.52"/><polygon class="cls-4" points="11.47 118.11 11.47 234.45 112.22 292.62 212.97 234.45 212.97 118.11 112.22 59.95 11.47 118.11"/><polyline class="cls-4" points="402.79 241.86 414.68 234.99 414.68 118.66 313.93 60.49 213.18 118.66 213.18 234.99 313.93 293.16 331.97 282.74"/><polyline class="cls-4" points="314.27 150.49 314.27 60.12 213.24 1.79 112.22 60.12"/><path class="cls-5" d="M150.21,113,122.62,97.05a4.22,4.22,0,0,0-4,0,3.66,3.66,0,0,0-.65.37L91.27,113l22.31,14.54,2.9,1.71v9l37.16-21.45A9.5,9.5,0,0,0,150.21,113Z"/><path class="cls-6" d="M116.48,138.21v21A10,10,0,0,0,121,167l4.15,2.4.26,29.26,27.39-15.5a4.1,4.1,0,0,0,1.93-3.64V120.78a9,9,0,0,0-1.1-4Z"/><path class="cls-7" d="M120,128.62,93.68,113.84a4.37,4.37,0,0,0-4.47-.3,4.09,4.09,0,0,0-2.78,4.16v58.76a12.45,12.45,0,0,0,5.64,9.73L118.38,201c1.77,1,3.05,1.14,4.53.37a4.34,4.34,0,0,0,2.72-4.22V138.34A12.42,12.42,0,0,0,120,128.62Z"/><path class="cls-8" d="M87,177.88V119.62c0-2,1.18-2.84,2.64-2l28,16.17a6.35,6.35,0,0,1,2.64,5.06v58.26c0,1.95-1.18,2.84-2.64,2l-28-16.17A6.35,6.35,0,0,1,87,177.88Z"/><path class="cls-9" d="M109.49,150.7,97.88,144a1.56,1.56,0,0,1-.66-1.26h0c0-.48.29-.7.66-.49l11.61,6.7a1.57,1.57,0,0,1,.65,1.25h0C110.14,150.69,109.85,150.91,109.49,150.7Z"/><path class="cls-9" d="M109.49,154.64l-11.61-6.7a1.55,1.55,0,0,1-.66-1.25h0c0-.49.29-.71.66-.5l11.61,6.71a1.54,1.54,0,0,1,.65,1.25h0C110.14,154.63,109.85,154.85,109.49,154.64Z"/><path class="cls-9" d="M109.49,158.59l-11.61-6.71a1.55,1.55,0,0,1-.66-1.25h0c0-.48.29-.7.66-.49l11.61,6.7a1.57,1.57,0,0,1,.65,1.25h0C110.14,158.57,109.85,158.8,109.49,158.59Z"/><path class="cls-9" d="M109.49,168.4l-11.61-6.7a1.55,1.55,0,0,1-.66-1.25h0c0-.49.29-.71.66-.5l11.61,6.7a1.58,1.58,0,0,1,.65,1.26h0C110.14,168.39,109.85,168.61,109.49,168.4Z"/><path class="cls-9" d="M109.49,172.35l-11.61-6.71a1.55,1.55,0,0,1-.66-1.25h0c0-.48.29-.7.66-.5l11.61,6.71a1.57,1.57,0,0,1,.65,1.25h0C110.14,172.33,109.85,172.55,109.49,172.35Z"/><path class="cls-9" d="M109.49,176.29l-11.61-6.7a1.56,1.56,0,0,1-.66-1.26h0c0-.48.29-.7.66-.49l11.61,6.7a1.57,1.57,0,0,1,.65,1.25h0C110.14,176.28,109.85,176.5,109.49,176.29Z"/><polygon class="cls-10" points="105.38 162.09 101.98 160.13 101.98 157.19 105.38 159.16 105.38 162.09"/><ellipse class="cls-7" cx="91.48" cy="123.91" rx="1.68" ry="2.91" transform="translate(-50.03 63.11) rotate(-30.31)"/><ellipse class="cls-7" cx="115.65" cy="137.86" rx="1.68" ry="2.91" transform="translate(-53.77 77.22) rotate(-30.31)"/><ellipse class="cls-7" cx="91.48" cy="178.36" rx="1.68" ry="2.91" transform="translate(-77.51 70.55) rotate(-30.31)"/><ellipse class="cls-7" cx="115.65" cy="192.31" rx="1.68" ry="2.91" transform="translate(-81.25 84.66) rotate(-30.31)"/><path class="cls-11" d="M100.36,128.92a.3.3,0,0,0,.14,0,.12.12,0,0,0,.09,0,.22.22,0,0,0,0-.08.51.51,0,0,0,0-.13v0l.15.09v0a.58.58,0,0,1,0,.19.25.25,0,0,1-.08.12.32.32,0,0,1-.14,0,.69.69,0,0,1-.2-.07.9.9,0,0,1-.33-.34,1.21,1.21,0,0,1-.11-.52v-.32a.51.51,0,0,1,.11-.38c.08-.06.19,0,.33,0a.75.75,0,0,1,.2.15,1.33,1.33,0,0,1,.14.19,1,1,0,0,1,.08.22.91.91,0,0,1,0,.23v0l-.15-.09v0a.77.77,0,0,0,0-.15.88.88,0,0,0,0-.15l-.09-.13a.53.53,0,0,0-.14-.11c-.09-.06-.17-.06-.22,0a.39.39,0,0,0-.07.28v.3a.84.84,0,0,0,.07.37A.6.6,0,0,0,100.36,128.92Z"/><path class="cls-11" d="M101.07,128l.16.09v1.3l.66.39v.16l-.82-.47Z"/><path class="cls-11" d="M102.18,128.64l.81.46v.17l-.33-.19v1.13l.33.19v.17l-.81-.47v-.16l.33.19V129l-.33-.19Z"/><path class="cls-11" d="M103.23,129.24l.29.17.17,1.48,0,0,.17-1.29.3.17v1.46l-.15-.08v-1.39h0l-.17,1.29-.28-.16-.17-1.49h0v1.38l-.14-.08Z"/><path class="cls-11" d="M105.09,131.41l-.55-.31-.09.31-.16-.1.38-1.24.29.17.39,1.69-.17-.1Zm-.28-1.18-.22.73.46.27-.22-1Z"/><path class="cls-11" d="M105.48,130.54l.9.52v.16L106,131v1.3l-.15-.09v-1.3l-.38-.22Z"/><path class="cls-11" d="M106.66,131.22l.77.45v.16l-.62-.36V132l.61.35v.16l-.61-.35v.49l.63.36v.17l-.78-.46Z"/><path class="cls-11" d="M100.44,130.14l.29.17.17,1.48,0,0,.17-1.29.29.17v1.46l-.14-.08v-1.39h0l-.17,1.29-.27-.16-.17-1.49h0v1.38l-.14-.08Z"/><path class="cls-11" d="M101.58,131.37a.47.47,0,0,1,.12-.38c.08-.06.19,0,.33,0a.83.83,0,0,1,.33.34,1.07,1.07,0,0,1,.12.51v.33a.47.47,0,0,1-.12.38.32.32,0,0,1-.33,0,.9.9,0,0,1-.33-.34,1.08,1.08,0,0,1-.12-.52Zm.45,1c.1.05.17.06.22,0a.42.42,0,0,0,.07-.29v-.3a.87.87,0,0,0-.07-.37.54.54,0,0,0-.22-.25c-.1-.06-.17-.06-.22,0a.39.39,0,0,0-.08.28v.3a.84.84,0,0,0,.08.37A.54.54,0,0,0,102,132.39Z"/><path class="cls-11" d="M102.72,131.45l.42.25a.81.81,0,0,1,.45.8v.38c0,.19,0,.31-.1.35s-.19,0-.35-.07l-.42-.24v-.17l.11.07v-1.14l-.11-.06Zm.4,1.53a.37.37,0,0,0,.14.07.11.11,0,0,0,.1,0,.1.1,0,0,0,.06-.08.5.5,0,0,0,0-.18v-.35a.59.59,0,0,0,0-.2.44.44,0,0,0-.06-.16.53.53,0,0,0-.1-.12.71.71,0,0,0-.14-.1l-.14-.08v1.14Z"/><path class="cls-11" d="M104,132.18v1a.62.62,0,0,0,.07.31.53.53,0,0,0,.21.21q.13.09.21,0s.07-.1.07-.22v-1l.16.09v1c0,.17,0,.27-.12.32s-.18,0-.32,0a.89.89,0,0,1-.32-.32.9.9,0,0,1-.12-.46v-1Z"/><path class="cls-11" d="M105,132.76l.15.08v1.31l.67.38v.16l-.82-.47Z"/><path class="cls-11" d="M106.1,133.41l.78.44V134l-.62-.36v.48l.6.36v.16l-.6-.35v.49l.63.36v.16l-.79-.45Z"/><path class="cls-12" d="M119.09,130.92,91.49,115a4.28,4.28,0,0,0-4,0,3.58,3.58,0,0,0-2.11,3.38v58.77a10,10,0,0,0,4.52,7.8l27.6,15.94a4.59,4.59,0,0,0,4.21.22,4.12,4.12,0,0,0,1.92-3.64V138.73A10,10,0,0,0,119.09,130.92Zm1.24,66.44a2.66,2.66,0,0,1-.23,1.16,2.6,2.6,0,0,1-1-.37l-27.6-15.93a6.31,6.31,0,0,1-2.85-4.92V118.53a2.66,2.66,0,0,1,.23-1.16,3.13,3.13,0,0,1,1,.37l27.6,15.94a6.28,6.28,0,0,1,2.85,4.92Z"/><path class="cls-13" d="M117.48,131.76l-27.6-15.94c-2.5-1.44-4.52-.28-4.52,2.58v58.77a10,10,0,0,0,4.52,7.8l27.6,15.94c2.5,1.44,4.52.29,4.52-2.58V139.56A10,10,0,0,0,117.48,131.76Zm2.85,65.6c0,1.81-1.28,2.54-2.85,1.63l-27.6-15.93A6.31,6.31,0,0,1,87,178.13V119.37c0-1.81,1.28-2.54,2.85-1.63l27.6,15.94a6.28,6.28,0,0,1,2.85,4.92Z"/><g class="cls-14"><path class="cls-13" d="M150.21,118.85a9.53,9.53,0,0,0-3.47-3.88L117.36,97.8l-1.65,1,30.54,17.81c1.58.91,3.35,4.18,3.35,6V185l1.67-.94V122.78A8.76,8.76,0,0,0,150.21,118.85Z"/></g><ellipse class="cls-15" cx="121.65" cy="116.02" rx="3.1" ry="5.37" transform="translate(4.98 237.04) rotate(-89.69)"/><ellipse class="cls-16" cx="121.65" cy="116.02" rx="1.81" ry="3.13" transform="translate(4.98 237.04) rotate(-89.69)"/><path class="cls-12" d="M374.33,105.24l2.56,1.48v.52l-1-.6v3.6l1,.6v.51l-2.56-1.47v-.52l1,.6v-3.6l-1-.6Z"/><path class="cls-12" d="M378.33,112.18l-.45-.26v-3.28l.45.26v.56l.07,0c.17-.33.48-.37.92-.12a2.12,2.12,0,0,1,.79.81,2.54,2.54,0,0,1,.29,1.23v2l-.45-.26v-1.85a1.8,1.8,0,0,0-.2-.89,1.46,1.46,0,0,0-.55-.58c-.27-.15-.48-.17-.64,0a.9.9,0,0,0-.23.73Z"/><path class="cls-12" d="M381.31,110.62l.9.52v-1.35l.45.26v1.35l1.11.64v.48l-1.11-.64V114a.32.32,0,0,0,.15.29l.82.47v.47l-1-.56a.79.79,0,0,1-.32-.33.88.88,0,0,1-.12-.44v-2.29l-.9-.52Z"/><path class="cls-12" d="M385.27,114.71a2.11,2.11,0,0,0,.26.94,1.93,1.93,0,0,0,.69.7,2.33,2.33,0,0,0,.36.15.52.52,0,0,0,.25,0,.3.3,0,0,0,.17-.12.55.55,0,0,0,.11-.2l.43.38a.68.68,0,0,1-.45.49,1.18,1.18,0,0,1-.88-.22,2.64,2.64,0,0,1-.56-.45,2.9,2.9,0,0,1-.44-.6,3,3,0,0,1-.29-.7,2.76,2.76,0,0,1-.1-.75v-.16a1.44,1.44,0,0,1,.1-.58.67.67,0,0,1,.3-.34.75.75,0,0,1,.45-.08,1.37,1.37,0,0,1,.55.2,2.12,2.12,0,0,1,.61.5,3.33,3.33,0,0,1,.42.61,3.42,3.42,0,0,1,.25.61,2.27,2.27,0,0,1,.07.53V116Zm1-.85a.92.92,0,0,0-.35-.14.46.46,0,0,0-.29,0,.49.49,0,0,0-.2.18.67.67,0,0,0-.1.31l1.84,1.06a1.11,1.11,0,0,0-.09-.43,2,2,0,0,0-.2-.41,2.39,2.39,0,0,0-.28-.35A1.79,1.79,0,0,0,386.22,113.86Z"/><path class="cls-12" d="M388.31,114.66l1,.6v.44l.07,0a.38.38,0,0,1,.31-.22.86.86,0,0,1,.47.14,1.78,1.78,0,0,1,.69.72,2.34,2.34,0,0,1,.29,1.11l-.48-.19a1.42,1.42,0,0,0-.19-.77,1.3,1.3,0,0,0-.46-.47.65.65,0,0,0-.31-.1.29.29,0,0,0-.22.09.59.59,0,0,0-.13.25,2.11,2.11,0,0,0,0,.38v1.39l.73.42V119l-1.83-1v-.48l.65.38v-2.33l-.58-.34Z"/><path class="cls-12" d="M392.45,120.34l-.45-.26v-3.29l.45.26v.56l.07,0c.17-.33.48-.37.92-.12a2.12,2.12,0,0,1,.79.81,2.45,2.45,0,0,1,.29,1.24v2l-.45-.26v-1.86a1.8,1.8,0,0,0-.2-.89,1.38,1.38,0,0,0-.55-.57c-.27-.16-.48-.18-.64,0a.9.9,0,0,0-.23.72Z"/><path class="cls-12" d="M395.86,120.82a2,2,0,0,0,.26.94,1.86,1.86,0,0,0,.69.7,1.26,1.26,0,0,0,.36.15.52.52,0,0,0,.25,0,.42.42,0,0,0,.18-.11.63.63,0,0,0,.1-.2l.43.38a.65.65,0,0,1-.45.48,1.14,1.14,0,0,1-.88-.22,2.31,2.31,0,0,1-.56-.44,2.71,2.71,0,0,1-.44-.61,3.33,3.33,0,0,1-.29-.7,2.76,2.76,0,0,1-.1-.75v-.16a1.47,1.47,0,0,1,.1-.58.72.72,0,0,1,.3-.34.83.83,0,0,1,.45-.08,1.54,1.54,0,0,1,.55.2,2.3,2.3,0,0,1,.61.5,3.33,3.33,0,0,1,.42.61,3.5,3.5,0,0,1,.25.62,2.2,2.2,0,0,1,.07.52v.42Zm.95-.85a.89.89,0,0,0-.35-.13.46.46,0,0,0-.29,0,.41.41,0,0,0-.2.17.76.76,0,0,0-.1.31l1.84,1.07a1.15,1.15,0,0,0-.09-.44,1.73,1.73,0,0,0-.2-.41,1.81,1.81,0,0,0-.28-.34A1.57,1.57,0,0,0,396.81,120Z"/><path class="cls-12" d="M399,120.81l.9.52V120l.45.26v1.35l1.11.64v.48l-1.11-.64v2.13a.31.31,0,0,0,.16.29l.81.47v.48l-1-.57a.85.85,0,0,1-.32-.33.88.88,0,0,1-.12-.44v-2.29l-.9-.52Z"/><path class="cls-12" d="M377.05,117.09a1.5,1.5,0,0,1-.12.66.78.78,0,0,1-.32.35.7.7,0,0,1-.46.06,1.44,1.44,0,0,1-.54-.2,2.42,2.42,0,0,1-.55-.43,3,3,0,0,1-.45-.59,3,3,0,0,1-.32-.71,2.66,2.66,0,0,1-.12-.79v-.08a1.48,1.48,0,0,1,.12-.65.74.74,0,0,1,.32-.35.76.76,0,0,1,.46-.07,1.63,1.63,0,0,1,.54.2,2.37,2.37,0,0,1,.54.43,3,3,0,0,1,.46.59,3.35,3.35,0,0,1,.32.72,2.59,2.59,0,0,1,.12.78Zm-1.44.38a1,1,0,0,0,.38.14.46.46,0,0,0,.31-.07.51.51,0,0,0,.21-.26,1.15,1.15,0,0,0,.07-.45v-.08a1.93,1.93,0,0,0-.07-.53,2,2,0,0,0-.21-.5,2.24,2.24,0,0,0-.31-.43,1.79,1.79,0,0,0-.38-.31.91.91,0,0,0-.38-.13.46.46,0,0,0-.31.07.51.51,0,0,0-.21.26,1.15,1.15,0,0,0-.08.44v.08a2,2,0,0,0,.08.55,2.41,2.41,0,0,0,.21.5,2.53,2.53,0,0,0,.31.42A1.57,1.57,0,0,0,375.61,117.47Z"/><path class="cls-12" d="M377.85,115.88l.88.51v-.84a.33.33,0,0,1,.12-.3.32.32,0,0,1,.32,0l1.13.65v.48l-1-.56c-.11-.06-.16,0-.16.11v.67l1.19.69v.48l-1.19-.69v2.81l-.45-.26v-2.81l-.88-.51Z"/><path class="cls-12" d="M384.84,119.91l.9.52v-1.35l.45.26v1.35l1.11.64v.48l-1.11-.64v2.13a.32.32,0,0,0,.15.29l.82.47v.47l-1-.56a.85.85,0,0,1-.32-.33.88.88,0,0,1-.12-.44v-2.29l-.9-.52Z"/><path class="cls-12" d="M388.92,125.55l-.45-.26v-4.63l.45.26v1.94l.07,0a.54.54,0,0,1,.37-.29.84.84,0,0,1,.58.16,1.93,1.93,0,0,1,.76.79,2.43,2.43,0,0,1,.29,1.23v2l-.45-.26v-1.85a1.81,1.81,0,0,0-.2-.9,1.38,1.38,0,0,0-.55-.57c-.27-.16-.48-.17-.64,0a.86.86,0,0,0-.23.72Z"/><path class="cls-12" d="M392.07,126.89l1,.58v-2.33l-.9-.52v-.47l1.35.77v2.81l.93.54v.48l-2.38-1.38Zm.82-3.31a.28.28,0,0,1,.11-.26.26.26,0,0,1,.29,0,.76.76,0,0,1,.29.3.86.86,0,0,1,.11.39.28.28,0,0,1-.11.26.26.26,0,0,1-.29,0,.76.76,0,0,1-.29-.3A.82.82,0,0,1,392.89,123.58Z"/><path class="cls-12" d="M396,129.63l-.45-.26v-3.29l.45.26v.56l.07,0c.17-.33.48-.37.92-.12a2.12,2.12,0,0,1,.79.81,2.45,2.45,0,0,1,.29,1.24v2l-.45-.26v-1.86a1.8,1.8,0,0,0-.2-.89,1.32,1.32,0,0,0-.55-.57c-.27-.16-.48-.18-.64,0a.9.9,0,0,0-.23.72Z"/><path class="cls-12" d="M401.23,132.16l-.07,0a.46.46,0,0,1-.37.23,1.07,1.07,0,0,1-.53-.16,2.63,2.63,0,0,1-.54-.42,2.9,2.9,0,0,1-.75-1.29,2.54,2.54,0,0,1-.11-.78v-.11A1.47,1.47,0,0,1,399,129a.72.72,0,0,1,.31-.35.7.7,0,0,1,.44-.08,1.51,1.51,0,0,1,.53.2,2.05,2.05,0,0,1,.55.47,2.11,2.11,0,0,1,.36.66l.07,0v-.51l.45.26v4.09a.33.33,0,0,1-.12.3.32.32,0,0,1-.32,0l-1.86-1.08v-.47l1.7,1c.1.06.15,0,.15-.11Zm-1-.45a.83.83,0,0,0,.37.13.42.42,0,0,0,.3-.07.55.55,0,0,0,.21-.26,1.18,1.18,0,0,0,.07-.45V131a1.93,1.93,0,0,0-.07-.53,2.21,2.21,0,0,0-.21-.5,1.87,1.87,0,0,0-.3-.42,1.74,1.74,0,0,0-.37-.31,1,1,0,0,0-.38-.13.46.46,0,0,0-.31.07.55.55,0,0,0-.2.26,1.13,1.13,0,0,0-.07.44V130a1.88,1.88,0,0,0,.07.53,2.39,2.39,0,0,0,.2.49,2.25,2.25,0,0,0,.3.42A1.85,1.85,0,0,0,400.28,131.71Z"/><path class="cls-12" d="M403.18,131.35a.77.77,0,0,0,.18.47,2.73,2.73,0,0,0,.64.53,3,3,0,0,1,.77.72,1.43,1.43,0,0,1,.26.82v0a.68.68,0,0,1-.09.37.36.36,0,0,1-.23.19.68.68,0,0,1-.35,0,1.78,1.78,0,0,1-.46-.2,2.65,2.65,0,0,1-.58-.43,2.51,2.51,0,0,1-.39-.5,2.07,2.07,0,0,1-.24-.53,1.79,1.79,0,0,1-.1-.48l.43.13a1.76,1.76,0,0,0,.25.75,1.64,1.64,0,0,0,.6.57.82.82,0,0,0,.52.15c.12,0,.19-.11.19-.28a.75.75,0,0,0-.19-.51,3,3,0,0,0-.62-.51,2.89,2.89,0,0,1-.76-.7,1.4,1.4,0,0,1-.27-.81v0a.6.6,0,0,1,.09-.36.41.41,0,0,1,.23-.16.79.79,0,0,1,.34,0,1.39,1.39,0,0,1,.38.17,2.4,2.4,0,0,1,.5.37,2.89,2.89,0,0,1,.36.44,2.15,2.15,0,0,1,.22.46,2.41,2.41,0,0,1,.1.43l-.43-.13a1.36,1.36,0,0,0-.22-.63,1.6,1.6,0,0,0-.5-.47,1.54,1.54,0,0,0-.24-.1.49.49,0,0,0-.2,0,.27.27,0,0,0-.14.07A.3.3,0,0,0,403.18,131.35Z"/><line class="cls-17" x1="73.3" y1="270.08" x2="11.51" y2="234.4"/><line class="cls-4" x1="112.18" y1="59.95" x2="112.18" y2="3.66"/><ellipse class="cls-18" cx="11.5" cy="234.44" rx="2.28" ry="3.95" transform="translate(-116.75 37.85) rotate(-30.31)"/><path class="cls-19" d="M145.57,318.43,100.14,292.2c-2.71-1.57-4.91-5.77-4.91-9.38V248.61c0-3.62,2.2-5.28,4.91-3.71l45.43,26.23c2.71,1.56,4.9,5.76,4.9,9.37v34.22C150.47,318.33,148.28,320,145.57,318.43Z"/><path class="cls-20" d="M130.85,329.22,85.42,303c-2.71-1.56-4.91-5.76-4.91-9.37V259.4c0-3.61,2.2-5.27,4.91-3.71l45.43,26.23c2.71,1.57,4.9,5.76,4.9,9.38v34.21C135.75,329.13,133.56,330.79,130.85,329.22Z"/><path class="cls-21" d="M137.88,323.17,92.45,296.94c-2.71-1.56-4.91-5.76-4.91-9.38V253.35c0-3.61,2.2-5.28,4.91-3.71l45.43,26.23c2.71,1.56,4.91,5.76,4.91,9.37v34.22C142.79,323.07,140.59,324.73,137.88,323.17Z"/><path class="cls-11" d="M93.94,286.23V283.4l6.8,1.23v1.57L94.43,285v.23l6.31,6.07v1.57Z"/><path class="cls-11" d="M109.1,285.06l1.14,1.06L105.5,300l-1.15-1.08Z"/><path class="cls-11" d="M113.85,300.42v-1.57l6.31,1.21v-.22l-6.31-6.07V292.2l6.8,6.62v2.83Z"/><ellipse class="cls-22" cx="210.96" cy="230.95" rx="42.95" ry="24.8" transform="matrix(1, -0.01, 0.01, 1, -1.25, 1.15)"/><line class="cls-23" x1="211.68" y1="208" x2="211.68" y2="193.68"/><polygon class="cls-24" points="210.79 193.32 210.79 242.85 210.39 243.08 192.33 232.58 192.33 182.82 210.79 193.32"/><polygon class="cls-25" points="210.79 193.32 230.64 181.6 230.64 231.36 210.79 242.85 210.79 193.32"/><path class="cls-26" d="M192,133.39l19.24-11.17a5.67,5.67,0,0,1,5.81,0v0l18.3,10.66v20.41H219.82V167l18.26,10.64-36.52,20.94L183.3,187.92V148.39A17.33,17.33,0,0,1,192,133.39Z"/><path class="cls-27" d="M210.2,144l19.25-11.16a5.74,5.74,0,0,1,8.63,5v39.78l-36.52,20.94V159A17.34,17.34,0,0,1,210.2,144Z"/><circle class="cls-28" cx="209.36" cy="118.07" r="16.5"/><path class="cls-29" d="M155.82,21.87c0,.11,0,.22,0,.34-.11,2.73-2,5.44-5.57,7.53-7.48,4.32-19.64,4.3-27.17,0-3.54-2-5.43-4.68-5.65-7.35h0v-.46c0-.22,0-.45,0-.67a19.2,19.2,0,0,1,38.39.67Z"/><path class="cls-30" d="M143.65,30.18c0,.56,0,1.12,0,1.68-.61,3.9-3.5,7.71-8.67,10.69-11.77,6.8-30.9,6.76-42.74-.08-5.55-3.2-8.52-7.32-8.89-11.51h0c0-.25,0-.51,0-.77s0-.74,0-1.11a30.18,30.18,0,0,1,60.3-.26C143.64,29.26,143.65,29.72,143.65,30.18Z"/><path class="cls-31" d="M107.84,42.94V43c0,2.41-1.6,4.81-4.77,6.64-6.39,3.68-16.77,3.67-23.2,0-3.2-1.84-4.82-4.26-4.85-6.67v-.08a16.41,16.41,0,0,1,32.82.08Z"/><path class="cls-32" d="M318.71,271.22l8.26-1.11,53.48-30.89a7.35,7.35,0,0,1,6.7.3l37.9,21.87,5-.65v2.82h0a1.92,1.92,0,0,1-1.16,1.76l-60.63,35c-1.71,1-4.69.86-6.7-.25l-41.28-23.84a2.81,2.81,0,0,1-1.66-2.27h0v-2.72Z"/><path class="cls-33" d="M368.3,297.48l60.58-35c1.72-1,1.51-2.72-.5-3.88l-41.23-23.79a7.5,7.5,0,0,0-6.7-.3l-60.58,35c-1.72,1-1.51,2.72.5,3.88l41.28,23.78A7.24,7.24,0,0,0,368.3,297.48Z"/><path class="cls-34" d="M352.48,279.56v.05L350.12,281l-3-1.69c-.09,0-.09-.08-.09-.14v-.06l2.36-1.37,3,1.69C352.48,279.47,352.48,279.5,352.48,279.56Z"/><path class="cls-34" d="M356.76,277.11v.06l-2.36,1.37-3-1.69a.12.12,0,0,1-.08-.14v-.06l2.35-1.37,3,1.69C356.67,277,356.76,277.05,356.76,277.11Z"/><path class="cls-34" d="M353.27,273.74v.06l-2.36,1.36-2.44-1.39c-.09,0-.09-.09-.09-.15v-.06l2.36-1.37,2.44,1.4C353.18,273.65,353.27,273.68,353.27,273.74Z"/><path class="cls-34" d="M357.46,271.29v.06l-2.36,1.37-2.44-1.4a.12.12,0,0,1-.09-.14v-.06l2.36-1.37,2.44,1.4C357.46,271.21,357.46,271.23,357.46,271.29Z"/><path class="cls-34" d="M361.74,268.85v.09l-2.36,1.36-2.45-1.39c-.08,0-.08-.09-.08-.15v-.06l2.35-1.36,2.45,1.39S361.74,268.79,361.74,268.85Z"/><path class="cls-34" d="M365.93,266.4v.06l-2.36,1.37-2.45-1.4c-.08,0-.08-.08-.08-.14v-.06l2.35-1.37,2.45,1.4A.12.12,0,0,1,365.93,266.4Z"/><path class="cls-34" d="M370.2,264V264l-2.35,1.37L365.4,264c-.09,0-.09-.09-.09-.15v0l2.36-1.37,2.45,1.39C370.2,263.87,370.2,263.9,370.2,264Z"/><path class="cls-34" d="M374.39,261.52v.05L372,262.94l-2.45-1.4c-.09,0-.09-.08-.09-.14v-.06l2.36-1.37,2.45,1.4C374.39,261.43,374.39,261.46,374.39,261.52Z"/><path class="cls-34" d="M378.67,259.07v.06l-2.36,1.37-2.44-1.4c-.09,0-.09-.09-.09-.15v-.05l2.36-1.37,2.44,1.4C378.58,259,378.67,259,378.67,259.07Z"/><path class="cls-34" d="M382.86,256.63v.06l-2.36,1.36-2.44-1.39c-.09,0-.09-.09-.09-.15v-.06l2.36-1.37,2.44,1.4C382.86,256.54,382.86,256.57,382.86,256.63Z"/><path class="cls-34" d="M387.14,254.18v.06l-2.36,1.37-2.44-1.4a.12.12,0,0,1-.09-.14V254l2.36-1.37,2.44,1.4S387.14,254.12,387.14,254.18Z"/><path class="cls-34" d="M391.33,251.74v.06L389,253.16l-2.44-1.39c-.09,0-.09-.09-.09-.15v-.06l2.36-1.36,2.44,1.39C391.33,251.62,391.33,251.68,391.33,251.74Z"/><path class="cls-34" d="M351.26,270.13v.06l-2.36,1.36-2.44-1.39c-.09,0-.09-.09-.09-.15V270l2.36-1.36,2.44,1.39C351.17,270,351.26,270.07,351.26,270.13Z"/><path class="cls-34" d="M347,272.6v.09l-2.35,1.37-2.45-1.4c-.09,0-.09-.09-.09-.15v-.05l2.36-1.37,2.44,1.4S347,272.57,347,272.6Z"/><path class="cls-34" d="M342.62,275.1v.09l-5.59,3.2L334.59,277c-.09,0-.09-.09-.09-.15v-.06l5.59-3.2,2.44,1.4C342.62,275,342.62,275.05,342.62,275.1Z"/><path class="cls-34" d="M337.38,273.36v.06L332.93,276l-2.45-1.4a.12.12,0,0,1-.08-.14v-.06l4.45-2.56,2.44,1.39C337.38,273.27,337.38,273.3,337.38,273.36Z"/><path class="cls-34" d="M355.45,267.68v.06l-2.36,1.37-2.44-1.4c-.09,0-.09-.08-.09-.14v-.06l2.36-1.37,2.44,1.4C355.45,267.6,355.45,267.63,355.45,267.68Z"/><path class="cls-34" d="M359.73,265.24v.09l-2.36,1.37-2.44-1.4c-.09,0-.09-.09-.09-.15v-.06l2.36-1.39,2.44,1.39C359.73,265.15,359.73,265.18,359.73,265.24Z"/><path class="cls-34" d="M363.92,262.8v.05l-2.36,1.37-2.44-1.39c-.09,0-.09-.09-.09-.15v-.06l2.36-1.37,2.44,1.4C363.92,262.71,363.92,262.74,363.92,262.8Z"/><path class="cls-34" d="M368.2,260.35v.06l-2.36,1.37-2.45-1.4a.12.12,0,0,1-.08-.14v-.09l2.35-1.37,2.45,1.4C368.11,260.26,368.2,260.29,368.2,260.35Z"/><path class="cls-34" d="M372.39,257.91V258L370,259.33l-2.45-1.39c-.08,0-.08-.09-.08-.15v-.06l2.35-1.36,2.45,1.39C372.39,257.82,372.39,257.85,372.39,257.91Z"/><path class="cls-34" d="M376.66,255.46v.06l-2.35,1.37-2.45-1.4a.12.12,0,0,1-.09-.14v-.06l2.36-1.37,2.45,1.4C376.58,255.38,376.66,255.4,376.66,255.46Z"/><path class="cls-34" d="M380.85,253v.06l-2.35,1.36-2.45-1.39c-.09,0-.09-.09-.09-.15v-.06l2.36-1.39,2.45,1.39C380.85,252.93,380.85,253,380.85,253Z"/><path class="cls-34" d="M385.13,250.57v.06L382.77,252l-2.44-1.4c-.09,0-.09-.08-.09-.14v-.06L382.6,249l2.44,1.4C385,250.49,385.13,250.52,385.13,250.57Z"/><path class="cls-34" d="M389.32,248.13v.06L387,249.56l-2.44-1.4c-.09,0-.09-.09-.09-.15v0l2.36-1.37,2.44,1.39C389.32,248,389.32,248.07,389.32,248.13Z"/><path class="cls-34" d="M396.92,243.79v.06l-5.68,3.26-2.44-1.4c-.09,0-.09-.08-.09-.14v-.06l5.59-3.26,2.44,1.4C396.83,243.71,396.83,243.74,396.92,243.79Z"/><path class="cls-34" d="M388.62,239v.09l-4.71,2.71-2.45-1.4c-.08,0-.08-.09-.08-.15v-.05l4.71-2.71,2.45,1.4S388.62,239,388.62,239Z"/><path class="cls-34" d="M354.66,263.41v.08l-2.35,1.37-2.45-1.39c-.08,0-.08-.09-.08-.15v-.06l2.35-1.37,2.45,1.4S354.66,263.35,354.66,263.41Z"/><path class="cls-34" d="M350.3,265.91V266l-2.36,1.37-2.44-1.4c-.09,0-.09-.09-.09-.15v-.05l2.36-1.37,2.44,1.39C350.3,265.82,350.3,265.85,350.3,265.91Z"/><path class="cls-34" d="M345.93,268.41v.06l-2.35,1.37-2.45-1.4a.12.12,0,0,1-.08-.14v-.06l2.35-1.37,2.45,1.4A.15.15,0,0,1,345.93,268.41Z"/><path class="cls-34" d="M341.66,270.91V271l-2.36,1.37-2.44-1.4c-.09,0-.09-.08-.09-.14v-.06l2.36-1.37,2.44,1.4S341.66,270.89,341.66,270.91Z"/><path class="cls-34" d="M358.85,261v.09l-2.35,1.37-2.45-1.4a.12.12,0,0,1-.08-.14v-.09l2.35-1.37,2.45,1.4C358.85,260.88,358.85,260.9,358.85,261Z"/><path class="cls-34" d="M363.13,258.52v.06l-2.35,1.36-2.45-1.39c-.09,0-.09-.09-.09-.15v-.09L360.6,257l2.44,1.39C363,258.43,363.13,258.46,363.13,258.52Z"/><path class="cls-34" d="M367.32,256.07v.06L365,257.5l-2.45-1.4c-.09,0-.09-.08-.09-.14v-.06l2.36-1.37,2.44,1.4C367.32,256,367.32,256,367.32,256.07Z"/><path class="cls-34" d="M371.6,253.63v.06l-2.36,1.37-2.44-1.4c-.09,0-.09-.09-.09-.15v0l2.36-1.37,2.44,1.39C371.51,253.54,371.6,253.57,371.6,253.63Z"/><path class="cls-34" d="M375.79,251.19v.05l-2.44,1.4-2.45-1.4c-.09,0-.09-.08-.09-.14V251l2.36-1.37,2.45,1.4C375.79,251.1,375.79,251.13,375.79,251.19Z"/><path class="cls-34" d="M380.07,248.74v.06l-2.36,1.37-2.44-1.4c-.09,0-.09-.09-.09-.15v-.05l2.36-1.37,2.44,1.4C380,248.65,380.07,248.68,380.07,248.74Z"/><path class="cls-34" d="M384.26,246.3v.08l-2.36,1.37-2.44-1.39c-.09,0-.09-.09-.09-.15v-.06l2.36-1.37,2.44,1.4C384.26,246.21,384.26,246.24,384.26,246.3Z"/><path class="cls-34" d="M388.54,243.85v.09l-2.36,1.37-2.45-1.4a.12.12,0,0,1-.08-.14v-.06l2.35-1.37,2.45,1.4S388.54,243.79,388.54,243.85Z"/><path class="cls-34" d="M392.73,241.41v.06l-2.36,1.36-2.45-1.39c-.08,0-.08-.09-.08-.15v-.06l2.44-1.36,2.45,1.39Z"/><path class="cls-34" d="M344.19,264.69v.06l-2.36,1.36-2.44-1.39c-.09,0-.09-.09-.09-.15v-.06l2.36-1.36,2.44,1.39C344.1,264.6,344.19,264.66,344.19,264.69Z"/><path class="cls-34" d="M340,267.13v.06l-2.36,1.37-2.44-1.4a.12.12,0,0,1-.09-.14V267l2.36-1.37,2.44,1.4C339.91,267,340,267.07,340,267.13Z"/><path class="cls-34" d="M335.72,269.55v.06L333.36,271l-2.44-1.39c-.09,0-.09-.09-.09-.15v-.06l2.36-1.37,2.44,1.4A.16.16,0,0,1,335.72,269.55Z"/><path class="cls-34" d="M331.53,272v.06l-2.36,1.37-2.44-1.4c-.09,0-.09-.09-.09-.15v-.05l2.36-1.37,2.44,1.4C331.53,271.9,331.53,271.93,331.53,272Z"/><path class="cls-34" d="M327.17,269.49v.06l-2.36,1.36-.61-.34c-.09,0-.09-.09-.09-.15v-.06l2.36-1.37.61.35C327.17,269.4,327.17,269.43,327.17,269.49Z"/><path class="cls-34" d="M332.67,266.32v.06l-2.36,1.36-.61-.35c-.09,0-.09-.08-.09-.14v-.06l2.36-1.37.61.35C332.67,266.23,332.67,266.26,332.67,266.32Z"/><path class="cls-34" d="M336.86,263.9V264l-2.36,1.37-.61-.35c-.09,0-.09-.09-.09-.15v-.06l2.36-1.36.61.35C336.86,263.79,336.86,263.84,336.86,263.9Z"/><path class="cls-34" d="M341.05,261.46v.06l-2.36,1.36-.61-.35c-.09,0-.09-.08-.09-.14v-.06l2.36-1.37.61.35C341.05,261.37,341.13,261.43,341.05,261.46Z"/><path class="cls-34" d="M345.24,259v.06l-2.36,1.37-.61-.35c-.09,0-.09-.09-.09-.15v-.05l2.36-1.37.61.35C345.24,259,345.32,259,345.24,259Z"/><path class="cls-34" d="M368.72,245.51v.06l-2.36,1.37-.61-.35c-.09,0-.09-.09-.09-.15v-.06L368,245l.61.35S368.72,245.48,368.72,245.51Z"/><path class="cls-34" d="M372.91,243.1v.05l-2.36,1.37-.61-.35c-.09,0-.09-.08-.09-.14V244l2.36-1.37.61.35A.16.16,0,0,1,372.91,243.1Z"/><path class="cls-34" d="M377.1,240.68v.06l-2.36,1.37-.61-.35c-.09,0-.09-.09-.09-.15v-.09l2.36-1.36.61.35C377.1,240.59,377.1,240.62,377.1,240.68Z"/><path class="cls-34" d="M381.29,238.27v0l-2.36,1.37-.61-.35c-.09,0-.09-.08-.09-.14v-.06l2.36-1.37.61.35C381.29,238.15,381.29,238.21,381.29,238.27Z"/><path class="cls-34" d="M348.38,262.24v.06L346,263.67l-2.44-1.4a.12.12,0,0,1-.09-.14v-.06l2.36-1.37,2.44,1.4C348.38,262.16,348.38,262.18,348.38,262.24Z"/><path class="cls-34" d="M352.66,259.8v.06l-2.36,1.36-2.44-1.39c-.09,0-.09-.09-.09-.15v-.06l2.36-1.36,2.44,1.39C352.57,259.71,352.66,259.77,352.66,259.8Z"/><path class="cls-34" d="M356.85,257.35v.09l-2.36,1.37-2.44-1.4c-.09,0-.09-.08-.09-.14v-.06l2.36-1.37,2.44,1.4C356.85,257.27,356.85,257.33,356.85,257.35Z"/><path class="cls-34" d="M361.12,254.91V255l-2.35,1.37L356.24,255c-.09,0-.09-.09-.09-.15v-.06l2.36-1.36,2.44,1.39C361,254.82,361.12,254.85,361.12,254.91Z"/><path class="cls-34" d="M365.31,252.47v.05L363,253.89l-2.45-1.39c-.08,0-.08-.09-.08-.15v-.06l2.35-1.37,2.45,1.4C365.31,252.38,365.31,252.41,365.31,252.47Z"/><path class="cls-34" d="M369.59,250v.06l-2.44,1.4-2.45-1.4c-.08,0-.08-.09-.08-.15v-.05l2.35-1.37,2.45,1.4C369.5,249.93,369.59,250,369.59,250Z"/><path class="cls-34" d="M373.78,247.58v.06L371.43,249,369,247.61c-.09,0-.09-.09-.09-.15v-.06l2.36-1.36,2.45,1.39C373.78,247.49,373.78,247.52,373.78,247.58Z"/><path class="cls-34" d="M378.06,245.13v.06l-2.36,1.37-2.44-1.4a.12.12,0,0,1-.09-.14V245l2.36-1.37L378,245C378.06,245.05,378.06,245.07,378.06,245.13Z"/><path class="cls-34" d="M382.25,242.69v.06l-2.36,1.36-2.44-1.39c-.09,0-.09-.09-.09-.15v-.06l2.45-1.39,2.44,1.39Z"/><path class="cls-34" d="M348.9,276.24v.06l-7.68,4.45-2.44-1.4c-.09,0-.09-.08-.09-.14v-.06l7.68-4.45,2.45,1.39C348.9,276.12,348.9,276.18,348.9,276.24Z"/><path class="cls-34" d="M400.93,246.18v.06l-7.68,4.45-2.45-1.4c-.08,0-.08-.08-.08-.14v-.06l7.68-4.45,2.44,1.39A.16.16,0,0,1,400.93,246.18Z"/><path class="cls-34" d="M393.34,256V256L391,257.38l-3-1.68c-.09,0-.09-.09-.09-.15v-.06l2.36-1.37,3,1.69A.16.16,0,0,1,393.34,256Z"/><path class="cls-34" d="M362.61,273.71v.06l-4,2.32-3-1.68c-.08,0-.08-.09-.08-.15v-.09l4-2.32,3,1.71A.16.16,0,0,1,362.61,273.71Z"/><path class="cls-34" d="M389.32,258.31v.06l-4,2.33-3-1.69c-.09,0-.09-.08-.09-.14v-.06l4-2.33,3,1.69C389.23,258.23,389.32,258.29,389.32,258.31Z"/><path class="cls-34" d="M383.47,261.66s0,.06-.09.12l-18.33,10.56-3.14-1.8,18.51-10.68,3,1.71S383.47,261.63,383.47,261.66Z"/><path class="cls-34" d="M406.17,248.62h0l-2.62,1.55-1-.56s-.09-.05-.09-.08v0l2.62-1.52,1,.56S406.17,248.6,406.17,248.62Z"/><path class="cls-34" d="M401.89,251.07h0l-2.62,1.54-1-.55s-.09-.06-.09-.09v0l2.62-1.51,1,.55C401.89,251,401.89,251,401.89,251.07Z"/><path class="cls-34" d="M397.61,253.51h0L395,255.06l-1-.56s-.08-.06-.08-.08v0l2.62-1.52,1,.56C397.61,253.46,397.61,253.48,397.61,253.51Z"/><path class="cls-34" d="M399.53,249.73h0l-2.61,1.54-1-.55s-.09-.06-.09-.09v0l2.62-1.51,1,.55C399.53,249.67,399.53,249.7,399.53,249.73Z"/><path class="cls-34" d="M400.84,272.57l-14.92,8.65a3.38,3.38,0,0,1-3-.12L375,276.5c-.87-.52-1-1.16-.17-1.72l15-8.64a3.35,3.35,0,0,1,3,.12l7.95,4.6C401.54,271.41,401.63,272,400.84,272.57Z"/><path class="cls-35" d="M318.18,211.83l60.59-35a2,2,0,0,1,2.1-.08l2.37,1.27h-1.53a4.38,4.38,0,0,1,.15,1.2v47.58a7.47,7.47,0,0,1-3.11,6l-32.5,18.77L318.8,267.41l-.19,1.83L316.24,268l-.09-.05h0a2.78,2.78,0,0,1-1-2.53l0-47.6A7.42,7.42,0,0,1,318.18,211.83Z"/><path class="cls-11" d="M384.05,180.46l0,47.64A7.27,7.27,0,0,1,381,234l-28.09,16.21-16.8,7.38c-1.73,1-3.11-.05-3.11-2.38l-3.62-42a7.56,7.56,0,0,1,3.09-6l48.52-29.21C382.67,177.1,384.05,178.13,384.05,180.46Z"/><path class="cls-8" d="M350.24,196.5v54.55L320.7,268.1c-1.69,1-3-.05-3-2.32V219.37a7.34,7.34,0,0,1,3-5.81Z"/><polygon class="cls-36" points="341.82 213.16 328.56 220.82 328.56 219.13 341.82 211.47 341.82 213.16"/><polygon class="cls-37" points="337.46 227.32 328.56 232.45 328.56 230.74 337.46 225.61 337.46 227.32"/><polygon class="cls-38" points="331.35 234.7 325.77 237.93 325.77 236.21 331.35 232.99 331.35 234.7"/><polygon class="cls-39" points="335.98 232.03 332.78 233.88 332.78 232.17 335.98 230.32 335.98 232.03"/><polygon class="cls-40" points="346.19 214.52 337.46 219.56 337.46 217.85 346.19 212.81 346.19 214.52"/><polygon class="cls-41" points="335.98 220.41 325.77 226.31 325.77 224.6 335.98 218.7 335.98 220.41"/><polygon class="cls-11" points="327.13 241.02 325.77 241.8 325.77 240.09 327.13 239.31 327.13 241.02"/><polygon class="cls-11" points="327.13 229.4 325.77 230.19 325.77 228.47 327.13 227.69 327.13 229.4"/><polygon class="cls-11" points="327.13 233.28 325.77 234.06 325.77 232.35 327.13 231.57 327.13 233.28"/><polygon class="cls-11" points="327.13 221.66 325.77 222.44 325.77 220.73 327.13 219.94 327.13 221.66"/><polygon class="cls-40" points="324.26 223.3 322.81 224.13 322.81 222.44 324.26 221.61 324.26 223.3"/><polygon class="cls-40" points="324.26 234.94 322.81 235.77 322.81 234.06 324.26 233.23 324.26 234.94"/><polygon class="cls-40" points="324.26 227.18 322.81 228.01 322.81 226.3 324.26 225.47 324.26 227.18"/><polygon class="cls-40" points="324.26 231.06 322.81 231.89 322.81 230.18 324.26 229.35 324.26 231.06"/><polygon class="cls-40" points="324.26 246.56 322.81 247.39 322.81 245.68 324.26 244.85 324.26 246.56"/><polygon class="cls-40" points="324.26 250.42 322.81 251.25 322.81 249.54 324.26 248.71 324.26 250.42"/><polygon class="cls-40" points="324.26 238.8 322.81 239.63 322.81 237.92 324.26 237.09 324.26 238.8"/><polygon class="cls-40" points="324.26 242.68 322.81 243.51 322.81 241.8 324.26 240.97 324.26 242.68"/><line class="cls-42" x1="365.82" y1="204.88" x2="365.82" y2="210.27"/><line class="cls-42" x1="365.82" y1="219.29" x2="365.82" y2="224.68"/><path class="cls-43" d="M372.07,201.27l-11.94,6.9c-.32.18-.58,0-.58-.44v-7.48a1.38,1.38,0,0,1,.58-1.1l11.94-6.9c.32-.18.58,0,.58.44v7.48A1.38,1.38,0,0,1,372.07,201.27Z"/><path class="cls-44" d="M372.07,215.68l-11.94,6.89c-.32.19-.58,0-.58-.43v-7.48a1.36,1.36,0,0,1,.58-1.1l11.94-6.9c.32-.18.58,0,.58.44v7.48A1.39,1.39,0,0,1,372.07,215.68Z"/><path class="cls-44" d="M372.07,230.09,360.13,237c-.32.19-.58,0-.58-.43v-7.48a1.36,1.36,0,0,1,.58-1.1l11.94-6.9c.32-.18.58,0,.58.44V229A1.39,1.39,0,0,1,372.07,230.09Z"/><ellipse class="cls-11" cx="361.3" cy="200.44" rx="1.19" ry="0.69" transform="translate(5.92 411.2) rotate(-59.69)"/><ellipse class="cls-11" cx="361.3" cy="214.52" rx="1.19" ry="0.69" transform="matrix(0.5, -0.86, 0.86, 0.5, -6.24, 418.17)"/><ellipse class="cls-11" cx="363.61" cy="213.19" rx="1.19" ry="0.69" transform="translate(-3.94 419.51) rotate(-59.69)"/><ellipse class="cls-11" cx="361.3" cy="229.28" rx="1.19" ry="0.69" transform="translate(-18.98 425.48) rotate(-59.69)"/><path class="cls-44" d="M382.26,178.88a.44.44,0,0,1,.34.14,2.08,2.08,0,0,1,.38,1.43V228a6.33,6.33,0,0,1-2.52,5L348,251.76,319.89,268a1.35,1.35,0,0,1-.66.22.37.37,0,0,1-.3-.12,2,2,0,0,1-.36-1.46l0-47.6a6.36,6.36,0,0,1,2.53-5l60.57-35a1.35,1.35,0,0,1,.63-.2m0-1.16a2.53,2.53,0,0,0-1.2.34l-60.58,35a7.44,7.44,0,0,0-3.11,6l0,47.6c0,1.71.72,2.75,1.83,2.75a2.6,2.6,0,0,0,1.24-.37l28.08-16.22L381.05,234a7.43,7.43,0,0,0,3.11-6V180.45c0-1.73-.78-2.73-1.89-2.73Z"/><path class="cls-45" d="M23.7,95.48V139A1.69,1.69,0,0,1,23,140.6l-1.8,1.05-2-5.73L4.49,93.22.72,82.3l1.67-1,.06,0a1.23,1.23,0,0,1,1.27.09L21.77,91.81A4.59,4.59,0,0,1,23.7,95.48Z"/><path class="cls-46" d="M20,141.53l-18-10.42A4.6,4.6,0,0,1,0,127.44V83.89c0-1.42.86-2.07,1.92-1.46L20,92.85a4.6,4.6,0,0,1,1.93,3.68v43.55C21.9,141.5,21,142.15,20,141.53Z"/><path class="cls-47" d="M13.47,135.82l-5-2.91a1,1,0,0,1-.44-.85H8c0-.32.19-.47.44-.33l5,2.91a1,1,0,0,1,.44.85h0C13.91,135.81,13.72,136,13.47,135.82Z"/><polygon class="cls-48" points="21.9 137.91 0 125.27 0 86.29 21.9 98.93 21.9 137.91"/><ellipse class="cls-49" cx="10.95" cy="119.56" rx="5.17" ry="8.95" transform="matrix(0.86, -0.5, 0.5, 0.86, -58.84, 21.87)"/><polygon class="cls-46" points="10.89 102.96 3.29 98.57 3.29 97.09 10.89 101.47 10.89 102.96"/><polygon class="cls-46" points="17.5 106.78 12.58 103.93 12.58 102.45 17.5 105.29 17.5 106.78"/><polygon class="cls-46" points="15.96 108.66 4.84 102.24 4.84 100.76 15.96 107.18 15.96 108.66"/><text class="cls-50" transform="matrix(0.87, 0.5, 0, 1, 7.6, 119.68)">OK</text><ellipse class="cls-51" cx="313.28" cy="64.01" rx="4.91" ry="8.51" transform="translate(247.57 376.94) rotate(-89.69)"/><polygon class="cls-51" points="304.87 64.68 302.97 56.55 323.61 56.56 321.66 64.9 304.87 64.68"/><ellipse class="cls-52" cx="313.28" cy="55.89" rx="5.99" ry="10.38" transform="translate(255.69 368.87) rotate(-89.69)"/><ellipse class="cls-51" cx="313.28" cy="55.89" rx="4.93" ry="8.55" transform="translate(255.69 368.87) rotate(-89.69)"/><g class="cls-53"><path class="cls-54" d="M304.74,55.89a3.41,3.41,0,0,1,.88-2.57,6.84,6.84,0,0,1,2.24-1.68,12.87,12.87,0,0,1,10.81,0,6.92,6.92,0,0,1,2.24,1.67,3.5,3.5,0,0,1,.92,2.56,3.51,3.51,0,0,0-1.27-2.22,7.57,7.57,0,0,0-2.21-1.3,14.82,14.82,0,0,0-10.17,0A7.15,7.15,0,0,0,306,53.66,3.44,3.44,0,0,0,304.74,55.89Z"/></g><path class="cls-55" d="M330,39.67h0l0,0a17.29,17.29,0,0,1-1.67,3.56l-6.5,13.83,0,.08h0a5.42,5.42,0,0,1-2.22,2.15,10.64,10.64,0,0,1-2.66,1.06,15,15,0,0,1-7.17,0A10.73,10.73,0,0,1,307,59.31a6.77,6.77,0,0,1-1.36-1,4.47,4.47,0,0,1-.87-1.12h0a3,3,0,0,1-.15-.32l-6.4-13.55a17.94,17.94,0,0,1-1.69-3.6l0,0h0a17.69,17.69,0,1,1,33.51,0Z"/><g class="cls-56"><polygon class="cls-13" points="313.02 53.28 317.07 45.77 313.02 43.42 313.02 53.28"/><polygon class="cls-12" points="314.14 42.77 318.2 45.11 317.07 45.76 313.02 43.42 314.14 42.77"/><polygon class="cls-57" points="317.07 45.77 318.2 45.11 314.14 52.59 313.02 53.28 317.07 45.77"/><polygon class="cls-57" points="313.85 34.12 314.97 33.47 314.99 43.22 313.87 43.91 313.85 34.12"/><polygon class="cls-13" points="313.87 34.06 309.81 41.57 313.87 43.91 313.87 34.06"/></g><polygon class="cls-11" points="314.31 158.69 302.33 151.78 314.23 144.91 326.21 151.82 314.31 158.69"/><polygon class="cls-58" points="326.21 187.1 314.31 193.94 314.31 158.69 326.21 151.82 326.21 187.1"/><polygon class="cls-2" points="324.23 157.6 316.28 162.17 316.28 160.39 324.23 155.8 324.23 157.6"/><polygon class="cls-2" points="324.23 161.7 316.28 166.27 316.28 164.48 324.23 159.9 324.23 161.7"/><polygon class="cls-2" points="324.23 165.79 316.28 170.37 316.28 168.58 324.23 163.99 324.23 165.79"/><polygon class="cls-2" points="324.23 169.89 316.28 174.46 316.28 172.68 324.23 168.09 324.23 169.89"/><polygon class="cls-2" points="324.23 173.99 316.28 178.56 316.28 176.77 324.23 172.19 324.23 173.99"/><polygon class="cls-2" points="324.23 178.08 316.28 182.66 316.28 180.87 324.23 176.28 324.23 178.08"/><polygon class="cls-2" points="324.23 182.18 316.28 186.75 316.28 184.97 324.23 180.38 324.23 182.18"/><polygon class="cls-2" points="324.23 186.28 316.28 190.85 316.28 189.06 324.23 184.48 324.23 186.28"/><polygon class="cls-59" points="302.41 187.1 314.31 193.94 314.31 158.69 302.41 151.82 302.41 187.1"/><polygon class="cls-11" points="298.7 179.64 286.72 172.73 298.62 165.86 310.6 172.77 298.7 179.64"/><polygon class="cls-60" points="310.6 208.05 298.7 214.9 298.7 179.64 310.6 172.78 310.6 208.05"/><polygon class="cls-61" points="286.8 208.05 298.7 214.9 298.7 179.64 286.8 172.78 286.8 208.05"/><polygon class="cls-11" points="298.69 167.76 290.08 162.79 298.63 157.85 307.24 162.82 298.69 167.76"/><polygon class="cls-62" points="307.24 173.02 298.69 177.94 298.69 167.76 307.24 162.82 307.24 173.02"/><polygon class="cls-63" points="290.13 173.02 298.69 177.94 298.69 167.76 290.13 162.82 290.13 173.02"/><polygon class="cls-11" points="298.68 151.97 293.69 149.09 298.64 146.24 303.63 149.11 298.68 151.97"/><polygon class="cls-64" points="303.63 162.43 298.68 165.28 298.68 151.97 303.63 149.11 303.63 162.43"/><polygon class="cls-65" points="293.73 162.43 298.68 165.28 298.68 151.97 293.73 149.11 293.73 162.43"/><line class="cls-4" x1="279.37" y1="196.65" x2="292.77" y2="188.91"/></g></g></g></svg>