<svg xmlns="http://www.w3.org/2000/svg" xmlns:xlink="http://www.w3.org/1999/xlink" viewBox="0 0 739.93 633.11"><defs><style>.cls-1,.cls-10,.cls-11,.cls-12,.cls-13,.cls-14,.cls-15,.cls-16,.cls-17,.cls-18,.cls-25,.cls-27,.cls-3,.cls-49,.cls-50,.cls-6,.cls-62,.cls-7,.cls-8,.cls-9{fill:none;}.cls-2{isolation:isolate;}.cls-18,.cls-27,.cls-3,.cls-49,.cls-50{stroke:#e2887f;}.cls-10,.cls-11,.cls-12,.cls-13,.cls-14,.cls-15,.cls-16,.cls-17,.cls-18,.cls-25,.cls-27,.cls-3,.cls-49,.cls-50,.cls-6,.cls-62,.cls-7,.cls-8,.cls-9{stroke-miterlimit:10;}.cls-3{stroke-width:0.77px;stroke-dasharray:3.38;}.cls-31,.cls-4{opacity:0.4;}.cls-4,.cls-60{mix-blend-mode:multiply;}.cls-4{fill:url(#radial-gradient);}.cls-5{opacity:0.5;}.cls-10,.cls-11,.cls-12,.cls-13,.cls-14,.cls-15,.cls-16,.cls-17,.cls-18,.cls-25,.cls-6,.cls-7,.cls-8,.cls-9{stroke-width:0.58px;}.cls-6{stroke:url(#linear-gradient);}.cls-7{stroke:url(#linear-gradient-2);}.cls-8{stroke:url(#linear-gradient-3);}.cls-9{stroke:url(#linear-gradient-4);}.cls-10{stroke:url(#linear-gradient-5);}.cls-11{stroke:url(#linear-gradient-6);}.cls-12{stroke:url(#linear-gradient-7);}.cls-13{stroke:url(#linear-gradient-8);}.cls-14{stroke:url(#linear-gradient-9);}.cls-15{stroke:url(#linear-gradient-10);}.cls-16{stroke:url(#linear-gradient-11);}.cls-17{stroke:url(#linear-gradient-12);}.cls-19{fill:url(#linear-gradient-13);}.cls-20{fill:url(#linear-gradient-14);}.cls-21,.cls-48{fill:#e6e6e6;}.cls-22{fill:#b3b3b3;}.cls-23{fill:url(#linear-gradient-15);}.cls-24{fill:#ccc;}.cls-25{stroke:#e0341b;}.cls-26{fill:#e0341b;}.cls-27{stroke-width:0.55px;}.cls-28{fill:url(#linear-gradient-16);}.cls-29{fill:url(#linear-gradient-17);}.cls-30,.cls-43,.cls-45,.cls-57,.cls-66{fill:#fff;}.cls-30{opacity:0.2;}.cls-31{fill:url(#linear-gradient-18);}.cls-32{opacity:0.33;fill:url(#linear-gradient-19);}.cls-33{opacity:0.25;fill:url(#linear-gradient-20);}.cls-34{opacity:0.18;fill:url(#linear-gradient-21);}.cls-35{opacity:0.1;fill:url(#linear-gradient-22);}.cls-36{fill:url(#linear-gradient-23);}.cls-37{fill:url(#linear-gradient-24);}.cls-38{fill:url(#linear-gradient-25);}.cls-39{fill:url(#linear-gradient-26);}.cls-40{fill:url(#linear-gradient-27);}.cls-41{fill:url(#linear-gradient-28);}.cls-42{fill:#e2887f;}.cls-43,.cls-44{opacity:0.8;}.cls-46,.cls-52,.cls-55{fill-opacity:0.06;}.cls-46,.cls-47,.cls-48,.cls-52,.cls-53,.cls-54,.cls-55,.cls-56,.cls-57{fill-rule:evenodd;}.cls-46{fill:url(#linear-gradient-29);}.cls-47,.cls-53,.cls-56{fill-opacity:0.09;}.cls-47{fill:url(#linear-gradient-30);}.cls-49,.cls-50{stroke-width:0.44px;}.cls-50{stroke-dasharray:1.91 1.91;}.cls-51{fill:url(#linear-gradient-31);}.cls-52{fill:url(#linear-gradient-32);}.cls-53{fill:url(#linear-gradient-33);}.cls-54{fill:#f2f2f2;}.cls-55{fill:url(#linear-gradient-34);}.cls-56{fill:url(#linear-gradient-35);}.cls-58{fill:#e26558;}.cls-59{fill:#a8190a;}.cls-60{opacity:0.5;fill:url(#radial-gradient-2);}.cls-61{clip-path:url(#clip-path);}.cls-62{stroke-width:54.42px;stroke:url(#linear-gradient-36);}.cls-63{fill:url(#linear-gradient-37);}.cls-64{fill:url(#linear-gradient-38);}.cls-65{fill:url(#linear-gradient-39);}.cls-66,.cls-68{font-size:4.81px;font-family:SpaceMono-Regular, SpaceMono Regular;}.cls-67{letter-spacing:0em;}.cls-68{fill:#ef928b;}</style><radialGradient id="radial-gradient" cx="367.33" cy="582.21" r="58.17" gradientTransform="matrix(.01 1 -.64 0 737.39 212.86)" gradientUnits="userSpaceOnUse"><stop offset="0" stop-color="#826a6a"/><stop offset=".03" stop-color="#999"/><stop offset="1" stop-color="#fff"/></radialGradient><linearGradient id="linear-gradient" x1="60.06" x2="364.31" y1="369.24" y2="369.24" gradientUnits="userSpaceOnUse"><stop offset="0" stop-color="#e2887f" stop-opacity="0"/><stop offset="1" stop-color="#e2887f"/></linearGradient><linearGradient id="linear-gradient-2" x1="93.07" x2="397.33" y1="350.24" y2="350.24" gradientUnits="userSpaceOnUse"><stop offset="0" stop-color="#ccc" stop-opacity="0"/><stop offset="1" stop-color="#ccc"/></linearGradient><linearGradient id="linear-gradient-3" x1="126.09" x2="430.34" y1="331.23" y2="331.23" xlink:href="#linear-gradient-2"/><linearGradient id="linear-gradient-4" x1="159.1" x2="463.35" y1="312.23" y2="312.23" xlink:href="#linear-gradient-2"/><linearGradient id="linear-gradient-5" x1="192.11" x2="496.36" y1="293.23" y2="293.23" xlink:href="#linear-gradient-2"/><linearGradient id="linear-gradient-6" x1="225.12" x2="529.38" y1="274.23" y2="274.23" xlink:href="#linear-gradient-2"/><linearGradient id="linear-gradient-7" x1="258.14" x2="562.39" y1="255.22" y2="255.22" xlink:href="#linear-gradient-2"/><linearGradient id="linear-gradient-8" x1="-6100.97" x2="-5829.78" y1="360.28" y2="360.28" gradientTransform="matrix(-1 0 0 1 -5500.35 0)" xlink:href="#linear-gradient-2"/><linearGradient id="linear-gradient-9" x1="-6067.96" x2="-5796.76" y1="341.28" y2="341.28" gradientTransform="matrix(-1 0 0 1 -5500.35 0)" xlink:href="#linear-gradient-2"/><linearGradient id="linear-gradient-10" x1="-6034.95" x2="-5763.75" y1="322.28" y2="322.28" gradientTransform="matrix(-1 0 0 1 -5500.35 0)" xlink:href="#linear-gradient-2"/><linearGradient id="linear-gradient-11" x1="-6001.94" x2="-5730.74" y1="303.27" y2="303.27" gradientTransform="matrix(-1 0 0 1 -5500.35 0)" xlink:href="#linear-gradient-2"/><linearGradient id="linear-gradient-12" x1="-5968.92" x2="-5697.73" y1="284.27" y2="284.27" gradientTransform="matrix(-1 0 0 1 -5500.35 0)" xlink:href="#linear-gradient-2"/><linearGradient id="linear-gradient-13" x1="319.31" x2="382.11" y1="532.1" y2="532.1" gradientUnits="userSpaceOnUse"><stop offset=".03" stop-color="#e26558"/><stop offset="1" stop-color="#ba210f"/></linearGradient><linearGradient id="linear-gradient-14" x1="807.94" x2="867.1" y1="-3730.68" y2="-3730.68" gradientTransform="translate(-473.84 4194.21)" gradientUnits="userSpaceOnUse"><stop offset="0" stop-color="#ccc"/><stop offset="1" stop-color="#808080"/></linearGradient><linearGradient id="linear-gradient-15" x1="811.13" x2="864.07" y1="-3855.56" y2="-3855.56" xlink:href="#linear-gradient-14"/><linearGradient id="linear-gradient-16" x1="10481.69" x2="10533.76" y1="213.81" y2="213.81" gradientTransform="matrix(-1 0 0 1 10871.34 0)" gradientUnits="userSpaceOnUse"><stop offset=".03" stop-color="#e26558"/><stop offset=".21" stop-color="#e0341b"/><stop offset="1" stop-color="#ba210f"/></linearGradient><linearGradient id="linear-gradient-17" x1="-2617.46" x2="-2573.48" y1="-933.1" y2="-933.1" gradientTransform="matrix(1 .01 .01 -1 2964.1 -771.07)" gradientUnits="userSpaceOnUse"><stop offset=".04" stop-color="#999"/><stop offset=".97" stop-color="#e6e6e6"/></linearGradient><linearGradient id="linear-gradient-18" x1="6466.45" x2="6499.54" y1="5232.67" y2="5232.67" gradientTransform="matrix(.86 -.5 -.5 -.86 -2592.5 8069.85)" gradientUnits="userSpaceOnUse"><stop offset="0" stop-color="#e26558"/><stop offset="1" stop-color="#e0341b"/></linearGradient><linearGradient id="linear-gradient-19" x1="6457.09" x2="6484.1" y1="5239.83" y2="5239.83" gradientTransform="matrix(.86 -.5 -.5 -.86 -2578.18 8084.09)" xlink:href="#linear-gradient-18"/><linearGradient id="linear-gradient-20" x1="6449.47" x2="6470.39" y1="5245.98" y2="5245.98" gradientTransform="matrix(.86 -.5 -.5 -.86 -2565.87 8096.34)" xlink:href="#linear-gradient-18"/><linearGradient id="linear-gradient-21" x1="6444.62" x2="6459.46" y1="5250.54" y2="5250.54" gradientTransform="matrix(.86 -.5 -.5 -.86 -2556.75 8105.4)" xlink:href="#linear-gradient-18"/><linearGradient id="linear-gradient-22" x1="6441.16" x2="6449.92" y1="5254.29" y2="5254.29" gradientTransform="matrix(.86 -.5 -.5 -.86 -2549.25 8112.87)" xlink:href="#linear-gradient-18"/><linearGradient id="linear-gradient-23" x1="10528.15" x2="10580.22" y1="240.64" y2="240.64" xlink:href="#linear-gradient-16"/><linearGradient id="linear-gradient-24" x1="-2663.92" x2="-2619.94" y1="-959.94" y2="-959.94" gradientTransform="matrix(1 .01 .01 -1 2964.25 -770.82)" xlink:href="#linear-gradient-17"/><linearGradient id="linear-gradient-25" x1="10560.79" x2="10547.58" y1="171.17" y2="171.17" gradientTransform="matrix(-1 0 0 1 10871.34 0)" xlink:href="#linear-gradient-17"/><linearGradient id="linear-gradient-26" x1="10548.38" x2="10559.98" y1="-952.42" y2="-952.42" gradientTransform="translate(1326.78 10716.12) rotate(-90.31)" xlink:href="#linear-gradient-17"/><linearGradient id="linear-gradient-27" x1="10593.9" x2="10610.15" y1="262.96" y2="262.96" xlink:href="#linear-gradient-16"/><linearGradient id="linear-gradient-28" x1="-3196.93" x2="-3180.7" y1="-1782.51" y2="-1782.51" gradientTransform="matrix(.01 1 1 -.01 2069.08 3425.44)" xlink:href="#linear-gradient-16"/><linearGradient id="linear-gradient-29" x1="652.41" x2="652.42" y1="1241.88" y2="1241.64" gradientTransform="matrix(-152 0 0 -167 99665.26 207922.91)" gradientUnits="userSpaceOnUse"><stop offset=".04" stop-color="#1a1a1a"/><stop offset=".97" stop-color="#999" stop-opacity="0"/></linearGradient><linearGradient id="linear-gradient-30" x1="722.93" x2="723.12" y1="1241.84" y2="1241.66" gradientTransform="matrix(-72 0 0 -156 52542.12 194249.85)" gradientUnits="userSpaceOnUse"><stop offset="0" stop-color="#333"/><stop offset=".14" stop-color="#454545" stop-opacity=".82"/><stop offset=".66" stop-color="#828282" stop-opacity=".23"/><stop offset=".95" stop-color="#999" stop-opacity="0"/></linearGradient><linearGradient id="linear-gradient-31" x1="-360.31" x2="-354" y1="2766.63" y2="2766.63" gradientTransform="matrix(.5 .87 -.58 1 2209.58 -2220.7)" xlink:href="#linear-gradient-18"/><linearGradient id="linear-gradient-32" x1="655.19" x2="655.2" y1="1242.9" y2="1242.41" xlink:href="#linear-gradient-29"/><linearGradient id="linear-gradient-33" x1="728.9" x2="729.28" y1="1242.96" y2="1242.61" xlink:href="#linear-gradient-30"/><linearGradient id="linear-gradient-34" x1="655.44" x2="655.45" y1="1242.45" y2="1242.12" xlink:href="#linear-gradient-29"/><linearGradient id="linear-gradient-35" x1="729.36" x2="729.61" y1="1242.46" y2="1242.22" xlink:href="#linear-gradient-30"/><radialGradient id="radial-gradient-2" cx="10795.34" cy="323.78" r="31.75" gradientTransform="matrix(-1 0 0 .45 10871.34 178.36)" gradientUnits="userSpaceOnUse"><stop offset="0" stop-color="#d3d3d3"/><stop offset=".07" stop-color="#d8d8d8"/><stop offset=".39" stop-color="#eee"/><stop offset=".71" stop-color="#fbfbfb"/><stop offset="1" stop-color="#fff"/></radialGradient><clipPath id="clip-path"><path d="M460.5 149.54l-12.38-7.4-73.37-42.4c-8.87-5.1-24.36-4.47-34.6 1.44s-11.35 14.86-2.48 20l85.8 49.8c20.85 12.04 37.8 41.42 37.8 65.5v166.85c0 11.93-4.16 20.35-10.9 24.35h.07l36.83-21.33.3-.18.15-.08c6.56-4.08 10.6-12.4 10.6-24.16v-166.9c0-24.04-16.97-53.46-37.82-65.5z" class="cls-1"/></clipPath><linearGradient id="linear-gradient-36" x1="7030.47" x2="7318.03" y1="6346.07" y2="6346.07" gradientTransform="translate(9490.11 -2781.48) rotate(120)" gradientUnits="userSpaceOnUse"><stop offset=".18" stop-color="#f2f2f2"/><stop offset="1" stop-color="#4d4d4d"/></linearGradient><linearGradient id="linear-gradient-37" x1="357.36" x2="370.98" y1="34.57" y2="34.57" xlink:href="#linear-gradient-18"/><linearGradient id="linear-gradient-38" x1="357.36" x2="370.98" y1="26.88" y2="26.88" xlink:href="#linear-gradient-18"/><linearGradient id="linear-gradient-39" x1="11495.26" x2="11501.57" y1="-2363.47" y2="-2363.47" gradientTransform="matrix(-.87 -.5 -1 .58 7816.63 7303.49)" xlink:href="#linear-gradient-18"/></defs><title>image5</title><g class="cls-2"><g id="Vrstva_2"><g id="ramecek"><path d="M738.64 632.78L587 545.22A78.8 78.8 0 0 1 547.58 477v-68.2M739.74 597.87l-124.87-72.1a78.82 78.82 0 0 1-39.4-68.25v-107" class="cls-3"/><ellipse cx="367.33" cy="582.21" class="cls-4" rx="36.5" ry="63.23" transform="translate(-216.86 946.38) rotate(-89.69)"/><g class="cls-5"><path d="M60.2 281.6l303.97 175.28" class="cls-6"/><path d="M93.22 262.6l303.96 175.28" class="cls-7"/><path d="M126.23 243.6L430.2 418.86" class="cls-8"/><path d="M159.24 224.6L463.2 399.86" class="cls-9"/><path d="M192.26 205.6l303.96 175.27" class="cls-10"/><path d="M225.27 186.6l303.96 175.27" class="cls-11"/><path d="M258.28 167.58l303.97 175.28" class="cls-12"/><path d="M600.48 281.56L329.58 439" class="cls-13"/><path d="M567.46 262.56L296.56 420" class="cls-14"/><path d="M534.45 243.56L263.55 401" class="cls-15"/><path d="M501.44 224.55L230.54 382" class="cls-16"/><path d="M468.43 205.55L197.53 363" class="cls-17"/></g><path d="M561.96 342.9V114.54L364.16.33 166.4 114.53V342.9l197.8 114.2 197.78-114.2" class="cls-18"/><path d="M384.66 584a29.3 29.3 0 0 0 8.52-22.73l.07-89.73H334.1l-.1 91.57h.08a29.7 29.7 0 0 0 50.58 20.9z" class="cls-19"/><path d="M393.25 471.57v-4.48a11.8 11.8 0 0 0-3.2-7.64L379.4 447.5c0-2.3-1.58-4.63-4.65-6.4-6.17-3.56-16.14-3.58-22.28 0-3.07 1.78-4.6 4.1-4.57 6.45l-10.32 11.4-.35.4-.13.15a11.6 11.6 0 0 0-3 7.63v4.48c0 4.37 3 8.72 8.73 12 11.6 6.7 30.3 6.73 41.83.1 5.78-3.35 8.64-7.7 8.6-12.13z" class="cls-20"/><path d="M374.33 340.43H353v101.8c0 1.55 1.07 3.12 3.14 4.32a16.65 16.65 0 0 0 15.06 0c2.08-1.2 3.1-2.78 3.1-4.36z" class="cls-21"/><path d="M332.77 364.1a1.5 1.5 0 0 1-.1-.18 1.5 1.5 0 0 0 .1.18zM333.53 365.26l-.3-.44zM335.78 367.5c-.27-.22-.52-.42-.76-.63.24.2.5.4.76.62zM337.66 368.77c-.5-.3-1-.6-1.42-.92.44.32.9.62 1.42.92zM423.46 418.53c1 .57 2 1.08 2.94 1.54l-88.63-51.24zM334.52 366.38a6.4 6.4 0 0 1-.5-.54 5.08 5.08 0 0 0 .5.54z" class="cls-1"/><path d="M332.77 364.1c.13.24.3.48.45.72l.3.44c.16.2.33.4.5.58a6.4 6.4 0 0 0 .5.54c.16.17.33.33.5.5s.5.4.76.6l.46.37c.44.32.9.62 1.42.92l.1.05 88.63 51.24c16.3 7.7 29.13-.78 29.13-20.06v-5.92l-80.8-46.72c-8.86-5.12-24.35-4.48-34.6 1.43-5.92 3.42-8.77 7.86-8.4 12a8.1 8.1 0 0 0 .94 3.1 1.5 1.5 0 0 0 .1.2z" class="cls-22"/><path d="M331.74 360.8a8.1 8.1 0 0 0 .94 3.12 8.1 8.1 0 0 1-.94-3.12zM337.66 368.77l.1.05-.1-.05zM335 366.87c-.17-.16-.34-.32-.5-.5.18.18.35.34.5.5zM336.24 367.85l-.46-.36zM334 365.84c-.17-.2-.34-.38-.5-.58.18.2.35.4.5.58zM333.22 364.82c-.16-.24-.32-.48-.45-.72.13.24.3.48.45.72zM374.33 343.22H353v22.15c0 1.57 1.07 3.14 3.14 4.34 4.17 2.4 10.92 2.43 15.06 0 2.08-1.2 3.1-2.77 3.1-4.35z" class="cls-21"/><path d="M390.23 328.13H337.3l10.63 12c0 2.3 1.57 4.63 4.64 6.4 6.18 3.57 16.15 3.6 22.28 0 3.08-1.77 4.6-4.1 4.58-6.44z" class="cls-23"/><path d="M393.25 316h-1.1c-1.3-2.76-3.86-5.37-7.62-7.55-11.6-6.7-30.32-6.72-41.83-.08-3.8 2.2-6.32 4.83-7.6 7.63h-1v4.5c0 4.34 3 8.7 8.73 12 11.6 6.68 30.3 6.72 41.83.07 5.78-3.34 8.64-7.73 8.6-12.1z" class="cls-24"/><ellipse cx="363.68" cy="316.02" class="cls-21" rx="17.08" ry="29.58" transform="translate(45.69 677.98) rotate(-89.69)"/><path d="M319.27 456.88c-23.14 13.35-23.14 35 0 48.37s60.64 13.35 83.77 0 23.14-35 0-48.37" class="cls-25"/><path d="M409.88 453.23h-13.16v7.6l13.16-7.6z" class="cls-26"/><path d="M269.14 291.16v66.07c0 16.2 9.84 23.64 22 16.63l3.43-2c12.15-7 22-25.84 22-42V264" class="cls-27"/><path d="M258.28 229.65c0-1.57 1.1-3.13 3.18-4.33a16.88 16.88 0 0 1 15.3 0c2.07 1.2 3.12 2.77 3.13 4.36v54.7c0 1.62-1.07 3.23-3.2 4.46a16.88 16.88 0 0 1-15.3 0c-2.12-1.23-3.17-2.86-3.13-4.48z" class="cls-27"/><path d="M337.58 147.78c.1-3.78 2.66-7.54 7.67-10.43 10.2-5.9 26.68-5.92 36.8-.07 5 2.9 7.55 6.7 7.58 10.5v131.76c0 3.88-2.54 7.76-7.68 10.73-10.2 5.9-26.68 5.92-36.82.06-5.14-3-7.65-6.88-7.55-10.8z" class="cls-28"/><ellipse cx="363.61" cy="147.94" class="cls-29" rx="21.99" ry="12.7" transform="translate(-.8 1.97) rotate(-.31)"/><path d="M340.82 184.33c-.3-3.6 1.92-7.24 6.66-10 9-5.18 23.55-5.15 32.57.06 4.5 2.6 6.78 6 6.8 9.4v94.1c.1 3.47-2.13 6.93-6.7 9.56-9 5.18-23.53 5.15-32.56-.05-4.8-2.77-7.07-6.46-6.77-10.08z" class="cls-30"/><ellipse cx="363.82" cy="183.79" class="cls-30" rx="13.3" ry="23.03" transform="translate(178.06 546.6) rotate(-89.69)"/><ellipse cx="363.42" cy="280.59" class="cls-31" rx="13.47" ry="23.33" transform="translate(80.86 642.48) rotate(-89.69)"/><ellipse cx="363.42" cy="294.91" class="cls-32" rx="10.99" ry="19.04" transform="translate(66.55 656.72) rotate(-89.69)"/><ellipse cx="363.42" cy="307.22" class="cls-33" rx="8.52" ry="14.75" transform="translate(54.23 668.97) rotate(-89.69)"/><ellipse cx="363.42" cy="316.33" class="cls-34" rx="6.04" ry="10.46" transform="translate(45.12 678.03) rotate(-89.69)"/><ellipse cx="363.42" cy="323.84" class="cls-35" rx="3.56" ry="6.17" transform="translate(37.61 685.5) rotate(-89.69)"/><path d="M291.12 174.6c.1-3.76 2.67-7.53 7.67-10.42 10.2-5.88 26.67-5.9 36.8-.06 5 2.9 7.54 6.7 7.57 10.5v131.76c0 3.87-2.54 7.76-7.68 10.72-10.2 5.9-26.7 5.92-36.82.07-5.15-3-7.66-6.9-7.56-10.8z" class="cls-36"/><ellipse cx="317.15" cy="174.78" class="cls-37" rx="21.99" ry="12.7" transform="translate(-.94 1.72) rotate(-.31)"/><path d="M310.55 167.8a3.2 3.2 0 0 1 1.9-2.78 10.3 10.3 0 0 1 9.36 0 3.25 3.25 0 0 1 1.95 2.76v6.8a3.33 3.33 0 0 1-1.95 2.7 10.34 10.34 0 0 1-9.35 0 3.26 3.26 0 0 1-1.92-2.7v-6.78z" class="cls-38"/><ellipse cx="317.15" cy="167.26" class="cls-39" rx="3.35" ry="5.8" transform="translate(148.18 483.5) rotate(-89.69)"/><path d="M316.56 168.6v-24.84c0-22.17-9.85-29.6-22-22.6l-3.43 2c-12.15 7-22 25.83-22 42V228" class="cls-27"/><path d="M294.76 210.77c-.3-3.6 1.92-7.24 6.66-10 9-5.18 23.55-5.15 32.57.06 4.5 2.6 6.77 6 6.8 9.4v94.13c.08 3.45-2.14 6.92-6.7 9.55-9 5.18-23.54 5.16-32.56-.05-4.8-2.78-7.07-6.47-6.77-10.1z" class="cls-30"/><ellipse cx="317.76" cy="210.22" class="cls-30" rx="13.3" ry="23.03" transform="matrix(.01 -1 1 .01 105.82 526.84)"/><path d="M261.2 246.53c-.1-1.27.68-2.55 2.35-3.5A12.66 12.66 0 0 1 275 243c1.6.9 2.4 2.1 2.4 3.3v33.2c0 1.2-.76 2.43-2.37 3.36a12.72 12.72 0 0 1-11.48 0c-1.7-1-2.5-2.28-2.38-3.56z" class="cls-40"/><ellipse cx="269.31" cy="246.34" class="cls-41" rx="4.69" ry="8.12" transform="translate(21.51 514.31) rotate(-89.69)"/><ellipse cx="269.31" cy="228.72" class="cls-42" rx="1.96" ry="3.39" transform="matrix(.01 -1 1 .01 39.13 496.78)"/><path d="M340.7 198.94l-5.4 3.1v6.17l-2.22 1.3v-6.16l-5.38 3.1v-2.57l5.38-3.1v-6.17l2.23-1.3v6.18l5.4-3.1zM374.16 273.85l5.38-3.1v-6.17l2.23-1.3v6.17l5.38-3.1v2.57l-5.38 3.1v6.17l-2.23 1.28v-6.17l-5.38 3.1zM376 171.86l9.33-5.38V169l-9.33 5.42z" class="cls-43"/><path d="M338.88 300.93l-9.33 5.38v-2.55l9.33-5.4z" class="cls-45"/><path d="M526.27 508.75l-55.9 2v59.4h55.9z" class="cls-46"/><path d="M496.85 508.75l-26.5 1.88v55.5h26.5z" class="cls-47"/><path d="M498.84 494.34l-27.94 16.18c-.8.46-.7 1.26.22 1.8L494.7 526a3.42 3.42 0 0 0 3.1.13l27.93-16.18c.8-.46.7-1.26-.22-1.8l-23.57-13.64a3.45 3.45 0 0 0-3.1-.16z" class="cls-48"/><path d="M420.47 310.96V310" class="cls-49"/><path d="M420.47 308.1v-79.2" class="cls-50"/><path d="M420.47 227.96V227" class="cls-49"/><ellipse cx="420.39" cy="226.95" class="cls-51" rx="2.23" ry="3.86" transform="translate(-57.07 243.19) rotate(-30.31)"/><path d="M132.46 318.87L19.54 323v120h112.92z" class="cls-52"/><path d="M73 318.87l-53.5 3.8v112.1H73z" class="cls-53"/><path d="M77.06 289.77l-56.44 32.68c-1.6.93-1.4 2.55.44 3.62l47.64 27.57a6.88 6.88 0 0 0 6.23.26l56.45-32.68c1.6-.92 1.4-2.54-.44-3.6L83.3 290a6.93 6.93 0 0 0-6.24-.23z" class="cls-54"/><path d="M76.3 406.76L0 409.52v81.07h76.3z" class="cls-55"/><path d="M36.14 406.76L0 409.34v75.73h36.14z" class="cls-56"/><path d="M38.87 387.1L.73 409.2c-1.08.6-.95 1.7.3 2.43l32.2 18.63a4.65 4.65 0 0 0 4.2.17l38.14-22.08c1.08-.62 1-1.7-.3-2.44L43.1 387.3a4.7 4.7 0 0 0-4.23-.18z" class="cls-57"/><path d="M71.7 313.27l18.96-35.12L71.7 267.2v46.07z" class="cls-58"/><path d="M76.95 264.13l18.97 10.95-5.26 3.04-18.97-10.95 5.25-3.04z" class="cls-26"/><path d="M90.66 278.15l5.26-3.07-18.97 34.94-5.26 3.25 18.96-35.12zM75.56 223.73l5.26-3.08.1 45.6-5.26 3.24-.1-45.77z" class="cls-59"/><path d="M75.66 223.43l-18.97 35.1 18.96 10.96v-46.07z" class="cls-58"/><ellipse cx="76" cy="323.78" class="cls-60" rx="37.85" ry="24.16"/><path d="M423.46 170.94l-85.8-49.8c-3.72-2.14-5.66-5-5.92-8h-.06v6.54c.23 3 2.18 5.9 5.95 8.08l73.4 42.38 12.4 7.42c17.68 10.2 32.07 35.13 32.07 55.56V400c0 20.43-14.4 28.73-32.08 18.52l-85.8-49.75c-3.72-2.16-5.66-5-5.92-8h-.06v6.53c.23 3 2.18 5.9 5.95 8.08l73.4 42.38 12.35 7.4c20.86 12 37.82 2.24 37.82-21.84V236.45c.1-24.08-16.85-53.45-37.7-65.5z" class="cls-24"/><path d="M347.44 358.48l73.4 42.38 12.36 7.4c20.85 12 37.82 2.25 37.82-21.83v-166.9c0-24.08-17-53.47-37.82-65.5l-85.8-49.8c-3.73-2.15-5.67-5-5.93-8h-.06" class="cls-62"/><path d="M378.4 112.23h-.5a8.24 8.24 0 0 0-3.45-3.4c-5.23-3-13.68-3-18.88 0a8.06 8.06 0 0 0-3.43 3.43h-.45v2c0 2 1.32 3.93 3.93 5.43 5.23 3 13.68 3 18.88 0 2.62-1.52 3.92-3.5 3.9-5.48z" class="cls-24"/><ellipse cx="365.04" cy="112.23" class="cls-21" rx="7.71" ry="13.35" transform="translate(250.83 476.66) rotate(-89.69)"/><path d="M364.17 40.47l6.8-11.8h-13.6l6.8 11.8z" class="cls-63"/><path d="M364.17 32.78l6.8-11.8h-13.6l6.8 11.8z" class="cls-64"/><path d="M183.72 231v31.96l-17.34 12.14" class="cls-18"/><ellipse cx="183.72" cy="231.01" class="cls-65" rx="3.86" ry="2.23" transform="translate(-108.44 273.03) rotate(-59.69)"/><text class="cls-66" transform="matrix(0 -.99 .87 .5 301.18 303.08)">AAA HR03 1.2V 900m<tspan x="42.54" y="0" class="cls-67">A</tspan><tspan x="45.47" y="0">h</tspan></text><text class="cls-68" transform="matrix(0 -.99 .87 .5 350.18 283.08)">AAA HR03 1.2V 900m<tspan x="42.54" y="0" class="cls-67">A</tspan><tspan x="45.47" y="0">h</tspan></text></g></g></g></svg>