<svg xmlns="http://www.w3.org/2000/svg" xmlns:xlink="http://www.w3.org/1999/xlink" viewBox="0 0 1025.92 913.79"><defs><style>.cls-1{isolation:isolate;}.cls-10,.cls-11,.cls-2,.cls-4,.cls-44,.cls-60,.cls-63,.cls-7{mix-blend-mode:multiply;}.cls-3,.cls-68{fill:none;stroke-miterlimit:10;}.cls-3{stroke:#d4d4d4;stroke-width:1.09px;}.cls-10,.cls-4,.cls-44,.cls-60,.cls-63,.cls-66{opacity:0.4;}.cls-4{fill:url(#radial-gradient);}.cls-5{fill:#b4b4b4;}.cls-6{fill:url(#linear-gradient);}.cls-59,.cls-7{fill:#d4d4d4;}.cls-7{opacity:0.54;}.cls-8{fill:url(#linear-gradient-2);}.cls-9{fill:url(#linear-gradient-3);}.cls-10{fill:url(#radial-gradient-2);}.cls-11,.cls-67{opacity:0.5;}.cls-11{fill:url(#radial-gradient-3);}.cls-12,.cls-49{fill:#3b2727;}.cls-12,.cls-13,.cls-14,.cls-15,.cls-18,.cls-19,.cls-20,.cls-21,.cls-22,.cls-23,.cls-30,.cls-34,.cls-35,.cls-36,.cls-39,.cls-48,.cls-50,.cls-51,.cls-52,.cls-53,.cls-54,.cls-58{fill-rule:evenodd;}.cls-13{fill:#503a39;}.cls-14{fill:#dcd8cf;}.cls-15{fill:url(#linear-gradient-4);}.cls-16{fill:url(#linear-gradient-5);}.cls-17{fill:#e6e6e5;}.cls-18{fill:url(#linear-gradient-6);}.cls-19{fill:url(#linear-gradient-7);}.cls-20{fill:url(#linear-gradient-8);}.cls-21{fill:url(#linear-gradient-9);}.cls-22{fill:url(#linear-gradient-10);}.cls-23{fill:url(#linear-gradient-11);}.cls-24{fill:#f3f3f3;}.cls-25{fill:#fff;}.cls-26,.cls-36{fill:#c3c3c3;}.cls-27,.cls-66,.cls-67{fill:#de3926;}.cls-28{fill:#e26558;}.cls-29{fill:#a71e22;}.cls-30{fill:url(#linear-gradient-12);}.cls-31{fill:#e2e2e2;}.cls-32,.cls-53{fill:#989898;}.cls-33,.cls-34{fill:#1a1a1a;}.cls-35{fill:url(#linear-gradient-13);}.cls-37{fill:url(#linear-gradient-14);}.cls-38{fill:#3a191e;}.cls-39{fill:url(#linear-gradient-15);}.cls-40{fill:url(#linear-gradient-16);}.cls-41{fill:url(#linear-gradient-17);}.cls-42{fill:url(#linear-gradient-18);}.cls-43{fill:#e1887f;}.cls-44{fill:url(#radial-gradient-4);}.cls-45{fill:url(#linear-gradient-19);}.cls-46{fill:url(#linear-gradient-20);}.cls-47{fill:url(#linear-gradient-21);}.cls-48{fill:url(#linear-gradient-22);}.cls-50{fill:url(#linear-gradient-23);}.cls-51{fill:url(#linear-gradient-24);}.cls-52{fill:url(#linear-gradient-25);}.cls-54{fill:#da4726;}.cls-55{fill:url(#linear-gradient-26);}.cls-56{fill:url(#linear-gradient-27);}.cls-57{fill:url(#linear-gradient-28);}.cls-58{fill:url(#linear-gradient-29);}.cls-60{fill:url(#radial-gradient-5);}.cls-61{fill:url(#linear-gradient-30);}.cls-62{fill:url(#linear-gradient-31);}.cls-63{fill:url(#radial-gradient-6);}.cls-64{fill:url(#linear-gradient-32);}.cls-65{fill:url(#linear-gradient-33);}.cls-68{stroke:#e1887f;stroke-width:1.25px;stroke-dasharray:5.5;}.cls-69{fill:url(#linear-gradient-34);}.cls-70{fill:url(#linear-gradient-35);}.cls-71{fill:url(#linear-gradient-36);}.cls-72{fill:url(#linear-gradient-37);}.cls-73{fill:url(#linear-gradient-38);}</style><radialGradient id="radial-gradient" cx="264.02" cy="433.92" r="43.85" gradientTransform="matrix(0.01, 1, -0.64, 0, 539.88, 168.4)" gradientUnits="userSpaceOnUse"><stop offset="0" stop-color="#836b6a"/><stop offset="0.03" stop-color="#989898"/><stop offset="1" stop-color="#fff"/></radialGradient><linearGradient id="linear-gradient" x1="243.56" y1="373.71" x2="341.47" y2="358.2" gradientUnits="userSpaceOnUse"><stop offset="0.15" stop-color="#e6e6e5"/><stop offset="1" stop-color="#989898"/></linearGradient><linearGradient id="linear-gradient-2" x1="237.51" y1="335.5" x2="335.42" y2="320" xlink:href="#linear-gradient"/><linearGradient id="linear-gradient-3" x1="232.68" y1="304.97" x2="330.58" y2="289.47" xlink:href="#linear-gradient"/><radialGradient id="radial-gradient-2" cx="501.59" cy="525.42" r="120.31" gradientTransform="matrix(0.01, 1, -0.64, 0, 834.63, 22.03)" xlink:href="#radial-gradient"/><radialGradient id="radial-gradient-3" cx="675.75" cy="600.5" r="120.31" gradientTransform="matrix(1, -0.01, 0, 0.64, -4.11, 240.08)" gradientUnits="userSpaceOnUse"><stop offset="0.4" stop-color="#989898"/><stop offset="1" stop-color="#fff"/></radialGradient><linearGradient id="linear-gradient-4" x1="-5018.41" y1="430.82" x2="-4745.96" y2="430.82" gradientTransform="matrix(-1, 0, 0, 1, -4253.99, 0)" xlink:href="#linear-gradient"/><linearGradient id="linear-gradient-5" x1="-5018.42" y1="325.17" x2="-4680.69" y2="325.17" gradientTransform="matrix(-1, 0, 0, 1, -4253.99, 0)" gradientUnits="userSpaceOnUse"><stop offset="0.06" stop-color="#f3f3f3"/><stop offset="1" stop-color="#e6e6e5"/></linearGradient><linearGradient id="linear-gradient-6" x1="412.11" y1="502.64" x2="470.29" y2="502.64" gradientUnits="userSpaceOnUse"><stop offset="0" stop-color="#989898"/><stop offset="1" stop-color="#fff"/></linearGradient><linearGradient id="linear-gradient-7" x1="412.11" y1="506.81" x2="470.29" y2="506.81" xlink:href="#linear-gradient-6"/><linearGradient id="linear-gradient-8" x1="412.11" y1="511.11" x2="470.29" y2="511.11" xlink:href="#linear-gradient-6"/><linearGradient id="linear-gradient-9" x1="412.11" y1="515.35" x2="470.29" y2="515.35" xlink:href="#linear-gradient-6"/><linearGradient id="linear-gradient-10" x1="412.11" y1="519.52" x2="470.29" y2="519.52" xlink:href="#linear-gradient-6"/><linearGradient id="linear-gradient-11" x1="412.11" y1="523.81" x2="470.29" y2="523.81" xlink:href="#linear-gradient-6"/><linearGradient id="linear-gradient-12" x1="392.86" y1="437.45" x2="525.82" y2="437.45" gradientUnits="userSpaceOnUse"><stop offset="0" stop-color="#fff"/><stop offset="1" stop-color="#c3c3c3"/></linearGradient><linearGradient id="linear-gradient-13" x1="-4833.66" y1="549.71" x2="-4796.72" y2="549.71" gradientTransform="matrix(-1, 0, 0, 1, -4253.99, 0)" gradientUnits="userSpaceOnUse"><stop offset="0" stop-color="#333"/><stop offset="1" stop-color="#989898"/></linearGradient><linearGradient id="linear-gradient-14" x1="530" y1="533.64" x2="581.25" y2="533.64" gradientUnits="userSpaceOnUse"><stop offset="0" stop-color="#989898"/><stop offset="0.85" stop-color="#e6e6e5"/></linearGradient><linearGradient id="linear-gradient-15" x1="-5001.13" y1="452.18" x2="-4964.19" y2="452.18" xlink:href="#linear-gradient-13"/><linearGradient id="linear-gradient-16" x1="697.47" y1="436.35" x2="748.71" y2="436.35" xlink:href="#linear-gradient-14"/><linearGradient id="linear-gradient-17" x1="-4881.79" y1="419.01" x2="-4833.4" y2="419.01" gradientTransform="matrix(-1, 0, 0, 1, -4253.99, 0)" gradientUnits="userSpaceOnUse"><stop offset="0" stop-color="#f3f3f3"/><stop offset="1" stop-color="#c3c3c3"/></linearGradient><linearGradient id="linear-gradient-18" x1="-4811.84" y1="460.02" x2="-4756.93" y2="460.02" xlink:href="#linear-gradient-17"/><radialGradient id="radial-gradient-4" cx="201.96" cy="637.26" r="61.04" gradientTransform="translate(608.09 433.1) rotate(89.69) scale(1 0.64)" xlink:href="#radial-gradient"/><linearGradient id="linear-gradient-19" x1="563.23" y1="638.26" x2="568.14" y2="638.26" gradientTransform="matrix(1, 0, 0, 1, 0, 0)" xlink:href="#linear-gradient-13"/><linearGradient id="linear-gradient-20" x1="563.23" y1="625.46" x2="568.14" y2="625.46" gradientTransform="matrix(1, 0, 0, 1, 0, 0)" xlink:href="#linear-gradient-13"/><linearGradient id="linear-gradient-21" x1="563.23" y1="631.86" x2="568.14" y2="631.86" gradientTransform="matrix(1, 0, 0, 1, 0, 0)" xlink:href="#linear-gradient-13"/><linearGradient id="linear-gradient-22" x1="658.36" y1="654.69" x2="743.06" y2="654.69" gradientTransform="matrix(1, 0, 0, 1, 0, 0)" xlink:href="#linear-gradient-13"/><linearGradient id="linear-gradient-23" x1="595.99" y1="617.83" x2="687.53" y2="617.83" gradientTransform="matrix(1, 0, 0, 1, 0, 0)" xlink:href="#linear-gradient-13"/><linearGradient id="linear-gradient-24" x1="589.25" y1="619.93" x2="621.78" y2="597.38" xlink:href="#linear-gradient"/><linearGradient id="linear-gradient-25" x1="610.37" y1="649.51" x2="642.18" y2="627.46" xlink:href="#linear-gradient"/><linearGradient id="linear-gradient-26" x1="653.77" y1="690.66" x2="658.69" y2="690.66" gradientTransform="matrix(1, 0, 0, 1, 0, 0)" xlink:href="#linear-gradient-13"/><linearGradient id="linear-gradient-27" x1="653.77" y1="677.86" x2="658.69" y2="677.86" gradientTransform="matrix(1, 0, 0, 1, 0, 0)" xlink:href="#linear-gradient-13"/><linearGradient id="linear-gradient-28" x1="653.77" y1="684.26" x2="658.69" y2="684.26" gradientTransform="matrix(1, 0, 0, 1, 0, 0)" xlink:href="#linear-gradient-13"/><linearGradient id="linear-gradient-29" x1="617.47" y1="558.93" x2="730.01" y2="730.86" gradientUnits="userSpaceOnUse"><stop offset="0" stop-color="#989898"/><stop offset="0.01" stop-color="#a2a2a2"/><stop offset="0.05" stop-color="#bbbbba"/><stop offset="0.09" stop-color="#cececd"/><stop offset="0.13" stop-color="#dcdcdb"/><stop offset="0.19" stop-color="#e4e4e3"/><stop offset="0.29" stop-color="#e6e6e5"/><stop offset="1" stop-color="#989898"/></linearGradient><radialGradient id="radial-gradient-5" cx="340.6" cy="694.8" r="61.04" gradientTransform="translate(782.75 351.79) rotate(89.69) scale(1 0.64)" xlink:href="#radial-gradient"/><linearGradient id="linear-gradient-30" x1="13364.72" y1="681.09" x2="13374.93" y2="709.16" gradientTransform="translate(-12825.28)" xlink:href="#linear-gradient"/><linearGradient id="linear-gradient-31" x1="13354.14" y1="696.61" x2="13359.69" y2="711.86" gradientTransform="translate(-12825.28)" xlink:href="#linear-gradient"/><radialGradient id="radial-gradient-6" cx="844.02" cy="532.04" r="61.04" gradientTransform="translate(1179.44 -313.81) rotate(89.69) scale(1 0.64)" xlink:href="#radial-gradient"/><linearGradient id="linear-gradient-32" x1="13118.83" y1="517.88" x2="13129.04" y2="545.95" gradientTransform="translate(-12307.91)" xlink:href="#linear-gradient"/><linearGradient id="linear-gradient-33" x1="13108.24" y1="533.41" x2="13113.79" y2="548.66" gradientTransform="translate(-12307.91)" xlink:href="#linear-gradient"/><linearGradient id="linear-gradient-34" x1="696.94" y1="8.75" x2="722.54" y2="79.08" gradientUnits="userSpaceOnUse"><stop offset="0.15" stop-color="#e6e6e5"/><stop offset="1" stop-color="#b4b4b4"/></linearGradient><linearGradient id="linear-gradient-35" x1="633.66" y1="3.81" x2="673.91" y2="114.4" xlink:href="#linear-gradient-34"/><linearGradient id="linear-gradient-36" x1="591.96" y1="64.97" x2="613.83" y2="125.06" xlink:href="#linear-gradient-34"/><linearGradient id="linear-gradient-37" x1="13586.96" y1="431.78" x2="13595.06" y2="454.02" gradientTransform="translate(-13291.42)" xlink:href="#linear-gradient"/><linearGradient id="linear-gradient-38" x1="13578.58" y1="444.08" x2="13582.98" y2="456.17" gradientTransform="translate(-13291.42)" xlink:href="#linear-gradient"/></defs><title>Asset 1</title><g class="cls-1"><g id="Layer_2" data-name="Layer 2"><g id="Layer_1-2" data-name="Layer 1"><g class="cls-2"><line class="cls-3" x1="113.5" y1="519.21" x2="684.83" y2="847.35"/><line class="cls-3" x1="170.3" y1="486.51" x2="741.64" y2="814.66"/><line class="cls-3" x1="56.88" y1="552.19" x2="628.22" y2="880.33"/><line class="cls-3" x1="0.27" y1="585.17" x2="571.61" y2="913.31"/><line class="cls-3" x1="227.1" y1="453.81" x2="798.44" y2="781.96"/><line class="cls-3" x1="283.91" y1="421.12" x2="855.24" y2="749.27"/><line class="cls-3" x1="340.71" y1="388.42" x2="912.04" y2="716.57"/><line class="cls-3" x1="397.51" y1="355.73" x2="968.85" y2="683.87"/><line class="cls-3" x1="454.31" y1="323.03" x2="1025.65" y2="651.18"/></g><g class="cls-2"><line class="cls-3" x1="850.25" y1="458.46" x2="262.54" y2="799.56"/><line class="cls-3" x1="793.45" y1="425.77" x2="205.74" y2="766.86"/><line class="cls-3" x1="736.65" y1="393.07" x2="148.94" y2="734.17"/><line class="cls-3" x1="962.92" y1="524.64" x2="375.2" y2="865.74"/><line class="cls-3" x1="906.12" y1="491.95" x2="318.4" y2="833.04"/><line class="cls-3" x1="679.85" y1="360.38" x2="92.14" y2="701.47"/><line class="cls-3" x1="623.05" y1="327.68" x2="35.34" y2="668.78"/></g><ellipse class="cls-4" cx="264.02" cy="433.92" rx="27.52" ry="47.66" transform="translate(-171.32 695.58) rotate(-89.69)"/><path class="cls-5" d="M269.84,433.26h0v-30H258.19v30h0a2.8,2.8,0,0,0,1.71,2.62,9.09,9.09,0,0,0,8.25,0A2.75,2.75,0,0,0,269.84,433.26Z"/><path class="cls-6" d="M312.86,388.5a18.33,18.33,0,0,0-1.31-2.91,22.83,22.83,0,0,0-2.33-3.43l-2.78-4.1L298,365.59,293.52,359,277.21,335l-4.32-6.37L268.41,322l-3-4.46-7.52,11-6.12,9-14.51,21.27-.18.26-15.92,23.33a21.14,21.14,0,0,0-1.58,2.32c-5.83,9.79-1.93,21.12,11.68,29a46.48,46.48,0,0,0,4.16,2.14c19.07,8.77,46.83,8.12,64.36-2C311.62,406.92,316,397.37,312.86,388.5Z"/><path class="cls-7" d="M293.52,359l4.47,6.59a28.75,28.75,0,0,1-3.74,2.55c-13.29,7.67-34.88,7.63-48.23-.08-4.5-2.59-7.49-5.73-9-9-.09-.22-.19-.44-.27-.66-2.45-6.34.58-13.24,9.1-18.16a37.56,37.56,0,0,1,5.87-2.71A55.79,55.79,0,0,1,277.21,335a45.26,45.26,0,0,1,16.88,5.35,28,28,0,0,1,4.57,3.25C300.69,348.81,299,354.43,293.52,359Z"/><path class="cls-8" d="M298.66,343.55a14.83,14.83,0,0,0-.8-1.66h0l-.09-.14a16.66,16.66,0,0,0-1.5-2.22l-17.83-26.29-7.68-11.33-5.39-8-6.31,9.25-4.88,7.17-20,29.35a15.81,15.81,0,0,0-1,1.43l-.05.08h0c-3.35,5.63-2.14,12,3.64,17.13l.46.4a28.29,28.29,0,0,0,4.11,2.87c13.36,7.71,35,7.75,48.23.09a27.66,27.66,0,0,0,3.95-2.73C299,354.43,300.69,348.81,298.66,343.55Z"/><path class="cls-7" d="M278.45,313.24a9.93,9.93,0,0,1-1.9,1.39c-5.12,3-13.47,2.94-18.64,0a7.41,7.41,0,0,1-3.72-4.22l4.88-7.17a21.2,21.2,0,0,1,11.7-1.3Z"/><path class="cls-9" d="M277.93,304h0l-.09-.14a6.44,6.44,0,0,0-.45-.66l-12-17.72-12.14,17.78-.19.29-.14.2h0c-1.59,2.67-.54,5.75,3.16,7.88,5.17,3,13.51,3,18.64,0C278.32,309.57,279.38,306.59,277.93,304Z"/><ellipse class="cls-10" cx="501.59" cy="525.42" rx="75.5" ry="130.77" transform="translate(-26.55 1024.15) rotate(-89.69)"/><ellipse class="cls-11" cx="673.71" cy="620.15" rx="130.77" ry="75.5"/><polygon class="cls-12" points="401.22 514.45 401.34 513.27 401.51 512.09 401.72 510.9 401.98 509.7 402.28 508.5 402.62 507.3 403 506.1 403.43 504.91 403.89 503.72 404.38 502.53 404.92 501.36 405.49 500.2 406.09 499.05 406.72 497.92 407.38 496.8 408.08 495.71 408.8 494.64 409.55 493.59 410.33 492.56 411.13 491.57 411.95 490.61 412.8 489.68 413.67 488.78 414.56 487.92 415.46 487.1 416.39 486.32 417.33 485.58 418.29 484.89 419.26 484.24 420.24 483.64 422.2 482.63 424.1 481.87 425.93 481.35 427.69 481.08 429.36 481.05 430.93 481.24 432.41 481.66 433.76 482.3 441.66 486.87 446.69 489.77 419.65 536.61 409.98 531.03 409.98 531.02 406.72 529.14 405.49 528.29 404.38 527.22 403.43 525.96 402.62 524.49 401.98 522.83 401.51 520.99 401.22 518.96 401.12 516.76 401.14 515.61 401.22 514.45"/><path class="cls-13" d="M433.17,491.11c10.56-6.1,19.12-1.16,19.12,11s-8.56,27-19.12,33.12-19.12,1.15-19.12-11S422.61,497.21,433.17,491.11Z"/><path class="cls-14" d="M433.17,504c4.38-2.52,7.93-.47,7.93,4.58s-3.55,11.21-7.93,13.73-7.93.48-7.93-4.57A17.53,17.53,0,0,1,433.17,504Z"/><path class="cls-12" d="M433.17,508.72c2.14-1.24,3.87-.24,3.87,2.23a8.55,8.55,0,0,1-3.87,6.71c-2.14,1.24-3.87.23-3.87-2.24A8.53,8.53,0,0,1,433.17,508.72Z"/><polygon class="cls-15" points="764.42 284.91 764.42 419.43 491.97 576.72 491.97 509.46 525.79 422.68 764.42 284.91"/><polygon class="cls-16" points="764.43 284.9 525.82 422.67 426.71 365.45 665.32 227.68 764.43 284.9"/><polygon class="cls-17" points="491.97 509.46 491.97 576.72 392.86 519.5 392.86 452.24 491.97 509.46"/><polygon class="cls-18" points="470.29 520.67 412.11 487.08 412.11 484.62 470.29 518.21 470.29 520.67"/><polygon class="cls-19" points="470.29 522.38 470.29 524.83 412.11 491.25 412.11 488.79 470.29 522.38"/><polygon class="cls-20" points="470.29 529.13 412.11 495.54 412.11 493.09 470.29 526.67 470.29 529.13"/><polygon class="cls-21" points="470.29 530.91 470.29 533.37 412.11 499.78 412.11 497.33 470.29 530.91"/><polygon class="cls-22" points="470.29 537.54 412.11 503.95 412.11 501.5 470.29 535.08 470.29 537.54"/><polygon class="cls-23" points="470.29 541.83 412.11 508.25 412.11 505.79 470.29 539.38 470.29 541.83"/><polygon class="cls-24" points="451.1 543.39 451.1 556.97 415.88 536.64 415.88 523.07 451.1 543.39"/><polygon class="cls-25" points="452.99 542.31 451.1 543.4 415.88 523.07 417.78 521.98 452.99 542.31"/><polygon class="cls-26" points="452.99 555.88 451.1 556.97 451.1 543.4 452.99 542.3 452.99 555.88"/><polygon class="cls-27" points="409.71 516.07 409.71 521.55 395.49 513.34 395.49 507.86 409.71 516.07"/><polygon class="cls-28" points="410.48 515.63 409.71 516.07 395.49 507.86 396.25 507.41 410.48 515.63"/><polygon class="cls-29" points="410.48 521.11 409.71 521.55 409.71 516.07 410.48 515.63 410.48 521.11"/><polygon class="cls-27" points="477.02 557.53 462.79 549.32 462.79 543.84 477.02 552.05 477.02 557.53"/><polygon class="cls-28" points="477.78 551.61 477.02 552.05 462.8 543.84 463.56 543.4 477.78 551.61"/><polygon class="cls-29" points="477.78 557.09 477.02 557.54 477.02 552.05 477.78 551.61 477.78 557.09"/><polygon class="cls-24" points="404.73 490.04 404.73 504.82 390.43 496.56 390.43 481.79 404.73 490.04"/><polygon class="cls-25" points="406.79 488.87 404.73 490.06 390.43 481.8 392.49 480.61 406.79 488.87"/><polygon class="cls-26" points="406.79 503.64 404.73 504.83 404.73 490.05 406.79 488.86 406.79 503.64"/><polygon class="cls-24" points="489.91 532.5 489.91 547.27 475.61 539.02 475.61 524.24 489.91 532.5"/><polygon class="cls-25" points="491.97 531.32 489.91 532.51 475.61 524.26 477.67 523.07 491.97 531.32"/><polygon class="cls-26" points="491.97 546.09 489.91 547.28 489.91 532.5 491.97 531.31 491.97 546.09"/><polygon class="cls-30" points="525.82 422.67 491.97 509.46 392.86 452.24 426.71 365.45 525.82 422.67"/><polygon class="cls-31" points="680.85 279.6 661.39 290.84 637.28 276.92 656.74 265.68 680.85 279.6"/><polygon class="cls-26" points="661.39 290.84 661.39 295.71 637.28 281.79 637.28 276.92 661.39 290.84"/><polygon class="cls-32" points="680.86 284.47 661.4 295.71 661.4 290.84 680.86 279.6 680.86 284.47"/><polygon class="cls-5" points="676.54 279.79 674.95 280.7 654.83 269.09 656.42 268.17 676.54 279.79"/><polygon class="cls-5" points="673.93 281.3 672.34 282.21 652.22 270.59 653.81 269.67 673.93 281.3"/><polygon class="cls-5" points="671.15 282.9 669.56 283.82 649.43 272.2 651.02 271.28 671.15 282.9"/><polygon class="cls-5" points="668.54 284.41 666.95 285.33 646.83 273.71 648.42 272.79 668.54 284.41"/><polygon class="cls-5" points="665.91 285.93 664.32 286.85 644.19 275.23 645.78 274.31 665.91 285.93"/><polygon class="cls-5" points="663.3 287.44 661.71 288.35 641.58 276.73 643.17 275.81 663.3 287.44"/><path class="cls-33" d="M577.45,527.72l-4.24,2.43-16.14-11.78S575.92,508.8,577.45,527.72Z"/><polygon class="cls-34" points="530.34 550.93 530.46 549.79 530.62 548.65 530.83 547.5 531.07 546.34 531.36 545.18 531.69 544.02 532.06 542.87 532.47 541.71 532.92 540.56 533.4 539.42 533.91 538.28 534.46 537.16 535.04 536.05 535.65 534.96 536.3 533.88 536.97 532.83 537.66 531.79 538.38 530.78 539.13 529.79 539.91 528.83 540.71 527.9 541.52 527 542.36 526.13 543.22 525.3 544.1 524.51 544.99 523.75 545.9 523.04 546.83 522.37 547.76 521.75 548.71 521.17 550.61 520.19 552.44 519.46 554.21 518.96 555.91 518.7 557.52 518.66 559.04 518.85 560.47 519.26 561.78 519.88 569.4 524.28 574.27 527.09 548.14 572.34 538.8 566.94 538.8 566.94 535.65 565.12 534.46 564.3 533.4 563.27 532.47 562.04 531.69 560.63 531.07 559.03 530.62 557.25 530.34 555.29 530.24 553.16 530.27 552.05 530.34 550.93"/><path class="cls-35" d="M561.2,528.38c10.21-5.89,18.48-1.11,18.48,10.67s-8.27,26.1-18.48,32-18.47,1.12-18.47-10.66S551,534.27,561.2,528.38Z"/><path class="cls-36" d="M561.2,540.87c4.23-2.45,7.66-.47,7.66,4.42a17,17,0,0,1-7.66,13.27c-4.23,2.44-7.65.46-7.65-4.43A16.91,16.91,0,0,1,561.2,540.87Z"/><path class="cls-12" d="M561.2,545.39c2.07-1.19,3.75-.23,3.75,2.16A8.26,8.26,0,0,1,561.2,554c-2.06,1.19-3.74.23-3.74-2.16A8.27,8.27,0,0,1,561.2,545.39Z"/><path class="cls-24" d="M577.05,528l-4.16-2.44c.1-3.63-4.31-8.16-4.31-8.16C575.42,519.53,577.05,528,577.05,528Z"/><path class="cls-32" d="M565.83,510.28a21.71,21.71,0,0,1,12,7.72l-13.09-2.8c-24.9.94-34.77,39.74-34.77,39.74l-4.16-2.43,15-28.28S557.69,508.23,565.83,510.28Z"/><path class="cls-32" d="M552.25,512.33h0c.47-.27,19.43-9.8,24.83,10.82l-4.19,2.42c-4.6-17.54-19.76-9.08-20.6-8.59h0c-19.49,11.4-22.33,32.33-22.44,33.22l-4,2.31C525.87,552.25,529.36,525.71,552.25,512.33Z"/><path class="cls-37" d="M556.41,514.77h0c.46-.27,19.42-9.79,24.83,10.83l-4.2,2.42c-4.6-17.54-19.75-9.09-20.6-8.6h0C537,530.81,534.11,551.75,534,552.63l-4,2.31C530,554.68,533.53,528.14,556.41,514.77Z"/><path class="cls-38" d="M744.92,430.43l-4.24,2.43-16.14-11.77S743.39,411.52,744.92,430.43Z"/><polygon class="cls-34" points="697.8 453.4 697.92 452.26 698.08 451.12 698.29 449.97 698.54 448.81 698.83 447.65 699.16 446.49 699.53 445.33 699.94 444.18 700.38 443.03 700.86 441.89 701.38 440.75 701.93 439.63 702.51 438.52 703.12 437.43 703.76 436.35 704.43 435.29 705.13 434.26 705.85 433.24 706.6 432.26 707.38 431.3 708.17 430.37 708.99 429.47 709.83 428.6 710.69 427.77 711.56 426.98 712.46 426.22 713.37 425.51 714.29 424.84 715.23 424.21 716.18 423.64 718.07 422.66 719.9 421.92 721.67 421.43 723.37 421.16 724.99 421.13 726.51 421.32 727.93 421.73 729.24 422.35 736.87 426.75 741.73 429.56 715.61 474.8 706.27 469.41 706.26 469.41 703.12 467.59 701.93 466.77 700.86 465.74 699.94 464.51 699.16 463.1 698.54 461.5 698.08 459.72 697.8 457.76 697.71 455.63 697.73 454.52 697.8 453.4"/><path class="cls-39" d="M728.67,430.85c10.2-5.89,18.47-1.12,18.47,10.66s-8.27,26.11-18.47,32-18.47,1.12-18.47-10.67S718.47,436.74,728.67,430.85Z"/><path class="cls-36" d="M728.67,443.34c4.23-2.45,7.66-.47,7.66,4.42A16.92,16.92,0,0,1,728.67,461c-4.23,2.45-7.66.47-7.66-4.42A16.92,16.92,0,0,1,728.67,443.34Z"/><path class="cls-12" d="M728.67,447.86c2.07-1.19,3.74-.23,3.74,2.16a8.26,8.26,0,0,1-3.74,6.48c-2.07,1.19-3.74.23-3.74-2.16A8.25,8.25,0,0,1,728.67,447.86Z"/><path class="cls-24" d="M744.52,430.72l-4.17-2.43c.1-3.64-4.31-8.17-4.31-8.17C742.88,422.25,744.52,430.72,744.52,430.72Z"/><path class="cls-32" d="M733.3,413a21.67,21.67,0,0,1,12,7.71l-13.08-2.79c-24.91.93-34.77,39.74-34.77,39.74l-4.16-2.44,15-28.27S725.16,411,733.3,413Z"/><path class="cls-32" d="M719.71,415h0c.46-.27,19.42-9.79,24.83,10.83l-4.2,2.42c-4.6-17.54-19.75-9.09-20.59-8.6h0c-19.49,11.39-22.32,32.32-22.44,33.21l-4,2.31C693.34,455,696.83,428.42,719.71,415Z"/><path class="cls-40" d="M723.88,417.48h0c.47-.27,19.42-9.8,24.83,10.82l-4.19,2.42c-4.6-17.54-19.76-9.08-20.6-8.6h0c-19.48,11.4-22.32,32.33-22.43,33.21l-4,2.32C697.5,457.4,701,430.86,723.88,417.48Z"/><polygon class="cls-24" points="631.14 435.01 579.41 464.98 575.24 463.29 627.8 433.08 631.14 435.01"/><polygon class="cls-41" points="579.59 405.2 627.72 377.2 627.8 433.08 579.41 460.81 579.41 405.1 579.59 405.2"/><polygon class="cls-42" points="557.85 414.3 557.85 474.04 502.94 505.74 532.89 428.71 557.85 414.3"/><polygon class="cls-24" points="505.68 498.69 553.76 471.65 557.88 474.04 502.98 505.74 502.96 505.67 505.68 498.69"/><polygon class="cls-32" points="557.77 414.32 557.88 414.32 557.88 474.06 553.76 471.65 553.77 416.64 557.77 414.32"/><polygon class="cls-27" points="777.67 343.75 665 408.94 648.16 375.37 760.83 310.18 777.67 343.75"/><polygon class="cls-43" points="760.83 310.18 648.16 375.37 641.54 371.55 754.22 306.36 760.83 310.18"/><polygon class="cls-29" points="648.16 375.37 665 408.94 641.48 395.36 641.54 371.55 648.16 375.37"/><polygon class="cls-26" points="769.38 348.54 761.09 353.46 744.19 319.8 752.54 314.98 769.38 348.54"/><polygon class="cls-26" points="751.75 358.74 743.46 363.64 726.57 330 734.91 325.17 751.75 358.74"/><polygon class="cls-26" points="734.13 368.94 725.82 373.82 708.95 340.2 717.29 335.37 734.13 368.94"/><polygon class="cls-26" points="716.51 379.13 708.19 384 691.33 350.4 699.66 345.56 716.51 379.13"/><polygon class="cls-26" points="698.88 389.33 690.56 394.18 673.71 360.59 682.04 355.76 698.88 389.33"/><polygon class="cls-26" points="681.26 399.53 672.93 404.36 656.09 370.79 664.42 365.96 681.26 399.53"/><polygon class="cls-24" points="664.42 365.96 656.09 370.79 649.45 366.96 657.8 362.14 664.42 365.96"/><polygon class="cls-24" points="682.05 355.78 673.72 360.61 667.08 356.78 675.43 351.96 682.05 355.78"/><polygon class="cls-24" points="699.66 345.56 691.33 350.4 684.7 346.57 693.04 341.74 699.66 345.56"/><polygon class="cls-24" points="717.29 335.37 708.95 340.2 702.32 336.38 710.67 331.55 717.29 335.37"/><polygon class="cls-24" points="734.91 325.17 726.58 330.01 719.95 326.18 728.3 321.36 734.91 325.17"/><polygon class="cls-24" points="752.54 314.98 744.19 319.8 737.58 315.99 745.92 311.16 752.54 314.98"/><ellipse class="cls-44" cx="201.96" cy="637.26" rx="38.31" ry="66.35" transform="translate(-436.39 835.76) rotate(-89.69)"/><path class="cls-45" d="M567.42,637.25a3.86,3.86,0,0,0-3.47,0,1.06,1.06,0,0,0,0,2,3.79,3.79,0,0,0,3.47,0A1.06,1.06,0,0,0,567.42,637.25Z"/><path class="cls-46" d="M567.42,624.46a3.79,3.79,0,0,0-3.47,0,1.05,1.05,0,0,0,0,2,3.79,3.79,0,0,0,3.47,0A1.05,1.05,0,0,0,567.42,624.46Z"/><rect class="cls-47" x="563.23" y="625.46" width="4.92" height="12.8"/><polygon class="cls-48" points="658.36 680.48 743.06 628.91 670.11 630.59 658.36 680.48"/><ellipse class="cls-49" cx="743.81" cy="635.31" rx="2.46" ry="1.42"/><path class="cls-49" d="M741.36,628.41v6.9h4.91v-6.87a14.64,14.64,0,0,1-2.29.19A16.06,16.06,0,0,1,741.36,628.41Z"/><path class="cls-50" d="M614.06,584.49s-29.67,28.88-13,65.69c0,0,42.33,9.15,78.63-28S614.06,584.49,614.06,584.49Z"/><path class="cls-51" d="M563.23,628.32l37.86,21.86c8.2-18.54,9.58-57.85,9.58-57.85C564.29,564.9,563.23,628.32,563.23,628.32Z"/><path class="cls-52" d="M607.76,590.65s1.39,40.91,9.58,68.91l36,20.77C653.09,683,659.22,620.48,607.76,590.65Z"/><path class="cls-53" d="M601.09,650.18s7.78-14.29,9.31-52.53c0,0-3.32,40-10.51,51.84Z"/><path class="cls-54" d="M583.25,586.61l.5-.28S583.56,586.42,583.25,586.61Z"/><path class="cls-55" d="M658,689.65a3.88,3.88,0,0,0-3.48,0,1.06,1.06,0,0,0,0,2,3.88,3.88,0,0,0,3.48,0A1.06,1.06,0,0,0,658,689.65Z"/><path class="cls-56" d="M658,676.85a3.88,3.88,0,0,0-3.48,0,1.06,1.06,0,0,0,0,2,3.88,3.88,0,0,0,3.48,0A1.06,1.06,0,0,0,658,676.85Z"/><rect class="cls-57" x="653.77" y="677.86" width="4.92" height="12.8"/><path class="cls-58" d="M696,538.79s-16.75-9.45-27.52-4.47l-89.21,52.33c-19.26,11.29-16.41,47-16.41,47,4.83-46.12,22.35-48.35,25.65-48.36,4.72.17,11.19,1.43,19.3,5.39,0,0,48,23.47,45.76,95.32,0,0,41.86-51.6,92.75-57.49C746.27,628.48,743.14,563.55,696,538.79Z"/><path class="cls-5" d="M210.3,627.32c-5.76-3.34-15.11-3.34-20.87,0s-5.77,8.72,0,12,15.11,3.33,20.87,0S216.07,630.64,210.3,627.32Z"/><rect class="cls-5" x="185.1" y="513.71" width="29.53" height="119.63"/><polygon class="cls-24" points="199.86 597.49 199.86 415.88 135.6 562.86 199.86 597.49"/><polygon class="cls-59" points="199.86 597.49 264.13 562.86 199.86 415.88 199.86 597.49"/><polygon class="cls-24" points="199.86 535.92 199.86 379.74 144.6 506.14 199.86 535.92"/><polygon class="cls-59" points="199.86 535.92 255.13 506.14 199.86 379.74 199.86 535.92"/><polygon class="cls-24" points="199.86 452.37 199.86 355.43 165.56 433.88 199.86 452.37"/><polygon class="cls-59" points="199.86 452.37 234.17 433.88 199.86 355.43 199.86 452.37"/><polygon class="cls-7" points="174.39 438.64 199.86 461.03 225.34 438.64 199.86 452.37 174.39 438.64"/><polygon class="cls-7" points="157.4 513.01 199.86 549.47 242.33 513.01 199.86 535.9 157.4 513.01"/><ellipse class="cls-60" cx="340.6" cy="694.8" rx="38.31" ry="66.35" transform="translate(-356.03 1031.63) rotate(-89.69)"/><path class="cls-5" d="M349,684.85c-5.77-3.33-15.11-3.33-20.88,0s-5.77,8.72,0,12,15.11,3.33,20.88,0S354.71,688.18,349,684.85Z"/><rect class="cls-5" x="323.75" y="571.24" width="29.53" height="119.63"/><polygon class="cls-24" points="338.51 655.02 338.51 515.97 274.25 628.5 338.51 655.02"/><polygon class="cls-59" points="338.51 655.02 402.77 628.5 338.51 515.97 338.51 655.02"/><polygon class="cls-24" points="338.51 607.88 338.51 488.29 283.24 585.08 338.51 607.88"/><polygon class="cls-59" points="338.51 607.88 393.78 585.08 338.51 488.29 338.51 607.88"/><polygon class="cls-24" points="338.51 543.9 338.51 469.68 304.21 529.75 338.51 543.9"/><polygon class="cls-59" points="338.51 543.9 372.81 529.75 338.51 469.68 338.51 543.9"/><polygon class="cls-7" points="313.04 533.39 338.51 550.54 363.99 533.39 338.51 543.9 313.04 533.39"/><polygon class="cls-7" points="296.04 590.34 338.51 618.25 380.98 590.34 338.51 607.86 296.04 590.34"/><path class="cls-61" d="M563.47,698.28c0,.34,0,.68,0,1-.37,2.35-2.1,4.64-5.22,6.44-7.08,4.09-18.59,4.07-25.72-.05-3.34-1.93-5.12-4.41-5.34-6.93h0c0-.15,0-.31,0-.47s0-.44,0-.66a18.16,18.16,0,0,1,36.29-.16C563.46,697.73,563.47,698,563.47,698.28Z"/><path class="cls-62" d="M541.92,706v0c0,1.45-1,2.89-2.87,4a15.48,15.48,0,0,1-14,0c-1.92-1.11-2.9-2.57-2.91-4v0a9.88,9.88,0,0,1,19.75,0Z"/><ellipse class="cls-63" cx="844.02" cy="532.04" rx="38.31" ry="66.35" transform="translate(307.41 1373.17) rotate(-89.69)"/><path class="cls-5" d="M852.37,522.09c-5.77-3.33-15.11-3.33-20.88,0s-5.76,8.73,0,12.06,15.11,3.33,20.88,0S858.13,525.42,852.37,522.09Z"/><rect class="cls-5" x="827.17" y="408.49" width="29.53" height="119.63"/><polygon class="cls-24" points="841.93 492.27 841.93 353.21 777.67 465.75 841.93 492.27"/><polygon class="cls-59" points="841.93 492.27 906.19 465.75 841.93 353.21 841.93 492.27"/><polygon class="cls-24" points="841.93 445.13 841.93 325.54 786.66 422.32 841.93 445.13"/><polygon class="cls-59" points="841.93 445.13 897.2 422.32 841.93 325.54 841.93 445.13"/><polygon class="cls-24" points="841.93 381.15 841.93 306.93 807.63 366.99 841.93 381.15"/><polygon class="cls-59" points="841.93 381.15 876.23 366.99 841.93 306.93 841.93 381.15"/><polygon class="cls-7" points="816.46 370.64 841.93 387.79 867.41 370.64 841.93 381.15 816.46 370.64"/><polygon class="cls-7" points="799.47 427.58 841.93 455.5 884.4 427.58 841.93 445.11 799.47 427.58"/><path class="cls-64" d="M835,535.08c0,.34,0,.67,0,1-.37,2.35-2.1,4.64-5.22,6.43-7.08,4.09-18.59,4.07-25.72,0-3.34-1.93-5.12-4.41-5.35-6.93h0v-.47c0-.23,0-.45,0-.67a18.16,18.16,0,0,1,36.29-.16C834.94,534.53,835,534.8,835,535.08Z"/><path class="cls-65" d="M813.4,542.76v0c0,1.44-1,2.89-2.87,4a15.42,15.42,0,0,1-14,0c-1.92-1.11-2.9-2.56-2.91-4v0a9.88,9.88,0,0,1,19.75,0Z"/><ellipse class="cls-66" cx="595.99" cy="604.39" rx="20.36" ry="35.27" transform="matrix(0.86, -0.5, 0.5, 0.86, -223.56, 383.41)"/><ellipse class="cls-66" cx="595.99" cy="604.39" rx="13.73" ry="23.77" transform="translate(-223.56 383.41) rotate(-30.31)"/><ellipse class="cls-67" cx="595.99" cy="604.39" rx="6.24" ry="10.8" transform="translate(-223.56 383.41) rotate(-30.31)"/><ellipse class="cls-66" cx="433.17" cy="377.2" rx="20.36" ry="35.27" transform="translate(-131.16 270.18) rotate(-30.31)"/><ellipse class="cls-66" cx="433.17" cy="377.2" rx="13.73" ry="23.77" transform="translate(-131.16 270.18) rotate(-30.31)"/><ellipse class="cls-67" cx="433.17" cy="377.2" rx="6.24" ry="10.8" transform="matrix(0.86, -0.5, 0.5, 0.86, -131.16, 270.18)"/><ellipse class="cls-66" cx="338.51" cy="474.06" rx="20.36" ry="35.27" transform="translate(-137.37 810) rotate(-89.69)"/><ellipse class="cls-66" cx="338.51" cy="474.06" rx="13.73" ry="23.78" transform="matrix(0.01, -1, 1, 0.01, -137.37, 810)"/><ellipse class="cls-67" cx="338.51" cy="474.06" rx="6.24" ry="10.8" transform="translate(-137.37 810) rotate(-89.69)"/><path class="cls-68" d="M686.3,48.33l-34.64,20C621,86,596.12,128.92,596.12,164.12V607.43"/><path class="cls-68" d="M435.28,381V245.37c0-35.2,24.87-78.09,55.54-95.8L609.05,81.31"/><path class="cls-68" d="M337,474.06V302.55c0-35.2,24.87-78.09,55.54-95.8l118.23-68.26"/><path class="cls-69" d="M757.19,51.86c0,.27,0,.53,0,.8-.27,6.48-4.68,12.91-13.23,17.86-17.73,10.24-46.57,10.18-64.42-.12-8.4-4.84-12.86-11.1-13.39-17.43h0c0-.37,0-.73,0-1.1,0-.54,0-1.06,0-1.59a45.53,45.53,0,0,1,91,1.59Z"/><path class="cls-70" d="M728.34,71.56c0,1.33,0,2.66-.11,4-1.45,9.26-8.29,18.28-20.55,25.36-27.9,16.11-73.28,16-101.35-.19-13.16-7.6-20.2-17.38-21.07-27.3h0c0-.61,0-1.23,0-1.84,0-.89,0-1.76,0-2.64a71.55,71.55,0,0,1,143-.61C728.31,69.38,728.34,70.48,728.34,71.56Z"/><path class="cls-71" d="M643.43,101.81v.2c0,5.7-3.8,11.39-11.31,15.73-15.15,8.75-39.78,8.71-55-.1-7.59-4.38-11.43-10.11-11.48-15.83v-.18a38.91,38.91,0,0,1,77.82.18Z"/><path class="cls-72" d="M314.59,445.41c0,.26,0,.53,0,.8-.29,1.86-1.66,3.67-4.13,5.1-5.61,3.24-14.74,3.22-20.38,0-2.65-1.53-4.06-3.49-4.24-5.49h0v-.37c0-.18,0-.36,0-.53a14.39,14.39,0,0,1,28.75-.13C314.58,445,314.59,445.19,314.59,445.41Z"/><path class="cls-73" d="M297.51,451.49v0a3.88,3.88,0,0,1-2.28,3.17,12.24,12.24,0,0,1-11.06,0,3.94,3.94,0,0,1-2.31-3.19v0a7.83,7.83,0,0,1,15.65,0Z"/><path class="cls-24" d="M323.75,65.68c-14.91-2.92-23.67-11.68-26.6-26.59h-2.22C292,54,283.25,62.76,268.34,65.68V67.9c14.91,2.93,23.67,11.69,26.59,26.6h2.22c2.93-14.91,11.69-23.67,26.6-26.6Z"/><path class="cls-24" d="M359.1,91.48c-8.05-1.58-12.78-6.31-14.35-14.35h-1.2c-1.58,8-6.31,12.77-14.35,14.35v1.2c8,1.57,12.77,6.3,14.35,14.35h1.2c1.57-8,6.3-12.78,14.35-14.35Z"/><path class="cls-24" d="M784.33,126.89c-8.05-1.58-12.78-6.3-14.35-14.35h-1.2c-1.58,8-6.31,12.77-14.35,14.35v1.2c8,1.58,12.77,6.31,14.35,14.35H770c1.57-8,6.3-12.77,14.35-14.35Z"/><path class="cls-24" d="M180.52,245.53c-8.05-1.58-12.78-6.31-14.36-14.36H165c-1.57,8.05-6.3,12.78-14.35,14.36v1.2c8,1.57,12.78,6.3,14.35,14.35h1.2c1.58-8,6.31-12.78,14.36-14.35Z"/></g></g></g></svg>