<?xml version="1.0" encoding="utf-8"?>
<!-- Generator: Adobe Illustrator 23.0.0, SVG Export Plug-In . SVG Version: 6.00 Build 0)  -->
<svg version="1.1" id="Layer_1" xmlns="http://www.w3.org/2000/svg" xmlns:xlink="http://www.w3.org/1999/xlink" x="0px" y="0px"
	 width="735.8px" height="967.6px" viewBox="0 0 735.8 967.6" style="enable-background:new 0 0 735.8 967.6;" xml:space="preserve"
	>
<style type="text/css">
	.st0{fill:#999999;}
	.st1{fill:none;stroke:#E2887F;stroke-width:0.77;stroke-miterlimit:10;stroke-dasharray:3.38;}
	.st2{fill:url(#SVGID_1_);}
	.st3{fill:none;stroke:#E2887F;stroke-width:0.83;stroke-miterlimit:10;stroke-dasharray:3.65;}
	.st4{fill:url(#SVGID_2_);}
	.st5{opacity:0.1;fill:url(#SVGID_3_);enable-background:new    ;}
	.st6{opacity:0.5;}
	.st7{fill:none;stroke:#E2887F;stroke-width:0.38;stroke-miterlimit:10;}
	.st8{opacity:0.4;fill:url(#SVGID_6_);enable-background:new    ;}
	.st9{fill-rule:evenodd;clip-rule:evenodd;fill:url(#SVGID_7_);fill-opacity:6.000000e-02;}
	.st10{opacity:0.5;fill-rule:evenodd;clip-rule:evenodd;fill:url(#SVGID_8_);fill-opacity:9.000000e-02;enable-background:new    ;}
	.st11{fill:none;stroke:#E2887F;stroke-width:0.75;stroke-miterlimit:10;}
	.st12{fill:url(#SVGID_9_);}
	.st13{fill:url(#SVGID_10_);}
	.st14{fill:#E0341B;}
	.st15{fill:#252532;}
	.st16{fill:#E26558;}
	.st17{opacity:0.5;fill:#FFFFFF;enable-background:new    ;}
	.st18{opacity:0.8;fill:#FFFFFF;enable-background:new    ;}
	.st19{opacity:0.6;fill:#FFFFFF;enable-background:new    ;}
	.st20{fill:url(#SVGID_11_);}
	.st21{fill:url(#SVGID_12_);}
	.st22{fill:#FFFFFF;}
	.st23{fill:#E6E6E6;}
	.st24{fill:#CCCCCC;}
	.st25{fill:url(#SVGID_13_);}
	.st26{fill:none;stroke:#E26558;stroke-width:0.75;stroke-miterlimit:10;}
	.st27{opacity:0.8;}
	.st28{fill:url(#SVGID_14_);}
	.st29{fill:none;stroke:url(#SVGID_15_);stroke-miterlimit:10;}
	.st30{fill:none;stroke:url(#SVGID_16_);stroke-miterlimit:10;}
	.st31{fill:none;stroke:url(#SVGID_17_);stroke-miterlimit:10;}
	.st32{fill:none;stroke:url(#SVGID_18_);stroke-miterlimit:10;}
	.st33{opacity:0.2;fill:#FFFFFF;enable-background:new    ;}
	.st34{fill:none;stroke:#FFFFFF;stroke-width:0.81;stroke-miterlimit:10;}
	.st35{fill:url(#SVGID_19_);}
	.st36{fill:none;stroke:#E2887F;stroke-width:0.83;stroke-miterlimit:10;}
	.st37{fill:#B3B3B3;}
	.st38{fill:url(#SVGID_20_);}
	.st39{fill:url(#SVGID_21_);}
	.st40{fill:url(#SVGID_22_);}
	.st41{fill:url(#SVGID_23_);}
	.st42{fill:url(#SVGID_24_);}
	.st43{fill-rule:evenodd;clip-rule:evenodd;fill:url(#SVGID_25_);fill-opacity:6.000000e-02;}
	.st44{fill-rule:evenodd;clip-rule:evenodd;fill:url(#SVGID_26_);fill-opacity:9.000000e-02;}
	.st45{fill-rule:evenodd;clip-rule:evenodd;fill:#F2F2F2;}
	.st46{fill:url(#SVGID_27_);}
	.st47{fill:url(#SVGID_28_);}
	.st48{fill:url(#SVGID_29_);}
	.st49{fill:url(#SVGID_30_);}
	.st50{fill:none;}
	.st51{fill:url(#SVGID_31_);}
	.st52{fill:url(#SVGID_32_);}
	.st53{fill:url(#SVGID_33_);}
	.st54{fill:url(#SVGID_34_);}
	.st55{fill:url(#SVGID_35_);}
	.st56{fill:#E40427;}
	.st57{fill:url(#SVGID_36_);}
	.st58{fill:url(#SVGID_37_);}
	.st59{fill:url(#SVGID_38_);}
	.st60{fill:none;stroke:#E2887F;stroke-width:0.77;stroke-miterlimit:10;}
	.st61{fill:url(#SVGID_39_);}
	.st62{fill:url(#SVGID_40_);}
	.st63{fill:url(#SVGID_41_);}
	.st64{fill:url(#SVGID_42_);}
	.st65{fill:url(#SVGID_43_);}
	.st66{fill:url(#SVGID_44_);}
	.st67{fill-rule:evenodd;clip-rule:evenodd;fill:url(#SVGID_45_);fill-opacity:6.000000e-02;}
	.st68{fill-rule:evenodd;clip-rule:evenodd;fill:url(#SVGID_46_);fill-opacity:6.000000e-02;}
	.st69{fill-rule:evenodd;clip-rule:evenodd;fill:url(#SVGID_47_);}
	.st70{fill-rule:evenodd;clip-rule:evenodd;fill:url(#SVGID_48_);fill-opacity:6.000000e-02;}
</style>
<title>data-driven</title>
<g>
</g>
<g>
	<path class="st0" d="M597.6,566.4h2.4l2.4,11h0.3l2.4-11h2.4l-2.8,12.2h-4.3L597.6,566.4z"/>
	<path class="st0" d="M609.1,566.4h8.1v2.2h-2.9v7.8h2.9v2.2h-8.1v-2.2h2.9v-7.8h-2.9V566.4z"/>
	<path class="st0" d="M626,570.1c0-0.5-0.2-0.9-0.6-1.3c-0.4-0.4-0.9-0.5-1.6-0.5c-0.6,0-1,0.1-1.4,0.4s-0.5,0.6-0.5,1
		c0,0.2,0,0.4,0.1,0.6s0.2,0.3,0.4,0.5c0.2,0.1,0.5,0.3,0.8,0.4s0.8,0.2,1.3,0.3c1.3,0.2,2.3,0.6,2.9,1.2c0.7,0.5,1,1.4,1,2.4v0.2
		c0,0.6-0.1,1.1-0.3,1.5c-0.2,0.5-0.5,0.9-0.9,1.2s-0.8,0.6-1.4,0.7s-1.2,0.3-1.8,0.3c-0.8,0-1.5-0.1-2.1-0.3s-1.1-0.5-1.5-0.9
		s-0.7-0.9-0.9-1.4s-0.3-1.1-0.3-1.8v-0.5h2.3v0.4c0,0.7,0.2,1.3,0.6,1.8s1.1,0.7,2,0.7c0.7,0,1.2-0.2,1.5-0.5s0.5-0.7,0.5-1.1
		c0-0.2,0-0.4-0.1-0.6c-0.1-0.2-0.2-0.3-0.4-0.5c-0.2-0.1-0.4-0.3-0.7-0.4s-0.7-0.2-1.1-0.3c-0.6-0.1-1.2-0.2-1.7-0.4
		s-1-0.4-1.3-0.7s-0.7-0.6-0.9-1s-0.3-0.9-0.3-1.5v-0.1c0-0.5,0.1-1,0.3-1.4s0.5-0.8,0.9-1.1s0.8-0.6,1.3-0.7
		c0.5-0.2,1.1-0.3,1.7-0.3c0.7,0,1.4,0.1,1.9,0.3c0.6,0.2,1,0.5,1.4,0.8s0.7,0.7,0.9,1.2s0.3,0.9,0.3,1.4v0.6H626V570.1z"/>
	<path class="st0" d="M638.9,566.4v8c0,1.4-0.4,2.5-1.1,3.3c-0.7,0.8-1.8,1.2-3.3,1.2s-2.5-0.4-3.3-1.2c-0.7-0.8-1.1-1.9-1.1-3.3v-8
		h2.3v8c0,0.7,0.2,1.3,0.5,1.7s0.9,0.6,1.6,0.6s1.2-0.2,1.6-0.6c0.3-0.4,0.5-1,0.5-1.7v-8H638.9z"/>
	<path class="st0" d="M647.3,575.9h-4.1l-0.6,2.6h-2.4l2.9-12.2h4.3l2.9,12.2h-2.4L647.3,575.9z M643.6,573.7h3.2l-1.4-6.2H645
		L643.6,573.7z"/>
	<path class="st0" d="M651.9,566.4h2.3v10h5.5v2.2h-7.8V566.4z"/>
	<path class="st0" d="M662.4,566.4h8.1v2.2h-2.9v7.8h2.9v2.2h-8.1v-2.2h2.9v-7.8h-2.9V566.4z"/>
	<path class="st0" d="M672.7,566.4h8.7v3.8l-6.9,5.9v0.3h7.1v2.2h-9v-3.8l6.9-5.9v-0.3h-6.8V566.4z"/>
	<path class="st0" d="M689.9,575.9h-4.1l-0.6,2.6h-2.4l2.9-12.2h4.3l2.9,12.2h-2.4L689.9,575.9z M686.2,573.7h3.2l-1.4-6.2h-0.3
		L686.2,573.7z"/>
	<path class="st0" d="M694.1,566.4h8.8v2.2h-3.2v10h-2.3v-10h-3.2L694.1,566.4L694.1,566.4z"/>
	<path class="st0" d="M705,566.4h8.1v2.2h-2.9v7.8h2.9v2.2H705v-2.2h2.9v-7.8H705V566.4z"/>
	<path class="st0" d="M715.3,571.1c0-1.6,0.4-2.8,1.2-3.7s1.9-1.3,3.3-1.3s2.5,0.4,3.3,1.3c0.8,0.9,1.2,2.1,1.2,3.7v2.7
		c0,1.6-0.4,2.9-1.2,3.7s-1.9,1.3-3.3,1.3s-2.5-0.4-3.3-1.3s-1.2-2.1-1.2-3.7V571.1z M719.8,576.7c0.4,0,0.8-0.1,1-0.2
		s0.5-0.3,0.7-0.6c0.2-0.2,0.3-0.5,0.4-0.9c0.1-0.3,0.1-0.7,0.1-1.1v-3c0-0.4,0-0.7-0.1-1.1c-0.1-0.3-0.2-0.6-0.4-0.9
		c-0.2-0.2-0.4-0.4-0.7-0.6s-0.6-0.2-1-0.2s-0.7,0.1-1,0.2s-0.5,0.3-0.7,0.6c-0.2,0.2-0.3,0.5-0.4,0.9s-0.1,0.7-0.1,1.1v3
		c0,0.4,0,0.8,0.1,1.1s0.2,0.6,0.4,0.9c0.2,0.2,0.4,0.4,0.7,0.6S719.4,576.7,719.8,576.7z"/>
	<path class="st0" d="M732.1,577.4h0.3v-11h2.3v12.2h-4.5l-1.4-11h-0.3v11h-2.3v-12.2h4.5L732.1,577.4z"/>
</g>
<g>
	<path class="st1" d="M79.9,965.5l221.5-127.9c19.8-11.4,32-32.6,32-55.4V625.8"/>
	
		<linearGradient id="SVGID_1_" gradientUnits="userSpaceOnUse" x1="-548.0228" y1="-3075.866" x2="-534.4028" y2="-3075.866" gradientTransform="matrix(0.87 0.5 -1 0.58 -2529.8901 3015.53)">
		<stop  offset="0" style="stop-color:#E26558"/>
		<stop  offset="1" style="stop-color:#E0341B"/>
	</linearGradient>
	<polygon class="st2" points="76.5,967.6 92.6,965.1 80.8,958.3 	"/>
	<line class="st3" x1="524.2" y1="483.2" x2="524.2" y2="304.9"/>
	
		<linearGradient id="SVGID_2_" gradientUnits="userSpaceOnUse" x1="1557.3802" y1="-3668.4028" x2="1573.817" y2="-3668.4028" gradientTransform="matrix(0.87 0.5 0 1.15 -831.77 3820.3301)">
		<stop  offset="0" style="stop-color:#E26558"/>
		<stop  offset="1" style="stop-color:#E0341B"/>
	</linearGradient>
	<polygon class="st4" points="524.2,388 531.3,378 517,369.8 	"/>
	<line class="st3" x1="502" y1="512.4" x2="502" y2="334.1"/>
	<line class="st3" x1="546" y1="511.5" x2="546" y2="295.3"/>
	<path class="st1" d="M259,473.5V319.2c0-15.2-8.1-29.3-21.3-36.9L86,194.7c-24.4-14.1-39.4-40.1-39.4-68.3V58.3"/>
	<path class="st1" d="M286.9,454V299.8c0-15.2-8.1-29.3-21.3-36.9L114,175.3c-24.4-14.1-39.4-40.1-39.4-68.3V0"/>
	
		<linearGradient id="SVGID_3_" gradientUnits="userSpaceOnUse" x1="362.2314" y1="180.4931" x2="492.9398" y2="-45.8889" gradientTransform="matrix(1 0 0 1 0 372)">
		<stop  offset="0" style="stop-color:#A7231C"/>
		<stop  offset="0.13" style="stop-color:#B03933"/>
		<stop  offset="0.4" style="stop-color:#C6726D"/>
		<stop  offset="0.79" style="stop-color:#EACCCA"/>
		<stop  offset="1" style="stop-color:#FFFFFF"/>
	</linearGradient>
	<path class="st5" d="M354.4,547.4l100.2-57.8c11.1-6.4,20.1-21.9,20.1-34.6V333.6l-6.2-21.6l-32.2,40.4v81c0,12.7-9,28.2-20.1,34.6
		L316,525.8L354.4,547.4z"/>
	<g class="st6">
		<path class="st7" d="M442.7,315.5v121.3c0,12.7-9,28.2-20.1,34.6l-100.2,57.8"/>
		<path class="st7" d="M449,319v121.4c0,12.7-9,28.2-20.1,34.6l-100.1,57.8"/>
		<path class="st7" d="M455.4,322.5v121.3c0,12.7-9,28.2-20.1,34.6l-100.2,57.8"/>
		<path class="st7" d="M461.8,326v121.4c0,12.7-9,28.2-20.1,34.6l-100.2,57.8"/>
		<path class="st7" d="M468.2,329.5v121.3c0,12.7-9,28.2-20.1,34.6l-100.2,57.8"/>
		<g>
			<g>
				<defs>
					<path id="SVGID_4_" d="M354.4,547.4l100.2-57.8c11.1-6.4,20.1-21.9,20.1-34.6V333.6l-6.2-21.6l-32.2,40.4v81
						c0,12.7-9,28.2-20.1,34.6L316,525.8L354.4,547.4z"/>
				</defs>
				<clipPath id="SVGID_5_">
					<use xlink:href="#SVGID_4_"  style="overflow:visible;"/>
				</clipPath>
			</g>
		</g>
	</g>
	
		<radialGradient id="SVGID_6_" cx="313.0178" cy="30.0671" r="58.17" gradientTransform="matrix(1 -4.589402e-03 -3.462689e-03 0.64 -5.985505e-03 591.9134)" gradientUnits="userSpaceOnUse">
		<stop  offset="0" style="stop-color:#826A6A"/>
		<stop  offset="3.000000e-02" style="stop-color:#999999"/>
		<stop  offset="1" style="stop-color:#FFFFFF"/>
	</radialGradient>
	<path class="st8" d="M251.8,610.2c0.1-20.2,28.5-36.3,63.4-36.2c34.9,0.2,63.1,16.7,63,36.8s-28.5,36.3-63.4,36.2
		S251.7,630.4,251.8,610.2z"/>
	
		<linearGradient id="SVGID_7_" gradientUnits="userSpaceOnUse" x1="-3614.0791" y1="-2537.3821" x2="-3614.0591" y2="-2538.1021" gradientTransform="matrix(152 0 0 -167 549441.8125 -423301.0313)">
		<stop  offset="4.000000e-02" style="stop-color:#1A1A1A"/>
		<stop  offset="0.97" style="stop-color:#999999;stop-opacity:0"/>
	</linearGradient>
	<path class="st9" d="M46.6,413.9l112-35.2v189.6h-112C46.6,568.3,46.6,413.9,46.6,413.9z"/>
	
		<linearGradient id="SVGID_8_" gradientUnits="userSpaceOnUse" x1="-3588.0862" y1="-2538.8457" x2="-3587.6262" y2="-2539.2856" gradientTransform="matrix(72 0 0 -156 258426.8125 -395619.625)">
		<stop  offset="0" style="stop-color:#333333"/>
		<stop  offset="0.14" style="stop-color:#454545;stop-opacity:0.82"/>
		<stop  offset="0.66" style="stop-color:#828282;stop-opacity:0.23"/>
		<stop  offset="0.95" style="stop-color:#999999;stop-opacity:0"/>
	</linearGradient>
	<path class="st10" d="M50.1,448.8l108.4-50.4v98.9L50.1,563.8V448.8z"/>
	<path class="st11" d="M354.7,547.2l100.2-57.8C466,483,475,467.5,475,454.8V333.4"/>
	<path class="st11" d="M436.3,312v121.4c0,12.7-9,28.2-20.1,34.6L316,525.8"/>
	<line class="st1" x1="198.4" y1="422.4" x2="242.3" y2="395.5"/>
	
		<linearGradient id="SVGID_9_" gradientUnits="userSpaceOnUse" x1="247.7" y1="30.2768" x2="407.6" y2="30.2768" gradientTransform="matrix(1 0 0 1 0 372)">
		<stop  offset="0" style="stop-color:#E26558"/>
		<stop  offset="1" style="stop-color:#E0341B"/>
	</linearGradient>
	<path class="st12" d="M399,391.3l-68.7-39.6c-4-2.3-7.8-0.9-10,0.1c-0.6,0.2-1.1,0.6-1.6,0.9l-71,41.4l60.2,33.3l7.2,4.3v22.4
		l92.5-53.4C405.6,396.9,402.7,393.6,399,391.3z"/>
	
		<linearGradient id="SVGID_10_" gradientUnits="userSpaceOnUse" x1="362.602" y1="232.6" x2="362.602" y2="28.7" gradientTransform="matrix(1 0 0 1 0 372)">
		<stop  offset="0" style="stop-color:#A8190A"/>
		<stop  offset="1" style="stop-color:#E0341B"/>
	</linearGradient>
	<path class="st13" d="M315,454.1v52.3c0,7.1,5,15.8,11.3,19.4l10.3,6l0.6,72.8l68.2-38.6c3.1-1.9,4.9-5.4,4.8-9.1V410.7
		c-0.1-3.5-1-6.9-2.7-10L315,454.1z"/>
	<line class="st1" x1="284.6" y1="636.2" x2="332.1" y2="610.6"/>
	<path d="M323.8,430.2l-65.5-36.8c-4.4-2.5-7.3-2.3-11.1-0.7s-6.9,4.4-6.9,10.3v146.2c0,8.9,6.3,19.7,14,24.2l65.5,36.8
		c4.4,2.5,7.6,2.8,11.3,0.9s6.8-4.5,6.8-10.5V454.4C337.8,445.6,331.5,434.7,323.8,430.2z"/>
	<path class="st14" d="M322.9,433.9l-68.7-39.7c-4-2.3-7.8-0.9-10,0.1c-3.3,1.5-5.4,4.8-5.3,8.4V549c0,7.1,5,15.8,11.3,19.4
		l68.7,39.7c3.2,1.9,7.1,2.1,10.5,0.6c3.1-1.9,4.9-5.4,4.8-9.1V453.4C334.2,446.2,329.1,437.5,322.9,433.9z M326,599.3
		c0,1-0.2,2-0.6,2.9c-0.9-0.1-1.7-0.5-2.5-0.9l-68.7-39.7c-4.2-2.7-6.8-7.3-7.1-12.3V403.1c0-1,0.2-2,0.6-2.9
		c0.9,0.1,1.7,0.5,2.5,0.9l68.7,39.7c4.2,2.7,6.8,7.2,7.1,12.2V599.3z"/>
	<path class="st15" d="M318.9,436l-68.7-39.7c-6.2-3.6-11.3-0.7-11.3,6.4V549c0,7.1,5,15.8,11.3,19.4l68.7,39.7
		c6.2,3.6,11.3,0.7,11.3-6.4V455.4C330.2,448.3,325.1,439.6,318.9,436z"/>
	<g>
		<path class="st16" d="M399,405.9c-1.9-4-4.9-7.3-8.6-9.6l-73.1-42.8l-4.1,2.4l76,44.3c3.9,2.3,8.3,10.4,8.3,14.9v155.3l4.2-2.3
			V415.7C401.5,412.3,400.6,408.9,399,405.9z"/>
	</g>
	
		<ellipse transform="matrix(5.410372e-03 -1 1 5.410372e-03 -72.7036 724.6149)" class="st17" cx="327.9" cy="398.9" rx="7.7" ry="13.4"/>
	
		<ellipse transform="matrix(5.410372e-03 -1 1 5.410372e-03 -72.7036 724.6149)" class="st18" cx="327.9" cy="398.9" rx="4.5" ry="7.8"/>
	<path class="st19" d="M313.1,514.8V616c0,0.5,0,1-0.1,1.6c0.1-0.5,0.1-1.1,0.1-1.6V514.8L313.1,514.8z"/>
	<path class="st19" d="M311.3,469.2v45l0,0v101.3c0,0.5,0,1-0.1,1.6s-0.2,1.1-0.3,1.7c0,0.1-0.1,0.2-0.1,0.3s-0.1,0.3-0.2,0.4
		c-0.1,0.3-0.2,0.5-0.4,0.8c-0.1,0.2-0.2,0.3-0.3,0.5c-0.1,0.2-0.2,0.4-0.4,0.5l0,0c-0.4,0.5-0.9,0.9-1.4,1.3
		c-2,1.3-4.9,1.1-8.1-0.7l-68.7-39.6c-6.2-3.6-11.3-12.3-11.3-19.4V416.5c0-3.5,1.2-6,3.3-7.2s4.9-1,8,0.8l68.7,39.7
		C306.2,453.4,311.3,462.1,311.3,469.2z"/>
	
		<linearGradient id="SVGID_11_" gradientUnits="userSpaceOnUse" x1="281.14" y1="209.1576" x2="290.744" y2="209.1576" gradientTransform="matrix(1 0 0 1 0 372)">
		<stop  offset="0" style="stop-color:#FFFFFF"/>
		<stop  offset="1" style="stop-color:#D4D4D4"/>
	</linearGradient>
	<path class="st20" d="M290.7,525.6v101c0.1,3.7-1.7,7.1-4.8,9.1c-1.5,0.7-3.1,1.1-4.8,1c3.4-0.3,5.6-3.2,5.6-7.9V527.5L290.7,525.6
		z"/>
	<path class="st18" d="M304,447.7L235.3,408c-4-2.3-7.8-0.9-10,0.1c-0.7,0.3-1.4,0.7-2,1.2c2-1.2,4.9-1,8,0.8l68.7,39.7
		c6.2,3.6,11.3,12.3,11.3,19.4v45l0,0v101.3c0,0.5,0,1-0.1,1.6s-0.2,1.1-0.3,1.7c0,0.1-0.1,0.2-0.1,0.3s-0.1,0.3-0.2,0.4
		c-0.1,0.3-0.2,0.5-0.4,0.8c-0.2,0.4-0.4,0.7-0.7,1l0,0c-0.4,0.5-0.9,0.9-1.4,1.3c-0.7,0.5-1.6,0.8-2.5,0.8c1.7,0.1,3.3-0.3,4.8-1
		c3.1-1.9,4.9-5.4,4.8-9.1V467.1C315.2,460,310.2,451.3,304,447.7z"/>
	<line class="st1" x1="283.2" y1="472" x2="327.6" y2="446.3"/>
	
		<linearGradient id="SVGID_12_" gradientUnits="userSpaceOnUse" x1="197.7" y1="101.7768" x2="290.7" y2="101.7768" gradientTransform="matrix(1 0 0 1 0 372)">
		<stop  offset="0.16" style="stop-color:#EF928B"/>
		<stop  offset="0.49" style="stop-color:#E68B83"/>
		<stop  offset="0.9" style="stop-color:#E2887F"/>
	</linearGradient>
	<path class="st21" d="M290.7,480.4v45.2l-4,1.9l-89-103.9c0.3-0.3,0.6-0.6,1-0.9c0.6-0.5,1.3-0.9,2-1.3c2.3-1,6-2.4,10-0.1
		l68.7,39.6C285.7,464.5,290.7,473.2,290.7,480.4z"/>
	<path class="st22" d="M286.7,527.5v101.2c0,4.8-2.3,7.6-5.6,7.9c-2,0.1-4-0.4-5.7-1.5l-68.7-39.6c-2.5-1.5-4.6-3.5-6.3-5.9
		c-0.2-0.2-0.3-0.4-0.4-0.6c-1-1.5-1.9-3-2.6-4.6c-0.3-0.7-0.6-1.4-0.8-2.1c-0.1-0.5-0.3-0.9-0.4-1.4c-0.2-0.9-0.4-1.9-0.6-2.8
		c-0.1-0.7-0.1-1.3-0.1-2V474.8L286.7,527.5z"/>
	<path class="st23" d="M277.4,562.6l-72.5-41.9c-2.2-1.5-3.6-3.9-3.8-6.5v-25.5c0-2.4,1.7-3.4,3.8-2.2l72.5,41.9
		c2.2,1.4,3.6,3.9,3.8,6.5v25.5C281.2,562.9,279.5,563.8,277.4,562.6z"/>
	<path class="st24" d="M281.2,534.9v25.5c0,0.4-0.1,0.8-0.2,1.2c-0.5,1.5-1.9,2-3.6,1l-72.6-41.9c-2.2-1.5-3.6-3.9-3.8-6.5v-25.6
		c0-1.8,1-2.8,2.4-2.7c0.5,0.1,1,0.2,1.4,0.5l72.5,41.9C279.7,529.8,281.1,532.3,281.2,534.9z"/>
	<path class="st23" d="M281.2,534.9v25.5c0,0.4-0.1,0.8-0.2,1.2c-0.5-0.1-1-0.2-1.5-0.5L207,519.2c-2.2-1.4-3.6-3.9-3.8-6.5v-25.5
		c0-0.4,0.1-0.8,0.2-1.2c0.5,0.1,1,0.2,1.4,0.5l72.6,41.9C279.7,529.8,281.1,532.3,281.2,534.9z"/>
	<line class="st1" x1="259.6" y1="543" x2="281.2" y2="530.6"/>
	<line class="st1" x1="180.7" y1="498.8" x2="202.3" y2="486.4"/>
	
		<linearGradient id="SVGID_13_" gradientUnits="userSpaceOnUse" x1="583.5124" y1="-1451.7666" x2="692.4524" y2="-1432.5566" gradientTransform="matrix(0.87 0.5 0 1.15 -310.42 1815.64)">
		<stop  offset="0" style="stop-color:#A8190A"/>
		<stop  offset="1" style="stop-color:#E0341B"/>
	</linearGradient>
	<path class="st25" d="M286.7,482.5v45l-91.2-52.7v-45c0-7.1,5-10,11.3-6.4l68.7,39.6C281.7,466.6,286.7,475.3,286.7,482.5z"/>
	<polygon class="st22" points="223.4,444.7 200.5,431.5 200.5,429.6 223.4,442.8 	"/>
	<polygon class="st22" points="218.1,445.7 200.5,435.5 200.5,433.6 218.1,443.8 	"/>
	<line class="st26" x1="214.5" y1="450.4" x2="214.5" y2="477.9"/>
	<line class="st26" x1="227.8" y1="458.1" x2="227.8" y2="485.6"/>
	<line class="st26" x1="241.2" y1="465.8" x2="241.2" y2="493.3"/>
	<line class="st26" x1="254.5" y1="473.5" x2="254.5" y2="501.1"/>
	<line class="st26" x1="267.9" y1="481.2" x2="267.9" y2="508.8"/>
	<polyline class="st26" points="281.2,488.9 281.2,516.5 281.2,516.5 201.1,470.2 201.1,442.6 	"/>
	<g class="st27">
		
			<linearGradient id="SVGID_14_" gradientUnits="userSpaceOnUse" x1="633.2173" y1="-1419.4631" x2="635.1472" y2="-1446.9631" gradientTransform="matrix(0.87 0.5 0 1.15 -310.42 1815.64)">
			<stop  offset="0" style="stop-color:#E26558"/>
			<stop  offset="0.18" style="stop-color:#E47165;stop-opacity:0.98"/>
			<stop  offset="0.43" style="stop-color:#EA9289;stop-opacity:0.91"/>
			<stop  offset="0.74" style="stop-color:#F5C7C3;stop-opacity:0.81"/>
			<stop  offset="1" style="stop-color:#FFFFFF;stop-opacity:0.7"/>
		</linearGradient>
		<path class="st28" d="M201.1,456.8l5.6,1.1c0.8,0.2,1.5,0.6,2.1,1.2l3.4,3.3c1.3,1.2,2.7,1.6,3.5,0.9l3.5-3c1-0.9,2.8-0.2,4.1,1.5
			l2.6,3.3c0.7,1.1,2,1.8,3.3,1.9l3-0.3c1.2-0.1,2.7,0.9,3.7,2.5l3.8,5.8c0.6,1,1.5,1.8,2.6,2.3l3.9,1.5c0.7,0.3,1.4,0.2,2-0.2
			l4.3-4c0.9-0.9,2.6-0.4,4,1.2l3.1,3.5c0.7,0.8,1.3,1.8,1.6,2.9l3.4,12.3c1,3.6,4.8,5.9,5.9,3.5l3-6.5c0.3-0.7,1-1.1,1.8-0.9l0,0
			c2.9,0.5,6,4.7,6,8.2v17.8l-80.1-46.3L201.1,456.8z"/>
	</g>
	
		<linearGradient id="SVGID_15_" gradientUnits="userSpaceOnUse" x1="287.2717" y1="255.9413" x2="300.979" y2="255.9413" gradientTransform="matrix(0.8612 -0.4979 0.4979 0.8612 -176.6904 503.8398)">
		<stop  offset="0" style="stop-color:#FFFFFF"/>
		<stop  offset="1" style="stop-color:#D4D4D4"/>
	</linearGradient>
	
		<ellipse transform="matrix(0.8645 -0.5026 0.5026 0.8645 -262.7491 180.8532)" class="st29" cx="204.1" cy="577.8" rx="5.1" ry="8.9"/>
	
		<linearGradient id="SVGID_16_" gradientUnits="userSpaceOnUse" x1="309.6074" y1="271.2629" x2="323.3146" y2="271.2629" gradientTransform="matrix(0.8633 -0.5047 0.5047 0.8633 -180.3921 517.1259)">
		<stop  offset="0" style="stop-color:#FFFFFF"/>
		<stop  offset="1" style="stop-color:#D4D4D4"/>
	</linearGradient>
	
		<ellipse transform="matrix(0.8633 -0.5047 0.5047 0.8633 -267.1706 196.8095)" class="st30" cx="229.7" cy="591.6" rx="5.2" ry="9"/>
	
		<linearGradient id="SVGID_17_" gradientUnits="userSpaceOnUse" x1="331.848" y1="284.073" x2="345.5553" y2="284.073" gradientTransform="matrix(0.8633 -0.5047 0.5047 0.8633 -183.8333 530.0958)">
		<stop  offset="0" style="stop-color:#FFFFFF"/>
		<stop  offset="1" style="stop-color:#D4D4D4"/>
	</linearGradient>
	
		<ellipse transform="matrix(0.8633 -0.5047 0.5047 0.8633 -270.6098 209.7621)" class="st31" cx="251.9" cy="604.4" rx="5.2" ry="9"/>
	
		<linearGradient id="SVGID_18_" gradientUnits="userSpaceOnUse" x1="354.0836" y1="296.9731" x2="367.7909" y2="296.9731" gradientTransform="matrix(0.8633 -0.5047 0.5047 0.8633 -187.2704 543.0713)">
		<stop  offset="0" style="stop-color:#FFFFFF"/>
		<stop  offset="1" style="stop-color:#D4D4D4"/>
	</linearGradient>
	
		<ellipse transform="matrix(0.8633 -0.5047 0.5047 0.8633 -274.0464 222.7871)" class="st32" cx="274.2" cy="617.3" rx="5.2" ry="9"/>
	<path class="st33" d="M286.8,482.5v45l-91.2-52.6v-45c0-7.1,5-10,11.3-6.4l68.7,39.6C281.7,466.6,286.8,475.3,286.8,482.5z"/>
	<polygon class="st22" points="223.4,444.7 200.5,431.5 200.5,429.6 223.4,442.8 	"/>
	<polygon class="st22" points="218.1,445.7 200.5,435.5 200.5,433.6 218.1,443.7 	"/>
	<line class="st34" x1="214.5" y1="450.3" x2="214.5" y2="477.9"/>
	<line class="st34" x1="227.8" y1="458.1" x2="227.8" y2="485.6"/>
	<line class="st34" x1="241.2" y1="465.8" x2="241.2" y2="493.3"/>
	<line class="st34" x1="254.5" y1="473.5" x2="254.5" y2="501"/>
	<line class="st34" x1="267.9" y1="481.2" x2="267.9" y2="508.8"/>
	<polyline class="st34" points="281.2,488.9 281.2,516.5 281.2,516.5 201.1,470.2 201.1,442.6 	"/>
	<g class="st27">
		
			<linearGradient id="SVGID_19_" gradientUnits="userSpaceOnUse" x1="667.0081" y1="-1561.8458" x2="668.9282" y2="-1589.3458" gradientTransform="matrix(0.87 0.5 0 1.15 -339.85 1963.0402)">
			<stop  offset="0" style="stop-color:#FFFFFF"/>
			<stop  offset="0.2" style="stop-color:#FFFFFF;stop-opacity:0.97"/>
			<stop  offset="0.49" style="stop-color:#FFFFFF;stop-opacity:0.9"/>
			<stop  offset="0.83" style="stop-color:#FFFFFF;stop-opacity:0.77"/>
			<stop  offset="1" style="stop-color:#FFFFFF;stop-opacity:0.7"/>
		</linearGradient>
		<path class="st35" d="M201.1,456.7l5.6,1.1c0.8,0.2,1.5,0.6,2.1,1.2l3.4,3.3c1.3,1.2,2.7,1.6,3.5,0.9l3.5-3c1-0.8,2.8-0.2,4.1,1.5
			l2.6,3.3c0.7,1.1,2,1.8,3.3,1.9l3-0.3c1.2-0.1,2.7,0.9,3.7,2.5l3.8,5.8c0.6,1,1.5,1.8,2.6,2.3l3.9,1.5c0.7,0.3,1.4,0.2,2-0.2
			l4.3-4c0.9-0.9,2.6-0.3,4,1.2l3.1,3.5c0.7,0.8,1.3,1.8,1.6,2.9l3.4,12.4c1,3.6,4.8,5.9,5.9,3.5l3-6.5c0.3-0.7,1-1.1,1.8-0.9l0,0
			c2.9,0.5,6,4.7,6,8.1v17.8l-80.1-46.2L201.1,456.7z"/>
	</g>
	<path class="st36" d="M277.8,603.8l-73.1-42.2c-1.9-1.1-3.5-4.1-3.5-6.7v-25c0-2.6,1.6-3.7,3.5-2.6l73.1,42.2
		c1.9,1.1,3.5,4.1,3.5,6.7v25C281.2,603.7,279.7,604.9,277.8,603.8z"/>
	<path class="st37" d="M207,534.5l0.9,0.5l0.6,4.8h0.1l0.5-4.2l0.9,0.5v4.8l-0.5-0.3v-4.5h-0.1l-0.6,4.2l-0.9-0.5l-0.6-4.8h-0.1v4.5
		l-0.4-0.3L207,534.5z"/>
	<path class="st37" d="M210.6,538.4c-0.1-0.4,0.1-0.9,0.4-1.2c0.3-0.2,0.6-0.2,1.1,0.1s0.8,0.6,1.1,1.1s0.4,1.1,0.4,1.7v1.1
		c0,0.6-0.1,1-0.4,1.2s-0.6,0.1-1.1-0.1c-0.5-0.3-0.8-0.6-1.1-1.1s-0.4-1.1-0.4-1.7V538.4z M212,541.7c0.3,0.2,0.6,0.2,0.7,0
		c0.2-0.3,0.3-0.6,0.2-0.9v-1c0-0.4-0.1-0.8-0.2-1.2c-0.1-0.3-0.4-0.6-0.7-0.8s-0.6-0.2-0.7,0c-0.2,0.3-0.3,0.6-0.2,0.9v1
		c0,0.4,0.1,0.8,0.2,1.2C211.5,541.3,211.7,541.5,212,541.7L212,541.7z"/>
	<path class="st37" d="M214.2,538.7l1.3,0.8c0.5,0.2,0.8,0.6,1.1,1.1c0.2,0.5,0.4,1,0.4,1.5v1.2c0,0.6-0.1,1-0.4,1.1
		s-0.6,0.1-1.1-0.2l-1.3-0.8v-0.5l0.4,0.2v-3.7l-0.4-0.2V538.7z M215.5,543.6c0.1,0.1,0.3,0.2,0.5,0.2c0.1,0,0.2,0,0.3,0
		c0.1-0.1,0.2-0.2,0.2-0.3c0-0.2,0.1-0.4,0.1-0.6v-1.1c0-0.2,0-0.4-0.1-0.7c0-0.2-0.1-0.3-0.2-0.5c-0.1-0.1-0.2-0.3-0.3-0.4
		c-0.1-0.1-0.3-0.2-0.5-0.3l-0.4-0.3v3.7L215.5,543.6z"/>
	<path class="st37" d="M218.3,541v3.1c0,0.3,0.1,0.7,0.2,1c0.2,0.3,0.4,0.5,0.7,0.7s0.5,0.2,0.7,0.1s0.2-0.3,0.2-0.7V542l0.5,0.3
		v3.1c0,0.5-0.1,0.9-0.4,1c-0.3,0.1-0.7,0.1-1-0.2c-0.4-0.2-0.8-0.6-1-1c-0.3-0.5-0.4-1-0.4-1.5v-3.1L218.3,541z"/>
	<path class="st37" d="M221.5,542.9l0.5,0.3v4.2l2.1,1.2v0.5l-2.6-1.5V542.9z"/>
	<path class="st37" d="M225.1,544.9l2.5,1.4v0.5l-2-1.2v1.6l1.9,1.1v0.5l-1.9-1.1v1.6l2,1.2v0.5l-2.5-1.5V544.9z"/>
	<path class="st37" d="M209.3,557.4l-1.7-1l-0.3,1l-0.5-0.3l1.2-4l0.9,0.5l1.2,5.5l-0.5-0.3L209.3,557.4z M208.4,553.6l-0.7,2.4
		l1.5,0.8L208.4,553.6L208.4,553.6z"/>
	<path class="st37" d="M212,555.4l0.9,0.5v3.3l0.6,0.4v0.5l-0.6-0.4v0.9l-0.5-0.3v-0.9l-1.9-1.1v-0.8L212,555.4z M211,558L211,558
		l1.5,0.9v-3.1h-0.1L211,558z"/>
	<path class="st37" d="M215.2,561.6c0-0.1,0.1-0.3,0.2-0.3c0.1,0,0.1,0,0.2,0.1c0.1,0.1,0.2,0.2,0.3,0.3s0.1,0.3,0.1,0.4
		c0,0.1,0,0.2-0.1,0.3s-0.2,0.1-0.3,0s-0.2-0.2-0.3-0.3C215.2,561.9,215.2,561.8,215.2,561.6z"/>
	<path class="st37" d="M217.8,561.3v-2.5l2.6,1.5v0.5l-2.1-1.2v1.7h0.1c0-0.1,0.1-0.1,0.1-0.2c0.1,0,0.1-0.1,0.2-0.1
		c0.1,0,0.2,0,0.3,0s0.2,0.1,0.4,0.2c0.2,0.1,0.4,0.2,0.5,0.4c0.2,0.2,0.3,0.3,0.4,0.5c0.1,0.2,0.2,0.4,0.3,0.6
		c0.1,0.2,0.1,0.4,0.1,0.7v0.1c0,0.2,0,0.4-0.1,0.6c-0.1,0.1-0.2,0.3-0.3,0.4c-0.1,0.1-0.3,0.1-0.4,0.1c-0.2,0-0.4-0.1-0.6-0.2
		c-0.2-0.1-0.4-0.3-0.6-0.5c-0.2-0.2-0.3-0.4-0.5-0.6c-0.2-0.4-0.4-0.9-0.4-1.4v-0.2l0.5,0.3v0.2c0,0.4,0.1,0.7,0.3,1
		s0.4,0.5,0.7,0.7c0.1,0.1,0.3,0.1,0.4,0.1c0.1,0,0.2,0,0.3-0.1s0.1-0.2,0.2-0.3c0-0.1,0.1-0.3,0.1-0.4l0,0c0-0.1,0-0.3-0.1-0.4
		c0-0.1-0.1-0.3-0.2-0.4c-0.1-0.1-0.2-0.3-0.3-0.4c-0.1-0.1-0.2-0.2-0.3-0.3c-0.1,0-0.1-0.1-0.2-0.1c-0.1,0-0.1,0-0.2,0
		c0,0-0.1,0-0.1,0.1l-0.1,0.1L217.8,561.3z"/>
	<path class="st37" d="M223.6,563.5c0-0.3-0.1-0.6-0.2-0.8c-0.2-0.3-0.4-0.5-0.6-0.6c-0.1-0.1-0.2-0.1-0.4-0.1c-0.1,0-0.2,0-0.3,0.1
		s-0.2,0.1-0.2,0.3c0,0.1-0.1,0.3-0.1,0.4v0.7h0.1c0.1-0.1,0.2-0.2,0.4-0.2s0.4,0.1,0.6,0.2c0.2,0.1,0.4,0.2,0.5,0.4
		c0.2,0.2,0.3,0.3,0.4,0.5c0.2,0.4,0.4,0.9,0.4,1.3v0.1c0,0.2,0,0.4-0.1,0.6c-0.1,0.1-0.2,0.3-0.3,0.3c-0.1,0.1-0.3,0.1-0.4,0.1
		c-0.2,0-0.4-0.1-0.6-0.2c-0.2-0.1-0.4-0.3-0.6-0.4c-0.2-0.2-0.3-0.4-0.4-0.6c-0.1-0.2-0.2-0.4-0.3-0.7c-0.1-0.2-0.1-0.5-0.1-0.7
		v-1.7c0-0.2,0-0.4,0.1-0.6c0.1-0.1,0.2-0.3,0.3-0.3c0.1-0.1,0.3-0.1,0.4-0.1c0.2,0,0.4,0.1,0.5,0.2c0.2,0.1,0.4,0.2,0.5,0.4
		c0.2,0.2,0.3,0.3,0.4,0.5c0.1,0.2,0.2,0.4,0.3,0.6c0.1,0.2,0.1,0.4,0.1,0.7L223.6,563.5z M222.7,565.9c0.1,0.1,0.2,0.1,0.4,0.1
		c0.1,0,0.2,0,0.3,0c0.1-0.1,0.1-0.1,0.2-0.2c0.1-0.1,0.1-0.3,0.1-0.4v-0.1c0-0.2,0-0.3-0.1-0.5c0-0.2-0.1-0.3-0.2-0.5
		c-0.1-0.1-0.2-0.3-0.3-0.4c-0.1-0.1-0.2-0.2-0.4-0.3c-0.1-0.1-0.2-0.1-0.4-0.1c-0.1,0-0.2,0-0.3,0c-0.1,0.1-0.2,0.1-0.2,0.2
		c-0.1,0.1-0.1,0.2-0.1,0.4v0.1c0,0.3,0.1,0.6,0.3,0.9c0.1,0.1,0.2,0.3,0.3,0.4C222.5,565.7,222.6,565.8,222.7,565.9z"/>
	<path class="st37" d="M225.9,567.8c0-0.1,0-0.2,0.1-0.3c0.1,0,0.2,0,0.3,0c0.1,0.1,0.2,0.2,0.3,0.3s0.1,0.3,0.1,0.4
		c0,0.1,0,0.2-0.1,0.3c-0.1,0-0.2,0-0.3,0c-0.1-0.1-0.2-0.2-0.3-0.3C225.9,568.1,225.9,567.9,225.9,567.8z"/>
	<path class="st37" d="M228.5,564.9l1.3,0.8c0.5,0.3,0.8,0.6,1.1,1.1c0.2,0.5,0.4,1,0.4,1.5v1.2c0,0.6-0.1,1-0.4,1.1
		s-0.6,0.1-1.1-0.2l-1.3-0.8v-0.5l0.4,0.2v-3.7l-0.4-0.2V564.9z M229.8,569.9c0.1,0.1,0.3,0.2,0.5,0.2c0.2,0.1,0.4,0,0.5-0.2v-0.1
		c0-0.2,0.1-0.4,0.1-0.6v-1.1c0-0.2,0-0.4-0.1-0.7c0-0.2-0.1-0.3-0.2-0.5c-0.1-0.1-0.2-0.3-0.3-0.4c-0.1-0.1-0.3-0.2-0.5-0.3
		l-0.4-0.3v3.7L229.8,569.9z"/>
	<path class="st37" d="M232.6,570.6c0,0.3,0.1,0.6,0.2,0.8c0.2,0.3,0.4,0.5,0.6,0.6c0.1,0.1,0.2,0.1,0.4,0.1c0.1,0,0.2,0,0.3-0.1
		s0.1-0.2,0.2-0.3c0-0.1,0.1-0.3,0.1-0.4v-0.7h-0.1c-0.1,0.1-0.2,0.2-0.4,0.2s-0.4,0-0.6-0.2c-0.2-0.1-0.4-0.3-0.5-0.4
		c-0.2-0.2-0.3-0.3-0.4-0.5c-0.1-0.2-0.2-0.4-0.3-0.6c-0.1-0.2-0.1-0.5-0.1-0.7v-0.1c0-0.2,0-0.4,0.1-0.6c0.1-0.1,0.2-0.3,0.3-0.3
		c0.1-0.1,0.3-0.1,0.4-0.1c0.2,0,0.4,0.1,0.6,0.2c0.2,0.1,0.4,0.3,0.6,0.4c0.2,0.2,0.3,0.4,0.4,0.6c0.1,0.2,0.2,0.4,0.3,0.7
		c0.1,0.2,0.1,0.5,0.1,0.7v1.7c0,0.2,0,0.4-0.1,0.6c-0.1,0.1-0.2,0.3-0.3,0.3c-0.1,0.1-0.3,0.1-0.4,0.1c-0.2,0-0.4-0.1-0.6-0.2
		c-0.2-0.1-0.4-0.3-0.6-0.4c-0.2-0.2-0.3-0.3-0.4-0.5c-0.1-0.2-0.2-0.4-0.3-0.6c-0.1-0.2-0.1-0.4-0.1-0.7L232.6,570.6z M233.4,568.2
		c-0.1-0.1-0.2-0.1-0.4-0.1c-0.1,0-0.2,0-0.3,0.1s-0.1,0.1-0.2,0.2c-0.1,0.1-0.1,0.3-0.1,0.4v0.1c0,0.2,0,0.3,0.1,0.5
		c0,0.2,0.1,0.3,0.2,0.4c0.2,0.3,0.4,0.5,0.7,0.7c0.1,0.1,0.2,0.1,0.4,0.1c0.1,0,0.2,0,0.3,0s0.2-0.1,0.2-0.2c0-0.1,0.1-0.2,0.1-0.4
		v-0.1c0-0.3-0.1-0.6-0.3-0.9c-0.1-0.1-0.2-0.3-0.3-0.4C233.7,568.4,233.6,568.3,233.4,568.2L233.4,568.2z"/>
	<path class="st37" d="M236.6,574c0-0.1,0-0.2,0.1-0.3s0.2-0.1,0.3,0s0.2,0.2,0.3,0.3s0.1,0.3,0.1,0.4c0,0.1,0,0.2-0.1,0.3
		s-0.2,0.1-0.3,0s-0.2-0.2-0.3-0.3C236.6,574.3,236.6,574.1,236.6,574z"/>
	<path class="st37" d="M240.5,571.8l0.9,0.5v3.3l0.6,0.4v0.5l-0.6-0.4v0.9l-0.5-0.3V576l-1.9-1.1v-0.8L240.5,571.8z M239.5,574.5
		L239.5,574.5l1.5,0.9v-3.1h-0.1L239.5,574.5z"/>
	<path class="st37" d="M242.8,575.7v-2.5l2.6,1.5v0.5l-2.1-1.2v1.7h0.1c0-0.1,0.1-0.1,0.1-0.2c0.1,0,0.1-0.1,0.2-0.1
		c0.1,0,0.2,0,0.3,0s0.2,0.1,0.4,0.2c0.2,0.1,0.4,0.2,0.5,0.4c0.2,0.2,0.3,0.3,0.4,0.5c0.1,0.2,0.2,0.4,0.3,0.6
		c0.1,0.2,0.1,0.4,0.1,0.7v0.2c0,0.2,0,0.4-0.1,0.6c-0.1,0.1-0.2,0.3-0.3,0.4c-0.1,0.1-0.3,0.1-0.4,0.1c-0.2,0-0.4-0.1-0.6-0.2
		c-0.2-0.1-0.4-0.3-0.6-0.5c-0.2-0.2-0.3-0.4-0.5-0.6c-0.1-0.2-0.2-0.4-0.3-0.7c-0.1-0.2-0.1-0.5-0.1-0.7v-0.2l0.5,0.3v0.2
		c0,0.4,0.1,0.7,0.3,1s0.4,0.5,0.7,0.7c0.1,0.1,0.3,0.1,0.4,0.1c0.1,0,0.2,0,0.3-0.1s0.1-0.2,0.2-0.3c0-0.1,0.1-0.3,0.1-0.4l0,0
		c0-0.1,0-0.3-0.1-0.4c0-0.1-0.1-0.3-0.2-0.4c-0.1-0.1-0.2-0.3-0.3-0.4c-0.1-0.1-0.2-0.2-0.3-0.3c-0.1,0-0.1-0.1-0.2-0.1
		c-0.1,0-0.1,0-0.2,0c0,0-0.1,0-0.1,0.1l-0.1,0.1L242.8,575.7z"/>
	<path class="st37" d="M247.5,580.1v-4h-0.1l-0.7,1.4l-0.5-0.3l0,0l0.8-1.5l0.9,0.5v4.2l1.1,0.7v0.5l-2.8-1.6v-0.5L247.5,580.1z"/>
	
		<ellipse transform="matrix(0.8633 -0.5047 0.5047 0.8633 -204.5379 193.3949)" class="st22" cx="254.7" cy="474.3" rx="1.9" ry="3.2"/>
	
		<ellipse transform="matrix(0.8645 -0.5026 0.5026 0.8645 -214.4749 200.5259)" class="st22" cx="264.7" cy="498.1" rx="1" ry="1.8"/>
	
		<ellipse transform="matrix(0.8633 -0.5047 0.5047 0.8633 -201.8426 174.4491)" class="st22" cx="221.1" cy="459.8" rx="1" ry="1.8"/>
	<line class="st1" x1="258.7" y1="574.9" x2="280.3" y2="562.5"/>
	<g class="st27">
		<path class="st22" d="M255.8,575l-72.6-41.9c-2.2-1.4-3.6-3.9-3.8-6.5v-25.5c0-2.4,1.7-3.4,3.8-2.2l72.6,41.9
			c2.2,1.4,3.6,3.9,3.8,6.5v25.5C259.6,575.3,257.9,576.3,255.8,575z"/>
	</g>
	
		<linearGradient id="SVGID_20_" gradientUnits="userSpaceOnUse" x1="180.7" y1="163.8266" x2="262.8152" y2="163.8266" gradientTransform="matrix(1 0 0 1 0 372)">
		<stop  offset="0.16" style="stop-color:#EF928B"/>
		<stop  offset="0.49" style="stop-color:#E68B83"/>
		<stop  offset="0.9" style="stop-color:#E2887F"/>
	</linearGradient>
	<path class="st38" d="M262.8,545.5V571c0.1,0.9-0.3,1.8-1,2.4l-2.9,1.6c0.5-0.6,0.8-1.4,0.7-2.1v-25.5c-0.2-2.7-1.6-5.1-3.8-6.5
		L183.3,499c-0.7-0.5-1.7-0.7-2.6-0.3l3-1.8l0,0c0.9-0.4,1.9-0.3,2.7,0.2l72.5,41.9C261.2,540.4,262.6,542.8,262.8,545.5z"/>
	<path class="st11" d="M327.9,398.9v-89.8c0-7.6-6.2-13.8-13.8-13.8c-2.2,0-4.4,0.5-6.3,1.5l-158.6,92"/>
	<path class="st0" d="M186.9,510l-1.7-1l-0.3,1l-0.5-0.3l1.2-4l0.9,0.5l1.2,5.5l-0.5-0.3L186.9,510z M186,506.2l-0.7,2.4l1.5,0.9
		L186,506.2L186,506.2z"/>
	<path class="st0" d="M188.2,507.2l1.3,0.8c0.5,0.2,0.8,0.6,1.1,1.1c0.2,0.5,0.4,1,0.4,1.5v1.2c0,0.6-0.1,1-0.4,1.1
		s-0.6,0.1-1.1-0.2l-1.3-0.8v-0.5l0.4,0.2V508l-0.4-0.2V507.2z M189.5,512.2c0.1,0.1,0.3,0.2,0.5,0.2c0.2,0.1,0.4,0,0.5-0.2v-0.1
		c0-0.2,0.1-0.4,0.1-0.6v-1.1c0-0.2,0-0.4-0.1-0.6c0-0.2-0.1-0.3-0.2-0.5c-0.1-0.1-0.2-0.3-0.3-0.4s-0.3-0.2-0.5-0.3l-0.4-0.3v3.7
		L189.5,512.2z"/>
	<path class="st0" d="M191.8,509.3l1.3,0.8c0.5,0.2,0.8,0.6,1.1,1.1c0.2,0.5,0.4,1,0.4,1.5v1.2c0,0.6-0.1,1-0.4,1.1
		s-0.6,0.1-1.1-0.2l-1.3-0.8v-0.5l0.4,0.2V510l-0.4-0.2V509.3z M193.1,514.2c0.1,0.1,0.3,0.2,0.5,0.2c0.1,0,0.2,0,0.3,0
		c0.1-0.1,0.2-0.2,0.2-0.3c0-0.2,0.1-0.4,0.1-0.6v-1.1c0-0.2,0-0.4-0.1-0.6c0-0.2-0.1-0.3-0.2-0.5c-0.1-0.1-0.2-0.3-0.3-0.4
		s-0.3-0.2-0.5-0.3l-0.4-0.3v3.7L193.1,514.2z"/>
	<path class="st0" d="M195.4,511.4l2.6,1.5v0.5l-1-0.6v3.7l1,0.6v0.5l-2.6-1.5v-0.5l1.1,0.6v-3.7l-1.1-0.6V511.4z"/>
	<path class="st0" d="M201.1,519.1L201.1,519.1l0.1-4.5l0.5,0.3v4.7l-1-0.6l-1.2-5.1h-0.1v4.5l-0.5-0.3v-4.7l1,0.6L201.1,519.1z"/>
	<path class="st0" d="M203.5,518.5l1.8,1v2.3l-0.4-0.3V521h-0.1c-0.1,0.2-0.2,0.3-0.4,0.3s-0.4,0-0.6-0.2c-0.4-0.3-0.8-0.6-1-1.1
		c-0.3-0.5-0.4-1.1-0.4-1.7v-1c0-0.6,0.1-1,0.4-1.2s0.6-0.2,1.1,0.1c0.2,0.1,0.4,0.3,0.6,0.5c0.2,0.2,0.3,0.4,0.4,0.6
		c0.1,0.2,0.2,0.5,0.3,0.7s0.1,0.5,0.1,0.7v0.1l-0.5-0.3v-0.1c0-0.2,0-0.3-0.1-0.5c0-0.2-0.1-0.3-0.2-0.5c-0.1-0.2-0.2-0.3-0.3-0.4
		c-0.1-0.1-0.3-0.3-0.4-0.3c-0.3-0.2-0.6-0.2-0.7,0c-0.2,0.3-0.3,0.6-0.2,0.9v1c0,0.4,0.1,0.8,0.2,1.2c0.2,0.3,0.4,0.6,0.7,0.8
		s0.5,0.2,0.7,0.1c0.2-0.2,0.3-0.5,0.3-0.8v-0.1l-1.3-0.8L203.5,518.5z"/>
	<path class="st0" d="M211.8,525.3L211.8,525.3l0.1-4.5l0.5,0.3v4.7l-1-0.6l-1.2-5.2h-0.1v4.5l-0.5-0.3v-4.7l1,0.6L211.8,525.3z"/>
	<path class="st0" d="M213.3,521.7l2.5,1.4v0.5l-2-1.1v1.6l1.9,1.1v0.5l-1.9-1.1v1.6l2,1.2v0.5l-2.5-1.4V521.7z"/>
	<path class="st0" d="M219.4,530l-0.9-0.5l-0.4-4.7H218l-0.4,4.2l-0.9-0.5l-0.4-5l0.4,0.3l0.4,4.7h0.1l0.4-4.3l0.9,0.5l0.4,4.7h0.1
		l0.4-4.3l0.4,0.3L219.4,530z"/>
	<path class="st0" d="M223.7,527.7l0.9,0.5l0.6,4.8h0.1l0.5-4.2l0.9,0.5v4.7l-0.5-0.3v-4.5h-0.1l-0.6,4.2l-0.9-0.5l-0.6-4.8h-0.1
		v4.5l-0.4-0.3L223.7,527.7z"/>
	<path class="st0" d="M227.4,531.7c-0.1-0.4,0.1-0.9,0.4-1.2c0.3-0.2,0.6-0.2,1.1,0.1s0.8,0.7,1.1,1.1c0.3,0.5,0.4,1.1,0.4,1.6v1.1
		c0,0.6-0.1,1-0.4,1.2s-0.6,0.2-1.1-0.1s-0.8-0.6-1.1-1.1s-0.4-1.1-0.4-1.7V531.7z M228.8,534.9c0.3,0.2,0.6,0.2,0.7,0
		c0.2-0.3,0.3-0.6,0.2-0.9v-1c0-0.4-0.1-0.8-0.2-1.2c-0.1-0.3-0.4-0.6-0.7-0.8s-0.6-0.2-0.7,0c-0.2,0.3-0.3,0.6-0.2,0.9v1
		c0,0.4,0.1,0.8,0.2,1.2C228.2,534.5,228.5,534.8,228.8,534.9L228.8,534.9z"/>
	<path class="st0" d="M231,531.9l1.3,0.8c0.5,0.2,0.8,0.6,1.1,1c0.2,0.5,0.4,1,0.4,1.5v1.2c0,0.6-0.1,1-0.4,1.1s-0.6,0.1-1.1-0.2
		l-1.3-0.8V536l0.4,0.2v-3.7l-0.4-0.2V531.9z M232.3,536.9c0.1,0.1,0.3,0.2,0.5,0.2c0.1,0,0.2,0,0.3,0c0.1-0.1,0.2-0.2,0.2-0.3
		c0-0.2,0.1-0.4,0.1-0.6v-1.1c0-0.2,0-0.4-0.1-0.7s-0.2-0.7-0.5-0.9c-0.1-0.1-0.3-0.2-0.5-0.3l-0.4-0.3v3.7L232.3,536.9z"/>
	<path class="st0" d="M235,534.2v3.1c0,0.3,0.1,0.7,0.2,1c0.2,0.3,0.4,0.5,0.7,0.7s0.5,0.2,0.7,0.1c0.2-0.2,0.3-0.5,0.2-0.7v-3.1
		l0.5,0.3v3.1c0,0.5-0.1,0.9-0.4,1c-0.3,0.1-0.7,0.1-1-0.2c-0.4-0.2-0.8-0.6-1-1c-0.3-0.4-0.4-1-0.4-1.5v-3L235,534.2z"/>
	<path class="st0" d="M238.2,536.1l0.5,0.3v4.2l2.1,1.2v0.5l-2.6-1.5V536.1z"/>
	<path class="st0" d="M241.8,538.2l2.5,1.4v0.5l-2-1.1v1.6l2,1.1v0.5l-2-1.1v1.6l2,1.2v0.5l-2.5-1.4V538.2z"/>
	<path class="st0" d="M246.2,545.1c0-0.1,0-0.2,0.1-0.3s0.2-0.1,0.3,0s0.2,0.2,0.3,0.3s0.1,0.3,0.1,0.4c0,0.1,0,0.2-0.1,0.3
		s-0.2,0.1-0.3,0s-0.2-0.2-0.3-0.3C246.3,545.3,246.2,545.2,246.2,545.1z"/>
	<path class="st0" d="M249.8,547.1c0-0.1,0-0.2,0.1-0.3s0.2-0.1,0.3,0s0.2,0.2,0.3,0.3s0.1,0.3,0.1,0.4c0,0.1,0,0.2-0.1,0.3
		s-0.2,0.1-0.3,0s-0.2-0.2-0.3-0.3S249.8,547.3,249.8,547.1z"/>
	<path class="st0" d="M253.4,549.2c0-0.1,0-0.2,0.1-0.3s0.2-0.1,0.3,0s0.2,0.2,0.3,0.3s0.1,0.3,0.1,0.4c0,0.1,0,0.2-0.1,0.3
		c-0.1,0-0.2,0-0.3,0C253.5,549.7,253.4,549.5,253.4,549.2L253.4,549.2z"/>
	<path class="st0" d="M185.6,519.1c0-0.1,0-0.2,0.1-0.3s0.2-0.1,0.3,0c0.2,0.2,0.4,0.4,0.4,0.7c0,0.1,0,0.2-0.1,0.3s-0.2,0.1-0.3,0
		s-0.2-0.2-0.3-0.3C185.7,519.3,185.6,519.2,185.6,519.1z"/>
	<path class="st0" d="M189.2,521.1c0-0.1,0-0.2,0.1-0.3s0.2-0.1,0.3,0s0.2,0.2,0.3,0.3s0.1,0.3,0.1,0.4c0,0.1,0,0.2-0.1,0.3
		s-0.2,0.1-0.3,0s-0.2-0.2-0.3-0.3S189.2,521.3,189.2,521.1z"/>
	<path class="st0" d="M192.7,523.2c0-0.1,0.1-0.3,0.2-0.3c0.1,0,0.1,0,0.2,0.1c0.1,0.1,0.2,0.2,0.3,0.3s0.1,0.3,0.1,0.4
		c0,0.1,0,0.2-0.1,0.3s-0.2,0.1-0.3,0s-0.2-0.2-0.3-0.3C192.8,523.5,192.7,523.3,192.7,523.2z"/>
	<path class="st0" d="M185.2,526.8c0,0.3,0.1,0.6,0.2,0.8c0.2,0.3,0.4,0.5,0.6,0.6c0.1,0.1,0.2,0.1,0.4,0.1c0.1,0,0.2,0,0.3-0.1
		s0.1-0.2,0.2-0.3c0-0.1,0.1-0.3,0.1-0.4V527h-0.1c-0.1,0.1-0.2,0.2-0.4,0.2s-0.4,0-0.6-0.2c-0.2-0.1-0.4-0.3-0.5-0.4
		c-0.2-0.2-0.3-0.3-0.4-0.5c-0.1-0.2-0.2-0.4-0.3-0.6c-0.1-0.2-0.1-0.5-0.1-0.7v-0.1c0-0.2,0-0.4,0.1-0.6c0.1-0.1,0.2-0.3,0.3-0.3
		c0.1-0.1,0.3-0.1,0.4-0.1c0.2,0,0.4,0.1,0.6,0.2c0.2,0.1,0.4,0.3,0.6,0.5c0.2,0.2,0.3,0.4,0.4,0.6c0.1,0.2,0.2,0.4,0.3,0.7
		c0.1,0.2,0.1,0.5,0.1,0.7v1.7c0,0.2,0,0.4-0.1,0.6c-0.1,0.1-0.2,0.3-0.3,0.3c-0.1,0.1-0.3,0.1-0.4,0.1c-0.2,0-0.4-0.1-0.6-0.2
		c-0.2-0.1-0.4-0.3-0.6-0.4c-0.2-0.2-0.3-0.4-0.4-0.5c-0.1-0.2-0.2-0.4-0.3-0.6c-0.1-0.2-0.1-0.4-0.1-0.7L185.2,526.8z M186,524.3
		c-0.1-0.1-0.2-0.1-0.4-0.1c-0.1,0-0.2,0-0.3,0.1s-0.1,0.1-0.2,0.2c-0.1,0.1-0.1,0.3-0.1,0.4v0.1c0,0.2,0,0.3,0.1,0.5
		c0,0.2,0.1,0.3,0.2,0.4c0.1,0.1,0.2,0.3,0.3,0.4c0.1,0.1,0.2,0.2,0.4,0.3c0.1,0.1,0.2,0.1,0.4,0.1c0.1,0,0.2,0,0.3,0
		s0.2-0.1,0.2-0.2c0-0.1,0.1-0.2,0.1-0.4V526c0-0.3-0.1-0.6-0.3-0.9c-0.1-0.1-0.2-0.3-0.3-0.4C186.3,524.6,186.2,524.4,186,524.3
		L186,524.3z"/>
	<path class="st0" d="M188.1,527c-0.1-0.4,0.1-0.9,0.4-1.2c0.3-0.2,0.6-0.2,1.1,0.1s0.8,0.6,1.1,1.1s0.4,1.1,0.4,1.7v1.1
		c0,0.6-0.1,1-0.4,1.2s-0.6,0.1-1.1-0.1c-0.5-0.3-0.8-0.6-1.1-1.1s-0.4-1.1-0.4-1.7V527z M189.6,530.3c0.3,0.2,0.6,0.2,0.7,0
		c0.2-0.3,0.3-0.6,0.2-1v-1c0-0.2,0-0.4-0.1-0.6c0-0.2-0.1-0.4-0.2-0.6c-0.1-0.2-0.2-0.3-0.3-0.5c-0.1-0.1-0.3-0.3-0.4-0.3
		c-0.1-0.1-0.3-0.1-0.4-0.1c-0.1,0-0.2,0.1-0.3,0.1c-0.1,0.1-0.2,0.2-0.2,0.4s-0.1,0.4-0.1,0.6v1c0,0.4,0.1,0.8,0.2,1.2
		C189,529.8,189.2,530.1,189.6,530.3L189.6,530.3z M189.2,528.1c0-0.1,0-0.2,0.1-0.2c0.1-0.1,0.2-0.1,0.3,0s0.2,0.2,0.3,0.3
		s0.1,0.2,0.1,0.4c0,0.1,0,0.2-0.1,0.2s-0.2,0-0.3,0c-0.1-0.1-0.2-0.2-0.3-0.3C189.3,528.4,189.2,528.3,189.2,528.1L189.2,528.1z"/>
	<path class="st0" d="M193.4,529.2c0,0.1,0,0.3-0.1,0.4c0,0.1-0.1,0.2-0.2,0.2c-0.1,0-0.2,0-0.3,0s-0.2-0.1-0.3-0.1
		c-0.1-0.1-0.2-0.2-0.3-0.3s-0.2-0.2-0.3-0.4c-0.1-0.1-0.1-0.3-0.2-0.4c0-0.2-0.1-0.3-0.1-0.5c0-0.1,0-0.3,0.1-0.4
		c0-0.1,0.1-0.2,0.2-0.2c0.1,0,0.2,0,0.3,0s0.2,0.1,0.3,0.1c0.1,0.1,0.2,0.2,0.3,0.3s0.2,0.2,0.3,0.4c0.1,0.1,0.1,0.3,0.2,0.4
		C193.4,528.9,193.4,529,193.4,529.2z M194.5,530.2l0.1,0.4h-2.8l-0.1-0.4H194.5z M192.5,529.3c0.1,0.1,0.3,0.1,0.4,0
		c0.1-0.1,0.1-0.2,0.1-0.3c0-0.2,0-0.4-0.1-0.5c-0.1-0.2-0.2-0.3-0.4-0.4c-0.1-0.1-0.3-0.1-0.4,0c-0.1,0.1-0.2,0.2-0.1,0.4
		c0,0.2,0,0.4,0.1,0.6C192.2,529.1,192.4,529.3,192.5,529.3L192.5,529.3z M194.6,532.6c0,0.1,0,0.3-0.1,0.4c0,0.1-0.1,0.2-0.2,0.2
		c-0.1,0-0.2,0-0.3,0s-0.2-0.1-0.3-0.1c-0.1-0.1-0.2-0.2-0.3-0.3s-0.2-0.2-0.3-0.4c-0.1-0.1-0.1-0.3-0.2-0.4c0-0.2-0.1-0.3-0.1-0.5
		c0-0.1,0-0.3,0.1-0.4c0-0.1,0.1-0.2,0.2-0.2c0.1,0,0.2,0,0.3,0s0.2,0.1,0.3,0.1c0.1,0.1,0.2,0.2,0.3,0.3s0.2,0.2,0.3,0.3
		s0.1,0.3,0.2,0.4C194.6,532.3,194.6,532.5,194.6,532.6L194.6,532.6z M193.8,532.8c0.1,0.1,0.3,0.1,0.4,0c0.1-0.1,0.2-0.2,0.1-0.4
		c0-0.2,0-0.4-0.1-0.5c-0.1-0.2-0.2-0.3-0.4-0.4c-0.1-0.1-0.3-0.1-0.4,0c-0.1,0.1-0.2,0.2-0.1,0.4c0,0.2,0,0.4,0.1,0.6
		C193.5,532.6,193.6,532.7,193.8,532.8L193.8,532.8z"/>
	
		<linearGradient id="SVGID_21_" gradientUnits="userSpaceOnUse" x1="431.92" y1="20.4" x2="440.68" y2="20.4" gradientTransform="matrix(1 0 0 1 0 372)">
		<stop  offset="0" style="stop-color:#A8190A"/>
		<stop  offset="1" style="stop-color:#E0341B"/>
	</linearGradient>
	<circle class="st39" cx="436.3" cy="392.4" r="4.4"/>
	
		<linearGradient id="SVGID_22_" gradientUnits="userSpaceOnUse" x1="255.4" y1="-47.3" x2="264.17" y2="-47.3" gradientTransform="matrix(1 0 0 1 0 372)">
		<stop  offset="0.16" style="stop-color:#EF928B"/>
		<stop  offset="0.49" style="stop-color:#E68B83"/>
		<stop  offset="0.9" style="stop-color:#E2887F"/>
	</linearGradient>
	<circle class="st40" cx="259.8" cy="324.7" r="4.4"/>
	
		<linearGradient id="SVGID_23_" gradientUnits="userSpaceOnUse" x1="436.17" y1="125.6" x2="444.93" y2="125.6" gradientTransform="matrix(1 0 0 1 0 372)">
		<stop  offset="0" style="stop-color:#A8190A"/>
		<stop  offset="1" style="stop-color:#E0341B"/>
	</linearGradient>
	<circle class="st41" cx="440.5" cy="497.6" r="4.4"/>
	<path d="M387.8,553.2c1.4-0.8,2.6,0,2.6,2l0,0c0,1.9-0.9,3.6-2.3,4.8h-12L387.8,553.2z"/>
	<path class="st15" d="M348.5,575.8l27.5-15.9h12l-0.3,0.2l-39.2,22.7c-1.4,0.8-2.6,0-2.6-2l0,0C345.9,578.8,346.9,577,348.5,575.8z
		"/>
	<path d="M387.8,540.6c1.4-0.8,2.6,0.1,2.6,2l0,0c0,1.9-0.9,3.6-2.3,4.8h-12L387.8,540.6z"/>
	<path class="st15" d="M348.5,563.3l27.5-15.9h12l-0.3,0.2l-39.2,22.7c-1.4,0.8-2.6-0.1-2.6-2l0,0
		C345.9,566.3,346.9,564.4,348.5,563.3z"/>
	<path d="M387.8,526.1c1.4-0.8,2.6,0,2.6,2l0,0c0,1.9-0.9,3.6-2.3,4.8h-12L387.8,526.1z"/>
	<path class="st15" d="M348.5,548.8l27.5-15.9h12l-0.3,0.2l-39.2,22.7c-1.4,0.8-2.6,0-2.6-2l0,0
		C345.9,551.8,346.9,549.9,348.5,548.8z"/>
	
		<linearGradient id="SVGID_24_" gradientUnits="userSpaceOnUse" x1="46.5953" y1="37.8919" x2="156.5" y2="37.8919" gradientTransform="matrix(1 0 0 1 0 372)">
		<stop  offset="0.16" style="stop-color:#EF928B"/>
		<stop  offset="0.49" style="stop-color:#E68B83"/>
		<stop  offset="0.9" style="stop-color:#E2887F"/>
	</linearGradient>
	<path class="st42" d="M155,341.4c-1.8-0.8-4.9-2-8.2-0.1l-91,52.8c-5.1,2.9-9.2,10-9.2,15.9v61.3c-0.1,3,1.4,5.8,3.9,7.4
		c1.1,0.6,2.4,0.8,3.6,0.8c-2.4-0.5-4-2.8-4-6.4v-61.3c0-5.8,4.1-13,9.2-15.9l91-52.8c2.4-1.4,4.5-1.6,6.2-0.9
		C156,342,155.5,341.6,155,341.4z"/>
	<path class="st22" d="M159.3,348.3v61.3c0,5.8-4.1,13-9.2,15.9l-91,52.8c-1.5,0.9-3.2,1.3-4.9,1.3l0,0c-2.4-0.5-4-2.8-4-6.4v-61.3
		c0-5.8,4.1-13,9.2-15.9l91-52.8c2.4-1.4,4.5-1.6,6.2-0.9C158.4,343.8,159.4,346,159.3,348.3z"/>
	<path class="st0" d="M119.1,379.6c0-0.3-0.1-0.5-0.2-0.6s-0.4,0-0.6,0.1c-0.1,0.1-0.3,0.2-0.4,0.3c-0.1,0.1-0.2,0.3-0.3,0.4
		c-0.1,0.1-0.1,0.3-0.2,0.5c0,0.2-0.1,0.3-0.1,0.5v0.7h0.1c0.1-0.3,0.2-0.5,0.4-0.7c0.2-0.2,0.4-0.4,0.6-0.5s0.3-0.2,0.5-0.2
		c0.1,0,0.3,0,0.4,0.1s0.2,0.2,0.3,0.3c0.1,0.2,0.1,0.4,0.1,0.6v0.1c0,0.2,0,0.5-0.1,0.7s-0.2,0.5-0.3,0.7c-0.1,0.2-0.3,0.4-0.4,0.6
		c-0.2,0.2-0.4,0.3-0.6,0.4s-0.4,0.2-0.6,0.2s-0.3,0-0.4-0.1s-0.2-0.2-0.3-0.3c-0.1-0.2-0.1-0.4-0.1-0.6v-1.7c0-0.3,0-0.5,0.1-0.7
		s0.2-0.5,0.3-0.7c0.1-0.2,0.3-0.4,0.4-0.6c0.2-0.2,0.3-0.3,0.6-0.4c0.2-0.1,0.3-0.2,0.5-0.2c0.1,0,0.3,0,0.4,0
		c0.1,0.1,0.2,0.2,0.3,0.3c0.1,0.2,0.1,0.4,0.1,0.5L119.1,379.6z M118.2,383.1c0.1-0.1,0.3-0.2,0.4-0.3c0.1-0.1,0.2-0.2,0.3-0.4
		c0.1-0.1,0.2-0.3,0.2-0.4c0-0.2,0.1-0.3,0.1-0.5v-0.1c0-0.1,0-0.3-0.1-0.4c0-0.1-0.1-0.2-0.2-0.2s-0.2,0-0.3,0
		c-0.1,0-0.3,0.1-0.4,0.1c-0.1,0.1-0.3,0.2-0.4,0.3c-0.1,0.1-0.2,0.3-0.3,0.4c-0.1,0.1-0.2,0.3-0.2,0.4s-0.1,0.3-0.1,0.5v0.1
		c0,0.1,0,0.3,0.1,0.4c0,0.1,0.1,0.2,0.2,0.2c0.1,0.1,0.2,0.1,0.3,0C118,383.2,118.1,383.2,118.2,383.1L118.2,383.1z"/>
	<path class="st0" d="M120.4,380v-2.5l2.6-1.5v0.5l-2.1,1.2v1.7h0.1c0-0.1,0.1-0.2,0.2-0.4c0.1-0.1,0.1-0.2,0.2-0.3
		c0.1-0.1,0.2-0.2,0.3-0.3c0.1-0.1,0.2-0.2,0.3-0.3c0.2-0.1,0.3-0.2,0.5-0.2c0.1,0,0.3,0,0.4,0.1s0.2,0.2,0.3,0.3
		c0.1,0.2,0.1,0.4,0.1,0.6v0.1c0,0.2,0,0.5-0.1,0.7s-0.2,0.5-0.3,0.7c-0.1,0.2-0.3,0.4-0.4,0.6c-0.2,0.2-0.4,0.4-0.6,0.5
		s-0.4,0.2-0.6,0.2s-0.3,0-0.5-0.1c-0.1-0.1-0.2-0.2-0.3-0.4c-0.1-0.2-0.1-0.4-0.1-0.6v-0.2l0.5-0.3v0.1c0,0.4,0.1,0.6,0.3,0.7
		c0.2,0.1,0.5,0,0.7-0.1s0.3-0.2,0.4-0.3c0.1-0.1,0.2-0.3,0.3-0.4c0.1-0.2,0.1-0.3,0.2-0.5c0-0.2,0.1-0.3,0.1-0.5l0,0
		c0-0.1,0-0.2-0.1-0.4c0-0.1-0.1-0.2-0.2-0.2c-0.1-0.1-0.2-0.1-0.3-0.1c-0.1,0-0.2,0-0.3,0.1c-0.1,0-0.2,0.1-0.2,0.2
		c-0.1,0.1-0.1,0.1-0.2,0.2c0,0.1-0.1,0.1-0.1,0.2s0,0.1-0.1,0.2L120.4,380z"/>
	<path class="st0" d="M125.6,375.5c0,0.2,0,0.3-0.1,0.5c0,0.2-0.1,0.3-0.2,0.4s-0.2,0.2-0.3,0.4c-0.1,0.1-0.2,0.2-0.3,0.3
		c-0.1,0.1-0.2,0.1-0.3,0.1c-0.1,0-0.2,0-0.3,0c-0.1,0-0.2-0.1-0.2-0.2c-0.1-0.1-0.1-0.3-0.1-0.4c0-0.2,0-0.3,0.1-0.5
		c0-0.1,0.1-0.3,0.2-0.4s0.2-0.2,0.3-0.4c0.1-0.1,0.2-0.2,0.3-0.3c0.1-0.1,0.2-0.1,0.3-0.1c0.2,0,0.4,0.1,0.5,0.3
		C125.5,375.2,125.6,375.3,125.6,375.5z M126.7,375.3l0.1,0.2l-2.8,3.2l-0.1-0.2L126.7,375.3z M124.7,376.6c0.2-0.1,0.3-0.2,0.4-0.4
		c0.1-0.2,0.1-0.4,0.1-0.6c0-0.1,0-0.3-0.1-0.4s-0.3-0.1-0.4,0c-0.2,0.1-0.3,0.2-0.4,0.4c-0.1,0.2-0.1,0.4-0.1,0.5
		c0,0.2,0.1,0.4,0.1,0.4C124.5,376.7,124.6,376.7,124.7,376.6z M126.8,377.5c0,0.2,0,0.3-0.1,0.5c0,0.1-0.1,0.3-0.2,0.4
		s-0.2,0.2-0.3,0.4c-0.1,0.1-0.2,0.2-0.3,0.3c-0.1,0.1-0.2,0.1-0.3,0.1c-0.1,0-0.2,0-0.3,0c-0.1-0.1-0.1-0.1-0.2-0.2
		c0-0.1-0.1-0.3-0.1-0.4c0-0.2,0-0.3,0.1-0.5c0-0.2,0.1-0.3,0.2-0.4s0.2-0.3,0.3-0.4c0.1-0.1,0.2-0.2,0.3-0.3
		c0.1-0.1,0.2-0.1,0.3-0.1c0.1,0,0.2,0,0.3,0c0.1,0,0.2,0.1,0.2,0.2C126.8,377.2,126.9,377.4,126.8,377.5z M126,378.7
		c0.2-0.1,0.3-0.2,0.4-0.4c0.1-0.2,0.1-0.4,0.1-0.5s0-0.3-0.1-0.4s-0.3-0.1-0.4,0c-0.2,0.1-0.3,0.2-0.4,0.4
		c-0.1,0.2-0.1,0.4-0.1,0.6s0.1,0.4,0.1,0.4C125.7,378.8,125.9,378.8,126,378.7L126,378.7z"/>
	<path class="st0" d="M93.6,397.6c-0.2,0.1-0.4,0.2-0.6,0.2c-0.1,0-0.3,0-0.4,0s-0.2-0.1-0.3-0.3c-0.1-0.1-0.1-0.3-0.1-0.5v0
		c0-0.2,0-0.3,0.1-0.5c0-0.1,0.1-0.3,0.2-0.4s0.1-0.3,0.2-0.4s0.2-0.2,0.3-0.3v-0.1c-0.1,0-0.2,0-0.3,0c-0.1,0-0.1-0.1-0.2-0.1
		c-0.1-0.1-0.1-0.1-0.1-0.2s0-0.2,0-0.3v-0.1c0-0.2,0-0.4,0.1-0.5c0.1-0.2,0.2-0.4,0.3-0.5c0.1-0.2,0.2-0.3,0.4-0.5
		c0.2-0.2,0.3-0.3,0.5-0.4l0,0c0.2-0.1,0.3-0.2,0.5-0.2c0.1,0,0.3,0,0.4,0s0.2,0.1,0.3,0.2c0.1,0.1,0.1,0.3,0.1,0.5v0.1
		c0,0.1,0,0.3,0,0.4s-0.1,0.3-0.2,0.4s-0.1,0.2-0.2,0.3c-0.1,0.1-0.2,0.2-0.2,0.3v0.1c0.1,0,0.2,0,0.3,0c0.1,0,0.2,0,0.2,0.1
		c0.1,0.1,0.1,0.2,0.2,0.2c0,0.1,0.1,0.3,0.1,0.4v0.1c0,0.2,0,0.4-0.1,0.6s-0.2,0.4-0.3,0.6c-0.1,0.2-0.3,0.4-0.4,0.5
		c-0.2,0.2-0.4,0.3-0.6,0.4L93.6,397.6z M93.6,397c0.3-0.1,0.5-0.4,0.7-0.6c0.1-0.2,0.2-0.5,0.2-0.8l0,0c0-0.3-0.1-0.5-0.3-0.5
		c-0.2,0-0.5,0-0.7,0.1l0,0c-0.3,0.2-0.5,0.4-0.7,0.6s-0.2,0.5-0.3,0.8l0,0c0,0.3,0.1,0.4,0.3,0.5C93.2,397.2,93.4,397.2,93.6,397
		L93.6,397z M93.6,394.8c0.2-0.1,0.4-0.3,0.6-0.6c0.1-0.2,0.2-0.4,0.2-0.7l0,0c0-0.2-0.1-0.4-0.2-0.4c-0.2,0-0.4,0-0.6,0.1
		s-0.4,0.3-0.6,0.6c-0.1,0.2-0.2,0.4-0.2,0.7l0,0c0,0.2,0.1,0.4,0.2,0.4C93.2,394.9,93.4,394.9,93.6,394.8L93.6,394.8z"/>
	<path class="st0" d="M97.1,395.5c-0.2,0.1-0.4,0.2-0.6,0.2c-0.1,0-0.3,0-0.4,0s-0.2-0.1-0.3-0.2c-0.1-0.1-0.1-0.3-0.1-0.5l0,0
		c0-0.2,0-0.3,0.1-0.5c0-0.1,0.1-0.3,0.2-0.4s0.2-0.3,0.2-0.4c0.1-0.1,0.2-0.2,0.3-0.3v-0.1c-0.1,0-0.2,0-0.3,0
		c-0.1,0-0.1-0.1-0.2-0.1c-0.1-0.1-0.1-0.1-0.1-0.2s-0.1-0.2-0.1-0.3v-0.1c0-0.2,0.1-0.4,0.1-0.6c0.1-0.2,0.1-0.4,0.3-0.5
		c0.1-0.2,0.3-0.3,0.4-0.5c0.2-0.2,0.3-0.3,0.5-0.4l0,0c0.2-0.1,0.3-0.2,0.5-0.2c0.1,0,0.3,0,0.4,0s0.2,0.1,0.3,0.2
		c0.1,0.1,0.1,0.3,0.1,0.5v0.1c0,0.1,0,0.3,0,0.4s-0.1,0.3-0.1,0.4c-0.1,0.1-0.1,0.2-0.2,0.3c-0.1,0.1-0.2,0.2-0.3,0.3v0.1
		c0.1,0,0.2,0,0.3,0c0.1,0,0.2,0,0.3,0.1c0.1,0.1,0.1,0.1,0.2,0.2c0,0.1,0.1,0.3,0.1,0.4v0.1c0,0.2,0,0.4-0.1,0.6s-0.2,0.4-0.3,0.6
		c-0.1,0.2-0.3,0.4-0.4,0.5c-0.2,0.2-0.4,0.3-0.6,0.4L97.1,395.5z M97.2,395c0.3-0.2,0.5-0.4,0.6-0.6c0.2-0.2,0.2-0.5,0.3-0.8l0,0
		c0-0.3-0.1-0.5-0.3-0.5c-0.2,0-0.5,0-0.7,0.1l0,0c-0.3,0.2-0.5,0.4-0.7,0.6s-0.3,0.5-0.3,0.8l0,0c0,0.3,0.1,0.4,0.3,0.5
		C96.7,395.2,97,395.1,97.2,395L97.2,395z M97.2,392.7c0.2-0.1,0.4-0.3,0.6-0.6c0.1-0.2,0.2-0.4,0.2-0.7l0,0c0-0.2-0.1-0.4-0.2-0.4
		c-0.2-0.1-0.4,0-0.6,0.1s-0.4,0.3-0.6,0.5c-0.1,0.2-0.2,0.4-0.2,0.7l0,0c0,0.2,0.1,0.4,0.2,0.4C96.8,392.9,97,392.8,97.2,392.7
		L97.2,392.7z"/>
	<path class="st0" d="M101,389.5c0,0.2,0,0.3-0.1,0.5c0,0.2-0.1,0.3-0.2,0.4s-0.2,0.2-0.3,0.4c-0.1,0.1-0.2,0.2-0.3,0.3
		c-0.1,0.1-0.2,0.1-0.3,0.1c-0.1,0-0.2,0-0.3,0c-0.1-0.1-0.1-0.1-0.2-0.2s-0.1-0.3-0.1-0.4c0-0.2,0-0.3,0.1-0.5
		c0-0.2,0.1-0.3,0.2-0.4s0.2-0.2,0.3-0.4c0.1-0.1,0.2-0.2,0.3-0.3c0.1-0.1,0.2-0.1,0.3-0.1c0.1,0,0.2,0,0.3,0c0.1,0,0.2,0.1,0.2,0.2
		C101,389.2,101,389.3,101,389.5z M102.1,389.3l0.1,0.2l-2.8,3.2l-0.1-0.2L102.1,389.3z M100.2,390.6c0.2-0.1,0.3-0.2,0.4-0.4
		c0.1-0.2,0.1-0.4,0.1-0.5s0-0.3-0.1-0.4s-0.2-0.1-0.4,0c-0.2,0.1-0.3,0.2-0.4,0.4c-0.1,0.2-0.1,0.4-0.1,0.6s0.1,0.4,0.1,0.4
		S100,390.7,100.2,390.6L100.2,390.6z M102.3,391.5c0,0.2,0,0.3-0.1,0.5c0,0.2-0.1,0.3-0.2,0.4s-0.2,0.3-0.3,0.4
		c-0.1,0.1-0.2,0.2-0.3,0.3c-0.1,0.1-0.2,0.1-0.3,0.1c-0.1,0-0.2,0-0.3,0c-0.1,0-0.2-0.1-0.2-0.2s-0.1-0.3-0.1-0.4
		c0-0.2,0-0.3,0.1-0.5c0-0.1,0.1-0.3,0.2-0.4s0.2-0.3,0.3-0.4c0.1-0.1,0.2-0.2,0.3-0.3c0.1-0.1,0.2-0.1,0.3-0.1c0.1,0,0.2,0,0.3,0
		c0.1,0,0.1,0.1,0.2,0.2C102.2,391.3,102.2,391.4,102.3,391.5L102.3,391.5z M101.4,392.7c0.2-0.1,0.3-0.2,0.4-0.4
		c0.1-0.2,0.1-0.4,0.1-0.5s0-0.3-0.1-0.4s-0.3-0.1-0.4,0c-0.2,0.1-0.3,0.2-0.4,0.4c-0.1,0.2-0.1,0.4-0.1,0.5c0,0.2,0.1,0.4,0.1,0.4
		C101.1,392.7,101.3,392.7,101.4,392.7L101.4,392.7z"/>
	<path class="st0" d="M67.7,409.9v-2.5l2.6-1.5v0.5l-2.1,1.2v1.7h0.1c0-0.1,0.1-0.2,0.2-0.4c0.1-0.1,0.1-0.2,0.2-0.3
		c0.1-0.1,0.2-0.2,0.3-0.3c0.1-0.1,0.2-0.2,0.3-0.3c0.2-0.1,0.3-0.2,0.5-0.2c0.1,0,0.3,0,0.4,0.1s0.2,0.2,0.3,0.3
		c0.1,0.2,0.1,0.4,0.1,0.6v0.1c0,0.2,0,0.5-0.1,0.7s-0.2,0.5-0.3,0.7c-0.1,0.2-0.3,0.4-0.4,0.6c-0.2,0.2-0.4,0.4-0.6,0.5
		s-0.4,0.2-0.6,0.2s-0.3,0-0.5-0.1c-0.1-0.1-0.2-0.2-0.3-0.4c-0.1-0.2-0.1-0.4-0.1-0.6v-0.2l0.5-0.3v0.1c0,0.4,0.1,0.6,0.3,0.7
		c0.2,0.1,0.5,0,0.7-0.1s0.3-0.2,0.4-0.3c0.1-0.1,0.2-0.3,0.3-0.4c0.1-0.2,0.1-0.3,0.2-0.5c0-0.2,0.1-0.3,0.1-0.5l0,0
		c0-0.1,0-0.2-0.1-0.4c0-0.1-0.1-0.2-0.2-0.2s-0.2-0.1-0.3-0.1c-0.1,0-0.2,0.1-0.3,0.1c-0.2,0.1-0.3,0.2-0.4,0.4
		c0,0.1-0.1,0.1-0.1,0.2s-0.1,0.1-0.1,0.2L67.7,409.9z"/>
	<path class="st0" d="M73.9,408v0.5l-2.8,1.6v-0.8c0-0.2,0-0.4,0.1-0.6s0.2-0.4,0.3-0.6c0.1-0.2,0.3-0.4,0.4-0.5
		c0.2-0.2,0.4-0.4,0.6-0.5c0.3-0.2,0.5-0.5,0.8-0.8c0.1-0.2,0.2-0.5,0.2-0.8l0,0c0-0.1,0-0.2-0.1-0.3c0-0.1-0.1-0.2-0.2-0.2
		c-0.1-0.1-0.2-0.1-0.3-0.1c-0.1,0-0.3,0.1-0.4,0.1c-0.3,0.2-0.5,0.4-0.7,0.7c-0.2,0.3-0.2,0.7-0.3,1v0.3l-0.5,0.3V407
		c0-0.2,0-0.5,0.1-0.7s0.2-0.5,0.3-0.7c0.1-0.2,0.3-0.4,0.4-0.6c0.2-0.2,0.4-0.4,0.6-0.5s0.4-0.2,0.6-0.2s0.3,0,0.4,0.1
		s0.2,0.2,0.3,0.3c0.1,0.2,0.1,0.3,0.1,0.5v0.1c0,0.4-0.1,0.8-0.3,1.1c-0.2,0.4-0.6,0.8-0.9,1.1c-0.3,0.2-0.6,0.5-0.8,0.9
		c-0.2,0.2-0.3,0.5-0.3,0.8v0.2L73.9,408z"/>
	<path class="st0" d="M76.3,403.3c0,0.2,0,0.3-0.1,0.5c0,0.2-0.1,0.3-0.2,0.4s-0.2,0.2-0.3,0.4c-0.1,0.1-0.2,0.2-0.3,0.3
		c-0.1,0.1-0.2,0.1-0.3,0.1c-0.1,0-0.2,0-0.3,0c-0.1,0-0.2-0.1-0.2-0.2c-0.1-0.1-0.1-0.3-0.1-0.4c0-0.2,0-0.3,0.1-0.5
		c0-0.1,0.1-0.3,0.2-0.4s0.2-0.2,0.3-0.4c0.1-0.1,0.2-0.2,0.3-0.3c0.1-0.1,0.2-0.1,0.3-0.1c0.2,0,0.4,0.1,0.5,0.3
		C76.3,403.1,76.4,403.2,76.3,403.3z M77.4,403.1l0.1,0.2l-2.8,3.2l-0.1-0.2L77.4,403.1z M75.5,404.5c0.2-0.1,0.3-0.2,0.4-0.4
		c0.1-0.2,0.1-0.4,0.1-0.6c0-0.1,0-0.3-0.1-0.4s-0.3-0.1-0.4,0c-0.2,0.1-0.3,0.2-0.4,0.4c-0.1,0.2-0.1,0.4-0.1,0.5
		c0,0.2,0.1,0.4,0.1,0.4C75.2,404.5,75.4,404.5,75.5,404.5L75.5,404.5z M77.6,405.4c0,0.2,0,0.3-0.1,0.5c-0.1,0.1-0.1,0.3-0.2,0.4
		s-0.2,0.2-0.3,0.4c-0.1,0.1-0.2,0.2-0.3,0.3c-0.1,0.1-0.2,0.1-0.3,0.1c-0.1,0-0.2,0-0.3,0c-0.1,0-0.1-0.1-0.2-0.2
		c0-0.1-0.1-0.3-0.1-0.4c0-0.2,0-0.3,0.1-0.5c0-0.2,0.1-0.3,0.2-0.4s0.2-0.3,0.3-0.4c0.1-0.1,0.2-0.2,0.3-0.3
		c0.1-0.1,0.2-0.1,0.3-0.1c0.1,0,0.2,0,0.3,0c0.1,0,0.1,0.1,0.2,0.2S77.6,405.3,77.6,405.4z M76.8,406.5c0.2-0.1,0.3-0.2,0.4-0.4
		c0.1-0.2,0.1-0.4,0.1-0.5s0-0.3-0.1-0.4s-0.3-0.1-0.4,0c-0.2,0.1-0.3,0.2-0.4,0.4c-0.1,0.2-0.1,0.4-0.1,0.5c0,0.2,0.1,0.4,0.1,0.4
		S76.6,406.6,76.8,406.5z"/>
	<path class="st0" d="M148.6,578.5h-4.2l-0.6,2.6h-2.4l2.9-12.3h4.4l2.9,12.3h-2.4L148.6,578.5z M144.9,576.3h3.1l-1.4-6.3h-0.3
		L144.9,576.3z"/>
	<path class="st0" d="M155.4,576.5v4.7h-2.3v-12.3h4.8c0.6,0,1.1,0.1,1.6,0.3c0.4,0.2,0.8,0.5,1.2,0.8c0.3,0.3,0.6,0.7,0.7,1.2
		c0.2,0.4,0.2,0.9,0.2,1.3v0.4c0,0.5-0.1,0.9-0.2,1.3c-0.3,0.9-1,1.6-1.9,2c-0.5,0.2-1.1,0.3-1.6,0.3H155.4z M155.4,574.3h2.3
		c0.4,0,0.9-0.1,1.2-0.4c0.3-0.3,0.5-0.7,0.4-1.1v-0.2c0-0.4-0.1-0.8-0.4-1.1c-0.3-0.3-0.8-0.5-1.2-0.4h-2.3V574.3z"/>
	<path class="st0" d="M163.9,568.8h8.2v2.2h-3v7.9h3v2.2h-8.2v-2.2h3V571h-3V568.8z"/>
	<path class="st0" d="M7.2,337.7H3l-0.6,2.6H0L2.9,328h4.4l2.9,12.3H7.8L7.2,337.7z M3.5,335.5h3.2l-1.4-6.3H5L3.5,335.5z"/>
	<path class="st0" d="M17.6,339.2h0.3V328h2.3v12.3h-4.5l-1.4-11.2H14v11.2h-2.3V328h4.5L17.6,339.2z"/>
	<path class="st0" d="M28.8,337.7h-4.2l-0.6,2.6h-2.4l2.9-12.3h4.4l2.9,12.3h-2.4L28.8,337.7z M25.1,335.5h3.2l-1.4-6.3h-0.3
		L25.1,335.5z"/>
	<path class="st0" d="M33.5,328h2.3v10.1h5.6v2.2h-7.9C33.5,340.3,33.5,328,33.5,328z"/>
	<path class="st0" d="M47,336h-0.5l-3.5-8h2.5l2.5,5.9h0.3l2.5-5.9h2.5l-3.5,8h-0.5v4.3H47V336z"/>
	<path class="st0" d="M54.5,328h8.9v2.2h-3.3v10.1h-2.3v-10.1h-3.3C54.5,330.2,54.5,328,54.5,328z"/>
	<path class="st0" d="M65.6,328h8.2v2.2h-3v7.9h3v2.2h-8.2v-2.2h3v-7.9h-3V328z"/>
	<path class="st0" d="M80.6,338.5c0.4,0,0.8-0.1,1.1-0.2c0.3-0.1,0.5-0.3,0.7-0.5s0.3-0.5,0.3-0.8c0.1-0.3,0.1-0.6,0.1-0.9v-0.3h2.3
		v0.3c0.1,1.2-0.3,2.5-1.2,3.4c-2,1.6-4.8,1.6-6.7-0.1c-0.9-1-1.3-2.4-1.2-3.8v-2.8c0-0.7,0.1-1.4,0.3-2.1c0.2-0.6,0.5-1.1,0.9-1.6
		c0.4-0.4,0.9-0.8,1.4-1c0.6-0.2,1.3-0.4,1.9-0.3c0.7,0,1.3,0.1,1.9,0.3c0.5,0.2,1,0.5,1.4,0.9s0.7,0.9,0.9,1.4
		c0.2,0.6,0.3,1.3,0.3,1.9v0.3h-2.3v-0.3c0-0.3,0-0.6-0.1-0.9s-0.2-0.6-0.3-0.8c-0.2-0.2-0.4-0.4-0.7-0.6c-0.3-0.2-0.7-0.2-1.1-0.2
		c-0.3,0-0.7,0.1-1,0.2s-0.5,0.4-0.7,0.6c-0.2,0.3-0.3,0.6-0.4,0.9s-0.1,0.7-0.1,1v3.1c0,0.4,0,0.7,0.1,1.1c0.1,0.3,0.2,0.6,0.4,0.9
		c0.2,0.2,0.4,0.4,0.7,0.6C79.8,338.4,80.2,338.5,80.6,338.5z"/>
	<path class="st0" d="M93.4,331.8c0-0.5-0.2-1-0.6-1.3c-0.4-0.4-1-0.6-1.6-0.5c-0.5,0-1,0.1-1.4,0.4c-0.3,0.2-0.5,0.6-0.5,1
		c0,0.2,0,0.4,0.1,0.6s0.2,0.3,0.4,0.5c0.3,0.2,0.5,0.3,0.8,0.4c0.4,0.1,0.9,0.2,1.3,0.3c1.1,0.1,2.1,0.5,3,1.2
		c0.7,0.6,1.1,1.5,1,2.5v0.2c0,0.5-0.1,1.1-0.3,1.5c-0.2,0.5-0.5,0.9-0.9,1.2c-0.4,0.3-0.9,0.6-1.4,0.8c-0.6,0.2-1.2,0.3-1.9,0.3
		c-0.7,0-1.5-0.1-2.1-0.3c-0.6-0.2-1.1-0.6-1.5-1s-0.7-0.9-0.9-1.4c-0.2-0.6-0.3-1.2-0.3-1.8v-0.5h2.3v0.5c0,0.7,0.2,1.3,0.6,1.8
		c0.5,0.5,1.3,0.7,2,0.7c0.6,0,1.1-0.1,1.6-0.5c0.3-0.3,0.5-0.7,0.5-1.1c0-0.2,0-0.4-0.1-0.6s-0.2-0.4-0.4-0.5
		c-0.2-0.2-0.5-0.3-0.7-0.4c-0.4-0.1-0.8-0.2-1.2-0.3c-0.6-0.1-1.2-0.2-1.7-0.4c-0.5-0.2-0.9-0.4-1.3-0.7c-0.4-0.3-0.7-0.6-0.9-1.1
		c-0.2-0.5-0.3-1-0.3-1.5v-0.1c0-0.5,0.1-1,0.3-1.4c0.2-0.4,0.5-0.8,0.9-1.1c0.4-0.3,0.9-0.6,1.3-0.7c1.2-0.4,2.5-0.3,3.7,0
		c0.5,0.2,1,0.5,1.4,0.8s0.7,0.8,0.9,1.2c0.2,0.5,0.3,0.9,0.3,1.4v0.6h-2.4C93.4,332.5,93.4,331.8,93.4,331.8z"/>
	
		<linearGradient id="SVGID_25_" gradientUnits="userSpaceOnUse" x1="-3602.262" y1="-2538.5723" x2="-3602.2419" y2="-2539.0623" gradientTransform="matrix(-152 0 0 -167 -547023.9375 -423301.0313)">
		<stop  offset="4.000000e-02" style="stop-color:#1A1A1A"/>
		<stop  offset="0.97" style="stop-color:#999999;stop-opacity:0"/>
	</linearGradient>
	<path class="st43" d="M575.4,601.1l-112.9,4.1v120h112.9V601.1z"/>
	
		<linearGradient id="SVGID_26_" gradientUnits="userSpaceOnUse" x1="-3562.6768" y1="-2540.0679" x2="-3562.3069" y2="-2540.418" gradientTransform="matrix(-72 0 0 -156 -256008.9375 -395619.625)">
		<stop  offset="0" style="stop-color:#333333"/>
		<stop  offset="0.14" style="stop-color:#454545;stop-opacity:0.82"/>
		<stop  offset="0.66" style="stop-color:#828282;stop-opacity:0.23"/>
		<stop  offset="0.95" style="stop-color:#999999;stop-opacity:0"/>
	</linearGradient>
	<path class="st44" d="M515.9,601.1l-53.5,3.8V717h53.5V601.1z"/>
	<path class="st45" d="M520,572l-56.5,32.7c-1.6,0.9-1.4,2.5,0.5,3.6l47.6,27.6c1.9,1.1,4.2,1.2,6.2,0.3l56.5-32.7
		c1.6-0.9,1.4-2.5-0.5-3.6l-47.7-27.6C524.3,571.2,522,571.1,520,572z"/>
	
		<linearGradient id="SVGID_27_" gradientUnits="userSpaceOnUse" x1="510.9381" y1="217.4913" x2="554.8183" y2="225.226" gradientTransform="matrix(1 0 0 1 0 372)">
		<stop  offset="0" style="stop-color:#FFFFFF"/>
		<stop  offset="1" style="stop-color:#D4D4D4"/>
	</linearGradient>
	<path class="st46" d="M515.4,590c7-1.1,14.6,0.1,19.8,3.1s7.2,7.3,5.3,11.4l12.3,1.9c3-6.6-0.3-13.7-8.7-18.5s-20.6-6.8-32-5
		l1.7,3.5L515.4,590z"/>
	
		<linearGradient id="SVGID_28_" gradientUnits="userSpaceOnUse" x1="507.3746" y1="196.0035" x2="558.4726" y2="205.012" gradientTransform="matrix(1 0 0 1 0 372)">
		<stop  offset="0" style="stop-color:#FFFFFF"/>
		<stop  offset="1" style="stop-color:#D4D4D4"/>
	</linearGradient>
	<path class="st47" d="M553.9,560.5L553.9,560.5c0.3-5.3-3.2-10.5-9.8-14.3c-8.4-4.8-20.6-6.8-32-5V583l1.7,3.5l1.7,3.5
		c7-1.1,14.6,0.1,19.8,3.1c2.3,1.2,4.2,3.1,5.3,5.4v6l12.3,1.9l0,0c0.7-1.6,1.1-3.3,1.1-5l0,0L553.9,560.5z"/>
	
		<linearGradient id="SVGID_29_" gradientUnits="userSpaceOnUse" x1="472.6714" y1="169.8802" x2="525.8214" y2="200.5703" gradientTransform="matrix(1 0 0 1 0 372)">
		<stop  offset="3.000000e-02" style="stop-color:#808080"/>
		<stop  offset="0.21" style="stop-color:#A1A1A1"/>
		<stop  offset="0.42" style="stop-color:#BFBFBF"/>
		<stop  offset="0.62" style="stop-color:#D5D5D5"/>
		<stop  offset="0.82" style="stop-color:#E2E2E2"/>
		<stop  offset="1" style="stop-color:#E6E6E6"/>
	</linearGradient>
	<polygon class="st48" points="515.4,548.3 515.4,590 512.1,583 512.1,541.2 	"/>
	<path class="st22" d="M515.4,548.3c7-1.1,14.6,0.1,19.8,3.1s7.2,7.3,5.3,11.4l12.3,1.9c3-6.6-0.3-13.7-8.7-18.5s-20.6-6.8-32-5
		l1.7,3.5L515.4,548.3z"/>
	
		<linearGradient id="SVGID_30_" gradientUnits="userSpaceOnUse" x1="497.8021" y1="184.399" x2="561.0422" y2="220.909" gradientTransform="matrix(1 0 0 1 0 372)">
		<stop  offset="3.000000e-02" style="stop-color:#808080"/>
		<stop  offset="0.21" style="stop-color:#A1A1A1"/>
		<stop  offset="0.42" style="stop-color:#BFBFBF"/>
		<stop  offset="0.62" style="stop-color:#D5D5D5"/>
		<stop  offset="0.82" style="stop-color:#E2E2E2"/>
		<stop  offset="1" style="stop-color:#E6E6E6"/>
	</linearGradient>
	<polygon class="st49" points="540.5,562.8 540.5,604.5 552.8,606.5 552.8,564.7 	"/>
	<path class="st50" d="M535.1,593.1c-5.2-3-12.7-4.2-19.8-3.1l0,0c-3.2,0.4-6.3,1.5-9.1,3c-2.3,1.2-4.1,3-5.3,5.3
		c-1.9,4.1,0.2,8.4,5.4,11.4s12.7,4.2,19.8,3.1l0,0c3.2-0.4,6.3-1.5,9.1-3c2.3-1.2,4.1-3,5.3-5.3
		C542.3,600.5,540.3,596.1,535.1,593.1z"/>
	
		<linearGradient id="SVGID_31_" gradientUnits="userSpaceOnUse" x1="503.9323" y1="224.7739" x2="498.7523" y2="215.0339" gradientTransform="matrix(1 0 0 1 0 372)">
		<stop  offset="0" style="stop-color:#0045F4;stop-opacity:0"/>
		<stop  offset="1" style="stop-color:#6DFAFA"/>
	</linearGradient>
	<path class="st51" d="M506.2,593.1c2.8-1.5,5.9-2.6,9.1-3l-1.7-3.5l-1.7-3.5l0,0c-5.2,0.7-10.2,2.4-14.8,4.9
		c-4.1,2.4-7.1,5.3-8.5,8.6l12.3,1.9C502.2,596.1,504,594.3,506.2,593.1z"/>
	
		<linearGradient id="SVGID_32_" gradientUnits="userSpaceOnUse" x1="486.6315" y1="194.4311" x2="518.5801" y2="200.0644" gradientTransform="matrix(1 0 0 1 0 372)">
		<stop  offset="0" style="stop-color:#FFFFFF"/>
		<stop  offset="1" style="stop-color:#D4D4D4"/>
	</linearGradient>
	<path class="st52" d="M513.7,544.7l-1.7-3.5c-5.2,0.7-10.2,2.4-14.8,4.9c-4.1,2.4-7.1,5.3-8.5,8.6l0,0v41.8l12.3,1.9l0,0
		c1.2-2.3,3-4.1,5.3-5.3c2.8-1.5,5.9-2.6,9.1-3v-41.8L513.7,544.7z"/>
	
		<linearGradient id="SVGID_33_" gradientUnits="userSpaceOnUse" x1="445.9904" y1="176.2921" x2="509.2303" y2="212.8021" gradientTransform="matrix(1 0 0 1 0 372)">
		<stop  offset="3.000000e-02" style="stop-color:#808080"/>
		<stop  offset="0.21" style="stop-color:#A1A1A1"/>
		<stop  offset="0.42" style="stop-color:#BFBFBF"/>
		<stop  offset="0.62" style="stop-color:#D5D5D5"/>
		<stop  offset="0.82" style="stop-color:#E2E2E2"/>
		<stop  offset="1" style="stop-color:#E6E6E6"/>
	</linearGradient>
	<polygon class="st53" points="501,556.6 501,598.4 488.7,596.4 488.7,554.7 	"/>
	<path class="st22" d="M506.2,551.3c2.8-1.5,5.9-2.6,9.1-3l-1.7-3.5l-1.7-3.5l0,0c-5.2,0.7-10.2,2.4-14.8,4.9
		c-4.1,2.4-7.1,5.3-8.5,8.6l12.3,1.9C502.2,554.3,504,552.5,506.2,551.3z"/>
	
		<linearGradient id="SVGID_34_" gradientUnits="userSpaceOnUse" x1="539.35" y1="247.95" x2="539.35" y2="232.55" gradientTransform="matrix(1 0 0 1 0 372)">
		<stop  offset="0" style="stop-color:#0045F4;stop-opacity:0"/>
		<stop  offset="1" style="stop-color:#6DFAFA"/>
	</linearGradient>
	<path class="st54" d="M544.2,615c4.1-2.4,7.1-5.3,8.5-8.6l-12.3-1.9c-1.2,2.3-3,4.1-5.3,5.3c-2.8,1.5-5.9,2.6-9.1,3l1.9,4l1.4,3.1
		l0,0C534.6,619.2,539.6,617.5,544.2,615z"/>
	
		<linearGradient id="SVGID_35_" gradientUnits="userSpaceOnUse" x1="522.9292" y1="217.2095" x2="554.8448" y2="222.8288" gradientTransform="matrix(1 0 0 1 0 372)">
		<stop  offset="0" style="stop-color:#A8190A"/>
		<stop  offset="1" style="stop-color:#E0341B"/>
	</linearGradient>
	<path class="st55" d="M552.7,564.8l-12.2-1.9c-1.2,2.3-3,4.1-5.3,5.3c-2.8,1.5-5.9,2.6-9.1,3l1.9,4l1.4,3.1l0,0v33.9
		c-1.1,0.3-2.2,0.5-3.3,0.7l1.9,4l1.4,3.1l0,0c5.2-0.7,10.2-2.4,14.8-4.9c4.1-2.4,7.1-5.3,8.5-8.6L552.7,564.8L552.7,564.8z"/>
	<path class="st56" d="M544.2,573.3c4.1-2.4,7.1-5.3,8.5-8.6l-12.3-1.9c-1.2,2.3-3,4.1-5.3,5.3c-2.8,1.5-5.9,2.6-9.1,3l1.9,4
		l1.4,3.1l0,0C534.6,577.5,539.6,575.9,544.2,573.3z"/>
	
		<linearGradient id="SVGID_36_" gradientUnits="userSpaceOnUse" x1="486.7451" y1="199.9259" x2="539.8151" y2="230.5658" gradientTransform="matrix(1 0 0 1 0 372)">
		<stop  offset="0" style="stop-color:#A8190A"/>
		<stop  offset="0.44" style="stop-color:#A8190A"/>
		<stop  offset="1" style="stop-color:#A8190A"/>
	</linearGradient>
	<polygon class="st57" points="526.1,571.2 526.1,612.9 529.4,620 529.4,578.3 	"/>
	
		<linearGradient id="SVGID_37_" gradientUnits="userSpaceOnUse" x1="480.9867" y1="208.8684" x2="503.3667" y2="221.7884" gradientTransform="matrix(1 0 0 1 0 372)">
		<stop  offset="3.000000e-02" style="stop-color:#808080"/>
		<stop  offset="0.21" style="stop-color:#A1A1A1"/>
		<stop  offset="0.42" style="stop-color:#BFBFBF"/>
		<stop  offset="0.62" style="stop-color:#D5D5D5"/>
		<stop  offset="0.82" style="stop-color:#E2E2E2"/>
		<stop  offset="1" style="stop-color:#E6E6E6"/>
	</linearGradient>
	<polygon class="st58" points="501,584.2 501,597.7 495.9,597.7 495.9,583.4 	"/>
	
		<linearGradient id="SVGID_38_" gradientUnits="userSpaceOnUse" x1="485.488" y1="226.379" x2="531.8045" y2="234.5483" gradientTransform="matrix(1 0 0 1 0 372)">
		<stop  offset="0" style="stop-color:#FFFFFF"/>
		<stop  offset="1" style="stop-color:#D4D4D4"/>
	</linearGradient>
	<path class="st59" d="M528,602.7l-1.9-4c-7,1.1-14.6-0.1-19.8-3.1s-7.2-7.3-5.4-11.4l-12.3-1.9c-0.7,1.5-1.1,3.2-1.1,4.9l0,0v14.5
		l0,0c0.2,4.9,3.6,9.7,9.8,13.3c8.4,4.8,20.6,6.8,32,5v-14.1L528,602.7z"/>
	<path class="st22" d="M526.1,598.7c-7,1.1-14.6-0.1-19.8-3.1s-7.2-7.3-5.4-11.4l-12.3-1.9c-3,6.6,0.3,13.7,8.7,18.5s20.6,6.8,32,5
		l-1.4-3.1L526.1,598.7z"/>
	<line class="st60" x1="524.2" y1="483.2" x2="524.2" y2="544.1"/>
	<line class="st60" x1="546.6" y1="516.9" x2="546.6" y2="556.1"/>
	<line class="st60" x1="502" y1="507.2" x2="502" y2="548.9"/>
	
		<linearGradient id="SVGID_39_" gradientUnits="userSpaceOnUse" x1="543.7594" y1="184.149" x2="549.5094" y2="184.149" gradientTransform="matrix(1 0 0 1 -1.000417e-02 372.001)">
		<stop  offset="0" style="stop-color:#A8190A"/>
		<stop  offset="1" style="stop-color:#E0341B"/>
	</linearGradient>
	<path class="st61" d="M543.7,556.1c0-0.9,1.3-1.7,2.9-1.6s2.9,0.8,2.9,1.7s-1.3,1.7-2.9,1.6C545,557.7,543.7,557,543.7,556.1z"/>
	
		<linearGradient id="SVGID_40_" gradientUnits="userSpaceOnUse" x1="521.2737" y1="172.1521" x2="527.0237" y2="172.1521" gradientTransform="matrix(1 0 0 1 -1.573962e-02 371.9979)">
		<stop  offset="0" style="stop-color:#A8190A"/>
		<stop  offset="1" style="stop-color:#E0341B"/>
	</linearGradient>
	<path class="st62" d="M521.3,544.1c0-0.9,1.3-1.7,2.9-1.6s2.9,0.8,2.9,1.7s-1.3,1.7-2.9,1.6C522.5,545.8,521.3,545,521.3,544.1z"/>
	
		<linearGradient id="SVGID_41_" gradientUnits="userSpaceOnUse" x1="499.1477" y1="176.9573" x2="504.8977" y2="176.9573" gradientTransform="matrix(1 0 0 1 -9.516570e-03 371.9928)">
		<stop  offset="0" style="stop-color:#A8190A"/>
		<stop  offset="1" style="stop-color:#E0341B"/>
	</linearGradient>
	<path class="st63" d="M499.1,548.9c0-0.9,1.3-1.7,2.9-1.6c1.6,0,2.9,0.8,2.9,1.7s-1.3,1.7-2.9,1.6S499.1,549.8,499.1,548.9z"/>
	
		<linearGradient id="SVGID_42_" gradientUnits="userSpaceOnUse" x1="522.3416" y1="-125.8505" x2="546.7316" y2="-58.8405" gradientTransform="matrix(1 0 0 1 0 372)">
		<stop  offset="0" style="stop-color:#FFFFFF"/>
		<stop  offset="0.32" style="stop-color:#EFEFEF"/>
		<stop  offset="0.96" style="stop-color:#C6C6C6"/>
		<stop  offset="1" style="stop-color:#C3C3C3"/>
	</linearGradient>
	<path class="st64" d="M579.8,287.2c0,0.3,0,0.5,0,0.8c-0.3,6.2-4.5,12.3-12.6,17c-16.9,9.8-44.4,9.7-61.4-0.1
		c-8-4.6-12.3-10.6-12.8-16.6l0,0c0-0.4,0-0.7,0-1c0-0.5,0-1,0-1.5c0.9-23.9,21-42.6,45-41.8C561.3,244.9,579.7,264,579.8,287.2
		L579.8,287.2z"/>
	
		<linearGradient id="SVGID_43_" gradientUnits="userSpaceOnUse" x1="462.0117" y1="-130.5085" x2="500.3744" y2="-25.1313" gradientTransform="matrix(1 0 0 1 0 372)">
		<stop  offset="0" style="stop-color:#FFFFFF"/>
		<stop  offset="0.32" style="stop-color:#EFEFEF"/>
		<stop  offset="0.96" style="stop-color:#C6C6C6"/>
		<stop  offset="1" style="stop-color:#C3C3C3"/>
	</linearGradient>
	<path class="st65" d="M552.3,306c0,1.3,0,2.5-0.1,3.8c-1.4,8.8-7.9,17.4-19.6,24.2c-26.6,15.3-69.8,15.3-96.6-0.2
		c-12.5-7.2-19.3-16.5-20.1-26l0,0c0-0.6,0-1.2,0-1.8c0-0.8,0-1.7,0-2.5c1.4-37.6,33.1-67,70.7-65.6c35.4,1.3,63.9,29.6,65.6,65
		C552.2,303.9,552.3,305,552.3,306z"/>
	
		<linearGradient id="SVGID_44_" gradientUnits="userSpaceOnUse" x1="422.196" y1="-72.2421" x2="443.0361" y2="-14.9921" gradientTransform="matrix(1 0 0 1 0 372)">
		<stop  offset="0" style="stop-color:#FFFFFF"/>
		<stop  offset="0.32" style="stop-color:#EFEFEF"/>
		<stop  offset="0.96" style="stop-color:#C6C6C6"/>
		<stop  offset="1" style="stop-color:#C3C3C3"/>
	</linearGradient>
	<path class="st66" d="M471.3,334.8v0.2c0,5.4-3.6,10.9-10.8,15c-14.4,8.3-37.9,8.3-52.4-0.1c-7.2-4.2-10.9-9.6-11-15.1v-0.2
		c0.4-20.5,17.3-36.8,37.8-36.4C455,298.6,471.1,314.8,471.3,334.8z"/>
	
		<linearGradient id="SVGID_45_" gradientUnits="userSpaceOnUse" x1="-3704.644" y1="-2481.1021" x2="-3704.5339" y2="-2481.2122" gradientTransform="matrix(-36 62.35 135.1 78 201952.75 424915.6875)">
		<stop  offset="4.000000e-02" style="stop-color:#1A1A1A"/>
		<stop  offset="0.97" style="stop-color:#999999;stop-opacity:0"/>
	</linearGradient>
	<path class="st67" d="M140.8,405.1l-8.7,15.3l-25.4-14.7l8.1-15.7L140.8,405.1z"/>
	<polygon class="st45" points="150.1,410.1 132.1,420.5 132.1,399.7 150.1,389.2 	"/>
	
		<linearGradient id="SVGID_46_" gradientUnits="userSpaceOnUse" x1="-3704.3228" y1="-2481.0708" x2="-3704.1628" y2="-2481.2307" gradientTransform="matrix(-36 62.35 135.1 78 201952.75 424915.6875)">
		<stop  offset="4.000000e-02" style="stop-color:#1A1A1A"/>
		<stop  offset="0.97" style="stop-color:#999999;stop-opacity:0"/>
	</linearGradient>
	<path class="st68" d="M143.5,434.9l-8.7,15.3L80.3,420l8.1-15.7L143.5,434.9z"/>
	
		<linearGradient id="SVGID_47_" gradientUnits="userSpaceOnUse" x1="134.7" y1="62.65" x2="152.78" y2="62.65" gradientTransform="matrix(1 0 0 1 0 372)">
		<stop  offset="0" style="stop-color:#A8190A"/>
		<stop  offset="1" style="stop-color:#E0341B"/>
	</linearGradient>
	<polygon class="st69" points="152.8,439.8 134.7,450.3 134.7,429.4 152.8,419 	"/>
	
		<linearGradient id="SVGID_48_" gradientUnits="userSpaceOnUse" x1="-3703.9736" y1="-2481.2915" x2="-3703.8638" y2="-2481.3914" gradientTransform="matrix(-36 62.35 135.1 78 201952.75 424915.6875)">
		<stop  offset="4.000000e-02" style="stop-color:#1A1A1A"/>
		<stop  offset="0.97" style="stop-color:#999999;stop-opacity:0"/>
	</linearGradient>
	<path class="st70" d="M92.7,432.2L84,447.5l-25.4-14.7l8.1-15.7L92.7,432.2z"/>
	<polygon class="st45" points="102,437.2 84,447.6 84,426.8 102,416.3 	"/>
</g>
</svg>
