<svg xmlns="http://www.w3.org/2000/svg" xmlns:xlink="http://www.w3.org/1999/xlink" width="577.5" height="524.4" xmlns:v="https://vecta.io/nano"><style><![CDATA[.AL{fill:#e6e6e6}.AM{fill:#f2bab4}.AN{fill:#f8d8d5}.AO{fill:gray}.AP{fill:#f7d4d0}.AQ{fill:#ccc}.AR{stroke-miterlimit:10}.AS{fill:none}.AT{fill:#fae5e3}.AU{fill:#fff}.AV{stroke:#e0341b}.AW{stroke-width:1.11}.AX{fill:#770b0d}.AY{fill:#f5c7c3}.AZ{fill:#f3c1bc}.Aa{fill:#f9e0de}.Ab{fill-rule:evenodd}.Ac{fill:#e0341b}.Ad{stroke:#e2887f}]]></style><linearGradient id="A" gradientUnits="userSpaceOnUse" x1="461.4" y1="276.204" x2="459.88" y2="316.284"><stop offset=".04" stop-color="#1a1a1a"/><stop offset=".97" stop-color="#999" stop-opacity="0"/></linearGradient><path d="M488.9,256.1l-55.9,2v59.4h55.9V256.1z" fill="url(#A)" fill-opacity=".06" class="Ab"/><linearGradient id="B" gradientUnits="userSpaceOnUse" x1="453.749" y1="281.349" x2="440.076" y2="287.328"><stop offset="0" stop-color="#333"/><stop offset=".14" stop-color="#454545" stop-opacity=".82"/><stop offset=".66" stop-color="#828282" stop-opacity=".23"/><stop offset=".95" stop-color="#999" stop-opacity="0"/></linearGradient><g class="Ab"><path d="M459.5,256.1L433,258v55.5h26.5V256.1z" fill="url(#B)" fill-opacity=".1"/><path d="M461.5 241.7l-28 16.2c-.8.5-.7 1.3.2 1.8l23.6 13.6c1 .5 2.1.6 3.1.1l28-16.2c.8-.5.7-1.3-.2-1.8l-23.6-13.6c-1-.5-2.1-.6-3.1-.1z" class="AL"/></g><linearGradient id="C" gradientUnits="userSpaceOnUse" x1="28.823" y1="431.408" x2="25.783" y2="511.664"><stop offset=".04" stop-color="#1a1a1a"/><stop offset=".97" stop-color="#999" stop-opacity="0"/></linearGradient><path d="M55.9 375.4l-55.9 2v147h55.9v-149z" fill="url(#C)" fill-opacity=".06" class="Ab"/><linearGradient id="D" gradientUnits="userSpaceOnUse" x1="25.954" y1="441.337" x2="2.907" y2="451.306"><stop offset="0" stop-color="#333"/><stop offset=".14" stop-color="#454545" stop-opacity=".82"/><stop offset=".66" stop-color="#828282" stop-opacity=".23"/><stop offset=".95" stop-color="#999" stop-opacity="0"/></linearGradient><g class="Ab"><path d="M26.5,375.4L0,377.2v143.1h26.5V375.4z" fill="url(#D)" fill-opacity=".1"/><path d="M28.5 361l-28 16.1c-.8.5-.7 1.3.2 1.8l23.6 13.6c.9.5 2.1.6 3.1.1l28-16.2c.8-.5.7-1.3-.2-1.8l-23.6-13.7c-1-.3-2.1-.4-3.1.1z" class="AL"/></g><path d="M293.9 212.7h0M386 196l-.3.2-1.9 1.1v5.2l2.2-1.3V196m0-7.1l-2.2 1.3v5.2l1.9-1.1.3-.2v-5.2m0-7.1l-2.2 1.3v5.2l2.2-1.2v-5.3m41.1-7h0m-42.7-16.7l-18.3 10.6v22.7l.4-.3.9-.5 2.8-1.6v1.9l-3.5 2-.2.1-.4.3v5.2l.4-.2 1.8-1 1.9-1.1v1.8l-1.9 1.1-.9.5-1.3.8v5.2l.4-.3.9-.5 2.8-1.6v1.9l-1.9 1.1-.9.5-1.3.8v5.2l4.1-2.4v1.9l-2.1 1.2-1.6.9-.4.2v24.6c.2-.1.4-.1.5-.1h0c.1 0 .2 0 .4.1l19-32.8V203l-2.2 1.3v4.9l-13.6 7.9V184l13.6-7.8v4.9l1.9-1.1.3-.2v-20.6h-.2c-.4 0-.8-.2-1.1-.5-.2-.1-.3-.4-.3-.6m-37.9-2.6h0m40-29h0M275.8 242c.3-.2.7-.3 1.1-.3h0c.4 0 .8.2 1.1.5.3.4.4.8.4 1.3 0 .8-.2 1.5-.6 2.2-.3.6-.8 1.1-1.4 1.5v5.2c.3-.1.5-.2.8-.2.9 0 1.5.8 1.5 2.2v12.5c0 1.8-.8 3.4-2.2 4.6v5.1c.2 0 .4-.1.5-.1h0c.4 0 .8.2 1.1.5.3.4.4.8.4 1.3 0 .8-.2 1.5-.6 2.2a4.1 4.1 0 0 1-1.6 1.6h0c-.3.2-.7.3-1.1.3h0c-.4 0-.8-.2-1.1-.5-.3-.4-.4-.8-.4-1.3 0-.8.2-1.5.6-2.2.3-.6.8-1.1 1.4-1.5v-5a1.69 1.69 0 0 1-1 .3c-.3 0-.6-.1-.8-.3-.5-.4-.8-1.1-.8-1.7v-12.9c0-.9.3-1.8.8-2.6.4-.7.9-1.4 1.6-1.9v-5.3c-.2.1-.4.1-.5.1h0c-.4 0-.8-.2-1.1-.5-.3-.4-.4-.8-.4-1.3 0-.8.2-1.5.6-2.2.5-.7 1-1.2 1.7-1.6h0m118.2 2.8v-6.4l1.6-.9v6.4l-1.6.9M252.4 236c.3-.2.7-.3 1.1-.3h0c.4 0 .8.2 1.1.5.3.4.4.8.4 1.3 0 .8-.2 1.5-.6 2.2-.3.6-.8 1.1-1.4 1.5v5.2l3.1-1.8v44l-15.4 8.9v-1.8l-11.7 6.8V262l11.8-6.8v-1.7l3.6-2.1V246c-.2.1-.4.1-.6.1h0c-.4 0-.8-.2-1.1-.5-.3-.4-.4-.8-.4-1.3 0-.8.2-1.5.6-2.2a4.1 4.1 0 0 1 1.6-1.6h0c.3-.2.7-.3 1.1-.3h0c.4 0 .8.2 1.1.5.3.4.4.8.4 1.3 0 .8-.3 1.5-.6 2.2-.3.6-.8 1.1-1.4 1.5v5.2l7.1-4.1v-5.2c-.2.1-.4.1-.6.1h0c-.4 0-.8-.2-1.1-.5-.3-.4-.4-.8-.4-1.3.2-1.7 1-3.1 2.3-3.9h0m147.8 5.2v-6.4l1.6-.9v6.4l-1.6.9m0-15.6v-6.4l1.6-1v6.4l2.9-1.6v9l-13.6 7.9v-9l2.9-1.6v-6.4l1.6-1v6.4l4.6-2.7M321.8 212v-11l1.6-1v11l2.7-1.6v3.1l3.3-1.9 3.1-1.8 3.3-1.9v2l-3.3 1.9-1.5.9-4.8 2.8v1.7l4.8-2.8 1.5-.9 3.3-1.9v1.9l-4.8 2.7-1.5.9-3.3 1.9v1.7l9.6-5.5v1.9l-3.3 1.9-3.1 1.8-3.3 1.9v1.7l3.3-1.9 3.1-1.8 3.3-1.9v1.9l-9.6 5.5v1.7l4.8-2.8 1.5-.9 3.3-1.9v1.9L331 226l-1.5.9-3.3 1.9v1.7l3.3-1.9 1.5-.9 4.8-2.8v1.9l-3.3 1.9-3.1 1.8-3.3 1.9v1.7l3.3-1.9 3.1-1.8 3.3-1.9v1.9l-9.6 5.5v1.7l9.6-5.5v1.9l-3.3 1.9-3.1 1.8-3.3 1.9v3.1l-2.7 1.6v11l-1.6 1v-11l-1.5.9v11l-1.6 1v-11l-1.5.8v11l-1.6 1v-11l-1.5.8v11l-1.6 1v-11l-1.5.8v11l-1.6 1v-11l-1.5.9v11l-1.6 1v-11l-1.5.8v11l-1.6 1v-11l-1.5.8v11l-1.6 1v-11l-2.7 1.6v-3.1l-9.6 5.5v-1.9l3.3-1.9 3.1-1.8 3.3-1.9v-1.7l-3.3 1.9-3.1 1.8-3.3 1.9v-1.9l9.6-5.5V249l-9.6 5.5v-1.9l3.3-1.9 3.1-1.8 3.3-1.9v-1.7l-3.3 1.9-2.7 1.6-3.6 2.1v-2l3.3-1.9.9-.5 5.4-3.1v-1.7l-3.3 1.9-3 1.8-3.3 1.9v-1.9l9.6-5.5v-1.7l-9.6 5.5v-1.9l3.3-1.9 3.1-1.8 3.3-1.9v-1.6l-3.3 1.9-3.1 1.8-3.3 1.9v-1.9l9.6-5.5v-1.7l-3.3 1.9-3 1.8-3.3 1.9v-1.9l6.3-3.6 3.3-1.9v-3.1l2.7-1.6v-11l1.6-.9v11l1.5-.8v-11l1.6-.9v11l1.5-.8v-11l1.6-1v11l1.5-.8v-11l1.6-1v11l1.5-.8v-11l1.6-1v11l1.5-.8v-11l1.6-1v11l1.5-.8v-11l1.6-.9v11l1.5-.8m28.5-17.2h0c.3-.2.7-.3 1.1-.3h0c.4 0 .8.2 1.1.5.3.4.4.8.4 1.3 0 .8-.2 1.5-.6 2.2-.3.6-.8 1.1-1.4 1.5v5.4l3.6-2.1v10.8l-3.6 2.1v5.4c.2-.1.4-.1.5-.1h0c.4 0 .8.2 1.1.5.3.4.4.8.4 1.3 0 .8-.2 1.5-.6 2.2a4.1 4.1 0 0 1-1.6 1.6l-.2-.3.2.3c-.3.2-.7.3-1.1.3h0c-.4 0-.8-.2-1.1-.5-.3-.4-.4-.8-.4-1.3 0-.8.2-1.5.6-2.2.3-.6.8-1.1 1.4-1.5V217l-3.6 2.1v-10.7l3.6-2.1v-5.5c-.2.1-.4.1-.5.1h0c-.4 0-.8-.2-1.1-.5-.3-.4-.4-.8-.4-1.3 0-.8.2-1.5.6-2.2a4.1 4.1 0 0 1 1.6-1.6m76.2 1.2v-6.4l1.6-1v6.4l2.9-1.7v9l-7.3 4.2v-9l2.8-1.5m.6-21.8c.3-.2.7-.3 1.1-.3h0c.4 0 .8.2 1.1.5.3.4.4.8.4 1.3-.1 1.6-.9 3-2.2 3.8h0c-.3.2-.7.3-1.1.3h0c-.4 0-.8-.2-1.1-.5-.3-.4-.4-.8-.4-1.3 0-.8.2-1.5.6-2.2.4-.6.9-1.2 1.6-1.6h0m-104.9-1.3h0c.3-.2.7-.3 1.1-.3h0c.4 0 .8.2 1.1.5.3.4.4.8.4 1.3 0 .8-.2 1.5-.6 2.2a4.1 4.1 0 0 1-1.6 1.6h0c-.3.2-.7.3-1.1.3h0c-.4 0-.8-.2-1.1-.5-.2-.2-.3-.4-.3-.7l-4.6 2.7c-.1 1.6-1 3.1-2.3 4.1l-3.8 2.2-5.3 3-3 1.7c-.3.2-.6.3-.9.3-.7 0-1.2-.5-1.4-1.4l-4.5 2.6c-.1.7-.3 1.4-.6 2a4.1 4.1 0 0 1-1.6 1.6h0c-.3.2-.7.3-1.1.4h0c-.4 0-.8-.2-1.1-.5-.3-.4-.4-.8-.4-1.3.1-1.6.9-3 2.2-3.8h0c.3-.2.7-.3 1.1-.3h0c.4 0 .8.2 1.1.5.2.2.3.4.3.7l4.4-2.6c.1-1.7 1-3.3 2.4-4.3l.3-.2h.1l2.6-1.5 6.3-3.7 2.3-1.4.3-.2c.3-.2.6-.3.9-.3.8 0 1.3.6 1.4 1.6l4.6-2.7c.1-.7.3-1.4.6-2 .5-.6 1.1-1.1 1.8-1.6m98.3-66.5c.3-.2.7-.3 1.1-.3h0c.4 0 .8.2 1.1.5.3.4.4.8.4 1.3 0 .8-.2 1.5-.6 2.2-.3.6-.8 1.1-1.4 1.5v5.4l3.6-2v10.7l-3.6 2.1v5.5c.2-.1.4-.1.5-.1h0c.4 0 .8.2 1.1.5.3.4.4.8.4 1.3 0 .8-.2 1.5-.6 2.2h0l4.5 2.6a4.1 4.1 0 0 1 1.6-1.6c.3-.2.7-.3 1.1-.3h0c.4 0 .8.2 1.1.5.3.4.4.8.4 1.3 0 .8-.2 1.5-.6 2.2a4.1 4.1 0 0 1-1.6 1.6l-.2-.3.2.3c-.3.2-.7.3-1.1.3h0c-.4 0-.8-.2-1.1-.5-.3-.4-.4-.8-.4-1.3s.1-1 .3-1.5l-4.6-2.6c-.3.4-.7.7-1.1 1l-.2-.3.2.3c-.3.2-.7.3-1.1.3h0c-.4 0-.8-.2-1.1-.5-.2-.2-.3-.4-.3-.7l-12.3 7.1c-.1.7-.3 1.4-.6 2a4.1 4.1 0 0 1-1.6 1.6h0c-.3.2-.7.3-1.1.3h0c-.4 0-.8-.2-1.1-.5-.2-.2-.3-.4-.3-.7l-7.8 4.5 9 5.1c.3-.5.8-.9 1.3-1.1h0c.3-.2.7-.3 1.1-.3h0c.4 0 .8.2 1.1.5.3.4.4.8.4 1.3 0 .8-.2 1.5-.6 2.2-.3.6-.8 1.1-1.4 1.5v5.2c.3-.1.5-.2.8-.2.9 0 1.5.8 1.5 2.2v12.5c0 1.8-.8 3.4-2.2 4.6v5.1c.2-.1.4-.1.5-.1h0c.4 0 .8.2 1.1.5.3.4.4.8.4 1.3 0 .8-.2 1.5-.6 2.2a4.1 4.1 0 0 1-1.6 1.6h0c-.3.2-.7.3-1.1.3h0c-.4 0-.8-.2-1.1-.5-.3-.4-.4-.8-.4-1.3 0-.8.2-1.5.6-2.2.3-.6.8-1.1 1.4-1.5v-5a1.69 1.69 0 0 1-1 .3c-.3 0-.5-.1-.8-.2-.5-.4-.8-1.1-.8-1.7V172c0-.9.3-1.8.8-2.6.4-.7.9-1.4 1.6-1.9v-5.3c-.2.1-.4.1-.5.1h0c-.4 0-.8-.2-1.1-.5-.3-.4-.4-.8-.4-1.3 0-.7.2-1.4.6-2l-9.3-5.3-3.8 2.2c-.1.7-.3 1.4-.6 2a4.1 4.1 0 0 1-1.6 1.6l-.2-.3.2.3-.1.1v20.4l.8-.4 1.9-1.1v1.9l-2.7 1.5v5.2l2.7-1.5v1.9l-2 1-.3.2-.5.3v5.2l.5-.3 2.2-1.3v1.9l-2.7 1.5v5.2l2.7-1.5v1.9l-2.7 1.5v3.9l-19.1 33 .1.1c.3.4.4.8.4 1.3 0 .8-.2 1.5-.6 2.2h0l13.5 7.7a4.67 4.67 0 0 1 1.4-1.4h0c.3-.2.7-.3 1.1-.3h0c.4 0 .8.2 1.1.5.2.2.3.4.3.7l36.2-20.8 4.5-7.8-.2-.2c-.3-.4-.4-.8-.4-1.3 0-.8.2-1.5.6-2.2.3-.6.8-1.1 1.4-1.5v-4.7l-.4.2v-6.4l1.6-1v6.4l-.5.3v4.8c.2-.1.4-.1.5-.1h0c.4 0 .8.2 1.1.5.3.4.4.8.4 1.3 0 .8-.2 1.5-.6 2.2a4.1 4.1 0 0 1-1.6 1.6h0c-.3.2-.7.3-1.1.3h0-.2l-4.6 8-36.6 21.2c-.1.7-.3 1.4-.6 2a4.1 4.1 0 0 1-1.6 1.6h0c-.3.2-.7.3-1.1.3h0c-.4 0-.8-.2-1.1-.5-.3-.4-.4-.8-.4-1.3 0-.6.2-1.2.4-1.8l-13.5-7.7c-.3.4-.7.7-1.1 1h0c-.3.2-.7.3-1.1.3h0c-.4 0-.8-.2-1.1-.5-.2-.2-.3-.4-.3-.7l-4.6 2.7c-.2 1.6-1 3.1-2.3 4.1l-6.9 4-2.1 1.3-3 1.7c-.3.2-.6.3-.9.3-.7 0-1.2-.5-1.4-1.4L338 259c-.1 1.5-1 2.8-2.2 3.6h0c-.3.2-.7.3-1.1.3h0c-.4 0-.8-.2-1.1-.5-.2-.2-.3-.4-.3-.7l-10.1 5.8-.2.1-8.6 14.9.1.1c.3.4.4.8.4 1.3h0c0 .8-.2 1.5-.6 2.2a4.1 4.1 0 0 1-1.6 1.6h0c-.3.2-.7.3-1.1.3h0c-.4 0-.8-.2-1.1-.5-.3-.4-.4-.8-.4-1.3 0-.8.2-1.5.6-2.2a4.1 4.1 0 0 1 1.6-1.6h0c.3-.2.7-.3 1.1-.3h.4l8-13.7L310 275l-8.8 15.2c.3.4.4.8.4 1.3h0c0 .8-.2 1.5-.6 2.2a4.1 4.1 0 0 1-1.6 1.6h0c-.3.2-.7.3-1.1.3h0c-.4 0-.8-.2-1.1-.5-.3-.4-.4-.8-.4-1.3a5.07 5.07 0 0 1 2.2-3.9h0c.3-.2.7-.3 1.1-.3h0c.2 0 .4 0 .5.1l8.1-14-11.3 6.5-9 15.5c.2.3.3.7.3 1.1h0c-.1 1.6-.9 3-2.2 3.8-.3.2-.7.3-1.1.3h0c-.4 0-.8-.2-1.1-.5-.3-.4-.4-.8-.4-1.3 0-.8.3-1.5.6-2.2a4.1 4.1 0 0 1 1.6-1.6h0c.3-.2.7-.3 1.1-.3h0c.2 0 .5.1.7.2l9-15.5 12.6-7.3 23.4-13.5c.1-.7.3-1.4.6-2a4.1 4.1 0 0 1 1.6-1.6h0c.3-.2.7-.3 1.1-.3h0c.4 0 .8.2 1.1.5.2.2.3.4.3.7l4.4-2.6c.1-1.7.9-3.3 2.4-4.3l1.2-.7 1.8-1 3.3-1.9 5.8-3.3c.3-.2.6-.3.9-.3.8 0 1.3.6 1.4 1.7l4.6-2.6c.1-.7.3-1.4.6-2s.8-1.1 1.4-1.5v-24.5l-.7.4v-1.9l.7-.4v-5.2l-.7.4v-1.9l.7-.4V201l-.7.4v-1.9l.7-.4v-5.2l-.7.4v-1.9l.7-.4v-26.7c-.2.1-.4.1-.6.1h0c-.4 0-.8-.2-1.1-.5-.2-.3-.3-.6-.4-1l-7.4 4.3v3.6l-1.2.7v-3.6l-3.2 1.9-.2-.3v5.4l-9 5.2-6.3 10.8-39.5 22.8c-.1 1.5-1 2.8-2.2 3.6h0c-.3.2-.7.3-1.1.3h0c-.4 0-.8-.2-1.1-.5-.3-.4-.4-.8-.4-1.3 0-.8.2-1.5.6-2.2a4.1 4.1 0 0 1 1.6-1.6h0c.3-.2.7-.3 1.1-.3h0c.4 0 .8.2 1.1.5.2.2.3.4.3.7l39-22.5 6.5-11.2v-9.6l4.3-2.5v-6.6c-.2.1-.4.1-.5.1h0c-.4 0-.8-.2-1.1-.5-.3-.4-.4-.8-.4-1.3.1-1.6.9-3 2.2-3.8h0c.3-.2.7-.3 1.1-.3h0c.4 0 .8.2 1.1.5.3.4.4.8.4 1.3 0 .8-.2 1.5-.6 2.2-.3.6-.8 1.1-1.4 1.5v6.5l3.3-1.9 3.8-6.6 7.5-4.4c.1-.7.3-1.4.6-2a4.1 4.1 0 0 1 1.6-1.6h0c.3-.2.7-.3 1.1-.3h0c.4 0 .8.2 1.1.5.3.4.4.8.4 1.3 0 .8-.2 1.5-.6 2.2a4.1 4.1 0 0 1-1.6 1.6h0c-.3.2-.7.3-1.1.3h0c-.4 0-.8-.2-1.1-.5-.2-.2-.3-.4-.3-.7l-7 4.1-3.3 5.8v4.6l3.4-2v-3.5l1.2-.7v3.5l7.3-4.2.1.2c.1-.7.3-1.3.6-1.9a4.1 4.1 0 0 1 1.6-1.6h0c.3-.2.7-.3 1.1-.3h0c.4 0 .8.2 1.1.5.3.4.4.8.4 1.3 0 .8-.2 1.5-.6 2.2-.3.6-.8 1.1-1.3 1.5v3.1l18.2-10.5c.1-.7.3-1.4.6-2s.8-1.1 1.4-1.5v-5.4l-3.6 2.1v-10.6l3.6-2v-5.5c-.2.1-.4.1-.5.1h0c-.4 0-.8-.2-1.1-.5-.3-.4-.4-.8-.4-1.3 0-.8.2-1.5.6-2.2s.9-1.2 1.6-1.7h0c.3-.2.7-.3 1.1-.3h0c.4 0 .8.2 1.1.5.3.4.4.8.4 1.3 0 .8-.2 1.5-.6 2.2-.3.6-.8 1.1-1.4 1.5v5.4l3.6-2.1v10.7l-3.6 2.1v5.5c.2-.1.4-.1.5-.1h0c.4 0 .8.2 1.1.5.2.2.3.4.3.7l12.3-7.1c.1-1.4.9-2.7 2-3.5v-5.4l-3.6 2.1v-10.8l3.6-2.1v-5.5c-.2 0-.4.1-.5.1h0c-.4 0-.8-.2-1.1-.5-.3-.4-.4-.8-.4-1.3 0-.8.2-1.5.6-2.2s.9-1.2 1.6-1.7h0c.3-.2.7-.3 1.1-.3h0c.4 0 .8.2 1.1.5.3.4.4.8.4 1.3 0 .8-.2 1.5-.6 2.2-.3.6-.8 1.1-1.4 1.5v5.4l3.6-2v10.7l-3.6 2.1v5.5c.2-.1.4-.1.5-.1h0c.4 0 .8.2 1.1.5.2.2.3.4.3.7l12.3-7.1c.1-.7.3-1.4.6-2s.8-1.1 1.4-1.5v-5.4l-3.6 2v-10.7l3.6-2.1v-5.5c-.2.1-.4.1-.5.1h0c-.4 0-.8-.2-1.1-.5-.3-.4-.4-.8-.4-1.3 0-.8.2-1.5.6-2.2.3-1.1.8-1.7 1.5-2.1h0" class="AU"/><path d="M342 179.8l-6.5 11.2-39 22.5c0 .2.1.4.1.6v.2l39.5-22.8 6.3-10.8-.3.2-.1-1.1m19.6-25.3l-7.5 4.4-3.8 6.6 1-.6v.3l3.3-5.8 7-4.1c0-.2-.1-.4-.1-.6.1-.1.1-.1.1-.2" class="AP"/><path d="M323.5 200.1l-1.7.9v11l1.7-.9v-3.8l-1.7 1v-3.5l1.7-1v-3.7" class="AM"/><path d="M323.5 203.8h0l-1.7 1v3.5l1.7-1v-3.5" class="AN"/><path d="M320.4 201.9l-1.7.9v11l1.7-.9v-3.8l-1.7 1v-3.5l1.7-1v-3.7" class="AM"/><path d="M320.4 205.6h0l-1.7 1v3.5l1.7-1v-3.5" class="AN"/><path d="M317.3 203.7l-1.7.9v11l1.7-.9v-3.8l-1.7 1v-3.5l1.7-1v-3.7" class="AM"/><path d="M317.3 207.4h0l-1.7 1v3.5l1.7-1v-3.5" class="AN"/><path d="M314.1 205.5l-1.6.9v11l1.6-1v-3.7l-1.6 1v-3.6l1.6-.9v-3.7" class="AM"/><path d="M314.1 209.2h0l-1.6.9v3.6l1.6-1v-3.5" class="AN"/><use xlink:href="#k" class="AM"/><path d="M311 211h0l-1.6.9v3.5l1.6-.9V211" class="AN"/><path d="M307.9 209l-1.6 1v11l1.6-1v-3.7l-1.6.9v-3.5l1.6-.9V209" class="AM"/><path d="M307.9 212.8h0l-1.6.9v3.5l1.6-.9v-3.5" class="AN"/><use xlink:href="#k" x="-6.2" y="3.6" class="AM"/><path d="M304.8 214.6h0l-1.6.9v3.5l1.6-.9v-3.5" class="AN"/><use xlink:href="#k" x="-9.3" y="5.4" class="AM"/><path d="M301.7 216.4h0l-1.6.9v3.5l1.6-.9v-3.5" class="AN"/><path d="M294.1 231.2l-6.3 3.6v1.9l3.3-1.9v-1.9l3-1.7m3.2-1.9h0l-3.3 1.9v1.9l3.3-1.9v-1.9" class="AM"/><path d="M294.1 231.1v.1l-3.1 1.7v1.9l3.1-1.8v-1.9" class="AN"/><path d="M297.4 232.8h0l-9.6 5.5v1.9l3.2-1.8v-1.9l3.1-1.8v1.9l3.3-1.9v-1.9" class="AM"/><path d="M294.1 234.7l-3.1 1.8v1.9l3.1-1.8v-1.9" class="AN"/><path d="M297.4 236.4h0l-3.3 1.9v1.9l-3.1 1.7V240l-3.2 1.9v1.9l9.6-5.5v-1.9" class="AM"/><path d="M294.1 238.3L291 240v1.9l3.1-1.7v-1.9" class="AN"/><path d="M297.4 239.9h0l-9.6 5.6v1.9l3.2-1.9v-1.9l3.1-1.8v1.9l3.3-1.9v-1.9" class="AM"/><path d="M294.1 241.8l-3.1 1.8v1.9l3.1-1.8v-1.9" class="AN"/><path d="M291 247.2l-3.3 1.9v1.9l3.6-2.1-.3.1v-1.8m6.4-3.7h0l-5.4 3.2 2.1-1.3v1.9l3.3-1.9v-1.9" class="AM"/><path d="M294.1 245.4l-2.1 1.2-1 .6v1.8l.4-.1 2.7-1.6v-1.9" class="AN"/><path d="M297.4 247.1h0l-3.3 1.8v1.9l-3.1 1.8v-1.9l-3.2 1.9v1.9l9.6-5.5v-1.9" class="AM"/><path d="M294.1 248.9l-3.1 1.8v1.9l3.1-1.8v-1.9" class="AN"/><path d="M297.4 250.6h0l-9.6 5.6v1.9l3.2-1.9v-1.9l3.1-1.8v1.9l3.3-1.9v-1.9" class="AM"/><path d="M294.1 252.5l-3.1 1.8v1.9l3.1-1.8v-1.9" class="AN"/><path d="M297.4 254.2h0l-3.3 1.9v1.9l-3.1 1.7v-1.9l-3.2 1.9v1.9l9.6-5.5v-1.9" class="AM"/><path d="M294.1 256.1l-3.1 1.7v1.9l3.1-1.7v-1.9" class="AN"/><path d="M301.7 256.7l-1.6.9v11l1.6-.9v-3.8l-1.6 1v-3.5l1.6-1v-3.7" class="AM"/><path d="M301.7 260.4h0l-1.6 1v3.5l1.6-1v-3.5" class="AN"/><path d="M304.8 254.9l-1.6.9v11l1.6-.9v-3.8l-1.6 1v-3.5l1.6-1v-3.7" class="AM"/><path d="M304.8 258.6h0l-1.6 1v3.5l1.6-1v-3.5" class="AN"/><path d="M307.9 253.1l-1.6 1V265l1.6-.9v-3.8l-1.6 1v-3.5l1.6-1v-3.7" class="AM"/><path d="M307.9 256.8h0l-1.6 1v3.5l1.6-1v-3.5" class="AN"/><path d="M311 251.3l-1.6 1v10.9l1.6-.9v-3.7l-1.6.9V256l1.6-1v-3.7" class="AM"/><path d="M311 255h0l-1.6 1v3.5l1.6-.9V255" class="AN"/><use xlink:href="#k" x="3.1" y="42.3" class="AM"/><path d="M314.1 253.3h0l-1.6.9v3.5l1.6-.9v-3.5" class="AN"/><path d="M317.3 247.7l-1.7 1v11l1.7-1V255l-1.7.9v-3.5l1.7-.9v-3.8" class="AM"/><path d="M317.3 251.5h0l-1.7.9v3.5l1.7-.9v-3.5" class="AN"/><path d="M320.4 245.9l-1.7 1v11l1.7-1v-3.7l-1.7.9v-3.5l1.7-.9v-3.8" class="AM"/><path d="M320.4 249.7h0l-1.7.9v3.5l1.7-.9v-3.5" class="AN"/><path d="M323.5 244.1l-1.7 1v11l1.7-1v-3.7l-1.7.9v-3.5l1.7-.9v-3.8" class="AM"/><path d="M323.5 247.9h0l-1.7.9v3.5l1.7-.9v-3.5" class="AN"/><path d="M335.8 232l-9.6 5.6v1.8l3.3-1.8v-1.9l3-1.8v1.9l3.3-1.9V232" class="AM"/><path d="M332.5 233.9l-3 1.8v1.9l3-1.8v-1.9" class="AN"/><path d="M335.8 228.5l-3.3 1.8v1.9l-3 1.8v-1.9l-3.3 1.9v1.9l9.6-5.5v-1.9" class="AM"/><path d="M332.5 230.3l-3 1.8v1.9l3-1.8v-1.9" class="AN"/><path d="M329.5 228.5l-3.3 1.9v1.9l3.3-1.9v-1.9m6.3-3.6l-4.8 2.8 1.5-.9v1.9l3.3-1.9v-1.9" class="AM"/><path d="M332.5 226.8l-1.5.9-1.5.8v1.9l3-1.7v-1.9" class="AN"/><path d="M331 224.1l-4.8 2.8v1.9l3.3-1.9V225l1.5-.9m4.8-2.7l-3.3 1.9v1.9l-1.5.8 4.8-2.8v-1.8" class="AM"/><path d="M332.5 223.2l-3 1.8v1.9l3-1.8v-1.9" class="AN"/><path d="M335.8 217.8l-3.3 1.9v1.8l-3 1.8v-1.9l-3.3 1.9v1.9l9.6-5.5v-1.9" class="AM"/><path d="M332.5 219.7l-3 1.7v1.9l3-1.8v-1.8" class="AN"/><path d="M335.8 214.2l-9.6 5.5v1.9l3.3-1.8v-1.9l3-1.8v1.9l3.3-1.9v-1.9" class="AM"/><path d="M332.5 216.1l-3 1.8v1.9l3-1.8v-1.9" class="AN"/><path d="M331 213.4l-4.8 2.8v1.9l3.3-1.9v-1.9l1.5-.9m4.8-2.7l-3.3 1.9v1.9l-1.5.9 4.8-2.8v-1.9" class="AM"/><path d="M332.5 212.5l-3 1.8v1.9l3-1.8v-1.9" class="AN"/><path d="M329.5 210.7l-3.3 1.9v1.9l4.8-2.8-1.5.9v-1.9m6.3-3.6l-3.3 1.9v1.9l3.3-1.9v-1.9" class="AM"/><path d="M332.5 209l-3 1.7v1.9l1.5-.9 1.5-.8V209" class="AN"/><linearGradient id="E" gradientUnits="userSpaceOnUse" x1="311.798" y1="253.607" x2="311.798" y2="220.53"><stop offset="0" stop-color="#fcefee"/><stop offset="1" stop-color="#fbe7e5"/></linearGradient><path d="M326.2 209.5l-2.7 1.6-1.7.9-1.4.9-1.7.9-1.4.9-1.7.9-1.5.8-1.6 1-1.5.8-1.6 1-1.5.8-1.6 1-1.5.8-1.6 1-1.5.8-1.6 1-2.7 1.5v33.1l28.8-16.6v-33.1" fill="url(#E)"/><use xlink:href="#l" class="AT"/><path d="M364.3 151.5c.2-.1.5-.2.7-.2s.4.1.5.2c.2.2.2.5.2.8-.1 1.3-.8 2.5-1.9 3.2h0c-.2.1-.5.2-.7.2s-.4-.1-.5-.2c-.2-.2-.2-.5-.2-.8 0-.6.2-1.3.5-1.8.3-.6.8-1 1.4-1.4h0m-.4-.6h0m1.1-.4h0c-.4 0-.8.1-1.1.3h0c-.7.4-1.2 1-1.6 1.6s-.6 1.3-.6 2v.2c0 .2 0 .4.1.6.1.3.2.5.3.7.3.3.7.5 1.1.5h0c.4 0 .8-.1 1.1-.3h0c.7-.4 1.2-1 1.6-1.6.4-.7.6-1.4.6-2.2 0-.5-.1-.9-.4-1.3-.3-.2-.7-.4-1.1-.5" class="AP"/><use xlink:href="#l" x="-17.4" y="4.7" class="AT"/><path d="M346.9 156.2c.2-.1.5-.2.7-.2s.4.1.5.2c.2.2.2.5.2.8-.1 1.3-.8 2.5-1.9 3.2h0c-.2.1-.5.2-.7.2s-.4-.1-.5-.2c-.2-.2-.2-.5-.2-.8 0-.6.2-1.3.5-1.8.4-.6.8-1.1 1.4-1.4h0m.7-1h0c-.4 0-.8.1-1.1.3h0c-1.3.8-2.1 2.3-2.2 3.8 0 .5.1.9.4 1.3.3.3.7.5 1.1.5h0c.2 0 .4 0 .5-.1v-.6h.7v.2c.6-.4 1-.9 1.4-1.5.4-.7.6-1.4.6-2.2 0-.5-.1-.9-.4-1.3a1.53 1.53 0 0 0-1-.4" class="AP"/><path d="M366.6 160c-.3 0-.5.1-.7.2h0c-.5.3-1 .8-1.3 1.4-.3.5-.5 1.2-.5 1.8 0 .3.1.6.2.8s.3.2.5.2.4-.1.6-.2v-.1h.2c.5-.3 1-.8 1.3-1.4.3-.5.5-1.2.5-1.8 0-.3-.1-.6-.2-.8-.2 0-.4-.1-.6-.1" class="AT"/><path d="M366.6 159.2h0c-.4 0-.8.1-1.1.3h0c-.7.4-1.2 1-1.6 1.6-.3.6-.5 1.2-.6 1.9l.2.3.1.2-.3.1c0 .4.1.7.4 1s.7.5 1.1.5h0c.2 0 .4 0 .6-.1v-.8c-.2.1-.4.2-.6.2s-.4-.1-.5-.2c-.2-.2-.2-.5-.2-.8 0-.6.2-1.3.5-1.8.3-.6.8-1 1.3-1.4h0c.2-.1.5-.2.7-.2s.4.1.5.2c.2.2.3.5.2.8 0 .6-.2 1.3-.5 1.8-.3.6-.8 1-1.3 1.4h.6v.5c.5-.4 1-.9 1.3-1.5.4-.7.6-1.4.6-2.2 0-.5-.1-.9-.4-1.3-.2-.3-.6-.5-1-.5" class="AP"/><path d="M295 213.1c-.3 0-.5.1-.7.2h0c-1.1.7-1.8 1.9-1.9 3.2 0 .3.1.6.2.8s.3.2.5.2c.3 0 .5-.1.7-.2h0c1.1-.7 1.8-1.9 1.9-3.2 0-.3-.1-.6-.2-.8s-.3-.2-.5-.2" class="AT"/><path d="M294.3 213.3c.2-.1.5-.2.7-.2s.4.1.5.2c.2.2.2.5.2.8-.1 1.3-.8 2.5-1.9 3.2h0c-.2.1-.5.2-.7.2s-.4-.1-.5-.2c-.2-.2-.2-.5-.2-.8.1-1.3.8-2.5 1.9-3.2h0m.7-1h0c-.4 0-.8.1-1.1.3h0c-.7.4-1.2 1-1.6 1.6-.4.7-.6 1.4-.6 2.2 0 .5.1.9.4 1.3.3.3.7.5 1.1.5h0c.4 0 .8-.1 1.1-.3h0c1.2-.8 2.1-2.1 2.2-3.6v-.2c0-.2 0-.4-.1-.6-.1-.3-.2-.5-.3-.7-.3-.3-.7-.5-1.1-.5m59.7-44.5l-3.4 2v.4l.2.3 3.2-1.9v-.8m8.5-4.9l-7.3 4.2v.9l7.4-4.3.3-.1-.1-.2-.2-.3-.1-.2" class="AP"/><path d="M355.9 163.5l-1.2.7v8l1.2-.7v-2.7l-1.2.7v-2.6l1.2-.7v-2.7" class="AM"/><path d="M355.9 166.2h0l-1.2.7v2.6l1.2-.7v-2.6" class="AN"/><path d="M347 160.5h-.7v7.2l.7-.4v-6.8" class="AP"/><linearGradient id="F" gradientUnits="userSpaceOnUse" x1="346.65" y1="181.691" x2="346.65" y2="170.958"><stop offset="0" stop-color="#fcefee"/><stop offset="1" stop-color="#fbe7e5"/></linearGradient><path d="M351.3 164.8l-1 .6-3.3 1.9-.7.4-4.3 2.5v10.7l.3-.2 9-5.2v-10.7" fill="url(#F)"/><path d="M351.4 195.7c-.3 0-.5.1-.7.2h0c-.5.3-1 .8-1.3 1.4-.3.5-.5 1.2-.5 1.8 0 .3.1.6.2.8s.3.2.5.2c.3 0 .5-.1.7-.2h0c1.1-.7 1.8-1.9 1.9-3.2 0-.3-.1-.5-.2-.8-.1-.1-.3-.2-.6-.2" class="AT"/><g class="AP"><path d="M350.7 195.9c.2-.1.5-.2.7-.2s.4.1.5.2c.2.2.2.5.2.8-.1 1.3-.8 2.5-1.9 3.2h0c-.2.1-.5.2-.7.2s-.4-.1-.5-.2c-.2-.2-.2-.5-.2-.8 0-.6.2-1.3.5-1.8.4-.5.9-1 1.4-1.4h0m.7-1h0c-.4 0-.8.1-1.1.3h0c-.7.4-1.2 1-1.6 1.6-.4.7-.6 1.4-.6 2.2 0 .5.1.9.4 1.3.3.3.7.5 1.1.5h0c.2 0 .4 0 .5-.1v-.6h.7v.2c.6-.4 1-.9 1.4-1.5.4-.7.6-1.4.6-2.2 0-.5-.1-.9-.4-1.3a1.53 1.53 0 0 0-1-.4"/><path d="M350.9 200.3h-.8v6.1l.8-.5v-5.6"/></g><path d="M351.4 222.8c-.3 0-.5.1-.7.2-.5.3-1 .8-1.3 1.4-.3.5-.5 1.2-.5 1.8 0 .3.1.6.2.8s.3.2.5.2c.3 0 .5-.1.7-.2h0c.5-.3 1-.8 1.3-1.4.3-.5.5-1.2.5-1.8 0-.3 0-.6-.2-.9 0-.1-.2-.1-.5-.1" class="AT"/><g class="AP"><path d="M349.6 227.3c-.2 0-.4-.1-.5-.2-.2-.2-.2-.5-.2-.8 0-.6.2-1.3.5-1.8.3-.6.8-1 1.3-1.4.2-.1.5-.2.7-.2s.4.1.5.2c.2.2.2.5.2.8 0 .6-.2 1.3-.5 1.8-.3.6-.8 1-1.3 1.4h0c-.2.1-.4.2-.7.2m1.8-5.2h0c-.2 0-.4 0-.5.1v.6h-.7v-.2c-.6.4-1 .9-1.4 1.5-.4.7-.6 1.4-.6 2.2 0 .5.1.9.4 1.3.3.3.7.5 1.1.5h0c.4 0 .8-.1 1.1-.3l-.2-.3.2.3c.7-.4 1.2-1 1.6-1.6.4-.7.6-1.4.6-2.2 0-.5-.1-.9-.4-1.3s-.7-.6-1.2-.6"/><path d="M350.9 216.8l-.8.4v5.5h.8v-5.9"/></g><linearGradient id="G" gradientUnits="userSpaceOnUse" x1="350.553" y1="220.314" x2="350.553" y2="209.596"><stop offset="0" stop-color="#fcefee"/><stop offset="1" stop-color="#fbe7e5"/></linearGradient><path d="M354.5 203.9l-3.6 2-.8.5-3.5 2v8.6l7.9-4.6v-6.2l-7.9 4.5v-2.3l7.9-4.5" fill="url(#G)"/><path d="M347.4 253l-4.8 2.8.2.3-.7.4c.2.9.7 1.4 1.4 1.4.3 0 .7-.1.9-.3l3-1.7V253m-1.8-2.3l-1.2.7c-1.4 1-2.3 2.6-2.4 4.3h0c.2-1.9 1.2-3.5 2.7-4.5l.9-.5m12.9-4.1l-4.8 2.8v2.9l-4.2 2.4 6.9-4c1.3-1 2.2-2.4 2.3-4.1h-.2m-1.1-2.5c-.3 0-.7.1-.9.3l-5.8 3.3 3.1-1.8 2.4-1.4c.4-.2.8-.4 1.2-.4.8 0 1.4.6 1.5 1.5h0c-.3-.9-.8-1.5-1.5-1.5" class="AM"/><path d="M353.7 249.3l-6.3 3.7v2.9l2.1-1.2 4.2-2.5v-2.9" class="AN"/><path d="M350.6 247.7l-3.2 1.9-1.8 1 1.8-1 3.2-1.9" class="AZ"/><path d="M347.4 249.6l-1.8 1-.8.5c-1.6 1-2.6 2.7-2.7 4.5l.4-.2.2.3 4.8-2.8v-3.3m9.8-5.4c-.4 0-.9.1-1.2.4l-2.4 1.4-3.1 1.8 3.1-1.8v3.4l4.8-2.8-.3-.5.5-.3c-.1-1.1-.6-1.6-1.4-1.6" class="AY"/><path d="M353.7 245.9l-3.1 1.8-3.2 1.9v3.4l6.3-3.7v-3.4" class="Aa"/><path d="M276.9 242.4c-.3 0-.5.1-.7.2h0c-.5.3-1 .8-1.3 1.4-.3.5-.5 1.2-.5 1.8 0 .3.1.6.2.8s.3.2.5.2.4-.1.5-.1v-.3h.4c.4-.3.8-.7 1.1-1.2s.5-1.2.5-1.8c0-.3-.1-.6-.2-.8-.2-.2-.3-.3-.5-.2" class="AT"/><g class="AP"><path d="M276.9 241.6h0c-.4 0-.8.1-1.1.3h0c-.7.4-1.2 1-1.6 1.6-.4.7-.6 1.4-.6 2.2 0 .5.1.9.4 1.3.3.3.7.5 1.1.5h0c.2 0 .4 0 .5-.1v-.8c-.2.1-.4.1-.5.1-.2 0-.4-.1-.5-.2-.2-.2-.2-.5-.2-.8 0-.6.2-1.3.5-1.8.3-.6.8-1 1.3-1.4h0c.2-.1.5-.2.7-.2s.4.1.5.2c.2.2.2.5.2.8 0 .6-.2 1.3-.5 1.8s-.6.9-1.1 1.2h.3v.7c.6-.4 1-.9 1.4-1.5.4-.7.6-1.4.6-2.2 0-.5-.1-.9-.4-1.3a1.53 1.53 0 0 0-1-.4"/><path d="M276.3 246.5h-.7v6.3l.8-.4-.1-5.9"/></g><path d="M253.5 236.4c-.3 0-.5.1-.7.2h0c-.5.3-1 .8-1.3 1.4-.3.5-.5 1.2-.6 1.8 0 .3.1.6.2.8s.3.2.5.2.4-.1.6-.1v-.3h.4c.4-.3.7-.7 1-1.2s.5-1.2.6-1.8c0-.3-.1-.6-.2-.8-.2-.2-.4-.2-.5-.2" class="AT"/><g class="AP"><path d="M253.5 235.6h0c-.4 0-.8.1-1.1.3h0c-1.3.8-2.1 2.3-2.2 3.8 0 .5.1.9.4 1.3.3.3.7.5 1.1.5h0c.2 0 .4 0 .6-.1v-.8c-.2.1-.4.1-.6.1s-.4-.1-.5-.2c-.2-.2-.2-.5-.2-.8 0-.6.2-1.3.6-1.8.3-.6.8-1 1.3-1.4h0c.2-.1.5-.2.7-.2s.4.1.5.2c.2.2.2.5.2.8 0 .6-.2 1.3-.6 1.8-.3.5-.6.9-1 1.2h.3v.7c.6-.4 1-.9 1.4-1.5.4-.7.6-1.4.6-2.2 0-.5-.1-.9-.4-1.3-.3-.2-.7-.4-1.1-.4"/><path d="M252.9 240.5h-.7v6.3l.7-.5v-5.8"/></g><path d="M245.6 240.9c-.3 0-.5.1-.7.2h0c-1.1.7-1.8 1.9-1.9 3.2 0 .3.1.6.2.8s.3.2.5.2.4-.1.6-.1v-.2h.4c.4-.3.8-.7 1.1-1.2s.5-1.2.6-1.8c0-.3-.1-.6-.2-.8-.2-.2-.4-.3-.6-.3" class="AT"/><g class="AP"><path d="M245.6 240.2h0c-.4 0-.8.1-1.1.3h0c-.7.4-1.2 1-1.6 1.6-.4.7-.6 1.4-.6 2.2 0 .5.1.9.4 1.3.3.3.7.5 1.1.5h0c.2 0 .4 0 .6-.1v-.8c-.2.1-.4.1-.6.1s-.4-.1-.5-.2c-.2-.2-.2-.5-.2-.8.1-1.3.8-2.5 1.9-3.2h0c.2-.1.5-.2.7-.2s.4.1.5.2c.2.2.2.5.2.8 0 .6-.2 1.3-.6 1.8-.3.5-.6.9-1.1 1.2h.3v.7c.6-.4 1-.9 1.4-1.5.4-.7.6-1.4.6-2.2 0-.5-.1-.9-.4-1.3-.2-.3-.6-.4-1-.4"/><path d="M245.1 245h-.8v6.3l.8-.4V245"/></g><path d="M277.1 277.2c-.2 0-.4.1-.5.1v.3h-.4c-.4.3-.8.7-1 1.2-.3.5-.5 1.2-.5 1.8 0 .3.1.6.2.8s.3.3.5.2c.3 0 .5-.1.7-.2h0c.5-.3 1-.8 1.3-1.4.3-.5.5-1.2.5-1.8 0-.3-.1-.6-.2-.8-.2-.1-.4-.2-.6-.2" class="AT"/><g class="AP"><path d="M277.1 276.5h0c-.2 0-.4 0-.5.1v.8c.2-.1.4-.1.5-.1.2 0 .4.1.5.2.2.2.2.5.2.8 0 .6-.2 1.3-.5 1.8-.3.6-.8 1-1.3 1.4h0c-.2.1-.5.2-.7.2s-.4-.1-.5-.2c-.2-.2-.2-.5-.2-.8 0-.6.2-1.3.5-1.8s.6-.9 1-1.2h-.3v-.7c-.6.4-1 .9-1.4 1.5-.4.7-.6 1.4-.6 2.2 0 .5.1.9.4 1.3.3.3.7.5 1.1.5h0c.4 0 .8-.1 1.1-.3h0c.7-.4 1.2-1 1.6-1.6.4-.7.6-1.4.6-2.2 0-.5-.1-.9-.4-1.3s-.7-.6-1.1-.6"/><path d="M276.5 271.4c-.1.1-.2.2-.4.3l-.4.2v5.7h.7l.1-6.2"/></g><path d="M278.7 264.1l-2.5 1.5v6.1l-.2.1c-.4.2-.8.4-1.2.4-.3 0-.5-.1-.7-.2.2.2.5.2.8.2a1.69 1.69 0 0 0 1-.3h0l.4-.2c.1-.1.3-.2.4-.3 1.3-1.2 2.1-2.8 2.2-4.6l-.2-2.7m-1.6-12c-.3 0-.6.1-.8.2l-.8.4c-.7.5-1.2 1.1-1.6 1.9.5-.9 1.2-1.6 2-2.1l.2-.1v5.8l2.5-1.5v-2.4c.1-1.3-.5-2.2-1.5-2.2" class="AM"/><path d="M278.7 256.8h0l-2.5 1.5v7.3l2.5-1.5v-7.3" class="AN"/><path d="M274 254.7c-.5.8-.7 1.7-.8 2.6v.2c.1-1 .3-2 .8-2.8" class="AZ"/><path d="M276.2 252.5l-.2.1c-.8.5-1.5 1.2-2 2.1s-.7 1.9-.8 2.9v2.5l2.9-1.7.1-5.9" class="AY"/><path d="M273.2 270v.3c-.1.7.2 1.3.8 1.8-.6-.6-.8-1.3-.8-2.1" class="AZ"/><path d="M276.2 265.6l-2.9 1.7v2.7c-.1.8.2 1.5.8 2 .2.1.5.2.7.2.4 0 .9-.1 1.2-.4l.2-.1v-6.1" class="AY"/><path d="M276.2 258.3l-3 1.7v7.3l3-1.7v-7.3" class="Aa"/><path d="M323.3 173.9c-.3 0-.5.1-.7.2h0c-.5.3-1 .8-1.3 1.4-.3.5-.5 1-.5 1.5l.2.4-.2.1c0 .2.1.4.2.6s.3.2.5.2c.3 0 .5-.1.7-.2h0c1.1-.7 1.7-1.9 1.8-3.1 0-.3-.1-.6-.2-.8-.2-.2-.4-.3-.5-.3" class="AT"/><g class="AP"><path d="M323.3 173.2h0c-.4 0-.8.1-1.1.3h0c-.7.4-1.2 1-1.6 1.6s-.6 1.3-.6 2l.6-.4.1.3c.1-.5.3-1 .5-1.5.3-.6.8-1 1.3-1.4h0c.2-.1.5-.2.7-.2s.4.1.5.2c.2.2.2.5.2.8-.1 1.3-.8 2.5-1.9 3.2h0c-.2.1-.5.2-.7.2s-.4-.1-.5-.2c-.1-.2-.2-.4-.2-.6l-.6.5c.1.3.2.5.3.7.3.3.7.5 1.1.5h0c.4 0 .8-.1 1.1-.3h0c.7-.4 1.2-1 1.6-1.6.4-.7.6-1.4.6-2.2 0-.5-.1-.9-.4-1.3a1.1 1.1 0 0 0-1-.6"/><path d="M320.6 176.8l-.6.4-4.6 2.6v.8l4.6-2.7.7-.4.2-.1-.3-.6"/></g><path d="M292.8 191.7c-.3 0-.5.1-.7.2h0c-.5.3-1 .8-1.3 1.4-.3.5-.5 1.2-.5 1.8 0 .3.1.6.2.8s.3.3.5.2c.3 0 .5-.1.7-.2h0c.5-.3 1-.8 1.3-1.4.3-.5.4-1 .5-1.5l-.2-.4.2-.1c0-.2-.1-.4-.2-.6-.1-.1-.3-.2-.5-.2" class="AT"/><g class="AP"><path d="M292.8 191h0c-.4 0-.8.1-1.1.3h0c-1.3.8-2.1 2.3-2.2 3.8 0 .5.1.9.4 1.3.3.3.7.6 1.1.6h0c.4 0 .8-.1 1.1-.3h0c.7-.4 1.2-1 1.6-1.6s.6-1.3.6-2l-.6.3-.2-.3c-.1.5-.2 1-.5 1.5-.3.6-.8 1-1.3 1.4h0c-.2.1-.5.2-.7.2s-.4-.1-.5-.2c-.2-.2-.2-.5-.2-.8 0-.6.2-1.3.5-1.8.3-.6.8-1 1.3-1.4h0c.2-.1.5-.2.7-.2s.4.1.5.2c.1.2.2.4.2.6l.7-.4c-.1-.3-.2-.5-.3-.7-.3-.3-.7-.5-1.1-.5"/><path d="M298.6 189.6l-4.4 2.6-.7.4-.2.1.2.4.2.3.6-.3 4.4-2.6v-.9"/></g><path d="M304 187l-5.3 3.1v-.2.6c.2.9.7 1.4 1.4 1.4.3 0 .7-.1.9-.3l3-1.7V187m-2.6-1.8l-.3.2c-1.4 1-2.3 2.6-2.4 4.3v.2c.1-1.9 1.1-3.7 2.7-4.7m14.1-5v.2l-5.1 2.9v2.9l-1.1.6 3.8-2.2a5.39 5.39 0 0 0 2.3-4.1c.1 0 .1-.2.1-.3h0m-1.5-2.1c-.3 0-.6.1-.9.3l-.3.2c.4-.2.8-.3 1.2-.4.9 0 1.5.7 1.5 1.9v-.4c-.2-1-.7-1.6-1.5-1.6" class="AM"/><path d="M310.3 183.3L304 187v2.9l5.3-3 1-.7v-2.9" class="AN"/><path d="M312.7 178.6h0l-2.4 1.4-6.3 3.7-2.6 1.5h-.1l2.7-1.5 6.3-3.7 2.4-1.4" class="AZ"/><path d="M304 183.6l-2.7 1.5c-1.6 1.1-2.6 2.8-2.7 4.7h0v.2l5.4-3.1v-3.3m9.9-5.4a1.92 1.92 0 0 0-1.2.4l-2.4 1.4v3.4l5.1-2.9v-.2c0-1.4-.6-2.1-1.5-2.1" class="AY"/><path d="M310.3 179.9l-6.3 3.7v3.4l6.3-3.7v-3.4" class="Aa"/><path d="M366.1 214.6l-.7.4v24.6l.8-.4v-24.6m-.1-7.1l-.7.4v5.2l.7-.4v-5.2m0-7.1l-.7.4v5.2l.7-.4v-5.2m0-7.2l-.7.4v5.2l.7-.4v-5.2m0-29h-.7v27.6l.7-.4v-22.7l-.2.1-.4-.6.6-.3v-3.7" class="AP"/><path d="M401.8 218.3l-1.7 1v6.3l1.7-.9v-2.1l-1.7.9v-2l1.7-1v-2.2" class="AM"/><path d="M401.8 220.5h0l-1.7 1v2l1.7-.9v-2.1" class="AN"/><path d="M395.6 221.9l-1.6 1v6.3l1.6-.9v-2.1l-1.6.9v-2l1.6-1v-2.2" class="AM"/><path d="M395.6 224.1h0l-1.6 1v2l1.6-.9v-2.1" class="AN"/><path d="M401.8 233.8l-1.7.9v6.5l1.7-1V238l-1.7 1v-2.1l1.7-.9v-2.2" class="AM"/><path d="M401.8 236h0l-1.7.9v2.1l1.7-1v-2" class="AN"/><path d="M395.6 237.4l-1.6.9v6.5l1.6-1v-2.2l-1.6 1v-2.1l1.6-.9v-2.2" class="AM"/><path d="M395.6 239.6h0l-1.6.9v2.1l1.6-1v-2" class="AN"/><linearGradient id="H" gradientUnits="userSpaceOnUse" x1="397.898" y1="228.018" x2="397.898" y2="237.047"><stop offset="0" stop-color="#fcefee"/><stop offset="1" stop-color="#fbe7e5"/></linearGradient><path d="M404.7 223l-2.9 1.7-1.7.9-4.5 2.7-1.6.9-2.9 1.7v9l13.6-7.8V223" fill="url(#H)"/><path d="M354.5 212.4h0l-7.9 4.6v2.2l3.5-2 .8-.4 3.6-2.1v-2.3m0-8.5h0l-7.9 4.5v2.3l7.9-4.5v-2.3" class="AM"/><linearGradient id="I" gradientUnits="userSpaceOnUse" x1="248.4" y1="281.77" x2="248.4" y2="237.74"><stop offset="0" stop-color="#f8d8d5"/><stop offset="1" stop-color="#f2bab4"/></linearGradient><path d="M256.1 244.5l-3.2 1.8-.7.5-7.1 4.1-.8.4-3.6 2.1v44l15.4-8.8v-44.1" fill="url(#I)"/><path d="M234.9 283.7h0c.2-.1.4-.2.6-.2.5 0 .8.4.8 1.1v6.3c0 1-.5 1.9-1.3 2.5l-.2.1c-.2.1-.3.2-.5.2-.1 0-.3 0-.4-.1-.3-.2-.4-.5-.4-.9v-6.5c0-.5.2-.9.4-1.4.2-.4.5-.8.9-1h0l.1-.1m5.7-28.5h0l-11.6 6.7v40.5l11.8-6.8V255" fill="#fcf0ef"/><path d="M236.3 289.5l-1.3.8v3.1l-.1.1c-.2.1-.4.2-.6.2-.1 0-.3 0-.4-.1.1.1.3.1.4.1.2 0 .4-.1.5-.2l.2-.1c.8-.6 1.3-1.5 1.3-2.5v-1.4m-1.4-5.8h0c-.4.2-.7.6-.9 1 .2-.4.5-.7.9-1m.7-.2c-.2 0-.4.1-.5.2h-.1.1v3l1.3-.7v-1.3c0-.8-.4-1.2-.8-1.2" class="AM"/><path d="M236.3 285.8h0l-1.3.8v3.7l1.3-.8v-3.7" class="AN"/><path d="M233.5 292.5v.1c0 .3.1.7.4.9a1.53 1.53 0 0 1-.4-1m.4-7.7c-.2.4-.4.9-.4 1.4v.1c0-.6.2-1.1.4-1.5m1-1.1h0" fill="#fdf3f2"/><path d="M235 290.3l-1.5.9v1.4c0 .4.1.7.4 1 .1.1.2.1.4.1s.4-.1.6-.2l.1-.1v-3.1m0-6.7h0-.1c-.4.3-.7.6-.9 1-.3.4-.4 1-.4 1.5v1.2l1.5-.9v-3" class="AY"/><path d="M235 286.6l-1.5.8v3.7l1.5-.8v-3.7" class="Aa"/><g class="AP"><path d="M384.3 157.3l-18.2 10.5-.6.3.4.6.2-.1 18.3-10.6c0-.2-.1-.4-.1-.7h0m17-9.8l-12.3 7.1c0 .2.1.4.1.6v.2l3.8-2.2-.2-.1.4-.6.6.3 7.8-4.5c0-.2-.1-.4-.1-.6-.1-.1-.1-.2-.1-.2m17-9.9l-12.3 7.1c.1.2.1.4.1.6v.2l12.3-7.1c0-.2-.1-.4-.1-.6v-.2"/><path d="M393.1 152.5l-.4.6.2.1 9.3 5.3s0-.1.1-.1c.1-.2.2-.3.3-.5l-9-5.1-.5-.3"/></g><path d="M404.9 157.1c-.3 0-.5.1-.7.2h0c-1.1.7-1.8 1.9-1.9 3.2 0 .3.1.6.2.8s.3.2.5.2.4-.1.5-.1v-.3h.4c.4-.3.8-.7 1.1-1.2s.5-1.2.5-1.8c0-.3-.1-.6-.2-.8 0-.1-.2-.2-.4-.2" class="AT"/><g class="AP"><path d="M405 156.4h0c-.4 0-.8.1-1.1.3h0c-.5.3-.9.7-1.3 1.1-.1.2-.2.3-.3.5l-.1.1c-.3.6-.5 1.3-.6 2 0 .5.1.9.4 1.3.3.3.7.5 1.1.5h0c.2 0 .4 0 .5-.1v-.8c-.2.1-.4.1-.5.1-.2 0-.4-.1-.5-.2-.2-.2-.2-.5-.2-.8.1-1.3.8-2.5 1.9-3.2h0c.2-.1.5-.2.7-.2s.4.1.5.2c.2.2.2.5.2.8 0 .6-.2 1.3-.5 1.8s-.6.9-1.1 1.2h.3v.7c.6-.4 1-.9 1.4-1.5.4-.7.6-1.4.6-2.2 0-.5-.1-.9-.4-1.3-.2-.2-.6-.4-1-.3"/><path d="M404.4 161.2h-.7v6.3l.2-.1.1-.1h.1l.4-.2-.1-5.9"/></g><path d="M405.1 192c-.2 0-.4 0-.5.1v.3h-.4c-.4.3-.8.7-1 1.2-.3.5-.5 1.2-.5 1.8 0 .3.1.6.2.8s.3.2.5.2c.3 0 .5-.1.7-.2h0c1.1-.7 1.8-1.9 1.9-3.2 0-.3-.1-.6-.2-.8-.3-.1-.5-.2-.7-.2" class="AT"/><g class="AP"><path d="M405.1 191.3h0c-.2 0-.4 0-.5.1v.8c.2-.1.4-.1.5-.1.2 0 .4.1.5.2.2.2.2.5.2.8-.1 1.3-.8 2.5-1.9 3.2h0c-.2.1-.5.2-.7.2s-.4-.1-.5-.2c-.2-.2-.2-.5-.2-.8 0-.6.2-1.3.5-1.8s.6-.9 1-1.2h-.3v-.7c-.6.4-1 .9-1.4 1.5-.4.7-.6 1.4-.6 2.2 0 .5.1.9.4 1.3.3.3.7.5 1.1.5h0c.4 0 .8-.1 1.1-.3h0c.7-.4 1.2-1 1.6-1.6.4-.7.6-1.4.6-2.2 0-.5-.1-.9-.4-1.3-.1-.5-.5-.6-1-.6"/><path d="M404.6 186.2c-.1.1-.2.2-.4.3l-.2.1-.1.1v5.7h.7v-6.2"/></g><path d="M404 186.6c-.4.2-.8.3-1.2.4-.3 0-.5-.1-.7-.2.2.2.5.2.8.2a1.69 1.69 0 0 0 1-.3h0l.1-.1m2.7-7.7l-2.5 1.5v6.1l-.2.1.2-.1c.1-.1.3-.2.4-.3 1.3-1.2 2.1-2.8 2.2-4.6v-2.7m-2.8-11.5l-.1.1-.2.1c-.7.5-1.2 1.1-1.6 1.9.5-.9 1.1-1.6 1.9-2.1m1.3-.4c-.3 0-.6.1-.8.2l-.2.1v5.8l2.5-1.5v-2.4c0-1.4-.6-2.2-1.5-2.2" class="AM"/><path d="M406.8 171.6h0l-2.6 1.5v7.2l2.6-1.4v-7.3" class="AN"/><path d="M404 167.3h0" fill="#f8dcd9"/><path d="M402.1 169.4c-.5.8-.7 1.7-.8 2.6v.3c0-1 .3-2 .8-2.9" class="AZ"/><path d="M404.2 167.3l-.2.1c-.8.5-1.4 1.2-1.9 2-.5.9-.8 1.9-.8 2.9v2.4l2.9-1.7v-5.7" class="AY"/><path d="M401.3 184.8v.2c-.1.7.2 1.3.8 1.7-.6-.5-.9-1.2-.8-1.9" class="AZ"/><path d="M404 186.6h0" fill="#f8dcd9"/><path d="M404.2 180.3l-2.9 1.7v2.7c-.1.8.2 1.5.8 2 .2.1.5.2.7.2a1.92 1.92 0 0 0 1.2-.4h0l.2-.1v-6.1" class="AY"/><path d="M404.2 173.1l-2.9 1.7v7.2l2.9-1.7v-7.2" class="Aa"/><path d="M386.8 202.7l-.7.4v3.3l-19 32.8c.2.1.5.2.6.4l19.1-33v-3.9m0-7.2l-.6.3-.2.2v5.2l.7-.4.1-5.3m-.1-7l-.7.4v5.2l.7-.4v-5.2m0-7.2l-.7.4v5.3l.7-.4v-5.3m0-22.2c-.2.1-.5.2-.7.2v20.6l.7-.4v-20.4" class="AP"/><path d="M385.7 203.3v-1.9l1.8-1v1.9l-1.8 1m3.7-4l-2.7 1.5-.7.4-2.2 1.3v1.9l2.2-1.3.7-.4 2.7-1.5v-1.9" class="AM"/><path d="M387.5 200.4l-1.8 1v1.9l1.8-1v-1.9" class="AN"/><path d="M385.7 194.3l-1.9 1.1v1.9l1.9-1.1v-1.9m3.7-2.2l-2.2 1.3.3-.1v1.9l-1.3.8.6-.3 2.7-1.5v-2.1" class="AM"/><path d="M387.5 193.3l-.3.1-.4.3-.8.4-.3.2v1.9l.3-.2.2-.1 1.3-.8v-1.8" class="AN"/><path d="M389.4 185l-2.6 1.6-.8.4-2.2 1.3v1.9l2.2-1.3.8-.4.4-.3-1.5.8v-1.8l1.8-1.1v1.9l1.9-1.1V185" class="AM"/><path d="M387.5 186.1l-1.8 1.1v1.8l1.5-.8.3-.2v-1.9" class="AN"/><path d="M389.4 177.9l-1.9 1.1v1.9l-1.8 1V180l-1.9 1.1v1.9l2.2-1.2.8-.5 2.6-1.5v-1.9" class="AM"/><path d="M387.5 179l-.7.4-.8.5-.3.1v1.9l1.8-1V179" class="AN"/><path d="M370.2 210.4l-4.1 2.3-.7.5-.8.4v1.9l.8-.4.7-.5.4-.2v-1.9l1.8-1v1.8l-.2.2 2.1-1.3v-1.8" class="AM"/><path d="M368.3 211.5l-1.8 1v1.9l1.6-.9.2-.2v-1.8" class="AN"/><path d="M366.5 205.4l-.4.3-1.4.8v1.9l1.4-.8 1.3-.8-.9.5v-1.9m3.7-2.2l-2.8 1.6.9-.5v1.9l1.9-1.1v-1.9" class="AM"/><path d="M368.3 204.3l-.9.5-.9.6v1.9l.9-.6.9-.5v-1.9" class="AN"/><path d="M366.5 198.2l-.4.2-1.4.8v1.9l1.4-.8 1.3-.8-.9.5v-1.8m3.7-2.1l-1.9 1.1v1.9l1.9-1.1v-1.9" class="AM"/><path d="M368.3 197.2l-1.8 1v1.9l1.8-1v-1.9" class="AN"/><path d="M366.5 191.1l-.4.3-1.4.8v1.9l1.4-.8.4-.3v-1.9m3.7-2.1l-2.8 1.6.9-.5v1.9l-1.6.9 3.5-2V189" class="AM"/><path d="M368.3 190.1l-1.8 1v1.9l.2-.1 1.6-.9v-1.9" class="AN"/><linearGradient id="J" gradientUnits="userSpaceOnUse" x1="377" y1="215.965" x2="377" y2="182.888"><stop offset="0" stop-color="#fcefee"/><stop offset="1" stop-color="#fbe7e5"/></linearGradient><path d="M383.8 176.2l-13.6 7.9v33.1l13.6-7.9v-33.1" fill="url(#J)"/><path d="M422.5 137.7c-.1.2-.3.4-.4.6l4.6 2.6c.1-.2.2-.4.3-.7l-4.5-2.5" class="AP"/><path d="M387.6 127c-.3 0-.5.1-.7.2h0c-.5.3-1 .8-1.3 1.4-.3.5-.5 1.2-.5 1.8 0 .3.1.6.2.8s.3.2.5.2c.3 0 .5-.1.7-.2h0c.5-.3 1-.8 1.3-1.4.3-.5.5-1.2.5-1.8 0-.3-.1-.6-.2-.8-.1-.1-.3-.2-.5-.2" class="AT"/><g class="AP"><path d="M386.9 127.2c.2-.1.5-.2.7-.2s.4.1.5.2c.2.2.2.5.2.8 0 .6-.2 1.3-.5 1.8-.3.6-.8 1-1.3 1.4h0c-.2.1-.5.2-.7.2s-.4-.1-.5-.2c-.2-.2-.2-.5-.2-.8 0-.6.2-1.3.5-1.8.3-.6.7-1 1.3-1.4h0m.7-1h0c-.4 0-.8.1-1.1.3h0c-.7.4-1.2 1-1.6 1.7s-.6 1.4-.6 2.2c0 .5.1.9.4 1.3.3.3.7.5 1.1.5h0c.2 0 .4 0 .5-.1v-.6h.7v.2c.6-.4 1-.9 1.4-1.5.4-.7.6-1.4.6-2.2 0-.5-.1-.9-.4-1.3-.2-.3-.6-.5-1-.5"/><path d="M387.1 131.6h-.8v6.1l.8-.5v-5.6"/></g><path d="M387.6 154.1c-.3 0-.5.1-.7.2-.5.3-1 .8-1.3 1.4-.3.5-.5 1.2-.5 1.8 0 .3.1.6.2.8s.3.2.5.2c.3 0 .5-.1.7-.2h0c.5-.3 1-.8 1.3-1.4.3-.5.5-1.2.5-1.8 0-.3-.1-.6-.2-.8-.1-.1-.3-.2-.5-.2" class="AT"/><g class="AP"><path d="M385.8 158.6c-.2 0-.4-.1-.5-.2-.2-.2-.2-.5-.2-.8 0-.6.2-1.3.5-1.8.3-.6.8-1 1.3-1.4.2-.1.5-.2.7-.2s.4.1.5.2c.2.2.2.5.2.8 0 .6-.2 1.3-.5 1.8-.3.6-.8 1-1.3 1.4h0c-.2.1-.5.2-.7.2m1.8-5.2h0c-.2 0-.4 0-.5.1v.6h-.7v-.2c-.6.4-1 .9-1.4 1.5s-.6 1.3-.6 2v.2c0 .2 0 .4.1.6.1.3.2.5.3.7.3.3.7.5 1.1.5h.2c.3 0 .5-.1.7-.2l.1-.1-.2-.3.2.3c.7-.4 1.2-1 1.6-1.6s.6-1.3.6-2v-.2c0-.2 0-.4-.1-.6s-.2-.5-.3-.7c-.3-.4-.7-.6-1.1-.6"/><path d="M387.1 147.9l-.8.5v5.6h.8v-6.1"/></g><linearGradient id="K" gradientUnits="userSpaceOnUse" x1="386.701" y1="151.621" x2="386.701" y2="140.896"><stop offset="0" stop-color="#fcefee"/><stop offset="1" stop-color="#fbe7e5"/></linearGradient><path d="M390.6 135.2l-3.5 2-.8.5-3.5 2v10.7l3.5-2 .8-.5 3.5-2v-10.7" fill="url(#K)"/><path d="M404.6 117.2c-.3 0-.5.1-.7.2h0c-.5.3-1 .8-1.3 1.4-.3.5-.5 1.2-.5 1.8 0 .3.1.6.2.8s.3.3.5.2c.3 0 .5-.1.7-.2h0c.5-.3 1-.8 1.3-1.4.3-.5.5-1.2.5-1.8 0-.3-.1-.6-.2-.8s-.3-.2-.5-.2" class="AT"/><g class="AP"><path d="M403.9 117.4c.2-.1.5-.2.7-.2s.4.1.5.2c.2.2.2.5.2.8 0 .6-.2 1.3-.5 1.8-.3.6-.8 1-1.3 1.4h0c-.2.1-.5.2-.7.2s-.4-.1-.5-.2c-.2-.2-.2-.5-.2-.8 0-.6.2-1.3.5-1.8.3-.6.8-1.1 1.3-1.4h0m.7-1h0c-.4 0-.8.1-1.1.3h0c-.7.4-1.2 1-1.6 1.7s-.6 1.4-.6 2.2c0 .5.1.9.4 1.3.3.3.7.5 1.1.5h0c.2 0 .4 0 .5-.1v-.6h.7v.3c.6-.4 1-.9 1.4-1.5.4-.7.6-1.4.6-2.2 0-.5-.1-.9-.4-1.3-.2-.3-.6-.5-1-.6"/><path d="M404.1 121.7h-.7v6.1l.7-.4v-5.7"/></g><path d="M404.6 144.3c-.3 0-.5.1-.7.2-.5.3-1 .8-1.3 1.4-.3.5-.5 1.2-.5 1.8 0 .3.1.6.2.8s.3.2.5.2c.3 0 .5-.1.7-.2h0c.5-.3 1-.8 1.3-1.4.3-.5.5-1.2.5-1.8 0-.3-.1-.6-.2-.8s-.3-.2-.5-.2" class="AT"/><g class="AP"><path d="M402.8 148.8c-.2 0-.4-.1-.5-.2-.2-.2-.2-.5-.2-.8 0-.6.2-1.3.5-1.8.3-.6.8-1 1.3-1.4.2-.1.5-.2.7-.2s.4.1.5.2c.2.2.2.5.2.8 0 .6-.2 1.3-.5 1.8-.3.6-.8 1-1.3 1.4h0c-.2.1-.4.1-.7.2m1.8-5.3h0c-.2 0-.4 0-.5.1v.6h-.7v-.2c-1.1.8-1.9 2.1-2 3.5v.2c0 .2 0 .4.1.6s.2.5.3.7c.3.3.7.5 1.1.5h0c.4 0 .8-.1 1.1-.3h0c.7-.4 1.2-1 1.6-1.6s.6-1.3.6-2v-.2c0-.2 0-.4-.1-.6-.1-.3-.2-.5-.3-.7-.3-.4-.7-.6-1.2-.6"/><path d="M404.1 138.1l-.7.4v5.7h.7v-6.1"/></g><linearGradient id="L" gradientUnits="userSpaceOnUse" x1="403.701" y1="141.804" x2="403.701" y2="131.081"><stop offset="0" stop-color="#fcefee"/><stop offset="1" stop-color="#fbe7e5"/></linearGradient><path d="M407.6 125.3l-3.5 2.1-.7.4-3.6 2.1v10.7l3.6-2.1 4.2-2.4v-10.8" fill="url(#L)"/><path d="M421.6 107.3c-.3 0-.5.1-.7.2h0c-.5.3-1 .8-1.3 1.4-.3.5-.5 1.2-.5 1.8 0 .3.1.6.2.8s.3.2.5.2c.3 0 .5-.1.7-.2h0c.5-.3 1-.8 1.3-1.4.3-.5.5-1.2.5-1.8 0-.3-.1-.6-.2-.8 0-.1-.2-.2-.5-.2" class="AT"/><g class="AP"><path d="M420.9 107.6c.2-.1.5-.2.7-.2s.4.1.5.2c.2.2.2.5.2.8 0 .6-.2 1.3-.5 1.8-.3.6-.8 1-1.3 1.4h0c-.2.1-.5.2-.7.2s-.4-.1-.5-.2c-.2-.2-.2-.5-.2-.8 0-.6.2-1.3.5-1.8.3-.6.8-1.1 1.3-1.4h0m.8-1h0c-.4 0-.8.1-1.1.3h0c-.7.4-1.2 1-1.6 1.6-.4.7-.6 1.4-.6 2.2 0 .5.1.9.4 1.3.3.3.7.5 1.1.5h0c.2 0 .4 0 .5-.1v-.6h.7v.2c.6-.4 1-.9 1.4-1.5.4-.7.6-1.4.6-2.2 0-.5-.1-.9-.4-1.3a1.53 1.53 0 0 0-1-.4"/><path d="M421.1 111.9h-.7v6.1l.7-.4v-5.7"/></g><path d="M429.6 139c-.3 0-.5.1-.7.2-1.1.7-1.8 1.9-1.9 3.2 0 .3.1.6.2.8s.3.2.5.2c.3 0 .5-.1.7-.2h0c.5-.3 1-.8 1.3-1.4.3-.5.5-1.2.5-1.8 0-.3-.1-.6-.2-.8 0-.1-.2-.2-.4-.2" class="AT"/><path d="M427.8 143.5c-.2 0-.4-.1-.5-.2-.2-.2-.2-.5-.2-.8.1-1.3.8-2.5 1.9-3.2.2-.1.5-.2.7-.2s.4.1.5.2c.2.2.2.5.2.8 0 .6-.2 1.3-.5 1.8-.3.6-.8 1-1.3 1.4h0c-.3.1-.5.2-.8.2m1.9-5.2h0c-.4 0-.8.1-1.1.3-.7.4-1.2 1-1.6 1.6h0c-.1.2-.2.4-.3.7-.2.5-.3 1-.3 1.5s.1.9.4 1.3c.3.3.7.5 1.1.5h0c.4 0 .8-.1 1.1-.3l-.2-.3.2.3c.7-.4 1.2-1 1.6-1.6.4-.7.6-1.4.6-2.2 0-.5-.1-.9-.4-1.3s-.7-.6-1.1-.5m-8.6-10l-.7.4v5.4l.2-.1c.2-.1.4-.2.6-.2v-5.5" class="AP"/><path d="M421.6 134.4c-.3 0-.5.1-.7.2-.5.3-1 .8-1.3 1.4-.3.5-.5 1.2-.5 1.8 0 .3.1.6.2.8s.3.2.5.2c.3 0 .5-.1.7-.2h0c.5-.3 1-.8 1.3-1.4.3-.5.5-1.2.5-1.8 0-.3-.1-.6-.2-.8-.1-.1-.2-.2-.5-.2" class="AT"/><path d="M419.8 138.9c-.2 0-.4-.1-.5-.2-.2-.2-.2-.5-.2-.8 0-.6.2-1.3.5-1.8.3-.6.8-1 1.3-1.4.2-.1.5-.2.7-.2s.4.1.5.2c.2.2.2.5.2.8 0 .6-.2 1.3-.5 1.8-.3.6-.8 1-1.3 1.4h0c-.2.1-.4.2-.7.2m1.9-5.2h0c-.2 0-.4 0-.5.1-.2.1-.4.1-.6.2l-.2.1c-.6.4-1 .9-1.4 1.5s-.6 1.3-.6 2v.2c0 .2 0 .4.1.6.1.3.2.5.3.7.3.3.7.5 1.1.5h0c.4 0 .8-.1 1.1-.3l-.2-.3.2.3c.4-.3.8-.6 1.1-1 .2-.2.3-.4.4-.6h0c.4-.7.6-1.4.6-2.2 0-.5-.1-.9-.4-1.3-.2-.2-.6-.4-1-.5" class="AP"/><linearGradient id="M" gradientUnits="userSpaceOnUse" x1="420.752" y1="131.954" x2="420.752" y2="121.231"><stop offset="0" stop-color="#fcefee"/><stop offset="1" stop-color="#fbe7e5"/></linearGradient><path d="M424.7 115.5l-3.6 2.1-.7.4-3.6 2.1v10.7l3.6-2.1.7-.4 3.6-2.1v-10.7" fill="url(#M)"/><g class="AP"><path d="M322.6 267.7l-1.3.7-8 13.7c.2.1.5.2.6.4l8.7-14.8m10.2-6.8l-10.4 6 .4.6 10.1-5.8c0-.2-.1-.4-.1-.6v-.2"/><path d="M322.4 266.9l-13 7.5.3-.2.4.6-1.4.8-8.1 14c.2.1.4.2.6.4h0l8.8-15 11.3-6.5 1.3-.7.2-.1-.4-.8"/><path d="M309.8 274.2l-.3.2-12.6 7.3-9 15.5a1.38 1.38 0 0 1 .4.3l.1.2 9-15.5 12.7-7.3-.3-.7"/></g><path d="M336.1 257.7c-.3 0-.5.1-.7.2h0c-.5.3-1 .8-1.3 1.4-.3.5-.5 1.2-.5 1.8 0 .3.1.6.2.8s.3.2.5.2c.3 0 .5-.1.7-.2h0c.5-.3 1-.8 1.3-1.4.3-.5.5-1 .5-1.5l-.2-.4.2-.1c0-.2-.1-.4-.2-.6-.1-.1-.2-.2-.5-.2" class="AT"/><g class="AP"><path d="M336.2 257h0c-.4 0-.8.1-1.1.3h0c-.7.4-1.2 1-1.6 1.6s-.6 1.3-.6 2v.2c0 .2 0 .4.1.6.1.3.2.5.3.7.3.3.7.5 1.1.5h0c.4 0 .8-.1 1.1-.3h0c1.2-.8 2.1-2.1 2.2-3.6l-.6.4-.1-.3c-.1.5-.3 1-.5 1.5-.3.6-.8 1-1.4 1.3h0c-.2.1-.5.2-.7.2s-.4-.1-.5-.2c-.2-.2-.2-.5-.2-.8 0-.6.2-1.3.5-1.8.3-.6.8-1 1.3-1.4h0c.2-.1.5-.2.7-.2s.4.1.5.2c.1.2.2.4.2.6l.7-.4c-.1-.2-.2-.5-.3-.7-.4-.2-.8-.4-1.1-.4"/><path d="M342.4 255.4l-.4.2-4.4 2.6-.7.4-.2.1.2.4.1.3.6-.4 5.1-2.9-.2-.3-.1-.4"/></g><path d="M313 282.9c-.3 0-.5.1-.7.2h0c-1.1.7-1.8 1.9-1.9 3.2 0 .3.1.6.2.8s.3.3.5.2c.3 0 .5-.1.7-.2h0c.5-.3 1-.8 1.3-1.4.3-.5.5-1.2.5-1.8h0c0-.3-.1-.6-.2-.8 0-.2-.2-.3-.4-.2" class="AT"/><path d="M313 282.1h0c-.4 0-.8.1-1.1.3h0c-.7.4-1.2 1-1.6 1.6-.4.7-.6 1.4-.6 2.2 0 .5.1.9.4 1.3.3.3.7.5 1.1.5h0c.4 0 .8-.1 1.1-.3h0c.7-.4 1.2-1 1.6-1.6.4-.7.6-1.4.6-2.2h-.7c0 .6-.2 1.3-.5 1.8-.3.6-.8 1-1.3 1.4h0c-.2.1-.5.2-.7.2s-.4-.1-.5-.2c-.2-.2-.2-.5-.2-.8.1-1.3.8-2.5 1.9-3.2h0c.2-.1.5-.2.7-.2s.4.1.5.2c.2.2.2.5.2.8h.7c0-.5-.1-.9-.4-1.3l-.1-.1c-.4-.3-.8-.4-1.1-.4" class="AP"/><path d="M300.1 290.3c-.3 0-.5.1-.7.2h0c-.5.3-1 .8-1.3 1.4-.3.5-.5 1.2-.5 1.8 0 .3.1.6.2.8s.3.2.5.2c.3 0 .5-.1.7-.2h0c.5-.3 1-.8 1.3-1.4.3-.5.5-1.2.5-1.8h0c0-.3-.1-.6-.2-.8-.1-.1-.3-.2-.5-.2" class="AT"/><path d="M300.1 289.6h0c-.4 0-.8.1-1.1.3h0c-1.3.8-2.1 2.3-2.2 3.8 0 .5.1.9.4 1.3.3.3.7.5 1.1.5h0c.4 0 .8-.1 1.1-.3h0c.7-.4 1.2-1 1.6-1.6.4-.7.6-1.4.6-2.2h-.7c0 .6-.2 1.3-.5 1.8-.3.6-.8 1-1.3 1.4h0c-.2.1-.5.2-.7.2s-.4-.1-.5-.2c-.2-.2-.2-.5-.2-.8 0-.6.2-1.3.5-1.8.3-.6.8-1 1.3-1.4h0c.2-.1.5-.2.7-.2s.4.1.5.2c.2.2.2.5.2.8h.7c0-.4-.1-.9-.4-1.3h0c-.1-.2-.3-.3-.6-.4-.1-.1-.3-.1-.5-.1" class="AP"/><path d="M287.2 297.8c-.3 0-.5.1-.7.2h0c-.5.3-1 .8-1.3 1.4-.3.5-.5 1.2-.5 1.8 0 .3.1.6.2.8s.3.2.5.2c.3 0 .5-.1.7-.2.5-.3 1-.8 1.3-1.4.3-.5.5-1.2.5-1.8h0c0-.3-.1-.6-.2-.8s-.3-.2-.5-.2" class="AT"/><path d="M287.2 297h0c-.4 0-.8.1-1.1.3h0c-.7.4-1.2 1-1.6 1.6-.4.7-.6 1.4-.6 2.2 0 .5.1.9.4 1.3.3.3.7.5 1.1.5h0c.4 0 .8-.1 1.1-.3 1.3-.8 2.1-2.3 2.2-3.8h-.7c0 .6-.2 1.3-.5 1.8-.3.6-.8 1-1.3 1.4-.2.1-.5.2-.7.2s-.4-.1-.5-.2c-.2-.2-.2-.5-.2-.8 0-.6.2-1.3.5-1.8.3-.6.8-1 1.3-1.4h0c.2-.1.5-.2.7-.2s.4.1.5.2c.2.2.2.5.2.8h.7c0-.4-.1-.8-.3-1.1l-.1-.2c-.1-.1-.3-.3-.4-.3-.2-.1-.5-.2-.7-.2m80.2-53.8c-.1.2-.3.4-.4.6l13.5 7.7c.1-.1.1-.3.2-.4s.1-.2.2-.3l-13.5-7.6m58-21.5l-4.5 7.8-36.2 20.9c0 .2.1.4.1.6v.2l36.7-21.2 4.6-8c-.2 0-.4-.1-.7-.3m1.7-5.3h0m.6-5l-.7.4v4.7l.8-.4v-4.7" class="AP"/><path d="M428.2 189.2l-1.7 1v6.3l1.7-.9v-2.1l-1.7.9v-2.1l1.7-.9v-2.2" class="AM"/><path d="M428.2 191.4h0l-1.7.9v2.1l1.7-.9v-2.1" class="AN"/><path d="M428.2 204.7l-1.7.9v6.4l1.2-.6.5-.3v-2.2l-1.7 1v-2.1l1.7-.9v-2.2" class="AM"/><path d="M428.2 206.9h0l-1.7.9v2.1l1.7-1v-2" class="AN"/><linearGradient id="N" gradientUnits="userSpaceOnUse" x1="427.449" y1="197.069" x2="427.449" y2="206.089"><stop offset="0" stop-color="#fcefee"/><stop offset="1" stop-color="#fbe7e5"/></linearGradient><path d="M431.1 193.9l-2.9 1.7-1.7.9-2.7 1.6v9l7.3-4.2v-9" fill="url(#N)"/><path d="M366.6 239.9c-.3 0-.5.1-.7.2h0c-.5.3-1 .8-1.3 1.4-.3.5-.5 1-.5 1.5l.2.4-.2.1c0 .2.1.4.2.6s.3.2.5.2c.3 0 .5-.1.7-.2h0c.5-.3 1-.8 1.3-1.4.3-.5.5-1.2.5-1.8 0-.3-.1-.6-.2-.8-.1-.1-.3-.2-.5-.2" class="AT"/><g class="AP"><path d="M366.6 239.2h0c-.2 0-.4 0-.5.1-.2.1-.4.1-.6.3h0l-.2.1c-.6.4-1 .9-1.4 1.5s-.6 1.3-.6 2l.6-.4.1.3c.1-.5.3-1 .5-1.5.3-.6.8-1 1.3-1.4h0c.2-.1.5-.2.7-.2s.4.1.5.2c.2.2.2.5.2.8 0 .6-.2 1.3-.5 1.8-.3.6-.8 1-1.3 1.4h0c-.2.1-.5.2-.7.2s-.4-.1-.5-.2c-.1-.2-.2-.4-.2-.6l-.7.4c.1.3.2.5.3.7.3.3.7.5 1.1.5h0c.4 0 .8-.1 1.1-.3h0c.4-.3.8-.6 1.1-1 .2-.2.3-.4.4-.6h0c.4-.7.6-1.4.6-2.2 0-.5-.1-.9-.4-1.3l-.1-.1c-.2-.2-.4-.3-.6-.4 0 0-.1-.1-.2-.1"/><path d="M363.9 242.8l-.6.3-4.5 2.6-.6.4.3.4.1.2.2-.1 4.6-2.7.7-.4.2-.1-.2-.4-.2-.2"/></g><use xlink:href="#l" x="18.4" y="98.6" class="AT"/><path d="M382.7 250.1c.2-.1.5-.2.7-.2s.4.1.5.2c.2.2.2.5.2.8-.1 1.3-.8 2.5-1.9 3.2h0c-.2.1-.5.2-.7.2s-.4-.1-.5-.2c-.2-.2-.2-.5-.2-.8 0-.6.2-1.3.5-1.8a4.67 4.67 0 0 1 1.4-1.4h0m-.4-.6h0m1.1-.3h0c-.4 0-.8.1-1.1.3h0c-.6.3-1 .8-1.4 1.4-.1.1-.1.2-.2.3s-.1.3-.2.4c-.3.6-.4 1.2-.4 1.8 0 .5.1.9.4 1.3.3.3.7.5 1.1.5h0c.4 0 .8-.1 1.1-.3h0c.7-.4 1.2-1 1.6-1.6s.6-1.3.6-2v-.2c0-.2 0-.4-.1-.6-.1-.3-.2-.5-.3-.7-.3-.5-.7-.7-1.1-.6" class="AP"/><use xlink:href="#l" x="63.2" y="65.5" class="AT"/><path d="M427.5 217.1c.2-.1.5-.2.7-.2s.4.1.5.2c.2.2.2.5.2.8-.1 1.3-.8 2.5-1.9 3.2h0c-.2.1-.5.2-.7.2s-.4-.1-.5-.2c-.2-.2-.2-.5-.2-.8 0-.6.2-1.3.5-1.8.4-.6.8-1.1 1.4-1.4h0m.7-1h0c-.2 0-.4 0-.5.1-.2.1-.4.1-.6.3h0l-.2.1c-.6.4-1 .9-1.4 1.5-.4.7-.6 1.4-.6 2.2 0 .5.1.9.4 1.3l.2.2c.2.2.4.3.7.3h.2c.4 0 .8-.1 1.1-.3h0c.7-.4 1.2-1 1.6-1.6.4-.7.6-1.4.6-2.2 0-.5-.1-.9-.4-1.3-.3-.5-.7-.7-1.1-.6" class="AP"/><path d="M428.2 175.2c-.3 0-.5.1-.7.2h0c-.5.3-1 .8-1.3 1.4-.3.5-.5 1.2-.5 1.8 0 .3.1.6.2.8s.3.2.5.2c.3 0 .5-.1.7-.2h0c.5-.3 1-.8 1.3-1.4.3-.5.5-1.2.5-1.8 0-.3-.1-.6-.2-.8s-.3-.3-.5-.2" class="AT"/><path d="M427.5 175.4c.2-.1.5-.2.7-.2s.4.1.5.2c.2.2.2.5.2.8 0 .6-.2 1.3-.5 1.8-.3.6-.8 1-1.3 1.4h0c-.2.1-.5.2-.7.2s-.4-.1-.5-.2c-.2-.2-.2-.5-.2-.8 0-.6.2-1.3.5-1.8.3-.6.7-1.1 1.3-1.4h0m.7-1h0c-.4 0-.8.1-1.1.3h0c-.7.4-1.2 1-1.6 1.6-.4.7-.6 1.4-.6 2.2 0 .5.1.9.4 1.3.3.3.7.5 1.1.5h0c.4 0 .8-.1 1.1-.3h0c1.3-.8 2.1-2.3 2.2-3.8 0-.5-.1-.9-.4-1.3-.3-.3-.7-.5-1.1-.5" class="AP"/><path d="M117.4 202.6l1.9-1.1v-2.3l-1.9 1.1z" class="AU"/><use xlink:href="#m" class="AQ"/><use xlink:href="#n" class="AL"/><path d="M117.4 211.4l1.9-1.1V208l-1.9 1.2z" class="AU"/><path d="M117.4 209.2l-22.7-13.1v2.2l22.7 13.1z" class="AQ"/><path d="M117.3 209.1l2-1.1-22.6-13.1-2 1.2z" class="AL"/><path d="M117.4 220.3l1.9-1.2v-2.3l-1.9 1.2z" class="AU"/><use xlink:href="#m" y="17.7" class="AQ"/><path d="M117.3 218l2-1.2-22.6-13.1-2 1.2z" class="AL"/><path d="M117.4 229.1l1.9-1.2v-2.2l-1.9 1.1z" class="AU"/><use xlink:href="#m" y="26.5" class="AQ"/><use xlink:href="#n" y="26.5" class="AL"/><path d="M117.4 237.9l1.9-1.1v-2.3l-1.9 1.1z" class="AU"/><path d="M117.4 235.6l-22.7-13v2.2l22.7 13.1z" class="AQ"/><use xlink:href="#n" y="35.3" class="AL"/><path d="M117.4 246.7l1.9-1.1v-2.3l-1.9 1.2z" class="AU"/><path d="M117.4 244.5l-22.7-13.1v2.3l22.7 13z" class="AQ"/><path d="M117.3 244.5l2-1.2-22.6-13.1-2 1.2z" class="AL"/><path d="M117.4 255.6l1.9-1.2v-2.2l-1.9 1.1z" class="AU"/><use xlink:href="#m" y="53" class="AQ"/><use xlink:href="#n" y="53" class="AL"/><path d="M117.4 264.4l1.9-1.1V261l-1.9 1.1z" class="AU"/><path d="M117.4 262.1L94.7 249v2.3l22.7 13.1z" class="AQ"/><use xlink:href="#n" y="61.8" class="AL"/><path d="M117.4 273.2l1.9-1.1v-2.3l-1.9 1.2z" class="AU"/><path d="M117.4 271l-22.7-13.1v2.2l22.7 13.1z" class="AQ"/><path d="M117.3 271l2-1.2-22.6-13.1-2 1.2z" class="AL"/><path d="M117.4 282.1l1.9-1.2v-2.3l-1.9 1.2z" class="AU"/><use xlink:href="#m" y="79.5" class="AQ"/><path d="M117.3 279.8l2-1.2-22.6-13-2 1.1z" class="AL"/><path d="M117.4 290.9l1.9-1.2v-2.2l-1.9 1.1z" class="AU"/><use xlink:href="#m" y="88.3" class="AQ"/><use xlink:href="#n" y="88.3" class="AL"/><path d="M117.4 299.7l1.9-1.1v-2.3l-1.9 1.1z" class="AU"/><path d="M117.4 297.4l-22.7-13v2.2l22.7 13.1z" class="AQ"/><path d="M117.3 297.4l2-1.1-22.6-13.1-2 1.2z" class="AL"/><path d="M117.4 308.6l1.9-1.2v-2.3l-1.9 1.2z" class="AU"/><use xlink:href="#m" y="106" class="AQ"/><path d="M117.3 306.3l2-1.2L96.7 292l-2 1.2z" class="AL"/><path d="M117.4 317.4l1.9-1.2V314l-1.9 1.1z" class="AU"/><path d="M117.4 315.1L94.7 302v2.3l22.7 13.1z" class="AQ"/><use xlink:href="#n" y="114.8" class="AL"/><path d="M117.4 326.2l1.9-1.1v-2.3l-1.9 1.1z" class="AU"/><use xlink:href="#m" y="123.6" class="AQ"/><use xlink:href="#n" y="123.6" class="AL"/><path d="M117.4 335l1.9-1.1v-2.3l-1.9 1.2z" class="AU"/><path d="M117.4 332.8l-22.7-13.1v2.3l22.7 13z" class="AQ"/><path d="M117.3 332.8l2-1.2-22.6-13.1-2 1.2z" class="AL"/><path d="M117.4 343.9l1.9-1.2v-2.2l-1.9 1.1z" class="AU"/><use xlink:href="#m" y="141.3" class="AQ"/><path d="M117.3 341.6l2-1.2-22.6-13-2 1.1z" class="AL"/><path d="M117.4 352.7l1.9-1.1v-2.3l-1.9 1.1z" class="AU"/><use xlink:href="#m" y="150.1" class="AQ"/><use xlink:href="#n" y="150.1" class="AL"/><radialGradient id="O" cx="290.615" cy="-209.865" r="58.17" gradientTransform="matrix(1 -4.589402e-03 3.462689e-03 -0.64 -2.7801 330.1156)" gradientUnits="userSpaceOnUse"><stop offset="0" stop-color="#826a6a"/><stop offset=".03" stop-color="#999"/><stop offset="1" stop-color="#fff"/></radialGradient><path d="M225.5 463.6c.1-20.2 28.5-36.3 63.4-36.2s63.1 16.7 63 36.8-28.5 36.3-63.4 36.2-63.1-16.6-63-36.8z" opacity=".4" fill="url(#O)" enable-background="new"/><linearGradient id="P" gradientUnits="userSpaceOnUse" x1="246.809" y1="188.591" x2="71.362" y2="298.222"><stop offset=".1" stop-color="#e26558"/><stop offset=".24" stop-color="#de6255"/><stop offset=".38" stop-color="#d2594e"/><stop offset=".52" stop-color="#bf4941"/><stop offset=".66" stop-color="#a3342f"/><stop offset=".79" stop-color="#801918"/><stop offset=".84" stop-color="#710d0e"/></linearGradient><path d="M208 300.7V129.4c0-5.7-3.5-8.4-7.8-5.9l-82.3 47.6c-4.3 2.5-7.8 9.1-7.8 14.9v171.3c0 5.7 3.5 8.4 7.8 5.9l82.4-47.5c4.3-2.6 7.7-9.2 7.7-15z" fill="url(#P)"/><path d="M209.9 302.1V130.8c0-5.7-3.5-8.4-7.8-5.9l-82.4 47.5c-4.3 2.5-7.8 9.1-7.8 14.9v171.3c0 5.7 3.5 8.4 7.8 5.9l82.4-47.6c4.3-2.4 7.8-9 7.8-14.8z" fill="#a8190a"/><path d="M142.8 296.8v-32.7l-13.2-7.5v-9.2" class="AR AS AV AW"/><path d="M143.9 274.9l6.8-4v-1.3l-6.8 3.9z" class="AL"/><path d="M146.2 273.5l2.2-1.2v-1.4l-2.2 1.3z" class="AO"/><path d="M143.9 277.4l6.8-3.9v-1.4l-6.8 4z" class="AL"/><path d="M146.2 276.1l2.2-1.3v-1.3l-2.2 1.2z" class="AO"/><path d="M143.9 279.9l6.8-3.9v-1.3l-6.8 3.9z" class="AL"/><path d="M146.2 278.6l2.2-1.2V276l-2.2 1.3z" class="AO"/><path d="M143.9 282.5l6.8-4v-1.3l-6.8 3.9z" class="AL"/><path d="M146.2 281.1l2.2-1.2v-1.4l-2.2 1.3z" class="AO"/><path d="M143.9 285l6.8-3.9v-1.4l-6.8 4z" class="AL"/><path d="M146.2 283.7l2.2-1.3v-1.3l-2.2 1.2z" class="AO"/><path d="M143.9 287.5l6.8-3.9v-1.3l-6.8 3.9z" class="AL"/><path d="M146.2 286.2l2.2-1.3v-1.3l-2.2 1.3z" class="AO"/><path d="M143.9 290.1l6.8-4v-1.3l-6.8 3.9z" class="AL"/><path d="M146.2 288.7l2.2-1.2v-1.4l-2.2 1.3z" class="AO"/><path d="M143.9 292.6l6.8-3.9v-1.4l-6.8 4z" class="AL"/><path d="M146.2 291.3l2.2-1.3v-1.3l-2.2 1.2z" class="AO"/><path d="M153.8 296.9v-7.8l-1.2.7v7.8z" class="AL"/><path d="M153.8 294.3v-2.5l-1.2.6v2.5z" class="AO"/><path d="M156 295.6v-7.8l-1.2.7v7.8z" class="AL"/><path d="M156 293v-2.5l-1.2.7v2.5z" class="AO"/><path d="M158.2 294.4v-7.8l-1.2.6v7.8z" class="AL"/><path d="M158.2 291.7v-2.5l-1.2.7v2.5z" class="AO"/><path d="M160.4 293.1v-7.8l-1.2.7v7.8z" class="AL"/><path d="M160.4 290.4v-2.5l-1.2.7v2.5z" class="AO"/><path d="M162.6 291.8V284l-1.2.7v7.8z" class="AL"/><path d="M162.6 289.2v-2.5l-1.2.6v2.5z" class="AO"/><path d="M164.8 290.5v-7.8l-1.2.7v7.8z" class="AL"/><path d="M164.8 287.9v-2.5l-1.2.7v2.5z" class="AO"/><path d="M167 289.3v-7.8l-1.1.6v7.8z" class="AL"/><path d="M167 286.6v-2.5l-1.1.7v2.5z" class="AO"/><path d="M169.2 288v-7.8l-1.1.7v7.8z" class="AL"/><path d="M169.2 285.3v-2.5l-1.1.7v2.5z" class="AO"/><path d="M178 271.6l-6.8 3.9v1.3l6.8-3.9z" class="AL"/><path d="M175.7 272.9l-2.2 1.3v1.3l2.2-1.2z" class="AO"/><path d="M178 269l-6.8 4v1.3l6.8-3.9z" class="AL"/><path d="M175.7 270.4l-2.2 1.2v1.4l2.2-1.3z" class="AO"/><path d="M178 266.5l-6.8 3.9v1.4l6.8-3.9z" class="AL"/><path d="M175.7 267.8l-2.2 1.3v1.3l2.2-1.2z" class="AO"/><path d="M178 264l-6.8 3.9v1.3l6.8-3.9z" class="AL"/><path d="M175.7 265.3l-2.2 1.3v1.3l2.2-1.2z" class="AO"/><path d="M178 261.4l-6.8 4v1.3l6.8-3.9z" class="AL"/><path d="M175.7 262.8l-2.2 1.2v1.4l2.2-1.3z" class="AO"/><path d="M178 258.9l-6.8 3.9v1.4l6.8-3.9z" class="AL"/><path d="M175.7 260.2l-2.2 1.3v1.3l2.2-1.2z" class="AO"/><path d="M178 256.4l-6.8 3.9v1.4l6.8-4z" class="AL"/><path d="M175.7 257.7l-2.2 1.3v1.3l2.2-1.2z" class="AO"/><path d="M178 253.8l-6.8 4v1.3l6.8-3.9z" class="AL"/><path d="M175.7 255.2l-2.2 1.2v1.4l2.2-1.3z" class="AO"/><path d="M168.1 249.5v7.8l1.1-.6v-7.8z" class="AL"/><path d="M168.1 252.2v2.5l1.1-.7v-2.5z" class="AO"/><path d="M165.9 250.8v7.8l1.1-.7v-7.8z" class="AL"/><path d="M165.9 253.5v2.5l1.1-.7v-2.5z" class="AO"/><path d="M163.6 252.1v7.8l1.2-.7v-7.8z" class="AL"/><path d="M163.6 254.7v2.5l1.2-.6v-2.5z" class="AO"/><path d="M161.4 253.4v7.8l1.2-.7v-7.8z" class="AL"/><path d="M161.4 256v2.5l1.2-.7v-2.5z" class="AO"/><path d="M159.2 254.6v7.8l1.2-.6V254z" class="AL"/><path d="M159.2 257.3v2.5l1.2-.7v-2.5z" class="AO"/><path d="M157 255.9v7.8l1.2-.7v-7.8z" class="AL"/><path d="M157 258.6v2.5l1.2-.7v-2.5z" class="AO"/><path d="M154.8 257.2v7.8l1.2-.7v-7.8z" class="AL"/><path d="M154.8 259.8v2.5l1.2-.6v-2.5z" class="AO"/><path d="M152.6 258.5v7.8l1.2-.7v-7.8z" class="AL"/><path d="M152.6 261.1v2.5l1.2-.7v-2.5z" class="AO"/><path d="M150.7 290.9l20.5-11.8v-23.5l-20.5 11.8z"/><linearGradient id="Q" gradientUnits="userSpaceOnUse" x1="197.533" y1="252.226" x2="176.957" y2="264.051"><stop offset="0" stop-color="#333"/><stop offset=".54" stop-color="#3f3f3f"/><stop offset="1" stop-color="#4d4d4d"/></linearGradient><path d="M150.7 290.9l20.5-11.8v-23.5l-20.5 11.8z" fill="url(#Q)"/><g class="AV AW"><g class="AX"><ellipse transform="matrix(.5026 -.8645 .8645 .5026 -150.6131 233.9949)" cx="128" cy="247.9" rx="2" ry="1.2"/><ellipse transform="matrix(.5047 -.8633 .8633 .5047 -166.1298 240.1234)" cx="126.2" cy="264.8" rx="2" ry="1.2"/><ellipse transform="matrix(.5047 -.8633 .8633 .5047 -144.8481 238.3871)" cx="135.3" cy="245.4" rx="2" ry="1.2"/><ellipse transform="matrix(.5047 -.8633 .8633 .5047 -186.6271 270.9371)" cx="142.8" cy="298.1" rx="2" ry="1.2"/></g><path d="M135.3 255.7V247" class="AR AS"/></g><path d="M132.8 254.4l5-2.9v-.9l-5 2.8z" class="AL"/><path d="M134.5 253.4l1.6-.9v-1l-1.6.9z" class="AO"/><path d="M133.9 260.4l-6.2 3.6" class="AR AS AV AW"/><linearGradient id="R" gradientUnits="userSpaceOnUse" x1="164.846" y1="242.569" x2="158.174" y2="246.404"><stop offset="0" stop-color="#333"/><stop offset=".54" stop-color="#3f3f3f"/><stop offset="1" stop-color="#4d4d4d"/></linearGradient><path d="M132 265.3l6.6-3.9v-7.6l-6.6 3.9z" fill="url(#R)"/><g class="AV AW"><ellipse transform="matrix(.5047 -.8633 .8633 .5047 -137.5336 253.507)" cx="152.2" cy="246.6" rx="2" ry="1.2" class="AX"/><path d="M158.2 243.2l-4.5 2.6" class="AR AS"/><ellipse transform="matrix(.5047 -.8633 .8633 .5047 -120.8268 263.2017)" cx="169" cy="236.9" rx="2" ry="1.2" class="AX"/><path d="M163 240.4l4.6-2.6" class="AR AS"/></g><linearGradient id="S" gradientUnits="userSpaceOnUse" x1="190.277" y1="224.744" x2="183.613" y2="228.574"><stop offset="0" stop-color="#333"/><stop offset=".54" stop-color="#3f3f3f"/><stop offset="1" stop-color="#4d4d4d"/></linearGradient><path d="M157.3 246.9l6.6-3.8v-6.4l-6.6 3.8z" fill="url(#S)"/><path d="M184.9 234.7l.3-.2c1.1-.8 1.8-2.1 1.8-3.5v-8.9c0-1.3-.8-2-1.8-1.4l-.3.2c-1.1.8-1.8 2.1-1.8 3.5v8.9c0 1.4.8 2 1.8 1.4z" class="AL"/><path d="M183.1 231.4l3.9-2.2V224l-3.9 2.2z" class="AO"/><path d="M185 221l.1-.1v13.7l-.1.1c-1.1.6-1.9.1-1.9-1.1v-9.2c0-1.4.8-2.7 1.9-3.4z" class="AQ"/><g class="AV AW"><ellipse transform="matrix(.5047 -.8633 .8633 .5047 -187.7873 285.0831)" cx="154.6" cy="306.2" rx="2" ry="1.2" class="AX"/><path d="M155.6 305.5l4.1-2.3" class="AR AS"/><ellipse transform="matrix(.5047 -.8633 .8633 .5047 -216.3248 287.5693)" cx="142.4" cy="332.3" rx="2" ry="1.2" class="AX"/><path d="M143.5 331.6l4.1-2.3" class="AR AS"/><ellipse transform="matrix(.5047 -.8633 .8633 .5047 -221.8438 290.7344)" cx="142.4" cy="338.7" rx="2" ry="1.2" class="AX"/><path d="M143.5 338l4.1-2.3" class="AR AS"/><ellipse transform="matrix(.5047 -.8633 .8633 .5047 -166.1985 297.4257)" cx="176.1" cy="293.6" rx="2" ry="1.2" class="AX"/><path d="M175 294.1l-4.1 2.4" class="AR AS"/></g><path d="M171.3 296.4h0c0-1.2-.8-1.8-1.7-1.3l-8.6 5c-1 .7-1.7 1.9-1.7 3.2h0c0 1.2.8 1.8 1.7 1.3l8.6-5c1.1-.7 1.7-1.9 1.7-3.2z" class="AL"/><path d="M167.5 300.9v-4.5L163 299v4.5z" class="AO"/><path d="M159.4 303.3v-.2l11.9-6.9v.2c-.1 1.4-.8 2.6-1.9 3.4l-6.4 3.7-1.7 1c-1 .5-1.9.1-1.9-1.2z" class="AQ"/><g class="AV AW"><ellipse transform="matrix(.5047 -.8633 .8633 .5047 -180.6995 251.364)" cx="128.7" cy="283.2" rx="2" ry="1.2" class="AX"/><path d="M128.6 284.5v4.7" class="AR AS"/><ellipse transform="matrix(.5047 -.8633 .8633 .5047 -202.0932 263.7479)" cx="128.8" cy="308" rx="2" ry="1.2" class="AX"/><path d="M128.8 306.7V302" class="AR AS"/></g><path d="M128.5 302.7l.3-.2c1.1-.8 1.8-2.1 1.8-3.5v-8.9c0-1.3-.8-1.9-1.8-1.4l-.3.2c-1.1.8-1.8 2.1-1.8 3.5v8.9c0 1.3.8 1.9 1.8 1.4z" class="AL"/><path d="M126.7 299.3l3.9-2.2v-5.2l-3.9 2.3z" class="AO"/><path d="M128.6 288.9l.1-.1v13.7l-.1.1c-1.1.6-2 .1-2-1.1v-9.2c.1-1.4.9-2.7 2-3.4z" class="AQ"/><path d="M183.6 216.1l-46.8 27.1" class="AR AS AV AW"/><path d="M183.2 188.3l4-2.3v-1.4l-4 2.3z" class="AL"/><path d="M184.6 187.5l1.2-.8v-1.3l-1.2.7z" class="AO"/><path d="M183.2 193.3l4-2.3v-1.3l-4 2.3z" class="AL"/><path d="M184.6 192.5l1.2-.7v-1.3l-1.2.7z" class="AO"/><path d="M192.8 182.7l4-2.3v-1.3l-4 2.3z" class="AL"/><path d="M194.1 182l1.3-.8v-1.3l-1.3.7z" class="AO"/><path d="M192.8 187.8l4-2.3v-1.3l-4 2.3z" class="AL"/><path d="M194.1 187l1.3-.7v-1.4l-1.3.8z" class="AO"/><linearGradient id="T" gradientUnits="userSpaceOnUse" x1="238.185" y1="158.5" x2="243.796" y2="155.275"><stop offset="0" stop-color="#333"/><stop offset=".54" stop-color="#3f3f3f"/><stop offset="1" stop-color="#4d4d4d"/></linearGradient><path d="M192.7 179.1l-5.6 3.2v11.1l5.6-3.2z" fill="url(#T)"/><path d="M162.6 243.9l1.4-.9v-6.4l-1.4.8zm-5.3 3l1.4-.8v-6.4l-1.4.8z" class="AL"/><linearGradient id="U" gradientUnits="userSpaceOnUse" x1="200.951" y1="301.96" x2="173.555" y2="317.706"><stop offset="0" stop-color="gray"/><stop offset="1" stop-color="#e6e6e6"/></linearGradient><path d="M147.3 339.1l27.3-15.8v-12.5l-27.3 15.8z" fill="url(#U)"/><path d="M148.4 348l25.1-14.5V324l-25.1 14.5z" fill="#00904c"/><path d="M170.1 330.6h0c0-.6-.4-.9-.9-.6l-4.4 2.5c-.5.4-.9 1-.9 1.6h0c0 .6.4.9.9.6l4.4-2.5c.5-.3.8-.9.9-1.6z" class="AL"/><path d="M168.1 332.9v-2.3l-2.3 1.3v2.3z" class="AO"/><path d="M164 334.1h0l6-3.6v.1c0 .7-.4 1.3-1 1.7l-.9.5-2.3 1.3-.9.5c-.5.4-.9.2-.9-.5z" class="AQ"/><path d="M139.4 198.6v43.1m0-22.2l8-13.8" class="AR AS AV AW"/><ellipse transform="matrix(.5047 -.8633 .8633 .5047 -104.4998 229.1894)" cx="147.5" cy="205.7" rx="2" ry="1.2" class="AV AW AX"/><path d="M148.6 205.1l4.1-2.4" class="AR AS AV AW"/><ellipse transform="matrix(.5047 -.8633 .8633 .5047 -82.8936 241.6728)" cx="169.2" cy="193.1" rx="2" ry="1.2" class="AV AW AX"/><path d="M168 193.7l-4.1 2.4" class="AR AS AV AW"/><path d="M164.3 196h0c0-1.2-.8-1.8-1.7-1.3l-8.6 5c-1 .7-1.7 1.9-1.7 3.2h0c0 1.2.8 1.8 1.7 1.3l8.6-4.9a4.03 4.03 0 0 0 1.7-3.3z" class="AL"/><path d="M160.5 200.4V196l-4.5 2.6v4.4z" class="AO"/><path d="M152.4 202.9v-.2l11.9-6.9v.1c-.1 1.4-.8 2.6-2 3.4l-1.9 1.1-6.1 3.6c-1 .6-1.9.1-1.9-1.1z" class="AQ"/><path d="M185 215.3l-14.6-8.4-29.6 17.1" class="AR AS AV AW"/><path d="M167 206.4v4.6l1.1-.7v-4.6z" class="AL"/><path d="M167 208v1.4l1.1-.6v-1.5z" class="AO"/><path d="M162.5 209v4.5l1.2-.6v-4.6z" class="AL"/><path d="M162.5 210.5v1.5l1.2-.7v-1.5z" class="AO"/><path d="M158.1 211.5v4.6l1.2-.7v-4.6z" class="AL"/><path d="M158.1 213.1v1.4l1.2-.7v-1.4z" class="AO"/><path d="M153.7 214.1v4.5l1.2-.6v-4.6z" class="AL"/><path d="M153.7 215.6v1.5l1.2-.7v-1.5z" class="AO"/><path d="M167 222.1v4.5l1.1-.6v-4.6z" class="AL"/><path d="M167 223.6v1.5l1.1-.7V223z" class="AO"/><path d="M162.5 224.6v4.6l1.2-.7v-4.6z" class="AL"/><path d="M162.5 226.2v1.4l1.2-.6v-1.5z" class="AO"/><path d="M158.1 227.2v4.5l1.2-.6v-4.6z" class="AL"/><path d="M158.1 228.7v1.5l1.2-.7V228z" class="AO"/><path d="M153.7 229.7v4.6l1.2-.7V229z" class="AL"/><path d="M153.7 231.3v1.4l1.2-.6v-1.5z" class="AO"/><linearGradient id="V" gradientUnits="userSpaceOnUse" x1="197.533" y1="199.026" x2="176.957" y2="210.851"><stop offset="0" stop-color="#333"/><stop offset=".54" stop-color="#3f3f3f"/><stop offset="1" stop-color="#4d4d4d"/></linearGradient><path d="M150.7 231.5l20.5-11.9v-11l-20.5 11.8z" fill="url(#V)"/><g class="AV AW"><path d="M139.4 197.1l5.6-9.6" class="AR AS"/><ellipse transform="matrix(.5026 -.8645 .8645 .5026 -141.5847 220.962)" cx="121.2" cy="233.5" rx="2" ry="1.2" class="AX"/><path d="M128.6 230.8l-4.5 2.6" class="AR AS"/><ellipse transform="matrix(.5047 -.8633 .8633 .5047 -124.7555 231.5096)" cx="139.4" cy="224.5" rx="2" ry="1.2" class="AX"/><path d="M133.4 228l4.5-2.6" class="AR AS"/></g><linearGradient id="W" gradientUnits="userSpaceOnUse" x1="160.514" y1="212.438" x2="153.85" y2="216.268"><stop offset="0" stop-color="#333"/><stop offset=".54" stop-color="#3f3f3f"/><stop offset="1" stop-color="#4d4d4d"/></linearGradient><path d="M127.7 234.5l6.6-3.8v-6.4l-6.6 3.8z" fill="url(#W)"/><g class="AV AW"><ellipse transform="matrix(.5047 -.8633 .8633 .5047 -129.4693 214.9154)" cx="122.6" cy="220.3" rx="2" ry="1.2" class="AX"/><path d="M128.6 216.9l-4.5 2.6" class="AR AS"/><ellipse transform="matrix(.5047 -.8633 .8633 .5047 -112.7625 224.6102)" cx="139.4" cy="210.6" rx="2" ry="1.2" class="AX"/><path d="M133.4 214.1l4.5-2.6" class="AR AS"/></g><linearGradient id="X" gradientUnits="userSpaceOnUse" x1="160.514" y1="198.538" x2="153.85" y2="202.368"><stop offset="0" stop-color="#333"/><stop offset=".54" stop-color="#3f3f3f"/><stop offset="1" stop-color="#4d4d4d"/></linearGradient><path d="M127.7 220.6l6.6-3.8v-6.4l-6.6 3.8z" fill="url(#X)"/><g class="AV AW"><ellipse transform="matrix(.5047 -.8633 .8633 .5047 -117.458 208.021)" cx="122.6" cy="206.4" rx="2" ry="1.2" class="AX"/><path d="M128.6 203l-4.5 2.6" class="AR AS"/><ellipse transform="matrix(.5047 -.8633 .8633 .5047 -89.5397 217.9256)" cx="145.1" cy="187" rx="2" ry="1.2" class="AX"/><path d="M133.4 200.2l4.5-2.6" class="AR AS"/><ellipse transform="matrix(.5047 -.8633 .8633 .5047 -100.8483 217.8639)" cx="139.4" cy="196.8" rx="2" ry="1.2" class="AX"/></g><linearGradient id="Y" gradientUnits="userSpaceOnUse" x1="160.514" y1="184.638" x2="153.85" y2="188.468"><stop offset="0" stop-color="#333"/><stop offset=".54" stop-color="#3f3f3f"/><stop offset="1" stop-color="#4d4d4d"/></linearGradient><path d="M127.7 206.7l6.6-3.8v-6.4l-6.6 3.8z" fill="url(#Y)"/><g class="AR AS AV AW"><path d="M185.2 240.1v10.5l7.3 4.1"/><path d="M185.2 250.4v10.5l7.3 4.1"/><path d="M185.2 260.7v10.5l7.3 4.1"/></g><ellipse transform="matrix(.5047 -.8633 .8633 .5047 -115.5478 278.8266)" cx="185.2" cy="240.1" rx="2" ry="1.2" class="AV AW AX"/><path d="M185.2 238.8v-4.7" class="AR AS AV AW"/><g class="AX AV AW"><ellipse transform="matrix(.5047 -.8633 .8633 .5047 -124.5229 292.3108)" cx="192.5" cy="254.7" rx="2" ry="1.2"/><ellipse transform="matrix(.5047 -.8633 .8633 .5047 -133.6738 297.6207)" cx="192.5" cy="265.3" rx="2" ry="1.2"/><ellipse transform="matrix(.5047 -.8633 .8633 .5047 -142.7289 302.7876)" cx="192.5" cy="275.8" rx="2" ry="1.2"/></g><path d="M185.5 214.8l11.7-20.2V163l-4.3-2.5-5.9 3.4" class="AR AS AV AW"/><path d="M174.6 171.7l4-2.3v-1.3l-4 2.3z" class="AL"/><path d="M175.9 170.9l1.3-.7v-1.4l-1.3.8z" class="AO"/><path d="M184.2 166.2l3.9-2.3v-1.4l-3.9 2.3z" class="AL"/><path d="M185.5 165.4l1.3-.7v-1.4l-1.3.8z" class="AO"/><linearGradient id="Z" gradientUnits="userSpaceOnUse" x1="229.537" y1="139.387" x2="235.149" y2="136.162"><stop offset="0" stop-color="#333"/><stop offset=".54" stop-color="#3f3f3f"/><stop offset="1" stop-color="#4d4d4d"/></linearGradient><path d="M184.1 162.5l-5.6 3.3v5.9l5.6-3.2z" fill="url(#Z)"/><g class="AV AW"><ellipse transform="matrix(.5047 -.8633 .8633 .5047 -94.279 266.3522)" cx="185" cy="215.3" rx="2" ry="1.2" class="AX"/><path d="M185 216.6v4.7" class="AR AS"/><g class="AX"><ellipse transform="matrix(.5047 -.8633 .8633 .5047 -70.359 266.6476)" cx="197.2" cy="194.6" rx="2" ry="1.2"/><ellipse transform="matrix(.5047 -.8633 .8633 .5047 -43.1219 246.0034)" cx="192.8" cy="160.6" rx="2" ry="1.2"/><ellipse transform="matrix(.5047 -.8633 .8633 .5047 -68.76 231.1033)" cx="167" cy="175.5" rx="2" ry="1.2"/></g></g><path d="M178.9 226.8l2-1.1v-2.3l-2 1.1z" class="AU"/><path d="M178.9 224.5l-14.5-8.2v2.3l14.5 8.2z" class="AQ"/><path d="M178.9 224.5l2-1.1-14.5-8.2-2 1.1z" class="AL"/><path d="M174.3 230.4l2-1.2v-2.3l-2 1.2z" class="AU"/><path d="M174.3 228.1l-14.5-8.2v2.2l14.5 8.3z" class="AQ"/><path d="M174.3 228.1l2-1.2-14.5-8.2-2 1.2z" class="AL"/><path d="M169.7 233.9l2-1.1v-2.3l-2 1.1z" class="AU"/><path d="M169.7 231.6l-14.5-8.2v2.3l14.5 8.2z" class="AQ"/><path d="M169.7 231.6l2-1.1-14.5-8.2-2 1.1z" class="AL"/><path d="M219 427.1l46.8 27V294.6l-46.8-27z" fill="#b3b3b3"/><path d="M367.9 216.5l-46.7-26.9-85.3 49.3 46.7 26.9z" class="AL"/><path d="M282.6 265.8l-46.7-26.9-16.9 28.7 46.8 27z" class="AQ"/><path d="M362.1 208l-88 50.8-18.6 32.1v162.5l18.6 10.6 87.9-50.8 18.6-32.1V218.6L362.1 208zm15.4 173.5l-16.7 28.8-85.3 49.2-16.7-9.5V290.5l16.7-28.9 85.3-49.2 16.7 9.6v159.5z" class="Ac"/><path d="M225.4 436l30.2 17.4V290.9l-30.2-17.4z" fill="#a8190a"/><path d="M362.1 208l-29.9-17.3-88 50.8 30 17.3z" fill="#e26558"/><path d="M274.2 258.8l-30-17.3-18.8 32 30.2 17.4z" class="Ac"/><linearGradient id="a" gradientUnits="userSpaceOnUse" x1="389.41" y1="377.169" x2="260.947" y2="303.006"><stop offset="0" stop-color="#d4d4d4"/><stop offset="1" stop-color="#fff"/></linearGradient><path d="M282.6 265.8l85.3-49.3 16.7 9.6v159.4l-16.7 28.9-85.3 49.2-16.8-9.5V294.6z" fill="url(#a)"/><use xlink:href="#o" class="AQ"/><use xlink:href="#p" class="AL"/><use xlink:href="#o" y="-17.7" class="AQ"/><path d="M297.4 384.6l39-22.5h17.1c-.1.1-.3.2-.4.3l-55.7 32.2c-2 1.2-3.7-.1-3.7-2.8h0c-.1-2.8 1.6-6 3.7-7.2z" class="AL"/><use xlink:href="#o" y="-38.4" class="AQ"/><path d="M297.4 364l39-22.5h17.1c-.1.1-.3.2-.4.3L297.4 374c-2 1.2-3.7-.1-3.7-2.8h0c-.1-2.9 1.6-6 3.7-7.2z" class="AL"/><use xlink:href="#o" y="-114.2" class="AQ"/><use xlink:href="#p" y="-114.2" class="AL"/><g class="AQ"><ellipse transform="matrix(.5026 -.8645 .8645 .5026 -97.5494 388.5747)" cx="288.9" cy="279.1" rx="5.6" ry="3.2"/><ellipse transform="matrix(.5047 -.8633 .8633 .5047 -26.4349 430.7651)" cx="362.2" cy="238.4" rx="5.6" ry="3.2"/><ellipse transform="matrix(.5047 -.8633 .8633 .5047 -235.3722 469.0639)" cx="291.1" cy="439.7" rx="5.6" ry="3.2"/><ellipse transform="matrix(.5047 -.8633 .8633 .5047 -164.6615 510.1217)" cx="362.2" cy="398.6" rx="5.6" ry="3.2"/></g><g class="AR AS"><path d="M297.9 200.6l-104.1-59.9m-11.5-7.3L89 79.7V0" stroke-width=".42" class="Ad"/><path d="M231.6 246l-35.7-20.5m287.9 82.2l-120.9-69.6m-249.6-60.2l-63.9-36.8H17.8m295.8 151l-22.5-12.6" stroke-width=".37" class="AV"/></g><linearGradient id="b" gradientUnits="userSpaceOnUse" x1="322.358" y1="312.981" x2="325.644" y2="318.752"><stop offset="0" stop-color="#e26558"/><stop offset="1" stop-color="#e0341b"/></linearGradient><ellipse transform="matrix(.5026 -.8645 .8645 .5026 -97.8642 413.2915)" cx="310.2" cy="291.7" rx="4.4" ry="2.6" stroke="url(#b)" stroke-width=".37" class="AU"/><linearGradient id="c" gradientUnits="userSpaceOnUse" x1="-1.48" y1="133.602" x2="-9.219" y2="130.237"><stop offset="0" stop-color="#e26558"/><stop offset="1" stop-color="#e0341b"/></linearGradient><g class="AU"><path d="M13.1 138.4c-3 3.9 1.4 8.3 5.4 5.4 2.9-3.9-1.5-8.3-5.4-5.4z" stroke="url(#c)" stroke-width=".4" class="AR"/><path d="M344.9 309.1h0zm-27.7 16h0z"/><path d="M327.9 311.8c-1.2.6-2 1.7-2.3 2.9l-.5 2.1c0 .8.4 1 1.5.4s1.9-1.6 2.2-2.7c.2-.7.4-1.5.5-2.3h0c0-.9-.7-.9-1.4-.4zm34.7-21.7c0-1.4-.5-2.8-2.9-1.5-2.7 1.5-5.7 6.8-7.4 7.7-1 .6-1-.7-1-1.1v-.9c-.6.1-1.2.3-1.7.7-.4.2-.8.5-1.2.8-.2.1-.3.3-.4.6-1.1 3.6-2.6 9.6-3.2 12.6h0c-.1.6-.2 1-.3 1.3l-.2 1.1c-.1.4-.1.5.2.6.6 0 1.1-.1 1.6-.4.6-.3 1.1-.8 1.5-1.4.3-.6 1.1-2.1 2.1-4h0c2.3-4.2 5.7-10.1 7.9-11.4.5-.3.7.1.7.7-.3 2.2-.8 4.3-1.3 6.5h0l-.6 2.6c-.1.3 0 .4.1.4.8.1 1.6-.1 2.3-.6.7-.3 1.1-.9 1.3-1.6.1-.4.4-1.5.7-3h0c.7-3.2 1.8-8.1 1.8-9.7zm-23.1 9.7c-3.7 2.1-6.5 5.5-7.8 9.6-.9 3.3-2 6.8-2 8.4v.1c0 3.4 3.5 1.4 5 .5 2.8-1.6 5.4-3.1 7.4-7.7h0c.3-.6.5-1.2.7-1.9.5-1.5 2.1-6.6 2.1-8.5-.1-3.1-3-1.8-5.4-.5zm-2.6 5.8c.3-.5.7-1 1.3-1.2h0c1-.6 1-.4 1 .3 0 .9-.8 6.4-1.6 8-.3.5-.7.9-1.3 1.1-.6.4-1.1.7-1.1-.1.3-2.8.8-5.5 1.7-8.1zm-12.8 15.5v-.2c0-.8-1.7 0-2.9.6s-3 2-3 2c-.3.5-.6 1.1-1 1.5h0c-.5.7-1.1 1.2-1.9 1.6-.5.3-1.1.5-1.7.4h0c-1-.2-1.7-1.1-1.7-2.1 0-.2.2-.3.5-.4l5.3-2.9 1.8-1c3-1.5 4.9-4.7 4.7-8.1 0-2.1-.4-7.5-3.3-5.8-3.3 1.9-14.4 13.6-14.4 20.7-.1 1.2.5 2.3 1.4 3h0c1.8 1.3 5.1.9 8.6-1.1 3.4-2 7.4-6.6 7.6-8.2h0zm-10.6-1c.3-.6 3.7-6 5.6-7.1.6-.3.6.9.6 1.8h0c0 1.7-.1 2.1-1.6 3l-4.3 2.5c-.4.1-.6.2-.3-.2z"/></g><path d="M379.1 371.3L309 330.9m83.9 16.1l-69.7-40m81.1 38.2l-70.4-40.5m84.1 31.4l-70-39.8m84.2 32.4l-69.6-40" stroke-width=".54" stroke-dasharray="2.39" class="AR AS Ad"/><path d="M414.6 349.1h0zM387 365h0zm10.6-13.2c-1.2.6-2 1.7-2.3 2.9l-.5 2.1c0 .8.4 1 1.5.4s1.9-1.5 2.2-2.7c.2-.7.4-1.5.5-2.3h0c.1-.9-.6-.9-1.4-.4zm34.8-21.7c0-1.4-.5-2.8-2.9-1.5-2.7 1.5-5.7 6.8-7.4 7.7-1 .6-1-.7-1-1.1v-.9c-.6.1-1.2.3-1.7.7a4.44 4.44 0 0 0-1.1.8c-.2.1-.3.3-.4.5-1.1 3.6-2.6 9.6-3.2 12.6h0c-.1.6-.2 1-.3 1.3l-.2 1.1c-.1.4-.1.5.2.5.6 0 1.1-.1 1.6-.4.6-.3 1.1-.8 1.5-1.4.3-.6 1.1-2.1 2.1-3.9h0c2.3-4.2 5.7-10.1 7.9-11.4.5-.3.7.1.7.7-.3 2.2-.8 4.4-1.3 6.5h0c-.3 1.1-.5 2-.6 2.6-.1.3 0 .4.1.4.8.1 1.6-.1 2.3-.6.7-.3 1.1-.9 1.3-1.6.1-.4.4-1.5.7-3h0c.6-3.1 1.7-8 1.7-9.6zm-23.1 9.7c-3.7 2.1-6.5 5.5-7.8 9.6-.9 3.3-2.1 6.8-2.1 8.4v.1c0 3.4 3.5 1.4 5 .5 2.8-1.6 5.4-3.1 7.4-7.7h0c.3-.6.5-1.2.7-1.9.5-1.5 2.1-6.6 2.1-8.5 0-3.1-2.9-1.9-5.3-.5zm-2.6 5.8c.3-.5.7-1 1.3-1.3h0c1-.6 1-.4 1 .3 0 .9-.8 6.4-1.6 8-.3.5-.7.9-1.3 1.1-.6.4-1.1.7-1.1-.1.2-2.7.8-5.4 1.7-8zM393.9 361v-.2c0-.8-1.7 0-2.9.6s-3 2-3 2c-.3.5-.6 1.1-1 1.5h0c-.5.7-1.1 1.2-1.9 1.6-.5.3-1.1.5-1.7.4h0c-1-.2-1.7-1.1-1.7-2.1 0-.2.2-.3.5-.4l5.3-2.9 1.8-1c3-1.5 4.9-4.7 4.7-8.1 0-2.1-.4-7.5-3.3-5.8-3.3 1.9-14.4 13.6-14.4 20.7-.1 1.2.5 2.3 1.4 3h0c1.8 1.3 5.1.9 8.6-1.1 3.4-1.9 7.4-6.5 7.6-8.2h0zm-10.6-1c.3-.6 3.6-6 5.5-7.1.6-.3.6.9.6 1.9h0c0 1.7-.1 2.1-1.6 3l-4.3 2.5c-.3 0-.5.2-.2-.3h0z" class="Ac"/><ellipse transform="matrix(.5047 -.8633 .8633 .5047 -26.3156 240.8988)" cx="196.8" cy="143.4" rx="8.5" ry="4.9" class="AU"/><linearGradient id="d" gradientUnits="userSpaceOnUse" x1="202.85" y1="143.442" x2="193.3" y2="143.442"><stop offset=".1" stop-color="#e26558"/><stop offset=".24" stop-color="#de6255"/><stop offset=".38" stop-color="#d2594e"/><stop offset=".52" stop-color="#bf4941"/><stop offset=".66" stop-color="#a3342f"/><stop offset=".79" stop-color="#801918"/><stop offset=".84" stop-color="#710d0e"/></linearGradient><path d="M195.2 150.4c3.6-2.3 5.8-6.2 6.1-10.4 0-2.4-1-3.8-2.6-4.2 2.4-.5 4.2 1.1 4.2 4.2-.2 4.2-2.5 8.1-6.1 10.4-1 .7-2.3.9-3.5.7.7-.1 1.3-.4 1.9-.7z" fill="url(#d)"/><ellipse transform="matrix(.5047 -.8633 .8633 .5047 -96.939 200.1853)" cx="126" cy="184.6" rx="8.5" ry="4.9" class="AU"/><linearGradient id="e" gradientUnits="userSpaceOnUse" x1="132.03" y1="184.642" x2="122.49" y2="184.642"><stop offset=".1" stop-color="#e26558"/><stop offset=".24" stop-color="#de6255"/><stop offset=".38" stop-color="#d2594e"/><stop offset=".52" stop-color="#bf4941"/><stop offset=".66" stop-color="#a3342f"/><stop offset=".79" stop-color="#801918"/><stop offset=".84" stop-color="#710d0e"/></linearGradient><path d="M124.4 191.6c3.6-2.3 5.8-6.2 6.1-10.4 0-2.4-1-3.8-2.6-4.2 2.4-.5 4.2 1.1 4.2 4.2-.2 4.2-2.5 8.1-6 10.4-1 .7-2.3.9-3.5.7.6-.1 1.2-.4 1.8-.7z" fill="url(#e)"/><ellipse transform="matrix(.5047 -.8633 .8633 .5047 -164.3519 320.0877)" cx="196.8" cy="303.3" rx="8.5" ry="4.9" class="AU"/><linearGradient id="f" gradientUnits="userSpaceOnUse" x1="202.85" y1="303.292" x2="193.3" y2="303.292"><stop offset=".1" stop-color="#e26558"/><stop offset=".24" stop-color="#de6255"/><stop offset=".38" stop-color="#d2594e"/><stop offset=".52" stop-color="#bf4941"/><stop offset=".66" stop-color="#a3342f"/><stop offset=".79" stop-color="#801918"/><stop offset=".84" stop-color="#710d0e"/></linearGradient><path d="M195.2 310.3c3.6-2.3 5.8-6.2 6.1-10.5 0-2.4-1-3.8-2.6-4.2 2.4-.5 4.2 1.1 4.2 4.2-.2 4.2-2.5 8.1-6.1 10.5-1 .7-2.3.9-3.5.7.7-.1 1.3-.4 1.9-.7z" fill="url(#f)"/><ellipse transform="matrix(.5047 -.8633 .8633 .5047 -234.9753 279.3741)" cx="126" cy="344.5" rx="8.5" ry="4.9" class="AU"/><linearGradient id="g" gradientUnits="userSpaceOnUse" x1="132.03" y1="344.492" x2="122.49" y2="344.492"><stop offset=".1" stop-color="#e26558"/><stop offset=".24" stop-color="#de6255"/><stop offset=".38" stop-color="#d2594e"/><stop offset=".52" stop-color="#bf4941"/><stop offset=".66" stop-color="#a3342f"/><stop offset=".79" stop-color="#801918"/><stop offset=".84" stop-color="#710d0e"/></linearGradient><path d="M124.4 351.5c3.6-2.3 5.8-6.2 6.1-10.5 0-2.4-1-3.8-2.6-4.2 2.4-.5 4.2 1.1 4.2 4.2-.2 4.3-2.5 8.1-6 10.5-1 .7-2.3.9-3.5.7.6-.1 1.2-.4 1.8-.7z" fill="url(#g)"/><path d="M482.1 395.3h1.2v-7.9h-1.2v-2.2h5.4c.5 0 1.1.1 1.6.2.4.1.8.4 1.1.7s.5.6.7 1 .2.8.2 1.3v.2c0 .6-.2 1.2-.6 1.7-.4.4-.9.7-1.5.9v.3c.6.1 1.1.5 1.5.9.4.5.6 1.1.6 1.7v.2c0 .4-.1.9-.2 1.3-.2.4-.4.7-.7 1s-.7.5-1.1.7c-.5.2-1 .3-1.6.3h-5.4v-2.3zm3.4-5.1h1.7c.4 0 .8-.1 1.2-.3.3-.2.5-.6.5-1v-.1c0-.4-.1-.8-.5-1s-.8-.3-1.2-.3h-1.7v2.7zm0 5.1h1.7c.4 0 .8-.1 1.2-.3.3-.3.5-.6.5-1v-.1c0-.4-.1-.8-.5-1.1-.4-.2-.8-.3-1.2-.3h-1.7v2.8zm16.1 2.2h-2.3v-3.7c0-.2-.1-.5-.2-.7a1.08 1.08 0 0 0-.7-.3h-2.7v4.6h-2.3v-12.3h4.7c.6 0 1.1.1 1.7.3.4.2.9.4 1.2.7s.6.7.7 1.1a3.08 3.08 0 0 1 .3 1.3v.4c0 .5-.1 1-.4 1.4-.3.5-.7.8-1.3 1v.3c.8.1 1.4.7 1.3 1.5v4.4zm-6-6.8h2.2c.5 0 .9-.1 1.3-.4.3-.3.5-.7.4-1.1v-.2c0-.4-.2-.8-.4-1.1-.4-.3-.8-.5-1.3-.5h-2.2v3.3zm14.7 4.2h-4.2l-.6 2.6H503l3-12.3h4.4l2.9 12.3h-2.4l-.6-2.6zm-3.7-2.2h3.2l-1.4-6.3h-.4l-1.4 6.3zm14 3.7h.3v-11.1h2.3v12.3h-4.5l-1.5-11.2h-.2v11.2h-2.3v-12.3h4.5l1.4 11.1zm4.5-11.2h4.5c1.2-.1 2.4.3 3.4 1.1a4.43 4.43 0 0 1 1.1 3.3v3.6a4.43 4.43 0 0 1-1.1 3.3c-1 .8-2.2 1.2-3.4 1.1h-4.5v-2.2h1.2v-7.9h-1.2v-2.3zm4.5 10.1c.6.1 1.2-.1 1.7-.6.4-.5.5-1.2.5-1.8v-3.4c0-.6-.1-1.1-.5-1.6-.5-.4-1.1-.6-1.7-.5h-1v7.9h1zm6.9-10.1h7.8v2.2h-5.5v2.8h5.2v2.2h-5.2v2.9h5.7v2.2h-8v-12.3zm10.2 0h4.5c1.2-.1 2.4.3 3.4 1.1a4.43 4.43 0 0 1 1.1 3.3v3.6a4.43 4.43 0 0 1-1.1 3.3c-1 .8-2.2 1.2-3.4 1.1h-4.5v-2.2h1.2v-7.9h-1.2v-2.3zm4.4 10.1c.6.1 1.2-.1 1.7-.6.4-.5.5-1.2.5-1.8v-3.4c0-.6-.1-1.1-.5-1.6-.5-.4-1.1-.6-1.7-.5h-1v7.9h1z" fill="#999"/><path d="M284.2,154.2v-32c0-8.6,6-19,13.5-23.3l3.5-2.1c7.4-4.3,13.5-14.7,13.5-23.3V27.4" stroke-width=".77" class="AR AS Ad"/><linearGradient id="h" gradientUnits="userSpaceOnUse" x1="311.486" y1="30.261" x2="321.212" y2="30.228"><stop offset="0" stop-color="#e26558"/><stop offset="1" stop-color="#e0341b"/></linearGradient><path d="M311.3 23.4c1.9-1.1 4.9.6 6.8 3.9s1.9 6.8 0 7.9-4.9-.6-6.8-3.9-1.9-6.8 0-7.9z" fill="url(#h)"/><path d="M35.3,217.2v72.2c0,10.9,5.8,21,15.3,26.5l28,16.2" stroke-width=".44" stroke-dasharray="1.92" class="AR AS Ad"/><linearGradient id="i" gradientUnits="userSpaceOnUse" x1="23.586" y1="225.573" x2="18.083" y2="225.554"><stop offset="0" stop-color="#e26558"/><stop offset="1" stop-color="#e0341b"/></linearGradient><path d="M33.4 216.1c1.1-1.8 2.8-2.8 3.9-2.2s1.1 2.6 0 4.5c-1.1 1.8-2.8 2.8-3.9 2.2-1.1-.7-1.1-2.7 0-4.5z" fill="url(#i)"/><path d="M419.6 156.7l1.2-.7v4.1l-1.2.7v.6l2.9-1.7v-.6l-1.2.7v-4.1l1.2-.7v-.6l-2.9 1.7v.6zm4.5.2c0-.4.1-.8.3-1.1s.4-.6.7-.8c.3-.1.5-.2.6-.1.2.2.3.5.2.7v2.1l.5-.3v-2.2c0-.5-.1-.9-.3-1s-.5-.1-.9.1c-.5.3-.8.8-1 1.3h-.1v-.6l-.5.3v3.7l.5-.3v-1.8zm3.4-3.2l1-.6v2.6c0 .2 0 .3.1.3h.4l1.1-.6v-.5l-.9.5c-.1.1-.2 0-.2-.1v-2.4l1.3-.7v-.5l-1.3.7v-1.5l-.5.3v1.5l-1 .6v.4zm7.1-2.6v-.5c0-.2 0-.3-.1-.5s-.1-.3-.3-.4c-.1-.1-.3-.1-.5-.1s-.5.1-.7.2-.4.3-.6.5-.4.4-.5.7c-.1.2-.3.5-.3.8-.1.3-.1.5-.1.8v.2c0 .2 0 .5.1.7a1.38 1.38 0 0 0 .3.4c.1.1.3.1.5.1s.4-.1.6-.2c.4-.2.7-.5 1-.9.2-.3.4-.7.5-1.1l-.5.1c0 .1-.1.2-.1.4-.1.3-.3.5-.5.7-.1.1-.3.2-.4.3-.3.2-.6.2-.8.1-.2-.2-.3-.4-.3-.7l2.7-1.6zm-1.2-.9h.3c.1 0 .2.1.2.2.1.1.1.2.1.4l-2 1.2c0-.2 0-.3.1-.5s.1-.3.2-.5c.1-.1.2-.3.3-.4s.2-.2.4-.3c.2 0 .3-.1.4-.1h0zm2-1.1l.7-.4v2.6l-.8.4v.5l2.1-1.2v-.5l-.8.5v-2.1c0-.2.1-.3.1-.4.1-.1.1-.3.3-.4.1-.1.2-.2.4-.3.1-.1.3-.1.5-.1.1.1.2.3.2.6l.5-.4c0-.5-.1-.8-.3-.9-.3-.1-.6-.1-.8.1-.2.1-.4.3-.5.4-.2.2-.3.4-.4.7h-.1v-.5l-1.2.7.1.7zm4.7-1.5c0-.4.1-.8.3-1.1s.4-.6.7-.8c.3-.1.5-.2.6-.1s.2.4.2.7v2.1l.5-.3V146c0-.5-.1-.9-.3-1s-.5-.1-.9.1c-.5.3-.8.8-1 1.3h-.1v-.6l-.5.3v3.7l.5-.3v-1.9zm6.5-3.4v-.5c0-.2 0-.3-.1-.5 0-.2-.1-.3-.3-.4-.1-.1-.3-.1-.5-.1s-.5.1-.7.2-.4.3-.6.5-.4.4-.5.7c-.1.2-.3.5-.3.8-.1.3-.1.5-.1.8v.2c0 .2 0 .5.1.7a1.38 1.38 0 0 0 .3.4c.1.1.3.1.5.1s.4-.1.6-.2c.4-.2.7-.5 1-.9.2-.3.4-.7.5-1.1l-.5.1c0 .1-.1.3-.1.4-.1.1-.1.2-.2.4l-.3.3c-.1.1-.3.2-.4.3-.3.2-.6.2-.8.1-.2-.2-.3-.4-.3-.7l2.7-1.6zm-1.2-.9h.3c.1 0 .2.1.2.2.1.1.1.2.1.4l-2.1 1.2c0-.2.1-.3.1-.5.1-.2.1-.3.2-.5.1-.1.2-.3.3-.4s.3-.2.4-.3c.3 0 .4-.1.5-.1zm2.1-1.2l1-.6v2.6c0 .1 0 .3.1.3.1.1.2 0 .4 0l1.1-.6v-.5l-.9.5c-.1.1-.2 0-.2-.1v-2.4l1.3-.7v-.6l-1.3.7v-1.5l-.5.3v1.5l-1 .6v.5zm-24.8 23.8c0-.3 0-.5-.1-.7a.78.78 0 0 0-.4-.4c-.2-.1-.3-.1-.5-.1s-.4.1-.6.2-.4.3-.6.5-.4.4-.5.7c-.2.3-.3.5-.4.8s-.1.6-.1.9v.1c0 .3 0 .5.1.7a.78.78 0 0 0 .4.4.9.9 0 0 0 .5.1c.2 0 .4-.1.6-.2s.4-.3.6-.5.4-.4.5-.7c.2-.3.3-.5.4-.8 0-.3.1-.6.1-1h0zm-2.1 2.6c-.1 0-.2 0-.4-.1-.1-.1-.2-.2-.2-.3-.1-.2-.1-.3-.1-.5v-.1c0-.2 0-.4.1-.6s.1-.4.2-.6.2-.3.4-.5l.4-.4c.1-.1.3-.1.4-.1s.2 0 .4.1c.1.1.2.2.2.3a.9.9 0 0 1 .1.5v.1c0 .4-.1.8-.3 1.2-.1.2-.2.3-.4.5-.1.1-.3.3-.4.3-.1.1-.2.1-.4.2zm3-4.4l1-.6v3.2l.5-.3v-3.2l1.3-.8v-.5l-1.3.8v-.7c0-.1.1-.3.2-.3l1.1-.6v-.5l-1.3.7c-.3.2-.5.5-.5.9v.9l-1 .6v.4zm7.9-4.5l1-.6v2.6c0 .1 0 .3.1.3.1.1.3.1.4 0l1.1-.6v-.5l-.9.5c-.1.1-.2 0-.2-.1v-2.4l1.3-.7v-.5l-1.3.7v-1.5l-.5.3v1.5l-1 .6v.4zm4.6-1.5c0-.4.1-.8.3-1.1s.4-.6.7-.8c.3-.1.5-.2.6-.1s.2.4.2.7v2.1l.5-.3v-2.2c0-.5-.1-.9-.3-1-.3-.1-.6-.1-.9.1-.3.1-.5.4-.7.6s-.3.5-.4.8l-.1.1v-2.2l-.5.3v5.2l.5-.3.1-1.9zm3.6-.1l2.7-1.6v-.5l-1.1.6v-3.2l-1.5.9v.5l1-.6v2.6l-1.1.6v.7zm1-5.1c.1.1.2.1.3 0l.3-.3c.1-.1.1-.3.1-.4s0-.2-.1-.3-.2-.1-.3 0l-.3.3c-.1.1-.1.3-.1.4 0 .2 0 .3.1.3h0zm3.4.6c0-.4.1-.8.3-1.1s.4-.6.7-.8c.3-.1.5-.2.6-.1s.2.4.2.7v2.1l.5-.3v-2.2c0-.5-.1-.9-.3-1s-.5-.1-.9.1c-.5.3-.8.8-1 1.3h-.1v-.6l-.5.3v3.7l.5-.3v-1.8zm5.9-.7c0 .1-.1.3-.2.3l-1.9 1.1v.5l2.1-1.2a.78.78 0 0 0 .4-.4c.1-.2.1-.3.1-.5V148l-.5.3v.6h-.1c-.1-.2-.2-.3-.4-.3s-.4.1-.6.2-.4.3-.6.5-.4.4-.5.7c-.1.2-.3.5-.3.8-.1.3-.1.6-.1.9v.1c0 .3 0 .5.1.7.1.3.5.5.9.5.2 0 .4-.1.6-.2s.4-.3.6-.5.3-.5.4-.8h.1l-.1 1.3zm-1.5-.4c-.1 0-.2 0-.3-.1s-.1-.2-.1-.3c-.1-.2-.1-.3-.1-.5v-.1c0-.2 0-.4.1-.6s.1-.4.2-.6.2-.3.3-.5l.4-.4c.1-.1.3-.1.4-.1s.2 0 .4.1c.1.1.2.2.2.3a.9.9 0 0 1 .1.5v.1c0 .2 0 .4-.1.6s-.1.4-.2.6-.2.3-.4.5c-.1.1-.3.3-.4.3-.1.1-.3.1-.5.2h0zm3.8-4.7c0-.1.1-.2.2-.3s.1-.2.2-.2c.1-.1.2-.1.3-.2.2-.1.4-.2.6-.1.1 0 .2.2.3.4l.5-.4c0-.1 0-.2-.1-.4-.1-.1-.1-.2-.3-.2h-.4c-.2 0-.4.1-.6.2s-.3.2-.4.3l-.4.4c-.1.1-.2.3-.3.5s-.1.3-.1.5h0c0 .3.1.5.3.6.3 0 .6 0 .9-.2.2-.1.5-.2.7-.2.1 0 .2.1.2.3s-.1.4-.2.6c-.2.2-.4.4-.6.5-.2.2-.4.2-.7.1a.55.55 0 0 1-.3-.5l-.5.4c0 .1 0 .3.1.4l.3.3h.5c.2 0 .4-.1.6-.3.2-.1.4-.2.5-.4.2-.1.3-.3.4-.5s.2-.3.3-.5.1-.4.1-.5h0c0-.3-.1-.5-.3-.6-.3 0-.6 0-.9.2-.2.1-.5.2-.7.2-.1 0-.2-.1-.2-.3-.1.1 0 0 0-.1z" class="Ac"/><path d="M482.7 402.4h7.8v2.2H485v2.8h5.3v2.2H485v2.9h5.7v2.2h-8v-12.3zm16.5 11.2h.3v-11.2h2.3v12.4h-4.6l-1.5-11.2h-.3v11.2h-2.3v-12.4h4.6l1.5 11.2zm9.1-.7c.4 0 .8-.1 1.1-.2s.5-.3.7-.5.3-.5.3-.8c.1-.3.1-.6.1-.9v-.3h2.3v.3c0 1.5-.4 2.6-1.2 3.4s-1.9 1.2-3.4 1.2c-1.4 0-2.5-.4-3.4-1.3-.8-.9-1.2-2.1-1.2-3.8v-2.8c0-.8.1-1.5.3-2.1s.5-1.2.9-1.6.9-.8 1.5-1 1.2-.3 1.9-.3 1.4.1 1.9.3c.6.2 1 .5 1.4.9s.7.9.9 1.5.3 1.2.3 1.9v.3h-2.3v-.3c0-.3 0-.6-.1-.9s-.2-.6-.4-.8-.4-.4-.7-.6-.6-.2-1.1-.2c-.4 0-.7.1-1 .2s-.5.3-.7.6a2.47 2.47 0 0 0-.4.9c-.1.4-.1.7-.1 1.1v3.1c0 .4 0 .8.1 1.1s.2.6.4.9c.2.2.4.4.7.6.5.1.8.1 1.2.1zm6.9-10.5h2.3v10.2h5.6v2.2h-8v-12.4zm10.2 4.8c0-1.6.4-2.8 1.2-3.7s1.9-1.3 3.4-1.3c1.4 0 2.5.4 3.4 1.3.8.9 1.2 2.1 1.2 3.7v2.8c0 1.7-.4 2.9-1.2 3.8s-1.9 1.3-3.4 1.3c-1.4 0-2.5-.4-3.4-1.3-.8-.9-1.2-2.1-1.2-3.8v-2.8zm4.6 5.7c.4 0 .8-.1 1.1-.2s.5-.3.7-.6c.2-.2.3-.5.4-.9.1-.3.1-.7.1-1.1v-3c0-.4 0-.8-.1-1.1s-.2-.6-.4-.9c-.2-.2-.4-.4-.7-.6s-.6-.2-1-.2-.7.1-1 .2-.5.3-.7.6c-.2.2-.3.5-.4.9-.1.3-.1.7-.1 1.1v3c0 .4 0 .8.1 1.1s.2.6.4.9c.2.2.4.4.7.6s.4.2.9.2zm12.9-6.7c0-.5-.2-.9-.6-1.3s-.9-.5-1.6-.5c-.6 0-1.1.1-1.4.4-.3.2-.5.6-.5 1 0 .2 0 .4.1.6s.2.3.4.5c.2.1.5.3.8.4s.8.2 1.3.3c1.3.2 2.3.6 3 1.2s1 1.4 1 2.5v.2c0 .6-.1 1.1-.3 1.6a2.73 2.73 0 0 1-.9 1.2c-.4.3-.9.6-1.4.8s-1.2.3-1.9.3c-.8 0-1.5-.1-2.2-.3-.6-.2-1.1-.5-1.5-1s-.7-.9-.9-1.4-.3-1.1-.3-1.8v-.9h2.3v.4c0 .7.2 1.3.6 1.8s1.1.7 2 .7c.7 0 1.2-.2 1.6-.5.3-.3.5-.7.5-1.1 0-.2 0-.4-.1-.6s-.2-.3-.4-.5c-.2-.1-.4-.3-.7-.4s-.7-.2-1.2-.3c-.6-.1-1.2-.2-1.7-.4s-1-.4-1.4-.7-.7-.6-.9-1.1c-.2-.4-.3-.9-.3-1.6v-.1c0-.5.1-1 .3-1.4s.5-.8.9-1.1.8-.6 1.3-.7c.5-.2 1.1-.3 1.8-.3s1.4.1 1.9.3c.6.2 1 .5 1.4.8.4.4.7.8.9 1.2.2.5.3.9.3 1.5v.6h-2.3v-.3zm13.2-3.8v8.1c0 1.4-.4 2.5-1.1 3.3-.8.8-1.9 1.2-3.3 1.2-1.5 0-2.6-.4-3.3-1.2s-1.1-1.9-1.1-3.3v-8.1h2.3v8.1c0 .7.2 1.3.5 1.7s.9.6 1.6.6 1.3-.2 1.6-.6.5-1 .5-1.7v-8.1h2.3zm10.6 12.4h-2.3v-3.7c0-.3-.1-.5-.2-.7s-.4-.3-.7-.3h-2.7v4.7h-2.3v-12.4h4.7c.6 0 1.2.1 1.7.3s.9.4 1.2.7.6.7.7 1.1a3.08 3.08 0 0 1 .3 1.3v.4c0 .5-.1 1-.4 1.4s-.7.8-1.3 1v.3c.4 0 .7.2 1 .5s.4.6.4 1v4.4zm-6-6.9h2.2c.6 0 1-.1 1.3-.4s.4-.6.4-1.1v-.2c0-.4-.1-.8-.4-1.1s-.7-.5-1.3-.5h-2.2v3.3zm8.6-5.5h7.8v2.2h-5.5v2.8h5.3v2.2h-5.3v2.9h5.7v2.2h-8v-12.3z" fill="#999"/><defs ><path id="k" d="M311 207.2l-1.6 1v11l1.6-1v-3.7l-1.6.9v-3.5l1.6-.9v-3.8"/><path id="l" d="M365 151.3c-.3 0-.5.1-.7.2h0c-.5.3-1 .8-1.3 1.4-.3.5-.5 1.2-.5 1.8 0 .3.1.6.2.8s.3.2.5.2c.3 0 .5-.1.7-.2h0c1.1-.7 1.8-1.9 1.9-3.2 0-.3-.1-.6-.2-.8-.2-.1-.4-.2-.6-.2"/><path id="m" d="M117.4 200.3l-22.7-13.1v2.3l22.7 13.1z"/><path id="n" d="M117.3 200.3l2-1.1-22.6-13.1-2 1.1z"/><path id="o" d="M353.1 370.2c2-1.2 3.7.1 3.7 2.8h0c-.1 2.6-1.3 5.1-3.3 6.8h-17.1l16.7-9.6z"/><path id="p" d="M297.4 402.4l39-22.5h17.1c-.1.1-.3.2-.4.3l-55.7 32.2c-2 1.2-3.7-.1-3.7-2.8h0c-.1-2.9 1.6-6 3.7-7.2z"/></defs></svg>