<svg xmlns="http://www.w3.org/2000/svg" xmlns:xlink="http://www.w3.org/1999/xlink" viewBox="0 0 533.15 537.46"><defs><style>.cls-1,.cls-12,.cls-13,.cls-28,.cls-3,.cls-31,.cls-32,.cls-33,.cls-34,.cls-36,.cls-38,.cls-6,.cls-68{fill:none;}.cls-2{isolation:isolate;}.cls-12,.cls-13,.cls-3,.cls-38,.cls-6,.cls-68{stroke:#e2887f;}.cls-12,.cls-13,.cls-28,.cls-3,.cls-31,.cls-32,.cls-33,.cls-34,.cls-36,.cls-38,.cls-6,.cls-68{stroke-miterlimit:10;}.cls-3,.cls-38{stroke-width:0.83px;}.cls-3{stroke-dasharray:3.65;}.cls-4,.cls-40{opacity:0.1;}.cls-4{fill:url(#linear-gradient);}.cls-5,.cls-9{opacity:0.5;}.cls-6{stroke-width:0.38px;}.cls-7{clip-path:url(#clip-path);}.cls-40,.cls-8{mix-blend-mode:multiply;}.cls-9{mix-blend-mode:screen;}.cls-10,.cls-52,.cls-76,.cls-78,.cls-81{fill-opacity:0.06;}.cls-10,.cls-11,.cls-52,.cls-53,.cls-54,.cls-75,.cls-76,.cls-77,.cls-78,.cls-79,.cls-80,.cls-81{fill-rule:evenodd;}.cls-10{fill:url(#linear-gradient-2);}.cls-11,.cls-53,.cls-75,.cls-80{fill-opacity:0.09;}.cls-11,.cls-19{opacity:0.5;}.cls-11{fill:url(#linear-gradient-3);}.cls-12,.cls-28{stroke-width:0.75px;}.cls-13,.cls-68{stroke-width:0.77px;}.cls-13{stroke-dasharray:3.38;}.cls-14{fill:url(#linear-gradient-4);}.cls-15{fill:url(#linear-gradient-5);}.cls-16{fill:#e0341b;}.cls-17{fill:#252532;}.cls-18{fill:#e26558;}.cls-19,.cls-20,.cls-21,.cls-24,.cls-35{fill:#fff;}.cls-20,.cls-29{opacity:0.8;}.cls-21{opacity:0.6;}.cls-22{fill:url(#linear-gradient-6);}.cls-23{fill:url(#linear-gradient-7);}.cls-25{fill:#e6e6e6;}.cls-26{fill:#ccc;}.cls-27{fill:url(#linear-gradient-8);}.cls-28{stroke:#e26558;}.cls-30{fill:url(#linear-gradient-9);}.cls-31{stroke:url(#linear-gradient-10);}.cls-32{stroke:url(#linear-gradient-11);}.cls-33{stroke:url(#linear-gradient-12);}.cls-34{stroke:url(#linear-gradient-13);}.cls-35{opacity:0.2;}.cls-36{stroke:#fff;stroke-width:0.81px;}.cls-37{fill:url(#linear-gradient-14);}.cls-39,.cls-42{font-size:6.77px;}.cls-39{fill:#b3b3b3;}.cls-39,.cls-42,.cls-50{font-family:SpaceMono-Regular, SpaceMono Regular;}.cls-41{fill:url(#linear-gradient-15);}.cls-42,.cls-50{fill:#999;}.cls-43{letter-spacing:0.01em;}.cls-44{letter-spacing:0em;}.cls-45{letter-spacing:0em;}.cls-46{fill:url(#linear-gradient-16);}.cls-47{fill:url(#linear-gradient-17);}.cls-48{fill:url(#linear-gradient-18);}.cls-49{fill:url(#linear-gradient-19);}.cls-50{font-size:6.77px;}.cls-51{fill:url(#linear-gradient-20);}.cls-52{fill:url(#linear-gradient-21);}.cls-53{fill:url(#linear-gradient-22);}.cls-54{fill:#f2f2f2;}.cls-55{fill:url(#linear-gradient-23);}.cls-56{fill:url(#linear-gradient-24);}.cls-57{fill:url(#linear-gradient-25);}.cls-58{fill:url(#linear-gradient-26);}.cls-59{fill:url(#linear-gradient-27);}.cls-60{fill:url(#linear-gradient-28);}.cls-61{fill:url(#linear-gradient-29);}.cls-62{fill:url(#linear-gradient-30);}.cls-63{fill:url(#linear-gradient-31);}.cls-64{fill:#e40427;}.cls-65{fill:url(#linear-gradient-32);}.cls-66{fill:url(#linear-gradient-33);}.cls-67{fill:url(#linear-gradient-34);}.cls-69{fill:url(#linear-gradient-35);}.cls-70{fill:url(#linear-gradient-36);}.cls-71{fill:url(#linear-gradient-37);}.cls-72{fill:url(#linear-gradient-38);}.cls-73{fill:url(#linear-gradient-39);}.cls-74{fill:url(#linear-gradient-40);}.cls-75{fill:url(#linear-gradient-41);}.cls-76{fill:url(#linear-gradient-42);}.cls-77{fill:url(#linear-gradient-43);}.cls-78{fill:url(#linear-gradient-44);}.cls-79{fill:url(#linear-gradient-45);}.cls-80{fill:url(#linear-gradient-46);}.cls-81{fill:url(#linear-gradient-47);}</style><linearGradient id="linear-gradient" x1="315.63" x2="446.31" y1="314.7" y2="88.35" gradientUnits="userSpaceOnUse"><stop offset="0" stop-color="#a7231c"/><stop offset=".13" stop-color="#b03933"/><stop offset=".4" stop-color="#c6726d"/><stop offset=".79" stop-color="#eaccca"/><stop offset="1" stop-color="#fff"/></linearGradient><clipPath id="clip-path"><path d="M307.78 309.62L408 251.8c11-6.42 20-21.92 20-34.65V95.8l-6.18-21.57-32.12 40.32v81c0 12.72-9 28.23-20.08 34.64l-100.16 57.85z" class="cls-1"/></clipPath><linearGradient id="linear-gradient-2" x1="490.57" x2="490.6" y1="379.38" y2="378.66" gradientTransform="matrix(152 0 0 -167 -74512.06 63561.39)" gradientUnits="userSpaceOnUse"><stop offset=".04" stop-color="#1a1a1a"/><stop offset=".97" stop-color="#999" stop-opacity="0"/></linearGradient><linearGradient id="linear-gradient-3" x1="486.02" x2="486.48" y1="379.09" y2="378.65" gradientTransform="matrix(72 0 0 -156 -34955.47 59340.57)" gradientUnits="userSpaceOnUse"><stop offset="0" stop-color="#333"/><stop offset=".14" stop-color="#454545" stop-opacity=".82"/><stop offset=".66" stop-color="#828282" stop-opacity=".23"/><stop offset=".95" stop-color="#999" stop-opacity="0"/></linearGradient><linearGradient id="linear-gradient-4" x1="201.05" x2="360.9" y1="164.46" y2="164.46" gradientUnits="userSpaceOnUse"><stop offset="0" stop-color="#e26558"/><stop offset="1" stop-color="#e0341b"/></linearGradient><linearGradient id="linear-gradient-5" x1="316.04" x2="316.04" y1="366.82" y2="162.92" gradientUnits="userSpaceOnUse"><stop offset="0" stop-color="#a8190a"/><stop offset="1" stop-color="#e0341b"/></linearGradient><linearGradient id="linear-gradient-6" x1="234.55" x2="244.14" y1="343.31" y2="343.31" gradientUnits="userSpaceOnUse"><stop offset="0" stop-color="#fff"/><stop offset="1" stop-color="#d4d4d4"/></linearGradient><linearGradient id="linear-gradient-7" x1="151.19" x2="244.14" y1="235.94" y2="235.94" gradientUnits="userSpaceOnUse"><stop offset=".16" stop-color="#ef928b"/><stop offset=".49" stop-color="#e68b83"/><stop offset=".9" stop-color="#e2887f"/></linearGradient><linearGradient id="linear-gradient-8" x1="-109.44" x2="-.5" y1="1146.22" y2="1165.43" gradientTransform="matrix(.87 .5 0 1.15 242.76 -1071.09)" xlink:href="#linear-gradient-5"/><linearGradient id="linear-gradient-9" x1="-56.28" x2="-54.36" y1="1176.18" y2="1148.68" gradientTransform="matrix(.87 .5 0 1.15 242.76 -1071.09)" gradientUnits="userSpaceOnUse"><stop offset="0" stop-color="#e26558"/><stop offset=".18" stop-color="#e47165" stop-opacity=".98"/><stop offset=".43" stop-color="#ea9289" stop-opacity=".91"/><stop offset=".74" stop-color="#f5c7c3" stop-opacity=".81"/><stop offset="1" stop-color="#fff" stop-opacity=".7"/></linearGradient><linearGradient id="linear-gradient-10" x1="154.01" x2="167.72" y1="340.93" y2="340.93" gradientTransform="translate(194.05 -34.58) rotate(30.31)" xlink:href="#linear-gradient-6"/><linearGradient id="linear-gradient-11" x1="176.25" x2="189.96" y1="353.77" y2="353.77" gradientTransform="translate(203.57 -44.05) rotate(30.31)" xlink:href="#linear-gradient-6"/><linearGradient id="linear-gradient-12" x1="198.49" x2="212.2" y1="366.61" y2="366.61" gradientTransform="translate(213.09 -53.52) rotate(30.31)" xlink:href="#linear-gradient-6"/><linearGradient id="linear-gradient-13" x1="220.72" x2="234.44" y1="379.45" y2="379.45" gradientTransform="translate(222.61 -62.99) rotate(30.31)" xlink:href="#linear-gradient-6"/><linearGradient id="linear-gradient-14" x1="-22.29" x2="-20.37" y1="1033.81" y2="1006.31" gradientTransform="matrix(.87 .5 0 1.15 213.34 -923.69)" gradientUnits="userSpaceOnUse"><stop offset="0" stop-color="#fff"/><stop offset=".2" stop-color="#fff" stop-opacity=".97"/><stop offset=".49" stop-color="#fff" stop-opacity=".9"/><stop offset=".83" stop-color="#fff" stop-opacity=".77"/><stop offset="1" stop-color="#fff" stop-opacity=".7"/></linearGradient><linearGradient id="linear-gradient-15" x1="134.14" x2="216.18" y1="297.97" y2="297.97" xlink:href="#linear-gradient-7"/><linearGradient id="linear-gradient-16" x1="385.32" x2="394.09" y1="154.58" y2="154.58" xlink:href="#linear-gradient-5"/><linearGradient id="linear-gradient-17" x1="208.8" x2="217.57" y1="86.84" y2="86.84" xlink:href="#linear-gradient-7"/><linearGradient id="linear-gradient-18" x1="389.57" x2="398.34" y1="259.82" y2="259.82" xlink:href="#linear-gradient-5"/><linearGradient id="linear-gradient-19" x2="109.95" y1="172.16" y2="172.16" xlink:href="#linear-gradient-7"/><linearGradient id="linear-gradient-20" x1="864.88" x2="881.32" y1="-1062.63" y2="-1062.63" gradientTransform="matrix(.87 .5 0 1.15 -278.58 933.59)" xlink:href="#linear-gradient-4"/><linearGradient id="linear-gradient-21" x1="557.38" x2="557.39" y1="378.19" y2="377.71" gradientTransform="matrix(-152 0 0 -167 85194.23 63561.39)" xlink:href="#linear-gradient-2"/><linearGradient id="linear-gradient-22" x1="627.5" x2="627.88" y1="377.87" y2="377.52" gradientTransform="matrix(-72 0 0 -156 45637.64 59340.57)" xlink:href="#linear-gradient-3"/><linearGradient id="linear-gradient-23" x1="464.3" x2="508.2" y1="351.73" y2="359.47" xlink:href="#linear-gradient-6"/><linearGradient id="linear-gradient-24" x1="460.73" x2="511.77" y1="330.22" y2="339.22" xlink:href="#linear-gradient-6"/><linearGradient id="linear-gradient-25" x1="426.06" x2="479.22" y1="304.1" y2="334.79" gradientUnits="userSpaceOnUse"><stop offset=".03" stop-color="#808080"/><stop offset=".21" stop-color="#a1a1a1"/><stop offset=".42" stop-color="#bfbfbf"/><stop offset=".62" stop-color="#d5d5d5"/><stop offset=".82" stop-color="#e2e2e2"/><stop offset="1" stop-color="#e6e6e6"/></linearGradient><linearGradient id="linear-gradient-26" x1="451.19" x2="514.43" y1="318.61" y2="355.12" xlink:href="#linear-gradient-25"/><linearGradient id="linear-gradient-27" x1="457.49" x2="452.32" y1="358.89" y2="349.15" gradientUnits="userSpaceOnUse"><stop offset="0" stop-color="#0045f4" stop-opacity="0"/><stop offset="1" stop-color="#6dfafa"/></linearGradient><linearGradient id="linear-gradient-28" x1="440.02" x2="471.95" y1="328.58" y2="334.21" xlink:href="#linear-gradient-6"/><linearGradient id="linear-gradient-29" x1="399.38" x2="462.62" y1="310.51" y2="347.02" xlink:href="#linear-gradient-25"/><linearGradient id="linear-gradient-30" x1="492.84" x2="492.84" y1="382.15" y2="366.74" xlink:href="#linear-gradient-27"/><linearGradient id="linear-gradient-31" x1="476.32" x2="508.24" y1="351.33" y2="356.96" xlink:href="#linear-gradient-5"/><linearGradient id="linear-gradient-32" x1="440.16" x2="493.23" y1="334.09" y2="364.73" gradientUnits="userSpaceOnUse"><stop offset="0" stop-color="#a8190a"/><stop offset=".44" stop-color="#a8190a"/><stop offset="1" stop-color="#a8190a"/></linearGradient><linearGradient id="linear-gradient-33" x1="434.39" x2="456.77" y1="343.07" y2="355.99" xlink:href="#linear-gradient-25"/><linearGradient id="linear-gradient-34" x1="438.86" x2="485.18" y1="360.54" y2="368.7" xlink:href="#linear-gradient-6"/><linearGradient id="linear-gradient-35" x1="497.16" x2="502.91" y1="318.27" y2="318.27" gradientTransform="translate(815.6 -183.48) rotate(89.69)" xlink:href="#linear-gradient-5"/><linearGradient id="linear-gradient-36" x1="474.67" x2="480.43" y1="306.33" y2="306.33" gradientTransform="translate(781.29 -172.87) rotate(89.69)" xlink:href="#linear-gradient-5"/><linearGradient id="linear-gradient-37" x1="452.55" x2="458.31" y1="311.07" y2="311.07" gradientTransform="translate(764.03 -146.04) rotate(89.69)" xlink:href="#linear-gradient-5"/><linearGradient id="linear-gradient-38" x1="475.74" x2="500.13" y1="8.34" y2="75.35" gradientUnits="userSpaceOnUse"><stop offset="0" stop-color="#fff"/><stop offset=".32" stop-color="#efefef"/><stop offset=".96" stop-color="#c6c6c6"/><stop offset="1" stop-color="#c3c3c3"/></linearGradient><linearGradient id="linear-gradient-39" x1="415.44" x2="453.79" y1="3.63" y2="109.01" xlink:href="#linear-gradient-38"/><linearGradient id="linear-gradient-40" x1="375.71" x2="396.54" y1="61.91" y2="119.16" xlink:href="#linear-gradient-38"/><linearGradient id="linear-gradient-41" x1="460.74" x2="460.75" y1="386.91" y2="386.82" gradientTransform="matrix(-76 131.64 144.63 83.5 -20852.53 -92794.19)" xlink:href="#linear-gradient-3"/><linearGradient id="linear-gradient-42" x1="423.36" x2="423.46" y1="387.14" y2="387.04" gradientTransform="matrix(-36 62.35 135.1 78 -36975.49 -56426.77)" xlink:href="#linear-gradient-2"/><linearGradient id="linear-gradient-43" x1="460.91" x2="460.91" y1="386.97" y2="386.79" gradientTransform="matrix(-76 131.64 144.63 83.5 -20852.53 -92794.19)" gradientUnits="userSpaceOnUse"><stop offset="0" stop-color="#f2f2f2"/><stop offset=".09" stop-color="#f4f4f4"/><stop offset=".95" stop-color="#fff"/></linearGradient><linearGradient id="linear-gradient-44" x1="423.67" x2="423.84" y1="387.17" y2="387.02" gradientTransform="matrix(-36 62.35 135.1 78 -36975.49 -56426.77)" xlink:href="#linear-gradient-2"/><linearGradient id="linear-gradient-45" x1="88.11" x2="106.19" y1="196.8" y2="196.8" xlink:href="#linear-gradient-5"/><linearGradient id="linear-gradient-46" x1="461.06" x2="461.06" y1="386.74" y2="386.65" gradientTransform="matrix(-76 131.64 144.63 83.5 -20852.53 -92794.19)" xlink:href="#linear-gradient-3"/><linearGradient id="linear-gradient-47" x1="424.01" x2="424.12" y1="386.96" y2="386.86" gradientTransform="matrix(-36 62.35 135.1 78 -36975.49 -56426.77)" xlink:href="#linear-gradient-2"/></defs><title>image6</title><g class="cls-2"><g id="Vrstva_2"><g id="ramecek"><path d="M477.55 245.38V67.14M455.43 274.58V96.34M499.44 273.74V57.48" class="cls-3"/><path d="M307.78 309.62L408 251.8c11-6.42 20-21.92 20-34.65V95.8l-6.18-21.57-32.12 40.32v81c0 12.72-9 28.23-20.08 34.64l-100.16 57.85z" class="cls-4"/><g class="cls-5"><path d="M396.08 77.73v121.35c0 12.72-9 28.23-20.1 34.63l-100.15 57.84M402.45 81.23v121.35c0 12.72-9 28.23-20.08 34.63L282.2 295M408.82 84.73v121.34c0 12.73-9 28.24-20.08 34.64l-100.17 57.84M415.2 88.23v121.34c0 12.73-9 28.24-20.1 34.64L295 302M421.56 91.73v121.34c0 12.73-9 28.24-20.08 34.64l-100.16 57.84" class="cls-6"/></g><path d="M0 176.2L112 141v189.6H0z" class="cls-10"/><path d="M3.55 211L112 160.64v98.95L3.55 325.93z" class="cls-11"/><path d="M308.13 309.36l100.16-57.83c11.08-6.4 20.07-21.9 20.07-34.63V95.55M389.7 74.23v121.35c0 12.72-9 28.23-20.08 34.64l-100.16 57.83" class="cls-12"/><path d="M151.85 184.6l43.9-26.9" class="cls-13"/><path d="M352.38 153.5l-68.7-39.64c-4-2.32-7.74-.88-10 .08a9 9 0 0 0-1.6.92l-71 41.44 60.17 33.34 7.2 4.27v22.4l92.48-53.38a23.53 23.53 0 0 0-8.55-9.4z" class="cls-14"/><path d="M268.43 216.3v52.3c0 7.15 5 15.84 11.26 19.43L290 294l.64 72.82 68.18-38.58a10.23 10.23 0 0 0 4.8-9.06V172.94a22.3 22.3 0 0 0-2.75-10z" class="cls-15"/><path d="M237.98 398.4l47.52-25.62" class="cls-13"/><path d="M277.15 192.43l-65.48-36.78c-4.4-2.54-7.27-2.34-11.1-.74s-6.93 4.36-6.93 10.35V311.5c0 8.88 6.3 19.74 14 24.2l65.48 36.78c4.4 2.55 7.6 2.82 11.28.9s6.76-4.5 6.76-10.5V216.63c.03-8.88-6.27-19.74-14-24.2z"/><path d="M276.32 196.13l-68.68-39.65c-4-2.33-7.76-.88-10 .08a8.9 8.9 0 0 0-5.27 8.42v146.25c0 7.13 5 15.83 11.26 19.42l68.7 39.65a11.4 11.4 0 0 0 10.46.56 10.24 10.24 0 0 0 4.78-9.06V215.55c0-7.13-5.04-15.83-11.26-19.42zm3.1 165.35a6.66 6.66 0 0 1-.58 2.9 7 7 0 0 1-2.52-.93l-68.68-39.65a15.7 15.7 0 0 1-7.1-12.25V165.3a6.6 6.6 0 0 1 .58-2.9 7.25 7.25 0 0 1 2.5.93l68.7 39.67a15.7 15.7 0 0 1 7.1 12.25z" class="cls-16"/><path d="M272.32 198.2l-68.7-39.64c-6.2-3.6-11.25-.72-11.25 6.42v146.25c0 7.13 5 15.83 11.26 19.42l68.7 39.65c6.2 3.6 11.25.72 11.25-6.42V217.63c0-7.13-5.04-15.83-11.26-19.42z" class="cls-17"/><path d="M352.38 168.1a23.58 23.58 0 0 0-8.65-9.62l-73.12-42.75-4.1 2.37 76 44.33c3.93 2.27 8.34 10.4 8.34 14.9v155.3l4.15-2.35V177.9a22.14 22.14 0 0 0-2.62-9.8z" class="cls-18"/><ellipse cx="281.3" cy="161.07" class="cls-19" rx="7.72" ry="13.37" transform="translate(118.7 441.49) rotate(-89.69)"/><ellipse cx="281.3" cy="161.07" class="cls-20" rx="4.5" ry="7.8" transform="translate(118.7 441.49) rotate(-89.69)"/><path d="M266.5 277v101.2a13 13 0 0 1-.1 1.55 11.45 11.45 0 0 0 .1-1.58V277zM264.65 231.38V377.65a13 13 0 0 1-.1 1.56 11.8 11.8 0 0 1-.3 1.7c0 .12-.08.24-.12.35s-.1.3-.16.43a6.86 6.86 0 0 1-.35.78c-.1.18-.2.35-.3.5a5.08 5.08 0 0 1-.38.54 5.56 5.56 0 0 1-1.4 1.25c-2.06 1.26-4.94 1.12-8.13-.72l-68.67-39.66c-6.22-3.6-11.26-12.28-11.26-19.42V178.72c0-3.53 1.24-6 3.25-7.2s4.87-1 8 .78L253.4 212c6.2 3.55 11.25 12.24 11.25 19.38z" class="cls-21"/><path d="M244.14 287.76v101a10.23 10.23 0 0 1-4.8 9.06 9.94 9.94 0 0 1-4.8 1c3.36-.3 5.6-3.17 5.6-7.94v-101.2z" class="cls-22"/><path d="M257.37 209.86L188.7 170.2c-4-2.32-7.76-.87-10 .1a7.92 7.92 0 0 0-2 1.22c2-1.2 4.86-1 8 .78l68.7 39.7c6.2 3.6 11.25 12.28 11.25 19.42V377.65a13 13 0 0 1-.1 1.56 11.8 11.8 0 0 1-.3 1.7c0 .12-.08.24-.12.35s-.1.3-.16.43a6.86 6.86 0 0 1-.35.78 6.9 6.9 0 0 1-.68 1 5.06 5.06 0 0 1-1.4 1.25 5.37 5.37 0 0 1-2.48.83 9.94 9.94 0 0 0 4.8-1 10.23 10.23 0 0 0 4.8-9.06v-146.2c-.03-7.12-5.07-15.82-11.3-19.4z" class="cls-20"/><path d="M236.63 234.16l44.35-25.64" class="cls-13"/><path d="M244.14 242.54v45.22l-4 1.9-89-103.92a7.58 7.58 0 0 1 1-.92 8.08 8.08 0 0 1 2-1.27c2.25-1 6-2.4 10-.08l68.68 39.65c6.28 3.6 11.32 12.3 11.32 19.42z" class="cls-23"/><path d="M240.15 289.67V390.9c0 4.78-2.25 7.65-5.6 7.95a9.74 9.74 0 0 1-5.66-1.52l-68.7-39.65a21.36 21.36 0 0 1-6.3-5.88 6.37 6.37 0 0 1-.44-.62 26.37 26.37 0 0 1-2.6-4.63 21.43 21.43 0 0 1-.8-2.1c-.16-.45-.3-.9-.43-1.36a20.06 20.06 0 0 1-.55-2.8 15.75 15.75 0 0 1-.13-2V237z" class="cls-24"/><path d="M230.82 324.82l-72.55-41.9a8.35 8.35 0 0 1-3.8-6.52v-25.55c0-2.4 1.7-3.36 3.8-2.16l72.55 41.88a8.35 8.35 0 0 1 3.8 6.54v25.54c0 2.4-1.7 3.34-3.8 2.16z" class="cls-25"/><path d="M234.6 297.1v25.55a4.2 4.2 0 0 1-.15 1.18c-.48 1.5-1.93 2-3.63 1l-72.55-41.88a8.37 8.37 0 0 1-3.8-6.54v-25.55c0-1.82 1-2.8 2.36-2.66a3.65 3.65 0 0 1 1.44.5l72.55 41.87a8.37 8.37 0 0 1 3.8 6.54z" class="cls-26"/><path d="M234.6 297.1v25.55a4.2 4.2 0 0 1-.15 1.18 3.64 3.64 0 0 1-1.45-.5l-72.54-41.9a8.34 8.34 0 0 1-3.8-6.52v-25.53a4.2 4.2 0 0 1 .17-1.18 3.65 3.65 0 0 1 1.44.5l72.55 41.87a8.37 8.37 0 0 1 3.8 6.54z" class="cls-25"/><path d="M213.02 305.2l21.6-12.43M134.07 260.98l21.62-12.43" class="cls-13"/><path d="M240.15 244.65v45L149 237v-45c0-7.14 5-10 11.25-6.42l68.7 39.65c6.16 3.6 11.2 12.3 11.2 19.42z" class="cls-27"/><path d="M176.82 206.9l-22.9-13.2v-1.93l22.9 13.22v1.9zM171.47 207.86l-17.54-10.13v-1.92l17.54 10.14v1.92z" class="cls-24"/><path d="M167.86 212.54v27.57M181.22 220.25v27.57M194.57 227.96v27.57M207.92 235.67v27.57M221.28 243.38v27.57M234.63 251.1v27.56L154.5 232.4v-27.57" class="cls-28"/><path d="M154.5 218.94l5.6 1.06a4.37 4.37 0 0 1 2.08 1.2l3.44 3.32c1.28 1.24 2.7 1.6 3.54.88l3.5-3c1-.85 2.77-.18 4.14 1.54l2.57 3.22a4.2 4.2 0 0 0 3.3 1.9l3-.3c1.16-.1 2.67.9 3.7 2.5l3.76 5.8a5.92 5.92 0 0 0 2.6 2.32l3.88 1.53a1.87 1.87 0 0 0 2-.2l4.28-4c.92-.88 2.6-.36 4 1.22l3.1 3.53a7.58 7.58 0 0 1 1.56 2.86l3.46 12.35c1 3.62 4.83 5.92 5.92 3.54l3-6.54a1.6 1.6 0 0 1 1.77-.94c2.9.52 6 4.7 6 8.16v17.78l-80.2-46.26z" class="cls-30"/><ellipse cx="160.87" cy="340.93" class="cls-31" rx="5.17" ry="8.96" transform="translate(-150.07 127.79) rotate(-30.31)"/><ellipse cx="183.1" cy="353.77" class="cls-32" rx="5.17" ry="8.96" transform="translate(-153.51 140.77) rotate(-30.31)"/><ellipse cx="205.34" cy="366.61" class="cls-33" rx="5.17" ry="8.96" transform="translate(-156.95 153.75) rotate(-30.31)"/><ellipse cx="227.58" cy="379.45" class="cls-34" rx="5.17" ry="8.96" transform="translate(-160.39 166.73) rotate(-30.31)"/><path d="M240.15 244.65v45L149 237v-45c0-7.13 5-10 11.26-6.42l68.68 39.66c6.17 3.58 11.2 12.27 11.2 19.4z" class="cls-35"/><path d="M176.82 206.9l-22.9-13.2v-1.94l22.9 13.22v1.93zM171.47 207.86l-17.54-10.13v-1.93l17.54 10.13v1.93z" class="cls-24"/><path d="M167.87 212.54v27.57M181.22 220.25v27.57M194.57 227.96v27.57M207.93 235.67v27.57M221.28 243.38v27.57M234.64 251.1v27.56L154.5 232.4v-27.57" class="cls-36"/><path d="M154.5 218.93l5.6 1.07a4.32 4.32 0 0 1 2.08 1.2l3.44 3.32c1.28 1.23 2.7 1.6 3.54.87l3.5-3c1-.85 2.77-.2 4.15 1.54l2.58 3.22a4.2 4.2 0 0 0 3.28 1.9l3-.3c1.18-.12 2.68.9 3.72 2.5l3.76 5.8a5.94 5.94 0 0 0 2.6 2.32l3.87 1.53a1.87 1.87 0 0 0 2-.2l4.3-4c.9-.87 2.6-.35 4 1.22l3.1 3.54a7.37 7.37 0 0 1 1.55 2.86l3.45 12.32c1 3.63 4.83 5.93 5.92 3.55l3-6.54a1.6 1.6 0 0 1 1.77-.94c2.9.52 6 4.7 6 8.16v17.78l-80.2-46.26z" class="cls-37"/><path d="M231.15 366L158 323.72a8.36 8.36 0 0 1-3.5-6.66v-24.94c0-2.57 1.58-3.75 3.5-2.64l73.15 42.24c1.93 1.1 3.5 4.1 3.5 6.66v24.94c0 2.57-1.57 3.75-3.5 2.68z" class="cls-38"/><text class="cls-39" transform="matrix(.86 .5 0 1 160.09 301.26)">MODULE<tspan x="0" y="18">A4.56.D9.451</tspan></text><ellipse cx="208.06" cy="236.45" class="cls-24" rx="1.85" ry="3.2" transform="translate(-90.89 137.32) rotate(-30.31)"/><ellipse cx="221.28" cy="260.65" class="cls-24" rx="1.01" ry="1.76" transform="translate(-101.3 147.3) rotate(-30.31)"/><ellipse cx="174.55" cy="222.02" class="cls-24" rx="1.01" ry="1.76" transform="translate(-88.19 118.44) rotate(-30.31)"/><path d="M212.1 337.14l21.6-12.43" class="cls-13"/><path d="M209.23 337.24l-72.54-41.9a8.3 8.3 0 0 1-3.8-6.52v-25.54c0-2.4 1.7-3.37 3.8-2.16L209.22 303a8.37 8.37 0 0 1 3.8 6.54v25.54c-.03 2.4-1.7 3.37-3.8 2.16zM212.3 337.22a1.82 1.82 0 0 1-.8.46z" class="cls-24"/><path d="M216.18 307.66v25.54a2.73 2.73 0 0 1-1 2.36l-2.9 1.65a3 3 0 0 0 .72-2.12v-25.55a8.35 8.35 0 0 0-3.8-6.53l-72.53-41.9a2.75 2.75 0 0 0-2.55-.33l3-1.8a2.64 2.64 0 0 1 2.7.25l72.55 41.9a8.34 8.34 0 0 1 3.8 6.54z" class="cls-41"/><path d="M281.3 161.07V71.3A13.8 13.8 0 0 0 261.18 59L102.6 151" class="cls-12"/><text class="cls-42" transform="matrix(.86 .5 0 1 137.64 271.85)">ADDING N<tspan x="29.49" y="0" class="cls-43">E</tspan><tspan x="32.88" y="0" class="cls-44">W MODUL</tspan><tspan x="62.24" y="0" class="cls-45">E</tspan><tspan x="65.54" y="0" class="cls-44">...</tspan><tspan x="0" y="9">...</tspan><tspan x="0" y="18">90%</tspan></text><circle cx="389.7" cy="154.58" r="4.38" class="cls-46"/><circle cx="213.19" cy="86.84" r="4.38" class="cls-47"/><circle cx="393.95" cy="259.82" r="4.38" class="cls-48"/><path d="M341.15 315.35c1.44-.83 2.6 0 2.6 2a6.42 6.42 0 0 1-2.3 4.8h-12z"/><path d="M301.92 338l27.5-15.87h12l-.3.2-39.2 22.67c-1.45.83-2.62-.05-2.62-2a6.24 6.24 0 0 1 2.62-5z" class="cls-17"/><path d="M341.15 302.84c1.44-.84 2.6.05 2.6 2a6.42 6.42 0 0 1-2.3 4.8h-12z"/><path d="M301.92 325.5l27.5-15.88h12l-.3.2-39.23 22.64c-1.46.83-2.63 0-2.63-2a6.24 6.24 0 0 1 2.65-4.97z" class="cls-17"/><path d="M341.15 288.3c1.44-.82 2.6.06 2.6 2a6.42 6.42 0 0 1-2.3 4.8h-12z"/><path d="M301.92 311l27.5-15.87h12a2.4 2.4 0 0 1-.3.2l-39.23 22.64c-1.46.84-2.63-.05-2.63-2a6.26 6.26 0 0 1 2.65-4.97z" class="cls-17"/><path d="M108.42 103.6c-1.84-.8-4.9-2-8.18-.07l-91 52.82C4.12 159.3 0 166.4 0 172.25v61.32A8.35 8.35 0 0 0 3.92 241a8.1 8.1 0 0 0 3.6.83c-2.4-.53-4-2.8-4-6.4v-61.36c0-5.84 4.12-12.95 9.2-15.9l91-52.8c2.38-1.38 4.54-1.6 6.17-.86a7.05 7.05 0 0 0-1.48-.9z" class="cls-49"/><path d="M112.73 110.48v61.33c0 5.85-4.13 12.96-9.22 15.9l-91 52.82a9.76 9.76 0 0 1-4.93 1.3c-2.4-.54-4-2.82-4-6.42v-61.33c0-5.84 4.12-12.95 9.2-15.9l91-52.8c2.38-1.38 4.54-1.6 6.17-.86a7.36 7.36 0 0 1 2.8 5.98z" class="cls-24"/><text class="cls-50" transform="matrix(.86 -.5 0 1 69.83 146.71)">65%</text><text class="cls-50" transform="matrix(.86 -.5 0 1 45.22 160.7)">88%</text><text class="cls-50" transform="matrix(.86 -.5 0 1 20.61 174.57)">52%</text><path d="M477.55 150.2l7.12-10.04-14.24-8.22 7.12 18.26z" class="cls-51"/><path d="M528.76 363.3l-112.92 4.08v120h112.92z" class="cls-52"/><path d="M469.33 363.3l-53.5 3.8v112.1h53.5z" class="cls-53"/><path d="M473.37 334.2l-56.45 32.68c-1.6.93-1.4 2.54.44 3.6L465 398.1a6.9 6.9 0 0 0 6.23.25l56.45-32.68c1.6-.93 1.4-2.55-.44-3.6l-47.64-27.6a6.88 6.88 0 0 0-6.23-.25z" class="cls-54"/><path d="M468.77 352.23c7-1.07 14.6.12 19.77 3.1s7.2 7.35 5.35 11.4l12.28 1.92c3-6.58-.32-13.67-8.68-18.5s-20.65-6.75-32-5l1.66 3.55z" class="cls-55"/><path d="M507.27 322.64c.3-5.25-3.17-10.45-9.75-14.26-8.37-4.83-20.65-6.75-32-5v41.77l1.66 3.55 1.65 3.54c7-1.07 14.6.12 19.77 3.1a12.58 12.58 0 0 1 5.35 5.4v6l12.3 1.9a11.57 11.57 0 0 0 1.08-5z" class="cls-56"/><path d="M468.77 310.46v41.77l-3.3-7.1v-41.76l3.3 7.1z" class="cls-57"/><path d="M468.77 310.46c7-1.07 14.6.12 19.77 3.1s7.2 7.35 5.35 11.4l12.28 1.92c3-6.58-.32-13.67-8.68-18.5s-20.65-6.75-32-5l1.66 3.55z" class="cls-24"/><path d="M493.9 324.97v41.77l12.28 1.9V326.9l-12.3-1.9z" class="cls-58"/><path d="M488.54 355.32c-5.16-3-12.73-4.16-19.77-3.1a26.55 26.55 0 0 0-9.13 3 12.4 12.4 0 0 0-5.27 5.3c-1.86 4.05.2 8.42 5.36 11.4s12.73 4.16 19.76 3.1a26.12 26.12 0 0 0 9.13-3 12.42 12.42 0 0 0 5.26-5.28c1.85-4.06-.2-8.44-5.36-11.42z" class="cls-1"/><path d="M459.64 355.27a26.55 26.55 0 0 1 9.13-3l-1.65-3.54-1.66-3.55a42.9 42.9 0 0 0-14.84 4.93c-4.1 2.38-7.06 5.34-8.54 8.57l12.3 1.92a12.4 12.4 0 0 1 5.26-5.33z" class="cls-59"/><path d="M467.12 306.92l-1.66-3.55a42.9 42.9 0 0 0-14.84 4.93c-4.1 2.37-7.06 5.33-8.54 8.56v41.77l12.3 1.92a12.4 12.4 0 0 1 5.26-5.28 26.55 26.55 0 0 1 9.13-3v-41.8z" class="cls-60"/><path d="M454.37 318.78v41.77l-12.3-1.92v-41.76l12.3 1.9z" class="cls-61"/><path d="M459.64 313.5a26.55 26.55 0 0 1 9.13-3l-1.65-3.54-1.66-3.55a42.9 42.9 0 0 0-14.84 4.94c-4.1 2.37-7.06 5.33-8.54 8.56l12.3 1.92a12.4 12.4 0 0 1 5.26-5.32z" class="cls-24"/><path d="M497.64 377.22c4.1-2.38 7.06-5.34 8.54-8.57l-12.3-1.9a12.42 12.42 0 0 1-5.25 5.26 26.12 26.12 0 0 1-9.14 3l1.86 4 1.45 3.1a43 43 0 0 0 14.84-4.88z" class="cls-62"/><path d="M506.1 327l-12.2-1.9a12.42 12.42 0 0 1-5.27 5.27 26.33 26.33 0 0 1-9.14 3l1.86 4 1.45 3.1v33.88a29.12 29.12 0 0 1-3.3.7l1.86 4 1.45 3.1a43 43 0 0 0 14.84-4.94c4.1-2.37 7.06-5.33 8.54-8.56v-41.72z" class="cls-63"/><path d="M497.64 335.53c4.1-2.37 7.06-5.33 8.54-8.56l-12.3-1.9a12.42 12.42 0 0 1-5.25 5.26 26.33 26.33 0 0 1-9.14 3l1.86 4 1.45 3.1a42.57 42.57 0 0 0 14.84-4.9z" class="cls-64"/><path d="M479.5 333.37v41.68l3.3 7.1v-41.7l-3.3-7.08z" class="cls-65"/><path d="M454.37 346.42v13.46h-5.05v-14.24l5.05.78z" class="cls-66"/><path d="M481.36 364.92l-1.87-4c-7 1.07-14.6-.12-19.77-3.1s-7.22-7.35-5.36-11.4l-12.3-1.92a11.6 11.6 0 0 0-1.07 4.88v14.48c.17 4.9 3.6 9.7 9.76 13.25 8.37 4.84 20.64 6.76 32 5V368z" class="cls-67"/><path d="M479.5 360.93c-7 1.07-14.6-.12-19.77-3.1s-7.22-7.35-5.36-11.4l-12.3-1.92c-3 6.6.33 13.68 8.7 18.5s20.64 6.76 32 5l-1.45-3.1z" class="cls-24"/><path d="M477.55 245.38v60.95M500.04 279.05v39.22M455.43 269.4v41.67" class="cls-68"/><ellipse cx="500.04" cy="318.27" class="cls-69" rx="1.66" ry="2.88" transform="translate(179.06 816.58) rotate(-89.69)"/><ellipse cx="477.55" cy="306.33" class="cls-70" rx="1.66" ry="2.88" transform="translate(168.63 782.22) rotate(-89.69)"/><ellipse cx="455.43" cy="311.07" class="cls-71" rx="1.66" ry="2.88" transform="matrix(.01 -1 1 .01 141.89 764.81)"/><path d="M286.87 537.46v-149.5" class="cls-13"/><path d="M533.15 49.42c0 .25 0 .5 0 .75-.26 6.2-4.46 12.3-12.6 17-16.9 9.76-44.38 9.7-61.4-.1-8-4.62-12.25-10.6-12.75-16.62 0-.35 0-.7 0-1 0-.5 0-1 0-1.52a43.4 43.4 0 0 1 86.75 1.52z" class="cls-72"/><path d="M505.66 68.2c0 1.26 0 2.52-.1 3.78-1.38 8.82-7.9 17.42-19.6 24.16-26.57 15.35-69.8 15.28-96.56-.17-12.54-7.24-19.25-16.56-20.08-26 0-.58 0-1.17 0-1.75 0-.85 0-1.68 0-2.52a68.18 68.18 0 0 1 136.24-.58c.07 1 .1 2.03.1 3.07z" class="cls-73"/><path d="M424.75 97v.2c0 5.43-3.62 10.85-10.78 15-14.44 8.32-37.9 8.28-52.43-.1-7.23-4.2-10.9-9.64-10.94-15.1v-.17a37.08 37.08 0 0 1 74.15.17z" class="cls-74"/><path d="M103.3 151.5L85.5 182.6l-18.62-10.75 15.34-32.5z" class="cls-75"/><path d="M94.25 167.32l-8.72 15.3-25.43-14.76 8.07-15.65z" class="cls-76"/><path d="M103.54 172.3l-18.08 10.43v-20.88l18.08-10.44v20.9z" class="cls-54"/><path d="M106 181.24L88.15 212.3l-38.6-21.12 15.32-32.48z" class="cls-77"/><path d="M96.9 197.05l-8.72 15.28-54.46-30.24 8.07-15.67z" class="cls-78"/><path d="M106.2 202.02l-18.1 10.44v-20.88l18.1-10.44v20.88z" class="cls-79"/><path d="M55.2 178.6l-17.8 31.07-18.62-10.75 15.34-32.5z" class="cls-80"/><path d="M46.15 194.4l-8.72 15.3L12 195l8.07-15.65z" class="cls-81"/><path d="M55.44 199.38l-18.08 10.44v-20.88l18.08-10.44v20.88z" class="cls-54"/></g></g></g></svg>