<svg xmlns="http://www.w3.org/2000/svg" xmlns:xlink="http://www.w3.org/1999/xlink" viewBox="0 0 527.14 462.79"><defs><style>.cls-1,.cls-10,.cls-11,.cls-12,.cls-13,.cls-14,.cls-15,.cls-16,.cls-4,.cls-41,.cls-5,.cls-56,.cls-6,.cls-7,.cls-8,.cls-9{fill:none;}.cls-2{isolation:isolate;}.cls-3{opacity:0.5;}.cls-10,.cls-11,.cls-12,.cls-13,.cls-14,.cls-15,.cls-16,.cls-4,.cls-41,.cls-5,.cls-56,.cls-6,.cls-7,.cls-8,.cls-9{stroke-miterlimit:10;}.cls-10,.cls-11,.cls-12,.cls-13,.cls-14,.cls-15,.cls-16,.cls-4,.cls-5,.cls-6,.cls-7,.cls-8,.cls-9{stroke-width:0.98px;}.cls-4{stroke:url(#linear-gradient);}.cls-5{stroke:url(#linear-gradient-2);}.cls-6{stroke:url(#linear-gradient-3);}.cls-7{stroke:url(#linear-gradient-4);}.cls-8{stroke:url(#linear-gradient-5);}.cls-9{stroke:url(#linear-gradient-6);}.cls-10{stroke:url(#linear-gradient-7);}.cls-11{stroke:url(#linear-gradient-8);}.cls-12{stroke:url(#linear-gradient-9);}.cls-13{stroke:url(#linear-gradient-10);}.cls-14{stroke:url(#linear-gradient-11);}.cls-15{stroke:url(#linear-gradient-12);}.cls-16,.cls-56{stroke:#e2887f;}.cls-17{fill:url(#linear-gradient-13);}.cls-18{fill:url(#linear-gradient-14);}.cls-19{fill:url(#linear-gradient-15);}.cls-20{fill:url(#linear-gradient-16);}.cls-21{fill:url(#linear-gradient-17);}.cls-22,.cls-37{fill:#e0341b;}.cls-22{opacity:0.5;}.cls-23{fill:url(#linear-gradient-18);}.cls-24{fill:#c2c2c2;}.cls-25{fill:#888;}.cls-26{fill:url(#Nepojmenovaný_přechod_34);}.cls-27{fill:url(#linear-gradient-19);}.cls-28{font-size:4.55px;fill:#fff;font-family:SpaceMono-Bold, Space Mono;font-weight:700;}.cls-29{fill:url(#linear-gradient-20);}.cls-30{fill:#f0f0f0;}.cls-31{fill:url(#linear-gradient-21);}.cls-32{fill:#b9b9b9;}.cls-33{mix-blend-mode:multiply;}.cls-34{fill:#ccc;}.cls-35{fill:#a8190a;}.cls-36{fill:url(#linear-gradient-22);}.cls-38{fill:url(#linear-gradient-23);}.cls-39{fill:url(#linear-gradient-24);}.cls-40{clip-path:url(#clip-path);}.cls-41{stroke:#e5e5e5;stroke-width:0.79px;}.cls-42{fill:url(#linear-gradient-25);}.cls-43{fill:url(#linear-gradient-26);}.cls-44{fill:#2a2a35;}.cls-45{fill:url(#linear-gradient-27);}.cls-46{fill:url(#linear-gradient-28);}.cls-47{fill:url(#linear-gradient-29);}.cls-48{fill:url(#linear-gradient-30);}.cls-49{fill:url(#linear-gradient-31);}.cls-50{fill:url(#linear-gradient-32);}.cls-51{fill:url(#linear-gradient-33);}.cls-52{fill:url(#linear-gradient-34);}.cls-53{fill:url(#linear-gradient-35);}.cls-54{fill:url(#linear-gradient-36);}.cls-55{fill:url(#linear-gradient-37);}.cls-56{stroke-width:0.77px;stroke-dasharray:3.38;}.cls-57{fill:url(#linear-gradient-38);}</style><linearGradient id="linear-gradient" y1="376.58" x2="296.79" y2="376.58" gradientUnits="userSpaceOnUse"><stop offset="0" stop-color="#e2887f" stop-opacity="0"/><stop offset="1" stop-color="#e2887f"/></linearGradient><linearGradient id="linear-gradient-2" x1="32.18" y1="358.05" x2="328.97" y2="358.05" gradientUnits="userSpaceOnUse"><stop offset="0" stop-color="#ccc" stop-opacity="0"/><stop offset="1" stop-color="#ccc"/></linearGradient><linearGradient id="linear-gradient-3" x1="64.36" y1="339.53" x2="361.15" y2="339.53" xlink:href="#linear-gradient-2"/><linearGradient id="linear-gradient-4" x1="96.54" y1="321.01" x2="393.33" y2="321.01" xlink:href="#linear-gradient-2"/><linearGradient id="linear-gradient-5" x1="128.72" y1="302.48" x2="425.51" y2="302.48" xlink:href="#linear-gradient-2"/><linearGradient id="linear-gradient-6" x1="160.9" y1="283.96" x2="457.69" y2="283.96" xlink:href="#linear-gradient-2"/><linearGradient id="linear-gradient-7" x1="193.08" y1="265.44" x2="489.88" y2="265.44" xlink:href="#linear-gradient-2"/><linearGradient id="linear-gradient-8" x1="-13312.43" y1="367.85" x2="-13047.86" y2="367.85" gradientTransform="matrix(-1, 0, 0, 1, -12785.29, 0)" xlink:href="#linear-gradient-2"/><linearGradient id="linear-gradient-9" x1="-13280.25" y1="349.32" x2="-13015.68" y2="349.32" gradientTransform="matrix(-1, 0, 0, 1, -12785.29, 0)" xlink:href="#linear-gradient-2"/><linearGradient id="linear-gradient-10" x1="-13248.07" y1="330.8" x2="-12983.5" y2="330.8" gradientTransform="matrix(-1, 0, 0, 1, -12785.29, 0)" xlink:href="#linear-gradient-2"/><linearGradient id="linear-gradient-11" x1="-13215.89" y1="312.28" x2="-12951.32" y2="312.28" gradientTransform="matrix(-1, 0, 0, 1, -12785.29, 0)" xlink:href="#linear-gradient-2"/><linearGradient id="linear-gradient-12" x1="-13183.71" y1="293.75" x2="-12919.14" y2="293.75" gradientTransform="matrix(-1, 0, 0, 1, -12785.29, 0)" xlink:href="#linear-gradient-2"/><linearGradient id="linear-gradient-13" x1="2049.18" y1="14156.33" x2="2061.7" y2="14156.33" gradientTransform="translate(2255.64 14423.51) rotate(180)" gradientUnits="userSpaceOnUse"><stop offset="0" stop-color="#e26558"/><stop offset="1" stop-color="#e0341b"/></linearGradient><linearGradient id="linear-gradient-14" x1="7563.36" y1="13849.84" x2="7575.87" y2="13849.84" gradientTransform="matrix(0.87, -0.5, -1, -0.58, 7648.06, 11831.23)" xlink:href="#linear-gradient-13"/><linearGradient id="linear-gradient-15" x1="7563.36" y1="13843.76" x2="7575.87" y2="13843.76" gradientTransform="matrix(0.87, -0.5, -1, -0.58, 7648.06, 11831.23)" xlink:href="#linear-gradient-13"/><linearGradient id="linear-gradient-16" x1="1229.26" y1="2180.76" x2="1239.48" y2="2180.76" gradientTransform="matrix(-0.75, -0.43, 0, 1.33, 1029.45, -2083.21)" xlink:href="#linear-gradient-13"/><linearGradient id="linear-gradient-17" x1="1229.26" y1="2099.11" x2="1239.48" y2="2099.11" gradientTransform="matrix(-0.75, -0.43, 0, 1.33, 1029.45, -2083.21)" xlink:href="#linear-gradient-13"/><linearGradient id="linear-gradient-18" x1="105" y1="201.69" x2="112.43" y2="268.19" gradientUnits="userSpaceOnUse"><stop offset="0" stop-color="#d4d4d4"/><stop offset="1" stop-color="#333"/></linearGradient><linearGradient id="Nepojmenovaný_přechod_34" x1="72.04" y1="223.88" x2="133.31" y2="249.85" gradientUnits="userSpaceOnUse"><stop offset="0" stop-color="#ccc"/><stop offset="1" stop-color="#fff"/></linearGradient><linearGradient id="linear-gradient-19" x1="-26.43" y1="1603.1" x2="-14.59" y2="1603.1" gradientTransform="matrix(0.5, 0.87, -0.58, 1, 1046.57, -1325.14)" gradientUnits="userSpaceOnUse"><stop offset="0.15" stop-color="#e0341b"/><stop offset="1" stop-color="#a8190a"/></linearGradient><linearGradient id="linear-gradient-20" x1="98.19" y1="218.57" x2="106.17" y2="218.57" gradientTransform="matrix(1, 0, 0, 1, 0, 0)" xlink:href="#linear-gradient-19"/><linearGradient id="linear-gradient-21" x1="418.91" y1="232.32" x2="349.43" y2="174.02" gradientUnits="userSpaceOnUse"><stop offset="0.04" stop-color="#999"/><stop offset="0.97" stop-color="#e6e6e6"/></linearGradient><linearGradient id="linear-gradient-22" x1="260.63" y1="196.78" x2="350.55" y2="196.78" gradientUnits="userSpaceOnUse"><stop offset="0.03" stop-color="#e26558"/><stop offset="0.21" stop-color="#e0341b"/><stop offset="1" stop-color="#ba210f"/></linearGradient><linearGradient id="linear-gradient-23" x1="247.59" y1="348.08" x2="237.47" y2="375.88" gradientUnits="userSpaceOnUse"><stop offset="0.03" stop-color="#e6e6e6"/><stop offset="0.96" stop-color="#999"/></linearGradient><linearGradient id="linear-gradient-24" x1="359.91" y1="376.46" x2="349.81" y2="348.71" xlink:href="#linear-gradient-21"/><clipPath id="clip-path"><polygon class="cls-1" points="299.48 391.31 185.57 325.53 296.33 260.93 410.24 326.71 299.48 391.31"/></clipPath><linearGradient id="linear-gradient-25" x1="261.88" y1="344.95" x2="257.36" y2="357.37" xlink:href="#linear-gradient-23"/><linearGradient id="linear-gradient-26" x1="296.45" y1="357.54" x2="291.94" y2="345.14" xlink:href="#linear-gradient-21"/><linearGradient id="linear-gradient-27" x1="262.49" y1="325.44" x2="288.61" y2="253.67" xlink:href="#linear-gradient-21"/><linearGradient id="linear-gradient-28" x1="234.4" y1="249.64" x2="318.86" y2="249.64" xlink:href="#linear-gradient-21"/><linearGradient id="linear-gradient-29" x1="229.26" y1="249.65" x2="324" y2="249.65" gradientUnits="userSpaceOnUse"><stop offset="0" stop-color="#e0341b"/><stop offset="1" stop-color="#a8190a"/></linearGradient><linearGradient id="linear-gradient-30" x1="276.63" y1="252.36" x2="276.63" y2="197.66" gradientTransform="translate(500.14 -52.83) rotate(89.69)" xlink:href="#linear-gradient-29"/><linearGradient id="linear-gradient-31" x1="234.4" y1="220.61" x2="318.86" y2="220.61" xlink:href="#linear-gradient-21"/><linearGradient id="linear-gradient-32" x1="318.86" y1="194.08" x2="234.4" y2="194.08" gradientTransform="translate(469.21 -83.59) rotate(89.69)" xlink:href="#linear-gradient-21"/><linearGradient id="linear-gradient-33" x1="260.54" y1="185.22" x2="292.71" y2="185.22" xlink:href="#linear-gradient-21"/><linearGradient id="linear-gradient-34" x1="292.71" y1="164.06" x2="260.54" y2="164.06" gradientTransform="translate(439.19 -113.45) rotate(89.69)" xlink:href="#linear-gradient-21"/><linearGradient id="linear-gradient-35" x1="321.76" y1="4.52" x2="334.99" y2="40.86" gradientUnits="userSpaceOnUse"><stop offset="0" stop-color="#fff"/><stop offset="0.32" stop-color="#efefef"/><stop offset="0.96" stop-color="#c6c6c6"/><stop offset="1" stop-color="#c3c3c3"/></linearGradient><linearGradient id="linear-gradient-36" x1="289.06" y1="1.97" x2="309.86" y2="59.12" xlink:href="#linear-gradient-35"/><linearGradient id="linear-gradient-37" x1="267.51" y1="33.57" x2="278.81" y2="64.62" xlink:href="#linear-gradient-35"/><linearGradient id="linear-gradient-38" x1="7507.59" y1="13773.52" x2="7520.11" y2="13773.52" gradientTransform="matrix(0.87, -0.5, -1, -0.58, 7648.06, 11831.23)" xlink:href="#linear-gradient-13"/></defs><title>Asset 39</title><g class="cls-2"><g id="Layer_2" data-name="Layer 2"><g id="Layer_1-2" data-name="Layer 1"><g class="cls-3"><line class="cls-4" x1="0.24" y1="291.15" x2="296.55" y2="462.01"/><line class="cls-5" x1="32.42" y1="272.62" x2="328.73" y2="443.49"/><line class="cls-6" x1="64.61" y1="254.1" x2="360.91" y2="424.96"/><line class="cls-7" x1="96.79" y1="235.58" x2="393.09" y2="406.44"/><line class="cls-8" x1="128.97" y1="217.05" x2="425.27" y2="387.92"/><line class="cls-9" x1="161.15" y1="198.53" x2="457.45" y2="369.39"/><line class="cls-10" x1="193.33" y1="180.01" x2="489.63" y2="350.87"/><line class="cls-11" x1="526.9" y1="291.11" x2="262.82" y2="444.58"/><line class="cls-12" x1="494.72" y1="272.59" x2="230.64" y2="426.06"/><line class="cls-13" x1="462.54" y1="254.06" x2="198.46" y2="407.54"/><line class="cls-14" x1="430.36" y1="235.54" x2="166.28" y2="389.01"/><line class="cls-15" x1="398.18" y1="217.02" x2="134.1" y2="370.49"/></g><polyline class="cls-16" points="103.75 297.98 103.75 350.91 296.55 462.23 489.35 350.91"/><polyline class="cls-16" points="242.85 47.98 103.75 128.28 103.75 182.82"/><polyline class="cls-16" points="489.35 350.91 489.35 128.28 350.25 47.98"/><polygon class="cls-17" points="200.2 261.75 193.94 272.6 206.46 272.6 200.2 261.75"/><polygon class="cls-18" points="349.03 47.52 363.78 49.78 352.94 56.04 349.03 47.52"/><polygon class="cls-19" points="355.12 51.04 369.87 53.29 359.03 59.55 355.12 51.04"/><polygon class="cls-20" points="103.67 293.73 99.84 284 107.51 288.42 103.67 293.73"/><polygon class="cls-21" points="103.67 184.87 99.84 175.14 107.51 179.56 103.67 184.87"/><ellipse class="cls-22" cx="424.76" cy="350.56" rx="8.23" ry="14.26" transform="translate(71.91 773.43) rotate(-89.69)"/><ellipse class="cls-22" cx="424.76" cy="350.56" rx="5.09" ry="8.82" transform="translate(71.91 773.43) rotate(-89.69)"/><ellipse class="cls-22" cx="424.76" cy="350.56" rx="2.64" ry="4.57" transform="translate(71.91 773.43) rotate(-89.69)"/><ellipse class="cls-22" cx="200.2" cy="369.39" rx="8.23" ry="14.26" transform="translate(-170.27 567.6) rotate(-89.69)"/><ellipse class="cls-22" cx="200.2" cy="369.39" rx="5.09" ry="8.82" transform="translate(-170.27 567.6) rotate(-89.69)"/><ellipse class="cls-22" cx="200.2" cy="369.39" rx="2.64" ry="4.57" transform="translate(-170.27 567.6) rotate(-89.69)"/><path class="cls-23" d="M124.36,207.75V283.5a2.93,2.93,0,0,1-1.2,2.73L120,288.06l-3.44-10L91,203.81l-6.56-19,2.9-1.69.11-.07a2.13,2.13,0,0,1,2.21.16L121,201.35A8,8,0,0,1,124.36,207.75Z"/><path class="cls-24" d="M117.88,287.86l-31.4-18.13a8,8,0,0,1-3.35-6.4V187.58c0-2.47,1.5-3.6,3.35-2.53l31.4,18.13a8,8,0,0,1,3.35,6.39v75.76C121.23,287.79,119.73,288.93,117.88,287.86Z"/><path class="cls-25" d="M106.57,277.92l-8.77-5.07a1.82,1.82,0,0,1-.77-1.47h0c0-.56.34-.82.77-.58l8.77,5.07a1.84,1.84,0,0,1,.77,1.47h0C107.34,277.9,107,278.16,106.57,277.92Z"/><polygon class="cls-26" points="121.23 281.56 83.14 259.57 83.14 191.75 121.23 213.75 121.23 281.56"/><ellipse class="cls-27" cx="102.18" cy="255.1" rx="4.17" ry="7.23" transform="translate(-114.78 86.44) rotate(-30.31)"/><polygon class="cls-24" points="102.08 234.4 88.86 226.77 88.86 224.19 102.08 231.82 102.08 234.4"/><polygon class="cls-24" points="113.59 241.04 105.02 236.09 105.02 233.51 113.59 238.46 113.59 241.04"/><polygon class="cls-24" points="110.9 244.32 91.55 233.15 91.55 230.57 110.9 241.74 110.9 244.32"/><text class="cls-28" transform="matrix(0.87, 0.5, 0, 1, 99.51, 255.21)">OK</text><path class="cls-29" d="M102.18,212.61c-.41-.24-.75-.05-.75.42v.4c-1.29-.36-2.24.43-2.24,2v3.43l-1,.57V220l8,4.61v-.58l-1-1.72v-3.43a6.65,6.65,0,0,0-2.24-4.61v-.4A1.61,1.61,0,0,0,102.18,212.61Zm-1,9.72a2.2,2.2,0,0,0,1,1.72c.55.32,1,.06,1-.57Z"/><polygon class="cls-30" points="268.16 111.76 321.14 82.13 410.24 133.57 358.12 163.66 268.16 111.76"/><polygon class="cls-31" points="358.12 163.66 410.22 133.62 410.22 242.68 358.12 272.72 358.12 163.66"/><path class="cls-32" d="M368.51,200.85l22.64-13.07h9.91l-.24.16-32.31,18.65c-1.19.69-2.16,0-2.16-1.63h0A5.15,5.15,0,0,1,368.51,200.85Z"/><g class="cls-33"><path class="cls-34" d="M400.82,182.19c1.19-.68,2.15.05,2.15,1.63h0a5.32,5.32,0,0,1-1.91,4h-9.91Z"/></g><path class="cls-32" d="M368.51,187.25l22.64-13.07h9.91l-.24.16L368.51,193c-1.19.69-2.16,0-2.16-1.63h0A5.17,5.17,0,0,1,368.51,187.25Z"/><g class="cls-33"><path class="cls-34" d="M400.82,168.6c1.19-.69,2.15,0,2.15,1.62h0a5.32,5.32,0,0,1-1.91,4h-9.91Z"/></g><path class="cls-32" d="M368.51,173.65l22.64-13.07h9.91l-.24.16-32.31,18.65c-1.19.69-2.16,0-2.16-1.63h0A5.17,5.17,0,0,1,368.51,173.65Z"/><g class="cls-33"><path class="cls-34" d="M400.82,155c1.19-.69,2.15,0,2.15,1.62h0a5.32,5.32,0,0,1-1.91,4h-9.91Z"/></g><polygon class="cls-35" points="350.56 277.29 358.13 272.74 358.13 163.66 350.45 168.12 350.56 277.29"/><polygon class="cls-36" points="350.56 277.29 260.63 225.35 260.63 116.27 350.56 168.21 350.56 277.29"/><polygon class="cls-37" points="268.21 111.72 260.63 116.27 350.56 168.21 358.13 163.66 268.21 111.72"/><polygon class="cls-30" points="299.48 391.31 185.57 325.53 296.33 260.93 410.24 326.71 299.48 391.31"/><polygon class="cls-38" points="299.48 398.45 185.57 332.66 185.57 325.51 299.48 391.31 299.48 398.45"/><polygon class="cls-39" points="299.48 398.45 299.48 391.31 410.24 326.71 410.24 333.86 299.48 398.45"/><g class="cls-40"><line class="cls-41" x1="340.84" y1="254.49" x2="175.4" y2="350"/><line class="cls-41" x1="361.52" y1="266.42" x2="196.08" y2="361.94"/><line class="cls-41" x1="382.2" y1="278.36" x2="216.76" y2="373.88"/><line class="cls-41" x1="402.88" y1="290.3" x2="237.44" y2="385.82"/><line class="cls-41" x1="423.56" y1="302.24" x2="258.12" y2="397.76"/></g><polygon class="cls-30" points="277.15 358 242.08 337.74 276.18 317.86 311.25 338.11 277.15 358"/><polygon class="cls-42" points="277.15 364.57 242.08 344.31 242.08 337.74 277.15 358 277.15 364.57"/><polygon class="cls-43" points="277.15 364.57 277.15 358 311.25 338.11 311.25 344.69 277.15 364.57"/><path class="cls-44" d="M285.3,327.87h0V310L268,310v17.85h0c0,1.28.87,2.56,2.56,3.54a13.57,13.57,0,0,0,12.27,0C284.48,330.45,285.32,329.16,285.3,327.87Z"/><path class="cls-44" d="M278.1,337h0V329.7h-2.94V337h0a.73.73,0,0,0,.43.6,2.31,2.31,0,0,0,2.08,0A.74.74,0,0,0,278.1,337Z"/><ellipse class="cls-44" cx="276.63" cy="314.61" rx="5.01" ry="8.68" transform="translate(-39.48 589.54) rotate(-89.69)"/><path class="cls-45" d="M302.84,312.75h0V258.84l-52.42-.07v54h0c0,3.85,2.62,7.71,7.73,10.66,10.27,5.93,26.87,6,37.07.07C300.34,320.52,302.88,316.63,302.84,312.75Z"/><ellipse class="cls-34" cx="276.63" cy="258.84" rx="15.13" ry="26.21" transform="translate(16.29 534.07) rotate(-89.69)"/><path class="cls-46" d="M318.86,280.94h0V194.08L234.4,194v87h0c.07,6.21,4.22,12.43,12.46,17.18,16.54,9.56,43.28,9.6,59.72.11C314.84,293.46,318.92,287.2,318.86,280.94Z"/><path class="cls-47" d="M324,249.63h0V225H296.87a79.39,79.39,0,0,0-41,0H229.3v23.37c-.51,7.38,4.14,14.88,13.94,20.53,18.55,10.72,48.55,10.77,67,.12C319.49,263.69,324.07,256.66,324,249.63Z"/><ellipse class="cls-48" cx="276.63" cy="225.01" rx="27.35" ry="47.37" transform="translate(50.13 500.42) rotate(-89.69)"/><path class="cls-49" d="M318.86,222.88v-28.8L234.4,194v28.92c.07,6.21,4.22,12.43,12.46,17.19,16.54,9.55,43.28,9.6,59.72.1C314.84,235.41,318.92,229.14,318.86,222.88Z"/><ellipse class="cls-50" cx="276.63" cy="194.08" rx="24.38" ry="42.23" transform="translate(81.06 469.66) rotate(-89.69)"/><path class="cls-51" d="M292.71,197.14h0V164.06L260.54,164V197.1h0v0h0c0,2.36,1.6,4.73,4.74,6.54,6.3,3.64,16.49,3.66,22.75,0C291.18,201.91,292.74,199.52,292.71,197.14Z"/><ellipse class="cls-52" cx="276.63" cy="164.06" rx="9.29" ry="16.08" transform="translate(111.08 439.8) rotate(-89.69)"/><path class="cls-44" d="M282.64,100.26a3,3,0,0,0-1.78-2.45,9.34,9.34,0,0,0-8.49,0,2.92,2.92,0,0,0-1.75,2.46h0V164h0a3,3,0,0,0,1.77,2.45,9.4,9.4,0,0,0,8.5,0,3,3,0,0,0,1.75-2.46h0V100.27Z"/><ellipse class="cls-44" cx="276.63" cy="100.22" rx="3.47" ry="6" transform="translate(174.92 376.31) rotate(-89.69)"/><ellipse class="cls-30" cx="276.63" cy="100.22" rx="2.06" ry="3.56" transform="translate(174.92 376.31) rotate(-89.69)"/><path class="cls-53" d="M352.9,26.8c0,.14,0,.27,0,.41-.14,3.35-2.42,6.68-6.84,9.23-9.16,5.29-24.06,5.26-33.29-.06-4.34-2.5-6.64-5.74-6.91-9h0c0-.19,0-.38,0-.57s0-.55,0-.82a23.53,23.53,0,0,1,47,.82Z"/><path class="cls-54" d="M338,37c0,.69,0,1.37-.06,2.06-.75,4.78-4.28,9.44-10.62,13.1-14.42,8.32-37.87,8.28-52.37-.1-6.8-3.92-10.44-9-10.89-14.1h0c0-.32,0-.63,0-1s0-.91,0-1.36A37,37,0,0,1,338,35.3C338,35.85,338,36.42,338,37Z"/><path class="cls-55" d="M294.11,52.61v.1c0,2.95-2,5.89-5.85,8.13-7.83,4.52-20.55,4.5-28.43-.05-3.92-2.26-5.91-5.22-5.93-8.18v-.09a20.11,20.11,0,0,1,40.21.09Z"/><line class="cls-56" x1="200.2" y1="369.39" x2="200.2" y2="270.71"/><polyline class="cls-56" points="378.41 120.24 424.76 147 424.76 350.56"/><polygon class="cls-57" points="377.06 119.47 391.81 121.73 380.97 127.99 377.06 119.47"/></g></g></g></svg>