<?xml version="1.0" encoding="utf-8"?>
<!-- Generator: Adobe Illustrator 24.2.1, SVG Export Plug-In . SVG Version: 6.00 Build 0)  -->
<svg version="1.1" id="Layer_1" xmlns="http://www.w3.org/2000/svg" xmlns:xlink="http://www.w3.org/1999/xlink" x="0px" y="0px"
	 viewBox="0 0 28.3 28.3" style="enable-background:new 0 0 28.3 28.3;" xml:space="preserve">
<style type="text/css">
	.st0{fill:#FFFFFF;}
</style>
<g id="Layer_2_1_">
	<g id="Layer_1-2">
		<g id="surface1">
			<path class="st0" d="M8.4,0C3.7,0,0,3.7,0,8.4v11.6c0,4.6,3.7,8.4,8.4,8.4h11.6c4.6,0,8.4-3.7,8.4-8.4V8.4c0-4.6-3.7-8.4-8.4-8.4
				H8.4z M8.4,1.3h11.6c3.9,0,7.1,3.2,7.1,7.1v11.6c0,3.9-3.2,7.1-7.1,7.1H8.4c-3.9,0-7.1-3.2-7.1-7.1c0,0,0,0,0,0V8.4
				C1.3,4.5,4.4,1.3,8.4,1.3C8.3,1.3,8.4,1.3,8.4,1.3z M21.9,5.2c-0.7,0-1.3,0.6-1.3,1.3s0.6,1.3,1.3,1.3c0.7,0,1.3-0.6,1.3-1.3
				c0,0,0,0,0,0C23.2,5.7,22.6,5.1,21.9,5.2C21.9,5.1,21.9,5.1,21.9,5.2z M14.1,7.1c-3.9,0-7.1,3.2-7.1,7.1s3.2,7.1,7.1,7.1
				s7.1-3.2,7.1-7.1c0,0,0,0,0,0C21.2,10.2,18.1,7.1,14.1,7.1z M14.1,8.4c3.2,0,5.8,2.6,5.8,5.8s-2.6,5.8-5.8,5.8s-5.8-2.6-5.8-5.8
				l0,0C8.4,11,11,8.4,14.1,8.4z"/>
		</g>
	</g>
</g>
</svg>
