<svg xmlns="http://www.w3.org/2000/svg" width="28.3" height="28.3" viewBox="0 0 28.3 28.3"><defs><style>.cls-1{fill:#7c0030;}</style></defs><title>instagram</title><g id="Layer_2" data-name="Layer 2"><g id="Layer_1-2" data-name="Layer 1"><g id="surface1"><path class="cls-1" d="M8.36,0A8.37,8.37,0,0,0,0,8.36V19.94A8.37,8.37,0,0,0,8.36,28.3H19.94a8.37,8.37,0,0,0,8.36-8.36V8.36A8.37,8.37,0,0,0,19.94,0Zm0,1.29H19.94A7.07,7.07,0,0,1,27,8.36V19.94A7.07,7.07,0,0,1,19.94,27H8.36a7.07,7.07,0,0,1-7.07-7.08V8.36A7.06,7.06,0,0,1,8.36,1.29ZM21.87,5.15a1.29,1.29,0,1,0,1.29,1.28A1.28,1.28,0,0,0,21.87,5.15ZM14.15,7.08a7.08,7.08,0,1,0,7.08,7.07A7.08,7.08,0,0,0,14.15,7.08Zm0,1.28a5.79,5.79,0,1,1-5.79,5.79A5.79,5.79,0,0,1,14.15,8.36Z"/></g></g></g></svg>