<?xml version="1.0" encoding="utf-8"?>
<!-- Generator: Adobe Illustrator 23.0.4, SVG Export Plug-In . SVG Version: 6.00 Build 0)  -->
<svg version="1.1" id="Layer_1" xmlns="http://www.w3.org/2000/svg" xmlns:xlink="http://www.w3.org/1999/xlink" x="0px" y="0px"
	 viewBox="0 0 282.6 416" style="enable-background:new 0 0 282.6 416;" xml:space="preserve">
<style type="text/css">
	.st0{fill:url(#SVGID_1_);}
	.st1{fill:url(#SVGID_2_);}
	.st2{fill:#010101;}
	.st3{fill:#DE3A2E;}
	.st4{fill:#E36559;}
	.st5{fill:#FFFFFF;}
	.st6{fill:#CCCCCC;}
	.st7{fill:#E6E6E5;}
	.st8{fill:url(#SVGID_3_);}
	.st9{fill:#A72027;}
	.st10{fill:#818181;}
	.st11{fill:url(#SVGID_4_);}
	.st12{fill:none;stroke:#DE3A2E;stroke-width:1.24;stroke-miterlimit:10;}
	.st13{fill:url(#SVGID_5_);}
	.st14{fill:#761417;stroke:#DE3A2E;stroke-width:1.24;stroke-miterlimit:10;}
	.st15{fill:url(#SVGID_6_);}
	.st16{fill:url(#SVGID_7_);}
	.st17{fill:url(#SVGID_8_);}
	.st18{fill:#06914C;}
	.st19{fill:url(#SVGID_9_);}
	.st20{fill:url(#SVGID_10_);}
	.st21{fill:url(#SVGID_11_);}
	.st22{fill:url(#SVGID_12_);}
	.st23{fill:url(#SVGID_13_);}
	.st24{fill:url(#SVGID_14_);}
	.st25{fill:url(#SVGID_15_);}
	.st26{fill:url(#SVGID_16_);}
	.st27{fill:#252532;}
	.st28{fill:#231F20;}
	.st29{fill:url(#SVGID_17_);}
	.st30{fill:url(#SVGID_18_);}
	.st31{fill:url(#SVGID_19_);}
	.st32{fill:url(#SVGID_20_);}
	.st33{fill:url(#SVGID_21_);}
	.st34{fill:url(#SVGID_22_);}
	.st35{fill:url(#SVGID_23_);}
	.st36{fill:url(#SVGID_24_);}
	.st37{fill:url(#SVGID_25_);}
	.st38{fill:url(#SVGID_26_);}
	.st39{fill:url(#SVGID_27_);}
	.st40{fill:url(#SVGID_28_);}
	.st41{fill:url(#SVGID_29_);}
	.st42{fill:url(#SVGID_30_);}
	.st43{fill:#414151;}
	.st44{fill:#B39494;}
	.st45{clip-path:url(#SVGID_32_);}
	.st46{fill:url(#SVGID_33_);}
</style>
<title>Asset 26</title>
<g>
	<g id="Layer_1-2">
		<g id="Layer_1-2-2">
			
				<linearGradient id="SVGID_1_" gradientUnits="userSpaceOnUse" x1="68.23" y1="9879.042" x2="278.94" y2="9879.042" gradientTransform="matrix(1 0 0 1 0 -9808.6553)">
				<stop  offset="0" style="stop-color:#E36559"/>
				<stop  offset="1" style="stop-color:#DE3A2E"/>
			</linearGradient>
			<path class="st0" d="M267.4,55.5L174.1,1.7c-5.5-3.2-10.5-1.2-13.6,0.1c-0.8,0.3-1.5,0.8-2.2,1.2L68.2,55.5l75.4,49.1l9.8,5.8
				v30.4l125.5-72.5C276.1,63,272,58.2,267.4,55.5z"/>
			
				<linearGradient id="SVGID_2_" gradientUnits="userSpaceOnUse" x1="218.02" y1="10153.7451" x2="218.02" y2="9876.9551" gradientTransform="matrix(1 0 0 1 0 -9808.6553)">
				<stop  offset="0" style="stop-color:#A72027"/>
				<stop  offset="1" style="stop-color:#DE3A2E"/>
			</linearGradient>
			<path class="st1" d="M153.4,140.8v71c0,9.7,6.8,21.5,15.3,26.4l14,8.1l0.9,98.8l92.6-52.4c2.8-1.5,6.5-5.8,6.5-12.3V81.9
				c-0.1-4.8-1.4-9.4-3.7-13.6L153.4,140.8z"/>
			<path class="st2" d="M165.2,108.3L76.4,58.4c-6-3.5-9.9-3.2-15.1-1s-9.4,5.9-9.4,14V270c0,12,8.5,26.8,19,32.9l88.9,49.9
				c6,3.5,10.3,3.8,15.3,1.2s9.2-6.1,9.2-14.3V141.2C184.3,129.1,175.8,114.4,165.2,108.3z"/>
			<path class="st3" d="M162.2,116.1L69,62.3c-5.5-3.2-10.5-1.2-13.6,0.1c-4.5,2-7.3,6.5-7.2,11.4v198.5c0,9.7,6.8,21.5,15.3,26.4
				l93.2,53.8c4.3,2.5,9.6,2.8,14.2,0.8c2.8-1.5,6.5-5.8,6.5-12.3V142.5C177.5,132.8,170.6,121,162.2,116.1z M166.4,340.6
				c0,1.4-0.2,2.7-0.8,3.9c-1.2-0.2-2.4-0.6-3.4-1.3L69,289.4c-5.3-3.1-9.6-10.5-9.6-16.6V74.3c0-1.4,0.2-2.7,0.8-3.9
				c1.2,0.2,2.4,0.6,3.4,1.3l93.2,53.8c5.3,3.1,9.6,10.5,9.6,16.6L166.4,340.6z"/>
			<path class="st4" d="M156.8,119L63.5,65.1c-8.4-4.9-15.3-1-15.3,8.7v198.5c0,9.7,6.8,21.5,15.3,26.4l93.2,53.8
				c8.4,4.9,15.3,1,15.3-8.7V145.3C172.1,135.6,165.2,123.8,156.8,119z M166.4,340.6c0,6.1-4.3,8.6-9.6,5.5l-93.2-53.9
				c-5.3-3.1-9.6-10.5-9.6-16.6V77.1c0-6.1,4.3-8.6,9.6-5.5l93.2,53.8c5.3,3.1,9.6,10.5,9.6,16.6V340.6z"/>
			<path class="st4" d="M267.4,75.3c-2.8-5.5-7-10.4-11.7-13.1l-99.3-58l-5.6,3.2L254,67.6c5.3,3.1,11.3,14.1,11.3,20.2v210.8
				l5.6-3.2V88.6C270.8,84,269.6,79.4,267.4,75.3z"/>
			<polygon class="st5" points="136.4,170 134.2,168.7 134.2,166.1 136.4,167.4 			"/>
			<polygon class="st6" points="136.4,167.4 161.8,152.7 161.8,155.3 136.4,170 			"/>
			<polygon class="st7" points="136.4,167.4 134.2,166.1 159.6,151.4 161.8,152.7 			"/>
			<polygon class="st5" points="136.4,179.9 134.2,178.6 134.2,176 136.4,177.3 			"/>
			<polygon class="st6" points="136.4,177.3 161.8,162.6 161.8,165.2 136.4,179.9 			"/>
			<polygon class="st7" points="136.4,177.3 134.2,176 159.6,161.3 161.8,162.6 			"/>
			<polygon class="st5" points="136.4,189.8 134.2,188.5 134.2,185.9 136.4,187.2 			"/>
			<polygon class="st6" points="136.4,187.2 161.8,172.5 161.8,175.1 136.4,189.8 			"/>
			<polygon class="st7" points="136.4,187.2 134.2,185.9 159.6,171.2 161.8,172.5 			"/>
			<polygon class="st5" points="136.4,199.7 134.2,198.4 134.2,195.8 136.4,197.1 			"/>
			<polygon class="st6" points="136.4,197.1 161.8,182.4 161.8,185 136.4,199.7 			"/>
			<polygon class="st7" points="136.4,197.1 134.2,195.8 159.6,181.2 161.8,182.4 			"/>
			<polygon class="st5" points="136.4,209.6 134.2,208.3 134.2,205.7 136.4,207 			"/>
			<polygon class="st6" points="136.4,207 161.8,192.3 161.8,194.9 136.4,209.6 			"/>
			<polygon class="st7" points="136.4,207 134.2,205.7 159.6,191.1 161.8,192.3 			"/>
			<polygon class="st5" points="136.4,219.5 134.2,218.2 134.2,215.6 136.4,216.9 			"/>
			<polygon class="st6" points="136.4,216.9 161.8,202.2 161.8,204.8 136.4,219.5 			"/>
			<polygon class="st7" points="136.4,216.9 134.2,215.6 159.6,201 161.8,202.2 			"/>
			<polygon class="st5" points="136.4,229.4 134.2,228.1 134.2,225.6 136.4,226.8 			"/>
			<polygon class="st6" points="136.4,226.8 161.8,212.2 161.8,214.7 136.4,229.4 			"/>
			<polygon class="st7" points="136.4,226.8 134.2,225.5 159.6,210.9 161.8,212.1 			"/>
			<polygon class="st5" points="136.4,239.3 134.2,238 134.2,235.5 136.4,236.7 			"/>
			<polygon class="st6" points="136.4,236.7 161.8,222.1 161.8,224.6 136.4,239.3 			"/>
			<polygon class="st7" points="136.4,236.7 134.2,235.5 159.6,220.8 161.8,222.1 			"/>
			<polygon class="st5" points="136.4,249.2 134.2,247.9 134.2,245.4 136.4,246.6 			"/>
			<polygon class="st6" points="136.4,246.6 161.8,232 161.8,234.5 136.4,249.2 			"/>
			<polygon class="st7" points="136.4,246.6 134.2,245.4 159.6,230.7 161.8,232 			"/>
			<polygon class="st5" points="136.4,259.1 134.2,257.8 134.2,255.3 136.4,256.6 			"/>
			<polygon class="st6" points="136.4,256.6 161.8,241.9 161.8,244.4 136.4,259.1 			"/>
			<polygon class="st7" points="136.4,256.5 134.2,255.3 159.6,240.6 161.8,241.9 			"/>
			<polygon class="st5" points="136.4,269 134.2,267.7 134.2,265.2 136.4,266.5 			"/>
			<polygon class="st6" points="136.4,266.5 161.8,251.8 161.8,254.3 136.4,269 			"/>
			<polygon class="st7" points="136.4,266.5 134.2,265.2 159.6,250.5 161.8,251.8 			"/>
			<polygon class="st5" points="136.4,278.9 134.2,277.6 134.2,275.1 136.4,276.4 			"/>
			<polygon class="st6" points="136.4,276.4 161.8,261.7 161.8,264.2 136.4,278.9 			"/>
			<polygon class="st7" points="136.4,276.4 134.2,275.1 159.6,260.4 161.8,261.7 			"/>
			<polygon class="st5" points="136.4,288.8 134.2,287.5 134.2,285 136.4,286.3 			"/>
			<polygon class="st6" points="136.4,286.3 161.8,271.6 161.8,274.1 136.4,288.8 			"/>
			<polygon class="st7" points="136.4,286.3 134.2,285 159.6,270.3 161.8,271.6 			"/>
			<polygon class="st5" points="136.4,298.7 134.2,297.4 134.2,294.9 136.4,296.2 			"/>
			<polygon class="st6" points="136.4,296.2 161.8,281.5 161.8,284 136.4,298.7 			"/>
			<polygon class="st7" points="136.4,296.2 134.2,294.9 159.6,280.2 161.8,281.5 			"/>
			<polygon class="st5" points="136.4,308.6 134.2,307.3 134.2,304.8 136.4,306.1 			"/>
			<polygon class="st6" points="136.4,306.1 161.8,291.4 161.8,293.9 136.4,308.6 			"/>
			<polygon class="st7" points="136.4,306.1 134.2,304.8 159.6,290.1 161.8,291.4 			"/>
			<polygon class="st5" points="136.4,318.5 134.2,317.2 134.2,314.7 136.4,316 			"/>
			<polygon class="st6" points="136.4,316 161.8,301.3 161.8,303.8 136.4,318.5 			"/>
			<polygon class="st7" points="136.4,316 134.2,314.7 159.6,300 161.8,301.3 			"/>
			<polygon class="st5" points="136.4,328.4 134.2,327.1 134.2,324.6 136.4,325.9 			"/>
			<polygon class="st5" points="136.4,338.3 134.2,337.1 134.2,334.5 136.4,335.8 			"/>
			
				<linearGradient id="SVGID_3_" gradientUnits="userSpaceOnUse" x1="-2358.144" y1="9962.6611" x2="-2161.3293" y2="10085.6445" gradientTransform="matrix(1 0 0 1 2350.0801 -9808.6553)">
				<stop  offset="0.1" style="stop-color:#E36559"/>
				<stop  offset="0.24" style="stop-color:#DF6257"/>
				<stop  offset="0.38" style="stop-color:#D35A50"/>
				<stop  offset="0.51" style="stop-color:#C04B44"/>
				<stop  offset="0.65" style="stop-color:#A43734"/>
				<stop  offset="0.79" style="stop-color:#811D1F"/>
				<stop  offset="0.84" style="stop-color:#701115"/>
			</linearGradient>
			<path class="st8" d="M142.4,140.8c1.8,3.1,2.8,6.7,2.9,10.3v192.2c0,6.4-3.9,9.4-8.7,6.6l-92.4-53.3c-4.8-2.8-8.7-10.3-8.7-16.7
				V87.7c0-6.4,3.9-9.4,8.7-6.6l92.4,53.3C139,136,141,138.2,142.4,140.8"/>
			<path class="st9" d="M32.6,281.6V89.5c0-6.4,3.9-9.4,8.7-6.6l92.4,53.3c4.8,2.8,8.7,10.3,8.7,16.7V345c0,6.4-3.9,9.4-8.7,6.6
				l-92.4-53.3C36.5,295.5,32.6,288.1,32.6,281.6z"/>
			<polygon class="st7" points="74.5,169.4 68.5,166 68.5,164 74.5,167.4 			"/>
			<polygon class="st7" points="74.5,163.3 68.5,159.8 68.5,157.8 74.5,161.3 			"/>
			<polygon class="st7" points="74.5,157.1 68.5,153.7 68.5,151.7 74.5,155.1 			"/>
			<polygon class="st7" points="74.5,151 68.5,147.5 68.5,145.5 74.5,149 			"/>
			<polygon class="st10" points="70.5,167.1 72,168 72,166 70.5,165.1 			"/>
			<polygon class="st10" points="70.5,161 72,161.8 72,159.8 70.5,159 			"/>
			<polygon class="st10" points="70.5,154.8 72,155.7 72,153.7 70.5,152.8 			"/>
			<polygon class="st10" points="70.5,146.7 70.5,148.7 72,149.5 72,147.5 			"/>
			<polygon class="st7" points="56.9,159.3 51,155.9 51,153.9 56.9,157.3 			"/>
			<polygon class="st7" points="56.9,153.2 51,149.7 51,147.7 56.9,151.2 			"/>
			<polygon class="st7" points="56.9,147 51,143.6 51,141.6 56.9,145 			"/>
			<polygon class="st7" points="56.9,140.9 51,137.4 51,135.4 56.9,138.9 			"/>
			<polygon class="st10" points="53,157.1 54.4,157.9 54.4,155.9 53,155 			"/>
			<polygon class="st10" points="53,150.9 54.4,151.7 54.4,149.7 53,148.9 			"/>
			<polygon class="st10" points="53,144.8 54.4,145.6 54.4,143.6 53,142.7 			"/>
			<polygon class="st10" points="53,136.6 53,138.6 54.4,139.4 54.4,137.4 			"/>
			
				<linearGradient id="SVGID_4_" gradientUnits="userSpaceOnUse" x1="-696.7333" y1="11822.8076" x2="-680.7133" y2="11822.8076" gradientTransform="matrix(0.87 0.5 0 1.15 661.93 -13099.3721)">
				<stop  offset="0" style="stop-color:#333333"/>
				<stop  offset="0.52" style="stop-color:#3F3F3F"/>
				<stop  offset="1" style="stop-color:#4E4E4E"/>
			</linearGradient>
			<polygon class="st11" points="69.5,171.5 55.6,163.5 55.6,133.3 69.5,141.3 			"/>
			<polyline class="st12" points="107.9,275.7 107.9,239 122.7,230.5 122.7,220.2 			"/>
			<polygon class="st2" points="99,269 76.1,255.7 76.1,229.4 99,242.6 			"/>
			<polygon class="st7" points="106.7,251 99,246.6 99,245.1 106.7,249.5 			"/>
			<polygon class="st10" points="104.1,249.5 101.6,248.1 101.6,246.6 104.1,248 			"/>
			<polygon class="st7" points="106.7,253.9 99,249.5 99,248 106.7,252.4 			"/>
			<polygon class="st10" points="104.1,252.4 101.6,251 101.6,249.5 104.1,250.9 			"/>
			<polygon class="st7" points="106.7,256.7 99,252.3 99,250.8 106.7,255.2 			"/>
			<polygon class="st10" points="104.1,255.2 101.6,253.8 101.6,252.3 104.1,253.7 			"/>
			<polygon class="st7" points="106.7,259.6 99,255.2 99,253.6 106.7,258.1 			"/>
			<polygon class="st10" points="104.1,258.1 101.6,256.7 101.6,255.1 104.1,256.6 			"/>
			<polygon class="st7" points="106.7,262.4 99,258 99,256.5 106.7,260.9 			"/>
			<polygon class="st10" points="104.1,260.9 101.6,259.5 101.6,258 104.1,259.4 			"/>
			<polygon class="st7" points="106.7,265.2 99,260.8 99,259.3 106.7,263.7 			"/>
			<polygon class="st10" points="104.1,263.7 101.6,262.3 101.6,260.8 104.1,262.2 			"/>
			<polygon class="st7" points="106.7,268.1 99,263.7 99,262.2 106.7,266.6 			"/>
			<polygon class="st10" points="104.1,266.6 101.6,265.2 101.6,263.7 104.1,265.1 			"/>
			<polygon class="st7" points="106.7,270.9 99,266.5 99,265 106.7,269.4 			"/>
			<polygon class="st10" points="104.1,269.4 101.6,268 101.6,266.5 104.1,267.9 			"/>
			<polygon class="st7" points="95.6,275.8 95.6,267 96.9,267.8 96.9,276.5 			"/>
			<polygon class="st10" points="95.6,272.8 95.6,270 96.9,270.7 96.9,273.5 			"/>
			<polygon class="st7" points="93.1,274.3 93.1,265.6 94.4,266.3 94.4,275.1 			"/>
			<polygon class="st10" points="93.1,271.3 93.1,268.5 94.4,269.3 94.4,272.1 			"/>
			<polygon class="st7" points="90.6,272.9 90.6,264.1 91.9,264.9 91.9,273.7 			"/>
			<polygon class="st10" points="90.6,269.9 90.6,267.1 91.9,267.9 91.9,270.7 			"/>
			<polygon class="st7" points="88.1,271.5 88.1,262.7 89.4,263.5 89.4,272.2 			"/>
			<polygon class="st10" points="88.1,268.5 88.1,265.7 89.4,266.4 89.4,269.2 			"/>
			<polygon class="st7" points="85.6,270 85.6,261.3 87,262 87,270.8 			"/>
			<polygon class="st10" points="85.6,267.1 85.6,264.3 87,265 87,267.8 			"/>
			<polygon class="st7" points="83.2,268.6 83.2,259.9 84.5,260.6 84.5,269.4 			"/>
			<polygon class="st10" points="83.2,265.6 83.2,262.8 84.5,263.6 84.5,266.4 			"/>
			<polygon class="st7" points="80.7,267.2 80.7,258.4 82,259.2 82,267.9 			"/>
			<polygon class="st10" points="80.7,264.2 80.7,261.4 82,262.2 82,265 			"/>
			<polygon class="st7" points="78.2,265.8 78.2,257 79.5,257.8 79.5,266.5 			"/>
			<polygon class="st10" points="78.2,262.8 78.2,260 79.5,260.7 79.5,263.5 			"/>
			<polygon class="st7" points="68.4,247.3 76.1,251.7 76.1,253.2 68.4,248.8 			"/>
			<polygon class="st10" points="71,248.8 73.4,250.2 73.4,251.7 71,250.3 			"/>
			<polygon class="st7" points="68.4,244.5 76.1,248.9 76.1,250.4 68.4,246 			"/>
			<polygon class="st10" points="71,246 73.4,247.4 73.4,248.9 71,247.5 			"/>
			<polygon class="st7" points="68.4,241.7 76.1,246.1 76.1,247.6 68.4,243.2 			"/>
			<polygon class="st10" points="71,243.2 73.4,244.6 73.4,246.1 71,244.7 			"/>
			<polygon class="st7" points="68.4,238.8 76.1,243.2 76.1,244.7 68.4,240.3 			"/>
			<polygon class="st10" points="71,240.3 73.4,241.7 73.4,243.2 71,241.8 			"/>
			<polygon class="st7" points="68.4,236 76.1,240.4 76.1,241.9 68.4,237.5 			"/>
			<polygon class="st10" points="71,237.5 73.4,238.9 73.4,240.4 71,239 			"/>
			<polygon class="st7" points="68.4,233.1 76.1,237.5 76.1,239 68.4,234.6 			"/>
			<polygon class="st10" points="71,234.6 73.4,236 73.4,237.5 71,236.1 			"/>
			<polygon class="st7" points="68.4,230.3 76.1,234.7 76.1,236.2 68.4,231.8 			"/>
			<polygon class="st10" points="71,231.8 73.4,233.2 73.4,234.7 71,233.3 			"/>
			<polygon class="st7" points="68.4,227.4 76.1,231.9 76.1,233.4 68.4,229 			"/>
			<polygon class="st10" points="71,228.9 73.4,230.4 73.4,231.9 71,230.5 			"/>
			<polygon class="st7" points="79.5,222.6 79.5,231.4 78.2,230.6 78.2,221.9 			"/>
			<polygon class="st10" points="79.5,225.6 79.5,228.4 78.2,227.6 78.2,224.8 			"/>
			<polygon class="st7" points="82,224 82,232.8 80.7,232 80.7,223.3 			"/>
			<polygon class="st10" points="82,227 82,229.8 80.7,229.1 80.7,226.3 			"/>
			<polygon class="st7" points="84.5,225.5 84.5,234.2 83.2,233.5 83.2,224.7 			"/>
			<polygon class="st10" points="84.5,228.5 84.5,231.3 83.2,230.5 83.2,227.7 			"/>
			<polygon class="st7" points="87,226.9 87,235.7 85.6,234.9 85.6,226.1 			"/>
			<polygon class="st10" points="87,229.9 87,232.7 85.6,231.9 85.6,229.1 			"/>
			<polygon class="st7" points="89.4,228.3 89.4,237.1 88.1,236.3 88.1,227.6 			"/>
			<polygon class="st10" points="89.4,231.3 89.4,234.1 88.1,233.4 88.1,230.6 			"/>
			<polygon class="st7" points="91.9,229.8 91.9,238.5 90.6,237.8 90.6,229 			"/>
			<polygon class="st10" points="91.9,232.7 91.9,235.5 90.6,234.8 90.6,232 			"/>
			<polygon class="st7" points="94.4,231.2 94.4,240 93.1,239.2 93.1,230.4 			"/>
			<polygon class="st10" points="94.4,234.2 94.4,237 93.1,236.2 93.1,233.4 			"/>
			<polygon class="st7" points="96.9,232.6 96.9,241.4 95.6,240.6 95.6,231.9 			"/>
			<polygon class="st10" points="96.9,235.6 96.9,238.4 95.6,237.6 95.6,234.8 			"/>
			<polygon class="st2" points="99,269 76.1,255.7 76.1,229.4 99,242.6 			"/>
			
				<linearGradient id="SVGID_5_" gradientUnits="userSpaceOnUse" x1="-4316.2437" y1="15930.4072" x2="-4289.7134" y2="15930.4072" gradientTransform="matrix(0.87 0.5 0 1.15 3816.9602 -15927.4326)">
				<stop  offset="0" style="stop-color:#333333"/>
				<stop  offset="0.52" style="stop-color:#3F3F3F"/>
				<stop  offset="1" style="stop-color:#4E4E4E"/>
			</linearGradient>
			<polygon class="st13" points="99,269 76.1,255.7 76.1,229.4 99,242.6 			"/>
			
				<ellipse transform="matrix(0.8633 -0.5047 0.5047 0.8633 -95.095 92.2427)" class="st14" cx="122.7" cy="221.7" rx="1.3" ry="2.3"/>
			
				<ellipse transform="matrix(0.8633 -0.5047 0.5047 0.8633 -103.7036 96.5873)" class="st14" cx="126.5" cy="239.7" rx="1.3" ry="2.3"/>
			
				<ellipse transform="matrix(0.8633 -0.5047 0.5047 0.8633 -94.097 88.4679)" class="st14" cx="116.3" cy="217.9" rx="1.3" ry="2.3"/>
			
				<ellipse transform="matrix(0.8633 -0.5047 0.5047 0.8633 -125.0976 92.3094)" class="st14" cx="107.9" cy="277.1" rx="1.3" ry="2.3"/>
			<line class="st12" x1="116.3" y1="229.6" x2="116.3" y2="219.8"/>
			<polygon class="st7" points="119,228.1 113.5,224.9 113.5,223.8 119,227 			"/>
			<polygon class="st10" points="117.2,227 115.4,226 115.4,224.9 117.2,225.9 			"/>
			<line class="st12" x1="117.9" y1="234.8" x2="124.8" y2="238.8"/>
			
				<linearGradient id="SVGID_6_" gradientUnits="userSpaceOnUse" x1="-4274.0933" y1="15902.7119" x2="-4265.4937" y2="15902.7119" gradientTransform="matrix(0.87 0.5 0 1.15 3816.9602 -15927.4326)">
				<stop  offset="0" style="stop-color:#333333"/>
				<stop  offset="0.52" style="stop-color:#3F3F3F"/>
				<stop  offset="1" style="stop-color:#4E4E4E"/>
			</linearGradient>
			<polygon class="st15" points="120,240.3 112.6,236 112.6,227.4 120,231.7 			"/>
			
				<ellipse transform="matrix(0.8633 -0.5047 0.5047 0.8633 -97.4139 79.0881)" class="st14" cx="97.3" cy="219.4" rx="1.3" ry="2.3"/>
			<line class="st12" x1="90.6" y1="215.5" x2="95.7" y2="218.4"/>
			
				<ellipse transform="matrix(0.8645 -0.5026 0.5026 0.8645 -94.1706 67.017)" class="st14" cx="77.2" cy="208.2" rx="1.3" ry="2.3"/>
			<line class="st12" x1="85.2" y1="212.4" x2="80.1" y2="209.4"/>
			
				<linearGradient id="SVGID_7_" gradientUnits="userSpaceOnUse" x1="-4306.8936" y1="15899.5859" x2="-4298.2935" y2="15899.5859" gradientTransform="matrix(0.87 0.5 0 1.15 3816.9602 -15927.4326)">
				<stop  offset="0" style="stop-color:#333333"/>
				<stop  offset="0.52" style="stop-color:#3F3F3F"/>
				<stop  offset="1" style="stop-color:#4E4E4E"/>
			</linearGradient>
			<polygon class="st16" points="91.6,219.7 84.2,215.4 84.2,208.2 91.6,212.5 			"/>
			<path class="st7" d="M60.6,206l-0.3-0.2c-1.2-0.9-2-2.3-2-3.9v-10c0-1.5,0.9-2.2,2-1.5l0.3,0.2c1.2,0.9,2,2.3,2,3.9v9.9
				C62.7,206,61.8,206.6,60.6,206z"/>
			<polygon class="st10" points="62.7,202.3 58.3,199.8 58.3,193.9 62.7,196.5 			"/>
			<path class="st6" d="M60.5,190.6l-0.2-0.1v15.3l0.2,0.1c1.2,0.7,2.2,0.1,2.2-1.2v-10.3C62.6,192.8,61.8,191.4,60.5,190.6z"/>
			
				<ellipse transform="matrix(0.8633 -0.5047 0.5047 0.8633 -131.4529 86.9435)" class="st14" cx="94.8" cy="286.1" rx="1.3" ry="2.3"/>
			<line class="st12" x1="93.5" y1="285.4" x2="88.9" y2="282.8"/>
			
				<ellipse transform="matrix(0.8633 -0.5047 0.5047 0.8633 -144.3743 97.7953)" class="st14" cx="108.3" cy="315.4" rx="1.3" ry="2.3"/>
			<line class="st12" x1="107.1" y1="314.7" x2="102.5" y2="312"/>
			
				<ellipse transform="matrix(0.8645 -0.5026 0.5026 0.8645 -147.4351 97.1269)" class="st14" cx="106.5" cy="322.1" rx="1.3" ry="2.3"/>
			<line class="st12" x1="107.1" y1="321.9" x2="102.5" y2="319.2"/>
			
				<ellipse transform="matrix(0.8633 -0.5047 0.5047 0.8633 -127.5974 72.7332)" class="st14" cx="70.5" cy="271.9" rx="1.3" ry="2.3"/>
			<line class="st12" x1="71.8" y1="272.7" x2="76.3" y2="275.3"/>
			<path class="st7" d="M75.9,275.2L75.9,275.2c0-1.4,0.8-2,1.9-1.4l9.6,5.5c1.2,0.8,1.9,2.2,1.9,3.6l0,0c0,1.4-0.8,2-1.9,1.4
				l-9.6-5.5C76.6,278,75.9,276.6,75.9,275.2z"/>
			<polygon class="st10" points="80.1,280.2 80.1,275.2 85.2,278.1 85.2,283.1 			"/>
			<path class="st6" d="M89.2,283v-0.2l-13.3-7.7v0.2c0.1,1.5,0.9,2.9,2.2,3.7l2.1,1.2l5.1,2.9l1.9,1.1
				C88.3,284.9,89.2,284.3,89.2,283z"/>
			
				<ellipse transform="matrix(0.8633 -0.5047 0.5047 0.8633 -114.5065 98.0438)" class="st14" cx="123.7" cy="260.4" rx="1.3" ry="2.3"/>
			<line class="st12" x1="123.7" y1="261.9" x2="123.7" y2="267.1"/>
			
				<ellipse transform="matrix(0.8633 -0.5047 0.5047 0.8633 -128.5636 101.7655)" class="st14" cx="123.6" cy="288.2" rx="1.3" ry="2.3"/>
			<line class="st12" x1="123.6" y1="286.7" x2="123.6" y2="281.5"/>
			<path class="st7" d="M123.9,282.2l-0.3-0.2c-1.2-0.9-2-2.3-2-3.9v-9.9c0-1.5,0.9-2.2,2-1.5l0.3,0.2c1.2,0.9,2,2.3,2,3.9v10
				C125.9,282.2,125,282.8,123.9,282.2z"/>
			<polygon class="st10" points="125.9,278.5 121.6,275.9 121.6,270.1 125.9,272.7 			"/>
			<path class="st6" d="M123.7,266.8l-0.2-0.1V282l0.2,0.1c1.2,0.7,2.2,0.1,2.2-1.2v-10.3C125.8,269,125,267.6,123.7,266.8z"/>
			<line class="st12" x1="62.1" y1="185.1" x2="114.7" y2="215.5"/>
			<polygon class="st7" points="85.6,216.2 84.1,215.3 84.1,208.1 85.6,209 			"/>
			<polygon class="st7" points="91.6,219.7 90,218.8 90,211.6 91.6,212.5 			"/>
			
				<linearGradient id="SVGID_8_" gradientUnits="userSpaceOnUse" x1="-4320.6533" y1="15980.8555" x2="-4285.3237" y2="15980.8555" gradientTransform="matrix(0.87 0.5 0 1.15 3816.9602 -15927.4326)">
				<stop  offset="0" style="stop-color:#818181"/>
				<stop  offset="1" style="stop-color:#E6E6E5"/>
			</linearGradient>
			<polygon class="st17" points="102.8,323.1 72.2,305.4 72.2,291.3 102.8,309 			"/>
			<polygon class="st18" points="101.6,333.1 73.4,316.8 73.4,306.1 101.6,322.4 			"/>
			<path class="st7" d="M77.3,313.6L77.3,313.6c0-0.7,0.4-1,1-0.7l4.9,2.8c0.6,0.4,1,1.1,1,1.8l0,0c0,0.7-0.4,1-1,0.7l-4.9-2.8
				C77.7,315,77.3,314.3,77.3,313.6z"/>
			<polygon class="st10" points="79.5,316.1 79.5,313.6 82,315.1 82,317.6 			"/>
			<path class="st6" d="M84.1,317.5v-0.1l-6.8-3.9v0.1c0,0.8,0.5,1.5,1.1,1.9l1.1,0.6l2.5,1.5l1,0.5
				C83.6,318.5,84.1,318.2,84.1,317.5z"/>
			<line class="st12" x1="111.7" y1="165.4" x2="111.7" y2="213.8"/>
			<line class="st12" x1="111.7" y1="188.9" x2="102.7" y2="173.5"/>
			
				<ellipse transform="matrix(0.8633 -0.5047 0.5047 0.8633 -73.5282 75.5089)" class="st14" cx="102.6" cy="173.5" rx="1.3" ry="2.3"/>
			<line class="st12" x1="101.3" y1="172.7" x2="96.8" y2="170.1"/>
			
				<ellipse transform="matrix(0.8633 -0.5047 0.5047 0.8633 -69.9487 62.3411)" class="st14" cx="80.1" cy="160.3" rx="1.3" ry="2.3"/>
			<line class="st12" x1="81.4" y1="161" x2="84.2" y2="162.6"/>
			<path class="st7" d="M83.7,162.6L83.7,162.6c0-1.4,0.8-2,1.9-1.4l9.6,5.6c1.2,0.8,1.9,2.2,1.9,3.6l0,0c0,1.4-0.8,2-1.9,1.4
				l-9.6-5.6C84.4,165.3,83.7,164,83.7,162.6z"/>
			<polygon class="st10" points="88,167.5 88,162.5 93,165.4 93,170.5 			"/>
			<path class="st6" d="M97.1,170.3v-0.2l-13.3-7.7v0.2c0.1,1.5,0.9,2.9,2.2,3.8l2.1,1.2l5,2.9l1.9,1.1
				C96.1,172.2,97.1,171.7,97.1,170.3z"/>
			<polyline class="st12" points="60.5,184.2 76.9,174.8 110.1,193.9 			"/>
			<polygon class="st7" points="80.8,174.2 80.8,179.4 79.4,178.6 79.4,173.5 			"/>
			<polygon class="st10" points="80.8,176 80.8,177.6 79.4,176.9 79.4,175.2 			"/>
			<polygon class="st7" points="85.7,177.1 85.7,182.2 84.4,181.5 84.4,176.3 			"/>
			<polygon class="st10" points="85.7,178.8 85.7,180.5 84.4,179.7 84.4,178.1 			"/>
			<polygon class="st7" points="90.7,180 90.7,185.1 89.4,184.3 89.4,179.2 			"/>
			<polygon class="st10" points="90.7,181.7 90.7,183.3 89.4,182.6 89.4,180.9 			"/>
			<polygon class="st7" points="95.6,182.8 95.6,187.9 94.3,187.2 94.3,182.1 			"/>
			<polygon class="st10" points="95.6,184.6 95.6,186.2 94.3,185.4 94.3,183.8 			"/>
			<polygon class="st7" points="80.8,191.8 80.8,196.9 79.4,196.2 79.4,191 			"/>
			<polygon class="st10" points="80.8,193.6 80.8,195.2 79.4,194.4 79.4,192.8 			"/>
			<polygon class="st7" points="85.7,194.7 85.7,199.8 84.4,199 84.4,193.9 			"/>
			<polygon class="st10" points="85.7,196.4 85.7,198.1 84.4,197.3 84.4,195.7 			"/>
			<polygon class="st7" points="90.7,197.5 90.7,202.7 89.4,201.9 89.4,196.8 			"/>
			<polygon class="st10" points="90.7,199.3 90.7,200.9 89.4,200.2 89.4,198.5 			"/>
			<polygon class="st7" points="95.6,200.4 95.6,205.5 94.3,204.8 94.3,199.6 			"/>
			<polygon class="st10" points="95.6,202.1 95.6,203.8 94.3,203 94.3,201.4 			"/>
			
				<linearGradient id="SVGID_9_" gradientUnits="userSpaceOnUse" x1="-4316.2437" y1="15878.5029" x2="-4289.7134" y2="15878.5029" gradientTransform="matrix(0.87 0.5 0 1.15 3816.9602 -15927.4326)">
				<stop  offset="0" style="stop-color:#333333"/>
				<stop  offset="0.52" style="stop-color:#3F3F3F"/>
				<stop  offset="1" style="stop-color:#4E4E4E"/>
			</linearGradient>
			<polygon class="st19" points="99,202.3 76.1,189.1 76.1,176.6 99,189.9 			"/>
			<line class="st12" x1="111.7" y1="163.8" x2="105.4" y2="153"/>
			
				<ellipse transform="matrix(0.8633 -0.5047 0.5047 0.8633 -85.8436 93.951)" class="st14" cx="130.5" cy="205.4" rx="1.3" ry="2.3"/>
			<line class="st12" x1="123.8" y1="201.6" x2="128.9" y2="204.5"/>
			
				<ellipse transform="matrix(0.8645 -0.5026 0.5026 0.8645 -82.7786 81.8281)" class="st14" cx="110.4" cy="194.5" rx="1.3" ry="2.3"/>
			<line class="st12" x1="118.4" y1="198.5" x2="113.3" y2="195.5"/>
			
				<linearGradient id="SVGID_10_" gradientUnits="userSpaceOnUse" x1="-4268.5137" y1="15870.8721" x2="-4259.9136" y2="15870.8721" gradientTransform="matrix(0.87 0.5 0 1.15 3816.9602 -15927.4326)">
				<stop  offset="0" style="stop-color:#333333"/>
				<stop  offset="0.52" style="stop-color:#3F3F3F"/>
				<stop  offset="1" style="stop-color:#4E4E4E"/>
			</linearGradient>
			<polygon class="st20" points="124.8,205.8 117.4,201.5 117.4,194.3 124.8,198.6 			"/>
			
				<ellipse transform="matrix(0.8645 -0.5026 0.5026 0.8645 -77.9211 90.6423)" class="st14" cx="129.2" cy="189.9" rx="1.3" ry="2.3"/>
			<line class="st12" x1="123.8" y1="186" x2="128.9" y2="188.9"/>
			
				<ellipse transform="matrix(0.8633 -0.5047 0.5047 0.8633 -75.0724 80.8362)" class="st14" cx="111.7" cy="179" rx="1.3" ry="2.3"/>
			<line class="st12" x1="118.4" y1="182.9" x2="113.3" y2="179.9"/>
			
				<linearGradient id="SVGID_11_" gradientUnits="userSpaceOnUse" x1="-4268.5137" y1="15857.3242" x2="-4259.9136" y2="15857.3242" gradientTransform="matrix(0.87 0.5 0 1.15 3816.9602 -15927.4326)">
				<stop  offset="0" style="stop-color:#333333"/>
				<stop  offset="0.52" style="stop-color:#3F3F3F"/>
				<stop  offset="1" style="stop-color:#4E4E4E"/>
			</linearGradient>
			<polygon class="st21" points="124.8,190.2 117.4,185.9 117.4,178.7 124.8,183 			"/>
			
				<ellipse transform="matrix(0.8633 -0.5047 0.5047 0.8633 -70.1256 89.6988)" class="st14" cx="130.5" cy="174.3" rx="1.3" ry="2.3"/>
			<line class="st12" x1="123.8" y1="170.4" x2="128.9" y2="173.4"/>
			
				<ellipse transform="matrix(0.8633 -0.5047 0.5047 0.8633 -62.537 73.9884)" class="st14" cx="105.3" cy="152.4" rx="1.3" ry="2.3"/>
			<line class="st12" x1="118.4" y1="167.3" x2="113.3" y2="164.4"/>
			
				<ellipse transform="matrix(0.8633 -0.5047 0.5047 0.8633 -67.2134 78.7088)" class="st14" cx="111.7" cy="163.4" rx="1.3" ry="2.3"/>
			
				<linearGradient id="SVGID_12_" gradientUnits="userSpaceOnUse" x1="-4268.5137" y1="15843.7852" x2="-4259.9136" y2="15843.7852" gradientTransform="matrix(0.87 0.5 0 1.15 3816.9602 -15927.4326)">
				<stop  offset="0" style="stop-color:#333333"/>
				<stop  offset="0.52" style="stop-color:#3F3F3F"/>
				<stop  offset="1" style="stop-color:#4E4E4E"/>
			</linearGradient>
			<polygon class="st22" points="124.8,174.6 117.4,170.3 117.4,163.1 124.8,167.4 			"/>
			<polyline class="st12" points="60.3,212 60.3,223.8 52.1,228.4 			"/>
			<polyline class="st12" points="60.3,223.6 60.3,235.3 52.1,240 			"/>
			<polyline class="st12" points="60.3,235.1 60.3,246.9 52.1,251.5 			"/>
			
				<ellipse transform="matrix(0.8633 -0.5047 0.5047 0.8633 -98.7525 59.4141)" class="st14" cx="60.3" cy="212" rx="1.3" ry="2.3"/>
			<line class="st12" x1="60.3" y1="210.5" x2="60.3" y2="205.3"/>
			
				<ellipse transform="matrix(0.8645 -0.5026 0.5026 0.8645 -107.6589 56.4495)" class="st14" cx="50.9" cy="227.9" rx="1.3" ry="2.3"/>
			
				<ellipse transform="matrix(0.8633 -0.5047 0.5047 0.8633 -114.1331 59.1584)" class="st14" cx="52.1" cy="240.3" rx="1.3" ry="2.3"/>
			
				<ellipse transform="matrix(0.8633 -0.5047 0.5047 0.8633 -120.0911 60.7723)" class="st14" cx="52.1" cy="252.1" rx="1.3" ry="2.3"/>
			<polyline class="st12" points="59.9,183.7 46.8,161 46.8,125.5 51.6,122.7 58.3,126.6 			"/>
			<polygon class="st7" points="72.2,135.3 67.7,132.7 67.7,131.2 72.2,133.8 			"/>
			<polygon class="st10" points="70.7,134.4 69.2,133.6 69.2,132.1 70.7,132.9 			"/>
			<polygon class="st7" points="61.5,129.1 57,126.5 57,125 61.5,127.6 			"/>
			<polygon class="st10" points="59.9,128.2 58.5,127.4 58.5,125.9 59.9,126.7 			"/>
			
				<linearGradient id="SVGID_13_" gradientUnits="userSpaceOnUse" x1="23379.1836" y1="-8614.9072" x2="23386.4141" y2="-8614.9072" gradientTransform="matrix(-0.87 -0.5 0 -1.15 20356.9102 1885.2324)">
				<stop  offset="0" style="stop-color:#333333"/>
				<stop  offset="0.52" style="stop-color:#3F3F3F"/>
				<stop  offset="1" style="stop-color:#4E4E4E"/>
			</linearGradient>
			<polygon class="st23" points="61.5,125 67.8,128.6 67.8,135.3 61.5,131.7 			"/>
			
				<ellipse transform="matrix(0.8633 -0.5047 0.5047 0.8633 -84.6944 55.6987)" class="st14" cx="60.5" cy="184.2" rx="1.3" ry="2.3"/>
			<line class="st12" x1="60.5" y1="185.7" x2="60.5" y2="190.9"/>
			
				<ellipse transform="matrix(0.8633 -0.5047 0.5047 0.8633 -74.8482 45.6275)" class="st14" cx="46.8" cy="161" rx="1.3" ry="2.3"/>
			
				<ellipse transform="matrix(0.8633 -0.5047 0.5047 0.8633 -54.9179 42.9389)" class="st14" cx="51.8" cy="122.8" rx="1.3" ry="2.3"/>
			
				<ellipse transform="matrix(0.8633 -0.5047 0.5047 0.8633 -59.3971 59.8395)" class="st14" cx="80.8" cy="139.6" rx="1.3" ry="2.3"/>
			
				<ellipse transform="matrix(0.8633 -0.5047 0.5047 0.8633 -45.8142 38.0382)" class="st5" cx="47.3" cy="103.6" rx="5.5" ry="9.6"/>
			<ellipse transform="matrix(0.8633 -0.5047 0.5047 0.8633 -58.2771 84.4378)" cx="126.7" cy="149.8" rx="5.5" ry="9.6"/>
			
				<linearGradient id="SVGID_14_" gradientUnits="userSpaceOnUse" x1="-2230.1401" y1="9958.4453" x2="-2219.4302" y2="9958.4453" gradientTransform="matrix(1 0 0 1 2350.0801 -9808.6553)">
				<stop  offset="0.1" style="stop-color:#E36559"/>
				<stop  offset="0.24" style="stop-color:#DF6257"/>
				<stop  offset="0.38" style="stop-color:#D35A50"/>
				<stop  offset="0.51" style="stop-color:#C04B44"/>
				<stop  offset="0.65" style="stop-color:#A43734"/>
				<stop  offset="0.79" style="stop-color:#811D1F"/>
				<stop  offset="0.84" style="stop-color:#701115"/>
			</linearGradient>
			<path class="st24" d="M128.5,157.6c-4-2.6-6.5-7-6.8-11.7c0-2.6,1.1-4.3,2.9-4.7c-2.7-0.5-4.7,1.2-4.7,4.7
				c0.3,4.8,2.8,9.1,6.8,11.7c1.2,0.8,2.5,1.1,3.9,0.8C129.9,158.3,129.2,158,128.5,157.6z"/>
			<ellipse transform="matrix(0.8633 -0.5047 0.5047 0.8633 -136.3398 62.554)" class="st5" cx="47.3" cy="283" rx="5.5" ry="9.6"/>
			
				<linearGradient id="SVGID_15_" gradientUnits="userSpaceOnUse" x1="-2309.5701" y1="10091.6152" x2="-2298.8701" y2="10091.6152" gradientTransform="matrix(1 0 0 1 2350.0801 -9808.6553)">
				<stop  offset="0.1" style="stop-color:#E36559"/>
				<stop  offset="0.24" style="stop-color:#DF6257"/>
				<stop  offset="0.38" style="stop-color:#D35A50"/>
				<stop  offset="0.51" style="stop-color:#C04B44"/>
				<stop  offset="0.65" style="stop-color:#A43734"/>
				<stop  offset="0.79" style="stop-color:#811D1F"/>
				<stop  offset="0.84" style="stop-color:#701115"/>
			</linearGradient>
			<path class="st25" d="M49.1,290.8c-4-2.6-6.5-7-6.8-11.7c0-2.6,1.1-4.3,2.9-4.7c-2.7-0.5-4.7,1.2-4.7,4.7
				c0.3,4.8,2.8,9.1,6.8,11.7c1.1,0.8,2.5,1.1,3.9,0.8C50.5,291.4,49.7,291.2,49.1,290.8z"/>
			
				<ellipse transform="matrix(0.8633 -0.5047 0.5047 0.8633 -148.8014 108.9659)" class="st5" cx="126.8" cy="329.2" rx="5.5" ry="9.6"/>
			
				<linearGradient id="SVGID_16_" gradientUnits="userSpaceOnUse" x1="-2230.1401" y1="10137.8379" x2="-2219.4302" y2="10137.8379" gradientTransform="matrix(1 0 0 1 2350.0801 -9808.6553)">
				<stop  offset="0.1" style="stop-color:#E36559"/>
				<stop  offset="0.24" style="stop-color:#DF6257"/>
				<stop  offset="0.38" style="stop-color:#D35A50"/>
				<stop  offset="0.51" style="stop-color:#C04B44"/>
				<stop  offset="0.65" style="stop-color:#A43734"/>
				<stop  offset="0.79" style="stop-color:#811D1F"/>
				<stop  offset="0.84" style="stop-color:#701115"/>
			</linearGradient>
			<path class="st26" d="M128.5,337c-4-2.6-6.5-7-6.8-11.7c0-2.6,1.1-4.3,2.9-4.7c-2.7-0.5-4.7,1.2-4.7,4.7
				c0.3,4.8,2.8,9.1,6.8,11.7c1.2,0.8,2.5,1,3.9,0.8C129.9,337.7,129.2,337.4,128.5,337z"/>
			<polygon class="st5" points="103.9,183.3 101.6,182 101.6,179.4 103.9,180.7 			"/>
			<polygon class="st6" points="103.9,180.7 129.3,166 129.3,168.6 103.9,183.3 			"/>
			<polygon class="st7" points="103.9,180.7 101.6,179.4 127.1,164.7 129.3,166 			"/>
			<polygon class="st5" points="103.9,193.2 101.6,191.9 101.6,189.3 103.9,190.6 			"/>
			<polygon class="st6" points="103.9,190.6 129.3,175.9 129.3,178.5 103.9,193.2 			"/>
			<polygon class="st7" points="103.9,190.6 101.6,189.3 127.1,174.6 129.3,175.9 			"/>
			<polygon class="st5" points="103.9,203.1 101.6,201.8 101.6,199.2 103.9,200.5 			"/>
			<polygon class="st6" points="103.9,200.5 129.3,185.8 129.3,188.4 103.9,203.1 			"/>
			<polygon class="st7" points="103.9,200.5 101.6,199.2 127.1,184.6 129.3,185.8 			"/>
			<polygon class="st5" points="103.9,213 101.6,211.7 101.6,209.1 103.9,210.4 			"/>
			<polygon class="st6" points="103.9,210.4 129.3,195.7 129.3,198.3 103.9,213 			"/>
			<polygon class="st7" points="103.9,210.4 101.6,209.1 127.1,194.5 129.3,195.7 			"/>
			<polygon class="st5" points="103.9,222.9 101.6,221.6 101.6,219.1 103.9,220.3 			"/>
			<polygon class="st6" points="103.9,220.3 129.3,205.7 129.3,208.2 103.9,222.9 			"/>
			<polygon class="st7" points="103.9,220.3 101.6,219 127.1,204.4 129.3,205.6 			"/>
			<polygon class="st5" points="103.9,232.8 101.6,231.5 101.6,229 103.9,230.2 			"/>
			<polygon class="st6" points="103.9,230.2 129.3,215.6 129.3,218.1 103.9,232.8 			"/>
			<polygon class="st7" points="103.9,230.2 101.6,229 127.1,214.3 129.3,215.6 			"/>
			<polygon class="st5" points="103.9,242.7 101.6,241.4 101.6,238.9 103.9,240.1 			"/>
			<polygon class="st6" points="103.9,240.1 129.3,225.5 129.3,228 103.9,242.7 			"/>
			<polygon class="st7" points="103.9,240.1 101.6,238.9 127.1,224.2 129.3,225.5 			"/>
			<polygon class="st5" points="103.9,252.6 101.6,251.3 101.6,248.8 103.9,250 			"/>
			<polygon class="st6" points="103.9,250 129.3,235.4 129.3,237.9 103.9,252.6 			"/>
			<polygon class="st7" points="103.9,250 101.6,248.8 127.1,234.1 129.3,235.4 			"/>
			<polygon class="st5" points="103.9,262.5 101.6,261.2 101.6,258.7 103.9,260 			"/>
			<polygon class="st6" points="103.9,260 129.3,245.3 129.3,247.8 103.9,262.5 			"/>
			<polygon class="st7" points="103.9,259.9 101.6,258.7 127.1,244 129.3,245.3 			"/>
			<polygon class="st5" points="103.9,272.4 101.6,271.1 101.6,268.6 103.9,269.9 			"/>
			<polygon class="st6" points="103.9,269.9 129.3,255.2 129.3,257.7 103.9,272.4 			"/>
			<polygon class="st7" points="103.9,269.9 101.6,268.6 127.1,253.9 129.3,255.2 			"/>
			<polygon class="st5" points="103.9,282.3 101.6,281 101.6,278.5 103.9,279.8 			"/>
			<polygon class="st6" points="103.9,279.8 129.3,265.1 129.3,267.6 103.9,282.3 			"/>
			<polygon class="st7" points="103.9,279.8 101.6,278.5 127.1,263.8 129.3,265.1 			"/>
			<polygon class="st5" points="103.9,292.2 101.6,290.9 101.6,288.4 103.9,289.7 			"/>
			<polygon class="st6" points="103.9,289.7 129.3,275 129.3,277.5 103.9,292.2 			"/>
			<polygon class="st7" points="103.9,289.7 101.6,288.4 127.1,273.7 129.3,275 			"/>
			<polygon class="st5" points="103.9,302.1 101.6,300.8 101.6,298.3 103.9,299.6 			"/>
			<polygon class="st6" points="103.9,299.6 129.3,284.9 129.3,287.4 103.9,302.1 			"/>
			<polygon class="st7" points="103.9,299.6 101.6,298.3 127.1,283.6 129.3,284.9 			"/>
			<polygon class="st5" points="103.9,312 101.6,310.7 101.6,308.2 103.9,309.5 			"/>
			<polygon class="st6" points="103.9,309.5 129.3,294.8 129.3,297.3 103.9,312 			"/>
			<polygon class="st7" points="103.9,309.5 101.6,308.2 127.1,293.5 129.3,294.8 			"/>
			<polygon class="st5" points="103.9,321.9 101.6,320.6 101.6,318.1 103.9,319.4 			"/>
			<polygon class="st6" points="103.9,319.4 129.3,304.7 129.3,307.2 103.9,321.9 			"/>
			<polygon class="st7" points="103.9,319.4 101.6,318.1 127.1,303.4 129.3,304.7 			"/>
			<polygon class="st5" points="103.9,331.8 101.6,330.6 101.6,328 103.9,329.3 			"/>
			<polygon class="st6" points="103.9,329.3 129.3,314.6 129.3,317.2 103.9,331.8 			"/>
			<polygon class="st7" points="103.9,329.3 101.6,328 127.1,313.3 129.3,314.6 			"/>
			<polygon class="st5" points="103.9,341.7 101.6,340.5 101.6,337.9 103.9,339.2 			"/>
			<polygon class="st5" points="103.9,351.6 101.6,350.4 101.6,347.8 103.9,349.1 			"/>
			<path class="st27" d="M109.8,154.1c1.8,3.1,2.8,6.7,2.9,10.3v192.1c0,6.4-3.9,9.4-8.7,6.6l-92.4-53.3c-4.8-2.8-8.7-10.2-8.7-16.7
				V101c0-6.4,3.9-9.4,8.7-6.6l92.4,53.4C106.5,149.3,108.5,151.5,109.8,154.1"/>
			<path class="st28" d="M0.1,294.9V102.8c0-6.4,3.9-9.4,8.7-6.6l92.4,53.3c4.8,2.8,8.7,10.2,8.7,16.7v192.2c0,6.4-3.9,9.4-8.7,6.6
				L8.8,311.6C4,308.8,0.1,301.4,0.1,294.9z"/>
			<polygon class="st7" points="41.9,182.7 36,179.3 36,177.3 41.9,180.7 			"/>
			<polygon class="st7" points="41.9,176.6 36,173.1 36,171.1 41.9,174.6 			"/>
			<polygon class="st7" points="41.9,170.4 36,167 36,165 41.9,168.4 			"/>
			<polygon class="st7" points="41.9,164.3 36,160.8 36,158.8 41.9,162.3 			"/>
			<polygon class="st10" points="38,180.5 39.4,181.3 39.4,179.3 38,178.4 			"/>
			<polygon class="st10" points="38,174.3 39.4,175.1 39.4,173.1 38,172.3 			"/>
			<polygon class="st10" points="38,168.2 39.4,169 39.4,167 38,166.1 			"/>
			<polygon class="st10" points="38,160 38,162 39.4,162.8 39.4,160.8 			"/>
			<polygon class="st7" points="24.4,172.6 18.4,169.2 18.4,167.2 24.4,170.6 			"/>
			<polygon class="st7" points="24.4,166.5 18.4,163 18.4,161 24.4,164.5 			"/>
			<polygon class="st7" points="24.4,160.3 18.4,156.9 18.4,154.9 24.4,158.3 			"/>
			<polygon class="st7" points="24.4,154.2 18.4,150.7 18.4,148.7 24.4,152.2 			"/>
			<polygon class="st10" points="20.4,170.4 21.9,171.2 21.9,169.2 20.4,168.4 			"/>
			<polygon class="st10" points="20.4,164.2 21.9,165 21.9,163 20.4,162.2 			"/>
			<polygon class="st10" points="20.4,158.1 21.9,158.9 21.9,156.9 20.4,156.1 			"/>
			<polygon class="st10" points="20.4,149.9 20.4,151.9 21.9,152.7 21.9,150.7 			"/>
			
				<linearGradient id="SVGID_17_" gradientUnits="userSpaceOnUse" x1="-734.3218" y1="11850.6416" x2="-718.3018" y2="11850.6416" gradientTransform="matrix(0.87 0.5 0 1.15 661.93 -13099.3721)">
				<stop  offset="0" style="stop-color:#333333"/>
				<stop  offset="0.52" style="stop-color:#3F3F3F"/>
				<stop  offset="1" style="stop-color:#4E4E4E"/>
			</linearGradient>
			<polygon class="st29" points="36.9,184.8 23.1,176.8 23.1,146.6 36.9,154.6 			"/>
			<polyline class="st12" points="75.3,289 75.3,252.3 90.2,243.8 90.2,233.5 			"/>
			<polygon class="st2" points="66.5,282.3 43.5,269 43.5,242.7 66.5,255.9 			"/>
			<polygon class="st7" points="74.1,264.3 66.5,259.9 66.5,258.4 74.1,262.8 			"/>
			<polygon class="st10" points="71.5,262.8 69.1,261.4 69.1,259.9 71.5,261.3 			"/>
			<polygon class="st7" points="74.1,267.2 66.5,262.8 66.5,261.3 74.1,265.7 			"/>
			<polygon class="st10" points="71.5,265.7 69.1,264.3 69.1,262.8 71.5,264.2 			"/>
			<polygon class="st7" points="74.1,270 66.5,265.6 66.5,264.1 74.1,268.5 			"/>
			<polygon class="st10" points="71.5,268.5 69.1,267.1 69.1,265.6 71.5,267 			"/>
			<polygon class="st7" points="74.1,272.9 66.5,268.5 66.5,267 74.1,271.4 			"/>
			<polygon class="st10" points="71.5,271.4 69.1,270 69.1,268.5 71.5,269.9 			"/>
			<polygon class="st7" points="74.1,275.7 66.5,271.3 66.5,269.8 74.1,274.2 			"/>
			<polygon class="st10" points="71.5,274.2 69.1,272.8 69.1,271.3 71.5,272.7 			"/>
			<polygon class="st7" points="74.1,278.6 66.5,274.1 66.5,272.6 74.1,277 			"/>
			<polygon class="st10" points="71.5,277.1 69.1,275.6 69.1,274.1 71.5,275.5 			"/>
			<polygon class="st7" points="74.1,281.4 66.5,277 66.5,275.5 74.1,279.9 			"/>
			<polygon class="st10" points="71.5,279.9 69.1,278.5 69.1,277 71.5,278.4 			"/>
			<polygon class="st7" points="74.1,284.2 66.5,279.8 66.5,278.3 74.1,282.7 			"/>
			<polygon class="st10" points="71.5,282.7 69.1,281.3 69.1,279.8 71.5,281.2 			"/>
			<polygon class="st7" points="63,289.1 63,280.3 64.3,281.1 64.3,289.8 			"/>
			<polygon class="st10" points="63,286.1 63,283.3 64.3,284 64.3,286.8 			"/>
			<polygon class="st7" points="60.5,287.6 60.5,278.9 61.8,279.6 61.8,288.4 			"/>
			<polygon class="st10" points="60.5,284.7 60.5,281.9 61.8,282.6 61.8,285.4 			"/>
			<polygon class="st7" points="58,286.2 58,277.4 59.4,278.2 59.4,287 			"/>
			<polygon class="st10" points="58,283.2 58,280.4 59.4,281.2 59.4,284 			"/>
			<polygon class="st7" points="55.6,284.8 55.6,276 56.9,276.8 56.9,285.5 			"/>
			<polygon class="st10" points="55.6,281.8 55.6,279 56.9,279.8 56.9,282.6 			"/>
			<polygon class="st7" points="53.1,283.4 53.1,274.6 54.4,275.3 54.4,284.1 			"/>
			<polygon class="st10" points="53.1,280.4 53.1,277.6 54.4,278.3 54.4,281.1 			"/>
			<polygon class="st7" points="50.6,281.9 50.6,273.2 51.9,273.9 51.9,282.7 			"/>
			<polygon class="st10" points="50.6,278.9 50.6,276.1 51.9,276.9 51.9,279.7 			"/>
			<polygon class="st7" points="48.2,280.5 48.2,271.7 49.5,272.5 49.5,281.2 			"/>
			<polygon class="st10" points="48.2,277.5 48.2,274.7 49.5,275.5 49.5,278.3 			"/>
			<polygon class="st7" points="45.7,279.1 45.7,270.3 47,271.1 47,279.8 			"/>
			<polygon class="st10" points="45.7,276.1 45.7,273.3 47,274 47,276.8 			"/>
			<polygon class="st7" points="35.9,260.6 43.5,265 43.5,266.6 35.9,262.1 			"/>
			<polygon class="st10" points="38.5,262.1 40.9,263.5 40.9,265.1 38.5,263.6 			"/>
			<polygon class="st7" points="35.9,257.8 43.5,262.2 43.5,263.7 35.9,259.3 			"/>
			<polygon class="st10" points="38.5,259.3 40.9,260.7 40.9,262.2 38.5,260.8 			"/>
			<polygon class="st7" points="35.9,255 43.5,259.4 43.5,260.9 35.9,256.5 			"/>
			<polygon class="st10" points="38.5,256.5 40.9,257.9 40.9,259.4 38.5,258 			"/>
			<polygon class="st7" points="35.9,252.1 43.5,256.5 43.5,258 35.9,253.6 			"/>
			<polygon class="st10" points="38.5,253.6 40.9,255 40.9,256.5 38.5,255.1 			"/>
			<polygon class="st7" points="35.9,249.3 43.5,253.7 43.5,255.2 35.9,250.8 			"/>
			<polygon class="st10" points="38.5,250.8 40.9,252.2 40.9,253.7 38.5,252.3 			"/>
			<polygon class="st7" points="35.9,246.4 43.5,250.8 43.5,252.4 35.9,247.9 			"/>
			<polygon class="st10" points="38.5,247.9 40.9,249.3 40.9,250.9 38.5,249.4 			"/>
			<polygon class="st7" points="35.9,243.6 43.5,248 43.5,249.5 35.9,245.1 			"/>
			<polygon class="st10" points="38.5,245.1 40.9,246.5 40.9,248 38.5,246.6 			"/>
			<polygon class="st7" points="35.9,240.8 43.5,245.2 43.5,246.7 35.9,242.3 			"/>
			<polygon class="st10" points="38.5,242.3 40.9,243.7 40.9,245.2 38.5,243.8 			"/>
			<polygon class="st7" points="47,235.9 47,244.7 45.7,243.9 45.7,235.2 			"/>
			<polygon class="st10" points="47,238.9 47,241.7 45.7,240.9 45.7,238.1 			"/>
			<polygon class="st7" points="49.5,237.4 49.5,246.1 48.2,245.4 48.2,236.6 			"/>
			<polygon class="st10" points="49.5,240.3 49.5,243.1 48.2,242.4 48.2,239.6 			"/>
			<polygon class="st7" points="51.9,238.8 51.9,247.5 50.6,246.8 50.6,238 			"/>
			<polygon class="st10" points="51.9,241.8 51.9,244.6 50.6,243.8 50.6,241 			"/>
			<polygon class="st7" points="54.4,240.2 54.4,249 53.1,248.2 53.1,239.5 			"/>
			<polygon class="st10" points="54.4,243.2 54.4,246 53.1,245.2 53.1,242.4 			"/>
			<polygon class="st7" points="56.9,241.6 56.9,250.4 55.6,249.6 55.6,240.9 			"/>
			<polygon class="st10" points="56.9,244.6 56.9,247.4 55.6,246.7 55.6,243.9 			"/>
			<polygon class="st7" points="59.4,243.1 59.4,251.8 58,251.1 58,242.3 			"/>
			<polygon class="st10" points="59.4,246.1 59.4,248.9 58,248.1 58,245.3 			"/>
			<polygon class="st7" points="61.8,244.5 61.8,253.3 60.5,252.5 60.5,243.7 			"/>
			<polygon class="st10" points="61.8,247.5 61.8,250.3 60.5,249.5 60.5,246.7 			"/>
			<polygon class="st7" points="64.3,245.9 64.3,254.7 63,253.9 63,245.2 			"/>
			<polygon class="st10" points="64.3,248.9 64.3,251.7 63,251 63,248.2 			"/>
			<polygon class="st2" points="66.5,282.3 43.5,269 43.5,242.7 66.5,255.9 			"/>
			
				<linearGradient id="SVGID_18_" gradientUnits="userSpaceOnUse" x1="-4353.8237" y1="15958.2451" x2="-4327.2837" y2="15958.2451" gradientTransform="matrix(0.87 0.5 0 1.15 3816.9602 -15927.4326)">
				<stop  offset="0" style="stop-color:#333333"/>
				<stop  offset="0.52" style="stop-color:#3F3F3F"/>
				<stop  offset="1" style="stop-color:#4E4E4E"/>
			</linearGradient>
			<polygon class="st30" points="66.5,282.3 43.5,269 43.5,242.7 66.5,255.9 			"/>
			
				<ellipse transform="matrix(0.8633 -0.5047 0.5047 0.8633 -106.2574 77.6291)" class="st14" cx="90.2" cy="235" rx="1.3" ry="2.3"/>
			
				<ellipse transform="matrix(0.8633 -0.5047 0.5047 0.8633 -114.8659 81.9811)" class="st14" cx="93.9" cy="253" rx="1.3" ry="2.3"/>
			
				<ellipse transform="matrix(0.8633 -0.5047 0.5047 0.8633 -105.2629 73.8681)" class="st14" cx="83.7" cy="231.3" rx="1.3" ry="2.3"/>
			
				<ellipse transform="matrix(0.8633 -0.5047 0.5047 0.8633 -136.2622 77.7046)" class="st14" cx="75.3" cy="290.4" rx="1.3" ry="2.3"/>
			<line class="st12" x1="83.7" y1="242.9" x2="83.7" y2="233.1"/>
			<polygon class="st7" points="86.5,241.4 81,238.2 81,237.1 86.5,240.3 			"/>
			<polygon class="st10" points="84.6,240.3 82.8,239.3 82.8,238.2 84.6,239.2 			"/>
			<line class="st12" x1="85.3" y1="248.1" x2="92.3" y2="252.1"/>
			
				<linearGradient id="SVGID_19_" gradientUnits="userSpaceOnUse" x1="-4311.6733" y1="15930.5459" x2="-4303.0737" y2="15930.5459" gradientTransform="matrix(0.87 0.5 0 1.15 3816.9602 -15927.4326)">
				<stop  offset="0" style="stop-color:#333333"/>
				<stop  offset="0.52" style="stop-color:#3F3F3F"/>
				<stop  offset="1" style="stop-color:#4E4E4E"/>
			</linearGradient>
			<polygon class="st31" points="87.4,253.6 80,249.3 80,240.7 87.4,245 			"/>
			
				<ellipse transform="matrix(0.8633 -0.5047 0.5047 0.8633 -108.5712 64.4832)" class="st14" cx="64.8" cy="232.7" rx="1.3" ry="2.3"/>
			<line class="st12" x1="58" y1="228.8" x2="63.1" y2="231.7"/>
			
				<ellipse transform="matrix(0.8633 -0.5047 0.5047 0.8633 -105.6614 53.4844)" class="st14" cx="45.9" cy="221.8" rx="1.3" ry="2.3"/>
			<line class="st12" x1="52.6" y1="225.7" x2="47.5" y2="222.7"/>
			
				<linearGradient id="SVGID_20_" gradientUnits="userSpaceOnUse" x1="-4344.4736" y1="15927.4199" x2="-4335.8735" y2="15927.4199" gradientTransform="matrix(0.87 0.5 0 1.15 3816.9602 -15927.4326)">
				<stop  offset="0" style="stop-color:#333333"/>
				<stop  offset="0.52" style="stop-color:#3F3F3F"/>
				<stop  offset="1" style="stop-color:#4E4E4E"/>
			</linearGradient>
			<polygon class="st32" points="59,233 51.6,228.7 51.6,221.5 59,225.8 			"/>
			<path class="st7" d="M28.1,219.3l-0.3-0.2c-1.2-0.9-2-2.3-2-3.9v-9.9c0-1.5,0.9-2.2,2-1.5l0.3,0.2c1.2,0.9,2,2.3,2,3.9v9.9
				C30.1,219.3,29.2,220,28.1,219.3z"/>
			<polygon class="st10" points="30.1,215.6 25.8,213.1 25.8,207.3 30.1,209.8 			"/>
			<path class="st6" d="M27.9,203.9l-0.2-0.1v15.3c0.1,0,0.1,0.1,0.2,0.1c1.2,0.7,2.2,0.1,2.2-1.2v-10.3
				C30,206.1,29.2,204.7,27.9,203.9z"/>
			
				<ellipse transform="matrix(0.8633 -0.5047 0.5047 0.8633 -142.6165 72.3423)" class="st14" cx="62.2" cy="299.4" rx="1.3" ry="2.3"/>
			<line class="st12" x1="61" y1="298.7" x2="56.4" y2="296.1"/>
			
				<ellipse transform="matrix(0.8633 -0.5047 0.5047 0.8633 -155.5379 83.1867)" class="st14" cx="75.8" cy="328.7" rx="1.3" ry="2.3"/>
			<line class="st12" x1="74.5" y1="328" x2="70" y2="325.3"/>
			
				<ellipse transform="matrix(0.8633 -0.5047 0.5047 0.8633 -159.169 84.1722)" class="st14" cx="75.8" cy="335.9" rx="1.3" ry="2.3"/>
			<line class="st12" x1="74.5" y1="335.2" x2="70" y2="332.5"/>
			
				<ellipse transform="matrix(0.8633 -0.5047 0.5047 0.8633 -138.7671 58.1298)" class="st14" cx="37.9" cy="285.2" rx="1.3" ry="2.3"/>
			<line class="st12" x1="39.2" y1="286" x2="43.8" y2="288.6"/>
			<path class="st7" d="M43.3,288.5L43.3,288.5c0-1.4,0.8-2,1.9-1.4l9.6,5.5c1.2,0.8,1.9,2.2,1.9,3.6l0,0c0,1.4-0.8,2-1.9,1.4
				l-9.6-5.5C44,291.3,43.4,290,43.3,288.5z"/>
			<polygon class="st10" points="47.6,293.5 47.6,288.5 52.7,291.4 52.7,296.4 			"/>
			<path class="st6" d="M56.7,296.3v-0.2l-13.3-7.7v0.2c0.1,1.5,0.9,2.9,2.2,3.8l2.1,1.2l5.1,2.9l1.9,1.1
				C55.7,298.2,56.7,297.6,56.7,296.3z"/>
			
				<ellipse transform="matrix(0.8645 -0.5026 0.5026 0.8645 -125.182 82.0465)" class="st14" cx="89.6" cy="273.2" rx="1.3" ry="2.3"/>
			<line class="st12" x1="91.2" y1="275.2" x2="91.2" y2="280.4"/>
			
				<ellipse transform="matrix(0.8645 -0.5026 0.5026 0.8645 -139.158 85.6775)" class="st14" cx="89.3" cy="300.9" rx="1.3" ry="2.3"/>
			<line class="st12" x1="91" y1="300" x2="91" y2="294.8"/>
			<path class="st7" d="M91.4,295.5l-0.3-0.2c-1.2-0.9-2-2.3-2-3.9v-9.9c0-1.5,0.9-2.2,2-1.5l0.3,0.2c1.2,0.9,2,2.3,2,3.9v10
				C93.4,295.5,92.5,296.1,91.4,295.5z"/>
			<polygon class="st10" points="93.4,291.8 89,289.3 89,283.4 93.4,286 			"/>
			<path class="st6" d="M91.2,280.1L91,280v15.3l0.2,0.1c1.2,0.7,2.2,0.1,2.2-1.2v-10.3C93.3,282.3,92.5,280.9,91.2,280.1z"/>
			<line class="st12" x1="29.5" y1="198.4" x2="82.1" y2="228.8"/>
			<polygon class="st7" points="53.1,229.5 51.5,228.6 51.5,221.4 53.1,222.4 			"/>
			<polygon class="st7" points="59,233 57.5,232.1 57.5,224.9 59,225.8 			"/>
			
				<linearGradient id="SVGID_21_" gradientUnits="userSpaceOnUse" x1="-4358.2334" y1="16008.6943" x2="-4322.9033" y2="16008.6943" gradientTransform="matrix(0.87 0.5 0 1.15 3816.9602 -15927.4326)">
				<stop  offset="0" style="stop-color:#818181"/>
				<stop  offset="1" style="stop-color:#E6E6E5"/>
			</linearGradient>
			<polygon class="st33" points="70.3,336.4 39.7,318.7 39.7,304.6 70.3,322.3 			"/>
			<polygon class="st18" points="69.1,346.4 40.9,330.2 40.9,319.4 69.1,335.7 			"/>
			<path class="st7" d="M44.8,326.9L44.8,326.9c0-0.7,0.4-1,1-0.7l4.8,2.8c0.6,0.4,1,1.1,1,1.8l0,0c0,0.7-0.4,1-1,0.7l-4.9-2.8
				C45.1,328.3,44.8,327.6,44.8,326.9z"/>
			<polygon class="st10" points="46.9,329.4 46.9,326.9 49.5,328.4 49.5,330.9 			"/>
			<path class="st6" d="M51.5,330.8v-0.1l-6.8-3.9v0.1c0,0.8,0.5,1.5,1.1,1.9l1.1,0.6l2.6,1.5l1,0.5C51,331.8,51.5,331.5,51.5,330.8
				z"/>
			<line class="st12" x1="79.2" y1="178.7" x2="79.2" y2="227.1"/>
			<line class="st12" x1="79.2" y1="202.2" x2="70.2" y2="186.8"/>
			
				<ellipse transform="matrix(0.8633 -0.5047 0.5047 0.8633 -84.6928 60.904)" class="st14" cx="70.1" cy="186.8" rx="1.3" ry="2.3"/>
			<line class="st12" x1="68.8" y1="186.1" x2="64.2" y2="183.4"/>
			
				<ellipse transform="matrix(0.8633 -0.5047 0.5047 0.8633 -81.1184 47.7376)" class="st14" cx="47.6" cy="173.6" rx="1.3" ry="2.3"/>
			<line class="st12" x1="48.8" y1="174.4" x2="51.6" y2="175.9"/>
			<path class="st7" d="M51.2,175.9L51.2,175.9c0-1.4,0.8-2,1.9-1.4l9.6,5.5c1.2,0.8,1.9,2.2,1.9,3.6l0,0c0,1.4-0.8,2-1.9,1.4
				l-9.6-5.6C51.9,178.6,51.2,177.3,51.2,175.9z"/>
			<polygon class="st10" points="55.4,180.8 55.4,175.8 60.5,178.8 60.5,183.8 			"/>
			<path class="st6" d="M64.6,183.6v-0.2l-13.3-7.7v0.2c0.1,1.5,0.9,2.9,2.2,3.8l2.1,1.2l5.1,2.9l1.9,1.1
				C63.6,185.5,64.6,185,64.6,183.6z"/>
			<polyline class="st12" points="27.9,197.5 44.4,188.1 77.5,207.2 			"/>
			<polygon class="st7" points="48.2,187.5 48.2,192.7 46.9,191.9 46.9,186.8 			"/>
			<polygon class="st10" points="48.2,189.3 48.2,190.9 46.9,190.2 46.9,188.5 			"/>
			<polygon class="st7" points="53.2,190.4 53.2,195.5 51.9,194.8 51.9,189.6 			"/>
			<polygon class="st10" points="53.2,192.2 53.2,193.8 51.9,193 51.9,191.4 			"/>
			<polygon class="st7" points="58.1,193.3 58.1,198.4 56.8,197.6 56.8,192.5 			"/>
			<polygon class="st10" points="58.1,195 58.1,196.7 56.8,195.9 56.8,194.3 			"/>
			<polygon class="st7" points="63.1,196.1 63.1,201.3 61.8,200.5 61.8,195.4 			"/>
			<polygon class="st10" points="63.1,197.9 63.1,199.5 61.8,198.7 61.8,197.1 			"/>
			<polygon class="st7" points="48.2,205.1 48.2,210.2 46.9,209.5 46.9,204.4 			"/>
			<polygon class="st10" points="48.2,206.9 48.2,208.5 46.9,207.7 46.9,206.1 			"/>
			<polygon class="st7" points="53.2,208 53.2,213.1 51.9,212.3 51.9,207.2 			"/>
			<polygon class="st10" points="53.2,209.7 53.2,211.4 51.9,210.6 51.9,209 			"/>
			<polygon class="st7" points="58.1,210.8 58.1,216 56.8,215.2 56.8,210.1 			"/>
			<polygon class="st10" points="58.1,212.6 58.1,214.2 56.8,213.5 56.8,211.8 			"/>
			<polygon class="st7" points="63.1,213.7 63.1,218.8 61.8,218.1 61.8,212.9 			"/>
			<polygon class="st10" points="63.1,215.4 63.1,217.1 61.8,216.3 61.8,214.7 			"/>
			
				<linearGradient id="SVGID_22_" gradientUnits="userSpaceOnUse" x1="-4353.8237" y1="15906.3408" x2="-4327.2837" y2="15906.3408" gradientTransform="matrix(0.87 0.5 0 1.15 3816.9602 -15927.4326)">
				<stop  offset="0" style="stop-color:#333333"/>
				<stop  offset="0.52" style="stop-color:#3F3F3F"/>
				<stop  offset="1" style="stop-color:#4E4E4E"/>
			</linearGradient>
			<polygon class="st34" points="66.5,215.7 43.5,202.4 43.5,190 66.5,203.2 			"/>
			<line class="st12" x1="79.2" y1="177.1" x2="72.9" y2="166.3"/>
			
				<ellipse transform="matrix(0.8633 -0.5047 0.5047 0.8633 -97.0096 79.3512)" class="st14" cx="98" cy="218.8" rx="1.3" ry="2.3"/>
			<line class="st12" x1="91.3" y1="214.9" x2="96.4" y2="217.8"/>
			
				<ellipse transform="matrix(0.8645 -0.5026 0.5026 0.8645 -93.7684 67.2708)" class="st14" cx="77.9" cy="207.6" rx="1.3" ry="2.3"/>
			<line class="st12" x1="85.9" y1="211.8" x2="80.8" y2="208.8"/>
			
				<linearGradient id="SVGID_23_" gradientUnits="userSpaceOnUse" x1="-4306.0933" y1="15898.708" x2="-4297.4937" y2="15898.708" gradientTransform="matrix(0.87 0.5 0 1.15 3816.9602 -15927.4326)">
				<stop  offset="0" style="stop-color:#333333"/>
				<stop  offset="0.52" style="stop-color:#3F3F3F"/>
				<stop  offset="1" style="stop-color:#4E4E4E"/>
			</linearGradient>
			<polygon class="st35" points="92.3,219.1 84.8,214.8 84.8,207.6 92.3,211.9 			"/>
			
				<ellipse transform="matrix(0.8645 -0.5026 0.5026 0.8645 -88.9072 76.0887)" class="st14" cx="96.7" cy="203" rx="1.3" ry="2.3"/>
			<line class="st12" x1="91.3" y1="199.3" x2="96.4" y2="202.2"/>
			
				<ellipse transform="matrix(0.8633 -0.5047 0.5047 0.8633 -86.2297 66.2313)" class="st14" cx="79.2" cy="192.3" rx="1.3" ry="2.3"/>
			<line class="st12" x1="85.9" y1="196.2" x2="80.8" y2="193.2"/>
			
				<linearGradient id="SVGID_24_" gradientUnits="userSpaceOnUse" x1="-4306.0933" y1="15885.1602" x2="-4297.4937" y2="15885.1602" gradientTransform="matrix(0.87 0.5 0 1.15 3816.9602 -15927.4326)">
				<stop  offset="0" style="stop-color:#333333"/>
				<stop  offset="0.52" style="stop-color:#3F3F3F"/>
				<stop  offset="1" style="stop-color:#4E4E4E"/>
			</linearGradient>
			<polygon class="st36" points="92.3,203.5 84.8,199.2 84.8,192 92.3,196.3 			"/>
			
				<ellipse transform="matrix(0.8633 -0.5047 0.5047 0.8633 -81.2843 75.0889)" class="st14" cx="98" cy="187.6" rx="1.3" ry="2.3"/>
			<line class="st12" x1="91.3" y1="183.7" x2="96.4" y2="186.7"/>
			
				<ellipse transform="matrix(0.8633 -0.5047 0.5047 0.8633 -73.703 59.3886)" class="st14" cx="72.8" cy="165.8" rx="1.3" ry="2.3"/>
			<line class="st12" x1="85.9" y1="180.6" x2="80.8" y2="177.7"/>
			
				<ellipse transform="matrix(0.8633 -0.5047 0.5047 0.8633 -78.3708 64.0965)" class="st14" cx="79.1" cy="176.7" rx="1.3" ry="2.3"/>
			
				<linearGradient id="SVGID_25_" gradientUnits="userSpaceOnUse" x1="-4306.0933" y1="15871.6162" x2="-4297.4937" y2="15871.6162" gradientTransform="matrix(0.87 0.5 0 1.15 3816.9602 -15927.4326)">
				<stop  offset="0" style="stop-color:#333333"/>
				<stop  offset="0.52" style="stop-color:#3F3F3F"/>
				<stop  offset="1" style="stop-color:#4E4E4E"/>
			</linearGradient>
			<polygon class="st37" points="92.3,187.9 84.8,183.6 84.8,176.4 92.3,180.7 			"/>
			<polyline class="st12" points="27.8,225.3 27.8,237.1 19.6,241.8 			"/>
			<polyline class="st12" points="27.8,236.9 27.8,248.6 19.6,253.3 			"/>
			<polyline class="st12" points="27.8,248.4 27.8,260.2 19.6,264.9 			"/>
			
				<ellipse transform="matrix(0.8633 -0.5047 0.5047 0.8633 -109.9161 44.8129)" class="st14" cx="27.8" cy="225.3" rx="1.3" ry="2.3"/>
			<line class="st12" x1="27.8" y1="223.8" x2="27.8" y2="218.6"/>
			
				<ellipse transform="matrix(0.8633 -0.5047 0.5047 0.8633 -119.3323 42.9396)" class="st14" cx="19.6" cy="241.8" rx="1.3" ry="2.3"/>
			
				<ellipse transform="matrix(0.8633 -0.5047 0.5047 0.8633 -125.2904 44.5535)" class="st14" cx="19.6" cy="253.6" rx="1.3" ry="2.3"/>
			
				<ellipse transform="matrix(0.8633 -0.5047 0.5047 0.8633 -131.2621 46.1711)" class="st14" cx="19.6" cy="265.4" rx="1.3" ry="2.3"/>
			<polyline class="st12" points="27.4,197 14.3,174.3 14.3,138.8 19.1,136.1 25.8,139.9 			"/>
			<polygon class="st7" points="39.7,148.6 35.2,146 35.2,144.5 39.7,147.1 			"/>
			<polygon class="st10" points="38.1,147.7 36.7,146.9 36.7,145.4 38.1,146.2 			"/>
			<polygon class="st7" points="28.9,142.4 24.5,139.8 24.5,138.3 28.9,140.9 			"/>
			<polygon class="st10" points="27.4,141.5 26,140.7 26,139.2 27.4,140 			"/>
			
				<linearGradient id="SVGID_26_" gradientUnits="userSpaceOnUse" x1="23416.7539" y1="-8642.7412" x2="23423.9941" y2="-8642.7412" gradientTransform="matrix(-0.87 -0.5 0 -1.15 20356.9102 1885.2324)">
				<stop  offset="0" style="stop-color:#333333"/>
				<stop  offset="0.52" style="stop-color:#3F3F3F"/>
				<stop  offset="1" style="stop-color:#4E4E4E"/>
			</linearGradient>
			<polygon class="st38" points="29,138.3 35.2,141.9 35.2,148.6 29,145 			"/>
			
				<ellipse transform="matrix(0.8633 -0.5047 0.5047 0.8633 -95.8641 41.0926)" class="st14" cx="27.9" cy="197.5" rx="1.3" ry="2.3"/>
			<line class="st12" x1="27.9" y1="199" x2="27.9" y2="204.2"/>
			
				<ellipse transform="matrix(0.8633 -0.5047 0.5047 0.8633 -86.0105 31.0213)" class="st14" cx="14.3" cy="174.3" rx="1.3" ry="2.3"/>
			
				<ellipse transform="matrix(0.8633 -0.5047 0.5047 0.8633 -66.0839 28.3391)" class="st14" cx="19.3" cy="136.2" rx="1.3" ry="2.3"/>
			
				<ellipse transform="matrix(0.8633 -0.5047 0.5047 0.8633 -70.5631 45.2397)" class="st14" cx="48.2" cy="152.9" rx="1.3" ry="2.3"/>
			
				<ellipse transform="matrix(0.8645 -0.5026 0.5026 0.8645 -56.682 22.9189)" class="st5" cx="14.2" cy="116.6" rx="5.5" ry="9.5"/>
			
				<linearGradient id="SVGID_27_" gradientUnits="userSpaceOnUse" x1="-2342.1201" y1="9925.5684" x2="-2331.4202" y2="9925.5684" gradientTransform="matrix(1 0 0 1 2350.0801 -9808.6553)">
				<stop  offset="0.1" style="stop-color:#E36559"/>
				<stop  offset="0.24" style="stop-color:#DF6257"/>
				<stop  offset="0.38" style="stop-color:#D35A50"/>
				<stop  offset="0.51" style="stop-color:#C04B44"/>
				<stop  offset="0.65" style="stop-color:#A43734"/>
				<stop  offset="0.79" style="stop-color:#811D1F"/>
				<stop  offset="0.84" style="stop-color:#701115"/>
			</linearGradient>
			<path class="st39" d="M16.5,124.7c-4-2.6-6.5-6.9-6.8-11.7c0-2.6,1.1-4.3,2.9-4.7C9.9,107.7,8,109.5,8,113
				c0.3,4.8,2.8,9.1,6.8,11.7c1.2,0.8,2.5,1,3.9,0.8C17.9,125.4,17.2,125.1,16.5,124.7z"/>
			
				<ellipse transform="matrix(0.8633 -0.5047 0.5047 0.8633 -69.4394 69.8342)" class="st5" cx="94.2" cy="163.1" rx="5.5" ry="9.6"/>
			
				<linearGradient id="SVGID_28_" gradientUnits="userSpaceOnUse" x1="-2262.6702" y1="9971.7539" x2="-2251.96" y2="9971.7539" gradientTransform="matrix(1 0 0 1 2350.0801 -9808.6553)">
				<stop  offset="0.1" style="stop-color:#E36559"/>
				<stop  offset="0.24" style="stop-color:#DF6257"/>
				<stop  offset="0.38" style="stop-color:#D35A50"/>
				<stop  offset="0.51" style="stop-color:#C04B44"/>
				<stop  offset="0.65" style="stop-color:#A43734"/>
				<stop  offset="0.79" style="stop-color:#811D1F"/>
				<stop  offset="0.84" style="stop-color:#701115"/>
			</linearGradient>
			<path class="st40" d="M96,170.9c-4-2.6-6.5-7-6.8-11.7c0-2.6,1.1-4.3,2.9-4.7c-2.7-0.6-4.7,1.2-4.7,4.7c0.3,4.8,2.8,9.1,6.8,11.7
				c1.2,0.8,2.5,1.1,3.9,0.8C97.4,171.6,96.7,171.3,96,170.9z"/>
			
				<ellipse transform="matrix(0.8645 -0.5026 0.5026 0.8645 -146.6541 46.7173)" class="st5" cx="13.3" cy="295.4" rx="5.5" ry="9.5"/>
			
				<linearGradient id="SVGID_29_" gradientUnits="userSpaceOnUse" x1="-2342.1201" y1="10104.9238" x2="-2331.4202" y2="10104.9238" gradientTransform="matrix(1 0 0 1 2350.0801 -9808.6553)">
				<stop  offset="0.1" style="stop-color:#E36559"/>
				<stop  offset="0.24" style="stop-color:#DF6257"/>
				<stop  offset="0.38" style="stop-color:#D35A50"/>
				<stop  offset="0.51" style="stop-color:#C04B44"/>
				<stop  offset="0.65" style="stop-color:#A43734"/>
				<stop  offset="0.79" style="stop-color:#811D1F"/>
				<stop  offset="0.84" style="stop-color:#701115"/>
			</linearGradient>
			<path class="st41" d="M16.5,304.1c-4-2.6-6.5-7-6.8-11.7c0-2.6,1.1-4.3,2.9-4.7c-2.7-0.5-4.6,1.2-4.6,4.7
				c0.3,4.8,2.8,9.1,6.8,11.7c1.2,0.8,2.5,1.1,3.9,0.8C17.9,304.8,17.2,304.5,16.5,304.1z"/>
			
				<ellipse transform="matrix(0.8633 -0.5047 0.5047 0.8633 -159.9587 94.3536)" class="st5" cx="94.2" cy="342.5" rx="5.5" ry="9.6"/>
			
				<linearGradient id="SVGID_30_" gradientUnits="userSpaceOnUse" x1="-2262.6702" y1="10151.126" x2="-2251.96" y2="10151.126" gradientTransform="matrix(1 0 0 1 2350.0801 -9808.6553)">
				<stop  offset="0.1" style="stop-color:#E36559"/>
				<stop  offset="0.24" style="stop-color:#DF6257"/>
				<stop  offset="0.38" style="stop-color:#D35A50"/>
				<stop  offset="0.51" style="stop-color:#C04B44"/>
				<stop  offset="0.65" style="stop-color:#A43734"/>
				<stop  offset="0.79" style="stop-color:#811D1F"/>
				<stop  offset="0.84" style="stop-color:#701115"/>
			</linearGradient>
			<path class="st42" d="M96,350.3c-4-2.6-6.5-7-6.8-11.7c0-2.6,1.1-4.3,2.9-4.7c-2.7-0.5-4.7,1.2-4.7,4.7c0.3,4.8,2.8,9.1,6.8,11.7
				c1.2,0.8,2.5,1.1,3.9,0.8C97.4,351,96.7,350.7,96,350.3z"/>
			<path class="st27" d="M0,294.7V102.8c0-6.4,3.9-9.4,8.7-6.6l92.3,53.3c4.8,2.8,8.7,10.2,8.7,16.7v191.9c0,6.4-3.9,9.4-8.7,6.6
				L8.7,311.4C3.9,308.6,0,301.1,0,294.7z"/>
			<path class="st43" d="M74,205.2l-38.3-22.1c-1.3-0.9-2.1-2.5-2.2-4.1l0,0c0-1.6,1-2.3,2.2-1.6l38.3,22c1.3,1,2.1,2.5,2.2,4.1l0,0
				C76.2,205.1,75.2,205.9,74,205.2z"/>
			<path class="st43" d="M74,218.2l-38.3-22.1c-1.3-0.9-2.1-2.4-2.2-4.1l0,0c0-1.6,1-2.3,2.2-1.6l38.3,22c1.3,1,2.1,2.5,2.2,4.1l0,0
				C76.2,218.1,75.2,218.8,74,218.2z"/>
			<path class="st43" d="M74,231.1l-38.3-22.1c-1.3-1-2.1-2.5-2.2-4.1l0,0c0-1.6,1-2.3,2.2-1.6L74,225.4c1.3,1,2.1,2.5,2.2,4.1l0,0
				C76.2,231.1,75.2,231.8,74,231.1z"/>
			<path class="st43" d="M74,263.5l-38.3-22.1c-1.3-1-2.1-2.5-2.2-4.1l0,0c0-1.6,1-2.3,2.2-1.6L74,257.7c1.3,1,2.1,2.5,2.2,4.1l0,0
				C76.2,263.4,75.2,264.2,74,263.5z"/>
			<path class="st43" d="M74,276.5l-38.3-22.1c-1.3-1-2.1-2.5-2.2-4.1l0,0c0-1.6,1-2.3,2.2-1.6L74,270.7c1.3,1,2.1,2.5,2.2,4.1l0,0
				C76.2,276.4,75.2,277.2,74,276.5z"/>
			<path class="st43" d="M74,289.5l-38.3-22.1c-1.3-1-2.1-2.5-2.2-4.1l0,0c0-1.6,1-2.3,2.2-1.6L74,283.7c1.3,1,2.1,2.5,2.2,4.1l0,0
				C76.2,289.4,75.2,290.2,74,289.5z"/>
			<polygon class="st44" points="60.5,242.7 49.3,236.2 49.3,226.6 60.5,233 			"/>
			
				<ellipse transform="matrix(0.8633 -0.5047 0.5047 0.8633 -56.9912 23.3884)" class="st5" cx="14.7" cy="116.9" rx="5.5" ry="9.6"/>
			
				<ellipse transform="matrix(0.8633 -0.5047 0.5047 0.8633 -69.3014 69.8584)" class="st9" cx="94.3" cy="162.9" rx="5.5" ry="9.6"/>
			
				<ellipse transform="matrix(0.8633 -0.5047 0.5047 0.8633 -147.5279 47.908)" class="st5" cx="14.7" cy="296.3" rx="5.5" ry="9.6"/>
			
				<ellipse transform="matrix(0.8645 -0.5026 0.5026 0.8645 -159.1574 92.705)" class="st5" cx="92.4" cy="341.6" rx="5.5" ry="9.5"/>
			<path class="st5" d="M43.9,133.4c0.1,0.1,0.3,0.1,0.4,0.1c0.1,0,0.2,0,0.3-0.1c0.1-0.1,0.1-0.2,0.2-0.3c0-0.1,0-0.3,0-0.4v-0.1
				l0.5,0.3v0.1c0,0.2,0,0.4-0.1,0.6c-0.1,0.1-0.1,0.3-0.3,0.4c-0.1,0.1-0.3,0.1-0.5,0.1c-0.2,0-0.4-0.1-0.6-0.2
				c-0.5-0.3-0.8-0.7-1.1-1.1c-0.3-0.5-0.4-1.1-0.4-1.7v-1c-0.1-0.4,0.1-0.9,0.4-1.2c0.3-0.2,0.6-0.2,1.1,0.1
				c0.7,0.4,1.2,1.1,1.4,1.9c0.1,0.2,0.1,0.5,0.1,0.7v0.1l-0.5-0.3v-0.1c0-0.2,0-0.3-0.1-0.5c0-0.2-0.1-0.3-0.2-0.5
				c-0.1-0.2-0.2-0.3-0.3-0.4c-0.1-0.1-0.3-0.3-0.4-0.4c-0.3-0.2-0.6-0.2-0.7,0c-0.2,0.3-0.3,0.6-0.2,0.9v1c0,0.4,0.1,0.8,0.2,1.2
				C43.3,132.9,43.6,133.2,43.9,133.4z"/>
			<path class="st5" d="M46.3,130.4l0.5,0.3v4.3l2.2,1.3v0.5l-2.7-1.6V130.4z"/>
			<path class="st5" d="M49.9,132.5l2.7,1.5v0.5l-1.1-0.6v3.7l1.1,0.6v0.5l-2.7-1.5v-0.5l1.1,0.6v-3.8l-1.1-0.6V132.5z"/>
			<path class="st5" d="M53.4,134.5l1,0.6l0.6,4.9H55l0.6-4.2l1,0.6v4.8l-0.5-0.3v-4.6H56l-0.6,4.2l-0.9-0.5L54,135h-0.1v4.6
				l-0.5-0.3L53.4,134.5z"/>
			<path class="st5" d="M59.5,141.6l-1.8-1l-0.3,1l-0.5-0.3l1.3-4.1l0.9,0.6l1.3,5.6l-0.5-0.3L59.5,141.6z M58.6,137.7l-0.7,2.4
				l1.5,0.9L58.6,137.7L58.6,137.7z"/>
			<path class="st5" d="M60.8,138.7l3,1.7v0.5l-1.2-0.7v4.3l-0.5-0.3V140l-1.2-0.7V138.7z"/>
			<path class="st5" d="M64.7,141l2.6,1.5v0.5l-2-1.2v1.6l2,1.1v0.5l-2-1.2v1.6l2.1,1.2v0.5l-2.6-1.5L64.7,141z"/>
			<path class="st5" d="M44.2,137.4l1,0.6l0.6,4.9h0.1l0.6-4.2l1,0.6v4.8l-0.5-0.3v-4.6h-0.1l-0.6,4.2l-0.9-0.5l-0.6-4.9l-0.1-0.1
				v4.6l-0.5-0.3V137.4z"/>
			<path class="st5" d="M48,141.5c-0.1-0.4,0.1-0.9,0.4-1.2c0.3-0.2,0.6-0.2,1.1,0.1c0.5,0.3,0.8,0.7,1.1,1.1
				c0.3,0.5,0.4,1.1,0.4,1.7v1.1c0,0.6-0.1,1.1-0.4,1.2s-0.6,0.1-1.1-0.1c-0.5-0.3-0.8-0.7-1.1-1.1c-0.3-0.5-0.4-1.1-0.4-1.7V141.5z
				 M49.5,144.8c0.3,0.2,0.6,0.2,0.7,0c0.2-0.3,0.3-0.6,0.2-1v-1c0-0.4-0.1-0.8-0.2-1.2c-0.1-0.3-0.4-0.6-0.7-0.8
				c-0.3-0.2-0.6-0.2-0.7,0c-0.2,0.3-0.3,0.6-0.2,0.9v1c0,0.4,0,0.9,0.2,1.3C48.8,144.3,49.1,144.6,49.5,144.8L49.5,144.8z"/>
			<path class="st5" d="M51.7,141.8l1.4,0.8c0.5,0.3,0.9,0.6,1.1,1.1c0.3,0.5,0.4,1,0.4,1.6v1.2c0,0.6-0.1,1-0.4,1.2
				s-0.6,0.1-1.1-0.2l-1.4-0.8V146l0.4,0.2v-3.7l-0.4-0.2V141.8z M53,146.8c0.2,0.1,0.3,0.2,0.5,0.2c0.1,0,0.2,0,0.3,0
				c0.1-0.1,0.2-0.2,0.2-0.3c0-0.2,0.1-0.4,0.1-0.6V145c0-0.2,0-0.4-0.1-0.7c0-0.2-0.1-0.4-0.2-0.5c-0.1-0.2-0.2-0.3-0.3-0.4
				c-0.1-0.1-0.3-0.2-0.5-0.3l-0.4-0.2v3.7L53,146.8z"/>
			<path class="st5" d="M55.8,144.1v3.2c0,0.3,0.1,0.7,0.2,1c0.2,0.3,0.4,0.5,0.7,0.7c0.3,0.2,0.5,0.2,0.7,0.1s0.2-0.4,0.2-0.7v-3.2
				l0.5,0.3v3.2c0,0.6-0.1,0.9-0.4,1.1c-0.4,0.1-0.8,0.1-1.1-0.2c-0.4-0.3-0.8-0.6-1-1.1c-0.3-0.5-0.4-1-0.4-1.5v-3.2L55.8,144.1z"
				/>
			<path class="st5" d="M59.1,146l0.5,0.3v4.3l2.2,1.3v0.5l-2.7-1.6L59.1,146z"/>
			<path class="st5" d="M62.8,148.2l2.5,1.5v0.5l-2-1.2v1.6l2,1.2v0.5l-2-1.2v1.6l2.1,1.2v0.5l-2.6-1.5V148.2z"/>
			<g>
				<defs>
					<path id="SVGID_31_" d="M55,98.6l-6-4.2c-0.5-0.4-1-0.1-1,0.7v15.5c0,0.8,0.4,1.6,1,2.1l6,4.2c0.5,0.4,1,0.1,1-0.7v-15.5
						C56,99.9,55.6,99.1,55,98.6z"/>
				</defs>
				<clipPath id="SVGID_32_">
					<use xlink:href="#SVGID_31_"  style="overflow:visible;"/>
				</clipPath>
				<g class="st45">
					
						<ellipse transform="matrix(0.8633 -0.5047 0.5047 0.8633 -45.8142 38.0382)" class="st4" cx="47.3" cy="103.6" rx="5.5" ry="9.6"/>
				</g>
			</g>
			
				<linearGradient id="SVGID_33_" gradientUnits="userSpaceOnUse" x1="-2309.5701" y1="9912.2441" x2="-2298.8701" y2="9912.2441" gradientTransform="matrix(1 0 0 1 2350.0801 -9808.6553)">
				<stop  offset="0.1" style="stop-color:#E36559"/>
				<stop  offset="0.24" style="stop-color:#DF6257"/>
				<stop  offset="0.38" style="stop-color:#D35A50"/>
				<stop  offset="0.51" style="stop-color:#C04B44"/>
				<stop  offset="0.65" style="stop-color:#A43734"/>
				<stop  offset="0.79" style="stop-color:#811D1F"/>
				<stop  offset="0.84" style="stop-color:#701115"/>
			</linearGradient>
			<path class="st46" d="M49.1,111.4c-4-2.6-6.5-7-6.8-11.7c0-2.6,1.1-4.3,2.9-4.7c-2.7-0.6-4.7,1.2-4.7,4.7
				c0.3,4.8,2.8,9.1,6.8,11.7c1.1,0.8,2.5,1.1,3.9,0.8C50.5,112.1,49.7,111.8,49.1,111.4z"/>
		</g>
	</g>
</g>
</svg>
