<svg xmlns="http://www.w3.org/2000/svg" viewBox="0 0 102.6 57"><defs><style>.cls-1{filter:url(#luminosity-invert);}.cls-2{fill:#ffed00;}.cls-3{mask:url(#mask);}.cls-4{fill:#b3b3b3;}</style><filter id="luminosity-invert" filterUnits="userSpaceOnUse" color-interpolation-filters="sRGB"><feColorMatrix values="-1 0 0 0 1 0 -1 0 0 1 0 0 -1 0 1 0 0 0 1 0"/></filter><mask id="mask" width="102.6" height="57" x="0" y="0" maskUnits="userSpaceOnUse"><g id="g12" class="cls-1"><path id="path4" d="M92.88 23.6a41.9 41.9 0 0 1-2.1 9.86C87.17 44.2 83 50.88 73.26 50.88c-2.86 0-7.94-.77-9.8-5.86l-.45-1.2-.8 1a15.8 15.8 0 0 1-12.38 6.1c-3.7 0-6.7-1.22-8.6-3.6l-.55-.64-.55.62c-2.06 2.3-5.65 3.6-9.85 3.6a10.64 10.64 0 0 1-8-3.16l-.5-.56-.53.54c-2.1 2.1-5.36 3.16-9.47 3.06-5-.12-8.06-2.9-8.15-7.47-.17-7 6.64-21.8 9.47-26.28a8.46 8.46 0 0 1 7.66-4.46c2.3 0 3.84.47 4.76 1.45s1 1.65 1.07 3.46l.1 2.34 1.23-2c3-4.82 7.93-5.47 12.84-5.47 3.4 0 6.37 1.24 7.56 3.18l.44.73.66-.54a15.45 15.45 0 0 1 10-3.34c4.3 0 7.44 1.06 9.3 3.2a5.82 5.82 0 0 1 1.1 1.62l.48 1 .7-.85a13.82 13.82 0 0 1 11.12-4.87c3.66 0 6.43 1 8.26 2.9 2.3 2.4 2.62 5.8 2.5 8.2z" class="cls-2"/><path id="path10" d="M95.26 11.4v-.7h.5c.33 0 .53.12.53.35s-.12.36-.5.36zM97 12.9l-.3-.53c-.25-.45-.32-.52-.55-.6a.73.73 0 0 0 .7-.73c0-.4-.26-.72-.8-.72H94.7v2.58h.54v-1.06h.1c.23 0 .33 0 .42.13a2.22 2.22 0 0 1 .36.5l.2.43H97zm-1.28-3.32a2 2 0 1 1 0 4 2 2 0 0 1 0-4zm0-.5a2.5 2.5 0 0 0 0 5 2.5 2.5 0 0 0 0-5zm-13.6 2.7a14.53 14.53 0 0 0-11.65 5.12 6.8 6.8 0 0 0-1.2-1.8c-2.07-2.33-5.38-3.43-9.84-3.43a16 16 0 0 0-10.5 3.5c-1.3-2.13-4.43-3.53-8.2-3.53-4.88 0-10.24.7-13.43 5.8-.06-1.83-.24-2.8-1.27-3.9-1.26-1.33-3.3-1.7-5.28-1.7a9.16 9.16 0 0 0-8.3 4.8C9.63 21.17 2.73 36.1 2.9 43.33c.1 4.67 3.22 8 8.82 8.17 4.38.1 7.83-1.08 10-3.28a11.36 11.36 0 0 0 8.53 3.38c4 0 8-1.2 10.37-3.82 2 2.45 5.14 3.9 9.18 3.87a16.57 16.57 0 0 0 12.95-6.37c1.67 4.52 5.88 6.32 10.5 6.32 10.08 0 14.52-6.94 18.2-17.92a41.73 41.73 0 0 0 2.13-10.06c.3-5.76-2.13-11.87-11.48-11.87zM15 39.35c5.23-.92 6.54 1 6.37 2.7-.5 5.23-5.3 6.4-9.47 6.3-3-.06-5.73-1.45-5.8-5-.14-6.13 6.13-20.34 9.07-25A6.08 6.08 0 0 1 20.8 15c2.52 0 3.14 1.3 3.1 2.84-.1 4.1-6.74 16.6-8.93 21.5zm17-4.84c-.58 1.63-1.1 3.28-1.5 5a17.13 17.13 0 0 1 5.18-.67c2.5.07 4.1 1.1 4.1 3.17 0 5-5.54 6.5-9.4 6.52-4.24 0-7.96-2.42-7.96-7 0-5.44 2.94-13.67 5.7-19.14 3.4-6.75 6.87-7.63 12.83-7.63 2.62 0 5.64 1.1 5.64 3.6 0 3.42-2.92 4.73-5.8 4.9a38.45 38.45 0 0 1-4.26.06 24.16 24.16 0 0 0-2 4.06c5.34-.76 7.6.45 6.7 3.54C40 35 36.4 35.3 32 34.52zm26.27-13a3.85 3.85 0 0 0-3.1 1.9c-1.54 2.2-4.9 10.9-5.43 14.47-.34 2.44.7 2.93 1.86 2.93 1.86 0 3.94-2 4.66-5.2 0 0-3.55-.08-2.57-3.2s2.74-3.7 5.7-3.83c5.87-.25 5.28 4.08 4.83 6.4-1.54 7.5-6.86 13.5-14.4 13.5-5.17 0-8.4-2.85-8.4-8.1 0-3.77 1.88-9.65 3.36-13.1 3.1-7.3 6.4-12.46 14.78-12.46 5 0 9 1.8 8.42 6.53-.42 3.45-2.15 5.5-5.3 5.72-.9.07-4.48 0-3.3-3.44.44-1.2.6-2.13-1.16-2.13zm31.68 6.2a49.74 49.74 0 0 1-5 13.53c-3.52 6.37-7.82 7.25-11.58 7.2s-8-1.42-8-7.2c0-4.15 1.78-10 3.3-13.85 2.65-7 5.36-12.64 13.92-12.54 10 .1 8.18 9 7.4 12.85zM82.8 23.4c-.1 2.66-4 13.33-5.4 15.68-.6 1-1.26 1.86-2.5 1.86a1.53 1.53 0 0 1-1.57-1.63c-.07-2.4 4.34-14.47 5.86-16.43a2.3 2.3 0 0 1 2.26-1.2c1.26 0 1.37.93 1.34 1.7z"/></g></mask></defs><title>lego</title><g id="Vrstva_2"><path id="Layer_1" d="M0 0h102.6v57H0z" class="cls-4"/></g></svg>