<?xml version="1.0" encoding="utf-8"?>
<!-- Generator: Adobe Illustrator 24.2.1, SVG Export Plug-In . SVG Version: 6.00 Build 0)  -->
<svg version="1.1" id="Layer_1" xmlns="http://www.w3.org/2000/svg" xmlns:xlink="http://www.w3.org/1999/xlink" x="0px" y="0px"
	 viewBox="0 0 28.3 28.3" style="enable-background:new 0 0 28.3 28.3;" xml:space="preserve">
<style type="text/css">
	.st0{fill:#FFFFFF;}
</style>
<g id="Layer_2_1_">
	<g id="Layer_1-2">
		<g id="surface1">
			<path class="st0" d="M3.4,0C1.5,0,0,1.5,0,3.4v21.5c0,1.9,1.5,3.4,3.4,3.4h21.5c1.9,0,3.4-1.5,3.4-3.4V3.4c0-1.9-1.5-3.4-3.4-3.4
				H3.4z M3.4,1.4h21.5c1.1,0,2,0.9,2,2v21.6c0,1.1-0.9,2-2,2H3.4c-1.1,0-2-0.9-2-2V3.4C1.4,2.3,2.2,1.4,3.4,1.4
				C3.4,1.4,3.4,1.3,3.4,1.4z M6.7,4.7c-0.7,0-1.4,0.2-1.9,0.6C4.3,5.8,4.1,6.4,4,7c0.1,1.3,1.2,2.3,2.5,2.3l0,0h0.2
				c1.4,0.1,2.6-0.9,2.7-2.3c0,0,0,0,0,0V7C9.3,5.6,8.1,4.6,6.7,4.7z M6.7,6C7.7,6,8,6.5,8.1,7S7.7,8,6.7,8S5.4,7.6,5.4,7
				c0-0.3,0.1-0.5,0.3-0.7C6,6.1,6.4,6,6.7,6z M4.7,10.1c-0.4,0-0.7,0.3-0.7,0.7l0,0v12.8c0,0.4,0.3,0.7,0.7,0.7c0,0,0,0,0,0h4
				c0.4,0,0.7-0.3,0.7-0.7l0,0V10.8c0-0.4-0.3-0.7-0.7-0.7L4.7,10.1z M10.8,10.1c-0.4,0-0.7,0.3-0.7,0.7v12.8c0,0.4,0.3,0.7,0.7,0.7
				h4c0.4,0,0.7-0.3,0.7-0.7l0,0v-6.7c0-0.5,0.1-1,0.4-1.5c0.3-0.4,0.8-0.6,1.3-0.6c0.5,0,1,0.2,1.3,0.6c0.3,0.4,0.4,0.9,0.4,1.5
				v6.7c0,0.4,0.3,0.7,0.7,0.7c0,0,0,0,0,0h4c0.4,0,0.7-0.3,0.7-0.7l0,0v-7.2c0.1-1.7-0.5-3.4-1.6-4.6c-1-1.1-2.4-1.6-3.9-1.6
				c-1.2,0-2.3,0.4-3.2,1v-0.3c0-0.4-0.3-0.7-0.7-0.7L10.8,10.1z M5.4,11.4h2.7v11.4H5.4V11.4z M11.4,11.4h2.7v1.1
				c0,0.3,0.2,0.5,0.5,0.6c0.3,0.1,0.6,0,0.8-0.2c0.8-1,2.1-1.5,3.4-1.5c1.1,0,2.2,0.4,2.9,1.2c0.9,1,1.3,2.4,1.2,3.7v6.6h-2.7v-6.1
				c0-0.8-0.2-1.6-0.7-2.3c-0.6-0.7-1.4-1.1-2.3-1.1c-0.9,0-1.8,0.4-2.4,1.1c-0.5,0.7-0.7,1.5-0.7,2.3v6.1h-2.7L11.4,11.4z"/>
		</g>
	</g>
</g>
</svg>
