<svg xmlns="http://www.w3.org/2000/svg" width="28.29" height="28.29" viewBox="0 0 28.29 28.29"><defs><style>.cls-1{fill:#7c0030;}</style></defs><title>linkedin</title><g id="Layer_2" data-name="Layer 2"><g id="Layer_1-2" data-name="Layer 1"><g id="surface1"><path class="cls-1" d="M3.37,0A3.38,3.38,0,0,0,0,3.37V24.92a3.38,3.38,0,0,0,3.37,3.37H24.92a3.37,3.37,0,0,0,3.37-3.37V3.37A3.38,3.38,0,0,0,24.92,0Zm0,1.35H24.92a2,2,0,0,1,2,2V24.92a2,2,0,0,1-2,2H3.37a2,2,0,0,1-2-2V3.37A2,2,0,0,1,3.37,1.35ZM6.74,4.72a2.89,2.89,0,0,0-1.9.64,2.21,2.21,0,0,0-.79,1.69A2.49,2.49,0,0,0,6.53,9.39h0l.21,0A2.51,2.51,0,0,0,9.42,7.05V7A2.56,2.56,0,0,0,6.74,4.72Zm0,1.33c.93,0,1.3.42,1.34,1s-.36,1-1.34,1-1.36-.48-1.36-1a.81.81,0,0,1,.32-.67A1.55,1.55,0,0,1,6.74,6.05Zm-2,4.05a.68.68,0,0,0-.68.68v12.8a.67.67,0,0,0,.68.67h4a.67.67,0,0,0,.67-.67V10.78a.68.68,0,0,0-.67-.68Zm6.06,0a.69.69,0,0,0-.68.68v12.8a.68.68,0,0,0,.68.67h4a.67.67,0,0,0,.67-.67V16.84a2.66,2.66,0,0,1,.42-1.48,1.37,1.37,0,0,1,1.26-.57,1.46,1.46,0,0,1,1.28.6,2.51,2.51,0,0,1,.41,1.45v6.74a.67.67,0,0,0,.68.67h4a.67.67,0,0,0,.67-.67V16.34a6.59,6.59,0,0,0-1.6-4.64,5.31,5.31,0,0,0-3.91-1.6,5.94,5.94,0,0,0-3.25,1v-.28a.68.68,0,0,0-.67-.68ZM5.39,11.45H8.08V22.9H5.39Zm6.06,0h2.7V12.5a.67.67,0,0,0,.46.64.68.68,0,0,0,.75-.23,4.24,4.24,0,0,1,3.38-1.46,3.87,3.87,0,0,1,2.93,1.18,5.2,5.2,0,0,1,1.23,3.71V22.9H20.21V16.84a3.76,3.76,0,0,0-.68-2.26,2.94,2.94,0,0,0-2.34-1.14,2.87,2.87,0,0,0-2.36,1.12,3.84,3.84,0,0,0-.68,2.28V22.9h-2.7Z"/></g></g></g></svg>