<svg width="250" height="62" xmlns="http://www.w3.org/2000/svg"><defs><style>.cls-1{fill:#414042;}.cls-2{fill:#e15148;}.cls-3{fill:#414042;}</style></defs><title>Asset 2</title><g id="Layer_2" data-name="Layer 2"><g id="Vrstva_1" data-name="Vrstva 1"><path class="cls-1" d="M14.42,81V64.05l57-19.11a3.52,3.52,0,0,0,2.4-3.33V21.2a10.9,10.9,0,1,0-7,0V39.07l-57,19.11a3.52,3.52,0,0,0-2.4,3.34V81a10.89,10.89,0,1,0,7,0ZM70.34,7a3.85,3.85,0,0,1,3.85,3.86,3.91,3.91,0,0,1-.33,1.57,3.86,3.86,0,0,1-7,0,3.75,3.75,0,0,1-.34-1.57A3.86,3.86,0,0,1,70.34,7ZM7,91.27a3.8,3.8,0,0,1,.34-1.58,3.86,3.86,0,0,1,7,0,4,4,0,0,1,.33,1.58,3.86,3.86,0,0,1-7.71,0Z"/><path class="cls-2" d="M7.38,21.2v19a3.53,3.53,0,0,0,1.46,2.86,3.58,3.58,0,0,0,2.06.66A3.64,3.64,0,0,0,12,43.54l20-6.69a10.88,10.88,0,1,0-2.25-6.67l-15.3,5.13V21.2a10.9,10.9,0,1,0-7,0Zm33.24,5.18a3.86,3.86,0,0,1,0,7.72l-.38,0a3.86,3.86,0,0,1,.38-7.7ZM14.75,10.9a3.91,3.91,0,0,1-.33,1.57,3.86,3.86,0,0,1-7,0A3.75,3.75,0,0,1,7,10.9a3.86,3.86,0,1,1,7.71,0Z"/><path class="cls-2" d="M73.86,81v-18a3.53,3.53,0,0,0-4.64-3.34l-20,6.69A10.88,10.88,0,1,0,51.51,73l15.31-5.13V81a10.89,10.89,0,1,0,7,0ZM40.62,76.74a3.86,3.86,0,1,1,0-7.71l.37,0a3.85,3.85,0,0,1-.37,7.69ZM66.48,91.27a3.8,3.8,0,0,1,.34-1.58,3.86,3.86,0,0,1,7,0,4,4,0,0,1,.33,1.58,3.86,3.86,0,0,1-7.71,0Z"/><path class="cls-3" d="M133.17,35.24a3.47,3.47,0,0,0-2.39.8,2.5,2.5,0,0,0-.9,1.89V48.41H117.3V37.93a2.51,2.51,0,0,0-.88-1.88,3.19,3.19,0,0,0-2.27-.81,3.48,3.48,0,0,0-2.36.8,2.48,2.48,0,0,0-.94,1.89V64.28a2.5,2.5,0,0,0,.94,1.89,3.48,3.48,0,0,0,2.36.8,3.23,3.23,0,0,0,2.27-.81,2.51,2.51,0,0,0,.88-1.88V54.35h12.58v9.93a2.5,2.5,0,0,0,.9,1.88,3.47,3.47,0,0,0,2.39.81,3.28,3.28,0,0,0,2.25-.81,2.5,2.5,0,0,0,.9-1.88V37.93a2.5,2.5,0,0,0-.91-1.89A3.23,3.23,0,0,0,133.17,35.24Z"/><path class="cls-3" d="M205.81,52.63a7.56,7.56,0,0,0,3.57-2.72,7.88,7.88,0,0,0,1.17-4.35v-.32a11.32,11.32,0,0,0-.63-3.88,7.61,7.61,0,0,0-2.07-3,9.45,9.45,0,0,0-3.71-1.94,19.2,19.2,0,0,0-5.45-.68H190.1a3.48,3.48,0,0,0-2.36.8,2.49,2.49,0,0,0-.93,1.89V64.14a2.69,2.69,0,0,0,.92,1.94,3.25,3.25,0,0,0,2.37.89,3.32,3.32,0,0,0,2.26-.76,2.37,2.37,0,0,0,.89-1.84V54.82h6.33l.49,0,5.09,10.9a2.61,2.61,0,0,0,1.7,1.18,2.93,2.93,0,0,0,.78.1,3.52,3.52,0,0,0,1.6-.41,3.78,3.78,0,0,0,1.65-1.85,2,2,0,0,0-.17-2.06Zm-1.7-7.49V46a2.85,2.85,0,0,1-1.18,2.35,7.1,7.1,0,0,1-4.24,1h-5.44v-8h5.44a6.72,6.72,0,0,1,4.22,1A3.32,3.32,0,0,1,204.11,45.14Z"/><path class="cls-3" d="M243.75,39.57a11.25,11.25,0,0,0-4-2.82,14.41,14.41,0,0,0-5.69-1h-8a3.41,3.41,0,0,0-2.39.81,2.5,2.5,0,0,0-.91,1.88V63.81a2.52,2.52,0,0,0,.91,1.89,3.45,3.45,0,0,0,2.39.8h8a15.31,15.31,0,0,0,5.68-1,10.58,10.58,0,0,0,6.37-6.68,15.7,15.7,0,0,0,.74-4.86V48.82a17.06,17.06,0,0,0-.74-5.06A11.33,11.33,0,0,0,243.75,39.57Zm-3.37,8.79V54.5A5.86,5.86,0,0,1,238.73,59,6.71,6.71,0,0,1,234,60.56h-4.88V41.64H234a6.09,6.09,0,0,1,4.67,1.75A7,7,0,0,1,240.38,48.36Z"/><path class="cls-3" d="M326,37.47s-.83-2.18-4.42-2.18-4.42,2.24-4.42,2.24l-9.13,25.81a2.44,2.44,0,0,0,.36,2.06,3.29,3.29,0,0,0,2.1,1.41,3.75,3.75,0,0,0,.92.12,3.14,3.14,0,0,0,1.45-.35A2.75,2.75,0,0,0,314.33,65l1.8-5.09h11L329,65a2.55,2.55,0,0,0,1.39,1.56,3.43,3.43,0,0,0,2.43.22,3.22,3.22,0,0,0,2.07-1.41,2.56,2.56,0,0,0,.32-2.08Zm-.84,16.9H318.1l3.51-10.12Z"/><path class="cls-3" d="M365.83,52.63a7.65,7.65,0,0,0,3.58-2.72,7.88,7.88,0,0,0,1.17-4.35v-.32a11.36,11.36,0,0,0-.63-3.88,7.64,7.64,0,0,0-2.07-3,9.59,9.59,0,0,0-3.71-1.94,37.26,37.26,0,0,0-7.48-.68h-6.56a3.46,3.46,0,0,0-2.36.8,2.5,2.5,0,0,0-.94,1.89V64.14a2.69,2.69,0,0,0,.92,1.94,3.29,3.29,0,0,0,2.38.89,3.34,3.34,0,0,0,2.26-.76,2.37,2.37,0,0,0,.89-1.84V54.82h6.32l.49,0,5.09,10.9a2.66,2.66,0,0,0,1.7,1.18,3,3,0,0,0,.78.1,3.56,3.56,0,0,0,1.61-.41,3.83,3.83,0,0,0,1.65-1.85,2,2,0,0,0-.18-2.06Zm-1.7-7.49V46A2.82,2.82,0,0,1,363,48.38a7.07,7.07,0,0,1-4.23,1h-5.44v-8h5.44a6.72,6.72,0,0,1,4.22,1A3.34,3.34,0,0,1,364.13,45.14Z"/><path class="cls-1" d="M386,35.24a3.43,3.43,0,0,0-2.38.8,2.48,2.48,0,0,0-.91,1.89v26.3a2.46,2.46,0,0,0,.91,1.88,3.4,3.4,0,0,0,2.38.81,3.24,3.24,0,0,0,2.25-.81,2.5,2.5,0,0,0,.91-1.88V37.93a2.53,2.53,0,0,0-.91-1.89A3.26,3.26,0,0,0,386,35.24Z"/><path class="cls-1" d="M426.66,42.92a10.49,10.49,0,0,0-6.13-6.71,22.06,22.06,0,0,0-12.94,0,10.56,10.56,0,0,0-3.83,2.69,11,11,0,0,0-2.24,4,16.3,16.3,0,0,0-.72,4.92v6.52a16.26,16.26,0,0,0,.72,4.92,10.92,10.92,0,0,0,2.24,4,10.58,10.58,0,0,0,3.83,2.7,22.06,22.06,0,0,0,12.94,0,10.47,10.47,0,0,0,6.13-6.72,16.26,16.26,0,0,0,.72-4.92V47.84A16.3,16.3,0,0,0,426.66,42.92ZM414,60.93c-1.81,0-4.28-.49-5.33-1.46s-1.56-2.67-1.56-5.06V47.84c0-2.39.53-4.09,1.56-5.05s3.52-1.47,5.33-1.47,4.36.49,5.37,1.46,1.52,2.67,1.52,5.06v6.57c0,2.39-.51,4.09-1.52,5.06S415.91,60.93,414,60.93Z"/><path class="cls-3" d="M299.64,37a3.17,3.17,0,0,0-1.82-1.64,3.17,3.17,0,0,0-4.06,2l-5.9,16.82L282,37.31a3.29,3.29,0,0,0-3-2.13,3.17,3.17,0,0,0-3,2.13L270,54.16l-5.91-16.84a3.25,3.25,0,0,0-1.64-1.82,3.13,3.13,0,0,0-2.44-.13A3.17,3.17,0,0,0,258.26,37a3.11,3.11,0,0,0-.14,2.43L267,64.8a3.18,3.18,0,0,0,6,0L279,48l5.89,16.79a3.18,3.18,0,0,0,6,.06l8.92-25.4A3.11,3.11,0,0,0,299.64,37Z"/><path class="cls-3" d="M166,37.45s-.83-2.19-4.42-2.19-4.42,2.24-4.42,2.24L148,63.32a2.45,2.45,0,0,0,.35,2.05,3.31,3.31,0,0,0,2.1,1.41,3.83,3.83,0,0,0,.93.12,3.09,3.09,0,0,0,1.44-.34A2.75,2.75,0,0,0,154.3,65l1.8-5.1h11l1.78,5a2.55,2.55,0,0,0,1.39,1.56,3.38,3.38,0,0,0,2.43.22,3.22,3.22,0,0,0,2.07-1.41,2.47,2.47,0,0,0,.32-2.07Zm-.84,16.89h-7.1l3.52-10.12Z"/></g></g></svg>
