<svg xmlns="http://www.w3.org/2000/svg" xmlns:xlink="http://www.w3.org/1999/xlink" viewBox="0 0 213.84 296.11"><defs><style>.cls-1{isolation:isolate;}.cls-2,.cls-5{fill-opacity:0.06;}.cls-2,.cls-3,.cls-4,.cls-5,.cls-6,.cls-7{fill-rule:evenodd;}.cls-2{fill:url(#linear-gradient);}.cls-3,.cls-6{fill-opacity:0.09;}.cls-3{fill:url(#linear-gradient-2);}.cls-4{fill:#f2f2f2;}.cls-5{fill:url(#linear-gradient-3);}.cls-6{fill:url(#linear-gradient-4);}.cls-15,.cls-25,.cls-31,.cls-33,.cls-7{fill:#fff;}.cls-8{fill:#e26558;}.cls-9{fill:#e0341b;}.cls-10{fill:#a8190a;}.cls-11{opacity:0.5;mix-blend-mode:multiply;fill:url(#radial-gradient);}.cls-12{fill:none;stroke:#e2887f;stroke-miterlimit:10;stroke-width:0.55px;}.cls-13{fill:url(#linear-gradient-5);}.cls-14{fill:url(#linear-gradient-6);}.cls-15{opacity:0.2;}.cls-16{opacity:0.4;fill:url(#linear-gradient-7);}.cls-17{opacity:0.33;fill:url(#linear-gradient-8);}.cls-18{opacity:0.25;fill:url(#linear-gradient-9);}.cls-19{opacity:0.18;fill:url(#linear-gradient-10);}.cls-20{opacity:0.1;fill:url(#linear-gradient-11);}.cls-21{fill:url(#linear-gradient-12);}.cls-22{fill:url(#linear-gradient-13);}.cls-23{fill:url(#linear-gradient-14);}.cls-24{fill:url(#linear-gradient-15);}.cls-25,.cls-27{font-size:4.81px;font-family:SpaceMono-Regular, SpaceMono Regular;}.cls-26{letter-spacing:0em;}.cls-27{fill:#ef928b;}.cls-28{fill:url(#linear-gradient-16);}.cls-29{fill:url(#linear-gradient-17);}.cls-30{fill:#e2887f;}.cls-31,.cls-32{opacity:0.8;}</style><linearGradient id="linear-gradient" x1="-3445.39" x2="-3445.37" y1="1654.82" y2="1654.33" gradientTransform="matrix(-152 0 0 -167 -523540.61 276518.85)" gradientUnits="userSpaceOnUse"><stop offset=".04" stop-color="#1a1a1a"/><stop offset=".97" stop-color="#999" stop-opacity="0"/></linearGradient><linearGradient id="linear-gradient-2" x1="-3402.04" x2="-3401.67" y1="1655.13" y2="1654.78" gradientTransform="matrix(-72 0 0 -156 -244804.47 258354.39)" gradientUnits="userSpaceOnUse"><stop offset="0" stop-color="#333"/><stop offset=".14" stop-color="#454545" stop-opacity=".82"/><stop offset=".66" stop-color="#828282" stop-opacity=".23"/><stop offset=".95" stop-color="#999" stop-opacity="0"/></linearGradient><linearGradient id="linear-gradient-3" x1="-3445.14" x2="-3445.13" y1="1654.37" y2="1654.04" xlink:href="#linear-gradient"/><linearGradient id="linear-gradient-4" x1="-3401.58" x2="-3401.33" y1="1654.63" y2="1654.39" xlink:href="#linear-gradient-2"/><radialGradient id="radial-gradient" cx="2567.48" cy="129.3" r="31.75" gradientTransform="matrix(-1 0 0 .45 2724.85 71.23)" gradientUnits="userSpaceOnUse"><stop offset="0" stop-color="#d3d3d3"/><stop offset=".07" stop-color="#d8d8d8"/><stop offset=".39" stop-color="#eee"/><stop offset=".71" stop-color="#fbfbfb"/><stop offset="1" stop-color="#fff"/></radialGradient><linearGradient id="linear-gradient-5" x1="2593.22" x2="2645.29" y1="95.47" y2="95.47" gradientTransform="matrix(-1 0 0 1 2724.85 0)" gradientUnits="userSpaceOnUse"><stop offset=".03" stop-color="#e26558"/><stop offset=".21" stop-color="#e0341b"/><stop offset="1" stop-color="#ba210f"/></linearGradient><linearGradient id="linear-gradient-6" x1="-2875.47" x2="-2831.49" y1="1.86" y2="1.86" gradientTransform="matrix(1 .01 .01 -1 2959.03 46.93)" gradientUnits="userSpaceOnUse"><stop offset=".04" stop-color="#999"/><stop offset=".97" stop-color="#e6e6e6"/></linearGradient><linearGradient id="linear-gradient-7" x1="941.69" x2="974.78" y1="2073.56" y2="2073.56" gradientTransform="matrix(.86 -.5 -.5 -.86 324.67 2435.96)" gradientUnits="userSpaceOnUse"><stop offset="0" stop-color="#e26558"/><stop offset="1" stop-color="#e0341b"/></linearGradient><linearGradient id="linear-gradient-8" x1="932.33" x2="959.33" y1="2080.72" y2="2080.72" gradientTransform="matrix(.86 -.5 -.5 -.86 338.99 2450.21)" xlink:href="#linear-gradient-7"/><linearGradient id="linear-gradient-9" x1="924.7" x2="945.63" y1="2086.88" y2="2086.88" gradientTransform="matrix(.86 -.5 -.5 -.86 351.3 2462.45)" xlink:href="#linear-gradient-7"/><linearGradient id="linear-gradient-10" x1="919.85" x2="934.69" y1="2091.43" y2="2091.43" gradientTransform="matrix(.86 -.5 -.5 -.86 360.41 2471.52)" xlink:href="#linear-gradient-7"/><linearGradient id="linear-gradient-11" x1="916.39" x2="925.15" y1="2095.19" y2="2095.19" gradientTransform="matrix(.86 -.5 -.5 -.86 367.92 2478.98)" xlink:href="#linear-gradient-7"/><linearGradient id="linear-gradient-12" x1="2639.68" x2="2691.74" y1="122.3" y2="122.3" xlink:href="#linear-gradient-5"/><linearGradient id="linear-gradient-13" x1="-2921.93" x2="-2877.95" y1="-24.98" y2="-24.98" gradientTransform="matrix(1 .01 .01 -1 2959.17 47.18)" xlink:href="#linear-gradient-6"/><linearGradient id="linear-gradient-14" x1="2672.32" x2="2659.1" y1="52.83" y2="52.83" gradientTransform="matrix(-1 0 0 1 2724.85 0)" xlink:href="#linear-gradient-6"/><linearGradient id="linear-gradient-15" x1="2659.91" x2="2671.51" y1="-17.46" y2="-17.46" gradientTransform="translate(91.06 2714.49) rotate(-90.31)" xlink:href="#linear-gradient-6"/><linearGradient id="linear-gradient-16" x1="2705.43" x2="2721.67" y1="144.62" y2="144.62" xlink:href="#linear-gradient-5"/><linearGradient id="linear-gradient-17" x1="-3454.94" x2="-3438.71" y1="-847.55" y2="-847.55" gradientTransform="matrix(.01 1 1 -.01 877.53 3570.18)" xlink:href="#linear-gradient-5"/></defs><title>lowpower</title><g class="cls-1"><g id="Vrstva_2"><g id="Layer_1"><path d="M213.84 124.38l-112.93 4.1v120h112.94z" class="cls-2"/><path d="M154.4 124.38l-53.5 3.82v112.08h53.5z" class="cls-3"/><path d="M158.44 95.3L102 128c-1.6.93-1.4 2.54.45 3.6l47.63 27.6a6.94 6.94 0 0 0 6.24.25l56.45-32.68c1.6-.93 1.4-2.55-.45-3.6l-47.64-27.62a6.9 6.9 0 0 0-6.24-.26z" class="cls-4"/><path d="M157.68 212.28L81.38 215v81.07h76.3z" class="cls-5"/><path d="M117.52 212.28l-36.14 2.58v75.73h36.14z" class="cls-6"/><path d="M120.25 192.62L82.1 214.7c-1.08.63-.94 1.72.3 2.44l32.2 18.64a4.68 4.68 0 0 0 4.2.17l38.2-22.08c1.08-.63.94-1.72-.3-2.44l-32.24-18.63a4.63 4.63 0 0 0-4.2-.18z" class="cls-7"/><path d="M153.06 118.78l18.97-35.1-18.97-10.96v46.06z" class="cls-8"/><path d="M158.32 69.64L177.3 80.6l-5.27 3.03-18.97-10.95 5.26-3.04z" class="cls-9"/><path d="M172.03 83.67l5.26-3.08-18.98 34.94-5.26 3.24 18.97-35.1zM156.93 29.24l5.26-3.07.1 45.6-5.27 3.24-.1-45.76z" class="cls-10"/><path d="M157.03 28.94l-18.97 35.12L157.03 75V28.95z" class="cls-8"/><ellipse cx="157.38" cy="129.3" class="cls-11" rx="37.85" ry="24.16"/><path d="M11.13 172.82v66.06c0 16.2 9.85 23.65 22 16.64l3.43-2c12.14-7 22-25.84 22-42v-65.86" class="cls-12"/><path d="M.27 111.3c0-1.56 1.1-3.12 3.18-4.32a16.88 16.88 0 0 1 15.3 0c2.07 1.2 3.12 2.77 3.13 4.36V166c0 1.6-1.06 3.22-3.2 4.45a16.86 16.86 0 0 1-15.27 0C1.3 169.27.25 167.65.3 166z" class="cls-12"/><path d="M79.57 29.44c.1-3.78 2.67-7.54 7.67-10.43 10.2-5.88 26.68-5.9 36.82-.06 5 2.9 7.53 6.7 7.56 10.5V161.2c0 3.88-2.54 7.76-7.68 10.73-10.2 5.9-26.68 5.92-36.8.06-5.16-3-7.67-6.9-7.57-10.8z" class="cls-13"/><ellipse cx="105.6" cy="29.6" class="cls-14" rx="21.99" ry="12.7" transform="translate(-.16 .57) rotate(-.31)"/><path d="M82.8 66c-.28-3.6 1.93-7.24 6.67-10 9-5.18 23.55-5.15 32.57.06 4.5 2.6 6.78 6 6.8 9.4v94.14c.1 3.46-2.13 6.92-6.7 9.55-9 5.18-23.53 5.15-32.55-.06-4.82-2.78-7.08-6.47-6.78-10.1z" class="cls-15"/><ellipse cx="105.81" cy="65.45" class="cls-15" rx="13.3" ry="23.03" transform="matrix(.01 -1 1 .01 39.79 170.9)"/><ellipse cx="105.41" cy="162.25" class="cls-16" rx="13.47" ry="23.33" transform="translate(-57.41 266.78) rotate(-89.69)"/><ellipse cx="105.41" cy="176.57" class="cls-17" rx="10.99" ry="19.04" transform="translate(-71.73 281.02) rotate(-89.69)"/><ellipse cx="105.41" cy="188.88" class="cls-18" rx="8.52" ry="14.75" transform="translate(-84.04 293.26) rotate(-89.69)"/><ellipse cx="105.41" cy="197.99" class="cls-19" rx="6.04" ry="10.46" transform="translate(-93.15 302.33) rotate(-89.69)"/><ellipse cx="105.41" cy="205.5" class="cls-20" rx="3.56" ry="6.17" transform="translate(-100.66 309.8) rotate(-89.69)"/><path d="M33.1 56.27c.12-3.77 2.68-7.54 7.68-10.43C51 40 67.48 39.94 77.6 45.78c5 2.9 7.54 6.7 7.57 10.5V188c0 3.87-2.54 7.76-7.68 10.72-10.2 5.9-26.7 5.92-36.82.07-5.15-3-7.66-6.9-7.56-10.8z" class="cls-21"/><ellipse cx="59.14" cy="56.44" class="cls-22" rx="21.99" ry="12.7" transform="translate(-.31 .32) rotate(-.31)"/><path d="M52.54 49.46a3.2 3.2 0 0 1 1.92-2.78 10.3 10.3 0 0 1 9.34 0 3.3 3.3 0 0 1 2 2.76v6.8a3.3 3.3 0 0 1-2 2.7 10.32 10.32 0 0 1-9.34 0 3.22 3.22 0 0 1-1.92-2.7v-6.78z" class="cls-23"/><ellipse cx="59.15" cy="48.92" class="cls-24" rx="3.35" ry="5.8" transform="translate(9.91 107.8) rotate(-89.69)"/><path d="M58.55 50.26V25.42c0-22.17-9.85-29.6-22-22.6l-3.43 2c-12.15 7-22 25.83-22 42v62.83" class="cls-12"/><text class="cls-25" transform="matrix(0 -.99 -.87 -.5 40.4 183.88)">AAA HR03 1.2V 900m<tspan x="42.54" y="0" class="cls-26">A</tspan><tspan x="45.47" y="0">h</tspan></text><text class="cls-27" transform="matrix(0 .99 .87 .5 90.73 106.72)">AAA HR03 1.2V 900m<tspan x="42.54" y="0" class="cls-26">A</tspan><tspan x="45.47" y="0">h</tspan></text><path d="M36.75 92.42c-.3-3.6 1.93-7.23 6.67-10 9-5.18 23.54-5.15 32.56.06 4.5 2.6 6.78 6 6.8 9.4V186c.1 3.45-2.13 6.92-6.68 9.55-9 5.17-23.55 5.15-32.57-.06-4.8-2.8-7.07-6.48-6.77-10.1z" class="cls-15"/><ellipse cx="59.75" cy="91.88" class="cls-15" rx="13.3" ry="23.03" transform="matrix(.01 -1 1 .01 -32.45 151.13)"/><path d="M3.2 128.2c-.1-1.28.67-2.56 2.34-3.52a12.66 12.66 0 0 1 11.48 0c1.6.9 2.4 2.1 2.4 3.3v33.2c0 1.2-.76 2.43-2.36 3.36a12.7 12.7 0 0 1-11.48 0c-1.7-1-2.5-2.27-2.4-3.55z" class="cls-28"/><ellipse cx="11.3" cy="128" class="cls-29" rx="4.69" ry="8.12" transform="translate(-116.76 138.6) rotate(-89.69)"/><ellipse cx="11.3" cy="110.38" class="cls-30" rx="1.96" ry="3.39" transform="translate(-99.14 121.08) rotate(-89.69)"/><path d="M82.68 80.6l-5.37 3.1v6.17l-2.23 1.3V85l-5.38 3.1v-2.57l5.37-3.1v-6.17L77.3 75v6.17L82.7 78zM116.15 155.5l5.38-3.1v-6.16l2.23-1.3v6.17l5.38-3.1v2.58l-5.38 3.1v6.17l-2.23 1.3V155l-5.38 3.1zM118 53.52l9.32-5.4v2.58L118 56.08z" class="cls-31"/><path d="M80.87 182.6l-9.32 5.4v-2.56l9.32-5.44z" class="cls-33"/></g></g></g></svg>