<svg xmlns="http://www.w3.org/2000/svg" xmlns:xlink="http://www.w3.org/1999/xlink" viewBox="0 0 141.25 219.64"><defs><style>.cls-1{fill:none;}.cls-2{isolation:isolate;}.cls-3{opacity:0.8;mix-blend-mode:multiply;fill:url(#radial-gradient);}.cls-4{fill:url(#linear-gradient);}.cls-5{fill:url(#linear-gradient-2);}.cls-6{fill:#2a2935;}.cls-7{fill:#424251;}.cls-8{fill:url(#linear-gradient-3);}.cls-9{fill:url(#linear-gradient-4);}.cls-10{fill:url(#linear-gradient-5);}.cls-11{fill:url(#linear-gradient-6);}.cls-12{fill:#ad1000;}.cls-13{fill:url(#linear-gradient-7);}.cls-14{fill:url(#linear-gradient-8);}.cls-15{clip-path:url(#clip-path);}.cls-16{fill:#dc1c00;}.cls-17{fill:url(#linear-gradient-9);}.cls-18{fill:url(#linear-gradient-10);}.cls-19{fill:url(#linear-gradient-11);}.cls-20{fill:url(#linear-gradient-12);}.cls-21{fill:url(#linear-gradient-13);}.cls-22{fill:url(#linear-gradient-14);}.cls-23{fill:url(#linear-gradient-15);}.cls-24{fill:url(#linear-gradient-16);}.cls-25{fill:#dd4a3b;}.cls-26{fill:url(#linear-gradient-17);}.cls-27{fill:url(#linear-gradient-18);}.cls-28{fill:url(#linear-gradient-19);}.cls-29{fill:url(#linear-gradient-20);}.cls-30{fill:#df665c;}.cls-31{fill:#e95e4b;}.cls-32{fill:url(#linear-gradient-21);}.cls-33{fill:url(#linear-gradient-22);}</style><radialGradient id="radial-gradient" cx="-385.93" cy="183.86" r="57.01" gradientTransform="matrix(.01 1 -.64 0 181.55 569.15)" gradientUnits="userSpaceOnUse"><stop offset="0" stop-color="#826a6a"/><stop offset=".03" stop-color="#999"/><stop offset="1" stop-color="#fff"/></radialGradient><linearGradient id="linear-gradient" x1="13.56" x2="88.46" y1="176.01" y2="176.01" gradientUnits="userSpaceOnUse"><stop offset=".04" stop-color="#999"/><stop offset=".97" stop-color="#e6e6e6"/></linearGradient><linearGradient id="linear-gradient-2" x1="13.55" x2="88.46" y1="171.55" y2="171.55" gradientUnits="userSpaceOnUse"><stop offset=".03" stop-color="#e6e6e6"/><stop offset=".96" stop-color="#999"/></linearGradient><linearGradient id="linear-gradient-3" x1="15.1" x2="86.91" y1="148.07" y2="148.07" xlink:href="#linear-gradient"/><linearGradient id="linear-gradient-4" x1="15.1" x2="86.91" y1="145.65" y2="145.65" xlink:href="#linear-gradient-2"/><linearGradient id="linear-gradient-5" x1="26.87" x2="75.59" y1="132.38" y2="132.38" gradientUnits="userSpaceOnUse"><stop offset="0" stop-color="#a8190a"/><stop offset="1" stop-color="#e0341b"/></linearGradient><linearGradient id="linear-gradient-6" x1="29.23" x2="73.24" y1="119.05" y2="119.05" gradientUnits="userSpaceOnUse"><stop offset="0" stop-color="#e0341b"/><stop offset="1" stop-color="#e26558"/></linearGradient><linearGradient id="linear-gradient-7" x1="29.28" x2="99.33" y1="75.54" y2="75.54" xlink:href="#linear-gradient-6"/><linearGradient id="linear-gradient-8" x1="24.84" x2="94.89" y1="78.18" y2="78.18" xlink:href="#linear-gradient-5"/><clipPath id="clip-path"><path d="M92.88 114.1l-47.7-82.6c-.73-4.67-4-9.75-7.87-12-4.43-2.56-8-.48-8 4.64 0 4.77 3.12 10.5 7.13 13.33l46.92 81.27c.45 4.9 3.85 10.44 8 12.83 4.43 2.56 8 .48 8-4.64-.02-4.5-2.8-9.85-6.47-12.82z" class="cls-1"/></clipPath><linearGradient id="linear-gradient-9" x1="55.32" x2="98.48" y1="136.11" y2="136.11" xlink:href="#linear-gradient-6"/><linearGradient id="linear-gradient-10" x1="55.32" x2="79.59" y1="141.53" y2="141.53" xlink:href="#linear-gradient-5"/><linearGradient id="linear-gradient-11" x1="4.63" x2="43.07" y1="36.65" y2="36.65" gradientUnits="userSpaceOnUse"><stop offset="0" stop-color="#a8190a"/><stop offset=".81" stop-color="#e0341b"/></linearGradient><linearGradient id="linear-gradient-12" x1="2.57" x2="77.07" y1="89.9" y2="89.9" xlink:href="#linear-gradient-6"/><linearGradient id="linear-gradient-13" x1="2.57" x2="72.63" y1="91.22" y2="91.22" xlink:href="#linear-gradient-5"/><linearGradient id="linear-gradient-14" x1="4.53" x2="58.76" y1="28.87" y2="28.87" xlink:href="#linear-gradient-6"/><linearGradient id="linear-gradient-15" x1="22.79" x2="22.79" y1="57.74" y2="10.39" xlink:href="#linear-gradient-5"/><linearGradient id="linear-gradient-16" x1="57.12" x2="66.72" y1="40.39" y2="48.45" gradientTransform="translate(69.43 -31.41) rotate(60)" xlink:href="#linear-gradient-5"/><linearGradient id="linear-gradient-17" x1="56.11" x2="128.58" y1="62.27" y2="62.27" xlink:href="#linear-gradient-6"/><linearGradient id="linear-gradient-18" x1="92.08" x2="92.08" y1="89.11" y2="41.52" xlink:href="#linear-gradient-5"/><linearGradient id="linear-gradient-19" x1="116.9" x2="128.58" y1="79.96" y2="79.96" gradientUnits="userSpaceOnUse"><stop offset="0" stop-color="#a8190a"/><stop offset=".82" stop-color="#e0341b"/></linearGradient><linearGradient id="linear-gradient-20" x1="123.72" x2="131.38" y1="82.94" y2="82.94" xlink:href="#linear-gradient-6"/><linearGradient id="linear-gradient-21" x1="125.16" x2="131.38" y1="83.36" y2="83.36" xlink:href="#linear-gradient-19"/><linearGradient id="linear-gradient-22" x1="138.4" x2="141.25" y1="90.13" y2="90.13" xlink:href="#linear-gradient-19"/></defs><title>manufacturing</title><g class="cls-2"><g id="Vrstva_2"><g id="Layer_1"><ellipse cx="61.97" cy="183.86" class="cls-3" rx="35.78" ry="61.97" transform="translate(-122.23 244.83) rotate(-89.69)"/><path d="M88.46 171.65c0-5.57-3.6-11.14-11-15.4-14.63-8.43-38.34-8.43-53 0-7.35 4.26-11 9.83-11 15.4v8.72c-.05 5.57 3.6 11.14 11 15.4 14.63 8.44 38.34 8.44 53 0 7.36-4.26 11-9.83 11-15.4z" class="cls-4"/><ellipse cx="51.01" cy="171.55" class="cls-5" rx="37.45" ry="21.62"/><ellipse cx="51.01" cy="165.25" class="cls-6" rx="33.18" ry="19.16"/><ellipse cx="51.01" cy="154.76" class="cls-7" rx="35.91" ry="20.73"/><path d="M86.9 145.73c0-5.33-3.46-10.67-10.5-14.74-14-8.1-36.76-8.1-50.78 0-7 4.06-10.55 9.4-10.52 14.73v4.68c0 5.34 3.47 10.68 10.52 14.75 14 8.1 36.76 8.1 50.78 0 7-4.07 10.55-9.4 10.5-14.74z" class="cls-8"/><ellipse cx="51.01" cy="145.65" class="cls-9" rx="35.91" ry="20.73"/><path d="M75.55 144.47c0-.15-2.3-24.76-2.32-24.9-.08-1.8-1.3-3.6-3.7-5L59 108.5c-4.95-2.87-13-2.87-17.94 0l-8.1 4.66c-2.38 1.38-3.6 3.17-3.7 5 0 .15-2.3 24.6-2.3 24.75-.34 2.3 1 4.66 4.05 6.4l11.66 6.7c5.5 3.16 14.38 3.16 19.87 0l9-5.18c3-1.7 4.34-4.06 4.02-6.35z" class="cls-10"/><path d="M69.52 124.94l-8.1 4.67c-5 2.87-13 2.87-17.93 0l-10.56-6.1c-4.95-2.85-4.95-7.48 0-10.34L41 108.5c5-2.87 13-2.87 17.94 0l10.55 6.08c4.98 2.86 4.98 7.5.02 10.36z" class="cls-11"/><ellipse cx="72.39" cy="133.41" class="cls-12" rx="8.51" ry="14.74" transform="translate(-57 54.07) rotate(-30)"/><path d="M92.88 114.1l-47.7-82.6c-.73-4.67-4-9.75-7.87-12-4.43-2.56-8-.48-8 4.64 0 4.77 3.12 10.5 7.13 13.33l46.92 81.27c.45 4.9 3.85 10.44 8 12.83 4.43 2.56 8 .48 8-4.64-.02-4.5-2.8-9.85-6.47-12.82z" class="cls-13"/><path d="M88.44 116.75l-47.7-82.6c-.73-4.68-4-9.75-7.87-12-4.44-2.57-8-.5-8 4.62 0 4.77 3.1 10.5 7.12 13.33l46.9 81.27c.46 4.9 3.86 10.45 8 12.83 4.44 2.56 8 .48 8-4.64 0-4.5-2.78-9.83-6.46-12.8z" class="cls-14"/><path d="M80.9 110.64h15.6l4.93 23.7-2.43 2.24s-11.62-3.08-11.92-4.2-5.47-10.72-5.47-11-.7-10.74-.7-10.74z" class="cls-16"/><path d="M95.33 120.07c-4.33-7.5-11.33-11.5-15.63-8.9l-24.38 14.38v31.4l7.74 4.47a2 2 0 0 0 2.3.12c.1 0 18.5-10.6 18.58-10.68A2 2 0 0 0 85 148.8c0-2.77.9-4.92 2.54-6l8.06-5.37c3.93-2.64 3.8-10.3-.27-17.36z" class="cls-17"/><path d="M76.45 130.92c-4.38-7.58-11.5-11.58-15.76-8.83l-5.38 3.45v31.4l7.74 4.47c1.68 1 3 .2 3-1.76 0-2.78.9-4.93 2.55-6l8-5.38c4.05-2.64 3.92-10.28-.15-17.36z" class="cls-18"/><path d="M39.8 44.35c2-1 3.27-3.4 3.27-6.85 0-6.65-4.67-14.73-10.43-18.06-3-1.74-5.75-1.83-7.65-.55C24.8 19 8 28.83 7.85 29c-1.86.9-3.23 3.36-3.23 6.8 0 6.65 4.66 14.73 10.42 18.06 3 1.75 5.75 1.83 7.65.55.17-.08 16.95-9.94 17.1-10.05z" class="cls-19"/><path d="M74.7 145.2c1.46-.84 2.37-2.65 2.37-5.23 0-4.5-2.77-9.84-6.45-12.82l-47.7-82.6c-.73-4.68-4-9.75-7.87-12-2.25-1.3-4.28-1.42-5.74-.54L5 34.6c-1.47.84-2.4 2.65-2.4 5.23 0 4.76 3.13 10.5 7.13 13.32l46.93 81.27c.45 4.9 3.85 10.45 8 12.83 2.24 1.3 4.28 1.4 5.73.53z" class="cls-20"/><path d="M66.18 129.8l-47.7-82.62c-.73-4.67-4-9.74-7.87-12-4.43-2.56-8-.5-8 4.64 0 4.76 3.13 10.5 7.13 13.32l46.93 81.27c.45 4.9 3.85 10.46 8 12.84 4.43 2.56 8 .5 8-4.64-.03-4.48-2.8-9.83-6.48-12.8z" class="cls-21"/><ellipse cx="64.62" cy="138.32" class="cls-6" rx="2.97" ry="5.15" transform="translate(-60.97 51.52) rotate(-30.31)"/><ellipse cx="9.73" cy="44.42" class="cls-6" rx="2.97" ry="5.15" transform="translate(-21.09 10.98) rotate(-30.31)"/><path d="M58.76 23.53v20.65a3.07 3.07 0 0 1-1.4 2.92L39.9 57.37a3 3 0 0 1-3.3-.23l-9.35-5.42s-1.66-3.48-1.75-4.88A20.34 20.34 0 0 0 24 40.6a25.3 25.3 0 0 0-3.64-6.2 19.43 19.43 0 0 0-4.8-4.4c-2.06-1.3-6.12-2.58-7.76-2.44 0 0-1.73 3-1.8 3.08v-.12L4.6 17a7 7 0 0 1 1.13-5.18 3.9 3.9 0 0 1 1.12-.92L24.33.6A3.78 3.78 0 0 1 26.1 0a6.38 6.38 0 0 1 3.74 1l23.9 13.8a1.82 1.82 0 0 1 .26.2 11.17 11.17 0 0 1 4.3 5.8 8.75 8.75 0 0 1 .46 2.73z" class="cls-22"/><path d="M12.14 11.43C7.56 8.8 4 11.38 4.6 17L6 30.54v.12c1.85-2.75 5.45-3.2 9.55-.65 5.24 3.3 9.54 10.57 10 16.84 0 .42 0 .82 0 1.2a4.43 4.43 0 0 0 2.2 4l8.9 5.15c2.44 1.4 4.43.24 4.43-2.57v-20.7a11.14 11.14 0 0 0-5-8.7z" class="cls-23"/><path d="M67.6 35.58l-10.17-8.7c-1.7-1.53-4.33-1.63-7.3.1-5.1 2.93-9.24 10.1-9.24 16 0 3.42 1.4 5.66 3.57 6.35l12.64 4.44a5.54 5.54 0 0 0 4.82-.77 16.5 16.5 0 0 0 7.45-12.9 5.54 5.54 0 0 0-1.76-4.52z" class="cls-6"/><ellipse cx="61.92" cy="44.42" class="cls-24" rx="10.54" ry="6.09" transform="translate(-7.51 75.83) rotate(-60)"/><path d="M128.58 72.36v6.43l-4.12 2.8-68.1-39.23A4.9 4.9 0 0 1 58.3 40l7.3-4.23a1.42 1.42 0 0 1 1.73 0c.15 0 60.3 35.05 60.4 35.15a1.42 1.42 0 0 1 .85 1.44z" class="cls-25"/><path d="M128.58 72.36v8.46a4.32 4.32 0 0 1-.53 1.94 4.54 4.54 0 0 1-1.65 1.83l-7.32 4.2a1.4 1.4 0 0 1-1.72 0 1.07 1.07 0 0 1-.4-.2c-.13 0-59.9-34.84-60-34.94a1.42 1.42 0 0 1-.83-1.5v-8.44a3.85 3.85 0 0 1 .26-1.35 5.43 5.43 0 0 1 .4-.84A4.56 4.56 0 0 1 58.3 40l7.3-4.23a1.42 1.42 0 0 1 1.73 0c.15 0 60.3 35.05 60.4 35.15a1.42 1.42 0 0 1 .85 1.44z" class="cls-26"/><path d="M128.05 82.76a4.54 4.54 0 0 1-1.65 1.83l-7.32 4.2a1.4 1.4 0 0 1-1.72 0 1.07 1.07 0 0 1-.4-.2c-.13 0-59.9-34.84-60-34.94a1.42 1.42 0 0 1-.83-1.5v-8.44a3.85 3.85 0 0 1 .26-1.35 5.43 5.43 0 0 1 .4-.84z" class="cls-27"/><path d="M126.4 84.58l-7.32 4.23c-1.2.7-2.18.14-2.18-1.24V79.1a4.78 4.78 0 0 1 2.18-3.77l7.32-4.23c1.2-.7 2.18-.13 2.18 1.26v8.45a4.8 4.8 0 0 1-2.18 3.78z" class="cls-28"/><path d="M130.7 77.14l-3-3.18c-1-1.15-2.75-1.3-4.7-.18a12.5 12.5 0 0 0-5.64 9.77c0 2.2.93 3.58 2.36 3.94l4.28 1.05a3.7 3.7 0 0 0 2.85-.55 10.47 10.47 0 0 0 4.73-8.2 3.76 3.76 0 0 0-.9-2.66z" class="cls-6"/><ellipse cx="126.83" cy="82.53" class="cls-7" rx="6.7" ry="3.87" transform="translate(-8.06 151.1) rotate(-60)"/><path d="M130.4 79.65l-1.4-.82a2.25 2.25 0 0 0-2.28.2 6.55 6.55 0 0 0-3 5.13 2.26 2.26 0 0 0 1 2.08l1.44.82a1.75 1.75 0 0 0 .88.23 2.9 2.9 0 0 0 1.4-.44 6.54 6.54 0 0 0 3-5.13 2.28 2.28 0 0 0-1.03-2.08zm-1 1.25a5.9 5.9 0 0 1-2.67 4.64 2.44 2.44 0 0 1-.8.32 2.56 2.56 0 0 1-.15-.87 5.9 5.9 0 0 1 2.68-4.65 2.6 2.6 0 0 1 .8-.32 2.56 2.56 0 0 1 .1.87z" class="cls-29"/><path d="M140.12 89.43s-11.77-8.07-11.8-8.08a.82.82 0 0 0-1 0 2.77 2.77 0 0 0-1.25 2.16.84.84 0 0 0 .46.87l12.85 6.27a.33.33 0 0 0 .38 0 1.1 1.1 0 0 0 .5-.87.34.34 0 0 0-.14-.34z" class="cls-30"/><path d="M140.3 89.77a1.1 1.1 0 0 1-.5.87c-.3.16-.5 0-.5-.3a1.1 1.1 0 0 1 .5-.86c.27-.16.5-.03.5.3z" class="cls-31"/><path d="M129 85.7a4.64 4.64 0 0 1-.85.67 1.45 1.45 0 0 1-2.4-1.38 5.9 5.9 0 0 1 2.68-4.65 2.3 2.3 0 0 1 1.12-.35 1.15 1.15 0 0 1 .6.15 1.7 1.7 0 0 1 .67 1.58 4.22 4.22 0 0 1-.15 1.1l.5.34a5.33 5.33 0 0 0 .23-1.44 2.28 2.28 0 0 0-1-2.08 2.25 2.25 0 0 0-2.28.2 6.57 6.57 0 0 0-3 5.14 2.26 2.26 0 0 0 1 2.06 1.75 1.75 0 0 0 .88.23 2.9 2.9 0 0 0 1.4-.44 5 5 0 0 0 1.1-.88s-.5-.26-.5-.27z" class="cls-32"/><circle cx="139.82" cy="90.13" r="1.43" class="cls-33"/></g></g></g></svg>