<svg xmlns="http://www.w3.org/2000/svg" xmlns:xlink="http://www.w3.org/1999/xlink" viewBox="0 0 268.04 327.56"><defs><style>.cls-1{opacity:0.1;fill:url(#linear-gradient);}.cls-2{fill:url(#linear-gradient-2);}.cls-3{opacity:0.2;fill:url(#linear-gradient-3);}.cls-4{font-size:102.65px;fill:#fff;font-family:RobotoMono-Bold, Roboto Mono;font-weight:700;}</style><linearGradient id="linear-gradient" x1="-5926.67" y1="4753.05" x2="-5610.02" y2="4753.05" gradientTransform="matrix(0.87, 0.5, 0.5, 1.44, 2781.22, -3833.16)" gradientUnits="userSpaceOnUse"><stop offset="0" stop-color="#e26558"/><stop offset="1" stop-color="#e0341b"/></linearGradient><linearGradient id="linear-gradient-2" x1="-6028.75" y1="4817.06" x2="-5712.1" y2="4817.06" xlink:href="#linear-gradient"/><linearGradient id="linear-gradient-3" x1="-5978.26" y1="4783.51" x2="-5661.62" y2="4783.51" xlink:href="#linear-gradient"/></defs><title>Asset 9</title><g id="Layer_2" data-name="Layer 2"><g id="Layer_1-2" data-name="Layer 1"><path class="cls-1" d="M249.24,284l-174-100.49c-10.38-6-18.79-22.07-18.79-35.91V16.47c0-13.85,8.41-20.21,18.79-14.21L249.24,102.74c10.38,6,18.8,22.07,18.8,35.92V269.74C268,283.58,259.62,289.94,249.24,284Z"/><path class="cls-2" d="M192.84,325.3,18.8,224.82C8.42,218.83,0,202.75,0,188.9V57.82C0,44,8.42,37.62,18.8,43.61l174,100.49c10.38,6,18.8,22.07,18.8,35.91V311.09C211.64,324.94,203.22,331.3,192.84,325.3Z"/><path class="cls-3" d="M219.79,302.12l-174-100.48c-10.38-6-18.8-22.08-18.8-35.92V34.64c0-13.84,8.42-20.21,18.8-14.21l174,100.48c10.38,6,18.79,22.08,18.79,35.92V287.91C238.58,301.75,230.17,308.11,219.79,302.12Z"/><text class="cls-4" transform="matrix(0.87, 0.5, 0, 1, 68.62, 200.2)">$</text></g></g></svg>