<svg xmlns="http://www.w3.org/2000/svg" xmlns:xlink="http://www.w3.org/1999/xlink" viewBox="0 0 170.5 217.52"><defs><style>.cls-1{isolation:isolate;}.cls-2,.cls-3{opacity:0.8;mix-blend-mode:multiply;}.cls-2{fill:url(#radial-gradient);}.cls-3{fill:url(#radial-gradient-2);}.cls-15,.cls-16,.cls-17,.cls-4{fill:none;}.cls-4{stroke:#cbcbcb;stroke-miterlimit:10;}.cls-5{opacity:0.7;fill:url(#radial-gradient-3);}.cls-6,.cls-7{opacity:0.3;}.cls-6{fill:url(#radial-gradient-4);}.cls-7{fill:url(#radial-gradient-5);}.cls-8{fill:url(#linear-gradient);}.cls-9{fill:#2a2935;}.cls-10{fill:url(#linear-gradient-2);}.cls-11{fill:url(#linear-gradient-3);}.cls-12{fill:#424251;}.cls-13{fill:url(#linear-gradient-4);}.cls-14{fill:url(#linear-gradient-5);}.cls-15,.cls-16,.cls-17{stroke-linecap:round;stroke-linejoin:round;stroke-width:1.67px;}.cls-15{stroke:url(#linear-gradient-6);}.cls-16{stroke:url(#linear-gradient-7);}.cls-17{stroke:url(#linear-gradient-8);}.cls-18{fill:url(#linear-gradient-9);}.cls-19{fill:url(#linear-gradient-10);}.cls-20{fill:url(#linear-gradient-11);}.cls-21{fill:#999;opacity:0.5;}.cls-22{fill:#e0341b;}</style><radialGradient id="radial-gradient" cx="-354.46" cy="178.88" r="57.01" gradientTransform="matrix(.005 1 -.64 .003 209.67 532.72)" gradientUnits="userSpaceOnUse"><stop offset="0" stop-color="#826a6a"/><stop offset=".03" stop-color="#999"/><stop offset="1" stop-color="#fff"/></radialGradient><radialGradient id="radial-gradient-2" cx="-339.36" cy="181.74" r="57.01" gradientTransform="matrix(.005 1 -.64 .003 226.52 520.47)" xlink:href="#radial-gradient"/><radialGradient id="radial-gradient-3" cx="55.35" cy="117.04" r="63.27" fx="100.832" gradientUnits="userSpaceOnUse"><stop offset="0" stop-color="#e40427"/><stop offset=".84" stop-color="#e0341b" stop-opacity="0"/></radialGradient><radialGradient id="radial-gradient-4" cx="65.54" cy="106.77" r="37.08" fx="92.194" gradientUnits="userSpaceOnUse"><stop offset="0" stop-color="#e40427"/><stop offset="1" stop-color="#e0341b" stop-opacity=".3"/></radialGradient><radialGradient id="radial-gradient-5" cx="72.65" cy="105.13" r="22.39" fx="88.742" gradientUnits="userSpaceOnUse"><stop offset="0" stop-color="#e40427"/><stop offset="1" stop-color="#e0341b" stop-opacity=".4"/></radialGradient><linearGradient id="linear-gradient" x1="91.39" x2="91.39" y1="171.67" y2="64.57" gradientUnits="userSpaceOnUse"><stop offset=".03" stop-color="#e6e6e6"/><stop offset=".96" stop-color="#999"/></linearGradient><linearGradient id="linear-gradient-2" x1="91.07" x2="81.13" y1="121.41" y2="89.81" xlink:href="#linear-gradient"/><linearGradient id="linear-gradient-3" x1="95.97" x2="95.97" y1="-75.39" y2="-215.41" gradientTransform="matrix(.95 -.3 .08 .24 -.47 169.9)" gradientUnits="userSpaceOnUse"><stop offset="0" stop-color="#a8190a"/><stop offset="1" stop-color="#e0341b"/></linearGradient><linearGradient id="linear-gradient-4" x1="31.68" x2="74.66" y1="75.52" y2="45.16" gradientUnits="userSpaceOnUse"><stop offset=".18" stop-color="#2a2935"/><stop offset=".84" stop-color="#424251"/></linearGradient><linearGradient id="linear-gradient-5" x1="18.41" x2="23.23" y1="114.22" y2="114.22" gradientTransform="matrix(-.5 .87 -.58 -1 191.81 194.24)" xlink:href="#linear-gradient-3"/><linearGradient id="linear-gradient-6" x1="114.07" x2="123.83" y1="96.13" y2="96.13" xlink:href="#linear-gradient-3"/><linearGradient id="linear-gradient-7" x1="114.05" x2="130.59" y1="94.19" y2="94.19" xlink:href="#linear-gradient-3"/><linearGradient id="linear-gradient-8" x1="114.03" x2="138.26" y1="91.99" y2="91.99" xlink:href="#linear-gradient-3"/><linearGradient id="linear-gradient-9" x1="90.71" x2="165.34" y1="163.08" y2="163.08" gradientUnits="userSpaceOnUse"><stop offset="0" stop-color="#333"/><stop offset=".54" stop-color="#3f3f3f"/><stop offset="1" stop-color="#4d4d4d"/></linearGradient><linearGradient id="linear-gradient-10" x1="395.03" x2="439.35" y1="-1189" y2="-1189" gradientTransform="matrix(-.87 .5 0 1.15 478.59 1329.58)" xlink:href="#linear-gradient-9"/><linearGradient id="linear-gradient-11" x1="103.72" x2="121.22" y1="165.24" y2="165.24" gradientTransform="matrix(-.5 -.86 -.86 .5 316.7 178.94)" gradientUnits="userSpaceOnUse"><stop offset="0" stop-color="#4d4d4d"/><stop offset=".46" stop-color="#3f3f3f"/><stop offset="1" stop-color="#333"/></linearGradient></defs><title>newproduct</title><g class="cls-1"><g id="Vrstva_2"><g id="Layer_1"><ellipse cx="93.43" cy="178.88" class="cls-2" rx="35.78" ry="61.97" transform="translate(-85.95 271.34) rotate(-89.69)"/><ellipse cx="108.54" cy="181.74" class="cls-3" rx="35.78" ry="61.97" transform="translate(-73.79 289.29) rotate(-89.69)"/><path d="M114.93 98.46L79.9 118.68" class="cls-4"/><path d="M65.22 46.74A65.22 65.22 0 0 0 0 112c0 36 24.8 87.5 110.7 72.8l-21-63.32-7.38-23.27z" class="cls-5"/><path d="M71.33 65.58A38.22 38.22 0 0 0 33.1 103.8c0 21.1 14.53 51.27 64.88 42.66l-12.3-37.1-4.33-13.62z" class="cls-6"/><path d="M76.14 80.25a23.08 23.08 0 0 0-23.1 23.08c0 12.75 8.8 31 39.2 25.77l-7.42-22.4-2.63-8.23z" class="cls-7"/><path d="M108.6 171.42a5.2 5.2 0 0 1-1.67.25 5.47 5.47 0 0 1-5.16-3.82L87.35 122l-1-3.2-.56-1.8-.65-2-.13-.4-.56-1.8-.58-1.83-6.55-20.92-7-22.2 2.27-.72 8.13-2.56 14 44.66.63 2a1.6 1.6 0 0 1 .12.37 2.82 2.82 0 0 1-.9 2.42 6.9 6.9 0 0 1-2 1.45l.28.84a8.3 8.3 0 0 0 2.52-1.92 5.6 5.6 0 0 0 .64-.9l16.05 51.07a5.46 5.46 0 0 1-3.46 6.87z" class="cls-8"/><path d="M96.13 113.5a5.6 5.6 0 0 1-.64.9 8.3 8.3 0 0 1-2.5 1.94l-.27-.84a6.9 6.9 0 0 0 2-1.45 2.82 2.82 0 0 0 .9-2.42 1.6 1.6 0 0 0-.13-.37l-.63-2a2.87 2.87 0 0 1 1.26 4.24zM94.82 109.4a5.6 5.6 0 0 1-.64.9 8.3 8.3 0 0 1-2.52 1.94l-.27-.84a6.9 6.9 0 0 0 2-1.45 2.82 2.82 0 0 0 .88-2.42 1.6 1.6 0 0 0-.12-.37l-.63-2a2.87 2.87 0 0 1 1.3 4.24zM91.77 99.76a5.6 5.6 0 0 1-.64.9 8.3 8.3 0 0 1-2.52 1.94l-.26-.84a6.9 6.9 0 0 0 2-1.45 2.82 2.82 0 0 0 .9-2.4 1.6 1.6 0 0 0-.13-.38l-.62-2a2.87 2.87 0 0 1 1.3 4.24zM90.46 95.67a5.6 5.6 0 0 1-.64.9 8.3 8.3 0 0 1-2.52 1.94l-.3-.83a6.9 6.9 0 0 0 2-1.45 2.82 2.82 0 0 0 .9-2.42 1.6 1.6 0 0 0-.13-.37l-.63-2a2.87 2.87 0 0 1 1.32 4.24z" class="cls-9"/><path d="M88.84 122h-1.2l1.4-4.85-.3-.9-1.74-5.4-.24-.77L80.44 90l4-.9 6.18 19.45.26.82 1.83 5.78.3.85v.06a4.7 4.7 0 0 1-4.16 5.94z" class="cls-10"/><path d="M87.42 122l-6.52-.62a2.1 2.1 0 0 1-1.8-1.45L70.34 92.3a2.1 2.1 0 0 1 2.2-2.7l6.52.6a2.1 2.1 0 0 1 1.8 1.46l8.75 27.6a2.1 2.1 0 0 1-2.18 2.74z" class="cls-11"/><path d="M156.42 2.2c-10.75-6.2-31.6 14.1-40.82 18.66C93.53 31.74 47.3 44.4 27.9 50.5a26.28 26.28 0 0 0-7.38 4.66L16 51.9a43.66 43.66 0 0 0-.22 4.37c0 5.3 0 11.3 3.7 16.15a15.06 15.06 0 0 0 5.44 4.5c6 2.86 9.73-.63 14.33 1.65 4.23 2.1 3.05 6 7 10.66 6.12 7.24 17.06 7.4 22.77 7.5a36.62 36.62 0 0 0 23-7.9c9.05-7.17 13-13.9 21.28-28.3 4-6.94 11.27-18.68 25.63-27.27 16.9-10.06 27.35-25.37 17.5-31.07z" class="cls-9"/><path d="M143 25.3c-22.48 13.23-41.25 37.6-49.56 48.87-4.36 5.92-14.56 10.1-24.7 11-6.35.53-16.3-.67-22.5-7.27-4-4.23-2.64-8.07-7-10.66-4.92-2.94-8.48.9-14.32-1.65-4.52-2-9.34-7.3-8.92-13.65.4-5.95 5.2-11.25 11.9-12.83C47.3 33 93.53 20.37 115.6 9.48c9.23-4.55 29.78-13.58 40.52-7.37s-5.5 18.73-13.12 23.2z" class="cls-12"/><path d="M32.37 66.22L59.8 54.4c2.73-1.17 10.55-2.53 2.52 4.3 0 0-13.36 10-14.47 11a20.52 20.52 0 0 0-2.75 3.48 3.27 3.27 0 0 0-.7 2.17z" class="cls-13"/><ellipse cx="114.93" cy="98.46" class="cls-14" rx="1.7" ry="2.94" transform="translate(15.85 212.85) rotate(-89.69)"/><path d="M114.9 93.8a11.6 11.6 0 0 1 5.72 1.38 4 4 0 0 1 2.38 3.3" class="cls-15"/><path d="M114.9 89.9a21.62 21.62 0 0 1 10.48 2.53c2.9 1.67 4.37 3.87 4.38 6.06" class="cls-16"/><path d="M114.87 85.48a32.55 32.55 0 0 1 15.92 3.83c4.4 2.56 6.6 5.88 6.63 9.2" class="cls-17"/><path d="M127.38 128.77l-32.86 19a7.6 7.6 0 0 0-3.8 6.6v38.4a2.18 2.18 0 0 0 1.07 1.88l4.72 2.8a3.13 3.13 0 0 0 3.17 0l2.8-1.62 34-54.8v-6.94a3.38 3.38 0 0 0-1.68-2.93l-4-2.37a3.4 3.4 0 0 0-3.44-.03z" class="cls-18"/><path d="M99.64 197.45l34-19.63a5.68 5.68 0 0 0 2.84-4.92v-39a1 1 0 0 0-1.54-.9l-33.43 19.3a6.82 6.82 0 0 0-3.4 5.9v38.34a1 1 0 0 0 1.54.9z" class="cls-19"/><ellipse cx="117.29" cy="165.24" class="cls-20" rx="12.34" ry="7.12" transform="translate(-84.55 183.1) rotate(-59.69)"/><path d="M108.54 170.3c0-5.56 3.92-12.3 8.75-15.1a7.83 7.83 0 0 1 4.1-1.2 6.87 6.87 0 0 1 1.63 4.87c0 5.55-3.92 12.3-8.76 15.1a7.73 7.73 0 0 1-4.1 1.2 6.82 6.82 0 0 1-1.63-4.88z" class="cls-21"/><path d="M112.76 169.42l6.03-3.48v-6.9l-6.04 3.47v6.92z" class="cls-22"/></g></g></g></svg>