<svg xmlns="http://www.w3.org/2000/svg" xmlns:xlink="http://www.w3.org/1999/xlink" viewBox="0 0 456.64 582.91"><defs><style>.cls-1{isolation:isolate;}.cls-12,.cls-14,.cls-2{fill:none;stroke-miterlimit:10;}.cls-12,.cls-2{stroke:#e2887f;}.cls-2{stroke-width:0.58px;}.cls-3{fill:url(#linear-gradient);}.cls-4{fill:url(#linear-gradient-2);}.cls-5{fill:url(#linear-gradient-3);}.cls-6{fill:url(#linear-gradient-4);}.cls-7{fill:url(#linear-gradient-5);}.cls-8{fill:url(#linear-gradient-6);}.cls-9{fill:url(#linear-gradient-7);}.cls-10{fill:#363646;}.cls-11{fill:url(#linear-gradient-8);}.cls-12{stroke-width:0.77px;stroke-dasharray:3.38;}.cls-13{mix-blend-mode:multiply;}.cls-14{stroke:#d4d4d4;stroke-width:0.62px;}.cls-15{fill:gray;}.cls-16{fill:url(#linear-gradient-9);}.cls-17{fill:url(#linear-gradient-10);}.cls-18{fill:url(#linear-gradient-11);}.cls-19{fill:#999;}.cls-20{fill:url(#linear-gradient-12);}.cls-21{fill:url(#linear-gradient-13);}.cls-22{fill:url(#linear-gradient-14);}.cls-23{fill:url(#linear-gradient-15);}.cls-24{fill:url(#linear-gradient-16);}.cls-25{fill:url(#linear-gradient-17);}.cls-26{fill:#fff;}.cls-27{fill:url(#linear-gradient-18);}.cls-28{fill:url(#linear-gradient-19);}.cls-29{fill:url(#linear-gradient-20);}.cls-30{fill:url(#linear-gradient-21);}.cls-31{fill:url(#linear-gradient-22);}.cls-32{fill:url(#linear-gradient-23);}.cls-33{fill:url(#linear-gradient-24);}.cls-34{fill:url(#linear-gradient-25);}</style><linearGradient id="linear-gradient" x1="-10054.45" y1="10347.64" x2="-10105.15" y2="10263.34" gradientTransform="translate(-9769.64 10493.13) rotate(-179.58)" gradientUnits="userSpaceOnUse"><stop offset="0.15" stop-color="#b3b3b3"/><stop offset="1" stop-color="#fff"/></linearGradient><linearGradient id="linear-gradient-2" x1="156.23" y1="343.14" x2="170.84" y2="343.14" gradientUnits="userSpaceOnUse"><stop offset="0.15" stop-color="#e0341b"/><stop offset="1" stop-color="#a8190a"/></linearGradient><linearGradient id="linear-gradient-3" x1="156.23" y1="357.23" x2="170.84" y2="357.23" xlink:href="#linear-gradient-2"/><linearGradient id="linear-gradient-4" x1="65.52" y1="462.01" x2="192.95" y2="462.01" xlink:href="#linear-gradient-2"/><linearGradient id="linear-gradient-5" x1="65.52" y1="495.51" x2="192.95" y2="495.51" gradientUnits="userSpaceOnUse"><stop offset="0.15" stop-color="#e6e6e6"/><stop offset="1" stop-color="#999"/></linearGradient><linearGradient id="linear-gradient-6" x1="65.52" y1="445.36" x2="192.95" y2="445.36" gradientUnits="userSpaceOnUse"><stop offset="0" stop-color="gray"/><stop offset="0.85" stop-color="#e6e6e6"/></linearGradient><linearGradient id="linear-gradient-7" x1="65.52" y1="467.92" x2="192.95" y2="467.92" xlink:href="#linear-gradient-5"/><linearGradient id="linear-gradient-8" x1="94.12" y1="394.41" x2="164.36" y2="394.41" xlink:href="#linear-gradient-5"/><linearGradient id="linear-gradient-9" x1="273.92" y1="260.88" x2="252.67" y2="230.54" gradientUnits="userSpaceOnUse"><stop offset="0" stop-color="#999"/><stop offset="0.27" stop-color="#d5d5d5"/><stop offset="0.85" stop-color="#f9f9f9"/></linearGradient><linearGradient id="linear-gradient-10" x1="251.19" y1="284.22" x2="230.44" y2="245.65" xlink:href="#linear-gradient-9"/><linearGradient id="linear-gradient-11" x1="264.39" y1="272.18" x2="238.63" y2="224.29" gradientUnits="userSpaceOnUse"><stop offset="0.15" stop-color="#f9f9f9"/><stop offset="0.73" stop-color="#d5d5d5"/><stop offset="1" stop-color="#999"/></linearGradient><linearGradient id="linear-gradient-12" x1="173.1" y1="350.57" x2="120.75" y2="257.89" xlink:href="#linear-gradient-9"/><linearGradient id="linear-gradient-13" x1="1048.72" y1="-1579" x2="1118.69" y2="-1579" gradientTransform="matrix(0.5, 0.87, -0.58, 1, -1390.21, 987.53)" xlink:href="#linear-gradient-5"/><linearGradient id="linear-gradient-14" x1="37.8" y1="329.43" x2="104.82" y2="368.13" gradientUnits="userSpaceOnUse"><stop offset="0" stop-color="#999"/><stop offset="0.85" stop-color="#e6e6e6"/></linearGradient><linearGradient id="linear-gradient-15" x1="47.01" y1="354.31" x2="93.04" y2="354.31" gradientUnits="userSpaceOnUse"><stop offset="0.15" stop-color="#fff"/><stop offset="1" stop-color="gray"/></linearGradient><linearGradient id="linear-gradient-16" x1="39.42" y1="356.46" x2="88.79" y2="356.46" gradientTransform="translate(188.67 16.37) rotate(30.31)" xlink:href="#linear-gradient-14"/><linearGradient id="linear-gradient-17" x1="181.63" y1="307.2" x2="268.88" y2="307.2" xlink:href="#linear-gradient-2"/><linearGradient id="linear-gradient-18" x1="8.92" y1="1209.04" x2="12.99" y2="1209.04" gradientTransform="matrix(0.5, 0.87, -0.58, 1, 730.75, -906.55)" gradientUnits="userSpaceOnUse"><stop offset="0" stop-color="#e26558"/><stop offset="1" stop-color="#e0341b"/></linearGradient><linearGradient id="linear-gradient-19" x1="111.49" y1="1120.08" x2="115.55" y2="1120.08" gradientTransform="matrix(0.5, 0.87, -0.58, 1, 716.93, -958.41)" xlink:href="#linear-gradient-18"/><linearGradient id="linear-gradient-20" x1="8.92" y1="1169.47" x2="12.99" y2="1169.47" gradientTransform="matrix(0.5, 0.87, -0.58, 1, 707.69, -912.8)" xlink:href="#linear-gradient-18"/><linearGradient id="linear-gradient-21" x1="111.49" y1="1080.51" x2="115.55" y2="1080.51" gradientTransform="matrix(0.5, 0.87, -0.58, 1, 693.87, -964.66)" xlink:href="#linear-gradient-18"/><linearGradient id="linear-gradient-22" x1="8.92" y1="1189.57" x2="12.99" y2="1189.57" gradientTransform="matrix(0.5, 0.87, -0.58, 1, 719.41, -909.62)" xlink:href="#linear-gradient-18"/><linearGradient id="linear-gradient-23" x1="-8006.07" y1="974.9" x2="-8002.01" y2="974.9" gradientTransform="matrix(-0.5, 0.87, -0.58, -1, -3241.91, 8033.86)" xlink:href="#linear-gradient-18"/><linearGradient id="linear-gradient-24" x1="160.23" y1="250.82" x2="194.77" y2="250.82" gradientUnits="userSpaceOnUse"><stop offset="0" stop-color="#bfbfbf"/><stop offset="0.85" stop-color="#e6e6e6"/></linearGradient><linearGradient id="linear-gradient-25" x1="160.23" y1="256.93" x2="194.77" y2="256.93" gradientUnits="userSpaceOnUse"><stop offset="0.15" stop-color="#e0341b"/><stop offset="1" stop-color="#74190a"/></linearGradient></defs><title>Asset 40</title><g class="cls-1"><g id="Layer_2" data-name="Layer 2"><g id="Layer_1-2" data-name="Layer 1"><polyline class="cls-2" points="208.57 499.63 208.57 425.02 143.95 387.71 0.29 470.66 0.29 545.27 64.91 582.58 208.57 499.63"/><polyline class="cls-3" points="430.3 306.83 421.92 269.16 373.45 246.82 360.49 197.43 356.7 255.53 393.85 275.8 397.06 336.69"/><path class="cls-4" d="M162.6,347.59l7.84-4.53a.81.81,0,0,0,0-1.4l-5.15-3a.83.83,0,0,0-.81,0l-7.84,4.53a.82.82,0,0,0,0,1.41l5.15,3A.83.83,0,0,0,162.6,347.59Z"/><path class="cls-5" d="M170.44,343.06l-7.84,4.53a.83.83,0,0,1-.81,0l-5.15-3a.82.82,0,0,1-.41-.69h0v24.34a.82.82,0,0,0,.41.71l5.15,3a.79.79,0,0,0,.81,0l.05,0a17.59,17.59,0,0,0,8.19-14.87V342.39h0A.79.79,0,0,1,170.44,343.06Z"/><path class="cls-6" d="M121.06,500.85l68.34-39.46a7.1,7.1,0,0,0,0-12.29l-44.89-25.92a7.07,7.07,0,0,0-7.09,0L69.07,462.64a7.1,7.1,0,0,0,0,12.29L114,500.85A7.09,7.09,0,0,0,121.06,500.85Z"/><path class="cls-7" d="M189.4,461.39l-68.34,39.46a7.09,7.09,0,0,1-7.1,0L69.07,474.93a7,7,0,0,1-3.54-6h0v33.57a7,7,0,0,0,3.55,6.15L114,534.54a7.14,7.14,0,0,0,7.1,0l68.34-39.46a7,7,0,0,0,3.54-6h0V455.54h0A7,7,0,0,1,189.4,461.39Z"/><path class="cls-8" d="M121.06,484.2l68.34-39.46a7.1,7.1,0,0,0,0-12.29l-44.89-25.92a7.07,7.07,0,0,0-7.09,0L69.07,446a7.1,7.1,0,0,0,0,12.29L114,484.2A7.14,7.14,0,0,0,121.06,484.2Z"/><path class="cls-9" d="M189.4,444.74,121.06,484.2a7.14,7.14,0,0,1-7.1,0L69.07,458.28a7,7,0,0,1-3.54-6h0v11.69a7,7,0,0,0,3.55,6.14L114,496a7.09,7.09,0,0,0,7.1,0l68.34-39.46a7,7,0,0,0,3.54-6h0V438.88h0A7,7,0,0,1,189.4,444.74Z"/><path class="cls-10" d="M124.73,348.08l37.67-21.75a3.91,3.91,0,0,0,0-6.77l-24.74-14.29a3.9,3.9,0,0,0-3.91,0L96.07,327a3.92,3.92,0,0,0,0,6.78l24.75,14.28A3.9,3.9,0,0,0,124.73,348.08Z"/><path class="cls-11" d="M162.4,326.33l-37.67,21.75a3.9,3.9,0,0,1-3.91,0L96.07,333.8a3.88,3.88,0,0,1-1.95-3.33h0v117a3.87,3.87,0,0,0,1.95,3.39l24.75,14.29a4,4,0,0,0,3.91,0l37.67-21.75a3.88,3.88,0,0,0,1.95-3.3h0v-117h0A3.86,3.86,0,0,1,162.4,326.33Z"/><line class="cls-12" x1="31.59" y1="308.2" x2="121.38" y2="256.36"/><path class="cls-12" d="M31.59,285.72l97.55-56.32a50.68,50.68,0,0,0,25.35-43.91V108.8"/><g class="cls-13"><line class="cls-14" x1="210.13" y1="300.71" x2="456.17" y2="442.08"/><line class="cls-14" x1="210.19" y1="260.6" x2="456.22" y2="401.97"/><line class="cls-14" x1="210.24" y1="220.49" x2="456.27" y2="361.86"/><line class="cls-14" x1="210.29" y1="180.37" x2="456.33" y2="321.74"/><line class="cls-14" x1="210.34" y1="140.26" x2="456.38" y2="281.63"/><line class="cls-14" x1="210.4" y1="100.15" x2="456.43" y2="241.52"/><line class="cls-14" x1="210.45" y1="60.03" x2="456.48" y2="201.4"/></g><g class="cls-13"><line class="cls-14" x1="401.47" y1="80.04" x2="402.41" y2="497.66"/><line class="cls-14" x1="366.7" y1="60.03" x2="367.64" y2="477.65"/><line class="cls-14" x1="331.94" y1="40.02" x2="332.88" y2="457.64"/><line class="cls-14" x1="297.17" y1="20.01" x2="298.12" y2="437.63"/><line class="cls-14" x1="262.41" x2="263.35" y2="417.62"/></g><path class="cls-15" d="M272.14,209.15h88.33a2.12,2.12,0,0,1,2.12,2.12v0a2.12,2.12,0,0,1-2.12,2.12H272.14a0,0,0,0,1,0,0v-4.24A0,0,0,0,1,272.14,209.15Z" transform="translate(-63.11 186.99) rotate(-30)"/><path class="cls-16" d="M286.84,244.31c0-8.47-6-18.8-13.37-23.06-3.15-1.82-6-2.24-8.32-1.47l-34.91,14.57h0c3-1.57,7.08-1.26,11.57,1.34,9.23,5.33,16.71,18.23,16.71,28.82,0,5.11-1.74,8.74-4.57,10.54l0,0s30.11-22.95,30.54-23.42C286,250.05,286.84,247.55,286.84,244.31Z"/><path class="cls-17" d="M261.72,265.4c0-12.64-8.93-28-19.94-34.39-4.69-2.71-9-3.34-12.41-2.19-.23.08-28.86,8.32-28.86,8.32h0c4.48-2.35,10.56-1.88,17.25,2,13.77,8,24.93,27.2,24.93,43,0,7.61-2.6,13-6.83,15.71l0,.05s21.69-20.83,22.34-21.53C260.41,274,261.72,270.23,261.72,265.4Z"/><path class="cls-18" d="M260.24,273.21a20.59,20.59,0,0,0,.8-7.08,34.14,34.14,0,0,0-1.06-7,46.38,46.38,0,0,0-2.27-6.67,51.42,51.42,0,0,0-3.17-6.29,49.32,49.32,0,0,0-8.72-11,33.9,33.9,0,0,0-5.61-4.27,19.87,19.87,0,0,0-6.62-2.6,16.59,16.59,0,0,1,7.21,1.45,27.92,27.92,0,0,1,6.36,3.86,40.84,40.84,0,0,1,9.67,11.24,46.06,46.06,0,0,1,3.24,6.71,38.75,38.75,0,0,1,2,7.18,29,29,0,0,1,.33,7.44A17,17,0,0,1,260.24,273.21Z"/><ellipse class="cls-19" cx="217.77" cy="267.74" rx="20.29" ry="35.14" transform="translate(-105.36 146.51) rotate(-30.31)"/><path class="cls-20" d="M239.8,290c0-19.2-13.56-42.6-30.29-52.26-8.68-5-16.49-5.33-22-1.82h0L45.75,317.75h0c5.44-2.86,12.83-2.28,21,2.42C83.46,329.84,97,353.24,97,372.44c0,9.25-3.16,15.83-8.3,19.1l0,.06,13.62-7.87,128.84-74.4C236.51,306.15,239.8,299.48,239.8,290Z"/><path class="cls-19" d="M124.71,314.34a3.21,3.21,0,0,0-4.5-.63,3.32,3.32,0,0,0-.94,1.15,3.2,3.2,0,0,1,2.35,1.26c9.08,12,14.49,26.61,14.49,39.12a3.15,3.15,0,0,1-.34,1.41l.21,0a3.22,3.22,0,0,0,3.22-3.22C139.2,341,133.78,326.32,124.71,314.34Z"/><path class="cls-15" d="M136.11,355.24c0-12.51-5.41-27.13-14.49-39.12a3.2,3.2,0,0,0-2.35-1.26,3.23,3.23,0,0,0,.31,3.36c8.26,10.91,13.19,24.08,13.19,35.24a3.2,3.2,0,0,0,3,3.19A3.15,3.15,0,0,0,136.11,355.24Z"/><path class="cls-19" d="M112.31,321.5a3.18,3.18,0,0,0-5.44.53,3.2,3.2,0,0,1,2.35,1.25c9.07,12,14.49,26.61,14.49,39.12a3.23,3.23,0,0,1-.34,1.42l.21,0a3.22,3.22,0,0,0,3.22-3.22C126.8,348.11,121.38,333.49,112.31,321.5Z"/><path class="cls-15" d="M123.71,362.4c0-12.51-5.42-27.13-14.49-39.12a3.2,3.2,0,0,0-2.35-1.25,3.19,3.19,0,0,0,.31,3.35c8.25,10.91,13.18,24.08,13.18,35.24a3.21,3.21,0,0,0,3,3.2A3.23,3.23,0,0,0,123.71,362.4Z"/><path class="cls-19" d="M99.9,328.66a3.2,3.2,0,0,0-4.5-.62,3.15,3.15,0,0,0-.94,1.15,3.22,3.22,0,0,1,2.36,1.25c9.07,12,14.49,26.62,14.49,39.13A3.22,3.22,0,0,1,111,371l.21,0a3.22,3.22,0,0,0,3.21-3.22C114.39,355.27,109,340.65,99.9,328.66Z"/><path class="cls-15" d="M111.31,369.57c0-12.51-5.42-27.14-14.49-39.13a3.22,3.22,0,0,0-2.36-1.25,3.23,3.23,0,0,0,.31,3.35C103,343.45,108,356.63,108,367.78a3.21,3.21,0,0,0,3,3.2A3.22,3.22,0,0,0,111.31,369.57Z"/><ellipse class="cls-21" cx="66.73" cy="354.94" rx="24.66" ry="42.72" transform="matrix(0.86, -0.5, 0.5, 0.86, -170.01, 82.2)"/><path class="cls-22" d="M44.7,318.36a14.68,14.68,0,0,1,5.92-2.42,20.07,20.07,0,0,1,6.47.06,27.8,27.8,0,0,1,6.18,1.9A35,35,0,0,1,68.94,321a56,56,0,0,1,9.81,8.29,75.65,75.65,0,0,1,7.88,10.14,72.56,72.56,0,0,1,6,11.35A62,62,0,0,1,96.31,363a44.08,44.08,0,0,1,.74,12.76,23.79,23.79,0,0,1-4.24,11.93,23.52,23.52,0,0,0,3.92-12,45.81,45.81,0,0,0-1-12.63,69.58,69.58,0,0,0-9.84-23.25,75.28,75.28,0,0,0-7.82-10,55,55,0,0,0-9.68-8.1,32.88,32.88,0,0,0-11.46-5A17.33,17.33,0,0,0,44.7,318.36Z"/><path class="cls-23" d="M93,368.26c0-15.64-11.05-34.7-24.68-42.57-7.07-4.08-13.43-4.35-17.93-1.48v0l-3.42,2h0c4.44-2.33,10.45-1.86,17.09,2,13.63,7.87,24.68,26.93,24.68,42.57,0,7.54-2.57,12.9-6.76,15.56l0,.05L86,384C90.35,381.4,93,376,93,368.26Z"/><ellipse class="cls-24" cx="64.11" cy="356.46" rx="20.09" ry="34.8" transform="translate(-171.14 81.08) rotate(-30.31)"/><circle class="cls-25" cx="225.26" cy="307.2" r="43.63"/><rect class="cls-26" x="198.26" y="301.84" width="53.99" height="10.73" transform="translate(283.2 -69.3) rotate(45)"/><rect class="cls-26" x="198.26" y="301.84" width="53.99" height="10.73" transform="translate(601.76 365.15) rotate(135)"/><ellipse class="cls-27" cx="31.59" cy="308.2" rx="1.43" ry="2.48" transform="translate(-151.23 58.07) rotate(-30.31)"/><ellipse class="cls-28" cx="120.42" cy="256.76" rx="1.43" ry="2.48" transform="translate(-113.12 95.87) rotate(-30.31)"/><line class="cls-12" x1="31.59" y1="262.51" x2="121.38" y2="210.67"/><ellipse class="cls-29" cx="31.59" cy="262.51" rx="1.43" ry="2.48" transform="translate(-128.17 51.83) rotate(-30.31)"/><ellipse class="cls-30" cx="120.42" cy="211.07" rx="1.43" ry="2.48" transform="translate(-90.06 89.63) rotate(-30.31)"/><ellipse class="cls-31" cx="31.59" cy="285.72" rx="1.43" ry="2.48" transform="translate(-139.88 55) rotate(-30.31)"/><ellipse class="cls-32" cx="154.49" cy="108.8" rx="1.43" ry="2.48" transform="translate(44.86 262.7) rotate(-89.69)"/><path class="cls-33" d="M175.29,261.35l18.52-10.7a1.92,1.92,0,0,0,0-3.33l-12.17-7a1.89,1.89,0,0,0-1.92,0L161.2,251a1.92,1.92,0,0,0,0,3.33l12.16,7A2,2,0,0,0,175.29,261.35Z"/><path class="cls-34" d="M193.81,250.65l-18.52,10.7a2,2,0,0,1-1.93,0l-12.16-7a1.88,1.88,0,0,1-1-1.63h0v3.17a1.9,1.9,0,0,0,1,1.66l12.16,7a2,2,0,0,0,1.93,0l18.52-10.7a1.93,1.93,0,0,0,1-1.62h0v-3.17h0A1.91,1.91,0,0,1,193.81,250.65Z"/></g></g></g></svg>