<svg xmlns="http://www.w3.org/2000/svg" xmlns:xlink="http://www.w3.org/1999/xlink" viewBox="0 0 753.6 636.16"><defs><style>.cls-1{isolation:isolate;}.cls-2{fill:url(#linear-gradient);}.cls-3{fill:url(#linear-gradient-2);}.cls-4{fill:url(#linear-gradient-3);}.cls-5{fill:url(#linear-gradient-4);}.cls-6{font-size:4.54px;font-family:SpaceMono-Regular, SpaceMono Regular;}.cls-10,.cls-12,.cls-17,.cls-18,.cls-19,.cls-20,.cls-29,.cls-6,.cls-9{fill:#fff;}.cls-7{letter-spacing:0em;}.cls-8{letter-spacing:0em;}.cls-22,.cls-26,.cls-9{opacity:0.2;}.cls-10,.cls-11,.cls-33,.cls-41{opacity:0.8;}.cls-13,.cls-14,.cls-15{fill:none;stroke:#e2887f;}.cls-13,.cls-14,.cls-15,.cls-17,.cls-18,.cls-19,.cls-20{stroke-miterlimit:10;}.cls-13,.cls-19,.cls-20{stroke-width:0.58px;}.cls-14{stroke-width:0.66px;}.cls-15{stroke-width:0.71px;}.cls-16{fill:url(#linear-gradient-5);}.cls-17,.cls-18{stroke-width:0.63px;}.cls-17{stroke:url(#linear-gradient-6);}.cls-18{stroke:url(#linear-gradient-7);}.cls-19{stroke:url(#linear-gradient-8);}.cls-20{stroke:url(#linear-gradient-9);}.cls-21,.cls-24{opacity:0.1;}.cls-21{fill:url(#linear-gradient-10);}.cls-22{fill:url(#linear-gradient-11);}.cls-23{fill:url(#linear-gradient-12);}.cls-24{fill:url(#linear-gradient-13);}.cls-25{fill:url(#linear-gradient-14);}.cls-26{fill:url(#linear-gradient-15);}.cls-27,.cls-30{fill-opacity:0.06;}.cls-27,.cls-28,.cls-29,.cls-30,.cls-31,.cls-50{fill-rule:evenodd;}.cls-27{fill:url(#linear-gradient-16);}.cls-28,.cls-31{fill-opacity:0.09;}.cls-28{fill:url(#linear-gradient-17);}.cls-30{fill:url(#linear-gradient-18);}.cls-31{fill:url(#linear-gradient-19);}.cls-32{fill:#e0341b;}.cls-33,.cls-41,.cls-47{mix-blend-mode:multiply;}.cls-33{fill:url(#radial-gradient);}.cls-34{fill:#252532;}.cls-35{fill:#404051;}.cls-36{fill:#e6c81e;}.cls-37{fill:#dea404;}.cls-38{fill:#e6d781;}.cls-39{fill:url(#linear-gradient-20);}.cls-40{fill:url(#linear-gradient-21);}.cls-42{fill:url(#linear-gradient-22);}.cls-43{fill:#f9f9f9;}.cls-44{fill:#0e0e16;}.cls-45{fill:url(#linear-gradient-23);}.cls-46{fill:url(#linear-gradient-24);}.cls-47{fill:#989898;}.cls-48{fill:url(#linear-gradient-25);}.cls-49{fill:url(#linear-gradient-26);}.cls-50,.cls-51{fill:#e5e5e5;}.cls-52,.cls-53{opacity:0.5;}.cls-52{fill:url(#linear-gradient-27);}.cls-53{fill:url(#linear-gradient-28);}</style><linearGradient id="linear-gradient" x1="2793.6" x2="2842.81" y1="490.5" y2="490.5" gradientTransform="translate(1628.13 3162.43) rotate(-120)" gradientUnits="userSpaceOnUse"><stop offset=".03" stop-color="#e26558"/><stop offset=".21" stop-color="#e0341b"/><stop offset="1" stop-color="#ba210f"/></linearGradient><linearGradient id="linear-gradient-2" x1="-4081.62" x2="-4040.05" y1="1826.08" y2="1826.08" gradientTransform="translate(2437.97 4558.55) rotate(89.69)" gradientUnits="userSpaceOnUse"><stop offset=".04" stop-color="#999"/><stop offset=".97" stop-color="#e6e6e6"/></linearGradient><linearGradient id="linear-gradient-3" x1="2824.45" x2="2811.96" y1="424.83" y2="424.83" gradientTransform="translate(1628.13 3162.43) rotate(-120)" xlink:href="#linear-gradient-2"/><linearGradient id="linear-gradient-4" x1="2812.72" x2="2823.69" y1="1833.18" y2="1833.18" gradientTransform="matrix(.01 -1 -1 -.01 2401.62 3339.33)" xlink:href="#linear-gradient-2"/><linearGradient id="linear-gradient-5" x1="2324.9" x2="2336.47" y1="-1638.14" y2="-1638.14" gradientTransform="translate(-1443.97 -2255.03) rotate(90)" gradientUnits="userSpaceOnUse"><stop offset="0" stop-color="#e26558"/><stop offset="1" stop-color="#e0341b"/></linearGradient><linearGradient id="linear-gradient-6" x1="1411.61" x2="1422.26" y1="-1492.44" y2="-1492.44" gradientTransform="matrix(-.5 -1.15 -.87 0 -389.54 1651.04)" xlink:href="#linear-gradient-5"/><linearGradient id="linear-gradient-7" x1="1411.61" x2="1422.26" y1="-1460.51" y2="-1460.51" gradientTransform="matrix(-.5 -1.15 -.87 0 -389.54 1651.04)" xlink:href="#linear-gradient-5"/><linearGradient id="linear-gradient-8" x1="9.36" x2="19.96" y1="427.31" y2="427.31" gradientTransform="translate(217.66 51.01) rotate(30.31)" xlink:href="#linear-gradient-5"/><linearGradient id="linear-gradient-9" x1="61.97" x2="72.57" y1="458" y2="458" gradientTransform="translate(240.34 28.66) rotate(30.31)" xlink:href="#linear-gradient-5"/><linearGradient id="linear-gradient-10" x1="16.12" x2="39.51" y1="215.52" y2="215.52" gradientTransform="translate(112.57 15.42) rotate(30.31)" xlink:href="#linear-gradient-5"/><linearGradient id="linear-gradient-11" x1="8.06" x2="31.45" y1="220.26" y2="220.26" gradientTransform="translate(113.86 20.14) rotate(30.31)" xlink:href="#linear-gradient-5"/><linearGradient id="linear-gradient-12" x2="23.39" y1="225" y2="225" gradientTransform="translate(115.15 24.85) rotate(30.31)" xlink:href="#linear-gradient-5"/><linearGradient id="linear-gradient-13" x1="496.02" x2="643.71" y1="1562.54" y2="1562.54" gradientTransform="matrix(.87 .5 .5 1.44 -1061.15 -2028.58)" xlink:href="#linear-gradient-5"/><linearGradient id="linear-gradient-14" x1="448.41" x2="596.1" y1="1592.4" y2="1592.4" gradientTransform="matrix(.87 .5 .5 1.44 -1061.15 -2028.58)" xlink:href="#linear-gradient-5"/><linearGradient id="linear-gradient-15" x1="471.95" x2="619.65" y1="1576.75" y2="1576.75" gradientTransform="matrix(.87 .5 .5 1.44 -1061.15 -2028.58)" xlink:href="#linear-gradient-5"/><linearGradient id="linear-gradient-16" x1="-3959.09" x2="-3959.07" y1="2771.83" y2="2771.06" gradientTransform="matrix(152 0 0 -167 602399.82 463238.97)" gradientUnits="userSpaceOnUse"><stop offset=".04" stop-color="#1a1a1a"/><stop offset=".97" stop-color="#999" stop-opacity="0"/></linearGradient><linearGradient id="linear-gradient-17" x1="-3926.39" x2="-3925.92" y1="2772.5" y2="2772.05" gradientTransform="matrix(72 0 0 -156 283327.6 432848.79)" gradientUnits="userSpaceOnUse"><stop offset="0" stop-color="#333"/><stop offset=".14" stop-color="#454545" stop-opacity=".82"/><stop offset=".66" stop-color="#828282" stop-opacity=".23"/><stop offset=".95" stop-color="#999" stop-opacity="0"/></linearGradient><linearGradient id="linear-gradient-18" x1="-3962.4" x2="-3962.37" y1="2772.17" y2="2771.4" xlink:href="#linear-gradient-16"/><linearGradient id="linear-gradient-19" x1="-3933.37" x2="-3932.9" y1="2772.87" y2="2772.42" xlink:href="#linear-gradient-17"/><radialGradient id="radial-gradient" cx="-71.94" cy="549.23" r="138.53" gradientTransform="matrix(.005 1 -.64 .003 727.31 619.27)" gradientUnits="userSpaceOnUse"><stop offset="0" stop-color="#999"/><stop offset="1" stop-color="#fff"/></radialGradient><linearGradient id="linear-gradient-20" x1="-220.95" x2="2.74" y1="394.74" y2="265.59" gradientTransform="translate(447.89)" gradientUnits="userSpaceOnUse"><stop offset="0" stop-color="#252532"/><stop offset="1" stop-color="#404051"/></linearGradient><linearGradient id="linear-gradient-21" x1="239.56" x2="376.52" y1="387.43" y2="308.36" gradientUnits="userSpaceOnUse"><stop offset="0" stop-color="#4d4d61"/><stop offset="1" stop-color="#252532"/></linearGradient><linearGradient id="linear-gradient-22" x1="325.54" x2="343.57" y1="238.14" y2="238.14" gradientTransform="matrix(.87 .5 0 1.15 44.82 -204.12)" xlink:href="#linear-gradient-21"/><linearGradient id="linear-gradient-23" x1="330.8" x2="357.25" y1="321.84" y2="345.9" gradientUnits="userSpaceOnUse"><stop offset="0" stop-color="#f1f1f1"/><stop offset="1" stop-color="#4d4d4d"/></linearGradient><linearGradient id="linear-gradient-24" x1="621.89" x2="621.89" y1="274.45" y2="199.35" gradientUnits="userSpaceOnUse"><stop offset="0" stop-color="#a8190a"/><stop offset="1" stop-color="#e0341b"/></linearGradient><linearGradient id="linear-gradient-25" x1="621.89" x2="621.89" y1="235.27" y2="182.41" gradientUnits="userSpaceOnUse"><stop offset="0" stop-color="#a8190a"/><stop offset=".82" stop-color="#e0341b"/></linearGradient><linearGradient id="linear-gradient-26" x1="621.89" x2="621.89" y1="196.71" y2="176.28" gradientUnits="userSpaceOnUse"><stop offset="0" stop-color="#a8190a"/><stop offset=".81" stop-color="#e0341b"/></linearGradient><linearGradient id="linear-gradient-27" x1="453.13" x2="483.35" y1="49.55" y2="13.53" xlink:href="#linear-gradient-2"/><linearGradient id="linear-gradient-28" x1="429.79" x2="449.07" y1="69.39" y2="46.41" xlink:href="#linear-gradient-2"/></defs><title>single</title><g class="cls-1"><g id="Vrstva_2"><g id="Layer_1"><path d="M577.46 486.44c-3 1.88-4.9 5.75-4.9 11.2 0 11.14 7.76 24.65 17.34 30.18 4.74 2.74 9 3 12.16 1.23l107.85-62.27c3.2-1.82 5.16-5.75 5.16-11.36 0-11.13-7.76-24.63-17.34-30.16-4.87-2.8-9.26-3-12.4-1.1z" class="cls-2"/><ellipse cx="589.9" cy="507.68" class="cls-3" rx="12" ry="20.79" transform="translate(-174.01 358.82) rotate(-29.69)"/><path d="M581.07 505.57a3 3 0 0 0-1.37 2.88 9.74 9.74 0 0 0 4.43 7.64 3.1 3.1 0 0 0 3.18.28l5.6-3.22a3.13 3.13 0 0 0 1.27-2.87 9.8 9.8 0 0 0-4.4-7.67 3.07 3.07 0 0 0-3.13-.28l-5.57 3.22z" class="cls-4"/><ellipse cx="583.74" cy="511.23" class="cls-5" rx="3.16" ry="5.48" transform="matrix(.86 -.5 .5 .86 -178.22 364.49)"/><text class="cls-6" transform="matrix(-.86 .5 -.87 -.5 685.47 432.17)">AAA HR03 1.2V 900m<tspan x="40.21" y="0" class="cls-7">A</tspan><tspan x="42.98" y="0" class="cls-8">h</tspan></text><path d="M608.77 472.34c-3.08 1.46-5 5-5 10.17 0 9.8 6.9 21.72 15.44 26.64 4.27 2.46 8.13 2.7 10.92 1.12l77-44.48c2.87-1.56 4.66-5 4.66-10 0-9.78-6.9-21.7-15.44-26.63-4.55-2.62-8.63-2.73-11.46-.77z" class="cls-9"/><ellipse cx="619.2" cy="491.42" class="cls-9" rx="12.57" ry="21.77" transform="translate(-163.37 379.68) rotate(-30.31)"/><path d="M619.08 517.4v-5.87l-5.08 2.9V512l5.05-2.92v-5.86l2.1-1.22v5.87l5.05-2.9v2.43l-5.05 2.9v5.88z" class="cls-10"/><path d="M701.7 467.7v-10.17l2.1-1.2v10.16z" class="cls-12"/><path d="M14.6 218.63V426.5l180.04 103.95L374.67 426.5V218.64L194.64 114.7 14.6 218.62zM194.6 114.85v207.88L374.6 426.67l180.03-103.94V114.85L374.62 10.9 194.6 114.86zM713.5 438.78l21.23-12.27V218.64L554.7 114.7 374.67 218.62V426.5L554.7 530.46l32.25-18.62" class="cls-13"/><path d="M125.1 491L14.7 427.24" class="cls-14"/><path d="M194.56 115.5V14.94" class="cls-13"/><path d="M193.96 75.6l-26.63.12v-55.4" class="cls-15"/><circle cx="194.17" cy="75.65" r="5.78" class="cls-16"/><circle cx="194.49" cy="14.9" r="5.78" class="cls-17"/><circle cx="166.84" cy="14.9" r="5.78" class="cls-18"/><ellipse cx="14.66" cy="427.31" class="cls-19" rx="4.08" ry="7.06" transform="translate(-213.65 65.81) rotate(-30.31)"/><ellipse cx="67.27" cy="458" class="cls-20" rx="4.08" ry="7.06" transform="translate(-221.95 96.56) rotate(-30.31)"/><ellipse cx="27.81" cy="215.52" class="cls-21" rx="9.52" ry="16.49" transform="translate(-104.97 43.5) rotate(-30.31)"/><ellipse cx="19.76" cy="220.26" class="cls-22" rx="9.52" ry="16.49" transform="translate(-108.46 40.08) rotate(-30.31)"/><ellipse cx="11.7" cy="225" class="cls-23" rx="9.52" ry="16.49" transform="translate(-111.96 36.66) rotate(-30.31)"/><path d="M254.23 577.38l-81.18-46.87c-4.84-2.78-8.77-10.28-8.77-16.74v-61.14c0-6.45 3.93-9.42 8.77-6.63l81.18 46.86c4.84 2.8 8.77 10.3 8.77 16.76v61.14c0 6.45-3.93 9.42-8.77 6.62z" class="cls-24"/><path d="M227.93 596.67l-81.18-46.87c-4.85-2.8-8.75-10.3-8.75-16.75V471.9c0-6.44 3.92-9.4 8.77-6.62l81.18 46.87c4.84 2.8 8.77 10.3 8.77 16.76v61.15c-.02 6.45-3.95 9.42-8.8 6.62z" class="cls-25"/><path d="M240.5 585.86L159.3 539c-4.83-2.8-8.75-10.3-8.75-16.75V461.1c0-6.46 3.92-9.43 8.76-6.63l81.2 46.87c4.84 2.8 8.76 10.3 8.76 16.75v61.13c0 6.46-3.92 9.43-8.77 6.63z" class="cls-26"/><path d="M568 278.52l102.36 3.7v196.45H568z" class="cls-27"/><path d="M621.9 278.52l48.48 3.48v189.26h-48.5z" class="cls-28"/><path d="M618.23 252.15l51.17 29.63c1.45.83 1.27 2.3-.4 3.27l-43.18 25a6.3 6.3 0 0 1-5.66.23L569 280.66c-1.45-.84-1.27-2.3.4-3.28l43.18-25a6.25 6.25 0 0 1 5.65-.23z" class="cls-29"/><path d="M65.54 221.86l102.36 3.7V422H65.54z" class="cls-30"/><path d="M119.4 221.86l48.5 3.46V414.6h-48.5z" class="cls-31"/><path d="M115.75 195.5l51.17 29.62c1.45.84 1.27 2.3-.4 3.27l-43.18 25a6.27 6.27 0 0 1-5.66.22L66.5 224c-1.43-.84-1.25-2.3.42-3.27l43.18-25a6.25 6.25 0 0 1 5.65-.24z" class="cls-29"/><path d="M148.02 5.93h1.92v19.14h-1.92zM142.5 8.28h1.9v14.44h-1.9zM136.95 10.07h1.92v10.87h-1.92zM131.4 6.98h1.93V24h-1.92zM125.87 2.8h1.92v25.4h-1.93zM120.33 8.28h1.92v14.44h-1.92zM114.8 12.53h1.92v5.94h-1.92z" class="cls-32"/><ellipse cx="375.95" cy="549.23" class="cls-33" rx="86.93" ry="150.58" transform="translate(-175.31 922.2) rotate(-89.69)"/><path d="M507.27 491.26l-74.32 42.84V234.96l74.32-42.84v299.14z" class="cls-34"/><path d="M271.17 111.1l73.95-42.62 135.24 78.1-73.94 42.62-135.25-78.1z" class="cls-35"/><path d="M406.4 189.2l73.96-42.63 26.9 45.55-74.3 42.84-26.55-45.77z" class="cls-34"/><path d="M419.74 178.1L280.28 97.56l-29.5 16.82v304l29.5 50.88 139.46 80.5 29.5-16.78V229zm24.42 349.5l-26.53 15.13-135.25-78.08-26.53-45.77V119.74l26.53-15.13 135.25 78.1 26.53 45.76z" class="cls-36"/><path d="M497.02 505.43l-47.78 27.5V229l47.78-27.5v303.95z" class="cls-37"/><path d="M280.28 97.57l47.5-27.34 139.45 80.5-47.5 27.36-139.45-80.53z" class="cls-38"/><path d="M419.74 178.1l47.5-27.36L497 201.47l-47.78 27.5-29.5-50.88z" class="cls-36"/><path d="M406.4 189.2l-135.23-78.1-26.54 15.14v299.14l26.54 45.76 135.24 78.1 26.55-15.14V234.96L406.4 189.2z" class="cls-39"/><path d="M408.36 531.35l-1.9 1.07-124.62-71.95-22.63-39V134.7l11.92-6.77 1.85 1.07-10 5.7v286.77l22.6 39 122.8 70.88z" class="cls-40"/><path d="M342.18 322.6zM298.35 251.04zM349.85 327zM339.5 320.63zM350.55 327z" class="cls-35"/><path d="M383.66 455l-61.9-35.74h-27.1a6.64 6.64 0 0 0 .66.43l88.34 51c3.25 1.87 5.88-.12 5.88-4.46 0-4.3-2.63-9.34-5.88-11.24zM295.32 404c-3.25-1.88-5.9.1-5.9 4.45 0 4 2.3 8.68 5.25 10.8h27.1zM383.66 485.66l-61.9-35.74h-27.1a6.64 6.64 0 0 0 .66.43l88.34 51c3.25 1.88 5.88-.1 5.88-4.45 0-4.33-2.63-9.37-5.88-11.24zM295.32 434.66c-3.25-1.88-5.9.1-5.9 4.45 0 4 2.3 8.7 5.25 10.82h27.1zM383.66 424.4l-61.9-35.74h-27.1a6.64 6.64 0 0 0 .66.43l88.34 51c3.25 1.87 5.88-.12 5.88-4.46 0-4.33-2.63-9.37-5.88-11.24zM295.32 373.4c-3.25-1.88-5.9.1-5.9 4.44 0 4 2.3 8.68 5.25 10.8h27.1zM383.66 393.77L321.76 358h-27.1a6.64 6.64 0 0 0 .66.43l88.34 51c3.25 1.88 5.88-.1 5.88-4.45 0-4.3-2.63-9.34-5.88-11.2zM295.32 342.76c-3.25-1.87-5.9.12-5.9 4.45 0 4 2.3 8.7 5.25 10.83h27.1zM383.66 301.88l-61.9-35.74h-27.1a6.64 6.64 0 0 0 .66.43l88.34 51c3.25 1.88 5.88-.1 5.88-4.45 0-4.33-2.63-9.37-5.88-11.24zM295.32 250.87c-3.25-1.87-5.9.12-5.9 4.45 0 4 2.3 8.7 5.25 10.82h27.1zM313.5 200.12l-18.83 4.76a6.64 6.64 0 0 0 .65.43l18.2 10.5c3.24 1.9 5.88-.1 5.88-4.44 0-4.36-2.64-9.36-5.9-11.24zM295.32 189.6c-3.25-1.86-5.9.13-5.9 4.46 0 4 2.3 8.7 5.25 10.82l18.84-4.76zM313.5 230.75l-18.83 4.76a6.64 6.64 0 0 0 .65.44l18.2 10.5c3.24 1.88 5.88-.1 5.88-4.45 0-4.34-2.64-9.38-5.9-11.25zM295.32 220.24c-3.25-1.87-5.9.12-5.9 4.45 0 4 2.3 8.68 5.25 10.8l18.84-4.75zM383.66 240.62l-18.85 4.77c.22.14.44.3.66.42l18.2 10.5c3.25 1.88 5.88-.1 5.88-4.45 0-4.34-2.63-9.38-5.88-11.25zM365.46 230.1c-3.25-1.87-5.88.13-5.88 4.46 0 4 2.3 8.68 5.23 10.82l18.86-4.77zM383.66 271.25L364.8 276c.22.15.44.3.66.43l18.2 10.5c3.25 1.88 5.88-.1 5.88-4.45 0-4.32-2.63-9.36-5.88-11.23zM365.46 260.74c-3.25-1.88-5.88.12-5.88 4.45 0 4 2.3 8.67 5.23 10.8l18.86-4.75zM313.5 292.07l-18.83 4.76c.2.15.43.3.65.43l18.2 10.5c3.24 1.88 5.88-.1 5.88-4.45 0-4.3-2.64-9.36-5.9-11.23zM295.32 281.56c-3.25-1.88-5.9.12-5.9 4.45 0 4 2.3 8.7 5.25 10.83l18.84-4.76zM313.5 322.7l-18.83 4.76c.2.15.43.3.65.43l18.2 10.5c3.24 1.87 5.88-.12 5.88-4.46 0-4.33-2.64-9.37-5.9-11.24zM295.32 312.2c-3.25-1.88-5.9.1-5.9 4.44 0 4 2.3 8.68 5.25 10.82l18.84-4.76zM383.66 332.56l-18.85 4.77c.22.15.44.3.66.43l18.2 10.5c3.25 1.88 5.88-.12 5.88-4.45 0-4.32-2.63-9.36-5.88-11.24zM365.46 322.06c-3.25-1.88-5.88.12-5.88 4.45 0 4 2.3 8.7 5.23 10.83l18.86-4.77zM383.66 363.2L364.8 368c.22.15.44.3.66.43l18.2 10.5c3.25 1.88 5.88-.12 5.88-4.45 0-4.37-2.63-9.4-5.88-11.3zM365.46 352.7c-3.25-1.9-5.88.1-5.88 4.44 0 4 2.3 8.68 5.23 10.82l18.86-4.77zM383.66 210l-61.9-35.73h-27.1a6.64 6.64 0 0 0 .66.43l88.34 51c3.25 1.88 5.88-.1 5.88-4.45 0-4.35-2.63-9.4-5.88-11.25zM295.32 159c-3.25-1.87-5.9.12-5.9 4.45 0 4 2.3 8.7 5.25 10.82h27.1zM345.85 257.36l-22.58-13.04v-25.9l22.58 13.03v25.9z" class="cls-34"/><path d="M334.56 247.1a17.2 17.2 0 0 1-7.8-13.47c0-4.95 3.48-6.94 7.8-4.45 4.3 2.5 7.8 8.5 7.8 13.46 0 4.95-3.5 6.94-7.8 4.46z" class="cls-42"/><path id="surface1" d="M334.18 232.73v5.2l.75.42v-5.18zm-1.13-.36c-1.75-.3-3 .9-3 3.16a9.94 9.94 0 0 0 4.52 7.8c2.5 1.43 4.52.28 4.52-2.58a10 10 0 0 0-3-6.63v.93a8.3 8.3 0 0 1 2.25 5.26c0 2.4-1.7 3.36-3.76 2.16a8.32 8.32 0 0 1-3.78-6.5c0-1.77.93-2.75 2.26-2.65z" class="cls-43"/><path d="M350.86 228.05v25.9l-5 3.4v-25.9l5-3.4z" class="cls-44"/><path d="M353.57 338c0-8.73-6.14-19.4-13.75-23.8-3.72-2.15-7.1-2.4-9.58-1.08l-.1.06-.1.06-5.48 3.1 2.47.4a13.17 13.17 0 0 0-1 5.3c0 8.75 6.14 19.4 13.74 23.8a14.77 14.77 0 0 0 3.75 1.57l.37 2.66 5.47-3.13c2.57-1.4 4.2-4.47 4.2-8.93z" class="cls-45"/><ellipse cx="334.33" cy="333.14" class="cls-43" rx="11.22" ry="19.43" transform="translate(-122.22 213.48) rotate(-30.21)"/><path d="M350.86 228.05l-5 3.4-3.2-1.84-19.4-11.2 5.03-3.38 18.84 10.88 3.72 2.15z" class="cls-35"/><path d="M625.1 282.6v-21.54h-8.4v21.55a2 2 0 0 0 1.3 1.9 6.58 6.58 0 0 0 5.94 0 2 2 0 0 0 1.15-1.9z" class="cls-34"/><path d="M656 250.4a12.45 12.45 0 0 0-.94-2.08 16.86 16.86 0 0 0-1.68-2.47l-2-2.95-6.1-9-3.2-4.74-11.73-17.3-3.1-4.58-3.23-4.75-2.18-3.2-5.4 7.9-4.42 6.47-10.38 15.3-.13.2-11.44 16.8a15.36 15.36 0 0 0-1.14 1.66c-4.2 7.05-1.4 15.2 8.4 20.85 1 .56 2 1.08 3 1.55 13.72 6.3 33.7 5.83 46.3-1.45 8.53-4.93 11.67-11.8 9.38-18.2z" class="cls-46"/><path d="M642.13 229.2l3.2 4.73a19.47 19.47 0 0 1-2.68 1.84c-9.55 5.52-25.08 5.5-34.7-.06a14.9 14.9 0 0 1-6.44-6.5 3.9 3.9 0 0 1-.2-.46c-1.76-4.56.42-9.52 6.55-13.06a26.7 26.7 0 0 1 4.22-2 40.3 40.3 0 0 1 18.33-1.84 32.62 32.62 0 0 1 12.14 3.85 20.37 20.37 0 0 1 3.3 2.33c1.45 3.83.22 7.88-3.7 11.16z" class="cls-47"/><path d="M645.83 218.08a11 11 0 0 0-.58-1.2l-.06-.1a11.6 11.6 0 0 0-1.1-1.6l-12.82-18.9-5.52-8.15-3.88-5.72-4.54 6.66-3.5 5.16-14.42 21.1a11.14 11.14 0 0 0-.7 1v.07c-2.42 4.04-1.55 8.6 2.6 12.3.1.1.22.2.34.3a19 19 0 0 0 3 2.06c9.6 5.55 25.14 5.58 34.7.07a19.68 19.68 0 0 0 2.83-2c3.86-3.22 5.1-7.27 3.63-11.05z" class="cls-48"/><path d="M631.3 196.28a7.34 7.34 0 0 1-1.37 1 14.8 14.8 0 0 1-13.4 0 5.27 5.27 0 0 1-2.7-3l3.52-5.16a15.27 15.27 0 0 1 8.42-.93z" class="cls-47"/><path d="M630.92 189.6l-.07-.1a4.45 4.45 0 0 0-.32-.47l-8.65-12.75-8.73 12.8c0 .07-.1.14-.14.2l-.1.15c-1.13 1.92-.38 4.13 2.3 5.67a14.84 14.84 0 0 0 13.4 0c2.6-1.47 3.4-3.6 2.32-5.5z" class="cls-49"/><path d="M85.64 284.93l-7.4-4.27a3.73 3.73 0 0 1-1.55-3v-19.8c0-1.14.7-1.67 1.54-1.18l7.4 4.27a3.73 3.73 0 0 1 1.55 3v19.84c0 1.1-.7 1.63-1.56 1.13zM102.18 294.48l-7.4-4.27a3.7 3.7 0 0 1-1.55-3v-19.8c0-1.14.7-1.66 1.55-1.17l7.4 4.27a3.73 3.73 0 0 1 1.55 3v19.84c0 1.1-.73 1.66-1.55 1.14zM85.64 325.26l-7.4-4.26a3.73 3.73 0 0 1-1.55-3v-19.8c0-1.15.7-1.68 1.54-1.2l7.4 4.28a3.73 3.73 0 0 1 1.55 3v19.84c0 1.1-.7 1.64-1.56 1.14zM102.18 334.8l-7.4-4.26a3.7 3.7 0 0 1-1.55-3v-19.8c0-1.15.7-1.67 1.55-1.18l7.4 4.27a3.73 3.73 0 0 1 1.55 3v19.84c0 1.1-.73 1.64-1.55 1.14zM85.64 365.6l-7.4-4.28a3.73 3.73 0 0 1-1.55-3v-19.8c0-1.15.7-1.67 1.54-1.18l7.4 4.27a3.73 3.73 0 0 1 1.55 3v19.85c0 1.1-.7 1.64-1.56 1.14zM102.18 375.14l-7.4-4.27a3.7 3.7 0 0 1-1.55-3v-19.8c0-1.15.7-1.67 1.55-1.18l7.4 4.26a3.73 3.73 0 0 1 1.55 3V374c0 1.1-.73 1.64-1.55 1.14z" class="cls-50"/><rect width="2.69" height="41.31" x="116.72" y="183.24" class="cls-51" rx="1.35"/><path d="M483.6 40a16.4 16.4 0 1 1-32.76 0c0-9 16.4-40 16.4-40s16.37 30.94 16.37 40z" class="cls-52"/><path d="M449.24 63.3a10.45 10.45 0 1 1-20.9 0c0-5.78 10.45-25.52 10.45-25.52s10.44 19.74 10.44 25.5z" class="cls-53"/></g></g></g></svg>