<?xml version="1.0" encoding="utf-8"?>
<!-- Generator: Adobe Illustrator 23.0.4, SVG Export Plug-In . SVG Version: 6.00 Build 0)  -->
<svg version="1.1"
	 id="svg2" xmlns:cc="http://creativecommons.org/ns#" xmlns:dc="http://purl.org/dc/elements/1.1/" xmlns:rdf="http://www.w3.org/1999/02/22-rdf-syntax-ns#" xmlns:svg="http://www.w3.org/2000/svg"
	 xmlns="http://www.w3.org/2000/svg" xmlns:xlink="http://www.w3.org/1999/xlink" x="0px" y="0px" viewBox="0 0 968.1 278.2"
	 style="enable-background:new 0 0 968.1 278.2;" xml:space="preserve">
<style type="text/css">
	.st0{fill:#B3B3B3;}
</style>
<g id="g10" transform="matrix(1.3333333,0,0,-1.3333333,0,278.16)">
	<g id="g12" transform="scale(0.1)">
		<path id="path1404" class="st0" d="M55.1,519.9c153.7-7.1,404.3-14.3,549.1-14.3c632,0,707.4,1.3,707.4,344.8
			c0,271-79.6,292.7-414.4,302.8l-388.5,11.6c-178.1,5.9-181.1,24.6-181.1,104.3c0,82.6,21.7,82.6,449.2,82.6
			c81,0,339.1-4.3,475.4-7.2c14.3,0,21.7,7.2,21.7,21.8v176.8c0,14.4-7.4,21.8-20.4,23.1c-134.8,7.4-355,14.6-513,14.6
			c-620.3,0-720.1-11.6-720.1-331.8c0-274,60.8-310.2,457.8-323.3l356.4-11.5c166.8-5.8,169.7-26.1,169.7-88.4
			c0-85.6-7.3-89.9-401.6-89.9c-184.1,0-373.9,7.2-546.3,13.1c-14.5,1.4-21.7-5.9-21.7-20.3V543.1C34.8,528.6,42,521.4,55.1,519.9
			 M6743.4,903.9h-463.8l213.1,421.9h37.7L6743.4,903.9z M5389.2,1050.4v-14.5c0-268.1-21.9-276.8-369.5-276.8h-287v568.2h287
			C5367.3,1327.2,5389.2,1318.5,5389.2,1050.4 M3884.5,1050.4v-14.5c0-292.8-11.5-297.1-353.6-297.1c-342,0-353.7,4.3-353.7,297.1
			v14.5c0,292.7,11.7,297,353.7,297C3873,1347.4,3884.5,1343.1,3884.5,1050.4 M7258,547.5l-500,1001.4c-4.3,11.5-13.1,16-24.6,16
			h-443.4c-11.8,0-20.4-4.4-24.7-16l-500-1001.4c-7.3-16-1.4-26.1,15.8-26.1h288.5c11.5,0,20.3,4.3,24.6,16l75.4,147.8h684.1
			l75.2-147.8c4.5-11.7,13.1-16,24.8-16H7242C7259.4,521.4,7265.2,531.5,7258,547.5 M5018.1,1564.8h-578.2
			c-14.5,0-21.9-7.3-21.9-21.8V543.1c0-14.5,7.4-21.7,21.9-21.7h578.2c618.9,0,700.1,30.5,700.1,517.5v8.6
			C5718.2,1534.4,5637,1564.8,5018.1,1564.8 M2779.5,547.5l-576.9,563.7l541.9,427.5c16.1,11.5,10.1,26.1-10.1,26.1h-353.6
			c-10.1,0-17.4-2.9-26.1-10.1l-553.6-442.2v430.5c0,14.4-7.2,21.8-21.7,21.8h-269.5c-14.5,0-21.8-7.3-21.8-21.8V543.1
			c0-14.5,7.3-21.7,21.8-21.7h269.5c14.5,0,21.7,7.2,21.7,21.7v252.1l163.8,129L2362,532.9c8.7-8.6,15.9-11.5,27.5-11.5h379.8
			C2788.1,521.4,2793.9,534.4,2779.5,547.5 M2841,1050.4v-14.5c0-505.7,82.8-536.3,690-536.3c607.3,0,689.8,30.6,689.8,537.9v12.9
			c0,505.7-82.6,536.2-689.8,536.2C2923.8,1586.6,2841,1556.1,2841,1050.4 M398.5,1806.8l131.9-150.6c7.3-8.6,14.6-11.7,26.1-11.7
			h276.8c11.7,0,18.9,3,26.1,11.7l131.9,150.6c11.5,13.2,7.2,26.2-11.6,26.2H792.8c-11.7,0-19.1-4.3-26.3-13l-56.5-81.2h-30.6
			l-56.4,81.2c-7.2,8.7-14.4,13-27.5,13H410.1C391.1,1832.9,387.1,1819.9,398.5,1806.8"/>
	</g>
</g>
</svg>
