<svg xmlns="http://www.w3.org/2000/svg" xmlns:xlink="http://www.w3.org/1999/xlink" viewBox="0 0 338.58 277.7"><defs><style>.cls-1{isolation:isolate;}.cls-2{fill:#888;}.cls-3{fill:url(#linear-gradient);}.cls-4{fill:#c2c2c2;}.cls-5{fill:#fff;}.cls-6,.cls-7{opacity:0.5;}.cls-7{fill:#4fb54f;}.cls-8{opacity:0.4;mix-blend-mode:multiply;fill:url(#Nepojmenovaný_přechod_32);}.cls-9{fill:none;}.cls-10{fill:url(#Nepojmenovaný_přechod_17);}.cls-11{fill:url(#Nepojmenovaný_přechod_17-2);}.cls-12{fill:url(#Nepojmenovaný_přechod_15);}.cls-13{fill:url(#linear-gradient-2);}.cls-14{fill:url(#Nepojmenovaný_přechod_34);}</style><linearGradient id="linear-gradient" y1="179.97" x2="338.58" y2="179.97" gradientUnits="userSpaceOnUse"><stop offset="0" stop-color="#d4d4d4"/><stop offset="1" stop-color="#333"/></linearGradient><radialGradient id="Nepojmenovaný_přechod_32" cx="7345.01" cy="-3107.41" r="74.94" gradientTransform="matrix(-0.87, 0.5, 1, 0.58, 9633.76, -1652.04)" gradientUnits="userSpaceOnUse"><stop offset="0" stop-color="#747474"/><stop offset="0.08" stop-color="#939393"/><stop offset="0.19" stop-color="#b4b4b4"/><stop offset="0.31" stop-color="#cfcfcf"/><stop offset="0.44" stop-color="#e4e4e4"/><stop offset="0.58" stop-color="#f3f3f3"/><stop offset="0.75" stop-color="#fcfcfc"/><stop offset="1" stop-color="#fff"/></radialGradient><linearGradient id="Nepojmenovaný_přechod_17" x1="144.92" y1="189.03" x2="144.92" y2="108.54" xlink:href="#linear-gradient"/><linearGradient id="Nepojmenovaný_přechod_17-2" x1="142.66" y1="171.33" x2="198.5" y2="124.47" xlink:href="#linear-gradient"/><linearGradient id="Nepojmenovaný_přechod_15" x1="120.53" y1="78.05" x2="193.7" y2="78.05" gradientUnits="userSpaceOnUse"><stop offset="0" stop-color="#b9282b"/><stop offset="0.79" stop-color="#de3a2e"/><stop offset="0.97" stop-color="#e36559"/></linearGradient><linearGradient id="linear-gradient-2" x1="144.92" y1="85.15" x2="193.7" y2="85.15" gradientUnits="userSpaceOnUse"><stop offset="0.15" stop-color="#de3a2e"/><stop offset="1" stop-color="#a72027"/></linearGradient><linearGradient id="Nepojmenovaný_přechod_34" x1="168.02" y1="41.98" x2="141.53" y2="0.35" gradientUnits="userSpaceOnUse"><stop offset="0" stop-color="#ccc"/><stop offset="1" stop-color="#fff"/></linearGradient></defs><title>Asset 10</title><g class="cls-1"><g id="Layer_2" data-name="Layer 2"><g id="Layer_1-2" data-name="Layer 1"><path class="cls-2" d="M300.81,127.66,241.68,93.52c-1.34-.77-1.17-2.12.38-3h0a5.78,5.78,0,0,1,5.22-.22l59.13,34.14c1.34.77,1.17,2.12-.37,3h0A5.8,5.8,0,0,1,300.81,127.66Z"/><path class="cls-3" d="M338.58,137.3H326.94L235.49,84.5c-5.84-3.37-16-2.94-22.78,1L9.93,202.53H0v10.09H0c.06,2.09,1.36,4.08,3.94,5.57l99.14,57.24c5.84,3.37,16,2.95,22.78-.94L333,154.89c3.71-2.14,5.6-4.89,5.57-7.49h0Z"/><path class="cls-4" d="M103.08,264.92,3.94,207.68c-5.84-3.37-5.1-9.26,1.64-13.15L212.71,74.94c6.75-3.89,16.94-4.32,22.78-.94l99.14,57.24c5.84,3.37,5.11,9.25-1.63,13.15L125.86,264C119.12,267.87,108.92,268.29,103.08,264.92Z"/><path class="cls-2" d="M76.69,238.92l-27.7-16c-1.34-.77-1.18-2.12.37-3h0a5.8,5.8,0,0,1,5.23-.21l27.7,16c1.34.77,1.17,2.13-.38,3h0A5.82,5.82,0,0,1,76.69,238.92Z"/><polygon class="cls-5" points="136.16 258.03 15.87 188.59 201.3 81.53 321.59 150.97 136.16 258.03"/><g class="cls-6"><path class="cls-4" d="M204.13,147.69c-25.21-14.55-66.09-14.63-91.14-.16s-24.93,38.06.28,52.62,66.09,14.62,91.14.16S229.34,162.24,204.13,147.69Zm-84.62,48.86c-21.75-12.56-21.86-32.92-.25-45.4s56.89-12.41,78.63.14,21.86,32.92.25,45.4S141.25,209.1,119.51,196.55Z"/></g><ellipse class="cls-7" cx="158.7" cy="173.04" rx="25.35" ry="43.92" transform="translate(-15.2 330.8) rotate(-89.69)"/><ellipse class="cls-7" cx="158.7" cy="173.04" rx="15.69" ry="27.17" transform="translate(-15.2 330.8) rotate(-89.69)"/><ellipse class="cls-7" cx="158.7" cy="173.04" rx="8.13" ry="14.08" transform="translate(-15.2 330.8) rotate(-89.69)"/><polygon class="cls-5" points="182.4 172.06 146.78 172 146.78 172 146.73 162.2 137.52 162.18 137.57 171.98 137.6 177.3 146.81 177.31 146.81 177.31 182.43 177.38 182.4 172.06"/><ellipse class="cls-8" cx="155.33" cy="175.04" rx="98.08" ry="56.62" transform="translate(-0.95 0.84) rotate(-0.31)"/><line class="cls-9" x1="156.98" y1="122.63" x2="156.98" y2="89.93"/><polygon class="cls-10" points="157.25 122.56 157.25 188.72 156.71 189.03 132.59 175 132.59 108.54 157.25 122.56"/><polygon class="cls-11" points="157.25 122.56 183.76 106.9 183.76 173.37 157.25 188.72 157.25 122.56"/><path class="cls-12" d="M132.07,42.5l25.7-14.91a7.6,7.6,0,0,1,7.78.06v0L190,41.86V69.13H169.31V87.37l24.39,14.2-48.78,28-24.39-14.2V62.54A23.17,23.17,0,0,1,132.07,42.5Z"/><path class="cls-13" d="M156.46,56.7l25.7-14.91a7.69,7.69,0,0,1,11.54,6.65v53.13l-48.78,28V76.74A23.18,23.18,0,0,1,156.46,56.7Z"/><circle class="cls-14" cx="155.33" cy="22.04" r="22.04"/></g></g></g></svg>