<?xml version="1.0" encoding="utf-8"?>
<!-- Generator: Adobe Illustrator 24.2.1, SVG Export Plug-In . SVG Version: 6.00 Build 0)  -->
<svg version="1.1" id="Layer_1" xmlns="http://www.w3.org/2000/svg" xmlns:xlink="http://www.w3.org/1999/xlink" x="0px" y="0px"
	 viewBox="0 0 60 60" style="enable-background:new 0 0 60 60;" xml:space="preserve">
<style type="text/css">
	.st0{fill:none;stroke:#FFFFFF;stroke-width:3;stroke-linejoin:round;}
</style>
<desc></desc>
<g id="Page-1">
	<g id="Twitter" transform="translate(1.000000, 1.000000)">
		<path id="Stroke-3" class="st0" d="M52.4,9.1c-0.8,2.4-2.4,4.5-4.5,5.8c2.1-0.2,4-0.8,5.8-1.6c-1.4,2.1-3.1,3.9-5.1,5.4
			c0,0.4,0,0.9,0,1.3c0,13.8-10.2,29.6-28.9,29.6c-5.7,0-11.1-1.7-15.6-4.7C5,45,5.9,45.1,6.7,45.1c4.8,0,9.1-1.7,12.6-4.5
			c-4.4-0.1-8.2-3.1-9.5-7.2c0.6,0.1,1.3,0.2,1.9,0.2c0.9,0,1.8-0.1,2.7-0.4C9.7,32.3,6.2,28,6.2,23v-0.1c1.4,0.8,2.9,1.2,4.6,1.3
			c-2.7-1.9-4.5-5.1-4.5-8.7c0-1.9,0.5-3.7,1.4-5.2c5,6.3,12.5,10.5,20.9,10.9c-0.2-0.8-0.3-1.6-0.3-2.4c0-5.7,4.5-10.4,10.2-10.4
			c2.9,0,5.6,1.3,7.4,3.3C48.2,11.2,50.4,10.3,52.4,9.1L52.4,9.1z"/>
		<path id="Stroke-100" class="st0" d="M54,58H4c-2.2,0-4-1.8-4-4V4c0-2.2,1.8-4,4-4h50c2.2,0,4,1.8,4,4v50C58,56.2,56.2,58,54,58
			L54,58z"/>
	</g>
</g>
</svg>
