<svg xmlns="http://www.w3.org/2000/svg" xmlns:xlink="http://www.w3.org/1999/xlink" viewBox="0 0 467.63 74.95"><defs><style>.cls-1,.cls-8{fill:none;}.cls-2{fill:#231f20;}.cls-3{fill:url(#linear-gradient);}.cls-4{fill:url(#linear-gradient-2);}.cls-5{fill:url(#linear-gradient-3);}.cls-6{fill:url(#linear-gradient-4);}.cls-7{fill:#a72027;}.cls-8{stroke:#e2887e;stroke-miterlimit:10;stroke-width:0.13px;}.cls-9{fill:url(#linear-gradient-5);}.cls-10{fill:url(#linear-gradient-6);}.cls-11{fill:url(#linear-gradient-7);}.cls-12{fill:url(#linear-gradient-8);}.cls-13{fill:url(#linear-gradient-9);}.cls-14{clip-path:url(#clip-path);}.cls-15{fill:#fff;opacity:0.1;}.cls-16{fill:url(#linear-gradient-10);}.cls-17{fill:url(#linear-gradient-11);}.cls-18{fill:url(#linear-gradient-12);}</style><linearGradient id="linear-gradient" x1="5158.4" y1="402.35" x2="5177.61" y2="402.35" gradientTransform="matrix(0.87, 0.5, -1, 0.58, -3698.2, -2756.2)" gradientUnits="userSpaceOnUse"><stop offset="0.03" stop-color="#e36559"/><stop offset="0.21" stop-color="#de3a2e"/><stop offset="1" stop-color="#b9282b"/></linearGradient><linearGradient id="linear-gradient-2" x1="5158.4" y1="390.69" x2="5177.61" y2="390.69" xlink:href="#linear-gradient"/><linearGradient id="linear-gradient-3" x1="5158.4" y1="396.52" x2="5177.61" y2="396.52" xlink:href="#linear-gradient"/><linearGradient id="linear-gradient-4" x1="369.22" y1="62.14" x2="394.72" y2="55.43" gradientTransform="matrix(1, 0, 0, 1, 0, 0)" xlink:href="#linear-gradient"/><linearGradient id="linear-gradient-5" x1="5155.98" y1="400.25" x2="5175.2" y2="400.25" xlink:href="#linear-gradient"/><linearGradient id="linear-gradient-6" x1="5155.98" y1="388.6" x2="5175.2" y2="388.6" xlink:href="#linear-gradient"/><linearGradient id="linear-gradient-7" x1="5155.98" y1="394.43" x2="5175.2" y2="394.43" xlink:href="#linear-gradient"/><linearGradient id="linear-gradient-8" x1="328.64" y1="4.49" x2="348.96" y2="16.22" gradientTransform="translate(0 14.28) scale(1 1.15)" xlink:href="#linear-gradient"/><linearGradient id="linear-gradient-9" x1="372.49" y1="52.43" x2="400.96" y2="50.46" gradientUnits="userSpaceOnUse"><stop offset="0.03" stop-color="#e36559"/><stop offset="0.21" stop-color="#de3a2e"/><stop offset="0.67" stop-color="#b9282b"/></linearGradient><clipPath id="clip-path"><path class="cls-1" d="M380.91,42.58a11.73,11.73,0,0,0-11.73,11.67v0c0,1.73,1.17,3.46,3.46,4.79,4.6,2.65,12,2.66,16.59,0,2.26-1.31,3.4-3,3.41-4.74v-.07A11.73,11.73,0,0,0,380.91,42.58Z"/></clipPath><linearGradient id="linear-gradient-10" x1="363.18" y1="41.88" x2="366.07" y2="41.88" gradientTransform="matrix(1, 0, 0, 1, 0, 0)" xlink:href="#linear-gradient"/><linearGradient id="linear-gradient-11" x1="-248.06" y1="-81.78" x2="-223.59" y2="-81.78" gradientTransform="matrix(0.75, -0.13, 0.38, 0.99, 372.13, 55.6)" gradientUnits="userSpaceOnUse"><stop offset="0" stop-color="#e36559"/><stop offset="1" stop-color="#de3a2e"/></linearGradient><linearGradient id="linear-gradient-12" x1="8511.6" y1="-330.65" x2="8521.63" y2="-330.65" gradientTransform="translate(131.96 -8509.06) rotate(90)" xlink:href="#linear-gradient-11"/></defs><title>Asset 7</title><g id="Layer_2" data-name="Layer 2"><g id="Layer_1-2" data-name="Layer 1"><path class="cls-2" d="M23.58,65.67a4,4,0,0,1-1.65,2.12,5.21,5.21,0,0,1-3,.9,5.13,5.13,0,0,1-3.06-.9,4,4,0,0,1-1.62-2.12L.11,25.71a3.09,3.09,0,0,1,.47-2.56,4.32,4.32,0,0,1,2.77-1.83,4.33,4.33,0,0,1,3.13.28,3.52,3.52,0,0,1,1.84,1.95l10.58,33,10.37-32.9A3.22,3.22,0,0,1,31,21.68a4.52,4.52,0,0,1,3.21-.29A4.24,4.24,0,0,1,37,23.22a3.14,3.14,0,0,1,.44,2.56Z"/><path class="cls-2" d="M62.32,50.76l-13-23.83a2.78,2.78,0,0,1-.43-2.48A3.9,3.9,0,0,1,50.72,22,4.68,4.68,0,0,1,54,21.28a3.62,3.62,0,0,1,2.38,1.26L66.71,42.92,77.15,22.54a3.62,3.62,0,0,1,2.37-1.26,4.65,4.65,0,0,1,3.24.76,3.75,3.75,0,0,1,1.84,2.41,3,3,0,0,1-.4,2.48L70.67,51.56V65.24a3.14,3.14,0,0,1-1.12,2.34,4.1,4.1,0,0,1-2.91,1,4.57,4.57,0,0,1-3.17-1,3.11,3.11,0,0,1-1.15-2.34Z"/><path class="cls-2" d="M119.48,65.67a4,4,0,0,1-1.65,2.12,5.18,5.18,0,0,1-3,.9,5.13,5.13,0,0,1-3.06-.9,4,4,0,0,1-1.62-2.12L96,25.71a3.09,3.09,0,0,1,.47-2.56,4.89,4.89,0,0,1,5.9-1.55,3.52,3.52,0,0,1,1.84,1.95l10.58,33,10.37-32.9a3.21,3.21,0,0,1,1.77-1.94,4.49,4.49,0,0,1,3.2-.29,4.23,4.23,0,0,1,2.74,1.83,3.17,3.17,0,0,1,.43,2.56Z"/><path class="cls-2" d="M175.82,22.93a3.85,3.85,0,0,1,1.05,2.85,3.65,3.65,0,0,1-1.05,2.7,4.11,4.11,0,0,1-3.06,1H156.63V40.83h10.8a4.29,4.29,0,0,1,3.14,1,3.89,3.89,0,0,1,1,2.85,3.69,3.69,0,0,1-1,2.7,4.29,4.29,0,0,1-3.14,1h-10.8V60.34h16.13a4.15,4.15,0,0,1,3.06,1,3.85,3.85,0,0,1,1.05,2.85,3.65,3.65,0,0,1-1.05,2.7,4.15,4.15,0,0,1-3.06,1H152.53a4.58,4.58,0,0,1-3.13-1,3.09,3.09,0,0,1-1.19-2.34V25.28a3.1,3.1,0,0,1,1.19-2.35,4.58,4.58,0,0,1,3.13-1h20.23A4.15,4.15,0,0,1,175.82,22.93Z"/><path class="cls-2" d="M219.49,21.89a4.28,4.28,0,0,1,3.13,1,3.85,3.85,0,0,1,1,2.85,3.65,3.65,0,0,1-1,2.7,4.24,4.24,0,0,1-3.13,1h-9.43V65.31a3.14,3.14,0,0,1-1.12,2.34,4.22,4.22,0,0,1-3,1,4.54,4.54,0,0,1-3.16-1,3.12,3.12,0,0,1-1.16-2.34V29.52h-8.49a4.17,4.17,0,0,1-3-1,3.52,3.52,0,0,1-1.12-2.7,3.71,3.71,0,0,1,1.12-2.85,4.22,4.22,0,0,1,3-1Z"/><path class="cls-2" d="M237.27,25.28a3.1,3.1,0,0,1,1.19-2.35,4.6,4.6,0,0,1,3.13-1h10.16a29.05,29.05,0,0,1,8.2,1,14.07,14.07,0,0,1,5.44,2.84,10.86,10.86,0,0,1,3,4.4,16.62,16.62,0,0,1,.93,5.72v.5a11.36,11.36,0,0,1-1.69,6.3c-1.13,1.76-3.11,3.16-5.94,4.22l8,16.34a2.38,2.38,0,0,1,.22,2.48,5.14,5.14,0,0,1-2.23,2.49,4.27,4.27,0,0,1-3.1.39,3.34,3.34,0,0,1-2.16-1.47l-8.06-17.28a9.59,9.59,0,0,1-1.23.07H245.7V65.45a3,3,0,0,1-1.12,2.27,4.37,4.37,0,0,1-3,1,4.3,4.3,0,0,1-3.13-1.15,3.4,3.4,0,0,1-1.19-2.45Zm8.43,3.81V43h6.05q4.89,0,7-1.66a5.16,5.16,0,0,0,2.12-4.25V35.72a6,6,0,0,0-2.12-4.87q-2.13-1.76-7-1.76Z"/><path class="cls-2" d="M312.84,22.93a3.89,3.89,0,0,1,1,2.85,3.69,3.69,0,0,1-1,2.7,4.14,4.14,0,0,1-3.06,1H293.65V40.83h10.8a4.28,4.28,0,0,1,3.13,1,3.85,3.85,0,0,1,1,2.85,3.65,3.65,0,0,1-1,2.7,4.28,4.28,0,0,1-3.13,1h-10.8V60.34h16.13a4.18,4.18,0,0,1,3.06,1,3.89,3.89,0,0,1,1,2.85,3.69,3.69,0,0,1-1,2.7,4.18,4.18,0,0,1-3.06,1H289.55a4.61,4.61,0,0,1-3.14-1,3.09,3.09,0,0,1-1.19-2.34V25.28a3.1,3.1,0,0,1,1.19-2.35,4.61,4.61,0,0,1,3.14-1h20.23A4.18,4.18,0,0,1,312.84,22.93Z"/><path class="cls-2" d="M329.22,60.56a7.81,7.81,0,0,1,2.19.28,8.68,8.68,0,0,0,2.49.29c1.68,0,2.85-.39,3.52-1.19a6.13,6.13,0,0,0,1-4V24.56a3.11,3.11,0,0,1,1.15-2.34,4.24,4.24,0,0,1,3-1,4.5,4.5,0,0,1,3.16,1,3.09,3.09,0,0,1,1.16,2.34v31.1q0,7.13-3.32,10t-9.64,2.92a15.58,15.58,0,0,1-3-.29,10.46,10.46,0,0,1-2.55-.83,4.64,4.64,0,0,1-1.77-1.4A3.4,3.4,0,0,1,325.9,64a3.7,3.7,0,0,1,.83-2.52A3.16,3.16,0,0,1,329.22,60.56Z"/><path class="cls-2" d="M427.29,68.69a17.06,17.06,0,0,1-2.66-.25,26.42,26.42,0,0,1-3.31-.76,29.06,29.06,0,0,1-3.42-1.22,16,16,0,0,1-3.06-1.69,9,9,0,0,1-2.23-2.2,4.6,4.6,0,0,1-.87-2.73q0-3.39,3.75-3.39a4.38,4.38,0,0,1,2.16.69,13.34,13.34,0,0,1,1.72,1.33,11.05,11.05,0,0,0,3.46,2.05,12.58,12.58,0,0,0,4.75.9,7.35,7.35,0,0,0,4.54-1.26,4.71,4.71,0,0,0,1.65-4,5,5,0,0,0-1.54-3.78,15.28,15.28,0,0,0-3.93-2.62q-2.37-1.15-5.07-2.24a26.27,26.27,0,0,1-5.08-2.7,13.94,13.94,0,0,1-3.92-4,11.14,11.14,0,0,1-1.55-6.15,14.15,14.15,0,0,1,1-5.48,12.27,12.27,0,0,1,2.88-4.24,12.63,12.63,0,0,1,4.6-2.78,18.68,18.68,0,0,1,6.2-1,20,20,0,0,1,6.3.9,17.07,17.07,0,0,1,4.53,2.2A10.36,10.36,0,0,1,441,27a4.47,4.47,0,0,1,.94,2.34,4.24,4.24,0,0,1-.83,2.7,3.34,3.34,0,0,1-2.77,1,4.18,4.18,0,0,1-2.05-.5,11,11,0,0,1-1.69-1.16,16.25,16.25,0,0,0-2.67-1.65,10.56,10.56,0,0,0-4.82-.94,6.32,6.32,0,0,0-4.25,1.41,5,5,0,0,0-1.66,4.07A4.66,4.66,0,0,0,422.72,38a15.62,15.62,0,0,0,3.89,2.44q2.34,1.09,5.08,2.17a25.08,25.08,0,0,1,5.07,2.7,14,14,0,0,1,3.89,4.06,11.74,11.74,0,0,1,1.55,6.34,12.07,12.07,0,0,1-4,9.54Q434.28,68.69,427.29,68.69Z"/><path class="cls-2" d="M458.4,24.56a3.08,3.08,0,0,1,1.15-2.34,4.53,4.53,0,0,1,3.17-1,4.21,4.21,0,0,1,2.95,1,3.08,3.08,0,0,1,1.15,2.34V65.24a3.11,3.11,0,0,1-1.15,2.34,4.25,4.25,0,0,1-2.95,1,4.57,4.57,0,0,1-3.17-1,3.11,3.11,0,0,1-1.15-2.34Z"/><path class="cls-3" d="M369.18,56.71v0Z"/><path class="cls-4" d="M392.64,56.74v0Z"/><path class="cls-5" d="M389.18,52c-4.6-2.66-12-2.67-16.59,0-2.26,1.3-3.4,3-3.41,4.73v.05c0,1.74,1.17,3.47,3.46,4.79,4.6,2.66,12,2.67,16.59,0,2.26-1.3,3.4-3,3.41-4.73v-.06C392.63,55,391.47,53.28,389.18,52Z"/><path class="cls-6" d="M389.18,52c-4.6-2.66-12-2.67-16.59,0-2.26,1.3-3.4,3-3.41,4.73v.07a11.73,11.73,0,0,0,23.46.07v-.06C392.63,55,391.47,53.28,389.18,52Z"/><path class="cls-7" d="M389.18,52c-4.6-2.66-12-2.67-16.59,0-2.26,1.3-3.4,3-3.41,4.73v.05c0,1.74,1.17,3.47,3.46,4.79,4.6,2.66,12,2.67,16.59,0,2.26-1.3,3.4-3,3.41-4.73v-.06C392.63,55,391.47,53.28,389.18,52Z"/><path class="cls-8" d="M362.74,43.4c2.18-3.78,12.08-2.14,22.12,3.65s16.41,13.56,14.23,17.34"/><path class="cls-8" d="M362.74,64.39c-2.19-3.78,4.18-11.54,14.22-17.34s19.94-7.43,22.13-3.65"/><path class="cls-8" d="M399.09,64.39C396.9,68.17,387,66.54,377,60.74S360.55,47.18,362.74,43.4"/><path class="cls-8" d="M399.09,43.4c2.18,3.78-4.19,11.55-14.23,17.34s-19.94,7.43-22.12,3.65"/><path class="cls-8" d="M366.07,68.74c-3.09-3.09,1.06-12.24,9.25-20.43S392.66,36,395.75,39.06"/><path class="cls-8" d="M395.75,39.06c3.09,3.08-1.05,12.23-9.25,20.43s-17.34,12.33-20.43,9.25"/><path class="cls-8" d="M370.42,72.07c-3.78-2.18-2.15-12.09,3.65-22.13s13.55-16.4,17.33-14.22"/><path class="cls-8" d="M391.4,35.72c3.78,2.18,2.15,12.09-3.64,22.13s-13.56,16.4-17.34,14.22"/><path class="cls-8" d="M375.48,74.17c-4.22-1.13-5.2-11.12-2.2-22.32s8.85-19.36,13.06-18.23"/><path class="cls-8" d="M386.34,33.62c4.22,1.13,5.2,11.13,2.21,22.32S379.7,75.3,375.48,74.17"/><path class="cls-8" d="M380.91,74.88c-4.36,0-7.9-9.39-7.9-21s3.54-21,7.9-21"/><path class="cls-8" d="M380.91,32.91c4.37,0,7.9,9.4,7.9,21s-3.53,21-7.9,21"/><path class="cls-9" d="M369.18,54.3v0Z"/><path class="cls-10" d="M392.64,54.33v0Z"/><path class="cls-11" d="M389.18,49.54c-4.6-2.65-12-2.67-16.59,0-2.26,1.31-3.4,3-3.41,4.74v0c0,1.73,1.17,3.46,3.46,4.79,4.6,2.65,12,2.66,16.59,0,2.26-1.31,3.4-3,3.41-4.74v-.05C392.63,52.6,391.47,50.87,389.18,49.54Z"/><path class="cls-12" d="M389.18,49.54c-4.6-2.65-12-2.67-16.59,0-2.26,1.31-3.4,3-3.41,4.74v0c0,1.73,1.17,3.46,3.46,4.79,4.6,2.65,12,2.66,16.59,0,2.26-1.31,3.4-3,3.41-4.74v-.05C392.63,52.6,391.47,50.87,389.18,49.54Z"/><path class="cls-13" d="M380.91,42.58a11.73,11.73,0,0,0-11.73,11.67v0c0,1.73,1.17,3.46,3.46,4.79,4.6,2.65,12,2.66,16.59,0,2.26-1.31,3.4-3,3.41-4.74v-.07A11.73,11.73,0,0,0,380.91,42.58Z"/><g class="cls-14"><circle class="cls-15" cx="373.69" cy="46.07" r="7.62"/><circle class="cls-15" cx="370.42" cy="42.58" r="7.62"/></g><circle class="cls-16" cx="364.62" cy="41.88" r="1.45"/><polygon class="cls-17" points="172.29 0 162.34 13.25 152.79 0.02 172.29 0"/><circle class="cls-18" cx="462.61" cy="7.55" r="5.02"/></g></g></svg>