<svg xmlns="http://www.w3.org/2000/svg" xmlns:xlink="http://www.w3.org/1999/xlink" viewBox="0 0 485.85 65.05"><defs><style>.cls-1{fill:#231f20;}.cls-2{opacity:0.1;fill:url(#linear-gradient);}.cls-3{opacity:0.2;fill:url(#linear-gradient-2);}.cls-4{fill:url(#linear-gradient-3);}.cls-5{fill:url(#linear-gradient-4);}.cls-6{fill:url(#linear-gradient-5);}.cls-7{fill:url(#linear-gradient-6);}</style><linearGradient id="linear-gradient" x1="354.9" y1="24.72" x2="393.39" y2="24.72" gradientTransform="translate(63.62 -185.45) rotate(30.31)" gradientUnits="userSpaceOnUse"><stop offset="0" stop-color="#e36559"/><stop offset="1" stop-color="#de3a2e"/></linearGradient><linearGradient id="linear-gradient-2" x1="341.64" y1="32.52" x2="380.13" y2="32.52" gradientTransform="translate(65.75 -177.69) rotate(30.31)" xlink:href="#linear-gradient"/><linearGradient id="linear-gradient-3" x1="328.39" y1="40.32" x2="366.87" y2="40.32" gradientTransform="translate(67.87 -169.93) rotate(30.31)" xlink:href="#linear-gradient"/><linearGradient id="linear-gradient-4" x1="152.93" y1="5.64" x2="171.77" y2="5.64" gradientTransform="matrix(0.75, -0.13, 0.38, 0.99, 49.12, 21.21)" xlink:href="#linear-gradient"/><linearGradient id="linear-gradient-5" x1="7557.63" y1="130.42" x2="7568.37" y2="130.42" gradientTransform="translate(436.74 -7556.61) rotate(90)" xlink:href="#linear-gradient"/><linearGradient id="linear-gradient-6" x1="122.95" y1="8.61" x2="131.98" y2="8.61" gradientTransform="translate(-1.33 -8.33) scale(1 1.74)" xlink:href="#linear-gradient"/></defs><title>Asset 5</title><g id="Layer_2" data-name="Layer 2"><g id="Layer_1-2" data-name="Layer 1"><path class="cls-1" d="M21.74,24.65H4.46A3.83,3.83,0,0,1,2,23.79a3.13,3.13,0,0,1-1.08-2.6A3.41,3.41,0,0,1,2,18.42a3.7,3.7,0,0,1,2.44-.9H28.87a3.89,3.89,0,0,1,2.49.9,3.36,3.36,0,0,1,1.11,2.77,3.1,3.1,0,0,1-1,2.52h.08L10.8,56.47H29.59a3.73,3.73,0,0,1,2.45.9,3.42,3.42,0,0,1,1.08,2.78A3.12,3.12,0,0,1,32,62.74a3.85,3.85,0,0,1-2.45.86H3.6a4,4,0,0,1-2.52-.86A3.12,3.12,0,0,1,0,60.15a3.7,3.7,0,0,1,1-2.74Z"/><path class="cls-1" d="M69.7,50.57a4.27,4.27,0,0,1-2.88-1A8.26,8.26,0,0,1,65,47.55L57,30.77V60.94a3.16,3.16,0,0,1-1.11,2.34,4.23,4.23,0,0,1-3,1,4.58,4.58,0,0,1-3.13-1,3.09,3.09,0,0,1-1.19-2.34V20.19a3.06,3.06,0,0,1,1.19-2.34,4.54,4.54,0,0,1,3.13-1.05h1.22a6.27,6.27,0,0,1,3.1.69,4.64,4.64,0,0,1,1.87,1.83L69.7,40.63,80.28,19.32a6,6,0,0,1,1.94-1.91,5.43,5.43,0,0,1,3.1-.68l1.15.07a4.54,4.54,0,0,1,3.17,1.05,3.08,3.08,0,0,1,1.15,2.34V60.94a3.11,3.11,0,0,1-1.15,2.34,4.59,4.59,0,0,1-3.17,1,4.1,4.1,0,0,1-2.91-1,3.14,3.14,0,0,1-1.12-2.34V30.77L74.38,47.55a7.19,7.19,0,0,1-1.73,2.05A4.41,4.41,0,0,1,69.7,50.57Z"/><path class="cls-1" d="M143.35,59.64a3.14,3.14,0,0,1-.43,2.56A4.2,4.2,0,0,1,140.18,64a4.5,4.5,0,0,1-3.2-.28,3.18,3.18,0,0,1-1.76-2l-2.6-8.35H116.93l-2.67,8.42a3.5,3.5,0,0,1-1.83,2,4.87,4.87,0,0,1-5.91-1.55,3,3,0,0,1-.46-2.56l14.11-39.88a4,4,0,0,1,1.62-2.13,5.58,5.58,0,0,1,6.08,0,4,4,0,0,1,1.66,2.13ZM119.16,46.39h11.23l-5.54-17.85Z"/><path class="cls-1" d="M156,34.3A20.9,20.9,0,0,1,157,27.57a15.29,15.29,0,0,1,8.57-9.36,17.73,17.73,0,0,1,7.27-1.41,19.83,19.83,0,0,1,5.19.65,15.74,15.74,0,0,1,4.13,1.73,9,9,0,0,1,2.74,2.45,4.87,4.87,0,0,1,1,2.88,2.86,2.86,0,0,1-.86,2.23,2.89,2.89,0,0,1-2,.79,6.82,6.82,0,0,1-2.16-.32,10.7,10.7,0,0,1-2.16-1.12,13.61,13.61,0,0,0-2.48-1.22,9.71,9.71,0,0,0-3.42-.51,8.43,8.43,0,0,0-5.94,2.31c-1.66,1.53-2.48,3.91-2.48,7.12V47.4c0,3.22.82,5.58,2.48,7.09a8.49,8.49,0,0,0,5.94,2.27,14.29,14.29,0,0,0,3.35-.32,10.22,10.22,0,0,0,2.41-1c.53-.34,1-.62,1.37-.83a7.56,7.56,0,0,1,1-.51,4.61,4.61,0,0,1,1-.25,8,8,0,0,1,1.16-.07,2.61,2.61,0,0,1,2.12.83,3.13,3.13,0,0,1,.68,2,4.87,4.87,0,0,1-1,2.88A8.69,8.69,0,0,1,182.19,62a16.42,16.42,0,0,1-4.13,1.69,19.42,19.42,0,0,1-5.19.65,17.89,17.89,0,0,1-7.27-1.4,15.81,15.81,0,0,1-5.33-3.78A15.65,15.65,0,0,1,157,53.59,20.78,20.78,0,0,1,156,46.83Z"/><path class="cls-1" d="M201.45,20.19a3.09,3.09,0,0,1,1.16-2.34,4.5,4.5,0,0,1,3.16-1.05,4.24,4.24,0,0,1,3,1.05,3.11,3.11,0,0,1,1.15,2.34V37.54h2.23L225.93,18a3.19,3.19,0,0,1,1.12-.83,3.77,3.77,0,0,1,1.51-.36,5.23,5.23,0,0,1,1.66.18,4.15,4.15,0,0,1,1.55.79A3.49,3.49,0,0,1,233,20.73,3.93,3.93,0,0,1,232,23.35L219.09,40.56l14.62,17.5a2.79,2.79,0,0,1,.72,2.48,4.4,4.4,0,0,1-1.66,2.77,4.19,4.19,0,0,1-3,1,3.43,3.43,0,0,1-2.45-1.12L212.54,44.88h-2.66V60.94a3.14,3.14,0,0,1-1.15,2.34,4.28,4.28,0,0,1-3,1,4.54,4.54,0,0,1-3.16-1,3.12,3.12,0,0,1-1.16-2.34Z"/><path class="cls-1" d="M248,20.19a3,3,0,0,1,1.19-2.34,4.54,4.54,0,0,1,3.13-1.05,4.26,4.26,0,0,1,2.66.83,3.57,3.57,0,0,1,1.37,1.91l19.37,28.29V20.19a3.08,3.08,0,0,1,1.15-2.34,4.53,4.53,0,0,1,3.17-1.05A4.06,4.06,0,0,1,283,17.85a3.11,3.11,0,0,1,1.12,2.34V60.94A3.14,3.14,0,0,1,283,63.28a4.1,4.1,0,0,1-2.91,1,5.12,5.12,0,0,1-2.63-.61A3.44,3.44,0,0,1,276,62.09l-.21-.36-19.3-28V60.94a3.16,3.16,0,0,1-1.11,2.34,4.23,4.23,0,0,1-3,1,4.58,4.58,0,0,1-3.13-1A3.06,3.06,0,0,1,248,60.94Z"/><path class="cls-1" d="M302.11,20.19a3.08,3.08,0,0,1,1.15-2.34,4.53,4.53,0,0,1,3.17-1.05,4.21,4.21,0,0,1,2.95,1.05,3.08,3.08,0,0,1,1.15,2.34V60.87a3.11,3.11,0,0,1-1.15,2.34,4.25,4.25,0,0,1-2.95,1,4.57,4.57,0,0,1-3.17-1,3.11,3.11,0,0,1-1.15-2.34Z"/><path class="cls-1" d="M432.5,17.48a4.24,4.24,0,0,1,3.13,1.05,3.85,3.85,0,0,1,1,2.84,3.66,3.66,0,0,1-1,2.7,4.24,4.24,0,0,1-3.13,1h-9.44V60.9A3.16,3.16,0,0,1,422,63.24a4.23,4.23,0,0,1-3,1,4.59,4.59,0,0,1-3.17-1,3.11,3.11,0,0,1-1.15-2.34V25.11h-8.5a4.16,4.16,0,0,1-3-1,3.49,3.49,0,0,1-1.12-2.7,3.67,3.67,0,0,1,1.12-2.84,4.17,4.17,0,0,1,3-1.05Z"/><path class="cls-1" d="M449.42,35.48a24.38,24.38,0,0,1,1.08-7.38,16.15,16.15,0,0,1,3.31-5.94,15.32,15.32,0,0,1,5.65-4,23.7,23.7,0,0,1,16.27,0,15.72,15.72,0,0,1,5.69,4,16,16,0,0,1,3.35,5.94,24.38,24.38,0,0,1,1.08,7.38V45.56a24.38,24.38,0,0,1-1.08,7.38,16,16,0,0,1-3.35,5.94,15.72,15.72,0,0,1-5.69,4,23.7,23.7,0,0,1-16.27,0,15.32,15.32,0,0,1-5.65-4,16.15,16.15,0,0,1-3.31-5.94,24.38,24.38,0,0,1-1.08-7.38Zm8.28,10.15c0,3.94.88,6.74,2.66,8.39a10.14,10.14,0,0,0,7.2,2.49q4.68,0,7.27-2.49t2.59-8.39V35.48c0-3.93-.86-6.73-2.59-8.38s-4.15-2.49-7.27-2.49a10.14,10.14,0,0,0-7.2,2.49c-1.78,1.65-2.66,4.45-2.66,8.38Z"/><ellipse class="cls-2" cx="374.14" cy="24.72" rx="15.66" ry="27.13" transform="translate(38.67 192.21) rotate(-30.31)"/><ellipse class="cls-3" cx="360.89" cy="32.52" rx="15.66" ry="27.13" transform="translate(32.92 186.58) rotate(-30.31)"/><ellipse class="cls-4" cx="347.63" cy="40.32" rx="15.66" ry="27.13" transform="translate(27.17 180.96) rotate(-30.31)"/><polygon class="cls-5" points="178.44 1.55 170.78 11.76 163.42 1.56 178.44 1.55"/><circle class="cls-6" cx="306.32" cy="6.39" r="5.37"/><rect class="cls-7" x="121.62" y="3.93" width="9.04" height="5.39" transform="translate(32.26 91.13) rotate(-45)"/></g></g></svg>