<svg xmlns="http://www.w3.org/2000/svg" xmlns:xlink="http://www.w3.org/1999/xlink" viewBox="0 0 488.85 76.54"><defs><style>.cls-1,.cls-8{fill:none;}.cls-2{fill:#231f20;}.cls-3{fill:url(#linear-gradient);}.cls-4{fill:url(#linear-gradient-2);}.cls-5{fill:url(#linear-gradient-3);}.cls-6{fill:url(#linear-gradient-4);}.cls-7{fill:#a72027;}.cls-8{stroke:#e2887e;stroke-miterlimit:10;stroke-width:0.25px;}.cls-9{fill:url(#linear-gradient-5);}.cls-10{fill:url(#linear-gradient-6);}.cls-11{fill:url(#linear-gradient-7);}.cls-12{fill:url(#linear-gradient-8);}.cls-13{fill:url(#linear-gradient-9);}.cls-14{clip-path:url(#clip-path);}.cls-15{fill:#fff;opacity:0.1;}.cls-16{fill:url(#linear-gradient-10);}</style><linearGradient id="linear-gradient" x1="4358.99" y1="328.46" x2="4393.92" y2="328.46" gradientTransform="matrix(0.87, 0.5, -1, 0.58, -3112.32, -2328.33)" gradientUnits="userSpaceOnUse"><stop offset="0.03" stop-color="#e36559"/><stop offset="0.21" stop-color="#de3a2e"/><stop offset="1" stop-color="#b9282b"/></linearGradient><linearGradient id="linear-gradient-2" x1="4358.99" y1="307.27" x2="4393.92" y2="307.27" xlink:href="#linear-gradient"/><linearGradient id="linear-gradient-3" x1="4358.99" y1="317.87" x2="4393.92" y2="317.87" xlink:href="#linear-gradient"/><linearGradient id="linear-gradient-4" x1="338.68" y1="53.25" x2="385.03" y2="41.07" gradientTransform="matrix(1, 0, 0, 1, 0, 0)" xlink:href="#linear-gradient"/><linearGradient id="linear-gradient-5" x1="4354.6" y1="324.66" x2="4389.53" y2="324.66" xlink:href="#linear-gradient"/><linearGradient id="linear-gradient-6" x1="4354.6" y1="303.47" x2="4389.53" y2="303.47" xlink:href="#linear-gradient"/><linearGradient id="linear-gradient-7" x1="4354.6" y1="314.07" x2="4389.53" y2="314.07" xlink:href="#linear-gradient"/><linearGradient id="linear-gradient-8" x1="264.91" y1="50.88" x2="301.85" y2="72.21" gradientTransform="translate(0 -83.07) scale(1 1.15)" xlink:href="#linear-gradient"/><linearGradient id="linear-gradient-9" x1="344.63" y1="35.61" x2="396.38" y2="32.02" gradientUnits="userSpaceOnUse"><stop offset="0.03" stop-color="#e36559"/><stop offset="0.21" stop-color="#de3a2e"/><stop offset="0.67" stop-color="#b9282b"/></linearGradient><clipPath id="clip-path"><path class="cls-1" d="M359.93,17.71a21.32,21.32,0,0,0-21.32,21.2V39c0,3.14,2.12,6.29,6.29,8.7,8.35,4.82,21.85,4.85,30.15,0,4.12-2.37,6.18-5.48,6.2-8.61V39A21.32,21.32,0,0,0,359.93,17.71Z"/></clipPath><linearGradient id="linear-gradient-10" x1="327.7" y1="16.43" x2="332.95" y2="16.43" gradientTransform="matrix(1, 0, 0, 1, 0, 0)" xlink:href="#linear-gradient"/></defs><title>Asset 2</title><g id="Layer_2" data-name="Layer 2"><g id="Layer_1-2" data-name="Layer 1"><path class="cls-2" d="M21.74,25.08H4.46A3.78,3.78,0,0,1,2,24.21,3.11,3.11,0,0,1,.94,21.62,3.4,3.4,0,0,1,2,18.85,3.7,3.7,0,0,1,4.46,18H28.87a3.89,3.89,0,0,1,2.49.9,3.35,3.35,0,0,1,1.11,2.77,3.12,3.12,0,0,1-1,2.52h.08L10.8,56.9H29.59a3.73,3.73,0,0,1,2.45.9,3.4,3.4,0,0,1,1.08,2.77A3.11,3.11,0,0,1,32,63.16a3.81,3.81,0,0,1-2.45.87H3.6a3.9,3.9,0,0,1-2.52-.87A3.11,3.11,0,0,1,0,60.57a3.69,3.69,0,0,1,1-2.73Z"/><path class="cls-2" d="M69.7,51a4.28,4.28,0,0,1-2.88-1A8.09,8.09,0,0,1,65,48L57,31.2V61.36a3.13,3.13,0,0,1-1.11,2.34,4.19,4.19,0,0,1-3,1,4.54,4.54,0,0,1-3.13-1,3.06,3.06,0,0,1-1.19-2.34V20.61a3.09,3.09,0,0,1,1.19-2.34,4.58,4.58,0,0,1,3.13-1h1.22a6.38,6.38,0,0,1,3.1.68,4.73,4.73,0,0,1,1.87,1.84L69.7,41.06,80.28,19.75a5.91,5.91,0,0,1,1.94-1.91,5.43,5.43,0,0,1,3.1-.68l1.15.07a4.59,4.59,0,0,1,3.17,1,3.11,3.11,0,0,1,1.15,2.34V61.36a3.08,3.08,0,0,1-1.15,2.34,4.54,4.54,0,0,1-3.17,1,4.06,4.06,0,0,1-2.91-1,3.11,3.11,0,0,1-1.12-2.34V31.2L74.38,48A7.06,7.06,0,0,1,72.65,50,4.41,4.41,0,0,1,69.7,51Z"/><path class="cls-2" d="M143.35,60.07a3.11,3.11,0,0,1-.43,2.55,4.24,4.24,0,0,1-2.74,1.84,4.49,4.49,0,0,1-3.2-.29,3.19,3.19,0,0,1-1.76-1.94l-2.6-8.35H116.93l-2.67,8.42a3.48,3.48,0,0,1-1.83,1.94,4.88,4.88,0,0,1-5.91-1.54,3,3,0,0,1-.46-2.56l14.11-39.89a4,4,0,0,1,1.62-2.12,5.58,5.58,0,0,1,6.08,0,4,4,0,0,1,1.66,2.12ZM119.16,46.82h11.23L124.85,29Z"/><path class="cls-2" d="M156,34.72A21,21,0,0,1,157,28a15.29,15.29,0,0,1,8.57-9.36,17.89,17.89,0,0,1,7.27-1.4,19.42,19.42,0,0,1,5.19.65,15.73,15.73,0,0,1,4.13,1.72,9.17,9.17,0,0,1,2.74,2.45,4.87,4.87,0,0,1,1,2.88,2.84,2.84,0,0,1-.86,2.23,2.9,2.9,0,0,1-2,.8,6.53,6.53,0,0,1-2.16-.33,10.6,10.6,0,0,1-2.16-1.11,14.32,14.32,0,0,0-2.48-1.23,10,10,0,0,0-3.42-.5,8.47,8.47,0,0,0-5.94,2.3c-1.66,1.54-2.48,3.91-2.48,7.13V47.83c0,3.21.82,5.58,2.48,7.09a8.53,8.53,0,0,0,5.94,2.27,13.71,13.71,0,0,0,3.35-.33,9.81,9.81,0,0,0,2.41-1c.53-.33,1-.61,1.37-.83a8.71,8.71,0,0,1,1-.5,4.61,4.61,0,0,1,1-.25,8,8,0,0,1,1.16-.07,2.61,2.61,0,0,1,2.12.82,3.17,3.17,0,0,1,.68,2.06,4.91,4.91,0,0,1-1,2.88,8.81,8.81,0,0,1-2.74,2.41,16.8,16.8,0,0,1-4.13,1.69,19.83,19.83,0,0,1-5.19.65,17.73,17.73,0,0,1-7.27-1.41A15.36,15.36,0,0,1,157,54,20.84,20.84,0,0,1,156,47.25Z"/><path class="cls-2" d="M201.45,20.61a3.12,3.12,0,0,1,1.16-2.34,4.54,4.54,0,0,1,3.16-1,4.28,4.28,0,0,1,3,1,3.14,3.14,0,0,1,1.15,2.34V38h2.23l13.82-19.51a3.45,3.45,0,0,1,1.12-.83,4.13,4.13,0,0,1,1.51-.36,5.87,5.87,0,0,1,1.66.18,4.18,4.18,0,0,1,1.55.8A3.46,3.46,0,0,1,233,21.15,3.93,3.93,0,0,1,232,23.78L219.09,41l14.62,17.49a2.81,2.81,0,0,1,.72,2.49,4.42,4.42,0,0,1-1.66,2.77,4.18,4.18,0,0,1-3,1,3.39,3.39,0,0,1-2.45-1.11L212.54,45.31h-2.66v16a3.11,3.11,0,0,1-1.15,2.34,4.24,4.24,0,0,1-3,1,4.5,4.5,0,0,1-3.16-1,3.09,3.09,0,0,1-1.16-2.34Z"/><path class="cls-2" d="M248,20.61a3.06,3.06,0,0,1,1.19-2.34,4.58,4.58,0,0,1,3.13-1,4.2,4.2,0,0,1,2.66.83,3.54,3.54,0,0,1,1.37,1.9l19.37,28.3V20.61a3.11,3.11,0,0,1,1.15-2.34,4.57,4.57,0,0,1,3.17-1,4.1,4.1,0,0,1,2.91,1,3.14,3.14,0,0,1,1.12,2.34V61.36A3.11,3.11,0,0,1,283,63.7a4.06,4.06,0,0,1-2.91,1,5.22,5.22,0,0,1-2.63-.61A3.44,3.44,0,0,1,276,62.52l-.21-.36-19.3-28V61.36a3.13,3.13,0,0,1-1.11,2.34,4.19,4.19,0,0,1-3,1,4.54,4.54,0,0,1-3.13-1A3,3,0,0,1,248,61.36Z"/><path class="cls-2" d="M302.11,20.61a3.11,3.11,0,0,1,1.15-2.34,4.57,4.57,0,0,1,3.17-1,4.25,4.25,0,0,1,2.95,1,3.11,3.11,0,0,1,1.15,2.34V61.29a3.08,3.08,0,0,1-1.15,2.34,4.21,4.21,0,0,1-2.95,1.05,4.53,4.53,0,0,1-3.17-1.05,3.08,3.08,0,0,1-1.15-2.34Z"/><path class="cls-2" d="M435.5,18a4.28,4.28,0,0,1,3.13,1,3.89,3.89,0,0,1,1,2.85,3.69,3.69,0,0,1-1,2.7,4.28,4.28,0,0,1-3.13,1h-9.44V61.36A3.13,3.13,0,0,1,425,63.7a4.19,4.19,0,0,1-3,1,4.54,4.54,0,0,1-3.17-1,3.08,3.08,0,0,1-1.15-2.34V25.58h-8.5a4.21,4.21,0,0,1-3-1,3.52,3.52,0,0,1-1.12-2.7A3.71,3.71,0,0,1,406.16,19a4.21,4.21,0,0,1,3-1Z"/><path class="cls-2" d="M452.42,36a24.38,24.38,0,0,1,1.08-7.38,16.15,16.15,0,0,1,3.31-5.94,15.32,15.32,0,0,1,5.65-4,23.7,23.7,0,0,1,16.27,0,15.72,15.72,0,0,1,5.69,4,16,16,0,0,1,3.35,5.94A24.38,24.38,0,0,1,488.85,36V46a24.38,24.38,0,0,1-1.08,7.38,16,16,0,0,1-3.35,5.94,15.72,15.72,0,0,1-5.69,4,23.7,23.7,0,0,1-16.27,0,15.32,15.32,0,0,1-5.65-4,16.15,16.15,0,0,1-3.31-5.94A24.38,24.38,0,0,1,452.42,46ZM460.7,46.1c0,3.94.88,6.73,2.66,8.39a11.79,11.79,0,0,0,14.47,0c1.73-1.66,2.59-4.45,2.59-8.39V36c0-3.94-.86-6.73-2.59-8.39s-4.15-2.48-7.27-2.48a10.13,10.13,0,0,0-7.2,2.48C461.58,29.22,460.7,32,460.7,36Z"/><path class="cls-3" d="M338.61,43.4v0Z"/><path class="cls-4" d="M381.25,43.45v0Z"/><path class="cls-5" d="M375,34.74c-8.35-4.82-21.85-4.84-30.15-.05-4.12,2.37-6.18,5.49-6.2,8.61v.1c0,3.14,2.12,6.29,6.29,8.7,8.35,4.82,21.85,4.85,30.15,0,4.12-2.37,6.18-5.49,6.2-8.61v-.09C381.23,40.3,379.13,37.15,375,34.74Z"/><path class="cls-6" d="M375,34.74c-8.35-4.82-21.85-4.84-30.15-.05-4.12,2.37-6.18,5.49-6.2,8.61v.12a21.32,21.32,0,0,0,42.64.12v-.09C381.23,40.3,379.13,37.15,375,34.74Z"/><path class="cls-7" d="M375,34.74c-8.35-4.82-21.85-4.84-30.15-.05-4.12,2.37-6.18,5.49-6.2,8.61v.1c0,3.14,2.12,6.29,6.29,8.7,8.35,4.82,21.85,4.85,30.15,0,4.12-2.37,6.18-5.49,6.2-8.61v-.09C381.23,40.3,379.13,37.15,375,34.74Z"/><path class="cls-8" d="M326.89,19.2c4-6.87,22-3.91,40.22,6.63S396.94,50.48,393,57.35"/><path class="cls-8" d="M326.89,57.35c-4-6.87,7.61-21,25.86-31.52S389,12.33,393,19.2"/><path class="cls-8" d="M393,57.35c-4,6.87-22,3.9-40.22-6.63S322.92,26.07,326.89,19.2"/><path class="cls-8" d="M393,19.2c4,6.87-7.61,21-25.86,31.52s-36.25,13.5-40.22,6.63"/><path class="cls-8" d="M333,65.25c-5.61-5.61,1.92-22.24,16.82-37.14S381.3,5.69,386.91,11.3"/><path class="cls-8" d="M386.91,11.3c5.61,5.61-1.92,22.23-16.82,37.13S338.57,70.86,333,65.25"/><path class="cls-8" d="M340.86,71.31c-6.88-4-3.91-22,6.63-40.22S372.13,1.27,379,5.23"/><path class="cls-8" d="M379,5.23c6.87,4,3.9,22-6.64,40.23s-24.64,29.82-31.51,25.85"/><path class="cls-8" d="M350.06,75.12c-7.67-2.05-9.46-20.21-4-40.57S362.14-.63,369.8,1.42"/><path class="cls-8" d="M369.8,1.42c7.67,2.06,9.46,20.22,4,40.57s-16.09,35.19-23.75,33.13"/><path class="cls-8" d="M359.93,76.42c-7.93,0-14.37-17.08-14.37-38.15S352,.12,359.93.12"/><path class="cls-8" d="M359.93.12c7.94,0,14.37,17.08,14.37,38.15s-6.43,38.15-14.37,38.15"/><path class="cls-9" d="M338.61,39v0Z"/><path class="cls-10" d="M381.25,39.06v0Z"/><path class="cls-11" d="M375,30.36c-8.35-4.83-21.85-4.85-30.15-.06-4.12,2.38-6.18,5.49-6.2,8.61V39c0,3.14,2.12,6.29,6.29,8.7,8.35,4.82,21.85,4.85,30.15,0,4.12-2.37,6.18-5.48,6.2-8.61v-.09C381.23,35.91,379.13,32.76,375,30.36Z"/><path class="cls-12" d="M375,30.36c-8.35-4.83-21.85-4.85-30.15-.06-4.12,2.38-6.18,5.49-6.2,8.61V39c0,3.14,2.12,6.29,6.29,8.7,8.35,4.82,21.85,4.85,30.15,0,4.12-2.37,6.18-5.48,6.2-8.61v-.09C381.23,35.91,379.13,32.76,375,30.36Z"/><path class="cls-13" d="M359.93,17.71a21.32,21.32,0,0,0-21.32,21.2V39c0,3.14,2.12,6.29,6.29,8.7,8.35,4.82,21.85,4.85,30.15,0,4.12-2.37,6.18-5.48,6.2-8.61V39A21.32,21.32,0,0,0,359.93,17.71Z"/><g class="cls-14"><circle class="cls-15" cx="346.8" cy="24.04" r="13.84"/><circle class="cls-15" cx="340.86" cy="17.71" r="13.84"/></g><circle class="cls-16" cx="330.32" cy="16.43" r="2.63"/></g></g></svg>