<svg xmlns="http://www.w3.org/2000/svg" xmlns:xlink="http://www.w3.org/1999/xlink" viewBox="0 0 820.39 118.99"><defs><style>.cls-1{fill:#231f20;}.cls-2{opacity:0.1;fill:url(#linear-gradient);}.cls-3{opacity:0.2;fill:url(#linear-gradient-2);}.cls-4{fill:url(#linear-gradient-3);}.cls-5{fill:url(#linear-gradient-4);}.cls-6{fill:url(#linear-gradient-5);}.cls-7{fill:url(#linear-gradient-6);}</style><linearGradient id="linear-gradient" x1="626.41" y1="78.67" x2="664.89" y2="78.67" gradientTransform="translate(127.96 -315.1) rotate(30.31)" gradientUnits="userSpaceOnUse"><stop offset="0" stop-color="#e36559"/><stop offset="1" stop-color="#de3a2e"/></linearGradient><linearGradient id="linear-gradient-2" x1="613.15" y1="86.47" x2="651.63" y2="86.47" gradientTransform="translate(130.09 -307.34) rotate(30.31)" xlink:href="#linear-gradient"/><linearGradient id="linear-gradient-3" x1="599.89" y1="94.27" x2="638.38" y2="94.27" gradientTransform="translate(132.21 -299.58) rotate(30.31)" xlink:href="#linear-gradient"/><linearGradient id="linear-gradient-4" x1="282.04" y1="-12.84" x2="317.25" y2="-12.84" gradientTransform="matrix(0.75, -0.13, 0.38, 0.99, 103.47, 60.33)" xlink:href="#linear-gradient"/><linearGradient id="linear-gradient-5" x1="7799.17" y1="214.89" x2="7819.24" y2="214.89" gradientTransform="translate(787.19 -7799.17) rotate(90)" xlink:href="#linear-gradient"/><linearGradient id="linear-gradient-6" x1="318.74" y1="-33.92" x2="335.62" y2="-33.92" gradientTransform="translate(-91.52 69.42) scale(1 1.74)" xlink:href="#linear-gradient"/></defs><title>Asset 6</title><g id="Layer_2" data-name="Layer 2"><g id="Layer_1-2" data-name="Layer 1"><path class="cls-1" d="M40.62,44.15H8.34a7.14,7.14,0,0,1-4.57-1.61,5.83,5.83,0,0,1-2-4.85,6.36,6.36,0,0,1,2-5.18,6.94,6.94,0,0,1,4.57-1.68h45.6a7.22,7.22,0,0,1,4.64,1.68,6.28,6.28,0,0,1,2.09,5.18,5.83,5.83,0,0,1-1.89,4.71h.14L20.18,103.61H55.29a6.94,6.94,0,0,1,4.57,1.68,6.35,6.35,0,0,1,2,5.18,5.82,5.82,0,0,1-2,4.84,7.09,7.09,0,0,1-4.57,1.61H6.73A7.27,7.27,0,0,1,2,115.31a5.82,5.82,0,0,1-2-4.84,6.9,6.9,0,0,1,1.88-5.11Z"/><path class="cls-1" d="M130.21,92.58a8.07,8.07,0,0,1-5.38-1.82,15.75,15.75,0,0,1-3.36-3.83L106.54,55.58V112a5.88,5.88,0,0,1-2.09,4.37,7.84,7.84,0,0,1-5.58,2,8.54,8.54,0,0,1-5.85-2A5.74,5.74,0,0,1,90.8,112V35.81A5.74,5.74,0,0,1,93,31.44a8.54,8.54,0,0,1,5.85-2h2.29a11.77,11.77,0,0,1,5.78,1.27,9,9,0,0,1,3.5,3.44L130.21,74,150,34.2a10.88,10.88,0,0,1,3.63-3.57,10.07,10.07,0,0,1,5.78-1.28l2.15.14a8.49,8.49,0,0,1,5.92,2,5.8,5.8,0,0,1,2.16,4.37V112a5.8,5.8,0,0,1-2.16,4.37,8.49,8.49,0,0,1-5.92,2,7.64,7.64,0,0,1-5.44-2A5.88,5.88,0,0,1,154,112V55.58L139,86.93a13.43,13.43,0,0,1-3.23,3.83A8.29,8.29,0,0,1,130.21,92.58Z"/><path class="cls-1" d="M267.82,109.53a5.86,5.86,0,0,1-.8,4.77,7.94,7.94,0,0,1-5.12,3.43,8.39,8.39,0,0,1-6-.54,6,6,0,0,1-3.3-3.63L247.78,98H218.45l-5,15.74a6.59,6.59,0,0,1-3.43,3.63,9.1,9.1,0,0,1-11-2.89,5.71,5.71,0,0,1-.88-4.78l26.37-74.52a7.47,7.47,0,0,1,3-4,10.46,10.46,0,0,1,11.37,0,7.4,7.4,0,0,1,3.1,4Zm-45.2-24.76h21L233.25,51.41Z"/><path class="cls-1" d="M291.36,62.17a39.22,39.22,0,0,1,2-12.57,28.53,28.53,0,0,1,16-17.49A33.17,33.17,0,0,1,323,29.49a36.63,36.63,0,0,1,9.69,1.21,29.18,29.18,0,0,1,7.73,3.23,17,17,0,0,1,5.12,4.57,9.14,9.14,0,0,1,1.81,5.38,5.29,5.29,0,0,1-5.38,5.65,12.38,12.38,0,0,1-4-.6,19.35,19.35,0,0,1-4-2.09,26.35,26.35,0,0,0-4.64-2.29,18.5,18.5,0,0,0-6.39-.94,15.78,15.78,0,0,0-11.1,4.31q-4.64,4.3-4.64,13.31V86.66q0,9,4.64,13.25a15.93,15.93,0,0,0,11.1,4.23,26.28,26.28,0,0,0,6.26-.6,18.4,18.4,0,0,0,4.5-1.82c1-.62,1.84-1.14,2.56-1.54a13.09,13.09,0,0,1,1.95-.94,7.92,7.92,0,0,1,1.81-.48,17.17,17.17,0,0,1,2.16-.13,4.84,4.84,0,0,1,4,1.55,5.77,5.77,0,0,1,1.28,3.83,9.14,9.14,0,0,1-1.81,5.38,16.27,16.27,0,0,1-5.12,4.51,31.28,31.28,0,0,1-7.73,3.16,36.63,36.63,0,0,1-9.69,1.21,33.33,33.33,0,0,1-13.58-2.62,28.72,28.72,0,0,1-16-17.42,39.09,39.09,0,0,1-2-12.65Z"/><path class="cls-1" d="M376.38,35.81a5.79,5.79,0,0,1,2.15-4.37,8.49,8.49,0,0,1,5.92-2,7.88,7.88,0,0,1,5.51,2,5.8,5.8,0,0,1,2.16,4.37V68.23h4.17l25.82-36.46a6.18,6.18,0,0,1,2.09-1.54,7.22,7.22,0,0,1,2.82-.68,10.61,10.61,0,0,1,3.1.34A7.73,7.73,0,0,1,433,31.37a6.47,6.47,0,0,1,2.35,5.45,7.3,7.3,0,0,1-1.95,4.91L409.33,73.88l27.31,32.69a5.21,5.21,0,0,1,1.35,4.64,8.31,8.31,0,0,1-3.1,5.18,7.8,7.8,0,0,1-5.51,1.81,6.3,6.3,0,0,1-4.58-2.08L397.09,82h-5v30a5.8,5.8,0,0,1-2.16,4.37,7.88,7.88,0,0,1-5.51,2,8.49,8.49,0,0,1-5.92-2,5.79,5.79,0,0,1-2.15-4.37Z"/><path class="cls-1" d="M463.41,35.81a5.74,5.74,0,0,1,2.22-4.37,8.54,8.54,0,0,1,5.85-2,8,8,0,0,1,5,1.54A6.73,6.73,0,0,1,479,34.6L515.2,87.46V35.81a5.79,5.79,0,0,1,2.15-4.37,8.49,8.49,0,0,1,5.92-2,7.66,7.66,0,0,1,5.45,2,5.87,5.87,0,0,1,2.08,4.37V112a5.87,5.87,0,0,1-2.08,4.37,7.66,7.66,0,0,1-5.45,2,9.62,9.62,0,0,1-4.91-1.14,6.44,6.44,0,0,1-2.76-3l-.4-.67L479.15,61.1V112a5.88,5.88,0,0,1-2.09,4.37,7.84,7.84,0,0,1-5.58,2,8.54,8.54,0,0,1-5.85-2,5.74,5.74,0,0,1-2.22-4.37Z"/><path class="cls-1" d="M564.43,35.81a5.82,5.82,0,0,1,2.15-4.37,8.5,8.5,0,0,1,5.92-2,7.92,7.92,0,0,1,5.52,2,5.82,5.82,0,0,1,2.15,4.37v76a5.8,5.8,0,0,1-2.15,4.37,7.92,7.92,0,0,1-5.52,1.95,8.5,8.5,0,0,1-5.92-1.95,5.8,5.8,0,0,1-2.15-4.37Z"/><path class="cls-1" d="M720.72,30.76q3.9,0,5.85,1.95A7.18,7.18,0,0,1,728.52,38a6.83,6.83,0,0,1-1.95,5q-2,1.95-5.85,2H703.1v66.85a5.85,5.85,0,0,1-2.09,4.37,7.85,7.85,0,0,1-5.58,2,8.49,8.49,0,0,1-5.92-2,5.76,5.76,0,0,1-2.15-4.37V45H671.48a7.84,7.84,0,0,1-5.58-2,6.59,6.59,0,0,1-2.08-5,6.91,6.91,0,0,1,2.08-5.31,7.84,7.84,0,0,1,5.58-1.95Z"/><path class="cls-1" d="M752.33,64.39a45.43,45.43,0,0,1,2-13.79,30.17,30.17,0,0,1,6.18-11.1,28.94,28.94,0,0,1,10.56-7.4,44.29,44.29,0,0,1,30.4,0,28.85,28.85,0,0,1,16.89,18.5,45.74,45.74,0,0,1,2,13.79V83.22a45.74,45.74,0,0,1-2,13.79,29.77,29.77,0,0,1-6.26,11.1,29.29,29.29,0,0,1-10.63,7.39,44.13,44.13,0,0,1-30.4,0,28.68,28.68,0,0,1-10.56-7.39A30.17,30.17,0,0,1,754.35,97a45.43,45.43,0,0,1-2-13.79Zm15.47,19q0,11,5,15.67t13.45,4.64q8.74,0,13.58-4.64t4.85-15.67v-19q0-11-4.85-15.67t-13.58-4.64q-8.47,0-13.45,4.64t-5,15.67Z"/><ellipse class="cls-2" cx="645.65" cy="78.67" rx="15.66" ry="27.13" transform="translate(48.55 336.61) rotate(-30.31)"/><ellipse class="cls-3" cx="632.39" cy="86.47" rx="15.66" ry="27.13" transform="translate(42.81 330.98) rotate(-30.31)"/><ellipse class="cls-4" cx="619.13" cy="94.27" rx="15.66" ry="27.13" transform="translate(37.06 325.36) rotate(-30.31)"/><polygon class="cls-5" points="333.37 0.99 319.06 20.07 305.31 1.02 333.37 0.99"/><circle class="cls-6" cx="572.3" cy="10.03" r="10.03"/><rect class="cls-7" x="227.22" y="5.44" width="16.88" height="10.07" transform="translate(61.61 169.7) rotate(-45)"/></g></g></svg>