<svg xmlns="http://www.w3.org/2000/svg" viewBox="0 0 180 20.66"><path d="M15.49,14a8.73,8.73,0,0,1-1,2.93A7.18,7.18,0,0,1,12.79,19a6.39,6.39,0,0,1-2.29,1.23,9.33,9.33,0,0,1-2.73.41,8.22,8.22,0,0,1-3.19-.59,7.69,7.69,0,0,1-2.5-1.7A5.93,5.93,0,0,1,.85,16.65a8.62,8.62,0,0,1-.62-2A14.26,14.26,0,0,1,0,12.56c0-.75,0-1.49,0-2.24S0,8.81,0,8.09A11.52,11.52,0,0,1,.23,6,8.23,8.23,0,0,1,.85,4,5.61,5.61,0,0,1,2.08,2.29,7.69,7.69,0,0,1,4.58.59,8.22,8.22,0,0,1,7.77,0,8.55,8.55,0,0,1,10.5.41a6.39,6.39,0,0,1,2.29,1.23,7.24,7.24,0,0,1,1.72,2.08,8.73,8.73,0,0,1,1,2.93H10.4a3.74,3.74,0,0,0-.8-1.52,2.28,2.28,0,0,0-1.8-.67,2.78,2.78,0,0,0-1.18.23,2.15,2.15,0,0,0-.8.62,3.4,3.4,0,0,0-.31.51,2.44,2.44,0,0,0-.23.82,8.72,8.72,0,0,0-.15,1.41c0,.59-.05,1.34-.05,2.29s0,1.7.05,2.29a13.1,13.1,0,0,0,.15,1.41,4.88,4.88,0,0,0,.23.82c.1.18.21.36.31.51a2,2,0,0,0,.8.62,2.78,2.78,0,0,0,1.18.23,2.28,2.28,0,0,0,1.8-.67,3.74,3.74,0,0,0,.8-1.52h5.1Z" fill="#010101"/><polygon points="15.49 19.92 15.49 16.13 23.41 4.37 15.83 4.37 15.83 0 29.51 0 29.51 3.79 21.56 15.55 29.51 15.55 29.51 19.92 15.49 19.92" fill="#010101"/><polygon points="30.25 19.89 30.25 0 44.26 0 44.26 4.37 35.32 4.37 35.32 7.7 42.96 7.7 42.96 12.07 35.32 12.07 35.32 15.55 44.26 15.55 44.26 19.92 30.25 19.92 30.25 19.89" fill="#010101"/><path d="M61.23,14a8.73,8.73,0,0,1-1,2.93A7.18,7.18,0,0,1,58.53,19a6.39,6.39,0,0,1-2.29,1.23,9.33,9.33,0,0,1-2.73.41,8.22,8.22,0,0,1-3.19-.59,7.69,7.69,0,0,1-2.5-1.7,5.93,5.93,0,0,1-1.24-1.72,8.62,8.62,0,0,1-.62-2,14.26,14.26,0,0,1-.21-2.13c0-.75,0-1.49,0-2.24s0-1.52,0-2.24A11.52,11.52,0,0,1,46,6a8.23,8.23,0,0,1,.62-2,5.61,5.61,0,0,1,1.24-1.72,7.69,7.69,0,0,1,2.5-1.7A8.22,8.22,0,0,1,53.51,0a8.55,8.55,0,0,1,2.73.41,6.39,6.39,0,0,1,2.29,1.23,7.24,7.24,0,0,1,1.72,2.08,8.73,8.73,0,0,1,1,2.93h-5.1a3.74,3.74,0,0,0-.8-1.52,2.28,2.28,0,0,0-1.8-.67,2.78,2.78,0,0,0-1.18.23,2.15,2.15,0,0,0-.8.62,3.4,3.4,0,0,0-.31.51,2.44,2.44,0,0,0-.23.82,8.72,8.72,0,0,0-.15,1.41c0,.59-.05,1.34-.05,2.29s0,1.7.05,2.29A13.1,13.1,0,0,0,51,14.05a4.88,4.88,0,0,0,.23.82c.1.18.21.36.31.51a2,2,0,0,0,.8.62,2.78,2.78,0,0,0,1.18.23,2.28,2.28,0,0,0,1.8-.67,3.74,3.74,0,0,0,.8-1.52h5.1Z" fill="#010101"/><polygon points="72.4 19.92 72.4 12.03 67.03 12.03 67.03 19.92 61.97 19.92 61.97 0 67.03 0 67.03 7.66 72.4 7.66 72.4 0 77.46 0 77.46 19.92 72.4 19.92" fill="#010101"/><path d="M95.16,14a8.73,8.73,0,0,1-1,2.93A7.18,7.18,0,0,1,92.46,19a6.39,6.39,0,0,1-2.29,1.23,9.33,9.33,0,0,1-2.73.41,8.22,8.22,0,0,1-3.19-.59,7.69,7.69,0,0,1-2.5-1.7,5.93,5.93,0,0,1-1.24-1.72,8.62,8.62,0,0,1-.62-2,14.26,14.26,0,0,1-.21-2.13c0-.75,0-1.49,0-2.24s0-1.52,0-2.24A11.52,11.52,0,0,1,79.9,6a8.23,8.23,0,0,1,.62-2,5.61,5.61,0,0,1,1.24-1.72,7.69,7.69,0,0,1,2.5-1.7A8.22,8.22,0,0,1,87.44,0a8.55,8.55,0,0,1,2.73.41,6.39,6.39,0,0,1,2.29,1.23,7.24,7.24,0,0,1,1.72,2.08,8.73,8.73,0,0,1,1,2.93h-5.1a3.74,3.74,0,0,0-.8-1.52,2.28,2.28,0,0,0-1.8-.67,2.78,2.78,0,0,0-1.18.23,2.15,2.15,0,0,0-.8.62,3.4,3.4,0,0,0-.31.51,2.44,2.44,0,0,0-.23.82,8.72,8.72,0,0,0-.15,1.41c0,.59-.05,1.34-.05,2.29s0,1.7.05,2.29a13.1,13.1,0,0,0,.15,1.41,4.88,4.88,0,0,0,.23.82c.1.18.21.36.31.51a2,2,0,0,0,.8.62,2.78,2.78,0,0,0,1.18.23,2.28,2.28,0,0,0,1.8-.67,3.74,3.74,0,0,0,.8-1.52h5.1Zm11.1,5.87-3.62-7.39h-1.71v7.39h-5V0H104a7.42,7.42,0,0,1,3,.55A6.71,6.71,0,0,1,109.21,2,6.08,6.08,0,0,1,110.55,4,6.27,6.27,0,0,1,111,6.39a5.38,5.38,0,0,1-.31,1.85,6.94,6.94,0,0,1-.78,1.5,6.4,6.4,0,0,1-1.06,1.13,7.79,7.79,0,0,1-1.19.75l4.45,8.29h-5.87ZM106,6.36a2,2,0,0,0-.57-1.4,2.15,2.15,0,0,0-1.6-.63H101v4h2.84a2,2,0,0,0,1.6-.63A1.86,1.86,0,0,0,106,6.36Zm22.35,6.93a7.07,7.07,0,0,1-4.77,6.84,9,9,0,0,1-3,.52,8.66,8.66,0,0,1-3-.52,7.14,7.14,0,0,1-2.45-1.47,7,7,0,0,1-2.27-5.37V0h5V13.17a3.14,3.14,0,0,0,.7,2.22,2.54,2.54,0,0,0,2,.77,2.7,2.7,0,0,0,2-.77,3.07,3.07,0,0,0,.72-2.22V0h5V13.3Z" fill="#010101"/><polygon points="141.81 19.92 135.45 9.9 135.45 19.92 130.57 19.92 130.57 0 134.83 0 141.19 10.02 141.19 0 146.07 0 146.07 19.92 141.81 19.92" fill="#010101"/><path d="M163.77,14a8.73,8.73,0,0,1-1,2.93A7.18,7.18,0,0,1,161.07,19a6.39,6.39,0,0,1-2.29,1.23,9.33,9.33,0,0,1-2.73.41,8.22,8.22,0,0,1-3.19-.59,7.69,7.69,0,0,1-2.5-1.7,5.93,5.93,0,0,1-1.24-1.72,8.62,8.62,0,0,1-.62-2,14.26,14.26,0,0,1-.21-2.13c0-.75,0-1.49,0-2.24s0-1.52,0-2.24A11.52,11.52,0,0,1,148.51,6a8.23,8.23,0,0,1,.62-2,5.61,5.61,0,0,1,1.24-1.72,7.69,7.69,0,0,1,2.5-1.7A8.22,8.22,0,0,1,156.05,0a8.55,8.55,0,0,1,2.73.41,6.39,6.39,0,0,1,2.29,1.23,7.24,7.24,0,0,1,1.72,2.08,8.73,8.73,0,0,1,1,2.93h-5.1a3.74,3.74,0,0,0-.8-1.52,2.28,2.28,0,0,0-1.8-.67,2.78,2.78,0,0,0-1.18.23,2.15,2.15,0,0,0-.8.62,3.4,3.4,0,0,0-.31.51,2.44,2.44,0,0,0-.23.82,8.72,8.72,0,0,0-.15,1.41c0,.59-.05,1.34-.05,2.29s0,1.7.05,2.29a13.1,13.1,0,0,0,.15,1.41,4.88,4.88,0,0,0,.23.82c.1.18.21.36.31.51a2,2,0,0,0,.8.62,2.78,2.78,0,0,0,1.18.23,2.28,2.28,0,0,0,1.8-.67,3.74,3.74,0,0,0,.8-1.52h5.1Z" fill="#010101"/><polygon points="174.94 19.92 174.94 12.03 169.57 12.03 169.57 19.92 164.51 19.92 164.51 0 169.57 0 169.57 7.66 174.94 7.66 174.94 0 180 0 180 19.92 174.94 19.92" fill="#010101"/></svg>
