<svg xmlns="http://www.w3.org/2000/svg" viewBox="0 0 623.6 180.2"><path fill="#cd1232" d="M0 0h327.6v180.2H0z"></path><path d="M300.1 76.5c-11.3-8.6-26.3-12.8-44.6-12.8l-5.1.2V54H305V16.3h-99.9v86.4c12.2-3.8 25.1-5.7 38.2-5.7 16.3 0 25.3 5.7 25.3 15.1 0 10.1-7.9 15.1-24 15.1-13.3 0-26.6-3.5-39.6-10.5v41.1c12.4 5.6 26.4 8.5 42.5 8.5 25.1 0 46.2-6.7 59.5-23.5 6.8-8.4 10.2-18.7 10.2-30.7.1-15.2-5.5-27-17.1-35.6M64.8 55.2h65.6V16.3H16.3v147.2h114.4v-38.9H64.8v-17.3h48.6V71.6H64.8zm79.5 108.3h48.6V16.3l-48.6 26.9z" fill="#fff"></path><path d="M388.9 122c5.1 4.9 7.7 11.1 7.7 18.3 0 7.2-2.6 13.4-7.7 18.5s-11.3 7.7-18.3 7.7-13.2-2.6-18.5-7.7c-5.1-5.1-7.7-11.3-7.7-18.5 0-7.2 2.6-13.4 7.7-18.3 5.1-5.1 11.3-7.7 18.5-7.7 7 .1 13.2 2.6 18.3 7.7m52.8 38.4c-8.9-4-16.6-10.6-22.8-19.8-6.2-9.2-9.4-19.8-9.4-32.1 0-12.6 3.2-23.2 9.4-32.1 12.6-18 31.3-25.4 51.9-25.4 12.1 0 23 2.1 32.4 6.2V94c-8.7-3.2-17.2-4.9-25.1-4.9-13.8 0-24.9 7-24.9 19.6 0 12.8 11.1 19.8 25.8 19.8 9.2 0 17.7-1.9 25.5-5.5v36.4c-10.9 4.7-22.1 7-34.1 7-10-.1-19.6-2-28.7-6m76.8 3.1V134l43.4-44.9h-41.3V53.7h99.6v30.6l-44.7 43.8h48.1v35.3H518.5z" fill="#787878"></path></svg>