<?xml version="1.0" encoding="utf-8"?>
<!-- Generator: Adobe Illustrator 24.2.3, SVG Export Plug-In . SVG Version: 6.00 Build 0)  -->
<svg version="1.1" id="IW" xmlns="http://www.w3.org/2000/svg" xmlns:xlink="http://www.w3.org/1999/xlink" width="257.333" height="36"
	 viewBox="0 0 1218 166.1" style="enable-background:new 0 0 1218 166.1;" xml:space="preserve">
<style type="text/css">
	.st0{fill:#FF1656;}
	.st1{fill:#333339;}
</style>
<g id="logo_1_">
	<g id="logo">
		<g>
			<path class="st0" d="M0,166.1h27.7V41.5H0V166.1z M0,23.1h27.7V0H0V23.1z M46.1,166.1h27.7V41.5H46.1V166.1z M92.3,166.1h27.7
				V69.2H92.3V166.1z M138.4,41.5v124.6h27.7V41.5H138.4z"/>
		</g>
	</g>
	<g id="text">
		<path class="st1" d="M235.4,164.8V70.1h25.7v94.7H235.4z"/>
		<path class="st1" d="M326.4,164.8v-40c0-4.9-0.7-8.6-2.1-11s-3.7-3.7-6.8-3.7c-4.3,0-7.4,1.7-9.3,5.1s-2.8,9.3-2.8,17.5v32.1
			h-25.3V91.4h19.1l3.2,9.1h1.5c2.2-3.5,5.2-6,9-7.8c3.8-1.7,8.2-2.6,13.2-2.6c8.1,0,14.4,2.3,18.9,7.1s6.8,11.3,6.8,19.9v47.7
			H326.4z"/>
		<path class="st1" d="M388.2,164.8l-28-73.3h26.4l12.4,43.4c0,0.2,0.1,0.6,0.3,1.1c0.1,0.5,0.3,1.1,0.4,1.8s0.2,1.5,0.4,2.3
			c0.1,0.8,0.2,1.5,0.2,2.2h0.5c0-2.2,0.4-4.7,1.2-7.3l13-43.5h26.3l-28,73.3L388.2,164.8L388.2,164.8z"/>
		<path class="st1" d="M485.3,166.1c-12.2,0-21.7-3.2-28.5-9.7s-10.1-15.7-10.1-27.7c0-12.4,3.1-21.9,9.4-28.5
			c6.3-6.6,15.2-9.9,26.8-9.9c11,0,19.6,2.9,25.6,8.6c6,5.8,9,14.1,9,24.9v11.3h-45.2c0.2,4.1,1.7,7.3,4.5,9.7s6.7,3.5,11.5,3.5
			c4.5,0,8.5-0.4,12.3-1.3c3.7-0.8,7.8-2.3,12.1-4.3v18.2c-4,2-8.1,3.4-12.3,4.2C496.2,165.7,491.2,166.1,485.3,166.1z M483.8,107.4
			c-3,0-5.5,0.9-7.5,2.8s-3.2,4.8-3.5,8.8h21.8c-0.1-3.5-1.1-6.4-3-8.5C489.7,108.4,487.1,107.4,483.8,107.4z"/>
		<path class="st1" d="M588.5,142.3c0,7.8-2.7,13.8-8,17.8c-5.3,4-13,6-23,6c-5.4,0-10.2-0.3-14.2-0.9c-4-0.6-8.1-1.7-12.3-3.2
			v-20.2c3.9,1.7,8.2,3.2,12.9,4.3c4.7,1.1,8.9,1.7,12.5,1.7c5.5,0,8.2-1.2,8.2-3.8c0-1.3-0.8-2.5-2.3-3.5c-1.5-1-6-3-13.4-5.9
			c-6.7-2.8-11.4-5.9-14.1-9.4c-2.7-3.5-4-8-4-13.4c0-6.8,2.6-12.1,7.9-15.9s12.7-5.7,22.3-5.7c4.8,0,9.4,0.5,13.6,1.6
			s8.7,2.6,13.2,4.6l-6.9,16.3c-3.4-1.5-6.9-2.8-10.7-3.8c-3.8-1.1-6.8-1.6-9.2-1.6c-4.1,0-6.2,1-6.2,3c0,1.2,0.7,2.3,2.2,3.2
			c1.5,0.9,5.6,2.7,12.5,5.4c5.1,2.1,9,4.2,11.5,6.2c2.5,2,4.4,4.4,5.6,7.2C587.9,135,588.5,138.3,588.5,142.3z"/>
		<path class="st1" d="M638.5,146.1c3.4,0,7.5-0.8,12.2-2.5V162c-3.4,1.5-6.7,2.5-9.7,3.1c-3.1,0.6-6.7,0.9-10.8,0.9
			c-8.5,0-14.6-2.1-18.4-6.2c-3.8-4.2-5.6-10.6-5.6-19.2v-30.2h-8.9v-10.3l11.3-8l6.5-15.4h16.6v14.7h18v19h-18v28.5
			C631.6,143.7,633.9,146.1,638.5,146.1z"/>
		<path class="st1" d="M663,73.2c0-3.8,1.1-6.6,3.2-8.5c2.1-1.9,5.5-2.8,10.2-2.8s8.1,1,10.3,2.8c2.2,1.9,3.2,4.7,3.2,8.4
			c0,7.4-4.5,11.1-13.5,11.1C667.5,84.3,663,80.6,663,73.2z M689,164.8h-25.3V91.4H689V164.8z"/>
		<path class="st1" d="M740.1,166.1c-12,0-21.1-3.2-27.3-9.7c-6.2-6.5-9.3-15.8-9.3-27.9c0-12.2,3.3-21.6,10-28.3
			c6.7-6.7,16.2-10,28.6-10c8.5,0,16.5,1.9,24,5.6l-7.4,18.7c-3.1-1.3-5.9-2.4-8.5-3.2c-2.6-0.8-5.3-1.2-8.1-1.2
			c-4.1,0-7.3,1.6-9.5,4.8c-2.2,3.2-3.4,7.7-3.4,13.5c0,11.7,4.3,17.6,13,17.6c7.4,0,14.6-2.2,21.4-6.5v20.1
			C757.1,163.9,749.2,166.1,740.1,166.1z M768.1,63.2v1.9c-2.8,2.8-5.8,6.1-9,9.7s-5.7,6.8-7.6,9.7H726c-1.7-2.6-4.1-5.7-7.2-9.2
			c-3.1-3.6-6.3-6.9-9.6-10.1v-1.9H726c3,1.9,7.2,5.1,12.6,9.7c5.1-4.4,9.4-7.6,13-9.7L768.1,63.2L768.1,63.2z"/>
		<path class="st1" d="M824.4,164.8v-40c0-4.9-0.7-8.6-2.1-11s-3.7-3.7-6.8-3.7c-4.3,0-7.4,1.7-9.3,5.1s-2.8,9.3-2.8,17.5v32.1
			h-25.3V91.4h19.1l3.2,9.1h1.5c2.2-3.5,5.2-6,9-7.8c3.8-1.7,8.2-2.6,13.2-2.6c8.1,0,14.4,2.3,18.9,7.1c4.5,4.7,6.8,11.3,6.8,19.9
			v47.7H824.4z"/>
		<path class="st1" d="M865.2,84.4v-1.9c6.7-7.1,10.9-11.7,12.7-13.8s3.3-3.9,4.4-5.6H910v1.4c-3.5,2.8-8.2,6.3-14.2,10.5
			c-6,4.3-10.6,7.4-13.7,9.3L865.2,84.4L865.2,84.4z M892.4,164.8h-25.3V91.4h25.3V164.8z"/>
		<path class="st1" d="M1007.7,164.8l-8.3-35l-1.9-10.5l-1.3-8.5h-0.4c-2.1,12.1-3.5,19.7-4.3,22.8l-7.4,31.1h-26.6l-20-73.3h24.9
			l6,28.2c1.9,9.7,3,17.7,3.3,24.1h0.4c0.1-4,1.3-11.5,3.6-22.7l6.8-29.6h28l6.2,30c2,9.5,3.2,17,3.8,22.3h0.4
			c0.3-3.3,0.7-7.4,1.3-12.3s1.3-8.8,2-11.8l6.5-28.2h24.4l-20.1,73.3H1007.7z"/>
		<path class="st1" d="M1100.6,166.1c-12.2,0-21.7-3.2-28.4-9.7s-10.1-15.7-10.1-27.7c0-12.4,3.1-21.9,9.4-28.5
			c6.3-6.6,15.2-9.9,26.8-9.9c11.1,0,19.6,2.9,25.6,8.6s9,14.1,9,24.9v11.3h-45.2c0.2,4.1,1.7,7.3,4.5,9.7s6.7,3.5,11.6,3.5
			c4.4,0,8.5-0.4,12.3-1.3c3.7-0.8,7.8-2.3,12.1-4.3v18.2c-4,2-8.1,3.4-12.3,4.2C1111.5,165.7,1106.5,166.1,1100.6,166.1z
			 M1099.1,107.4c-3,0-5.5,0.9-7.5,2.8s-3.2,4.8-3.5,8.8h21.8c-0.1-3.5-1.1-6.4-3-8.5C1104.9,108.4,1102.4,107.4,1099.1,107.4z"/>
		<path class="st1" d="M1192,90.1c8,0,14.3,3.3,19,10c4.7,6.7,7,16,7,27.8c0,11.9-2.4,21.2-7.1,28c-4.7,6.8-11.3,10.1-19.7,10.1
			c-2.7,0-5.1-0.3-7.2-0.9s-4-1.4-5.7-2.4s-3.6-2.8-5.8-5.2h-1.6l-4,7.2h-19.8V64.1h25.3v22.8c0,2.7-0.3,7.4-0.9,14h0.9
			c2.5-3.8,5.3-6.5,8.5-8.2C1184.2,91,1187.9,90.1,1192,90.1z M1182.7,110c-3.5,0-6.1,1.2-7.8,3.7s-2.5,6.3-2.5,11.6v3.6
			c0,6,0.8,10.3,2.5,12.9c1.6,2.6,4.3,3.9,8,3.9c3,0,5.3-1.5,6.9-4.6c1.6-3,2.4-7.5,2.4-13.4C1192.2,115.9,1189.1,110,1182.7,110z"
			/>
	</g>
</g>
</svg>
