<svg viewBox="0 0 131 34" id="svg-sprite-lupa-cz" xmlns="http://www.w3.org/2000/svg" width="100%" height="100%"><path fill="#e4202a" d="M9.6 33.7h13.3v-7.9H9.6V33.7zM8.5.4H0v33.3h8.5v-7.9h0V.4zM33.6 22.5V.4h-8.5v22.1c0 4.7 1 7.7 3 9.3 1.8 1.4 5.3 2.1 10.6 2.2v-7.6c-3.3 0-4.2-.5-4.4-.6C34.1 25.6 33.6 25.1 33.6 22.5zM44.8 22.2c0 2.9-.6 3.4-.7 3.5-.1.1-1 .6-4.4.6V34c5.3 0 8.8-.8 10.6-2.4 2-1.7 2.9-4.8 2.9-9.5V.4h-8.5V22.2zM81.9 3c-1.7-1.7-4.8-2.6-9.3-2.6h-5.7V8h4.8c3.1 0 3.6.5 3.6.5 0 0 .5.6.5 3.9 0 2.7-.5 3.2-.6 3.3-.1.1-.9.6-4.2.6h-4.3v7.6h4.5l1.3 0c4.6 0 7.6-.8 9.3-2.4 1.7-1.6 2.5-4.6 2.5-9.1C84.5 7.7 83.7 4.7 81.9 3zM57.4 33.7h8.5v-9.9h0V.4h-8.5V33.7zM108 11.8h-3.8v-3h2.8l-2.5-7.5-.3-.9H93.5l-.3.9L83 32l-.6 1.8h9l.3-.9.4-1.2 0 0 4-12.3h0l2.9-8.8 3.4 10.4h-5.7l-2.3 7h10.2l1.7 5 .3.9h8.9l-.6-1.8L108 11.8z"></path><path fill="#322f31" d="M125.8 8.9l5-6.1.1-.2V.1h-9.3V3h4.8l-4.9 6-.1.2v2.5h9.6V8.9H125.8zM117.2 7.5l0 .4c0 .6-.1.8-.2.8 0 0-.3.2-1.6.2-1.3 0-1.6-.2-1.6-.2 0-.1-.2-.6-.2-3.2 0-1.9.2-2.2.2-2.3 0 0 .3-.2 1.7-.2 1.1 0 1.4.2 1.4.2 0 0 .1.1.1.8v.9h3.3l0-.6 0-.2c0-1.5-.3-2.6-1-3.1C118.7.3 117.6 0 116 0c-2.2 0-3.7.3-4.4 1-.8.7-1.2 1.9-1.2 3.9 0 4.1.5 5.3.8 5.8.6.9 2 1.3 4.3 1.3 2 0 3.2-.2 3.9-.8.7-.6 1-1.6 1-3.3v-1h-3.3L117.2 7.5z"></path></svg>