<svg xmlns="http://www.w3.org/2000/svg" viewBox="0 0 30.11 27.19"><defs><style>.cls-1{fill:#e30427;stroke:#e30427;stroke-miterlimit:10;stroke-width:0.73px;}</style></defs><title>Asset 1</title><g id="Layer_2" data-name="Layer 2"><g id="Layer_1-2" data-name="Layer 1"><path class="cls-1" d="M23,21h-.68a.49.49,0,1,1,0-1H23a5.66,5.66,0,0,0,5.66-5.67A5.58,5.58,0,0,0,23,8.76c-.29,0-.58-.19-.58-.39A8.15,8.15,0,0,0,6.22,9.54a5,5,0,0,0,.1,1.17.56.56,0,0,1-.1.39.7.7,0,0,1-.39.2h-.1a4.23,4.23,0,0,0-4.39,4.29A4.38,4.38,0,0,0,5.73,20h1a.49.49,0,1,1,0,1h-1a5.38,5.38,0,0,1-.39-10.74V9.44A9.12,9.12,0,0,1,23.4,7.69a6.63,6.63,0,0,1,6.35,6.54A6.82,6.82,0,0,1,23,21Z"/><path class="cls-1" d="M16.47,26.82a.57.57,0,0,1-.39-.1l-1.95-1.95a.46.46,0,0,1,0-.68l1.95-2a.48.48,0,0,1,.68,0,.47.47,0,0,1,0,.69L15.2,24.38l1.56,1.56a.46.46,0,0,1,0,.68C16.76,26.82,16.57,26.82,16.47,26.82Z"/><path class="cls-1" d="M16.47,24.87a.49.49,0,0,1,0-1,3.42,3.42,0,1,0,0-6.83.49.49,0,0,1,0-1,4.4,4.4,0,0,1,0,8.79Z"/><path class="cls-1" d="M16.47,24.87H15a.49.49,0,0,1,0-1h1.46a.49.49,0,1,1,0,1Z"/><path class="cls-1" d="M12.57,19a.56.56,0,0,1-.39-.1.46.46,0,0,1,0-.68l1.56-1.56-1.56-1.56a.47.47,0,0,1,0-.69.48.48,0,0,1,.68,0l2,2a.47.47,0,0,1,0,.69l-2,2Z"/><path class="cls-1" d="M12.57,24.87a4.4,4.4,0,0,1,0-8.79.49.49,0,1,1,0,1,3.42,3.42,0,1,0,0,6.83.49.49,0,1,1,0,1Z"/><path class="cls-1" d="M14,17.06H12.57a.49.49,0,0,1,0-1H14a.49.49,0,0,1,0,1Z"/></g></g></svg>