<svg xmlns="http://www.w3.org/2000/svg" viewBox="0 0 18.19 25.55"><defs><style>.cls-1{fill:#e5293d;stroke:#e7263d;stroke-miterlimit:10;stroke-width:0.75px;}</style></defs><title>Asset 1</title><g id="Layer_2" data-name="Layer 2"><g id="Layer_1-2" data-name="Layer 1"><path class="cls-1" d="M17.59.59a.73.73,0,0,0-.52-.21H11a.71.71,0,0,0-.72.7v.53a.72.72,0,0,0,.72.7h3.55L4.59,12.25a.71.71,0,0,0,0,1l.38.37a.69.69,0,0,0,.49.21A.75.75,0,0,0,6,13.61l9.9-9.9V7.18a.73.73,0,0,0,.68.75h.53a.76.76,0,0,0,.51-.23.77.77,0,0,0,.22-.52V1.09A.72.72,0,0,0,17.59.59Z"/><path class="cls-1" d="M13.76,12.8a.69.69,0,0,0-.21-.5l-.37-.37a.7.7,0,0,0-1,0l-9.9,9.91V18.37a.77.77,0,0,0-.73-.75H1.05a.73.73,0,0,0-.67.75v6.09a.69.69,0,0,0,.19.5.67.67,0,0,0,.49.21H7.15a.77.77,0,0,0,.78-.69V24a.78.78,0,0,0-.78-.71H3.6l10-9.95A.67.67,0,0,0,13.76,12.8Z"/></g></g></svg>