<svg xmlns="http://www.w3.org/2000/svg" viewBox="0 0 37.99 37.6"><defs><style>.cls-1{fill:#e30427;stroke:#e30427;stroke-miterlimit:10;stroke-width:0.75px;}</style></defs><title>Asset 1</title><g id="Layer_2" data-name="Layer 2"><g id="Layer_1-2" data-name="Layer 1"><g id="Layer_1-2-2" data-name="Layer 1-2"><path class="cls-1" d="M22.09,24.06a.57.57,0,0,1-.62-.53.14.14,0,0,1,0-.09V1.12a.62.62,0,1,1,1.24,0h0V23.45A.65.65,0,0,1,22.09,24.06Z"/><path class="cls-1" d="M37,16.62H7.2A.61.61,0,0,1,6.58,16a.62.62,0,0,1,.62-.62H37a.63.63,0,0,1,.62.63A.61.61,0,0,1,37,16.62Z"/><path class="cls-1" d="M33.88,7.94H10.3a.63.63,0,0,1,0-1.25H33.88a.62.62,0,0,1,.62.62.62.62,0,0,1-.62.62Z"/><path class="cls-1" d="M34.5,24.06H22.09a.61.61,0,0,1-.62-.62.62.62,0,0,1,.62-.62H34.5a.62.62,0,0,1,.62.62.62.62,0,0,1-.62.62Z"/><path class="cls-1" d="M6,34H1a.58.58,0,0,1-.62-.54.11.11,0,0,1,0-.08V19.72c0-.12.12-.37.12-.5A.85.85,0,0,1,1,19.1c1.11,0,6.57.12,7.81,1.37a.52.52,0,0,1,.25.49A116.29,116.29,0,0,1,6.58,33.5.86.86,0,0,1,6,34ZM1.62,32.75H5.46c.37-1.74,2-8.07,2.36-11.54a19.74,19.74,0,0,0-6.2-.87Z"/><path class="cls-1" d="M21.59,37.22a8.71,8.71,0,0,1-3.22-.75l-.25-.11L6.33,32.63a.61.61,0,0,1-.47-.7.58.58,0,0,1,.69-.46.44.44,0,0,1,.15.05l12,3.84c2.73,1,3.1,1.11,9.18-1.36L36,30.53a3.87,3.87,0,0,0-4-1.63l-6.2,1.24c-.37.13-.62-.12-.74-.49s.12-.62.49-.75l6.21-1.23a5,5,0,0,1,5.58,2.86.38.38,0,0,1,0,.49c0,.12-.12.25-.37.37l-8.69,3.73C24.82,36.61,23.08,37.22,21.59,37.22Z"/><path class="cls-1" d="M23.08,31A3.55,3.55,0,0,1,22,30.89L14.52,29a.7.7,0,0,1-.5-.75.67.67,0,0,1,.75-.49l7.44,1.86a3.69,3.69,0,0,0,1.62,0l1.36-.5c0-1.74-.5-2.36-2-2.73L8.32,22.7a.66.66,0,0,1-.5-.75.67.67,0,0,1,.74-.49l14.89,3.72c2.48.62,3,2,3,4.34a.67.67,0,0,1-.37.62l-1.86.63A6.4,6.4,0,0,1,23.08,31Z"/><path class="cls-1" d="M33.25,26.43a.46.46,0,0,1-.37-.13.6.6,0,0,1,0-.84l0,0A14,14,0,0,0,36.48,16,14.33,14.33,0,0,0,7.82,16a8.35,8.35,0,0,0,.12,1.73.82.82,0,0,1-.49.74A.85.85,0,0,1,6.7,18a13.5,13.5,0,0,1-.12-2,15.51,15.51,0,0,1,31,0,15.87,15.87,0,0,1-3.85,10.29A4.63,4.63,0,0,1,33.25,26.43Z"/><path class="cls-1" d="M28.42,27.18c-.13,0-.25,0-.25-.13a.71.71,0,0,1-.25-.87,21.35,21.35,0,0,0,2.23-9.92c0-8.07-3.6-14.65-8.06-14.65S14,8.18,14,16.26a28.33,28.33,0,0,0,.38,4.59c.12.37-.13.62-.5.74a.69.69,0,0,1-.75-.49,32.81,32.81,0,0,1-.49-4.84C12.66,7.57,16.88.38,22,.38s9.43,7.19,9.43,15.88A23.57,23.57,0,0,1,29,26.79.72.72,0,0,1,28.42,27.18Z"/></g></g></g></svg>