<svg xmlns="http://www.w3.org/2000/svg" viewBox="0 0 23.64 23.78"><defs><style>.cls-1{fill:#eb1f36;}</style></defs><g id="Layer_2" data-name="Layer 2"><g id="Layer_1-2" data-name="Layer 1"><g id="surface1"><path class="cls-1" d="M10.08,0A10,10,0,0,0,7.27.4L6.61.58l0,.69a1.68,1.68,0,0,1-.85,1.57A1.7,1.7,0,0,1,4,2.79l-.55-.38L3,2.87A10.21,10.21,0,0,0,.19,7.72L0,8.39l.58.29a1.69,1.69,0,0,1,1,1.51,1.69,1.69,0,0,1-1,1.51L0,12l.19.67a9.85,9.85,0,0,0,1,2.62A10.22,10.22,0,0,0,3,17.51l.51.48L4,17.62a1.68,1.68,0,0,1,2.63,1.49l0,.69.66.18a9.92,9.92,0,0,0,3.64.32v3.48H23.64V11.89H19.9l-.4-.19a1.68,1.68,0,0,1,0-3l.61-.29-.18-.67a9.75,9.75,0,0,0-2.79-4.85l-.48-.48-.58.4a1.7,1.7,0,0,1-1.78,0l0,0a1.69,1.69,0,0,1-.83-1.54l.06-.69L12.84.4A9.85,9.85,0,0,0,10.08,0Zm0,1.78A8.47,8.47,0,0,1,11.94,2,3.26,3.26,0,0,0,13.45,4.3a3.29,3.29,0,0,0,2.79.13,8.7,8.7,0,0,1,1.17,1.51,8,8,0,0,1,.71,1.78,3.26,3.26,0,0,0-1.27,2.47,3.3,3.3,0,0,0,.48,1.7H14.86a5,5,0,0,0,.29-1.7,5.1,5.1,0,1,0-5.09,5.09,4.8,4.8,0,0,0,.85-.08v3.4a9,9,0,0,1-2.74-.18,3.24,3.24,0,0,0-1.51-2.34A3.29,3.29,0,0,0,3.87,16a8.19,8.19,0,0,1-1.16-1.51A8.41,8.41,0,0,1,2,12.66a3.28,3.28,0,0,0,1.27-2.47A3.26,3.26,0,0,0,2,7.72,8.43,8.43,0,0,1,3.9,4.46,3.3,3.3,0,0,0,6.66,4.3,3.26,3.26,0,0,0,8.17,2,8.69,8.69,0,0,1,10.06,1.78Zm0,5A3.38,3.38,0,0,1,13,11.89H10.91v1.56a3,3,0,0,1-.85.14,3.4,3.4,0,0,1,0-6.8Zm2.54,6.8h9.34v.85H12.6Zm0,2.54h9.34v5.95H12.6Zm6.19.67-1.94,1.93-1.09-1.08-1.22,1.22,1.7,1.69.61.59.61-.59L20,18Z"/></g></g></g></svg>