<svg xmlns="http://www.w3.org/2000/svg" viewBox="0 0 25.28 20.77"><defs><style>.cls-1{fill:#eb1f36;}</style></defs><g id="Layer_2" data-name="Layer 2"><g id="Layer_1-2" data-name="Layer 1"><g id="surface1"><path class="cls-1" d="M2.71,0A2.72,2.72,0,0,0,0,2.71v5a3,3,0,0,0,.23,1.1l.05.12,1.05,2.2s0,0,0,.05a2.65,2.65,0,0,0,2.4,1.5H6.32V10.83H3.78A.77.77,0,0,1,3,10.38v0L2.34,9h20.6l-.65,1.32v0a.77.77,0,0,1-.79.45H19v1.81H21.5a2.65,2.65,0,0,0,2.4-1.5h0a.08.08,0,0,0,0-.05L25,8.89l.05-.12a3,3,0,0,0,.23-1.1v-5A2.72,2.72,0,0,0,22.57,0Zm0,1.81H22.57a.9.9,0,0,1,.9.9V7.22H1.81V2.71A.9.9,0,0,1,2.71,1.81Zm6.32,9a.91.91,0,1,0,.9.91A.9.9,0,0,0,9,10.83Zm3.61,0a.91.91,0,1,0,.9.91A.9.9,0,0,0,12.64,10.83Zm3.61,0a.91.91,0,1,0,.9.91A.9.9,0,0,0,16.25,10.83ZM8.13,13.54a.91.91,0,1,0,.9.91A.91.91,0,0,0,8.13,13.54Zm4.51,0a.91.91,0,1,0,.9.91A.9.9,0,0,0,12.64,13.54Zm4.51,0a.91.91,0,1,0,.91.91A.91.91,0,0,0,17.15,13.54ZM7.22,16.25a.91.91,0,1,0,.91.9A.91.91,0,0,0,7.22,16.25Zm5.42,0a.91.91,0,1,0,.9.9A.9.9,0,0,0,12.64,16.25Zm5.42,0a.91.91,0,1,0,.9.9A.91.91,0,0,0,18.06,16.25ZM5.42,19a.91.91,0,1,0,.9.9A.91.91,0,0,0,5.42,19Zm7.22,0a.91.91,0,1,0,.9.9A.9.9,0,0,0,12.64,19Zm7.22,0a.91.91,0,1,0,.91.9A.91.91,0,0,0,19.86,19Z"/></g></g></g></svg>