<svg xmlns="http://www.w3.org/2000/svg" viewBox="0 0 37.68 37.6"><defs><style>.cls-1{fill:#252532;stroke:#252532;stroke-miterlimit:10;stroke-width:0.75px;}</style></defs><title>Asset 4</title><g id="Layer_2" data-name="Layer 2"><g id="Layer_1-2" data-name="Layer 1"><path class="cls-1" d="M28.71,37.23a8.6,8.6,0,1,1,8.6-8.6A8.55,8.55,0,0,1,28.71,37.23Zm0-16a7.37,7.37,0,1,0,7.37,7.37A7.39,7.39,0,0,0,28.71,21.26Z"/><path class="cls-1" d="M28.1,32.31a.74.74,0,0,1-.49-.12l-2.46-2.46a.59.59,0,0,1,0-.86.6.6,0,0,1,.86,0l2,2,4.43-4.42a.59.59,0,0,1,.86,0,.6.6,0,0,1,0,.86l-4.92,4.91C28.47,32.31,28.22,32.31,28.1,32.31Z"/><path class="cls-1" d="M20.73,36h-6a1.47,1.47,0,0,1-1.48-1.23l-.61-4.18A14.12,14.12,0,0,1,10,29.12l-4,1.6a1.53,1.53,0,0,1-1.85-.62L.58,24.2A1.35,1.35,0,0,1,1,22.36l3.44-2.58c0-.49-.12-1-.12-1.35a5.61,5.61,0,0,1,.12-1.35L1,14.5a1.5,1.5,0,0,1-.37-2L4.14,6.27A1.58,1.58,0,0,1,6,5.66l4,1.59a14.12,14.12,0,0,1,2.58-1.47l.61-4.18A1.47,1.47,0,0,1,14.71.38h7.12A1.47,1.47,0,0,1,23.31,1.6l.61,4.18A14.12,14.12,0,0,1,26.5,7.25l4.05-1.59a1.53,1.53,0,0,1,1.85.61L36,12.17h0A1.35,1.35,0,0,1,35.59,14l-3.44,2.58c0,.37.12.86.12,1.35v.37a.64.64,0,0,1-.24.49.75.75,0,0,1-.49.12,9.55,9.55,0,0,0-6.88.62c-.25.12-.49.12-.62-.13s-.24-.36-.24-.61A6.27,6.27,0,0,0,24,17.33a6.14,6.14,0,1,0-12.28,0,6,6,0,0,0,7.62,5.89c.24,0,.49,0,.61.25a1.34,1.34,0,0,1,.12.61,9.39,9.39,0,0,0-1.23,4.55A10.17,10.17,0,0,0,21.22,35c.12.13.24.5.12.62A.68.68,0,0,1,20.73,36ZM10.16,27.77a.45.45,0,0,1,.37.12,13,13,0,0,0,2.83,1.6c.24.12.37.24.37.49l.61,4.54a.26.26,0,0,0,.25.25h4.79a10.91,10.91,0,0,1-1.85-6.14,12.2,12.2,0,0,1,.62-3.69A7.38,7.38,0,1,1,25,17.57v.62a9.63,9.63,0,0,1,5.89-.37c0-.49-.12-.86-.12-1.23a.93.93,0,0,1,.25-.62l3.68-2.82a.24.24,0,0,0,0-.37L31.17,6.89a.44.44,0,0,0-.37-.13L26.38,8.48c-.25.12-.37,0-.62-.12a13.13,13.13,0,0,0-2.82-1.6c-.25-.12-.37-.24-.37-.49L22,1.73a.27.27,0,0,0-.25-.25H14.59a.26.26,0,0,0-.25.25l-.61,4.54c0,.25-.13.37-.37.49a25.57,25.57,0,0,0-2.83,1.72.38.38,0,0,1-.49,0L5.62,6.76a.44.44,0,0,0-.37.13l-3.56,6a.17.17,0,0,0,0,.25L5.37,16a.93.93,0,0,1,.25.62,7.7,7.7,0,0,0-.12,1.6,7.65,7.65,0,0,0,.12,1.59.93.93,0,0,1-.25.62L1.69,23.22v.25l3.56,5.89a.44.44,0,0,0,.37.13L10,27.77Z"/></g></g></svg>