<svg xmlns="http://www.w3.org/2000/svg" viewBox="0 0 21.51 27.47"><defs><style>.cls-1{fill:#eb1f36;}</style></defs><g id="Layer_2" data-name="Layer 2"><g id="Layer_1-2" data-name="Layer 1"><g id="surface1"><path class="cls-1" d="M19.59,0l-1,.46C15.47,1.83,11,2.35,7.15,3.7a11.91,11.91,0,0,0-5,3,8.58,8.58,0,0,0-2.14,6,6.7,6.7,0,0,0,3,5.47,9.88,9.88,0,0,0,1.72,1,19.87,19.87,0,0,0-1.35,3,9.92,9.92,0,0,0-.58,3.67,11.48,11.48,0,0,0,.15,1.47l2,.18a10.83,10.83,0,0,0-.15-1.74,7.73,7.73,0,0,1,.48-2.94c.93-2.7,3.49-7.16,10.15-14.3L14,7.15a70.25,70.25,0,0,0-8.25,10.3,8.29,8.29,0,0,1-1.59-.86A4.59,4.59,0,0,1,2,12.71,6.5,6.5,0,0,1,3.57,8,10.27,10.27,0,0,1,7.79,5.53C11,4.41,14.88,3.85,18.24,2.6a45.89,45.89,0,0,1,1.31,11.61c0,3.6-.84,5.67-1.83,6.81a4.13,4.13,0,0,1-3.24,1.47,5.94,5.94,0,0,1-3.17-1.22c-1-.69-1.67-1.4-2.36-1.84l-1,1.65c.18.11,1.15,1,2.3,1.81a7.56,7.56,0,0,0,4.27,1.55,6.19,6.19,0,0,0,4.74-2.14c1.39-1.6,2.29-4.19,2.29-8.09A51.13,51.13,0,0,0,19.89,1.07Z"/></g></g></g></svg>