<svg xmlns="http://www.w3.org/2000/svg" viewBox="0 0 21.39 22.1"><defs><style>.cls-1{fill:#e6283d;stroke:#e7263d;stroke-miterlimit:10;stroke-width:0.69px;}</style></defs><title>Transmitter</title><g id="Layer_2" data-name="Layer 2"><g id="Layer_1-2" data-name="Layer 1"><g id="Transmitter"><path class="cls-1" d="M10.7,21.76a.36.36,0,0,1-.36-.36V7.84a.36.36,0,1,1,.71,0V21.4A.36.36,0,0,1,10.7,21.76Z"/><path class="cls-1" d="M10.7,8.2a2.14,2.14,0,1,1,2.14-2.14A2.15,2.15,0,0,1,10.7,8.2Zm0-3.57a1.43,1.43,0,1,0,1.42,1.43A1.43,1.43,0,0,0,10.7,4.63Z"/><path class="cls-1" d="M7.14,8.88a.38.38,0,0,1-.3-.16,4.87,4.87,0,0,1-.78-2.63,4.78,4.78,0,0,1,.79-2.64.36.36,0,0,1,.49-.11.37.37,0,0,1,.11.5,4,4,0,0,0-.68,2.25,4.11,4.11,0,0,0,.67,2.24.35.35,0,0,1-.1.49A.36.36,0,0,1,7.14,8.88Z"/><path class="cls-1" d="M4.72,10.36a.36.36,0,0,1-.3-.17A7.51,7.51,0,0,1,4.41,2a.36.36,0,1,1,.6.39,6.73,6.73,0,0,0-1.09,3.7A6.85,6.85,0,0,0,5,9.81a.36.36,0,0,1-.1.49A.36.36,0,0,1,4.72,10.36Z"/><path class="cls-1" d="M2.3,11.82a.38.38,0,0,1-.3-.16A10.24,10.24,0,0,1,2,.51.37.37,0,0,1,2.5.4a.37.37,0,0,1,.1.5,9.5,9.5,0,0,0,0,10.37.35.35,0,0,1-.1.49A.36.36,0,0,1,2.3,11.82Z"/><path class="cls-1" d="M14.25,8.91a.36.36,0,0,1-.2-.06.36.36,0,0,1-.1-.49,4.14,4.14,0,0,0,.67-2.25A4.08,4.08,0,0,0,14,3.87a.35.35,0,1,1,.59-.39,4.77,4.77,0,0,1,.79,2.63,4.84,4.84,0,0,1-.78,2.63A.36.36,0,0,1,14.25,8.91Z"/><path class="cls-1" d="M16.67,10.38a.35.35,0,0,1-.2-.05.37.37,0,0,1-.1-.5,6.78,6.78,0,0,0,0-7.42.36.36,0,0,1,.11-.49A.35.35,0,0,1,17,2a7.51,7.51,0,0,1,0,8.19A.35.35,0,0,1,16.67,10.38Z"/><path class="cls-1" d="M19.09,11.85a.33.33,0,0,1-.19-.06.35.35,0,0,1-.11-.49,9.5,9.5,0,0,0,0-10.37.37.37,0,0,1,.1-.5.36.36,0,0,1,.5.11,10.23,10.23,0,0,1,0,11.14A.35.35,0,0,1,19.09,11.85Z"/></g></g></g></svg>