<svg xmlns="http://www.w3.org/2000/svg" viewBox="0 0 27.17 27.17"><defs><style>.cls-1{fill:#e5293d;stroke:#e7263d;stroke-miterlimit:10;stroke-width:0.75px;}</style></defs><title>Asset 1</title><g id="Layer_2" data-name="Layer 2"><g id="Layer_1-2" data-name="Layer 1"><path class="cls-1" d="M13.59.38A13.21,13.21,0,1,0,26.8,13.59,13.22,13.22,0,0,0,13.59.38Zm0,25.32A12.12,12.12,0,0,1,1.94,16.89H9.77a4.64,4.64,0,0,0,3.82,2.2,4.63,4.63,0,0,0,3.81-2.2h7.83A12.12,12.12,0,0,1,13.59,25.7Zm3.5-9.91a.55.55,0,0,0-.47.27,3.6,3.6,0,0,1-3,1.93,3.6,3.6,0,0,1-3-1.93.55.55,0,0,0-.47-.27H1.68a12.59,12.59,0,0,1-.2-2.2,12.11,12.11,0,0,1,24.22,0,11.71,11.71,0,0,1-.21,2.2Z"/><path class="cls-1" d="M17.6,8.24l-3.28,3.28a2.25,2.25,0,0,0-.73-.14,2.21,2.21,0,1,0,2.2,2.23,2.19,2.19,0,0,0-.54-1.45L18.38,9a.56.56,0,0,0,0-.78A.57.57,0,0,0,17.6,8.24Zm-4,6.45a1.1,1.1,0,1,1,1.1-1.1A1.1,1.1,0,0,1,13.59,14.69Z"/><path class="cls-1" d="M13.59,5.33a.55.55,0,0,0,.55-.55V2.58A.55.55,0,0,0,13.59,2a.54.54,0,0,0-.55.55v2.2A.55.55,0,0,0,13.59,5.33Z"/><path class="cls-1" d="M24.6,13H22.39a.55.55,0,0,0-.55.55.55.55,0,0,0,.55.55H24.6a.55.55,0,0,0,.55-.55A.55.55,0,0,0,24.6,13Z"/><path class="cls-1" d="M4.78,13H2.58a.54.54,0,0,0-.55.55.55.55,0,0,0,.55.55h2.2a.55.55,0,0,0,.55-.55A.55.55,0,0,0,4.78,13Z"/><path class="cls-1" d="M9.61,5.6,8.67,4a.55.55,0,1,0-1,.55l.93,1.63a.56.56,0,0,0,.76.2.55.55,0,0,0,.2-.75Z"/><path class="cls-1" d="M23.41,7.92a.54.54,0,0,0-.75-.2h0L21,8.65a.55.55,0,0,0-.2.76.53.53,0,0,0,.47.27.55.55,0,0,0,.28-.07l1.62-.94A.54.54,0,0,0,23.41,7.92Z"/><path class="cls-1" d="M6.15,8.66h0L4.52,7.72a.54.54,0,0,0-.75.19A.55.55,0,0,0,4,8.67H4l1.63.94a.55.55,0,1,0,.55-.95Z"/><path class="cls-1" d="M19.25,3.77a.55.55,0,0,0-.75.2L17.56,5.6a.55.55,0,0,0,.21.75.55.55,0,0,0,.75-.2l.93-1.63A.55.55,0,0,0,19.25,3.77Z"/></g></g></svg>