<svg xmlns="http://www.w3.org/2000/svg" viewBox="0 0 25.91 25.91"><defs><style>.cls-1{fill:#e7263d;stroke:#e7263d;stroke-miterlimit:10;stroke-width:0.9px;}</style></defs><title>Paper Plane</title><g id="Layer_2" data-name="Layer 2"><g id="Layer_1-2" data-name="Layer 1"><g id="Paper_Plane" data-name="Paper Plane"><path class="cls-1" d="M10.33,16a.42.42,0,0,1-.3-.71L24.75.57a.42.42,0,1,1,.59.59L10.62,15.88A.42.42,0,0,1,10.33,16Z"/><path class="cls-1" d="M13.48,25.46h0a.41.41,0,0,1-.37-.29L10,15.91.74,12.83a.43.43,0,0,1-.29-.37.44.44,0,0,1,.24-.41L24.86.49a.43.43,0,0,1,.48.09.43.43,0,0,1,.08.47L13.86,25.22A.42.42,0,0,1,13.48,25.46ZM2,12.36l8.48,2.83a.42.42,0,0,1,.26.26l2.83,8.48L24.16,1.75Z"/></g></g></g></svg>