<svg xmlns="http://www.w3.org/2000/svg" viewBox="0 0 24.53 24.53"><defs><style>.cls-1{fill:#e6283d;stroke:#e7263d;stroke-miterlimit:10;stroke-width:0.75px;}</style></defs><title>Asset 4</title><g id="Layer_2" data-name="Layer 2"><g id="Layer_1-2" data-name="Layer 1"><path class="cls-1" d="M15.54,24.15H9a2,2,0,0,1-2.05-2V17.59H2.42a2,2,0,0,1-2-2.05V9a2,2,0,0,1,2-2.05H6.93V2.42A2,2,0,0,1,9,.38h6.56a2,2,0,0,1,2.05,2V6.93H22.1a2,2,0,0,1,2,2.05v6.56a2,2,0,0,1-2,2.05H17.59V22.1A2,2,0,0,1,15.54,24.15ZM2.42,7.75A1.27,1.27,0,0,0,1.19,9v6.56a1.26,1.26,0,0,0,1.23,1.23H7.34a.39.39,0,0,1,.41.41V22.1A1.26,1.26,0,0,0,9,23.33h6.56a1.26,1.26,0,0,0,1.23-1.23V17.18a.39.39,0,0,1,.41-.41H22.1a1.26,1.26,0,0,0,1.23-1.23V9A1.26,1.26,0,0,0,22.1,7.75H17.18a.39.39,0,0,1-.41-.41V2.42a1.26,1.26,0,0,0-1.23-1.23H9A1.27,1.27,0,0,0,7.75,2.42V7.34a.38.38,0,0,1-.41.41Z"/><path class="cls-1" d="M14.72,6.93H9.8c-.16,0-.32-.08-.32-.24s-.09-.33,0-.41L11.94,3a.38.38,0,0,1,.65,0l2.46,3.28a.37.37,0,0,1,0,.41C15,6.77,14.89,6.93,14.72,6.93Zm-4.1-.82H13.9L12.26,3.9Z"/><path class="cls-1" d="M12.26,21.69a.42.42,0,0,1-.32-.16L9.48,18.25a.34.34,0,0,1,0-.41c.08-.08.24-.25.32-.25h4.92c.17,0,.33.09.33.25s.08.33,0,.41l-2.46,3.28A.42.42,0,0,1,12.26,21.69Zm-1.64-3.28,1.64,2.22,1.64-2.22Z"/><path class="cls-1" d="M18,15.13c-.08,0-.16,0-.16-.08a.44.44,0,0,1-.25-.33V9.8c0-.16.09-.32.25-.32a.34.34,0,0,1,.41,0l3.28,2.46a.42.42,0,0,1,.16.32.42.42,0,0,1-.16.33l-3.28,2.46A.3.3,0,0,1,18,15.13Zm.41-4.51V13.9l2.22-1.64Z"/><path class="cls-1" d="M6.52,15.13a.29.29,0,0,1-.24-.08L3,12.59a.4.4,0,0,1,0-.65L6.28,9.48a.34.34,0,0,1,.41,0,.43.43,0,0,1,.24.32v4.92c0,.17-.08.33-.24.33C6.69,15.13,6.61,15.13,6.52,15.13ZM3.9,12.26,6.11,13.9V10.62Z"/><path class="cls-1" d="M12.26,14.31a2,2,0,1,1,2.05-2.05A2,2,0,0,1,12.26,14.31Zm0-3.28a1.23,1.23,0,0,0,0,2.46,1.23,1.23,0,0,0,0-2.46Z"/></g></g></svg>