<svg xmlns="http://www.w3.org/2000/svg" viewBox="0 0 22.6 21.73"><defs><style>.cls-1{fill:#e8243c;}</style></defs><title>surface1</title><g id="Layer_2" data-name="Layer 2"><g id="Layer_1-2" data-name="Layer 1"><g id="surface1"><path class="cls-1" d="M2.71,0,0,1.7V3.84L2.71,2.15l8.14,5.11V19.92H0v1.81H12.66V17.21h7.23V13.45A3.6,3.6,0,0,0,19,6.36a3.6,3.6,0,0,0-.91,7.09v2H12.66V8.31l.93-1.47ZM19,8.17A1.81,1.81,0,1,1,17.18,10,1.79,1.79,0,0,1,19,8.17Zm0,.9a.91.91,0,1,0,.9.9A.91.91,0,0,0,19,9.07Z"/></g></g></g></svg>