<svg xmlns="http://www.w3.org/2000/svg" viewBox="0 0 22.65 22.33"><defs><style>.cls-1{fill:#eb1f36;}</style></defs><g id="Layer_2" data-name="Layer 2"><g id="Layer_1-2" data-name="Layer 1"><g id="surface1"><path class="cls-1" d="M7,0a3.26,3.26,0,1,0,3.26,3.26A3.27,3.27,0,0,0,7,0ZM7,1.86a1.4,1.4,0,1,1-1.4,1.4A1.39,1.39,0,0,1,7,1.86Zm9.77.93a2.8,2.8,0,1,0,2.79,2.79A2.8,2.8,0,0,0,16.75,2.79Zm0,1.86a.93.93,0,1,1-.93.93A.92.92,0,0,1,16.75,4.65ZM3.2,6.54a1.91,1.91,0,0,0-1.86,1.4l-1,3.84A1.86,1.86,0,0,0,1.6,14l1.69.52a1.78,1.78,0,0,0,.32.7l5.14,7.09H13.2l1.46-2,.14-.56-1.39-2.06-.47,1.8-2,2.74L5.12,14.13l1.1-5.06.41.09.73,2.47a1.84,1.84,0,0,0,1.13,1.22l2,.76a1.84,1.84,0,0,0,1.22,2.18l2.44.84,4.16,5.7h2.3l-5.27-7.27.94-4.18.58.14.72,2.47a1.87,1.87,0,0,0,1.14,1.22L22,16l.64-1.75L19.37,13v0l-.7-2.47A1.85,1.85,0,0,0,17.3,9.22l-3.54-.84a1.87,1.87,0,0,0-2.24,1.33L11,11.81l-1.83-.7-.7-2.44A1.88,1.88,0,0,0,7,7.36L3.55,6.57A2.07,2.07,0,0,0,3.2,6.54ZM3.14,8.4l1.25.27-.87,4-1.37-.44h0Zm10.18,1.78,1.13.26-.87,4-1.28-.43ZM3.17,16.78l-.47,1.8L0,22.33H2.3L4.42,19.4l.15-.56Z"/></g></g></g></svg>