<svg xmlns="http://www.w3.org/2000/svg" viewBox="0 0 23.51 23.18"><defs><style>.cls-1{fill:#e8243c;}</style></defs><title>surface1</title><g id="Layer_2" data-name="Layer 2"><g id="Layer_1-2" data-name="Layer 1"><g id="surface1"><path class="cls-1" d="M7.24,0a3.38,3.38,0,1,0,3.38,3.38A3.4,3.4,0,0,0,7.24,0Zm0,1.93A1.45,1.45,0,1,1,5.79,3.38,1.44,1.44,0,0,1,7.24,1.93Zm10.14,1a2.9,2.9,0,1,0,2.9,2.89A2.91,2.91,0,0,0,17.38,2.9Zm0,1.93a1,1,0,1,1-1,1A1,1,0,0,1,17.38,4.83Zm-14.06,2A2,2,0,0,0,1.39,8.24l-1,4a1.94,1.94,0,0,0,1.3,2.32l1.75.55a2,2,0,0,0,.33.72l5.34,7.37H13.7l1.51-2.09.15-.57-1.45-2.14-.48,1.87-2,2.83L5.31,14.67,6.46,9.41l.42.1.75,2.56a2,2,0,0,0,1.18,1.27l2.08.78a1.94,1.94,0,0,0,1.27,2.27l2.54.87L19,23.18h2.38l-5.46-7.55,1-4.34.6.15L18.26,14a2,2,0,0,0,1.17,1.27l3.41,1.3.67-1.81L20.1,13.49v0l-.73-2.57A1.92,1.92,0,0,0,18,9.57l-3.68-.88A2,2,0,0,0,12,10.08l-.57,2.17-1.9-.72L8.75,9A2,2,0,0,0,7.3,7.63L3.68,6.82A1.46,1.46,0,0,0,3.32,6.79ZM3.26,8.72,4.56,9l-.91,4.17L2.23,12.7s0,0,0,0Zm10.56,1.84,1.18.27L14.09,15l-1.33-.45ZM3.29,17.41l-.48,1.87L0,23.18H2.38l2.21-3.05.15-.58Z"/></g></g></g></svg>