<svg xmlns="http://www.w3.org/2000/svg" viewBox="0 0 37.97 37.6"><defs><style>.cls-1{fill:#252532;stroke:#252532;stroke-miterlimit:10;stroke-width:0.75px;}</style></defs><title>Asset 2</title><g id="Layer_2" data-name="Layer 2"><g id="Layer_1-2" data-name="Layer 1"><path class="cls-1" d="M22.09,24.07a.58.58,0,0,1-.62-.62V1.12a.62.62,0,1,1,1.24,0V23.45A.66.66,0,0,1,22.09,24.07Z"/><path class="cls-1" d="M37,16.63H7.2a.62.62,0,0,1,0-1.24H37a.62.62,0,0,1,0,1.24Z"/><path class="cls-1" d="M33.88,7.94H10.3a.62.62,0,0,1,0-1.24H33.88a.62.62,0,1,1,0,1.24Z"/><path class="cls-1" d="M34.5,24.07H22.09a.62.62,0,0,1,0-1.24H34.5a.62.62,0,1,1,0,1.24Z"/><path class="cls-1" d="M6,34H1a.58.58,0,0,1-.62-.62V19.73c0-.12.12-.37.12-.5a.76.76,0,0,1,.5-.12c1.11,0,6.57.12,7.81,1.37a.49.49,0,0,1,.25.49A114.66,114.66,0,0,1,6.58,33.5.83.83,0,0,1,6,34ZM1.62,32.76H5.46c.37-1.74,2-8.07,2.36-11.54a19.33,19.33,0,0,0-6.2-.87V32.76Z"/><path class="cls-1" d="M21.59,37.23a9,9,0,0,1-3.22-.75l-.25-.12L6.33,32.63a.59.59,0,1,1,.37-1.11l12,3.84c2.73,1,3.1,1.12,9.18-1.36L36,30.53a3.85,3.85,0,0,0-4-1.62l-6.2,1.24c-.37.13-.62-.12-.74-.49s.12-.62.49-.75l6.21-1.24a5,5,0,0,1,5.58,2.86.38.38,0,0,1,0,.49c0,.13-.12.25-.37.37l-8.69,3.73C24.82,36.61,23.08,37.23,21.59,37.23Z"/><path class="cls-1" d="M23.08,31A3.6,3.6,0,0,1,22,30.9L14.52,29a.7.7,0,0,1-.5-.75.69.69,0,0,1,.75-.49l7.44,1.86a3.68,3.68,0,0,0,1.62,0l1.36-.5c0-1.74-.5-2.36-2-2.73L8.32,22.71a.68.68,0,0,1-.5-.75.67.67,0,0,1,.74-.49l14.89,3.72c2.48.62,3,2,3,4.34a.67.67,0,0,1-.37.62l-1.86.62A5.88,5.88,0,0,1,23.08,31Z"/><path class="cls-1" d="M33.25,26.43a.47.47,0,0,1-.37-.12.6.6,0,0,1,0-.87A14,14,0,0,0,36.48,16,14.33,14.33,0,0,0,7.82,16a9.14,9.14,0,0,0,.12,1.74.82.82,0,0,1-.49.74A.86.86,0,0,1,6.7,18a13.21,13.21,0,0,1-.12-2,15.51,15.51,0,0,1,31,0,15.85,15.85,0,0,1-3.85,10.3C33.63,26.31,33.38,26.43,33.25,26.43Z"/><path class="cls-1" d="M28.42,27.18c-.13,0-.25,0-.25-.13a.72.72,0,0,1-.25-.87,21.26,21.26,0,0,0,2.23-9.92c0-8.07-3.6-14.64-8.06-14.64S14,8.19,14,16.26a28.43,28.43,0,0,0,.38,4.59c.12.37-.13.62-.5.74a.69.69,0,0,1-.75-.49,33.22,33.22,0,0,1-.49-4.84C12.66,7.57,16.88.38,22,.38s9.43,7.19,9.43,15.88A23.55,23.55,0,0,1,29,26.8.7.7,0,0,1,28.42,27.18Z"/></g></g></svg>