<svg xmlns="http://www.w3.org/2000/svg" viewBox="0 0 17.41 24.48"><defs><style>.cls-1{fill:#e6283d;stroke:#e7263d;stroke-miterlimit:10;stroke-width:0.91px;}</style></defs><title>Asset 3</title><g id="Layer_2" data-name="Layer 2"><g id="Layer_1-2" data-name="Layer 1"><path class="cls-1" d="M8.7,13.81A5.11,5.11,0,1,1,13.81,8.7,5.1,5.1,0,0,1,8.7,13.81Zm0-9.43A4.33,4.33,0,0,0,8.7,13,4.37,4.37,0,0,0,13,8.7,4.37,4.37,0,0,0,8.7,4.38Z"/><path class="cls-1" d="M8.7,13.81A5.11,5.11,0,1,1,13.81,8.7,5.1,5.1,0,0,1,8.7,13.81Zm0-9.43A4.33,4.33,0,0,0,8.7,13,4.37,4.37,0,0,0,13,8.7,4.37,4.37,0,0,0,8.7,4.38Z"/><path class="cls-1" d="M8.7,24A.28.28,0,0,1,8.47,24c-.32-.31-8-7.23-8-15.25A8.26,8.26,0,0,1,17,8.7c0,8-7.71,14.94-8,15.25A.29.29,0,0,1,8.7,24Zm0-22.79A7.51,7.51,0,0,0,1.24,8.7c0,6.84,6.13,13.13,7.46,14.39C10,21.83,16.17,15.54,16.17,8.7A7.51,7.51,0,0,0,8.7,1.24Z"/></g></g></svg>