<svg xmlns="http://www.w3.org/2000/svg" viewBox="0 0 34.25 37.85"><defs><style>.cls-1{fill:#e30427;stroke:#e30427;stroke-miterlimit:10;}</style></defs><title>Asset 1</title><g id="Layer_2" data-name="Layer 2"><g id="Layer_1-2" data-name="Layer 1"><g id="Layer_1-2-2" data-name="Layer 1-2"><path class="cls-1" d="M14.63,25.07a.74.74,0,0,1-.5-.13L8,18.8a.61.61,0,0,1,.07-.86.62.62,0,0,1,.79,0l5.65,5.65L25.07,13a.59.59,0,0,1,.83,0l0,0a.6.6,0,0,1,0,.85h0L14.87,24.94C15,25.07,14.75,25.07,14.63,25.07Z"/><path class="cls-1" d="M17.08,37.35H17C11.19,35.63.5,29.61.5,22.86V5.78A.62.62,0,0,1,1,5.17L17,.5h.25l16,4.67a.8.8,0,0,1,.5.61V22.86c0,6.75-10.69,12.77-16.46,14.49ZM1.73,6.27V22.86c0,5.52,9,11.3,15.35,13.26,6.39-2,15.36-7.74,15.36-13.26V6.27L17.08,1.73Z"/></g></g></g></svg>