<svg id="Layer_1" data-name="Layer 1" xmlns="http://www.w3.org/2000/svg" width="343.66" height="155.09" viewBox="0 0 343.66 155.09"><defs><style>.cls-1{fill:#6b6a6a;}.cls-2{fill:#e30427;}</style></defs><title>hw-logo-pos</title><path class="cls-1" d="M51.43,101.32A2.29,2.29,0,0,1,53.68,99a2.24,2.24,0,0,1,2,1.35,2.22,2.22,0,0,1,.2.93,2.25,2.25,0,1,1-4.5,0M88.31,51.49a2.27,2.27,0,0,1,2.25,2.29,2.25,2.25,0,1,1-4.5,0,2.27,2.27,0,0,1,2.25-2.29M55.73,95.22v-10L89,73.92a2.08,2.08,0,0,0,1.4-2V59.87a6.35,6.35,0,1,0-4.1,0V70.45L53,81.75a2.07,2.07,0,0,0-1.4,2v11.5a6.35,6.35,0,1,0,4.1,0"/><path class="cls-2" d="M55.93,53.78a2.42,2.42,0,0,1-.2.93,2.29,2.29,0,1,1,.2-.93M71,62.94a2.28,2.28,0,0,1,0,4.56h-.21a2.29,2.29,0,0,1-1.3-3.95,2.22,2.22,0,0,1,1.51-.6M51.63,59.87V71.11a2.1,2.1,0,0,0,.85,1.69,2,2,0,0,0,1.2.39,1.81,1.81,0,0,0,.65-.11l11.63-4a6.28,6.28,0,0,0,5,2.53,6.45,6.45,0,1,0-6.34-6.48l-8.92,3V59.87a6.35,6.35,0,1,0-4.1,0"/><path class="cls-2" d="M86.06,101.32a2.22,2.22,0,0,1,.2-.93,2.23,2.23,0,0,1,4.1,0,2.22,2.22,0,0,1,.2.93,2.25,2.25,0,1,1-4.5,0M71,92.73a2.29,2.29,0,0,1,0-4.57l.21,0a2.26,2.26,0,0,1,2,2.27,2.29,2.29,0,0,1-.73,1.68,2.22,2.22,0,0,1-1.51.6m19.36,2.49V84.56a2.1,2.1,0,0,0-.85-1.69,2,2,0,0,0-1.85-.29L76,86.54A6.29,6.29,0,0,0,71,84a6.45,6.45,0,1,0,6.34,6.48l8.92-3v7.77a6.35,6.35,0,1,0,4.1,0"/><path class="cls-2" d="M124.92,68.18a2,2,0,0,0-1.39.47,1.49,1.49,0,0,0-.53,1.11V76h-7.33V69.76a1.48,1.48,0,0,0-.51-1.1,1.86,1.86,0,0,0-1.33-.48,2,2,0,0,0-1.37.47,1.48,1.48,0,0,0-.55,1.11V85.35a1.48,1.48,0,0,0,.55,1.12,2,2,0,0,0,1.37.47,1.86,1.86,0,0,0,1.33-.48,1.48,1.48,0,0,0,.51-1.11V79.48H123v5.87a1.51,1.51,0,0,0,.53,1.12,2,2,0,0,0,1.39.47,1.91,1.91,0,0,0,1.31-.47,1.51,1.51,0,0,0,.53-1.12V69.76a1.46,1.46,0,0,0-.54-1.11,1.83,1.83,0,0,0-1.3-.47"/><path class="cls-2" d="M166.25,74v.52a1.7,1.7,0,0,1-.69,1.39,4.08,4.08,0,0,1-2.47.57h-3.17V71.8h3.17a3.89,3.89,0,0,1,2.46.6,2,2,0,0,1,.7,1.64m1,4.42a4.44,4.44,0,0,0,2.08-1.61,4.74,4.74,0,0,0,.68-2.57v-.19a6.63,6.63,0,0,0-.37-2.29,4.39,4.39,0,0,0-1.2-1.8,5.55,5.55,0,0,0-2.16-1.15,11.35,11.35,0,0,0-3.18-.4h-5a2,2,0,0,0-1.38.47,1.48,1.48,0,0,0-.54,1.12V85.27a1.62,1.62,0,0,0,.53,1.15,2.14,2.14,0,0,0,2.7.08,1.41,1.41,0,0,0,.52-1.09V79.76h4l3,6.44a1.51,1.51,0,0,0,1,.7,1.74,1.74,0,0,0,.45.06,2.15,2.15,0,0,0,.94-.24,2.25,2.25,0,0,0,1-1.1,1.22,1.22,0,0,0-.1-1.21Z"/><path class="cls-2" d="M187.38,75.94v3.63a3.5,3.5,0,0,1-1,2.67,3.85,3.85,0,0,1-2.73.92h-2.85V72h2.85a3.49,3.49,0,0,1,2.71,1,4.14,4.14,0,0,1,1,2.94m2-5.2A6.52,6.52,0,0,0,187,69.07a8.25,8.25,0,0,0-3.31-.62H179a2,2,0,0,0-1.4.48,1.51,1.51,0,0,0-.52,1.11v15a1.51,1.51,0,0,0,.52,1.11,2,2,0,0,0,1.4.48h4.68A9,9,0,0,0,187,86.1a6.65,6.65,0,0,0,2.34-1.59,6.42,6.42,0,0,0,1.36-2.37,9.27,9.27,0,0,0,.44-2.87V76.21a10.06,10.06,0,0,0-.44-3,6.59,6.59,0,0,0-1.36-2.48"/><path class="cls-2" d="M236.79,79.49h-4.13l2.05-6Zm.49-10s-.48-1.29-2.57-1.29-2.58,1.32-2.58,1.32L226.81,84.8A1.51,1.51,0,0,0,227,86a2,2,0,0,0,1.22.83,2.11,2.11,0,0,0,.54.07,1.86,1.86,0,0,0,.84-.2,1.67,1.67,0,0,0,.84-.92l1-3h6.43l1,3a1.51,1.51,0,0,0,.81.92,2,2,0,0,0,1.41.13,1.86,1.86,0,0,0,1.21-.83,1.52,1.52,0,0,0,.19-1.23Z"/><path class="cls-2" d="M259.48,74v.52a1.7,1.7,0,0,1-.69,1.39,4.06,4.06,0,0,1-2.46.57h-3.17V71.8h3.17a3.85,3.85,0,0,1,2.45.6,2,2,0,0,1,.7,1.64m1,4.42a4.39,4.39,0,0,0,2.08-1.61,4.65,4.65,0,0,0,.68-2.57v-.19a6.63,6.63,0,0,0-.37-2.29,4.39,4.39,0,0,0-1.2-1.8,5.55,5.55,0,0,0-2.16-1.15,21.88,21.88,0,0,0-4.36-.4h-3.82a2,2,0,0,0-1.37.47A1.46,1.46,0,0,0,249.4,70V85.27a1.59,1.59,0,0,0,.54,1.15,1.88,1.88,0,0,0,1.38.52,2,2,0,0,0,1.32-.44,1.44,1.44,0,0,0,.52-1.09V79.76h4l3,6.44a1.54,1.54,0,0,0,1,.7,1.76,1.76,0,0,0,.46.06,2.07,2.07,0,0,0,.93-.24,2.2,2.2,0,0,0,1-1.1,1.22,1.22,0,0,0-.1-1.21Z"/><path class="cls-2" d="M272.23,68.18a2,2,0,0,0-1.39.47,1.49,1.49,0,0,0-.53,1.11V85.32a1.49,1.49,0,0,0,.53,1.12,2,2,0,0,0,1.39.48,1.92,1.92,0,0,0,1.31-.48,1.49,1.49,0,0,0,.53-1.12V69.76a1.49,1.49,0,0,0-.53-1.11,1.85,1.85,0,0,0-1.31-.47"/><path class="cls-2" d="M288.56,83.38a5.29,5.29,0,0,1-3.11-.87,4.06,4.06,0,0,1-.91-3V75.63a4,4,0,0,1,.91-3,6,6,0,0,1,6.24,0,4.14,4.14,0,0,1,.88,3v3.89a4.14,4.14,0,0,1-.88,3,5.25,5.25,0,0,1-3.13.87m7.35-10.66a6.44,6.44,0,0,0-1.32-2.38,6.25,6.25,0,0,0-2.25-1.59,12.75,12.75,0,0,0-7.54,0,6,6,0,0,0-2.23,1.59,6.42,6.42,0,0,0-1.31,2.38,9.75,9.75,0,0,0-.42,2.91v3.86a9.8,9.8,0,0,0,.42,2.91,6.42,6.42,0,0,0,1.31,2.38,6.12,6.12,0,0,0,2.23,1.59,12.75,12.75,0,0,0,7.54,0,6.25,6.25,0,0,0,2.25-1.59,6.44,6.44,0,0,0,1.32-2.38,9.8,9.8,0,0,0,.42-2.91V75.63a9.75,9.75,0,0,0-.42-2.91"/><path class="cls-2" d="M221.9,69.22a1.82,1.82,0,0,0-1.05-1,1.78,1.78,0,0,0-1.43.09,1.81,1.81,0,0,0-.94,1.07l-3.44,10-3.42-10a1.92,1.92,0,0,0-1.77-1.26,1.87,1.87,0,0,0-1.75,1.26l-3.44,10-3.44-10a1.92,1.92,0,0,0-1-1.08,1.75,1.75,0,0,0-1.42-.07,1.81,1.81,0,0,0-1.05,1,1.85,1.85,0,0,0-.07,1.44l5.18,15A1.86,1.86,0,0,0,204.65,87a1.88,1.88,0,0,0,1.76-1.28l3.44-10,3.43,9.93A1.83,1.83,0,0,0,215,86.93a1.81,1.81,0,0,0,1.74-1.24l5.2-15a1.85,1.85,0,0,0-.08-1.44"/><path class="cls-2" d="M143.56,79.48h-4.13l2-6Zm.49-10s-.48-1.29-2.58-1.29-2.57,1.32-2.57,1.32l-5.32,15.27a1.44,1.44,0,0,0,.21,1.22,1.89,1.89,0,0,0,1.22.84,2.5,2.5,0,0,0,.54.07,1.74,1.74,0,0,0,.84-.21,1.64,1.64,0,0,0,.84-.92l1.05-3h6.43l1,3a1.48,1.48,0,0,0,.81.92,1.92,1.92,0,0,0,1.41.14,1.89,1.89,0,0,0,1.21-.84,1.56,1.56,0,0,0,.19-1.23Z"/></svg>