<?xml version="1.0" encoding="UTF-8"?>
<svg id="Layer_2" data-name="Layer 2" xmlns="http://www.w3.org/2000/svg" xmlns:xlink="http://www.w3.org/1999/xlink" viewBox="0 0 274.4 493.87">
  <defs>
    <style>
      .cls-1 {
        fill: url(#linear-gradient);
      }

      .cls-2 {
        fill: #fff;
      }

      .cls-3 {
        fill: #e26558;
      }

      .cls-4 {
        fill: #1a1a1a;
      }

      .cls-5 {
        fill: url(#linear-gradient-8);
      }

      .cls-6 {
        fill: url(#linear-gradient-9);
      }

      .cls-7 {
        fill: url(#linear-gradient-3);
      }

      .cls-8 {
        fill: url(#linear-gradient-4);
      }

      .cls-9 {
        fill: url(#linear-gradient-2);
      }

      .cls-10 {
        fill: url(#linear-gradient-6);
      }

      .cls-11 {
        fill: url(#linear-gradient-7);
      }

      .cls-12 {
        fill: url(#linear-gradient-5);
      }

      .cls-13 {
        fill: url(#linear-gradient-40);
      }

      .cls-14 {
        fill: url(#linear-gradient-14);
      }

      .cls-15 {
        fill: url(#linear-gradient-18);
      }

      .cls-16 {
        fill: url(#linear-gradient-22);
      }

      .cls-17 {
        fill: url(#linear-gradient-20);
      }

      .cls-18 {
        fill: url(#linear-gradient-21);
      }

      .cls-19 {
        fill: url(#linear-gradient-23);
      }

      .cls-20 {
        fill: url(#linear-gradient-15);
      }

      .cls-21 {
        fill: url(#linear-gradient-19);
      }

      .cls-22 {
        fill: url(#linear-gradient-16);
      }

      .cls-23 {
        fill: url(#linear-gradient-17);
      }

      .cls-24 {
        fill: url(#linear-gradient-13);
      }

      .cls-25 {
        fill: url(#linear-gradient-12);
      }

      .cls-26 {
        fill: url(#linear-gradient-10);
      }

      .cls-27 {
        fill: url(#linear-gradient-11);
      }

      .cls-28 {
        fill: url(#linear-gradient-27);
      }

      .cls-29 {
        fill: url(#linear-gradient-24);
      }

      .cls-30 {
        fill: url(#linear-gradient-26);
      }

      .cls-31 {
        fill: url(#linear-gradient-38);
      }

      .cls-32 {
        fill: url(#linear-gradient-35);
      }

      .cls-33 {
        fill: url(#linear-gradient-37);
      }

      .cls-34 {
        fill: url(#linear-gradient-34);
      }

      .cls-35 {
        fill: url(#linear-gradient-39);
      }

      .cls-36 {
        fill: url(#linear-gradient-36);
      }

      .cls-37 {
        fill: url(#linear-gradient-25);
      }

      .cls-38 {
        fill: url(#linear-gradient-28);
      }

      .cls-39 {
        fill: url(#linear-gradient-29);
      }

      .cls-40 {
        fill: url(#linear-gradient-33);
      }

      .cls-41 {
        fill: url(#linear-gradient-30);
      }

      .cls-42 {
        fill: url(#linear-gradient-32);
      }

      .cls-43 {
        fill: url(#linear-gradient-31);
      }
    </style>
    <linearGradient id="linear-gradient" x1="155.14" y1="358.96" x2="244.57" y2="358.96" gradientUnits="userSpaceOnUse">
      <stop offset="0" stop-color="#d4d4d4"/>
      <stop offset="1" stop-color="#fff"/>
    </linearGradient>
    <linearGradient id="linear-gradient-2" x1="-5229.37" y1="-600.08" x2="-5139.92" y2="-600.08" gradientTransform="translate(-4987.97 796.01) rotate(-179.69) scale(1 -1)" gradientUnits="userSpaceOnUse">
      <stop offset="0" stop-color="#e6e6e6"/>
      <stop offset="1" stop-color="#999"/>
    </linearGradient>
    <linearGradient id="linear-gradient-3" x1="-5198.66" y1="-664.22" x2="-5170.58" y2="-664.22" gradientTransform="translate(-4984.79 824.13) rotate(-180) scale(1 -1)" gradientUnits="userSpaceOnUse">
      <stop offset="0" stop-color="#e26558"/>
      <stop offset="1" stop-color="#a8190a"/>
    </linearGradient>
    <linearGradient id="linear-gradient-4" x1="-5181.87" y1="-668.21" x2="-5120.79" y2="-668.21" xlink:href="#linear-gradient-3"/>
    <linearGradient id="linear-gradient-5" x1="-5259.19" y1="-632.9" x2="-5187.34" y2="-632.9" xlink:href="#linear-gradient-3"/>
    <linearGradient id="linear-gradient-6" x1="-5148.91" y1="-749.5" x2="-5120.79" y2="-749.5" gradientTransform="translate(-4988.78 796.28) rotate(-179.69) scale(1 -1)" gradientUnits="userSpaceOnUse">
      <stop offset="0" stop-color="#f0b0a9"/>
      <stop offset="1" stop-color="#a8190a"/>
    </linearGradient>
    <linearGradient id="linear-gradient-7" x1="-5140.82" y1="-751.34" x2="-5128.88" y2="-751.34" gradientTransform="translate(-4984.79 824.13) rotate(-180) scale(1 -1)" xlink:href="#linear-gradient-2"/>
    <linearGradient id="linear-gradient-8" x1="-5140.82" y1="-751.39" x2="-5128.88" y2="-751.39" gradientTransform="translate(-4984.79 824.13) rotate(-180) scale(1 -1)" xlink:href="#linear-gradient-2"/>
    <linearGradient id="linear-gradient-9" x1="-5140.82" y1="-751.37" x2="-5128.88" y2="-751.37" gradientTransform="translate(-4984.79 824.13) rotate(-180) scale(1 -1)" xlink:href="#linear-gradient-2"/>
    <linearGradient id="linear-gradient-10" x1="-5140.8" y1="-764.3" x2="-5128.9" y2="-764.3" gradientTransform="translate(-4984.79 824.13) rotate(-180) scale(1 -1)" gradientUnits="userSpaceOnUse">
      <stop offset="0" stop-color="#fff"/>
      <stop offset="1" stop-color="#d4d4d4"/>
    </linearGradient>
    <linearGradient id="linear-gradient-11" x1="-5198.68" y1="-723.54" x2="-5170.56" y2="-723.54" gradientTransform="translate(-4988.64 796.01) rotate(-179.69) scale(1 -1)" xlink:href="#linear-gradient-6"/>
    <linearGradient id="linear-gradient-12" x1="-5190.59" y1="-725.39" x2="-5178.65" y2="-725.39" gradientTransform="translate(-4984.79 824.13) rotate(-180) scale(1 -1)" xlink:href="#linear-gradient-2"/>
    <linearGradient id="linear-gradient-13" x1="-5190.59" y1="-725.44" x2="-5178.65" y2="-725.44" gradientTransform="translate(-4984.79 824.13) rotate(-180) scale(1 -1)" xlink:href="#linear-gradient-2"/>
    <linearGradient id="linear-gradient-14" x1="-5190.59" y1="-725.41" x2="-5178.65" y2="-725.41" gradientTransform="translate(-4984.79 824.13) rotate(-180) scale(1 -1)" xlink:href="#linear-gradient-2"/>
    <linearGradient id="linear-gradient-15" x1="-5190.57" y1="-738.35" x2="-5178.67" y2="-738.35" xlink:href="#linear-gradient-10"/>
    <linearGradient id="linear-gradient-16" x1="-5259.19" y1="-678.86" x2="-5231.07" y2="-678.86" gradientTransform="translate(-4988.39 795.68) rotate(-179.69) scale(1 -1)" xlink:href="#linear-gradient-6"/>
    <linearGradient id="linear-gradient-17" x1="-5251.1" y1="-680.71" x2="-5239.16" y2="-680.71" gradientTransform="translate(-4984.79 824.13) rotate(-180) scale(1 -1)" xlink:href="#linear-gradient-2"/>
    <linearGradient id="linear-gradient-18" x1="-5251.1" y1="-680.75" x2="-5239.16" y2="-680.75" gradientTransform="translate(-4984.79 824.13) rotate(-180) scale(1 -1)" xlink:href="#linear-gradient-2"/>
    <linearGradient id="linear-gradient-19" x1="-5251.1" y1="-680.73" x2="-5239.16" y2="-680.73" gradientTransform="translate(-4984.79 824.13) rotate(-180) scale(1 -1)" xlink:href="#linear-gradient-2"/>
    <linearGradient id="linear-gradient-20" x1="-5251.08" y1="-693.67" x2="-5239.18" y2="-693.67" xlink:href="#linear-gradient-10"/>
    <linearGradient id="linear-gradient-21" x1="19.14" y1="318.96" x2="108.57" y2="318.96" xlink:href="#linear-gradient"/>
    <linearGradient id="linear-gradient-22" x1="-5093.37" y1="-640.08" x2="-5003.92" y2="-640.08" gradientTransform="translate(-4988.19 796.75) rotate(-179.69) scale(1 -1)" xlink:href="#linear-gradient-2"/>
    <linearGradient id="linear-gradient-23" x1="-5062.66" y1="-704.22" x2="-5034.58" y2="-704.22" xlink:href="#linear-gradient-3"/>
    <linearGradient id="linear-gradient-24" x1="-5045.87" y1="-708.21" x2="-4984.79" y2="-708.21" xlink:href="#linear-gradient-3"/>
    <linearGradient id="linear-gradient-25" x1="-5123.19" y1="-672.9" x2="-5051.34" y2="-672.9" xlink:href="#linear-gradient-3"/>
    <linearGradient id="linear-gradient-26" x1="-5012.91" y1="-789.5" x2="-4984.79" y2="-789.5" gradientTransform="translate(-4989 797.02) rotate(-179.69) scale(1 -1)" xlink:href="#linear-gradient-6"/>
    <linearGradient id="linear-gradient-27" x1="-5004.82" y1="-791.34" x2="-4992.88" y2="-791.34" gradientTransform="translate(-4984.79 824.13) rotate(-180) scale(1 -1)" xlink:href="#linear-gradient-2"/>
    <linearGradient id="linear-gradient-28" x1="-5004.82" y1="-791.39" x2="-4992.88" y2="-791.39" gradientTransform="translate(-4984.79 824.13) rotate(-180) scale(1 -1)" xlink:href="#linear-gradient-2"/>
    <linearGradient id="linear-gradient-29" x1="-5004.82" y1="-791.37" x2="-4992.88" y2="-791.37" gradientTransform="translate(-4984.79 824.13) rotate(-180) scale(1 -1)" xlink:href="#linear-gradient-2"/>
    <linearGradient id="linear-gradient-30" x1="-5004.8" y1="-804.3" x2="-4992.9" y2="-804.3" xlink:href="#linear-gradient-10"/>
    <linearGradient id="linear-gradient-31" x1="-5062.68" y1="-763.54" x2="-5034.56" y2="-763.54" gradientTransform="translate(-4988.86 796.75) rotate(-179.69) scale(1 -1)" xlink:href="#linear-gradient-6"/>
    <linearGradient id="linear-gradient-32" x1="-5054.59" y1="-765.39" x2="-5042.65" y2="-765.39" gradientTransform="translate(-4984.79 824.13) rotate(-180) scale(1 -1)" xlink:href="#linear-gradient-2"/>
    <linearGradient id="linear-gradient-33" x1="-5054.59" y1="-765.44" x2="-5042.65" y2="-765.44" gradientTransform="translate(-4984.79 824.13) rotate(-180) scale(1 -1)" xlink:href="#linear-gradient-2"/>
    <linearGradient id="linear-gradient-34" x1="-5054.59" y1="-765.41" x2="-5042.65" y2="-765.41" gradientTransform="translate(-4984.79 824.13) rotate(-180) scale(1 -1)" xlink:href="#linear-gradient-2"/>
    <linearGradient id="linear-gradient-35" x1="-5054.57" y1="-778.35" x2="-5042.67" y2="-778.35" xlink:href="#linear-gradient-10"/>
    <linearGradient id="linear-gradient-36" x1="-5123.19" y1="-718.86" x2="-5095.07" y2="-718.86" gradientTransform="translate(-4988.61 796.42) rotate(-179.69) scale(1 -1)" xlink:href="#linear-gradient-6"/>
    <linearGradient id="linear-gradient-37" x1="-5115.1" y1="-720.71" x2="-5103.16" y2="-720.71" gradientTransform="translate(-4984.79 824.13) rotate(-180) scale(1 -1)" xlink:href="#linear-gradient-2"/>
    <linearGradient id="linear-gradient-38" x1="-5115.1" y1="-720.75" x2="-5103.16" y2="-720.75" gradientTransform="translate(-4984.79 824.13) rotate(-180) scale(1 -1)" xlink:href="#linear-gradient-2"/>
    <linearGradient id="linear-gradient-39" x1="-5115.1" y1="-720.73" x2="-5103.16" y2="-720.73" gradientTransform="translate(-4984.79 824.13) rotate(-180) scale(1 -1)" xlink:href="#linear-gradient-2"/>
    <linearGradient id="linear-gradient-40" x1="-5115.08" y1="-733.67" x2="-5103.18" y2="-733.67" xlink:href="#linear-gradient-10"/>
  </defs>
  <g id="Layer_1-2" data-name="Layer 1">
    <g>
      <path class="cls-1" d="m244.47,466.17v-242.12h-89.22v242.35c-.87,7.18,3.41,14.5,12.88,19.97,17.41,10.05,45.73,10,63.25-.11,9.56-5.52,13.92-12.89,13.09-20.09Z"/>
      <ellipse class="cls-9" cx="199.86" cy="224.05" rx="44.73" ry="25.82" transform="translate(-1.21 1.09) rotate(-.31)"/>
      <path class="cls-7" d="m185.81,211.35v-111.39s28.05,0,28.05,0v111.28c.21,2.23-1.15,4.51-4.11,6.22-5.51,3.18-14.41,3.2-19.88.04-2.92-1.69-4.26-3.93-4.05-6.15Z"/>
      <g>
        <path class="cls-3" d="m169.03,228.7v.89c-.03-.3-.03-.59,0-.89Z"/>
        <path class="cls-3" d="m197.08,229.48v-.88c.03.29.03.59,0,.88Z"/>
        <path class="cls-8" d="m164.05,74.64v26.39c0,5.48,4.71,13.57,9.5,16.34,13.41,7.74,23.53,25.21,23.53,40.63v70.59s0,.88,0,.88c-.18,1.94-1.54,3.85-4.11,5.33-5.51,3.18-14.41,3.2-19.88.04-2.53-1.46-3.87-3.34-4.05-5.26v-.89s0-70.7,0-70.7c0-5.48-4.71-13.57-9.5-16.34-13.41-7.74-23.53-25.21-23.53-40.63v-26.39s28.05,0,28.05,0Z"/>
      </g>
      <path class="cls-12" d="m202.65,228.21v-24.1c0-18.88,15.36-34.25,34.25-34.25h3.26c3.42,0,6.2-2.78,6.2-6.2v-18.41s28.05,0,28.05,0v18.41c0,18.88-15.36,34.25-34.25,34.25h-3.26c-3.42,0-6.2,2.78-6.2,6.2v24.75s-.04,0-.04,0c.08,2.14-1.29,4.31-4.13,5.95-5.51,3.18-14.41,3.2-19.88.04-3.14-1.81-4.46-4.27-3.99-6.64Z"/>
      <ellipse class="cls-10" cx="150.06" cy="74.64" rx="14.06" ry="8.12" transform="translate(-.4 .81) rotate(-.31)"/>
      <g>
        <g>
          <path class="cls-11" d="m144.11,72.55v.48c-.02-.16-.02-.32,0-.48Z"/>
          <path class="cls-5" d="m156.01,72.98v-.46c.02.15.02.31,0,.46Z"/>
          <path class="cls-6" d="m154.27,75.2c-2.34,1.35-6.12,1.36-8.44.02-1.05-.61-1.62-1.39-1.72-2.18v-.48c.1-.8.68-1.59,1.74-2.21,2.34-1.35,6.12-1.36,8.44-.02,1.06.61,1.63,1.39,1.72,2.19v.46c-.09.81-.67,1.6-1.75,2.22Z"/>
          <path class="cls-26" d="m156.01,43.45v29.07s0,.46,0,.46c-.09.81-.67,1.6-1.75,2.22-2.34,1.35-6.12,1.36-8.44.02-1.05-.61-1.62-1.39-1.72-2.18v-.48s0-29.1,0-29.1h11.91Z"/>
        </g>
        <ellipse class="cls-2" cx="150.06" cy="43.45" rx="5.97" ry="3.45" transform="translate(-.23 .81) rotate(-.31)"/>
      </g>
      <ellipse class="cls-27" cx="199.83" cy="100.59" rx="14.06" ry="8.12" transform="translate(-.54 1.08) rotate(-.31)"/>
      <g>
        <g>
          <path class="cls-25" d="m193.88,98.5v.48c-.02-.16-.02-.32,0-.48Z"/>
          <path class="cls-24" d="m205.78,98.93v-.46c.02.15.02.31,0,.46Z"/>
          <path class="cls-14" d="m204.04,101.15c-2.34,1.35-6.12,1.36-8.44.02-1.05-.61-1.62-1.39-1.72-2.18v-.48c.1-.8.68-1.59,1.74-2.21,2.34-1.35,6.12-1.36,8.44-.02,1.06.61,1.63,1.39,1.72,2.19v.46c-.09.81-.67,1.6-1.75,2.22Z"/>
          <path class="cls-20" d="m205.78,69.4v29.07s0,.46,0,.46c-.09.81-.67,1.6-1.75,2.22-2.34,1.35-6.12,1.36-8.44.02-1.05-.61-1.62-1.39-1.72-2.18v-.48s0-29.1,0-29.1h11.91Z"/>
        </g>
        <ellipse class="cls-2" cx="199.83" cy="69.4" rx="5.97" ry="3.45" transform="translate(-.37 1.08) rotate(-.31)"/>
      </g>
      <ellipse class="cls-22" cx="260.34" cy="145.27" rx="14.06" ry="8.12" transform="translate(-.78 1.41) rotate(-.31)"/>
      <g>
        <g>
          <path class="cls-23" d="m254.39,143.18v.48c-.02-.16-.02-.32,0-.48Z"/>
          <path class="cls-15" d="m266.29,143.61v-.46c.02.15.02.31,0,.46Z"/>
          <path class="cls-21" d="m264.55,145.83c-2.34,1.35-6.12,1.36-8.44.02-1.05-.61-1.62-1.39-1.72-2.18v-.48c.1-.8.68-1.59,1.74-2.21,2.34-1.35,6.12-1.36,8.44-.02,1.06.61,1.63,1.39,1.72,2.19v.46c-.09.81-.67,1.6-1.75,2.22Z"/>
          <path class="cls-17" d="m266.29,114.08v29.07s0,.46,0,.46c-.09.81-.67,1.6-1.75,2.22-2.34,1.35-6.12,1.36-8.44.02-1.05-.61-1.62-1.39-1.72-2.18v-.48s0-29.1,0-29.1h11.91Z"/>
        </g>
        <ellipse class="cls-2" cx="260.34" cy="114.08" rx="5.97" ry="3.45" transform="translate(-.61 1.41) rotate(-.31)"/>
      </g>
    </g>
    <g>
      <path class="cls-18" d="m108.47,426.17v-242.12H19.25v242.35c-.87,7.18,3.41,14.5,12.88,19.97,17.41,10.05,45.73,10,63.25-.11,9.56-5.52,13.92-12.89,13.09-20.09Z"/>
      <ellipse class="cls-16" cx="63.86" cy="184.05" rx="44.73" ry="25.82" transform="translate(-1 .35) rotate(-.31)"/>
      <path class="cls-19" d="m49.81,171.35V59.96s28.05,0,28.05,0v111.28c.21,2.23-1.15,4.51-4.11,6.22-5.51,3.18-14.41,3.2-19.88.04-2.92-1.69-4.26-3.93-4.05-6.15Z"/>
      <g>
        <path class="cls-3" d="m33.03,188.7v.89c-.03-.3-.03-.59,0-.89Z"/>
        <path class="cls-3" d="m61.08,189.48v-.88c.03.29.03.59,0,.88Z"/>
        <path class="cls-29" d="m28.05,34.64v26.39c0,5.48,4.71,13.57,9.5,16.34,13.41,7.74,23.53,25.21,23.53,40.63v70.59s0,.88,0,.88c-.18,1.94-1.54,3.85-4.11,5.33-5.51,3.18-14.41,3.2-19.88.04-2.53-1.46-3.87-3.34-4.05-5.26v-.89s0-70.7,0-70.7c0-5.48-4.71-13.57-9.5-16.34C10.11,93.92,0,76.45,0,61.03v-26.39s28.05,0,28.05,0Z"/>
      </g>
      <path class="cls-37" d="m66.65,188.21v-24.1c0-18.88,15.36-34.25,34.25-34.25h3.26c3.42,0,6.2-2.78,6.2-6.2v-18.41s28.05,0,28.05,0v18.41c0,18.88-15.36,34.25-34.25,34.25h-3.26c-3.42,0-6.2,2.78-6.2,6.2v24.75s-.04,0-.04,0c.08,2.14-1.29,4.31-4.13,5.95-5.51,3.18-14.41,3.2-19.88.04-3.14-1.81-4.46-4.27-3.99-6.64Z"/>
      <ellipse class="cls-30" cx="14.06" cy="34.64" rx="14.06" ry="8.12" transform="translate(-.19 .08) rotate(-.31)"/>
      <g>
        <g>
          <path class="cls-28" d="m8.11,32.55v.48c-.02-.16-.02-.32,0-.48Z"/>
          <path class="cls-38" d="m20.01,32.98v-.46c.02.15.02.31,0,.46Z"/>
          <path class="cls-39" d="m18.27,35.2c-2.34,1.35-6.12,1.36-8.44.02-1.05-.61-1.62-1.39-1.72-2.18v-.48c.1-.8.68-1.59,1.74-2.21,2.34-1.35,6.12-1.36,8.44-.02,1.06.61,1.63,1.39,1.72,2.19v.46c-.09.81-.67,1.6-1.75,2.22Z"/>
          <path class="cls-41" d="m20.01,3.45v29.07s0,.46,0,.46c-.09.81-.67,1.6-1.75,2.22-2.34,1.35-6.12,1.36-8.44.02-1.05-.61-1.62-1.39-1.72-2.18v-.48s0-29.1,0-29.1h11.91Z"/>
        </g>
        <ellipse class="cls-2" cx="14.06" cy="3.45" rx="5.97" ry="3.45" transform="translate(-.02 .08) rotate(-.31)"/>
      </g>
      <ellipse class="cls-43" cx="63.83" cy="60.59" rx="14.06" ry="8.12" transform="translate(-.33 .35) rotate(-.31)"/>
      <g>
        <g>
          <path class="cls-42" d="m57.88,58.5v.48c-.02-.16-.02-.32,0-.48Z"/>
          <path class="cls-40" d="m69.78,58.93v-.46c.02.15.02.31,0,.46Z"/>
          <path class="cls-34" d="m68.04,61.15c-2.34,1.35-6.12,1.36-8.44.02-1.05-.61-1.62-1.39-1.72-2.18v-.48c.1-.8.68-1.59,1.74-2.21,2.34-1.35,6.12-1.36,8.44-.02,1.06.61,1.63,1.39,1.72,2.19v.46c-.09.81-.67,1.6-1.75,2.22Z"/>
          <path class="cls-32" d="m69.78,29.4v29.07s0,.46,0,.46c-.09.81-.67,1.6-1.75,2.22-2.34,1.35-6.12,1.36-8.44.02-1.05-.61-1.62-1.39-1.72-2.18v-.48s0-29.1,0-29.1h11.91Z"/>
        </g>
        <ellipse class="cls-2" cx="63.83" cy="29.4" rx="5.97" ry="3.45" transform="translate(-.16 .35) rotate(-.31)"/>
      </g>
      <ellipse class="cls-36" cx="124.34" cy="105.27" rx="14.06" ry="8.12" transform="translate(-.57 .68) rotate(-.31)"/>
      <g>
        <g>
          <path class="cls-33" d="m118.39,103.18v.48c-.02-.16-.02-.32,0-.48Z"/>
          <path class="cls-31" d="m130.29,103.61v-.46c.02.15.02.31,0,.46Z"/>
          <path class="cls-35" d="m128.55,105.83c-2.34,1.35-6.12,1.36-8.44.02-1.05-.61-1.62-1.39-1.72-2.18v-.48c.1-.8.68-1.59,1.74-2.21,2.34-1.35,6.12-1.36,8.44-.02,1.06.61,1.63,1.39,1.72,2.19v.46c-.09.81-.67,1.6-1.75,2.22Z"/>
          <path class="cls-13" d="m130.29,74.08v29.07s0,.46,0,.46c-.09.81-.67,1.6-1.75,2.22-2.34,1.35-6.12,1.36-8.44.02-1.05-.61-1.62-1.39-1.72-2.18v-.48s0-29.1,0-29.1h11.91Z"/>
        </g>
        <ellipse class="cls-2" cx="124.34" cy="74.08" rx="5.97" ry="3.45" transform="translate(-.4 .68) rotate(-.31)"/>
      </g>
    </g>
    <g>
      <path class="cls-4" d="m65.6,423.68l-8.53.05v-2.21c-.02-.57.08-1.08.27-1.54s.46-.85.8-1.18c.34-.33.76-.58,1.23-.76.48-.18,1.01-.27,1.58-.27h.7c.57,0,1.1.08,1.58.25s.89.42,1.24.74c.35.32.62.7.81,1.15s.29.94.29,1.49v2.29Zm-7.19-1.62l5.87-.03v-.63c0-.31-.06-.58-.18-.83-.12-.24-.29-.45-.51-.62-.22-.17-.49-.3-.81-.39-.32-.09-.68-.13-1.09-.13h-.71c-.38,0-.73.05-1.04.14s-.58.22-.81.4c-.23.18-.4.39-.52.65s-.18.55-.18.89v.55Z"/>
      <path class="cls-4" d="m57.58,414.31c-.12,0-.24-.02-.35-.07-.11-.04-.2-.11-.28-.19s-.14-.18-.18-.29c-.04-.12-.07-.24-.07-.38,0-.29.08-.52.24-.69s.37-.26.62-.26c.25,0,.46.08.63.25s.25.4.25.69c0,.14-.02.27-.06.38s-.1.21-.18.3-.17.15-.27.19c-.11.05-.22.07-.35.07Zm1.63,1.68l-.02-3.45,5.02-.03v-1.72s1.31,0,1.31,0l.03,5.17h-1.32s0-1.8,0-1.8l-3.69.02v1.8s-1.32,0-1.32,0Z"/>
      <path class="cls-4" d="m62.3,409.37c-.48,0-.92-.05-1.32-.17-.4-.12-.74-.29-1.03-.51-.29-.22-.51-.49-.67-.8-.16-.32-.24-.67-.24-1.07,0-.37.06-.69.18-.96.12-.27.3-.49.53-.68l-.6-.06v-1.48s6.13-.03,6.13-.03c.43,0,.81.07,1.15.21s.62.35.85.61.41.58.53.95c.12.37.18.78.19,1.22,0,.19-.02.4-.06.62-.04.22-.1.44-.18.65-.08.22-.18.42-.31.61s-.28.36-.45.49l-.99-.73c.23-.21.41-.44.53-.71s.18-.55.18-.85c0-.46-.13-.81-.37-1.07s-.59-.38-1.04-.38h-.36c.21.19.38.42.5.67s.18.55.18.89c0,.39-.08.75-.24,1.07-.16.31-.38.58-.67.81-.28.22-.62.4-1.01.52-.39.12-.82.18-1.28.19h-.12Zm.11-1.63c.27,0,.51-.03.74-.08.23-.05.43-.14.6-.25.17-.11.3-.25.4-.42.1-.17.14-.37.14-.6,0-.29-.06-.52-.17-.71-.11-.18-.26-.33-.46-.44h-2.68c-.2.12-.35.27-.46.46-.11.19-.16.42-.16.7,0,.23.05.43.15.6.1.17.24.31.41.42.17.11.38.19.61.25.23.05.48.08.75.08h.12Z"/>
      <path class="cls-4" d="m57.51,399.91c-.12,0-.24-.02-.35-.07-.11-.04-.2-.11-.28-.19-.08-.08-.14-.18-.18-.29-.04-.11-.07-.24-.07-.38,0-.29.08-.52.24-.69.16-.17.37-.26.62-.26s.46.08.63.25c.16.17.25.4.25.69,0,.14-.02.27-.06.38-.04.12-.1.21-.18.3-.08.08-.17.15-.27.19-.11.05-.22.07-.35.07Zm1.63,1.68l-.02-3.45,5.02-.03v-1.72s1.31,0,1.31,0l.03,5.17h-1.32s0-1.8,0-1.8l-3.69.02v1.8s-1.32,0-1.32,0Z"/>
      <path class="cls-4" d="m57.53,391.84h1.55s-.01-2.38-.01-2.38h1.2s.01,2.36.01,2.36h2.72c.23-.02.42-.04.58-.1.15-.05.28-.13.37-.23.09-.1.16-.22.19-.36.04-.14.06-.29.06-.47,0-.12,0-.25-.02-.38-.01-.13-.03-.26-.05-.38-.02-.12-.04-.23-.06-.33s-.04-.19-.06-.27l1.12-.16c.07.11.13.25.18.4.05.15.09.31.12.49.03.17.06.35.08.54s.03.37.03.55c0,.35-.04.66-.13.95-.09.28-.23.53-.42.73-.19.2-.44.36-.74.47-.3.11-.66.17-1.07.17l-2.88.02v1.45s-1.19,0-1.19,0v-1.45s-1.56,0-1.56,0v-1.63Z"/>
      <path class="cls-4" d="m65.38,383.62c-.08.04-.17.07-.27.1-.1.03-.21.05-.32.07.1.09.19.19.28.31.09.12.16.25.23.39.07.14.12.3.16.47.04.17.06.36.06.56,0,.32-.04.62-.14.89-.09.27-.22.51-.39.7-.17.2-.37.35-.6.46-.23.11-.48.17-.76.17-.67,0-1.19-.24-1.55-.74-.37-.5-.55-1.24-.56-2.23v-.91s-.38,0-.38,0c-.3,0-.55.1-.72.3-.18.2-.26.49-.26.86,0,.33.07.57.22.73.14.15.33.23.57.22v1.63c-.26,0-.52-.06-.76-.17-.24-.12-.46-.29-.64-.52s-.33-.51-.44-.83c-.11-.33-.17-.71-.17-1.13,0-.38.04-.74.13-1.07.09-.33.23-.62.41-.86.18-.24.41-.43.69-.57.28-.14.6-.21.97-.21h2.72c.34-.02.62-.04.84-.08.22-.04.41-.11.57-.19h.1v1.65Zm-1.12,1.56c0-.16-.02-.32-.06-.46-.04-.14-.09-.27-.15-.38-.06-.11-.14-.21-.22-.29-.08-.08-.16-.15-.24-.19h-1.09s0,.84,0,.84c0,.25.03.47.08.65.05.18.12.33.21.44.09.11.19.2.32.25.12.05.26.08.4.08.22,0,.4-.08.54-.23.14-.16.21-.39.21-.7Z"/>
      <path class="cls-4" d="m56.36,380.09l-.02-3.54,7.68-.04v-1.82s1.31,0,1.31,0l.03,5.36h-1.32s-.01-1.89-.01-1.89l-6.35.03v1.9s-1.32,0-1.32,0Z"/>
      <path class="cls-4" d="m62.15,360.29l.03,4.88h-1.32s-.03-4.87-.03-4.87h1.32Z"/>
      <path class="cls-4" d="m65.18,346.01v1.64s-5.48,2.4-5.48,2.4l5.5-.03v1.66s-8.52.05-8.52.05v-1.66s5.46-2.38,5.46-2.38l-5.48.02v-1.65s8.52-.05,8.52-.05Z"/>
      <path class="cls-4" d="m62.03,342.7l3.13-.02v1.65s-8.52.05-8.52.05l-.02-2.92c0-.46.06-.88.2-1.26s.32-.7.56-.96.53-.47.86-.61c.33-.14.71-.22,1.12-.22.38,0,.74.07,1.06.21.32.14.61.34.84.6.24.26.42.58.56.96s.2.79.21,1.26v1.27Zm-1.33,0v-1.27c0-.23-.04-.44-.12-.61-.07-.17-.17-.31-.29-.43-.12-.12-.26-.2-.42-.26-.16-.06-.32-.08-.5-.08-.2,0-.38.03-.56.09-.17.06-.32.14-.45.26-.13.12-.23.26-.3.43s-.11.38-.11.61v1.27s2.74-.01,2.74-.01Z"/>
      <path class="cls-4" d="m65.1,331.61v1.64s-5.48,2.4-5.48,2.4l5.5-.03v1.66s-8.52.05-8.52.05v-1.66s5.46-2.38,5.46-2.38l-5.48.02v-1.65s8.52-.05,8.52-.05Z"/>
      <path class="cls-4" d="m65.81,327.99v1.52s-9.27-3.14-9.27-3.14v-1.52s9.27,3.14,9.27,3.14Z"/>
      <path class="cls-4" d="m61.91,321.1l3.13-.02v1.65s-8.52.05-8.52.05l-.02-2.92c0-.46.06-.88.2-1.26s.32-.7.56-.96c.24-.26.53-.47.86-.61.33-.14.71-.22,1.12-.22.38,0,.74.07,1.06.21.32.14.61.34.84.6.24.26.42.58.56.96s.2.79.21,1.26v1.27Zm-1.33,0v-1.27c0-.23-.04-.44-.12-.61-.07-.17-.17-.31-.29-.43-.12-.12-.26-.2-.42-.26-.16-.06-.32-.08-.5-.08-.2,0-.38.03-.56.09-.17.06-.32.14-.45.26-.13.12-.23.26-.3.43s-.11.38-.11.61v1.27s2.74-.01,2.74-.01Z"/>
      <path class="cls-4" d="m64.98,310v1.64s-5.48,2.4-5.48,2.4l5.5-.03v1.66s-8.52.05-8.52.05v-1.66s5.46-2.38,5.46-2.38l-5.48.02v-1.65s8.52-.05,8.52-.05Z"/>
      <path class="cls-4" d="m61.83,306.69l3.13-.02v1.65s-8.52.05-8.52.05l-.02-2.92c0-.46.06-.88.2-1.26s.32-.7.56-.96c.24-.26.53-.47.86-.61.33-.14.71-.22,1.12-.22.38,0,.74.07,1.06.21.32.14.61.34.84.6.24.26.42.58.56.96s.2.79.21,1.26v1.27Zm-1.33,0v-1.27c0-.23-.04-.44-.12-.61-.07-.17-.17-.31-.29-.43-.12-.12-.26-.2-.42-.26-.16-.06-.32-.08-.5-.08-.2,0-.38.03-.56.09-.17.06-.32.14-.45.26-.13.12-.23.26-.3.43s-.11.38-.11.61v1.27s2.74-.01,2.74-.01Z"/>
      <path class="cls-4" d="m56.99,291.02h1.55s-.01-2.38-.01-2.38h1.2s.01,2.36.01,2.36h2.72c.23-.02.42-.04.58-.1s.28-.13.37-.23c.09-.1.16-.22.19-.36.04-.14.06-.29.06-.47,0-.12,0-.25-.02-.38-.01-.13-.03-.26-.05-.38s-.04-.23-.06-.33-.04-.19-.06-.27l1.12-.16c.07.11.12.25.17.4.05.15.09.31.12.49.03.17.06.35.08.54s.03.37.03.55c0,.35-.04.66-.13.95-.09.28-.23.53-.42.73s-.44.36-.74.47c-.3.11-.66.17-1.07.17l-2.88.02v1.45s-1.19,0-1.19,0v-1.45s-1.56,0-1.56,0v-1.63Z"/>
      <path class="cls-4" d="m58.37,282.25c0-.25.01-.47.05-.68s.07-.38.11-.51l1.62.23c-.05.21-.09.43-.11.66-.02.22-.04.44-.03.64,0,.46.09.82.27,1.1s.43.48.76.61l3.81-.02v1.63s-6.33.03-6.33.03v-1.52s1.03-.08,1.03-.08c-.36-.26-.64-.56-.85-.92s-.31-.75-.31-1.18Z"/>
      <path class="cls-4" d="m56.84,277.49c-.12,0-.24-.02-.35-.07-.11-.04-.2-.11-.28-.19-.08-.08-.14-.18-.18-.29-.04-.11-.07-.24-.07-.38,0-.29.08-.52.24-.69.16-.17.37-.26.62-.26s.46.08.63.25c.16.17.25.4.25.69,0,.14-.02.27-.06.38-.04.12-.1.21-.18.3-.08.08-.17.15-.27.19-.11.05-.22.07-.35.07Zm1.63,1.68l-.02-3.45,5.02-.03v-1.72s1.31,0,1.31,0l.03,5.17h-1.32s0-1.8,0-1.8l-3.69.02v1.8s-1.32,0-1.32,0Z"/>
      <path class="cls-4" d="m61.56,272.55c-.48,0-.92-.05-1.32-.17s-.74-.29-1.03-.51c-.29-.22-.51-.49-.67-.81-.16-.32-.24-.67-.24-1.07,0-.37.06-.69.18-.96.12-.27.3-.49.53-.68l-.6-.06v-1.48s6.13-.03,6.13-.03c.43,0,.81.07,1.15.21.34.14.62.35.85.61.23.26.41.58.53.95s.18.78.19,1.22c0,.19-.02.4-.06.62-.04.22-.1.44-.18.65-.08.22-.18.42-.31.61s-.28.36-.45.49l-.99-.73c.23-.21.41-.44.53-.71s.18-.55.18-.85c0-.46-.13-.81-.37-1.07-.25-.25-.59-.38-1.04-.38h-.36c.21.19.38.42.5.67s.18.55.18.89c0,.39-.08.75-.24,1.06-.16.32-.38.59-.67.81-.28.22-.62.4-1.01.52s-.82.18-1.28.19h-.12Zm.11-1.63c.27,0,.51-.03.74-.08s.43-.14.6-.25c.17-.11.3-.25.4-.42.1-.17.14-.37.14-.6,0-.29-.06-.52-.17-.71-.11-.18-.26-.33-.46-.44h-2.68c-.2.12-.35.27-.46.46-.11.19-.16.42-.16.7,0,.23.05.43.15.6.1.17.24.31.41.42s.38.19.61.25c.23.05.48.08.75.08h.12Z"/>
      <path class="cls-4" d="m61.52,265.35c-.48,0-.92-.05-1.32-.17s-.74-.29-1.03-.51c-.29-.22-.51-.49-.67-.81-.16-.32-.24-.67-.24-1.07,0-.37.06-.69.18-.96.12-.27.3-.49.53-.68l-.6-.06v-1.48s6.13-.03,6.13-.03c.43,0,.81.07,1.15.21.34.14.62.35.85.61.23.26.41.58.53.95s.18.78.19,1.22c0,.19-.02.4-.06.62-.04.22-.1.44-.18.65-.08.22-.18.42-.31.61-.13.19-.28.36-.45.49l-.99-.73c.23-.21.41-.44.53-.71s.18-.55.18-.85c0-.46-.13-.81-.37-1.07-.25-.25-.59-.38-1.04-.38h-.36c.21.19.38.42.5.67s.18.55.18.89c0,.39-.08.75-.24,1.06-.16.32-.38.59-.67.81-.28.22-.62.4-1.01.52s-.82.18-1.28.19h-.12Zm.11-1.63c.27,0,.51-.03.74-.08s.43-.14.6-.25c.17-.11.3-.25.4-.42.1-.17.14-.37.14-.6,0-.29-.06-.52-.17-.71-.11-.18-.26-.33-.46-.44h-2.68c-.2.12-.35.27-.46.46-.11.19-.16.42-.16.7,0,.23.05.43.15.6.1.17.24.31.41.42s.38.19.61.25c.23.05.48.08.75.08h.12Z"/>
      <path class="cls-4" d="m64.8,254.89c0,.49-.08.93-.23,1.33-.16.4-.37.74-.65,1.03-.27.29-.6.51-.97.66-.37.16-.77.24-1.2.24h-.23c-.48,0-.93-.07-1.33-.22-.4-.15-.75-.36-1.04-.63-.29-.27-.52-.6-.68-.97s-.24-.78-.25-1.22c0-.46.07-.87.22-1.22s.36-.66.63-.91c.27-.25.6-.44.98-.57.38-.13.81-.2,1.27-.2h.69s.02,4.3.02,4.3c.21-.03.41-.1.59-.19s.33-.22.46-.37c.13-.15.23-.32.3-.51s.1-.4.1-.63c0-.16-.02-.32-.05-.48-.03-.16-.08-.31-.14-.45-.06-.14-.14-.28-.23-.4-.09-.12-.2-.23-.32-.33l.87-.82c.15.1.29.23.43.39s.26.35.37.57c.11.22.2.46.26.73.07.27.1.56.1.87Zm-5.25.22c0,.18.03.35.1.5.07.15.16.29.28.4.12.12.27.21.44.29.17.08.36.13.56.17v-2.67h-.14c-.17,0-.33.04-.49.1s-.28.14-.39.25c-.11.11-.2.24-.26.4-.06.16-.09.34-.09.55Z"/>
      <path class="cls-4" d="m58.18,246.24c0-.25.01-.47.05-.68.03-.21.07-.38.11-.51l1.62.23c-.05.21-.09.43-.11.66-.02.22-.04.44-.03.64,0,.46.09.82.27,1.1s.43.48.76.61l3.81-.02v1.63s-6.33.03-6.33.03v-1.52s1.03-.08,1.03-.08c-.36-.26-.64-.56-.85-.92s-.31-.75-.31-1.18Z"/>
    </g>
    <g>
      <path class="cls-4" d="m205.24,457.96l-8.53.05v-2.21c-.02-.57.08-1.08.27-1.54s.46-.85.8-1.18c.34-.33.76-.58,1.23-.76.48-.18,1.01-.27,1.58-.27h.7c.57,0,1.1.08,1.58.25s.89.42,1.24.74c.35.32.62.7.81,1.15s.29.94.29,1.49v2.29Zm-7.19-1.62l5.87-.03v-.63c0-.31-.06-.58-.18-.83-.12-.24-.29-.45-.51-.62-.22-.17-.49-.3-.81-.39-.32-.09-.68-.13-1.09-.13h-.71c-.38,0-.73.05-1.04.14s-.58.22-.81.4c-.23.18-.4.39-.52.65s-.18.55-.18.89v.55Z"/>
      <path class="cls-4" d="m197.22,448.59c-.12,0-.24-.02-.35-.07-.11-.04-.2-.11-.28-.19s-.14-.18-.18-.29c-.04-.12-.07-.24-.07-.38,0-.29.08-.52.24-.69s.37-.26.62-.26c.25,0,.46.08.63.25s.25.4.25.69c0,.14-.02.27-.06.38s-.1.21-.18.3-.17.15-.27.19c-.11.05-.22.07-.35.07Zm1.63,1.68l-.02-3.45,5.02-.03v-1.72s1.31,0,1.31,0l.03,5.17h-1.32s0-1.8,0-1.8l-3.69.02v1.8s-1.32,0-1.32,0Z"/>
      <path class="cls-4" d="m201.94,443.65c-.48,0-.92-.05-1.32-.17-.4-.12-.74-.29-1.03-.51-.29-.22-.51-.49-.67-.8-.16-.32-.24-.67-.24-1.07,0-.37.06-.69.18-.96.12-.27.3-.49.53-.68l-.6-.06v-1.48s6.13-.03,6.13-.03c.43,0,.81.07,1.15.21s.62.35.85.61.41.58.53.95c.12.37.18.78.19,1.22,0,.19-.02.4-.06.62-.04.22-.1.44-.18.65-.08.22-.18.42-.31.61s-.28.36-.45.49l-.99-.73c.23-.21.41-.44.53-.71s.18-.55.18-.85c0-.46-.13-.81-.37-1.07s-.59-.38-1.04-.38h-.36c.21.19.38.42.5.67s.18.55.18.89c0,.39-.08.75-.24,1.07-.16.31-.38.58-.67.81-.28.22-.62.4-1.01.52-.39.12-.82.18-1.28.19h-.12Zm.11-1.63c.27,0,.51-.03.74-.08.23-.05.43-.14.6-.25.17-.11.3-.25.4-.42.1-.17.14-.37.14-.6,0-.29-.06-.52-.17-.71-.11-.18-.26-.33-.46-.44h-2.68c-.2.12-.35.27-.46.46-.11.19-.16.42-.16.7,0,.23.05.43.15.6.1.17.24.31.41.42.17.11.38.19.61.25.23.05.48.08.75.08h.12Z"/>
      <path class="cls-4" d="m197.14,434.19c-.12,0-.24-.02-.35-.07-.11-.04-.2-.11-.28-.19-.08-.08-.14-.18-.18-.29-.04-.11-.07-.24-.07-.38,0-.29.08-.52.24-.69.16-.17.37-.26.62-.26s.46.08.63.25c.16.17.25.4.25.69,0,.14-.02.27-.06.38-.04.12-.1.21-.18.3-.08.08-.17.15-.27.19-.11.05-.22.07-.35.07Zm1.63,1.68l-.02-3.45,5.02-.03v-1.72s1.31,0,1.31,0l.03,5.17h-1.32s0-1.8,0-1.8l-3.69.02v1.8s-1.32,0-1.32,0Z"/>
      <path class="cls-4" d="m197.17,426.12h1.55s-.01-2.38-.01-2.38h1.2s.01,2.36.01,2.36h2.72c.23-.02.42-.04.58-.1.15-.05.28-.13.37-.23.09-.1.16-.22.19-.36.04-.14.06-.29.06-.47,0-.12,0-.25-.02-.38-.01-.13-.03-.26-.05-.38-.02-.12-.04-.23-.06-.33s-.04-.19-.06-.27l1.12-.16c.07.11.13.25.18.4.05.15.09.31.12.49.03.17.06.35.08.54s.03.37.03.55c0,.35-.04.66-.13.95-.09.28-.23.53-.42.73-.19.2-.44.36-.74.47-.3.11-.66.17-1.07.17l-2.88.02v1.45s-1.19,0-1.19,0v-1.45s-1.56,0-1.56,0v-1.63Z"/>
      <path class="cls-4" d="m205.02,417.9c-.08.04-.17.07-.27.1-.1.03-.21.05-.32.07.1.09.19.19.28.31.09.12.16.25.23.39.07.14.12.3.16.47.04.17.06.36.06.56,0,.32-.04.62-.14.89-.09.27-.22.51-.39.7-.17.2-.37.35-.6.46-.23.11-.48.17-.76.17-.67,0-1.19-.24-1.55-.74-.37-.5-.55-1.24-.56-2.23v-.91s-.38,0-.38,0c-.3,0-.55.1-.72.3-.18.2-.26.49-.26.86,0,.33.07.57.22.73.14.15.33.23.57.22v1.63c-.26,0-.52-.06-.76-.17-.24-.12-.46-.29-.64-.52s-.33-.51-.44-.83c-.11-.33-.17-.71-.17-1.13,0-.38.04-.74.13-1.07.09-.33.23-.62.41-.86.18-.24.41-.43.69-.57.28-.14.6-.21.97-.21h2.72c.34-.02.62-.04.84-.08.22-.04.41-.11.57-.19h.1v1.65Zm-1.12,1.56c0-.16-.02-.32-.06-.46-.04-.14-.09-.27-.15-.38-.06-.11-.14-.21-.22-.29-.08-.08-.16-.15-.24-.19h-1.09s0,.84,0,.84c0,.25.03.47.08.65.05.18.12.33.21.44.09.11.19.2.32.25.12.05.26.08.4.08.22,0,.4-.08.54-.23.14-.16.21-.39.21-.7Z"/>
      <path class="cls-4" d="m196,414.37l-.02-3.54,7.68-.04v-1.82s1.31,0,1.31,0l.03,5.36h-1.32s-.01-1.89-.01-1.89l-6.35.03v1.9s-1.32,0-1.32,0Z"/>
      <path class="cls-4" d="m201.79,394.57l.03,4.88h-1.32s-.03-4.87-.03-4.87h1.32Z"/>
      <path class="cls-4" d="m204.81,380.29v1.64s-5.48,2.4-5.48,2.4l5.5-.03v1.66s-8.52.05-8.52.05v-1.66s5.46-2.38,5.46-2.38l-5.48.02v-1.65s8.52-.05,8.52-.05Z"/>
      <path class="cls-4" d="m201.67,376.98l3.13-.02v1.65s-8.52.05-8.52.05l-.02-2.92c0-.46.06-.88.2-1.26s.32-.7.56-.96.53-.47.86-.61c.33-.14.71-.22,1.12-.22.38,0,.74.07,1.06.21.32.14.61.34.84.6.24.26.42.58.56.96s.2.79.21,1.26v1.27Zm-1.33,0v-1.27c0-.23-.04-.44-.12-.61-.07-.17-.17-.31-.29-.43-.12-.12-.26-.2-.42-.26-.16-.06-.32-.08-.5-.08-.2,0-.38.03-.56.09-.17.06-.32.14-.45.26-.13.12-.23.26-.3.43s-.11.38-.11.61v1.27s2.74-.01,2.74-.01Z"/>
      <path class="cls-4" d="m204.74,365.89v1.64s-5.48,2.4-5.48,2.4l5.5-.03v1.66s-8.52.05-8.52.05v-1.66s5.46-2.38,5.46-2.38l-5.48.02v-1.65s8.52-.05,8.52-.05Z"/>
      <path class="cls-4" d="m205.45,362.27v1.52s-9.27-3.14-9.27-3.14v-1.52s9.27,3.14,9.27,3.14Z"/>
      <path class="cls-4" d="m201.55,355.38l3.13-.02v1.65s-8.52.05-8.52.05l-.02-2.92c0-.46.06-.88.2-1.26s.32-.7.56-.96c.24-.26.53-.47.86-.61.33-.14.71-.22,1.12-.22.38,0,.74.07,1.06.21.32.14.61.34.84.6.24.26.42.58.56.96s.2.79.21,1.26v1.27Zm-1.33,0v-1.27c0-.23-.04-.44-.12-.61-.07-.17-.17-.31-.29-.43-.12-.12-.26-.2-.42-.26-.16-.06-.32-.08-.5-.08-.2,0-.38.03-.56.09-.17.06-.32.14-.45.26-.13.12-.23.26-.3.43s-.11.38-.11.61v1.27s2.74-.01,2.74-.01Z"/>
      <path class="cls-4" d="m204.62,344.29v1.64s-5.48,2.4-5.48,2.4l5.5-.03v1.66s-8.52.05-8.52.05v-1.66s5.46-2.38,5.46-2.38l-5.48.02v-1.65s8.52-.05,8.52-.05Z"/>
      <path class="cls-4" d="m201.47,340.97l3.13-.02v1.65s-8.52.05-8.52.05l-.02-2.92c0-.46.06-.88.2-1.26s.32-.7.56-.96c.24-.26.53-.47.86-.61.33-.14.71-.22,1.12-.22.38,0,.74.07,1.06.21.32.14.61.34.84.6.24.26.42.58.56.96s.2.79.21,1.26v1.27Zm-1.33,0v-1.27c0-.23-.04-.44-.12-.61-.07-.17-.17-.31-.29-.43-.12-.12-.26-.2-.42-.26-.16-.06-.32-.08-.5-.08-.2,0-.38.03-.56.09-.17.06-.32.14-.45.26-.13.12-.23.26-.3.43s-.11.38-.11.61v1.27s2.74-.01,2.74-.01Z"/>
      <path class="cls-4" d="m203.33,325.45c0-.16-.03-.31-.07-.46-.05-.14-.11-.27-.2-.38-.09-.11-.19-.19-.31-.25-.12-.06-.26-.09-.4-.08v-1.54c.32,0,.62.06.91.2.28.14.53.33.73.58.2.25.37.53.48.86.12.33.18.67.18,1.03,0,.49-.08.92-.24,1.3s-.39.68-.68.93c-.29.25-.63.44-1.01.57-.39.13-.8.19-1.25.2h-.18c-.45,0-.86-.06-1.25-.18-.39-.12-.73-.31-1.02-.56-.29-.25-.52-.56-.69-.92-.17-.37-.26-.8-.26-1.28,0-.39.05-.75.17-1.08.12-.33.28-.62.49-.86.21-.24.47-.43.77-.56.3-.13.64-.2,1.02-.19v1.54c-.15,0-.3.02-.44.07-.14.06-.26.14-.36.24-.1.11-.18.23-.24.38-.06.15-.09.31-.09.49,0,.26.06.47.16.64.11.17.25.3.42.4.18.1.38.17.6.21.23.04.46.06.7.06h.18c.25,0,.48-.02.71-.06s.43-.11.6-.21c.17-.1.31-.24.42-.41.1-.17.16-.39.15-.65Z"/>
      <path class="cls-4" d="m201.27,321.29c-.46,0-.89-.06-1.28-.19-.39-.13-.73-.32-1.02-.58-.29-.25-.52-.57-.68-.93-.17-.37-.25-.79-.25-1.27,0-.48.08-.9.24-1.27s.39-.69.67-.94c.29-.26.63-.45,1.02-.59.39-.13.82-.2,1.28-.21h.12c.46,0,.89.06,1.29.19.39.13.74.32,1.03.57.29.25.52.56.68.93.16.37.25.79.25,1.26,0,.48-.08.9-.24,1.28-.16.37-.38.69-.67.95-.29.26-.63.45-1.02.59-.39.13-.82.2-1.28.21h-.12Zm.11-1.63c.27,0,.51-.03.75-.08.23-.05.43-.13.61-.24s.31-.25.41-.43c.1-.17.15-.38.15-.63,0-.24-.05-.44-.16-.61-.1-.17-.24-.31-.42-.42s-.38-.18-.61-.23c-.23-.05-.48-.07-.75-.07h-.12c-.26,0-.5.03-.73.08-.23.05-.43.13-.61.24s-.31.25-.41.42c-.1.17-.15.38-.15.63,0,.24.05.45.16.62.1.17.24.31.42.42s.38.19.61.24c.23.05.48.07.73.07h.12Z"/>
      <path class="cls-4" d="m203.54,309.81c.32.21.57.47.75.77s.27.63.27.99c0,.33-.05.63-.15.9-.1.27-.26.51-.48.71-.22.2-.5.35-.84.46s-.75.17-1.23.17l-3.75.02v-1.63s3.75-.02,3.75-.02c.26,0,.47-.02.65-.06.18-.04.32-.1.42-.18s.18-.19.23-.32c.05-.13.07-.3.07-.49,0-.32-.06-.59-.19-.79-.12-.2-.29-.36-.51-.46l-4.45.02v-1.63s6.33-.03,6.33-.03v1.48s-.88.1-.88.1Z"/>
      <path class="cls-4" d="m198.07,305.2l.88-.1c-.32-.22-.56-.5-.74-.82-.18-.32-.26-.68-.27-1.08,0-.32.04-.61.14-.88.09-.27.24-.5.44-.69s.47-.35.79-.46c.32-.11.71-.17,1.17-.17l3.9-.02v1.63s-3.87.02-3.87.02c-.25,0-.46.03-.62.09-.16.06-.29.14-.38.25-.09.11-.16.23-.19.38-.04.15-.05.32-.05.5,0,.28.06.51.17.71.11.2.27.35.46.47l4.51-.02v1.63s-6.33.03-6.33.03v-1.48Z"/>
      <path class="cls-4" d="m196.47,296.5h1.55s-.01-2.38-.01-2.38h1.2s.01,2.36.01,2.36h2.72c.23-.02.42-.04.58-.1.15-.05.28-.13.37-.23.09-.1.16-.22.19-.36.04-.14.06-.29.06-.47,0-.12,0-.25-.02-.38-.01-.13-.03-.26-.05-.38s-.04-.23-.06-.33c-.02-.1-.04-.19-.06-.27l1.12-.16c.07.11.12.25.17.4.05.15.09.31.12.49.03.17.06.35.08.54.02.19.03.37.03.55,0,.35-.04.66-.13.95-.09.28-.23.53-.42.73s-.44.36-.74.47c-.3.11-.66.17-1.07.17l-2.88.02v1.45s-1.19,0-1.19,0v-1.45s-1.56,0-1.56,0v-1.63Z"/>
      <path class="cls-4" d="m204.44,289.17c0,.49-.08.93-.23,1.33-.16.4-.37.74-.65,1.03-.27.29-.6.51-.97.66-.37.16-.77.24-1.2.24h-.23c-.48,0-.93-.07-1.33-.22-.4-.15-.75-.36-1.04-.63-.29-.27-.52-.6-.68-.97s-.24-.78-.25-1.22c0-.46.07-.87.22-1.22s.36-.66.63-.91c.27-.25.6-.44.98-.57.38-.13.81-.2,1.27-.2h.69s.02,4.3.02,4.3c.21-.03.41-.1.59-.19s.33-.22.46-.37c.13-.15.23-.32.3-.51s.1-.4.1-.63c0-.16-.02-.32-.05-.48-.03-.16-.08-.31-.14-.45-.06-.14-.14-.28-.23-.4-.09-.12-.2-.23-.32-.33l.87-.82c.15.1.29.23.43.39s.26.35.37.57c.11.22.2.46.26.73.07.27.1.56.1.87Zm-5.25.22c0,.18.03.35.1.5.07.15.16.29.28.4.12.12.27.21.44.29.17.08.36.13.56.17v-2.67h-.14c-.17,0-.33.04-.49.1s-.28.14-.39.25c-.11.11-.2.24-.26.4-.06.16-.09.34-.09.55Z"/>
      <path class="cls-4" d="m197.82,280.53c0-.25.01-.47.05-.68.03-.21.07-.38.11-.51l1.62.23c-.05.21-.09.43-.11.66-.02.22-.04.44-.03.64,0,.46.09.82.27,1.1s.43.48.76.61l3.81-.02v1.63s-6.33.03-6.33.03v-1.52s1.03-.08,1.03-.08c-.36-.26-.64-.56-.85-.92s-.31-.75-.31-1.18Z"/>
    </g>
  </g>
</svg>