<?xml version="1.0" encoding="UTF-8"?>
<svg id="Layer_2" data-name="Layer 2" xmlns="http://www.w3.org/2000/svg" xmlns:xlink="http://www.w3.org/1999/xlink" viewBox="0 0 138.88 453.6">
  <defs>
    <style>
      .cls-1 {
        fill: url(#linear-gradient);
      }

      .cls-2 {
        fill: #fff;
      }

      .cls-3 {
        fill: #e26558;
      }

      .cls-4 {
        fill: #1a1a1a;
      }

      .cls-5 {
        fill: url(#linear-gradient-8);
      }

      .cls-6 {
        fill: url(#linear-gradient-9);
      }

      .cls-7 {
        fill: url(#linear-gradient-3);
      }

      .cls-8 {
        fill: url(#linear-gradient-4);
      }

      .cls-9 {
        fill: url(#linear-gradient-2);
      }

      .cls-10 {
        fill: url(#linear-gradient-6);
      }

      .cls-11 {
        fill: url(#linear-gradient-7);
      }

      .cls-12 {
        fill: url(#linear-gradient-5);
      }

      .cls-13 {
        fill: url(#linear-gradient-14);
      }

      .cls-14 {
        fill: url(#linear-gradient-18);
      }

      .cls-15 {
        fill: url(#linear-gradient-20);
      }

      .cls-16 {
        fill: url(#linear-gradient-15);
      }

      .cls-17 {
        fill: url(#linear-gradient-19);
      }

      .cls-18 {
        fill: url(#linear-gradient-16);
      }

      .cls-19 {
        fill: url(#linear-gradient-17);
      }

      .cls-20 {
        fill: url(#linear-gradient-13);
      }

      .cls-21 {
        fill: url(#linear-gradient-12);
      }

      .cls-22 {
        fill: url(#linear-gradient-10);
      }

      .cls-23 {
        fill: url(#linear-gradient-11);
      }
    </style>
    <linearGradient id="linear-gradient" x1="11.49" y1="318.97" x2="100.92" y2="318.97" gradientTransform="translate(131.42 453.57) rotate(179.69)" gradientUnits="userSpaceOnUse">
      <stop offset="0" stop-color="#d4d4d4"/>
      <stop offset="1" stop-color="#fff"/>
    </linearGradient>
    <linearGradient id="linear-gradient-2" x1="-6731.93" y1="-640.07" x2="-6642.48" y2="-640.07" gradientTransform="translate(6764.79 -333.99) rotate(.31) scale(1 -1)" gradientUnits="userSpaceOnUse">
      <stop offset="0" stop-color="#e6e6e6"/>
      <stop offset="1" stop-color="#999"/>
    </linearGradient>
    <linearGradient id="linear-gradient-3" x1="-6701.22" y1="-704.21" x2="-6673.14" y2="-704.21" gradientTransform="translate(6757.85 -406.5) rotate(-.31) scale(1 -1)" gradientUnits="userSpaceOnUse">
      <stop offset="0" stop-color="#e26558"/>
      <stop offset="1" stop-color="#a8190a"/>
    </linearGradient>
    <linearGradient id="linear-gradient-4" x1="-6684.43" y1="-708.2" x2="-6623.35" y2="-708.2" xlink:href="#linear-gradient-3"/>
    <linearGradient id="linear-gradient-5" x1="-6761.75" y1="-672.89" x2="-6689.9" y2="-672.89" xlink:href="#linear-gradient-3"/>
    <linearGradient id="linear-gradient-6" x1="-6651.47" y1="-789.49" x2="-6623.35" y2="-789.49" gradientTransform="translate(6766.41 -334.53) rotate(.31) scale(1 -1)" gradientUnits="userSpaceOnUse">
      <stop offset="0" stop-color="#f0b0a9"/>
      <stop offset="1" stop-color="#a8190a"/>
    </linearGradient>
    <linearGradient id="linear-gradient-7" x1="-6643.38" y1="-791.33" x2="-6631.44" y2="-791.33" gradientTransform="translate(6757.85 -406.5) rotate(-.31) scale(1 -1)" xlink:href="#linear-gradient-2"/>
    <linearGradient id="linear-gradient-8" x1="-6643.38" y1="-791.38" x2="-6631.44" y2="-791.38" gradientTransform="translate(6757.85 -406.5) rotate(-.31) scale(1 -1)" xlink:href="#linear-gradient-2"/>
    <linearGradient id="linear-gradient-9" x1="-6643.38" y1="-791.36" x2="-6631.44" y2="-791.36" gradientTransform="translate(6757.85 -406.5) rotate(-.31) scale(1 -1)" xlink:href="#linear-gradient-2"/>
    <linearGradient id="linear-gradient-10" x1="-6643.36" y1="-804.29" x2="-6631.46" y2="-804.29" gradientTransform="translate(6757.85 -406.5) rotate(-.31) scale(1 -1)" gradientUnits="userSpaceOnUse">
      <stop offset="0" stop-color="#fff"/>
      <stop offset="1" stop-color="#d4d4d4"/>
    </linearGradient>
    <linearGradient id="linear-gradient-11" x1="-6701.24" y1="-763.54" x2="-6673.12" y2="-763.54" gradientTransform="translate(6766.13 -333.99) rotate(.31) scale(1 -1)" xlink:href="#linear-gradient-6"/>
    <linearGradient id="linear-gradient-12" x1="-6693.15" y1="-765.38" x2="-6681.21" y2="-765.38" gradientTransform="translate(6757.85 -406.5) rotate(-.31) scale(1 -1)" xlink:href="#linear-gradient-2"/>
    <linearGradient id="linear-gradient-13" x1="-6693.15" y1="-765.43" x2="-6681.21" y2="-765.43" gradientTransform="translate(6757.85 -406.5) rotate(-.31) scale(1 -1)" xlink:href="#linear-gradient-2"/>
    <linearGradient id="linear-gradient-14" x1="-6693.15" y1="-765.41" x2="-6681.21" y2="-765.41" gradientTransform="translate(6757.85 -406.5) rotate(-.31) scale(1 -1)" xlink:href="#linear-gradient-2"/>
    <linearGradient id="linear-gradient-15" x1="-6693.13" y1="-778.34" x2="-6681.23" y2="-778.34" xlink:href="#linear-gradient-10"/>
    <linearGradient id="linear-gradient-16" x1="-6761.75" y1="-718.85" x2="-6733.63" y2="-718.85" gradientTransform="translate(6765.65 -333.33) rotate(.31) scale(1 -1)" xlink:href="#linear-gradient-6"/>
    <linearGradient id="linear-gradient-17" x1="-6753.66" y1="-720.7" x2="-6741.72" y2="-720.7" gradientTransform="translate(6757.85 -406.5) rotate(-.31) scale(1 -1)" xlink:href="#linear-gradient-2"/>
    <linearGradient id="linear-gradient-18" x1="-6753.66" y1="-720.74" x2="-6741.72" y2="-720.74" gradientTransform="translate(6757.85 -406.5) rotate(-.31) scale(1 -1)" xlink:href="#linear-gradient-2"/>
    <linearGradient id="linear-gradient-19" x1="-6753.66" y1="-720.72" x2="-6741.72" y2="-720.72" gradientTransform="translate(6757.85 -406.5) rotate(-.31) scale(1 -1)" xlink:href="#linear-gradient-2"/>
    <linearGradient id="linear-gradient-20" x1="-6753.64" y1="-733.66" x2="-6741.74" y2="-733.66" xlink:href="#linear-gradient-10"/>
  </defs>
  <g id="Layer_1-2" data-name="Layer 1">
    <g>
      <path class="cls-1" d="m28.29,27.95l1.31,242.11,89.21-.48-1.31-242.34c.83-7.18-3.49-14.48-12.99-19.9-17.47-9.96-45.78-9.75-63.25.46-9.53,5.57-13.85,12.97-12.98,20.16Z"/>
      <ellipse class="cls-9" cx="74.21" cy="269.82" rx="44.73" ry="25.82" transform="translate(-2.92 .82) rotate(-.62)"/>
      <path class="cls-7" d="m88.33,282.44l.6,111.39-28.04.15-.6-111.28c-.22-2.23,1.13-4.51,4.08-6.24,5.49-3.21,14.39-3.27,19.88-.14,2.93,1.67,4.28,3.91,4.08,6.12Z"/>
      <g>
        <path class="cls-3" d="m105.01,265v-.89c.03.3.03.59,0,.89Z"/>
        <path class="cls-3" d="m76.96,264.38v.88c-.02-.29-.03-.59,0-.88Z"/>
        <path class="cls-8" d="m110.83,419.04l-.14-26.39c-.03-5.48-4.78-13.55-9.59-16.29-13.45-7.67-23.66-25.08-23.75-40.5l-.38-70.59v-.88c.17-1.94,1.52-3.86,4.08-5.36,5.49-3.21,14.39-3.27,19.88-.14,2.54,1.45,3.89,3.32,4.08,5.24v.89s.39,70.7.39,70.7c.03,5.48,4.78,13.55,9.59,16.29,13.45,7.67,23.66,25.08,23.75,40.5l.14,26.39-28.04.15Z"/>
      </g>
      <path class="cls-12" d="m71.4,265.68l.13,24.1c.1,18.88-15.18,34.33-34.06,34.43l-3.26.02c-3.42.02-6.19,2.82-6.17,6.23l.1,18.41-28.04.15L0,330.61c-.1-18.88,15.18-34.33,34.06-34.43l3.26-.02c3.42-.02,6.18-2.81,6.17-6.23l-.13-24.75h.04c-.09-2.14,1.27-4.32,4.1-5.97,5.49-3.21,14.39-3.27,19.88-.14,3.15,1.79,4.48,4.25,4.02,6.62Z"/>
      <ellipse class="cls-10" cx="124.82" cy="418.96" rx="14.06" ry="8.12" transform="translate(-4.54 1.38) rotate(-.62)"/>
      <g>
        <g>
          <path class="cls-11" d="m130.78,421.02v-.48c.02.16.02.32,0,.48Z"/>
          <path class="cls-5" d="m118.88,420.65v.46c-.02-.15-.02-.31,0-.46Z"/>
          <path class="cls-6" d="m120.61,418.42c2.33-1.36,6.11-1.39,8.44-.06,1.05.6,1.63,1.38,1.73,2.17v.48c-.09.8-.67,1.6-1.73,2.22-2.33,1.36-6.11,1.39-8.44.06-1.06-.6-1.64-1.38-1.73-2.18v-.46c.09-.81.66-1.6,1.73-2.23Z"/>
          <path class="cls-22" d="m119.04,450.19l-.16-29.07v-.46c.09-.81.66-1.6,1.73-2.23,2.33-1.36,6.11-1.39,8.44-.06,1.05.6,1.63,1.38,1.73,2.17v.48s.16,29.1.16,29.1l-11.9.06Z"/>
        </g>
        <ellipse class="cls-2" cx="124.99" cy="450.15" rx="5.97" ry="3.45" transform="translate(-4.87 1.38) rotate(-.62)"/>
      </g>
      <ellipse class="cls-23" cx="74.91" cy="393.28" rx="14.06" ry="8.12" transform="translate(-4.26 .84) rotate(-.62)"/>
      <g>
        <g>
          <path class="cls-21" d="m80.87,395.34v-.48c.02.16.02.32,0,.48Z"/>
          <path class="cls-20" d="m68.97,394.97v.46c-.02-.15-.02-.31,0-.46Z"/>
          <path class="cls-13" d="m70.7,392.74c2.33-1.36,6.11-1.39,8.44-.06,1.05.6,1.63,1.38,1.73,2.17v.48c-.09.8-.67,1.6-1.73,2.22-2.33,1.36-6.11,1.39-8.44.06-1.06-.6-1.64-1.38-1.73-2.18v-.46c.09-.81.66-1.6,1.73-2.23Z"/>
          <path class="cls-16" d="m69.13,424.51l-.16-29.07v-.46c.09-.81.66-1.6,1.73-2.23,2.33-1.36,6.11-1.39,8.44-.06,1.05.6,1.63,1.38,1.73,2.17v.48s.16,29.1.16,29.1l-11.9.06Z"/>
        </g>
        <ellipse class="cls-2" cx="75.08" cy="424.47" rx="5.97" ry="3.45" transform="translate(-4.6 .84) rotate(-.62)"/>
      </g>
      <ellipse class="cls-18" cx="14.16" cy="348.93" rx="14.06" ry="8.12" transform="translate(-3.78 .17) rotate(-.62)"/>
      <g>
        <g>
          <path class="cls-19" d="m20.12,350.99v-.48c.02.16.02.32,0,.48Z"/>
          <path class="cls-14" d="m8.22,350.62v.46c-.02-.15-.02-.31,0-.46Z"/>
          <path class="cls-17" d="m9.95,348.39c2.33-1.36,6.11-1.39,8.44-.06,1.05.6,1.63,1.38,1.73,2.17v.48c-.09.8-.67,1.6-1.73,2.22-2.33,1.36-6.11,1.39-8.44.06-1.06-.6-1.64-1.38-1.73-2.18v-.46c.09-.81.66-1.6,1.73-2.23Z"/>
          <path class="cls-15" d="m8.38,380.15l-.16-29.07v-.46c.09-.81.66-1.6,1.73-2.23,2.33-1.36,6.11-1.39,8.44-.06,1.05.6,1.63,1.38,1.73,2.17v.48s.16,29.1.16,29.1l-11.9.06Z"/>
        </g>
        <ellipse class="cls-2" cx="14.33" cy="380.12" rx="5.97" ry="3.45" transform="translate(-4.12 .18) rotate(-.62)"/>
      </g>
    </g>
    <g>
      <path class="cls-4" d="m74.04,180.52c.55,0,1.04.06,1.46.18.42.12.77.31,1.06.54.28.24.5.53.65.87.15.34.22.73.22,1.16,0,.43-.07.81-.21,1.16-.14.34-.35.64-.64.88-.28.24-.63.43-1.05.56-.42.13-.9.2-1.46.2h-2.04c-.55.01-1.04-.05-1.46-.17-.42-.13-.77-.31-1.06-.55s-.5-.53-.65-.87c-.15-.34-.22-.72-.22-1.15,0-.43.07-.82.21-1.16.14-.34.36-.64.64-.88.28-.24.63-.43,1.05-.56.42-.13.9-.2,1.46-.2h2.04Zm-.68,3.91l-1.71-2.26c-.57.02-1,.12-1.28.31s-.41.47-.41.85c0,.38.15.66.44.85s.75.28,1.36.27h1.59Zm-.6-2.28l1.7,2.26c.56-.02.98-.13,1.25-.32s.4-.47.4-.83c0-.38-.15-.67-.45-.85-.3-.18-.75-.27-1.37-.27h-1.54Z"/>
      <path class="cls-4" d="m74.14,173.16l.03,4.88h-1.32s-.03-4.87-.03-4.87h1.32Z"/>
      <path class="cls-4" d="m77.2,166.07l.03,5.82h-1.11s-2.98-2.74-2.98-2.74c-.24-.21-.45-.39-.64-.54-.19-.15-.37-.27-.53-.36-.16-.09-.31-.16-.44-.2-.14-.04-.27-.06-.4-.06-.19,0-.36.03-.51.08-.15.06-.27.13-.38.23-.1.1-.18.22-.24.36-.05.14-.08.29-.08.46,0,.45.13.78.38,1,.25.22.6.33,1.05.33v1.63c-.37,0-.73-.07-1.07-.21-.34-.14-.64-.35-.89-.61-.26-.26-.46-.58-.61-.95s-.22-.78-.23-1.24c0-.43.06-.82.17-1.15.12-.33.29-.61.5-.84.22-.23.48-.4.79-.52.31-.12.64-.18,1.02-.18.28,0,.55.04.81.13s.51.21.76.37c.25.16.51.35.77.58s.54.48.82.75l1.71,1.6-.02-3.74h1.31Z"/>
      <path class="cls-4" d="m74,159.71v-.99s1.31,0,1.31,0v.99s1.86,0,1.86,0v1.63s-1.84,0-1.84,0l.02,3.54-1.02.07-5.68-3.56v-1.65s5.35-.03,5.35-.03Zm.02,3.64v-2.01s-3.18.02-3.18.02l.28.16,2.9,1.84Z"/>
      <path class="cls-4" d="m70.81,156.27l.77-.05c-.27-.12-.49-.29-.65-.5-.16-.21-.24-.47-.24-.77,0-.51.22-.85.67-1.01-.21-.12-.38-.28-.5-.47-.12-.19-.18-.43-.18-.7,0-.19.03-.37.1-.54s.18-.31.33-.44c.15-.12.35-.22.6-.29.24-.07.54-.11.89-.11l4.52-.02v1.48s-4.52.02-4.52.02c-.12,0-.22.01-.3.04-.08.03-.14.06-.18.1-.04.04-.08.09-.09.15-.02.06-.03.11-.03.17,0,.11.03.21.08.29.05.08.12.14.21.18l4.84-.03v1.44s-4.53.02-4.53.02c-.12,0-.22.01-.3.04-.08.02-.14.06-.18.1-.04.04-.07.09-.09.14s-.03.11-.03.18c0,.12.04.23.11.3.07.08.17.13.28.18l4.75-.03v1.48s-6.33.03-6.33.03v-1.4Z"/>
      <path class="cls-4" d="m75.31,145.92v2.56s1.8.49,1.8.49v1.73s-8.54-2.75-8.54-2.75v-1.49s8.51-2.79,8.51-2.79v1.73s-1.77.51-1.77.51Zm-1.39,2.16v-1.77s-3.15.89-3.15.89l3.15.88Z"/>
      <path class="cls-4" d="m77.02,131.69c-.08.04-.17.07-.27.1-.1.03-.21.05-.32.07.1.09.19.19.28.31.09.12.16.25.23.39.07.14.12.3.16.47s.06.36.06.56c0,.32-.04.62-.14.89-.09.27-.22.51-.39.7-.17.2-.37.35-.6.46-.23.11-.49.17-.76.17-.67,0-1.19-.24-1.55-.74-.37-.5-.55-1.24-.56-2.23v-.91s-.38,0-.38,0c-.3,0-.55.1-.72.3-.18.2-.26.49-.26.86,0,.33.07.57.22.73.14.15.33.23.57.23v1.63c-.26,0-.52-.06-.76-.17-.24-.12-.46-.29-.64-.52-.18-.23-.33-.51-.44-.84-.11-.33-.17-.71-.17-1.13,0-.38.04-.74.13-1.07.09-.33.23-.62.41-.86.18-.24.41-.43.69-.57.28-.14.6-.21.97-.21h2.72c.34-.02.62-.04.84-.08.22-.04.41-.11.57-.19h.1s0,1.65,0,1.65Zm-1.13,1.56c0-.16-.02-.32-.06-.46-.04-.14-.09-.27-.15-.38-.06-.11-.14-.21-.22-.29-.08-.08-.16-.15-.24-.19h-1.09s0,.84,0,.84c0,.25.03.47.08.65s.12.33.21.44c.09.11.19.2.32.25s.26.08.4.08c.22,0,.4-.08.54-.23s.21-.39.21-.7Z"/>
      <path class="cls-4" d="m70.65,127l.88-.1c-.32-.23-.56-.5-.74-.82s-.26-.68-.27-1.08c0-.32.04-.61.14-.88.09-.27.24-.5.44-.69s.47-.35.79-.46c.32-.11.71-.17,1.17-.17l3.9-.02v1.63s-3.87.02-3.87.02c-.25,0-.46.03-.62.09-.16.06-.29.14-.38.25-.09.11-.16.23-.19.38-.04.15-.05.32-.05.5,0,.28.06.51.17.71.11.19.27.35.46.47l4.51-.02v1.63s-6.33.03-6.33.03v-1.48Z"/>
      <path class="cls-4" d="m76.94,117.28c-.08.04-.17.07-.27.1-.1.03-.21.05-.32.07.1.09.19.19.28.31.09.12.16.25.23.39.07.14.12.3.16.47.04.17.06.36.06.56,0,.32-.04.62-.14.89-.09.27-.22.51-.39.7s-.37.35-.6.46c-.23.11-.49.17-.76.17-.67,0-1.19-.24-1.55-.74-.37-.5-.55-1.24-.56-2.23v-.91s-.38,0-.38,0c-.3,0-.55.1-.72.3-.18.2-.26.49-.26.86,0,.33.07.57.22.73.14.15.33.23.57.22v1.63c-.26,0-.52-.06-.76-.17-.24-.12-.46-.29-.64-.52-.18-.23-.33-.51-.44-.83-.11-.33-.17-.71-.17-1.13,0-.38.04-.74.13-1.07.09-.33.23-.62.41-.86.18-.24.41-.43.69-.57.28-.14.6-.21.97-.21h2.72c.34-.02.62-.04.84-.08.22-.04.41-.11.57-.19h.1v1.65Zm-1.12,1.56c0-.16-.02-.32-.06-.46-.04-.14-.09-.27-.15-.38-.06-.11-.14-.21-.22-.29-.08-.08-.16-.15-.24-.19h-1.09s0,.84,0,.84c0,.25.03.47.08.65.05.18.12.33.21.44.09.11.19.2.32.25.12.05.26.08.4.08.22,0,.4-.08.54-.23s.21-.39.21-.7Z"/>
      <path class="cls-4" d="m67.92,113.75l-.02-3.54,7.67-.04v-1.82s1.31,0,1.31,0l.03,5.36h-1.32s-.01-1.89-.01-1.89l-6.34.03v1.9s-1.32,0-1.32,0Z"/>
      <path class="cls-4" d="m73.66,107.08c-.46,0-.89-.06-1.28-.19s-.74-.32-1.03-.58c-.29-.25-.52-.57-.68-.93s-.25-.79-.25-1.27c0-.48.08-.9.24-1.27s.39-.69.67-.94c.29-.26.63-.45,1.02-.59s.82-.2,1.28-.21h.12c.46,0,.89.06,1.29.19s.74.32,1.03.57c.29.25.52.56.68.93.16.37.25.79.25,1.26,0,.48-.08.9-.24,1.28-.16.37-.38.69-.67.95-.29.26-.63.45-1.02.59s-.82.2-1.29.21h-.12Zm.11-1.63c.27,0,.51-.03.75-.08.23-.05.44-.13.61-.24.17-.11.31-.25.41-.43.1-.17.15-.38.15-.63,0-.24-.05-.44-.16-.61-.1-.17-.24-.31-.42-.42-.17-.11-.38-.18-.61-.23s-.48-.07-.75-.07h-.12c-.26,0-.5.03-.73.08-.23.05-.43.13-.61.24-.18.11-.31.25-.41.42-.1.17-.15.38-.15.63,0,.24.05.45.16.62.1.17.24.31.42.42.18.11.38.19.61.24.23.05.48.07.73.07h.12Z"/>
      <path class="cls-4" d="m73.63,99.82c-.48,0-.92-.05-1.32-.17-.4-.12-.74-.29-1.03-.51-.29-.22-.51-.49-.67-.81s-.24-.67-.24-1.07c0-.37.06-.69.18-.96.12-.27.3-.49.53-.68l-.6-.06v-1.48s6.13-.03,6.13-.03c.43,0,.81.07,1.15.21.34.15.62.35.85.61.23.26.41.58.53.95s.18.78.18,1.22c0,.19-.02.4-.05.62s-.1.44-.18.65c-.08.22-.18.42-.31.61s-.28.36-.45.49l-.99-.73c.23-.21.41-.44.53-.71.12-.26.18-.55.18-.85,0-.46-.13-.81-.37-1.07-.25-.25-.59-.38-1.04-.38h-.36c.21.19.38.42.5.67.12.25.18.55.18.89,0,.39-.08.75-.24,1.06-.16.32-.38.59-.67.81-.28.22-.62.4-1.01.52-.39.12-.82.18-1.28.19h-.12Zm.11-1.63c.27,0,.51-.03.74-.08s.43-.14.6-.25c.17-.11.3-.25.4-.42.1-.17.14-.37.14-.6,0-.29-.06-.52-.17-.71-.11-.18-.26-.33-.46-.44h-2.68c-.2.12-.35.27-.46.46-.11.19-.16.42-.16.7,0,.23.05.43.15.6.1.17.24.31.41.42.17.11.38.19.61.25.23.05.48.08.75.08h.12Z"/>
      <path class="cls-4" d="m68.79,83.16c-.12,0-.24-.02-.35-.07-.11-.04-.2-.11-.28-.19-.08-.08-.14-.18-.18-.29-.04-.11-.07-.24-.07-.38,0-.29.08-.52.24-.69.16-.17.37-.26.62-.26s.46.08.62.25c.16.17.25.4.25.69,0,.14-.02.27-.06.38-.04.12-.1.21-.18.3-.08.08-.17.15-.27.19s-.22.07-.35.07Zm1.63,1.68l-.02-3.45,5.01-.03v-1.72s1.32,0,1.32,0l.03,5.17h-1.32s0-1.8,0-1.8l-3.69.02v1.8s-1.32,0-1.32,0Z"/>
      <path class="cls-4" d="m70.38,76.6l.88-.1c-.32-.22-.56-.5-.74-.82s-.26-.68-.27-1.08c0-.32.04-.61.14-.88.09-.27.24-.5.44-.69s.47-.35.79-.46c.32-.11.71-.17,1.17-.17l3.9-.02v1.63s-3.87.02-3.87.02c-.25,0-.46.03-.62.09s-.29.14-.38.25c-.09.11-.16.23-.19.38s-.05.32-.05.5c0,.28.06.51.17.71.11.2.27.35.46.47l4.51-.02v1.63s-6.33.03-6.33.03v-1.48Z"/>
      <path class="cls-4" d="m73.55,65.16c.46,0,.89.05,1.28.15s.74.26,1.03.47c.29.21.51.46.68.77.17.31.25.66.25,1.06,0,.34-.06.64-.17.9-.12.26-.28.48-.49.68l2.99-.02v1.63s-8.77.05-8.77.05v-1.51s.61-.06.61-.06c-.24-.19-.42-.42-.55-.69-.13-.27-.2-.58-.2-.93,0-.4.07-.76.23-1.07.15-.31.37-.57.65-.78.28-.21.62-.37,1.02-.48s.83-.17,1.31-.17h.12Zm-.11,1.63c-.27,0-.51.03-.75.08-.23.05-.43.13-.6.23-.17.1-.3.24-.4.4-.1.16-.14.36-.14.59,0,.29.06.52.17.7.11.18.27.32.47.42h2.65c.2-.12.36-.26.47-.44.12-.18.18-.42.17-.71,0-.23-.05-.43-.16-.59-.1-.16-.24-.29-.42-.39-.18-.1-.38-.17-.61-.22-.23-.05-.48-.07-.74-.07h-.12Z"/>
      <path class="cls-4" d="m75.74,59.6c.32.21.57.47.75.77.18.3.27.63.27.99,0,.33-.05.63-.15.9-.1.27-.26.51-.48.71-.22.2-.5.35-.84.46-.34.11-.75.17-1.23.17l-3.75.02v-1.63s3.75-.02,3.75-.02c.26,0,.47-.02.65-.06s.32-.1.42-.18c.11-.08.18-.19.23-.32.05-.13.07-.3.07-.49,0-.32-.07-.59-.19-.79-.12-.2-.29-.36-.51-.46l-4.45.02v-1.63s6.33-.03,6.33-.03v1.48s-.88.1-.88.1Z"/>
      <path class="cls-4" d="m68.7,53.49h1.55s-.01-2.38-.01-2.38h1.2s.01,2.36.01,2.36h2.72c.23-.02.42-.04.58-.1.15-.05.28-.13.37-.23.09-.1.16-.22.19-.36.04-.14.06-.29.06-.47,0-.12,0-.25-.02-.38s-.03-.26-.05-.38c-.02-.12-.04-.23-.06-.33-.02-.1-.04-.19-.06-.27l1.12-.16c.07.11.12.25.17.4.05.15.09.31.12.49.03.17.06.35.08.54s.03.37.03.55c0,.35-.04.66-.13.95-.09.28-.23.53-.42.73s-.44.36-.74.47c-.3.11-.66.17-1.07.17l-2.88.02v1.45s-1.19,0-1.19,0v-1.45s-1.56,0-1.56,0v-1.63Z"/>
    </g>
  </g>
</svg>