<?xml version="1.0" encoding="utf-8"?>
<!-- Generator: Adobe Illustrator 27.1.1, SVG Export Plug-In . SVG Version: 6.00 Build 0)  -->
<svg version="1.1" id="Layer_2_00000080896470397753793690000014958728291502292914_"
	 xmlns="http://www.w3.org/2000/svg" xmlns:xlink="http://www.w3.org/1999/xlink" x="0px" y="0px" viewBox="0 0 669.8 493.9"
	 style="enable-background:new 0 0 669.8 493.9;" xml:space="preserve">
<style type="text/css">
	.st0{fill:url(#SVGID_1_);}
	.st1{fill:url(#SVGID_00000062913599705602472490000002497065152706338443_);}
	.st2{fill:#E26558;}
	.st3{fill:url(#SVGID_00000143613105365639801340000018127612716224881796_);}
	.st4{fill:url(#SVGID_00000064334357237931954170000011018594961112093115_);}
	.st5{fill:url(#SVGID_00000062150419374021963740000011376882908841983360_);}
	.st6{fill:url(#SVGID_00000007402238560432286940000005349618903179307426_);}
	.st7{fill:url(#SVGID_00000016066717043848359980000014315093101512724353_);}
	.st8{fill:url(#SVGID_00000083051321581902972640000006855108950355369371_);}
	.st9{fill:url(#SVGID_00000176725098612303437430000016126922851031304125_);}
	.st10{fill:#FFFFFF;}
	.st11{fill:url(#SVGID_00000015316266752368992100000003365509885742100633_);}
	.st12{fill:url(#SVGID_00000162321964415728075890000015400910599782511268_);}
	.st13{fill:url(#SVGID_00000093144786820638093230000006689673596331428493_);}
	.st14{fill:url(#SVGID_00000026849753367132223810000017491641058238440335_);}
	.st15{fill:url(#SVGID_00000070111153103054467510000018072754977090056320_);}
	.st16{fill:#1A1A1A;}
	.st17{fill:url(#SVGID_00000036236740563258697920000009349660297922804403_);}
	.st18{fill:url(#SVGID_00000056391014781120692390000001423375590886822842_);}
	.st19{fill:url(#SVGID_00000039830880790250167470000005818349811840976002_);}
	.st20{fill:url(#SVGID_00000047049945860604635680000005710893461662069417_);}
	.st21{fill:url(#SVGID_00000070840793175864010150000006751038738108080771_);}
	.st22{fill:url(#SVGID_00000054249933188847422850000011239612842537270662_);}
	.st23{fill:url(#SVGID_00000099622898697069675900000010446050781152967301_);}
	.st24{fill:url(#SVGID_00000072244734209099241030000003467620995164144551_);}
	.st25{fill:url(#SVGID_00000092438008285806924680000005342671005946449557_);}
	.st26{fill:url(#SVGID_00000000918783313198173110000001970160171241974954_);}
	.st27{fill:url(#SVGID_00000078027650612897723400000005477850960886175670_);}
	.st28{fill:url(#SVGID_00000162321814756439755370000000772543817093678003_);}
	.st29{fill:url(#SVGID_00000005979785462340918080000011206986258347190939_);}
	.st30{fill:url(#SVGID_00000169524103067084575220000008380367151814563494_);}
	.st31{fill:url(#SVGID_00000096748916309934212140000011699724712783887793_);}
	.st32{fill:url(#SVGID_00000070087805015642364080000000347299942222533565_);}
	.st33{fill:url(#SVGID_00000090296718830115314230000006755318126414294423_);}
	.st34{fill:url(#SVGID_00000010284256234558230850000001904007206959454884_);}
	.st35{fill:url(#SVGID_00000149346008968807948480000017420396004122846907_);}
	.st36{fill:url(#SVGID_00000136399552215960207290000014151599028057745575_);}
	.st37{fill:url(#SVGID_00000081647751129585634660000004068129696604634290_);}
	.st38{fill:url(#SVGID_00000013876448409287196520000012287223710368529332_);}
	.st39{fill:url(#SVGID_00000030473572913794720690000016517755572852803258_);}
	.st40{fill:url(#SVGID_00000114764228016946298400000000114653807396555914_);}
	.st41{fill:url(#SVGID_00000037688759119494023600000007061435398016694425_);}
	.st42{fill:url(#SVGID_00000134212225496860802140000010072736441884919692_);}
	.st43{fill:url(#SVGID_00000163780367887491653260000007996402503075467917_);}
	.st44{fill:url(#SVGID_00000094601197333677376820000013418574562783456136_);}
	.st45{fill:url(#SVGID_00000011728495329435300400000014088511568817109401_);}
	.st46{fill:url(#SVGID_00000039092111370851162700000012097270368420683164_);}
	.st47{fill:url(#SVGID_00000039815540917374870820000001421324139857032350_);}
	.st48{fill:url(#SVGID_00000071527838624942406550000017397697296524188544_);}
	.st49{fill:url(#SVGID_00000060736126184114036360000007039221165060570288_);}
	.st50{fill:url(#SVGID_00000058547358273562140960000010472334790550789031_);}
	.st51{fill:url(#SVGID_00000075128135582146552480000010152664678732563391_);}
	.st52{fill:url(#SVGID_00000108303291052198854820000018212819577575162807_);}
	.st53{fill:url(#SVGID_00000043414889498368772660000011500073827813135531_);}
	.st54{fill:url(#SVGID_00000147184707512802618800000004596719109536219059_);}
	.st55{fill:url(#SVGID_00000091726569727954968740000014257711009668166808_);}
	.st56{fill:url(#SVGID_00000027566879842585838080000010908235830086202042_);}
	.st57{fill:url(#SVGID_00000127021675246881826810000009744761558392879012_);}
	.st58{fill:url(#SVGID_00000132045900890496175040000006664960516826238608_);}
</style>
<g id="Layer_1-2">
	<g>
		<g>
			
				<linearGradient id="SVGID_1_" gradientUnits="userSpaceOnUse" x1="363.3334" y1="1858.2001" x2="452.7442" y2="1858.2001" gradientTransform="matrix(1 0 0 1 0 -1504)">
				<stop  offset="0" style="stop-color:#D4D4D4"/>
				<stop  offset="1" style="stop-color:#FFFFFF"/>
			</linearGradient>
			<path class="st0" d="M452.7,461.5V219.3h-89.2v242.4c-0.9,7.2,3.4,14.5,12.9,20c17.4,10,45.7,10,63.2-0.1
				C449.2,476,453.5,468.7,452.7,461.5L452.7,461.5z"/>
			
				<linearGradient id="SVGID_00000102538279951476185200000010940586699150603408_" gradientUnits="userSpaceOnUse" x1="-8337.1514" y1="899.2306" x2="-8247.6504" y2="899.2306" gradientTransform="matrix(-1 0 0 1 -7884.4004 -679.9243)">
				<stop  offset="0" style="stop-color:#E6E6E6"/>
				<stop  offset="1" style="stop-color:#999999"/>
			</linearGradient>
			<path style="fill:url(#SVGID_00000102538279951476185200000010940586699150603408_);" d="M407.9,193.5
				c24.7-0.1,44.8,11.3,44.9,25.6s-19.9,25.9-44.6,26.1c-24.7,0.1-44.8-11.3-44.9-25.6C363.3,205.3,383.2,193.7,407.9,193.5z"/>
			<g>
				<path class="st2" d="M377.2,220v0.9C377.2,220.6,377.2,220.3,377.2,220z"/>
				<path class="st2" d="M405.3,220.8v-0.9C405.3,220.2,405.3,220.5,405.3,220.8z"/>
				
					<linearGradient id="SVGID_00000120551550862883461270000016482931053751757717_" gradientUnits="userSpaceOnUse" x1="-8289.6406" y1="827.0262" x2="-8228.54" y2="827.0262" gradientTransform="matrix(-1 0 0 1 -7884.3901 -679.87)">
					<stop  offset="0" style="stop-color:#E26558"/>
					<stop  offset="1" style="stop-color:#A8190A"/>
				</linearGradient>
				<path style="fill:url(#SVGID_00000120551550862883461270000016482931053751757717_);" d="M372.3,65.9v26.4
					c0,5.5,4.7,13.6,9.5,16.3c13.4,7.7,23.5,25.2,23.5,40.6v70.7v0.9c-0.2,1.9-1.5,3.9-4.1,5.3c-5.5,3.2-14.4,3.2-19.9,0
					c-2.5-1.5-3.9-3.3-4.1-5.3v-0.9v-70.7c0-5.5-4.7-13.6-9.5-16.3c-13.4-7.7-23.5-25.2-23.5-40.6V65.9H372.3L372.3,65.9z"/>
			</g>
			
				<linearGradient id="SVGID_00000096758662484627001040000015628035734912874172_" gradientUnits="userSpaceOnUse" x1="-8366.9404" y1="862.3262" x2="-8295.1367" y2="862.3262" gradientTransform="matrix(-1 0 0 1 -7884.3901 -679.87)">
				<stop  offset="0" style="stop-color:#E26558"/>
				<stop  offset="1" style="stop-color:#A8190A"/>
			</linearGradient>
			<path style="fill:url(#SVGID_00000096758662484627001040000015628035734912874172_);" d="M410.9,219.5v-24.1
				c0-18.9,15.4-34.2,34.2-34.2h3.3c3.4,0,6.2-2.8,6.2-6.2v-18.4h28v18.3c0,18.9-15.4,34.2-34.2,34.2h-3.3c-3.4,0-6.2,2.8-6.2,6.2
				v24.8l0,0c0.1,2.1-1.3,4.3-4.1,5.9c-5.5,3.2-14.4,3.2-19.9,0C411.7,224.3,410.4,221.9,410.9,219.5L410.9,219.5z"/>
			
				<linearGradient id="SVGID_00000119836736013083940300000010671867926908759709_" gradientUnits="userSpaceOnUse" x1="-8256.6855" y1="745.7862" x2="-8228.5859" y2="745.7862" gradientTransform="matrix(-1 0 0 1 -7884.3984 -679.9299)">
				<stop  offset="0" style="stop-color:#F0B0A9"/>
				<stop  offset="1" style="stop-color:#A8190A"/>
			</linearGradient>
			<path style="fill:url(#SVGID_00000119836736013083940300000010671867926908759709_);" d="M358.2,57.8c7.8,0,14.1,3.6,14.1,8
				c0,4.5-6.3,8.2-14,8.2s-14.1-3.6-14.1-8C344.2,61.5,350.5,57.8,358.2,57.8z"/>
			<g>
				<g>
					
						<linearGradient id="SVGID_00000034058894986223298990000001847916870135127440_" gradientUnits="userSpaceOnUse" x1="-8236.6406" y1="743.8763" x2="-8236.6406" y2="743.8763" gradientTransform="matrix(-1 0 0 1 -7884.3901 -679.87)">
						<stop  offset="0" style="stop-color:#E6E6E6"/>
						<stop  offset="1" style="stop-color:#999999"/>
					</linearGradient>
					<path style="fill:url(#SVGID_00000034058894986223298990000001847916870135127440_);" d="M352.3,63.8v0.5
						C352.3,64.2,352.3,64,352.3,63.8z"/>
					
						<linearGradient id="SVGID_00000132785343511089952500000011608829926576334260_" gradientUnits="userSpaceOnUse" x1="-8248.54" y1="743.8763" x2="-8248.54" y2="743.8763" gradientTransform="matrix(-1 0 0 1 -7884.3901 -679.87)">
						<stop  offset="0" style="stop-color:#E6E6E6"/>
						<stop  offset="1" style="stop-color:#999999"/>
					</linearGradient>
					<path style="fill:url(#SVGID_00000132785343511089952500000011608829926576334260_);" d="M364.2,64.3v-0.5
						C364.2,64,364.2,64.1,364.2,64.3z"/>
					
						<linearGradient id="SVGID_00000146472923415178968660000012390930606684477118_" gradientUnits="userSpaceOnUse" x1="-8248.585" y1="743.8763" x2="-8236.6455" y2="743.8763" gradientTransform="matrix(-1 0 0 1 -7884.3901 -679.87)">
						<stop  offset="0" style="stop-color:#E6E6E6"/>
						<stop  offset="1" style="stop-color:#999999"/>
					</linearGradient>
					<path style="fill:url(#SVGID_00000146472923415178968660000012390930606684477118_);" d="M362.5,66.5c-2.3,1.3-6.1,1.4-8.4,0
						c-1-0.6-1.6-1.4-1.7-2.2v-0.5c0.1-0.8,0.7-1.6,1.7-2.2c2.3-1.3,6.1-1.4,8.4,0c1.1,0.6,1.6,1.4,1.7,2.2v0.5
						C364.1,65.1,363.6,65.9,362.5,66.5L362.5,66.5z"/>
					
						<linearGradient id="SVGID_00000077307494130262631620000018100767412716536508_" gradientUnits="userSpaceOnUse" x1="-8248.5654" y1="730.9327" x2="-8236.665" y2="730.9327" gradientTransform="matrix(-1 0 0 1 -7884.3901 -679.87)">
						<stop  offset="0" style="stop-color:#FFFFFF"/>
						<stop  offset="1" style="stop-color:#D4D4D4"/>
					</linearGradient>
					<path style="fill:url(#SVGID_00000077307494130262631620000018100767412716536508_);" d="M364.2,34.7v29.1v0.5
						c-0.1,0.8-0.7,1.6-1.8,2.2c-2.3,1.3-6.1,1.4-8.4,0c-1-0.6-1.6-1.4-1.7-2.2v-0.5V34.7H364.2L364.2,34.7z"/>
				</g>
				
					<ellipse transform="matrix(1 -5.410415e-03 5.410415e-03 1 -0.1823 1.9388)" class="st10" cx="358.3" cy="34.7" rx="6" ry="3.5"/>
			</g>
			
				<linearGradient id="SVGID_00000155844252098719369690000009053130286442938024_" gradientUnits="userSpaceOnUse" x1="-8366.9424" y1="816.3882" x2="-8338.8418" y2="816.3882" gradientTransform="matrix(-1 0 0 1 -7884.3921 -679.932)">
				<stop  offset="0" style="stop-color:#F0B0A9"/>
				<stop  offset="1" style="stop-color:#A8190A"/>
			</linearGradient>
			<path style="fill:url(#SVGID_00000155844252098719369690000009053130286442938024_);" d="M468.5,128.4c7.8,0,14.1,3.6,14.1,8
				s-6.3,8.2-14,8.2c-7.8,0-14.1-3.6-14.1-8S460.7,128.5,468.5,128.4z"/>
			<g>
				<g>
					
						<linearGradient id="SVGID_00000080927910920811044610000013526638901789838254_" gradientUnits="userSpaceOnUse" x1="-8346.9404" y1="814.5763" x2="-8346.9404" y2="814.5763" gradientTransform="matrix(-1 0 0 1 -7884.3901 -679.87)">
						<stop  offset="0" style="stop-color:#E6E6E6"/>
						<stop  offset="1" style="stop-color:#999999"/>
					</linearGradient>
					<path style="fill:url(#SVGID_00000080927910920811044610000013526638901789838254_);" d="M462.6,134.5v0.5
						C462.6,134.8,462.6,134.6,462.6,134.5z"/>
					
						<linearGradient id="SVGID_00000077289644953580251460000011123549046266783423_" gradientUnits="userSpaceOnUse" x1="-8358.8398" y1="814.4763" x2="-8358.8398" y2="814.4763" gradientTransform="matrix(-1 0 0 1 -7884.3901 -679.87)">
						<stop  offset="0" style="stop-color:#E6E6E6"/>
						<stop  offset="1" style="stop-color:#999999"/>
					</linearGradient>
					<path style="fill:url(#SVGID_00000077289644953580251460000011123549046266783423_);" d="M474.5,134.9v-0.5
						C474.5,134.6,474.5,134.7,474.5,134.9z"/>
					
						<linearGradient id="SVGID_00000181079255499403738110000014977066679946395284_" gradientUnits="userSpaceOnUse" x1="-8358.8652" y1="814.4763" x2="-8346.9258" y2="814.4763" gradientTransform="matrix(-1 0 0 1 -7884.3901 -679.87)">
						<stop  offset="0" style="stop-color:#E6E6E6"/>
						<stop  offset="1" style="stop-color:#999999"/>
					</linearGradient>
					<path style="fill:url(#SVGID_00000181079255499403738110000014977066679946395284_);" d="M472.8,137.1c-2.3,1.4-6.1,1.4-8.4,0
						c-1.1-0.6-1.6-1.4-1.7-2.2v-0.5c0.1-0.8,0.7-1.6,1.7-2.2c2.3-1.4,6.1-1.4,8.4,0c1.1,0.6,1.6,1.4,1.7,2.2v0.5
						C474.4,135.7,473.8,136.5,472.8,137.1L472.8,137.1z"/>
					
						<linearGradient id="SVGID_00000010303013052815930330000000368697242376133048_" gradientUnits="userSpaceOnUse" x1="-8358.8398" y1="801.6512" x2="-8346.9404" y2="801.6512" gradientTransform="matrix(-1 0 0 1 -7884.3901 -679.87)">
						<stop  offset="0" style="stop-color:#FFFFFF"/>
						<stop  offset="1" style="stop-color:#D4D4D4"/>
					</linearGradient>
					<path style="fill:url(#SVGID_00000010303013052815930330000000368697242376133048_);" d="M474.5,105.4v29.1v0.5
						c-0.1,0.8-0.7,1.6-1.8,2.2c-2.3,1.4-6.1,1.4-8.4,0c-1.1-0.6-1.6-1.4-1.7-2.2v-0.5v-29.1L474.5,105.4L474.5,105.4z"/>
				</g>
				
					<ellipse transform="matrix(1 -5.410415e-03 5.410415e-03 1 -0.5632 2.5366)" class="st10" cx="468.6" cy="105.4" rx="6" ry="3.4"/>
			</g>
		</g>
		<g>
			<path class="st16" d="M413.5,453.2H405V451c0-0.6,0.1-1.1,0.3-1.5s0.5-0.9,0.8-1.2s0.8-0.6,1.2-0.8c0.5-0.2,1-0.3,1.6-0.3h0.7
				c0.6,0,1.1,0.1,1.6,0.2c0.5,0.2,0.9,0.4,1.2,0.7c0.4,0.3,0.6,0.7,0.8,1.1s0.3,0.9,0.3,1.5V453.2L413.5,453.2z M406.3,451.6h5.9
				V451c0-0.3-0.1-0.6-0.2-0.8c-0.1-0.2-0.3-0.5-0.5-0.6c-0.2-0.2-0.5-0.3-0.8-0.4s-0.7-0.1-1.1-0.1h-0.7c-0.4,0-0.7,0-1,0.1
				s-0.6,0.2-0.8,0.4c-0.2,0.2-0.4,0.4-0.5,0.6c-0.1,0.3-0.2,0.5-0.2,0.9L406.3,451.6L406.3,451.6z"/>
			<path class="st16" d="M405.4,443.9c-0.1,0-0.2,0-0.4-0.1c-0.1,0-0.2-0.1-0.3-0.2c-0.1-0.1-0.1-0.2-0.2-0.3c0-0.1-0.1-0.2-0.1-0.4
				c0-0.3,0.1-0.5,0.2-0.7s0.4-0.3,0.6-0.3s0.5,0.1,0.6,0.2c0.2,0.2,0.2,0.4,0.2,0.7c0,0.1,0,0.3-0.1,0.4c0,0.1-0.1,0.2-0.2,0.3
				s-0.2,0.1-0.3,0.2C405.7,443.9,405.6,443.9,405.4,443.9L405.4,443.9z M407.1,445.6v-3.5h5v-1.7h1.3v5.2h-1.3v-1.8h-3.7v1.8H407.1
				L407.1,445.6z"/>
			<path class="st16" d="M410.2,438.9c-0.5,0-0.9,0-1.3-0.2c-0.4-0.1-0.7-0.3-1-0.5s-0.5-0.5-0.7-0.8s-0.2-0.7-0.2-1.1
				s0.1-0.7,0.2-1s0.3-0.5,0.5-0.7l-0.6-0.1V433h6.1c0.4,0,0.8,0.1,1.1,0.2s0.6,0.4,0.9,0.6s0.4,0.6,0.5,1s0.2,0.8,0.2,1.2
				c0,0.2,0,0.4-0.1,0.6c0,0.2-0.1,0.4-0.2,0.6s-0.2,0.4-0.3,0.6s-0.3,0.4-0.5,0.5l-1-0.7c0.2-0.2,0.4-0.4,0.5-0.7s0.2-0.5,0.2-0.9
				c0-0.5-0.1-0.8-0.4-1.1s-0.6-0.4-1-0.4h-0.4c0.2,0.2,0.4,0.4,0.5,0.7s0.2,0.5,0.2,0.9s-0.1,0.8-0.2,1.1c-0.2,0.3-0.4,0.6-0.7,0.8
				c-0.3,0.2-0.6,0.4-1,0.5s-0.8,0.2-1.3,0.2L410.2,438.9L410.2,438.9z M410.3,437.3c0.3,0,0.5,0,0.7-0.1c0.2,0,0.4-0.1,0.6-0.2
				s0.3-0.2,0.4-0.4s0.1-0.4,0.1-0.6c0-0.3-0.1-0.5-0.2-0.7s-0.3-0.3-0.5-0.4h-2.7c-0.2,0.1-0.4,0.3-0.5,0.5s-0.2,0.4-0.2,0.7
				c0,0.2,0,0.4,0.1,0.6s0.2,0.3,0.4,0.4c0.2,0.1,0.4,0.2,0.6,0.2s0.5,0.1,0.8,0.1L410.3,437.3L410.3,437.3z"/>
			<path class="st16" d="M405.4,429.5c-0.1,0-0.2,0-0.4-0.1c-0.1,0-0.2-0.1-0.3-0.2c-0.1-0.1-0.1-0.2-0.2-0.3c0-0.1-0.1-0.2-0.1-0.4
				c0-0.3,0.1-0.5,0.2-0.7s0.4-0.3,0.6-0.3s0.5,0.1,0.6,0.2c0.2,0.2,0.2,0.4,0.2,0.7c0,0.1,0,0.3-0.1,0.4c0,0.1-0.1,0.2-0.2,0.3
				c-0.1,0.1-0.2,0.1-0.3,0.2C405.6,429.5,405.5,429.5,405.4,429.5L405.4,429.5z M407,431.2v-3.5h5V426h1.3v5.2H412v-1.8h-3.7v1.8
				H407L407,431.2z"/>
			<path class="st16" d="M405.4,421.4h1.6V419h1.2v2.4h2.7c0.2,0,0.4,0,0.6-0.1c0.1,0,0.3-0.1,0.4-0.2s0.2-0.2,0.2-0.4
				c0-0.1,0.1-0.3,0.1-0.5c0-0.1,0-0.2,0-0.4c0-0.1,0-0.3,0-0.4s0-0.2-0.1-0.3c0-0.1,0-0.2-0.1-0.3l1.1-0.2c0.1,0.1,0.1,0.2,0.2,0.4
				s0.1,0.3,0.1,0.5s0.1,0.4,0.1,0.5c0,0.2,0,0.4,0,0.5c0,0.4,0,0.7-0.1,1s-0.2,0.5-0.4,0.7s-0.4,0.4-0.7,0.5
				c-0.3,0.1-0.7,0.2-1.1,0.2h-2.9v1.5H407v-1.5h-1.6V421.4L405.4,421.4z"/>
			<path class="st16" d="M413.2,413.2c-0.1,0-0.2,0.1-0.3,0.1s-0.2,0-0.3,0.1c0.1,0.1,0.2,0.2,0.3,0.3s0.2,0.2,0.2,0.4
				c0.1,0.1,0.1,0.3,0.2,0.5s0.1,0.4,0.1,0.6c0,0.3,0,0.6-0.1,0.9s-0.2,0.5-0.4,0.7c-0.2,0.2-0.4,0.4-0.6,0.5s-0.5,0.2-0.8,0.2
				c-0.7,0-1.2-0.2-1.6-0.7s-0.5-1.2-0.6-2.2v-0.9H409c-0.3,0-0.5,0.1-0.7,0.3c-0.2,0.2-0.3,0.5-0.3,0.9c0,0.3,0.1,0.6,0.2,0.7
				s0.3,0.2,0.6,0.2v1.6c-0.3,0-0.5-0.1-0.8-0.2c-0.2-0.1-0.5-0.3-0.6-0.5s-0.3-0.5-0.4-0.8s-0.2-0.7-0.2-1.1s0-0.7,0.1-1.1
				c0.1-0.3,0.2-0.6,0.4-0.9s0.4-0.4,0.7-0.6s0.6-0.2,1-0.2h2.7c0.3,0,0.6,0,0.8-0.1c0.2,0,0.4-0.1,0.6-0.2h0.1L413.2,413.2
				L413.2,413.2z M412.1,414.7c0-0.2,0-0.3-0.1-0.5c0-0.1-0.1-0.3-0.1-0.4c-0.1-0.1-0.1-0.2-0.2-0.3c-0.1-0.1-0.2-0.1-0.2-0.2h-1.1
				v0.8c0,0.2,0,0.5,0.1,0.6c0.1,0.2,0.1,0.3,0.2,0.4s0.2,0.2,0.3,0.2c0.1,0,0.3,0.1,0.4,0.1c0.2,0,0.4-0.1,0.5-0.2
				C412,415.3,412.1,415.1,412.1,414.7L412.1,414.7z"/>
			<path class="st16" d="M404.2,409.7v-3.5h7.7v-1.8h1.3v5.4h-1.3v-1.9h-6.4v1.9L404.2,409.7L404.2,409.7z"/>
			<path class="st16" d="M410,389.9v4.9h-1.3v-4.9H410L410,389.9z"/>
			<path class="st16" d="M413,375.6v1.6l-5.5,2.4h5.5v1.7h-8.5v-1.7l5.5-2.4h-5.5v-1.6H413L413,375.6z"/>
			<path class="st16" d="M409.9,372.3h3.1v1.6h-8.5V371c0-0.5,0.1-0.9,0.2-1.3s0.3-0.7,0.6-1s0.5-0.5,0.9-0.6
				c0.3-0.1,0.7-0.2,1.1-0.2s0.7,0.1,1.1,0.2c0.3,0.1,0.6,0.3,0.8,0.6c0.2,0.3,0.4,0.6,0.6,1c0.1,0.4,0.2,0.8,0.2,1.3v1.3H409.9z
				 M408.6,372.3V371c0-0.2,0-0.4-0.1-0.6s-0.2-0.3-0.3-0.4s-0.3-0.2-0.4-0.3s-0.3-0.1-0.5-0.1s-0.4,0-0.6,0.1s-0.3,0.1-0.5,0.3
				s-0.2,0.3-0.3,0.4s-0.1,0.4-0.1,0.6v1.3H408.6L408.6,372.3z"/>
			<path class="st16" d="M413,361.2v1.6l-5.5,2.4h5.5v1.7h-8.5v-1.7l5.5-2.4h-5.5v-1.6H413L413,361.2z"/>
			<path class="st16" d="M413.7,357.6v1.5l-9.3-3.1v-1.5L413.7,357.6z"/>
			<path class="st16" d="M409.8,350.7h3.1v1.6h-8.5v-2.9c0-0.5,0.1-0.9,0.2-1.3s0.3-0.7,0.6-1c0.2-0.3,0.5-0.5,0.9-0.6
				c0.3-0.1,0.7-0.2,1.1-0.2s0.7,0.1,1.1,0.2c0.3,0.1,0.6,0.3,0.8,0.6c0.2,0.3,0.4,0.6,0.6,1c0.1,0.4,0.2,0.8,0.2,1.3v1.3H409.8z
				 M408.4,350.7v-1.3c0-0.2,0-0.4-0.1-0.6s-0.2-0.3-0.3-0.4s-0.3-0.2-0.4-0.3s-0.3-0.1-0.5-0.1s-0.4,0-0.6,0.1s-0.3,0.1-0.5,0.3
				s-0.2,0.3-0.3,0.4s-0.1,0.4-0.1,0.6v1.3H408.4L408.4,350.7z"/>
			<path class="st16" d="M412.8,339.6v1.6l-5.5,2.4h5.5v1.7h-8.5v-1.7l5.5-2.4h-5.5v-1.6H412.8L412.8,339.6z"/>
			<path class="st16" d="M409.7,336.3h3.1v1.6h-8.5V335c0-0.5,0.1-0.9,0.2-1.3s0.3-0.7,0.6-1c0.2-0.3,0.5-0.5,0.9-0.6
				c0.3-0.1,0.7-0.2,1.1-0.2s0.7,0.1,1.1,0.2c0.3,0.1,0.6,0.3,0.8,0.6c0.2,0.3,0.4,0.6,0.6,1c0.1,0.4,0.2,0.8,0.2,1.3L409.7,336.3
				L409.7,336.3z M408.4,336.3V335c0-0.2,0-0.4-0.1-0.6s-0.2-0.3-0.3-0.4s-0.3-0.2-0.4-0.3s-0.3-0.1-0.5-0.1s-0.4,0-0.6,0.1
				s-0.3,0.1-0.4,0.3c-0.1,0.1-0.2,0.3-0.3,0.4s-0.1,0.4-0.1,0.6v1.3H408.4L408.4,336.3z"/>
			<path class="st16" d="M411.5,320.7c0-0.2,0-0.3-0.1-0.5c0-0.1-0.1-0.3-0.2-0.4s-0.2-0.2-0.3-0.2s-0.3-0.1-0.4-0.1V318
				c0.3,0,0.6,0.1,0.9,0.2s0.5,0.3,0.7,0.6c0.2,0.2,0.4,0.5,0.5,0.9c0.1,0.3,0.2,0.7,0.2,1c0,0.5-0.1,0.9-0.2,1.3s-0.4,0.7-0.7,0.9
				c-0.3,0.2-0.6,0.4-1,0.6c-0.4,0.1-0.8,0.2-1.2,0.2h-0.2c-0.5,0-0.9-0.1-1.2-0.2c-0.4-0.1-0.7-0.3-1-0.6c-0.3-0.2-0.5-0.6-0.7-0.9
				c-0.2-0.4-0.3-0.8-0.3-1.3c0-0.4,0-0.8,0.2-1.1s0.3-0.6,0.5-0.9c0.2-0.2,0.5-0.4,0.8-0.6c0.3-0.1,0.6-0.2,1-0.2v1.5
				c-0.1,0-0.3,0-0.4,0.1s-0.3,0.1-0.4,0.2s-0.2,0.2-0.2,0.4s-0.1,0.3-0.1,0.5c0,0.3,0.1,0.5,0.2,0.6c0.1,0.2,0.2,0.3,0.4,0.4
				c0.2,0.1,0.4,0.2,0.6,0.2s0.5,0.1,0.7,0.1h0.2c0.2,0,0.5,0,0.7-0.1s0.4-0.1,0.6-0.2s0.3-0.2,0.4-0.4
				C411.5,321.3,411.6,321,411.5,320.7L411.5,320.7z"/>
			<path class="st16" d="M409.5,316.6c-0.5,0-0.9-0.1-1.3-0.2s-0.7-0.3-1-0.6c-0.3-0.2-0.5-0.6-0.7-0.9c-0.2-0.4-0.2-0.8-0.2-1.3
				s0.1-0.9,0.2-1.3s0.4-0.7,0.7-0.9c0.3-0.3,0.6-0.5,1-0.6s0.8-0.2,1.3-0.2h0.1c0.5,0,0.9,0.1,1.3,0.2s0.7,0.3,1,0.6
				c0.3,0.2,0.5,0.6,0.7,0.9s0.2,0.8,0.2,1.3s-0.1,0.9-0.2,1.3c-0.2,0.4-0.4,0.7-0.7,1c-0.3,0.3-0.6,0.5-1,0.6s-0.8,0.2-1.3,0.2
				L409.5,316.6L409.5,316.6z M409.6,314.9c0.3,0,0.5,0,0.8-0.1c0.2,0,0.4-0.1,0.6-0.2s0.3-0.2,0.4-0.4c0.1-0.2,0.1-0.4,0.1-0.6
				s0-0.4-0.2-0.6c-0.1-0.2-0.2-0.3-0.4-0.4s-0.4-0.2-0.6-0.2s-0.5-0.1-0.8-0.1h-0.1c-0.3,0-0.5,0-0.7,0.1c-0.2,0-0.4,0.1-0.6,0.2
				s-0.3,0.2-0.4,0.4s-0.1,0.4-0.1,0.6s0.1,0.5,0.2,0.6c0.1,0.2,0.2,0.3,0.4,0.4s0.4,0.2,0.6,0.2s0.5,0.1,0.7,0.1H409.6L409.6,314.9
				z"/>
			<path class="st16" d="M411.8,305.1c0.3,0.2,0.6,0.5,0.8,0.8s0.3,0.6,0.3,1c0,0.3-0.1,0.6-0.1,0.9c-0.1,0.3-0.3,0.5-0.5,0.7
				s-0.5,0.4-0.8,0.5s-0.8,0.2-1.2,0.2h-3.8v-1.6h3.8c0.3,0,0.5,0,0.6-0.1s0.3-0.1,0.4-0.2s0.2-0.2,0.2-0.3c0-0.1,0.1-0.3,0.1-0.5
				c0-0.3-0.1-0.6-0.2-0.8c-0.1-0.2-0.3-0.4-0.5-0.5h-4.4v-1.6h6.3v1.5H411.8L411.8,305.1z"/>
			<path class="st16" d="M406.3,300.5l0.9-0.1c-0.3-0.2-0.6-0.5-0.7-0.8c-0.2-0.3-0.3-0.7-0.3-1.1c0-0.3,0-0.6,0.1-0.9
				s0.2-0.5,0.4-0.7c0.2-0.2,0.5-0.4,0.8-0.5s0.7-0.2,1.2-0.2h3.9v1.6h-3.9c-0.2,0-0.5,0-0.6,0.1s-0.3,0.1-0.4,0.2s-0.2,0.2-0.2,0.4
				c0,0.1,0,0.3,0,0.5c0,0.3,0.1,0.5,0.2,0.7s0.3,0.4,0.5,0.5h4.5v1.6h-6.3L406.3,300.5L406.3,300.5z"/>
			<path class="st16" d="M404.7,291.8h1.5v-2.4h1.2v2.4h2.7c0.2,0,0.4,0,0.6-0.1c0.1,0,0.3-0.1,0.4-0.2s0.2-0.2,0.2-0.4
				c0-0.1,0.1-0.3,0.1-0.5c0-0.1,0-0.2,0-0.4c0-0.1,0-0.3-0.1-0.4c0-0.1,0-0.2-0.1-0.3c0-0.1,0-0.2-0.1-0.3l1.1-0.2
				c0.1,0.1,0.1,0.2,0.2,0.4c0,0.1,0.1,0.3,0.1,0.5s0.1,0.4,0.1,0.5c0,0.2,0,0.4,0,0.5c0,0.4,0,0.7-0.1,1s-0.2,0.5-0.4,0.7
				s-0.4,0.4-0.7,0.5c-0.3,0.1-0.7,0.2-1.1,0.2h-2.9v1.5h-1.2v-1.5h-1.6L404.7,291.8L404.7,291.8z"/>
			<path class="st16" d="M412.7,284.5c0,0.5-0.1,0.9-0.2,1.3c-0.2,0.4-0.4,0.7-0.6,1c-0.3,0.3-0.6,0.5-1,0.7s-0.8,0.2-1.2,0.2h-0.2
				c-0.5,0-0.9-0.1-1.3-0.2s-0.8-0.4-1-0.6c-0.3-0.3-0.5-0.6-0.7-1s-0.2-0.8-0.2-1.2c0-0.5,0.1-0.9,0.2-1.2s0.4-0.7,0.6-0.9
				c0.3-0.2,0.6-0.4,1-0.6s0.8-0.2,1.3-0.2h0.7v4.3c0.2,0,0.4-0.1,0.6-0.2s0.3-0.2,0.5-0.4s0.2-0.3,0.3-0.5s0.1-0.4,0.1-0.6
				s0-0.3-0.1-0.5s-0.1-0.3-0.1-0.5s-0.1-0.3-0.2-0.4s-0.2-0.2-0.3-0.3l0.9-0.8c0.1,0.1,0.3,0.2,0.4,0.4c0.1,0.2,0.3,0.4,0.4,0.6
				s0.2,0.5,0.3,0.7C412.6,283.9,412.6,284.1,412.7,284.5L412.7,284.5z M407.4,284.7c0,0.2,0,0.4,0.1,0.5s0.2,0.3,0.3,0.4
				c0.1,0.1,0.3,0.2,0.4,0.3c0.2,0.1,0.4,0.1,0.6,0.2v-2.7h-0.1c-0.2,0-0.3,0-0.5,0.1s-0.3,0.1-0.4,0.2s-0.2,0.2-0.3,0.4
				S407.4,284.5,407.4,284.7L407.4,284.7z"/>
			<path class="st16" d="M406,275.8c0-0.2,0-0.5,0-0.7s0.1-0.4,0.1-0.5l1.6,0.2c-0.1,0.2-0.1,0.4-0.1,0.7c0,0.2,0,0.4,0,0.6
				c0,0.5,0.1,0.8,0.3,1.1c0.2,0.3,0.4,0.5,0.8,0.6h3.8v1.6h-6.3v-1.5l1-0.1c-0.4-0.3-0.6-0.6-0.9-0.9
				C406.2,276.6,406.1,276.2,406,275.8L406,275.8z"/>
		</g>
	</g>
	<g id="Layer_1-2_00000022545672429490393190000008006443225128921785_">
		<g>
			
				<linearGradient id="SVGID_00000130604720489415840530000001501962934368388739_" gradientUnits="userSpaceOnUse" x1="187.7918" y1="1824.8" x2="277.2026" y2="1824.8" gradientTransform="matrix(1 0 0 1 0 -1504)">
				<stop  offset="0" style="stop-color:#D4D4D4"/>
				<stop  offset="1" style="stop-color:#FFFFFF"/>
			</linearGradient>
			<path style="fill:url(#SVGID_00000130604720489415840530000001501962934368388739_);" d="M277.1,428.1V185.9h-89.2v242.4
				c-0.9,7.2,3.4,14.5,12.9,20c17.4,10,45.7,10,63.2-0.1C273.6,442.6,277.9,435.3,277.1,428.1L277.1,428.1z"/>
			
				<linearGradient id="SVGID_00000046311882930399470510000000948158863606071720_" gradientUnits="userSpaceOnUse" x1="-8161.7095" y1="865.8306" x2="-8072.2085" y2="865.8306" gradientTransform="matrix(-1 0 0 1 -7884.4004 -679.9243)">
				<stop  offset="0" style="stop-color:#E6E6E6"/>
				<stop  offset="1" style="stop-color:#999999"/>
			</linearGradient>
			<path style="fill:url(#SVGID_00000046311882930399470510000000948158863606071720_);" d="M232.4,160.1
				c24.7-0.1,44.8,11.3,44.9,25.6s-19.9,25.9-44.6,26.1c-24.7,0.1-44.8-11.3-44.9-25.6C187.7,171.9,207.6,160.3,232.4,160.1z"/>
			
				<linearGradient id="SVGID_00000156570587005111950930000005299313188884440457_" gradientUnits="userSpaceOnUse" x1="-8120.9185" y1="804.5763" x2="-8092.8364" y2="804.5763" gradientTransform="matrix(-1 0 0 1 -7884.3901 -679.87)">
				<stop  offset="0" style="stop-color:#E26558"/>
				<stop  offset="1" style="stop-color:#A8190A"/>
			</linearGradient>
			<path style="fill:url(#SVGID_00000156570587005111950930000005299313188884440457_);" d="M208.4,176.2V64.8h28.1v111.3
				c0.2,2.2-1.1,4.5-4.1,6.2c-5.5,3.2-14.4,3.2-19.9,0C209.6,180.7,208.2,178.5,208.4,176.2L208.4,176.2z"/>
			
				<linearGradient id="SVGID_00000088116566815811077650000002071103337440101776_" gradientUnits="userSpaceOnUse" x1="-8181.3989" y1="835.9763" x2="-8109.5947" y2="835.9763" gradientTransform="matrix(-1 0 0 1 -7884.3901 -679.87)">
				<stop  offset="0" style="stop-color:#E26558"/>
				<stop  offset="1" style="stop-color:#A8190A"/>
			</linearGradient>
			<path style="fill:url(#SVGID_00000088116566815811077650000002071103337440101776_);" d="M225.3,193.1V169
				c0-18.9,15.4-34.2,34.2-34.2h3.3c3.4,0,6.2-2.8,6.2-6.2v-18.4h28v18.4c0,18.9-15.4,34.2-34.2,34.2h-3.3c-3.4,0-6.2,2.8-6.2,6.2
				v24.8l0,0c0.1,2.1-1.3,4.3-4.1,5.9c-5.5,3.2-14.4,3.2-19.9,0C226.1,197.9,224.8,195.5,225.3,193.1L225.3,193.1z"/>
			
				<linearGradient id="SVGID_00000012466601384588940390000011485665816566661008_" gradientUnits="userSpaceOnUse" x1="-8120.9092" y1="745.3869" x2="-8092.8091" y2="745.3869" gradientTransform="matrix(-1 0 0 1 -7884.4004 -679.9307)">
				<stop  offset="0" style="stop-color:#F0B0A9"/>
				<stop  offset="1" style="stop-color:#A8190A"/>
			</linearGradient>
			<path style="fill:url(#SVGID_00000012466601384588940390000011485665816566661008_);" d="M222.4,57.4c7.8,0,14.1,3.6,14.1,8
				c0,4.5-6.3,8.2-14,8.2c-7.8,0-14.1-3.6-14.1-8S214.7,57.4,222.4,57.4z"/>
			<g>
				<g>
					
						<linearGradient id="SVGID_00000138574830015448660120000016880037207452916666_" gradientUnits="userSpaceOnUse" x1="-8100.8989" y1="743.4763" x2="-8100.8989" y2="743.4763" gradientTransform="matrix(-1 0 0 1 -7884.3901 -679.87)">
						<stop  offset="0" style="stop-color:#E6E6E6"/>
						<stop  offset="1" style="stop-color:#999999"/>
					</linearGradient>
					<path style="fill:url(#SVGID_00000138574830015448660120000016880037207452916666_);" d="M216.5,63.4v0.5
						C216.5,63.7,216.5,63.5,216.5,63.4z"/>
					
						<linearGradient id="SVGID_00000016755203641096200280000001815661273096368002_" gradientUnits="userSpaceOnUse" x1="-8112.7988" y1="743.3763" x2="-8112.7988" y2="743.3763" gradientTransform="matrix(-1 0 0 1 -7884.3901 -679.87)">
						<stop  offset="0" style="stop-color:#E6E6E6"/>
						<stop  offset="1" style="stop-color:#999999"/>
					</linearGradient>
					<path style="fill:url(#SVGID_00000016755203641096200280000001815661273096368002_);" d="M228.4,63.8v-0.5
						C228.4,63.5,228.4,63.7,228.4,63.8z"/>
					
						<linearGradient id="SVGID_00000084502481420074198900000016252857412425610146_" gradientUnits="userSpaceOnUse" x1="-8112.8311" y1="743.3763" x2="-8100.8911" y2="743.3763" gradientTransform="matrix(-1 0 0 1 -7884.3901 -679.87)">
						<stop  offset="0" style="stop-color:#E6E6E6"/>
						<stop  offset="1" style="stop-color:#999999"/>
					</linearGradient>
					<path style="fill:url(#SVGID_00000084502481420074198900000016252857412425610146_);" d="M226.7,66c-2.3,1.3-6.1,1.4-8.4,0
						c-1.1-0.6-1.6-1.4-1.7-2.2v-0.5c0.1-0.8,0.7-1.6,1.7-2.2c2.3-1.3,6.1-1.4,8.4,0c1.1,0.6,1.6,1.4,1.7,2.2v0.5
						C228.3,64.6,227.7,65.4,226.7,66L226.7,66z"/>
					
						<linearGradient id="SVGID_00000076601863777042404560000017037242905140343694_" gradientUnits="userSpaceOnUse" x1="-8112.811" y1="730.5327" x2="-8100.9111" y2="730.5327" gradientTransform="matrix(-1 0 0 1 -7884.3901 -679.87)">
						<stop  offset="0" style="stop-color:#FFFFFF"/>
						<stop  offset="1" style="stop-color:#D4D4D4"/>
					</linearGradient>
					<path style="fill:url(#SVGID_00000076601863777042404560000017037242905140343694_);" d="M228.4,34.3v29.1v0.5
						c-0.1,0.8-0.7,1.6-1.8,2.2c-2.3,1.3-6.1,1.4-8.4,0c-1.1-0.6-1.6-1.4-1.7-2.2v-0.5V34.3H228.4L228.4,34.3z"/>
				</g>
				
					<ellipse transform="matrix(1 -5.410415e-03 5.410415e-03 1 -0.1821 1.2044)" class="st10" cx="222.5" cy="34.3" rx="6" ry="3.4"/>
			</g>
			
				<linearGradient id="SVGID_00000086670937479251491100000004351861135293310865_" gradientUnits="userSpaceOnUse" x1="-8181.4351" y1="789.9883" x2="-8153.335" y2="789.9883" gradientTransform="matrix(-1 0 0 1 -7884.3921 -679.932)">
				<stop  offset="0" style="stop-color:#F0B0A9"/>
				<stop  offset="1" style="stop-color:#A8190A"/>
			</linearGradient>
			<path style="fill:url(#SVGID_00000086670937479251491100000004351861135293310865_);" d="M282.9,102c7.8,0,14.1,3.6,14.1,8
				c0,4.5-6.3,8.2-14,8.2s-14.1-3.6-14.1-8C268.9,105.8,275.2,102.1,282.9,102z"/>
			<g>
				<g>
					
						<linearGradient id="SVGID_00000126297855727154390080000011997788362917551239_" gradientUnits="userSpaceOnUse" x1="-8161.3989" y1="788.1763" x2="-8161.3989" y2="788.1763" gradientTransform="matrix(-1 0 0 1 -7884.3901 -679.87)">
						<stop  offset="0" style="stop-color:#E6E6E6"/>
						<stop  offset="1" style="stop-color:#999999"/>
					</linearGradient>
					<path style="fill:url(#SVGID_00000126297855727154390080000011997788362917551239_);" d="M277,108.1v0.5
						C277,108.4,277,108.2,277,108.1z"/>
					
						<linearGradient id="SVGID_00000056406643504300262630000006038503578318846338_" gradientUnits="userSpaceOnUse" x1="-8173.2988" y1="788.0762" x2="-8173.2988" y2="788.0762" gradientTransform="matrix(-1 0 0 1 -7884.3901 -679.87)">
						<stop  offset="0" style="stop-color:#E6E6E6"/>
						<stop  offset="1" style="stop-color:#999999"/>
					</linearGradient>
					<path style="fill:url(#SVGID_00000056406643504300262630000006038503578318846338_);" d="M288.9,108.5V108
						C288.9,108.2,288.9,108.3,288.9,108.5z"/>
					
						<linearGradient id="SVGID_00000132085338948876099150000011653206758255782063_" gradientUnits="userSpaceOnUse" x1="-8173.3413" y1="788.0763" x2="-8161.4014" y2="788.0763" gradientTransform="matrix(-1 0 0 1 -7884.3901 -679.87)">
						<stop  offset="0" style="stop-color:#E6E6E6"/>
						<stop  offset="1" style="stop-color:#999999"/>
					</linearGradient>
					<path style="fill:url(#SVGID_00000132085338948876099150000011653206758255782063_);" d="M287.2,110.7c-2.3,1.4-6.1,1.4-8.4,0
						c-1-0.6-1.6-1.4-1.7-2.2V108c0.1-0.8,0.7-1.6,1.7-2.2c2.3-1.4,6.1-1.4,8.4,0c1.1,0.6,1.6,1.4,1.7,2.2v0.5
						C288.8,109.3,288.3,110.1,287.2,110.7L287.2,110.7z"/>
					
						<linearGradient id="SVGID_00000036238089116873913530000007398871611790051502_" gradientUnits="userSpaceOnUse" x1="-8173.3213" y1="775.2513" x2="-8161.4214" y2="775.2513" gradientTransform="matrix(-1 0 0 1 -7884.3901 -679.87)">
						<stop  offset="0" style="stop-color:#FFFFFF"/>
						<stop  offset="1" style="stop-color:#D4D4D4"/>
					</linearGradient>
					<path style="fill:url(#SVGID_00000036238089116873913530000007398871611790051502_);" d="M288.9,79v29.1v0.5
						c-0.1,0.8-0.7,1.6-1.8,2.2c-2.3,1.4-6.1,1.4-8.4,0c-1-0.6-1.6-1.4-1.7-2.2v-0.5V79H288.9L288.9,79z"/>
				</g>
				<ellipse transform="matrix(1 -5.410415e-03 5.410415e-03 1 -0.423 1.5324)" class="st10" cx="283" cy="79" rx="6" ry="3.4"/>
			</g>
		</g>
		<g>
			<path class="st16" d="M237.9,419.8h-8.5v-2.2c0-0.6,0.1-1.1,0.3-1.5s0.5-0.9,0.8-1.2s0.8-0.6,1.2-0.8c0.5-0.2,1-0.3,1.6-0.3h0.7
				c0.6,0,1.1,0.1,1.6,0.2s0.9,0.4,1.2,0.7c0.4,0.3,0.6,0.7,0.8,1.1s0.3,0.9,0.3,1.5L237.9,419.8L237.9,419.8z M230.7,418.2h5.9
				v-0.6c0-0.3-0.1-0.6-0.2-0.8c-0.1-0.2-0.3-0.5-0.5-0.6c-0.2-0.2-0.5-0.3-0.8-0.4s-0.7-0.1-1.1-0.1h-0.7c-0.4,0-0.7,0-1,0.1
				s-0.6,0.2-0.8,0.4s-0.4,0.4-0.5,0.6s-0.2,0.5-0.2,0.9L230.7,418.2L230.7,418.2z"/>
			<path class="st16" d="M229.9,410.5c-0.1,0-0.2,0-0.4-0.1c-0.1,0-0.2-0.1-0.3-0.2s-0.1-0.2-0.2-0.3c0-0.1-0.1-0.2-0.1-0.4
				c0-0.3,0.1-0.5,0.2-0.7s0.4-0.3,0.6-0.3s0.5,0.1,0.6,0.2s0.2,0.4,0.2,0.7c0,0.1,0,0.3-0.1,0.4s-0.1,0.2-0.2,0.3s-0.2,0.1-0.3,0.2
				C230.1,410.5,230,410.5,229.9,410.5L229.9,410.5z M231.5,412.2v-3.5h5V407h1.3v5.2h-1.3v-1.8h-3.7v1.8H231.5L231.5,412.2z"/>
			<path class="st16" d="M234.6,405.5c-0.5,0-0.9,0-1.3-0.2c-0.4-0.1-0.7-0.3-1-0.5s-0.5-0.5-0.7-0.8s-0.2-0.7-0.2-1.1
				s0.1-0.7,0.2-1s0.3-0.5,0.5-0.7l-0.6-0.1v-1.5h6.1c0.4,0,0.8,0.1,1.1,0.2s0.6,0.4,0.9,0.6s0.4,0.6,0.5,1s0.2,0.8,0.2,1.2
				c0,0.2,0,0.4-0.1,0.6s-0.1,0.4-0.2,0.6c-0.1,0.2-0.2,0.4-0.3,0.6s-0.3,0.4-0.4,0.5l-1-0.7c0.2-0.2,0.4-0.4,0.5-0.7
				s0.2-0.5,0.2-0.9c0-0.5-0.1-0.8-0.4-1.1s-0.6-0.4-1-0.4h-0.4c0.2,0.2,0.4,0.4,0.5,0.7s0.2,0.5,0.2,0.9s-0.1,0.8-0.2,1.1
				c-0.2,0.3-0.4,0.6-0.7,0.8c-0.3,0.2-0.6,0.4-1,0.5s-0.8,0.2-1.3,0.2L234.6,405.5L234.6,405.5z M234.7,403.9c0.3,0,0.5,0,0.7-0.1
				c0.2,0,0.4-0.1,0.6-0.2c0.2-0.1,0.3-0.2,0.4-0.4c0.1-0.2,0.1-0.4,0.1-0.6c0-0.3-0.1-0.5-0.2-0.7c-0.1-0.2-0.3-0.3-0.5-0.4h-2.7
				c-0.2,0.1-0.4,0.3-0.5,0.5s-0.2,0.4-0.2,0.7c0,0.2,0.1,0.4,0.1,0.6c0.1,0.2,0.2,0.3,0.4,0.4s0.4,0.2,0.6,0.2
				c0.2,0,0.5,0.1,0.8,0.1L234.7,403.9L234.7,403.9z"/>
			<path class="st16" d="M229.8,396.1c-0.1,0-0.2,0-0.4-0.1c-0.1,0-0.2-0.1-0.3-0.2s-0.1-0.2-0.2-0.3c0-0.1-0.1-0.2-0.1-0.4
				c0-0.3,0.1-0.5,0.2-0.7s0.4-0.3,0.6-0.3s0.5,0.1,0.6,0.2c0.2,0.2,0.2,0.4,0.2,0.7c0,0.1,0,0.3-0.1,0.4c0,0.1-0.1,0.2-0.2,0.3
				c-0.1,0.1-0.2,0.1-0.3,0.2C230,396.1,229.9,396.1,229.8,396.1L229.8,396.1z M231.4,397.8v-3.5h5v-1.7h1.3v5.2h-1.3v-1.9h-3.7v1.8
				L231.4,397.8L231.4,397.8z"/>
			<path class="st16" d="M229.8,388h1.6v-2.4h1.2v2.4h2.7c0.2,0,0.4,0,0.6-0.1c0.1,0,0.3-0.1,0.4-0.2s0.2-0.2,0.2-0.4
				c0-0.1,0.1-0.3,0.1-0.5c0-0.1,0-0.2,0-0.4c0-0.1,0-0.3-0.1-0.4s0-0.2-0.1-0.3s0-0.2-0.1-0.3l1.1-0.2c0.1,0.1,0.1,0.2,0.2,0.4
				c0.1,0.1,0.1,0.3,0.1,0.5s0.1,0.4,0.1,0.5s0,0.4,0,0.5c0,0.4,0,0.7-0.1,1s-0.2,0.5-0.4,0.7s-0.4,0.4-0.7,0.5s-0.7,0.2-1.1,0.2
				h-2.9v1.5h-1.2v-1.5h-1.6V388L229.8,388z"/>
			<path class="st16" d="M237.7,379.8c-0.1,0-0.2,0.1-0.3,0.1s-0.2,0-0.3,0.1c0.1,0.1,0.2,0.2,0.3,0.3s0.2,0.2,0.2,0.4
				c0.1,0.1,0.1,0.3,0.2,0.5c0,0.2,0.1,0.4,0.1,0.6c0,0.3,0,0.6-0.1,0.9s-0.2,0.5-0.4,0.7s-0.4,0.4-0.6,0.5
				c-0.2,0.1-0.5,0.2-0.8,0.2c-0.7,0-1.2-0.2-1.6-0.7c-0.4-0.5-0.6-1.2-0.6-2.2v-0.9h-0.4c-0.3,0-0.6,0.1-0.7,0.3
				c-0.2,0.2-0.3,0.5-0.3,0.9c0,0.3,0.1,0.6,0.2,0.7c0.1,0.1,0.3,0.2,0.6,0.2v1.6c-0.3,0-0.5-0.1-0.8-0.2c-0.2-0.1-0.5-0.3-0.6-0.5
				s-0.3-0.5-0.4-0.8c-0.1-0.3-0.2-0.7-0.2-1.1s0-0.7,0.1-1.1c0.1-0.3,0.2-0.6,0.4-0.9c0.2-0.2,0.4-0.4,0.7-0.6s0.6-0.2,1-0.2h2.7
				c0.3,0,0.6,0,0.8-0.1c0.2,0,0.4-0.1,0.6-0.2h0.1L237.7,379.8L237.7,379.8z M236.5,381.3c0-0.2,0-0.3-0.1-0.5
				c0-0.1-0.1-0.3-0.1-0.4c-0.1-0.1-0.1-0.2-0.2-0.3c-0.1-0.1-0.2-0.1-0.2-0.2h-1.1v0.8c0,0.2,0,0.5,0.1,0.6s0.1,0.3,0.2,0.4
				c0.1,0.1,0.2,0.2,0.3,0.2s0.3,0.1,0.4,0.1c0.2,0,0.4-0.1,0.5-0.2C236.5,381.9,236.5,381.7,236.5,381.3L236.5,381.3z"/>
			<path class="st16" d="M228.6,376.3v-3.5h7.7v-1.9h1.3v5.4h-1.3v-1.9h-6.4v1.9H228.6L228.6,376.3z"/>
			<path class="st16" d="M234.4,356.5v4.9h-1.3v-4.9H234.4L234.4,356.5z"/>
			<path class="st16" d="M237.4,342.2v1.6l-5.5,2.4h5.5v1.7h-8.5v-1.7l5.5-2.4h-5.5v-1.6H237.4L237.4,342.2z"/>
			<path class="st16" d="M234.3,338.9h3.1v1.6h-8.5v-2.9c0-0.5,0.1-0.9,0.2-1.3s0.3-0.7,0.6-1s0.5-0.5,0.9-0.6
				c0.3-0.1,0.7-0.2,1.1-0.2c0.4,0,0.7,0.1,1.1,0.2c0.3,0.1,0.6,0.3,0.8,0.6c0.2,0.3,0.4,0.6,0.6,1s0.2,0.8,0.2,1.3L234.3,338.9
				L234.3,338.9z M233,338.9v-1.3c0-0.2,0-0.4-0.1-0.6s-0.2-0.3-0.3-0.4s-0.3-0.2-0.4-0.3s-0.3-0.1-0.5-0.1s-0.4,0-0.6,0.1
				c-0.2,0.1-0.3,0.1-0.4,0.3c-0.1,0.1-0.2,0.3-0.3,0.4s-0.1,0.4-0.1,0.6v1.3H233L233,338.9z"/>
			<path class="st16" d="M237.4,327.8v1.6l-5.5,2.4h5.5v1.7h-8.5v-1.7l5.5-2.4h-5.5v-1.6H237.4L237.4,327.8z"/>
			<path class="st16" d="M238.1,324.2v1.5l-9.3-3.1v-1.5L238.1,324.2z"/>
			<path class="st16" d="M234.2,317.3h3.1v1.6h-8.5V316c0-0.5,0.1-0.9,0.2-1.3s0.3-0.7,0.6-1c0.2-0.3,0.5-0.5,0.9-0.6
				c0.3-0.1,0.7-0.2,1.1-0.2c0.4,0,0.7,0.1,1.1,0.2c0.3,0.1,0.6,0.3,0.8,0.6c0.2,0.3,0.4,0.6,0.6,1s0.2,0.8,0.2,1.3L234.2,317.3
				L234.2,317.3z M232.9,317.3V316c0-0.2,0-0.4-0.1-0.6s-0.2-0.3-0.3-0.4s-0.3-0.2-0.4-0.3s-0.3-0.1-0.5-0.1s-0.4,0-0.6,0.1
				c-0.2,0.1-0.3,0.1-0.4,0.3c-0.1,0.1-0.2,0.3-0.3,0.4s-0.1,0.4-0.1,0.6v1.3H232.9L232.9,317.3z"/>
			<path class="st16" d="M237.3,306.2v1.6l-5.5,2.4h5.5v1.7h-8.5v-1.7l5.5-2.4h-5.5v-1.6H237.3L237.3,306.2z"/>
			<path class="st16" d="M234.1,302.9h3.1v1.6h-8.5v-2.9c0-0.5,0.1-0.9,0.2-1.3s0.3-0.7,0.6-1c0.2-0.3,0.5-0.5,0.9-0.6
				c0.3-0.1,0.7-0.2,1.1-0.2c0.4,0,0.7,0.1,1.1,0.2c0.3,0.1,0.6,0.3,0.8,0.6c0.2,0.3,0.4,0.6,0.6,1s0.2,0.8,0.2,1.3L234.1,302.9
				L234.1,302.9z M232.8,302.9v-1.3c0-0.2,0-0.4-0.1-0.6s-0.2-0.3-0.3-0.4s-0.3-0.2-0.4-0.3s-0.3-0.1-0.5-0.1s-0.4,0-0.6,0.1
				c-0.2,0.1-0.3,0.1-0.4,0.3c-0.1,0.1-0.2,0.3-0.3,0.4s-0.1,0.4-0.1,0.6v1.3H232.8L232.8,302.9z"/>
			<path class="st16" d="M236,287.3c0-0.2,0-0.3-0.1-0.5c-0.1-0.1-0.1-0.3-0.2-0.4c-0.1-0.1-0.2-0.2-0.3-0.2s-0.3-0.1-0.4-0.1v-1.5
				c0.3,0,0.6,0.1,0.9,0.2c0.3,0.1,0.5,0.3,0.7,0.6s0.4,0.5,0.5,0.9c0.1,0.3,0.2,0.7,0.2,1c0,0.5-0.1,0.9-0.2,1.3s-0.4,0.7-0.7,0.9
				s-0.6,0.4-1,0.6c-0.4,0.1-0.8,0.2-1.2,0.2H234c-0.4,0-0.9-0.1-1.2-0.2s-0.7-0.3-1-0.6c-0.3-0.2-0.5-0.6-0.7-0.9
				c-0.2-0.4-0.3-0.8-0.3-1.3c0-0.4,0.1-0.8,0.2-1.1s0.3-0.6,0.5-0.9s0.5-0.4,0.8-0.6s0.6-0.2,1-0.2v1.5c-0.1,0-0.3,0-0.4,0.1
				c-0.1,0.1-0.3,0.1-0.4,0.2c-0.1,0.1-0.2,0.2-0.2,0.4c-0.1,0.1-0.1,0.3-0.1,0.5c0,0.3,0.1,0.5,0.2,0.6c0.1,0.2,0.2,0.3,0.4,0.4
				s0.4,0.2,0.6,0.2c0.2,0,0.5,0.1,0.7,0.1h0.2c0.2,0,0.5,0,0.7-0.1s0.4-0.1,0.6-0.2c0.2-0.1,0.3-0.2,0.4-0.4
				C235.9,287.9,236,287.6,236,287.3L236,287.3z"/>
			<path class="st16" d="M233.9,283.2c-0.5,0-0.9-0.1-1.3-0.2s-0.7-0.3-1-0.6c-0.3-0.2-0.5-0.6-0.7-0.9c-0.2-0.4-0.2-0.8-0.2-1.3
				s0.1-0.9,0.2-1.3s0.4-0.7,0.7-0.9c0.3-0.3,0.6-0.5,1-0.6s0.8-0.2,1.3-0.2h0.1c0.5,0,0.9,0.1,1.3,0.2c0.4,0.1,0.7,0.3,1,0.6
				s0.5,0.6,0.7,0.9c0.2,0.4,0.2,0.8,0.2,1.3s-0.1,0.9-0.2,1.3c-0.2,0.4-0.4,0.7-0.7,1s-0.6,0.5-1,0.6s-0.8,0.2-1.3,0.2L233.9,283.2
				L233.9,283.2z M234,281.5c0.3,0,0.5,0,0.8-0.1c0.2,0,0.4-0.1,0.6-0.2s0.3-0.2,0.4-0.4c0.1-0.2,0.1-0.4,0.1-0.6s-0.1-0.4-0.2-0.6
				c-0.1-0.2-0.2-0.3-0.4-0.4s-0.4-0.2-0.6-0.2c-0.2,0-0.5-0.1-0.8-0.1h-0.1c-0.3,0-0.5,0-0.7,0.1s-0.4,0.1-0.6,0.2
				s-0.3,0.2-0.4,0.4s-0.1,0.4-0.1,0.6s0.1,0.5,0.2,0.6c0.1,0.2,0.2,0.3,0.4,0.4s0.4,0.2,0.6,0.2s0.5,0.1,0.7,0.1H234L234,281.5z"/>
			<path class="st16" d="M236.2,271.7c0.3,0.2,0.6,0.5,0.8,0.8s0.3,0.6,0.3,1c0,0.3-0.1,0.6-0.1,0.9c-0.1,0.3-0.3,0.5-0.5,0.7
				s-0.5,0.4-0.8,0.5s-0.8,0.2-1.2,0.2h-3.8v-1.6h3.8c0.3,0,0.5,0,0.6-0.1s0.3-0.1,0.4-0.2s0.2-0.2,0.2-0.3s0.1-0.3,0.1-0.5
				c0-0.3-0.1-0.6-0.2-0.8c-0.1-0.2-0.3-0.4-0.5-0.5h-4.4v-1.6h6.3v1.5H236.2L236.2,271.7z"/>
			<path class="st16" d="M230.7,267.1l0.9-0.1c-0.3-0.2-0.6-0.5-0.7-0.8c-0.2-0.3-0.3-0.7-0.3-1.1c0-0.3,0-0.6,0.1-0.9
				s0.2-0.5,0.4-0.7s0.5-0.4,0.8-0.5s0.7-0.2,1.2-0.2h3.9v1.6h-3.9c-0.2,0-0.5,0-0.6,0.1c-0.2,0.1-0.3,0.1-0.4,0.2
				c-0.1,0.1-0.2,0.2-0.2,0.4c0,0.1-0.1,0.3-0.1,0.5c0,0.3,0.1,0.5,0.2,0.7c0.1,0.2,0.3,0.4,0.5,0.5h4.5v1.6h-6.3L230.7,267.1
				L230.7,267.1z"/>
			<path class="st16" d="M229.1,258.4h1.6V256h1.2v2.4h2.7c0.2,0,0.4,0,0.6-0.1c0.1,0,0.3-0.1,0.4-0.2s0.2-0.2,0.2-0.4
				c0-0.1,0.1-0.3,0.1-0.5c0-0.1,0-0.2,0-0.4c0-0.1,0-0.3-0.1-0.4s0-0.2-0.1-0.3c0-0.1,0-0.2-0.1-0.3l1.1-0.2
				c0.1,0.1,0.1,0.2,0.2,0.4s0.1,0.3,0.1,0.5s0.1,0.4,0.1,0.5s0,0.4,0,0.5c0,0.4,0,0.7-0.1,1s-0.2,0.5-0.4,0.7s-0.4,0.4-0.7,0.5
				s-0.7,0.2-1.1,0.2h-2.9v1.5h-1.2v-1.5h-1.6V258.4L229.1,258.4z"/>
			<path class="st16" d="M237.1,251.1c0,0.5-0.1,0.9-0.2,1.3c-0.2,0.4-0.4,0.7-0.6,1c-0.3,0.3-0.6,0.5-1,0.7s-0.8,0.2-1.2,0.2h-0.2
				c-0.5,0-0.9-0.1-1.3-0.2c-0.4-0.1-0.8-0.4-1-0.6c-0.3-0.3-0.5-0.6-0.7-1s-0.2-0.8-0.2-1.2c0-0.5,0.1-0.9,0.2-1.2s0.4-0.7,0.6-0.9
				s0.6-0.4,1-0.6c0.4-0.1,0.8-0.2,1.3-0.2h0.7v4.3c0.2,0,0.4-0.1,0.6-0.2s0.3-0.2,0.5-0.4s0.2-0.3,0.3-0.5s0.1-0.4,0.1-0.6
				c0-0.2,0-0.3-0.1-0.5s-0.1-0.3-0.1-0.5s-0.1-0.3-0.2-0.4s-0.2-0.2-0.3-0.3l0.9-0.8c0.1,0.1,0.3,0.2,0.4,0.4s0.3,0.4,0.4,0.6
				s0.2,0.5,0.3,0.7C237,250.5,237,250.7,237.1,251.1L237.1,251.1z M231.8,251.3c0,0.2,0,0.4,0.1,0.5s0.2,0.3,0.3,0.4
				c0.1,0.1,0.3,0.2,0.4,0.3c0.2,0.1,0.4,0.1,0.6,0.2V250h-0.1c-0.2,0-0.3,0-0.5,0.1s-0.3,0.1-0.4,0.2s-0.2,0.2-0.3,0.4
				S231.8,251.1,231.8,251.3L231.8,251.3z"/>
			<path class="st16" d="M230.5,242.4c0-0.2,0-0.5,0.1-0.7c0-0.2,0.1-0.4,0.1-0.5l1.6,0.2c-0.1,0.2-0.1,0.4-0.1,0.7
				c0,0.2,0,0.4,0,0.6c0,0.5,0.1,0.8,0.3,1.1s0.4,0.5,0.8,0.6h3.8v1.6h-6.3v-1.5l1-0.1c-0.4-0.3-0.6-0.6-0.9-0.9
				S230.5,242.8,230.5,242.4L230.5,242.4z"/>
		</g>
	</g>
	<g id="Layer_1-2_00000155113259460932065240000017591717907805957813_">
		<g>
			
				<linearGradient id="SVGID_00000126296294246237845980000003194839346435454352_" gradientUnits="userSpaceOnUse" x1="544.1832" y1="1824.8002" x2="633.5923" y2="1824.8002" gradientTransform="matrix(1 0 0 1 0 -1504)">
				<stop  offset="0" style="stop-color:#D4D4D4"/>
				<stop  offset="1" style="stop-color:#FFFFFF"/>
			</linearGradient>
			<path style="fill:url(#SVGID_00000126296294246237845980000003194839346435454352_);" d="M633.5,428.1V185.9h-89.2v242.4
				c-0.9,7.2,3.4,14.5,12.9,20c17.4,10,45.7,10,63.2-0.1C629.9,442.6,634.3,435.3,633.5,428.1L633.5,428.1z"/>
			
				<linearGradient id="SVGID_00000178164850635169612170000004757279383923354295_" gradientUnits="userSpaceOnUse" x1="-8518.001" y1="865.8307" x2="-8428.5" y2="865.8307" gradientTransform="matrix(-1 0 0 1 -7884.4004 -679.9243)">
				<stop  offset="0" style="stop-color:#E6E6E6"/>
				<stop  offset="1" style="stop-color:#999999"/>
			</linearGradient>
			<path style="fill:url(#SVGID_00000178164850635169612170000004757279383923354295_);" d="M588.7,160.1
				c24.7-0.1,44.8,11.3,44.9,25.6c0.1,14.3-19.9,25.9-44.6,26.1c-24.7,0.1-44.8-11.3-44.9-25.6C544.1,171.9,564,160.3,588.7,160.1z"
				/>
			
				<linearGradient id="SVGID_00000121237054055451589600000004363307895414369722_" gradientUnits="userSpaceOnUse" x1="-8497.2695" y1="804.5764" x2="-8469.1875" y2="804.5764" gradientTransform="matrix(-1 0 0 1 -7884.3901 -679.87)">
				<stop  offset="0" style="stop-color:#E26558"/>
				<stop  offset="1" style="stop-color:#A8190A"/>
			</linearGradient>
			<path style="fill:url(#SVGID_00000121237054055451589600000004363307895414369722_);" d="M584.8,176.2V64.8h28v111.3
				c0.2,2.2-1.1,4.5-4.1,6.2c-5.5,3.2-14.4,3.2-19.9,0C585.9,180.7,584.6,178.5,584.8,176.2L584.8,176.2z"/>
			<g>
				<path class="st2" d="M568,193.6v0.9C568,194.2,568,193.9,568,193.6z"/>
				<path class="st2" d="M596.1,194.4v-0.9C596.1,193.8,596.1,194.1,596.1,194.4z"/>
				
					<linearGradient id="SVGID_00000075856345191584785550000003340299485151788690_" gradientUnits="userSpaceOnUse" x1="-8480.4688" y1="800.5764" x2="-8419.3984" y2="800.5764" gradientTransform="matrix(-1 0 0 1 -7884.3901 -679.87)">
					<stop  offset="0" style="stop-color:#E26558"/>
					<stop  offset="1" style="stop-color:#A8190A"/>
				</linearGradient>
				<path style="fill:url(#SVGID_00000075856345191584785550000003340299485151788690_);" d="M563,39.5v26.4
					c0,5.5,4.7,13.6,9.5,16.3c13.4,7.7,23.5,25.2,23.5,40.6v70.6v0.9c-0.2,1.9-1.5,3.9-4.1,5.3c-5.5,3.2-14.4,3.2-19.9,0
					c-2.5-1.5-3.9-3.3-4.1-5.3v-0.9v-70.5c0-5.5-4.7-13.6-9.5-16.3C545.1,98.8,535,81.3,535,65.9V39.5H563L563,39.5z"/>
			</g>
			
				<linearGradient id="SVGID_00000164498508971804404330000007321037313423316383_" gradientUnits="userSpaceOnUse" x1="-8447.498" y1="719.3864" x2="-8419.3984" y2="719.3864" gradientTransform="matrix(-1 0 0 1 -7884.3984 -679.9299)">
				<stop  offset="0" style="stop-color:#F0B0A9"/>
				<stop  offset="1" style="stop-color:#A8190A"/>
			</linearGradient>
			<path style="fill:url(#SVGID_00000164498508971804404330000007321037313423316383_);" d="M549,31.4c7.8,0,14.1,3.6,14.1,8
				s-6.3,8.2-14,8.2c-7.8,0-14.1-3.6-14.1-8S541.3,31.4,549,31.4z"/>
			<g>
				<g>
					
						<linearGradient id="SVGID_00000126283897542716772750000012862327333637621680_" gradientUnits="userSpaceOnUse" x1="-8427.4902" y1="717.4764" x2="-8427.4902" y2="717.4764" gradientTransform="matrix(-1 0 0 1 -7884.3901 -679.87)">
						<stop  offset="0" style="stop-color:#E6E6E6"/>
						<stop  offset="1" style="stop-color:#999999"/>
					</linearGradient>
					<path style="fill:url(#SVGID_00000126283897542716772750000012862327333637621680_);" d="M543.1,37.4v0.5
						C543.1,37.8,543.1,37.6,543.1,37.4z"/>
					
						<linearGradient id="SVGID_00000162347298813161773200000012584461950994164641_" gradientUnits="userSpaceOnUse" x1="-8439.3906" y1="717.4764" x2="-8439.3906" y2="717.4764" gradientTransform="matrix(-1 0 0 1 -7884.3901 -679.87)">
						<stop  offset="0" style="stop-color:#E6E6E6"/>
						<stop  offset="1" style="stop-color:#999999"/>
					</linearGradient>
					<path style="fill:url(#SVGID_00000162347298813161773200000012584461950994164641_);" d="M555,37.9v-0.5
						C555,37.6,555,37.7,555,37.9z"/>
					
						<linearGradient id="SVGID_00000093143826808175780110000007088907734053669770_" gradientUnits="userSpaceOnUse" x1="-8439.418" y1="717.4764" x2="-8427.4785" y2="717.4764" gradientTransform="matrix(-1 0 0 1 -7884.3901 -679.87)">
						<stop  offset="0" style="stop-color:#E6E6E6"/>
						<stop  offset="1" style="stop-color:#999999"/>
					</linearGradient>
					<path style="fill:url(#SVGID_00000093143826808175780110000007088907734053669770_);" d="M553.3,40.1c-2.3,1.3-6.1,1.4-8.4,0
						c-1-0.6-1.6-1.4-1.7-2.2v-0.5c0.1-0.8,0.7-1.6,1.7-2.2c2.3-1.3,6.1-1.4,8.4,0c1.1,0.6,1.6,1.4,1.7,2.2v0.5
						C554.9,38.7,554.3,39.5,553.3,40.1L553.3,40.1z"/>
					
						<linearGradient id="SVGID_00000040566502880018582820000007026405290931600796_" gradientUnits="userSpaceOnUse" x1="-8439.3906" y1="704.5328" x2="-8427.4902" y2="704.5328" gradientTransform="matrix(-1 0 0 1 -7884.3901 -679.87)">
						<stop  offset="0" style="stop-color:#FFFFFF"/>
						<stop  offset="1" style="stop-color:#D4D4D4"/>
					</linearGradient>
					<path style="fill:url(#SVGID_00000040566502880018582820000007026405290931600796_);" d="M555,8.3v29.1v0.5
						c-0.1,0.8-0.7,1.6-1.8,2.2c-2.3,1.3-6.1,1.4-8.4,0c-1-0.6-1.6-1.4-1.7-2.2v-0.5V8.3H555L555,8.3z"/>
				</g>
				
					<ellipse transform="matrix(1 -5.410415e-03 5.410415e-03 1 -3.663332e-02 2.971)" class="st10" cx="549.1" cy="8.3" rx="6" ry="3.5"/>
			</g>
			
				<linearGradient id="SVGID_00000000916743253428424740000002544737683695902647_" gradientUnits="userSpaceOnUse" x1="-8497.3008" y1="745.3871" x2="-8469.2002" y2="745.3871" gradientTransform="matrix(-1 0 0 1 -7884.4004 -679.9307)">
				<stop  offset="0" style="stop-color:#F0B0A9"/>
				<stop  offset="1" style="stop-color:#A8190A"/>
			</linearGradient>
			<path style="fill:url(#SVGID_00000000916743253428424740000002544737683695902647_);" d="M598.8,57.4c7.8,0,14.1,3.6,14.1,8
				c0,4.5-6.3,8.2-14,8.2c-7.8,0-14.1-3.6-14.1-8S591,57.4,598.8,57.4z"/>
			<g>
				<g>
					
						<linearGradient id="SVGID_00000036965395405095207970000018316507983661093290_" gradientUnits="userSpaceOnUse" x1="-8477.29" y1="743.4764" x2="-8477.29" y2="743.4764" gradientTransform="matrix(-1 0 0 1 -7884.3901 -679.87)">
						<stop  offset="0" style="stop-color:#E6E6E6"/>
						<stop  offset="1" style="stop-color:#999999"/>
					</linearGradient>
					<path style="fill:url(#SVGID_00000036965395405095207970000018316507983661093290_);" d="M592.9,63.4v0.5
						C592.9,63.7,592.9,63.5,592.9,63.4z"/>
					
						<linearGradient id="SVGID_00000129912006112059347610000001835366619516301696_" gradientUnits="userSpaceOnUse" x1="-8489.1904" y1="743.3764" x2="-8489.1904" y2="743.3764" gradientTransform="matrix(-1 0 0 1 -7884.3901 -679.87)">
						<stop  offset="0" style="stop-color:#E6E6E6"/>
						<stop  offset="1" style="stop-color:#999999"/>
					</linearGradient>
					<path style="fill:url(#SVGID_00000129912006112059347610000001835366619516301696_);" d="M604.8,63.8v-0.5
						C604.8,63.5,604.8,63.7,604.8,63.8z"/>
					
						<linearGradient id="SVGID_00000168826630542614390730000003358029042915046579_" gradientUnits="userSpaceOnUse" x1="-8489.1875" y1="743.3764" x2="-8477.248" y2="743.3764" gradientTransform="matrix(-1 0 0 1 -7884.3901 -679.87)">
						<stop  offset="0" style="stop-color:#E6E6E6"/>
						<stop  offset="1" style="stop-color:#999999"/>
					</linearGradient>
					<path style="fill:url(#SVGID_00000168826630542614390730000003358029042915046579_);" d="M603,66c-2.3,1.3-6.1,1.4-8.4,0
						c-1-0.6-1.6-1.4-1.7-2.2v-0.5c0.1-0.8,0.7-1.6,1.7-2.2c2.3-1.3,6.1-1.4,8.4,0c1.1,0.6,1.6,1.4,1.7,2.2v0.5
						C604.7,64.6,604.1,65.4,603,66L603,66z"/>
					
						<linearGradient id="SVGID_00000045579953116931362740000017202762513112445347_" gradientUnits="userSpaceOnUse" x1="-8489.168" y1="730.5328" x2="-8477.2676" y2="730.5328" gradientTransform="matrix(-1 0 0 1 -7884.3901 -679.87)">
						<stop  offset="0" style="stop-color:#FFFFFF"/>
						<stop  offset="1" style="stop-color:#D4D4D4"/>
					</linearGradient>
					<path style="fill:url(#SVGID_00000045579953116931362740000017202762513112445347_);" d="M604.8,34.3v29.1v0.5
						c-0.1,0.8-0.7,1.6-1.8,2.2c-2.3,1.3-6.1,1.4-8.4,0c-1.1-0.6-1.6-1.4-1.7-2.2v-0.5V34.3H604.8L604.8,34.3z"/>
				</g>
				
					<ellipse transform="matrix(1 -5.410415e-03 5.410415e-03 1 -0.1766 3.2403)" class="st10" cx="598.8" cy="34.3" rx="6" ry="3.4"/>
			</g>
		</g>
		<g>
			<path class="st16" d="M594.2,419.8h-8.5v-2.2c0-0.6,0.1-1.1,0.3-1.5s0.5-0.9,0.8-1.2s0.8-0.6,1.2-0.8c0.5-0.2,1-0.3,1.6-0.3h0.7
				c0.6,0,1.1,0.1,1.6,0.2c0.5,0.2,0.9,0.4,1.2,0.7c0.4,0.3,0.6,0.7,0.8,1.1s0.3,0.9,0.3,1.5V419.8L594.2,419.8z M587,418.2h5.9
				v-0.6c0-0.3-0.1-0.6-0.2-0.8c-0.1-0.2-0.3-0.5-0.5-0.6c-0.2-0.2-0.5-0.3-0.8-0.4c-0.3-0.1-0.7-0.1-1.1-0.1h-0.7
				c-0.4,0-0.7,0-1,0.1s-0.6,0.2-0.8,0.4c-0.2,0.2-0.4,0.4-0.5,0.6c-0.1,0.3-0.2,0.5-0.2,0.9L587,418.2L587,418.2z"/>
			<path class="st16" d="M586.2,410.5c-0.1,0-0.2,0-0.4-0.1c-0.1,0-0.2-0.1-0.3-0.2s-0.1-0.2-0.2-0.3c0-0.1-0.1-0.2-0.1-0.4
				c0-0.3,0.1-0.5,0.2-0.7s0.4-0.3,0.6-0.3c0.2,0,0.5,0.1,0.6,0.2c0.2,0.2,0.2,0.4,0.2,0.7c0,0.1,0,0.3-0.1,0.4
				c0,0.1-0.1,0.2-0.2,0.3c-0.1,0.1-0.2,0.1-0.3,0.2C586.5,410.5,586.3,410.5,586.2,410.5L586.2,410.5z M587.8,412.2v-3.5h5V407h1.3
				v5.2h-1.3v-1.8h-3.7v1.8H587.8L587.8,412.2z"/>
			<path class="st16" d="M590.9,405.5c-0.5,0-0.9,0-1.3-0.2c-0.4-0.1-0.7-0.3-1-0.5c-0.3-0.2-0.5-0.5-0.7-0.8
				c-0.2-0.3-0.2-0.7-0.2-1.1s0.1-0.7,0.2-1c0.1-0.3,0.3-0.5,0.5-0.7l-0.6-0.1v-1.5h6.1c0.4,0,0.8,0.1,1.1,0.2s0.6,0.4,0.9,0.6
				c0.3,0.2,0.4,0.6,0.5,1c0.1,0.4,0.2,0.8,0.2,1.2c0,0.2,0,0.4-0.1,0.6c0,0.2-0.1,0.4-0.2,0.6s-0.2,0.4-0.3,0.6s-0.3,0.4-0.5,0.5
				l-1-0.7c0.2-0.2,0.4-0.4,0.5-0.7s0.2-0.5,0.2-0.9c0-0.5-0.1-0.8-0.4-1.1c-0.3-0.3-0.6-0.4-1-0.4h-0.4c0.2,0.2,0.4,0.4,0.5,0.7
				s0.2,0.5,0.2,0.9s-0.1,0.8-0.2,1.1c-0.2,0.3-0.4,0.6-0.7,0.8c-0.3,0.2-0.6,0.4-1,0.5s-0.8,0.2-1.3,0.2V405.5L590.9,405.5z
				 M591,403.9c0.3,0,0.5,0,0.7-0.1c0.2,0,0.4-0.1,0.6-0.2c0.2-0.1,0.3-0.2,0.4-0.4s0.1-0.4,0.1-0.6c0-0.3-0.1-0.5-0.2-0.7
				c-0.1-0.2-0.3-0.3-0.5-0.4h-2.7c-0.2,0.1-0.4,0.3-0.5,0.5c-0.1,0.2-0.2,0.4-0.2,0.7c0,0.2,0,0.4,0.1,0.6s0.2,0.3,0.4,0.4
				c0.2,0.1,0.4,0.2,0.6,0.2s0.5,0.1,0.8,0.1L591,403.9L591,403.9z"/>
			<path class="st16" d="M586.1,396.1c-0.1,0-0.2,0-0.4-0.1c-0.1,0-0.2-0.1-0.3-0.2s-0.1-0.2-0.2-0.3c0-0.1-0.1-0.2-0.1-0.4
				c0-0.3,0.1-0.5,0.2-0.7c0.1-0.2,0.4-0.3,0.6-0.3s0.5,0.1,0.6,0.2c0.2,0.2,0.2,0.4,0.2,0.7c0,0.1,0,0.3-0.1,0.4
				c0,0.1-0.1,0.2-0.2,0.3c-0.1,0.1-0.2,0.1-0.3,0.2C586.4,396.1,586.3,396.1,586.1,396.1L586.1,396.1z M587.8,397.8v-3.5h5v-1.7
				h1.3v5.2h-1.3v-1.9h-3.7v1.8L587.8,397.8L587.8,397.8z"/>
			<path class="st16" d="M586.2,388h1.6v-2.4h1.2v2.4h2.7c0.2,0,0.4,0,0.6-0.1c0.1,0,0.3-0.1,0.4-0.2c0.1-0.1,0.2-0.2,0.2-0.4
				c0-0.1,0.1-0.3,0.1-0.5c0-0.1,0-0.2,0-0.4c0-0.1,0-0.3,0-0.4s0-0.2-0.1-0.3c0-0.1,0-0.2-0.1-0.3l1.1-0.2c0.1,0.1,0.1,0.2,0.2,0.4
				c0.1,0.2,0.1,0.3,0.1,0.5s0.1,0.4,0.1,0.5c0,0.2,0,0.4,0,0.5c0,0.4,0,0.7-0.1,1s-0.2,0.5-0.4,0.7c-0.2,0.2-0.4,0.4-0.7,0.5
				c-0.3,0.1-0.7,0.2-1.1,0.2h-2.9v1.5h-1.2v-1.5h-1.6L586.2,388L586.2,388z"/>
			<path class="st16" d="M594,379.8c-0.1,0-0.2,0.1-0.3,0.1s-0.2,0-0.3,0.1c0.1,0.1,0.2,0.2,0.3,0.3s0.2,0.2,0.2,0.4
				c0.1,0.1,0.1,0.3,0.2,0.5s0.1,0.4,0.1,0.6c0,0.3,0,0.6-0.1,0.9s-0.2,0.5-0.4,0.7c-0.2,0.2-0.4,0.4-0.6,0.5s-0.5,0.2-0.8,0.2
				c-0.7,0-1.2-0.2-1.6-0.7c-0.4-0.5-0.5-1.2-0.6-2.2v-0.9h-0.4c-0.3,0-0.5,0.1-0.7,0.3c-0.2,0.2-0.3,0.5-0.3,0.9
				c0,0.3,0.1,0.6,0.2,0.7c0.1,0.1,0.3,0.2,0.6,0.2v1.6c-0.3,0-0.5-0.1-0.8-0.2c-0.2-0.1-0.5-0.3-0.6-0.5c-0.1-0.2-0.3-0.5-0.4-0.8
				s-0.2-0.7-0.2-1.1s0-0.7,0.1-1.1c0.1-0.3,0.2-0.6,0.4-0.9s0.4-0.4,0.7-0.6s0.6-0.2,1-0.2h2.7c0.3,0,0.6,0,0.8-0.1
				c0.2,0,0.4-0.1,0.6-0.2h0.1L594,379.8L594,379.8z M592.9,381.3c0-0.2,0-0.3-0.1-0.5c0-0.1-0.1-0.3-0.1-0.4
				c-0.1-0.1-0.1-0.2-0.2-0.3c-0.1-0.1-0.2-0.1-0.2-0.2h-1.1v0.8c0,0.2,0,0.5,0.1,0.6c0.1,0.2,0.1,0.3,0.2,0.4
				c0.1,0.1,0.2,0.2,0.3,0.2c0.1,0,0.3,0.1,0.4,0.1c0.2,0,0.4-0.1,0.5-0.2C592.8,381.9,592.9,381.7,592.9,381.3L592.9,381.3z"/>
			<path class="st16" d="M585,376.3v-3.5h7.7v-1.9h1.3v5.4h-1.3v-1.9h-6.4v1.9H585L585,376.3z"/>
			<path class="st16" d="M590.8,356.5v4.9h-1.3v-4.9H590.8L590.8,356.5z"/>
			<path class="st16" d="M593.8,342.2v1.6l-5.5,2.4h5.5v1.7h-8.5v-1.7l5.5-2.4h-5.5v-1.6H593.8L593.8,342.2z"/>
			<path class="st16" d="M590.7,338.9h3.1v1.6h-8.5v-2.9c0-0.5,0.1-0.9,0.2-1.3c0.1-0.4,0.3-0.7,0.6-1s0.5-0.5,0.9-0.6
				c0.3-0.1,0.7-0.2,1.1-0.2s0.7,0.1,1.1,0.2c0.3,0.1,0.6,0.3,0.8,0.6c0.2,0.3,0.4,0.6,0.6,1c0.1,0.4,0.2,0.8,0.2,1.3v1.3H590.7z
				 M589.3,338.9v-1.3c0-0.2,0-0.4-0.1-0.6c-0.1-0.2-0.2-0.3-0.3-0.4s-0.3-0.2-0.4-0.3s-0.3-0.1-0.5-0.1s-0.4,0-0.6,0.1
				c-0.2,0.1-0.3,0.1-0.5,0.3c-0.2,0.2-0.2,0.3-0.3,0.4s-0.1,0.4-0.1,0.6v1.3H589.3L589.3,338.9z"/>
			<path class="st16" d="M593.7,327.8v1.6l-5.5,2.4h5.5v1.7h-8.5v-1.7l5.5-2.4h-5.5v-1.6H593.7L593.7,327.8z"/>
			<path class="st16" d="M594.4,324.2v1.5l-9.3-3.1v-1.5L594.4,324.2z"/>
			<path class="st16" d="M590.5,317.3h3.1v1.6h-8.5V316c0-0.5,0.1-0.9,0.2-1.3c0.1-0.4,0.3-0.7,0.6-1c0.2-0.3,0.5-0.5,0.9-0.6
				c0.3-0.1,0.7-0.2,1.1-0.2s0.7,0.1,1.1,0.2c0.3,0.1,0.6,0.3,0.8,0.6c0.2,0.3,0.4,0.6,0.6,1c0.1,0.4,0.2,0.8,0.2,1.3v1.3H590.5z
				 M589.2,317.3V316c0-0.2,0-0.4-0.1-0.6c-0.1-0.2-0.2-0.3-0.3-0.4s-0.3-0.2-0.4-0.3s-0.3-0.1-0.5-0.1s-0.4,0-0.6,0.1
				c-0.2,0.1-0.3,0.1-0.5,0.3c-0.2,0.2-0.2,0.3-0.3,0.4s-0.1,0.4-0.1,0.6v1.3H589.2L589.2,317.3z"/>
			<path class="st16" d="M593.6,306.2v1.6l-5.5,2.4h5.5v1.7h-8.5v-1.7l5.5-2.4h-5.5v-1.6H593.6L593.6,306.2z"/>
			<path class="st16" d="M590.5,302.9h3.1v1.6h-8.5v-2.9c0-0.5,0.1-0.9,0.2-1.3c0.1-0.4,0.3-0.7,0.6-1c0.2-0.3,0.5-0.5,0.9-0.6
				c0.3-0.1,0.7-0.2,1.1-0.2s0.7,0.1,1.1,0.2c0.3,0.1,0.6,0.3,0.8,0.6c0.2,0.3,0.4,0.6,0.6,1c0.1,0.4,0.2,0.8,0.2,1.3L590.5,302.9
				L590.5,302.9z M589.1,302.9v-1.3c0-0.2,0-0.4-0.1-0.6s-0.2-0.3-0.3-0.4s-0.3-0.2-0.4-0.3c-0.1-0.1-0.3-0.1-0.5-0.1
				c-0.2,0-0.4,0-0.6,0.1s-0.3,0.1-0.4,0.3c-0.1,0.1-0.2,0.3-0.3,0.4s-0.1,0.4-0.1,0.6v1.3H589.1L589.1,302.9z"/>
			<path class="st16" d="M592.3,287.3c0-0.2,0-0.3-0.1-0.5c0-0.1-0.1-0.3-0.2-0.4c-0.1-0.1-0.2-0.2-0.3-0.2s-0.3-0.1-0.4-0.1v-1.5
				c0.3,0,0.6,0.1,0.9,0.2c0.3,0.1,0.5,0.3,0.7,0.6c0.2,0.2,0.4,0.5,0.5,0.9c0.1,0.3,0.2,0.7,0.2,1c0,0.5-0.1,0.9-0.2,1.3
				c-0.1,0.4-0.4,0.7-0.7,0.9c-0.3,0.2-0.6,0.4-1,0.6c-0.4,0.1-0.8,0.2-1.2,0.2h-0.2c-0.5,0-0.9-0.1-1.2-0.2c-0.4-0.1-0.7-0.3-1-0.6
				c-0.3-0.2-0.5-0.6-0.7-0.9c-0.2-0.4-0.3-0.8-0.3-1.3c0-0.4,0-0.8,0.2-1.1c0.2-0.3,0.3-0.6,0.5-0.9c0.2-0.2,0.5-0.4,0.8-0.6
				c0.3-0.1,0.6-0.2,1-0.2v1.5c-0.1,0-0.3,0-0.4,0.1s-0.3,0.1-0.4,0.2c-0.1,0.1-0.2,0.2-0.2,0.4s-0.1,0.3-0.1,0.5
				c0,0.3,0.1,0.5,0.2,0.6c0.1,0.2,0.2,0.3,0.4,0.4c0.2,0.1,0.4,0.2,0.6,0.2s0.5,0.1,0.7,0.1h0.2c0.2,0,0.5,0,0.7-0.1
				s0.4-0.1,0.6-0.2c0.2-0.1,0.3-0.2,0.4-0.4C592.3,287.9,592.3,287.6,592.3,287.3L592.3,287.3z"/>
			<path class="st16" d="M590.3,283.2c-0.5,0-0.9-0.1-1.3-0.2s-0.7-0.3-1-0.6c-0.3-0.2-0.5-0.6-0.7-0.9c-0.2-0.4-0.2-0.8-0.2-1.3
				s0.1-0.9,0.2-1.3s0.4-0.7,0.7-0.9c0.3-0.3,0.6-0.5,1-0.6s0.8-0.2,1.3-0.2h0.1c0.5,0,0.9,0.1,1.3,0.2c0.4,0.1,0.7,0.3,1,0.6
				c0.3,0.2,0.5,0.6,0.7,0.9c0.2,0.3,0.2,0.8,0.2,1.3s-0.1,0.9-0.2,1.3c-0.2,0.4-0.4,0.7-0.7,1c-0.3,0.3-0.6,0.5-1,0.6
				c-0.4,0.1-0.8,0.2-1.3,0.2L590.3,283.2L590.3,283.2z M590.4,281.5c0.3,0,0.5,0,0.8-0.1c0.2,0,0.4-0.1,0.6-0.2s0.3-0.2,0.4-0.4
				c0.1-0.2,0.1-0.4,0.1-0.6s0-0.4-0.2-0.6c-0.1-0.2-0.2-0.3-0.4-0.4c-0.2-0.1-0.4-0.2-0.6-0.2s-0.5-0.1-0.8-0.1h-0.1
				c-0.3,0-0.5,0-0.7,0.1c-0.2,0-0.4,0.1-0.6,0.2s-0.3,0.2-0.4,0.4c-0.1,0.2-0.1,0.4-0.1,0.6s0.1,0.5,0.2,0.6
				c0.1,0.2,0.2,0.3,0.4,0.4c0.2,0.1,0.4,0.2,0.6,0.2s0.5,0.1,0.7,0.1H590.4L590.4,281.5z"/>
			<path class="st16" d="M592.5,271.7c0.3,0.2,0.6,0.5,0.8,0.8s0.3,0.6,0.3,1c0,0.3-0.1,0.6-0.1,0.9c-0.1,0.3-0.3,0.5-0.5,0.7
				c-0.2,0.2-0.5,0.4-0.8,0.5c-0.3,0.1-0.8,0.2-1.2,0.2h-3.8v-1.6h3.8c0.3,0,0.5,0,0.6-0.1s0.3-0.1,0.4-0.2c0.1-0.1,0.2-0.2,0.2-0.3
				c0-0.1,0.1-0.3,0.1-0.5c0-0.3-0.1-0.6-0.2-0.8c-0.1-0.2-0.3-0.4-0.5-0.5h-4.4v-1.6h6.3v1.5H592.5L592.5,271.7z"/>
			<path class="st16" d="M587.1,267.1l0.9-0.1c-0.3-0.2-0.6-0.5-0.7-0.8c-0.2-0.3-0.3-0.7-0.3-1.1c0-0.3,0-0.6,0.1-0.9
				c0.1-0.3,0.2-0.5,0.4-0.7c0.2-0.2,0.5-0.4,0.8-0.5s0.7-0.2,1.2-0.2h3.9v1.6h-3.9c-0.2,0-0.5,0-0.6,0.1c-0.1,0.1-0.3,0.1-0.4,0.2
				s-0.2,0.2-0.2,0.4c0,0.1,0,0.3,0,0.5c0,0.3,0.1,0.5,0.2,0.7s0.3,0.4,0.5,0.5h4.5v1.6h-6.3L587.1,267.1L587.1,267.1z"/>
			<path class="st16" d="M585.5,258.4h1.5V256h1.2v2.4h2.7c0.2,0,0.4,0,0.6-0.1c0.1,0,0.3-0.1,0.4-0.2s0.2-0.2,0.2-0.4
				c0-0.1,0.1-0.3,0.1-0.5c0-0.1,0-0.2,0-0.4c0-0.1,0-0.3-0.1-0.4c0-0.1,0-0.2-0.1-0.3c0-0.1,0-0.2-0.1-0.3l1.1-0.2
				c0.1,0.1,0.1,0.2,0.2,0.4c0,0.1,0.1,0.3,0.1,0.5s0.1,0.4,0.1,0.5c0,0.2,0,0.4,0,0.5c0,0.4,0,0.7-0.1,1s-0.2,0.5-0.4,0.7
				c-0.2,0.2-0.4,0.4-0.7,0.5c-0.3,0.1-0.7,0.2-1.1,0.2h-2.9v1.5H587v-1.5h-1.6L585.5,258.4L585.5,258.4z"/>
			<path class="st16" d="M593.4,251.1c0,0.5-0.1,0.9-0.2,1.3c-0.2,0.4-0.4,0.7-0.6,1c-0.3,0.3-0.6,0.5-1,0.7s-0.8,0.2-1.2,0.2h-0.2
				c-0.5,0-0.9-0.1-1.3-0.2s-0.8-0.4-1-0.6c-0.3-0.3-0.5-0.6-0.7-1s-0.2-0.8-0.2-1.2c0-0.5,0.1-0.9,0.2-1.2s0.4-0.7,0.6-0.9
				c0.3-0.2,0.6-0.4,1-0.6c0.4-0.2,0.8-0.2,1.3-0.2h0.7v4.3c0.2,0,0.4-0.1,0.6-0.2s0.3-0.2,0.5-0.4s0.2-0.3,0.3-0.5s0.1-0.4,0.1-0.6
				c0-0.2,0-0.3-0.1-0.5s-0.1-0.3-0.1-0.5s-0.1-0.3-0.2-0.4c-0.1-0.1-0.2-0.2-0.3-0.3l0.9-0.8c0.1,0.1,0.3,0.2,0.4,0.4
				c0.1,0.2,0.3,0.4,0.4,0.6c0.1,0.2,0.2,0.5,0.3,0.7C593.4,250.5,593.4,250.7,593.4,251.1L593.4,251.1z M588.2,251.3
				c0,0.2,0,0.4,0.1,0.5c0.1,0.1,0.2,0.3,0.3,0.4c0.1,0.1,0.3,0.2,0.4,0.3c0.2,0.1,0.4,0.1,0.6,0.2V250h-0.1c-0.2,0-0.3,0-0.5,0.1
				s-0.3,0.1-0.4,0.2c-0.1,0.1-0.2,0.2-0.3,0.4S588.2,251.1,588.2,251.3L588.2,251.3z"/>
			<path class="st16" d="M586.8,242.4c0-0.2,0-0.5,0-0.7s0.1-0.4,0.1-0.5l1.6,0.2c-0.1,0.2-0.1,0.4-0.1,0.7c0,0.2,0,0.4,0,0.6
				c0,0.5,0.1,0.8,0.3,1.1c0.2,0.3,0.4,0.5,0.8,0.6h3.8v1.6H587v-1.5l1-0.1c-0.4-0.3-0.6-0.6-0.9-0.9
				C586.9,243.2,586.8,242.8,586.8,242.4L586.8,242.4z"/>
		</g>
	</g>
	<g id="Layer_1-2_00000047753272836872372380000012096450194710050201_">
		<g>
			
				<linearGradient id="SVGID_00000096771884397948725360000002901371093323999360_" gradientUnits="userSpaceOnUse" x1="30.7832" y1="1858.2001" x2="120.2147" y2="1858.2001" gradientTransform="matrix(1 0 0 1 0 -1504)">
				<stop  offset="0" style="stop-color:#D4D4D4"/>
				<stop  offset="1" style="stop-color:#FFFFFF"/>
			</linearGradient>
			<path style="fill:url(#SVGID_00000096771884397948725360000002901371093323999360_);" d="M120.1,461.5V219.3H30.9v242.4
				c-0.9,7.2,3.4,14.5,12.9,20c17.4,10,45.7,10,63.2-0.1C116.6,476,121,468.7,120.1,461.5L120.1,461.5z"/>
			
				<linearGradient id="SVGID_00000076567438251203005370000011633875536538139048_" gradientUnits="userSpaceOnUse" x1="-8004.7007" y1="899.2306" x2="-7915.2002" y2="899.2306" gradientTransform="matrix(-1 0 0 1 -7884.4004 -679.9243)">
				<stop  offset="0" style="stop-color:#E6E6E6"/>
				<stop  offset="1" style="stop-color:#999999"/>
			</linearGradient>
			<path style="fill:url(#SVGID_00000076567438251203005370000011633875536538139048_);" d="M75.4,193.5
				c24.7-0.1,44.8,11.3,44.9,25.6c0.1,14.3-19.9,25.9-44.6,26.1c-24.7,0.1-44.8-11.3-44.9-25.6C30.7,205.3,50.7,193.7,75.4,193.5z"
				/>
			
				<linearGradient id="SVGID_00000111191025278362117330000001839483677518704806_" gradientUnits="userSpaceOnUse" x1="-7984.9209" y1="837.9763" x2="-7956.8389" y2="837.9763" gradientTransform="matrix(-1 0 0 1 -7884.3901 -679.87)">
				<stop  offset="0" style="stop-color:#E26558"/>
				<stop  offset="1" style="stop-color:#A8190A"/>
			</linearGradient>
			<path style="fill:url(#SVGID_00000111191025278362117330000001839483677518704806_);" d="M72.5,209.6V98.2h28.1v111.3
				c0.2,2.2-1.1,4.5-4.1,6.2c-5.5,3.2-14.4,3.2-19.9,0C73.6,214.1,72.3,211.9,72.5,209.6L72.5,209.6z"/>
			<g>
				<path class="st2" d="M55.7,227v0.9C55.7,227.6,55.7,227.3,55.7,227z"/>
				<path class="st2" d="M83.7,227.8v-0.9C83.8,227.2,83.8,227.5,83.7,227.8z"/>
				
					<linearGradient id="SVGID_00000180364733964017941420000015649533788538773431_" gradientUnits="userSpaceOnUse" x1="-7968.0903" y1="834.0262" x2="-7906.9902" y2="834.0262" gradientTransform="matrix(-1 0 0 1 -7884.3901 -679.87)">
					<stop  offset="0" style="stop-color:#E26558"/>
					<stop  offset="1" style="stop-color:#A8190A"/>
				</linearGradient>
				<path style="fill:url(#SVGID_00000180364733964017941420000015649533788538773431_);" d="M50.7,72.9v26.4
					c0,5.5,4.7,13.6,9.5,16.3c13.4,7.7,23.5,25.2,23.5,40.6v70.7v0.9c-0.2,1.9-1.5,3.9-4.1,5.3c-5.5,3.2-14.4,3.2-19.9,0
					c-2.5-1.5-3.9-3.3-4.1-5.3v-0.9v-70.7c0-5.5-4.7-13.6-9.5-16.3c-13.4-7.7-23.5-25.2-23.5-40.6V72.9H50.7L50.7,72.9z"/>
			</g>
			
				<linearGradient id="SVGID_00000164514130778807387980000015484510525873922453_" gradientUnits="userSpaceOnUse" x1="-7935.1699" y1="752.7862" x2="-7907.0688" y2="752.7862" gradientTransform="matrix(-1 0 0 1 -7884.3984 -679.9299)">
				<stop  offset="0" style="stop-color:#F0B0A9"/>
				<stop  offset="1" style="stop-color:#A8190A"/>
			</linearGradient>
			<path style="fill:url(#SVGID_00000164514130778807387980000015484510525873922453_);" d="M36.7,64.8c7.8,0,14.1,3.6,14.1,8
				c0,4.5-6.3,8.2-14,8.2s-14.1-3.6-14.1-8C22.6,68.5,28.9,64.8,36.7,64.8z"/>
			<g>
				<g>
					
						<linearGradient id="SVGID_00000168088012204266733210000010324348471760171666_" gradientUnits="userSpaceOnUse" x1="-7927.0698" y1="750.8763" x2="-7915.1299" y2="750.8763" gradientTransform="matrix(-1 0 0 1 -7884.3901 -679.87)">
						<stop  offset="0" style="stop-color:#E6E6E6"/>
						<stop  offset="1" style="stop-color:#999999"/>
					</linearGradient>
					<path style="fill:url(#SVGID_00000168088012204266733210000010324348471760171666_);" d="M30.8,70.8v0.5
						C30.7,71.2,30.7,71,30.8,70.8z"/>
					
						<linearGradient id="SVGID_00000163058963346516451790000003259387389425103007_" gradientUnits="userSpaceOnUse" x1="-7927.0903" y1="750.8763" x2="-7927.0903" y2="750.8763" gradientTransform="matrix(-1 0 0 1 -7884.3901 -679.87)">
						<stop  offset="0" style="stop-color:#E6E6E6"/>
						<stop  offset="1" style="stop-color:#999999"/>
					</linearGradient>
					<path style="fill:url(#SVGID_00000163058963346516451790000003259387389425103007_);" d="M42.7,71.3v-0.5
						C42.7,71,42.7,71.1,42.7,71.3z"/>
					
						<linearGradient id="SVGID_00000011753835732549354150000010505359745607977875_" gradientUnits="userSpaceOnUse" x1="-7927.0698" y1="750.8763" x2="-7915.1299" y2="750.8763" gradientTransform="matrix(-1 0 0 1 -7884.3901 -679.87)">
						<stop  offset="0" style="stop-color:#E6E6E6"/>
						<stop  offset="1" style="stop-color:#999999"/>
					</linearGradient>
					<path style="fill:url(#SVGID_00000011753835732549354150000010505359745607977875_);" d="M40.9,73.5c-2.3,1.3-6.1,1.4-8.4,0
						c-1.1-0.6-1.6-1.4-1.7-2.2v-0.5c0.1-0.8,0.7-1.6,1.7-2.2c2.3-1.3,6.1-1.4,8.4,0c1.1,0.6,1.6,1.4,1.7,2.2v0.5
						C42.6,72.1,42,72.9,40.9,73.5L40.9,73.5z"/>
					
						<linearGradient id="SVGID_00000102525608893382349160000008288217700973085327_" gradientUnits="userSpaceOnUse" x1="-7927.0503" y1="737.9327" x2="-7915.1504" y2="737.9327" gradientTransform="matrix(-1 0 0 1 -7884.3901 -679.87)">
						<stop  offset="0" style="stop-color:#FFFFFF"/>
						<stop  offset="1" style="stop-color:#D4D4D4"/>
					</linearGradient>
					<path style="fill:url(#SVGID_00000102525608893382349160000008288217700973085327_);" d="M42.7,41.7v29.1v0.5
						c-0.1,0.8-0.7,1.6-1.8,2.2c-2.3,1.3-6.1,1.4-8.4,0c-1.1-0.6-1.6-1.4-1.7-2.2v-0.5V41.7H42.7L42.7,41.7z"/>
				</g>
				
					<ellipse transform="matrix(1 -5.410415e-03 5.410415e-03 1 -0.2248 0.1992)" class="st10" cx="36.7" cy="41.7" rx="6" ry="3.5"/>
			</g>
			
				<linearGradient id="SVGID_00000030485450362721943360000015171485058140106624_" gradientUnits="userSpaceOnUse" x1="-7984.9414" y1="778.7869" x2="-7956.8413" y2="778.7869" gradientTransform="matrix(-1 0 0 1 -7884.4004 -679.9307)">
				<stop  offset="0" style="stop-color:#F0B0A9"/>
				<stop  offset="1" style="stop-color:#A8190A"/>
			</linearGradient>
			<path style="fill:url(#SVGID_00000030485450362721943360000015171485058140106624_);" d="M86.4,90.8c7.8,0,14.1,3.6,14.1,8
				c0,4.5-6.3,8.2-14,8.2c-7.8,0-14.1-3.6-14.1-8C72.4,94.5,78.7,90.8,86.4,90.8z"/>
			<g>
				<g>
					
						<linearGradient id="SVGID_00000176015276021416598140000001698222682056434059_" gradientUnits="userSpaceOnUse" x1="-7964.8901" y1="776.8763" x2="-7964.8901" y2="776.8763" gradientTransform="matrix(-1 0 0 1 -7884.3901 -679.87)">
						<stop  offset="0" style="stop-color:#E6E6E6"/>
						<stop  offset="1" style="stop-color:#999999"/>
					</linearGradient>
					<path style="fill:url(#SVGID_00000176015276021416598140000001698222682056434059_);" d="M80.5,96.8v0.5
						C80.5,97.1,80.5,96.9,80.5,96.8z"/>
					
						<linearGradient id="SVGID_00000118372684463125919710000001580728303035097256_" gradientUnits="userSpaceOnUse" x1="-7976.8398" y1="776.7762" x2="-7964.8999" y2="776.7762" gradientTransform="matrix(-1 0 0 1 -7884.3901 -679.87)">
						<stop  offset="0" style="stop-color:#E6E6E6"/>
						<stop  offset="1" style="stop-color:#999999"/>
					</linearGradient>
					<path style="fill:url(#SVGID_00000118372684463125919710000001580728303035097256_);" d="M92.4,97.2v-0.5
						C92.5,96.9,92.5,97.1,92.4,97.2z"/>
					
						<linearGradient id="SVGID_00000102541082896959421310000013592279761389314972_" gradientUnits="userSpaceOnUse" x1="-7976.8398" y1="776.7762" x2="-7964.8999" y2="776.7762" gradientTransform="matrix(-1 0 0 1 -7884.3901 -679.87)">
						<stop  offset="0" style="stop-color:#E6E6E6"/>
						<stop  offset="1" style="stop-color:#999999"/>
					</linearGradient>
					<path style="fill:url(#SVGID_00000102541082896959421310000013592279761389314972_);" d="M90.7,99.4c-2.3,1.3-6.1,1.4-8.4,0
						c-1.1-0.6-1.6-1.4-1.7-2.2v-0.5c0.1-0.8,0.7-1.6,1.7-2.2c2.3-1.3,6.1-1.4,8.4,0c1.1,0.6,1.6,1.4,1.7,2.2v0.5
						C92.3,98,91.8,98.8,90.7,99.4L90.7,99.4z"/>
					
						<linearGradient id="SVGID_00000089536861058506263130000014356851830793327029_" gradientUnits="userSpaceOnUse" x1="-7976.8198" y1="763.9327" x2="-7964.9199" y2="763.9327" gradientTransform="matrix(-1 0 0 1 -7884.3901 -679.87)">
						<stop  offset="0" style="stop-color:#FFFFFF"/>
						<stop  offset="1" style="stop-color:#D4D4D4"/>
					</linearGradient>
					<path style="fill:url(#SVGID_00000089536861058506263130000014356851830793327029_);" d="M92.4,67.7v29.1v0.5
						c-0.1,0.8-0.7,1.6-1.8,2.2c-2.3,1.3-6.1,1.4-8.4,0c-1.1-0.6-1.6-1.4-1.7-2.2v-0.5V67.7H92.4L92.4,67.7z"/>
				</g>
				<ellipse transform="matrix(1 -5.410415e-03 5.410415e-03 1 -0.3648 0.469)" class="st10" cx="86.5" cy="67.7" rx="6" ry="3.4"/>
			</g>
		</g>
		<g>
			<path class="st16" d="M80.9,453.2h-8.5V451c0-0.6,0.1-1.1,0.3-1.5s0.5-0.9,0.8-1.2s0.8-0.6,1.2-0.8c0.5-0.2,1-0.3,1.6-0.3H77
				c0.6,0,1.1,0.1,1.6,0.2s0.9,0.4,1.2,0.7c0.4,0.3,0.6,0.7,0.8,1.1s0.3,0.9,0.3,1.5V453.2L80.9,453.2z M73.7,451.6h5.9V451
				c0-0.3-0.1-0.6-0.2-0.8c-0.1-0.2-0.3-0.5-0.5-0.6c-0.2-0.2-0.5-0.3-0.8-0.4s-0.7-0.1-1.1-0.1h-0.7c-0.4,0-0.7,0-1,0.1
				s-0.6,0.2-0.8,0.4s-0.4,0.4-0.5,0.6s-0.2,0.5-0.2,0.9L73.7,451.6L73.7,451.6z"/>
			<path class="st16" d="M72.9,443.9c-0.1,0-0.2,0-0.4-0.1c-0.1,0-0.2-0.1-0.3-0.2s-0.1-0.2-0.2-0.3c0-0.1-0.1-0.2-0.1-0.4
				c0-0.3,0.1-0.5,0.2-0.7s0.4-0.3,0.6-0.3s0.5,0.1,0.6,0.2s0.2,0.4,0.2,0.7c0,0.1,0,0.3-0.1,0.4s-0.1,0.2-0.2,0.3s-0.2,0.1-0.3,0.2
				C73.1,443.9,73,443.9,72.9,443.9L72.9,443.9z M74.5,445.6v-3.5h5v-1.7h1.3v5.2h-1.3v-1.8h-3.7v1.8H74.5L74.5,445.6z"/>
			<path class="st16" d="M77.6,438.9c-0.5,0-0.9,0-1.3-0.2c-0.4-0.1-0.7-0.3-1-0.5s-0.5-0.5-0.7-0.8s-0.2-0.7-0.2-1.1s0.1-0.7,0.2-1
				s0.3-0.5,0.5-0.7l-0.6-0.1V433h6.1c0.4,0,0.8,0.1,1.1,0.2s0.6,0.4,0.9,0.6s0.4,0.6,0.5,1s0.2,0.8,0.2,1.2c0,0.2,0,0.4-0.1,0.6
				s-0.1,0.4-0.2,0.6s-0.2,0.4-0.3,0.6s-0.3,0.4-0.4,0.5l-1-0.7c0.2-0.2,0.4-0.4,0.5-0.7s0.2-0.5,0.2-0.9c0-0.5-0.1-0.8-0.4-1.1
				s-0.6-0.4-1-0.4h-0.4c0.2,0.2,0.4,0.4,0.5,0.7s0.2,0.5,0.2,0.9s-0.1,0.8-0.2,1.1c-0.2,0.3-0.4,0.6-0.7,0.8
				c-0.3,0.2-0.6,0.4-1,0.5s-0.8,0.2-1.3,0.2L77.6,438.9L77.6,438.9z M77.7,437.3c0.3,0,0.5,0,0.7-0.1c0.2,0,0.4-0.1,0.6-0.2
				s0.3-0.2,0.4-0.4c0.1-0.2,0.1-0.4,0.1-0.6c0-0.3-0.1-0.5-0.2-0.7s-0.3-0.3-0.5-0.4h-2.7c-0.2,0.1-0.4,0.3-0.5,0.5
				s-0.2,0.4-0.2,0.7c0,0.2,0.1,0.4,0.1,0.6c0.1,0.2,0.2,0.3,0.4,0.4c0.2,0.1,0.4,0.2,0.6,0.2s0.5,0.1,0.8,0.1L77.7,437.3
				L77.7,437.3z"/>
			<path class="st16" d="M72.8,429.5c-0.1,0-0.2,0-0.4-0.1c-0.1,0-0.2-0.1-0.3-0.2c-0.1-0.1-0.1-0.2-0.2-0.3c0-0.1-0.1-0.2-0.1-0.4
				c0-0.3,0.1-0.5,0.2-0.7s0.4-0.3,0.6-0.3s0.5,0.1,0.6,0.2c0.2,0.2,0.2,0.4,0.2,0.7c0,0.1,0,0.3-0.1,0.4c0,0.1-0.1,0.2-0.2,0.3
				c-0.1,0.1-0.2,0.1-0.3,0.2C73,429.5,72.9,429.5,72.8,429.5L72.8,429.5z M74.4,431.2v-3.5h5V426h1.3v5.2h-1.3v-1.8h-3.7v1.8H74.4
				L74.4,431.2z"/>
			<path class="st16" d="M72.8,421.4h1.6V419h1.2v2.4h2.7c0.2,0,0.4,0,0.6-0.1c0.1,0,0.3-0.1,0.4-0.2s0.2-0.2,0.2-0.4
				c0-0.1,0.1-0.3,0.1-0.5c0-0.1,0-0.2,0-0.4c0-0.1,0-0.3-0.1-0.4s0-0.2-0.1-0.3s0-0.2-0.1-0.3l1.1-0.2c0.1,0.1,0.1,0.2,0.2,0.4
				c0.1,0.1,0.1,0.3,0.1,0.5s0.1,0.4,0.1,0.5s0,0.4,0,0.5c0,0.4,0,0.7-0.1,1s-0.2,0.5-0.4,0.7s-0.4,0.4-0.7,0.5
				c-0.3,0.1-0.7,0.2-1.1,0.2h-2.9v1.5h-1.2v-1.5h-1.6L72.8,421.4L72.8,421.4z"/>
			<path class="st16" d="M80.7,413.2c-0.1,0-0.2,0.1-0.3,0.1s-0.2,0-0.3,0.1c0.1,0.1,0.2,0.2,0.3,0.3s0.2,0.2,0.2,0.4
				c0.1,0.1,0.1,0.3,0.2,0.5c0,0.2,0.1,0.4,0.1,0.6c0,0.3,0,0.6-0.1,0.9s-0.2,0.5-0.4,0.7c-0.2,0.2-0.4,0.4-0.6,0.5
				s-0.5,0.2-0.8,0.2c-0.7,0-1.2-0.2-1.6-0.7s-0.6-1.2-0.6-2.2v-0.9h-0.4c-0.3,0-0.6,0.1-0.7,0.3c-0.2,0.2-0.3,0.5-0.3,0.9
				c0,0.3,0.1,0.6,0.2,0.7s0.3,0.2,0.6,0.2v1.6c-0.3,0-0.5-0.1-0.8-0.2c-0.2-0.1-0.5-0.3-0.6-0.5s-0.3-0.5-0.4-0.8s-0.2-0.7-0.2-1.1
				s0-0.7,0.1-1.1c0.1-0.3,0.2-0.6,0.4-0.9c0.2-0.2,0.4-0.4,0.7-0.6s0.6-0.2,1-0.2h2.7c0.3,0,0.6,0,0.8-0.1c0.2,0,0.4-0.1,0.6-0.2
				h0.1L80.7,413.2L80.7,413.2z M79.6,414.7c0-0.2,0-0.3-0.1-0.5c0-0.1-0.1-0.3-0.1-0.4c-0.1-0.1-0.1-0.2-0.2-0.3
				c-0.1-0.1-0.2-0.1-0.2-0.2h-1.1v0.8c0,0.2,0,0.5,0.1,0.6s0.1,0.3,0.2,0.4s0.2,0.2,0.3,0.2c0.1,0,0.3,0.1,0.4,0.1
				c0.2,0,0.4-0.1,0.5-0.2C79.5,415.3,79.6,415.1,79.6,414.7L79.6,414.7z"/>
			<path class="st16" d="M71.7,409.7v-3.5h7.7v-1.8h1.3v5.4h-1.3v-1.9H73v1.9L71.7,409.7L71.7,409.7z"/>
			<path class="st16" d="M77.4,389.9v4.9h-1.3v-4.9H77.4L77.4,389.9z"/>
			<path class="st16" d="M80.5,375.6v1.6l-5.5,2.4h5.5v1.7H72v-1.7l5.5-2.4H72v-1.6H80.5L80.5,375.6z"/>
			<path class="st16" d="M77.3,372.3h3.1v1.6h-8.5V371c0-0.5,0.1-0.9,0.2-1.3s0.3-0.7,0.6-1s0.5-0.5,0.9-0.6
				c0.3-0.1,0.7-0.2,1.1-0.2s0.7,0.1,1.1,0.2c0.3,0.1,0.6,0.3,0.8,0.6c0.2,0.3,0.4,0.6,0.6,1s0.2,0.8,0.2,1.3L77.3,372.3L77.3,372.3
				z M76,372.3V371c0-0.2,0-0.4-0.1-0.6s-0.2-0.3-0.3-0.4s-0.3-0.2-0.4-0.3s-0.3-0.1-0.5-0.1s-0.4,0-0.6,0.1s-0.3,0.1-0.4,0.3
				c-0.1,0.1-0.2,0.3-0.3,0.4s-0.1,0.4-0.1,0.6v1.3H76L76,372.3z"/>
			<path class="st16" d="M80.4,361.2v1.6l-5.5,2.4h5.5v1.7h-8.5v-1.7l5.5-2.4h-5.5v-1.6H80.4L80.4,361.2z"/>
			<path class="st16" d="M81.1,357.6v1.5l-9.3-3.1v-1.5L81.1,357.6z"/>
			<path class="st16" d="M77.2,350.7h3.1v1.6h-8.5v-2.9c0-0.5,0.1-0.9,0.2-1.3s0.3-0.7,0.6-1c0.2-0.3,0.5-0.5,0.9-0.6
				c0.3-0.1,0.7-0.2,1.1-0.2s0.7,0.1,1.1,0.2c0.3,0.1,0.6,0.3,0.8,0.6c0.2,0.3,0.4,0.6,0.6,1s0.2,0.8,0.2,1.3L77.2,350.7L77.2,350.7
				z M75.9,350.7v-1.3c0-0.2,0-0.4-0.1-0.6s-0.2-0.3-0.3-0.4s-0.3-0.2-0.4-0.3s-0.3-0.1-0.5-0.1s-0.4,0-0.6,0.1s-0.3,0.1-0.4,0.3
				c-0.1,0.1-0.2,0.3-0.3,0.4s-0.1,0.4-0.1,0.6v1.3H75.9L75.9,350.7z"/>
			<path class="st16" d="M80.3,339.6v1.6l-5.5,2.4h5.5v1.7h-8.5v-1.7l5.5-2.4h-5.5v-1.6H80.3L80.3,339.6z"/>
			<path class="st16" d="M77.1,336.3h3.1v1.6h-8.5V335c0-0.5,0.1-0.9,0.2-1.3s0.3-0.7,0.6-1c0.2-0.3,0.5-0.5,0.9-0.6
				c0.3-0.1,0.7-0.2,1.1-0.2s0.7,0.1,1.1,0.2c0.3,0.1,0.6,0.3,0.8,0.6c0.2,0.3,0.4,0.6,0.6,1s0.2,0.8,0.2,1.3L77.1,336.3L77.1,336.3
				z M75.8,336.3V335c0-0.2,0-0.4-0.1-0.6s-0.2-0.3-0.3-0.4s-0.3-0.2-0.4-0.3s-0.3-0.1-0.5-0.1s-0.4,0-0.6,0.1s-0.3,0.1-0.4,0.3
				c-0.1,0.1-0.2,0.3-0.3,0.4s-0.1,0.4-0.1,0.6v1.3H75.8L75.8,336.3z"/>
			<path class="st16" d="M79,320.7c0-0.2,0-0.3-0.1-0.5c-0.1-0.1-0.1-0.3-0.2-0.4s-0.2-0.2-0.3-0.2s-0.3-0.1-0.4-0.1V318
				c0.3,0,0.6,0.1,0.9,0.2s0.5,0.3,0.7,0.6s0.4,0.5,0.5,0.9c0.1,0.3,0.2,0.7,0.2,1c0,0.5-0.1,0.9-0.2,1.3s-0.4,0.7-0.7,0.9
				s-0.6,0.4-1,0.6c-0.4,0.1-0.8,0.2-1.2,0.2H77c-0.4,0-0.9-0.1-1.2-0.2s-0.7-0.3-1-0.6c-0.3-0.2-0.5-0.6-0.7-0.9
				c-0.2-0.4-0.3-0.8-0.3-1.3c0-0.4,0.1-0.8,0.2-1.1s0.3-0.6,0.5-0.9s0.5-0.4,0.8-0.6s0.6-0.2,1-0.2v1.5c-0.1,0-0.3,0-0.4,0.1
				s-0.3,0.1-0.4,0.2s-0.2,0.2-0.2,0.4c-0.1,0.1-0.1,0.3-0.1,0.5c0,0.3,0.1,0.5,0.2,0.6c0.1,0.2,0.2,0.3,0.4,0.4
				c0.2,0.1,0.4,0.2,0.6,0.2s0.5,0.1,0.7,0.1h0.2c0.2,0,0.5,0,0.7-0.1s0.4-0.1,0.6-0.2s0.3-0.2,0.4-0.4C78.9,321.3,79,321,79,320.7
				L79,320.7z"/>
			<path class="st16" d="M76.9,316.6c-0.5,0-0.9-0.1-1.3-0.2s-0.7-0.3-1-0.6c-0.3-0.2-0.5-0.6-0.7-0.9c-0.2-0.4-0.2-0.8-0.2-1.3
				s0.1-0.9,0.2-1.3s0.4-0.7,0.7-0.9c0.3-0.3,0.6-0.5,1-0.6s0.8-0.2,1.3-0.2H77c0.5,0,0.9,0.1,1.3,0.2s0.7,0.3,1,0.6
				s0.5,0.6,0.7,0.9c0.2,0.4,0.2,0.8,0.2,1.3s-0.1,0.9-0.2,1.3c-0.2,0.4-0.4,0.7-0.7,1s-0.6,0.5-1,0.6s-0.8,0.2-1.3,0.2L76.9,316.6
				L76.9,316.6z M77,314.9c0.3,0,0.5,0,0.8-0.1c0.2,0,0.4-0.1,0.6-0.2s0.3-0.2,0.4-0.4c0.1-0.2,0.1-0.4,0.1-0.6s-0.1-0.4-0.2-0.6
				s-0.2-0.3-0.4-0.4s-0.4-0.2-0.6-0.2s-0.5-0.1-0.8-0.1h-0.1c-0.3,0-0.5,0-0.7,0.1s-0.4,0.1-0.6,0.2s-0.3,0.2-0.4,0.4
				s-0.1,0.4-0.1,0.6s0.1,0.5,0.2,0.6c0.1,0.2,0.2,0.3,0.4,0.4s0.4,0.2,0.6,0.2S76.7,314.9,77,314.9L77,314.9L77,314.9z"/>
			<path class="st16" d="M79.2,305.1c0.3,0.2,0.6,0.5,0.8,0.8s0.3,0.6,0.3,1c0,0.3-0.1,0.6-0.1,0.9c-0.1,0.3-0.3,0.5-0.5,0.7
				s-0.5,0.4-0.8,0.5s-0.8,0.2-1.2,0.2h-3.8v-1.6h3.8c0.3,0,0.5,0,0.6-0.1s0.3-0.1,0.4-0.2s0.2-0.2,0.2-0.3s0.1-0.3,0.1-0.5
				c0-0.3-0.1-0.6-0.2-0.8c-0.1-0.2-0.3-0.4-0.5-0.5h-4.4v-1.6h6.3v1.5H79.2L79.2,305.1z"/>
			<path class="st16" d="M73.7,300.5l0.9-0.1c-0.3-0.2-0.6-0.5-0.7-0.8c-0.2-0.3-0.3-0.7-0.3-1.1c0-0.3,0-0.6,0.1-0.9
				s0.2-0.5,0.4-0.7s0.5-0.4,0.8-0.5s0.7-0.2,1.2-0.2H80v1.6h-3.9c-0.2,0-0.5,0-0.6,0.1c-0.2,0.1-0.3,0.1-0.4,0.2s-0.2,0.2-0.2,0.4
				c0,0.1-0.1,0.3-0.1,0.5c0,0.3,0.1,0.5,0.2,0.7s0.3,0.4,0.5,0.5H80v1.6h-6.3V300.5L73.7,300.5z"/>
			<path class="st16" d="M72.1,291.8h1.6v-2.4h1.2v2.4h2.7c0.2,0,0.4,0,0.6-0.1c0.1,0,0.3-0.1,0.4-0.2s0.2-0.2,0.2-0.4
				c0-0.1,0.1-0.3,0.1-0.5c0-0.1,0-0.2,0-0.4c0-0.1,0-0.3-0.1-0.4s0-0.2-0.1-0.3c0-0.1,0-0.2-0.1-0.3l1.1-0.2
				c0.1,0.1,0.1,0.2,0.2,0.4s0.1,0.3,0.1,0.5s0.1,0.4,0.1,0.5s0,0.4,0,0.5c0,0.4,0,0.7-0.1,1s-0.2,0.5-0.4,0.7s-0.4,0.4-0.7,0.5
				c-0.3,0.1-0.7,0.2-1.1,0.2h-2.9v1.5h-1.2v-1.5h-1.6L72.1,291.8L72.1,291.8z"/>
			<path class="st16" d="M80.1,284.5c0,0.5-0.1,0.9-0.2,1.3c-0.2,0.4-0.4,0.7-0.6,1c-0.3,0.3-0.6,0.5-1,0.7s-0.8,0.2-1.2,0.2h-0.2
				c-0.5,0-0.9-0.1-1.3-0.2s-0.8-0.4-1-0.6c-0.3-0.3-0.5-0.6-0.7-1s-0.2-0.8-0.2-1.2c0-0.5,0.1-0.9,0.2-1.2s0.4-0.7,0.6-0.9
				s0.6-0.4,1-0.6c0.4-0.1,0.8-0.2,1.3-0.2h0.7v4.3c0.2,0,0.4-0.1,0.6-0.2s0.3-0.2,0.5-0.4s0.2-0.3,0.3-0.5s0.1-0.4,0.1-0.6
				s0-0.3-0.1-0.5s-0.1-0.3-0.1-0.5s-0.1-0.3-0.2-0.4s-0.2-0.2-0.3-0.3l0.9-0.8c0.1,0.1,0.3,0.2,0.4,0.4s0.3,0.4,0.4,0.6
				s0.2,0.5,0.3,0.7C80,283.9,80.1,284.1,80.1,284.5L80.1,284.5z M74.8,284.7c0,0.2,0,0.4,0.1,0.5s0.2,0.3,0.3,0.4
				c0.1,0.1,0.3,0.2,0.4,0.3c0.2,0.1,0.4,0.1,0.6,0.2v-2.7h-0.1c-0.2,0-0.3,0-0.5,0.1s-0.3,0.1-0.4,0.2s-0.2,0.2-0.3,0.4
				S74.9,284.5,74.8,284.7L74.8,284.7z"/>
			<path class="st16" d="M73.5,275.8c0-0.2,0-0.5,0.1-0.7c0-0.2,0.1-0.4,0.1-0.5l1.6,0.2c-0.1,0.2-0.1,0.4-0.1,0.7
				c0,0.2,0,0.4,0,0.6c0,0.5,0.1,0.8,0.3,1.1s0.4,0.5,0.8,0.6h3.8v1.6h-6.3v-1.5l1-0.1c-0.4-0.3-0.6-0.6-0.9-0.9
				S73.5,276.2,73.5,275.8L73.5,275.8z"/>
		</g>
	</g>
</g>
</svg>
