<?xml version="1.0" encoding="UTF-8"?>
<svg id="Layer_2" data-name="Layer 2" xmlns="http://www.w3.org/2000/svg" xmlns:xlink="http://www.w3.org/1999/xlink" viewBox="0 0 138.4 453.87">
  <defs>
    <style>
      .cls-1 {
        fill: url(#linear-gradient);
      }

      .cls-2 {
        fill: #fff;
      }

      .cls-3 {
        fill: #e26558;
      }

      .cls-4 {
        fill: #1a1a1a;
      }

      .cls-5 {
        fill: url(#linear-gradient-8);
      }

      .cls-6 {
        fill: url(#linear-gradient-9);
      }

      .cls-7 {
        fill: url(#linear-gradient-3);
      }

      .cls-8 {
        fill: url(#linear-gradient-4);
      }

      .cls-9 {
        fill: url(#linear-gradient-2);
      }

      .cls-10 {
        fill: url(#linear-gradient-6);
      }

      .cls-11 {
        fill: url(#linear-gradient-7);
      }

      .cls-12 {
        fill: url(#linear-gradient-5);
      }

      .cls-13 {
        fill: url(#linear-gradient-14);
      }

      .cls-14 {
        fill: url(#linear-gradient-18);
      }

      .cls-15 {
        fill: url(#linear-gradient-20);
      }

      .cls-16 {
        fill: url(#linear-gradient-15);
      }

      .cls-17 {
        fill: url(#linear-gradient-19);
      }

      .cls-18 {
        fill: url(#linear-gradient-16);
      }

      .cls-19 {
        fill: url(#linear-gradient-17);
      }

      .cls-20 {
        fill: url(#linear-gradient-13);
      }

      .cls-21 {
        fill: url(#linear-gradient-12);
      }

      .cls-22 {
        fill: url(#linear-gradient-10);
      }

      .cls-23 {
        fill: url(#linear-gradient-11);
      }
    </style>
    <linearGradient id="linear-gradient" x1="19.14" y1="318.96" x2="108.57" y2="318.96" gradientUnits="userSpaceOnUse">
      <stop offset="0" stop-color="#d4d4d4"/>
      <stop offset="1" stop-color="#fff"/>
    </linearGradient>
    <linearGradient id="linear-gradient-2" x1="-6021.37" y1="-640.08" x2="-5931.92" y2="-640.08" gradientTransform="translate(-5916.17 791.72) rotate(-179.69) scale(1 -1)" gradientUnits="userSpaceOnUse">
      <stop offset="0" stop-color="#e6e6e6"/>
      <stop offset="1" stop-color="#999"/>
    </linearGradient>
    <linearGradient id="linear-gradient-3" x1="-5990.66" y1="-704.22" x2="-5962.58" y2="-704.22" gradientTransform="translate(-5912.79 824.13) rotate(-180) scale(1 -1)" gradientUnits="userSpaceOnUse">
      <stop offset="0" stop-color="#e26558"/>
      <stop offset="1" stop-color="#a8190a"/>
    </linearGradient>
    <linearGradient id="linear-gradient-4" x1="-5973.87" y1="-708.21" x2="-5912.79" y2="-708.21" xlink:href="#linear-gradient-3"/>
    <linearGradient id="linear-gradient-5" x1="-6051.19" y1="-672.9" x2="-5979.34" y2="-672.9" xlink:href="#linear-gradient-3"/>
    <linearGradient id="linear-gradient-6" x1="-5940.91" y1="-789.5" x2="-5912.79" y2="-789.5" gradientTransform="translate(-5916.98 791.99) rotate(-179.69) scale(1 -1)" gradientUnits="userSpaceOnUse">
      <stop offset="0" stop-color="#f0b0a9"/>
      <stop offset="1" stop-color="#a8190a"/>
    </linearGradient>
    <linearGradient id="linear-gradient-7" x1="-5932.82" y1="-791.34" x2="-5920.88" y2="-791.34" gradientTransform="translate(-5912.79 824.13) rotate(-180) scale(1 -1)" xlink:href="#linear-gradient-2"/>
    <linearGradient id="linear-gradient-8" x1="-5932.82" y1="-791.39" x2="-5920.88" y2="-791.39" gradientTransform="translate(-5912.79 824.13) rotate(-180) scale(1 -1)" xlink:href="#linear-gradient-2"/>
    <linearGradient id="linear-gradient-9" x1="-5932.82" y1="-791.37" x2="-5920.88" y2="-791.37" gradientTransform="translate(-5912.79 824.13) rotate(-180) scale(1 -1)" xlink:href="#linear-gradient-2"/>
    <linearGradient id="linear-gradient-10" x1="-5932.8" y1="-804.3" x2="-5920.9" y2="-804.3" gradientTransform="translate(-5912.79 824.13) rotate(-180) scale(1 -1)" gradientUnits="userSpaceOnUse">
      <stop offset="0" stop-color="#fff"/>
      <stop offset="1" stop-color="#d4d4d4"/>
    </linearGradient>
    <linearGradient id="linear-gradient-11" x1="-5990.68" y1="-763.54" x2="-5962.56" y2="-763.54" gradientTransform="translate(-5916.84 791.72) rotate(-179.69) scale(1 -1)" xlink:href="#linear-gradient-6"/>
    <linearGradient id="linear-gradient-12" x1="-5982.59" y1="-765.39" x2="-5970.65" y2="-765.39" gradientTransform="translate(-5912.79 824.13) rotate(-180) scale(1 -1)" xlink:href="#linear-gradient-2"/>
    <linearGradient id="linear-gradient-13" x1="-5982.59" y1="-765.44" x2="-5970.65" y2="-765.44" gradientTransform="translate(-5912.79 824.13) rotate(-180) scale(1 -1)" xlink:href="#linear-gradient-2"/>
    <linearGradient id="linear-gradient-14" x1="-5982.59" y1="-765.41" x2="-5970.65" y2="-765.41" gradientTransform="translate(-5912.79 824.13) rotate(-180) scale(1 -1)" xlink:href="#linear-gradient-2"/>
    <linearGradient id="linear-gradient-15" x1="-5982.57" y1="-778.35" x2="-5970.67" y2="-778.35" xlink:href="#linear-gradient-10"/>
    <linearGradient id="linear-gradient-16" x1="-6051.19" y1="-718.86" x2="-6023.07" y2="-718.86" gradientTransform="translate(-5916.6 791.39) rotate(-179.69) scale(1 -1)" xlink:href="#linear-gradient-6"/>
    <linearGradient id="linear-gradient-17" x1="-6043.1" y1="-720.71" x2="-6031.16" y2="-720.71" gradientTransform="translate(-5912.79 824.13) rotate(-180) scale(1 -1)" xlink:href="#linear-gradient-2"/>
    <linearGradient id="linear-gradient-18" x1="-6043.1" y1="-720.75" x2="-6031.16" y2="-720.75" gradientTransform="translate(-5912.79 824.13) rotate(-180) scale(1 -1)" xlink:href="#linear-gradient-2"/>
    <linearGradient id="linear-gradient-19" x1="-6043.1" y1="-720.73" x2="-6031.16" y2="-720.73" gradientTransform="translate(-5912.79 824.13) rotate(-180) scale(1 -1)" xlink:href="#linear-gradient-2"/>
    <linearGradient id="linear-gradient-20" x1="-6043.08" y1="-733.67" x2="-6031.18" y2="-733.67" xlink:href="#linear-gradient-10"/>
  </defs>
  <g id="Layer_1-2" data-name="Layer 1">
    <g>
      <path class="cls-1" d="m108.47,426.17v-242.12H19.25v242.35c-.87,7.18,3.41,14.5,12.88,19.97,17.41,10.05,45.73,10,63.25-.11,9.56-5.52,13.92-12.89,13.09-20.09Z"/>
      <ellipse class="cls-9" cx="63.86" cy="184.05" rx="44.73" ry="25.82" transform="translate(-1 .35) rotate(-.31)"/>
      <path class="cls-7" d="m49.81,171.35V59.96s28.05,0,28.05,0v111.28c.21,2.23-1.15,4.51-4.11,6.22-5.51,3.18-14.41,3.2-19.88.04-2.92-1.69-4.26-3.93-4.05-6.15Z"/>
      <g>
        <path class="cls-3" d="m33.03,188.7v.89c-.03-.3-.03-.59,0-.89Z"/>
        <path class="cls-3" d="m61.08,189.48v-.88c.03.29.03.59,0,.88Z"/>
        <path class="cls-8" d="m28.05,34.64v26.39c0,5.48,4.71,13.57,9.5,16.34,13.41,7.74,23.53,25.21,23.53,40.63v70.59s0,.88,0,.88c-.18,1.94-1.54,3.85-4.11,5.33-5.51,3.18-14.41,3.2-19.88.04-2.53-1.46-3.87-3.34-4.05-5.26v-.89s0-70.7,0-70.7c0-5.48-4.71-13.57-9.5-16.34C10.11,93.92,0,76.45,0,61.03v-26.39s28.05,0,28.05,0Z"/>
      </g>
      <path class="cls-12" d="m66.65,188.21v-24.1c0-18.88,15.36-34.25,34.25-34.25h3.26c3.42,0,6.2-2.78,6.2-6.2v-18.41s28.05,0,28.05,0v18.41c0,18.88-15.36,34.25-34.25,34.25h-3.26c-3.42,0-6.2,2.78-6.2,6.2v24.75s-.04,0-.04,0c.08,2.14-1.29,4.31-4.13,5.95-5.51,3.18-14.41,3.2-19.88.04-3.14-1.81-4.46-4.27-3.99-6.64Z"/>
      <ellipse class="cls-10" cx="14.06" cy="34.64" rx="14.06" ry="8.12" transform="translate(-.19 .08) rotate(-.31)"/>
      <g>
        <g>
          <path class="cls-11" d="m8.11,32.55v.48c-.02-.16-.02-.32,0-.48Z"/>
          <path class="cls-5" d="m20.01,32.98v-.46c.02.15.02.31,0,.46Z"/>
          <path class="cls-6" d="m18.27,35.2c-2.34,1.35-6.12,1.36-8.44.02-1.05-.61-1.62-1.39-1.72-2.18v-.48c.1-.8.68-1.59,1.74-2.21,2.34-1.35,6.12-1.36,8.44-.02,1.06.61,1.63,1.39,1.72,2.19v.46c-.09.81-.67,1.6-1.75,2.22Z"/>
          <path class="cls-22" d="m20.01,3.45v29.07s0,.46,0,.46c-.09.81-.67,1.6-1.75,2.22-2.34,1.35-6.12,1.36-8.44.02-1.05-.61-1.62-1.39-1.72-2.18v-.48s0-29.1,0-29.1h11.91Z"/>
        </g>
        <ellipse class="cls-2" cx="14.06" cy="3.45" rx="5.97" ry="3.45" transform="translate(-.02 .08) rotate(-.31)"/>
      </g>
      <ellipse class="cls-23" cx="63.83" cy="60.59" rx="14.06" ry="8.12" transform="translate(-.33 .35) rotate(-.31)"/>
      <g>
        <g>
          <path class="cls-21" d="m57.88,58.5v.48c-.02-.16-.02-.32,0-.48Z"/>
          <path class="cls-20" d="m69.78,58.93v-.46c.02.15.02.31,0,.46Z"/>
          <path class="cls-13" d="m68.04,61.15c-2.34,1.35-6.12,1.36-8.44.02-1.05-.61-1.62-1.39-1.72-2.18v-.48c.1-.8.68-1.59,1.74-2.21,2.34-1.35,6.12-1.36,8.44-.02,1.06.61,1.63,1.39,1.72,2.19v.46c-.09.81-.67,1.6-1.75,2.22Z"/>
          <path class="cls-16" d="m69.78,29.4v29.07s0,.46,0,.46c-.09.81-.67,1.6-1.75,2.22-2.34,1.35-6.12,1.36-8.44.02-1.05-.61-1.62-1.39-1.72-2.18v-.48s0-29.1,0-29.1h11.91Z"/>
        </g>
        <ellipse class="cls-2" cx="63.83" cy="29.4" rx="5.97" ry="3.45" transform="translate(-.16 .35) rotate(-.31)"/>
      </g>
      <ellipse class="cls-18" cx="124.34" cy="105.27" rx="14.06" ry="8.12" transform="translate(-.57 .68) rotate(-.31)"/>
      <g>
        <g>
          <path class="cls-19" d="m118.39,103.18v.48c-.02-.16-.02-.32,0-.48Z"/>
          <path class="cls-14" d="m130.29,103.61v-.46c.02.15.02.31,0,.46Z"/>
          <path class="cls-17" d="m128.55,105.83c-2.34,1.35-6.12,1.36-8.44.02-1.05-.61-1.62-1.39-1.72-2.18v-.48c.1-.8.68-1.59,1.74-2.21,2.34-1.35,6.12-1.36,8.44-.02,1.06.61,1.63,1.39,1.72,2.19v.46c-.09.81-.67,1.6-1.75,2.22Z"/>
          <path class="cls-15" d="m130.29,74.08v29.07s0,.46,0,.46c-.09.81-.67,1.6-1.75,2.22-2.34,1.35-6.12,1.36-8.44.02-1.05-.61-1.62-1.39-1.72-2.18v-.48s0-29.1,0-29.1h11.91Z"/>
        </g>
        <ellipse class="cls-2" cx="124.34" cy="74.08" rx="5.97" ry="3.45" transform="translate(-.4 .68) rotate(-.31)"/>
      </g>
    </g>
    <g>
      <path class="cls-4" d="m66.08,389.53c.55,0,1.04.06,1.46.18.42.12.77.31,1.06.54.29.24.5.53.65.87.15.34.22.73.22,1.16,0,.43-.07.81-.21,1.16-.14.34-.36.64-.64.88-.28.24-.63.43-1.05.56s-.9.2-1.46.21h-2.04c-.55.01-1.04-.05-1.46-.18-.42-.13-.77-.31-1.06-.55-.28-.24-.5-.53-.65-.87-.15-.34-.22-.72-.22-1.15,0-.43.07-.82.21-1.16.14-.34.35-.64.64-.88.28-.24.63-.43,1.05-.56.42-.13.9-.2,1.46-.2h2.04Zm-.68,3.91l-1.71-2.26c-.57.02-1,.12-1.28.31-.28.19-.41.47-.41.85,0,.38.15.66.44.85.29.19.75.28,1.35.27h1.59Zm-.6-2.28l1.7,2.26c.56-.02.98-.13,1.25-.32s.41-.47.4-.83c0-.38-.15-.67-.45-.85-.3-.18-.75-.28-1.37-.27h-1.54Z"/>
      <path class="cls-4" d="m66.18,382.17l.03,4.88h-1.32s-.03-4.87-.03-4.87h1.32Z"/>
      <path class="cls-4" d="m69.25,375.08l.03,5.82h-1.11s-2.98-2.74-2.98-2.74c-.24-.21-.45-.39-.64-.54s-.37-.27-.53-.36c-.16-.09-.31-.16-.44-.2-.14-.04-.27-.06-.4-.06-.19,0-.36.03-.51.08-.15.06-.27.13-.38.23-.1.1-.18.22-.24.36-.05.14-.08.29-.08.46,0,.45.13.78.38,1s.6.33,1.05.33v1.63c-.37,0-.73-.07-1.07-.21-.34-.14-.64-.35-.89-.61-.25-.26-.46-.58-.61-.95-.15-.37-.22-.79-.23-1.24,0-.43.06-.82.18-1.15.12-.33.29-.62.5-.84s.48-.4.79-.52c.31-.12.64-.18,1.02-.18.28,0,.55.04.81.13.26.09.51.21.76.37.25.16.51.35.77.58.26.23.53.48.82.75l1.71,1.6-.02-3.74h1.31Z"/>
      <path class="cls-4" d="m62.95,368.14c.41,0,.78.1,1.11.31.32.21.58.49.78.85.19-.42.46-.75.81-.99.35-.25.76-.37,1.23-.37.4,0,.76.07,1.06.21.3.14.56.34.77.6.21.25.36.56.47.9s.16.72.16,1.12c0,.41-.05.78-.15,1.13s-.26.66-.46.91c-.2.26-.46.46-.76.61s-.66.22-1.06.22c-.23,0-.46-.03-.67-.09-.21-.06-.4-.15-.58-.27-.17-.12-.33-.26-.47-.42s-.26-.35-.36-.56c-.19.36-.44.65-.76.86-.32.21-.69.31-1.1.32-.39,0-.73-.06-1.02-.19-.29-.13-.54-.31-.75-.55-.2-.24-.36-.52-.46-.84-.11-.33-.16-.68-.16-1.07s.05-.75.15-1.07c.1-.33.25-.61.46-.86s.45-.43.74-.57c.29-.14.63-.21,1.02-.21Zm.08,1.62c-.17,0-.33.03-.47.08-.14.05-.26.12-.36.22-.1.09-.17.2-.23.33-.05.13-.08.28-.08.44,0,.33.1.59.31.77s.48.27.84.26c.17,0,.33-.03.47-.07.14-.05.26-.12.37-.21.1-.09.18-.2.24-.33.06-.13.08-.28.08-.44s-.03-.31-.09-.44c-.06-.13-.14-.24-.24-.33-.1-.09-.22-.16-.37-.21-.14-.05-.3-.07-.47-.07Zm3.74-.19c-.2,0-.37.03-.53.09s-.29.14-.4.25c-.11.11-.19.24-.25.39-.06.15-.09.32-.08.51s.03.36.09.51.15.28.26.38c.11.11.25.19.4.24.16.06.33.09.53.08.39,0,.7-.12.92-.34s.33-.53.33-.9c0-.18-.03-.34-.09-.49-.06-.15-.14-.28-.25-.38-.11-.11-.24-.19-.4-.25-.15-.06-.33-.09-.53-.09Z"/>
      <path class="cls-4" d="m66.8,363.5l-6.16-1.58v-1.82s8.54,2.54,8.54,2.54v1.68s-8.51,2.62-8.51,2.62v-1.82s6.13-1.63,6.13-1.63Z"/>
      <path class="cls-4" d="m69.1,347.89c-.08.04-.17.07-.27.1-.1.03-.21.05-.32.07.1.09.19.19.28.31.09.12.16.25.23.39.07.14.12.3.16.47.04.17.06.36.06.56,0,.32-.04.62-.14.89-.09.27-.22.51-.39.7-.17.2-.37.35-.6.46-.23.11-.48.17-.76.17-.67,0-1.19-.24-1.55-.74s-.55-1.24-.56-2.23v-.91s-.38,0-.38,0c-.3,0-.54.1-.72.3s-.26.49-.26.86c0,.33.07.57.22.73.14.15.33.23.57.22v1.63c-.26,0-.52-.06-.76-.17-.24-.12-.46-.29-.64-.52s-.33-.51-.44-.83c-.11-.33-.17-.71-.17-1.13,0-.38.04-.74.13-1.07.09-.33.23-.62.41-.86.18-.24.41-.43.69-.57.28-.14.6-.21.97-.21h2.72c.34-.02.62-.04.84-.08s.41-.11.57-.19h.1s0,1.65,0,1.65Zm-1.13,1.56c0-.16-.02-.32-.06-.46-.04-.14-.09-.27-.15-.38-.06-.11-.13-.21-.22-.29-.08-.08-.16-.15-.24-.19h-1.09s0,.84,0,.84c0,.25.03.47.08.65.05.18.12.33.21.44.09.11.19.2.32.25.12.05.26.08.4.08.22,0,.4-.08.54-.23.14-.16.21-.39.21-.7Z"/>
      <path class="cls-4" d="m62.74,343.21l.88-.1c-.32-.23-.56-.5-.74-.82s-.26-.68-.27-1.08c0-.32.04-.61.14-.88.09-.27.24-.5.45-.69s.47-.35.79-.46c.32-.11.71-.17,1.17-.17l3.9-.02v1.63s-3.87.02-3.87.02c-.25,0-.46.03-.62.09-.16.06-.29.14-.38.25-.09.11-.16.23-.19.38-.04.15-.05.32-.05.5,0,.28.06.51.17.71.11.19.27.35.46.47l4.51-.02v1.63s-6.33.03-6.33.03v-1.48Z"/>
      <path class="cls-4" d="m69.02,333.49c-.08.04-.17.07-.27.1-.1.03-.21.05-.32.07.1.09.19.19.28.31.09.12.16.25.23.39.07.14.12.3.16.47s.06.36.06.56c0,.32-.04.62-.14.89-.09.27-.22.51-.39.7-.17.2-.37.35-.6.46s-.48.17-.76.17c-.67,0-1.19-.24-1.55-.74s-.55-1.24-.56-2.23v-.91s-.38,0-.38,0c-.3,0-.54.1-.72.3s-.26.49-.26.86c0,.33.07.57.22.73s.33.23.57.23v1.63c-.26,0-.52-.06-.76-.17-.24-.12-.46-.29-.64-.52s-.33-.51-.44-.84c-.11-.33-.17-.71-.17-1.13,0-.38.04-.74.13-1.07.09-.33.23-.62.41-.86.18-.24.41-.43.69-.57.28-.14.6-.21.97-.21h2.72c.34-.02.62-.04.84-.08s.41-.11.57-.19h.1s0,1.65,0,1.65Zm-1.13,1.56c0-.16-.02-.32-.06-.46s-.09-.27-.15-.38c-.06-.11-.13-.21-.22-.29-.08-.08-.16-.15-.24-.19h-1.09s0,.84,0,.84c0,.25.03.47.08.65s.12.33.21.44c.09.11.19.2.32.25.12.05.26.08.4.08.22,0,.4-.08.54-.23s.21-.39.21-.7Z"/>
      <path class="cls-4" d="m60.01,329.96l-.02-3.54,7.68-.04v-1.82s1.31,0,1.31,0l.03,5.36h-1.32s0-1.89,0-1.89l-6.35.03v1.9s-1.32,0-1.32,0Z"/>
      <path class="cls-4" d="m65.74,323.29c-.46,0-.89-.06-1.28-.19-.39-.13-.73-.32-1.02-.58-.29-.25-.52-.57-.69-.93s-.25-.79-.25-1.27c0-.48.08-.9.24-1.27s.39-.69.67-.94c.29-.26.63-.45,1.02-.59.39-.13.82-.2,1.28-.21h.12c.46,0,.89.06,1.29.19.39.13.74.32,1.03.57.29.25.52.56.68.93.16.37.25.79.25,1.26,0,.48-.08.9-.24,1.28-.16.37-.38.69-.67.95-.29.26-.63.45-1.02.59-.39.13-.82.2-1.29.21h-.12Zm.11-1.63c.27,0,.51-.03.75-.08s.43-.13.61-.24c.17-.11.31-.25.41-.43.1-.17.15-.38.15-.63,0-.24-.05-.44-.16-.61-.1-.17-.24-.31-.42-.42s-.38-.18-.61-.23c-.23-.05-.48-.07-.75-.07h-.12c-.26,0-.5.03-.73.08-.23.05-.43.13-.61.24s-.31.25-.41.42c-.1.17-.15.38-.15.63,0,.24.05.45.16.62.1.17.24.31.42.42.18.11.38.19.61.24.23.05.47.07.73.07h.12Z"/>
      <path class="cls-4" d="m65.71,316.03c-.48,0-.92-.05-1.32-.17s-.74-.29-1.03-.51c-.29-.22-.51-.49-.67-.81-.16-.32-.24-.67-.24-1.07,0-.37.06-.69.18-.96.12-.27.3-.49.53-.68l-.6-.06v-1.48s6.13-.03,6.13-.03c.43,0,.81.07,1.15.21.34.15.62.35.85.61.23.26.41.58.53.95s.18.78.19,1.22c0,.19-.02.4-.06.62s-.1.44-.18.65c-.08.22-.18.42-.31.61s-.28.36-.45.49l-.99-.73c.23-.21.41-.44.53-.71s.18-.55.18-.85c0-.46-.13-.81-.37-1.07-.25-.25-.59-.38-1.04-.38h-.36c.21.19.38.42.5.67s.18.55.18.89c0,.39-.08.75-.24,1.06-.16.32-.38.59-.67.81-.28.22-.62.4-1.01.52s-.82.18-1.28.19h-.12Zm.11-1.63c.27,0,.51-.03.74-.08.23-.05.43-.14.6-.25.17-.11.3-.25.4-.42.1-.17.14-.37.14-.6,0-.29-.06-.52-.17-.71-.11-.18-.26-.33-.46-.44h-2.68c-.2.12-.35.27-.46.46-.11.19-.16.42-.16.7,0,.23.05.43.15.6.1.17.24.31.41.42.17.11.38.19.61.25.23.05.48.08.75.08h.12Z"/>
      <path class="cls-4" d="m60.88,299.37c-.12,0-.24-.02-.35-.07-.11-.04-.2-.11-.28-.19-.08-.08-.14-.18-.18-.29-.04-.11-.07-.24-.07-.38,0-.29.08-.52.24-.69.16-.17.37-.26.62-.26s.46.08.62.25c.16.17.25.4.25.69,0,.14-.02.27-.06.38-.04.12-.1.21-.18.3-.08.08-.17.15-.27.19-.11.05-.22.07-.35.07Zm1.63,1.68l-.02-3.45,5.02-.03v-1.72s1.31,0,1.31,0l.03,5.17h-1.32s0-1.8,0-1.8l-3.69.02v1.8s-1.32,0-1.32,0Z"/>
      <path class="cls-4" d="m62.47,292.8l.88-.1c-.32-.22-.56-.5-.74-.82-.17-.32-.26-.68-.27-1.08,0-.32.04-.61.14-.88.09-.27.24-.5.44-.69s.47-.35.79-.46.71-.17,1.17-.17l3.9-.02v1.63s-3.87.02-3.87.02c-.25,0-.46.03-.62.09-.16.06-.29.14-.38.25-.09.11-.16.23-.19.38s-.05.32-.05.5c0,.28.06.51.17.71.11.2.27.35.46.47l4.51-.02v1.63s-6.33.03-6.33.03v-1.48Z"/>
      <path class="cls-4" d="m65.63,281.37c.46,0,.89.05,1.28.15.39.11.74.26,1.02.47.29.21.52.46.68.77.17.31.25.66.25,1.06,0,.34-.05.64-.17.9-.12.26-.28.48-.49.68l2.99-.02v1.63s-8.77.05-8.77.05v-1.51s.61-.06.61-.06c-.24-.19-.42-.42-.55-.69-.13-.27-.2-.58-.2-.93,0-.4.07-.76.23-1.07s.37-.57.65-.78c.28-.21.62-.37,1.02-.48.4-.11.83-.17,1.31-.17h.12Zm-.11,1.63c-.27,0-.51.03-.75.08s-.43.13-.6.23c-.17.1-.3.24-.4.4-.1.16-.14.36-.14.59,0,.29.06.52.17.7.11.18.27.32.47.42h2.65c.2-.12.36-.26.48-.44.12-.18.18-.42.17-.71,0-.23-.05-.43-.16-.59-.1-.16-.24-.29-.42-.39-.18-.1-.38-.17-.61-.22s-.48-.07-.74-.07h-.12Z"/>
      <path class="cls-4" d="m67.82,275.81c.32.21.57.47.75.77s.27.63.28.99c0,.33-.05.63-.15.9-.1.27-.26.51-.48.71-.22.2-.5.35-.84.46s-.75.17-1.23.17l-3.75.02v-1.63s3.75-.02,3.75-.02c.26,0,.47-.02.65-.06.17-.04.32-.1.42-.18.11-.08.18-.19.23-.32s.07-.3.07-.49c0-.32-.06-.59-.19-.79-.12-.2-.29-.36-.51-.46l-4.45.02v-1.63s6.33-.03,6.33-.03v1.48s-.88.1-.88.1Z"/>
      <path class="cls-4" d="m60.79,269.7h1.55s-.01-2.38-.01-2.38h1.2s.01,2.36.01,2.36h2.72c.23-.02.42-.04.58-.1.15-.05.28-.13.37-.23.09-.1.16-.22.19-.36s.06-.29.06-.47c0-.12,0-.25-.02-.38-.01-.13-.03-.26-.05-.38-.02-.12-.04-.23-.06-.33-.02-.1-.04-.19-.06-.27l1.12-.16c.07.11.12.25.17.4.05.15.09.31.12.49.03.17.06.35.08.54s.03.37.03.55c0,.35-.04.66-.13.95-.09.28-.23.53-.42.73s-.44.36-.74.47c-.3.11-.66.17-1.07.17l-2.88.02v1.45s-1.19,0-1.19,0v-1.45s-1.56,0-1.56,0v-1.63Z"/>
    </g>
  </g>
</svg>