<svg xmlns="http://www.w3.org/2000/svg" xmlns:xlink="http://www.w3.org/1999/xlink" viewBox="0 0 721.46 372.05"><defs><style>.cls-1,.cls-10,.cls-15,.cls-16,.cls-17,.cls-2,.cls-22,.cls-23,.cls-24,.cls-29,.cls-3,.cls-30,.cls-31,.cls-36,.cls-37,.cls-38,.cls-4,.cls-5,.cls-6,.cls-8,.cls-9{fill:none;}.cls-1,.cls-2,.cls-3,.cls-4,.cls-5,.cls-6{stroke-miterlimit:10;}.cls-1,.cls-2,.cls-3,.cls-4,.cls-5{stroke-width:19px;}.cls-1{stroke:url(#linear-gradient);}.cls-2{stroke:url(#linear-gradient-2);}.cls-3{stroke:url(#linear-gradient-3);}.cls-4{stroke:url(#linear-gradient-4);}.cls-5{stroke:url(#linear-gradient-5);}.cls-6{stroke:#cbcbcb;}.cls-7{fill:url(#linear-gradient-6);}.cls-10,.cls-15,.cls-16,.cls-17,.cls-22,.cls-23,.cls-24,.cls-29,.cls-30,.cls-31,.cls-36,.cls-37,.cls-38,.cls-8,.cls-9{stroke-linecap:round;stroke-linejoin:round;stroke-width:1.67px;}.cls-8{stroke:url(#linear-gradient-7);}.cls-9{stroke:url(#linear-gradient-8);}.cls-10{stroke:url(#linear-gradient-9);}.cls-11{fill:url(#linear-gradient-10);}.cls-12{fill:url(#linear-gradient-11);}.cls-13{fill:url(#linear-gradient-12);}.cls-14{fill:url(#linear-gradient-13);}.cls-15{stroke:url(#linear-gradient-14);}.cls-16{stroke:url(#linear-gradient-15);}.cls-17{stroke:url(#linear-gradient-16);}.cls-18{fill:url(#linear-gradient-17);}.cls-19{fill:url(#linear-gradient-18);}.cls-20{fill:url(#linear-gradient-19);}.cls-21{fill:url(#linear-gradient-20);}.cls-22{stroke:url(#linear-gradient-21);}.cls-23{stroke:url(#linear-gradient-22);}.cls-24{stroke:url(#linear-gradient-23);}.cls-25{fill:url(#linear-gradient-24);}.cls-26{fill:url(#linear-gradient-25);}.cls-27{fill:url(#linear-gradient-26);}.cls-28{fill:url(#linear-gradient-27);}.cls-29{stroke:url(#linear-gradient-28);}.cls-30{stroke:url(#linear-gradient-29);}.cls-31{stroke:url(#linear-gradient-30);}.cls-32{fill:url(#linear-gradient-31);}.cls-33{fill:url(#linear-gradient-32);}.cls-34{fill:url(#linear-gradient-33);}.cls-35{fill:url(#linear-gradient-34);}.cls-36{stroke:url(#linear-gradient-35);}.cls-37{stroke:url(#linear-gradient-36);}.cls-38{stroke:url(#linear-gradient-37);}.cls-39{fill:url(#linear-gradient-38);}.cls-40{fill:url(#linear-gradient-39);}.cls-41{fill:url(#linear-gradient-40);}</style><linearGradient id="linear-gradient" x1="321.93" y1="-2261.15" x2="617.46" y2="-2261.15" gradientTransform="matrix(0, -1, -1, 0, -1835.03, 619.58)" gradientUnits="userSpaceOnUse"><stop offset="0" stop-color="#666"/><stop offset="0.11" stop-color="#666" stop-opacity="0.88"/><stop offset="0.71" stop-color="#666" stop-opacity="0.25"/><stop offset="1" stop-color="#666" stop-opacity="0"/></linearGradient><linearGradient id="linear-gradient-2" x1="322.16" y1="-1413.46" x2="617.16" y2="-1413.46" gradientTransform="translate(1751.18 619.58) rotate(-90)" xlink:href="#linear-gradient"/><linearGradient id="linear-gradient-3" x1="321.75" y1="-2349.55" x2="617.7" y2="-2349.55" xlink:href="#linear-gradient"/><linearGradient id="linear-gradient-4" x1="323.82" y1="-87.59" x2="619.34" y2="-87.59" gradientTransform="translate(336.91 619.58) rotate(-90)" xlink:href="#linear-gradient"/><linearGradient id="linear-gradient-5" x1="323.64" y1="-176" x2="619.58" y2="-176" gradientTransform="translate(336.91 619.58) rotate(-90)" xlink:href="#linear-gradient"/><linearGradient id="linear-gradient-6" x1="712.09" y1="2164.26" x2="719.49" y2="2164.26" gradientTransform="matrix(-0.5, 0.87, -0.58, -1, 1682.83, 1851.11)" gradientUnits="userSpaceOnUse"><stop offset="0" stop-color="#a8190a"/><stop offset="1" stop-color="#e0341b"/></linearGradient><linearGradient id="linear-gradient-7" x1="66.17" y1="311.9" x2="80.27" y2="311.9" gradientTransform="matrix(1, 0, 0, 1, 0, 0)" xlink:href="#linear-gradient-6"/><linearGradient id="linear-gradient-8" x1="66.14" y1="308.92" x2="90.65" y2="308.92" gradientTransform="matrix(1, 0, 0, 1, 0, 0)" xlink:href="#linear-gradient-6"/><linearGradient id="linear-gradient-9" x1="66.11" y1="305.53" x2="102.43" y2="305.53" gradientTransform="matrix(1, 0, 0, 1, 0, 0)" xlink:href="#linear-gradient-6"/><linearGradient id="linear-gradient-10" x1="62.83" y1="354.62" x2="-3.2" y2="275.19" gradientUnits="userSpaceOnUse"><stop offset="0.23" stop-color="#b2b2b2"/><stop offset="0.64" stop-color="#d2d2d2"/><stop offset="0.78" stop-color="#e3e3e3"/></linearGradient><linearGradient id="linear-gradient-11" x1="-580.65" y1="315.09" x2="-490.7" y2="263.16" gradientTransform="matrix(0.87, 0.5, 0.5, 1.44, 337.12, 171.56)" gradientUnits="userSpaceOnUse"><stop offset="0.23" stop-color="#c8c8c8"/><stop offset="0.85" stop-color="#f9f9f9"/></linearGradient><linearGradient id="linear-gradient-12" y1="321.05" x2="35.54" y2="321.05" gradientUnits="userSpaceOnUse"><stop offset="0.17" stop-color="#bebebe"/><stop offset="0.85" stop-color="#f9f9f9"/></linearGradient><linearGradient id="linear-gradient-13" x1="798.02" y1="2089.85" x2="805.42" y2="2089.85" gradientTransform="matrix(-0.5, 0.87, -0.58, -1, 1830.86, 1702.28)" xlink:href="#linear-gradient-6"/><linearGradient id="linear-gradient-14" x1="215.01" y1="311.9" x2="229.1" y2="311.9" gradientTransform="matrix(1, 0, 0, 1, 0, 0)" xlink:href="#linear-gradient-6"/><linearGradient id="linear-gradient-15" x1="214.98" y1="308.92" x2="239.48" y2="308.92" gradientTransform="matrix(1, 0, 0, 1, 0, 0)" xlink:href="#linear-gradient-6"/><linearGradient id="linear-gradient-16" x1="214.95" y1="305.53" x2="251.27" y2="305.53" gradientTransform="matrix(1, 0, 0, 1, 0, 0)" xlink:href="#linear-gradient-6"/><linearGradient id="linear-gradient-17" x1="211.66" y1="354.62" x2="145.63" y2="275.19" xlink:href="#linear-gradient-10"/><linearGradient id="linear-gradient-18" x1="-365.83" y1="240.68" x2="-275.88" y2="188.74" xlink:href="#linear-gradient-11"/><linearGradient id="linear-gradient-19" x1="148.83" y1="321.05" x2="184.38" y2="321.05" xlink:href="#linear-gradient-12"/><linearGradient id="linear-gradient-20" x1="890.67" y1="2009.61" x2="898.08" y2="2009.61" gradientTransform="matrix(-0.5, 0.87, -0.58, -1, 1990.47, 1541.8)" xlink:href="#linear-gradient-6"/><linearGradient id="linear-gradient-21" x1="375.49" y1="311.9" x2="389.58" y2="311.9" gradientTransform="matrix(1, 0, 0, 1, 0, 0)" xlink:href="#linear-gradient-6"/><linearGradient id="linear-gradient-22" x1="375.46" y1="308.92" x2="399.97" y2="308.92" gradientTransform="matrix(1, 0, 0, 1, 0, 0)" xlink:href="#linear-gradient-6"/><linearGradient id="linear-gradient-23" x1="375.43" y1="305.53" x2="411.75" y2="305.53" gradientTransform="matrix(1, 0, 0, 1, 0, 0)" xlink:href="#linear-gradient-6"/><linearGradient id="linear-gradient-24" x1="372.15" y1="354.62" x2="306.11" y2="275.19" xlink:href="#linear-gradient-10"/><linearGradient id="linear-gradient-25" x1="-134.19" y1="160.44" x2="-44.24" y2="108.5" xlink:href="#linear-gradient-11"/><linearGradient id="linear-gradient-26" x1="309.32" y1="321.05" x2="344.86" y2="321.05" xlink:href="#linear-gradient-12"/><linearGradient id="linear-gradient-27" x1="983.63" y1="1929.1" x2="991.04" y2="1929.1" gradientTransform="matrix(-0.5, 0.87, -0.58, -1, 2150.61, 1380.79)" xlink:href="#linear-gradient-6"/><linearGradient id="linear-gradient-28" x1="536.5" y1="311.9" x2="550.59" y2="311.9" gradientTransform="matrix(1, 0, 0, 1, 0, 0)" xlink:href="#linear-gradient-6"/><linearGradient id="linear-gradient-29" x1="536.47" y1="308.92" x2="560.97" y2="308.92" gradientTransform="matrix(1, 0, 0, 1, 0, 0)" xlink:href="#linear-gradient-6"/><linearGradient id="linear-gradient-30" x1="536.44" y1="305.53" x2="572.76" y2="305.53" gradientTransform="matrix(1, 0, 0, 1, 0, 0)" xlink:href="#linear-gradient-6"/><linearGradient id="linear-gradient-31" x1="533.16" y1="354.62" x2="467.12" y2="275.19" xlink:href="#linear-gradient-10"/><linearGradient id="linear-gradient-32" x1="98.2" y1="79.93" x2="188.15" y2="28" xlink:href="#linear-gradient-11"/><linearGradient id="linear-gradient-33" x1="470.32" y1="321.05" x2="505.87" y2="321.05" xlink:href="#linear-gradient-12"/><linearGradient id="linear-gradient-34" x1="1069.48" y1="1854.75" x2="1076.89" y2="1854.75" gradientTransform="matrix(-0.5, 0.87, -0.58, -1, 2298.5, 1232.09)" xlink:href="#linear-gradient-6"/><linearGradient id="linear-gradient-35" x1="685.2" y1="311.9" x2="699.29" y2="311.9" gradientTransform="matrix(1, 0, 0, 1, 0, 0)" xlink:href="#linear-gradient-6"/><linearGradient id="linear-gradient-36" x1="685.17" y1="308.92" x2="709.67" y2="308.92" gradientTransform="matrix(1, 0, 0, 1, 0, 0)" xlink:href="#linear-gradient-6"/><linearGradient id="linear-gradient-37" x1="685.14" y1="305.53" x2="721.46" y2="305.53" gradientTransform="matrix(1, 0, 0, 1, 0, 0)" xlink:href="#linear-gradient-6"/><linearGradient id="linear-gradient-38" x1="681.86" y1="354.62" x2="615.82" y2="275.19" xlink:href="#linear-gradient-10"/><linearGradient id="linear-gradient-39" x1="312.83" y1="5.58" x2="402.78" y2="-46.35" xlink:href="#linear-gradient-11"/><linearGradient id="linear-gradient-40" x1="619.02" y1="321.05" x2="654.57" y2="321.05" xlink:href="#linear-gradient-12"/></defs><g id="Layer_2" data-name="Layer 2"><g id="Layer_2-2" data-name="Layer 2"><g id="connectivity"><path class="cls-1" d="M499.93,297.42c-2.45-103-24.7-144-45.54-162-26-22.48-53.91-12.53-77.84-45-19-25.81-23.42-62-24.23-88"/><line class="cls-2" x1="337.72" y1="297.42" x2="337.72" y2="2.42"/><path class="cls-3" d="M648.23,297.42c-4.43-103-44.74-144-82.49-162-47.17-22.48-97.67-12.53-141-45-34.47-25.81-42.43-62-43.91-88"/><path class="cls-4" d="M175.51,295.54c2.45-103,24.7-144,45.54-162,26-22.49,53.91-12.54,77.84-45,19-25.81,23.42-62,24.23-88"/><path class="cls-5" d="M27.21,295.54c4.43-103,44.74-144,82.49-162,47.17-22.49,97.67-12.54,141-45,34.47-25.81,42.43-62,43.91-88"/></g><line class="cls-6" x1="67.05" y1="315.47" x2="13.23" y2="346.54"/><ellipse class="cls-7" cx="67.05" cy="315.47" rx="2.61" ry="4.52" transform="translate(-248.79 380.81) rotate(-89.69)"/><path class="cls-8" d="M67,308.31a17.87,17.87,0,0,1,8.77,2.12c2.43,1.39,3.64,3.23,3.65,5.06"/><path class="cls-9" d="M67,302.32a33.18,33.18,0,0,1,16.11,3.89c4.47,2.57,6.71,5.94,6.73,9.31"/><path class="cls-10" d="M67,295.53c8.84,0,17.69,2,24.45,5.89s10.17,9,10.2,14.11"/><path class="cls-11" d="M42.45,278.76l-25.82-14.9a3.07,3.07,0,0,0-3.26-.21h0L1.75,270.32h0a3.15,3.15,0,0,1,3.11.3l25.82,14.9c2.69,1.55,4.86,5.71,4.86,9.3v73c0,2-.66,3.37-1.71,4v0L45.48,365c1.11-.54,1.83-2,1.83-4v-73C47.31,284.47,45.13,280.31,42.45,278.76Z"/><path class="cls-12" d="M30.68,371.46,4.86,356.56C2.18,355,0,350.84,0,347.26v-73c0-3.58,2.18-5.22,4.86-3.67l25.82,14.9c2.69,1.55,4.86,5.71,4.86,9.3v73C35.54,371.37,33.37,373,30.68,371.46Z"/><path class="cls-13" d="M30.51,285,5.79,270.71a4.46,4.46,0,0,0-2.23-.66C1.43,270.05,0,272,0,274.88v72.68c0,3.73,2.21,7.92,5,9.55l24.73,14.27A4.39,4.39,0,0,0,32,372c2.13,0,3.56-1.94,3.56-4.83V294.53C35.54,290.81,33.33,286.61,30.51,285Zm4.28,82.23c0,3.43-2.09,5-4.66,3.52L5.41,356.46C2.84,355,.75,351,.75,347.56V274.88c0-3.43,2.09-5,4.66-3.52l24.72,14.27c2.57,1.49,4.66,5.47,4.66,8.9Z"/><line class="cls-6" x1="215.88" y1="315.47" x2="162.07" y2="346.54"/><ellipse class="cls-14" cx="215.88" cy="315.47" rx="2.61" ry="4.52" transform="translate(-100.76 529.64) rotate(-89.69)"/><path class="cls-15" d="M215.84,308.31a17.87,17.87,0,0,1,8.77,2.12c2.43,1.39,3.64,3.23,3.66,5.06"/><path class="cls-16" d="M215.81,302.32a33.3,33.3,0,0,1,16.11,3.89c4.47,2.57,6.72,6,6.73,9.31"/><path class="cls-17" d="M215.78,295.53c8.85,0,17.69,2,24.45,5.89s10.17,9,10.2,14.11"/><path class="cls-18" d="M191.28,278.76l-25.81-14.9a3.09,3.09,0,0,0-3.27-.21h0l-11.61,6.67h0a3.16,3.16,0,0,1,3.11.3l25.81,14.9c2.69,1.55,4.87,5.71,4.87,9.3v73c0,2-.67,3.37-1.72,4v0L194.31,365c1.12-.54,1.84-2,1.84-4v-73C196.15,284.47,194,280.31,191.28,278.76Z"/><path class="cls-19" d="M179.51,371.46l-25.81-14.9c-2.69-1.55-4.87-5.72-4.87-9.3v-73c0-3.59,2.18-5.23,4.87-3.68l25.81,14.9c2.69,1.55,4.87,5.71,4.87,9.3v73C184.38,371.37,182.2,373,179.51,371.46Z"/><path class="cls-20" d="M179.34,285l-24.72-14.27a4.45,4.45,0,0,0-2.22-.66c-2.14,0-3.57,1.94-3.57,4.83v72.68c0,3.73,2.21,7.92,5,9.55l24.72,14.27a4.45,4.45,0,0,0,2.22.66c2.14,0,3.57-1.94,3.57-4.83V294.53C184.38,290.81,182.17,286.61,179.34,285Zm4.28,82.23c0,3.43-2.08,5-4.65,3.52l-24.73-14.27c-2.57-1.49-4.65-5.47-4.65-8.9V274.88c0-3.43,2.08-5,4.65-3.52L179,285.63c2.57,1.49,4.65,5.47,4.65,8.9Z"/><line class="cls-6" x1="376.36" y1="315.47" x2="322.55" y2="346.54"/><ellipse class="cls-21" cx="376.36" cy="315.47" rx="2.61" ry="4.52" transform="translate(58.85 690.12) rotate(-89.69)"/><path class="cls-22" d="M376.32,308.31a17.82,17.82,0,0,1,8.77,2.12c2.43,1.39,3.64,3.23,3.66,5.06"/><path class="cls-23" d="M376.29,302.32a33.36,33.36,0,0,1,16.12,3.89c4.47,2.57,6.71,6,6.72,9.31"/><path class="cls-24" d="M376.26,295.53c8.85,0,17.7,2,24.46,5.89s10.16,9,10.2,14.11"/><path class="cls-25" d="M351.76,278.76,326,263.86a3.07,3.07,0,0,0-3.26-.21h0l-11.62,6.67h0a3.15,3.15,0,0,1,3.11.3L340,285.52c2.68,1.55,4.86,5.71,4.86,9.3v73c0,2-.67,3.37-1.72,4v0L354.79,365c1.12-.54,1.84-2,1.84-4v-73C356.63,284.47,354.45,280.31,351.76,278.76Z"/><path class="cls-26" d="M340,371.46l-25.82-14.9c-2.69-1.55-4.86-5.72-4.86-9.3v-73c0-3.59,2.17-5.23,4.86-3.68L340,285.52c2.68,1.55,4.86,5.71,4.86,9.3v73C344.86,371.37,342.68,373,340,371.46Z"/><path class="cls-27" d="M339.83,285,315.1,270.71a4.39,4.39,0,0,0-2.22-.66c-2.13,0-3.56,1.94-3.56,4.83v72.68c0,3.73,2.21,7.92,5,9.55l24.72,14.27a4.46,4.46,0,0,0,2.23.66c2.13,0,3.56-1.94,3.56-4.83V294.53C344.86,290.81,342.65,286.61,339.83,285Zm4.28,82.23c0,3.43-2.09,5-4.66,3.52l-24.72-14.27c-2.57-1.49-4.66-5.47-4.66-8.9V274.88c0-3.43,2.09-5,4.66-3.52l24.72,14.27c2.57,1.49,4.66,5.47,4.66,8.9Z"/><line class="cls-6" x1="537.37" y1="315.47" x2="483.56" y2="346.55"/><ellipse class="cls-28" cx="537.37" cy="315.47" rx="2.61" ry="4.52" transform="translate(218.99 851.13) rotate(-89.69)"/><path class="cls-29" d="M537.33,308.31a17.82,17.82,0,0,1,8.77,2.12c2.43,1.39,3.64,3.23,3.66,5.06"/><path class="cls-30" d="M537.3,302.32a33.3,33.3,0,0,1,16.11,3.89c4.47,2.57,6.72,6,6.73,9.31"/><path class="cls-31" d="M537.27,295.53c8.85,0,17.7,2,24.45,5.89s10.17,9,10.2,14.11"/><path class="cls-32" d="M512.77,278.76,487,263.86a3.07,3.07,0,0,0-3.26-.21h0l-11.62,6.67h0a3.15,3.15,0,0,1,3.11.3L501,285.52c2.69,1.55,4.87,5.72,4.87,9.3v73c0,2-.67,3.37-1.72,4v0L515.8,365c1.12-.54,1.84-2,1.84-4v-73C517.64,284.47,515.46,280.31,512.77,278.76Z"/><path class="cls-33" d="M501,371.46l-25.81-14.9c-2.69-1.55-4.87-5.72-4.87-9.3v-73c0-3.59,2.18-5.23,4.87-3.68L501,285.52c2.69,1.55,4.87,5.72,4.87,9.3v73C505.87,371.37,503.69,373,501,371.46Z"/><path class="cls-34" d="M500.83,285l-24.72-14.27a4.42,4.42,0,0,0-2.22-.66c-2.13,0-3.57,1.94-3.57,4.83v72.68c0,3.73,2.22,7.92,5,9.55l24.72,14.27a4.46,4.46,0,0,0,2.23.66c2.13,0,3.56-1.94,3.56-4.83V294.53C505.87,290.81,503.66,286.61,500.83,285Zm4.28,82.23c0,3.43-2.08,5-4.65,3.52l-24.72-14.27c-2.58-1.49-4.66-5.47-4.66-8.9V274.88c0-3.43,2.08-5,4.66-3.52l24.72,14.27c2.57,1.49,4.65,5.47,4.65,8.9Z"/><line class="cls-6" x1="686.07" y1="315.47" x2="632.26" y2="346.54"/><ellipse class="cls-35" cx="686.07" cy="315.47" rx="2.61" ry="4.52" transform="translate(366.88 999.83) rotate(-89.69)"/><path class="cls-36" d="M686,308.31a17.82,17.82,0,0,1,8.77,2.12c2.43,1.39,3.64,3.23,3.66,5.06"/><path class="cls-37" d="M686,302.32a33.18,33.18,0,0,1,16.11,3.89c4.47,2.57,6.72,5.94,6.73,9.31"/><path class="cls-38" d="M686,295.53c8.85,0,17.7,2,24.45,5.89s10.17,9,10.2,14.11"/><path class="cls-39" d="M661.47,278.76l-25.81-14.9a3.07,3.07,0,0,0-3.26-.21h0l-11.62,6.67h0a3.13,3.13,0,0,1,3.11.3l25.81,14.9c2.69,1.55,4.87,5.71,4.87,9.3v73c0,2-.67,3.37-1.72,4v0L664.5,365c1.12-.54,1.84-2,1.84-4v-73C666.34,284.47,664.16,280.31,661.47,278.76Z"/><path class="cls-40" d="M649.7,371.46l-25.81-14.9c-2.69-1.56-4.87-5.72-4.87-9.3v-73c0-3.58,2.18-5.22,4.87-3.67l25.81,14.9c2.69,1.55,4.87,5.71,4.87,9.3v73C654.57,371.37,652.39,373,649.7,371.46Z"/><path class="cls-41" d="M649.53,285l-24.72-14.27a4.42,4.42,0,0,0-2.22-.66c-2.13,0-3.57,1.94-3.57,4.83v72.68c0,3.73,2.22,7.92,5,9.55l24.72,14.27A4.46,4.46,0,0,0,651,372c2.13,0,3.56-1.94,3.56-4.83V294.53C654.57,290.81,652.36,286.61,649.53,285Zm4.28,82.23c0,3.43-2.08,5-4.65,3.52l-24.72-14.27c-2.58-1.49-4.66-5.47-4.66-8.9V274.88c0-3.43,2.08-5,4.66-3.52l24.72,14.27c2.57,1.49,4.65,5.47,4.65,8.9Z"/></g></g></svg>