<svg xmlns="http://www.w3.org/2000/svg" xmlns:xlink="http://www.w3.org/1999/xlink" viewBox="0 0 101 216.42"><defs><style>.cls-1{fill-opacity:0.06;fill:url(#linear-gradient);}.cls-1,.cls-2,.cls-3{fill-rule:evenodd;}.cls-2{fill-opacity:0.09;fill:url(#linear-gradient-2);}.cls-3{fill:#f2f2f2;}.cls-4{fill:url(#linear-gradient-3);}.cls-5{fill:url(#linear-gradient-4);}.cls-6{fill:url(#linear-gradient-5);}.cls-7{fill:#fff;}.cls-8{fill:url(#linear-gradient-6);}.cls-19,.cls-9{fill:none;}.cls-10{fill:url(#linear-gradient-7);}.cls-11{fill:url(#linear-gradient-8);}.cls-12{fill:url(#linear-gradient-9);}.cls-13{fill:url(#linear-gradient-10);}.cls-14{fill:url(#linear-gradient-11);}.cls-15{fill:#e40427;}.cls-16{fill:url(#linear-gradient-12);}.cls-17{fill:url(#linear-gradient-13);}.cls-18{fill:url(#linear-gradient-14);}.cls-19{stroke:#e2887f;stroke-miterlimit:10;stroke-width:1.02px;}.cls-20{fill:url(#linear-gradient-15);}.cls-21{fill:url(#linear-gradient-16);}.cls-22{fill:url(#linear-gradient-17);}</style><linearGradient id="linear-gradient" x1="-951.18" y1="749.45" x2="-951.17" y2="749.02" gradientTransform="translate(-144528.74 125299.78) rotate(180) scale(152 167)" gradientUnits="userSpaceOnUse"><stop offset="0.04" stop-color="#1a1a1a"/><stop offset="0.97" stop-color="#999" stop-opacity="0"/></linearGradient><linearGradient id="linear-gradient-2" x1="-888.97" y1="749.39" x2="-888.64" y2="749.07" gradientTransform="translate(-63968.74 117036.57) rotate(180) scale(72 156)" gradientUnits="userSpaceOnUse"><stop offset="0" stop-color="#333"/><stop offset="0.14" stop-color="#454545" stop-opacity="0.82"/><stop offset="0.66" stop-color="#828282" stop-opacity="0.23"/><stop offset="0.95" stop-color="#999" stop-opacity="0"/></linearGradient><linearGradient id="linear-gradient-3" x1="43.34" y1="95.12" x2="82.61" y2="102.04" gradientUnits="userSpaceOnUse"><stop offset="0" stop-color="#fff"/><stop offset="1" stop-color="#d4d4d4"/></linearGradient><linearGradient id="linear-gradient-4" x1="40.15" y1="75.87" x2="85.81" y2="83.93" xlink:href="#linear-gradient-3"/><linearGradient id="linear-gradient-5" x1="9.14" y1="52.51" x2="56.69" y2="79.96" gradientUnits="userSpaceOnUse"><stop offset="0.03" stop-color="gray"/><stop offset="0.21" stop-color="#a1a1a1"/><stop offset="0.42" stop-color="#bfbfbf"/><stop offset="0.62" stop-color="#d5d5d5"/><stop offset="0.82" stop-color="#e2e2e2"/><stop offset="1" stop-color="#e6e6e6"/></linearGradient><linearGradient id="linear-gradient-6" x1="31.62" y1="65.49" x2="88.18" y2="98.15" xlink:href="#linear-gradient-5"/><linearGradient id="linear-gradient-7" x1="37.26" y1="101.52" x2="32.63" y2="92.81" gradientUnits="userSpaceOnUse"><stop offset="0" stop-color="#0045f4" stop-opacity="0"/><stop offset="1" stop-color="#6dfafa"/></linearGradient><linearGradient id="linear-gradient-8" x1="21.63" y1="74.41" x2="50.19" y2="79.44" xlink:href="#linear-gradient-3"/><linearGradient id="linear-gradient-9" x1="-14.72" y1="58.25" x2="41.84" y2="90.9" xlink:href="#linear-gradient-5"/><linearGradient id="linear-gradient-10" x1="68.87" y1="122.32" x2="68.87" y2="108.54" xlink:href="#linear-gradient-7"/><linearGradient id="linear-gradient-11" x1="54.1" y1="94.76" x2="82.65" y2="99.79" gradientUnits="userSpaceOnUse"><stop offset="0" stop-color="#a8190a"/><stop offset="1" stop-color="#e0341b"/></linearGradient><linearGradient id="linear-gradient-12" x1="21.75" y1="79.34" x2="69.22" y2="106.75" gradientUnits="userSpaceOnUse"><stop offset="0" stop-color="#a8190a"/><stop offset="0.44" stop-color="#a8190a"/><stop offset="1" stop-color="#a8190a"/></linearGradient><linearGradient id="linear-gradient-13" x1="16.59" y1="87.37" x2="36.61" y2="98.93" xlink:href="#linear-gradient-5"/><linearGradient id="linear-gradient-14" x1="20.59" y1="102.99" x2="62.02" y2="110.3" xlink:href="#linear-gradient-3"/><linearGradient id="linear-gradient-15" x1="72.74" y1="65.19" x2="77.88" y2="65.19" gradientTransform="translate(140.09 -10.47) rotate(89.69)" xlink:href="#linear-gradient-11"/><linearGradient id="linear-gradient-16" x1="52.62" y1="54.52" x2="57.77" y2="54.52" gradientTransform="translate(109.41 -0.97) rotate(89.69)" xlink:href="#linear-gradient-11"/><linearGradient id="linear-gradient-17" x1="32.84" y1="58.75" x2="37.98" y2="58.75" gradientTransform="translate(93.97 23.03) rotate(89.69)" xlink:href="#linear-gradient-11"/></defs><g id="Layer_2" data-name="Layer 2"><g id="elements"><g id="connectivity"><path class="cls-1" d="M101,105.46,0,109.11V216.42H101Z"/><path class="cls-2" d="M47.84,105.46,0,108.87V209.11H47.84Z"/><path class="cls-3" d="M51.45,79.44,1,108.67c-1.43.82-1.26,2.27.4,3.23L44,136.56a6.17,6.17,0,0,0,5.58.23L100,107.56c1.43-.82,1.26-2.27-.4-3.23L57,79.67A6.17,6.17,0,0,0,51.45,79.44Z"/><path class="cls-4" d="M47.35,95.57c6.29-1,13.06.1,17.67,2.76s6.45,6.58,4.79,10.21l11,1.71C83.49,104.36,80.52,98,73,93.71s-18.46-6-28.65-4.49l1.48,3.17Z"/><path class="cls-5" d="M81.78,69.1h0C82,64.4,78.93,59.75,73,56.35c-7.48-4.32-18.46-6-28.65-4.49V89.22l1.48,3.17,1.49,3.18c6.29-1,13.06.1,17.67,2.76a11.2,11.2,0,0,1,4.79,4.84v5.37l11,1.71h0a10.31,10.31,0,0,0,1-4.48h0Z"/><polygon class="cls-6" points="47.35 58.21 47.35 95.57 44.38 89.22 44.38 51.86 47.35 58.21"/><path class="cls-7" d="M47.35,58.21c6.29-1,13.06.1,17.67,2.76s6.45,6.58,4.79,10.21l11,1.71C83.49,67,80.52,60.67,73,56.35s-18.46-6-28.65-4.49L45.86,55Z"/><polygon class="cls-8" points="69.81 71.18 69.81 108.54 80.8 110.25 80.8 72.89 69.81 71.18"/><path class="cls-9" d="M65,98.33c-4.61-2.66-11.38-3.72-17.67-2.76h0a23.89,23.89,0,0,0-8.18,2.71A11.16,11.16,0,0,0,34.46,103c-1.66,3.63.18,7.55,4.79,10.21s11.39,3.72,17.68,2.76h0a23.89,23.89,0,0,0,8.18-2.71,11.07,11.07,0,0,0,4.7-4.72C71.47,104.91,69.64,101,65,98.33Z"/><path class="cls-10" d="M39.17,98.28a23.89,23.89,0,0,1,8.18-2.71l-1.49-3.18-1.48-3.17h0a38.36,38.36,0,0,0-13.27,4.41c-3.67,2.12-6.31,4.77-7.63,7.66l11,1.71A11.16,11.16,0,0,1,39.17,98.28Z"/><path class="cls-11" d="M45.86,55l-1.48-3.18a38.57,38.57,0,0,0-13.27,4.41c-3.67,2.12-6.31,4.77-7.63,7.66h0v37.36l11,1.71h0a11.16,11.16,0,0,1,4.71-4.72,23.89,23.89,0,0,1,8.18-2.71V58.21Z"/><polygon class="cls-12" points="34.47 65.64 34.47 103 23.48 101.29 23.48 63.93 34.47 65.64"/><path class="cls-7" d="M39.17,60.93a23.68,23.68,0,0,1,8.18-2.72L45.86,55l-1.48-3.18h0a38.57,38.57,0,0,0-13.27,4.41c-3.67,2.12-6.31,4.77-7.63,7.66l11,1.72A11.11,11.11,0,0,1,39.17,60.93Z"/><path class="cls-13" d="M73.17,117.91c3.67-2.12,6.31-4.77,7.63-7.66l-11-1.71a11.07,11.07,0,0,1-4.7,4.72A23.68,23.68,0,0,1,56.93,116l1.67,3.57,1.3,2.77h0A38.43,38.43,0,0,0,73.17,117.91Z"/><path class="cls-14" d="M80.73,73l-10.92-1.7A11.07,11.07,0,0,1,65.11,76a23.68,23.68,0,0,1-8.18,2.72l1.67,3.57L59.9,85h0v30.31a27.88,27.88,0,0,1-3,.63l1.67,3.57,1.3,2.77h0a38.43,38.43,0,0,0,13.27-4.41c3.67-2.12,6.31-4.77,7.63-7.66V72.93Z"/><path class="cls-15" d="M73.17,80.63c3.67-2.12,6.31-4.77,7.63-7.66l-11-1.71A11.07,11.07,0,0,1,65.11,76a23.68,23.68,0,0,1-8.18,2.72l1.67,3.57L59.9,85h0A38.43,38.43,0,0,0,73.17,80.63Z"/><polygon class="cls-16" points="56.93 78.7 56.93 115.97 59.9 122.32 59.9 85.04 56.93 78.7"/><polygon class="cls-17" points="34.47 90.37 34.47 102.4 29.94 102.4 29.94 89.67 34.47 90.37"/><path class="cls-18" d="M58.6,106.92l-1.67-3.58c-6.29,1-13.06-.1-17.68-2.76S32.8,94,34.46,90.37l-11-1.71a10.42,10.42,0,0,0-1,4.36h0V106h0c.15,4.39,3.22,8.67,8.73,11.85,7.49,4.32,18.46,6,28.66,4.49V109.69Z"/><path class="cls-7" d="M56.93,103.34c-6.29,1-13.06-.1-17.68-2.76S32.8,94,34.46,90.37l-11-1.71c-2.69,5.88.28,12.22,7.76,16.54s18.46,6,28.66,4.49l-1.3-2.77Z"/><line class="cls-19" x1="55.19" x2="55.19" y2="54.52"/><line class="cls-19" x1="75.31" y1="30.11" x2="75.31" y2="65.19"/><line class="cls-19" x1="35.41" y1="21.49" x2="35.41" y2="58.75"/><ellipse class="cls-20" cx="75.31" cy="65.19" rx="1.49" ry="2.57" transform="translate(9.71 140.15) rotate(-89.69)"/><ellipse class="cls-21" cx="55.19" cy="54.52" rx="1.49" ry="2.57" transform="translate(0.38 109.41) rotate(-89.69)"/><ellipse class="cls-22" cx="35.41" cy="58.75" rx="1.49" ry="2.57" transform="translate(-23.53 93.85) rotate(-89.69)"/></g></g></g></svg>