<svg xmlns="http://www.w3.org/2000/svg" xmlns:xlink="http://www.w3.org/1999/xlink" viewBox="0 0 210.57 313.16"><defs><style>.cls-1{fill:#c02e22;}.cls-2{fill:#df5c50;}.cls-3,.cls-5{opacity:0.8;}.cls-4{fill:url(#radial-gradient);}.cls-5{fill:url(#radial-gradient-2);}.cls-6{opacity:0.9;}.cls-7{fill:#e26558;}.cls-8{fill:#e0341b;}.cls-9{fill:#a8190a;}</style><radialGradient id="radial-gradient" cx="105.29" cy="221.15" r="37.84" gradientUnits="userSpaceOnUse"><stop offset="0" stop-color="#fff"/><stop offset="1" stop-color="#e0e0e0" stop-opacity="0.9"/></radialGradient><radialGradient id="radial-gradient-2" cx="106.83" cy="40.04" r="188.73" xlink:href="#radial-gradient"/></defs><g id="Layer_2" data-name="Layer 2"><g id="Layer_1-2" data-name="Layer 1"><ellipse class="cls-1" cx="105.29" cy="284.43" rx="29.24" ry="50.64" transform="translate(-179.71 387.67) rotate(-89.69)"/><polygon class="cls-1" points="55.16 287.89 43.88 239.49 166.75 239.57 155.14 289.22 55.16 287.89"/><ellipse class="cls-2" cx="105.29" cy="236.08" rx="35.69" ry="61.82" transform="translate(-131.37 339.59) rotate(-89.69)"/><ellipse class="cls-1" cx="105.29" cy="236.08" rx="29.38" ry="50.89" transform="translate(-131.37 339.59) rotate(-89.69)"/><g class="cls-3"><path class="cls-4" d="M54.41,236.08A17.72,17.72,0,0,1,56,228.27a24.11,24.11,0,0,1,4.5-6.67,36.59,36.59,0,0,1,6.19-5.18,33.64,33.64,0,0,1,3.46-2.07L72,213.4l.89-.48.93-.4a63.2,63.2,0,0,1,15.37-4.79,88.92,88.92,0,0,1,16-1.52,89,89,0,0,1,16,1.59,64.84,64.84,0,0,1,15.36,4.83l.92.4.89.48,1.78,1a35.53,35.53,0,0,1,3.46,2.07,36.53,36.53,0,0,1,6.21,5.16,24.37,24.37,0,0,1,4.58,6.61,18.14,18.14,0,0,1,1.77,7.78c-.17-5.39-2.94-10.36-6.7-14.05a36.63,36.63,0,0,0-6.2-5,38.09,38.09,0,0,0-3.45-2l-1.78-.9-.88-.46-.92-.38c-1.23-.5-2.44-1.05-3.69-1.5l-3.78-1.27-3.85-1c-1.28-.35-2.6-.55-3.9-.83a87.76,87.76,0,0,0-31.72-.07c-1.3.28-2.62.47-3.91.82l-3.85,1-3.78,1.27c-1.25.44-2.46,1-3.69,1.49l-.92.38-.89.45L70.5,215a32.82,32.82,0,0,0-3.45,2,35.67,35.67,0,0,0-6.17,5C57.14,225.66,54.45,230.68,54.41,236.08Z" transform="translate(-0.01 -0.5)"/></g><path class="cls-5" d="M205,139.51h0l-.13.25A105.42,105.42,0,0,1,195,160.92l-38.72,82.35-.23.46v0c-2.41,4.7-6.82,9.13-13.23,12.82A62.68,62.68,0,0,1,127,262.86a89.42,89.42,0,0,1-42.65,0A64,64,0,0,1,68,256.44a41.23,41.23,0,0,1-8.1-6,27.56,27.56,0,0,1-5.17-6.7v0c-.33-.62-.62-1.26-.89-1.9L15.73,161.15a104.74,104.74,0,0,1-10.1-21.39l-.11-.25h0a105.29,105.29,0,1,1,199.49,0Z" transform="translate(-0.01 -0.5)"/><g class="cls-6"><polygon class="cls-7" points="103.69 220.02 127.85 175.3 103.69 161.35 103.69 220.02"/><polygon class="cls-8" points="110.39 157.44 134.55 171.39 127.85 175.26 103.69 161.31 110.39 157.44"/><polygon class="cls-9" points="127.85 175.3 134.55 171.39 110.39 215.9 103.69 220.02 127.85 175.3"/><polygon class="cls-9" points="108.62 105.98 115.32 102.07 115.45 160.14 108.75 164.27 108.62 105.98"/><polygon class="cls-7" points="108.75 105.6 84.59 150.32 108.75 164.27 108.75 105.6"/></g></g></g></svg>