<?xml version="1.0" encoding="utf-8"?>
<!-- Generator: Adobe Illustrator 26.0.1, SVG Export Plug-In . SVG Version: 6.00 Build 0)  -->
<svg version="1.1" id="Layer_1" xmlns="http://www.w3.org/2000/svg" xmlns:xlink="http://www.w3.org/1999/xlink" x="0px" y="0px"
	 viewBox="0 0 163 188.6" style="enable-background:new 0 0 163 188.6;" xml:space="preserve">
<style type="text/css">
	.st0{fill:url(#SVGID_1_);}
	.st1{fill:url(#SVGID_00000009565395755730839080000009214278537283278252_);}
	.st2{opacity:0.2;fill:#FFFFFF;enable-background:new    ;}
	.st3{opacity:0.4;fill:url(#SVGID_00000006710198202530351440000007323852588205162643_);enable-background:new    ;}
	.st4{fill:url(#SVGID_00000078026692410183499440000000268303225590830218_);}
	.st5{fill:url(#SVGID_00000125586384277485539660000016347254894848101802_);}
	.st6{fill:url(#SVGID_00000075135393977964480870000017139813880269764767_);}
	.st7{fill:url(#SVGID_00000109001773451185234120000011454598573562910599_);}
	.st8{opacity:0.8;fill:#FFFFFF;enable-background:new    ;}
	.st9{fill:#FFFFFF;}
	.st10{font-family:'SpaceMono-Regular';}
	.st11{font-size:4.8466px;}
	.st12{fill:#EF928B;}
</style>
<g id="Layer_2_00000176008775676283432650000010801440075466824606_">
	<g id="Layer_1-2">
		
			<linearGradient id="SVGID_1_" gradientUnits="userSpaceOnUse" x1="8163.4204" y1="457.0493" x2="8215.4727" y2="457.0493" gradientTransform="matrix(-1 0 0 1 8291.9502 -376.15)">
			<stop  offset="3.000000e-02" style="stop-color:#E26558"/>
			<stop  offset="0.21" style="stop-color:#E0341B"/>
			<stop  offset="1" style="stop-color:#BA210F"/>
		</linearGradient>
		<path class="st0" d="M76.5,14.9c0.1-3.8,2.7-7.5,7.7-10.4c10.2-5.9,26.7-5.9,36.8-0.1c5,2.9,7.6,6.7,7.6,10.5v131.8
			c0,3.9-2.5,7.8-7.7,10.7c-10.2,5.9-26.7,5.9-36.8,0.1c-5.1-3-7.7-6.9-7.6-10.8V14.9z"/>
		
			<linearGradient id="SVGID_00000141419733156404172300000002297345189462142340_" gradientUnits="userSpaceOnUse" x1="-2877.3201" y1="-1251.2429" x2="-2833.3416" y2="-1251.2429" gradientTransform="matrix(1 4.537840e-03 4.537840e-03 -1 2959.2812 -1223.2646)">
			<stop  offset="4.000000e-02" style="stop-color:#999999"/>
			<stop  offset="0.97" style="stop-color:#E6E6E6"/>
		</linearGradient>
		<path style="fill:url(#SVGID_00000141419733156404172300000002297345189462142340_);" d="M102.4,2.3c12.1-0.1,22,5.6,22.1,12.6
			s-9.8,12.8-21.9,12.8c-12.1,0.1-22-5.6-22.1-12.6S90.3,2.4,102.4,2.3z"/>
		<path class="st2" d="M79.7,51.4c-0.3-3.6,1.9-7.2,6.7-10c9-5.2,23.5-5.2,32.6,0.1c4.5,2.6,6.8,6,6.8,9.4V145
			c0.1,3.5-2.1,6.9-6.7,9.6c-9,5.2-23.5,5.1-32.6,0c-4.8-2.8-7.1-6.5-6.8-10.1V51.4z"/>
		
			<ellipse transform="matrix(5.410390e-03 -1 1 5.410390e-03 51.2914 153.3023)" class="st2" cx="102.7" cy="50.9" rx="13.3" ry="23"/>
		
			<linearGradient id="SVGID_00000183935797142142508320000005050400851048769435_" gradientUnits="userSpaceOnUse" x1="4420.2681" y1="4483.7944" x2="4453.3579" y2="4483.7944" gradientTransform="matrix(-0.4953 -0.8627 -0.8627 0.4953 6178.7651 1772.7181)">
			<stop  offset="0" style="stop-color:#E26558"/>
			<stop  offset="1" style="stop-color:#E0341B"/>
		</linearGradient>
		<path style="opacity:0.4;fill:url(#SVGID_00000183935797142142508320000005050400851048769435_);enable-background:new    ;" d="
			M79,147.5c0-7.4,10.5-13.4,23.4-13.3c12.9,0.1,23.3,6.2,23.3,13.6c0,7.4-10.5,13.4-23.4,13.3C89.4,161.1,78.9,155,79,147.5z"/>
		
			<linearGradient id="SVGID_00000010279758222803282220000006031919862529269667_" gradientUnits="userSpaceOnUse" x1="8209.9102" y1="483.8881" x2="8261.9727" y2="483.8881" gradientTransform="matrix(-1 0 0 1 8291.9502 -376.15)">
			<stop  offset="3.000000e-02" style="stop-color:#E26558"/>
			<stop  offset="0.21" style="stop-color:#E0341B"/>
			<stop  offset="1" style="stop-color:#BA210F"/>
		</linearGradient>
		<path style="fill:url(#SVGID_00000010279758222803282220000006031919862529269667_);" d="M30,41.7c0.1-3.8,2.7-7.5,7.7-10.4
			c10.2-5.9,26.7-5.9,36.8-0.1c5,2.9,7.5,6.7,7.6,10.5v131.8c0,3.9-2.5,7.8-7.7,10.7c-10.2,5.9-26.7,5.9-36.8,0.1
			c-5.2-3-7.7-6.9-7.6-10.8L30,41.7z"/>
		
			<linearGradient id="SVGID_00000065050244008206569210000006652658719253276324_" gradientUnits="userSpaceOnUse" x1="-2923.78" y1="-1278.2953" x2="-2879.8015" y2="-1278.2953" gradientTransform="matrix(1 4.537840e-03 4.537840e-03 -1 2959.2825 -1223.2655)">
			<stop  offset="4.000000e-02" style="stop-color:#999999"/>
			<stop  offset="0.97" style="stop-color:#E6E6E6"/>
		</linearGradient>
		<path style="fill:url(#SVGID_00000065050244008206569210000006652658719253276324_);" d="M56,29.2c12.1-0.1,22,5.6,22.1,12.6
			s-9.8,12.8-21.9,12.8S34.1,49,34.1,42S43.8,29.2,56,29.2z"/>
		
			<linearGradient id="SVGID_00000133522554301352730660000012811300403849137838_" gradientUnits="userSpaceOnUse" x1="8242.5098" y1="414.3863" x2="8229.29" y2="414.3863" gradientTransform="matrix(-1 0 0 1 8291.9502 -376.15)">
			<stop  offset="4.000000e-02" style="stop-color:#999999"/>
			<stop  offset="0.97" style="stop-color:#E6E6E6"/>
		</linearGradient>
		<path style="fill:url(#SVGID_00000133522554301352730660000012811300403849137838_);" d="M49.5,34.9c0.1-1.2,0.8-2.3,1.9-2.8
			c2.9-1.5,6.4-1.5,9.4,0c1.1,0.5,1.9,1.5,2,2.8v6.8c-0.1,1.2-0.9,2.2-2,2.7c-2.9,1.5-6.4,1.5-9.3,0c-1.1-0.5-1.8-1.5-1.9-2.7
			L49.5,34.9L49.5,34.9z"/>
		
			<linearGradient id="SVGID_00000099639595430572802310000005091756465687393673_" gradientUnits="userSpaceOnUse" x1="8231.1426" y1="-1222.5718" x2="8242.7412" y2="-1222.5718" gradientTransform="matrix(-1 4.589402e-03 -4.589402e-03 -1 8293.79 -1226.1042)">
			<stop  offset="4.000000e-02" style="stop-color:#999999"/>
			<stop  offset="0.97" style="stop-color:#E6E6E6"/>
		</linearGradient>
		<path style="fill:url(#SVGID_00000099639595430572802310000005091756465687393673_);" d="M50.3,34.3c0-1.9,2.6-3.3,5.8-3.3
			c3.2,0,5.8,1.5,5.8,3.4s-2.6,3.3-5.8,3.3C52.8,37.7,50.2,36.2,50.3,34.3z"/>
		<path class="st2" d="M33.7,77.9c-0.3-3.6,1.9-7.2,6.7-10c9-5.2,23.5-5.2,32.6,0.1c4.5,2.6,6.8,6,6.8,9.4v94.1
			c0.1,3.4-2.1,6.9-6.7,9.6c-9,5.2-23.5,5.2-32.6-0.1c-4.8-2.8-7.1-6.5-6.8-10.1L33.7,77.9z"/>
		
			<ellipse transform="matrix(9.948191e-03 -1 1 9.948191e-03 -20.7284 135.6044)" class="st2" cx="58.1" cy="78.3" rx="13.3" ry="23"/>
		<path class="st8" d="M79.6,66l-5.4,3.1v6.2L72,76.6v-6.2l-5.4,3.1V71l5.4-3.1v-6.2l2.2-1.3v6.2l5.4-3.1L79.6,66z M113.1,140.9
			l5.4-3.1v-6.2l2.2-1.3v6.2l5.4-3.1v2.6l-5.4,3.1v6.2l-2.2,1.3v-6.2l-5.4,3.1V140.9z M114.9,39l9.3-5.4v2.5l-9.3,5.4V39z"/>
		<path class="st9" d="M77.8,168l-9.3,5.4v-2.6l9.3-5.4V168z"/>
		<g>
			<text transform="matrix(0 -0.9866 0.867 0.4983 40.0798 170.1697)" class="st9 st10 st11">AAA HR03 1.2V 900m</text>
			<text transform="matrix(0 -0.9866 0.867 0.4983 40.0798 128.0603)" class="st9 st10 st11">A</text>
			<text transform="matrix(0 -0.9866 0.867 0.4983 40.0798 125.1599)" class="st9 st10 st11">h</text>
		</g>
		<g>
			<text transform="matrix(0 -0.9866 0.867 0.4983 89.0796 150.1694)" class="st12 st10 st11">AAA HR03 1.2V 900m</text>
			<text transform="matrix(0 -0.9866 0.867 0.4983 89.0796 108.06)" class="st12 st10 st11">A</text>
			<text transform="matrix(0 -0.9866 0.867 0.4983 89.0796 105.1596)" class="st12 st10 st11">h</text>
		</g>
	</g>
</g>
</svg>
