<svg xmlns="http://www.w3.org/2000/svg" xmlns:xlink="http://www.w3.org/1999/xlink" viewBox="0 0 277 312.36"><defs><style>.cls-1,.cls-7{fill:none;}.cls-2{fill:url(#linear-gradient);}.cls-3{fill:url(#linear-gradient-2);}.cls-4{fill:url(#linear-gradient-3);}.cls-5{fill:url(#linear-gradient-4);}.cls-6{fill:#a8190a;}.cls-7{stroke:#e2887f;stroke-miterlimit:10;}.cls-8{fill:url(#linear-gradient-5);}.cls-9{fill:url(#linear-gradient-6);}.cls-10{fill:url(#linear-gradient-7);}.cls-11{fill:url(#linear-gradient-8);}.cls-12{fill:url(#linear-gradient-9);}.cls-13{clip-path:url(#clip-path);}.cls-14{fill:#fff;opacity:0.1;}.cls-15{fill:url(#linear-gradient-10);}</style><linearGradient id="linear-gradient" x1="3242.54" y1="3509.92" x2="3385.07" y2="3509.92" gradientTransform="matrix(0.87, 0.5, -1, 0.58, 735.34, -3481.2)" gradientUnits="userSpaceOnUse"><stop offset="0.03" stop-color="#e26558"/><stop offset="0.21" stop-color="#e0341b"/><stop offset="1" stop-color="#ba210f"/></linearGradient><linearGradient id="linear-gradient-2" x1="3242.54" y1="3423.44" x2="3385.07" y2="3423.44" xlink:href="#linear-gradient"/><linearGradient id="linear-gradient-3" x1="3242.54" y1="3466.68" x2="3385.07" y2="3466.68" xlink:href="#linear-gradient"/><linearGradient id="linear-gradient-4" x1="51.78" y1="217.31" x2="240.94" y2="167.58" gradientTransform="matrix(1, 0, 0, 1, 0, 0)" xlink:href="#linear-gradient"/><linearGradient id="linear-gradient-5" x1="3224.63" y1="3494.42" x2="3367.16" y2="3494.42" xlink:href="#linear-gradient"/><linearGradient id="linear-gradient-6" x1="3224.63" y1="3407.93" x2="3367.16" y2="3407.93" xlink:href="#linear-gradient"/><linearGradient id="linear-gradient-7" x1="3224.63" y1="3451.17" x2="3367.16" y2="3451.17" xlink:href="#linear-gradient"/><linearGradient id="linear-gradient-8" x1="-249.25" y1="411.89" x2="-98.51" y2="498.91" gradientTransform="translate(0 -574.82) scale(1 1.15)" xlink:href="#linear-gradient"/><linearGradient id="linear-gradient-9" x1="76.07" y1="145.33" x2="287.24" y2="130.65" gradientUnits="userSpaceOnUse"><stop offset="0.03" stop-color="#e26558"/><stop offset="0.21" stop-color="#e0341b"/><stop offset="0.67" stop-color="#ba210f"/></linearGradient><clipPath id="clip-path"><path class="cls-1" d="M138.5,72.27a87,87,0,0,0-87,86.52c0,.13,0,.25,0,.38.09,12.84,8.65,25.69,25.67,35.52,34.09,19.68,89.18,19.78,123.06.22,16.79-9.69,25.2-22.39,25.28-35.14,0-.13,0-.25,0-.38v-.11A87,87,0,0,0,138.5,72.27Z"/></clipPath><linearGradient id="linear-gradient-10" x1="6.96" y1="67.04" x2="28.42" y2="67.04" gradientTransform="matrix(1, 0, 0, 1, 0, 0)" xlink:href="#linear-gradient"/></defs><g id="Layer_2" data-name="Layer 2"><g id="Layer_1-2" data-name="Layer 1"><path class="cls-2" d="M51.49,177.08c0-.13,0-.25,0-.38C51.5,176.83,51.49,177,51.49,177.08Z"/><path class="cls-3" d="M225.51,177.3c0,.13,0,.25,0,.38C225.5,177.55,225.51,177.43,225.51,177.3Z"/><path class="cls-4" d="M199.83,141.78c-34.08-19.68-89.17-19.78-123-.22C60,151.25,51.58,164,51.5,176.7c0,.13,0,.25,0,.38.09,12.84,8.66,25.69,25.68,35.52,34.08,19.68,89.18,19.78,123.05.22,16.79-9.69,25.2-22.39,25.28-35.14,0-.13,0-.25,0-.38C225.42,164.46,216.85,151.61,199.83,141.78Z"/><path class="cls-5" d="M199.83,141.78c-34.08-19.68-89.17-19.78-123-.22C60,151.25,51.58,164,51.5,176.7c0,.13,0,.25,0,.38v.11a87,87,0,0,0,174,.49c0-.13,0-.25,0-.38C225.42,164.46,216.85,151.61,199.83,141.78Z"/><path class="cls-6" d="M199.83,141.78c-34.08-19.68-89.17-19.78-123-.22C60,151.25,51.58,164,51.5,176.7c0,.13,0,.25,0,.38.09,12.84,8.66,25.69,25.68,35.52,34.08,19.68,89.18,19.78,123.05.22,16.79-9.69,25.2-22.39,25.28-35.14,0-.13,0-.25,0-.38C225.42,164.46,216.85,151.61,199.83,141.78Z"/><path class="cls-7" d="M3.68,78.34c16.19-28,89.68-15.93,164.14,27.06S289.51,206,273.32,234"/><path class="cls-7" d="M3.68,234C-12.51,206,34.73,148.39,109.18,105.4s148-55.1,164.14-27.06"/><path class="cls-7" d="M273.32,234c-16.19,28-89.68,15.92-164.14-27.07S-12.51,106.38,3.68,78.34"/><path class="cls-7" d="M273.32,78.34c16.19,28-31,85.62-105.5,128.61S19.87,262.06,3.68,234"/><path class="cls-7" d="M28.42,266.26C5.52,243.36,36.25,175.52,97,114.72S225.68,23.2,248.58,46.1"/><path class="cls-7" d="M248.58,46.1C271.48,69,240.75,136.84,180,197.64S51.32,289.15,28.42,266.26"/><path class="cls-7" d="M60.66,291c-28-16.19-15.92-89.68,27.06-164.14S188.3,5.17,216.34,21.36"/><path class="cls-7" d="M216.34,21.36c28,16.19,15.92,89.67-27.06,164.13S88.7,307.19,60.66,291"/><path class="cls-7" d="M98.21,306.55c-31.28-8.38-38.6-82.5-16.34-165.55S147.51-2.58,178.79,5.8"/><path class="cls-7" d="M178.79,5.8c31.28,8.39,38.6,82.5,16.34,165.55s-65.64,143.58-96.92,135.2"/><path class="cls-7" d="M138.5,311.86c-32.38,0-58.63-69.7-58.63-155.68S106.12.5,138.5.5"/><path class="cls-7" d="M138.5.5c32.38,0,58.63,69.7,58.63,155.68S170.88,311.86,138.5,311.86"/><path class="cls-8" d="M51.49,159.17c0-.13,0-.25,0-.38C51.5,158.92,51.49,159,51.49,159.17Z"/><path class="cls-9" d="M225.51,159.39c0,.13,0,.25,0,.38C225.5,159.64,225.51,159.52,225.51,159.39Z"/><path class="cls-10" d="M199.83,123.87c-34.08-19.68-89.18-19.78-123-.22C60,133.34,51.58,146,51.5,158.79c0,.13,0,.25,0,.38.09,12.84,8.65,25.69,25.68,35.52,34.08,19.68,89.17,19.78,123.05.22,16.79-9.69,25.2-22.39,25.28-35.14,0-.13,0-.25,0-.38C225.42,146.55,216.85,133.7,199.83,123.87Z"/><path class="cls-11" d="M199.83,123.87c-34.08-19.68-89.18-19.78-123-.22C60,133.34,51.58,146,51.5,158.79c0,.13,0,.25,0,.38.09,12.84,8.65,25.69,25.68,35.52,34.08,19.68,89.17,19.78,123.05.22,16.79-9.69,25.2-22.39,25.28-35.14,0-.13,0-.25,0-.38C225.42,146.55,216.85,133.7,199.83,123.87Z"/><path class="cls-12" d="M138.5,72.27a87,87,0,0,0-87,86.52c0,.13,0,.25,0,.38.09,12.84,8.65,25.69,25.67,35.52,34.09,19.68,89.18,19.78,123.06.22,16.79-9.69,25.2-22.39,25.28-35.14,0-.13,0-.25,0-.38v-.11A87,87,0,0,0,138.5,72.27Z"/><g class="cls-13"><circle class="cls-14" cx="84.91" cy="98.1" r="56.49"/><circle class="cls-14" cx="60.66" cy="72.27" r="56.49"/></g><circle class="cls-15" cx="17.69" cy="67.04" r="10.73"/></g></g></svg>