<svg xmlns="http://www.w3.org/2000/svg" xmlns:xlink="http://www.w3.org/1999/xlink" viewBox="0 0 182.55 118.42"><defs><style>.cls-1{fill:url(#linear-gradient);}.cls-2{fill:url(#linear-gradient-2);}.cls-3{fill:url(#linear-gradient-3);}</style><linearGradient id="linear-gradient" x1="125.15" y1="8.34" x2="149.54" y2="75.35" gradientUnits="userSpaceOnUse"><stop offset="0" stop-color="#fff"/><stop offset="0.32" stop-color="#efefef"/><stop offset="0.96" stop-color="#c6c6c6"/><stop offset="1" stop-color="#c3c3c3"/></linearGradient><linearGradient id="linear-gradient-2" x1="64.84" y1="3.63" x2="103.2" y2="109.01" xlink:href="#linear-gradient"/><linearGradient id="linear-gradient-3" x1="25.11" y1="61.91" x2="45.95" y2="119.16" xlink:href="#linear-gradient"/></defs><g id="Layer_2" data-name="Layer 2"><g id="Layer_1-2" data-name="Layer 1"><path class="cls-1" d="M182.55,49.42c0,.25,0,.5,0,.75-.25,6.19-4.45,12.31-12.61,17C153,77,125.56,76.9,108.55,67.09c-8-4.62-12.25-10.59-12.76-16.62h0c0-.35,0-.69,0-1,0-.51,0-1,0-1.52a43.38,43.38,0,0,1,86.74,1.52Z"/><path class="cls-2" d="M155.06,68.19c0,1.27,0,2.53-.1,3.79-1.38,8.82-7.9,17.42-19.58,24.16C108.79,111.49,65.55,111.42,38.8,96,26.26,88.73,19.56,79.41,18.72,70h0c0-.58,0-1.17,0-1.75,0-.85,0-1.68.05-2.52A68.17,68.17,0,0,1,155,65.09C155,66.11,155.06,67.15,155.06,68.19Z"/><path class="cls-3" d="M74.15,97v.19c0,5.44-3.61,10.86-10.77,15-14.44,8.33-37.91,8.29-52.44-.1C3.71,107.92.05,102.47,0,97v-.17A37.08,37.08,0,0,1,74.15,97Z"/></g></g></svg>