<svg xmlns="http://www.w3.org/2000/svg" xmlns:xlink="http://www.w3.org/1999/xlink" viewBox="0 0 149.61 274.34"><defs><style>.cls-1{isolation:isolate;}.cls-2{fill:#f0f0f0;}.cls-3{fill:url(#linear-gradient);}.cls-4{fill:#b9b9b9;}.cls-5{mix-blend-mode:multiply;}.cls-6{fill:#ccc;}.cls-7{fill:#a8190a;}.cls-8{fill:url(#linear-gradient-2);}.cls-10,.cls-9{fill:#e0341b;}.cls-10{opacity:0.5;}.cls-11{fill:none;stroke:#e2887f;stroke-miterlimit:10;stroke-width:0.77px;stroke-dasharray:3.38;}.cls-12{fill:url(#linear-gradient-3);}.cls-13{fill:url(#linear-gradient-4);}</style><linearGradient id="linear-gradient" x1="158.28" y1="229.37" x2="88.8" y2="171.07" gradientUnits="userSpaceOnUse"><stop offset="0.04" stop-color="#999"/><stop offset="0.97" stop-color="#e6e6e6"/></linearGradient><linearGradient id="linear-gradient-2" y1="193.83" x2="89.92" y2="193.83" gradientUnits="userSpaceOnUse"><stop offset="0.03" stop-color="#e26558"/><stop offset="0.21" stop-color="#e0341b"/><stop offset="1" stop-color="#ba210f"/></linearGradient><linearGradient id="linear-gradient-3" x1="-273.66" y1="14186.89" x2="-261.14" y2="14186.89" gradientTransform="translate(-212.21 14192.32) rotate(180)" gradientUnits="userSpaceOnUse"><stop offset="0" stop-color="#e26558"/><stop offset="1" stop-color="#e0341b"/></linearGradient><linearGradient id="linear-gradient-4" x1="-312.16" y1="14258.8" x2="-299.64" y2="14258.8" gradientTransform="translate(399.59 -14135.66)" xlink:href="#linear-gradient-3"/></defs><g class="cls-1"><g id="Layer_2" data-name="Layer 2"><g id="Layer_1-2" data-name="Layer 1"><polygon class="cls-2" points="7.53 108.81 60.51 79.18 149.61 130.62 97.49 160.71 7.53 108.81"/><polygon class="cls-3" points="97.49 160.71 149.59 130.67 149.59 239.73 97.49 269.77 97.49 160.71"/><path class="cls-4" d="M107.87,197.9l22.64-13.07h9.91a1.4,1.4,0,0,1-.24.15l-32.31,18.66c-1.18.69-2.15,0-2.15-1.63h0A5.17,5.17,0,0,1,107.87,197.9Z"/><g class="cls-5"><path class="cls-6" d="M140.18,179.24c1.19-.68,2.16,0,2.16,1.63h0a5.29,5.29,0,0,1-1.92,4h-9.91Z"/></g><path class="cls-4" d="M107.87,184.3l22.64-13.07h9.91a1.43,1.43,0,0,1-.24.16L107.87,190c-1.18.69-2.15,0-2.15-1.63h0A5.19,5.19,0,0,1,107.87,184.3Z"/><g class="cls-5"><path class="cls-6" d="M140.18,165.64c1.19-.68,2.16.05,2.16,1.63h0a5.29,5.29,0,0,1-1.92,4h-9.91Z"/></g><path class="cls-4" d="M107.87,170.7l22.64-13.07h9.91a1.43,1.43,0,0,1-.24.16l-32.31,18.65c-1.18.69-2.15,0-2.15-1.63h0A5.19,5.19,0,0,1,107.87,170.7Z"/><g class="cls-5"><path class="cls-6" d="M140.18,152.05c1.19-.69,2.16,0,2.16,1.62h0a5.29,5.29,0,0,1-1.92,4h-9.91Z"/></g><polygon class="cls-7" points="89.92 274.34 97.5 269.79 97.5 160.71 89.82 165.17 89.92 274.34"/><polygon class="cls-8" points="89.92 274.34 0 222.4 0 113.32 89.92 165.26 89.92 274.34"/><polygon class="cls-9" points="7.58 108.77 0 113.32 89.92 165.26 97.5 160.71 7.58 108.77"/><ellipse class="cls-10" cx="55.19" cy="107.64" rx="8.23" ry="14.26" transform="translate(-52.75 162.25) rotate(-89.69)"/><ellipse class="cls-10" cx="55.19" cy="107.64" rx="5.09" ry="8.82" transform="translate(-52.75 162.25) rotate(-89.69)"/><ellipse class="cls-10" cx="55.19" cy="107.64" rx="2.64" ry="4.57" transform="translate(-52.75 162.25) rotate(-89.69)"/><line class="cls-11" x1="55.19" y1="107.64" x2="55.19" y2="8.96"/><polygon class="cls-12" points="55.19 0 48.93 10.84 61.45 10.84 55.19 0"/><ellipse class="cls-10" cx="93.69" cy="128.74" rx="8.23" ry="14.26" transform="translate(-35.55 221.73) rotate(-89.69)"/><ellipse class="cls-10" cx="93.69" cy="128.74" rx="5.09" ry="8.82" transform="translate(-35.55 221.73) rotate(-89.69)"/><ellipse class="cls-10" cx="93.69" cy="128.74" rx="2.64" ry="4.57" transform="translate(-35.55 221.73) rotate(-89.69)"/><line class="cls-11" x1="93.69" y1="128.74" x2="93.69" y2="30.05"/><polygon class="cls-13" points="93.69 128.55 99.95 117.71 87.43 117.71 93.69 128.55"/></g></g></g></svg>