<svg xmlns="http://www.w3.org/2000/svg" xmlns:xlink="http://www.w3.org/1999/xlink" viewBox="0 0 320.39 347.9"><defs><style>.cls-1{fill:url(#linear-gradient);}.cls-2{fill:url(#linear-gradient-2);}.cls-3{fill:url(#linear-gradient-3);}.cls-4{fill:url(#linear-gradient-4);}.cls-5{fill:url(#linear-gradient-5);}.cls-6{fill:url(#linear-gradient-6);}.cls-7{fill:#363646;}.cls-8{fill:url(#linear-gradient-7);}.cls-9{fill:gray;}.cls-10{fill:url(#linear-gradient-8);}.cls-11{fill:url(#linear-gradient-9);}.cls-12{fill:url(#linear-gradient-10);}.cls-13{fill:#999;}.cls-14{fill:url(#linear-gradient-11);}.cls-15{fill:url(#linear-gradient-12);}.cls-16{fill:url(#linear-gradient-13);}.cls-17{fill:url(#linear-gradient-14);}.cls-18{fill:url(#linear-gradient-15);}.cls-19{fill:url(#linear-gradient-16);}.cls-20{fill:#fff;}.cls-21{fill:url(#linear-gradient-17);}.cls-22{fill:url(#linear-gradient-18);}</style><linearGradient id="linear-gradient" x1="119.8" y1="155.55" x2="134.41" y2="155.55" gradientUnits="userSpaceOnUse"><stop offset="0.15" stop-color="#e0341b"/><stop offset="1" stop-color="#a8190a"/></linearGradient><linearGradient id="linear-gradient-2" x1="119.8" y1="169.64" x2="134.41" y2="169.64" xlink:href="#linear-gradient"/><linearGradient id="linear-gradient-3" x1="29.09" y1="274.42" x2="156.52" y2="274.42" xlink:href="#linear-gradient"/><linearGradient id="linear-gradient-4" x1="29.09" y1="307.92" x2="156.52" y2="307.92" gradientUnits="userSpaceOnUse"><stop offset="0.15" stop-color="#e6e6e6"/><stop offset="1" stop-color="#999"/></linearGradient><linearGradient id="linear-gradient-5" x1="29.09" y1="257.77" x2="156.52" y2="257.77" gradientUnits="userSpaceOnUse"><stop offset="0" stop-color="gray"/><stop offset="0.85" stop-color="#e6e6e6"/></linearGradient><linearGradient id="linear-gradient-6" x1="29.09" y1="280.33" x2="156.52" y2="280.33" xlink:href="#linear-gradient-4"/><linearGradient id="linear-gradient-7" x1="57.69" y1="206.82" x2="127.93" y2="206.82" xlink:href="#linear-gradient-4"/><linearGradient id="linear-gradient-8" x1="237.49" y1="73.29" x2="216.24" y2="42.94" gradientUnits="userSpaceOnUse"><stop offset="0" stop-color="#999"/><stop offset="0.27" stop-color="#d5d5d5"/><stop offset="0.85" stop-color="#f9f9f9"/></linearGradient><linearGradient id="linear-gradient-9" x1="214.76" y1="96.63" x2="194.01" y2="58.06" xlink:href="#linear-gradient-8"/><linearGradient id="linear-gradient-10" x1="227.96" y1="84.59" x2="202.2" y2="36.7" gradientUnits="userSpaceOnUse"><stop offset="0.15" stop-color="#f9f9f9"/><stop offset="0.73" stop-color="#d5d5d5"/><stop offset="1" stop-color="#999"/></linearGradient><linearGradient id="linear-gradient-11" x1="136.67" y1="162.97" x2="84.32" y2="70.29" xlink:href="#linear-gradient-8"/><linearGradient id="linear-gradient-12" x1="1092.64" y1="-2024.32" x2="1162.61" y2="-2024.32" gradientTransform="matrix(0.5, 0.87, -0.58, 1, -1707.91, 1205.71)" xlink:href="#linear-gradient-4"/><linearGradient id="linear-gradient-13" x1="1.37" y1="141.84" x2="68.39" y2="180.54" gradientUnits="userSpaceOnUse"><stop offset="0" stop-color="#999"/><stop offset="0.85" stop-color="#e6e6e6"/></linearGradient><linearGradient id="linear-gradient-14" x1="10.58" y1="166.72" x2="56.61" y2="166.72" gradientUnits="userSpaceOnUse"><stop offset="0.15" stop-color="#fff"/><stop offset="1" stop-color="gray"/></linearGradient><linearGradient id="linear-gradient-15" x1="2.99" y1="168.87" x2="52.36" y2="168.87" gradientTransform="translate(89.01 9.12) rotate(30.31)" xlink:href="#linear-gradient-13"/><linearGradient id="linear-gradient-16" x1="145.2" y1="119.61" x2="232.45" y2="119.61" xlink:href="#linear-gradient"/><linearGradient id="linear-gradient-17" x1="123.8" y1="63.23" x2="158.34" y2="63.23" gradientUnits="userSpaceOnUse"><stop offset="0" stop-color="#bfbfbf"/><stop offset="0.85" stop-color="#e6e6e6"/></linearGradient><linearGradient id="linear-gradient-18" x1="123.8" y1="69.34" x2="158.34" y2="69.34" gradientUnits="userSpaceOnUse"><stop offset="0.15" stop-color="#e0341b"/><stop offset="1" stop-color="#74190a"/></linearGradient></defs><g id="Layer_2" data-name="Layer 2"><g id="Layer_1-2" data-name="Layer 1"><path class="cls-1" d="M126.17,160l7.84-4.53a.82.82,0,0,0,0-1.41l-5.15-3a.83.83,0,0,0-.81,0l-7.84,4.53a.82.82,0,0,0,0,1.41l5.15,3A.83.83,0,0,0,126.17,160Z"/><path class="cls-2" d="M134,155.47,126.17,160a.83.83,0,0,1-.81,0l-5.15-3a.84.84,0,0,1-.41-.7h0v24.35a.82.82,0,0,0,.41.71l5.15,3a.79.79,0,0,0,.81,0l0,0a17.6,17.6,0,0,0,8.19-14.87V154.8h0A.8.8,0,0,1,134,155.47Z"/><path class="cls-3" d="M84.63,313.26,153,273.8a7.1,7.1,0,0,0,0-12.29l-44.89-25.92a7.07,7.07,0,0,0-7.09,0L32.64,275.05a7.1,7.1,0,0,0,0,12.29l44.89,25.92A7.14,7.14,0,0,0,84.63,313.26Z"/><path class="cls-4" d="M153,273.8,84.63,313.26a7.14,7.14,0,0,1-7.1,0L32.64,287.34a7,7,0,0,1-3.54-6h0v33.57A7,7,0,0,0,32.64,321l44.89,25.91a7.09,7.09,0,0,0,7.1,0L153,307.48a7,7,0,0,0,3.54-6h0V267.94h0A7,7,0,0,1,153,273.8Z"/><path class="cls-5" d="M84.63,296.6,153,257.14a7.09,7.09,0,0,0,0-12.28l-44.89-25.92a7.07,7.07,0,0,0-7.09,0L32.64,258.4a7.1,7.1,0,0,0,0,12.29L77.53,296.6A7.09,7.09,0,0,0,84.63,296.6Z"/><path class="cls-6" d="M153,257.14,84.63,296.6a7.09,7.09,0,0,1-7.1,0L32.64,270.69a7,7,0,0,1-3.54-6h0v11.69a7,7,0,0,0,3.55,6.14l44.89,25.92a7.09,7.09,0,0,0,7.1,0L153,269a7,7,0,0,0,3.54-6h0V251.29h0A7,7,0,0,1,153,257.14Z"/><path class="cls-7" d="M88.3,160.49,126,138.74a3.91,3.91,0,0,0,0-6.77l-24.74-14.29a3.92,3.92,0,0,0-3.92,0L59.64,139.43a3.91,3.91,0,0,0,0,6.78l24.75,14.28A3.9,3.9,0,0,0,88.3,160.49Z"/><path class="cls-8" d="M126,138.74,88.3,160.49a3.9,3.9,0,0,1-3.91,0L59.64,146.21a3.88,3.88,0,0,1-2-3.33h0v117a3.87,3.87,0,0,0,2,3.39l24.75,14.28a3.9,3.9,0,0,0,3.91,0L126,255.84a3.86,3.86,0,0,0,2-3.29h0v-117h0A3.88,3.88,0,0,1,126,138.74Z"/><path class="cls-9" d="M235.71,21.55H324a2.12,2.12,0,0,1,2.12,2.12v0A2.12,2.12,0,0,1,324,25.79H235.71a0,0,0,0,1,0,0V21.55A0,0,0,0,1,235.71,21.55Z" transform="matrix(0.87, -0.5, 0.5, 0.87, 25.8, 143.64)"/><path class="cls-10" d="M250.41,56.72c0-8.47-6-18.8-13.37-23.06-3.15-1.82-6-2.24-8.32-1.47-.16.05-34.91,14.57-34.91,14.57h0c3-1.57,7.08-1.26,11.57,1.34,9.23,5.33,16.71,18.23,16.71,28.82,0,5.11-1.74,8.74-4.57,10.54l0,0s30.11-23,30.54-23.42C249.53,62.45,250.41,60,250.41,56.72Z"/><path class="cls-11" d="M225.29,77.81c0-12.64-8.93-28-19.94-34.4-4.7-2.71-9-3.33-12.41-2.18l-28.86,8.32h0c4.48-2.35,10.56-1.88,17.25,2,13.77,8,24.93,27.19,24.93,43,0,7.61-2.6,13-6.83,15.71l0,0s21.69-20.84,22.34-21.53C224,86.36,225.29,82.64,225.29,77.81Z"/><path class="cls-12" d="M223.81,85.62a20.59,20.59,0,0,0,.8-7.08,34.14,34.14,0,0,0-1.06-7,46.38,46.38,0,0,0-2.27-6.67,49.43,49.43,0,0,0-3.18-6.29,49,49,0,0,0-8.71-11,33.9,33.9,0,0,0-5.61-4.27,19.87,19.87,0,0,0-6.62-2.6,16.52,16.52,0,0,1,7.2,1.45A28.31,28.31,0,0,1,210.73,46a40.89,40.89,0,0,1,9.67,11.25,47.52,47.52,0,0,1,3.24,6.7,39.06,39.06,0,0,1,2,7.19,29,29,0,0,1,.33,7.44A17,17,0,0,1,223.81,85.62Z"/><ellipse class="cls-13" cx="181.34" cy="80.15" rx="20.29" ry="35.14" transform="translate(-15.66 102.48) rotate(-30.31)"/><path class="cls-14" d="M203.37,102.42c0-19.2-13.56-42.6-30.3-52.26-8.67-5-16.48-5.33-22-1.82h0L9.32,130.16h0c5.44-2.86,12.83-2.28,21,2.42,16.73,9.66,30.3,33,30.3,52.26,0,9.25-3.16,15.83-8.3,19.1l0,.06,13.62-7.87,128.84-74.4C200.07,118.55,203.37,111.88,203.37,102.42Z"/><path class="cls-13" d="M88.28,126.75a3.21,3.21,0,0,0-4.5-.63,3.32,3.32,0,0,0-.94,1.15,3.16,3.16,0,0,1,2.35,1.26c9.08,12,14.49,26.61,14.49,39.12a3.15,3.15,0,0,1-.34,1.41l.21,0a3.22,3.22,0,0,0,3.22-3.21C102.77,153.36,97.35,138.73,88.28,126.75Z"/><path class="cls-9" d="M99.68,167.65c0-12.51-5.41-27.13-14.49-39.12a3.16,3.16,0,0,0-2.35-1.26,3.2,3.2,0,0,0,.31,3.36c8.26,10.91,13.19,24.08,13.19,35.24a3.2,3.2,0,0,0,3,3.19A3.15,3.15,0,0,0,99.68,167.65Z"/><path class="cls-13" d="M75.88,133.91a3.22,3.22,0,0,0-4.51-.63,3.29,3.29,0,0,0-.93,1.15,3.21,3.21,0,0,1,2.35,1.26c9.07,12,14.49,26.61,14.49,39.12a3.23,3.23,0,0,1-.34,1.42l.21,0A3.22,3.22,0,0,0,90.37,173C90.37,160.52,85,145.89,75.88,133.91Z"/><path class="cls-9" d="M87.28,174.81c0-12.51-5.42-27.13-14.49-39.12a3.21,3.21,0,0,0-2.35-1.26,3.2,3.2,0,0,0,.31,3.36C79,148.7,83.93,161.87,83.93,173a3.22,3.22,0,0,0,3,3.2A3.23,3.23,0,0,0,87.28,174.81Z"/><path class="cls-13" d="M63.47,141.07a3.21,3.21,0,0,0-4.5-.63A3.26,3.26,0,0,0,58,141.6a3.22,3.22,0,0,1,2.36,1.25c9.07,12,14.48,26.61,14.48,39.12a3.23,3.23,0,0,1-.34,1.42l.22,0A3.22,3.22,0,0,0,78,180.19C78,167.68,72.55,153.06,63.47,141.07Z"/><path class="cls-9" d="M74.87,182c0-12.51-5.41-27.13-14.48-39.12A3.22,3.22,0,0,0,58,141.6a3.23,3.23,0,0,0,.31,3.35C66.6,155.86,71.53,169,71.53,180.19a3.21,3.21,0,0,0,3,3.2A3.23,3.23,0,0,0,74.87,182Z"/><ellipse class="cls-15" cx="30.3" cy="167.35" rx="24.66" ry="42.72" transform="matrix(0.86, -0.5, 0.5, 0.86, -80.32, 38.17)"/><path class="cls-16" d="M8.27,130.77a14.84,14.84,0,0,1,5.92-2.43,20.36,20.36,0,0,1,6.47.07,27.8,27.8,0,0,1,6.18,1.9,34.22,34.22,0,0,1,5.67,3.09,56,56,0,0,1,9.81,8.29,75.56,75.56,0,0,1,7.88,10.13,74,74,0,0,1,5.95,11.36,62,62,0,0,1,3.73,12.26,43.73,43.73,0,0,1,.73,12.76,23.71,23.71,0,0,1-4.23,11.92,23.46,23.46,0,0,0,3.92-12,45.74,45.74,0,0,0-1-12.62,69.6,69.6,0,0,0-9.85-23.25,74.56,74.56,0,0,0-7.81-10,55.41,55.41,0,0,0-9.68-8.1,32.85,32.85,0,0,0-11.47-5A17.3,17.3,0,0,0,8.27,130.77Z"/><path class="cls-17" d="M56.61,180.67c0-15.64-11-34.7-24.68-42.57C24.86,134,18.49,133.75,14,136.62v0l-3.42,2h0c4.43-2.33,10.45-1.86,17.08,2,13.64,7.87,24.69,26.93,24.69,42.57,0,7.54-2.58,12.9-6.76,15.56l0,0,4-2.32C53.92,193.81,56.61,188.38,56.61,180.67Z"/><ellipse class="cls-18" cx="27.67" cy="168.87" rx="20.09" ry="34.8" transform="matrix(0.86, -0.5, 0.5, 0.86, -81.44, 37.05)"/><circle class="cls-19" cx="188.82" cy="119.61" r="43.63"/><rect class="cls-20" x="161.83" y="114.25" width="53.99" height="10.73" transform="translate(139.88 -98.49) rotate(45)"/><rect class="cls-20" x="161.83" y="114.25" width="53.99" height="10.73" transform="translate(406.92 70.67) rotate(135)"/><path class="cls-21" d="M138.85,73.75l18.53-10.69a1.92,1.92,0,0,0,0-3.33l-12.17-7a1.93,1.93,0,0,0-1.92,0L124.76,63.4a1.92,1.92,0,0,0,0,3.33l12.17,7A1.89,1.89,0,0,0,138.85,73.75Z"/><path class="cls-22" d="M157.38,63.06,138.85,73.75a1.89,1.89,0,0,1-1.92,0l-12.17-7a1.89,1.89,0,0,1-1-1.63h0v3.16a1.91,1.91,0,0,0,1,1.67l12.17,7a1.89,1.89,0,0,0,1.92,0l18.53-10.69a1.93,1.93,0,0,0,1-1.62h0V61.47h0A1.91,1.91,0,0,1,157.38,63.06Z"/></g></g></svg>