<svg xmlns="http://www.w3.org/2000/svg" xmlns:xlink="http://www.w3.org/1999/xlink" viewBox="0 0 178.11 455.56"><defs><style>.cls-1{fill:url(#linear-gradient);}.cls-2{fill:#c2c2c2;}.cls-3{fill:#888;}.cls-4{fill:url(#Nepojmenovaný_přechod_34);}.cls-5{fill:#28cb4f;}.cls-6{font-size:42.33px;fill:#fff;font-family:SpaceMono-Bold, Space Mono;font-weight:700;}</style><linearGradient id="linear-gradient" x1="94.46" y1="81.51" x2="126.55" y2="368.83" gradientUnits="userSpaceOnUse"><stop offset="0" stop-color="#d4d4d4"/><stop offset="1" stop-color="#333"/></linearGradient><linearGradient id="Nepojmenovaný_přechod_34" x1="-47.95" y1="177.41" x2="216.79" y2="289.6" gradientUnits="userSpaceOnUse"><stop offset="0" stop-color="#ccc"/><stop offset="1" stop-color="#fff"/></linearGradient></defs><g id="Layer_2" data-name="Layer 2"><g id="Layer_1-2" data-name="Layer 1"><path class="cls-1" d="M178.11,107.69V435c0,5.93-2,10.1-5.2,11.8l-13.46,7.87-14.86-43L33.76,90.7,5.42,8.65,17.94,1.34l.48-.29C21-.5,24.32-.38,28,1.74L163.64,80.07C171.64,84.66,178.11,97.05,178.11,107.69Z"/><path class="cls-2" d="M150.13,453.82,14.47,375.5c-8-4.62-14.47-17-14.47-27.64V20.56C0,9.91,6.48,5,14.47,9.62L150.13,88c8,4.61,14.47,17,14.47,27.64v327.3C164.6,453.54,158.12,458.44,150.13,453.82Z"/><path class="cls-3" d="M101.25,410.87,63.34,389A7.93,7.93,0,0,1,60,382.64h0c0-2.44,1.49-3.57,3.32-2.51L101.25,402a8,8,0,0,1,3.32,6.34h0C104.57,410.81,103.08,411.93,101.25,410.87Z"/><polygon class="cls-4" points="164.59 426.62 0 331.59 0 38.59 164.59 133.62 164.59 426.62"/><ellipse class="cls-5" cx="82.3" cy="288.66" rx="38.85" ry="67.29" transform="translate(-134.44 80.99) rotate(-30.31)"/><polygon class="cls-2" points="81.85 163.89 24.74 130.91 24.74 119.77 81.85 152.74 81.85 163.89"/><polygon class="cls-2" points="131.57 192.59 94.54 171.21 94.54 160.06 131.57 181.44 131.57 192.59"/><polygon class="cls-2" points="119.96 206.75 36.35 158.48 36.35 147.33 119.96 195.61 119.96 206.75"/><text class="cls-6" transform="matrix(0.87, 0.5, 0, 1, 57.15, 289.55)">OK</text></g></g></svg>