<svg xmlns="http://www.w3.org/2000/svg" xmlns:xlink="http://www.w3.org/1999/xlink" viewBox="0 0 255.27 547"><defs><style>.cls-1{fill-opacity:0.06;fill:url(#linear-gradient);}.cls-1,.cls-2,.cls-3{fill-rule:evenodd;}.cls-2{fill-opacity:0.09;fill:url(#linear-gradient-2);}.cls-3{fill:#f2f2f2;}.cls-4{fill:url(#linear-gradient-3);}.cls-5{fill:url(#linear-gradient-4);}.cls-6{fill:url(#linear-gradient-5);}.cls-7{fill:#fff;}.cls-8{fill:url(#linear-gradient-6);}.cls-19,.cls-9{fill:none;}.cls-10{fill:url(#linear-gradient-7);}.cls-11{fill:url(#linear-gradient-8);}.cls-12{fill:url(#linear-gradient-9);}.cls-13{fill:url(#linear-gradient-10);}.cls-14{fill:url(#linear-gradient-11);}.cls-15{fill:#e40427;}.cls-16{fill:url(#linear-gradient-12);}.cls-17{fill:url(#linear-gradient-13);}.cls-18{fill:url(#linear-gradient-14);}.cls-19{stroke:#e2887f;stroke-miterlimit:10;stroke-width:1.02px;}.cls-20{fill:url(#linear-gradient-15);}.cls-21{fill:url(#linear-gradient-16);}.cls-22{fill:url(#linear-gradient-17);}</style><linearGradient id="linear-gradient" x1="4552.61" y1="5027.44" x2="4552.65" y2="5026.34" gradientTransform="translate(692126.16 839938) rotate(180) scale(152 167)" gradientUnits="userSpaceOnUse"><stop offset="0.04" stop-color="#1a1a1a"/><stop offset="0.97" stop-color="#999" stop-opacity="0"/></linearGradient><linearGradient id="linear-gradient-2" x1="4654.52" y1="5029.16" x2="4655.36" y2="5028.37" gradientTransform="translate(335219.55 784883) rotate(180) scale(72 156)" gradientUnits="userSpaceOnUse"><stop offset="0" stop-color="#333"/><stop offset="0.14" stop-color="#454545" stop-opacity="0.82"/><stop offset="0.66" stop-color="#828282" stop-opacity="0.23"/><stop offset="0.95" stop-color="#999" stop-opacity="0"/></linearGradient><linearGradient id="linear-gradient-3" x1="109.54" y1="240.4" x2="208.8" y2="257.9" gradientUnits="userSpaceOnUse"><stop offset="0" stop-color="#fff"/><stop offset="1" stop-color="#d4d4d4"/></linearGradient><linearGradient id="linear-gradient-4" x1="101.47" y1="191.77" x2="216.87" y2="212.12" xlink:href="#linear-gradient-3"/><linearGradient id="linear-gradient-5" x1="23.11" y1="132.73" x2="143.27" y2="202.1" gradientUnits="userSpaceOnUse"><stop offset="0.03" stop-color="gray"/><stop offset="0.21" stop-color="#a1a1a1"/><stop offset="0.42" stop-color="#bfbfbf"/><stop offset="0.62" stop-color="#d5d5d5"/><stop offset="0.82" stop-color="#e2e2e2"/><stop offset="1" stop-color="#e6e6e6"/></linearGradient><linearGradient id="linear-gradient-6" x1="79.92" y1="165.53" x2="222.88" y2="248.06" xlink:href="#linear-gradient-5"/><linearGradient id="linear-gradient-7" x1="94.17" y1="256.58" x2="82.46" y2="234.56" gradientUnits="userSpaceOnUse"><stop offset="0" stop-color="#0045f4" stop-opacity="0"/><stop offset="1" stop-color="#6dfafa"/></linearGradient><linearGradient id="linear-gradient-8" x1="54.67" y1="188.06" x2="126.85" y2="200.79" xlink:href="#linear-gradient-3"/><linearGradient id="linear-gradient-9" x1="-37.19" y1="147.22" x2="105.76" y2="229.75" xlink:href="#linear-gradient-5"/><linearGradient id="linear-gradient-10" x1="174.06" y1="309.16" x2="174.06" y2="274.32" xlink:href="#linear-gradient-7"/><linearGradient id="linear-gradient-11" x1="136.73" y1="239.5" x2="208.88" y2="252.22" gradientUnits="userSpaceOnUse"><stop offset="0" stop-color="#a8190a"/><stop offset="1" stop-color="#e0341b"/></linearGradient><linearGradient id="linear-gradient-12" x1="54.98" y1="200.53" x2="174.95" y2="269.79" gradientUnits="userSpaceOnUse"><stop offset="0" stop-color="#a8190a"/><stop offset="0.44" stop-color="#a8190a"/><stop offset="1" stop-color="#a8190a"/></linearGradient><linearGradient id="linear-gradient-13" x1="41.93" y1="220.83" x2="92.53" y2="250.04" xlink:href="#linear-gradient-5"/><linearGradient id="linear-gradient-14" x1="52.04" y1="260.31" x2="156.74" y2="278.77" xlink:href="#linear-gradient-3"/><linearGradient id="linear-gradient-15" x1="183.83" y1="164.77" x2="196.84" y2="164.77" gradientTransform="translate(354.08 -26.45) rotate(89.69)" xlink:href="#linear-gradient-11"/><linearGradient id="linear-gradient-16" x1="133" y1="137.78" x2="146" y2="137.78" gradientTransform="translate(276.53 -2.46) rotate(89.69)" xlink:href="#linear-gradient-11"/><linearGradient id="linear-gradient-17" x1="83" y1="148.5" x2="96" y2="148.5" gradientTransform="translate(237.51 58.19) rotate(89.69)" xlink:href="#linear-gradient-11"/></defs><g id="Layer_2" data-name="Layer 2"><g id="Layer_1-2" data-name="Layer 1"><path class="cls-1" d="M255.27,266.54,0,275.77V547H255.27Z"/><path class="cls-2" d="M120.92,266.54,0,275.16V528.53H120.92Z"/><path class="cls-3" d="M130,200.77,2.44,274.65c-3.61,2.09-3.16,5.75,1,8.16l107.68,62.34c4.17,2.42,10.48,2.68,14.1.59l127.6-73.88c3.62-2.09,3.16-5.75-1-8.16L144.14,201.36C140,198.94,133.66,198.68,130,200.77Z"/><path class="cls-4" d="M119.67,241.54c15.89-2.43,33,.25,44.68,7s16.3,16.61,12.1,25.79l27.77,4.33c6.8-14.87-.72-30.89-19.63-41.81s-46.66-15.26-72.42-11.34l3.75,8Z"/><path class="cls-5" d="M206.69,174.65h-.05c.67-11.87-7.16-23.64-22-32.23-18.91-10.92-46.66-15.26-72.42-11.34V225.5l3.75,8,3.75,8c15.89-2.43,33,.25,44.68,7,5.93,3.42,10,7.67,12.1,12.22v13.57l27.77,4.33h0a26.16,26.16,0,0,0,2.46-11.32h0Z"/><polygon class="cls-6" points="119.67 147.12 119.67 241.54 112.17 225.5 112.17 131.08 119.67 147.12"/><path class="cls-7" d="M119.67,147.12c15.89-2.43,33,.25,44.68,7s16.3,16.61,12.1,25.79l27.77,4.33c6.8-14.87-.72-30.9-19.63-41.81s-46.66-15.26-72.42-11.34l3.75,8Z"/><polygon class="cls-8" points="176.45 179.9 176.45 274.32 204.22 278.65 204.22 184.23 176.45 179.9"/><path class="cls-9" d="M164.35,248.53c-11.67-6.74-28.79-9.42-44.68-7h0A59.54,59.54,0,0,0,99,248.41c-5.73,3.31-9.85,7.43-11.9,11.93-4.2,9.17.44,19.06,12.1,25.79s28.79,9.41,44.68,7h0a59.75,59.75,0,0,0,20.66-6.87c5.73-3.31,9.84-7.43,11.9-11.93C180.65,265.14,176,255.26,164.35,248.53Z"/><path class="cls-10" d="M99,248.41a59.54,59.54,0,0,1,20.66-6.87l-3.75-8-3.75-8h0c-12.65,1.93-24.25,5.78-33.54,11.15s-15.95,12-19.3,19.36l27.78,4.33C89.16,255.84,93.28,251.72,99,248.41Z"/><path class="cls-11" d="M115.92,139.1l-3.75-8c-12.65,1.93-24.25,5.78-33.54,11.14s-15.95,12.06-19.3,19.37h0V256l27.78,4.33h0c2-4.5,6.17-8.62,11.9-11.93a59.54,59.54,0,0,1,20.66-6.87V147.12Z"/><polygon class="cls-12" points="87.11 165.91 87.11 260.34 59.33 256.01 59.33 161.59 87.11 165.91"/><path class="cls-7" d="M99,154a59.54,59.54,0,0,1,20.66-6.87l-3.75-8-3.75-8h0c-12.65,1.93-24.25,5.78-33.54,11.14s-15.95,12.06-19.3,19.37l27.78,4.32C89.16,161.42,93.28,157.3,99,154Z"/><path class="cls-13" d="M184.92,298c9.29-5.36,16-12.05,19.3-19.36l-27.77-4.33c-2.06,4.5-6.17,8.62-11.9,11.93a59.75,59.75,0,0,1-20.66,6.87l4.22,9,3.28,7h0C164,307.23,175.64,303.37,184.92,298Z"/><path class="cls-14" d="M204,184.4l-27.59-4.3c-2.06,4.5-6.17,8.62-11.9,11.93a59.75,59.75,0,0,1-20.66,6.87l4.22,9,3.28,7h0v76.61a70.06,70.06,0,0,1-7.5,1.57l4.22,9,3.28,7h0c12.65-1.93,24.25-5.79,33.53-11.15s16-12.05,19.3-19.36V184.32Z"/><path class="cls-15" d="M184.92,203.79c9.29-5.36,16-12,19.3-19.36l-27.77-4.33c-2.06,4.5-6.17,8.62-11.9,11.93a59.75,59.75,0,0,1-20.66,6.87l4.22,9,3.28,7h0C164,213,175.64,209.15,184.92,203.79Z"/><polygon class="cls-16" points="143.89 198.9 143.89 293.12 151.39 309.16 151.39 214.94 143.89 198.9"/><polygon class="cls-17" points="87.11 228.41 87.11 258.81 75.68 258.81 75.68 226.63 87.11 228.41"/><path class="cls-18" d="M148.11,270.22l-4.22-9c-15.89,2.43-33-.25-44.68-7s-16.3-16.61-12.1-25.79l-27.78-4.33a26.26,26.26,0,0,0-2.45,11h0v32.72l0,0C57.28,279,65,289.77,79,297.82c18.91,10.92,46.66,15.26,72.42,11.33V277.23Z"/><path class="cls-7" d="M143.89,261.19c-15.89,2.43-33-.25-44.68-7s-16.3-16.61-12.1-25.79l-27.78-4.33C52.53,239,60.06,255,79,265.89s46.66,15.26,72.42,11.34l-3.28-7Z"/><line class="cls-19" x1="139.5" x2="139.5" y2="137.78"/><line class="cls-19" x1="190.34" y1="76.1" x2="190.34" y2="164.77"/><line class="cls-19" x1="89.5" y1="54.32" x2="89.5" y2="148.5"/><ellipse class="cls-20" cx="190.34" cy="164.77" rx="3.75" ry="6.5" transform="translate(24.53 354.21) rotate(-89.69)"/><ellipse class="cls-21" cx="139.5" cy="137.78" rx="3.75" ry="6.5" transform="translate(0.96 276.54) rotate(-89.69)"/><ellipse class="cls-22" cx="89.5" cy="148.5" rx="3.75" ry="6.5" transform="translate(-59.48 237.19) rotate(-89.69)"/></g></g></svg>