<svg xmlns="http://www.w3.org/2000/svg" xmlns:xlink="http://www.w3.org/1999/xlink" viewBox="0 0 245.01 395.99"><defs><style>.cls-1{fill:#b2aba3;}.cls-2{fill:#a8190a;}.cls-3{fill:#e0341b;}.cls-4{fill:url(#linear-gradient);}.cls-5{fill:url(#linear-gradient-2);}.cls-10,.cls-11,.cls-12,.cls-13,.cls-14,.cls-15,.cls-16,.cls-17,.cls-22,.cls-6,.cls-7,.cls-8,.cls-9{fill:none;}.cls-10,.cls-11,.cls-12,.cls-13,.cls-14,.cls-15,.cls-16,.cls-17,.cls-6,.cls-7,.cls-8,.cls-9{stroke-linecap:round;stroke-linejoin:round;stroke-width:0.78px;}.cls-6{stroke:url(#linear-gradient-3);}.cls-7{stroke:url(#linear-gradient-4);}.cls-8{stroke:url(#linear-gradient-5);}.cls-9{stroke:url(#linear-gradient-6);}.cls-10{stroke:url(#linear-gradient-7);}.cls-11{stroke:url(#linear-gradient-8);}.cls-12{stroke:url(#linear-gradient-9);}.cls-13{stroke:url(#linear-gradient-10);}.cls-14{stroke:url(#linear-gradient-11);}.cls-15{stroke:url(#linear-gradient-12);}.cls-16{stroke:url(#linear-gradient-13);}.cls-17{stroke:url(#linear-gradient-14);}.cls-18{fill:url(#linear-gradient-15);}.cls-19{fill:url(#linear-gradient-16);}.cls-20{fill:url(#linear-gradient-17);}.cls-21{fill:url(#linear-gradient-18);}.cls-23{fill:url(#linear-gradient-19);}.cls-24{fill:url(#linear-gradient-20);}</style><linearGradient id="linear-gradient" x1="14.63" y1="226.37" x2="230.38" y2="226.37" gradientUnits="userSpaceOnUse"><stop offset="0" stop-color="#fff"/><stop offset="1" stop-color="#c3c3c3"/></linearGradient><linearGradient id="linear-gradient-2" x1="54.88" y1="193.5" x2="190.13" y2="115.42" gradientUnits="userSpaceOnUse"><stop offset="0.06" stop-color="#f2f2f2"/><stop offset="1" stop-color="#e6e6e6"/></linearGradient><linearGradient id="linear-gradient-3" x1="29.52" y1="154.46" x2="215.48" y2="154.46" gradientUnits="userSpaceOnUse"><stop offset="0" stop-color="#ededed"/><stop offset="1" stop-color="#8f8f8f"/></linearGradient><linearGradient id="linear-gradient-4" x1="14.24" y1="184.22" x2="230.77" y2="184.22" xlink:href="#linear-gradient-3"/><linearGradient id="linear-gradient-5" x1="14.24" y1="196.02" x2="230.77" y2="196.02" xlink:href="#linear-gradient-3"/><linearGradient id="linear-gradient-6" x1="14.24" y1="207.81" x2="230.77" y2="207.81" xlink:href="#linear-gradient-3"/><linearGradient id="linear-gradient-7" x1="14.24" y1="219.6" x2="230.77" y2="219.6" xlink:href="#linear-gradient-3"/><linearGradient id="linear-gradient-8" x1="14.24" y1="231.39" x2="230.77" y2="231.39" xlink:href="#linear-gradient-3"/><linearGradient id="linear-gradient-9" x1="14.24" y1="243.19" x2="230.77" y2="243.19" xlink:href="#linear-gradient-3"/><linearGradient id="linear-gradient-10" x1="14.24" y1="254.98" x2="230.77" y2="254.98" xlink:href="#linear-gradient-3"/><linearGradient id="linear-gradient-11" x1="14.24" y1="266.77" x2="230.77" y2="266.77" xlink:href="#linear-gradient-3"/><linearGradient id="linear-gradient-12" x1="14.24" y1="278.57" x2="230.77" y2="278.57" xlink:href="#linear-gradient-3"/><linearGradient id="linear-gradient-13" x1="14.24" y1="290.36" x2="230.77" y2="290.36" xlink:href="#linear-gradient-3"/><linearGradient id="linear-gradient-14" x1="14.24" y1="302.15" x2="230.77" y2="302.15" xlink:href="#linear-gradient-3"/><linearGradient id="linear-gradient-15" x1="30.14" y1="122.65" x2="46.57" y2="122.65" gradientTransform="translate(0 0)" xlink:href="#linear-gradient"/><linearGradient id="linear-gradient-16" x1="62.42" y1="104.01" x2="78.85" y2="104.01" gradientTransform="translate(0 0)" xlink:href="#linear-gradient"/><linearGradient id="linear-gradient-17" x1="168.87" y1="202.75" x2="185.31" y2="202.75" gradientTransform="translate(0 0)" xlink:href="#linear-gradient"/><linearGradient id="linear-gradient-18" x1="201.16" y1="184.11" x2="217.59" y2="184.11" gradientTransform="translate(0 0)" xlink:href="#linear-gradient"/><linearGradient id="linear-gradient-19" x1="61.68" y1="106.05" x2="179.29" y2="85.31" gradientUnits="userSpaceOnUse"><stop offset="0" stop-color="#fff"/><stop offset="1" stop-color="#919191"/></linearGradient><linearGradient id="linear-gradient-20" x1="118.44" y1="104.11" x2="70.56" y2="86.69" gradientUnits="userSpaceOnUse"><stop offset="0" stop-color="#919191"/><stop offset="1" stop-color="#fff"/></linearGradient></defs><g id="Layer_2" data-name="Layer 2"><g id="Layer_1-2" data-name="Layer 1"><path class="cls-1" d="M245,356.39c0,2.76-1.84,5.52-5.45,7.61l-49.95,28.84c-6.92,4-18,4.21-25.49.51l-84.66-42.1a16.69,16.69,0,0,1-2-1.15L4.58,301.23C1.52,299.18,0,296.65,0,294.13c0-2.77,1.83-5.52,5.45-7.61l9.36-5.41L55.4,257.68c6.92-4,18-4.22,25.49-.51l84.65,42.09a16.07,16.07,0,0,1,2,1.15l62.66,42,10.24,6.86C243.49,351.33,245,353.87,245,356.39Z"/><path class="cls-2" d="M245,329.41v27c0,2.76-1.84,5.52-5.45,7.61l-49.95,28.84c-6.92,4-18,4.21-25.49.51l-84.66-42.1a16.69,16.69,0,0,1-2-1.15L4.58,301.23C1.52,299.18,0,296.65,0,294.13v-27c0-2.77,1.83-5.52,5.45-7.61L55.4,230.7c6.92-4,18-4.22,25.49-.51l84.65,42.09a17.43,17.43,0,0,1,2,1.15l72.9,48.87C243.49,324.36,245,326.89,245,329.41Z"/><path class="cls-1" d="M245,329.41c0,2.76-1.84,5.52-5.45,7.61l-9.36,5.4-40.59,23.44c-6.92,4-18,4.21-25.49.51L79.46,324.28a20,20,0,0,1-2-1.15l-62.66-42L4.58,274.25C1.52,272.2,0,269.67,0,267.15c0-2.77,1.83-5.52,5.45-7.61L55.4,230.7c6.92-4,18-4.22,25.49-.51l84.65,42.09a17.43,17.43,0,0,1,2,1.15l72.9,48.87C243.49,324.36,245,326.89,245,329.41Z"/><path class="cls-3" d="M245,329.41c0,2.76-1.84,5.52-5.45,7.61l-9.36,5.4-40.59,23.44c-6.92,4-18,4.21-25.49.51L79.46,324.28a20,20,0,0,1-2-1.15l-62.66-42L4.58,274.25C1.52,272.2,0,269.67,0,267.15c0-2.77,1.83-5.52,5.45-7.61L55.4,230.7c6.92-4,18-4.22,25.49-.51l84.65,42.09a17.43,17.43,0,0,1,2,1.15l72.9,48.87C243.49,324.36,245,326.89,245,329.41Z"/><path class="cls-1" d="M230.38,329.36a2,2,0,0,1-1.19,1.67l-50,28.84a6.48,6.48,0,0,1-5.61.11L89,317.9l-.22-.12-.21-.13-72.9-48.88a1.93,1.93,0,0,1-1-1.54v-.06a2,2,0,0,1,1.2-1.64l50-28.84a6.59,6.59,0,0,1,5.61-.12L156,278.66a1.71,1.71,0,0,1,.23.13l.22.13,72.89,48.87A2,2,0,0,1,230.38,329.36Z"/><path class="cls-4" d="M230.38,185.54V329.36a2,2,0,0,1-1.19,1.67l-50,28.84a6.48,6.48,0,0,1-5.61.11L89,317.9l-.22-.12-.21-.13-72.9-48.88a1.93,1.93,0,0,1-1-1.54V123.39a2.05,2.05,0,0,1,1.2-1.69l50-28.84a6.55,6.55,0,0,1,5.61-.11L156,134.84l.23.12.22.13L229.38,184A2,2,0,0,1,230.38,185.54Z"/><path class="cls-5" d="M230.38,185.54a2,2,0,0,1-1.19,1.67l-50,28.84a6.55,6.55,0,0,1-5.61.11L89,174.07l-.22-.12-.21-.13-72.9-48.88a1.9,1.9,0,0,1-1-1.55,2.05,2.05,0,0,1,1.2-1.69l50-28.84a6.55,6.55,0,0,1,5.61-.11L156,134.84l.23.12.22.13L229.38,184A2,2,0,0,1,230.38,185.54Z"/><polygon class="cls-6" points="93.19 166.26 29.91 123.83 68.79 101.38 151.83 142.66 215.1 185.09 176.23 207.54 93.19 166.26"/><path class="cls-7" d="M230.38,199.7a2,2,0,0,1-1.19,1.67l-50,28.84a6.52,6.52,0,0,1-5.61.11L89,188.23l-.22-.12-.21-.12L15.63,139.1a1.9,1.9,0,0,1-1-1.55"/><path class="cls-8" d="M230.38,211.49a2,2,0,0,1-1.19,1.67l-50,28.85a6.52,6.52,0,0,1-5.61.1L89,200l-.22-.12-.21-.13L15.63,150.9a1.92,1.92,0,0,1-1-1.56"/><path class="cls-9" d="M230.38,223.28a2,2,0,0,1-1.19,1.67l-50,28.85a6.52,6.52,0,0,1-5.61.1L89,211.82l-.22-.12-.21-.13-72.9-48.88a1.92,1.92,0,0,1-1-1.56"/><path class="cls-10" d="M230.38,235.08a2,2,0,0,1-1.19,1.67l-50,28.84a6.55,6.55,0,0,1-5.61.11L89,223.61l-.22-.12-.21-.13-72.9-48.88a1.9,1.9,0,0,1-1-1.55"/><path class="cls-11" d="M230.38,246.87a2,2,0,0,1-1.19,1.67l-50,28.85a6.55,6.55,0,0,1-5.61.1L89,235.4l-.22-.12-.21-.12-72.9-48.88a1.92,1.92,0,0,1-1-1.56"/><path class="cls-12" d="M230.38,258.66a2,2,0,0,1-1.19,1.67l-50,28.85a6.52,6.52,0,0,1-5.61.1L89,247.2l-.22-.12-.21-.13-72.9-48.88a1.92,1.92,0,0,1-1-1.56"/><path class="cls-13" d="M230.38,270.45a2,2,0,0,1-1.19,1.67l-50,28.85a6.55,6.55,0,0,1-5.61.11L89,259l-.22-.12-.21-.13-72.9-48.88a1.92,1.92,0,0,1-1-1.56"/><path class="cls-14" d="M230.38,282.25a2,2,0,0,1-1.19,1.67l-50,28.84a6.55,6.55,0,0,1-5.61.11L89,270.78l-.22-.12-.21-.13-72.9-48.88a1.9,1.9,0,0,1-1-1.55"/><path class="cls-15" d="M230.38,294a2,2,0,0,1-1.19,1.67l-50,28.85a6.52,6.52,0,0,1-5.61.1L89,282.57l-.22-.12a2.25,2.25,0,0,1-.21-.12l-72.9-48.88a1.92,1.92,0,0,1-1-1.56"/><path class="cls-16" d="M230.38,305.83a2,2,0,0,1-1.19,1.67l-50,28.85a6.52,6.52,0,0,1-5.61.1L89,294.37l-.22-.12-.21-.13-72.9-48.88a1.92,1.92,0,0,1-1-1.56"/><path class="cls-17" d="M230.38,317.63a2,2,0,0,1-1.19,1.66l-50,28.85a6.55,6.55,0,0,1-5.61.11L89,306.16l-.22-.12-.21-.13L15.63,257a1.91,1.91,0,0,1-1-1.56"/><path class="cls-18" d="M46.57,124.32v.06a4.07,4.07,0,0,1-2.39,3.31,12.83,12.83,0,0,1-11.62,0c-1.6-.93-2.41-2.14-2.42-3.35v-.06a1.62,1.62,0,0,1,0-.22h0a8.2,8.2,0,0,1,6.72-7.8h0l.61,3.36.6,3.3a.26.26,0,0,0,.52,0l.6-3.29.61-3.37h0A8.2,8.2,0,0,1,46.57,124.32Z"/><path class="cls-1" d="M39.81,116.24,38.6,122.9a.26.26,0,0,1-.52,0l-1.21-6.66,1.07,2.11a.45.45,0,0,0,.8,0Z"/><path class="cls-19" d="M78.85,105.69v.06c0,1.2-.8,2.39-2.39,3.3a12.83,12.83,0,0,1-11.62,0c-1.6-.93-2.41-2.14-2.42-3.34v-.06a1.69,1.69,0,0,1,0-.23h0a8.21,8.21,0,0,1,6.72-7.8h0l.61,3.37.6,3.29a.26.26,0,0,0,.52,0l.6-3.29.61-3.37h0A8.2,8.2,0,0,1,78.85,105.69Z"/><path class="cls-1" d="M72.09,97.6l-1.21,6.66a.26.26,0,0,1-.52,0L69.15,97.6l1.08,2.11a.44.44,0,0,0,.79,0Z"/><path class="cls-20" d="M185.31,204.42v.06a4.07,4.07,0,0,1-2.39,3.31,12.83,12.83,0,0,1-11.62,0c-1.61-.93-2.41-2.14-2.43-3.35v-.06a1.64,1.64,0,0,1,0-.22h0a8.2,8.2,0,0,1,6.72-7.8h0l.61,3.36.6,3.3a.26.26,0,0,0,.52,0l.59-3.29.62-3.37h0A8.21,8.21,0,0,1,185.31,204.42Z"/><path class="cls-1" d="M178.55,196.34,177.34,203a.26.26,0,0,1-.52,0l-1.21-6.66,1.07,2.11a.45.45,0,0,0,.79,0Z"/><path class="cls-21" d="M217.59,185.79v.06c0,1.2-.81,2.39-2.39,3.3a12.83,12.83,0,0,1-11.62,0c-1.61-.93-2.41-2.14-2.43-3.34v-.06a1.64,1.64,0,0,1,0-.23h0a8.21,8.21,0,0,1,6.72-7.8h0l.61,3.37.6,3.29a.26.26,0,0,0,.52,0l.6-3.29.61-3.37h0A8.21,8.21,0,0,1,217.59,185.79Z"/><path class="cls-1" d="M210.83,177.7l-1.21,6.66a.26.26,0,0,1-.52,0l-1.21-6.66,1.07,2.11a.44.44,0,0,0,.79,0Z"/><path class="cls-22" d="M107.31,133.37v.15c0,3-2,5.94-5.92,8.19-7.92,4.58-20.82,4.56-28.8-.05-3.72-2.16-5.71-4.92-6-7.72a5.44,5.44,0,0,1,0-.57v-.14a5.25,5.25,0,0,1,0-.56c.25-2.79,2.21-5.52,5.89-7.63,7.93-4.58,20.81-4.55,28.8,0C105.27,127.38,107.28,130.39,107.31,133.37Z"/><path class="cls-22" d="M178.37,175.54v.15c0,3-2,5.94-5.92,8.19-7.93,4.58-20.83,4.55-28.79,0-4-2.3-6-5.3-6-8.29v-.15c0-3,2-5.94,5.92-8.19,7.93-4.57,20.82-4.55,28.79.05C176.34,169.55,178.34,172.55,178.37,175.54Z"/><path class="cls-23" d="M178.37,86.5v89.19c0,3-2,5.94-5.92,8.19-7.93,4.58-20.83,4.55-28.79,0-4-2.3-6-5.3-6-8.29v-89c0-15.17-12.09-36-25.35-43.64a18.84,18.84,0,0,0-4.49-2,18.53,18.53,0,0,0-.5,4.58v88c0,3-2,5.94-5.92,8.19-7.92,4.58-20.82,4.56-28.8-.05-3.72-2.16-5.71-4.92-6-7.72a5.44,5.44,0,0,1,0-.57V45.48c0-18.15,7.47-32.88,20.5-40.4s29.71-6.64,45.57,2.51C158.71,22.64,178.37,56.56,178.37,86.5Z"/><path class="cls-24" d="M107.31,45.48v88c0,3-2,5.94-5.92,8.19-7.92,4.58-20.82,4.56-28.8-.05-3.72-2.16-5.71-4.92-6-7.72a5.44,5.44,0,0,1,0-.57V97.6A38.93,38.93,0,0,0,86,92.76C100.74,84.43,108.78,66,107.31,45.48Z"/></g></g></svg>