<svg xmlns="http://www.w3.org/2000/svg" xmlns:xlink="http://www.w3.org/1999/xlink" viewBox="0 0 134.04 346.26"><defs><style>.cls-1{fill:url(#Nepojmenovaný_přechod_17);}.cls-2{fill:url(#Nepojmenovaný_přechod_17-2);}.cls-3{fill:url(#Nepojmenovaný_přechod_15);}.cls-4{fill:url(#linear-gradient);}.cls-5{fill:url(#Nepojmenovaný_přechod_34);}</style><linearGradient id="Nepojmenovaný_přechod_17" x1="44.68" y1="346.26" x2="44.68" y2="198.82" gradientUnits="userSpaceOnUse"><stop offset="0" stop-color="#d4d4d4"/><stop offset="1" stop-color="#333"/></linearGradient><linearGradient id="Nepojmenovaný_přechod_17-2" x1="40.54" y1="313.84" x2="142.84" y2="228.01" xlink:href="#Nepojmenovaný_přechod_17"/><linearGradient id="Nepojmenovaný_přechod_15" y1="142.97" x2="134.04" y2="142.97" gradientUnits="userSpaceOnUse"><stop offset="0" stop-color="#ba210f"/><stop offset="0.79" stop-color="#e0341b"/><stop offset="0.97" stop-color="#e26558"/></linearGradient><linearGradient id="linear-gradient" x1="44.68" y1="155.97" x2="134.04" y2="155.97" gradientUnits="userSpaceOnUse"><stop offset="0.15" stop-color="#e0341b"/><stop offset="1" stop-color="#a8190a"/></linearGradient><linearGradient id="Nepojmenovaný_přechod_34" x1="87.01" y1="76.9" x2="38.47" y2="0.63" gradientUnits="userSpaceOnUse"><stop offset="0" stop-color="#ccc"/><stop offset="1" stop-color="#fff"/></linearGradient></defs><g id="Layer_2" data-name="Layer 2"><g id="Layer_1-2" data-name="Layer 1"><polygon class="cls-1" points="67.27 224.51 67.27 345.69 66.27 346.26 22.09 320.57 22.09 198.82 67.27 224.51"/><polygon class="cls-2" points="67.27 224.51 115.83 195.83 115.83 317.58 67.27 345.69 67.27 224.51"/><path class="cls-3" d="M21.15,77.85,68.23,50.54a13.91,13.91,0,0,1,14.24.1v0l44.77,26.08v50H89.36V160l44.68,26L44.68,237.31,0,211.3V114.56A42.44,42.44,0,0,1,21.15,77.85Z"/><path class="cls-4" d="M65.83,103.86l47.08-27.3A14.07,14.07,0,0,1,134,88.73v97.32L44.68,237.31V140.58A42.47,42.47,0,0,1,65.83,103.86Z"/><circle class="cls-5" cx="63.76" cy="40.36" r="40.36"/></g></g></svg>