<svg xmlns="http://www.w3.org/2000/svg" xmlns:xlink="http://www.w3.org/1999/xlink" viewBox="0 0 433.63 268.4"><defs><style>.cls-1,.cls-2,.cls-3,.cls-4{fill:#e0341b;}.cls-1{opacity:0.1;}.cls-2{opacity:0.4;}.cls-3{opacity:0.7;}.cls-5{fill:#f2f2f2;}.cls-6{fill:url(#linear-gradient);}.cls-7{fill:url(#linear-gradient-2);}.cls-8{fill:url(#linear-gradient-3);}.cls-9{fill:none;stroke:#e2887f;stroke-miterlimit:10;}</style><linearGradient id="linear-gradient" x1="10679.65" y1="117.23" x2="10682.64" y2="122.93" gradientTransform="matrix(-1, 0, 0, 1, 10869.92, 0)" gradientUnits="userSpaceOnUse"><stop offset="0" stop-color="#c3c3c3"/><stop offset="1" stop-color="gray"/></linearGradient><linearGradient id="linear-gradient-2" x1="160.85" y1="138.99" x2="298.4" y2="138.99" gradientUnits="userSpaceOnUse"><stop offset="0.03" stop-color="#e26558"/><stop offset="0.21" stop-color="#e0341b"/><stop offset="1" stop-color="#ba210f"/></linearGradient><linearGradient id="linear-gradient-3" x1="160.85" y1="145.31" x2="229.62" y2="145.31" xlink:href="#linear-gradient-2"/></defs><g id="Layer_2" data-name="Layer 2"><g id="Layer_1-2" data-name="Layer 1"><polygon class="cls-1" points="317.98 92.74 331.83 123.92 317.98 139.1 328.63 145.25 342.48 130.07 328.63 98.89 317.98 92.74"/><polygon class="cls-2" points="348.36 110.28 362.21 141.45 348.36 156.64 359.01 162.79 372.86 147.61 359.01 116.43 348.36 110.28"/><polygon class="cls-3" points="378.74 127.82 392.59 159 378.74 174.18 389.4 180.33 403.25 165.15 389.4 133.97 378.74 127.82"/><polygon class="cls-4" points="409.12 145.36 422.97 176.53 409.12 191.72 419.78 197.87 433.63 182.69 419.78 151.51 409.12 145.36"/><path class="cls-5" d="M227.92,268.4c-74.82-4.23-80-71.26-80-89.61V97.36c52.59-28.79,80-77.69,80-77.69s27.41,17.25,80-14.68V86.42C307.92,104.77,302.74,177.78,227.92,268.4Z"/><path class="cls-6" d="M219.61,14.68S247,31.94,299.61,0l8.31,5c-52.59,31.93-80,14.68-80,14.68s-27.41,48.9-80,77.69v81.43c0,13.5,2.82,53.39,34.13,75.18-39.15-20-42.44-65.55-42.44-80.17V92.37C192.21,63.58,219.61,14.68,219.61,14.68Z"/><path class="cls-7" d="M229.62,252.22c-64.32-3.64-68.77-61.26-68.77-77v-70c45.21-24.74,68.77-66.78,68.77-66.78s23.56,14.83,68.78-12.62v70C298.4,111.55,294,174.31,229.62,252.22Z"/><path class="cls-8" d="M229.62,38.39V252.22c-64.32-3.64-68.77-61.26-68.77-77v-70C206.06,80.43,229.62,38.39,229.62,38.39Z"/><line class="cls-9" x1="229.62" y1="194.72" x2="291.24" y2="230.11"/><line class="cls-9" x1="0.25" y1="62.98" x2="138.73" y2="142.52"/><line class="cls-9" x1="229.62" y1="154.54" x2="396.87" y2="250.6"/><line class="cls-9" x1="60.14" y1="57.2" x2="138.73" y2="102.33"/><line class="cls-9" x1="229.62" y1="114.35" x2="396.87" y2="210.41"/><line class="cls-9" x1="113.3" y1="47.54" x2="138.73" y2="62.15"/><ellipse class="cls-4" cx="291.24" cy="230.11" rx="4.73" ry="2.73" transform="translate(-54.4 365.4) rotate(-59.69)"/></g></g></svg>