<svg xmlns="http://www.w3.org/2000/svg" xmlns:xlink="http://www.w3.org/1999/xlink" viewBox="0 0 267.23 299.38"><defs><style>.cls-1{font-size:32.77px;}.cls-1,.cls-10{fill:#333;font-family:SpaceMono-Bold, Space Mono;font-weight:700;}.cls-2{fill:url(#linear-gradient);}.cls-3{fill:url(#linear-gradient-2);}.cls-4{fill:url(#linear-gradient-3);}.cls-5,.cls-6,.cls-7{fill:none;}.cls-5{stroke-linecap:round;stroke-linejoin:round;stroke:url(#Nepojmenovaný_přechod_21);}.cls-6{stroke:#252532;stroke-width:0.5px;}.cls-6,.cls-7{stroke-miterlimit:10;}.cls-7{stroke:url(#linear-gradient-4);}.cls-8{fill:url(#Nepojmenovaný_přechod_48);}.cls-9{fill:#c2c2c2;}.cls-10{font-size:32.77px;}.cls-11{fill:#fff;opacity:0.4;}</style><linearGradient id="linear-gradient" x1="90.9" y1="174.32" x2="161.55" y2="174.32" gradientUnits="userSpaceOnUse"><stop offset="0" stop-color="#d6d6d6"/><stop offset="0.46" stop-color="#c4c4c4"/><stop offset="0.98" stop-color="#b3b3b3"/></linearGradient><linearGradient id="linear-gradient-2" x1="156.59" y1="283.11" x2="88.8" y2="165.69" gradientUnits="userSpaceOnUse"><stop offset="0" stop-color="#e26558"/><stop offset="1" stop-color="#e0341b"/></linearGradient><linearGradient id="linear-gradient-3" x1="129.89" y1="158.91" x2="122.56" y2="146.2" xlink:href="#linear-gradient-2"/><linearGradient id="Nepojmenovaný_přechod_21" x1="115.35" y1="236.75" x2="137.1" y2="236.75" gradientUnits="userSpaceOnUse"><stop offset="0" stop-color="#fff" stop-opacity="0.5"/><stop offset="0.14" stop-color="#fff" stop-opacity="0.48"/><stop offset="0.34" stop-color="#fff" stop-opacity="0.41"/><stop offset="0.57" stop-color="#fff" stop-opacity="0.29"/><stop offset="0.82" stop-color="#fff" stop-opacity="0.13"/><stop offset="1" stop-color="#fff" stop-opacity="0"/></linearGradient><linearGradient id="linear-gradient-4" x1="130.76" y1="144.01" x2="184.75" y2="144.01" gradientUnits="userSpaceOnUse"><stop offset="0" stop-color="#bf082b"/><stop offset="0.41" stop-color="#b1082c"/><stop offset="1" stop-color="#a0082d"/></linearGradient><linearGradient id="Nepojmenovaný_přechod_48" y1="129.39" x2="80.48" y2="129.39" gradientUnits="userSpaceOnUse"><stop offset="0" stop-color="#e6e6e6" stop-opacity="0.8"/><stop offset="1" stop-color="#b0b0b0"/></linearGradient></defs><g id="Layer_2" data-name="Layer 2"><g id="Layer_1-2" data-name="Layer 1"><text class="cls-1" transform="matrix(0.87, -0.5, 0, 1, 197.32, 121.63)">22°C</text><path class="cls-2" d="M140.23,231.62V63.26a14,14,0,1,0-28,0V231.62a35.33,35.33,0,1,0,28,0Z"/><path class="cls-3" d="M138.79,235l-2.19-1V152.55c0-3.3-4.65-6-10.37-6s-10.38,2.68-10.38,6V234l-2.19,1a31.7,31.7,0,1,0,25.13,0Z"/><ellipse class="cls-4" cx="126.23" cy="152.55" rx="10.37" ry="5.99"/><path class="cls-5" d="M115.85,233.76c0,3.31,4.65,6,10.38,6s10.37-2.68,10.37-6"/><line class="cls-6" x1="131.01" y1="178.98" x2="166.35" y2="158.58"/><line class="cls-6" x1="131.01" y1="185.64" x2="151.1" y2="174.04"/><line class="cls-6" x1="131.01" y1="192.08" x2="151.1" y2="180.48"/><line class="cls-6" x1="131.01" y1="198.52" x2="151.1" y2="186.92"/><line class="cls-6" x1="131.01" y1="205.18" x2="166.35" y2="184.78"/><line class="cls-6" x1="131.01" y1="211.85" x2="151.1" y2="200.25"/><line class="cls-6" x1="131.01" y1="218.29" x2="151.1" y2="206.69"/><line class="cls-6" x1="131.01" y1="224.73" x2="151.1" y2="213.13"/><line class="cls-6" x1="131.01" y1="231.39" x2="166.35" y2="210.98"/><line class="cls-6" x1="131.01" y1="126.58" x2="166.35" y2="106.18"/><line class="cls-6" x1="131.01" y1="133.24" x2="151.1" y2="121.64"/><line class="cls-6" x1="131.01" y1="139.68" x2="151.1" y2="128.08"/><line class="cls-6" x1="131.01" y1="146.12" x2="151.1" y2="134.52"/><line class="cls-6" x1="131.01" y1="152.78" x2="166.35" y2="132.38"/><line class="cls-7" x1="131.01" y1="159.45" x2="184.5" y2="128.56"/><line class="cls-6" x1="131.01" y1="165.88" x2="151.1" y2="154.28"/><line class="cls-6" x1="131.01" y1="172.32" x2="151.1" y2="160.72"/><line class="cls-6" x1="131.01" y1="178.98" x2="166.35" y2="158.58"/><line class="cls-6" x1="131.01" y1="74.18" x2="166.35" y2="53.77"/><line class="cls-6" x1="131.01" y1="80.84" x2="151.1" y2="69.24"/><line class="cls-6" x1="131.01" y1="87.28" x2="151.1" y2="75.67"/><line class="cls-6" x1="131.01" y1="93.71" x2="151.1" y2="82.11"/><line class="cls-6" x1="131.01" y1="100.37" x2="166.35" y2="79.97"/><line class="cls-6" x1="131.01" y1="107.04" x2="151.1" y2="95.44"/><line class="cls-6" x1="131.01" y1="113.48" x2="151.1" y2="101.88"/><line class="cls-6" x1="131.01" y1="119.92" x2="151.1" y2="108.32"/><line class="cls-6" x1="131.01" y1="126.58" x2="166.35" y2="106.18"/><path class="cls-8" d="M80.48,159.08a40.24,40.24,0,0,1-80.48,0c0-22.22,40.24-99.62,40.24-99.62S80.48,136.86,80.48,159.08Z"/><path class="cls-9" d="M76.86,159.07a36.61,36.61,0,1,1-73.22,0c0-6.21,3.61-17.65,8.79-30.79,1.2-2.83,3.71-5.5,7.52-7.72,11.15-6.44,29.32-6.41,40.54.08,3.89,2.23,6.43,5,7.65,7.81v0C73.26,141.53,76.86,152.9,76.86,159.07Z"/><text class="cls-10" transform="matrix(0.87, 0.5, 0, 1, 21.44, 27.85)">62%</text><path class="cls-11" d="M60.62,144.05c-11.15,6.45-29.32,6.41-40.54-.07-7.4-4.27-9.94-10.26-7.65-15.7,1.2-2.83,3.71-5.5,7.52-7.72,11.15-6.44,29.32-6.41,40.54.08,3.89,2.23,6.43,5,7.65,7.81v0C70.43,133.9,67.92,139.84,60.62,144.05Z"/></g></g></svg>