<svg xmlns="http://www.w3.org/2000/svg" viewBox="0 0 760.81 240.4"><defs><style>.cls-1{fill:#fff;}.cls-2{fill:#f06000;}</style></defs><g id="Layer_2" data-name="Layer 2"><g id="Layer_1-2" data-name="Layer 1"><g id="Layer_2-2" data-name="Layer 2"><g id="Layer_1-2-2" data-name="Layer 1-2"><path class="cls-1" d="M115.78,219.27c3.13,9.83,9.84,15.75,18.51,19.8,2.71,1.26,5.19,1.9,7.94-.41,10.19-8.54,20.54-16.9,30.81-25.35,2.4-2,3.16-3.63-.43-5.46-11.3-5.77-16.15-15.76-16.19-27.84-.2-57.65-.09-115.3-.09-173,0-1.24.37-2.66-.11-3.69S154.4.59,153.42.58C139.53.4,125.64.46,110.86.46V71.94c-13.28-7.71-26.72-8.53-40.36-7.79-10,.56-19.45,3.73-28.41,8.07-9.46,4.57-16.8,11.8-23.52,19.7A75.91,75.91,0,0,0,2.22,125.81C.14,135.81.49,146.35.08,156.66c-.79,19.76,4.32,37.75,16.48,53.58a68.15,68.15,0,0,0,25.55,20.41,73.35,73.35,0,0,0,27.43,6.62c8.27.5,15.89-.25,23.1-4.74C100,227.94,107.74,223.85,115.78,219.27Z"/><path class="cls-1" d="M328.53,183.22c-2.11.92-3.43,1.58-4.82,2.08-7.27,2.65-14.49,5.45-21.85,7.83-8.81,2.85-17.88,3.81-27.17,4-7.24.12-14.28-.44-20.88-3.07-14.44-5.75-22.1-16.94-24.55-32.71H348c1-18.79-1.66-36.33-9.15-53-4.8-10.71-11.11-20.53-20.21-28-11-9-23.49-15-38-16.4-15.94-1.56-31.64-1.43-46.7,4.54-18.85,7.47-33.38,19.75-43.18,38-8.13,15.11-10.55,31.25-10.73,47.8-.1,8.3,1.74,16.73,3.58,24.91a72.19,72.19,0,0,0,25,40.34c16.4,13.6,36.14,18.7,57,19.38,9,.29,18.17-.76,27.2-1.82,10.9-1.28,21.56-3.93,31.33-9.14,1.87-1,4.17-3.44,4.22-5.27C328.7,209.86,328.53,197.09,328.53,183.22Z"/><path class="cls-1" d="M700.64,219.54a37.48,37.48,0,0,0,19.08,19.87c2.87,1.38,5.68,1.49,8.37-.8,10.24-8.77,20.47-17.55,30.9-26.09,2.93-2.41,1.94-3.16-.6-4.74-3.62-2.24-7.89-4.34-10.17-7.66a39.62,39.62,0,0,1-7-22.84q.1-49.54,0-99.08a8.84,8.84,0,0,0-11.66-8.26c-6.33,2.09-12.76,4-18.81,6.75-3.41,1.54-5.45.85-8.25-1.07-17.65-12.1-37.14-14.12-57.59-9.72-17.06,3.67-30.33,13.17-41.26,26.6C591.35,107.6,586,125.09,585,144.1c-.58,12-.07,24,2.65,35.88q7.34,32,35.41,48.55A63.94,63.94,0,0,0,648.91,237c11.09,1.19,21.82.92,31.62-5.91C686.82,226.74,693.84,223.41,700.64,219.54Z"/><path class="cls-1" d="M355.67,103.37a83.51,83.51,0,0,0,9.36-.07c4.65-.51,5.72,1.41,5.7,5.81-.15,40.53-.09,81.06-.09,121.59v5.48c15.12,0,29.47.06,43.82-.1,1.3,0,3.43-1.18,3.7-2.2.58-2.21.21-4.68.21-7V103.25h27.78V72.52H418.37c0-4.94.16-9.6,0-14.23-.51-12.36,5.81-18.89,18.4-18.44,7.78.27,15.53,1.31,23.75,2,0-10.38-.13-21.25.07-32.12.06-3.26-1.16-4.88-4.17-5.53-3.73-.8-7.4-1.91-11.17-2.43-12.87-1.74-25.86-3.11-38.59.48a49,49,0,0,0-36,46.74c-.06,6.39-.14,12.79,0,19.17.09,3.23-1,4.68-4.3,4.33a33.33,33.33,0,0,0-3.74,0c-8.18,0-8.16,0-7,8a23.8,23.8,0,0,1,.05,3.27Z"/><path class="cls-1" d="M579.9,118.78V68c-11.28-1.19-22.14-2.42-33.27,1-10.74,3.27-19.49,10-30.09,15.55V69.35l-46.69,3.1V222.32c0,4.43-1,10.29,1.31,12.87,2,2.25,8.16,1,12.47,1,10.87.08,21.73,0,33,0v-5.55q0-49.78.09-99.56c0-2.26.67-5.36,2.2-6.63a48.79,48.79,0,0,1,33.9-11.39C561.76,113.5,570.55,116.7,579.9,118.78Z"/><path class="cls-2" d="M115.78,219.27c-8,4.58-15.75,8.66-23.14,13.26-7.21,4.49-14.83,5.24-23.1,4.74a73.35,73.35,0,0,1-27.43-6.62,68.15,68.15,0,0,1-25.55-20.41C4.4,194.41-.71,176.42.08,156.66c.41-10.31.06-20.85,2.14-30.85A75.84,75.84,0,0,1,18.57,91.94c6.72-7.9,14.06-15.13,23.52-19.7,9-4.34,18.37-7.51,28.41-8.07,13.64-.74,27.08.08,40.36,7.79V.5c14.78,0,28.67-.06,42.56.12,1,0,2.27,1.6,2.8,2.74s.11,2.45.11,3.69c0,57.66-.11,115.31.09,173,0,12.08,4.89,22.07,16.19,27.84,3.59,1.83,2.83,3.49.43,5.46-10.27,8.45-20.62,16.81-30.81,25.35-2.75,2.31-5.23,1.67-7.94.41C125.62,235,118.91,229.1,115.78,219.27Zm-5.31-63.54h.8c0-10.52.19-21-.11-31.55-.09-3-.76-6.64-2.56-8.86-6.55-8.1-15.9-11.9-25.88-11.73-16.75.3-28.57,8.84-33.07,25.82-3.23,12.2-4.06,24.53-.88,36.84,2.33,9,6.17,17.23,13.9,23.19,12.39,9.54,34.93,5.91,45.66-1.28a6.13,6.13,0,0,0,2-4.41C110.57,174.42,110.47,165.07,110.47,155.73Z"/><path class="cls-2" d="M328.53,183.22c0,13.87.17,26.64-.2,39.39-.05,1.83-2.35,4.27-4.22,5.27-9.77,5.21-20.43,7.86-31.33,9.14-9,1.06-18.16,2.11-27.2,1.82-20.85-.68-40.59-5.78-57-19.38a72.19,72.19,0,0,1-25-40.34c-1.84-8.18-3.68-16.61-3.58-24.91.18-16.55,2.6-32.69,10.73-47.8,9.8-18.21,24.33-30.49,43.18-38,15.06-6,30.76-6.1,46.7-4.54,14.55,1.42,27,7.39,38,16.4,9.1,7.45,15.41,17.27,20.21,28,7.49,16.7,10.18,34.24,9.15,53H229.26c2.45,15.77,10.11,27,24.55,32.71,6.6,2.63,13.64,3.19,20.88,3.07,9.29-.16,18.36-1.12,27.17-4,7.36-2.38,14.58-5.18,21.85-7.83A48.13,48.13,0,0,0,328.53,183.22Zm-27.16-53.4c-1.26-12.26-17.87-25.75-31.6-26.43-23-1.13-34,8.66-39.22,26.43Z"/><path class="cls-2" d="M700.64,219.54c-6.8,3.87-13.82,7.2-20.11,11.59-9.8,6.83-20.53,7.1-31.62,5.91a63.94,63.94,0,0,1-25.81-8.49Q595.05,212,587.69,180c-2.72-11.89-3.23-23.87-2.65-35.88.93-19,6.31-36.5,18.61-51.6,10.93-13.43,24.2-22.93,41.26-26.6,20.45-4.4,39.94-2.38,57.59,9.72,2.8,1.92,4.84,2.61,8.25,1.07,6-2.73,12.48-4.66,18.81-6.75a8.85,8.85,0,0,1,11.22,5.52,8.74,8.74,0,0,1,.47,2.72v99.08a39.62,39.62,0,0,0,7,22.84c2.28,3.32,6.55,5.42,10.17,7.66,2.54,1.58,3.53,2.33.6,4.74-10.43,8.54-20.66,17.32-30.9,26.09-2.69,2.29-5.5,2.18-8.37.8A37.46,37.46,0,0,1,700.64,219.54Zm-4.31-67.35c0-9.65-.13-19.3,0-28.95.09-4.46-.51-8.13-5-10.43-3.07-1.58-5.65-4.11-8.72-5.69-13.19-6.81-28.54-3.73-38.71,6.35-8.72,8.66-11.11,19.76-11.15,31.4a118.41,118.41,0,0,0,1.86,22c2.32,12.5,9.17,21.82,21.55,26.35,11.56,4.23,22.7,1.49,33.52-2.63,3.54-1.34,7.2-3.27,6.78-9-.65-9.75-.13-19.6-.13-29.4Z"/><path class="cls-2" d="M355.67,103.37V83.72a23.8,23.8,0,0,0-.05-3.27c-1.12-8-1.14-7.94,7-8a33.33,33.33,0,0,1,3.74,0c3.3.35,4.39-1.1,4.3-4.33-.19-6.38-.11-12.78-.05-19.17a49,49,0,0,1,36-46.74C419.34-1.33,432.33,0,445.2,1.78c3.77.52,7.44,1.63,11.17,2.43,3,.65,4.23,2.27,4.17,5.53-.2,10.87-.07,21.74-.07,32.12-8.22-.73-16-1.77-23.75-2-12.59-.45-18.91,6.08-18.4,18.44.19,4.63,0,9.29,0,14.23H446.1v30.73H418.37V226.84c0,2.36.37,4.83-.21,7-.27,1-2.4,2.19-3.7,2.2-14.35.16-28.7.1-43.82.1v-5.48c0-40.53-.06-81.06.09-121.59,0-4.4-1.05-6.32-5.7-5.81A83.52,83.52,0,0,1,355.67,103.37Z"/><path class="cls-2" d="M579.9,118.78c-9.35-2.08-18.14-5.28-27.07-5.72a48.79,48.79,0,0,0-33.9,11.39c-1.53,1.27-2.19,4.37-2.2,6.63-.13,33.18-.09,66.37-.09,99.56v5.54c-11.25,0-22.11.06-33,0-4.31,0-10.43,1.25-12.47-1-2.34-2.58-1.3-8.44-1.31-12.87q-.09-71.74,0-143.5V72.44l46.69-3.1v15.2C527.15,79,535.9,72.26,546.64,69c11.13-3.39,22-2.16,33.27-1Z"/></g></g></g></g></svg>