<?xml version="1.0" encoding="UTF-8"?>
<!-- Generator: Adobe Illustrator 13.0.2, SVG Export Plug-In  -->
<!DOCTYPE svg PUBLIC "-//W3C//DTD SVG 1.1//EN" "http://www.w3.org/Graphics/SVG/1.1/DTD/svg11.dtd" [
	<!ENTITY ns_flows "http://ns.adobe.com/Flows/1.0/">
]>
<svg version="1.1" xmlns="http://www.w3.org/2000/svg" xmlns:xlink="http://www.w3.org/1999/xlink" xmlns:a="http://ns.adobe.com/AdobeSVGViewerExtensions/3.0/" x="0px" y="0px" width="177px" height="27px" viewBox="-0.504 -0.479 177 27" enable-background="new -0.504 -0.479 177 27" xml:space="preserve">
<defs>
</defs>
<path fill-rule="evenodd" clip-rule="evenodd" fill="#055F8A" d="M81.029,22.467c0,2.405-0.74,3.145-2.96,3.145  c-1.11,0-2.405,0-3.33-0.185V0.082h6.105l10.915,16.28c0,0-0.185-0.74-0.185-2.035V0.082h6.29v25.345  c-0.925,0.185-2.59,0.185-4.07,0.185c-2.404,0-3.145-0.555-4.255-2.22c-0.925-1.665-8.51-13.135-8.51-13.135s0,0.555,0,2.405V22.467  L81.029,22.467z"/>
<path fill-rule="evenodd" clip-rule="evenodd" fill="#055F8A" d="M7.955,0.082C2.035,0.452,0,3.967,0,7.667  c0,3.885,2.405,7.585,8.325,7.771c2.035,0,4.44,0,5.365,0c1.295,0,2.405,0.925,2.405,2.404c0,1.48-1.11,2.405-2.405,2.405  c-0.925,0-9.435,0-9.435,0c-3.145,0-4.07,0.925-4.07,3.885v1.479c2.959,0.186,8.14,0.186,14.245,0.186  c6.105-0.186,8.51-4.07,8.51-8.14c0-4.07-2.59-7.955-8.51-7.955c-1.85-0.185-4.81,0-5.735,0C7.585,9.517,6.66,8.777,6.66,7.297  c0-1.295,0.925-2.035,2.035-2.22c0.925,0,8.51,0,8.51,0c3.145,0,4.07-0.74,4.07-3.7V0.082C19.425,0.082,12.58-0.103,7.955,0.082  L7.955,0.082z"/>
<path fill-rule="evenodd" clip-rule="evenodd" fill="#055F8A" d="M109.334,0.082c-5.92,0.37-7.955,3.885-7.955,7.585  c0,3.885,2.405,7.585,8.325,7.771c2.035,0,4.439,0,5.365,0c1.295,0,2.404,0.925,2.404,2.404c0,1.48-1.109,2.405-2.404,2.405  c-0.926,0-9.436,0-9.436,0c-3.145,0-4.069,0.925-4.069,3.885v1.479c2.96,0.186,8.14,0.186,14.244,0.186  c6.105-0.186,8.51-4.07,8.51-8.14c0-4.07-2.59-7.955-8.51-7.955c-1.85-0.185-4.81,0-5.734,0c-1.11-0.185-2.035-0.925-2.035-2.405  c0-1.295,0.925-2.035,2.035-2.22c0.925,0,8.51,0,8.51,0c3.145,0,4.07-0.74,4.07-3.7V0.082  C120.804,0.082,113.959-0.103,109.334,0.082L109.334,0.082z"/>
<path fill-rule="evenodd" clip-rule="evenodd" fill="#055F8A" d="M74,25.427c-0.925,0.185-2.59,0.185-4.07,0.185  c-2.035,0-3.515-0.185-4.07-2.22l-0.925-2.774H55.5l-0.925,2.774c-0.555,2.035-2.035,2.22-4.07,2.22c-2.035,0.186-3.7,0.186-5.735,0  c-2.035,0-2.96-0.369-3.885-1.479l-8.325-9.435c-0.185-0.37-0.185-0.556-0.185-0.556v8.325c0,2.405-0.74,3.145-2.96,3.145  c-1.294,0-3.145,0-4.069-0.185V0.082h7.03v11.655c0-0.37,0-0.555,0.185-0.74l8.51-10.915h8.14L38.665,12.477l8.695,9.435  c0.185,0.185,0.37,0.555,0.37,0.555s0-0.37,0-0.555c0.186-0.186,8.695-21.83,8.695-21.83h7.4L74,25.427L74,25.427z M63.27,15.622  l-3.145-9.99l-3.145,9.99c0,0,0.185-0.185,0.37-0.185h5.735C63.27,15.438,63.27,15.622,63.27,15.622L63.27,15.622z"/>
<path fill-rule="evenodd" clip-rule="evenodd" fill="#055F8A" d="M175.748,25.427c-0.74,0.185-2.59,0.185-4.069,0.185  c-2.035,0-3.516-0.185-4.07-2.22l-0.925-2.774h-9.436l-0.925,2.774c-0.555,2.035-1.85,2.22-4.069,2.22  c-2.035,0.186-3.7,0.186-5.551,0c-2.22,0-3.145-0.369-4.069-1.479l-8.141-9.435c-0.369-0.37-0.369-0.556-0.369-0.556v8.325  c0,2.405-0.74,3.145-2.96,3.145c-1.11,0-3.146,0-3.885-0.185V0.082h6.845v11.655c0-0.37,0.185-0.555,0.369-0.74l8.325-10.915h8.14  l-10.545,12.395c0,0,8.695,9.435,8.881,9.435c0.185,0.185,0.185,0.555,0.185,0.555s0-0.37,0-0.555  c0.185-0.186,8.88-21.83,8.88-21.83h7.215L175.748,25.427L175.748,25.427z M165.019,15.622l-3.146-9.99l-3.145,9.99  c0,0,0.185-0.185,0.37-0.185h5.734C165.019,15.438,165.019,15.622,165.019,15.622L165.019,15.622z"/>
</svg>