<svg xmlns="http://www.w3.org/2000/svg" viewBox="0 0 68.78 56.98"><defs><style>.cls-1{fill:#b82f00;}.cls-1,.cls-2,.cls-3,.cls-4,.cls-5{fill-rule:evenodd;}.cls-2{fill:#ff7b22;}.cls-3{fill:#ff7a5b;}.cls-4{fill:#ffb9a4;}.cls-5{fill:#f9dad2;}.cls-6{fill:#494949;}</style></defs><g id="Layer_2" data-name="Layer 2"><g id="Layer_1-2" data-name="Layer 1"><path class="cls-1" d="M49,3.86C45,.86,40.32,0,35.46,0A22.29,22.29,0,0,0,23,3.23c-5.65,3.6-7.53,9.87-4.46,15.46a30.07,30.07,0,0,0,12.28,12,8.33,8.33,0,0,0,8.41,0A30.52,30.52,0,0,0,52.32,17.23C54.83,12.19,53.52,7.21,49,3.86Zm.23,13.73a25.55,25.55,0,0,1-12.3,11.85,6.58,6.58,0,0,1-5.65,0,25,25,0,0,1-11.78-11c-2-3.69-1.33-7.64,1.58-10.77A15.21,15.21,0,0,1,30,3.21c1.47-.25,3-.33,4-.43,4.86.15,9.09.82,12.68,3.61A8.54,8.54,0,0,1,49.21,17.59Z"/><path class="cls-2" d="M43.9,5.82a19.17,19.17,0,0,0-7.92-2C32,3.6,28,4.07,24.51,6.21a10,10,0,0,0-5.19,8.69,18.87,18.87,0,0,0,1.14,3.4A24.45,24.45,0,0,0,30.25,28a7.43,7.43,0,0,0,7.92-.11,25.47,25.47,0,0,0,9.65-9.7,10.71,10.71,0,0,0,1.26-3.41C49.71,11.1,47.69,7.77,43.9,5.82Zm2.83,11.71a20.52,20.52,0,0,1-9,9.44,5.45,5.45,0,0,1-5.36,0,20.17,20.17,0,0,1-8.59-8.49,7.68,7.68,0,0,1,1.89-9.64q3.51-3.18,9.68-3.16a14.47,14.47,0,0,1,9.16,2.7A7,7,0,0,1,46.73,17.53Z"/><path class="cls-3" d="M43.12,8.68A15.12,15.12,0,0,0,28.23,8.3c-3.47,1.72-5.78,5.77-3.47,10a19.13,19.13,0,0,0,7.89,7.75,5,5,0,0,0,5.11-.15A19.52,19.52,0,0,0,45.47,18,18.46,18.46,0,0,0,46.56,15,7,7,0,0,0,43.12,8.68ZM44,17.12a14.87,14.87,0,0,1-6.82,7.14,4,4,0,0,1-3.73.16A14.15,14.15,0,0,1,26.5,17.7c-1.39-2.91-.05-6.21,3.09-7.85A10.47,10.47,0,0,1,34.67,8.6c3.19,0,5.58.48,7.62,2.11A5.09,5.09,0,0,1,44,17.1Z"/><path class="cls-4" d="M40.66,10.53a10.86,10.86,0,0,0-4.5-1.14,11.06,11.06,0,0,0-6.52,1.36,5.71,5.71,0,0,0-2.93,4.95,10.53,10.53,0,0,0,.65,1.94,13.91,13.91,0,0,0,5.56,5.51,4.21,4.21,0,0,0,4.5-.06,14.51,14.51,0,0,0,5.49-5.53,5.89,5.89,0,0,0,.71-1.94C44,13.55,42.82,11.64,40.66,10.53Zm1.66,6.67a11.72,11.72,0,0,1-5.13,5.38,3.13,3.13,0,0,1-3,0,11.57,11.57,0,0,1-4.88-4.84,4.38,4.38,0,0,1,1.07-5.49,8,8,0,0,1,5.51-1.8A8.2,8.2,0,0,1,41.09,12,4,4,0,0,1,42.32,17.2Z"/><path d="M10.69,37.33H4.5c-1,0-1.65.19-1.9.56a3.36,3.36,0,0,0-.22,1.54,1.1,1.1,0,0,0,.57,1,3.17,3.17,0,0,0,1.55.28H7.06a4.56,4.56,0,0,1,2.62.66,2.07,2.07,0,0,1,1,1.84V45.1a2.19,2.19,0,0,1-1,1.92,5,5,0,0,1-2.76.67H0V45.91H6.2q1.55,0,1.92-.6a4.78,4.78,0,0,0,.17-1.64c0-.83-.67-1.24-2-1.24H3.72a5.05,5.05,0,0,1-2.61-.61A2,2,0,0,1,0,40V38.1a2.28,2.28,0,0,1,1.21-2,4.61,4.61,0,0,1,2.47-.53h7Z"/><path d="M25.47,44.64a3.62,3.62,0,0,1-.17,1.26A2.5,2.5,0,0,1,24.42,47a3.58,3.58,0,0,1-1.39.63,11.2,11.2,0,0,1-1.64.09H17.62A9.8,9.8,0,0,1,16,47.59,3.54,3.54,0,0,1,14.61,47a2.75,2.75,0,0,1-.92-1.08,3.85,3.85,0,0,1-.15-1.26V35.56H16v8.75a1.45,1.45,0,0,0,.49,1.28,3.63,3.63,0,0,0,1.81.33h2.49a3.59,3.59,0,0,0,1.8-.32,1.36,1.36,0,0,0,.51-1.24v-8.8h2.41Z"/><path d="M39.94,47.7h-3L31,43a.89.89,0,0,1-.3-.76c0-.68.5-1,1.49-1h3.53c1.18,0,1.76-.41,1.76-1.22V38.66c0-.85-.66-1.28-2-1.28h-5V47.7H28.1V35.57h8.11c2.47,0,3.71.86,3.7,2.58v2.1a2.16,2.16,0,0,1-1,1.83,4.25,4.25,0,0,1-2.52.69H33.61Z"/><path d="M54.16,44.64A3.62,3.62,0,0,1,54,45.9,2.4,2.4,0,0,1,53.1,47a3.54,3.54,0,0,1-1.38.63,11.2,11.2,0,0,1-1.64.09H46.32a9.61,9.61,0,0,1-1.61-.11,3.52,3.52,0,0,1-1.4-.61,2.75,2.75,0,0,1-.92-1.08,3.85,3.85,0,0,1-.14-1.26V35.56h2.41v8.75a1.46,1.46,0,0,0,.5,1.28,3.53,3.53,0,0,0,1.81.33h2.49a3.57,3.57,0,0,0,1.79-.32,1.36,1.36,0,0,0,.51-1.24v-8.8h2.42Z"/><path d="M68.75,46.24a1.47,1.47,0,0,1-.5,1.14,2.07,2.07,0,0,1-1.47.51,2,2,0,0,1-1.33-.39,5.45,5.45,0,0,1-.73-1L59.1,37.94V47.7H56.79V37.33c0-1.18.66-1.77,2-1.77a2.07,2.07,0,0,1,1.36.37,4.59,4.59,0,0,1,.75,1l5.57,8.54V35.68h2.31Z"/><path class="cls-5" d="M39.53,12.36a8.64,8.64,0,0,0-7.74.16,4.07,4.07,0,0,0-2.06,3.54,8.66,8.66,0,0,0,.45,1.39,9.9,9.9,0,0,0,3.91,4,2.9,2.9,0,0,0,3.16-.05,10.21,10.21,0,0,0,3.85-4A4.31,4.31,0,0,0,41.61,16,3.49,3.49,0,0,0,39.53,12.36Z"/><path class="cls-6" d="M14.37,51.61H11.22a1.28,1.28,0,0,0-1,.29,1.87,1.87,0,0,0-.11.78.55.55,0,0,0,.29.5,1.55,1.55,0,0,0,.79.15h1.3a2.33,2.33,0,0,1,1.34.33,1.08,1.08,0,0,1,.5.94v1a1.12,1.12,0,0,1-.51,1,2.68,2.68,0,0,1-1.41.34H8.92V56h3.16c.52,0,.85-.1,1-.31a2.58,2.58,0,0,0,.08-.83c0-.42-.33-.63-1-.63H10.85A2.69,2.69,0,0,1,9.52,54,1,1,0,0,1,9,53V52a1.17,1.17,0,0,1,.62-1,2.4,2.4,0,0,1,1.26-.27h3.58Z"/><path class="cls-6" d="M21.07,54.26h-4v1q0,.69,1.08.69h3.17v.91H17.81a2.82,2.82,0,0,1-1.42-.32,1.13,1.13,0,0,1-.55-1V52.1a1.18,1.18,0,0,1,.49-1,2.24,2.24,0,0,1,1.37-.37h3.62v.91h-3.2c-.71,0-1.06.22-1.06.68v1h4Z"/><path class="cls-6" d="M29,56.9H27.43l-3-2.38a.48.48,0,0,1-.15-.39c0-.34.25-.52.76-.52h1.8c.6,0,.9-.21.9-.62v-.71c0-.43-.34-.65-1-.65H24.2v5.28H23V50.73H27.1c1.26,0,1.89.44,1.89,1.31V53.1a1.07,1.07,0,0,1-.49.93,2.17,2.17,0,0,1-1.29.35H25.8Z"/><path class="cls-6" d="M36.71,50.71,33.9,56.42A.91.91,0,0,1,33,57a.93.93,0,0,1-.88-.56l-2.83-5.71h1.31l2.37,5,2.39-5Z"/><path class="cls-6" d="M38.5,56.9H37.32V50.69h1.23Z"/><path class="cls-6" d="M45.32,51.61H42.08a1.47,1.47,0,0,0-.77.14.62.62,0,0,0-.27.53v2.93a.73.73,0,0,0,.24.61,1.5,1.5,0,0,0,.86.17h3.18v.91H41.7a2.35,2.35,0,0,1-1.39-.37,1.26,1.26,0,0,1-.49-1V52.1A1.18,1.18,0,0,1,40.34,51a2.74,2.74,0,0,1,1.46-.29h3.52Z"/><path class="cls-6" d="M52,54.26H48v1q0,.69,1.08.69h3.18v.91H48.72a2.76,2.76,0,0,1-1.41-.32,1.12,1.12,0,0,1-.56-1V52.1a1.19,1.19,0,0,1,.5-1,2.19,2.19,0,0,1,1.36-.37h3.63v.91H49.05c-.71,0-1.07.22-1.07.68v1h4Z"/><path class="cls-6" d="M59.12,51.61H56a1.28,1.28,0,0,0-1,.29,1.87,1.87,0,0,0-.11.78.55.55,0,0,0,.29.5,1.55,1.55,0,0,0,.79.15h1.38a2.41,2.41,0,0,1,1.34.33,1.08,1.08,0,0,1,.5.94v1a1.12,1.12,0,0,1-.51,1,2.68,2.68,0,0,1-1.41.34H53.72V56h3.16c.52,0,.85-.1,1-.31a2.33,2.33,0,0,0,.09-.83c0-.42-.34-.63-1-.63h-1.3A2.69,2.69,0,0,1,54.34,54a1,1,0,0,1-.57-.93V52a1.17,1.17,0,0,1,.62-1,2.36,2.36,0,0,1,1.25-.27h3.59Z"/></g></g></svg>