<svg xmlns="http://www.w3.org/2000/svg" viewBox="0 0 514.3 92.84"><defs><style>.cls-1{fill:#eb0000;}.cls-2{fill:#224991;}.cls-3{fill:#fff;}.cls-4{fill:#959598;}</style></defs><g id="Layer_2" data-name="Layer 2"><g id="svg8811"><path id="path8126" class="cls-1" d="M90.68,45.34A45.34,45.34,0,1,0,45.35,90.67,45.33,45.33,0,0,0,90.68,45.34"/><path id="path8130" class="cls-2" d="M231.88,45.34a45.34,45.34,0,1,0-45.33,45.33,45.33,45.33,0,0,0,45.33-45.33"/><path id="path8134" class="cls-1" d="M373.09,45.34a45.34,45.34,0,1,0-45.33,45.33,45.33,45.33,0,0,0,45.33-45.33"/><path id="path8138" class="cls-2" d="M514.3,47.5A45.34,45.34,0,1,0,469,92.84,45.32,45.32,0,0,0,514.3,47.5"/><path id="path8142" class="cls-3" d="M69.28,30.07H51V71.36H38.36V30.07H20.06V20.79H69.28Z"/><path id="path8146" class="cls-3" d="M183.74,40.75h5.86c5.77,0,7.86-2.1,7.86-5.86,0-4.3-2.46-5.86-9.27-5.86h-4.45Zm9.93-21c11.58,0,16.75,8.09,16.75,15,0,7.11-5,15.27-16.68,15.27h-10V70.32H171.15V19.76Z"/><path id="path8150" class="cls-3" d="M349.46,66c-7,3.64-12.39,5-19.87,5-19.65,0-29.43-12.76-29.43-25.8,0-13.49,11-26.1,30.4-26.1,7,0,13.34,1.49,18.31,4.45V34.81c-5.56-3.11-11.19-5.2-17.42-5.2C320.7,29.61,313.12,36,313.12,45s7.51,15.5,18,15.5c6.59,0,11.05-2.09,18.31-5.57Z"/><path id="path8154" class="cls-3" d="M469.09,30.39,461.68,50h15.56Zm29.57,38.47H485.1l-4.15-10h-22.6l-3.78,10H441.21l20.4-50.56H476.2Z"/><path id="path8156" class="cls-4" d="M406.33,85.91H396.08v-79h10.25Z"/><path id="path8158" class="cls-4" d="M259.76,85.91H249.52v-79h10.24Z"/><path id="path8160" class="cls-4" d="M119.36,85.91H109.13v-79h10.23Z"/></g></g></svg>