<svg xmlns="http://www.w3.org/2000/svg" viewBox="0 0 296.58 127.33"><defs><style>.cls-1{fill:#f18a3d;}.cls-2{fill:#0a0a0a;}.cls-3{fill:#0b0b0a;}.cls-4{fill:#0c0c0c;}.cls-5{fill:#fff;}</style></defs><g id="Layer_2" data-name="Layer 2"><g id="Layer_1-2" data-name="Layer 1"><path class="cls-1" d="M63.72,127.33H1.12c-1.26,0-1.12.14-1.12-1.12V1.12C0-.14-.14,0,1.12,0H126.21c1.22,0,1.12-.1,1.12,1.12V126.21c0,1.26.14,1.08-1.12,1.08Q95,127.35,63.72,127.33Z"/><path class="cls-2" d="M271.91,15c5,.08,9.29,1,13.27,3.37A22.47,22.47,0,0,1,294.64,30a32,32,0,0,1,1.82,14.09A30.11,30.11,0,0,1,294,54.34a22,22,0,0,1-16.44,13.23,28,28,0,0,1-13.31-.28,22.1,22.1,0,0,1-14.7-12.91,30.07,30.07,0,0,1-2.43-13.19,29.41,29.41,0,0,1,3.08-12.87,23.28,23.28,0,0,1,18.11-13c.4-.08.85-.12,1.25-.16C270.53,15.05,271.42,15,271.91,15Z"/><path class="cls-2" d="M241.87,41.23a31.72,31.72,0,0,1-2.6,13.27,21.94,21.94,0,0,1-16.27,13A27.44,27.44,0,0,1,209,67a22.07,22.07,0,0,1-14.08-12.78,30.66,30.66,0,0,1-2.32-14.74,27.31,27.31,0,0,1,5.73-15.46,23,23,0,0,1,15.22-8.73,26.11,26.11,0,0,1,13.31,1.3A21.68,21.68,0,0,1,239.48,29,28.86,28.86,0,0,1,241.87,41.23Z"/><path class="cls-2" d="M173.88,25.52H152.33c-.81,0-.77,0-.73-.73V16.51c0-.77,0-.77.81-.77h35.92c.45,0,.65.12.61.61,0,.69,0,1.38,0,2,0,1,0,2,0,3a2.9,2.9,0,0,1-.61,2q-11.45,16.5-22.85,33.08c-.16.24-.36.49-.49.73-.28.53-.2.69.37.73h23.09c.69,0,.74,0,.74.69v8.2c0,.53-.17.73-.65.65a2.7,2.7,0,0,0-.57,0H150.46c-1.38,0-1.17.16-1.17-1.22s0-2.68,0-4a3.19,3.19,0,0,1,.56-1.9q11.7-16.87,23.3-33.73C173.36,26.29,173.56,26,173.88,25.52Z"/><path class="cls-2" d="M194.62,95.5c.82.36,1.55.65,2.24,1a7.88,7.88,0,0,1,1.5,12.42,10.25,10.25,0,0,1-5,2.6,26.1,26.1,0,0,1-4.63.49c-2.11.08-4.22,0-6.33-.08-1-.09-1-.09-1-1V82.55c0-.85,0-.85.81-1a28,28,0,0,1,10.56-.16,10.47,10.47,0,0,1,3.41,1.34,7,7,0,0,1,1.62,10.47,8.81,8.81,0,0,1-2.35,1.87C195.19,95.17,195,95.33,194.62,95.5Z"/><path class="cls-2" d="M241.51,97.28c2.59,1,3.57,3.17,4.22,5.52.69,2.52,1.17,5.12,2,7.63.12.45.28.86.44,1.38h-3.65c-.33,0-.45-.2-.53-.48a14.3,14.3,0,0,1-.73-2.24c-.41-1.7-.77-3.4-1.18-5.11-.08-.37-.16-.77-.28-1.14-.93-3-2.64-4.14-5.64-4.34-1-.08-2.07,0-3.13,0-.49,0-.69.12-.69.65,0,1.46,0,2.92,0,4.38v7.59c0,.49-.08.69-.65.69-.93,0-1.86,0-2.84,0-.45,0-.61-.12-.53-.56v-29a.52.52,0,0,1,.53-.65c.77-.12,1.54-.28,2.31-.36a34.61,34.61,0,0,1,7.68-.08,12.22,12.22,0,0,1,5.39,2,6.42,6.42,0,0,1,2.68,4.14,9.38,9.38,0,0,1-.24,5,7.91,7.91,0,0,1-3.73,4.22A6.13,6.13,0,0,1,241.51,97.28Z"/><path class="cls-3" d="M206,96.47V81.66c0-.33.16-.45.49-.45h15.66c.29,0,.41.12.41.41v2.71c0,.33-.16.37-.41.37H210.86c-.77,0-.81,0-.81.77v8c0,.85,0,.77.81.77h10.39c.37,0,.53.08.53.49,0,.73,0,1.5,0,2.23,0,.4-.12.57-.57.57-.85,0-1.7,0-2.52,0h-8c-.69,0-.69,0-.69.69v9.66c0,.69,0,.73.77.73h12c.37,0,.53.08.53.48,0,.78,0,1.55,0,2.36,0,.28-.12.4-.4.4H206.44c-.33,0-.49-.12-.45-.44V96.47Z"/><path class="cls-2" d="M252.71,96.51V81.62c0-.29.16-.41.45-.37h15.66c.33,0,.45.16.45.49v2.64c0,.28-.12.4-.41.4H257.54c-.85,0-.85,0-.85.81v7.88c0,.81,0,.81.85.81h10.51c.29,0,.45.08.45.41V97.2a.32.32,0,0,1-.37.37H257.5c-.81,0-.85,0-.85.85v9.34c0,.85,0,.85.85.85h12c.33,0,.49.08.49.44v2.36c0,.32-.16.49-.49.44H253.16c-.41.05-.49-.16-.49-.52v-.69C252.71,105.93,252.71,101.22,252.71,96.51Z"/><path class="cls-2" d="M295.53,85.47a14.93,14.93,0,0,0-7.14-1.18,11,11,0,0,0-10.72,10,17.22,17.22,0,0,0,.57,7.31,10,10,0,0,0,8.44,7.22,16.23,16.23,0,0,0,8.85-1,19.45,19.45,0,0,1,1,2.72c.12.32-.17.36-.37.44a10.84,10.84,0,0,1-2.8.81,21.43,21.43,0,0,1-9.09.05c-5.93-1.47-9.42-5.32-10.64-11.25a18,18,0,0,1,.53-9.5c1.95-5.76,6.05-9.05,12-10.1a18.38,18.38,0,0,1,8.77.52c.37.13.73.29,1.1.41s.69.37.44.89C296.06,83.69,295.94,84.58,295.53,85.47Z"/><path class="cls-2" d="M149.08,96.47V81.66c0-.33.12-.49.45-.45h3.12c.37,0,.45.2.45.49V108c0,.45.16.65.61.61.89,0,1.83,0,2.72,0h9c.77,0,.77,0,.77.73v2c0,.32-.12.48-.45.44H149.89c-.77,0-.73,0-.73-.73C149.08,106.21,149.08,101.34,149.08,96.47Z"/><path class="cls-4" d="M170.35,96.47V81.57a.32.32,0,0,1,.37-.36h3.33a.32.32,0,0,1,.36.36v29.51c0,.73,0,.73-.73.73-.89,0-1.75,0-2.64,0-.49,0-.69-.12-.65-.65,0-1.7,0-3.45,0-5.15C170.35,102.84,170.35,99.64,170.35,96.47Z"/><path class="cls-2" d="M69.27,62.08a28.94,28.94,0,0,1,5.06.35,8.52,8.52,0,0,1,1.36.42,1.31,1.31,0,0,1,.67.48,1.62,1.62,0,0,0,1.39.91,19.6,19.6,0,0,1,3.63,1,3.52,3.52,0,0,1,1.71,1.16,9.15,9.15,0,0,0,2.06,2.06,13,13,0,0,0,1.58.8,7.69,7.69,0,0,1,2.93,2.55,2.07,2.07,0,0,1,.21,2.23,5.3,5.3,0,0,0-.46,1.26,1.3,1.3,0,0,1-1,1.26,1.2,1.2,0,0,0-.63.55c-.46.67-.63.74-1.36.53a5.44,5.44,0,0,1-2.62-1.47,27.44,27.44,0,0,0-4.51-3.73,20.6,20.6,0,0,0-7-3.22c-1-.24-2-.45-3-.66a5.1,5.1,0,0,0-3,.28,7.88,7.88,0,0,1-3.1.59,1.29,1.29,0,0,0-1.12.42.84.84,0,0,1-.84.28,6.72,6.72,0,0,0-5.9,2.55,12.39,12.39,0,0,0-3.28,6.11,8.66,8.66,0,0,0-.14,1.68c.1,1.81.31,3.59.59,5.41a14.92,14.92,0,0,0,2.2,5.37,25,25,0,0,1,1.75,2.94,3.24,3.24,0,0,0,1.11,1.25,54.92,54.92,0,0,1,6.22,5.48A14.77,14.77,0,0,0,67,103.34a10,10,0,0,0,2,.91,61.72,61.72,0,0,0,9.67,2.55,22.62,22.62,0,0,1,2.93.7.82.82,0,0,0,.63.07,6.1,6.1,0,0,1,3-.21,11.08,11.08,0,0,1,1.51.17,6.6,6.6,0,0,0,3.7-.35,31.85,31.85,0,0,1,4.33-1.25,17.15,17.15,0,0,0,5.93-2.62,10.81,10.81,0,0,0,1.78-1.54c1.33-1.43,2.72-2.79,4-4.33a11.53,11.53,0,0,0,2.17-3.94c.83-2.65,1.92-5.24,2.68-7.93a27.32,27.32,0,0,0,1.23-9.07,9,9,0,0,1,.38-2.73,23.59,23.59,0,0,0,.24-6.66,20.54,20.54,0,0,0-1.22-5.63,8.85,8.85,0,0,1-.35-1.64,5.19,5.19,0,0,0-.83-2.34,11.25,11.25,0,0,1-1.16-2.23,23.39,23.39,0,0,0-3.59-5.73c-2.31-2.75-4.68-5.48-7.06-8.16a20.18,20.18,0,0,0-5.62-4.44l-3.87-2.16a13.6,13.6,0,0,1-2.55-1.85,9.86,9.86,0,0,0-3.56-2c-.14-.07-.35-.07-.49-.14-1.29-.94-2.83-1-4.29-1.19-1-.13-2-.2-3-.27a6.62,6.62,0,0,0-2.86.38,1.38,1.38,0,0,0-1,1.33,2.92,2.92,0,0,0,0,.59,14.15,14.15,0,0,1-.7,5.52,7.84,7.84,0,0,1-.63,1.71,12.73,12.73,0,0,0-1,2.72,3.88,3.88,0,0,0-.14,1.26,13.35,13.35,0,0,1-.77,4.5,28.42,28.42,0,0,1-2,5.24c-.32.63-.53,1.29-1.19,1.64a1.16,1.16,0,0,0-.52.91A2.08,2.08,0,0,1,63.3,57a.87.87,0,0,0-.56.59c-.14.42-.38.39-.7.28a1.33,1.33,0,0,1-.83-.87,4.3,4.3,0,0,0-.88-1.5A2.39,2.39,0,0,1,60,53.31a9.09,9.09,0,0,1,.7-2.12,19.39,19.39,0,0,0,1.43-4.61,23.71,23.71,0,0,1,1-3.39,23.1,23.1,0,0,0,.59-2.62,4.37,4.37,0,0,1,.84-2A2.59,2.59,0,0,0,65,37a6.49,6.49,0,0,0,0-1.08,3.76,3.76,0,0,1,.69-2.27,6,6,0,0,0,.88-1.78,1.53,1.53,0,0,0-1.09-2.17,4.68,4.68,0,0,0-2.37-.27,1.32,1.32,0,0,0-1.12.9,18,18,0,0,1-.8,1.92,4.35,4.35,0,0,0-.45,2,2.61,2.61,0,0,1-.42,1.5,6.45,6.45,0,0,0-.74,2.27,12.31,12.31,0,0,1-2,4.75,16.34,16.34,0,0,0-2.13,4.26,39.84,39.84,0,0,1-4.64,9.07,10.52,10.52,0,0,1-1.53,2,3.21,3.21,0,0,1-1,.7,1.06,1.06,0,0,1-1.6-.88A5.2,5.2,0,0,0,46,55.65a2.25,2.25,0,0,1-.21-1.78,4.78,4.78,0,0,1,.52-1.32c1.75-3.35,3.25-6.85,4.82-10.3.94-2,1.92-4,2.9-6a14.12,14.12,0,0,0,.87-2.62,1.62,1.62,0,0,0,0-.59.87.87,0,0,0-.91-.91,4.77,4.77,0,0,0-1.57.28A24.48,24.48,0,0,0,46.65,35c-1.78,1.15-3.63,2.17-5.52,3.18a43,43,0,0,0-4.68,2.93c-1.85,1.36-3.91,2.51-5.86,3.7a56,56,0,0,0-6.71,4.54,5.31,5.31,0,0,0-.55.49,34.17,34.17,0,0,1-4.12,3.56,5,5,0,0,0-1.82,2.34,7.38,7.38,0,0,1-3.49,3.59,3.77,3.77,0,0,1-3.56.07c-2.38-1-3.07-2.47-2.79-5a6.92,6.92,0,0,1,3.52-5.59,13.12,13.12,0,0,0,2.52-2.06,25.33,25.33,0,0,1,3.17-2.58c1.71-1.15,3.39-2.38,5-3.67a57.39,57.39,0,0,1,6.81-4.57A114.46,114.46,0,0,1,39,30.1a13.66,13.66,0,0,0,2.76-1.75,11.43,11.43,0,0,1,2.09-1.22,39.53,39.53,0,0,1,4.44-1.78,2.5,2.5,0,0,0,.7-.28,3.85,3.85,0,0,1,2.54-.59A14,14,0,0,0,55.1,24,6.66,6.66,0,0,0,57,23.08a3.25,3.25,0,0,0,1.29-1.81,12.25,12.25,0,0,1,1.19-2.87,8.82,8.82,0,0,0,.94-2.65,47.32,47.32,0,0,1,1-4.82,5.9,5.9,0,0,0,0-1.57c0-1,.28-1.29,1.29-1.26A4.31,4.31,0,0,0,64.07,8c.84-.2,1.08-.1,1.46.7a8.91,8.91,0,0,1,.88,5.76c-.25,1.29-.56,2.55-.84,3.84a7.33,7.33,0,0,0-.11,2.34c.07.63.25.84.84.95a1.2,1.2,0,0,0,.49,0,6.35,6.35,0,0,0,3.11-1.15A1.62,1.62,0,0,0,70.67,19a4.39,4.39,0,0,1,.42-2,15.9,15.9,0,0,0,.73-2.41,10.89,10.89,0,0,1,.63-1.82,1.48,1.48,0,0,1,1.43-1h2.58a.91.91,0,0,1,.84.59,19,19,0,0,0,.84,2.09,1.71,1.71,0,0,1,0,1.09,15.22,15.22,0,0,1-.84,2.26,7.43,7.43,0,0,0-.62,2.06,1.53,1.53,0,0,0,1.6,1.89,49.35,49.35,0,0,1,5.59.38A31.73,31.73,0,0,1,90,23.64a12.1,12.1,0,0,1,3.28,2c.91.73,1.82,1.5,2.73,2.23a14.09,14.09,0,0,0,2.41,1.65A11.81,11.81,0,0,1,102,32.4c.24.28.49.56.7.84a8.27,8.27,0,0,0,3.49,2.9,3.81,3.81,0,0,1,1.11.73,1.88,1.88,0,0,1,.74,1.26,1.89,1.89,0,0,0,.9,1.53,4.09,4.09,0,0,1,1.37,1.75,10,10,0,0,0,2.82,3.81,4.52,4.52,0,0,1,1.26,2c.45,1.12.87,2.23,1.33,3.35a2,2,0,0,0,.31.7c1.08,1,1.19,2.48,1.68,3.74a6.51,6.51,0,0,0,1,1.88,1.69,1.69,0,0,1,.46,1.22,64.93,64.93,0,0,0,.8,8.24,25.18,25.18,0,0,1,.28,5.69,9,9,0,0,1-.59,2.69,3.3,3.3,0,0,0-.25,1.64,8.05,8.05,0,0,1-.45,3.39,8.15,8.15,0,0,0-.38,2.79c0,1.12,0,2.24-.11,3.35a12.25,12.25,0,0,1-1.36,4.72c-1.47,3-2.58,6.11-4.23,9a1.78,1.78,0,0,0-.24.53,1.47,1.47,0,0,1-1.19,1.22,1.37,1.37,0,0,0-.94,1.29,2.62,2.62,0,0,1-.94,1.61,15.74,15.74,0,0,1-2.87,2.3,10.83,10.83,0,0,0-2.51,2.06,11.51,11.51,0,0,1-5.17,3A60.66,60.66,0,0,1,87,114.17c-.73.07-1.43.17-2.16.24a1.3,1.3,0,0,1-.73,0,3.15,3.15,0,0,0-1.89-.14,4.23,4.23,0,0,1-2.83-.46,1.41,1.41,0,0,0-.31-.14,15,15,0,0,0-5.69-1.88c-1.19-.18-2.34-.49-3.53-.74A21.88,21.88,0,0,1,62,107.36a18.89,18.89,0,0,0-3.25-1.92,2.4,2.4,0,0,1-.38-.21,17.75,17.75,0,0,1-3-2.58,14.1,14.1,0,0,0-2.51-2.55,11,11,0,0,1-3.15-4.19A19,19,0,0,1,48.08,91a23.38,23.38,0,0,0-1-3.52,28.89,28.89,0,0,1-1.29-6,11.51,11.51,0,0,1,0-4.26,16.58,16.58,0,0,1,3.42-7.47,10.12,10.12,0,0,1,2.2-2c1.47-1,3-2,4.5-2.89A10.46,10.46,0,0,1,61,63.26a5.26,5.26,0,0,0,1.46-.34A19.17,19.17,0,0,1,69.27,62.08Z"/><path class="cls-3" d="M34.74,49.3a1.74,1.74,0,0,1,.35,0c1.61.1,2,.41,2.41,1.95A6,6,0,0,1,36,55.34a1.35,1.35,0,0,1-.46.14c-.45.14-.9.24-1.36.42a1.8,1.8,0,0,1-2.09-.84A7.13,7.13,0,0,1,31.5,51a1.62,1.62,0,0,1,.83-1.09A4.11,4.11,0,0,1,34.74,49.3Z"/><path class="cls-5" d="M259.45,41.47a23.73,23.73,0,0,1,1.82-9.54A14.67,14.67,0,0,1,264,27.71a10.85,10.85,0,0,1,16.52.73,16.14,16.14,0,0,1,3.09,6.74,27.8,27.8,0,0,1-.85,15.42,13.85,13.85,0,0,1-2.36,4.23,10.76,10.76,0,0,1-15.95,1,15.7,15.7,0,0,1-4.1-7.39A25.53,25.53,0,0,1,259.45,41.47Z"/><path class="cls-5" d="M229.57,41a26.2,26.2,0,0,1-1.78,10.26,14.29,14.29,0,0,1-2.11,3.62,10.77,10.77,0,0,1-16,1,15.14,15.14,0,0,1-4-7.1,25.52,25.52,0,0,1,.85-16.68,12.8,12.8,0,0,1,4-5.44,10.8,10.8,0,0,1,14.69,1.17,16.8,16.8,0,0,1,3.69,7.63A21.65,21.65,0,0,1,229.57,41Z"/><path class="cls-5" d="M185.45,103.09V98c0-.77,0-.73.77-.73a27.05,27.05,0,0,1,5.16.25,10.92,10.92,0,0,1,2.47.89c3.7,2,3.41,7.55.17,9.42a8.78,8.78,0,0,1-3.58,1.13,19.38,19.38,0,0,1-4.1,0c-.81-.08-.85-.12-.85-.93C185.45,106.38,185.45,104.75,185.45,103.09Z"/><path class="cls-5" d="M185.45,89.41V85c0-.44.16-.69.61-.69a18.67,18.67,0,0,1,6,.33,4.11,4.11,0,0,1,3.33,3.41,4.75,4.75,0,0,1-1.83,4.83,6.55,6.55,0,0,1-3.69,1.34c-1.3.08-2.6,0-3.9,0-.45,0-.53-.2-.53-.57Z"/><path class="cls-5" d="M232.33,90V85.11c0-.65,0-.78.69-.78a21.75,21.75,0,0,1,5.64.17c2.2.48,3.86,1.58,4.35,3.93.73,3.66-1.34,6.5-5.08,7-1.66.2-3.36.08-5.07.12-.45,0-.53-.21-.53-.61Z"/></g></g></svg>