<?xml version="1.0" encoding="utf-8"?>
<!-- Generator: Adobe Illustrator 26.0.2, SVG Export Plug-In . SVG Version: 6.00 Build 0)  -->
<svg version="1.1" id="Untitled-Str_x25_E1nka_x25_201"
	 xmlns="http://www.w3.org/2000/svg" xmlns:xlink="http://www.w3.org/1999/xlink" x="0px" y="0px" viewBox="0 0 226 60"
	 style="enable-background:new 0 0 226 60;" xml:space="preserve">
<style type="text/css">
	.st0{fill:none;}
	.st1{fill:#B3B3B3;}
	.st2{fill:#FFFFFF;}
	.st3{fill:#666666;}
</style>
<path class="st0" d="z"/>
<g id="Vrstva_x25_201">
	<g>
		<g>
			<path class="st1" d="M59.9,30c0,16.6-13.4,30-30,30C13.4,60,0,46.6,0,30C0,13.4,13.4,0,30,0C46.5,0,59.9,13.4,59.9,30z"/>
			<g>
				<path class="st0" d="M21.6,28.8c-0.3,1.2-1.4,2.1-2.7,2.1h-1.9c0,0,0,0.1,0.1,0.1c0,0,0,0,0,0c0,0,0,0,0,0
					c0.1,0.1,0.1,0.2,0.2,0.3c0,0,0,0,0.1,0.1c0,0,0.1,0.1,0.1,0.1c0,0,0,0,0.1,0.1c0.1,0.1,0.1,0.1,0.2,0.2c0,0,0.1,0.1,0.1,0.1
					c0,0,0.1,0.1,0.1,0.1c0,0,0.1,0.1,0.1,0.1c0,0,0.1,0.1,0.1,0.1c0,0,0.1,0.1,0.1,0.1c0,0,0.1,0,0.1,0.1c0.1,0,0.2,0.1,0.2,0.1
					c0,0,0,0,0.1,0c0.1,0,0.1,0.1,0.2,0.1c0,0,0.1,0,0.1,0c0.1,0,0.2,0.1,0.3,0.1c0,0,0,0,0,0c0.1,0,0.2,0,0.3,0c0,0,0,0,0.1,0
					c0.1,0,0.2,0,0.3,0c0.2,0,0.4,0,0.5,0c0,0,0.1,0,0.1,0c1.5-0.3,2.6-1.6,2.6-3.1c0,0,0-0.1,0-0.1c0-0.1,0-0.2,0-0.2
					c0,0,0-0.1,0-0.1c0-0.1,0-0.1,0-0.2c0,0,0-0.1,0-0.1c0-0.1,0-0.2-0.1-0.2c0,0,0,0,0-0.1c0-0.1-0.1-0.2-0.1-0.2c0,0,0,0,0,0
					c0-0.1-0.1-0.2-0.1-0.3c0,0,0,0,0,0c-0.1-0.1-0.1-0.2-0.2-0.3l0,0c-0.1-0.1-0.1-0.2-0.2-0.2l0,0c-0.1-0.1-0.1-0.2-0.2-0.2
					c0,0,0,0,0,0l0,0c0,0,0,0,0,0L22,27.3L21.6,28.8z"/>
				<path class="st0" d="M14.5,26.4c0.2-1.5-0.9-3-2.4-3.2c-0.2,0-0.4,0-0.5,0c1.2-1.7,3-3,5-3.6l4.8,3.7l0.1,0.1l4.5-16
					c0.1-0.4,0.4-0.7,0.8-0.8c0.6-0.2,1.3,0.2,1.4,0.8L38,42.2c0.3,1.1,1.3,1.7,2.1,1.3c0.5-0.2,0.8-0.7,1-1.3l3.1-11
					c0.3-1.2,1.4-2,2.7-2h9.5C56,14.9,44.3,3.5,30,3.5c-14.3,0-26,11.4-26.5,25.7h10.7l0,0l0-0.1L14.5,26.4z"/>
				<path class="st0" d="M17.7,29.1c1.3,0,2.4-0.8,2.7-2l0.1-0.5l0.1-0.3c0,0-0.1,0-0.1,0v0c0,0,0,0,0,0c-0.1,0-0.2,0-0.3,0
					c-0.1,0-0.2,0-0.3,0c-0.1,0-0.2,0-0.3,0c0,0-0.1,0-0.1,0c-0.1,0-0.1,0-0.2,0c0,0-0.1,0-0.1,0c-0.1,0-0.1,0-0.2,0
					c0,0-0.1,0-0.1,0c-0.1,0-0.1,0-0.2,0.1c0,0-0.1,0-0.1,0.1c-0.1,0-0.1,0-0.2,0.1c0,0-0.1,0-0.1,0.1c0,0-0.1,0.1-0.1,0.1
					c0,0-0.1,0-0.1,0.1c0,0-0.1,0.1-0.1,0.1c0,0-0.1,0.1-0.1,0.1c0,0-0.1,0.1-0.1,0.1c0,0-0.1,0.1-0.1,0.1c0,0-0.1,0.1-0.1,0.1
					c0,0-0.1,0.1-0.1,0.1c0,0-0.1,0.1-0.1,0.1c0,0-0.1,0.1-0.1,0.1c0,0-0.1,0.1-0.1,0.1c0,0,0,0.1-0.1,0.1c0,0,0,0.1-0.1,0.2
					c0,0,0,0.1-0.1,0.1c0,0.1,0,0.1-0.1,0.2c0,0,0,0.1,0,0.1c0,0.1,0,0.1,0,0.2c0,0,0,0.1,0,0.1c0,0.1,0,0.2,0,0.3c0,0,0,0,0,0
					c0,0,0,0,0,0c0,0,0,0,0,0.1h0.4H17.7z"/>
				<path class="st0" d="M45.5,32.9l-4.8,17.6c-0.1,0.4-0.4,0.7-0.8,0.8c-0.6,0.2-1.3-0.2-1.4-0.8l-9.6-34.9c-0.4-1.3-1.5-2-2.5-1.5
					c-0.6,0.2-1,0.8-1.2,1.5l-2.4,8.8l0,0l2.3,1.8c1.2,0.9,3,0.7,3.9-0.5c0.1-0.1,0.2-0.3,0.3-0.4c0.8,1.9,1.1,4.1,0.7,6.1L20,35.6
					c-1.4,0.6-2.1,2.2-1.5,3.7c0.1,0.2,0.2,0.3,0.2,0.5c-2.1-0.2-4.1-1.1-5.6-2.5l0.8-6.2l0-0.1l0,0H3.5C3.9,45.1,15.6,56.5,30,56.5
					c14.3,0,26-11.4,26.5-25.7h-8.2C47,30.9,45.8,31.7,45.5,32.9z"/>
				<path class="st2" d="M30,1.7C14.4,1.7,1.7,14.4,1.7,30c0,15.6,12.7,28.3,28.2,28.3c15.6,0,28.2-12.7,28.2-28.3
					C58.2,14.4,45.5,1.7,30,1.7z M30,56.5c-14.3,0-26-11.4-26.5-25.7h10.5l0.2-1.7H3.5C3.9,14.9,15.6,3.5,30,3.5
					c14.3,0,26,11.4,26.5,25.7H47c-1.3,0-2.4,0.8-2.7,2l-3.1,11c-0.2,0.6-0.5,1.1-1,1.3c-0.9,0.4-1.8-0.2-2.1-1.3L28.2,7.4
					c-0.2-0.6-0.8-1-1.4-0.8c-0.4,0.1-0.7,0.4-0.8,0.8l-4.5,16l-0.1,0.5l-0.7,2.4l-0.1,0.3l-0.1,0.5c-0.3,1.2-1.4,2-2.7,2h-0.6h-0.4
					c0,0.1,0,0.2,0,0.3c0,0.1,0,0.2,0,0.3c0,0,0,0,0,0.1c0,0.1,0,0.2,0,0.3c0,0,0,0,0,0.1c0,0.1,0,0.1,0,0.2c0,0,0,0.1,0,0.1
					c0,0,0,0.1,0.1,0.1c0,0.1,0.1,0.1,0.1,0.2c0,0,0,0.1,0,0.1c0,0,0,0,0,0h1.9c1.3,0,2.4-0.8,2.7-2.1l0.4-1.5l0.1-0.3l0.6-2.1
					l0.1-0.5l2.4-8.8c0.2-0.7,0.6-1.3,1.2-1.5c1-0.5,2.1,0.2,2.5,1.5l9.6,34.9c0.2,0.6,0.8,1,1.4,0.8c0.4-0.1,0.7-0.4,0.8-0.8
					l4.8-17.6c0.3-1.2,1.4-2.1,2.7-2.1h8.2C56,45.1,44.3,56.5,30,56.5z"/>
				<path class="st3" d="M29.4,25.3c-0.1,0.2-0.2,0.3-0.3,0.4c-0.9,1.2-2.7,1.5-3.9,0.5l-2.3-1.8l0,0l-0.1,0.5l-0.6,2.1c0,0,0,0,0,0
					l0,0c0,0,0,0,0,0c0.1,0.1,0.1,0.1,0.2,0.2l0,0c0.1,0.1,0.1,0.2,0.2,0.2l0,0c0.1,0.1,0.1,0.2,0.2,0.3c0,0,0,0,0,0
					c0,0.1,0.1,0.2,0.1,0.3c0,0,0,0,0,0c0,0.1,0.1,0.2,0.1,0.2c0,0,0,0,0,0.1c0,0.1,0,0.2,0.1,0.2c0,0,0,0.1,0,0.1
					c0,0.1,0,0.1,0,0.2c0,0,0,0.1,0,0.1c0,0.1,0,0.2,0,0.2c0,0,0,0.1,0,0.1c0,1.6-1.1,2.8-2.6,3.1c0,0-0.1,0-0.1,0
					c-0.2,0-0.4,0-0.5,0c-0.1,0-0.2,0-0.3,0c0,0,0,0-0.1,0c-0.1,0-0.2,0-0.3,0c0,0,0,0,0,0c-0.1,0-0.2,0-0.3-0.1c0,0-0.1,0-0.1,0
					c-0.1,0-0.1-0.1-0.2-0.1c0,0,0,0-0.1,0c-0.1,0-0.2-0.1-0.2-0.1c0,0-0.1,0-0.1-0.1c-0.1,0-0.1-0.1-0.1-0.1c0,0-0.1-0.1-0.1-0.1
					c0,0-0.1-0.1-0.1-0.1c0,0-0.1-0.1-0.1-0.1c0,0-0.1-0.1-0.1-0.1c-0.1-0.1-0.1-0.1-0.2-0.2c0,0,0,0-0.1-0.1c0,0-0.1-0.1-0.1-0.1
					c0,0,0,0-0.1-0.1c-0.1-0.1-0.1-0.2-0.2-0.3c0,0,0,0,0,0c0,0,0,0,0,0c0,0,0-0.1-0.1-0.1c0,0,0,0,0,0c0,0,0-0.1,0-0.1
					c0-0.1-0.1-0.1-0.1-0.2c0,0,0-0.1-0.1-0.1c0,0,0-0.1,0-0.1c0-0.1,0-0.1,0-0.2c0,0,0,0,0-0.1c0-0.1,0-0.2,0-0.3c0,0,0,0,0-0.1
					c0-0.1,0-0.2,0-0.3c0-0.1,0-0.2,0-0.3c0,0,0,0,0-0.1c0,0,0,0,0,0c0,0,0,0,0,0c0-0.1,0-0.2,0-0.3c0,0,0-0.1,0-0.1
					c0-0.1,0-0.1,0-0.2c0,0,0-0.1,0-0.1c0-0.1,0-0.1,0.1-0.2c0,0,0-0.1,0.1-0.1c0-0.1,0-0.1,0.1-0.2c0,0,0-0.1,0.1-0.1
					c0,0,0.1-0.1,0.1-0.1c0,0,0.1-0.1,0.1-0.1c0,0,0.1-0.1,0.1-0.1c0,0,0.1-0.1,0.1-0.1c0,0,0.1-0.1,0.1-0.1c0,0,0.1-0.1,0.1-0.1
					c0,0,0.1-0.1,0.1-0.1c0,0,0.1-0.1,0.1-0.1c0,0,0.1-0.1,0.1-0.1c0,0,0.1-0.1,0.1-0.1c0,0,0.1-0.1,0.1-0.1c0,0,0.1,0,0.1-0.1
					c0.1,0,0.1,0,0.2-0.1c0,0,0.1,0,0.1-0.1c0.1,0,0.1,0,0.2-0.1c0,0,0.1,0,0.1,0c0.1,0,0.1,0,0.2,0c0,0,0.1,0,0.1,0
					c0.1,0,0.1,0,0.2,0c0,0,0.1,0,0.1,0c0.1,0,0.2,0,0.3,0c0.1,0,0.2,0,0.3,0c0.1,0,0.2,0,0.3,0c0,0,0,0,0,0v0c0,0,0.1,0,0.1,0
					l0.7-2.4l0.1-0.5l-0.1-0.1l-4.8-3.7c-2,0.7-3.7,2-5,3.6c0.2,0,0.4,0,0.5,0c1.5,0.2,2.6,1.6,2.4,3.2l-0.4,2.7l0,0.1l-0.2,1.7
					l0,0.1l-0.8,6.2c1.6,1.4,3.6,2.3,5.6,2.5c-0.1-0.1-0.2-0.3-0.2-0.5c-0.6-1.4,0.1-3.1,1.5-3.7l10.1-4.2
					C30.5,29.3,30.2,27.2,29.4,25.3z"/>
			</g>
		</g>
		<g>
			<path class="st1" d="M85.3,34.4c0,1.7-0.6,3-1.8,3.9c-1.2,1-2.8,1.4-5,1.4c-2,0-3.7-0.4-5.2-1.1V35c1.2,0.6,2.3,0.9,3.1,1.2
				c0.9,0.2,1.6,0.3,2.3,0.3c0.9,0,1.5-0.2,2-0.5c0.5-0.3,0.7-0.8,0.7-1.5c0-0.4-0.1-0.7-0.3-1c-0.2-0.3-0.5-0.5-0.9-0.8
				c-0.4-0.3-1.2-0.7-2.4-1.2c-1.1-0.5-2-1-2.5-1.5c-0.6-0.5-1-1-1.3-1.7c-0.3-0.6-0.5-1.4-0.5-2.3c0-1.6,0.5-2.9,1.6-3.8
				c1.1-0.9,2.6-1.4,4.5-1.4c1,0,1.9,0.1,2.7,0.3c0.9,0.2,1.8,0.5,2.7,1l-1.3,3c-1-0.4-1.8-0.7-2.4-0.8c-0.6-0.2-1.3-0.2-1.9-0.2
				c-0.7,0-1.3,0.2-1.7,0.5c-0.4,0.3-0.6,0.8-0.6,1.3c0,0.3,0.1,0.6,0.2,0.9c0.2,0.3,0.4,0.5,0.8,0.7c0.3,0.2,1.2,0.7,2.5,1.3
				c1.7,0.8,2.9,1.6,3.5,2.5C84.9,32.2,85.3,33.2,85.3,34.4z"/>
			<path class="st1" d="M101.2,26.9c0,2-0.6,3.5-1.8,4.5c-1.2,1-3,1.6-5.2,1.6h-1.7v6.5h-3.9V21.2h5.8c2.2,0,3.9,0.5,5.1,1.4
				C100.6,23.6,101.2,25,101.2,26.9z M92.5,29.8h1.3c1.2,0,2.1-0.2,2.7-0.7c0.6-0.5,0.9-1.2,0.9-2.1c0-0.9-0.2-1.6-0.7-2
				c-0.5-0.4-1.3-0.7-2.3-0.7h-1.8V29.8z"/>
			<path class="st1" d="M115.5,34.4c0,1.7-0.6,3-1.8,3.9c-1.2,1-2.8,1.4-5,1.4c-2,0-3.7-0.4-5.2-1.1V35c1.2,0.6,2.3,0.9,3.1,1.2
				c0.9,0.2,1.6,0.3,2.3,0.3c0.9,0,1.5-0.2,2-0.5c0.5-0.3,0.7-0.8,0.7-1.5c0-0.4-0.1-0.7-0.3-1c-0.2-0.3-0.5-0.5-0.9-0.8
				c-0.4-0.3-1.2-0.7-2.4-1.2c-1.1-0.5-2-1-2.5-1.5c-0.6-0.5-1-1-1.3-1.7c-0.3-0.6-0.5-1.4-0.5-2.3c0-1.6,0.5-2.9,1.6-3.8
				c1.1-0.9,2.6-1.4,4.5-1.4c1,0,1.9,0.1,2.7,0.3c0.9,0.2,1.8,0.5,2.7,1l-1.3,3c-1-0.4-1.8-0.7-2.4-0.8c-0.6-0.2-1.3-0.2-1.9-0.2
				c-0.7,0-1.3,0.2-1.7,0.5c-0.4,0.3-0.6,0.8-0.6,1.3c0,0.3,0.1,0.6,0.2,0.9c0.2,0.3,0.4,0.5,0.8,0.7c0.3,0.2,1.2,0.7,2.5,1.3
				c1.7,0.8,2.9,1.6,3.5,2.5C115.1,32.2,115.5,33.2,115.5,34.4z M115.3,15.6v0.3c-0.7,0.7-1.3,1.4-1.9,2.1c-0.6,0.7-1,1.3-1.3,1.7
				h-4.5c-0.2-0.4-0.6-0.9-1-1.4c-0.5-0.5-1.2-1.3-2.2-2.4v-0.3h2.5c1.2,0.8,2.2,1.5,2.9,2.2c0.7-0.7,1.7-1.5,2.9-2.2H115.3z"/>
			<path class="st1" d="M129.6,34.4c0,1.7-0.6,3-1.8,3.9c-1.2,1-2.8,1.4-5,1.4c-2,0-3.7-0.4-5.2-1.1V35c1.2,0.6,2.3,0.9,3.1,1.2
				c0.9,0.2,1.6,0.3,2.3,0.3c0.9,0,1.5-0.2,2-0.5c0.5-0.3,0.7-0.8,0.7-1.5c0-0.4-0.1-0.7-0.3-1c-0.2-0.3-0.5-0.5-0.9-0.8
				c-0.4-0.3-1.2-0.7-2.4-1.2c-1.1-0.5-2-1-2.5-1.5c-0.6-0.5-1-1-1.3-1.7c-0.3-0.6-0.5-1.4-0.5-2.3c0-1.6,0.5-2.9,1.6-3.8
				c1.1-0.9,2.6-1.4,4.5-1.4c1,0,1.9,0.1,2.7,0.3c0.9,0.2,1.8,0.5,2.7,1l-1.3,3c-1-0.4-1.8-0.7-2.4-0.8c-0.6-0.2-1.3-0.2-1.9-0.2
				c-0.7,0-1.3,0.2-1.7,0.5c-0.4,0.3-0.6,0.8-0.6,1.3c0,0.3,0.1,0.6,0.2,0.9c0.2,0.3,0.4,0.5,0.8,0.7c0.3,0.2,1.2,0.7,2.5,1.3
				c1.7,0.8,2.9,1.6,3.5,2.5C129.2,32.2,129.6,33.2,129.6,34.4z"/>
			<path class="st1" d="M143.4,39.5h-10.5V21.2h10.5v3.2h-6.7v4h6.2v3.2h-6.2v4.7h6.7V39.5z"/>
			<path class="st1" d="M165.1,39.5l-1.3-4.4h-6.7l-1.3,4.4h-4.2l6.5-18.4h4.7l6.5,18.4H165.1z M162.8,31.9
				c-1.2-3.9-1.9-6.2-2.1-6.7c-0.2-0.5-0.3-0.9-0.3-1.2c-0.3,1.1-1.1,3.7-2.4,7.9H162.8z"/>
			<path class="st1" d="M188.6,21.2h3.9l-6.2,18.3h-4.2l-6.2-18.3h3.9l3.4,10.9c0.2,0.6,0.4,1.4,0.6,2.2c0.2,0.9,0.3,1.5,0.4,1.8
				c0.1-0.8,0.4-2.1,0.9-4L188.6,21.2z"/>
			<path class="st1" d="M211.4,30.3c0,3-0.8,5.4-2.3,7c-1.5,1.6-3.7,2.4-6.5,2.4c-2.8,0-5-0.8-6.5-2.4s-2.3-4-2.3-7
				c0-3,0.8-5.4,2.3-7c1.5-1.6,3.7-2.4,6.5-2.4c2.8,0,5,0.8,6.4,2.4C210.7,24.9,211.4,27.3,211.4,30.3z M198.1,30.3
				c0,2,0.4,3.6,1.2,4.6c0.8,1,1.9,1.6,3.5,1.6c3.1,0,4.6-2.1,4.6-6.2c0-4.1-1.5-6.2-4.6-6.2c-1.5,0-2.7,0.5-3.5,1.6
				C198.5,26.7,198.1,28.2,198.1,30.3z"/>
			<path class="st1" d="M226,34.4c0,1.7-0.6,3-1.8,3.9c-1.2,1-2.8,1.4-5,1.4c-2,0-3.7-0.4-5.2-1.1V35c1.2,0.6,2.3,0.9,3.1,1.2
				c0.9,0.2,1.6,0.3,2.3,0.3c0.9,0,1.5-0.2,2-0.5c0.5-0.3,0.7-0.8,0.7-1.5c0-0.4-0.1-0.7-0.3-1c-0.2-0.3-0.5-0.5-0.9-0.8
				c-0.4-0.3-1.2-0.7-2.4-1.2c-1.1-0.5-2-1-2.5-1.5c-0.6-0.5-1-1-1.3-1.7c-0.3-0.6-0.5-1.4-0.5-2.3c0-1.6,0.5-2.9,1.6-3.8
				c1.1-0.9,2.6-1.4,4.5-1.4c1,0,1.9,0.1,2.7,0.3c0.9,0.2,1.8,0.5,2.7,1l-1.3,3c-1-0.4-1.8-0.7-2.4-0.8c-0.6-0.2-1.3-0.2-1.9-0.2
				c-0.7,0-1.3,0.2-1.7,0.5c-0.4,0.3-0.6,0.8-0.6,1.3c0,0.3,0.1,0.6,0.2,0.9c0.2,0.3,0.4,0.5,0.8,0.7c0.3,0.2,1.2,0.7,2.5,1.3
				c1.7,0.8,2.9,1.6,3.5,2.5C225.7,32.2,226,33.2,226,34.4z M225.8,15.6v0.3c-0.7,0.7-1.3,1.4-1.9,2.1c-0.6,0.7-1,1.3-1.3,1.7h-4.5
				c-0.2-0.4-0.6-0.9-1-1.4c-0.4-0.5-1.2-1.3-2.2-2.4v-0.3h2.5c1.2,0.8,2.2,1.5,2.9,2.2c0.7-0.7,1.7-1.5,2.9-2.2H225.8z"/>
		</g>
		<g>
			<path class="st1" d="M175.9,54.6v-9.3h2V53h3.8v1.6H175.9z"/>
			<path class="st1" d="M183.2,54.6v-9.3h2v9.3H183.2z"/>
			<path class="st1" d="M187.5,45.4h2.9c1.3,0,2.3,0.2,2.9,0.6c0.6,0.4,0.9,1,0.9,1.8c0,0.6-0.1,1-0.4,1.4c-0.3,0.4-0.6,0.6-1,0.6
				v0.1c0.6,0.1,1,0.4,1.3,0.7c0.3,0.4,0.4,0.8,0.4,1.4c0,0.8-0.3,1.5-0.9,2c-0.6,0.5-1.4,0.7-2.5,0.7h-3.5V45.4z M189.5,49.1h1.1
				c0.5,0,0.9-0.1,1.2-0.2c0.2-0.2,0.4-0.4,0.4-0.8c0-0.4-0.1-0.6-0.4-0.8c-0.3-0.2-0.7-0.2-1.2-0.2h-1V49.1z M189.5,50.6V53h1.3
				c0.5,0,0.9-0.1,1.2-0.3c0.3-0.2,0.4-0.5,0.4-1c0-0.8-0.5-1.2-1.6-1.2H189.5z"/>
			<path class="st1" d="M201.5,54.6h-5.3v-9.3h5.3V47h-3.4v2h3.1v1.6h-3.1V53h3.4V54.6z"/>
			<path class="st1" d="M205.4,51.1v3.6h-2v-9.3h2.7c1.3,0,2.2,0.2,2.8,0.7c0.6,0.5,0.9,1.2,0.9,2.1c0,0.5-0.1,1-0.4,1.5
				c-0.3,0.4-0.7,0.8-1.3,1c1.4,2.1,2.3,3.4,2.7,4h-2.2l-2.2-3.6H205.4z M205.4,49.5h0.6c0.6,0,1.1-0.1,1.4-0.3
				c0.3-0.2,0.4-0.5,0.4-1c0-0.4-0.2-0.8-0.5-0.9c-0.3-0.2-0.8-0.3-1.4-0.3h-0.6V49.5z"/>
			<path class="st1" d="M217.3,54.6H212v-9.3h5.3V47H214v2h3.1v1.6H214V53h3.4V54.6z"/>
			<path class="st1" d="M223.2,46.9c-0.7,0-1.3,0.3-1.7,0.8c-0.4,0.6-0.6,1.3-0.6,2.3c0,2.1,0.8,3.1,2.3,3.1c0.6,0,1.4-0.2,2.4-0.5
				v1.6c-0.8,0.3-1.6,0.5-2.5,0.5c-1.3,0-2.4-0.4-3.1-1.2c-0.7-0.8-1.1-2-1.1-3.5c0-1,0.2-1.8,0.5-2.5c0.4-0.7,0.9-1.3,1.5-1.7
				c0.7-0.4,1.4-0.6,2.3-0.6c0.9,0,1.8,0.2,2.7,0.7l-0.6,1.6c-0.3-0.2-0.7-0.3-1-0.4C223.9,46.9,223.5,46.9,223.2,46.9z"/>
		</g>
	</g>
</g>
<path class="st0" d="z"/>
</svg>
